<?xml version="1.0" encoding="utf-8"?>
<svg viewBox="0 0 200 40" xmlns="http://www.w3.org/2000/svg">
  <path d="M 54.184 23.013 C 54.065 22.566 53.8 22.23 53.393 22.004 L 49.854 19.999 L 53.393 17.993 C 53.8 17.769 54.065 17.431 54.184 16.985 C 54.304 16.538 54.248 16.113 54.018 15.716 L 53.166 14.282 C 52.936 13.884 52.592 13.625 52.135 13.508 C 51.678 13.392 51.247 13.444 50.838 13.672 L 47.3 15.664 L 47.3 11.665 C 47.3 11.214 47.131 10.824 46.794 10.493 C 46.458 10.164 46.058 10 45.597 10 L 43.894 10 C 43.433 10 43.035 10.164 42.697 10.493 C 42.36 10.824 42.191 11.214 42.191 11.665 L 42.191 15.664 L 38.652 13.671 C 38.244 13.444 37.812 13.392 37.355 13.508 C 36.899 13.625 36.556 13.884 36.324 14.282 L 35.473 15.716 C 35.242 16.113 35.187 16.538 35.307 16.985 C 35.428 17.431 35.69 17.769 36.098 17.993 L 39.638 19.999 L 36.098 22.004 C 35.69 22.23 35.427 22.566 35.307 23.013 C 35.187 23.46 35.242 23.884 35.473 24.282 L 36.324 25.715 C 36.556 26.115 36.898 26.373 37.355 26.491 C 37.812 26.607 38.244 26.553 38.652 26.328 L 42.191 24.334 L 42.191 28.332 C 42.191 28.784 42.36 29.173 42.697 29.505 C 43.035 29.834 43.433 30 43.894 30 L 45.597 30 C 46.058 30 46.458 29.834 46.794 29.505 C 47.131 29.173 47.3 28.784 47.3 28.332 L 47.3 24.336 L 50.838 26.328 C 51.246 26.553 51.678 26.608 52.135 26.491 C 52.592 26.373 52.936 26.115 53.166 25.715 L 54.018 24.282 C 54.248 23.884 54.304 23.46 54.184 23.013 Z" id="path4676" fill-rule="nonzero" style="fill: rgb(204, 204, 204);"/>
  <path d="M 69.445 24.67 L 69.445 24.67 L 65.725 24.67 L 64.945 29.2 L 59.245 29.2 L 62.545 10.45 L 71.545 10.45 L 71.545 10.45 C 74.945 10.45 76.645 12.03 76.645 15.19 L 76.645 15.19 L 76.645 15.19 C 76.645 16.69 76.435 18.043 76.015 19.25 L 76.015 19.25 L 76.015 19.25 C 75.595 20.463 75.132 21.427 74.625 22.14 L 74.625 22.14 L 74.625 22.14 C 74.112 22.847 73.408 23.447 72.515 23.94 L 72.515 23.94 L 72.515 23.94 C 71.628 24.427 70.605 24.67 69.445 24.67 Z M 68.695 15.25 L 67.375 15.25 L 66.565 19.87 L 67.885 19.87 L 67.885 19.87 C 68.565 19.87 69.078 19.797 69.425 19.65 L 69.425 19.65 L 69.425 19.65 C 69.778 19.497 70.005 19.15 70.105 18.61 L 70.105 18.61 L 70.105 18.61 C 70.365 17.13 70.495 16.32 70.495 16.18 L 70.495 16.18 L 70.495 16.18 C 70.495 15.8 70.345 15.55 70.045 15.43 L 70.045 15.43 L 70.045 15.43 C 69.745 15.31 69.295 15.25 68.695 15.25 L 68.695 15.25 Z M 88.675 24.4 L 87.835 29.2 L 76.435 29.2 L 79.735 10.45 L 85.435 10.45 L 82.975 24.4 L 88.675 24.4 Z M 93.145 26.23 L 91.975 29.2 L 85.975 29.2 L 93.865 10.45 L 102.685 10.45 L 104.005 29.2 L 97.975 29.2 L 97.855 26.23 L 93.145 26.23 Z M 97.405 16.21 L 97.105 16.21 L 95.005 21.46 L 97.405 21.46 L 97.405 16.21 Z M 105.295 10.45 L 111.595 10.45 L 111.985 17.05 L 112.195 17.05 L 114.955 10.45 L 121.255 10.45 L 113.695 24.1 L 112.825 29.2 L 107.125 29.2 L 107.995 24.1 L 105.295 10.45 Z M 124.525 29.2 L 118.825 29.2 L 122.125 10.45 L 127.825 10.45 L 124.525 29.2 Z M 143.905 29.2 L 138.535 29.2 L 135.475 22.54 L 135.475 22.54 C 135.395 22.4 135.355 22.203 135.355 21.95 L 135.355 21.95 L 135.355 21.95 C 135.355 21.703 135.375 21.42 135.415 21.1 L 135.415 21.1 L 135.175 21.1 L 133.765 29.2 L 128.065 29.2 L 131.365 10.45 L 136.735 10.45 L 139.795 17.11 L 139.795 17.11 C 139.855 17.25 139.885 17.447 139.885 17.7 L 139.885 17.7 L 139.885 17.7 C 139.885 17.947 139.865 18.23 139.825 18.55 L 139.825 18.55 L 140.065 18.55 L 141.505 10.45 L 147.205 10.45 L 143.905 29.2 Z M 157.915 23.68 L 157.915 23.68 L 158.065 22.87 L 156.625 22.87 L 157.435 18.28 L 164.305 18.28 L 162.535 28.3 L 162.535 28.3 C 160.095 29.2 157.645 29.65 155.185 29.65 L 155.185 29.65 L 155.185 29.65 C 152.725 29.65 150.948 29.16 149.855 28.18 L 149.855 28.18 L 149.855 28.18 C 148.768 27.2 148.225 25.69 148.225 23.65 L 148.225 23.65 L 148.225 23.65 C 148.225 22.79 148.365 21.52 148.645 19.84 L 148.645 19.84 L 148.645 19.84 C 149.245 16.36 150.305 13.85 151.825 12.31 L 151.825 12.31 L 151.825 12.31 C 153.345 10.77 155.865 10 159.385 10 L 159.385 10 L 159.385 10 C 160.125 10 161.068 10.08 162.215 10.24 L 162.215 10.24 L 162.215 10.24 C 163.368 10.4 164.215 10.58 164.755 10.78 L 164.755 10.78 L 163.105 15.37 L 163.105 15.37 C 161.605 15.09 160.228 14.95 158.975 14.95 L 158.975 14.95 L 158.975 14.95 C 157.728 14.95 156.835 15.05 156.295 15.25 L 156.295 15.25 L 156.295 15.25 C 155.755 15.45 155.435 15.85 155.335 16.45 L 155.335 16.45 L 153.865 24.94 L 155.755 24.94 L 155.755 24.94 C 156.435 24.94 156.938 24.867 157.265 24.72 L 157.265 24.72 L 157.265 24.72 C 157.598 24.567 157.815 24.22 157.915 23.68 Z" style="white-space: pre; fill: rgb(255, 255, 255);"/>
</svg>