<?xml version="1.0" encoding="utf-8"?>
<svg viewBox="0 0 200 40" xmlns="http://www.w3.org/2000/svg">
  <path d="M 34.607 13.83 L 34.607 13.83 L 34.127 18.87 L 34.127 18.87 C 32.847 19.39 31.227 19.65 29.267 19.65 L 29.267 19.65 L 29.267 19.65 C 26.747 19.65 24.94 19.16 23.847 18.18 L 23.847 18.18 L 23.847 18.18 C 22.76 17.2 22.217 15.69 22.217 13.65 L 22.217 13.65 L 22.217 13.65 C 22.217 12.79 22.357 11.52 22.637 9.84 L 22.637 9.84 L 22.637 9.84 C 23.237 6.4 24.27 3.9 25.737 2.34 L 25.737 2.34 L 25.737 2.34 C 27.21 0.78 29.537 0 32.717 0 L 32.717 0 L 32.717 0 C 33.457 0 34.304 0.077 35.257 0.23 L 35.257 0.23 L 35.257 0.23 C 36.204 0.377 36.897 0.56 37.337 0.78 L 37.337 0.78 L 35.657 5.37 L 35.657 5.37 C 34.477 5.09 33.374 4.95 32.347 4.95 L 32.347 4.95 L 32.347 4.95 C 31.314 4.95 30.577 5.05 30.137 5.25 L 30.137 5.25 L 30.137 5.25 C 29.697 5.45 29.427 5.85 29.327 6.45 L 29.327 6.45 L 27.947 14.31 L 27.947 14.31 C 28.667 14.47 29.407 14.55 30.167 14.55 L 30.167 14.55 L 30.167 14.55 C 31.787 14.55 33.267 14.31 34.607 13.83 Z M 39.587 0.45 L 45.287 0.45 L 42.797 14.52 L 44.837 14.52 L 44.837 14.52 C 45.537 14.52 46.037 14.427 46.337 14.24 L 46.337 14.24 L 46.337 14.24 C 46.637 14.047 46.847 13.61 46.967 12.93 L 46.967 12.93 L 49.187 0.45 L 54.887 0.45 L 53.027 10.98 L 53.027 10.98 C 52.727 12.68 52.38 14.05 51.987 15.09 L 51.987 15.09 L 51.987 15.09 C 51.6 16.13 51.057 17.01 50.357 17.73 L 50.357 17.73 L 50.357 17.73 C 49.657 18.45 48.79 18.95 47.757 19.23 L 47.757 19.23 L 47.757 19.23 C 46.73 19.51 45.427 19.65 43.847 19.65 L 43.847 19.65 L 43.847 19.65 C 41.427 19.65 39.73 19.283 38.757 18.55 L 38.757 18.55 L 38.757 18.55 C 37.79 17.823 37.307 16.57 37.307 14.79 L 37.307 14.79 L 37.307 14.79 C 37.307 13.81 37.447 12.54 37.727 10.98 L 37.727 10.98 L 39.587 0.45 Z M 68.477 12.96 L 70.457 19.2 L 64.187 19.2 L 62.807 13.62 L 61.577 13.62 L 60.617 19.2 L 54.917 19.2 L 58.217 0.45 L 67.217 0.45 L 67.217 0.45 C 70.637 0.45 72.347 1.98 72.347 5.04 L 72.347 5.04 L 72.347 5.04 C 72.347 6.3 72.157 7.5 71.777 8.64 L 71.777 8.64 L 71.777 8.64 C 71.077 10.8 69.977 12.24 68.477 12.96 L 68.477 12.96 Z M 64.187 5.25 L 63.047 5.25 L 62.387 9 L 63.707 9 L 63.707 9 C 64.387 9 64.9 8.927 65.247 8.78 L 65.247 8.78 L 65.247 8.78 C 65.6 8.627 65.84 8.197 65.967 7.49 L 65.967 7.49 L 65.967 7.49 C 66.1 6.777 66.167 6.34 66.167 6.18 L 66.167 6.18 L 66.167 6.18 C 66.167 5.78 66.014 5.523 65.707 5.41 L 65.707 5.41 L 65.707 5.41 C 65.394 5.303 64.887 5.25 64.187 5.25 L 64.187 5.25 Z M 86.447 12.96 L 88.427 19.2 L 82.157 19.2 L 80.777 13.62 L 79.547 13.62 L 78.587 19.2 L 72.887 19.2 L 76.187 0.45 L 85.187 0.45 L 85.187 0.45 C 88.607 0.45 90.317 1.98 90.317 5.04 L 90.317 5.04 L 90.317 5.04 C 90.317 6.3 90.127 7.5 89.747 8.64 L 89.747 8.64 L 89.747 8.64 C 89.047 10.8 87.947 12.24 86.447 12.96 L 86.447 12.96 Z M 82.157 5.25 L 81.017 5.25 L 80.357 9 L 81.677 9 L 81.677 9 C 82.357 9 82.87 8.927 83.217 8.78 L 83.217 8.78 L 83.217 8.78 C 83.57 8.627 83.81 8.197 83.937 7.49 L 83.937 7.49 L 83.937 7.49 C 84.07 6.777 84.137 6.34 84.137 6.18 L 84.137 6.18 L 84.137 6.18 C 84.137 5.78 83.984 5.523 83.677 5.41 L 83.677 5.41 L 83.677 5.41 C 83.364 5.303 82.857 5.25 82.157 5.25 L 82.157 5.25 Z M 104.267 7.77 L 103.487 12.12 L 97.787 12.12 L 97.397 14.4 L 104.387 14.4 L 103.547 19.2 L 90.857 19.2 L 94.157 0.45 L 106.697 0.45 L 105.137 5.25 L 98.987 5.25 L 98.567 7.77 L 104.267 7.77 Z M 122.597 19.2 L 117.227 19.2 L 114.167 12.54 L 114.167 12.54 C 114.087 12.4 114.047 12.203 114.047 11.95 L 114.047 11.95 L 114.047 11.95 C 114.047 11.703 114.067 11.42 114.107 11.1 L 114.107 11.1 L 113.867 11.1 L 112.457 19.2 L 106.757 19.2 L 110.057 0.45 L 115.427 0.45 L 118.487 7.11 L 118.487 7.11 C 118.547 7.25 118.577 7.447 118.577 7.7 L 118.577 7.7 L 118.577 7.7 C 118.577 7.947 118.557 8.23 118.517 8.55 L 118.517 8.55 L 118.757 8.55 L 120.197 0.45 L 125.897 0.45 L 122.597 19.2 Z M 142.307 0.45 L 141.437 5.25 L 137.297 5.25 L 134.867 19.2 L 129.167 19.2 L 131.597 5.25 L 127.487 5.25 L 128.357 0.45 L 142.307 0.45 Z M 153.647 14.4 L 152.807 19.2 L 141.407 19.2 L 144.707 0.45 L 150.407 0.45 L 147.947 14.4 L 153.647 14.4 Z M 152.597 0.45 L 158.897 0.45 L 159.287 7.05 L 159.497 7.05 L 162.257 0.45 L 168.557 0.45 L 160.997 14.1 L 160.127 19.2 L 154.427 19.2 L 155.297 14.1 L 152.597 0.45 Z" style="white-space: pre; fill: rgb(255, 255, 255);"/>
  <path d="M 82.473 35.02 L 82.473 35.02 L 78.753 35.02 L 77.973 39.55 L 72.273 39.55 L 75.573 20.8 L 84.573 20.8 L 84.573 20.8 C 87.973 20.8 89.673 22.38 89.673 25.54 L 89.673 25.54 L 89.673 25.54 C 89.673 27.04 89.463 28.393 89.043 29.6 L 89.043 29.6 L 89.043 29.6 C 88.623 30.813 88.16 31.777 87.653 32.49 L 87.653 32.49 L 87.653 32.49 C 87.14 33.197 86.436 33.797 85.543 34.29 L 85.543 34.29 L 85.543 34.29 C 84.656 34.777 83.633 35.02 82.473 35.02 Z M 81.723 25.6 L 80.403 25.6 L 79.593 30.22 L 80.913 30.22 L 80.913 30.22 C 81.593 30.22 82.106 30.147 82.453 30 L 82.453 30 L 82.453 30 C 82.806 29.847 83.033 29.5 83.133 28.96 L 83.133 28.96 L 83.133 28.96 C 83.393 27.48 83.523 26.67 83.523 26.53 L 83.523 26.53 L 83.523 26.53 C 83.523 26.15 83.373 25.9 83.073 25.78 L 83.073 25.78 L 83.073 25.78 C 82.773 25.66 82.323 25.6 81.723 25.6 L 81.723 25.6 Z M 101.703 34.75 L 100.863 39.55 L 89.463 39.55 L 92.763 20.8 L 98.463 20.8 L 96.003 34.75 L 101.703 34.75 Z M 106.173 36.58 L 105.003 39.55 L 99.003 39.55 L 106.893 20.8 L 115.713 20.8 L 117.033 39.55 L 111.003 39.55 L 110.883 36.58 L 106.173 36.58 Z M 110.433 26.56 L 110.133 26.56 L 108.033 31.81 L 110.433 31.81 L 110.433 26.56 Z M 118.323 20.8 L 124.623 20.8 L 125.013 27.4 L 125.223 27.4 L 127.983 20.8 L 134.283 20.8 L 126.723 34.45 L 125.853 39.55 L 120.153 39.55 L 121.023 34.45 L 118.323 20.8 Z M 137.553 39.55 L 131.853 39.55 L 135.153 20.8 L 140.853 20.8 L 137.553 39.55 Z M 156.933 39.55 L 151.563 39.55 L 148.503 32.89 L 148.503 32.89 C 148.423 32.75 148.383 32.553 148.383 32.3 L 148.383 32.3 L 148.383 32.3 C 148.383 32.053 148.403 31.77 148.443 31.45 L 148.443 31.45 L 148.203 31.45 L 146.793 39.55 L 141.093 39.55 L 144.393 20.8 L 149.763 20.8 L 152.823 27.46 L 152.823 27.46 C 152.883 27.6 152.913 27.797 152.913 28.05 L 152.913 28.05 L 152.913 28.05 C 152.913 28.297 152.893 28.58 152.853 28.9 L 152.853 28.9 L 153.093 28.9 L 154.533 20.8 L 160.233 20.8 L 156.933 39.55 Z M 170.943 34.03 L 170.943 34.03 L 171.093 33.22 L 169.653 33.22 L 170.463 28.63 L 177.333 28.63 L 175.563 38.65 L 175.563 38.65 C 173.123 39.55 170.673 40 168.213 40 L 168.213 40 L 168.213 40 C 165.753 40 163.976 39.51 162.883 38.53 L 162.883 38.53 L 162.883 38.53 C 161.796 37.55 161.253 36.04 161.253 34 L 161.253 34 L 161.253 34 C 161.253 33.14 161.393 31.87 161.673 30.19 L 161.673 30.19 L 161.673 30.19 C 162.273 26.71 163.333 24.2 164.853 22.66 L 164.853 22.66 L 164.853 22.66 C 166.373 21.12 168.893 20.35 172.413 20.35 L 172.413 20.35 L 172.413 20.35 C 173.153 20.35 174.096 20.43 175.243 20.59 L 175.243 20.59 L 175.243 20.59 C 176.396 20.75 177.243 20.93 177.783 21.13 L 177.783 21.13 L 176.133 25.72 L 176.133 25.72 C 174.633 25.44 173.256 25.3 172.003 25.3 L 172.003 25.3 L 172.003 25.3 C 170.756 25.3 169.863 25.4 169.323 25.6 L 169.323 25.6 L 169.323 25.6 C 168.783 25.8 168.463 26.2 168.363 26.8 L 168.363 26.8 L 166.893 35.29 L 168.783 35.29 L 168.783 35.29 C 169.463 35.29 169.966 35.217 170.293 35.07 L 170.293 35.07 L 170.293 35.07 C 170.626 34.917 170.843 34.57 170.943 34.03 Z" style="white-space: pre; fill: rgb(255, 255, 255);"/>
</svg>