<?xml version="1.0" encoding="utf-8"?>
<svg version="1.0" preserveAspectRatio="xMidYMid meet" xmlns="http://www.w3.org/2000/svg">
  <g id="layer1" fill="#dddddd" stroke="none" transform="matrix(0.043469, 0, 0, 0.043469, -44.425125, -68.202568)">
    <path d="M4298 1975 l-37 -130 0 91 c-1 84 1 93 22 107 21 15 16 16 -73 16 -89 0 -94 -1 -72 -16 22 -15 22 -19 22 -229 0 -204 -1 -213 -20 -219 -39 -12 -7 -26 56 -24 l63 2 15 51 c8 28 25 87 37 131 12 44 22 81 24 83 1 1 12 -35 24 -80 12 -46 29 -105 37 -133 l14 -50 216 0 216 0 20 24 c17 22 19 35 14 100 -3 42 -5 85 -4 96 6 186 3 237 -16 251 -16 11 -67 14 -255 13 -217 0 -234 -1 -213 -16 20 -14 22 -23 21 -107 l-1 -91 -15 55 c-8 30 -25 89 -37 130 l-22 75 -36 -130z m280 -159 l-3 -221 -30 0 -30 0 -3 215 c-2 186 0 217 13 226 9 7 25 10 36 7 19 -5 19 -14 17 -227z m190 102 l-3 -83 -42 -3 -43 -3 0 85 0 86 45 0 46 0 -3 -82z m2 -213 l0 -65 -45 0 -45 0 0 65 0 65 45 0 45 0 0 -65z" style="fill: rgb(255, 255, 255);"/>
    <path d="M1248 2085 c-3 -6 -18 -59 -34 -120 l-29 -110 -3 85 c-3 78 -1 86 20 102 22 17 21 18 -72 17 -89 0 -94 -1 -72 -16 22 -15 22 -19 22 -229 0 -204 -1 -213 -20 -219 -38 -12 -10 -23 53 -21 l62 1 22 70 c12 39 30 99 40 133 l18 64 36 -134 36 -133 67 -1 c65 -1 95 9 56 19 -19 5 -20 14 -20 221 0 183 2 218 15 222 37 15 8 24 -72 24 l-87 0 22 -20 c20 -19 22 -30 21 -108 l-1 -87 -15 50 c-8 28 -24 84 -37 125 -12 41 -24 70 -28 65z" style="fill: rgb(255, 255, 255);"/>
    <path d="M1510 2050 c-22 -13 -28 -425 -7 -454 12 -17 28 -19 146 -20 120 -1 134 1 147 18 22 30 20 428 -2 450 -12 13 -40 16 -142 16 -70 0 -134 -5 -142 -10z m190 -77 c2 -216 1 -323 -3 -330 -3 -5 -26 -7 -51 -5 l-46 4 0 179 0 179 50 0 c48 0 50 -1 50 -27z" style="fill: rgb(255, 255, 255);"/>
    <path d="M1840 2051 c0 -5 7 -11 15 -15 13 -4 15 -39 15 -221 0 -182 -2 -217 -15 -221 -42 -17 -1 -22 133 -19 185 5 182 3 182 146 0 91 -2 102 -23 122 l-22 22 50 83 c39 65 56 84 78 89 52 11 38 23 -25 23 -39 0 -71 -6 -84 -15 -12 -8 -45 -53 -75 -100 -42 -66 -59 -85 -74 -83 -18 3 -20 11 -20 85 0 70 3 84 20 97 18 14 13 15 -67 16 -49 0 -88 -4 -88 -9z m222 -323 c3 -40 3 -76 1 -80 -2 -5 -24 -8 -49 -8 l-44 0 0 80 0 80 44 0 44 0 4 -72z" style="fill: rgb(255, 255, 255);"/>
    <path d="M2338 2043 c22 -15 22 -20 22 -209 l0 -194 -43 0 c-43 0 -77 21 -77 48 0 7 -5 12 -11 12 -7 0 -8 -14 -4 -42 15 -89 2 -83 186 -83 l164 0 6 40 c3 22 9 50 13 63 10 30 -12 29 -23 -2 -11 -27 -29 -36 -77 -36 l-34 0 0 192 c0 164 2 194 17 210 15 17 13 18 -73 17 -84 0 -88 -1 -66 -16z" style="fill: rgb(255, 255, 255);"/>
    <path d="M2528 2042 c18 -14 38 -66 87 -228 57 -188 62 -210 47 -221 -9 -7 -14 -13 -11 -14 24 -3 149 -4 149 -1 0 3 -6 10 -14 16 -12 9 -7 35 31 161 80 272 84 280 118 280 l30 0 3 -210 c2 -199 2 -211 -17 -226 -11 -9 -18 -18 -16 -20 5 -6 165 -2 171 4 3 3 -4 8 -15 12 -20 6 -21 13 -21 206 l0 199 64 0 c58 0 69 -3 110 -35 25 -19 46 -30 46 -25 0 5 -12 34 -27 65 l-27 55 -230 0 c-210 0 -229 -1 -214 -16 13 -13 14 -22 3 -57 l-12 -42 -58 0 -58 0 -13 44 c-12 40 -11 46 4 57 14 11 4 13 -68 13 -84 1 -85 0 -62 -17z m231 -174 c0 -7 -9 -35 -18 -63 l-18 -50 -16 57 c-10 31 -17 59 -17 62 0 3 16 6 35 6 22 0 35 -5 34 -12z" style="fill: rgb(255, 255, 255);"/>
    <path d="M3360 2051 c0 -5 7 -11 15 -15 13 -4 15 -38 15 -214 0 -174 -3 -212 -15 -222 -26 -22 -17 -26 63 -25 100 2 100 2 74 21 -20 14 -22 24 -22 97 l0 82 55 -85 c57 -88 63 -100 43 -100 -6 0 -8 -3 -5 -7 10 -9 167 -11 172 -2 3 4 -6 10 -20 13 -18 5 -45 36 -91 105 l-65 98 72 117 c59 97 77 118 100 123 49 10 32 23 -30 23 -73 0 -96 -17 -153 -112 l-41 -70 -18 24 c-24 30 -26 126 -4 134 36 14 9 24 -65 24 -44 0 -80 -4 -80 -9z" style="fill: rgb(255, 255, 255);"/>
    <path d="M3798 2049 c-16 -9 -18 -31 -18 -228 0 -191 2 -220 17 -232 21 -18 256 -17 278 1 12 10 15 51 15 229 0 155 -3 220 -12 229 -15 15 -255 16 -280 1z m192 -229 l0 -180 -55 0 -55 0 0 173 c0 96 3 177 7 180 3 4 28 7 55 7 l48 0 0 -180z" style="fill: rgb(255, 255, 255);"/>
    <path d="M4880 2050 c0 -5 7 -10 15 -10 21 0 27 -15 94 -235 56 -184 60 -201 44 -212 -9 -7 -15 -13 -12 -14 23 -4 149 -5 149 -1 0 3 -6 10 -14 16 -20 16 104 423 137 448 21 17 19 18 -63 17 -74 0 -83 -1 -67 -13 17 -13 17 -17 4 -58 l-15 -43 -55 -3 -55 -3 -15 44 c-14 41 -13 46 1 61 15 15 10 16 -66 16 -48 0 -82 -4 -82 -10z m250 -176 c0 -3 -7 -31 -16 -62 l-17 -57 -18 55 c-24 72 -24 70 16 70 19 0 35 -3 35 -6z" style="fill: rgb(255, 255, 255);"/>
    <path d="M5350 2051 c0 -5 7 -11 15 -15 13 -4 15 -36 15 -201 l0 -195 -40 0 c-39 0 -71 20 -82 51 -13 35 -15 -2 -4 -56 l12 -60 164 0 164 0 8 40 c4 22 10 50 13 63 8 31 -7 27 -27 -8 -15 -26 -22 -30 -63 -30 l-45 0 0 194 c0 189 0 194 23 209 21 15 17 16 -65 16 -49 1 -88 -3 -88 -8z" style="fill: rgb(255, 255, 255);"/>
  </g>
</svg>