<?xml version="1.0" encoding="utf-8"?>
<svg xmlns="http://www.w3.org/2000/svg">
  <path id="Path_13" data-name="Path 13" d="M 0 88.829 L 21.177 0.002 L 32.302 45.477 L 21.757 89 L 0.002 88.833 Z" style="fill: rgb(204, 204, 204);"/>
  <path id="Path_14" data-name="Path 14" d="M 21.175 0 L 42.682 0 L 61.141 73.766 L 39.382 73.766 L 21.173 0 Z" style="fill: rgb(254, 254, 254);"/>
  <path id="Path_15" data-name="Path 15" d="M 55.7 8.761 L 66.573 51.675 L 61.136 73.761 L 50.264 30.073 L 55.7 8.756 Z" style="fill: rgb(204, 204, 204);"/>
  <path id="Path_16" data-name="Path 16" d="M 55.7 8.761 L 69.907 64.835 L 91.38 64.835 L 76.934 8.761 Z" style="fill: rgb(255, 255, 255);"/>
  <path id="Path_17" data-name="Path 17" d="M 103.491 17.52 L 91.377 64.835 L 80.42 22.376 L 82.068 17.52 Z" style="fill: rgb(204, 204, 204);"/>
  <path id="Path_28" data-name="Path 28" d="M 158.875 64.169 L 142.827 64.169 L 141.402 52.529 L 128.848 52.529 L 125.486 64.169 L 109.691 64.169 C 109.691 64.169 109.691 62.773 122.375 17.412 C 148.327 17.215 149.3 17.227 150.659 19.596 C 151.825 21.369 152.027 24.012 158.875 64.169 Z M 134.543 25.067 L 134.543 25.067 L 129.936 42.768 L 140.673 42.768 L 139.275 25.067 Z" style="fill: rgb(255, 255, 255);"/>
  <path id="Path_18" data-name="Path 18" d="M 167.668 62.522 C 165.868 59.893 165.625 58.519 174.93 25.972 C 159.266 26.102 157.843 25.972 157.843 25.972 L 160.95 17.412 L 206.509 17.412 L 203.92 25.972 L 189.941 25.972 C 189.941 25.972 189.957 26.033 179.589 64.132 C 170.514 64.101 169.132 64.657 167.666 62.522 Z" style="fill: rgb(255, 255, 255);"/>
  <path id="Path_19" data-name="Path 19" d="M 248.695 19.393 C 250.25 21.762 249.473 23.076 238.093 64.13 C 202.875 64.358 203.652 64.098 201.841 61.993 C 199.789 59.61 201.061 58.039 212.209 17.412 C 247.995 17.412 247.157 17.031 248.695 19.393 Z M 225.15 25.443 L 225.15 25.443 L 216.866 56.47 L 225.15 56.47 L 233.432 25.443 Z" style="fill: rgb(255, 255, 255);"/>
  <path id="Path_20" data-name="Path 20" d="M 247.932 64.13 C 247.039 63.377 249.095 60.897 260.359 17.412 C 317.505 17.218 314.395 16.634 316.339 19.596 C 317.45 21.287 317.295 22.286 306.436 64.13 C 287.798 63.971 290.516 64.13 290.516 64.13 L 299.836 23.866 L 294.53 23.866 L 284.173 64.13 L 268.125 64.13 L 278.995 23.866 L 273.818 23.866 L 262.945 64.13 Z" style="fill: rgb(255, 255, 255);"/>
  <path id="Path_21" data-name="Path 21" d="M 314.395 62.389 C 313.814 60.221 314.395 60.605 325.593 17.412 C 341.773 17.022 341.125 17.412 341.125 17.412 C 341.125 17.412 340.595 20.183 328.184 64.13 C 317.118 63.971 314.948 64.444 314.398 62.394 Z" style="fill: rgb(255, 255, 255);"/>
  <path id="Path_22" data-name="Path 22" d="M 336.982 64.13 L 339.441 55.34 L 364.098 55.34 C 364.098 55.34 364.423 53.583 367.527 41.748 C 345.266 41.681 344.67 42.802 342.936 39.908 C 342.145 38.588 343.182 37.526 348.373 17.412 C 383.048 17.542 389.275 17.412 389.275 17.412 L 387.205 24.918 L 363.905 25.114 C 363.905 25.114 363.632 24.653 360.798 33.858 C 384.095 33.793 383.118 33.982 384.291 35.174 C 386.039 36.949 385.457 37.935 378.402 64.13 C 334.65 64.361 336.982 64.13 336.982 64.13 Z" style="fill: rgb(255, 255, 255);"/>
  <path id="Path_23" data-name="Path 23" d="M 397.691 17.412 C 384.875 61.654 385.189 61.114 386.623 62.983 C 387.982 64.756 390.118 64.005 444.675 64.169 C 455.548 21.411 456.841 17.412 456.841 17.412 L 440.791 17.412 L 429.659 58.316 L 423.964 58.316 L 435.095 17.412 L 419.564 17.412 L 408.432 58.051 L 402.736 58.051 L 413.868 17.412 Z" style="fill: rgb(255, 255, 255);"/>
  <path id="Path_24" data-name="Path 24" d="M 502.145 17.412 C 508.102 61.195 508.293 61.666 509.655 63.047 C 510.818 64.231 510.882 64.164 540.784 64.164 C 551.85 19.792 541.364 61.789 552.368 17.412 L 536.318 17.412 L 526.805 57.593 L 523.373 57.593 L 518.711 17.412 C 518.711 17.412 514.764 17.218 502.141 17.412 Z" style="fill: rgb(255, 255, 255);"/>
  <path id="Path_25" data-name="Path 25" d="M 600 17.412 C 600 17.412 598.252 17.412 560.652 17.412 C 549.325 62.375 549.325 62.156 550.295 63.375 C 551.27 64.594 552.625 64.164 589.643 64.13 C 590.486 58.642 590.68 55.881 590.68 55.881 L 566.8 55.881 L 569.973 42.275 L 590.875 42.077 L 592.752 33.858 L 572.041 33.858 L 574.373 24.918 L 598.448 24.918 L 600 17.412 Z" style="fill: rgb(255, 255, 255);"/>
  <path id="Path_27" data-name="Path 27" d="M 501.625 64.169 L 485.577 64.169 L 484.152 52.529 L 471.595 52.529 L 468.232 64.169 L 452.439 64.169 C 452.439 64.169 452.439 62.773 465.125 17.412 C 491.077 17.215 492.048 17.227 493.407 19.596 C 494.575 21.369 494.775 24.012 501.625 64.169 Z M 477.291 25.067 L 477.291 25.067 L 472.689 42.768 L 483.427 42.768 L 482.03 25.067 Z" style="fill: rgb(255, 255, 255);"/>
</svg>