<?xml version="1.0" encoding="utf-8"?>
<svg version="1.1" id="Ebene_1" x="0px" y="0px" enable-background="new -0.756 0 566.929 105.029" xmlns="http://www.w3.org/2000/svg">
  <path d="M 146.24 22.074 L 143.416 22.074 L 143.416 12.524 C 143.416 12.524 150.484 12.524 153.814 12.524 C 155.611 12.524 157.014 13.798 157.063 15.597 L 157.063 22.074 L 154.397 22.074 C 154.397 22.074 154.397 17.959 154.397 16.138 C 154.397 15.255 153.877 14.644 153.002 14.563 C 152.521 14.519 152.035 14.555 151.514 14.555 C 151.514 17.051 151.514 22.074 151.514 22.074 L 148.724 22.074 C 148.724 22.074 148.724 17.036 148.724 14.503 C 147.887 14.503 147.084 14.503 146.24 14.503 C 146.24 16.995 146.24 22.074 146.24 22.074 Z" style="fill: rgb(255, 255, 255);"/>
  <path d="M 189.176 22.074 L 186.352 22.074 L 186.352 12.524 C 186.352 12.524 193.42 12.524 196.75 12.524 C 198.547 12.524 199.95 13.798 200 15.597 L 200 22.074 L 197.333 22.074 C 197.333 22.074 197.333 17.959 197.333 16.138 C 197.333 15.255 196.814 14.644 195.938 14.563 C 195.458 14.519 194.971 14.555 194.451 14.555 C 194.451 17.051 194.451 22.074 194.451 22.074 L 191.66 22.074 C 191.66 22.074 191.66 17.036 191.66 14.503 C 190.823 14.503 190.02 14.503 189.176 14.503 C 189.176 16.995 189.176 22.074 189.176 22.074 Z" style="fill: rgb(255, 255, 255);"/>
  <path d="M 112.056 18.431 C 112.958 19.621 113.895 20.854 114.819 22.074 C 113.758 22.074 111.648 22.074 111.648 22.074 L 109.219 18.533 L 106.518 18.533 C 106.518 18.533 106.518 20.897 106.518 22.074 C 105.57 22.074 104.666 22.074 103.736 22.074 C 103.736 18.927 103.736 15.702 103.736 12.524 C 103.871 12.524 104.005 12.524 104.14 12.524 C 106.572 12.524 109.003 12.523 111.435 12.524 C 113.417 12.525 114.836 14.311 114.438 16.237 C 114.218 17.301 113.534 17.954 112.525 18.294 C 112.385 18.341 112.243 18.378 112.056 18.431 Z M 106.525 16.819 C 107.758 16.819 110.194 16.819 110.194 16.819 C 110.386 16.816 110.586 16.733 110.767 16.656 C 111.171 16.484 111.451 16.208 111.453 15.728 C 111.454 15.22 111.268 14.815 110.778 14.63 C 110.504 14.526 110.2 14.462 109.908 14.457 L 106.524 14.457 C 106.525 14.457 106.525 16.044 106.525 16.819 Z" style="fill: rgb(255, 255, 255);"/>
  <path d="M 141.836 22.07 L 134.745 22.07 C 134.218 22.063 133.674 21.968 133.172 21.81 C 131.864 21.399 131.18 20.367 131.257 19.033 C 131.336 17.668 132.198 16.62 133.493 16.343 C 133.795 16.278 134.11 16.246 134.419 16.244 L 138.943 16.244 C 139.067 16.244 138.819 16.244 138.943 16.244 C 138.927 15.202 138.067 14.359 136.966 14.355 L 132.02 14.355 L 132.02 12.524 L 137.807 12.524 C 140.03 12.524 141.768 14.187 141.836 16.403 L 141.836 22.071 L 141.836 22.071 Z M 139.032 18.041 C 137.866 18.041 136.714 18.041 135.562 18.041 C 134.826 18.041 134.327 18.481 134.315 19.137 C 134.305 19.774 134.786 20.196 135.534 20.197 L 139.032 20.197 C 139.032 20.197 139.032 18.808 139.032 18.041 Z" style="fill: rgb(255, 255, 255);"/>
  <path d="M 58.237 22.07 L 58.237 20.195 L 64.483 20.195 C 65.059 20.195 65.411 19.908 65.535 19.342 C 65.626 18.925 65.364 18.497 64.861 18.311 C 64.632 18.226 64.378 18.178 64.135 18.175 L 60.283 18.175 C 58.711 18.152 57.793 17.217 57.652 15.555 C 57.542 14.261 58.495 12.783 59.786 12.525 C 59.786 12.525 65.343 12.525 68.002 12.525 C 68.002 13.099 68.002 13.843 68.002 14.449 C 67.871 14.449 67.739 14.449 67.606 14.449 C 65.774 14.449 63.94 14.447 62.108 14.45 C 61.935 14.451 61.759 14.465 61.589 14.496 C 61.158 14.577 60.838 14.842 60.76 15.258 C 60.682 15.666 60.864 16.047 61.205 16.305 C 61.31 16.384 61.48 16.422 61.621 16.423 L 65.772 16.423 C 66.801 16.452 67.768 16.716 68.291 17.728 C 69.203 19.494 68.5 22.031 65.814 22.07 L 58.237 22.07 Z" style="fill: rgb(255, 255, 255);"/>
  <path d="M 179.139 12.306 C 180.206 12.341 181.242 12.463 182.212 12.91 C 183.562 13.531 184.57 14.509 184.857 15.993 C 185.216 17.861 184.887 19.607 183.39 20.941 C 182.541 21.699 181.467 22.032 180.368 22.221 C 178.66 22.515 177.025 22.239 175.476 21.457 C 174.027 20.727 173.42 19.462 173.255 17.929 C 173.173 17.158 173.19 16.386 173.43 15.637 C 173.998 13.873 175.314 12.969 177.034 12.582 C 177.721 12.428 178.117 12.329 179.139 12.306 Z M 182.248 17.298 C 182.24 17.124 182.233 16.95 182.223 16.776 C 182.142 15.472 181.377 14.489 180.183 14.176 C 179.484 13.992 178.773 14.013 178.074 14.16 C 177.058 14.372 176.394 14.995 176.104 15.986 C 175.872 16.775 175.873 17.588 176.008 18.392 C 176.165 19.323 176.729 19.957 177.628 20.206 C 178.168 20.356 178.754 20.412 179.316 20.399 C 181.233 20.352 182.294 19.207 182.248 17.298 Z" style="fill: rgb(255, 255, 255);"/>
  <path d="M 102.233 16.354 C 102.233 16.979 102.233 17.56 102.233 18.169 C 100.014 18.169 97.811 18.169 95.608 18.169 C 95.625 19.314 96.433 20.129 97.528 20.13 C 98.949 20.132 102.184 20.131 102.184 20.131 L 102.184 22.065 L 96.828 22.065 C 94.164 21.942 92.542 20.064 92.631 17.597 C 92.66 16.784 92.714 15.983 93.017 15.216 C 93.671 13.557 95.177 12.525 96.952 12.525 C 98.573 12.525 102.235 12.525 102.235 12.525 L 102.235 14.456 C 102.235 14.456 98.619 14.445 97.747 14.449 C 96.683 14.454 95.798 15.247 95.657 16.354 C 97.845 16.354 100.03 16.354 102.233 16.354 Z" style="fill: rgb(255, 255, 255);"/>
  <path d="M 77.04 20.121 C 77.04 20.121 77.04 15.016 77.04 12.525 C 77.956 12.525 78.846 12.525 79.762 12.525 C 79.762 15.637 79.762 22.071 79.762 22.071 L 72.596 22.074 C 71.711 22.077 70.998 21.735 70.443 21.063 C 69.916 20.424 69.592 19.734 69.616 18.853 C 69.668 16.947 69.631 12.525 69.631 12.525 L 72.362 12.525 L 72.351 18.627 C 72.331 19.524 72.829 20.047 73.657 20.121 L 77.04 20.121 Z" style="fill: rgb(255, 255, 255);"/>
  <path d="M 84.052 18.846 C 84.052 19.948 84.052 21.01 84.052 22.071 C 83.156 22.071 82.288 22.071 81.396 22.071 C 81.396 18.934 81.396 12.525 81.396 12.525 L 88.644 12.525 C 89.927 12.49 91.215 13.446 91.596 14.866 C 92.153 16.938 90.707 18.836 88.548 18.845 C 87.176 18.851 85.804 18.846 84.432 18.846 C 84.322 18.846 84.213 18.846 84.052 18.846 Z M 84.142 16.988 L 87.816 16.988 C 87.964 16.986 88.127 16.892 88.256 16.805 C 88.658 16.535 88.937 15.795 88.808 15.389 C 88.606 14.756 88.202 14.451 87.535 14.449 L 84.142 14.449 L 84.142 16.988 L 84.142 16.988 Z" style="fill: rgb(255, 255, 255);"/>
  <path d="M 130.511 12.525 L 130.511 14.356 L 125.851 14.356 C 125.06 14.378 124.383 14.752 123.92 15.403 C 123.762 15.626 123.665 15.908 123.643 16.29 C 125.945 16.29 128.155 16.29 130.393 16.29 C 130.393 16.982 130.393 17.634 130.393 18.311 C 128.145 18.311 125.905 18.311 123.618 18.311 C 123.618 19.548 123.618 20.838 123.618 22.075 C 122.684 22.075 120.866 22.075 120.866 22.075 C 120.866 22.075 120.866 18.175 120.866 16.43 C 120.866 14.389 122.414 12.592 124.46 12.526 L 130.511 12.525 L 130.511 12.525 Z" style="fill: rgb(255, 255, 255);"/>
  <path d="M 172.411 20.201 L 172.411 22.074 L 167.375 22.074 C 165.288 22.074 163.7 20.847 163.192 18.816 C 162.796 17.231 162.979 15.629 163.876 14.248 C 164.622 13.1 165.716 12.528 167.091 12.525 L 172.465 12.525 L 172.465 14.414 L 167.902 14.414 C 167.007 14.414 166.431 14.828 166.134 15.673 C 165.788 16.659 165.728 17.758 166.052 18.766 C 166.352 19.7 167.066 20.201 168.045 20.201 L 172.411 20.201 Z" style="fill: rgb(255, 255, 255);"/>
  <path d="M 111.963 30.772 C 111.963 30.195 111.963 29.639 111.963 29.049 C 114.179 29.049 116.379 29.049 118.601 29.049 C 118.601 28.089 118.601 27.163 118.601 26.2 C 116.426 26.2 114.264 26.2 112.084 26.2 C 112.084 25.632 112.084 25.102 112.084 24.55 C 114.736 24.55 117.372 24.55 120.035 24.55 C 120.035 26.619 120.035 28.69 120.035 30.772 C 117.344 30.772 114.658 30.772 111.963 30.772 Z" style="fill: rgb(255, 255, 255);"/>
  <path d="M 57.876 26.158 C 57.876 25.561 57.876 25.029 57.876 24.476 C 60.092 24.476 62.291 24.476 64.509 24.476 C 64.679 25.685 64.598 26.854 64.192 27.99 C 64.155 28.095 64.09 28.281 64.09 28.281 C 64.09 28.281 65.321 30.012 65.877 30.785 C 65.248 30.785 64.021 30.785 64.021 30.785 C 64.021 30.785 63.388 29.93 63.141 29.578 C 63.014 29.679 62.899 29.77 62.785 29.86 C 62.012 30.478 61.157 30.842 60.141 30.8 C 60.141 30.8 58.499 30.8 57.652 30.8 L 57.652 29.097 C 57.652 29.097 58.815 29.103 59.396 29.096 C 60.132 29.087 60.859 29.033 61.558 28.758 C 62.638 28.333 63.279 27.365 63.222 26.158 C 61.449 26.158 59.674 26.158 57.876 26.158 Z" style="fill: rgb(255, 255, 255);"/>
  <rect x="158.76" y="12.525" width="2.945" height="9.555" style="fill: rgb(255, 255, 255);"/>
  <path d="M 88.2 30.776 L 88.2 29.061 L 91.628 29.061 C 93.024 29.132 94.119 28.248 94.083 26.525 C 94.081 26.415 94.067 26.305 94.056 26.168 C 91.969 26.168 89.892 26.168 87.785 26.168 C 87.785 25.612 87.785 25.085 87.785 24.543 C 90.309 24.543 95.37 24.543 95.37 24.543 L 95.37 27.611 C 95.363 27.902 95.271 28.204 95.168 28.481 C 94.653 29.855 93.61 30.656 92.193 30.777 L 88.2 30.776 L 88.2 30.776 Z" style="fill: rgb(255, 255, 255);"/>
  <path d="M 96.01 27.45 C 96.01 26.935 96.01 26.455 96.01 25.971 C 98.236 25.971 102.686 25.971 102.686 25.971 L 102.686 28.146 C 102.686 29.015 102.075 29.391 99.603 29.391 C 99.603 29.391 99.581 29.78 99.503 29.889 C 99.242 30.536 98.736 30.803 97.999 30.803 L 96.374 30.803 C 96.374 30.296 96.374 29.81 96.374 29.281 C 96.906 29.281 97.437 29.281 97.968 29.281 C 98.499 29.281 98.636 29.164 98.723 28.631 C 98.749 28.471 98.768 28.31 98.796 28.12 C 99.481 28.12 100.164 28.123 100.847 28.119 C 101.31 28.117 101.449 27.971 101.468 27.451 C 99.655 27.45 97.842 27.45 96.01 27.45 Z" style="fill: rgb(255, 255, 255);"/>
  <path d="M 128.809 24.603 L 128.809 28.11 C 128.525 30.066 126.76 30.812 125.463 30.772 L 120.885 30.772 L 120.885 29.049 L 125.594 29.049 C 126.563 29.098 127.548 28.192 127.533 27.059 C 127.524 26.349 127.532 25.638 127.532 24.927 C 127.532 24.829 127.532 24.729 127.532 24.603 C 127.98 24.603 128.407 24.603 128.809 24.603 Z" style="fill: rgb(255, 255, 255);"/>
  <path d="M 75.691 24.471 C 76.185 24.471 76.642 24.471 77.143 24.471 C 77.143 25.161 77.143 25.841 77.143 26.522 C 77.143 26.659 77.151 26.797 77.142 26.933 C 77.037 28.549 78.168 29.024 79.222 29.024 C 79.358 29.024 79.494 29.024 79.649 29.024 C 79.649 29.606 79.649 30.174 79.649 30.741 C 77.314 30.876 75.789 29.836 75.697 27.542 C 75.66 26.647 75.69 25.748 75.69 24.851 C 75.691 24.729 75.691 24.607 75.691 24.471 Z" style="fill: rgb(255, 255, 255);"/>
  <polygon points="111.211 28.811 103.377 27.821 103.377 26.303 111.211 27.239" style="fill: rgb(255, 255, 255);"/>
  <polygon points="111.211 26.746 103.377 25.757 103.377 24.238 111.211 25.175" style="fill: rgb(255, 255, 255);"/>
  <path d="M 111.217 29.346 C 111.217 29.893 111.217 30.387 111.217 30.912 C 108.597 30.581 105.996 30.253 103.372 29.922 C 103.372 29.459 103.372 28.901 103.372 28.381 C 105.978 28.667 108.588 29.057 111.217 29.346 Z" style="fill: rgb(255, 255, 255);"/>
  <path d="M 71.117 30.728 C 71.117 30.129 71.117 29.575 71.117 29.02 C 71.46 28.994 71.795 28.992 72.123 28.941 C 73.079 28.79 73.636 28.127 73.639 27.161 C 73.643 26.303 73.64 25.444 73.64 24.557 C 74.122 24.557 74.587 24.557 75.099 24.557 C 75.099 25.259 75.109 25.965 75.099 26.671 C 75.092 27.143 75.115 27.626 75.023 28.084 C 74.698 29.703 73.711 30.532 72.015 30.676 C 71.722 30.702 71.427 30.711 71.117 30.728 Z" style="fill: rgb(255, 255, 255);"/>
  <path d="M 71.234 26.828 C 71.234 27.368 71.234 27.888 71.234 28.422 C 69.23 28.422 67.242 28.422 65.234 28.422 C 65.234 27.889 65.234 27.371 65.234 26.828 C 67.229 26.828 69.216 26.828 71.234 26.828 Z" style="fill: rgb(255, 255, 255);"/>
  <path d="M 79.722 26.769 C 81.741 26.769 83.727 26.769 85.728 26.769 C 85.728 27.296 85.728 27.801 85.728 28.336 C 83.728 28.336 81.735 28.336 79.722 28.336 C 79.722 27.823 79.722 27.305 79.722 26.769 Z" style="fill: rgb(255, 255, 255);"/>
  <path d="M 125.632 24.55 C 125.632 25.09 125.632 25.671 125.632 26.2 C 124.051 26.2 122.483 26.2 120.891 26.2 C 120.891 25.685 120.891 25.096 120.891 24.55 C 122.453 24.55 124.026 24.55 125.632 24.55 Z" style="fill: rgb(255, 255, 255);"/>
  <path d="M 79.789 25.553 C 79.788 26.199 79.266 26.718 78.625 26.711 C 78.003 26.703 77.488 26.192 77.478 25.568 C 77.467 24.929 77.986 24.401 78.628 24.398 C 79.276 24.396 79.79 24.907 79.789 25.553 Z M 79.086 25.538 C 79.077 25.275 78.843 25.047 78.597 25.048 C 78.337 25.05 78.093 25.309 78.124 25.57 C 78.158 25.861 78.343 26.031 78.625 26.02 C 78.913 26.008 79.059 25.808 79.086 25.538 Z" style="fill: rgb(255, 255, 255);"/>
  <path id="path2842" d="M 22.813 22.953 C 22.813 26.103 17.707 28.657 11.407 28.657 C 5.108 28.657 0 26.104 0 22.954 C 0 22.954 0 22.954 0 22.953 C 0 19.804 5.106 17.25 11.405 17.25 C 17.704 17.25 22.812 19.803 22.812 22.952 C 22.813 22.953 22.813 22.953 22.813 22.953 Z" style="fill: rgb(204, 204, 204);"/>
  <path id="path3624" d="M 42.456 31.966 C 42.457 35.115 37.351 37.669 31.052 37.669 C 24.752 37.669 19.645 35.116 19.644 31.967 C 19.644 31.966 19.644 31.966 19.644 31.966 C 19.643 28.816 24.75 26.263 31.049 26.263 C 37.349 26.263 42.455 28.815 42.456 31.965 C 42.456 31.966 42.456 31.966 42.456 31.966 Z" style="fill: rgb(204, 204, 204);"/>
  <path id="path3644" d="M 23.232 0 C 17.482 0 12.81 4.595 12.674 10.317 C 12.913 10.3 13.151 10.29 13.393 10.29 C 19.228 10.29 23.958 15.025 23.958 20.865 C 23.958 20.952 23.954 21.037 23.952 21.123 C 29.452 20.754 33.796 16.174 33.796 10.575 C 33.796 4.735 29.067 0 23.232 0 L 23.232 0 Z" style="fill: rgb(204, 204, 204);"/>
  <path id="path3897" d="M 43.231 9.263 C 37.398 9.263 32.67 13.994 32.67 19.831 C 32.67 19.961 32.672 20.092 32.677 20.22 C 32.817 20.215 32.956 20.208 33.099 20.208 C 38.8 20.208 43.447 24.731 43.654 30.386 C 49.292 30.165 53.792 25.527 53.792 19.832 C 53.793 13.994 49.064 9.263 43.231 9.263 L 43.231 9.263 Z" style="fill: rgb(204, 204, 204);"/>
</svg>