<?xml version="1.0" encoding="utf-8"?>
<svg version="1.2" baseProfile="tiny" id="Layer_3" x="0px" y="0px" preserveAspectRatio="none" xmlns="http://www.w3.org/2000/svg">
  <path id="path3" d="M 481.572 154.263 C 477.747 154.263 474.63 157.38 474.63 161.205 L 474.63 404.806 C 474.63 408.63 477.747 411.729 481.572 411.729 L 665.922 411.729 C 669.746 411.729 672.864 408.63 672.864 404.806 L 672.864 404.191 L 672.864 161.205 C 672.864 157.382 669.749 154.263 665.922 154.263 L 481.572 154.263 L 481.572 154.263 Z M 481.572 155.494 L 665.922 155.494 C 669.081 155.494 671.633 158.046 671.633 161.205 L 671.633 404.806 C 671.633 407.964 669.08 410.499 665.922 410.499 L 481.572 410.499 C 478.414 410.504 475.861 407.968 475.861 404.806 L 475.861 161.205 C 475.861 158.046 478.414 155.494 481.572 155.494 L 481.572 155.494 Z" style="fill: rgb(30, 30, 30);" transform="matrix(0.965926, -0.258819, 0.258819, 0.965926, -53.694794, 158.139498)"/>
  <path id="path5" d="M 488.939 189.56 C 482.54 189.56 477.342 194.759 477.342 201.156 L 477.342 241.465 L 477.342 242.081 L 477.958 242.081 L 530.824 242.081 L 531.439 242.081 L 531.439 241.465 L 531.439 190.176 L 531.439 189.56 L 530.824 189.56 L 488.939 189.56 Z M 488.939 190.791 L 530.208 190.791 L 530.208 240.85 L 478.573 240.85 L 478.573 201.156 C 478.573 195.424 483.206 190.791 488.939 190.791 Z" style="fill: rgb(30, 30, 30);" transform="matrix(0.965926, -0.258819, 0.258819, 0.965926, -38.671766, 137.899754)"/>
  <path id="path7" d="M 552.114 173.92 L 552.114 174.535 L 552.114 227.286 L 497.709 227.286 L 497.093 227.286 L 497.093 227.903 L 497.093 379.192 C 497.093 385.59 502.292 390.787 508.689 390.787 L 638.465 390.787 C 644.864 390.787 650.062 385.59 650.062 379.192 L 650.062 185.513 C 650.062 179.115 644.864 173.917 638.465 173.917 L 552.734 173.917 L 552.119 173.917 L 552.114 173.92 Z M 553.345 175.151 L 638.461 175.151 C 644.195 175.151 648.827 179.783 648.827 185.516 L 648.827 379.195 C 648.827 384.928 644.195 389.562 638.461 389.562 L 508.685 389.562 C 502.953 389.562 498.32 384.928 498.32 379.195 L 498.32 228.521 L 552.725 228.521 L 553.341 228.521 L 553.341 227.905 L 553.341 175.154 L 553.345 175.151 Z" style="fill: rgb(30, 30, 30);" transform="matrix(0.965926, -0.258819, 0.258819, 0.965926, -53.533891, 158.073687)"/>
  <path id="path9" d="M 512.087 230.157 C 507.894 230.159 504.491 233.562 504.491 237.754 L 504.491 328.778 C 504.492 332.97 507.894 336.374 512.087 336.374 L 635.548 336.374 C 639.74 336.374 643.144 332.971 643.145 328.778 L 643.145 237.754 C 643.144 233.562 639.74 230.159 635.548 230.157 L 512.087 230.157 Z M 512.087 231.389 L 635.548 231.388 C 639.069 231.389 641.904 234.235 641.914 237.754 C 641.914 237.761 641.914 237.766 641.914 237.774 L 641.914 328.778 C 641.914 332.306 639.075 335.144 635.548 335.144 L 512.087 335.144 C 508.559 335.144 505.723 332.306 505.722 328.778 L 505.722 237.774 L 505.722 237.754 C 505.732 234.235 508.565 231.389 512.087 231.389 Z M 512.087 232.83 C 509.367 232.836 507.15 235.033 507.145 237.754 L 507.145 328.778 C 507.151 331.498 509.367 333.715 512.087 333.72 L 635.548 333.72 C 638.268 333.715 640.486 331.498 640.492 328.778 L 640.491 237.754 C 640.486 235.033 638.269 232.836 635.548 232.83 L 512.087 232.83 L 512.087 232.83 Z M 512.087 234.061 L 635.548 234.061 C 637.599 234.065 639.246 235.705 639.261 237.754 C 639.261 237.761 639.261 237.766 639.261 237.774 L 639.261 328.778 C 639.255 330.836 637.606 332.487 635.548 332.491 L 512.087 332.491 C 510.03 332.485 508.38 330.836 508.376 328.778 L 508.376 237.774 C 508.376 237.766 508.376 237.76 508.376 237.754 C 508.389 235.705 510.035 234.065 512.087 234.061 Z" style="fill: rgb(30, 30, 30);" transform="matrix(0.965926, -0.258819, 0.258819, 0.965926, -53.762077, 158.166766)"/>
  <path id="path11" d="M 573.264 245.349 C 571.401 245.349 569.545 246.067 568.128 247.484 L 564.801 250.792 C 562.652 253.04 561.453 253.715 557.628 253.715 L 553.051 253.715 C 549.043 253.715 545.782 256.976 545.782 260.984 L 545.782 265.311 C 545.782 267.207 545.686 268.366 545.34 269.331 C 544.995 270.294 544.378 271.142 543.167 272.426 L 539.536 276.057 C 536.701 278.891 536.701 283.512 539.536 286.346 L 543.016 289.827 L 543.036 289.827 L 543.036 289.846 C 544.151 290.832 544.801 291.601 545.209 292.729 C 545.617 293.86 545.786 295.412 545.786 297.922 L 545.786 301.422 C 545.786 305.432 549.048 308.691 553.056 308.691 L 557.382 308.691 C 561.438 308.691 562.751 309.605 564.786 311.576 L 568.133 314.922 C 570.967 317.757 575.567 317.757 578.403 314.922 L 581.556 311.788 C 582.859 310.477 583.659 309.719 584.595 309.287 C 585.53 308.853 586.693 308.691 588.826 308.691 L 593.481 308.691 C 597.49 308.691 600.75 305.43 600.75 301.422 L 600.75 297.172 C 600.75 294.728 601.059 293.253 601.653 292.096 C 602.247 290.938 603.168 290.045 604.538 288.807 L 604.557 288.789 L 606.999 286.346 C 609.834 283.512 609.834 278.891 606.999 276.057 L 604.345 273.402 L 604.326 273.383 C 603.02 272.252 602.151 271.433 601.596 270.306 C 601.038 269.181 600.749 267.685 600.749 265.152 L 600.749 260.98 C 600.749 256.971 597.487 253.712 593.48 253.712 L 588.826 253.712 C 586.716 253.712 585.458 253.433 584.422 252.903 C 583.385 252.373 582.53 251.555 581.307 250.365 L 578.403 247.48 C 576.985 246.064 575.13 245.346 573.268 245.346 L 573.264 245.349 Z M 573.264 246.58 C 574.807 246.58 576.35 247.167 577.532 248.35 L 580.436 251.234 L 580.436 251.253 C 581.659 252.443 582.612 253.365 583.859 254.004 C 585.107 254.641 586.603 254.945 588.821 254.945 L 593.475 254.945 C 596.818 254.945 599.514 257.641 599.514 260.985 L 599.514 265.158 C 599.514 267.784 599.82 269.482 600.496 270.85 C 601.164 272.202 602.169 273.158 603.476 274.292 C 603.488 274.302 603.503 274.302 603.515 274.311 L 606.131 276.927 C 608.495 279.29 608.495 283.119 606.131 285.483 L 603.707 287.887 L 603.688 287.907 C 602.316 289.147 601.26 290.162 600.553 291.541 C 599.842 292.928 599.514 294.629 599.514 297.175 L 599.514 301.425 C 599.514 304.769 596.82 307.465 593.476 307.465 L 588.821 307.465 C 586.627 307.465 585.255 307.627 584.071 308.175 C 582.888 308.724 581.995 309.609 580.687 310.927 L 577.542 314.053 C 575.177 316.418 571.368 316.418 569.003 314.053 L 565.656 310.707 L 565.637 310.707 L 565.637 310.687 C 563.53 308.648 561.652 307.457 557.387 307.457 L 553.06 307.457 C 549.717 307.457 547.022 304.762 547.022 301.417 L 547.022 297.918 C 547.022 295.355 546.859 293.665 546.368 292.302 C 545.879 290.948 545.056 289.973 543.887 288.936 L 543.868 288.917 L 540.406 285.475 C 538.042 283.111 538.042 279.281 540.406 276.918 L 544.061 273.282 L 544.08 273.264 C 545.332 271.937 546.094 270.939 546.522 269.745 C 546.951 268.55 547.023 267.232 547.023 265.301 L 547.023 260.975 C 547.023 257.631 549.717 254.937 553.061 254.937 L 557.638 254.937 C 561.634 254.937 563.452 253.995 565.696 251.648 L 569.003 248.34 C 570.185 247.157 571.728 246.571 573.273 246.571 L 573.264 246.58 Z" style="fill: rgb(30, 30, 30);" transform="matrix(0.965926, -0.258819, 0.258819, 0.965926, -53.24555, 157.954074)"/>
  <path id="path13" d="M 573.268 249.235 C 571.593 249.235 569.925 249.864 568.651 251.138 L 565.69 254.1 C 563.781 256.095 562.739 256.677 559.344 256.677 L 555.286 256.677 C 551.683 256.677 548.747 259.611 548.747 263.216 L 548.747 267.062 C 548.747 268.748 548.666 269.774 548.362 270.62 C 548.059 271.465 547.515 272.211 546.44 273.351 L 543.209 276.582 C 540.661 279.13 540.661 283.284 543.209 285.832 L 546.305 288.928 L 546.305 288.947 L 546.324 288.947 C 547.314 289.822 547.87 290.493 548.229 291.484 C 548.587 292.478 548.747 293.849 548.747 296.082 L 548.747 299.197 C 548.747 302.801 551.682 305.735 555.286 305.735 L 559.132 305.735 C 562.729 305.735 563.865 306.544 565.671 308.294 L 568.652 311.274 C 571.199 313.824 575.335 313.824 577.882 311.274 L 580.691 308.467 C 581.849 307.298 582.544 306.634 583.363 306.256 C 584.182 305.876 585.219 305.735 587.114 305.735 L 591.268 305.735 C 594.871 305.735 597.788 302.801 597.788 299.197 L 597.788 295.427 C 597.788 293.257 598.054 291.964 598.577 290.947 C 599.098 289.93 599.915 289.124 601.134 288.023 L 601.154 288.005 L 603.327 285.831 C 605.874 283.283 605.874 279.129 603.327 276.581 L 600.981 274.235 L 600.962 274.216 L 600.943 274.197 C 599.782 273.19 599.027 272.474 598.539 271.485 C 598.052 270.497 597.789 269.177 597.789 266.929 L 597.789 263.217 C 597.789 259.613 594.874 256.678 591.27 256.678 L 587.116 256.678 C 585.245 256.678 584.14 256.431 583.231 255.967 C 582.324 255.501 581.563 254.769 580.481 253.716 L 580.462 253.716 L 577.904 251.139 L 577.885 251.139 C 576.61 249.864 574.941 249.235 573.268 249.235 L 573.268 249.235 Z M 573.268 250.446 C 574.624 250.446 575.978 250.964 577.018 252.003 L 579.595 254.6 L 579.614 254.6 C 580.701 255.658 581.549 256.487 582.671 257.06 C 583.793 257.635 585.135 257.908 587.114 257.907 L 591.268 257.907 C 594.205 257.907 596.557 260.277 596.557 263.214 L 596.557 266.927 C 596.557 269.266 596.815 270.793 597.421 272.023 C 598.025 273.243 598.946 274.085 600.113 275.099 C 600.122 275.107 600.126 275.113 600.132 275.118 L 602.465 277.446 C 604.542 279.522 604.542 282.886 602.465 284.965 L 600.311 287.1 C 599.078 288.213 598.124 289.123 597.485 290.37 C 596.845 291.617 596.561 293.156 596.561 295.427 L 596.561 299.197 C 596.561 302.136 594.211 304.505 591.273 304.505 L 587.119 304.505 C 585.164 304.505 583.935 304.646 582.869 305.139 C 581.802 305.632 580.996 306.428 579.83 307.602 L 577.021 310.409 C 574.943 312.487 571.599 312.487 569.522 310.409 L 566.541 307.409 L 566.522 307.409 C 564.644 305.592 562.944 304.505 559.137 304.505 L 555.291 304.505 C 552.353 304.505 549.984 302.136 549.984 299.197 L 549.984 296.082 C 549.984 293.798 549.829 292.289 549.388 291.062 C 548.951 289.85 548.212 288.983 547.177 288.062 L 547.157 288.044 L 544.08 284.967 C 542.002 282.89 542.002 279.526 544.08 277.447 L 547.33 274.216 L 547.33 274.197 C 548.447 273.013 549.137 272.119 549.523 271.043 C 549.908 269.967 549.984 268.781 549.984 267.062 L 549.984 263.217 C 549.984 260.279 552.353 257.908 555.292 257.908 L 559.35 257.908 C 562.909 257.908 564.563 257.032 566.562 254.946 L 566.581 254.946 L 569.524 252.005 C 570.562 250.966 571.917 250.447 573.274 250.447 L 573.268 250.447 Z" style="fill: rgb(30, 30, 30);" transform="matrix(0.965926, -0.258819, 0.258819, 0.965926, -53.249072, 157.954585)"/>
  <path id="circle15" d="M 573.266 263.388 C 563.437 263.388 555.458 271.387 555.458 281.216 C 555.458 291.044 563.436 299.025 573.266 299.025 C 583.095 299.025 591.074 291.046 591.074 281.216 C 591.074 271.387 583.095 263.388 573.266 263.388 Z M 573.266 264.618 C 582.429 264.618 589.843 272.051 589.843 281.216 C 589.843 290.38 582.429 297.794 573.266 297.794 C 564.103 297.794 556.689 290.38 556.689 281.216 C 556.689 272.052 564.102 264.618 573.266 264.618 Z" style="fill: rgb(30, 30, 30);" transform="matrix(0.965926, -0.258819, 0.258819, 0.965926, -53.247972, 157.953747)"/>
  <path id="circle17" d="M 573.266 269.387 C 566.746 269.387 561.439 274.695 561.439 281.215 C 561.439 287.736 566.745 293.023 573.266 293.023 C 579.786 293.023 585.094 287.735 585.094 281.215 C 585.094 274.695 579.788 269.387 573.266 269.387 Z M 573.266 270.619 C 579.121 270.619 583.862 275.36 583.862 281.215 C 583.862 287.07 579.121 291.793 573.266 291.793 C 567.411 291.793 562.669 287.07 562.669 281.215 C 562.669 275.36 567.411 270.619 573.266 270.619 Z" style="fill: rgb(30, 30, 30);" transform="matrix(0.965926, -0.258819, 0.258819, 0.965926, -53.247576, 157.953821)"/>
  <path id="path19" d="M 552.958 179.074 C 552.618 179.09 552.355 179.376 552.37 179.717 C 552.385 180.057 552.673 180.321 553.013 180.306 C 553.014 180.306 553.015 180.306 553.016 180.306 L 637.135 180.306 C 640.479 180.306 643.175 183.001 643.175 186.344 L 643.175 378.365 C 643.175 381.709 640.48 384.406 637.135 384.406 L 510.018 384.406 C 506.674 384.406 503.978 381.709 503.978 378.365 L 503.978 227.939 C 503.983 227.599 503.711 227.319 503.371 227.313 C 503.032 227.309 502.752 227.581 502.747 227.921 C 502.747 227.927 502.747 227.933 502.747 227.939 L 502.747 378.365 C 502.747 382.375 506.008 385.636 510.017 385.636 L 637.133 385.636 C 641.142 385.636 644.403 382.373 644.403 378.365 L 644.403 186.344 C 644.403 182.335 641.142 179.074 637.133 179.074 L 553.015 179.074 C 552.997 179.074 552.978 179.074 552.958 179.074 L 552.958 179.074 Z" style="fill: rgb(30, 30, 30);" transform="matrix(0.965926, -0.258819, 0.258819, 0.965926, -53.534745, 158.073137)"/>
  <path id="path21" d="M 491.011 193.88 C 487.002 193.88 483.741 197.141 483.741 201.15 L 483.741 240.651 C 483.736 240.991 484.008 241.269 484.348 241.275 C 484.687 241.28 484.967 241.008 484.972 240.667 C 484.972 240.662 484.972 240.656 484.972 240.651 L 484.972 201.15 C 484.972 197.806 487.668 195.112 491.011 195.112 L 531.32 195.112 C 531.659 195.116 531.939 194.845 531.944 194.504 C 531.948 194.164 531.677 193.885 531.336 193.88 C 531.331 193.88 531.325 193.88 531.32 193.88 L 491.011 193.88 L 491.011 193.88 Z" style="fill: rgb(30, 30, 30);" transform="matrix(0.965926, -0.258819, 0.258819, 0.965926, -39.008905, 138.853131)"/>
</svg>