<?xml version="1.0" encoding="utf-8"?>
<svg version="1.2" baseProfile="tiny" id="Layer_3" x="0px" y="0px" viewBox="0 0 1280 720" preserveAspectRatio="none" xmlns="http://www.w3.org/2000/svg">
  <path id="path3" d="M 500.506 165.181 C 494.718 165.181 490 169.898 490 175.686 L 490 544.343 C 490 550.13 494.718 554.82 500.506 554.82 L 779.494 554.82 C 785.282 554.82 790 550.13 790 544.343 L 790 543.411 L 790 175.686 C 790 169.901 785.286 165.181 779.494 165.181 L 500.506 165.181 L 500.506 165.181 Z M 500.506 167.043 L 779.494 167.043 C 784.275 167.043 788.137 170.905 788.137 175.686 L 788.137 544.343 C 788.137 549.122 784.274 552.958 779.494 552.958 L 500.506 552.958 C 495.727 552.966 491.864 549.127 491.864 544.343 L 491.864 175.686 C 491.864 170.906 495.727 167.043 500.506 167.043 L 500.506 167.043 Z" style="fill: rgb(30, 30, 30);" transform="matrix(0.965926, -0.258819, 0.258819, 0.965926, -71.367463, 177.910714)"/>
  <path id="path5" d="M 511.655 218.598 C 501.972 218.598 494.105 226.465 494.105 236.146 L 494.105 297.149 L 494.105 298.08 L 495.037 298.08 L 575.042 298.08 L 575.974 298.08 L 575.974 297.149 L 575.974 219.529 L 575.974 218.598 L 575.042 218.598 L 511.655 218.598 Z M 511.655 220.46 L 574.111 220.46 L 574.111 296.218 L 495.968 296.218 L 495.968 236.146 C 495.968 227.472 502.98 220.46 511.655 220.46 Z" style="fill: rgb(30, 30, 30);" transform="matrix(0.965926, -0.258819, 0.258819, 0.965926, -48.632035, 147.281171)"/>
  <path id="path7" d="M 607.262 194.929 L 607.262 195.86 L 607.262 275.691 L 524.927 275.691 L 523.996 275.691 L 523.996 276.624 L 523.996 505.579 C 523.996 515.262 531.864 523.127 541.545 523.127 L 737.942 523.127 C 747.626 523.127 755.493 515.262 755.493 505.579 L 755.493 212.473 C 755.493 202.791 747.626 194.924 737.942 194.924 L 608.201 194.924 L 607.27 194.924 L 607.262 194.929 Z M 609.125 196.791 L 737.936 196.791 C 746.614 196.791 753.623 203.801 753.623 212.477 L 753.623 505.584 C 753.623 514.259 746.614 521.272 737.936 521.272 L 541.539 521.272 C 532.864 521.272 525.852 514.259 525.852 505.584 L 525.852 277.559 L 608.187 277.559 L 609.119 277.559 L 609.119 276.627 L 609.119 196.796 L 609.125 196.791 Z" style="fill: rgb(30, 30, 30);" transform="matrix(0.965926, -0.258819, 0.258819, 0.965926, -71.123875, 177.811557)"/>
  <path id="path9" d="M 546.687 280.035 C 540.341 280.039 535.191 285.188 535.191 291.533 L 535.191 429.285 C 535.192 435.629 540.341 440.78 546.687 440.78 L 733.528 440.78 C 739.872 440.78 745.023 435.63 745.024 429.285 L 745.024 291.533 C 745.023 285.188 739.872 280.038 733.528 280.035 L 546.687 280.035 Z M 546.687 281.899 L 733.528 281.899 C 738.856 281.9 743.147 286.207 743.162 291.533 C 743.162 291.543 743.162 291.551 743.162 291.562 L 743.162 429.285 C 743.161 434.623 738.865 438.918 733.528 438.918 L 546.687 438.918 C 541.348 438.918 537.056 434.623 537.054 429.285 L 537.054 291.562 L 537.054 291.533 C 537.07 286.207 541.357 281.9 546.687 281.899 Z M 546.687 284.081 C 542.57 284.089 539.215 287.414 539.207 291.533 L 539.207 429.285 C 539.216 433.401 542.57 436.756 546.687 436.763 L 733.528 436.763 C 737.644 436.756 741 433.401 741.009 429.285 L 741.009 291.533 C 741 287.414 737.645 284.089 733.528 284.081 L 546.687 284.081 L 546.687 284.081 Z M 546.687 285.944 L 733.528 285.944 C 736.631 285.949 739.124 288.431 739.147 291.533 C 739.147 291.543 739.147 291.551 739.147 291.562 L 739.147 429.285 C 739.138 432.399 736.642 434.897 733.528 434.904 L 546.687 434.904 C 543.573 434.894 541.076 432.399 541.07 429.285 L 541.07 291.562 C 541.07 291.551 541.07 291.542 541.07 291.533 C 541.09 288.431 543.582 285.949 546.687 285.944 Z" style="fill: rgb(30, 30, 30);" transform="matrix(0.965926, -0.258819, 0.258819, 0.965926, -71.469219, 177.952683)"/>
  <path id="path11" d="M 639.269 303.027 C 636.45 303.027 633.641 304.113 631.497 306.258 L 626.462 311.264 C 623.21 314.665 621.396 315.687 615.607 315.687 L 608.68 315.687 C 602.614 315.687 597.68 320.622 597.68 326.687 L 597.68 333.236 C 597.68 336.105 597.534 337.859 597.011 339.319 C 596.488 340.777 595.554 342.061 593.722 344.004 L 588.227 349.499 C 583.937 353.788 583.937 360.781 588.227 365.07 L 593.494 370.337 L 593.523 370.337 L 593.523 370.366 C 595.211 371.858 596.195 373.022 596.812 374.73 C 597.429 376.441 597.686 378.79 597.686 382.588 L 597.686 387.885 C 597.686 393.953 602.622 398.885 608.687 398.885 L 615.235 398.885 C 621.372 398.885 623.359 400.269 626.44 403.251 L 631.504 408.316 C 635.794 412.605 642.755 412.605 647.046 408.316 L 651.818 403.572 C 653.79 401.588 655.001 400.441 656.418 399.788 C 657.833 399.131 659.592 398.885 662.821 398.885 L 669.865 398.885 C 675.932 398.885 680.866 393.95 680.866 387.885 L 680.866 381.453 C 680.866 377.754 681.334 375.522 682.233 373.771 C 683.131 372.019 684.525 370.667 686.599 368.794 L 686.627 368.766 L 690.323 365.07 C 694.613 360.781 694.613 353.788 690.323 349.499 L 686.306 345.48 L 686.278 345.452 C 684.301 343.74 682.986 342.501 682.146 340.796 C 681.302 339.092 680.865 336.829 680.865 332.996 L 680.865 326.681 C 680.865 320.615 675.927 315.682 669.863 315.682 L 662.82 315.682 C 659.627 315.682 657.723 315.26 656.155 314.458 C 654.587 313.656 653.292 312.419 651.441 310.617 L 647.046 306.252 C 644.901 304.108 642.093 303.022 639.275 303.022 L 639.269 303.027 Z M 639.269 304.889 C 641.605 304.889 643.94 305.777 645.729 307.568 L 650.124 311.933 L 650.124 311.961 C 651.975 313.762 653.416 315.158 655.304 316.124 C 657.193 317.088 659.457 317.549 662.813 317.549 L 669.856 317.549 C 674.915 317.549 678.996 321.629 678.996 326.689 L 678.996 333.004 C 678.996 336.978 679.459 339.549 680.481 341.618 C 681.493 343.665 683.014 345.111 684.991 346.828 C 685.009 346.842 685.032 346.842 685.05 346.857 L 689.009 350.815 C 692.586 354.391 692.586 360.186 689.009 363.764 L 685.341 367.402 L 685.312 367.432 C 683.235 369.308 681.638 370.845 680.567 372.931 C 679.492 375.03 678.996 377.605 678.996 381.458 L 678.996 387.889 C 678.996 392.95 674.919 397.03 669.858 397.03 L 662.813 397.03 C 659.493 397.03 657.416 397.276 655.625 398.105 C 653.834 398.935 652.482 400.275 650.503 402.269 L 645.743 407 C 642.164 410.579 636.4 410.579 632.821 407 L 627.756 401.936 L 627.727 401.936 L 627.727 401.907 C 624.539 398.821 621.697 397.018 615.242 397.018 L 608.694 397.018 C 603.635 397.018 599.556 392.939 599.556 387.878 L 599.556 382.582 C 599.556 378.703 599.31 376.146 598.566 374.083 C 597.826 372.034 596.58 370.558 594.812 368.989 L 594.783 368.961 L 589.544 363.751 C 585.966 360.174 585.966 354.377 589.544 350.801 L 595.075 345.299 L 595.104 345.272 C 596.998 343.263 598.152 341.753 598.8 339.946 C 599.448 338.138 599.557 336.143 599.557 333.221 L 599.557 326.674 C 599.557 321.614 603.635 317.536 608.695 317.536 L 615.622 317.536 C 621.669 317.536 624.42 316.111 627.816 312.559 L 632.821 307.553 C 634.61 305.763 636.945 304.875 639.283 304.875 L 639.269 304.889 Z" style="fill: rgb(30, 30, 30);" transform="matrix(0.965926, -0.258819, 0.258819, 0.965926, -70.68743, 177.630471)"/>
  <path id="path13" d="M 639.275 308.907 C 636.741 308.907 634.217 309.859 632.289 311.787 L 627.807 316.27 C 624.919 319.289 623.341 320.17 618.204 320.17 L 612.063 320.17 C 606.609 320.17 602.167 324.61 602.167 330.065 L 602.167 335.886 C 602.167 338.438 602.044 339.99 601.584 341.27 C 601.126 342.55 600.302 343.679 598.675 345.403 L 593.785 350.293 C 589.929 354.149 589.929 360.436 593.785 364.291 L 598.471 368.977 L 598.471 369.006 L 598.5 369.006 C 599.998 370.33 600.84 371.345 601.382 372.846 C 601.924 374.349 602.167 376.425 602.167 379.803 L 602.167 384.518 C 602.167 389.972 606.608 394.412 612.063 394.412 L 617.883 394.412 C 623.327 394.412 625.045 395.636 627.779 398.285 L 632.29 402.795 C 636.145 406.653 642.403 406.653 646.258 402.795 L 650.509 398.546 C 652.261 396.778 653.314 395.773 654.553 395.2 C 655.792 394.625 657.361 394.412 660.23 394.412 L 666.516 394.412 C 671.969 394.412 676.383 389.972 676.383 384.518 L 676.383 378.812 C 676.383 375.528 676.786 373.572 677.577 372.032 C 678.366 370.493 679.602 369.274 681.447 367.608 L 681.477 367.58 L 684.765 364.29 C 688.62 360.434 688.62 354.148 684.765 350.291 L 681.216 346.742 L 681.186 346.713 L 681.158 346.684 C 679.401 345.16 678.258 344.076 677.52 342.58 C 676.782 341.084 676.385 339.087 676.385 335.684 L 676.385 330.067 C 676.385 324.613 671.973 320.171 666.519 320.171 L 660.232 320.171 C 657.401 320.171 655.729 319.798 654.353 319.095 C 652.98 318.39 651.829 317.282 650.192 315.688 L 650.162 315.688 L 646.291 311.789 L 646.262 311.789 C 644.333 309.859 641.808 308.907 639.275 308.907 L 639.275 308.907 Z M 639.275 310.74 C 641.328 310.74 643.377 311.524 644.95 313.096 L 648.851 317.026 L 648.879 317.026 C 650.525 318.628 651.808 319.882 653.506 320.75 C 655.203 321.619 657.235 322.032 660.23 322.031 L 666.516 322.031 C 670.961 322.031 674.52 325.618 674.52 330.063 L 674.52 335.681 C 674.52 339.222 674.911 341.533 675.828 343.394 C 676.742 345.24 678.135 346.515 679.902 348.049 C 679.915 348.061 679.921 348.07 679.931 348.078 L 683.461 351.6 C 686.605 354.742 686.605 359.834 683.461 362.98 L 680.201 366.211 C 678.336 367.895 676.892 369.272 675.924 371.159 C 674.956 373.046 674.527 375.376 674.527 378.812 L 674.527 384.518 C 674.527 388.966 670.97 392.55 666.523 392.55 L 660.237 392.55 C 657.278 392.55 655.418 392.764 653.805 393.51 C 652.191 394.257 650.971 395.461 649.207 397.237 L 644.956 401.485 C 641.811 404.631 636.75 404.631 633.606 401.485 L 629.095 396.945 L 629.066 396.945 C 626.225 394.196 623.652 392.55 617.89 392.55 L 612.07 392.55 C 607.623 392.55 604.038 388.966 604.038 384.518 L 604.038 379.803 C 604.038 376.347 603.804 374.063 603.136 372.207 C 602.475 370.373 601.357 369.061 599.79 367.666 L 599.76 367.639 L 595.104 362.983 C 591.959 359.839 591.959 354.748 595.104 351.602 L 600.022 346.713 L 600.022 346.684 C 601.712 344.892 602.757 343.539 603.341 341.911 C 603.923 340.283 604.039 338.488 604.039 335.886 L 604.039 330.067 C 604.039 325.621 607.624 322.032 612.071 322.032 L 618.212 322.032 C 623.598 322.032 626.102 320.707 629.127 317.55 L 629.156 317.55 L 633.609 313.1 C 635.181 311.527 637.231 310.741 639.284 310.741 L 639.275 310.741 Z" style="fill: rgb(30, 30, 30);" transform="matrix(0.965926, -0.258819, 0.258819, 0.965926, -70.692705, 177.631079)"/>
  <path id="circle15" d="M 639.273 330.326 C 624.398 330.326 612.322 342.431 612.322 357.306 C 612.322 372.179 624.397 384.257 639.273 384.257 C 654.147 384.257 666.223 372.182 666.223 357.306 C 666.223 342.431 654.147 330.326 639.273 330.326 Z M 639.273 332.188 C 653.139 332.188 664.359 343.436 664.359 357.306 C 664.359 371.174 653.14 382.394 639.273 382.394 C 625.405 382.394 614.185 371.174 614.185 357.306 C 614.185 343.438 625.404 332.188 639.273 332.188 Z" style="fill: rgb(30, 30, 30);" transform="matrix(0.965926, -0.258819, 0.258819, 0.965926, -70.69116, 177.630313)"/>
  <path id="circle17" d="M 639.273 339.405 C 629.405 339.405 621.374 347.437 621.374 357.304 C 621.374 367.173 629.404 375.175 639.273 375.175 C 649.139 375.175 657.172 367.172 657.172 357.304 C 657.172 347.438 649.142 339.405 639.273 339.405 Z M 639.273 341.269 C 648.133 341.269 655.308 348.444 655.308 357.304 C 655.308 366.166 648.133 373.313 639.273 373.313 C 630.412 373.313 623.236 366.166 623.236 357.304 C 623.236 348.444 630.412 341.269 639.273 341.269 Z" style="fill: rgb(30, 30, 30);" transform="matrix(0.965926, -0.258819, 0.258819, 0.965926, -70.690699, 177.6302)"/>
  <path id="path19" d="M 608.539 202.729 C 608.025 202.753 607.626 203.186 607.649 203.702 C 607.672 204.216 608.108 204.615 608.622 204.593 C 608.624 204.593 608.625 204.593 608.627 204.593 L 735.93 204.593 C 740.99 204.593 745.07 208.671 745.07 213.731 L 745.07 504.328 C 745.07 509.388 740.991 513.469 735.93 513.469 L 543.555 513.469 C 538.495 513.469 534.415 509.388 534.415 504.328 L 534.415 276.679 C 534.422 276.164 534.011 275.74 533.497 275.732 C 532.983 275.725 532.56 276.137 532.552 276.652 C 532.552 276.66 532.552 276.669 532.552 276.679 L 532.552 504.328 C 532.552 510.396 537.487 515.331 543.554 515.331 L 735.926 515.331 C 741.994 515.331 746.928 510.393 746.928 504.328 L 746.928 213.731 C 746.928 207.664 741.993 202.729 735.926 202.729 L 608.626 202.729 C 608.598 202.728 608.569 202.728 608.539 202.729 L 608.539 202.729 Z" style="fill: rgb(30, 30, 30);" transform="matrix(0.965926, -0.258819, 0.258819, 0.965926, -71.125087, 177.810518)"/>
  <path id="path21" d="M 514.791 225.135 C 508.724 225.135 503.789 230.07 503.789 236.137 L 503.789 295.916 C 503.782 296.431 504.193 296.851 504.708 296.861 C 505.221 296.868 505.645 296.457 505.652 295.941 C 505.652 295.933 505.652 295.924 505.652 295.916 L 505.652 236.137 C 505.652 231.077 509.732 226.999 514.791 226.999 L 575.793 226.999 C 576.306 227.005 576.73 226.595 576.737 226.079 C 576.744 225.565 576.333 225.143 575.818 225.135 C 575.81 225.135 575.801 225.135 575.793 225.135 L 514.791 225.135 L 514.791 225.135 Z" style="fill: rgb(30, 30, 30);" transform="matrix(0.965926, -0.258819, 0.258819, 0.965926, -49.142267, 148.723723)"/>
</svg>