<?xml version="1.0" encoding="utf-8"?>
<svg version="1.0" xmlns="http://www.w3.org/2000/svg">
  <path d="M 19.501 0.209 C 19.501 0.313 16.994 16.471 13.929 36.112 C 10.865 55.751 8.357 72.118 8.357 72.466 C 8.357 73.093 8.95 73.128 25.177 73.128 L 41.962 73.128 L 48.021 37.504 C 51.329 17.934 54.15 1.498 54.22 0.94 L 54.428 0 L 36.947 0 C 27.371 0 19.501 0.104 19.501 0.209 Z" style="fill: rgb(255, 255, 255);"/>
  <path d="M 360.627 0.94 C 360.522 1.498 359.582 8.636 358.502 16.889 C 357.423 25.107 356.414 32.211 356.239 32.629 C 356.03 33.151 355.613 33.43 355.055 33.43 C 354.602 33.43 352.095 33.952 349.518 34.614 C 341.962 36.529 336.53 39.454 332.629 43.738 C 330.122 46.523 329.913 46.141 330.784 40.603 C 331.201 38.2 331.515 36.112 331.515 36.042 C 331.515 35.937 324.794 35.868 316.541 35.868 C 308.323 35.868 301.567 35.937 301.567 36.007 C 301.567 36.076 300.314 44.539 298.781 54.811 C 297.249 65.119 295.995 73.685 295.995 73.859 C 295.995 74.034 302.333 74.173 311.805 74.173 L 327.614 74.173 L 328.033 73.163 C 328.625 71.665 332.037 68.566 334.649 67.104 C 339.768 64.283 345.862 63.099 349.727 64.213 C 351.573 64.736 351.677 64.84 351.538 65.746 C 350.772 70.168 350.319 73.058 350.319 73.546 C 350.319 74.138 351.329 74.173 366.825 74.173 L 383.297 74.173 L 383.924 70.063 C 384.272 67.835 385.734 58.328 387.196 48.926 L 389.843 31.897 L 391.585 31.967 C 398.654 32.35 402.693 36.494 403.982 44.643 C 404.921 50.632 403.32 65.885 400.951 73.546 C 400.778 74.138 401.753 74.173 418.328 74.173 L 435.914 74.173 L 436.297 72.502 C 436.715 70.69 437.411 65.885 438.143 60.07 C 438.874 54.01 438.769 38.305 437.969 33.952 C 434.59 15.74 424.179 4.98 406.419 1.393 C 400.813 0.278 395.415 0 377.76 0 L 360.835 0 L 360.627 0.94 Z" style="fill: rgb(255, 255, 255);"/>
  <path d="M 449.913 6.616 C 449.913 6.964 447.371 24.341 447.022 26.361 L 446.883 27.162 L 462.763 27.162 L 478.642 27.162 L 480.14 16.959 C 480.975 11.387 481.637 6.686 481.602 6.512 C 481.602 6.094 449.913 6.199 449.913 6.616 Z" style="fill: rgb(255, 255, 255);"/>
  <path d="M 186.825 32.42 C 172.374 33.291 161.892 39.315 156.843 49.657 C 153.082 57.319 152.316 66.686 154.892 72.571 L 155.624 74.173 L 180.278 74.173 L 204.933 74.138 L 203.888 73.267 C 202.008 71.701 198.212 69.646 194.591 68.253 C 186.756 65.224 183.866 63.204 183.866 60.766 C 183.866 56.971 186.756 55.577 193.094 56.344 C 198.735 57.04 205.769 59.512 208.868 61.88 C 209.495 62.368 210.087 62.681 210.157 62.611 C 210.261 62.542 211.028 57.632 211.863 51.677 C 212.734 45.757 213.535 40.429 213.639 39.838 C 213.813 38.793 213.779 38.723 210.087 36.843 C 202.705 33.012 196.506 31.828 186.825 32.42 Z" style="fill: rgb(255, 255, 255);"/>
  <path d="M 255.427 32.455 C 238.538 33.569 226.419 43.459 219.594 61.741 C 218.41 64.945 216.251 72.606 216.251 73.685 C 216.251 74.103 221.439 74.173 254.486 74.103 L 292.688 73.999 L 292.862 69.994 C 293.105 64.283 292.688 56.344 291.991 53.279 C 291.155 49.693 290.145 47.673 287.324 44.225 C 279.977 35.171 270.017 31.48 255.427 32.455 Z M 262.879 53.523 C 264.446 54.672 265.456 57.214 265.63 60.487 L 265.804 63.378 L 258.108 63.378 L 250.412 63.378 L 250.621 62.229 C 251.248 58.885 253.128 55.507 255.322 53.836 C 257.481 52.2 260.859 52.06 262.879 53.523 Z" style="fill: rgb(255, 255, 255);"/>
  <path d="M 511.724 32.281 C 496.61 32.873 485.572 38.758 480.244 49.066 C 476.448 56.448 475.473 64.805 477.667 71.457 L 478.572 74.173 L 503.053 74.173 C 516.53 74.173 527.568 74.068 527.568 73.894 C 527.568 73.546 523.598 70.934 521.335 69.82 C 520.29 69.298 518.027 68.323 516.286 67.661 C 509.182 64.91 507.022 63.204 507.022 60.383 C 507.022 58.398 508.241 57.005 510.54 56.413 C 514.928 55.229 526.245 57.98 531.468 61.532 C 532.443 62.159 533.279 62.647 533.314 62.611 C 533.384 62.542 534.185 57.214 535.16 50.737 L 536.866 38.967 L 535.961 38.34 C 534.498 37.295 530.389 35.345 527.672 34.37 C 523.32 32.803 517.643 32.072 511.724 32.281 Z" style="fill: rgb(255, 255, 255);"/>
  <path d="M 582.763 32.42 C 570.401 33.151 559.605 37.713 552.71 45.096 C 549.019 49.03 545.99 54.01 543.552 60.139 C 542.612 62.542 540.557 69.925 540 73.024 L 539.791 74.173 L 557.098 74.173 L 574.405 74.173 L 575.206 71.805 C 576.425 68.323 578.306 65.188 580.464 62.995 C 584.365 59.129 588.822 58.084 594.185 59.791 C 595.125 60.07 595.926 60.244 595.995 60.174 C 596.204 60 600 37.156 600 36.216 C 600 35.659 599.547 35.275 598.12 34.648 C 593.593 32.629 589.448 32.037 582.763 32.42 Z" style="fill: rgb(255, 255, 255);"/>
  <path d="M 99.594 34.788 C 96.216 35.659 94.196 36.564 91.306 38.41 C 84.655 42.727 79.327 50.005 75.218 60.348 C 73.755 64.039 71.039 72.814 71.039 73.894 C 71.039 74.034 78.248 74.173 87.092 74.173 L 103.111 74.173 L 103.738 72.676 C 104.086 71.875 104.817 70.133 105.34 68.81 C 107.116 64.457 109.24 62.333 112.06 62.054 C 114.045 61.88 115.613 62.542 116.552 63.935 C 117.353 65.188 118.05 68.636 118.05 71.631 L 118.05 74.173 L 132.989 74.173 L 147.928 74.173 L 148.137 73.198 C 148.346 72.258 153.917 36.042 153.917 35.693 C 153.917 35.589 148.137 35.519 141.068 35.519 L 128.219 35.519 L 127.87 37.156 C 127.661 38.096 127.417 39.559 127.278 40.429 C 126.93 42.763 126.512 43.215 125.78 42.136 C 124.213 39.838 121.985 37.888 119.652 36.738 C 115.787 34.858 113.663 34.405 107.603 34.266 C 103.146 34.161 101.752 34.266 99.594 34.788 Z" style="fill: rgb(255, 255, 255);"/>
  <path d="M 445.56 36.286 C 445.49 36.529 444.237 44.887 442.775 54.846 C 441.347 64.805 440.093 73.233 440.024 73.581 C 439.884 74.138 440.755 74.173 455.763 74.103 L 471.677 73.999 L 474.359 56.065 C 475.821 46.21 477.109 37.609 477.179 36.982 L 477.389 35.868 L 461.544 35.868 C 449.182 35.868 445.664 35.972 445.56 36.286 Z" style="fill: rgb(255, 255, 255);"/>
  <path d="M 6.094 83.993 C 5.955 84.481 0 120.835 0 121.253 C 0 121.428 14.347 121.532 31.863 121.532 C 57.11 121.532 63.726 121.428 63.726 121.079 C 63.761 120.871 64.666 114.289 65.746 106.453 C 66.86 98.653 67.696 92.176 67.592 92.107 C 67.522 92.002 61.115 91.933 53.419 91.933 L 39.385 91.933 L 39.524 90.958 C 39.803 89.46 40.395 84.619 40.395 84.063 C 40.395 83.644 37.888 83.575 23.332 83.575 C 9.959 83.575 6.199 83.68 6.094 83.993 Z" style="fill: rgb(255, 255, 255);"/>
  <path d="M 70.203 84.863 C 69.82 87.196 69.995 94.092 70.517 98.549 C 72.153 112.269 77.342 120.453 86.361 123.482 C 89.078 124.423 99.385 124.423 102.728 123.517 C 106.593 122.473 109.274 120.905 112.408 117.841 C 113.975 116.308 115.264 115.195 115.264 115.403 C 115.229 115.612 115.02 116.796 114.742 118.05 C 114.463 119.303 114.254 120.662 114.219 121.079 L 114.219 121.88 L 127.278 121.88 C 134.452 121.88 140.336 121.846 140.336 121.776 C 140.336 121.706 141.66 113.244 143.297 102.937 C 144.933 92.664 146.257 84.097 146.257 83.923 C 146.257 83.714 140.65 83.575 131.457 83.575 C 118.468 83.575 116.657 83.644 116.657 84.097 C 116.657 85.49 114.08 92.385 112.862 94.266 C 111.294 96.703 109.693 97.818 107.359 98.062 C 105.374 98.27 103.772 97.469 102.937 95.798 C 102.101 94.196 101.614 90.017 101.892 86.605 L 102.136 83.575 L 86.291 83.575 L 70.447 83.575 L 70.203 84.863 Z" style="fill: rgb(255, 255, 255);"/>
  <path d="M 214.858 88.171 C 214.858 106.976 224.33 120.94 239.756 124.84 C 247.174 126.721 259.083 126.163 267.092 123.552 C 276.878 120.383 283.564 113.523 287.429 102.727 C 288.404 100.012 290.075 93.604 290.075 92.524 C 290.075 91.967 289.17 91.933 276.042 91.933 L 262.008 91.933 L 261.59 93.917 C 261.067 96.46 259.501 99.802 258.073 101.439 C 255.287 104.609 250.9 105.026 248.393 102.31 C 246.268 100.046 245.258 94.579 245.85 88.59 C 246.024 86.709 246.199 84.794 246.199 84.341 L 246.199 83.575 L 230.528 83.575 L 214.858 83.575 L 214.858 88.171 Z" style="fill: rgb(255, 255, 255);"/>
  <path d="M 294.428 83.993 C 294.324 84.237 293.07 92.35 291.643 102.031 C 290.18 111.712 288.926 120.034 288.822 120.592 L 288.613 121.532 L 304.492 121.532 L 320.372 121.532 L 320.546 120.766 C 320.859 119.269 325.943 85.107 325.943 84.341 L 325.943 83.575 L 310.273 83.575 C 298.015 83.575 294.532 83.68 294.428 83.993 Z" style="fill: rgb(255, 255, 255);"/>
  <path d="M 348.787 83.888 C 348.613 84.132 342.658 120.801 342.658 121.428 C 342.658 121.497 351.677 121.532 362.647 121.532 C 384.341 121.532 387.336 121.358 394.544 119.582 C 409.901 115.821 421.846 106.21 429.019 91.933 C 430.691 88.59 432.502 84.411 432.502 83.854 C 432.502 83.714 424.388 83.61 414.498 83.644 L 396.494 83.749 L 394.892 86.013 C 391.41 91.027 388.172 93.151 383.297 93.535 C 381.764 93.673 380.615 93.639 380.615 93.465 C 380.615 93.291 380.929 91.201 381.311 88.798 C 381.695 86.395 382.008 84.237 382.008 83.993 C 382.008 83.68 378.491 83.575 365.502 83.575 C 355.995 83.575 348.892 83.714 348.787 83.888 Z" style="fill: rgb(255, 255, 255);"/>
  <path d="M 438.248 84.689 C 437.795 87.475 432.85 120.592 432.85 121.045 C 432.85 121.462 435.218 121.532 448.694 121.532 C 457.748 121.532 464.539 121.393 464.539 121.219 C 464.539 121.045 465.792 112.618 467.324 102.449 C 468.857 92.281 470.11 83.888 470.11 83.784 C 470.11 83.68 462.971 83.575 454.266 83.575 L 438.456 83.575 L 438.248 84.689 Z" style="fill: rgb(255, 255, 255);"/>
  <path d="M 538.607 83.819 C 538.19 84.202 538.364 90.922 538.886 94.718 C 540.975 110.11 549.089 119.582 562.913 122.785 C 567.162 123.796 577.922 123.691 582.937 122.611 C 584.957 122.194 586.697 121.741 586.802 121.602 C 587.046 121.323 591.05 94.37 590.876 94.196 C 590.807 94.126 589.136 94.231 587.116 94.37 C 581.822 94.788 579.733 94.231 577.331 91.689 C 575.763 90.087 574.962 88.59 574.231 85.839 L 573.639 83.749 L 556.228 83.644 C 546.651 83.61 538.712 83.68 538.607 83.819 Z" style="fill: rgb(255, 255, 255);"/>
  <path d="M 165.061 84.097 C 165.061 84.445 169.274 86.361 173.14 87.684 C 180.731 90.366 182.473 91.689 182.473 94.962 C 182.473 96.424 182.298 96.912 181.463 97.818 C 178.886 100.569 173.07 101.718 168.195 100.499 C 163.459 99.28 153.813 93.709 152.003 91.166 C 151.619 90.574 151.48 90.54 151.341 90.922 C 151.236 91.201 150.227 97.191 149.078 104.295 L 146.953 117.179 L 147.719 117.771 C 149.356 118.99 156.668 122.577 159.315 123.448 C 160.847 123.935 163.598 124.597 165.41 124.84 C 169.274 125.432 177.563 125.502 181.776 125.015 C 201.137 122.647 213.047 110.737 213.221 93.499 C 213.256 90.574 213.082 88.52 212.664 86.605 L 212.037 83.923 L 188.531 83.923 C 175.613 83.923 165.061 83.993 165.061 84.097 Z" style="fill: rgb(255, 255, 255);"/>
  <path d="M 488.219 84.097 C 488.219 84.481 493.302 86.709 496.889 87.928 C 503.297 90.052 505.63 91.897 505.63 94.788 C 505.63 96.564 505.038 97.678 503.54 98.723 C 500.406 100.917 495.635 101.578 491.213 100.429 C 486.755 99.28 479.93 95.554 476.17 92.176 L 474.428 90.61 L 472.269 103.877 L 470.11 117.179 L 470.876 117.771 C 472.409 118.955 479.721 122.542 482.368 123.448 C 486.233 124.736 491.074 125.362 497.098 125.362 C 518.41 125.362 532.304 116.17 535.751 99.733 C 536.726 95.101 536.482 88.137 535.229 84.829 L 534.881 83.923 L 511.55 83.923 C 498.735 83.923 488.219 83.993 488.219 84.097 Z" style="fill: rgb(255, 255, 255);"/>
</svg>