<?xml version="1.0" encoding="utf-8"?>
<svg viewBox="0 0 200 40" xmlns="http://www.w3.org/2000/svg">
  <g transform="matrix(0.173913, 0, 0, 0.173913, 3.179996, 9.413043)">
    <g transform="translate(-69.000000, -178.000000)">
      <g transform="translate(-25.000000, 48.000000)">
        <g>
          <path d="M186.312,184.285c-0.765,0.776-7.681,7.807-8.461,8.6h-13.495l-0.648,0.005l-0.439,0.443l-2.43,2.413&#10;&#9;&#9;&#9;&#9;&#9;c-0.141,0.141-0.455,0.467-0.455,0.467s0,0.417,0,0.629v10.6h-17.78v-16.353c0.763-0.776,7.663-7.798,8.443-8.592h13.511&#10;&#9;&#9;&#9;&#9;&#9;c0.229,0,0.621-0.001,0.621-0.001s0.342-0.322,0.47-0.45l2.431-2.425c0.145-0.145,0.448-0.501,0.448-0.501&#10;&#9;&#9;&#9;&#9;&#9;s0.005-0.387,0.005-0.592v-14.053c0-0.211-0.005-0.607-0.005-0.607s-0.31-0.348-0.452-0.489l-2.43-2.409&#10;&#9;&#9;&#9;&#9;&#9;c-0.134-0.132-0.473-0.442-0.473-0.442s-0.396-0.005-0.615-0.005h-26.139c-0.601,0-0.511,0.001-0.612,0.001&#10;&#9;&#9;&#9;&#9;&#9;c0,0-0.34,0.312-0.478,0.449l-2.42,2.409c-0.136,0.135-0.456,0.465-0.456,0.465s0.001,0.41,0.001,0.629v12.659h-17.779v-18.017&#10;&#9;&#9;&#9;&#9;&#9;c0.754-0.778,7.919-8.172,8.705-8.983h52.244c0.787,0.813,7.936,8.205,8.688,8.982V184.285z M179.389,147.518&#10;&#9;&#9;&#9;&#9;&#9;c-0.291-0.302-0.691-0.471-1.11-0.471h-53.554c-0.417,0-0.817,0.169-1.108,0.47l-9.596,9.901&#10;&#9;&#9;&#9;&#9;&#9;c-0.278,0.288-0.435,0.674-0.435,1.074v20.187c0,0.853,0.691,1.545,1.544,1.545h20.868c0.853,0,1.544-0.692,1.544-1.545v-13.562&#10;&#9;&#9;&#9;&#9;&#9;c0.462-0.459,1.054-1.049,1.513-1.506h24.867c0.459,0.456,1.057,1.047,1.521,1.508v12.769c-0.463,0.462-1.063,1.061-1.525,1.521&#10;&#9;&#9;&#9;&#9;&#9;h-13.52c-0.414,0-0.811,0.167-1.101,0.462l-9.341,9.505c-0.283,0.288-0.442,0.677-0.442,1.082v18.528&#10;&#9;&#9;&#9;&#9;&#9;c0,0.854,0.691,1.545,1.544,1.545h20.867c0.854,0,1.545-0.691,1.545-1.545v-11.5c0.465-0.461,1.061-1.055,1.521-1.512h13.506&#10;&#9;&#9;&#9;&#9;&#9;c0.414,0,0.811-0.166,1.1-0.461l9.359-9.513c0.283-0.289,0.442-0.678,0.442-1.083v-26.425c0-0.399-0.155-0.785-0.435-1.072&#10;&#9;&#9;&#9;&#9;&#9;L179.389,147.518z M160.383,228.55h-17.78v-10.389h17.78V228.55z M161.926,215.073h-20.867c-0.853,0-1.544,0.691-1.544,1.545&#10;&#9;&#9;&#9;&#9;&#9;v13.476c0,0.853,0.691,1.544,1.544,1.544h20.867c0.854,0,1.545-0.691,1.545-1.544v-13.476&#10;&#9;&#9;&#9;&#9;&#9;C163.471,215.765,162.779,215.073,161.926,215.073L161.926,215.073z M196.721,236.337c-1.619,0-2.938-1.318-2.938-2.938&#10;&#9;&#9;&#9;&#9;&#9;s1.318-2.938,2.938-2.938s2.938,1.318,2.938,2.938S198.34,236.337,196.721,236.337L196.721,236.337z M196.721,228.146&#10;&#9;&#9;&#9;&#9;&#9;c-2.896,0-5.254,2.357-5.254,5.254s2.357,5.254,5.254,5.254c2.897,0,5.254-2.357,5.254-5.254S199.618,228.146,196.721,228.146&#10;&#9;&#9;&#9;&#9;&#9;L196.721,228.146z M196.721,145.509c-1.619,0-2.938-1.317-2.938-2.938c0-1.619,1.318-2.937,2.938-2.937s2.938,1.317,2.938,2.937&#10;&#9;&#9;&#9;&#9;&#9;C199.658,144.191,198.34,145.509,196.721,145.509L196.721,145.509z M196.721,137.318c-2.896,0-5.254,2.356-5.254,5.253&#10;&#9;&#9;&#9;&#9;&#9;c0,2.897,2.357,5.254,5.254,5.254c2.897,0,5.254-2.356,5.254-5.254C201.975,139.675,199.618,137.318,196.721,137.318&#10;&#9;&#9;&#9;&#9;&#9;L196.721,137.318z M204.753,236.136c0,3.443-1.675,5.117-5.118,5.117h-96.27c-3.444,0-5.119-1.674-5.119-5.117v-96.271&#10;&#9;&#9;&#9;&#9;&#9;c0-3.444,1.675-5.118,5.119-5.118h96.27c3.443,0,5.118,1.674,5.118,5.118V236.136z M199.635,130.5h-96.27&#10;&#9;&#9;&#9;&#9;&#9;c-5.776,0-9.365,3.589-9.365,9.365v96.271c0,5.775,3.589,9.364,9.365,9.364h96.27c5.776,0,9.365-3.589,9.365-9.364v-96.271&#10;&#9;&#9;&#9;&#9;&#9;C209,134.089,205.411,130.5,199.635,130.5L199.635,130.5z M106.275,145.509c-1.62,0-2.938-1.317-2.938-2.938&#10;&#9;&#9;&#9;&#9;&#9;c0-1.619,1.317-2.937,2.938-2.937c1.619,0,2.937,1.317,2.937,2.937C109.212,144.191,107.895,145.509,106.275,145.509&#10;&#9;&#9;&#9;&#9;&#9;L106.275,145.509z M106.275,137.318c-2.897,0-5.254,2.356-5.254,5.253s2.356,5.254,5.254,5.254c2.896,0,5.253-2.357,5.253-5.254&#10;&#9;&#9;&#9;&#9;&#9;S109.172,137.318,106.275,137.318L106.275,137.318z M106.275,236.336c-1.62,0-2.938-1.317-2.938-2.937s1.317-2.938,2.938-2.938&#10;&#9;&#9;&#9;&#9;&#9;c1.619,0,2.937,1.318,2.937,2.938S107.895,236.336,106.275,236.336L106.275,236.336z M106.275,228.146&#10;&#9;&#9;&#9;&#9;&#9;c-2.897,0-5.254,2.357-5.254,5.254s2.356,5.253,5.254,5.253c2.896,0,5.253-2.356,5.253-5.253S109.172,228.146,106.275,228.146&#10;&#9;&#9;&#9;&#9;&#9;L106.275,228.146z" style="fill: rgb(204, 204, 204);"/>
        </g>
      </g>
    </g>
  </g>
  <path d="M 37.7 24.67 L 37.7 24.67 L 33.98 24.67 L 33.2 29.2 L 27.5 29.2 L 30.8 10.45 L 39.8 10.45 L 39.8 10.45 C 43.2 10.45 44.9 12.03 44.9 15.19 L 44.9 15.19 L 44.9 15.19 C 44.9 16.69 44.69 18.043 44.27 19.25 L 44.27 19.25 L 44.27 19.25 C 43.85 20.463 43.387 21.427 42.88 22.14 L 42.88 22.14 L 42.88 22.14 C 42.367 22.847 41.663 23.447 40.77 23.94 L 40.77 23.94 L 40.77 23.94 C 39.883 24.427 38.86 24.67 37.7 24.67 Z M 36.95 15.25 L 35.63 15.25 L 34.82 19.87 L 36.14 19.87 L 36.14 19.87 C 36.82 19.87 37.333 19.797 37.68 19.65 L 37.68 19.65 L 37.68 19.65 C 38.033 19.497 38.26 19.15 38.36 18.61 L 38.36 18.61 L 38.36 18.61 C 38.62 17.13 38.75 16.32 38.75 16.18 L 38.75 16.18 L 38.75 16.18 C 38.75 15.8 38.6 15.55 38.3 15.43 L 38.3 15.43 L 38.3 15.43 C 38 15.31 37.55 15.25 36.95 15.25 L 36.95 15.25 Z M 56.93 24.4 L 56.09 29.2 L 44.69 29.2 L 47.99 10.45 L 53.69 10.45 L 51.23 24.4 L 56.93 24.4 Z M 61.4 26.23 L 60.23 29.2 L 54.23 29.2 L 62.12 10.45 L 70.94 10.45 L 72.26 29.2 L 66.23 29.2 L 66.11 26.23 L 61.4 26.23 Z M 65.66 16.21 L 65.36 16.21 L 63.26 21.46 L 65.66 21.46 L 65.66 16.21 Z M 89.09 10.45 L 88.22 15.25 L 84.08 15.25 L 81.65 29.2 L 75.95 29.2 L 78.38 15.25 L 74.27 15.25 L 75.14 10.45 L 89.09 10.45 Z M 100.76 17.77 L 99.95 22.24 L 95.09 22.24 L 93.89 29.2 L 88.19 29.2 L 91.49 10.45 L 103.19 10.45 L 101.6 15.25 L 96.32 15.25 L 95.9 17.77 L 100.76 17.77 Z M 109.76 16.72 L 109.76 16.72 L 108.38 24.52 L 110.75 24.52 L 110.75 24.52 C 111.53 24.52 112.11 24.427 112.49 24.24 L 112.49 24.24 L 112.49 24.24 C 112.87 24.047 113.12 23.61 113.24 22.93 L 113.24 22.93 L 114.62 15.13 L 112.22 15.13 L 112.22 15.13 C 111.46 15.13 110.89 15.223 110.51 15.41 L 110.51 15.41 L 110.51 15.41 C 110.13 15.603 109.88 16.04 109.76 16.72 Z M 113.21 10 L 113.21 10 L 113.21 10 C 115.75 10 117.56 10.497 118.64 11.49 L 118.64 11.49 L 118.64 11.49 C 119.72 12.477 120.26 14 120.26 16.06 L 120.26 16.06 L 120.26 16.06 C 120.26 18.12 119.933 20.277 119.28 22.53 L 119.28 22.53 L 119.28 22.53 C 118.633 24.777 117.603 26.523 116.19 27.77 L 116.19 27.77 L 116.19 27.77 C 114.783 29.023 112.723 29.65 110.01 29.65 L 110.01 29.65 L 110.01 29.65 C 107.303 29.65 105.41 29.157 104.33 28.17 L 104.33 28.17 L 104.33 28.17 C 103.25 27.177 102.71 25.65 102.71 23.59 L 102.71 23.59 L 102.71 23.59 C 102.71 22.61 102.85 21.317 103.13 19.71 L 103.13 19.71 L 103.13 19.71 C 103.41 18.097 103.78 16.707 104.24 15.54 L 104.24 15.54 L 104.24 15.54 C 104.7 14.367 105.32 13.35 106.1 12.49 L 106.1 12.49 L 106.1 12.49 C 107.6 10.83 109.97 10 113.21 10 Z M 134.75 22.96 L 136.73 29.2 L 130.46 29.2 L 129.08 23.62 L 127.85 23.62 L 126.89 29.2 L 121.19 29.2 L 124.49 10.45 L 133.49 10.45 L 133.49 10.45 C 136.91 10.45 138.62 11.98 138.62 15.04 L 138.62 15.04 L 138.62 15.04 C 138.62 16.3 138.43 17.5 138.05 18.64 L 138.05 18.64 L 138.05 18.64 C 137.35 20.8 136.25 22.24 134.75 22.96 L 134.75 22.96 Z M 130.46 15.25 L 129.32 15.25 L 128.66 19 L 129.98 19 L 129.98 19 C 130.66 19 131.173 18.927 131.52 18.78 L 131.52 18.78 L 131.52 18.78 C 131.873 18.627 132.113 18.197 132.24 17.49 L 132.24 17.49 L 132.24 17.49 C 132.373 16.777 132.44 16.34 132.44 16.18 L 132.44 16.18 L 132.44 16.18 C 132.44 15.78 132.287 15.523 131.98 15.41 L 131.98 15.41 L 131.98 15.41 C 131.667 15.303 131.16 15.25 130.46 15.25 L 130.46 15.25 Z M 146.51 20.11 L 144.56 29.2 L 138.62 29.2 L 143 10.45 L 150.44 10.45 L 150.98 19.99 L 151.19 19.99 L 155.09 10.45 L 162.53 10.45 L 160.31 29.2 L 154.34 29.2 L 155.6 20.11 L 155.39 20.11 L 151.64 29.2 L 147.29 29.2 L 146.66 20.11 L 146.51 20.11 Z M 176.9 17.77 L 176.12 22.12 L 170.42 22.12 L 170.03 24.4 L 177.02 24.4 L 176.18 29.2 L 163.49 29.2 L 166.79 10.45 L 179.33 10.45 L 177.77 15.25 L 171.62 15.25 L 171.2 17.77 L 176.9 17.77 Z M 192.95 22.96 L 194.93 29.2 L 188.66 29.2 L 187.28 23.62 L 186.05 23.62 L 185.09 29.2 L 179.39 29.2 L 182.69 10.45 L 191.69 10.45 L 191.69 10.45 C 195.11 10.45 196.82 11.98 196.82 15.04 L 196.82 15.04 L 196.82 15.04 C 196.82 16.3 196.63 17.5 196.25 18.64 L 196.25 18.64 L 196.25 18.64 C 195.55 20.8 194.45 22.24 192.95 22.96 L 192.95 22.96 Z M 188.66 15.25 L 187.52 15.25 L 186.86 19 L 188.18 19 L 188.18 19 C 188.86 19 189.373 18.927 189.72 18.78 L 189.72 18.78 L 189.72 18.78 C 190.073 18.627 190.313 18.197 190.44 17.49 L 190.44 17.49 L 190.44 17.49 C 190.573 16.777 190.64 16.34 190.64 16.18 L 190.64 16.18 L 190.64 16.18 C 190.64 15.78 190.487 15.523 190.18 15.41 L 190.18 15.41 L 190.18 15.41 C 189.867 15.303 189.36 15.25 188.66 15.25 L 188.66 15.25 Z" style="white-space: pre; fill: rgb(255, 255, 255);"/>
</svg>