<?xml version="1.0" encoding="utf-8"?>
<svg version="1.2" baseProfile="tiny" id="Layer_1" x="0px" y="0px" xmlns="http://www.w3.org/2000/svg">
  <g transform="matrix(0.363792, 0, 0, 0.363792, 0, 0)">
    <g/>
    <g/>
    <g/>
    <g>
      <g/>
    </g>
  </g>
  <g transform="matrix(0.363792, 0, 0, 0.363792, 0, 0)">
    <g/>
    <g>
      <g/>
      <g/>
    </g>
    <g>
      <g/>
      <g/>
    </g>
    <g>
      <g/>
      <g/>
    </g>
    <g/>
    <g/>
    <g/>
  </g>
  <path d="M 13.767 48.527 C 13.739 48.527 13.71 48.52 13.684 48.507 C 10.953 47.181 9.543 45.637 9.606 44.039 C 9.658 42.724 10.731 41.482 12.711 40.447 C 14.589 39.466 17.238 38.687 20.372 38.195 C 20.476 38.179 20.574 38.25 20.591 38.355 C 20.607 38.459 20.536 38.557 20.431 38.573 C 14.084 39.571 10.083 41.671 9.989 44.055 C 9.934 45.468 11.305 46.927 13.851 48.164 C 13.946 48.21 13.986 48.323 13.94 48.419 C 13.906 48.487 13.838 48.527 13.767 48.527 Z" style="fill: rgb(255, 255, 255);"/>
  <path d="M 37.57 38.713 C 37.559 38.713 37.549 38.712 37.539 38.71 C 35.522 38.379 33.392 38.158 31.21 38.054 C 31.104 38.049 31.023 37.959 31.028 37.853 C 31.033 37.748 31.125 37.667 31.228 37.671 C 33.425 37.776 35.569 37.999 37.601 38.332 C 37.705 38.349 37.776 38.448 37.759 38.552 C 37.743 38.646 37.662 38.713 37.57 38.713 Z" style="fill: rgb(255, 255, 255);"/>
  <path d="M 31.544 51.788 C 31.49 51.788 31.437 51.788 31.383 51.788 C 31.277 51.788 31.192 51.702 31.193 51.596 C 31.193 51.491 31.278 51.405 31.384 51.405 C 31.384 51.405 31.384 51.405 31.384 51.405 C 31.437 51.405 31.491 51.405 31.544 51.405 C 41.789 51.405 49.873 48.743 49.98 45.32 C 50.017 44.122 49.056 42.907 47.197 41.806 C 45.347 40.709 42.695 39.775 39.528 39.104 C 39.425 39.081 39.359 38.98 39.381 38.877 C 39.403 38.773 39.504 38.707 39.608 38.729 C 42.814 39.409 45.506 40.359 47.392 41.477 C 49.377 42.653 50.404 43.986 50.363 45.332 C 50.306 47.152 48.295 48.811 44.701 50.004 C 41.226 51.155 36.559 51.788 31.544 51.788 Z" style="fill: rgb(255, 255, 255);"/>
  <polygon points="35.011 41.821 40.065 37.969 34.129 40.339 32.46 38.602 32.992 41.008 27.938 44.861 33.875 42.49 35.543 44.227" style="fill: rgb(255, 255, 255);"/>
  <path d="M 28.681 46.631 C 28.753 46.275 28.886 46.326 29.247 46.268 L 29.584 46.216 L 29.479 46.777 L 29.143 46.831 C 28.781 46.888 28.622 46.985 28.681 46.631 Z M 27.951 46.117 L 27.689 47.527 C 27.617 47.912 27.734 48.035 28.104 47.977 L 30.249 47.636 L 30.709 45.164 L 28.564 45.504 C 28.193 45.563 28.022 45.732 27.951 46.117 Z M 41.566 43.892 L 41.541 44.028 L 43.753 43.677 C 43.928 43.648 44.098 43.472 44.133 43.281 C 44.168 43.091 44.056 42.958 43.881 42.986 L 43.313 43.076 L 42.407 43.22 L 42.177 43.256 C 41.911 43.299 41.62 43.601 41.566 43.892 Z M 26.045 50.267 L 26.063 50.168 C 26.139 50.174 26.241 50.204 26.329 50.19 L 28.629 49.83 C 28.543 50.288 27.937 50.403 27.013 50.55 L 25.96 50.717 L 25.396 53.751 L 26.778 53.532 C 30.182 53.196 31.477 51.437 31.893 49.34 L 36.04 48.682 L 36.709 45.085 L 37.046 45.032 C 37.416 44.973 37.361 44.906 37.29 45.29 L 36.678 48.58 L 39.656 48.108 L 39.697 47.89 C 39.921 47.989 40.184 48.024 40.462 47.98 L 45.612 47.164 L 46.092 44.579 L 45.758 44.341 C 46.047 43.999 46.273 43.58 46.338 43.228 L 46.419 42.82 C 46.676 41.296 45.27 40.891 44.629 40.993 L 41.674 41.462 C 41.151 41.545 40.574 41.909 40.155 42.393 C 39.767 42.009 39.168 41.86 38.82 41.915 L 35.531 42.437 L 35.899 43.251 L 38.866 42.781 C 39.293 42.712 39.58 42.883 39.658 43.222 C 39.627 43.312 38.866 47.362 38.866 47.362 L 37.801 47.531 L 38.372 44.465 C 38.443 44.081 38.327 43.957 37.957 44.016 L 35.918 44.339 L 35.249 47.936 L 34.08 48.122 L 34.845 44.005 L 33.883 42.869 L 30.417 44.121 L 32.06 43.861 L 32.086 43.857 L 31.041 49.476 C 30.776 50.903 29.253 52.268 27.902 52.483 L 26.52 52.702 L 26.729 51.578 L 27.781 51.411 C 28.705 51.264 29.746 50.339 29.926 49.372 L 30.039 48.763 L 27.301 49.197 C 26.714 49.29 26.395 48.933 26.511 48.313 L 27.002 45.671 C 27.089 45.202 27.381 44.813 27.773 44.609 L 27.78 44.539 L 29.154 43.482 L 28.351 43.617 C 27.925 43.684 27.133 44.004 26.629 44.646 C 26.249 44.193 25.584 44.015 25.209 44.074 L 22.257 44.543 L 22.739 41.957 L 24.892 41.616 C 26.038 41.435 27.307 40.145 27.532 38.935 L 27.856 37.193 C 28.081 35.98 27.229 35.028 26.083 35.21 L 21.376 35.956 L 20.373 41.351 L 16.04 42.039 C 15.673 42.097 15.316 42.459 15.245 42.847 L 13.625 51.557 C 13.553 51.945 13.792 52.212 14.159 52.155 L 22.428 50.843 L 23.097 47.246 L 23.433 47.192 C 23.804 47.134 23.749 47.068 23.677 47.452 L 23.066 50.742 L 26.045 50.267 Z M 19.909 48.295 L 17.144 48.733 L 17.248 48.172 L 19.481 47.817 L 20.025 44.895 L 17.791 45.249 L 17.895 44.688 L 20.66 44.249 L 19.909 48.295 Z M 19.741 49.194 L 19.512 50.43 L 14.62 51.206 L 16.145 43.001 L 20.186 42.36 L 19.977 43.484 L 17.105 43.94 L 16.667 46.3 L 19.006 45.929 L 18.797 47.052 L 16.458 47.424 L 16.019 49.785 L 19.741 49.194 Z M 25.361 49.503 L 24.191 49.688 L 24.761 46.623 C 24.832 46.238 24.716 46.114 24.346 46.172 L 22.307 46.496 L 21.639 50.093 L 20.469 50.279 L 21.346 45.559 L 21.373 45.554 L 25.255 44.939 C 25.842 44.845 26.161 45.201 26.045 45.823 L 25.361 49.503 Z M 32.964 43.715 L 34.108 43.534 L 33.23 48.255 L 32.061 48.44 L 32.937 43.72 L 32.964 43.715 Z M 40.059 45.94 L 40.465 43.756 C 40.594 43.065 41.336 42.387 41.968 42.287 L 44.704 41.853 C 45.165 41.78 45.485 42.295 45.391 42.799 L 45.257 43.501 C 45.163 44.006 44.648 44.541 44.188 44.614 L 41.348 45.065 L 41.308 45.32 C 41.253 45.61 41.446 45.836 41.712 45.794 L 44.885 45.288 L 44.671 46.44 L 41.091 47.008 C 40.459 47.107 39.932 46.631 40.059 45.94 Z M 23.135 39.82 L 23.532 37.684 L 25.021 37.449 C 25.216 37.418 25.316 37.529 25.277 37.735 L 25.005 39.197 C 24.967 39.403 24.819 39.553 24.624 39.585 L 23.135 39.82 Z" style="fill: rgb(255, 255, 255);"/>
  <path d="M 32.651 40.819 L 32.335 39.568 L 32.157 39.59 L 32.1 39.898 C 32.06 40.112 31.888 40.286 31.686 40.319 L 30.463 40.513 C 30.261 40.545 30.145 40.415 30.185 40.202 L 30.801 36.886 C 30.841 36.673 31.013 36.499 31.215 36.467 L 32.439 36.273 C 32.64 36.241 32.756 36.37 32.716 36.583 L 32.637 37.005 L 35.11 36.612 L 35.204 36.107 C 35.441 34.831 34.574 33.862 33.366 34.053 L 31 34.428 C 29.794 34.62 28.502 35.932 28.265 37.208 L 27.607 40.748 C 27.37 42.024 28.237 42.993 29.445 42.801 L 30.236 42.677 L 32.651 40.819 Z" style="fill: rgb(255, 255, 255);"/>
  <path d="M 34.404 40.064 C 34.469 39.891 34.513 39.825 34.547 39.647 L 34.631 39.197 L 33.647 39.353 L 34.404 40.064 Z" style="fill: rgb(255, 255, 255);"/>
  <path d="M 76.511 51.868 C 76.511 51.868 68.472 51.868 63.592 51.868 C 59.285 51.868 56.414 48.973 56.414 46.126 C 56.414 43.279 59.285 40.384 63.592 40.384 C 66.845 40.384 71.631 40.384 76.511 40.384 L 76.511 37.513 C 76.511 37.513 68.472 37.513 63.592 37.513 C 57.849 37.513 53.543 41.245 53.543 46.126 C 53.543 51.007 57.849 54.739 63.592 54.739 C 70.099 54.739 76.511 54.739 76.511 54.739 L 76.511 51.868 Z" style="fill: rgb(255, 255, 255);"/>
  <path d="M 152.275 37.513 L 143.662 37.513 C 137.92 37.513 133.613 41.245 133.613 46.126 C 133.613 51.007 137.92 54.739 143.662 54.739 L 152.275 54.739 C 158.017 54.739 162.324 51.007 162.324 46.126 C 162.324 41.245 158.017 37.513 152.275 37.513 Z M 152.275 51.868 L 143.662 51.868 C 139.356 51.868 136.484 48.973 136.484 46.126 C 136.484 43.279 139.356 40.384 143.662 40.384 L 152.275 40.384 C 156.582 40.384 159.452 43.279 159.452 46.126 C 159.452 48.973 156.582 51.868 152.275 51.868 Z" style="fill: rgb(255, 255, 255);"/>
  <path d="M 92.302 37.513 C 85.795 37.513 79.382 37.513 79.382 37.513 L 79.382 54.739 C 79.382 54.739 87.421 54.739 92.302 54.739 C 98.044 54.739 102.351 51.007 102.351 46.126 C 102.351 41.245 98.044 37.513 92.302 37.513 Z M 92.302 51.868 C 89.661 51.868 86.501 51.868 82.254 51.868 L 82.254 40.384 C 85.444 40.384 89.127 40.384 92.302 40.384 C 96.609 40.384 99.48 43.279 99.48 46.126 C 99.48 48.973 96.609 51.868 92.302 51.868 Z" style="fill: rgb(255, 255, 255);"/>
  <path d="M 128.19 46.126 C 129.625 46.126 131.061 44.053 131.061 42.617 C 131.061 39.746 129.626 37.513 126.755 37.513 C 123.884 37.513 109.528 37.513 109.528 37.513 L 109.528 54.74 L 112.4 54.74 L 112.4 47.562 C 116.706 47.562 123.884 47.562 125.319 47.562 C 126.755 47.562 128.191 48.998 128.191 50.433 C 128.191 51.869 128.191 54.74 128.191 54.74 L 131.062 54.74 C 131.062 54.74 131.062 53.305 131.062 50.433 C 131.062 47.562 128.19 46.126 128.19 46.126 Z M 125.319 44.691 C 122.448 44.691 112.4 44.691 112.4 44.691 L 112.4 40.384 C 112.4 40.384 122.448 40.384 125.319 40.384 C 126.755 40.384 128.191 41.181 128.191 42.617 C 128.19 44.053 126.755 44.691 125.319 44.691 Z" style="fill: rgb(255, 255, 255);"/>
  <path d="M 105.461 47.561 C 104.668 47.561 104.026 46.919 104.026 46.126 C 104.026 45.334 104.669 44.691 105.461 44.691 L 106.538 44.691 C 107.331 44.691 107.973 45.334 107.973 46.126 C 107.973 46.919 107.331 47.561 106.538 47.561 L 105.461 47.561 Z" style="fill: rgb(255, 255, 255);"/>
  <path d="M 175.244 40.384 L 175.244 54.739 L 178.115 54.739 L 178.115 40.384 L 180.987 40.384 C 182.421 40.384 185.293 40.384 185.293 43.255 C 185.293 46.127 185.293 54.739 185.293 54.739 L 188.164 54.739 L 188.164 41.82 C 188.164 38.948 185.293 37.513 182.422 37.513 C 180.987 37.513 172.373 37.513 170.938 37.513 C 168.066 37.513 165.196 38.948 165.196 41.82 C 165.196 44.691 165.196 50.433 165.196 54.739 L 168.067 54.739 C 168.067 54.739 168.067 46.126 168.067 43.255 C 168.067 40.384 170.938 40.384 172.374 40.384 L 175.244 40.384 Z" style="fill: rgb(255, 255, 255);"/>
  <path d="M 195.635 39.938 C 195.635 39.938 195.291 39.938 196.703 39.938 C 198.616 39.938 200 38.961 200 36.763 C 200 35.351 199.105 33.711 197.175 33.711 C 195.762 33.711 192.622 33.711 191.21 33.711 L 191.21 35.908 C 191.21 35.908 194.125 35.908 195.537 35.908 C 196.154 35.908 196.846 36.011 196.846 36.763 C 196.846 37.476 196.296 37.74 195.66 37.74 L 193.871 37.74 C 190.66 37.74 190.271 40.032 190.271 41.821 L 190.271 43.235 L 199.841 43.235 L 199.841 40.877 L 193.473 40.877 C 193.472 39.779 194.693 39.938 195.635 39.938 Z" style="fill: rgb(255, 255, 255);"/>
</svg>