<?xml version="1.0" encoding="utf-8"?>
<svg version="1.2" baseProfile="tiny" id="Layer_1" x="0px" y="0px" xmlns="http://www.w3.org/2000/svg">
  <g>
    <g/>
    <g/>
    <g/>
    <g>
      <g/>
    </g>
  </g>
  <g>
    <g/>
    <g>
      <g/>
      <g/>
    </g>
    <g>
      <g/>
      <g/>
    </g>
    <g>
      <g/>
      <g/>
    </g>
    <g/>
    <g/>
    <g/>
  </g>
  <path d="M 37.843 133.391 C 37.766 133.391 37.687 133.373 37.614 133.338 C 30.108 129.694 26.233 125.448 26.406 121.056 C 26.548 117.44 29.498 114.026 34.94 111.182 C 40.102 108.485 47.384 106.344 55.998 104.992 C 56.286 104.946 56.555 105.142 56.6 105.43 C 56.645 105.716 56.449 105.987 56.162 106.032 C 38.713 108.772 27.715 114.546 27.459 121.099 C 27.306 124.985 31.075 128.995 38.074 132.393 C 38.336 132.52 38.445 132.832 38.318 133.096 C 38.226 133.281 38.039 133.391 37.843 133.391 Z" style="fill: rgb(255, 255, 255);"/>
  <path d="M 103.273 106.415 C 103.244 106.415 103.215 106.413 103.187 106.408 C 97.643 105.498 91.79 104.89 85.791 104.604 C 85.5 104.589 85.276 104.343 85.291 104.052 C 85.305 103.762 85.556 103.54 85.841 103.552 C 91.881 103.841 97.774 104.452 103.359 105.369 C 103.645 105.416 103.84 105.687 103.792 105.973 C 103.749 106.232 103.526 106.415 103.273 106.415 Z" style="fill: rgb(255, 255, 255);"/>
  <path d="M 86.708 142.357 C 86.561 142.357 86.415 142.357 86.267 142.356 C 85.976 142.355 85.742 142.119 85.743 141.829 C 85.744 141.539 85.978 141.305 86.268 141.305 C 86.269 141.305 86.269 141.305 86.27 141.305 C 86.415 141.305 86.562 141.305 86.708 141.305 C 114.871 141.305 137.093 133.986 137.386 124.576 C 137.489 121.283 134.845 117.943 129.736 114.918 C 124.651 111.903 117.361 109.335 108.657 107.489 C 108.373 107.427 108.192 107.149 108.251 106.865 C 108.311 106.581 108.591 106.4 108.875 106.46 C 117.689 108.328 125.088 110.94 130.272 114.013 C 135.73 117.247 138.553 120.91 138.438 124.61 C 138.282 129.613 132.755 134.174 122.875 137.451 C 113.323 140.617 100.494 142.357 86.708 142.357 Z" style="fill: rgb(255, 255, 255);"/>
  <polygon points="96.238 114.96 110.131 104.37 93.814 110.884 89.228 106.111 90.69 112.725 76.797 123.314 93.116 116.798 97.7 121.572" style="fill: rgb(255, 255, 255);"/>
  <path d="M 78.839 128.18 C 79.038 127.201 79.402 127.342 80.396 127.184 L 81.322 127.039 L 81.033 128.581 L 80.108 128.729 C 79.114 128.887 78.676 129.153 78.839 128.18 Z M 76.833 126.767 L 76.113 130.642 C 75.915 131.701 76.236 132.041 77.254 131.88 L 83.149 130.944 L 84.413 124.148 L 78.518 125.083 C 77.498 125.244 77.028 125.709 76.833 126.767 Z M 114.257 120.65 L 114.188 121.024 L 120.27 120.06 C 120.75 119.982 121.218 119.497 121.315 118.972 C 121.411 118.448 121.103 118.085 120.622 118.161 L 119.06 118.407 L 116.568 118.804 L 115.937 118.903 C 115.207 119.02 114.405 119.853 114.257 120.65 Z M 71.592 138.175 L 71.641 137.904 C 71.85 137.92 72.131 138.001 72.375 137.964 L 78.695 136.974 C 78.46 138.234 76.795 138.549 74.253 138.953 L 71.36 139.413 L 69.809 147.753 L 73.609 147.151 C 82.965 146.227 86.525 141.391 87.668 135.627 L 99.069 133.818 L 100.906 123.931 L 101.833 123.784 C 102.849 123.623 102.699 123.438 102.504 124.495 L 100.822 133.539 L 109.007 132.241 L 109.119 131.641 C 109.736 131.913 110.458 132.009 111.223 131.889 L 125.378 129.645 L 126.698 122.539 L 125.781 121.887 C 126.576 120.946 127.196 119.793 127.375 118.826 L 127.598 117.705 C 128.304 113.515 124.44 112.401 122.677 112.682 L 114.554 113.971 C 113.116 114.2 111.531 115.202 110.378 116.531 C 109.312 115.475 107.667 115.065 106.71 115.217 L 97.667 116.652 L 98.679 118.889 L 106.835 117.597 C 108.011 117.409 108.797 117.879 109.012 118.81 C 108.926 119.056 106.835 130.189 106.835 130.189 L 103.91 130.654 L 105.478 122.226 C 105.672 121.17 105.353 120.83 104.337 120.991 L 98.733 121.881 L 96.894 131.767 L 93.679 132.279 L 95.783 120.961 L 93.137 117.839 L 83.611 121.282 L 88.126 120.565 L 88.199 120.555 L 85.328 136.001 C 84.598 139.924 80.411 143.676 76.698 144.267 L 72.898 144.869 L 73.474 141.779 L 76.365 141.321 C 78.906 140.916 81.767 138.374 82.261 135.714 L 82.573 134.04 L 75.046 135.233 C 73.432 135.49 72.556 134.509 72.873 132.804 L 74.223 125.542 C 74.462 124.253 75.267 123.182 76.344 122.624 L 76.363 122.431 L 80.139 119.525 L 77.933 119.895 C 76.76 120.081 74.583 120.96 73.2 122.725 C 72.154 121.478 70.325 120.989 69.295 121.152 L 61.182 122.441 L 62.504 115.334 L 68.423 114.396 C 71.574 113.897 75.061 110.353 75.68 107.024 L 76.57 102.236 C 77.19 98.904 74.847 96.286 71.696 96.786 L 58.76 98.838 L 56.003 113.667 L 44.091 115.559 C 43.083 115.718 42.102 116.713 41.905 117.779 L 37.453 141.721 C 37.255 142.787 37.912 143.522 38.921 143.364 L 61.65 139.757 L 63.489 129.871 L 64.414 129.724 C 65.433 129.564 65.283 129.381 65.085 130.437 L 63.404 139.48 L 71.592 138.175 Z M 54.726 132.754 L 47.126 133.96 L 47.412 132.417 L 53.55 131.44 L 55.044 123.408 L 48.905 124.383 L 49.191 122.838 L 56.791 121.632 L 54.726 132.754 Z M 54.266 135.226 L 53.635 138.623 L 40.188 140.757 L 44.379 118.203 L 55.488 116.44 L 54.913 119.53 L 47.02 120.784 L 45.815 127.271 L 52.245 126.251 L 51.671 129.339 L 45.24 130.359 L 44.032 136.849 L 54.266 135.226 Z M 69.712 136.075 L 66.496 136.584 L 68.063 128.157 C 68.26 127.101 67.94 126.76 66.922 126.92 L 61.318 127.81 L 59.482 137.697 L 56.265 138.208 L 58.677 125.232 L 58.752 125.22 L 69.421 123.529 C 71.035 123.271 71.911 124.251 71.593 125.958 L 69.712 136.075 Z M 90.613 120.165 L 93.757 119.667 L 91.344 132.643 L 88.129 133.153 L 90.539 120.179 L 90.613 120.165 Z M 110.116 126.28 L 111.232 120.278 C 111.586 118.379 113.626 116.515 115.364 116.239 L 122.884 115.048 C 124.151 114.846 125.031 116.261 124.773 117.647 L 124.404 119.578 C 124.145 120.964 122.731 122.435 121.465 122.636 L 113.659 123.876 L 113.547 124.577 C 113.399 125.373 113.927 125.996 114.658 125.879 L 123.382 124.49 L 122.794 127.656 L 112.952 129.216 C 111.213 129.49 109.765 128.18 110.116 126.28 Z M 63.595 109.459 L 64.686 103.588 L 68.778 102.941 C 69.315 102.856 69.589 103.162 69.482 103.727 L 68.736 107.746 C 68.629 108.313 68.223 108.725 67.686 108.811 L 63.595 109.459 Z" style="fill: rgb(255, 255, 255);"/>
  <path d="M 89.753 112.205 L 88.884 108.765 L 88.395 108.825 L 88.237 109.673 C 88.128 110.262 87.655 110.74 87.099 110.83 L 83.737 111.362 C 83.182 111.451 82.864 111.095 82.974 110.508 L 84.668 101.394 C 84.777 100.808 85.25 100.329 85.804 100.241 L 89.168 99.708 C 89.723 99.62 90.04 99.975 89.93 100.561 L 89.714 101.721 L 96.511 100.641 L 96.77 99.252 C 97.421 95.745 95.037 93.08 91.718 93.606 L 85.215 94.637 C 81.898 95.164 78.347 98.772 77.696 102.278 L 75.887 112.008 C 75.236 115.516 77.619 118.181 80.938 117.654 L 83.112 117.311 L 89.753 112.205 Z" style="fill: rgb(255, 255, 255);"/>
  <path d="M 94.571 110.129 C 94.748 109.652 94.871 109.471 94.962 108.983 L 95.193 107.745 L 92.488 108.175 L 94.571 110.129 Z" style="fill: rgb(255, 255, 255);"/>
  <path d="M 210.316 142.577 C 210.316 142.577 188.219 142.577 174.802 142.577 C 162.964 142.577 155.072 134.619 155.072 126.793 C 155.072 118.967 162.964 111.009 174.802 111.009 C 183.746 111.009 196.9 111.009 210.316 111.009 L 210.316 103.116 C 210.316 103.116 188.219 103.116 174.802 103.116 C 159.018 103.116 147.18 113.376 147.18 126.793 C 147.18 140.209 159.018 150.469 174.802 150.469 C 192.69 150.469 210.316 150.469 210.316 150.469 L 210.316 142.577 Z" style="fill: rgb(255, 255, 255);"/>
  <path d="M 418.578 103.116 L 394.902 103.116 C 379.117 103.116 367.28 113.376 367.28 126.793 C 367.28 140.209 379.117 150.469 394.902 150.469 L 418.578 150.469 C 434.362 150.469 446.199 140.209 446.199 126.793 C 446.199 113.376 434.362 103.116 418.578 103.116 Z M 418.578 142.577 L 394.902 142.577 C 383.064 142.577 375.172 134.619 375.172 126.793 C 375.172 118.967 383.065 111.009 394.902 111.009 L 418.578 111.009 C 430.416 111.009 438.307 118.967 438.307 126.793 C 438.307 134.619 430.416 142.577 418.578 142.577 Z" style="fill: rgb(255, 255, 255);"/>
  <path d="M 253.723 103.116 C 235.834 103.116 218.208 103.116 218.208 103.116 L 218.208 150.469 C 218.208 150.469 240.306 150.469 253.723 150.469 C 269.507 150.469 281.344 140.209 281.344 126.793 C 281.344 113.376 269.507 103.116 253.723 103.116 Z M 253.723 142.577 C 246.463 142.577 237.776 142.577 226.101 142.577 L 226.101 111.009 C 234.87 111.009 244.995 111.009 253.723 111.009 C 265.561 111.009 273.452 118.967 273.452 126.793 C 273.452 134.619 265.561 142.577 253.723 142.577 Z" style="fill: rgb(255, 255, 255);"/>
  <path d="M 352.372 126.793 C 356.318 126.793 360.265 121.093 360.265 117.147 C 360.265 109.255 356.319 103.117 348.426 103.117 C 340.535 103.117 301.074 103.117 301.074 103.117 L 301.074 150.47 L 308.967 150.47 L 308.967 130.74 C 320.805 130.74 340.535 130.74 344.481 130.74 C 348.427 130.74 352.373 134.687 352.373 138.633 C 352.373 142.579 352.373 150.471 352.373 150.471 L 360.266 150.471 C 360.266 150.471 360.266 146.526 360.266 138.633 C 360.266 130.74 352.372 126.793 352.372 126.793 Z M 344.481 122.847 C 336.589 122.847 308.967 122.847 308.967 122.847 L 308.967 111.009 C 308.967 111.009 336.589 111.009 344.481 111.009 C 348.426 111.009 352.373 113.201 352.373 117.147 C 352.372 121.093 348.426 122.847 344.481 122.847 Z" style="fill: rgb(255, 255, 255);"/>
  <path d="M 289.895 130.738 C 287.715 130.738 285.949 128.971 285.949 126.793 C 285.949 124.615 287.716 122.847 289.895 122.847 L 292.854 122.847 C 295.034 122.847 296.8 124.615 296.8 126.793 C 296.8 128.971 295.033 130.738 292.854 130.738 L 289.895 130.738 Z" style="fill: rgb(255, 255, 255);"/>
  <path d="M 481.715 111.009 L 481.715 150.469 L 489.607 150.469 L 489.607 111.009 L 497.5 111.009 C 501.445 111.009 509.337 111.009 509.337 118.901 C 509.337 126.794 509.337 150.469 509.337 150.469 L 517.23 150.469 L 517.23 114.955 C 517.23 107.062 509.337 103.116 501.446 103.116 C 497.501 103.116 473.824 103.116 469.878 103.116 C 461.985 103.116 454.094 107.062 454.094 114.955 C 454.094 122.847 454.094 138.631 454.094 150.469 L 461.986 150.469 C 461.986 150.469 461.986 126.793 461.986 118.901 C 461.986 111.009 469.879 111.009 473.825 111.009 L 481.715 111.009 Z" style="fill: rgb(255, 255, 255);"/>
  <path d="M 537.766 109.782 C 537.766 109.782 536.82 109.782 540.703 109.782 C 545.962 109.782 549.765 107.097 549.765 101.056 C 549.765 97.173 547.305 92.666 541.999 92.666 C 538.115 92.666 529.485 92.666 525.602 92.666 L 525.602 98.706 C 525.602 98.706 533.616 98.706 537.498 98.706 C 539.194 98.706 541.096 98.987 541.096 101.056 C 541.096 103.014 539.584 103.741 537.834 103.741 L 532.918 103.741 C 524.091 103.741 523.022 110.04 523.022 114.96 L 523.022 118.844 L 549.327 118.844 L 549.327 112.365 L 531.823 112.365 C 531.821 109.345 535.177 109.782 537.766 109.782 Z" style="fill: rgb(255, 255, 255);"/>
</svg>