<?xml version="1.0" encoding="utf-8"?>
<svg version="1.2" baseProfile="tiny" id="Layer_2" x="0px" y="0px" preserveAspectRatio="none" xmlns="http://www.w3.org/2000/svg">
  <path d="M 356.607 255.633" style="fill: rgb(30, 30, 30);" transform="matrix(0.965926, -0.258819, 0.258819, 0.965926, -54.011545, 101.007015)"/>
  <path d="M 354.9 249.853 C 355.332 249.165 356.936 246.52 357.825 245.263 L 357.825 245.263 C 360.126 241.805 364.062 239.526 368.527 239.526 L 368.527 239.526 L 387.195 239.526 L 387.195 240.492 L 368.527 240.492 C 364.395 240.491 360.76 242.598 358.621 245.808 L 358.621 245.808 C 357.764 247.022 356.154 249.67 355.72 250.365 L 355.72 250.365 L 355.72 250.366 L 354.9 249.853 L 354.9 249.853 Z" style="fill: rgb(30, 30, 30);" transform="matrix(0.965926, -0.258819, 0.258819, 0.965926, -50.753583, 104.380576)"/>
  <path d="M 396.084 351.494 C 391.619 351.494 387.684 349.216 385.391 345.769 L 385.391 345.769 C 384.494 344.501 382.889 341.856 382.459 341.167 L 382.459 341.167 L 383.278 340.655 C 383.712 341.351 385.321 343.999 386.186 345.223 L 386.186 345.223 C 388.316 348.422 391.952 350.529 396.084 350.528 L 396.084 350.528 L 414.754 350.529 L 414.754 351.495 L 396.084 351.494 L 396.084 351.494 Z" style="fill: rgb(30, 30, 30);" transform="matrix(0.965926, -0.258819, 0.258819, 0.965926, -75.988532, 114.958998)"/>
  <path d="M 356.308 256.43" style="fill: rgb(30, 30, 30);" transform="matrix(0.965926, -0.258819, 0.258819, 0.965926, -54.228096, 100.957025)"/>
  <path d="M 380.443 344.589" style="fill: rgb(30, 30, 30);" transform="matrix(0.965926, -0.258819, 0.258819, 0.965926, -76.222826, 110.207311)"/>
  <path d="M 379.786 344.049" style="fill: rgb(30, 30, 30);" transform="matrix(0.965926, -0.258819, 0.258819, 0.965926, -76.105626, 110.019205)"/>
  <path d="M 598.368 190.854" style="fill: rgb(30, 30, 30);" transform="matrix(0.965926, -0.258819, 0.258819, 0.965926, -29.007764, 161.37235)"/>
  <path d="M 592.937 189.67 C 590.807 186.471 587.172 184.364 583.039 184.364 L 583.039 184.364 L 564.371 184.364 L 564.371 183.398 L 583.039 183.398 C 587.506 183.398 591.441 185.678 593.734 189.124 L 593.734 189.124 C 594.63 190.392 596.236 193.037 596.666 193.725 L 596.666 193.725 L 596.666 193.726 L 595.848 194.238 C 595.412 193.542 593.803 190.894 592.937 189.67 L 592.937 189.67 Z" style="fill: rgb(30, 30, 30);" transform="matrix(0.965926, -0.258819, 0.258819, 0.965926, -29.089002, 156.683012)"/>
  <path d="M 599.025 191.394" style="fill: rgb(30, 30, 30);" transform="matrix(0.965926, -0.258819, 0.258819, 0.965926, -29.125116, 161.560443)"/>
  <path d="M 622.204 279.809" style="fill: rgb(30, 30, 30);" transform="matrix(0.965926, -0.258819, 0.258819, 0.965926, -51.218766, 170.572256)"/>
  <path d="M 622.502 279.014" style="fill: rgb(30, 30, 30);" transform="matrix(0.965926, -0.258819, 0.258819, 0.965926, -51.002859, 170.622297)"/>
  <path d="M 408.642 310.764 C 407.802 310.764 407.12 310.084 407.12 309.243 L 407.12 309.243 L 407.12 218.594 C 407.12 217.753 407.802 217.073 408.642 217.073 L 408.642 217.073 L 568.132 217.073 C 568.972 217.073 569.652 217.754 569.653 218.594 L 569.653 218.594 L 569.653 309.242 L 569.652 309.242 C 569.652 310.083 568.971 310.763 568.132 310.763 L 568.132 310.763 L 408.642 310.763 L 408.642 310.764 Z M 408.086 218.594 L 408.086 309.242 C 408.087 309.55 408.334 309.797 408.642 309.797 L 408.642 309.797 L 568.132 309.798 C 568.438 309.797 568.686 309.549 568.687 309.242 L 568.687 309.242 L 568.687 218.594 C 568.686 218.287 568.437 218.039 568.132 218.038 L 568.132 218.038 L 408.642 218.038 C 408.335 218.039 408.087 218.287 408.086 218.594 L 408.086 218.594 Z" style="fill: rgb(30, 30, 30);" transform="matrix(0.965926, -0.258819, 0.258819, 0.965926, -51.665799, 135.39664)"/>
  <path d="M 390.255 262.584 C 389.159 262.584 388.271 261.695 388.271 260.599 C 388.271 259.503 389.159 258.615 390.255 258.615 L 393.519 258.615 C 394.615 258.615 395.503 259.503 395.503 260.599 C 395.503 261.695 394.615 262.584 393.519 262.584 L 390.255 262.584 Z" style="fill: rgb(30, 30, 30);" transform="matrix(0.965926, -0.258819, 0.258819, 0.965926, -54.094917, 110.307625)"/>
  <path d="M 568.893 214.718 C 567.797 214.718 566.909 213.829 566.909 212.733 C 566.909 211.637 567.797 210.749 568.893 210.749 L 572.157 210.749 C 573.253 210.749 574.141 211.637 574.141 212.733 C 574.141 213.829 573.253 214.718 572.157 214.718 L 568.893 214.718 Z" style="fill: rgb(30, 30, 30);" transform="matrix(0.965926, -0.258819, 0.258819, 0.965926, -35.619321, 154.911589)"/>
  <path d="M 476.77 324.332 C 476.265 324.332 475.855 323.922 475.855 323.418 C 475.855 322.911 476.265 322.502 476.77 322.502 L 478.921 322.502 C 479.426 322.502 479.836 322.912 479.836 323.418 C 479.836 323.922 479.427 324.332 478.921 324.332 L 476.77 324.332 Z" style="fill: rgb(30, 30, 30);" transform="matrix(0.965926, -0.258819, 0.258819, 0.965926, -67.424326, 134.695805)"/>
  <path d="M 382.876 324.663 C 382.877 318.977 387.485 314.369 393.17 314.368 L 393.17 314.368 C 398.855 314.369 403.463 318.977 403.464 324.663 L 403.464 324.663 C 403.463 330.347 398.855 334.956 393.17 334.958 L 393.17 334.958 C 387.485 334.956 382.877 330.347 382.876 324.663 L 382.876 324.663 Z M 383.843 324.663 C 383.852 329.814 388.019 333.981 393.17 333.99 L 393.17 333.99 C 398.321 333.981 402.488 329.814 402.497 324.663 L 402.497 324.663 C 402.488 319.511 398.321 315.343 393.17 315.335 L 393.17 315.335 C 388.019 315.343 383.852 319.511 383.843 324.663 L 383.843 324.663 Z" style="fill: rgb(30, 30, 30);" transform="matrix(0.965926, -0.258819, 0.258819, 0.965926, -70.632072, 112.8226)"/>
  <path d="M 368.992 322.007 C 368.992 322.846 368.311 323.527 367.472 323.527 C 366.632 323.527 365.951 322.846 365.951 322.007 C 365.951 321.166 366.632 320.486 367.472 320.486 C 368.311 320.486 368.992 321.166 368.992 322.007 Z" style="fill: rgb(30, 30, 30);" transform="matrix(0.965926, -0.258819, 0.258819, 0.965926, -70.820045, 106.080565)"/>
  <path d="M 362.806 293.959" style="fill: rgb(30, 30, 30);" transform="matrix(0.965926, -0.258819, 0.258819, 0.965926, -63.719807, 103.917351)"/>
  <path d="M 400.352 283.898" style="fill: rgb(30, 30, 30);" transform="matrix(0.965926, -0.258819, 0.258819, 0.965926, -59.836481, 113.292141)"/>
  <path d="M 373.955 280.206" style="fill: rgb(30, 30, 30);" transform="matrix(0.965926, -0.258819, 0.258819, 0.965926, -59.780375, 106.334296)"/>
  <g transform="matrix(0.466454, -0.124986, 0.124986, 0.466454, 327.490723, 219.121384)">
    <path d="M71.049,163.092c-1.24,0-2.392-0.439-3.282-1.172l0,0l-0.043-0.035l-9.49-9.753&#10;&#9;&#9;c-0.796-0.907-1.281-2.106-1.281-3.41l0,0v-16.369c0-0.866,0.351-1.659,0.942-2.258l0,0c0.361-0.345,0.893-0.731,1.599-0.908l0,0&#10;&#9;&#9;c3.708-1.014,7.604-1.381,11.555-1.381l0,0h0.152c3.954,0,7.85,0.368,11.547,1.377l0,0c0.714,0.181,1.248,0.566,1.638,0.94l0,0&#10;&#9;&#9;c0.563,0.571,0.911,1.365,0.911,2.229l0,0v16.369c0,1.302-0.482,2.502-1.315,3.451l0,0l-9.451,9.708l-0.045,0.039&#10;&#9;&#9;c-0.893,0.731-2.042,1.172-3.284,1.172l0,0v-1v-1c0.757-0.002,1.44-0.26,1.988-0.698l0,0l9.323-9.578&#10;&#9;&#9;c0.491-0.561,0.784-1.287,0.784-2.094l0,0v-16.369c0-0.329-0.125-0.612-0.306-0.796l0,0c-0.252-0.228-0.404-0.341-0.759-0.439l0,0&#10;&#9;&#9;c-3.479-0.953-7.201-1.312-11.03-1.312l0,0h-0.152c-3.829,0-7.548,0.359-11.038,1.313l0,0c-0.347,0.097-0.499,0.208-0.718,0.407&#10;&#9;&#9;l0,0c-0.211,0.217-0.339,0.501-0.339,0.827l0,0v16.369c0,0.805,0.296,1.534,0.75,2.055l0,0l9.369,9.626&#10;&#9;&#9;c0.544,0.432,1.227,0.689,1.977,0.689l0,0h0.152v1v1H71.049L71.049,163.092z" style="fill: rgb(30, 30, 30);"/>
    <path d="M59.5,208.407c-0.712-0.182-1.243-0.565-1.639-0.941l0,0c-0.558-0.569-0.908-1.362-0.908-2.228l0,0v-16.369&#10;&#9;&#9;c0-1.303,0.485-2.502,1.317-3.45l0,0l9.451-9.709l0.048-0.039c0.89-0.729,2.04-1.17,3.28-1.17l0,0v1.001v1&#10;&#9;&#9;c-0.751,0-1.433,0.256-1.978,0.688l0,0l-9.331,9.586c-0.492,0.562-0.787,1.288-0.787,2.094l0,0v16.369&#10;&#9;&#9;c0,0.326,0.128,0.611,0.305,0.797l0,0c0.252,0.228,0.407,0.341,0.762,0.442l0,0c3.48,0.949,7.199,1.309,11.028,1.309l0,0h0.153&#10;&#9;&#9;c3.828,0,7.548-0.359,11.037-1.312l0,0c0.347-0.099,0.502-0.212,0.719-0.406l0,0c0.212-0.219,0.338-0.504,0.34-0.83l0,0v-16.369&#10;&#9;&#9;c-0.002-0.806-0.295-1.532-0.75-2.053l0,0l-9.369-9.628c-0.543-0.432-1.229-0.688-1.977-0.688l0,0h-0.153v-1v-0.999l0.153-0.002&#10;&#9;&#9;c1.241,0,2.391,0.442,3.283,1.17l0,0l0.043,0.035l9.489,9.752c0.797,0.909,1.282,2.108,1.282,3.411l0,0l-0.002,16.369&#10;&#9;&#9;c0.002,0.865-0.349,1.658-0.941,2.261l0,0c-0.361,0.345-0.892,0.727-1.598,0.906l0,0c-3.706,1.014-7.604,1.379-11.555,1.379l0,0&#10;&#9;&#9;l-0.153,0.002C67.097,209.784,63.2,209.419,59.5,208.407L59.5,208.407z" style="fill: rgb(30, 30, 30);"/>
    <path d="M91.199,182.966c-1.303,0.002-2.5-0.481-3.451-1.313l0,0l-9.714-9.459L78,172.155&#10;&#9;&#9;c-0.73-0.891-1.171-2.042-1.171-3.282l0,0v-0.152c0-1.241,0.44-2.391,1.171-3.282l0,0l0.033-0.041l9.756-9.493&#10;&#9;&#9;c0.909-0.796,2.107-1.28,3.41-1.28l0,0h16.37c0.866,0,1.658,0.35,2.261,0.942l0,0c0.344,0.362,0.727,0.893,0.903,1.597l0,0&#10;&#9;&#9;c1.015,3.708,1.383,7.604,1.383,11.557l0,0v0.152c0,3.953-0.368,7.848-1.378,11.545l0,0c-0.181,0.715-0.566,1.247-0.938,1.639l0,0&#10;&#9;&#9;c-0.574,0.565-1.369,0.911-2.23,0.911l0,0L91.199,182.966L91.199,182.966z M89.104,180.184c0.562,0.488,1.288,0.782,2.095,0.782&#10;&#9;&#9;l0,0l16.37,0.002c0.329-0.002,0.613-0.128,0.796-0.305l0,0c0.228-0.255,0.339-0.405,0.44-0.764l0,0&#10;&#9;&#9;c0.951-3.479,1.311-7.197,1.311-11.027l0,0v-0.152c0-3.83-0.36-7.548-1.313-11.038l0,0c-0.099-0.348-0.21-0.5-0.405-0.72l0,0&#10;&#9;&#9;c-0.216-0.209-0.504-0.337-0.829-0.337l0,0h-16.37c-0.805,0-1.531,0.294-2.056,0.749l0,0l-9.625,9.369&#10;&#9;&#9;c-0.433,0.545-0.687,1.225-0.688,1.978l0,0v0.152c0.002,0.752,0.255,1.434,0.688,1.977l0,0L89.104,180.184L89.104,180.184z" style="fill: rgb(30, 30, 30);"/>
    <path d="M34.683,182.966c-0.864,0.002-1.656-0.346-2.261-0.94l0,0c-0.342-0.36-0.727-0.893-0.903-1.597l0,0&#10;&#9;&#9;c-1.015-3.708-1.383-7.604-1.383-11.556l0,0v-0.152c0-3.953,0.368-7.848,1.378-11.546l0,0c0.181-0.716,0.566-1.247,0.94-1.64l0,0&#10;&#9;&#9;c0.57-0.562,1.364-0.91,2.229-0.91l0,0h16.37c1.303,0,2.5,0.483,3.449,1.315l0,0l9.713,9.456l0.037,0.043&#10;&#9;&#9;c0.73,0.891,1.171,2.04,1.169,3.282l0,0l0.002,0.152c0,1.241-0.44,2.391-1.171,3.282l0,0l-0.035,0.041l-9.754,9.492&#10;&#9;&#9;c-0.91,0.795-2.107,1.28-3.41,1.28l0,0L34.683,182.966L34.683,182.966z M33.884,156.931c-0.227,0.251-0.337,0.403-0.438,0.759l0,0&#10;&#9;&#9;c-0.951,3.482-1.311,7.2-1.311,11.03l0,0v0.152c0,3.83,0.358,7.547,1.313,11.038l0,0c0.097,0.346,0.209,0.5,0.405,0.72l0,0&#10;&#9;&#9;c0.216,0.21,0.502,0.336,0.829,0.336l0,0h16.37c0.805,0,1.531-0.294,2.054-0.747l0,0l9.618-9.36&#10;&#9;&#9;c0.437-0.545,0.695-1.231,0.697-1.986l0,0v-0.152c-0.002-0.75-0.258-1.433-0.691-1.98l0,0l-9.585-9.332&#10;&#9;&#9;c-0.562-0.49-1.288-0.784-2.093-0.784l0,0h-16.37C34.355,156.625,34.071,156.752,33.884,156.931L33.884,156.931z" style="fill: rgb(30, 30, 30);"/>
  </g>
  <path d="M 359.769 288.968 C 359.77 276.82 369.618 266.973 381.765 266.973 L 381.765 266.973 C 393.913 266.973 403.76 276.82 403.76 288.968 L 403.76 288.968 C 403.76 301.115 393.912 310.963 381.765 310.964 L 381.765 310.964 C 369.618 310.963 359.77 301.115 359.769 288.968 L 359.769 288.968 Z M 366.895 274.097 C 363.089 277.905 360.736 283.159 360.736 288.967 L 360.736 288.967 C 360.736 294.776 363.089 300.03 366.895 303.837 L 366.895 303.837 C 370.702 307.644 375.957 309.997 381.765 309.997 L 381.765 309.997 C 387.573 309.997 392.827 307.644 396.635 303.837 L 396.635 303.837 C 400.441 300.03 402.794 294.776 402.794 288.967 L 402.794 288.967 C 402.794 283.159 400.441 277.904 396.635 274.097 L 396.635 274.097 C 392.827 270.291 387.573 267.939 381.765 267.938 L 381.765 267.938 C 375.957 267.939 370.702 270.291 366.895 274.097 L 366.895 274.097 Z" style="fill: rgb(30, 30, 30);" transform="matrix(0.965926, -0.258819, 0.258819, 0.965926, -61.782176, 108.654132)"/>
  <g transform="matrix(0.466454, -0.124986, 0.124986, 0.466454, 327.490723, 219.121384)">
    <path d="M490.574,185.438l1.812-0.844c3.477,7.489,9.425,13.603,16.792,17.281l0,0h0.002l-0.896,1.79&#10;&#9;&#9;C500.51,199.781,494.239,193.338,490.574,185.438L490.574,185.438z" style="fill: rgb(30, 30, 30);"/>
    <path d="M540.75,202.306c7.43-3.46,13.503-9.361,17.18-16.671l0,0v0.003l1.785,0.896&#10;&#9;&#9;c-3.879,7.711-10.279,13.931-18.119,17.585l0,0L540.75,202.306L540.75,202.306z" style="fill: rgb(30, 30, 30);"/>
    <path d="M541.691,136.767h0.002l0.894-1.788c7.785,3.903,14.056,10.371,17.705,18.301l0,0l-1.818,0.835&#10;&#9;&#9;C555.018,146.602,549.067,140.464,541.691,136.767L541.691,136.767z" style="fill: rgb(30, 30, 30);"/>
    <path d="M491.033,152.227c3.895-7.824,10.377-14.125,18.332-17.792l0,0l0.835,1.816&#10;&#9;&#9;c-7.537,3.473-13.687,9.454-17.377,16.868l0,0L491.033,152.227L491.033,152.227z" style="fill: rgb(30, 30, 30);"/>
  </g>
  <path d="M 581.496 216.754 C 581.496 212.171 585.209 208.457 589.792 208.457 L 589.792 208.457 C 594.374 208.457 598.088 212.171 598.089 216.754 L 598.089 216.754 C 598.088 221.337 594.374 225.05 589.792 225.05 L 589.792 225.05 C 585.208 225.05 581.496 221.337 581.496 216.754 L 581.496 216.754 Z M 582.462 216.754 C 582.469 220.803 585.743 224.077 589.792 224.084 L 589.792 224.084 C 593.84 224.077 597.116 220.803 597.122 216.754 L 597.122 216.754 C 597.116 212.705 593.84 209.43 589.792 209.423 L 589.792 209.423 C 585.743 209.43 582.469 212.705 582.462 216.754 L 582.462 216.754 Z" style="fill: rgb(30, 30, 30);" transform="matrix(0.965926, -0.258819, 0.258819, 0.965926, -36.003223, 160.034994)"/>
  <path d="M 601.107 228.488 C 601.108 223.906 604.822 220.191 609.404 220.191 L 609.404 220.191 C 613.987 220.191 617.701 223.905 617.702 228.488 L 617.702 228.488 C 617.701 233.07 613.987 236.784 609.404 236.785 L 609.404 236.785 C 604.823 236.784 601.108 233.07 601.107 228.488 L 601.107 228.488 Z M 602.074 228.488 C 602.082 232.537 605.357 235.811 609.404 235.819 L 609.404 235.819 C 613.454 235.811 616.728 232.537 616.735 228.488 L 616.735 228.488 C 616.728 224.44 613.454 221.164 609.404 221.157 L 609.404 221.157 C 605.357 221.164 602.082 224.44 602.074 228.488 L 602.074 228.488 Z" style="fill: rgb(30, 30, 30);" transform="matrix(0.965926, -0.258819, 0.258819, 0.965926, -38.372106, 165.511183)"/>
  <path d="M 589.374 248.101 C 589.374 243.518 593.087 239.803 597.671 239.803 L 597.671 239.803 C 602.253 239.803 605.967 243.518 605.967 248.101 L 605.967 248.101 L 605.968 248.101 C 605.967 252.682 602.253 256.397 597.671 256.397 L 597.671 256.397 C 593.087 256.397 589.374 252.682 589.374 248.101 L 589.374 248.101 Z M 590.34 248.101 C 590.347 252.15 593.622 255.424 597.671 255.431 L 597.671 255.431 C 601.72 255.424 604.994 252.15 605.001 248.101 L 605.001 248.101 L 605.002 248.101 C 604.994 244.051 601.72 240.777 597.671 240.77 L 597.671 240.77 C 593.622 240.777 590.347 244.051 590.34 248.101 L 590.34 248.101 Z" style="fill: rgb(30, 30, 30);" transform="matrix(0.965926, -0.258819, 0.258819, 0.965926, -43.847827, 163.142206)"/>
  <path d="M 569.763 236.367 C 569.763 231.784 573.476 228.07 578.059 228.07 L 578.059 228.07 C 582.641 228.07 586.355 231.784 586.355 236.367 L 586.355 236.367 L 586.356 236.367 C 586.355 240.948 582.641 244.663 578.059 244.664 L 578.059 244.664 C 573.476 244.663 569.763 240.948 569.763 236.367 L 569.763 236.367 Z M 570.729 236.367 C 570.735 240.415 574.01 243.69 578.059 243.697 L 578.059 243.697 C 582.106 243.69 585.382 240.415 585.389 236.367 L 585.389 236.367 C 585.382 232.318 582.106 229.043 578.059 229.036 L 578.059 229.036 C 574.009 229.043 570.734 232.318 570.729 236.367 L 570.729 236.367 Z" style="fill: rgb(30, 30, 30);" transform="matrix(0.965926, -0.258819, 0.258819, 0.965926, -41.479403, 157.666944)"/>
  <path d="M 444.985 335.733 L 444.985 335.25 L 444.985 334.766 L 447.484 334.766 C 449.019 334.764 450.262 333.522 450.265 331.985 L 450.265 331.985 C 450.262 330.449 449.019 329.207 447.484 329.205 L 447.484 329.205 L 444.985 329.205 C 443.45 329.207 442.208 330.449 442.204 331.985 L 442.204 331.985 C 442.207 333.521 443.451 334.764 444.985 334.766 L 444.985 334.766 L 444.985 335.25 L 444.985 335.733 C 442.916 335.732 441.239 334.055 441.238 331.985 L 441.238 331.985 C 441.239 329.915 442.917 328.239 444.985 328.239 L 444.985 328.239 L 447.484 328.239 C 449.554 328.239 451.23 329.915 451.231 331.985 L 451.231 331.985 C 451.23 334.054 449.554 335.732 447.484 335.733 L 447.484 335.733 L 444.985 335.733 L 444.985 335.733 Z" style="fill: rgb(30, 30, 30);" transform="matrix(0.965926, -0.258819, 0.258819, 0.965926, -70.71931, 126.806326)"/>
  <path d="M 462.541 331.029 L 462.541 330.545 L 462.541 330.062 L 465.039 330.062 C 466.574 330.06 467.818 328.818 467.82 327.281 L 467.82 327.281 C 467.818 325.745 466.574 324.503 465.039 324.501 L 465.039 324.501 L 462.541 324.501 C 461.005 324.503 459.763 325.745 459.759 327.281 L 459.759 327.281 C 459.762 328.818 461.005 330.06 462.541 330.062 L 462.541 330.062 L 462.541 330.545 L 462.541 331.029 C 460.471 331.028 458.794 329.35 458.794 327.281 L 458.794 327.281 C 458.794 325.211 460.472 323.535 462.541 323.535 L 462.541 323.535 L 465.039 323.535 C 467.109 323.535 468.786 325.211 468.786 327.281 L 468.786 327.281 C 468.786 329.35 467.108 331.028 465.039 331.029 L 465.039 331.029 L 462.541 331.029 L 462.541 331.029 Z" style="fill: rgb(30, 30, 30);" transform="matrix(0.965926, -0.258819, 0.258819, 0.965926, -68.903511, 131.189429)"/>
  <path d="M 542.076 309.717 L 542.076 309.234 L 542.076 308.751 L 544.575 308.751 C 546.109 308.749 547.352 307.506 547.355 305.97 L 547.355 305.97 C 547.352 304.434 546.111 303.192 544.575 303.19 L 544.575 303.19 L 542.076 303.19 C 540.54 303.192 539.297 304.434 539.295 305.97 L 539.295 305.97 C 539.297 307.505 540.541 308.749 542.076 308.751 L 542.076 308.751 L 542.076 309.234 L 542.076 309.717 C 540.007 309.717 538.329 308.04 538.329 305.97 L 538.329 305.97 C 538.329 303.9 540.008 302.223 542.076 302.223 L 542.076 302.223 L 544.575 302.223 C 546.643 302.223 548.321 303.9 548.322 305.97 L 548.322 305.97 C 548.321 308.039 546.644 309.717 544.575 309.717 L 544.575 309.717 L 542.076 309.717 L 542.076 309.717 Z" style="fill: rgb(30, 30, 30);" transform="matrix(0.965926, -0.258819, 0.258819, 0.965926, -60.677435, 151.048435)"/>
  <path d="M 530.612 312.789 L 530.612 312.306 L 530.612 311.823 L 533.11 311.823 C 534.646 311.82 535.889 310.577 535.891 309.041 L 535.891 309.041 C 535.889 307.506 534.646 306.263 533.11 306.261 L 533.11 306.261 L 530.612 306.261 C 529.075 306.263 527.833 307.506 527.83 309.041 L 527.83 309.041 C 527.833 310.578 529.075 311.82 530.612 311.823 L 530.612 311.823 L 530.612 312.306 L 530.612 312.789 C 528.542 312.788 526.864 311.111 526.864 309.041 L 526.864 309.041 C 526.864 306.972 528.542 305.295 530.612 305.295 L 530.612 305.295 L 533.11 305.295 C 535.178 305.295 536.857 306.972 536.857 309.041 L 536.857 309.041 C 536.857 311.112 535.178 312.788 533.11 312.789 L 533.11 312.789 L 530.612 312.789 L 530.612 312.789 Z" style="fill: rgb(30, 30, 30);" transform="matrix(0.965926, -0.25882, 0.25882, 0.965926, -61.863375, 148.186437)"/>
  <circle cx="560.803" cy="255.362" r="3.149" style="fill: rgb(30, 30, 30);" transform="matrix(0.466454, -0.124986, 0.124987, 0.466456, 327.49057, 219.120789)"/>
  <circle cx="34.889" cy="255.408" r="3.149" style="fill: rgb(30, 30, 30);" transform="matrix(0.466453, -0.124986, 0.124986, 0.466452, 327.490906, 219.121933)"/>
  <circle cx="570.738" cy="229.094" r="3.149" style="fill: rgb(30, 30, 30);" transform="matrix(0.466454, -0.124986, 0.124987, 0.466456, 327.49057, 219.12085)"/>
  <path d="M 399.062 325.476 C 397.378 325.472 395.961 324.863 395.118 324.018 L 395.118 324.018 C 394.069 322.955 392.807 321.46 391.725 320.15 L 391.725 320.15 C 390.652 318.85 389.72 317.702 389.465 317.469 L 389.465 317.469 C 388.035 316.125 386.144 315.276 384.042 315.276 L 384.042 315.276 C 384.042 315.276 370.375 315.313 366.016 315.313 L 366.016 315.313 C 365.426 315.313 364.829 315.103 364.43 314.624 L 364.43 314.624 C 355.49 303.756 349.726 283.124 349.712 269.444 L 349.712 269.444 L 349.712 265.499 C 349.726 251.819 355.49 231.187 364.43 220.319 L 364.43 220.319 C 364.828 219.841 365.426 219.63 366.016 219.629 L 366.016 219.629 C 370.375 219.629 384.042 219.668 384.041 219.668 L 384.041 219.668 C 386.144 219.667 388.035 218.818 389.465 217.474 L 389.465 217.474 C 389.72 217.24 390.652 216.092 391.725 214.793 L 391.725 214.793 C 392.807 213.484 394.069 211.987 395.118 210.924 L 395.118 210.924 C 395.961 210.079 397.378 209.47 399.062 209.466 L 399.062 209.466 L 579.86 209.466 C 581.544 209.47 582.962 210.078 583.805 210.924 L 583.805 210.924 C 584.855 211.987 586.115 213.483 587.197 214.793 L 587.197 214.793 C 588.27 216.092 589.202 217.24 589.457 217.474 L 589.457 217.474 C 590.886 218.818 592.778 219.667 594.881 219.668 L 594.881 219.668 C 594.881 219.668 608.549 219.629 612.908 219.629 L 612.908 219.629 C 613.496 219.63 614.094 219.841 614.491 220.319 L 614.491 220.319 C 623.433 231.187 629.196 251.819 629.21 265.499 L 629.21 265.499 L 629.21 269.444 C 629.196 283.124 623.432 303.756 614.491 314.624 L 614.491 314.624 C 614.094 315.103 613.496 315.313 612.908 315.313 L 612.908 315.313 C 608.548 315.313 594.881 315.276 594.882 315.276 L 594.882 315.276 C 592.778 315.276 590.886 316.125 589.457 317.469 L 589.457 317.469 C 589.202 317.702 588.27 318.849 587.197 320.15 L 587.197 320.15 C 586.115 321.46 584.855 322.955 583.804 324.018 L 583.804 324.018 C 582.962 324.863 581.544 325.472 579.86 325.476 L 579.86 325.476 L 399.062 325.476 L 399.062 325.476 Z M 579.86 324.51 C 581.304 324.513 582.505 323.964 583.118 323.339 L 583.118 323.339 C 584.123 322.322 585.377 320.837 586.453 319.535 L 586.453 319.535 C 587.54 318.223 588.412 317.131 588.795 316.765 L 588.795 316.765 C 590.385 315.27 592.514 314.31 594.884 314.31 L 594.884 314.31 C 594.901 314.31 608.551 314.348 612.908 314.348 L 612.908 314.348 C 613.271 314.348 613.584 314.213 613.746 314.01 L 613.746 314.01 C 622.474 303.454 628.258 282.865 628.244 269.445 L 628.244 269.445 L 628.244 265.5 C 628.258 252.079 622.474 231.491 613.746 220.934 L 613.746 220.934 C 613.584 220.732 613.271 220.595 612.908 220.596 L 612.908 220.596 C 608.552 220.596 594.901 220.634 594.882 220.634 L 594.882 220.634 C 592.514 220.635 590.385 219.675 588.795 218.18 L 588.795 218.18 C 588.412 217.813 587.54 216.721 586.453 215.41 L 586.453 215.41 C 585.377 214.108 584.123 212.622 583.118 211.605 L 583.118 211.605 C 582.504 210.979 581.304 210.431 579.86 210.434 L 579.86 210.434 L 399.062 210.434 C 397.618 210.431 396.418 210.979 395.806 211.605 L 395.806 211.605 C 394.8 212.622 393.546 214.108 392.47 215.41 L 392.47 215.41 C 391.383 216.721 390.511 217.814 390.128 218.18 L 390.128 218.18 C 388.538 219.675 386.408 220.635 384.04 220.634 L 384.04 220.634 C 384.022 220.634 370.372 220.596 366.016 220.596 L 366.016 220.596 C 365.653 220.595 365.339 220.732 365.176 220.934 L 365.176 220.934 C 356.449 231.491 350.665 252.079 350.679 265.5 L 350.679 265.5 L 350.679 269.445 C 350.665 282.865 356.449 303.454 365.176 314.01 L 365.176 314.01 C 365.338 314.213 365.651 314.348 366.016 314.347 L 366.016 314.347 C 370.372 314.348 384.022 314.31 384.041 314.31 L 384.041 314.31 C 386.409 314.31 388.538 315.27 390.128 316.765 L 390.128 316.765 C 390.511 317.132 391.382 318.224 392.47 319.535 L 392.47 319.535 C 393.546 320.837 394.8 322.322 395.806 323.339 L 395.806 323.339 C 396.417 323.964 397.618 324.513 399.062 324.51 L 399.062 324.51 L 579.86 324.51 L 579.86 324.51 Z" style="fill: rgb(30, 30, 30);" transform="matrix(0.965926, -0.258819, 0.258819, 0.965926, -52.548641, 135.795794)"/>
  <path d="M 422.563 341.822 L 422.563 341.821 L 422.563 341.339 L 422.563 340.856 L 430.945 340.856 C 432.992 340.852 434.649 339.195 434.654 337.147 L 434.654 337.147 C 434.65 335.099 432.993 333.442 430.945 333.439 L 430.945 333.439 L 422.563 333.438 C 420.515 333.442 418.858 335.099 418.855 337.147 L 418.855 337.147 C 418.858 339.195 420.515 340.852 422.563 340.856 L 422.563 340.856 L 422.563 341.339 L 422.563 341.821 C 419.982 341.821 417.889 339.729 417.889 337.147 L 417.889 337.147 C 417.889 334.566 419.982 332.473 422.563 332.473 L 422.563 332.473 L 430.945 332.473 C 433.527 332.473 435.619 334.566 435.62 337.147 L 435.62 337.147 C 435.619 339.729 433.527 341.821 430.945 341.822 L 430.945 341.822 L 422.563 341.822 L 422.563 341.822 Z" style="fill: rgb(30, 30, 30);" transform="matrix(0.965926, -0.258819, 0.258819, 0.965926, -72.71893, 121.94032)"/>
  <path d="M 574.181 301.196 L 574.181 300.714 L 574.181 300.231 L 582.564 300.231 C 584.611 300.226 586.269 298.57 586.273 296.522 L 586.273 296.522 C 586.269 294.474 584.612 292.817 582.564 292.813 L 582.564 292.813 L 574.181 292.813 C 572.135 292.817 570.477 294.474 570.474 296.522 L 570.474 296.522 C 570.477 298.569 572.134 300.226 574.181 300.231 L 574.181 300.231 L 574.181 300.714 L 574.181 301.196 C 571.6 301.196 569.508 299.103 569.508 296.522 L 569.508 296.522 C 569.508 293.94 571.6 291.847 574.181 291.847 L 574.181 291.847 L 582.564 291.847 C 585.145 291.847 587.238 293.939 587.239 296.522 L 587.239 296.522 C 587.238 299.103 585.145 301.196 582.564 301.196 L 582.564 301.196 L 574.181 301.196 L 574.181 301.196 Z" style="fill: rgb(30, 30, 30);" transform="matrix(0.965926, -0.258819, 0.258819, 0.965926, -57.037754, 159.797576)"/>
  <path d="M 556.269 305.996 L 556.269 305.512 L 556.269 305.029 L 564.651 305.03 C 566.698 305.026 568.355 303.369 568.359 301.321 L 568.359 301.321 C 568.355 299.274 566.698 297.616 564.651 297.613 L 564.651 297.613 L 556.269 297.613 C 554.22 297.616 552.564 299.274 552.56 301.321 L 552.56 301.321 C 552.564 303.369 554.22 305.026 556.269 305.029 L 556.269 305.029 L 556.269 305.512 L 556.269 305.996 C 553.687 305.996 551.594 303.903 551.594 301.321 L 551.594 301.321 C 551.594 298.739 553.687 296.647 556.269 296.647 L 556.269 296.647 L 564.651 296.647 C 567.232 296.647 569.324 298.739 569.325 301.321 L 569.325 301.321 C 569.324 303.903 567.232 305.996 564.651 305.996 L 564.651 305.996 L 556.269 305.996 L 556.269 305.996 Z" style="fill: rgb(30, 30, 30);" transform="matrix(0.965926, -0.258819, 0.258819, 0.965926, -58.890492, 155.324641)"/>
</svg>