<?xml version="1.0" encoding="utf-8"?>
<svg version="1.2" baseProfile="tiny" id="Layer_2" x="0px" y="0px" viewBox="0 0 1280 720" preserveAspectRatio="none" xmlns="http://www.w3.org/2000/svg">
  <path d="M 373.815 336.282" style="fill: rgb(30, 30, 30);" transform="matrix(0.965926, -0.258819, 0.258819, 0.965926, -74.298737, 108.208947)"/>
  <path d="M 370.395 324.702 C 371.259 323.322 374.474 318.024 376.254 315.504 L 376.254 315.504 C 380.864 308.576 388.75 304.01 397.696 304.01 L 397.696 304.01 L 435.101 304.01 L 435.101 305.946 L 397.696 305.946 C 389.419 305.944 382.135 310.166 377.85 316.597 L 377.85 316.597 C 376.132 319.029 372.907 324.334 372.036 325.727 L 372.036 325.727 L 372.036 325.729 L 370.395 324.702 L 370.395 324.702 Z" style="fill: rgb(30, 30, 30);" transform="matrix(0.965926, -0.258819, 0.258819, 0.965926, -67.770951, 114.967838)"/>
  <path d="M 452.91 528.348 C 443.964 528.348 436.08 523.784 431.486 516.878 L 431.486 516.878 C 429.688 514.337 426.473 509.038 425.611 507.658 L 425.611 507.658 L 427.251 506.631 C 428.122 508.025 431.345 513.331 433.078 515.783 L 433.078 515.783 C 437.347 522.193 444.632 526.415 452.909 526.413 L 452.909 526.413 L 490.316 526.415 L 490.316 528.35 L 452.91 528.348 L 452.91 528.348 Z" style="fill: rgb(30, 30, 30);" transform="matrix(0.965926, -0.258819, 0.258819, 0.965926, -118.331587, 136.162612)"/>
  <path d="M 373.216 337.879" style="fill: rgb(30, 30, 30);" transform="matrix(0.965926, -0.258819, 0.258819, 0.965926, -74.732478, 108.108329)"/>
  <path d="M 421.572 514.513" style="fill: rgb(30, 30, 30);" transform="matrix(0.965926, -0.258819, 0.258819, 0.965926, -118.800992, 126.642388)"/>
  <path d="M 420.255 513.432" style="fill: rgb(30, 30, 30);" transform="matrix(0.965926, -0.258819, 0.258819, 0.965926, -118.566087, 126.264698)"/>
  <path d="M 858.205 206.491" style="fill: rgb(30, 30, 30);" transform="matrix(0.965926, -0.258819, 0.258819, 0.965926, -24.201175, 229.155755)"/>
  <path d="M 847.323 204.119 C 843.056 197.71 835.772 193.488 827.492 193.488 L 827.492 193.488 L 790.088 193.488 L 790.088 191.553 L 827.492 191.553 C 836.441 191.553 844.326 196.12 848.92 203.024 L 848.92 203.024 C 850.716 205.566 853.932 210.865 854.795 212.243 L 854.795 212.243 L 854.795 212.245 L 853.156 213.271 C 852.282 211.877 849.059 206.572 847.323 204.119 L 847.323 204.119 Z" style="fill: rgb(30, 30, 30);" transform="matrix(0.965926, -0.258819, 0.258819, 0.965926, -24.364057, 219.760739)"/>
  <path d="M 859.521 207.574" style="fill: rgb(30, 30, 30);" transform="matrix(0.965926, -0.258819, 0.258819, 0.965926, -24.436645, 229.533126)"/>
  <path d="M 905.962 384.721" style="fill: rgb(30, 30, 30);" transform="matrix(0.965926, -0.258819, 0.258819, 0.965926, -68.703226, 247.589325)"/>
  <path d="M 906.56 383.127" style="fill: rgb(30, 30, 30);" transform="matrix(0.965926, -0.258819, 0.258819, 0.965926, -68.270273, 247.689671)"/>
  <path d="M 478.071 446.742 C 476.389 446.742 475.022 445.379 475.022 443.694 L 475.022 443.694 L 475.022 262.071 C 475.022 260.387 476.387 259.023 478.071 259.023 L 478.071 259.023 L 797.623 259.023 C 799.307 259.023 800.669 260.387 800.671 262.071 L 800.671 262.071 L 800.671 443.693 L 800.669 443.693 C 800.669 445.378 799.305 446.741 797.623 446.741 L 797.623 446.741 L 478.071 446.741 L 478.071 446.742 Z M 476.957 262.071 L 476.957 443.693 C 476.959 444.309 477.454 444.805 478.071 444.805 L 478.071 444.805 L 797.623 444.807 C 798.238 444.805 798.733 444.308 798.735 443.693 L 798.735 443.693 L 798.735 262.071 C 798.733 261.456 798.234 260.96 797.623 260.958 L 797.623 260.958 L 478.071 260.958 C 477.456 260.96 476.959 261.456 476.957 262.071 L 476.957 262.071 Z" style="fill: rgb(30, 30, 30);" transform="matrix(0.965926, -0.258819, 0.258819, 0.965926, -69.598581, 177.110854)"/>
  <path d="M 441.231 350.208 C 439.036 350.208 437.255 348.428 437.255 346.232 C 437.255 344.036 439.036 342.257 441.231 342.257 L 447.77 342.257 C 449.966 342.257 451.745 344.036 451.745 346.232 C 451.745 348.428 449.966 350.208 447.77 350.208 L 441.231 350.208 Z" style="fill: rgb(30, 30, 30);" transform="matrix(0.965926, -0.258819, 0.258819, 0.965926, -74.46564, 126.842768)"/>
  <path d="M 799.149 254.304 C 796.952 254.304 795.173 252.524 795.173 250.328 C 795.173 248.132 796.953 246.353 799.149 246.353 L 805.688 246.353 C 807.885 246.353 809.664 248.132 809.664 250.328 C 809.664 252.524 807.884 254.304 805.688 254.304 L 799.149 254.304 Z" style="fill: rgb(30, 30, 30);" transform="matrix(0.965926, -0.258819, 0.258819, 0.965926, -37.448035, 216.210972)"/>
  <path d="M 614.571 473.926 C 613.559 473.926 612.739 473.105 612.739 472.095 C 612.739 471.08 613.559 470.26 614.571 470.26 L 618.882 470.26 C 619.894 470.26 620.715 471.081 620.715 472.095 C 620.715 473.105 619.895 473.926 618.882 473.926 L 614.571 473.926 Z" style="fill: rgb(30, 30, 30);" transform="matrix(0.965926, -0.258819, 0.258819, 0.965926, -101.172186, 175.706845)"/>
  <path d="M 426.447 474.589 C 426.449 463.198 435.682 453.965 447.071 453.963 L 447.071 453.963 C 458.462 453.965 467.694 463.198 467.696 474.589 L 467.696 474.589 C 467.694 485.978 458.462 495.213 447.071 495.216 L 447.071 495.216 C 435.682 495.213 426.449 485.978 426.447 474.589 L 426.447 474.589 Z M 428.384 474.589 C 428.402 484.91 436.752 493.26 447.071 493.278 L 447.071 493.278 C 457.392 493.259 465.742 484.91 465.76 474.589 L 465.76 474.589 C 465.742 464.267 457.392 455.917 447.071 455.9 L 447.071 455.9 C 436.752 455.917 428.402 464.267 428.384 474.589 L 428.384 474.589 Z" style="fill: rgb(30, 30, 30);" transform="matrix(0.965926, -0.258819, 0.258819, 0.965926, -107.59936, 131.882108)"/>
  <path d="M 398.629 469.269 C 398.629 470.95 397.265 472.313 395.583 472.313 C 393.9 472.313 392.536 470.95 392.536 469.269 C 392.536 467.584 393.9 466.221 395.583 466.221 C 397.265 466.221 398.629 467.583 398.629 469.269 Z" style="fill: rgb(30, 30, 30);" transform="matrix(0.965926, -0.258819, 0.258819, 0.965926, -107.976035, 118.374101)"/>
  <path d="M 386.234 413.071" style="fill: rgb(30, 30, 30);" transform="matrix(0.965926, -0.258819, 0.258819, 0.965926, -93.750002, 114.039702)"/>
  <path d="M 461.462 392.914" style="fill: rgb(30, 30, 30);" transform="matrix(0.965926, -0.258819, 0.258819, 0.965926, -85.969731, 132.823456)"/>
  <path d="M 408.573 385.517" style="fill: rgb(30, 30, 30);" transform="matrix(0.965926, -0.258819, 0.258819, 0.965926, -85.857411, 118.882756)"/>
  <g transform="matrix(0.934584, -0.250421, 0.250421, 0.934584, 315.477081, 263.127625)">
    <path d="M71.049,163.092c-1.24,0-2.392-0.439-3.282-1.172l0,0l-0.043-0.035l-9.49-9.753&#10;&#9;&#9;c-0.796-0.907-1.281-2.106-1.281-3.41l0,0v-16.369c0-0.866,0.351-1.659,0.942-2.258l0,0c0.361-0.345,0.893-0.731,1.599-0.908l0,0&#10;&#9;&#9;c3.708-1.014,7.604-1.381,11.555-1.381l0,0h0.152c3.954,0,7.85,0.368,11.547,1.377l0,0c0.714,0.181,1.248,0.566,1.638,0.94l0,0&#10;&#9;&#9;c0.563,0.571,0.911,1.365,0.911,2.229l0,0v16.369c0,1.302-0.482,2.502-1.315,3.451l0,0l-9.451,9.708l-0.045,0.039&#10;&#9;&#9;c-0.893,0.731-2.042,1.172-3.284,1.172l0,0v-1v-1c0.757-0.002,1.44-0.26,1.988-0.698l0,0l9.323-9.578&#10;&#9;&#9;c0.491-0.561,0.784-1.287,0.784-2.094l0,0v-16.369c0-0.329-0.125-0.612-0.306-0.796l0,0c-0.252-0.228-0.404-0.341-0.759-0.439l0,0&#10;&#9;&#9;c-3.479-0.953-7.201-1.312-11.03-1.312l0,0h-0.152c-3.829,0-7.548,0.359-11.038,1.313l0,0c-0.347,0.097-0.499,0.208-0.718,0.407&#10;&#9;&#9;l0,0c-0.211,0.217-0.339,0.501-0.339,0.827l0,0v16.369c0,0.805,0.296,1.534,0.75,2.055l0,0l9.369,9.626&#10;&#9;&#9;c0.544,0.432,1.227,0.689,1.977,0.689l0,0h0.152v1v1H71.049L71.049,163.092z" style="fill: rgb(30, 30, 30);"/>
    <path d="M59.5,208.407c-0.712-0.182-1.243-0.565-1.639-0.941l0,0c-0.558-0.569-0.908-1.362-0.908-2.228l0,0v-16.369&#10;&#9;&#9;c0-1.303,0.485-2.502,1.317-3.45l0,0l9.451-9.709l0.048-0.039c0.89-0.729,2.04-1.17,3.28-1.17l0,0v1.001v1&#10;&#9;&#9;c-0.751,0-1.433,0.256-1.978,0.688l0,0l-9.331,9.586c-0.492,0.562-0.787,1.288-0.787,2.094l0,0v16.369&#10;&#9;&#9;c0,0.326,0.128,0.611,0.305,0.797l0,0c0.252,0.228,0.407,0.341,0.762,0.442l0,0c3.48,0.949,7.199,1.309,11.028,1.309l0,0h0.153&#10;&#9;&#9;c3.828,0,7.548-0.359,11.037-1.312l0,0c0.347-0.099,0.502-0.212,0.719-0.406l0,0c0.212-0.219,0.338-0.504,0.34-0.83l0,0v-16.369&#10;&#9;&#9;c-0.002-0.806-0.295-1.532-0.75-2.053l0,0l-9.369-9.628c-0.543-0.432-1.229-0.688-1.977-0.688l0,0h-0.153v-1v-0.999l0.153-0.002&#10;&#9;&#9;c1.241,0,2.391,0.442,3.283,1.17l0,0l0.043,0.035l9.489,9.752c0.797,0.909,1.282,2.108,1.282,3.411l0,0l-0.002,16.369&#10;&#9;&#9;c0.002,0.865-0.349,1.658-0.941,2.261l0,0c-0.361,0.345-0.892,0.727-1.598,0.906l0,0c-3.706,1.014-7.604,1.379-11.555,1.379l0,0&#10;&#9;&#9;l-0.153,0.002C67.097,209.784,63.2,209.419,59.5,208.407L59.5,208.407z" style="fill: rgb(30, 30, 30);"/>
    <path d="M91.199,182.966c-1.303,0.002-2.5-0.481-3.451-1.313l0,0l-9.714-9.459L78,172.155&#10;&#9;&#9;c-0.73-0.891-1.171-2.042-1.171-3.282l0,0v-0.152c0-1.241,0.44-2.391,1.171-3.282l0,0l0.033-0.041l9.756-9.493&#10;&#9;&#9;c0.909-0.796,2.107-1.28,3.41-1.28l0,0h16.37c0.866,0,1.658,0.35,2.261,0.942l0,0c0.344,0.362,0.727,0.893,0.903,1.597l0,0&#10;&#9;&#9;c1.015,3.708,1.383,7.604,1.383,11.557l0,0v0.152c0,3.953-0.368,7.848-1.378,11.545l0,0c-0.181,0.715-0.566,1.247-0.938,1.639l0,0&#10;&#9;&#9;c-0.574,0.565-1.369,0.911-2.23,0.911l0,0L91.199,182.966L91.199,182.966z M89.104,180.184c0.562,0.488,1.288,0.782,2.095,0.782&#10;&#9;&#9;l0,0l16.37,0.002c0.329-0.002,0.613-0.128,0.796-0.305l0,0c0.228-0.255,0.339-0.405,0.44-0.764l0,0&#10;&#9;&#9;c0.951-3.479,1.311-7.197,1.311-11.027l0,0v-0.152c0-3.83-0.36-7.548-1.313-11.038l0,0c-0.099-0.348-0.21-0.5-0.405-0.72l0,0&#10;&#9;&#9;c-0.216-0.209-0.504-0.337-0.829-0.337l0,0h-16.37c-0.805,0-1.531,0.294-2.056,0.749l0,0l-9.625,9.369&#10;&#9;&#9;c-0.433,0.545-0.687,1.225-0.688,1.978l0,0v0.152c0.002,0.752,0.255,1.434,0.688,1.977l0,0L89.104,180.184L89.104,180.184z" style="fill: rgb(30, 30, 30);"/>
    <path d="M34.683,182.966c-0.864,0.002-1.656-0.346-2.261-0.94l0,0c-0.342-0.36-0.727-0.893-0.903-1.597l0,0&#10;&#9;&#9;c-1.015-3.708-1.383-7.604-1.383-11.556l0,0v-0.152c0-3.953,0.368-7.848,1.378-11.546l0,0c0.181-0.716,0.566-1.247,0.94-1.64l0,0&#10;&#9;&#9;c0.57-0.562,1.364-0.91,2.229-0.91l0,0h16.37c1.303,0,2.5,0.483,3.449,1.315l0,0l9.713,9.456l0.037,0.043&#10;&#9;&#9;c0.73,0.891,1.171,2.04,1.169,3.282l0,0l0.002,0.152c0,1.241-0.44,2.391-1.171,3.282l0,0l-0.035,0.041l-9.754,9.492&#10;&#9;&#9;c-0.91,0.795-2.107,1.28-3.41,1.28l0,0L34.683,182.966L34.683,182.966z M33.884,156.931c-0.227,0.251-0.337,0.403-0.438,0.759l0,0&#10;&#9;&#9;c-0.951,3.482-1.311,7.2-1.311,11.03l0,0v0.152c0,3.83,0.358,7.547,1.313,11.038l0,0c0.097,0.346,0.209,0.5,0.405,0.72l0,0&#10;&#9;&#9;c0.216,0.21,0.502,0.336,0.829,0.336l0,0h16.37c0.805,0,1.531-0.294,2.054-0.747l0,0l9.618-9.36&#10;&#9;&#9;c0.437-0.545,0.695-1.231,0.697-1.986l0,0v-0.152c-0.002-0.75-0.258-1.433-0.691-1.98l0,0l-9.585-9.332&#10;&#9;&#9;c-0.562-0.49-1.288-0.784-2.093-0.784l0,0h-16.37C34.355,156.625,34.071,156.752,33.884,156.931L33.884,156.931z" style="fill: rgb(30, 30, 30);"/>
  </g>
  <path d="M 380.15 403.071 C 380.152 378.733 399.882 359.002 424.221 359.002 L 424.221 359.002 C 448.56 359.002 468.29 378.733 468.29 403.071 L 468.29 403.071 C 468.29 427.41 448.559 447.14 424.221 447.142 L 424.221 447.142 C 399.882 447.14 380.152 427.41 380.15 403.071 L 380.15 403.071 Z M 394.427 373.277 C 386.801 380.905 382.086 391.433 382.086 403.07 L 382.086 403.07 C 382.086 414.708 386.801 425.235 394.427 432.863 L 394.427 432.863 C 402.054 440.49 412.583 445.205 424.22 445.205 L 424.22 445.205 C 435.857 445.205 446.384 440.49 454.013 432.863 L 454.013 432.863 C 461.64 425.235 466.354 414.708 466.354 403.07 L 466.354 403.07 C 466.354 391.433 461.639 380.904 454.013 373.277 L 454.013 373.277 C 446.384 365.651 435.857 360.938 424.22 360.936 L 424.22 360.936 C 412.583 360.938 402.054 365.651 394.427 373.277 L 394.427 373.277 Z" style="fill: rgb(30, 30, 30);" transform="matrix(0.965926, -0.258819, 0.258819, 0.965926, -89.867728, 123.530493)"/>
  <g transform="matrix(0.934584, -0.250421, 0.250421, 0.934584, 315.477081, 263.127625)">
    <path d="M490.574,185.438l1.812-0.844c3.477,7.489,9.425,13.603,16.792,17.281l0,0h0.002l-0.896,1.79&#10;&#9;&#9;C500.51,199.781,494.239,193.338,490.574,185.438L490.574,185.438z" style="fill: rgb(30, 30, 30);"/>
    <path d="M540.75,202.306c7.43-3.46,13.503-9.361,17.18-16.671l0,0v0.003l1.785,0.896&#10;&#9;&#9;c-3.879,7.711-10.279,13.931-18.119,17.585l0,0L540.75,202.306L540.75,202.306z" style="fill: rgb(30, 30, 30);"/>
    <path d="M541.691,136.767h0.002l0.894-1.788c7.785,3.903,14.056,10.371,17.705,18.301l0,0l-1.818,0.835&#10;&#9;&#9;C555.018,146.602,549.067,140.464,541.691,136.767L541.691,136.767z" style="fill: rgb(30, 30, 30);"/>
    <path d="M491.033,152.227c3.895-7.824,10.377-14.125,18.332-17.792l0,0l0.835,1.816&#10;&#9;&#9;c-7.537,3.473-13.687,9.454-17.377,16.868l0,0L491.033,152.227L491.033,152.227z" style="fill: rgb(30, 30, 30);"/>
  </g>
  <path d="M 824.399 258.384 C 824.399 249.201 831.84 241.76 841.022 241.76 L 841.022 241.76 C 850.202 241.76 857.644 249.201 857.646 258.384 L 857.646 258.384 C 857.644 267.566 850.203 275.007 841.022 275.007 L 841.022 275.007 C 831.838 275.007 824.399 267.566 824.399 258.384 L 824.399 258.384 Z M 826.335 258.384 C 826.35 266.496 832.91 273.057 841.022 273.071 L 841.022 273.071 C 849.133 273.056 855.696 266.496 855.709 258.384 L 855.709 258.384 C 855.696 250.272 849.133 243.71 841.022 243.696 L 841.022 243.696 C 832.91 243.711 826.35 250.272 826.335 258.384 L 826.335 258.384 Z" style="fill: rgb(30, 30, 30);" transform="matrix(0.965926, -0.258819, 0.258819, 0.965926, -38.217416, 226.476775)"/>
  <path d="M 863.693 281.895 C 863.695 272.714 871.136 265.271 880.317 265.271 L 880.317 265.271 C 889.498 265.271 896.94 272.713 896.942 281.895 L 896.942 281.895 C 896.94 291.074 889.499 298.516 880.317 298.518 L 880.317 298.518 C 871.137 298.516 863.695 291.074 863.693 281.895 L 863.693 281.895 Z M 865.63 281.895 C 865.645 290.007 872.207 296.567 880.317 296.583 L 880.317 296.583 C 888.43 296.567 894.991 290.007 895.005 281.895 L 895.005 281.895 C 894.991 273.783 888.43 267.221 880.317 267.206 L 880.317 267.206 C 872.207 267.221 865.645 273.783 865.63 281.895 L 865.63 281.895 Z" style="fill: rgb(30, 30, 30);" transform="matrix(0.965926, -0.258819, 0.258819, 0.965926, -42.963573, 237.448198)"/>
  <path d="M 840.185 321.191 C 840.185 312.009 847.624 304.565 856.807 304.565 L 856.807 304.565 C 865.988 304.565 873.43 312.008 873.43 321.191 L 873.43 321.191 L 873.432 321.191 C 873.43 330.37 865.989 337.813 856.807 337.813 L 856.807 337.813 C 847.624 337.813 840.185 330.37 840.185 321.191 L 840.185 321.191 Z M 842.12 321.191 C 842.134 329.303 848.696 335.863 856.807 335.877 L 856.807 335.877 C 864.92 335.863 871.481 329.303 871.494 321.191 L 871.494 321.191 L 871.497 321.191 C 871.481 313.076 864.92 306.516 856.807 306.502 L 856.807 306.502 C 848.696 306.516 842.134 313.076 842.12 321.191 L 842.12 321.191 Z" style="fill: rgb(30, 30, 30);" transform="matrix(0.965926, -0.258819, 0.258819, 0.965926, -53.934768, 232.702403)"/>
  <path d="M 800.891 297.68 C 800.891 288.499 808.331 281.057 817.514 281.057 L 817.514 281.057 C 826.694 281.057 834.135 288.499 834.135 297.68 L 834.135 297.68 L 834.137 297.68 C 834.135 306.86 826.695 314.302 817.514 314.304 L 817.514 314.304 C 808.331 314.302 800.891 306.859 800.891 297.68 L 800.891 297.68 Z M 802.827 297.68 C 802.839 305.791 809.402 312.354 817.514 312.368 L 817.514 312.368 C 825.623 312.353 832.186 305.791 832.2 297.68 L 832.2 297.68 C 832.186 289.569 825.623 283.007 817.514 282.993 L 817.514 282.993 C 809.399 283.007 802.838 289.568 802.827 297.68 L 802.827 297.68 Z" style="fill: rgb(30, 30, 30);" transform="matrix(0.965926, -0.258819, 0.258819, 0.965926, -49.189255, 221.731359)"/>
  <path d="M 550.888 496.769 L 550.888 495.801 L 550.888 494.833 L 555.895 494.833 C 558.971 494.828 561.46 492.339 561.466 489.26 L 561.466 489.26 C 561.46 486.183 558.97 483.694 555.895 483.69 L 555.895 483.69 L 550.888 483.69 C 547.812 483.694 545.323 486.183 545.316 489.26 L 545.316 489.26 C 545.322 492.337 547.814 494.828 550.888 494.833 L 550.888 494.833 L 550.888 495.801 L 550.888 496.769 C 546.743 496.767 543.383 493.408 543.381 489.26 L 543.381 489.26 C 543.383 485.113 546.744 481.754 550.888 481.754 L 550.888 481.754 L 555.895 481.754 C 560.041 481.754 563.4 485.113 563.402 489.26 L 563.402 489.26 C 563.4 493.406 560.041 496.767 555.895 496.769 L 555.895 496.769 L 550.888 496.769 L 550.888 496.769 Z" style="fill: rgb(30, 30, 30);" transform="matrix(0.965926, -0.258819, 0.258819, 0.965926, -107.773815, 159.899402)"/>
  <path d="M 586.063 487.344 L 586.063 486.376 L 586.063 485.408 L 591.067 485.408 C 594.144 485.403 596.635 482.914 596.639 479.835 L 596.639 479.835 C 596.635 476.758 594.143 474.269 591.067 474.265 L 591.067 474.265 L 586.063 474.265 C 582.985 474.269 580.496 476.758 580.489 479.835 L 580.489 479.835 C 580.495 482.914 582.986 485.403 586.063 485.408 L 586.063 485.408 L 586.063 486.376 L 586.063 487.344 C 581.916 487.342 578.556 483.981 578.556 479.835 L 578.556 479.835 C 578.556 475.688 581.917 472.329 586.063 472.329 L 586.063 472.329 L 591.067 472.329 C 595.214 472.329 598.575 475.688 598.575 479.835 L 598.575 479.835 C 598.575 483.981 595.213 487.342 591.067 487.344 L 591.067 487.344 L 586.063 487.344 L 586.063 487.344 Z" style="fill: rgb(30, 30, 30);" transform="matrix(0.965926, -0.258819, 0.258819, 0.965926, -104.135867, 168.681849)"/>
  <path d="M 745.418 444.645 L 745.418 443.677 L 745.418 442.709 L 750.425 442.709 C 753.499 442.704 755.99 440.215 755.996 437.136 L 755.996 437.136 C 755.99 434.059 753.502 431.57 750.425 431.566 L 750.425 431.566 L 745.418 431.566 C 742.341 431.57 739.85 434.059 739.846 437.136 L 739.846 437.136 C 739.85 440.213 742.343 442.704 745.418 442.709 L 745.418 442.709 L 745.418 443.677 L 745.418 444.645 C 741.272 444.643 737.91 441.284 737.91 437.136 L 737.91 437.136 C 737.91 432.989 741.274 429.63 745.418 429.63 L 745.418 429.63 L 750.425 429.63 C 754.569 429.63 757.93 432.989 757.932 437.136 L 757.932 437.136 C 757.93 441.282 754.571 444.643 750.425 444.645 L 750.425 444.645 L 745.418 444.645 L 745.418 444.645 Z" style="fill: rgb(30, 30, 30);" transform="matrix(0.965926, -0.258819, 0.258819, 0.965926, -87.654771, 208.471498)"/>
  <path d="M 722.449 450.8 L 722.449 449.832 L 722.449 448.864 L 727.454 448.864 C 730.531 448.859 733.022 446.368 733.025 443.291 L 733.025 443.291 C 733.022 440.214 730.531 437.725 727.454 437.721 L 727.454 437.721 L 722.449 437.721 C 719.37 437.725 716.88 440.214 716.875 443.291 L 716.875 443.291 C 716.88 446.37 719.37 448.859 722.449 448.864 L 722.449 448.864 L 722.449 449.832 L 722.449 450.8 C 718.301 450.798 714.94 447.437 714.94 443.291 L 714.94 443.291 C 714.94 439.144 718.301 435.785 722.449 435.785 L 722.449 435.785 L 727.454 435.785 C 731.598 435.785 734.962 439.144 734.962 443.291 L 734.962 443.291 C 734.962 447.439 731.598 450.798 727.454 450.8 L 727.454 450.8 L 722.449 450.8 L 722.449 450.8 Z" style="fill: rgb(30, 30, 30);" transform="matrix(0.965926, -0.25882, 0.25882, 0.965926, -90.030547, 202.73636)"/>
  <circle cx="560.803" cy="255.362" r="3.149" style="fill: rgb(30, 30, 30);" transform="matrix(0.934584, -0.250421, 0.250422, 0.934588, 315.476776, 263.126434)"/>
  <circle cx="34.889" cy="255.408" r="3.149" style="fill: rgb(30, 30, 30);" transform="matrix(0.934581, -0.25042, 0.25042, 0.93458, 315.477478, 263.128723)"/>
  <circle cx="570.738" cy="229.094" r="3.149" style="fill: rgb(30, 30, 30);" transform="matrix(0.934584, -0.250421, 0.250422, 0.934588, 315.476807, 263.126556)"/>
  <path d="M 458.877 476.219 C 455.502 476.21 452.663 474.991 450.974 473.297 L 450.974 473.297 C 448.872 471.168 446.345 468.172 444.177 465.548 L 444.177 465.548 C 442.027 462.943 440.16 460.643 439.649 460.176 L 439.649 460.176 C 436.783 457.484 432.994 455.782 428.783 455.782 L 428.783 455.782 C 428.783 455.782 401.399 455.856 392.665 455.856 L 392.665 455.856 C 391.484 455.856 390.288 455.435 389.489 454.475 L 389.489 454.475 C 371.577 432.701 360.027 391.363 360 363.953 L 360 363.953 L 360 356.05 C 360.027 328.641 371.577 287.303 389.489 265.527 L 389.489 265.527 C 390.286 264.57 391.484 264.147 392.665 264.145 L 392.665 264.145 C 401.399 264.145 428.783 264.222 428.781 264.222 L 428.781 264.222 C 432.994 264.22 436.783 262.519 439.649 259.827 L 439.649 259.827 C 440.159 259.358 442.027 257.058 444.177 254.455 L 444.177 254.455 C 446.345 251.832 448.872 248.834 450.974 246.704 L 450.974 246.704 C 452.663 245.01 455.502 243.791 458.877 243.782 L 458.877 243.782 L 821.122 243.782 C 824.497 243.79 827.337 245.008 829.027 246.704 L 829.027 246.704 C 831.13 248.834 833.654 251.831 835.822 254.455 L 835.822 254.455 C 837.972 257.058 839.839 259.358 840.35 259.827 L 840.35 259.827 C 843.214 262.519 847.005 264.22 851.218 264.222 L 851.218 264.222 C 851.218 264.222 878.602 264.145 887.337 264.145 L 887.337 264.145 C 888.515 264.147 889.713 264.569 890.509 265.527 L 890.509 265.527 C 908.424 287.302 919.971 328.64 920 356.05 L 920 356.05 L 920 363.953 C 919.971 391.362 908.423 432.701 890.509 454.475 L 890.509 454.475 C 889.713 455.435 888.514 455.856 887.337 455.856 L 887.337 455.856 C 878.602 455.856 851.218 455.782 851.22 455.782 L 851.22 455.782 C 847.005 455.782 843.214 457.484 840.35 460.176 L 840.35 460.176 C 839.84 460.643 837.972 462.942 835.822 465.548 L 835.822 465.548 C 833.654 468.172 831.129 471.168 829.025 473.297 L 829.025 473.297 C 827.337 474.991 824.497 476.21 821.122 476.219 L 821.122 476.219 L 458.877 476.219 L 458.877 476.219 Z M 821.122 474.284 C 824.015 474.29 826.421 473.19 827.65 471.938 L 827.65 471.938 C 829.664 469.9 832.176 466.924 834.331 464.315 L 834.331 464.315 C 836.51 461.687 838.257 459.499 839.025 458.766 L 839.025 458.766 C 842.21 455.77 846.476 453.847 851.223 453.847 L 851.223 453.847 C 851.259 453.847 878.608 453.923 887.337 453.923 L 887.337 453.923 C 888.063 453.923 888.691 453.652 889.016 453.246 L 889.016 453.246 C 906.503 432.095 918.091 390.844 918.063 363.955 L 918.063 363.955 L 918.063 356.052 C 918.091 329.162 906.504 287.912 889.016 266.76 L 889.016 266.76 C 888.691 266.355 888.063 266.08 887.337 266.083 L 887.337 266.083 C 878.608 266.083 851.259 266.158 851.22 266.158 L 851.22 266.158 C 846.476 266.16 842.209 264.236 839.025 261.241 L 839.025 261.241 C 838.257 260.507 836.51 258.319 834.331 255.692 L 834.331 255.692 C 832.175 253.082 829.664 250.105 827.65 248.068 L 827.65 248.068 C 826.42 246.814 824.015 245.715 821.122 245.721 L 821.122 245.721 L 458.877 245.721 C 455.984 245.715 453.579 246.814 452.352 248.068 L 452.352 248.068 C 450.337 250.105 447.824 253.082 445.668 255.692 L 445.668 255.692 C 443.49 258.319 441.744 260.508 440.976 261.241 L 440.976 261.241 C 437.79 264.236 433.523 266.16 428.778 266.158 L 428.778 266.158 C 428.743 266.158 401.393 266.083 392.665 266.083 L 392.665 266.083 C 391.938 266.081 391.31 266.355 390.982 266.76 L 390.982 266.76 C 373.498 287.911 361.909 329.162 361.936 356.052 L 361.936 356.052 L 361.936 363.955 C 361.909 390.844 373.498 432.095 390.982 453.246 L 390.982 453.246 C 391.307 453.652 391.935 453.923 392.665 453.921 L 392.665 453.921 C 401.393 453.923 428.743 453.847 428.781 453.847 L 428.781 453.847 C 433.525 453.847 437.79 455.77 440.976 458.766 L 440.976 458.766 C 441.744 459.5 443.49 461.688 445.668 464.315 L 445.668 464.315 C 447.825 466.924 450.337 469.899 452.352 471.938 L 452.352 471.938 C 453.577 473.19 455.984 474.29 458.877 474.284 L 458.877 474.284 L 821.122 474.284 L 821.122 474.284 Z" style="fill: rgb(30, 30, 30);" transform="matrix(0.965926, -0.258819, 0.258819, 0.965926, -71.367471, 177.910759)"/>
  <path d="M 505.964 508.97 L 505.964 508.968 L 505.964 508.002 L 505.964 507.034 L 522.757 507.034 C 526.859 507.027 530.179 503.707 530.188 499.603 L 530.188 499.603 C 530.18 495.5 526.86 492.18 522.757 492.174 L 522.757 492.174 L 505.964 492.172 C 501.859 492.18 498.539 495.499 498.533 499.603 L 498.533 499.603 C 498.539 503.707 501.859 507.027 505.964 507.034 L 505.964 507.034 L 505.964 508.002 L 505.964 508.968 C 500.791 508.968 496.599 504.776 496.599 499.603 L 496.599 499.603 C 496.599 494.431 500.792 490.237 505.964 490.237 L 505.964 490.237 L 522.757 490.237 C 527.931 490.237 532.122 494.431 532.124 499.603 L 532.124 499.603 C 532.122 504.776 527.931 508.968 522.757 508.97 L 522.757 508.97 L 505.964 508.97 L 505.964 508.97 Z" style="fill: rgb(30, 30, 30);" transform="matrix(0.965926, -0.258819, 0.258819, 0.965926, -111.78044, 150.15009)"/>
  <path d="M 809.743 427.571 L 809.743 426.605 L 809.743 425.638 L 826.539 425.638 C 830.641 425.629 833.963 422.31 833.971 418.206 L 833.971 418.206 C 833.963 414.104 830.642 410.784 826.539 410.776 L 826.539 410.776 L 809.743 410.776 C 805.644 410.784 802.322 414.104 802.316 418.206 L 802.316 418.206 C 802.322 422.309 805.643 425.629 809.743 425.638 L 809.743 425.638 L 809.743 426.605 L 809.743 427.571 C 804.572 427.571 800.38 423.379 800.38 418.206 L 800.38 418.206 C 800.38 413.034 804.572 408.841 809.743 408.841 L 809.743 408.841 L 826.539 408.841 C 831.711 408.841 835.904 413.032 835.906 418.206 L 835.906 418.206 C 835.904 423.379 831.711 427.571 826.539 427.571 L 826.539 427.571 L 809.743 427.571 L 809.743 427.571 Z" style="fill: rgb(30, 30, 30);" transform="matrix(0.965926, -0.258819, 0.258819, 0.965926, -80.362087, 226.000818)"/>
  <path d="M 773.855 437.188 L 773.855 436.22 L 773.855 435.251 L 790.649 435.254 C 794.75 435.245 798.071 431.925 798.079 427.823 L 798.079 427.823 C 798.071 423.72 794.751 420.399 790.649 420.393 L 790.649 420.393 L 773.855 420.393 C 769.75 420.399 766.431 423.72 766.424 427.823 L 766.424 427.823 C 766.431 431.926 769.75 435.245 773.855 435.251 L 773.855 435.251 L 773.855 436.22 L 773.855 437.188 C 768.681 437.188 764.489 432.995 764.489 427.823 L 764.489 427.823 C 764.489 422.649 768.681 418.457 773.855 418.457 L 773.855 418.457 L 790.649 418.457 C 795.821 418.457 800.013 422.649 800.015 427.823 L 800.015 427.823 C 800.013 432.995 795.821 437.188 790.649 437.188 L 790.649 437.188 L 773.855 437.188 L 773.855 437.188 Z" style="fill: rgb(30, 30, 30);" transform="matrix(0.965926, -0.258819, 0.258819, 0.965926, -84.074013, 217.039359)"/>
</svg>