<?xml version="1.0" encoding="utf-8"?>
<svg version="1.2" xmlns="http://www.w3.org/2000/svg">
  <g>
    <path id="path6905" d="M 111.269 170.297 C 116.912 170.297 120.296 169.148 120.296 163.784 C 120.296 159.812 117.836 157.688 112.193 157.688 L 104.396 157.688 L 104.396 170.297 L 111.269 170.297 Z M 101.42 186.866 L 101.42 155.132 L 113.015 155.132 C 121.22 155.132 123.377 159.236 123.377 163.997 C 123.377 171.086 117.014 172.85 111.167 172.85 L 104.396 172.85 L 104.396 186.866 L 101.42 186.866" style="fill-opacity: 1; fill: rgb(255, 255, 255);"/>
    <path id="path6907" d="M 127.376 186.866 L 129.941 186.866 L 129.941 155.132 L 127.376 155.132 L 127.376 186.866 Z" style="fill-opacity: 1; fill: rgb(255, 255, 255);"/>
    <path id="path6909" d="M 151.487 174.872 C 149.231 175.796 146.87 175.979 144.614 176.156 C 140.612 176.462 138.152 177.92 138.152 180.998 C 138.152 183.788 140.615 185.102 143.078 185.102 C 147.284 185.102 151.49 183.071 151.49 178.442 L 151.487 174.872 L 151.487 174.872 Z M 146.975 173.558 C 147.998 173.465 149.642 173.201 150.461 172.799 C 151.385 172.409 151.487 171.218 151.487 170.429 C 151.487 167.741 149.846 165.803 145.742 165.803 C 142.151 165.803 139.589 166.991 139.073 170.954 L 136.406 170.954 C 136.817 165.575 140.816 163.412 145.844 163.412 C 150.461 163.412 154.052 165.227 154.052 170.51 L 154.052 182.936 C 154.052 185.009 154.667 185.492 156.824 184.7 L 156.824 186.773 C 156.515 186.908 155.591 187.214 154.772 187.214 C 154.361 187.214 154.052 187.175 153.644 187.082 C 151.796 186.827 151.487 185.276 151.487 183.683 C 149.333 186.158 146.255 187.481 142.973 187.481 C 138.971 187.481 135.38 185.315 135.38 180.917 C 135.38 177.089 138.047 174.749 143.381 174.041 L 146.975 173.558" style="fill-opacity: 1; fill: rgb(255, 255, 255);"/>
    <path id="path6911" d="M 160.619 193.073 C 161.336 193.205 162.053 193.349 162.773 193.349 C 165.851 193.349 166.262 189.023 167.288 187.04 L 158.36 164.039 L 161.336 164.039 L 168.725 183.656 L 176.009 164.039 L 178.88 164.039 L 170.366 186.557 C 168.209 192.281 166.775 195.854 163.079 195.854 C 162.158 195.854 161.336 195.722 160.619 195.548 L 160.619 193.073" style="fill-opacity: 1; fill: rgb(255, 255, 255);"/>
    <path id="path6913" d="M 185.138 177.386 C 185.654 183.071 189.347 185.141 194.27 185.141 C 199.913 185.141 202.274 182.066 202.274 178.577 C 202.274 168.746 182.984 175.274 182.984 162.809 C 182.984 158.396 186.575 154.301 193.757 154.301 C 200.837 154.301 204.428 158.609 204.326 163.784 L 201.554 163.784 C 201.554 158.93 197.759 156.857 193.757 156.857 C 187.601 156.857 185.447 160.601 185.96 163.865 C 187.292 172.052 205.352 166.151 205.352 178.442 C 205.352 184.271 201.041 187.7 193.757 187.7 C 187.088 187.7 182.162 184.271 182.162 177.386 L 185.138 177.386" style="fill-opacity: 1; fill: rgb(255, 255, 255);"/>
    <path id="path6915" d="M 219.101 186.95 C 218.486 187.082 217.358 187.484 216.023 187.484 C 213.458 187.484 212.021 186.335 212.021 182.939 L 212.021 166.235 L 208.736 166.235 L 208.736 164.039 L 212.021 164.039 L 212.021 157.688 L 214.688 157.688 L 214.688 164.039 L 218.897 164.039 L 218.897 166.235 L 214.688 166.235 L 214.688 181.883 C 214.688 184.139 214.688 185.102 216.944 185.102 C 217.664 185.102 218.381 184.97 219.101 184.796 L 219.101 186.95" style="fill-opacity: 1; fill: rgb(255, 255, 255);"/>
    <path id="path6917" d="M 238.901 174.872 C 236.645 175.796 234.389 175.979 232.13 176.156 C 228.128 176.462 225.665 177.92 225.665 180.998 C 225.665 183.788 228.128 185.102 230.594 185.102 C 234.797 185.102 238.901 183.071 238.901 178.442 L 238.901 174.872 L 238.901 174.872 Z M 234.488 173.558 C 235.412 173.465 237.056 173.201 237.98 172.799 C 238.799 172.409 238.901 171.218 238.901 170.429 C 238.901 167.741 237.362 165.803 233.258 165.803 C 229.565 165.803 227.102 166.991 226.589 170.954 L 223.922 170.954 C 224.333 165.575 228.332 163.412 233.258 163.412 C 237.875 163.412 241.568 165.227 241.568 170.51 L 241.568 182.936 C 241.568 185.009 242.084 185.492 244.34 184.7 L 244.34 186.773 C 243.929 186.908 243.005 187.214 242.288 187.214 C 241.877 187.214 241.469 187.175 241.055 187.082 C 239.312 186.827 239.003 185.276 239.003 183.683 C 236.747 186.158 233.774 187.481 230.489 187.481 C 226.487 187.481 222.794 185.315 222.794 180.917 C 222.794 177.089 225.461 174.749 230.798 174.041 L 234.488 173.558" style="fill-opacity: 1; fill: rgb(255, 255, 255);"/>
    <path id="path6919" d="M 257.165 186.95 C 256.55 187.082 255.419 187.484 254.087 187.484 C 251.522 187.484 250.085 186.335 250.085 182.939 L 250.085 166.235 L 246.905 166.235 L 246.905 164.039 L 250.085 164.039 L 250.085 157.688 L 252.755 157.688 L 252.755 164.039 L 256.961 164.039 L 256.961 166.235 L 252.755 166.235 L 252.755 181.883 C 252.755 184.139 252.755 185.102 255.011 185.102 C 255.728 185.102 256.448 184.97 257.165 184.796 L 257.165 186.95" style="fill-opacity: 1; fill: rgb(255, 255, 255);"/>
    <path id="path6921" d="M 265.067 186.866 L 262.499 186.866 L 262.499 164.039 L 265.067 164.039 L 265.067 186.866 Z M 262.295 159.05 L 262.295 155.132 L 265.271 155.132 L 265.271 159.05 L 262.295 159.05" style="fill-opacity: 1; fill: rgb(255, 255, 255);"/>
    <path id="path6923" d="M 280.661 165.803 C 275.12 165.803 272.966 170.51 272.966 175.445 C 272.966 181.13 275.633 185.102 280.661 185.102 C 286.199 185.102 288.458 180.341 288.458 175.445 C 288.458 170.069 286.304 165.803 280.661 165.803 Z M 270.092 175.445 C 270.092 168.797 273.683 163.412 280.661 163.412 C 287.84 163.412 291.329 168.746 291.329 175.445 C 291.329 182.681 287.123 187.481 280.661 187.481 C 274.916 187.391 270.092 183.428 270.092 175.445" style="fill-opacity: 1; fill: rgb(255, 255, 255);"/>
    <path id="path6925" d="M 297.692 186.866 L 295.025 186.866 L 295.025 164.039 L 297.692 164.039 L 297.692 167.207 C 299.744 164.963 301.898 163.412 304.976 163.412 C 307.847 163.412 310.313 164.294 311.954 166.676 C 313.079 168.317 313.184 170.03 313.184 171.917 L 313.184 186.866 L 310.514 186.866 L 310.514 171.968 C 310.514 167.876 308.771 165.803 304.565 165.803 C 301.28 165.803 299.024 167.915 298.202 170.243 C 297.689 171.701 297.689 172.985 297.689 174.575 L 297.689 186.866" style="fill-opacity: 1; fill: rgb(255, 255, 255);"/>
    <path id="path6929" d="M 340.914 170.297 C 346.557 170.297 350.043 169.148 350.043 163.784 C 350.043 159.812 347.481 157.688 341.838 157.688 L 334.038 157.688 L 334.038 170.297 L 340.914 170.297 Z M 331.065 186.866 L 331.065 155.132 L 342.66 155.132 C 350.868 155.132 353.019 159.236 353.019 163.997 C 353.019 171.086 346.761 172.85 340.812 172.85 L 334.038 172.85 L 334.038 186.866 L 331.065 186.866" style="fill-opacity: 1; fill: rgb(255, 255, 255);"/>
    <path id="path6931" d="M 364.818 165.803 C 359.28 165.803 357.024 170.51 357.024 175.445 C 357.024 181.13 359.793 185.102 364.818 185.102 C 370.359 185.102 372.618 180.341 372.618 175.445 C 372.516 170.069 370.461 165.803 364.818 165.803 Z M 354.252 175.445 C 354.252 168.797 357.741 163.412 364.818 163.412 C 372.003 163.412 375.387 168.746 375.387 175.445 C 375.387 182.681 371.181 187.481 364.818 187.481 C 358.971 187.391 354.252 183.428 354.252 175.445" style="fill-opacity: 1; fill: rgb(255, 255, 255);"/>
    <path id="path6933" d="M 381.954 186.866 L 379.287 186.866 L 379.287 164.039 L 381.954 164.039 L 381.954 168.32 L 382.059 168.32 C 383.493 164.654 385.65 163.412 389.445 163.412 L 389.445 166.289 C 383.493 166.154 381.957 170.555 381.957 175.664 L 381.957 186.866" style="fill-opacity: 1; fill: rgb(255, 255, 255);"/>
    <path id="path6935" d="M 404.22 186.95 C 403.602 187.082 402.474 187.484 401.241 187.484 C 398.574 187.484 397.137 186.335 397.137 182.939 L 397.137 166.235 L 393.957 166.235 L 393.957 164.039 L 397.137 164.039 L 397.137 157.688 L 399.804 157.688 L 399.804 164.039 L 404.115 164.039 L 404.115 166.235 L 399.804 166.235 L 399.804 181.883 C 399.804 184.139 399.909 185.102 402.063 185.102 C 402.783 185.102 403.602 184.97 404.217 184.796 L 404.217 186.95" style="fill-opacity: 1; fill: rgb(255, 255, 255);"/>
    <path id="path6937" d="M 423.198 174.872 C 420.942 175.796 418.683 175.979 416.427 176.156 C 412.425 176.462 409.965 177.92 409.965 180.998 C 409.965 183.788 412.428 185.102 414.888 185.102 C 419.097 185.102 423.201 183.071 423.201 178.442 L 423.201 174.872 L 423.198 174.872 Z M 418.785 173.558 C 419.706 173.465 421.35 173.201 422.274 172.799 C 423.096 172.409 423.198 171.218 423.198 170.429 C 423.198 167.741 421.659 165.803 417.555 165.803 C 413.865 165.803 411.399 166.991 410.886 170.954 L 408.219 170.954 C 408.627 165.575 412.632 163.412 417.555 163.412 C 422.172 163.412 425.868 165.227 425.868 170.51 L 425.868 182.936 C 425.868 185.009 426.378 185.492 428.637 184.7 L 428.637 186.773 C 428.226 186.908 427.302 187.214 426.585 187.214 C 426.174 187.214 425.763 187.175 425.355 187.082 C 423.612 186.827 423.303 185.276 423.303 183.683 C 421.044 186.158 418.071 187.481 414.783 187.481 C 410.784 187.481 407.088 185.315 407.088 180.917 C 407.088 177.089 409.755 174.749 415.092 174.041 L 418.785 173.558" style="fill-opacity: 1; fill: rgb(255, 255, 255);"/>
    <path id="path6939" d="M 444.129 185.102 C 448.542 185.102 451.824 181.88 451.929 176.156 C 452.13 170.429 449.568 165.803 444.129 165.803 C 439.308 165.803 436.434 170.204 436.434 175.355 C 436.431 180.875 439.104 185.102 444.129 185.102 Z M 436.431 186.866 L 433.764 186.866 L 433.764 155.132 L 436.431 155.132 L 436.431 167.69 C 438.078 164.918 441.357 163.412 444.54 163.412 C 451.512 163.412 454.698 169.106 454.698 175.496 C 454.698 182.228 451.824 187.481 444.438 187.481 C 441.462 187.481 438.078 185.849 436.437 182.855 L 436.437 182.855 L 436.437 186.866" style="fill-opacity: 1; fill: rgb(255, 255, 255);"/>
    <path id="path6941" d="M 460.545 186.866 L 463.212 186.866 L 463.212 155.132 L 460.545 155.132 L 460.545 186.866 Z" style="fill-opacity: 1; fill: rgb(255, 255, 255);"/>
    <path id="path6943" d="M 486.195 173.858 C 486.195 169.415 483.732 165.803 479.013 165.803 C 474.294 165.803 471.831 169.547 471.318 173.858 L 486.195 173.858 Z M 471.318 176.072 C 471.318 180.998 473.985 185.102 479.013 185.102 C 482.397 185.102 485.169 183.203 485.886 179.861 L 488.862 179.861 C 487.527 184.166 484.86 187.484 479.013 187.484 C 471.726 187.484 468.546 182.282 468.546 175.544 C 468.546 168.884 472.446 163.412 479.013 163.412 C 485.271 163.412 489.066 167.876 489.066 176.072 L 471.318 176.072" style="fill-opacity: 1; fill: rgb(255, 255, 255);"/>
    <path id="path6945" d="M 0 0.002 L 186.936 0.002 L 186.936 55.436 L 7.386 55.436 L 7.386 103.484 L 0 103.484 L 0 48.047 L 179.55 48.047 L 179.55 7.385 L 0 7.385 L 0 0.002" style="fill-opacity: 1; fill: rgb(255, 255, 255);"/>
    <path id="path6947" d="M 420.453 55.436 L 420.453 103.484 L 413.067 103.484 L 413.067 48.047 L 592.614 48.047 L 592.614 7.385 L 413.067 7.385 L 413.067 -0.001 L 600 -0.001 L 600 55.436 L 420.453 55.436" style="fill-opacity: 1; fill: rgb(255, 255, 255);"/>
    <path id="path6949" d="M 282.252 0.002 L 282.252 96.095 L 186.936 96.095 L 186.936 103.484 L 290.049 103.484 L 290.049 7.385 L 385.365 7.385 L 385.365 -0.001 L 282.252 -0.001" style="fill-opacity: 1; fill: rgb(255, 255, 255);"/>
  </g>
</svg>