<?xml version="1.0" encoding="utf-8"?>
<svg version="1.2" baseProfile="tiny" id="Layer_3" x="0px" y="0px" preserveAspectRatio="none" xmlns="http://www.w3.org/2000/svg">
  <polygon points="547.676 169.314 547.676 120.796 548.648 120.796 548.648 169.314 547.676 169.314" style="fill: rgb(30, 30, 30);" transform="matrix(0.258819, 0.965926, -0.965926, 0.258819, 546.399476, -421.971827)"/>
  <polygon points="549.139 174.075 549.139 125.071 550.11 125.071 550.11 174.075 549.139 174.075" style="fill: rgb(30, 30, 30);" transform="matrix(0.258819, 0.965926, -0.965926, 0.258819, 551.84752, -420.035839)"/>
  <polygon points="549.848 177.125 549.848 129.498 550.82 129.498 550.82 177.125 549.848 177.125" style="fill: rgb(30, 30, 30);" transform="matrix(0.258818, 0.965926, -0.965926, 0.258818, 555.985161, -417.950231)"/>
  <polygon points="551.152 182.579 551.152 133.168 552.124 133.168 552.124 182.579 551.152 182.579" style="fill: rgb(30, 30, 30);" transform="matrix(0.258819, 0.965926, -0.965926, 0.258819, 561.357609, -415.828577)"/>
  <polygon points="552.022 185.33 552.022 136.124 552.994 136.124 552.994 185.33 552.022 185.33" style="fill: rgb(30, 30, 30);" transform="matrix(0.258819, 0.965926, -0.965926, 0.258819, 564.758686, -414.553957)"/>
  <polygon points="553.211 189.477 553.211 141.162 554.183 141.162 554.183 189.477 553.211 189.477" style="fill: rgb(30, 30, 30);" transform="matrix(0.258818, 0.965926, -0.965926, 0.258818, 570.076669, -412.298552)"/>
  <polygon points="554.096 193.27 554.096 144.752 555.067 144.752 555.067 193.27 554.096 193.27" style="fill: rgb(30, 30, 30);" transform="matrix(0.258818, 0.965926, -0.965926, 0.258818, 574.297985, -410.41688)"/>
  <polygon points="555.461 198.159 555.461 148.953 556.431 148.953 556.431 198.159 555.461 198.159" style="fill: rgb(30, 30, 30);" transform="matrix(0.258819, 0.965926, -0.965926, 0.258819, 579.698763, -408.366234)"/>
  <polygon points="556.267 201.17 556.267 151.964 557.238 151.964 557.238 201.17 556.267 201.17" style="fill: rgb(30, 30, 30);" transform="matrix(0.258819, 0.965926, -0.965926, 0.258819, 583.20491, -406.913529)"/>
  <polygon points="557.554 205.188 557.554 157.077 558.526 157.077 558.526 205.188 557.554 205.188" style="fill: rgb(30, 30, 30);" transform="matrix(0.258819, 0.965926, -0.965926, 0.258819, 588.569123, -404.773299)"/>
  <polygon points="558.34 209.11 558.34 160.592 559.312 160.592 559.312 209.11 558.34 209.11" style="fill: rgb(30, 30, 30);" transform="matrix(0.258819, 0.965926, -0.965926, 0.258819, 592.743505, -402.776487)"/>
  <polygon points="559.567 213.691 559.567 165.174 560.539 165.174 560.539 213.691 559.567 213.691" style="fill: rgb(30, 30, 30);" transform="matrix(0.258819, 0.965926, -0.965926, 0.258819, 598.078228, -400.565896)"/>
  <polygon points="560.68 217.144 560.68 168.14 561.651 168.14 561.651 217.144 560.68 217.144" style="fill: rgb(30, 30, 30);" transform="matrix(0.258819, 0.965926, -0.965926, 0.258819, 602.002982, -399.261725)"/>
  <polygon points="561.672 221.545 561.672 173.027 562.643 173.027 562.643 221.545 561.672 221.545" style="fill: rgb(30, 30, 30);" transform="matrix(0.258819, 0.965926, -0.965926, 0.258819, 607.22397, -396.777776)"/>
  <polygon points="562.753 225.083 562.753 176.768 563.725 176.768 563.725 225.083 562.753 225.083" style="fill: rgb(30, 30, 30);" transform="matrix(0.258819, 0.965926, -0.965926, 0.258819, 611.541103, -395.124988)"/>
  <polygon points="564.019 230.101 564.019 180.894 564.99 180.894 564.99 230.101 564.019 230.101" style="fill: rgb(30, 30, 30);" transform="matrix(0.258819, 0.965926, -0.965926, 0.258819, 616.895191, -392.958658)"/>
  <polygon points="564.693 233.109 564.693 183.698 565.663 183.698 565.663 233.109 564.693 233.109" style="fill: rgb(30, 30, 30);" transform="matrix(0.258819, 0.965926, -0.965926, 0.258819, 620.201403, -391.455287)"/>
  <polygon points="565.843 236.818 565.843 189.191 566.815 189.191 566.815 236.818 565.843 236.818" style="fill: rgb(30, 30, 30);" transform="matrix(0.258819, 0.965926, -0.965926, 0.258819, 625.498734, -389.156928)"/>
  <polygon points="566.863 240.919 566.863 192.402 567.835 192.402 567.835 240.919 566.863 240.919" style="fill: rgb(30, 30, 30);" transform="matrix(0.258819, 0.965926, -0.965926, 0.258819, 629.78616, -387.432415)"/>
  <polygon points="568.092 245.502 568.092 196.985 569.062 196.985 569.062 245.502 568.092 245.502" style="fill: rgb(30, 30, 30);" transform="matrix(0.258819, 0.965926, -0.965926, 0.258819, 635.123191, -385.221742)"/>
  <polygon points="568.964 249.06 568.964 200.418 569.936 200.418 569.936 249.06 568.964 249.06" style="fill: rgb(30, 30, 30);" transform="matrix(0.258819, 0.965926, -0.965926, 0.258819, 639.146563, -383.474183)"/>
  <polygon points="570.185 252.53 570.185 205.107 571.157 205.107 571.157 252.53 570.185 252.53" style="fill: rgb(30, 30, 30);" transform="matrix(0.258819, 0.965926, -0.965926, 0.258819, 643.99212, -381.629997)"/>
  <polygon points="571.244 257.067 571.244 207.861 572.216 207.861 572.216 257.067 571.244 257.067" style="fill: rgb(30, 30, 30);" transform="matrix(0.258818, 0.965926, -0.965926, 0.258818, 648.298964, -379.950785)"/>
  <polygon points="572.433 261.213 572.433 212.898 573.405 212.898 573.405 261.213 572.433 261.213" style="fill: rgb(30, 30, 30);" transform="matrix(0.258818, 0.965926, -0.965926, 0.258818, 653.615307, -377.696128)"/>
  <polygon points="573.318 265.007 573.318 216.489 574.289 216.489 574.289 265.007 573.318 265.007" style="fill: rgb(30, 30, 30);" transform="matrix(0.258818, 0.965926, -0.965926, 0.258818, 657.837554, -375.813681)"/>
  <polygon points="574.681 269.896 574.681 220.689 575.654 220.689 575.654 269.896 574.681 269.896" style="fill: rgb(30, 30, 30);" transform="matrix(0.258819, 0.965926, -0.965926, 0.258819, 663.237469, -373.763004)"/>
  <polygon points="575.686 272.562 575.686 225.343 576.658 225.343 576.658 272.562 575.686 272.562" style="fill: rgb(30, 30, 30);" transform="matrix(0.258819, 0.965926, -0.965926, 0.258819, 667.517316, -372.020586)"/>
  <polygon points="576.335 277.751 576.335 228.623 577.307 228.623 577.307 277.751 576.335 277.751" style="fill: rgb(30, 30, 30);" transform="matrix(0.258819, 0.965926, -0.965926, 0.258819, 672.08858, -369.50896)"/>
  <polygon points="577.429 280.844 577.429 232.122 578.4 232.122 578.4 280.844 577.429 280.844" style="fill: rgb(30, 30, 30);" transform="matrix(0.258819, 0.965926, -0.965926, 0.258819, 676.08275, -368.122286)"/>
  <polygon points="578.754 285.298 578.754 236.78 579.726 236.78 579.726 285.298 578.754 285.298" style="fill: rgb(30, 30, 30);" transform="matrix(0.258819, 0.965926, -0.965926, 0.258819, 681.465784, -366.025753)"/>
  <polygon points="579.835 288.835 579.835 240.521 580.807 240.521 580.807 288.835 579.835 288.835" style="fill: rgb(30, 30, 30);" transform="matrix(0.258818, 0.965926, -0.965926, 0.258818, 685.782874, -364.372679)"/>
  <polygon points="581.101 293.853 581.101 244.646 582.073 244.646 582.073 293.853 581.101 293.853" style="fill: rgb(30, 30, 30);" transform="matrix(0.258819, 0.965926, -0.965926, 0.258819, 691.136197, -362.207347)"/>
  <polygon points="581.908 296.863 581.908 247.657 582.88 247.657 582.88 296.863 581.908 296.863" style="fill: rgb(30, 30, 30);" transform="matrix(0.258819, 0.965926, -0.965926, 0.258819, 694.642267, -360.75553)"/>
  <polygon points="583.098 301.01 583.098 252.695 584.069 252.695 584.069 301.01 583.098 301.01" style="fill: rgb(30, 30, 30);" transform="matrix(0.258819, 0.965926, -0.965926, 0.258819, 699.959772, -358.500568)"/>
  <polygon points="584.177 304.75 584.177 256.232 585.149 256.232 585.149 304.75 584.177 304.75" style="fill: rgb(30, 30, 30);" transform="matrix(0.258819, 0.965926, -0.965926, 0.258819, 704.274468, -356.846491)"/>
  <polygon points="585.208 309.385 585.208 260.867 586.18 260.867 586.18 309.385 585.208 309.385" style="fill: rgb(30, 30, 30);" transform="matrix(0.258818, 0.965926, -0.965926, 0.258818, 709.516385, -354.406868)"/>
  <polygon points="586.282 312.808 586.282 263.884 587.254 263.884 587.254 312.808 586.282 312.808" style="fill: rgb(30, 30, 30);" transform="matrix(0.258819, 0.965926, -0.965926, 0.258819, 713.422054, -353.057842)"/>
  <polygon points="587.608 317.262 587.608 268.54 588.58 268.54 588.58 317.262 587.608 317.262" style="fill: rgb(30, 30, 30);" transform="matrix(0.258818, 0.965926, -0.965926, 0.258818, 718.8054, -350.962391)"/>
  <polygon points="588.522 320.703 588.522 272.184 589.494 272.184 589.494 320.703 588.522 320.703" style="fill: rgb(30, 30, 30);" transform="matrix(0.258818, 0.965926, -0.965926, 0.258818, 722.904508, -349.219671)"/>
  <polygon points="589.552 325.541 589.552 276.617 590.524 276.617 590.524 325.541 589.552 325.541" style="fill: rgb(30, 30, 30);" transform="matrix(0.258819, 0.965926, -0.965926, 0.258819, 728.144659, -346.77894)"/>
  <polygon points="590.4 328.76 590.401 280.241 591.372 280.241 591.372 328.76 590.4 328.76" style="fill: rgb(30, 30, 30);" transform="matrix(0.258819, 0.965926, -0.965926, 0.258819, 732.07827, -345.062097)"/>
  <polygon points="591.764 333.649 591.764 284.442 592.735 284.442 592.735 333.649 591.764 333.649" style="fill: rgb(30, 30, 30);" transform="matrix(0.258819, 0.965926, -0.965926, 0.258819, 737.478998, -343.010524)"/>
  <polygon points="592.505 336.614 592.505 288.096 593.476 288.096 593.476 336.614 592.505 336.614" style="fill: rgb(30, 30, 30);" transform="matrix(0.258819, 0.965926, -0.965926, 0.258819, 741.22492, -341.273248)"/>
  <polygon points="593.733 341.195 593.733 292.677 594.704 292.677 594.704 341.195 593.733 341.195" style="fill: rgb(30, 30, 30);" transform="matrix(0.258818, 0.965926, -0.965926, 0.258818, 746.560689, -339.063905)"/>
  <path d="M 696.325 229.484 C 696.331 227.035 697.525 224.445 699.194 222.428 L 699.194 222.428 C 700.044 221.41 701.018 220.53 702.049 219.908 L 702.049 219.908 C 678.745 219.908 537.549 219.908 500.491 219.908 L 500.491 219.908 C 495.167 219.908 492.001 219.908 491.627 219.908 L 491.627 219.908 C 491.615 219.91 491.595 219.913 491.561 219.919 L 491.561 219.919 C 491.497 219.933 491.401 219.955 491.286 219.995 L 491.286 219.995 C 491.052 220.074 490.737 220.218 490.421 220.473 L 490.421 220.473 C 489.842 220.951 489.227 221.796 489.139 223.501 L 489.139 223.501 C 493.89 224.488 496.972 225.353 498.095 225.34 L 498.095 225.34 L 498.178 226.305 C 496.891 226.526 495.432 226.619 493.907 226.619 L 493.907 226.619 C 491.068 226.619 488.002 226.296 485.442 225.852 L 485.442 225.852 C 482.869 225.399 480.86 224.867 479.947 224.304 L 479.947 224.304 L 480.465 223.484 C 481.072 223.881 483.111 224.47 485.608 224.895 L 485.608 224.895 C 488.118 225.33 491.141 225.647 493.907 225.646 L 493.907 225.646 C 494.045 225.646 494.182 225.645 494.318 225.644 L 494.318 225.644 C 492.789 225.295 490.876 224.843 488.545 224.369 L 488.545 224.369 L 488.156 224.29 L 488.156 223.894 C 488.149 221.698 488.958 220.398 489.81 219.718 L 489.81 219.718 C 490.659 219.033 491.487 218.945 491.54 218.938 L 491.54 218.938 L 491.567 218.936 L 491.59 218.936 C 491.59 218.936 698.436 218.936 705.146 218.936 L 705.146 218.936 L 705.146 219.907 C 705.131 219.907 705.115 219.907 705.098 219.907 L 705.098 219.907 C 703.466 219.917 701.477 221.184 699.941 223.048 L 699.941 223.048 C 698.382 224.919 697.29 227.359 697.295 229.484 L 697.295 229.484 L 697.296 229.484 L 696.325 229.484 L 696.325 229.484 Z" style="fill: rgb(30, 30, 30);" transform="matrix(0.258818, 0.965926, -0.965926, 0.258818, 655.755083, -406.175749)"/>
  <path d="M 576.554 130.343 C 576.555 127.52 578.843 125.233 581.665 125.232 L 581.665 125.232 C 584.488 125.233 586.775 127.52 586.776 130.343 L 586.776 130.343 C 586.775 133.166 584.488 135.453 581.665 135.453 L 581.665 135.453 C 578.843 135.452 576.555 133.166 576.554 130.343 L 576.554 130.343 Z M 577.526 130.343 C 577.53 132.629 579.379 134.477 581.665 134.482 L 581.665 134.482 C 583.951 134.477 585.799 132.629 585.804 130.343 L 585.804 130.343 C 585.799 128.057 583.95 126.207 581.665 126.204 L 581.665 126.204 C 579.379 126.207 577.53 128.057 577.526 130.343 L 577.526 130.343 Z" style="fill: rgb(30, 30, 30);" transform="matrix(0.258818, 0.965926, -0.965926, 0.258818, 557.020816, -465.237933)"/>
  <path d="M 627.854 321.794 C 627.854 318.972 630.141 316.684 632.965 316.684 L 632.965 316.684 C 635.787 316.684 638.075 318.971 638.075 321.794 L 638.075 321.794 C 638.075 324.619 635.787 326.905 632.965 326.905 L 632.965 326.905 C 630.143 326.905 627.854 324.619 627.854 321.794 L 627.854 321.794 Z M 628.825 321.794 C 628.829 324.081 630.678 325.93 632.965 325.933 L 632.965 325.933 C 635.251 325.93 637.1 324.081 637.104 321.794 L 637.104 321.794 C 637.1 319.509 635.251 317.659 632.965 317.656 L 632.965 317.656 C 630.679 317.659 628.828 319.509 628.825 321.794 L 628.825 321.794 Z" style="fill: rgb(30, 30, 30);" transform="matrix(0.258819, 0.965926, -0.965926, 0.258819, 779.970735, -372.888793)"/>
  <path d="M 653.633 257.151 C 652.642 257.156 651.996 256.528 651.57 255.919 L 651.57 255.919 C 651.132 255.3 650.793 254.639 650.396 254.273 L 650.396 254.273 C 650.131 254.029 649.889 253.902 649.506 253.898 L 649.506 253.898 C 648.948 253.903 648.627 254.19 648.231 254.725 L 648.231 254.725 C 647.848 255.249 647.509 255.961 646.938 256.51 L 646.938 256.51 C 646.56 256.876 646.027 257.156 645.38 257.151 L 645.38 257.151 C 644.388 257.156 643.742 256.528 643.316 255.919 L 643.316 255.919 C 642.877 255.3 642.538 254.639 642.142 254.273 L 642.142 254.273 C 641.876 254.029 641.634 253.902 641.252 253.898 L 641.252 253.898 C 640.695 253.903 640.373 254.19 639.978 254.725 L 639.978 254.725 C 639.594 255.249 639.256 255.961 638.684 256.51 L 638.684 256.51 C 638.305 256.876 637.773 257.156 637.125 257.151 L 637.125 257.151 C 636.135 257.156 635.49 256.528 635.062 255.919 L 635.062 255.919 C 634.625 255.3 634.286 254.639 633.891 254.273 L 633.891 254.273 C 633.624 254.029 633.382 253.902 632.999 253.898 L 632.999 253.898 C 632.442 253.903 632.121 254.19 631.725 254.725 L 631.725 254.725 C 631.342 255.249 631.003 255.961 630.432 256.51 L 630.432 256.51 C 630.054 256.876 629.521 257.156 628.873 257.151 L 628.873 257.151 C 627.883 257.156 627.236 256.528 626.811 255.919 L 626.811 255.919 C 626.372 255.3 626.034 254.639 625.637 254.273 L 625.637 254.273 C 625.372 254.029 625.13 253.902 624.746 253.898 L 624.746 253.898 C 624.189 253.903 623.868 254.19 623.472 254.725 L 623.472 254.725 C 623.089 255.249 622.751 255.961 622.179 256.51 L 622.179 256.51 C 621.802 256.876 621.268 257.156 620.621 257.151 L 620.621 257.151 C 619.63 257.156 618.984 256.528 618.558 255.919 L 618.558 255.919 C 618.12 255.3 617.781 254.639 617.386 254.273 L 617.386 254.273 C 617.12 254.029 616.879 253.902 616.495 253.898 L 616.495 253.898 C 615.939 253.903 615.617 254.19 615.222 254.725 L 615.222 254.725 C 614.838 255.249 614.5 255.961 613.928 256.51 L 613.928 256.51 C 613.549 256.876 613.017 257.156 612.369 257.151 L 612.369 257.151 C 611.379 257.156 610.733 256.528 610.306 255.919 L 610.306 255.919 C 609.868 255.3 609.53 254.639 609.134 254.273 L 609.134 254.273 C 608.867 254.029 608.626 253.902 608.242 253.898 L 608.242 253.898 C 607.685 253.903 607.364 254.19 606.968 254.725 L 606.968 254.725 C 606.585 255.249 606.246 255.961 605.675 256.51 L 605.675 256.51 C 605.297 256.876 604.765 257.156 604.117 257.151 L 604.117 257.151 C 603.126 257.156 602.479 256.528 602.053 255.919 L 602.053 255.919 C 601.615 255.3 601.277 254.639 600.881 254.273 L 600.881 254.273 C 600.615 254.029 600.374 253.902 599.991 253.898 L 599.991 253.898 C 599.433 253.903 599.111 254.19 598.715 254.725 L 598.715 254.725 C 598.333 255.249 597.993 255.961 597.422 256.51 L 597.422 256.51 C 597.043 256.876 596.511 257.156 595.864 257.151 L 595.864 257.151 C 594.873 257.156 594.227 256.528 593.801 255.919 L 593.801 255.919 C 593.363 255.3 593.024 254.639 592.629 254.273 L 592.629 254.273 C 592.362 254.029 592.122 253.902 591.738 253.898 L 591.738 253.898 C 591.182 253.903 590.86 254.19 590.464 254.725 L 590.464 254.725 C 590.081 255.249 589.741 255.961 589.171 256.51 L 589.171 256.51 C 588.792 256.876 588.259 257.156 587.612 257.151 L 587.612 257.151 C 586.621 257.156 585.976 256.528 585.549 255.919 L 585.549 255.919 C 585.111 255.3 584.771 254.639 584.377 254.273 L 584.377 254.273 C 584.11 254.029 583.869 253.902 583.485 253.898 L 583.485 253.898 C 582.929 253.903 582.608 254.19 582.213 254.725 L 582.213 254.725 C 581.828 255.249 581.49 255.961 580.919 256.51 L 580.919 256.51 C 580.541 256.876 580.007 257.156 579.36 257.151 L 579.36 257.151 C 578.37 257.156 577.724 256.528 577.298 255.919 L 577.298 255.919 C 576.859 255.3 576.52 254.639 576.125 254.273 L 576.125 254.273 C 575.86 254.029 575.618 253.902 575.235 253.898 L 575.235 253.898 C 574.677 253.903 574.356 254.19 573.96 254.725 L 573.96 254.725 C 573.576 255.249 573.238 255.961 572.666 256.51 L 572.666 256.51 C 572.289 256.876 571.756 257.156 571.108 257.151 L 571.108 257.151 C 570.117 257.156 569.471 256.528 569.046 255.919 L 569.046 255.919 C 568.607 255.3 568.269 254.639 567.873 254.273 L 567.873 254.273 C 567.607 254.029 567.366 253.902 566.983 253.898 L 566.983 253.898 C 566.425 253.903 566.104 254.19 565.709 254.725 L 565.709 254.725 C 565.325 255.249 564.986 255.961 564.415 256.51 L 564.415 256.51 C 564.036 256.876 563.504 257.156 562.856 257.151 L 562.856 257.151 C 561.866 257.156 561.22 256.528 560.794 255.919 L 560.794 255.919 C 560.356 255.3 560.018 254.639 559.623 254.273 L 559.623 254.273 C 559.356 254.029 559.115 253.902 558.731 253.898 L 558.731 253.898 C 558.174 253.903 557.853 254.19 557.458 254.725 L 557.458 254.725 C 557.074 255.249 556.735 255.961 556.164 256.51 L 556.164 256.51 C 555.786 256.876 555.254 257.156 554.606 257.151 L 554.606 257.151 C 553.615 257.156 552.969 256.528 552.543 255.919 L 552.543 255.919 C 552.106 255.3 551.766 254.639 551.37 254.273 L 551.37 254.273 C 551.105 254.029 550.863 253.902 550.48 253.898 L 550.48 253.898 C 549.923 253.903 549.601 254.19 549.205 254.725 L 549.205 254.725 C 548.822 255.249 548.484 255.961 547.912 256.51 L 547.912 256.51 C 547.535 256.876 547.002 257.156 546.355 257.151 L 546.355 257.151 C 545.363 257.156 544.718 256.528 544.291 255.919 L 544.291 255.919 C 543.853 255.3 543.515 254.639 543.12 254.273 L 543.12 254.273 C 542.853 254.029 542.611 253.902 542.228 253.898 L 542.228 253.898 C 541.672 253.903 541.35 254.19 540.955 254.725 L 540.955 254.725 C 540.571 255.249 540.232 255.961 539.662 256.51 L 539.662 256.51 C 539.283 256.876 538.751 257.156 538.103 257.151 L 538.103 257.151 C 537.113 257.156 536.466 256.528 536.04 255.919 L 536.04 255.919 C 535.603 255.3 535.264 254.639 534.868 254.273 L 534.868 254.273 C 534.602 254.029 534.361 253.902 533.977 253.898 L 533.977 253.898 C 533.421 253.903 533.1 254.19 532.703 254.725 L 532.703 254.725 C 532.32 255.249 531.982 255.961 531.41 256.51 L 531.41 256.51 C 531.031 256.876 530.5 257.156 529.852 257.151 L 529.852 257.151 C 528.861 257.156 528.216 256.528 527.79 255.919 L 527.79 255.919 C 527.351 255.3 527.013 254.639 526.617 254.273 L 526.617 254.273 C 526.351 254.029 526.11 253.902 525.727 253.898 L 525.727 253.898 C 525.17 253.903 524.85 254.19 524.453 254.725 L 524.453 254.725 C 524.07 255.249 523.732 255.961 523.16 256.51 L 523.16 256.51 C 522.781 256.876 522.249 257.156 521.602 257.151 L 521.602 257.151 C 520.611 257.156 519.966 256.528 519.539 255.919 L 519.539 255.919 C 519.1 255.3 518.763 254.639 518.367 254.273 L 518.367 254.273 C 518.101 254.029 517.86 253.902 517.476 253.898 L 517.476 253.898 C 516.92 253.903 516.599 254.19 516.203 254.725 L 516.203 254.725 C 515.819 255.249 515.481 255.961 514.91 256.51 L 514.91 256.51 C 514.531 256.876 513.998 257.156 513.351 257.151 L 513.351 257.151 C 512.36 257.156 511.715 256.528 511.289 255.919 L 511.289 255.919 C 510.85 255.3 510.513 254.639 510.116 254.273 L 510.116 254.273 C 509.851 254.029 509.61 253.902 509.226 253.898 L 509.226 253.898 C 508.669 253.903 508.348 254.19 507.952 254.725 L 507.952 254.725 C 507.569 255.249 507.23 255.961 506.659 256.51 L 506.659 256.51 C 506.281 256.876 505.749 257.156 505.101 257.151 L 505.101 257.151 C 504.111 257.156 503.464 256.528 503.039 255.919 L 503.039 255.919 C 502.6 255.3 502.262 254.639 501.866 254.273 L 501.866 254.273 C 501.6 254.029 501.359 253.902 500.975 253.898 L 500.975 253.898 C 500.419 253.903 500.098 254.19 499.701 254.725 L 499.701 254.725 C 499.318 255.249 498.98 255.961 498.408 256.51 L 498.408 256.51 C 498.03 256.876 497.497 257.156 496.85 257.151 L 496.85 257.151 C 495.859 257.156 495.213 256.528 494.786 255.919 L 494.786 255.919 C 494.349 255.3 494.01 254.639 493.615 254.273 L 493.615 254.273 C 493.348 254.029 493.107 253.902 492.723 253.898 L 492.723 253.898 C 492.167 253.903 491.846 254.19 491.45 254.725 L 491.45 254.725 C 491.066 255.249 490.727 255.961 490.157 256.51 L 490.157 256.51 C 489.778 256.876 489.246 257.156 488.598 257.151 L 488.598 257.151 C 487.607 257.156 486.961 256.528 486.535 255.919 L 486.535 255.919 C 486.096 255.3 485.759 254.639 485.362 254.273 L 485.362 254.273 C 485.097 254.029 484.856 253.902 484.472 253.898 L 484.472 253.898 C 483.915 253.903 483.594 254.19 483.198 254.725 L 483.198 254.725 C 482.814 255.249 482.476 255.961 481.904 256.51 L 481.904 256.51 C 481.526 256.876 480.994 257.156 480.346 257.151 L 480.346 257.151 C 479.804 257.152 479.06 257.081 478.46 256.512 L 478.46 256.512 C 477.864 255.94 477.522 254.984 477.522 253.447 L 477.522 253.447 C 477.522 250.498 477.522 235.659 477.522 235.659 L 477.522 235.659 L 477.522 226.612 C 477.522 226.611 477.522 211.772 477.522 208.824 L 477.522 208.824 C 477.522 207.287 477.864 206.33 478.46 205.758 L 478.46 205.758 C 479.06 205.189 479.804 205.12 480.346 205.12 L 480.346 205.12 C 481.337 205.115 481.982 205.743 482.408 206.351 L 482.408 206.351 C 482.847 206.97 483.184 207.632 483.58 207.997 L 483.58 207.997 C 483.846 208.241 484.087 208.367 484.471 208.372 L 484.471 208.372 C 485.028 208.367 485.349 208.08 485.745 207.545 L 485.745 207.545 C 486.129 207.021 486.467 206.31 487.039 205.761 L 487.039 205.761 C 487.416 205.396 487.949 205.115 488.597 205.12 L 488.597 205.12 C 489.588 205.115 490.233 205.743 490.659 206.351 L 490.659 206.351 C 491.098 206.97 491.435 207.631 491.832 207.997 L 491.832 207.997 C 492.097 208.241 492.339 208.367 492.722 208.372 L 492.722 208.372 C 493.279 208.367 493.6 208.08 493.996 207.545 L 493.996 207.545 C 494.38 207.021 494.718 206.31 495.29 205.761 L 495.29 205.761 C 495.668 205.396 496.2 205.115 496.848 205.12 L 496.848 205.12 C 497.839 205.115 498.484 205.743 498.91 206.351 L 498.91 206.351 C 499.349 206.97 499.686 207.632 500.083 207.997 L 500.083 207.997 C 500.348 208.241 500.59 208.367 500.973 208.372 L 500.973 208.372 C 501.53 208.367 501.851 208.08 502.247 207.545 L 502.247 207.545 C 502.631 207.021 502.969 206.31 503.541 205.761 L 503.541 205.761 C 503.919 205.396 504.451 205.115 505.099 205.12 L 505.099 205.12 C 506.09 205.115 506.735 205.743 507.16 206.351 L 507.16 206.351 C 507.599 206.97 507.937 207.632 508.333 207.997 L 508.333 207.997 C 508.599 208.241 508.84 208.367 509.223 208.372 L 509.223 208.372 C 509.78 208.367 510.101 208.08 510.497 207.545 L 510.497 207.545 C 510.881 207.021 511.22 206.31 511.79 205.761 L 511.79 205.761 C 512.169 205.396 512.701 205.115 513.348 205.12 L 513.348 205.12 C 514.339 205.115 514.984 205.743 515.411 206.351 L 515.411 206.351 C 515.849 206.97 516.187 207.632 516.583 207.997 L 516.583 207.997 C 516.849 208.241 517.091 208.367 517.474 208.372 L 517.474 208.372 C 518.031 208.367 518.351 208.08 518.747 207.545 L 518.747 207.545 C 519.131 207.021 519.469 206.31 520.04 205.761 L 520.04 205.761 C 520.419 205.396 520.951 205.115 521.599 205.12 L 521.599 205.12 C 522.589 205.115 523.235 205.743 523.661 206.351 L 523.661 206.351 C 524.1 206.97 524.437 207.632 524.834 207.997 L 524.834 207.997 C 525.099 208.241 525.341 208.367 525.724 208.372 L 525.724 208.372 C 526.281 208.367 526.602 208.08 526.997 207.545 L 526.997 207.545 C 527.382 207.021 527.72 206.31 528.29 205.761 L 528.29 205.761 C 528.669 205.396 529.202 205.115 529.849 205.12 L 529.849 205.12 C 530.84 205.115 531.485 205.743 531.912 206.351 L 531.912 206.351 C 532.35 206.97 532.688 207.632 533.084 207.997 L 533.084 207.997 C 533.35 208.241 533.591 208.367 533.974 208.372 L 533.974 208.372 C 534.531 208.367 534.853 208.08 535.249 207.545 L 535.249 207.545 C 535.632 207.021 535.971 206.31 536.542 205.761 L 536.542 205.761 C 536.921 205.396 537.453 205.115 538.101 205.12 L 538.101 205.12 C 539.091 205.115 539.737 205.743 540.163 206.351 L 540.163 206.351 C 540.602 206.97 540.939 207.632 541.335 207.997 L 541.335 207.997 C 541.601 208.241 541.842 208.367 542.226 208.372 L 542.226 208.372 C 542.783 208.367 543.104 208.08 543.5 207.545 L 543.5 207.545 C 543.883 207.021 544.222 206.31 544.794 205.761 L 544.794 205.761 C 545.171 205.396 545.704 205.115 546.352 205.12 L 546.352 205.12 C 547.342 205.115 547.987 205.743 548.413 206.351 L 548.413 206.351 C 548.852 206.97 549.191 207.631 549.586 207.997 L 549.586 207.997 C 549.852 208.241 550.093 208.367 550.478 208.372 L 550.478 208.372 C 551.034 208.367 551.355 208.08 551.751 207.545 L 551.751 207.545 C 552.135 207.021 552.473 206.31 553.045 205.761 L 553.045 205.761 C 553.423 205.396 553.956 205.115 554.603 205.12 L 554.603 205.12 C 555.594 205.115 556.239 205.743 556.664 206.351 L 556.664 206.351 C 557.103 206.97 557.442 207.631 557.837 207.997 L 557.837 207.997 C 558.104 208.241 558.344 208.367 558.729 208.372 L 558.729 208.372 C 559.285 208.367 559.607 208.08 560.002 207.545 L 560.002 207.545 C 560.386 207.021 560.725 206.31 561.295 205.761 L 561.295 205.761 C 561.674 205.396 562.206 205.115 562.854 205.12 L 562.854 205.12 C 563.844 205.115 564.491 205.743 564.916 206.351 L 564.916 206.351 C 565.354 206.97 565.694 207.631 566.088 207.997 L 566.088 207.997 C 566.355 208.241 566.596 208.367 566.98 208.372 L 566.98 208.372 C 567.537 208.367 567.857 208.08 568.253 207.545 L 568.253 207.545 C 568.637 207.021 568.975 206.31 569.547 205.761 L 569.547 205.761 C 569.925 205.396 570.458 205.115 571.106 205.12 L 571.106 205.12 C 572.095 205.115 572.742 205.743 573.168 206.351 L 573.168 206.351 C 573.607 206.97 573.945 207.631 574.339 207.997 L 574.339 207.997 C 574.607 208.241 574.847 208.367 575.232 208.372 L 575.232 208.372 C 575.788 208.367 576.109 208.08 576.506 207.545 L 576.506 207.545 C 576.889 207.021 577.227 206.31 577.799 205.761 L 577.799 205.761 C 578.178 205.396 578.71 205.115 579.358 205.12 L 579.358 205.12 C 580.348 205.115 580.995 205.743 581.42 206.351 L 581.42 206.351 C 581.858 206.97 582.197 207.632 582.592 207.997 L 582.592 207.997 C 582.859 208.241 583.1 208.367 583.482 208.372 L 583.482 208.372 C 584.039 208.367 584.361 208.08 584.757 207.545 L 584.757 207.545 C 585.14 207.021 585.479 206.31 586.051 205.761 L 586.051 205.761 C 586.429 205.396 586.961 205.115 587.61 205.12 L 587.61 205.12 C 588.6 205.115 589.246 205.743 589.672 206.351 L 589.672 206.351 C 590.11 206.97 590.448 207.631 590.845 207.997 L 590.845 207.997 C 591.11 208.241 591.352 208.367 591.736 208.372 L 591.736 208.372 C 592.292 208.367 592.613 208.08 593.009 207.545 L 593.009 207.545 C 593.392 207.021 593.731 206.31 594.302 205.761 L 594.302 205.761 C 594.68 205.396 595.213 205.115 595.861 205.12 L 595.861 205.12 C 596.851 205.115 597.497 205.743 597.923 206.351 L 597.923 206.351 C 598.362 206.97 598.7 207.631 599.096 207.997 L 599.096 207.997 C 599.362 208.241 599.604 208.367 599.988 208.372 L 599.988 208.372 C 600.545 208.367 600.866 208.08 601.261 207.545 L 601.261 207.545 C 601.645 207.021 601.983 206.31 602.555 205.761 L 602.555 205.761 C 602.933 205.396 603.466 205.115 604.115 205.12 L 604.115 205.12 C 605.104 205.115 605.751 205.743 606.176 206.351 L 606.176 206.351 C 606.614 206.97 606.953 207.631 607.348 207.997 L 607.348 207.997 C 607.615 208.241 607.856 208.367 608.24 208.372 L 608.24 208.372 C 608.797 208.367 609.118 208.08 609.514 207.545 L 609.514 207.545 C 609.897 207.021 610.237 206.31 610.809 205.761 L 610.809 205.761 C 611.186 205.396 611.719 205.115 612.367 205.12 L 612.367 205.12 C 613.357 205.115 614.004 205.743 614.429 206.351 L 614.429 206.351 C 614.867 206.97 615.206 207.631 615.602 207.997 L 615.602 207.997 C 615.868 208.241 616.109 208.367 616.493 208.372 L 616.493 208.372 C 617.049 208.367 617.37 208.08 617.766 207.545 L 617.766 207.545 C 618.149 207.021 618.488 206.31 619.06 205.761 L 619.06 205.761 C 619.437 205.396 619.971 205.115 620.618 205.12 L 620.618 205.12 C 621.609 205.115 622.254 205.743 622.68 206.351 L 622.68 206.351 C 623.119 206.97 623.457 207.632 623.853 207.997 L 623.853 207.997 C 624.119 208.241 624.36 208.367 624.744 208.372 L 624.744 208.372 C 625.3 208.367 625.622 208.081 626.018 207.545 L 626.018 207.545 C 626.402 207.021 626.74 206.31 627.312 205.761 L 627.312 205.761 C 627.69 205.396 628.223 205.115 628.871 205.12 L 628.871 205.12 C 629.861 205.115 630.507 205.743 630.934 206.351 L 630.934 206.351 C 631.371 206.97 631.71 207.631 632.105 207.997 L 632.105 207.997 C 632.372 208.241 632.613 208.367 632.997 208.372 L 632.997 208.372 C 633.554 208.367 633.875 208.081 634.27 207.545 L 634.27 207.545 C 634.654 207.021 634.993 206.31 635.564 205.761 L 635.564 205.761 C 635.943 205.396 636.475 205.115 637.123 205.12 L 637.123 205.12 C 638.113 205.115 638.76 205.743 639.185 206.351 L 639.185 206.351 C 639.623 206.97 639.962 207.631 640.358 207.997 L 640.358 207.997 C 640.624 208.241 640.865 208.367 641.249 208.372 L 641.249 208.372 C 641.806 208.367 642.127 208.081 642.523 207.545 L 642.523 207.545 C 642.906 207.021 643.245 206.31 643.818 205.761 L 643.818 205.761 C 644.196 205.396 644.729 205.115 645.377 205.12 L 645.377 205.12 C 646.367 205.115 647.013 205.743 647.439 206.351 L 647.439 206.351 C 647.878 206.97 648.216 207.631 648.612 207.997 L 648.612 207.997 C 648.878 208.241 649.12 208.367 649.504 208.372 L 649.504 208.372 C 650.06 208.367 650.382 208.081 650.777 207.545 L 650.777 207.545 C 651.161 207.021 651.499 206.31 652.071 205.761 L 652.071 205.761 C 652.45 205.396 652.982 205.115 653.631 205.12 L 653.631 205.12 C 654.621 205.115 655.267 205.743 655.694 206.351 L 655.694 206.351 C 656.131 206.97 656.47 207.631 656.867 207.997 L 656.867 207.997 C 657.132 208.241 657.374 208.367 657.757 208.372 L 657.757 208.372 C 658.315 208.367 658.636 208.081 659.032 207.545 L 659.032 207.545 C 659.417 207.021 659.754 206.31 660.327 205.761 L 660.327 205.761 C 660.705 205.396 661.238 205.115 661.886 205.12 L 661.886 205.12 C 662.812 205.116 663.66 205.475 664.235 206.167 L 664.235 206.167 C 664.81 206.856 665.109 207.831 665.109 209.028 L 665.109 209.028 C 665.109 211.264 665.109 229.864 665.109 229.864 L 665.109 229.864 L 665.109 232.405 C 665.109 232.426 665.109 251.007 665.109 253.242 L 665.109 253.242 C 665.109 254.438 664.81 255.413 664.235 256.104 L 664.235 256.104 C 663.66 256.796 662.812 257.156 661.886 257.15 L 661.886 257.15 C 660.895 257.156 660.248 256.528 659.822 255.919 L 659.822 255.919 C 659.384 255.3 659.045 254.638 658.648 254.273 L 658.648 254.273 C 658.383 254.029 658.141 253.902 657.757 253.897 L 657.757 253.897 C 657.2 253.902 656.879 254.19 656.484 254.725 L 656.484 254.725 C 656.1 255.249 655.761 255.96 655.19 256.509 L 655.19 256.509 C 654.815 256.872 654.289 257.15 653.648 257.15 L 653.648 257.15 C 653.645 257.151 653.639 257.151 653.633 257.151 L 653.633 257.151 Z M 651.569 254.158 C 652.007 254.777 652.346 255.439 652.742 255.804 L 652.742 255.804 C 653.007 256.048 653.25 256.175 653.633 256.18 L 653.633 256.18 C 654.19 256.174 654.511 255.887 654.907 255.352 L 654.907 255.352 C 655.291 254.828 655.629 254.117 656.201 253.567 L 656.201 253.567 C 656.579 253.201 657.112 252.922 657.76 252.927 L 657.76 252.927 C 658.75 252.922 659.396 253.549 659.823 254.158 L 659.823 254.158 C 660.261 254.777 660.6 255.439 660.996 255.804 L 660.996 255.804 C 661.263 256.048 661.504 256.175 661.889 256.179 L 661.889 256.179 C 663.229 256.147 664.093 255.331 664.14 253.243 L 664.14 253.243 C 664.14 251.006 664.14 232.406 664.14 232.406 L 664.14 232.406 L 664.14 229.865 C 664.14 229.865 664.14 211.264 664.14 209.028 L 664.14 209.028 C 664.093 206.94 663.229 206.124 661.889 206.092 L 661.889 206.092 C 661.331 206.097 661.01 206.384 660.613 206.919 L 660.613 206.919 C 660.229 207.444 659.891 208.154 659.319 208.703 L 659.319 208.703 C 658.94 209.069 658.408 209.349 657.76 209.344 L 657.76 209.344 C 656.769 209.349 656.124 208.721 655.696 208.113 L 655.696 208.113 C 655.259 207.494 654.92 206.834 654.524 206.468 L 654.524 206.468 C 654.258 206.223 654.016 206.097 653.633 206.092 L 653.633 206.092 C 653.076 206.097 652.754 206.384 652.359 206.919 L 652.359 206.919 C 651.975 207.444 651.636 208.154 651.065 208.703 L 651.065 208.703 C 650.686 209.069 650.154 209.349 649.506 209.344 L 649.506 209.344 C 648.515 209.349 647.869 208.721 647.443 208.113 L 647.443 208.113 C 647.005 207.494 646.666 206.834 646.271 206.468 L 646.271 206.468 C 646.003 206.223 645.763 206.097 645.38 206.092 L 645.38 206.092 C 644.822 206.097 644.5 206.384 644.104 206.919 L 644.104 206.919 C 643.721 207.444 643.382 208.154 642.81 208.703 L 642.81 208.703 C 642.431 209.068 641.899 209.349 641.252 209.344 L 641.252 209.344 C 640.261 209.349 639.616 208.721 639.189 208.113 L 639.189 208.113 C 638.751 207.494 638.412 206.834 638.017 206.468 L 638.017 206.468 C 637.75 206.223 637.509 206.097 637.125 206.092 L 637.125 206.092 C 636.569 206.097 636.247 206.384 635.852 206.919 L 635.852 206.919 C 635.468 207.444 635.129 208.154 634.558 208.703 L 634.558 208.703 C 634.179 209.068 633.647 209.349 632.999 209.344 L 632.999 209.344 C 632.009 209.349 631.363 208.721 630.936 208.113 L 630.936 208.113 C 630.497 207.494 630.16 206.834 629.765 206.468 L 629.765 206.468 C 629.498 206.223 629.257 206.097 628.873 206.092 L 628.873 206.092 C 628.316 206.097 627.995 206.384 627.599 206.919 L 627.599 206.919 C 627.215 207.444 626.877 208.154 626.305 208.703 L 626.305 208.703 C 625.927 209.069 625.394 209.349 624.746 209.344 L 624.746 209.344 C 623.756 209.349 623.11 208.721 622.684 208.113 L 622.684 208.113 C 622.245 207.494 621.907 206.834 621.512 206.468 L 621.512 206.468 C 621.245 206.223 621.004 206.097 620.621 206.092 L 620.621 206.092 C 620.064 206.097 619.742 206.384 619.347 206.919 L 619.347 206.919 C 618.963 207.444 618.625 208.154 618.053 208.703 L 618.053 208.703 C 617.676 209.068 617.143 209.349 616.495 209.344 L 616.495 209.344 C 615.505 209.349 614.86 208.721 614.433 208.113 L 614.433 208.113 C 613.995 207.494 613.656 206.834 613.261 206.468 L 613.261 206.468 C 612.994 206.223 612.753 206.097 612.369 206.092 L 612.369 206.092 C 611.813 206.097 611.491 206.384 611.095 206.919 L 611.095 206.919 C 610.712 207.444 610.372 208.154 609.802 208.703 L 609.802 208.703 C 609.423 209.068 608.89 209.349 608.242 209.344 L 608.242 209.344 C 607.252 209.349 606.605 208.721 606.179 208.113 L 606.179 208.113 C 605.74 207.494 605.403 206.834 605.007 206.468 L 605.007 206.468 C 604.741 206.223 604.5 206.097 604.117 206.092 L 604.117 206.092 C 603.559 206.097 603.237 206.384 602.842 206.919 L 602.842 206.919 C 602.458 207.444 602.12 208.154 601.549 208.703 L 601.549 208.703 C 601.171 209.068 600.638 209.349 599.991 209.344 L 599.991 209.344 C 598.999 209.349 598.353 208.721 597.926 208.113 L 597.926 208.113 C 597.488 207.494 597.15 206.834 596.754 206.468 L 596.754 206.468 C 596.488 206.223 596.246 206.097 595.864 206.092 L 595.864 206.092 C 595.307 206.097 594.985 206.383 594.59 206.919 L 594.59 206.919 C 594.206 207.444 593.868 208.154 593.296 208.703 L 593.296 208.703 C 592.919 209.068 592.386 209.349 591.738 209.344 L 591.738 209.344 C 590.748 209.349 590.101 208.721 589.675 208.113 L 589.675 208.113 C 589.237 207.494 588.899 206.834 588.503 206.468 L 588.503 206.468 C 588.236 206.223 587.995 206.097 587.612 206.092 L 587.612 206.092 C 587.055 206.097 586.734 206.384 586.338 206.919 L 586.338 206.919 C 585.954 207.444 585.615 208.154 585.044 208.703 L 585.044 208.703 C 584.666 209.068 584.133 209.349 583.485 209.344 L 583.485 209.344 C 582.495 209.349 581.849 208.721 581.424 208.113 L 581.424 208.113 C 580.986 207.494 580.647 206.834 580.251 206.468 L 580.251 206.468 C 579.985 206.223 579.744 206.097 579.36 206.092 L 579.36 206.092 C 578.803 206.097 578.482 206.384 578.086 206.919 L 578.086 206.919 C 577.703 207.444 577.364 208.154 576.792 208.703 L 576.792 208.703 C 576.415 209.068 575.882 209.349 575.235 209.344 L 575.235 209.344 C 574.243 209.349 573.598 208.721 573.172 208.113 L 573.172 208.113 C 572.733 207.494 572.395 206.834 571.999 206.468 L 571.999 206.468 C 571.733 206.223 571.492 206.097 571.108 206.092 L 571.108 206.092 C 570.552 206.097 570.23 206.384 569.834 206.919 L 569.834 206.919 C 569.451 207.444 569.113 208.154 568.541 208.703 L 568.541 208.703 C 568.162 209.068 567.63 209.349 566.983 209.344 L 566.983 209.344 C 565.992 209.349 565.346 208.721 564.92 208.113 L 564.92 208.113 C 564.481 207.494 564.143 206.834 563.748 206.468 L 563.748 206.468 C 563.481 206.223 563.24 206.097 562.856 206.092 L 562.856 206.092 C 562.3 206.097 561.979 206.383 561.583 206.919 L 561.583 206.919 C 561.2 207.443 560.862 208.154 560.29 208.703 L 560.29 208.703 C 559.911 209.068 559.379 209.349 558.731 209.344 L 558.731 209.344 C 557.741 209.349 557.094 208.721 556.668 208.113 L 556.668 208.113 C 556.231 207.494 555.892 206.834 555.497 206.468 L 555.497 206.468 C 555.23 206.223 554.989 206.097 554.606 206.092 L 554.606 206.092 C 554.049 206.097 553.728 206.384 553.331 206.919 L 553.331 206.919 C 552.948 207.444 552.61 208.154 552.038 208.703 L 552.038 208.703 C 551.66 209.068 551.128 209.349 550.48 209.344 L 550.48 209.344 C 549.488 209.349 548.843 208.721 548.417 208.113 L 548.417 208.113 C 547.979 207.494 547.64 206.834 547.245 206.468 L 547.245 206.468 C 546.978 206.223 546.737 206.097 546.355 206.092 L 546.355 206.092 C 545.798 206.097 545.477 206.384 545.08 206.919 L 545.08 206.919 C 544.697 207.444 544.359 208.154 543.787 208.703 L 543.787 208.703 C 543.408 209.068 542.876 209.349 542.228 209.344 L 542.228 209.344 C 541.238 209.349 540.592 208.721 540.167 208.113 L 540.167 208.113 C 539.728 207.494 539.39 206.834 538.994 206.468 L 538.994 206.468 C 538.728 206.223 538.486 206.097 538.104 206.092 L 538.104 206.092 C 537.547 206.097 537.225 206.384 536.83 206.919 L 536.83 206.919 C 536.446 207.444 536.107 208.154 535.536 208.703 L 535.536 208.703 C 535.158 209.068 534.625 209.349 533.977 209.344 L 533.977 209.344 C 532.987 209.349 532.341 208.721 531.915 208.113 L 531.915 208.113 C 531.476 207.494 531.139 206.834 530.742 206.468 L 530.742 206.468 C 530.477 206.223 530.236 206.097 529.852 206.092 L 529.852 206.092 C 529.296 206.097 528.975 206.383 528.578 206.919 L 528.578 206.919 C 528.195 207.444 527.857 208.154 527.285 208.703 L 527.285 208.703 C 526.907 209.068 526.374 209.349 525.727 209.344 L 525.727 209.344 C 524.736 209.349 524.091 208.721 523.664 208.113 L 523.664 208.113 C 523.226 207.494 522.888 206.834 522.492 206.468 L 522.492 206.468 C 522.226 206.223 521.984 206.097 521.602 206.092 L 521.602 206.092 C 521.044 206.097 520.724 206.383 520.328 206.919 L 520.328 206.919 C 519.945 207.443 519.606 208.154 519.035 208.703 L 519.035 208.703 C 518.656 209.068 518.124 209.349 517.476 209.344 L 517.476 209.344 C 516.486 209.349 515.84 208.721 515.414 208.113 L 515.414 208.113 C 514.976 207.494 514.638 206.834 514.243 206.468 L 514.243 206.468 C 513.976 206.223 513.735 206.097 513.351 206.092 L 513.351 206.092 C 512.795 206.097 512.474 206.383 512.078 206.919 L 512.078 206.919 C 511.695 207.443 511.356 208.154 510.785 208.703 L 510.785 208.703 C 510.407 209.068 509.875 209.349 509.226 209.344 L 509.226 209.344 C 508.236 209.349 507.59 208.721 507.164 208.113 L 507.164 208.113 C 506.726 207.494 506.388 206.834 505.992 206.468 L 505.992 206.468 C 505.725 206.223 505.485 206.097 505.102 206.092 L 505.102 206.092 C 504.545 206.097 504.224 206.383 503.828 206.919 L 503.828 206.919 C 503.444 207.444 503.105 208.154 502.534 208.703 L 502.534 208.703 C 502.156 209.068 501.623 209.349 500.975 209.344 L 500.975 209.344 C 499.985 209.349 499.34 208.721 498.914 208.113 L 498.914 208.113 C 498.475 207.494 498.137 206.834 497.741 206.468 L 497.741 206.468 C 497.475 206.223 497.233 206.097 496.85 206.092 L 496.85 206.092 C 496.293 206.097 495.972 206.384 495.577 206.919 L 495.577 206.919 C 495.192 207.444 494.854 208.154 494.283 208.703 L 494.283 208.703 C 493.904 209.068 493.371 209.349 492.724 209.344 L 492.724 209.344 C 491.734 209.349 491.088 208.721 490.662 208.113 L 490.662 208.113 C 490.223 207.494 489.884 206.834 489.489 206.468 L 489.489 206.468 C 489.224 206.223 488.982 206.097 488.599 206.092 L 488.599 206.092 C 488.042 206.097 487.721 206.384 487.325 206.919 L 487.325 206.919 C 486.941 207.444 486.603 208.154 486.032 208.703 L 486.032 208.703 C 485.653 209.068 485.12 209.349 484.473 209.344 L 484.473 209.344 C 483.482 209.349 482.836 208.721 482.411 208.113 L 482.411 208.113 C 481.972 207.494 481.633 206.834 481.238 206.468 L 481.238 206.468 C 480.973 206.223 480.731 206.097 480.348 206.092 L 480.348 206.092 C 479.874 206.093 479.448 206.159 479.132 206.462 L 479.132 206.462 C 478.814 206.761 478.496 207.414 478.496 208.824 L 478.496 208.824 C 478.495 211.772 478.495 226.611 478.496 226.612 L 478.496 226.612 L 478.496 235.659 C 478.495 235.676 478.495 250.499 478.496 253.447 L 478.496 253.447 C 478.496 254.857 478.814 255.509 479.132 255.809 L 479.132 255.809 C 479.448 256.113 479.874 256.179 480.348 256.179 L 480.348 256.179 C 480.904 256.174 481.225 255.887 481.622 255.352 L 481.622 255.352 C 482.005 254.828 482.343 254.117 482.915 253.567 L 482.915 253.567 C 483.294 253.201 483.826 252.921 484.473 252.926 L 484.473 252.926 C 485.464 252.921 486.109 253.55 486.536 254.158 L 486.536 254.158 C 486.974 254.776 487.313 255.439 487.708 255.804 L 487.708 255.804 C 487.975 256.048 488.216 256.175 488.6 256.179 L 488.6 256.179 C 489.156 256.174 489.477 255.887 489.873 255.352 L 489.873 255.352 C 490.256 254.828 490.595 254.117 491.166 253.567 L 491.166 253.567 C 491.545 253.201 492.077 252.921 492.725 252.926 L 492.725 252.926 C 493.715 252.921 494.362 253.55 494.788 254.158 L 494.788 254.158 C 495.226 254.776 495.564 255.439 495.96 255.804 L 495.96 255.804 C 496.227 256.048 496.467 256.175 496.851 256.179 L 496.851 256.179 C 497.408 256.174 497.728 255.887 498.125 255.352 L 498.125 255.352 C 498.509 254.828 498.848 254.117 499.418 253.567 L 499.418 253.567 C 499.797 253.201 500.329 252.921 500.976 252.926 L 500.976 252.926 C 501.967 252.921 502.613 253.55 503.04 254.158 L 503.04 254.158 C 503.477 254.776 503.816 255.439 504.211 255.804 L 504.211 255.804 C 504.478 256.048 504.719 256.175 505.103 256.179 L 505.103 256.179 C 505.659 256.174 505.98 255.887 506.375 255.352 L 506.375 255.352 C 506.76 254.828 507.098 254.117 507.668 253.567 L 507.668 253.567 C 508.047 253.201 508.579 252.921 509.227 252.927 L 509.227 252.927 C 510.217 252.921 510.864 253.55 511.289 254.158 L 511.289 254.158 C 511.728 254.776 512.066 255.439 512.462 255.804 L 512.462 255.804 C 512.727 256.048 512.969 256.175 513.352 256.179 L 513.352 256.179 C 513.909 256.174 514.229 255.887 514.625 255.352 L 514.625 255.352 C 515.01 254.828 515.348 254.117 515.918 253.567 L 515.918 253.567 C 516.297 253.201 516.83 252.921 517.477 252.927 L 517.477 252.927 C 518.468 252.921 519.113 253.55 519.54 254.158 L 519.54 254.158 C 519.978 254.776 520.316 255.439 520.712 255.804 L 520.712 255.804 C 520.978 256.048 521.219 256.175 521.602 256.179 L 521.602 256.179 C 522.159 256.174 522.48 255.887 522.876 255.352 L 522.876 255.352 C 523.26 254.828 523.599 254.117 524.169 253.567 L 524.169 253.567 C 524.548 253.201 525.08 252.921 525.728 252.926 L 525.728 252.926 C 526.718 252.921 527.364 253.55 527.79 254.158 L 527.79 254.158 C 528.228 254.776 528.566 255.439 528.963 255.804 L 528.963 255.804 C 529.228 256.048 529.47 256.175 529.853 256.18 L 529.853 256.18 C 530.41 256.174 530.73 255.887 531.127 255.352 L 531.127 255.352 C 531.51 254.828 531.848 254.117 532.42 253.567 L 532.42 253.567 C 532.799 253.201 533.33 252.921 533.978 252.926 L 533.978 252.926 C 534.969 252.921 535.615 253.55 536.041 254.158 L 536.041 254.158 C 536.48 254.776 536.817 255.439 537.214 255.804 L 537.214 255.804 C 537.479 256.048 537.72 256.175 538.105 256.18 L 538.105 256.18 C 538.662 256.174 538.982 255.887 539.378 255.352 L 539.378 255.352 C 539.761 254.828 540.1 254.117 540.671 253.567 L 540.671 253.567 C 541.049 253.201 541.581 252.921 542.229 252.926 L 542.229 252.926 C 543.22 252.921 543.865 253.549 544.291 254.158 L 544.291 254.158 C 544.73 254.776 545.069 255.439 545.464 255.804 L 545.464 255.804 C 545.731 256.048 545.971 256.175 546.356 256.179 L 546.356 256.179 C 546.912 256.174 547.233 255.887 547.628 255.352 L 547.628 255.352 C 548.012 254.828 548.351 254.117 548.921 253.567 L 548.921 253.567 C 549.3 253.201 549.832 252.921 550.481 252.926 L 550.481 252.926 C 551.471 252.921 552.116 253.55 552.543 254.158 L 552.543 254.158 C 552.981 254.776 553.32 255.439 553.715 255.804 L 553.715 255.804 C 553.982 256.048 554.223 256.175 554.607 256.179 L 554.607 256.179 C 555.163 256.174 555.484 255.887 555.879 255.352 L 555.879 255.352 C 556.263 254.828 556.602 254.117 557.173 253.567 L 557.173 253.567 C 557.551 253.201 558.084 252.921 558.732 252.926 L 558.732 252.926 C 559.722 252.921 560.368 253.55 560.795 254.158 L 560.795 254.158 C 561.233 254.776 561.571 255.439 561.966 255.804 L 561.966 255.804 C 562.232 256.048 562.473 256.175 562.857 256.179 L 562.857 256.179 C 563.414 256.174 563.736 255.887 564.13 255.352 L 564.13 255.352 C 564.515 254.828 564.853 254.117 565.425 253.567 L 565.425 253.567 C 565.803 253.201 566.336 252.921 566.984 252.927 L 566.984 252.927 C 567.974 252.921 568.62 253.55 569.046 254.158 L 569.046 254.158 C 569.484 254.777 569.823 255.439 570.218 255.804 L 570.218 255.804 C 570.484 256.048 570.726 256.175 571.109 256.179 L 571.109 256.179 C 571.666 256.174 571.987 255.887 572.383 255.352 L 572.383 255.352 C 572.766 254.828 573.105 254.117 573.676 253.567 L 573.676 253.567 C 574.055 253.201 574.587 252.921 575.236 252.926 L 575.236 252.926 C 576.226 252.921 576.872 253.55 577.298 254.158 L 577.298 254.158 C 577.736 254.777 578.074 255.439 578.47 255.804 L 578.47 255.804 C 578.736 256.048 578.978 256.175 579.361 256.179 L 579.361 256.179 C 579.918 256.174 580.239 255.887 580.635 255.352 L 580.635 255.352 C 581.018 254.828 581.357 254.117 581.929 253.567 L 581.929 253.567 C 582.306 253.201 582.838 252.922 583.486 252.926 L 583.486 252.926 C 584.478 252.922 585.123 253.549 585.549 254.158 L 585.549 254.158 C 585.987 254.777 586.327 255.439 586.722 255.804 L 586.722 255.804 C 586.987 256.048 587.229 256.175 587.613 256.179 L 587.613 256.179 C 588.169 256.174 588.491 255.887 588.887 255.352 L 588.887 255.352 C 589.27 254.828 589.608 254.117 590.181 253.567 L 590.181 253.567 C 590.558 253.201 591.091 252.922 591.739 252.926 L 591.739 252.926 C 592.73 252.922 593.375 253.55 593.802 254.158 L 593.802 254.158 C 594.24 254.777 594.578 255.439 594.973 255.804 L 594.973 255.804 C 595.24 256.048 595.48 256.175 595.865 256.179 L 595.865 256.179 C 596.421 256.174 596.742 255.887 597.138 255.352 L 597.138 255.352 C 597.522 254.828 597.86 254.117 598.432 253.567 L 598.432 253.567 C 598.811 253.201 599.343 252.922 599.992 252.926 L 599.992 252.926 C 600.981 252.922 601.627 253.55 602.053 254.158 L 602.053 254.158 C 602.491 254.777 602.829 255.439 603.225 255.804 L 603.225 255.804 C 603.492 256.048 603.734 256.175 604.118 256.179 L 604.118 256.179 C 604.674 256.174 604.995 255.887 605.39 255.352 L 605.39 255.352 C 605.774 254.828 606.113 254.117 606.685 253.567 L 606.685 253.567 C 607.063 253.201 607.595 252.922 608.243 252.926 L 608.243 252.926 C 609.235 252.922 609.88 253.549 610.306 254.158 L 610.306 254.158 C 610.744 254.777 611.083 255.439 611.479 255.804 L 611.479 255.804 C 611.745 256.048 611.986 256.175 612.37 256.179 L 612.37 256.179 C 612.927 256.174 613.249 255.887 613.644 255.352 L 613.644 255.352 C 614.028 254.828 614.366 254.117 614.938 253.567 L 614.938 253.567 C 615.316 253.201 615.849 252.922 616.496 252.926 L 616.496 252.926 C 617.487 252.922 618.132 253.55 618.559 254.158 L 618.559 254.158 C 618.996 254.777 619.335 255.439 619.73 255.804 L 619.73 255.804 C 619.997 256.048 620.237 256.175 620.622 256.179 L 620.622 256.179 C 621.178 256.174 621.5 255.887 621.895 255.352 L 621.895 255.352 C 622.279 254.828 622.617 254.117 623.188 253.567 L 623.188 253.567 C 623.567 253.201 624.099 252.922 624.747 252.927 L 624.747 252.927 C 625.737 252.922 626.383 253.549 626.81 254.158 L 626.81 254.158 C 627.248 254.777 627.587 255.439 627.982 255.804 L 627.982 255.804 C 628.249 256.048 628.491 256.175 628.874 256.179 L 628.874 256.179 C 629.431 256.174 629.752 255.887 630.149 255.352 L 630.149 255.352 C 630.531 254.828 630.87 254.117 631.441 253.567 L 631.441 253.567 C 631.819 253.201 632.352 252.922 633 252.926 L 633 252.926 C 633.99 252.922 634.637 253.549 635.062 254.158 L 635.062 254.158 C 635.5 254.777 635.84 255.439 636.235 255.804 L 636.235 255.804 C 636.502 256.048 636.742 256.175 637.126 256.179 L 637.126 256.179 C 637.683 256.174 638.005 255.887 638.4 255.352 L 638.4 255.352 C 638.784 254.828 639.123 254.117 639.694 253.567 L 639.694 253.567 C 640.072 253.201 640.605 252.922 641.253 252.926 L 641.253 252.926 C 642.243 252.922 642.888 253.55 643.315 254.158 L 643.315 254.158 C 643.753 254.777 644.092 255.439 644.488 255.804 L 644.488 255.804 C 644.754 256.048 644.996 256.175 645.381 256.179 L 645.381 256.179 C 645.937 256.174 646.258 255.887 646.654 255.352 L 646.654 255.352 C 647.037 254.828 647.376 254.117 647.947 253.567 L 647.947 253.567 C 648.326 253.201 648.859 252.922 649.507 252.927 L 649.507 252.927 C 649.511 252.927 649.515 252.927 649.519 252.927 L 649.519 252.927 C 650.502 252.926 651.143 253.551 651.569 254.158 L 651.569 254.158 Z" style="fill: rgb(30, 30, 30);" transform="matrix(0.258819, 0.965926, -0.965926, 0.258819, 646.707791, -380.535199)"/>
  <path d="M 590.034 351.085 L 590.034 350.114 C 590.73 350.114 591.44 350.126 592.148 350.125 L 592.148 350.125 C 594.662 350.131 597.124 349.953 598.9 348.644 L 598.9 348.644 C 600.672 347.344 601.943 344.863 601.948 339.877 L 601.948 339.877 C 601.948 328.351 601.948 328.351 601.949 328.339 L 601.949 328.339 L 601.949 321.732 C 601.948 321.732 601.948 321.732 601.949 310.197 L 601.949 310.197 C 601.943 305.211 600.672 302.727 598.9 301.428 L 598.9 301.428 C 597.125 300.119 594.661 299.941 592.147 299.945 L 592.147 299.945 C 591.439 299.945 590.73 299.958 590.034 299.958 L 590.034 299.958 L 590.034 298.986 C 590.717 298.986 591.427 298.974 592.147 298.974 L 592.147 298.974 C 594.689 298.978 597.371 299.113 599.474 300.644 L 599.474 300.644 C 601.583 302.186 602.926 305.071 602.921 310.197 L 602.921 310.197 C 602.921 321.732 602.921 321.732 602.921 321.732 L 602.921 321.732 L 602.921 328.339 C 602.921 328.35 602.921 328.35 602.921 339.877 L 602.921 339.877 C 602.927 345.001 601.583 347.885 599.474 349.427 L 599.474 349.427 C 597.371 350.957 594.69 351.093 592.148 351.097 L 592.148 351.097 C 591.429 351.098 590.72 351.085 590.034 351.085 L 590.034 351.085 Z M 590.034 351.085 L 590.034 351.087 L 590.034 351.085 L 590.034 351.085 Z" style="fill: rgb(30, 30, 30);" transform="matrix(0.258818, 0.965926, -0.965926, 0.258818, 756.05857, -335.242758)"/>
  <path d="M 457.412 241.026 C 451.743 241.025 448.52 241.025 448.511 241.026 L 448.511 241.026 L 448.49 241.026 L 448.462 241.023 C 448.408 241.016 447.58 240.928 446.732 240.244 L 446.732 240.244 C 445.88 239.563 445.071 238.264 445.078 236.068 L 445.078 236.068 L 445.078 235.671 L 445.466 235.592 C 447.799 235.118 449.715 234.665 451.246 234.317 L 451.246 234.317 C 451.107 234.315 450.969 234.314 450.829 234.314 L 450.829 234.314 C 448.063 234.314 445.039 234.63 442.529 235.066 L 442.529 235.066 C 440.033 235.491 437.994 236.08 437.387 236.479 L 437.387 236.479 L 436.867 235.658 C 437.781 235.095 439.791 234.563 442.363 234.109 L 442.363 234.109 C 444.924 233.665 447.989 233.343 450.829 233.343 L 450.829 233.343 C 452.354 233.343 453.813 233.436 455.099 233.657 L 455.099 233.657 L 455.016 234.622 C 453.893 234.609 450.812 235.474 446.061 236.461 L 446.061 236.461 C 446.233 239.51 448.046 239.913 448.481 240.043 L 448.481 240.043 C 448.509 240.049 448.527 240.053 448.54 240.054 L 448.54 240.054 C 451.167 240.054 632.306 240.054 658.969 240.054 L 658.969 240.054 C 657.939 239.432 656.965 238.552 656.115 237.534 L 656.115 237.534 C 654.445 235.517 653.251 232.926 653.245 230.477 L 653.245 230.477 L 654.217 230.477 C 654.211 232.602 655.303 235.042 656.862 236.914 L 656.862 236.914 C 658.398 238.777 660.387 240.044 662.02 240.054 L 662.02 240.054 C 662.036 240.054 662.051 240.054 662.066 240.054 L 662.066 240.054 L 662.066 241.026 C 656.196 241.026 497.096 241.026 457.412 241.026 L 457.412 241.026 Z" style="fill: rgb(30, 30, 30);" transform="matrix(0.258819, 0.965926, -0.965926, 0.258819, 634.972395, -356.009407)"/>
  <path d="M 483.225 274.326 C 480.082 274.32 476.542 274.346 473.617 272.116 L 473.617 272.116 C 470.746 269.916 468.64 265.649 468.033 257.452 L 468.033 257.452 C 465.409 257.452 461.066 257.452 461.066 257.452 L 461.066 257.452 L 460.896 257.452 L 460.764 257.346 C 460.571 257.174 456.622 253.87 456.617 234.503 L 456.617 234.503 L 456.617 224.238 C 456.622 204.87 460.57 201.567 460.764 201.394 L 460.764 201.394 L 460.896 201.288 L 461.066 201.288 C 461.072 201.288 465.409 201.288 468.033 201.288 L 468.033 201.288 C 468.64 193.091 470.746 188.825 473.617 186.624 L 473.617 186.624 C 476.542 184.394 480.082 184.419 483.225 184.415 L 483.225 184.415 C 489.526 184.415 659.273 184.415 669.844 184.415 L 669.844 184.415 C 675.198 184.415 678.624 185.625 680.773 187.384 L 680.773 187.384 C 682.923 189.142 683.738 191.421 683.947 193.386 L 683.947 193.386 C 684.357 197.187 685.067 210.491 685.067 222.001 L 685.067 222.001 L 685.069 236.739 C 685.067 248.249 684.357 261.553 683.947 265.354 L 683.947 265.354 C 683.737 267.32 682.923 269.598 680.773 271.356 L 680.773 271.356 C 678.624 273.114 675.198 274.325 669.844 274.325 L 669.844 274.325 C 659.273 274.325 489.526 274.325 483.225 274.326 L 483.225 274.326 Z M 468.486 256.481 L 468.94 256.481 L 468.971 256.935 C 469.527 265.314 471.616 269.367 474.207 271.345 L 474.207 271.345 C 476.795 273.333 480.066 273.359 483.226 273.354 L 483.226 273.354 C 489.527 273.354 659.273 273.354 669.844 273.354 L 669.844 273.354 C 675.061 273.354 678.241 272.176 680.158 270.606 L 680.158 270.606 C 682.073 269.035 682.784 267.045 682.982 265.249 L 682.982 265.249 C 683.384 261.529 684.098 248.202 684.097 236.74 L 684.097 236.74 L 684.097 222.001 C 684.098 210.54 683.384 197.214 682.982 193.492 L 682.982 193.492 C 682.784 191.697 682.074 189.708 680.159 188.137 L 680.159 188.137 C 678.241 186.566 675.061 185.388 669.845 185.388 L 669.845 185.388 C 659.273 185.387 489.527 185.387 483.226 185.388 L 483.226 185.388 C 480.066 185.383 476.795 185.409 474.207 187.397 L 474.207 187.397 C 471.616 189.374 469.527 193.428 468.971 201.807 L 468.971 201.807 L 468.942 202.26 L 468.486 202.26 C 466.253 202.26 462.213 202.26 461.268 202.26 L 461.268 202.26 C 461.266 202.263 461.263 202.265 461.261 202.268 L 461.261 202.268 C 461.172 202.371 461.032 202.548 460.859 202.826 L 460.859 202.826 C 460.514 203.382 460.034 204.34 459.548 205.908 L 459.548 205.908 C 458.577 209.044 457.588 214.616 457.588 224.239 L 457.588 224.239 L 457.588 234.504 C 457.582 251.388 460.642 255.777 461.265 256.482 L 461.265 256.482 C 462.205 256.481 466.249 256.481 468.486 256.481 L 468.486 256.481 Z" style="fill: rgb(30, 30, 30);" transform="matrix(0.258819, 0.965926, -0.965926, 0.258819, 644.652797, -381.387013)"/>
  <path d="M 506.846 149.021 C 506.846 146.198 509.134 143.911 511.957 143.911 L 511.957 143.911 C 514.779 143.911 517.067 146.199 517.067 149.021 L 517.067 149.021 C 517.067 151.844 514.779 154.131 511.957 154.131 L 511.957 154.131 C 509.134 154.131 506.846 151.844 506.846 149.021 L 506.846 149.021 Z M 507.817 149.021 C 507.822 151.308 509.671 153.156 511.956 153.16 L 511.956 153.16 C 514.243 153.156 516.091 151.308 516.095 149.021 L 516.095 149.021 C 516.091 146.735 514.243 144.885 511.956 144.882 L 511.956 144.882 C 509.671 144.886 507.822 146.736 507.817 149.021 L 507.817 149.021 Z" style="fill: rgb(30, 30, 30);" transform="matrix(0.258819, 0.965926, -0.965926, 0.258819, 523.395581, -384.060481)"/>
  <path d="M 558.145 340.474 C 558.145 337.65 560.434 335.363 563.256 335.363 L 563.256 335.363 C 566.078 335.363 568.367 337.65 568.367 340.474 L 568.367 340.474 C 568.367 343.297 566.078 345.584 563.256 345.584 L 563.256 345.584 C 560.434 345.584 558.145 343.297 558.145 340.474 L 558.145 340.474 Z M 559.116 340.474 C 559.121 342.76 560.969 344.609 563.256 344.612 L 563.256 344.612 C 565.542 344.608 567.391 342.759 567.395 340.474 L 567.395 340.474 C 567.391 338.188 565.542 336.339 563.256 336.335 L 563.256 336.335 C 560.969 336.339 559.12 338.188 559.116 340.474 L 559.116 340.474 Z" style="fill: rgb(30, 30, 30);" transform="matrix(0.258819, 0.965926, -0.965926, 0.258819, 746.346684, -291.71106)"/>
  <path d="M 524.789 138.016 L 524.767 137.972 L 524.755 137.927 C 522.685 130.403 521.961 120.779 521.96 110.936 L 521.96 110.936 C 521.963 88.9 525.599 65.814 526.17 63.091 L 526.17 63.091 C 526.526 61.404 526.868 60.328 527.214 59.63 L 527.214 59.63 C 527.552 58.954 527.942 58.531 528.511 58.513 L 528.511 58.513 C 528.654 58.513 528.786 58.546 528.9 58.595 L 528.9 58.595 C 532.96 59.447 534.671 60.747 535.54 63.266 L 535.54 63.266 C 536.419 65.751 536.674 69.322 538.428 75.182 L 538.428 75.182 C 541.88 86.747 551.315 90.322 553.958 91.119 L 553.958 91.119 C 555.289 91.519 556.951 91.892 558.401 92.341 L 558.401 92.341 C 559.849 92.809 561.099 93.264 561.689 94.181 L 561.689 94.181 L 561.69 94.182 L 560.856 94.681 C 560.633 94.243 559.511 93.681 558.113 93.268 L 558.113 93.268 C 556.717 92.835 555.058 92.463 553.679 92.05 L 553.679 92.05 C 550.902 91.221 541.092 87.478 537.497 75.461 L 537.497 75.461 C 535.727 69.531 535.44 65.851 534.625 63.593 L 534.625 63.593 C 533.803 61.38 532.679 60.443 528.645 59.533 L 528.645 59.533 L 528.584 59.52 L 528.529 59.493 C 528.512 59.483 528.512 59.486 528.512 59.485 L 528.512 59.485 L 528.508 59.488 C 528.498 59.493 528.471 59.507 528.431 59.544 L 528.431 59.544 C 528.351 59.615 528.224 59.78 528.084 60.063 L 528.084 60.063 C 527.801 60.628 527.466 61.649 527.122 63.292 L 527.122 63.292 C 526.57 65.908 522.93 89.018 522.932 110.936 L 522.932 110.936 C 522.931 120.709 523.657 130.253 525.68 137.624 L 525.68 137.624 C 526.022 138.261 527.027 139.043 528.853 139.043 L 528.853 139.043 C 530.566 139.046 533.009 138.345 536.2 136.177 L 536.2 136.177 C 539.418 133.994 540.171 130.802 541.545 127.384 L 541.545 127.384 C 542.903 123.984 544.973 120.44 550.811 118.095 L 550.811 118.095 C 551.948 117.709 554.093 117.77 556.223 117.529 L 556.223 117.529 C 558.352 117.312 560.299 116.746 560.844 115.617 L 560.844 115.617 L 561.705 116.068 C 560.758 117.785 558.504 118.236 556.33 118.494 L 556.33 118.494 C 554.157 118.726 551.898 118.72 551.156 119.004 L 551.156 119.004 C 545.59 121.273 543.798 124.438 542.446 127.747 L 542.446 127.747 C 541.108 131.04 540.303 134.555 536.746 136.98 L 536.746 136.98 C 533.448 139.221 530.831 140.014 528.854 140.016 L 528.854 140.016 C 526.702 140.016 525.316 139.065 524.789 138.016 L 524.789 138.016 Z" style="fill: rgb(30, 30, 30);" transform="matrix(0.258819, 0.965926, -0.965926, 0.258819, 497.477996, -449.797088)"/>
  <path d="M 531.625 106.349 C 526.607 101.153 522.391 93.297 522.393 82.762 L 522.393 82.762 C 522.393 80.493 522.589 78.099 523.013 75.581 L 523.013 75.581 C 525.259 62.24 529.482 52.358 533.475 45.583 L 533.475 45.583 C 537.478 38.802 541.204 35.158 542.598 34.197 L 542.598 34.197 C 543.62 33.505 544.331 33.15 545.013 33.137 L 545.013 33.137 C 545.571 33.122 546.038 33.47 546.28 33.891 L 546.28 33.891 C 546.538 34.312 546.692 34.822 546.863 35.413 L 546.863 35.413 L 546.863 35.414 L 545.929 35.68 C 545.767 35.106 545.612 34.652 545.454 34.403 L 545.454 34.403 C 545.279 34.153 545.222 34.123 545.013 34.109 L 545.013 34.109 C 544.734 34.097 544.103 34.333 543.146 34.999 L 543.146 34.999 C 541.965 35.799 538.237 39.407 534.312 46.076 L 534.312 46.076 C 530.377 52.754 526.198 62.522 523.971 75.743 L 523.971 75.743 C 523.556 78.209 523.365 80.549 523.365 82.762 L 523.365 82.762 C 523.367 93.033 527.456 100.626 532.325 105.676 L 532.325 105.676 C 537.178 110.726 542.878 113.19 545.809 113.173 L 545.809 113.173 C 546.048 113.173 546.265 113.158 546.462 113.128 L 546.462 113.128 L 546.602 114.09 C 546.353 114.126 546.088 114.143 545.809 114.144 L 545.809 114.144 C 542.422 114.125 536.658 111.545 531.625 106.349 L 531.625 106.349 Z" style="fill: rgb(30, 30, 30);" transform="matrix(0.258818, 0.965926, -0.965926, 0.258818, 467.38763, -461.830275)"/>
</svg>