<?xml version="1.0" encoding="utf-8"?>
<svg version="1.2" baseProfile="tiny" id="Layer_3" x="0px" y="0px" viewBox="0 0 1280 720" preserveAspectRatio="none" xmlns="http://www.w3.org/2000/svg">
  <polygon points="606.267 294.22 606.267 194.334 608.267 194.334 608.267 294.22 606.267 294.22" transform="matrix(0.258819, 0.965926, -0.965926, 0.258819, 686.048085, -405.521446)" style="fill: rgb(30, 30, 30);"/>
  <polygon points="609.279 304.023 609.279 203.135 611.278 203.135 611.278 304.023 609.279 304.023" transform="matrix(0.258819, 0.965926, -0.965926, 0.258819, 697.265501, -401.535798)" style="fill: rgb(30, 30, 30);"/>
  <polygon points="610.738 310.302 610.738 212.25 612.739 212.25 612.739 310.302 610.738 310.302" transform="matrix(0.258819, 0.965926, -0.965926, 0.258819, 705.782058, -397.241276)" style="fill: rgb(30, 30, 30);"/>
  <polygon points="613.423 321.531 613.423 219.806 615.424 219.806 615.424 321.531 613.423 321.531" transform="matrix(0.258819, 0.965926, -0.965926, 0.258819, 716.844562, -392.873159)" style="fill: rgb(30, 30, 30);"/>
  <polygon points="615.214 327.194 615.214 225.89 617.215 225.89 617.215 327.194 615.214 327.194" transform="matrix(0.258819, 0.965926, -0.965926, 0.258819, 723.845381, -390.249858)" style="fill: rgb(30, 30, 30);"/>
  <polygon points="617.662 335.731 617.662 236.262 619.663 236.262 619.663 335.731 617.662 335.731" transform="matrix(0.258819, 0.965926, -0.965926, 0.258819, 734.792448, -385.606893)" style="fill: rgb(30, 30, 30);"/>
  <polygon points="619.484 343.54 619.484 243.654 621.482 243.654 621.482 343.54 619.484 343.54" transform="matrix(0.258819, 0.965926, -0.965926, 0.258819, 743.483004, -381.7321)" style="fill: rgb(30, 30, 30);"/>
  <polygon points="622.293 353.606 622.293 252.302 624.291 252.302 624.291 353.606 622.293 353.606" transform="matrix(0.258819, 0.965926, -0.965926, 0.258819, 754.603096, -377.510159)" style="fill: rgb(30, 30, 30);"/>
  <polygon points="623.953 359.805 623.953 258.501 625.952 258.501 625.952 359.805 623.953 359.805" transform="matrix(0.258819, 0.965926, -0.965926, 0.258819, 761.821649, -374.519491)" style="fill: rgb(30, 30, 30);"/>
  <polygon points="626.603 368.078 626.603 269.027 628.603 269.027 628.603 368.078 626.603 368.078" transform="matrix(0.258819, 0.965926, -0.965926, 0.258819, 772.865352, -370.112967)" style="fill: rgb(30, 30, 30);"/>
  <polygon points="628.221 376.151 628.221 276.265 630.222 276.265 630.222 376.151 628.221 376.151" transform="matrix(0.258819, 0.965926, -0.965926, 0.258819, 781.459594, -366.002153)" style="fill: rgb(30, 30, 30);"/>
  <polygon points="630.748 385.583 630.748 285.697 632.749 285.697 632.749 385.583 630.748 385.583" transform="matrix(0.258819, 0.965926, -0.965926, 0.258819, 792.443199, -361.452268)" style="fill: rgb(30, 30, 30);"/>
  <polygon points="633.039 392.692 633.039 291.804 635.037 291.804 635.037 392.692 633.039 392.692" transform="matrix(0.258819, 0.965926, -0.965926, 0.258819, 800.522903, -358.765976)" style="fill: rgb(30, 30, 30);"/>
  <polygon points="635.081 401.752 635.081 301.866 637.08 301.866 637.08 401.752 635.081 401.752" transform="matrix(0.258819, 0.965926, -0.965926, 0.258819, 811.272034, -353.652484)" style="fill: rgb(30, 30, 30);"/>
  <polygon points="637.306 409.037 637.306 309.568 639.307 309.568 639.307 409.037 637.306 409.037" transform="matrix(0.258819, 0.965926, -0.965926, 0.258819, 820.160072, -350.248641)" style="fill: rgb(30, 30, 30);"/>
  <polygon points="639.912 419.366 639.912 318.062 641.911 318.062 641.911 419.366 639.912 419.366" transform="matrix(0.258819, 0.965926, -0.965926, 0.258819, 831.18195, -345.789154)" style="fill: rgb(30, 30, 30);"/>
  <polygon points="641.299 425.56 641.299 323.835 643.297 323.835 643.297 425.56 641.299 425.56" transform="matrix(0.258819, 0.965926, -0.965926, 0.258819, 837.989196, -342.693496)" style="fill: rgb(30, 30, 30);"/>
  <polygon points="643.668 433.196 643.668 335.144 645.669 335.144 645.669 433.196 643.668 433.196" transform="matrix(0.258819, 0.965926, -0.965926, 0.258819, 848.895632, -337.962499)" style="fill: rgb(30, 30, 30);"/>
  <polygon points="645.768 441.639 645.768 341.753 647.768 341.753 647.768 441.639 645.768 441.639" transform="matrix(0.258819, 0.965926, -0.965926, 0.258819, 857.721552, -334.412243)" style="fill: rgb(30, 30, 30);"/>
  <polygon points="648.298 451.074 648.298 351.188 650.295 351.188 650.295 451.074 648.298 451.074" transform="matrix(0.258819, 0.965926, -0.965926, 0.258819, 868.709228, -329.861573)" style="fill: rgb(30, 30, 30);"/>
  <polygon points="650.094 458.399 650.094 358.257 652.094 358.257 652.094 458.399 650.094 458.399" transform="matrix(0.258819, 0.965926, -0.965926, 0.258819, 876.99286, -326.263609)" style="fill: rgb(30, 30, 30);"/>
  <polygon points="652.608 465.544 652.608 367.911 654.608 367.911 654.608 465.544 652.608 465.544" transform="matrix(0.258819, 0.965926, -0.965926, 0.258819, 886.96953, -322.466366)" style="fill: rgb(30, 30, 30);"/>
  <polygon points="654.787 474.884 654.787 373.58 656.788 373.58 656.788 474.884 654.787 474.884" transform="matrix(0.258819, 0.965926, -0.965926, 0.258819, 895.834049, -319.009311)" style="fill: rgb(30, 30, 30);"/>
  <polygon points="657.236 483.419 657.236 383.95 659.236 383.95 659.236 483.419 657.236 483.419" transform="matrix(0.258819, 0.965926, -0.965926, 0.258819, 906.778905, -314.368552)" style="fill: rgb(30, 30, 30);"/>
  <polygon points="659.057 491.23 659.057 391.344 661.056 391.344 661.056 491.23 659.057 491.23" transform="matrix(0.258819, 0.965926, -0.965926, 0.258819, 915.471673, -310.492194)" style="fill: rgb(30, 30, 30);"/>
  <polygon points="661.864 501.295 661.864 399.99 663.866 399.99 663.866 501.295 661.864 501.295" transform="matrix(0.258819, 0.965926, -0.965926, 0.258819, 926.589949, -306.270812)" style="fill: rgb(30, 30, 30);"/>
  <polygon points="663.932 506.784 663.932 409.572 665.933 409.572 665.933 506.784 663.932 506.784" transform="matrix(0.258819, 0.965926, -0.965926, 0.258819, 935.401073, -302.682734)" style="fill: rgb(30, 30, 30);"/>
  <polygon points="665.268 517.468 665.268 416.325 667.269 416.325 667.269 517.468 665.268 517.468" transform="matrix(0.258819, 0.965926, -0.965926, 0.258819, 944.812775, -297.511173)" style="fill: rgb(30, 30, 30);"/>
  <polygon points="667.52 523.834 667.52 423.528 669.52 423.528 669.52 523.834 667.52 523.834" transform="matrix(0.258819, 0.965926, -0.965926, 0.258819, 953.035211, -294.657331)" style="fill: rgb(30, 30, 30);"/>
  <polygon points="670.249 533.005 670.249 433.117 672.249 433.117 672.249 533.005 670.249 533.005" transform="matrix(0.258819, 0.965926, -0.965926, 0.258819, 964.118312, -290.341062)" style="fill: rgb(30, 30, 30);"/>
  <polygon points="672.473 540.286 672.473 440.819 674.475 440.819 674.475 540.286 672.473 540.286" transform="matrix(0.258819, 0.965926, -0.965926, 0.258819, 973.003606, -286.937693)" style="fill: rgb(30, 30, 30);"/>
  <polygon points="675.08 550.617 675.08 449.311 677.081 449.311 677.081 550.617 675.08 550.617" transform="matrix(0.258819, 0.965926, -0.965926, 0.258819, 984.025957, -282.479909)" style="fill: rgb(30, 30, 30);"/>
  <polygon points="676.741 556.815 676.741 455.511 678.742 455.511 678.742 556.815 676.741 556.815" transform="matrix(0.258819, 0.965926, -0.965926, 0.258819, 991.244843, -279.489725)" style="fill: rgb(30, 30, 30);"/>
  <polygon points="679.191 565.352 679.191 465.882 681.191 465.882 681.191 565.352 679.191 565.352" transform="matrix(0.258819, 0.965926, -0.965926, 0.258819, 1002.192264, -274.8486)" style="fill: rgb(30, 30, 30);"/>
  <polygon points="681.414 573.051 681.414 473.165 683.415 473.165 683.415 573.051 681.414 573.051" transform="matrix(0.258819, 0.965926, -0.965926, 0.258819, 1011.076027, -271.44411)" style="fill: rgb(30, 30, 30);"/>
  <polygon points="683.536 582.593 683.536 482.706 685.537 482.706 685.537 582.593 683.536 582.593" transform="matrix(0.258819, 0.965926, -0.965926, 0.258819, 1021.865572, -266.421706)" style="fill: rgb(30, 30, 30);"/>
  <polygon points="685.747 589.642 685.747 488.919 687.748 488.919 687.748 589.642 685.747 589.642" transform="matrix(0.258819, 0.965926, -0.965926, 0.258819, 1029.908984, -263.642793)" style="fill: rgb(30, 30, 30);"/>
  <polygon points="688.477 598.81 688.477 498.504 690.478 498.504 690.478 598.81 688.477 598.81" transform="matrix(0.258819, 0.965926, -0.965926, 0.258819, 1040.989429, -259.33012)" style="fill: rgb(30, 30, 30);"/>
  <polygon points="690.358 605.896 690.358 506.007 692.359 506.007 692.359 605.896 690.358 605.896" transform="matrix(0.258819, 0.965926, -0.965926, 0.258819, 1049.429525, -255.740472)" style="fill: rgb(30, 30, 30);"/>
  <polygon points="692.48 615.856 692.48 515.132 694.481 515.132 694.481 615.856 692.48 615.856" transform="matrix(0.258819, 0.965926, -0.965926, 0.258819, 1060.219652, -250.717344)" style="fill: rgb(30, 30, 30);"/>
  <polygon points="694.226 622.482 694.226 522.594 696.226 522.594 696.226 622.482 694.226 622.482" transform="matrix(0.258819, 0.965926, -0.965926, 0.258819, 1068.317304, -247.18261)" style="fill: rgb(30, 30, 30);"/>
  <polygon points="697.034 632.548 697.034 531.242 699.032 531.242 699.032 632.548 697.034 632.548" transform="matrix(0.258819, 0.965926, -0.965926, 0.258819, 1079.43601, -242.958621)" style="fill: rgb(30, 30, 30);"/>
  <polygon points="698.558 638.652 698.558 538.764 700.558 538.764 700.558 638.652 698.558 638.652" transform="matrix(0.258819, 0.965926, -0.965926, 0.258819, 1087.147187, -239.382021)" style="fill: rgb(30, 30, 30);"/>
  <polygon points="701.086 648.084 701.086 548.197 703.086 548.197 703.086 648.084 701.086 648.084" transform="matrix(0.258819, 0.965926, -0.965926, 0.258819, 1098.13234, -234.832545)" style="fill: rgb(30, 30, 30);"/>
  <path d="M 912.299 418.098 C 912.312 413.056 914.77 407.722 918.205 403.571 L 918.205 403.571 C 919.956 401.474 921.961 399.662 924.083 398.382 L 924.083 398.382 C 876.107 398.382 585.417 398.382 509.123 398.382 L 509.123 398.382 C 498.163 398.382 491.644 398.382 490.875 398.382 L 490.875 398.382 C 490.851 398.385 490.809 398.392 490.738 398.405 L 490.738 398.405 C 490.608 398.433 490.41 398.479 490.172 398.56 L 490.172 398.56 C 489.691 398.724 489.042 399.02 488.392 399.546 L 488.392 399.546 C 487.201 400.529 485.934 402.268 485.752 405.78 L 485.752 405.78 C 495.533 407.811 501.879 409.592 504.191 409.565 L 504.191 409.565 L 504.361 411.551 C 501.713 412.007 498.708 412.198 495.568 412.198 L 495.568 412.198 C 489.725 412.198 483.411 411.533 478.141 410.62 L 478.141 410.62 C 472.845 409.686 468.709 408.592 466.828 407.433 L 466.828 407.433 L 467.894 405.743 C 469.145 406.562 473.343 407.774 478.484 408.649 L 478.484 408.649 C 483.65 409.545 489.874 410.198 495.568 410.196 L 495.568 410.196 C 495.852 410.196 496.135 410.194 496.416 410.191 L 496.416 410.191 C 493.268 409.473 489.328 408.542 484.529 407.567 L 484.529 407.567 L 483.729 407.403 L 483.729 406.588 C 483.714 402.067 485.381 399.391 487.135 397.99 L 487.135 397.99 C 488.881 396.581 490.586 396.4 490.696 396.385 L 490.696 396.385 L 490.752 396.381 L 490.798 396.381 C 490.798 396.381 916.645 396.381 930.459 396.381 L 930.459 396.381 L 930.459 398.38 C 930.429 398.38 930.396 398.38 930.36 398.38 L 930.36 398.38 C 927.002 398.401 922.906 401.01 919.744 404.847 L 919.744 404.847 C 916.534 408.698 914.286 413.723 914.297 418.097 L 914.297 418.097 L 914.299 418.097 L 912.299 418.097 L 912.299 418.098 Z" transform="matrix(0.258819, 0.965926, -0.965926, 0.258819, 911.184231, -372.999654)" style="fill: rgb(30, 30, 30);"/>
  <path d="M 665.72 213.989 C 665.722 208.178 670.431 203.469 676.242 203.467 L 676.242 203.467 C 682.053 203.469 686.762 208.178 686.763 213.989 L 686.763 213.989 C 686.761 219.8 682.053 224.509 676.242 224.51 L 676.242 224.51 C 670.431 224.508 665.722 219.8 665.72 213.989 L 665.72 213.989 Z M 667.72 213.989 C 667.728 218.696 671.535 222.5 676.242 222.51 L 676.242 222.51 C 680.949 222.5 684.753 218.695 684.763 213.989 L 684.763 213.989 C 684.753 209.282 680.946 205.475 676.242 205.467 L 676.242 205.467 C 671.535 205.475 667.728 209.282 667.72 213.989 L 667.72 213.989 Z" transform="matrix(0.258819, 0.965926, -0.965926, 0.258819, 707.914159, -494.594878)" style="fill: rgb(30, 30, 30);"/>
  <path d="M 771.333 608.142 C 771.333 602.331 776.042 597.621 781.855 597.621 L 781.855 597.621 C 787.665 597.621 792.376 602.33 792.376 608.142 L 792.376 608.142 C 792.376 613.956 787.665 618.663 781.855 618.663 L 781.855 618.663 C 776.045 618.663 771.333 613.956 771.333 608.142 L 771.333 608.142 Z M 773.332 608.142 C 773.341 612.85 777.147 616.655 781.855 616.663 L 781.855 616.663 C 786.561 616.655 790.368 612.849 790.376 608.142 L 790.376 608.142 C 790.368 603.437 786.561 599.629 781.855 599.621 L 781.855 599.621 C 777.149 599.629 773.339 603.437 773.332 608.142 L 773.332 608.142 Z" transform="matrix(0.258819, 0.965926, -0.965926, 0.258819, 1166.916088, -304.470055)" style="fill: rgb(30, 30, 30);"/>
  <path d="M 824.407 475.056 C 822.366 475.067 821.037 473.774 820.16 472.521 L 820.16 472.521 C 819.257 471.246 818.559 469.884 817.743 469.132 L 817.743 469.132 C 817.196 468.629 816.698 468.368 815.91 468.359 L 815.91 468.359 C 814.762 468.369 814.1 468.961 813.286 470.062 L 813.286 470.062 C 812.496 471.141 811.799 472.606 810.622 473.736 L 810.622 473.736 C 809.844 474.49 808.748 475.067 807.415 475.056 L 807.415 475.056 C 805.374 475.067 804.043 473.774 803.166 472.521 L 803.166 472.521 C 802.263 471.246 801.565 469.884 800.749 469.132 L 800.749 469.132 C 800.202 468.629 799.704 468.368 798.916 468.359 L 798.916 468.359 C 797.77 468.369 797.108 468.961 796.294 470.062 L 796.294 470.062 C 795.504 471.141 794.807 472.606 793.63 473.736 L 793.63 473.736 C 792.85 474.49 791.754 475.067 790.421 475.056 L 790.421 475.056 C 788.382 475.067 787.054 473.774 786.174 472.521 L 786.174 472.521 C 785.273 471.246 784.575 469.884 783.762 469.132 L 783.762 469.132 C 783.213 468.629 782.715 468.368 781.926 468.359 L 781.926 468.359 C 780.78 468.369 780.118 468.961 779.303 470.062 L 779.303 470.062 C 778.514 471.141 777.817 472.606 776.641 473.736 L 776.641 473.736 C 775.863 474.49 774.765 475.067 773.432 475.056 L 773.432 475.056 C 771.393 475.067 770.062 473.774 769.186 472.521 L 769.186 472.521 C 768.282 471.246 767.586 469.884 766.77 469.132 L 766.77 469.132 C 766.223 468.629 765.725 468.368 764.935 468.359 L 764.935 468.359 C 763.788 468.369 763.128 468.961 762.313 470.062 L 762.313 470.062 C 761.524 471.141 760.827 472.606 759.651 473.736 L 759.651 473.736 C 758.873 474.49 757.775 475.067 756.442 475.056 L 756.442 475.056 C 754.403 475.067 753.072 473.774 752.195 472.521 L 752.195 472.521 C 751.294 471.246 750.596 469.884 749.783 469.132 L 749.783 469.132 C 749.234 468.629 748.738 468.368 747.949 468.359 L 747.949 468.359 C 746.803 468.369 746.141 468.961 745.328 470.062 L 745.328 470.062 C 744.537 471.141 743.84 472.606 742.663 473.736 L 742.663 473.736 C 741.884 474.49 740.788 475.067 739.454 475.056 L 739.454 475.056 C 737.416 475.067 736.085 473.774 735.207 472.521 L 735.207 472.521 C 734.304 471.246 733.609 469.884 732.793 469.132 L 732.793 469.132 C 732.244 468.629 731.748 468.368 730.957 468.359 L 730.957 468.359 C 729.811 468.369 729.149 468.961 728.334 470.062 L 728.334 470.062 C 727.545 471.141 726.848 472.606 725.672 473.736 L 725.672 473.736 C 724.894 474.49 723.798 475.067 722.465 475.056 L 722.465 475.056 C 720.424 475.067 719.093 473.774 718.215 472.521 L 718.215 472.521 C 717.313 471.246 716.617 469.884 715.803 469.132 L 715.803 469.132 C 715.254 468.629 714.758 468.368 713.97 468.359 L 713.97 468.359 C 712.822 468.369 712.159 468.961 711.344 470.062 L 711.344 470.062 C 710.556 471.141 709.858 472.606 708.682 473.736 L 708.682 473.736 C 707.902 474.49 706.806 475.067 705.473 475.056 L 705.473 475.056 C 703.434 475.067 702.103 473.774 701.226 472.521 L 701.226 472.521 C 700.325 471.246 699.627 469.884 698.814 469.132 L 698.814 469.132 C 698.265 468.629 697.769 468.368 696.98 468.359 L 696.98 468.359 C 695.834 468.369 695.172 468.961 694.356 470.062 L 694.356 470.062 C 693.568 471.141 692.869 472.606 691.694 473.736 L 691.694 473.736 C 690.915 474.49 689.816 475.067 688.485 475.056 L 688.485 475.056 C 686.444 475.067 685.116 473.774 684.238 472.521 L 684.238 472.521 C 683.335 471.246 682.637 469.884 681.824 469.132 L 681.824 469.132 C 681.275 468.629 680.779 468.368 679.988 468.359 L 679.988 468.359 C 678.843 468.369 678.182 468.961 677.369 470.062 L 677.369 470.062 C 676.578 471.141 675.881 472.606 674.705 473.736 L 674.705 473.736 C 673.927 474.49 672.829 475.067 671.496 475.056 L 671.496 475.056 C 669.457 475.067 668.128 473.774 667.251 472.521 L 667.251 472.521 C 666.348 471.246 665.65 469.884 664.837 469.132 L 664.837 469.132 C 664.29 468.629 663.792 468.368 663.003 468.359 L 663.003 468.359 C 661.855 468.369 661.193 468.961 660.379 470.062 L 660.379 470.062 C 659.589 471.141 658.892 472.606 657.715 473.736 L 657.715 473.736 C 656.938 474.49 655.841 475.067 654.508 475.056 L 654.508 475.056 C 652.467 475.067 651.138 473.774 650.261 472.521 L 650.261 472.521 C 649.358 471.246 648.662 469.884 647.847 469.132 L 647.847 469.132 C 647.3 468.629 646.804 468.368 646.014 468.359 L 646.014 468.359 C 644.867 468.369 644.205 468.961 643.392 470.062 L 643.392 470.062 C 642.601 471.141 641.904 472.606 640.728 473.736 L 640.728 473.736 C 639.948 474.49 638.852 475.067 637.519 475.056 L 637.519 475.056 C 635.48 475.067 634.151 473.774 633.273 472.521 L 633.273 472.521 C 632.371 471.246 631.675 469.884 630.862 469.132 L 630.862 469.132 C 630.312 468.629 629.817 468.368 629.026 468.359 L 629.026 468.359 C 627.88 468.369 627.218 468.961 626.404 470.062 L 626.404 470.062 C 625.614 471.141 624.917 472.606 623.74 473.736 L 623.74 473.736 C 622.963 474.49 621.867 475.067 620.533 475.056 L 620.533 475.056 C 618.494 475.067 617.163 473.774 616.286 472.521 L 616.286 472.521 C 615.386 471.246 614.687 469.884 613.872 469.132 L 613.872 469.132 C 613.325 468.629 612.827 468.368 612.039 468.359 L 612.039 468.359 C 610.892 468.369 610.23 468.961 609.415 470.062 L 609.415 470.062 C 608.626 471.141 607.929 472.606 606.753 473.736 L 606.753 473.736 C 605.975 474.49 604.879 475.067 603.546 475.056 L 603.546 475.056 C 601.505 475.067 600.176 473.774 599.298 472.521 L 599.298 472.521 C 598.396 471.246 597.7 469.884 596.887 469.132 L 596.887 469.132 C 596.337 468.629 595.839 468.368 595.051 468.359 L 595.051 468.359 C 593.905 468.369 593.243 468.961 592.429 470.062 L 592.429 470.062 C 591.638 471.141 590.941 472.606 589.767 473.736 L 589.767 473.736 C 588.987 474.49 587.892 475.067 586.558 475.056 L 586.558 475.056 C 584.519 475.067 583.188 473.774 582.31 472.521 L 582.31 472.521 C 581.41 471.246 580.712 469.884 579.898 469.132 L 579.898 469.132 C 579.349 468.629 578.853 468.368 578.063 468.359 L 578.063 468.359 C 576.918 468.369 576.257 468.961 575.441 470.062 L 575.441 470.062 C 574.652 471.141 573.955 472.606 572.779 473.736 L 572.779 473.736 C 571.999 474.49 570.904 475.067 569.57 475.056 L 569.57 475.056 C 567.531 475.067 566.202 473.774 565.325 472.521 L 565.325 472.521 C 564.422 471.246 563.727 469.884 562.911 469.132 L 562.911 469.132 C 562.364 468.629 561.868 468.368 561.078 468.359 L 561.078 468.359 C 559.932 468.369 559.272 468.961 558.456 470.062 L 558.456 470.062 C 557.668 471.141 556.971 472.606 555.794 473.736 L 555.794 473.736 C 555.014 474.49 553.918 475.067 552.585 475.056 L 552.585 475.056 C 550.546 475.067 549.217 473.774 548.339 472.521 L 548.339 472.521 C 547.436 471.246 546.741 469.884 545.925 469.132 L 545.925 469.132 C 545.378 468.629 544.882 468.368 544.092 468.359 L 544.092 468.359 C 542.947 468.369 542.286 468.961 541.47 470.062 L 541.47 470.062 C 540.681 471.141 539.984 472.606 538.808 473.736 L 538.808 473.736 C 538.028 474.49 536.932 475.067 535.599 475.056 L 535.599 475.056 C 533.56 475.067 532.231 473.774 531.354 472.521 L 531.354 472.521 C 530.451 471.246 529.756 469.884 528.939 469.132 L 528.939 469.132 C 528.393 468.629 527.897 468.368 527.106 468.359 L 527.106 468.359 C 525.961 468.369 525.3 468.961 524.484 470.062 L 524.484 470.062 C 523.695 471.141 522.998 472.606 521.822 473.736 L 521.822 473.736 C 521.044 474.49 519.948 475.067 518.615 475.056 L 518.615 475.056 C 516.576 475.067 515.245 473.774 514.369 472.521 L 514.369 472.521 C 513.466 471.246 512.769 469.884 511.955 469.132 L 511.955 469.132 C 511.406 468.629 510.91 468.368 510.12 468.359 L 510.12 468.359 C 508.975 468.369 508.314 468.961 507.498 470.062 L 507.498 470.062 C 506.709 471.141 506.012 472.606 504.836 473.736 L 504.836 473.736 C 504.056 474.49 502.96 475.067 501.627 475.056 L 501.627 475.056 C 499.588 475.067 498.257 473.774 497.379 472.521 L 497.379 472.521 C 496.478 471.246 495.781 469.884 494.967 469.132 L 494.967 469.132 C 494.418 468.629 493.922 468.368 493.132 468.359 L 493.132 468.359 C 491.986 468.369 491.326 468.961 490.51 470.062 L 490.51 470.062 C 489.719 471.141 489.022 472.606 487.848 473.736 L 487.848 473.736 C 487.068 474.49 485.972 475.067 484.639 475.056 L 484.639 475.056 C 482.598 475.067 481.269 473.774 480.391 472.521 L 480.391 472.521 C 479.488 471.246 478.793 469.884 477.977 469.132 L 477.977 469.132 C 477.43 468.629 476.934 468.368 476.144 468.359 L 476.144 468.359 C 474.998 468.369 474.336 468.961 473.522 470.062 L 473.522 470.062 C 472.731 471.141 472.034 472.606 470.857 473.736 L 470.857 473.736 C 470.079 474.49 468.983 475.067 467.65 475.056 L 467.65 475.056 C 466.533 475.058 465.003 474.913 463.767 473.742 L 463.767 473.742 C 462.539 472.564 461.836 470.595 461.836 467.43 L 461.836 467.43 C 461.836 461.36 461.836 430.809 461.836 430.809 L 461.836 430.809 L 461.836 412.185 C 461.836 412.183 461.836 381.633 461.836 375.563 L 461.836 375.563 C 461.836 372.398 462.54 370.429 463.767 369.251 L 463.767 369.251 C 465.002 368.079 466.533 367.937 467.65 367.937 L 467.65 367.937 C 469.689 367.926 471.018 369.219 471.895 370.472 L 471.895 370.472 C 472.798 371.746 473.493 373.109 474.307 373.861 L 474.307 373.861 C 474.856 374.363 475.352 374.622 476.142 374.632 L 476.142 374.632 C 477.288 374.621 477.95 374.032 478.764 372.93 L 478.764 372.93 C 479.555 371.851 480.252 370.387 481.428 369.257 L 481.428 369.257 C 482.206 368.505 483.302 367.926 484.637 367.937 L 484.637 367.937 C 486.676 367.926 488.005 369.219 488.882 370.472 L 488.882 370.472 C 489.785 371.746 490.48 373.107 491.296 373.861 L 491.296 373.861 C 491.843 374.363 492.341 374.622 493.129 374.632 L 493.129 374.632 C 494.275 374.621 494.937 374.032 495.751 372.93 L 495.751 372.93 C 496.542 371.851 497.239 370.387 498.415 369.257 L 498.415 369.257 C 499.195 368.505 500.29 367.926 501.624 367.937 L 501.624 367.937 C 503.663 367.926 504.992 369.219 505.869 370.472 L 505.869 370.472 C 506.772 371.746 507.467 373.109 508.283 373.861 L 508.283 373.861 C 508.83 374.363 509.328 374.622 510.116 374.632 L 510.116 374.632 C 511.262 374.621 511.924 374.032 512.738 372.93 L 512.738 372.93 C 513.529 371.851 514.226 370.387 515.402 369.257 L 515.402 369.257 C 516.18 368.505 517.276 367.926 518.611 367.937 L 518.611 367.937 C 520.65 367.926 521.979 369.219 522.854 370.472 L 522.854 370.472 C 523.757 371.746 524.454 373.109 525.268 373.861 L 525.268 373.861 C 525.815 374.363 526.313 374.622 527.101 374.632 L 527.101 374.632 C 528.247 374.621 528.909 374.032 529.723 372.93 L 529.723 372.93 C 530.514 371.851 531.211 370.387 532.385 369.257 L 532.385 369.257 C 533.165 368.505 534.261 367.926 535.594 367.937 L 535.594 367.937 C 537.633 367.926 538.962 369.219 539.84 370.472 L 539.84 370.472 C 540.743 371.746 541.438 373.109 542.254 373.861 L 542.254 373.861 C 542.801 374.363 543.299 374.622 544.087 374.632 L 544.087 374.632 C 545.234 374.621 545.893 374.032 546.709 372.93 L 546.709 372.93 C 547.498 371.851 548.195 370.387 549.371 369.257 L 549.371 369.257 C 550.151 368.505 551.246 367.926 552.58 367.937 L 552.58 367.937 C 554.619 367.926 555.948 369.219 556.825 370.472 L 556.825 370.472 C 557.728 371.746 558.423 373.109 559.239 373.861 L 559.239 373.861 C 559.786 374.363 560.284 374.622 561.072 374.632 L 561.072 374.632 C 562.218 374.621 562.88 374.032 563.694 372.93 L 563.694 372.93 C 564.485 371.851 565.182 370.387 566.356 369.257 L 566.356 369.257 C 567.136 368.505 568.232 367.926 569.565 367.937 L 569.565 367.937 C 571.604 367.926 572.933 369.219 573.811 370.472 L 573.811 370.472 C 574.714 371.746 575.409 373.109 576.225 373.861 L 576.225 373.861 C 576.772 374.363 577.268 374.622 578.058 374.632 L 578.058 374.632 C 579.204 374.621 579.866 374.032 580.682 372.93 L 580.682 372.93 C 581.471 371.851 582.168 370.387 583.344 369.257 L 583.344 369.257 C 584.124 368.505 585.22 367.926 586.553 367.937 L 586.553 367.937 C 588.592 367.926 589.921 369.219 590.799 370.472 L 590.799 370.472 C 591.702 371.746 592.397 373.109 593.211 373.861 L 593.211 373.861 C 593.76 374.363 594.255 374.622 595.046 374.632 L 595.046 374.632 C 596.192 374.621 596.854 374.032 597.668 372.93 L 597.668 372.93 C 598.458 371.851 599.155 370.387 600.332 369.257 L 600.332 369.257 C 601.109 368.505 602.206 367.926 603.541 367.937 L 603.541 367.937 C 605.578 367.926 606.906 369.219 607.784 370.472 L 607.784 370.472 C 608.687 371.746 609.385 373.107 610.198 373.861 L 610.198 373.861 C 610.747 374.363 611.243 374.622 612.034 374.632 L 612.034 374.632 C 613.179 374.621 613.84 374.032 614.655 372.93 L 614.655 372.93 C 615.446 371.851 616.143 370.387 617.319 369.257 L 617.319 369.257 C 618.097 368.505 619.195 367.926 620.528 367.937 L 620.528 367.937 C 622.567 367.926 623.896 369.219 624.771 370.472 L 624.771 370.472 C 625.674 371.746 626.372 373.107 627.185 373.861 L 627.185 373.861 C 627.735 374.363 628.23 374.622 629.021 374.632 L 629.021 374.632 C 630.167 374.621 630.829 374.032 631.643 372.93 L 631.643 372.93 C 632.433 371.851 633.13 370.387 634.305 369.257 L 634.305 369.257 C 635.084 368.505 636.181 367.926 637.514 367.937 L 637.514 367.937 C 639.553 367.926 640.884 369.219 641.759 370.472 L 641.759 370.472 C 642.661 371.746 643.36 373.107 644.173 373.861 L 644.173 373.861 C 644.722 374.363 645.218 374.622 646.009 374.632 L 646.009 374.632 C 647.155 374.621 647.815 374.032 648.63 372.93 L 648.63 372.93 C 649.419 371.851 650.116 370.387 651.294 369.257 L 651.294 369.257 C 652.072 368.505 653.168 367.926 654.503 367.937 L 654.503 367.937 C 656.54 367.926 657.871 369.219 658.749 370.472 L 658.749 370.472 C 659.651 371.746 660.347 373.107 661.16 373.861 L 661.16 373.861 C 661.71 374.363 662.205 374.622 662.998 374.632 L 662.998 374.632 C 664.143 374.621 664.804 374.032 665.62 372.93 L 665.62 372.93 C 666.408 371.851 667.105 370.387 668.282 369.257 L 668.282 369.257 C 669.062 368.505 670.158 367.926 671.491 367.937 L 671.491 367.937 C 673.53 367.926 674.861 369.219 675.738 370.472 L 675.738 370.472 C 676.639 371.746 677.337 373.109 678.15 373.861 L 678.15 373.861 C 678.699 374.363 679.195 374.622 679.983 374.632 L 679.983 374.632 C 681.13 374.621 681.792 374.032 682.607 372.93 L 682.607 372.93 C 683.396 371.851 684.093 370.387 685.272 369.257 L 685.272 369.257 C 686.049 368.505 687.145 367.926 688.48 367.937 L 688.48 367.937 C 690.519 367.926 691.848 369.219 692.726 370.472 L 692.726 370.472 C 693.628 371.746 694.324 373.107 695.14 373.861 L 695.14 373.861 C 695.687 374.363 696.185 374.622 696.975 374.632 L 696.975 374.632 C 698.12 374.621 698.781 374.032 699.597 372.93 L 699.597 372.93 C 700.385 371.851 701.082 370.387 702.259 369.257 L 702.259 369.257 C 703.037 368.505 704.133 367.926 705.468 367.937 L 705.468 367.937 C 707.505 367.926 708.836 369.219 709.713 370.472 L 709.713 370.472 C 710.616 371.746 711.312 373.107 712.127 373.861 L 712.127 373.861 C 712.676 374.363 713.174 374.622 713.965 374.632 L 713.965 374.632 C 715.11 374.621 715.771 374.032 716.585 372.93 L 716.585 372.93 C 717.375 371.851 718.072 370.387 719.249 369.257 L 719.249 369.257 C 720.028 368.505 721.124 367.926 722.46 367.937 L 722.46 367.937 C 724.497 367.926 725.828 369.219 726.703 370.472 L 726.703 370.472 C 727.605 371.746 728.303 373.107 729.117 373.861 L 729.117 373.861 C 729.666 374.363 730.162 374.622 730.952 374.632 L 730.952 374.632 C 732.099 374.621 732.761 374.032 733.576 372.93 L 733.576 372.93 C 734.365 371.851 735.064 370.387 736.241 369.257 L 736.241 369.257 C 737.018 368.505 738.116 367.926 739.449 367.937 L 739.449 367.937 C 741.488 367.926 742.819 369.219 743.695 370.472 L 743.695 370.472 C 744.597 371.746 745.295 373.107 746.109 373.861 L 746.109 373.861 C 746.658 374.363 747.154 374.622 747.944 374.632 L 747.944 374.632 C 749.089 374.621 749.75 374.032 750.564 372.93 L 750.564 372.93 C 751.354 371.851 752.051 370.387 753.228 369.257 L 753.228 369.257 C 754.006 368.505 755.104 367.926 756.437 367.937 L 756.437 367.937 C 758.476 367.926 759.805 369.219 760.682 370.472 L 760.682 370.472 C 761.585 371.746 762.281 373.109 763.096 373.861 L 763.096 373.861 C 763.645 374.363 764.141 374.622 764.93 374.632 L 764.93 374.632 C 766.076 374.621 766.738 374.032 767.554 372.93 L 767.554 372.93 C 768.344 371.851 769.041 370.387 770.218 369.257 L 770.218 369.257 C 770.997 368.505 772.093 367.926 773.427 367.937 L 773.427 367.937 C 775.465 367.926 776.796 369.219 777.674 370.472 L 777.674 370.472 C 778.574 371.746 779.272 373.107 780.086 373.861 L 780.086 373.861 C 780.635 374.363 781.131 374.622 781.921 374.632 L 781.921 374.632 C 783.068 374.621 783.73 374.032 784.543 372.93 L 784.543 372.93 C 785.334 371.851 786.031 370.387 787.207 369.257 L 787.207 369.257 C 787.987 368.505 789.083 367.926 790.416 367.937 L 790.416 367.937 C 792.455 367.926 793.786 369.219 794.661 370.472 L 794.661 370.472 C 795.564 371.746 796.262 373.107 797.076 373.861 L 797.076 373.861 C 797.625 374.363 798.121 374.622 798.911 374.632 L 798.911 374.632 C 800.057 374.621 800.719 374.032 801.533 372.93 L 801.533 372.93 C 802.323 371.851 803.02 370.387 804.199 369.257 L 804.199 369.257 C 804.977 368.505 806.075 367.926 807.41 367.937 L 807.41 367.937 C 809.447 367.926 810.778 369.219 811.655 370.472 L 811.655 370.472 C 812.558 371.746 813.254 373.107 814.07 373.861 L 814.07 373.861 C 814.617 374.363 815.115 374.622 815.905 374.632 L 815.905 374.632 C 817.051 374.621 817.713 374.032 818.527 372.93 L 818.527 372.93 C 819.317 371.851 820.014 370.387 821.191 369.257 L 821.191 369.257 C 821.971 368.505 823.067 367.926 824.402 367.937 L 824.402 367.937 C 826.441 367.926 827.77 369.219 828.649 370.472 L 828.649 370.472 C 829.55 371.746 830.248 373.107 831.064 373.861 L 831.064 373.861 C 831.61 374.363 832.109 374.622 832.897 374.632 L 832.897 374.632 C 834.045 374.621 834.707 374.032 835.521 372.93 L 835.521 372.93 C 836.314 371.851 837.008 370.387 838.187 369.257 L 838.187 369.257 C 838.967 368.505 840.063 367.926 841.398 367.937 L 841.398 367.937 C 843.303 367.928 845.05 368.668 846.233 370.092 L 846.233 370.092 C 847.418 371.512 848.032 373.519 848.032 375.982 L 848.032 375.982 C 848.032 380.586 848.032 418.88 848.032 418.88 L 848.032 418.88 L 848.032 424.111 C 848.032 424.153 848.032 462.408 848.032 467.009 L 848.032 467.009 C 848.032 469.472 847.418 471.479 846.233 472.9 L 846.233 472.9 C 845.05 474.326 843.303 475.066 841.398 475.055 L 841.398 475.055 C 839.357 475.066 838.026 473.773 837.149 472.52 L 837.149 472.52 C 836.246 471.245 835.548 469.883 834.732 469.131 L 834.732 469.131 C 834.185 468.628 833.687 468.367 832.897 468.358 L 832.897 468.358 C 831.751 468.368 831.089 468.96 830.275 470.061 L 830.275 470.061 C 829.485 471.14 828.788 472.605 827.611 473.735 L 827.611 473.735 C 826.839 474.482 825.756 475.055 824.438 475.055 L 824.438 475.055 C 824.431 475.056 824.419 475.056 824.407 475.056 L 824.407 475.056 Z M 820.157 468.895 C 821.058 470.168 821.756 471.532 822.572 472.284 L 822.572 472.284 C 823.118 472.786 823.617 473.047 824.407 473.057 L 824.407 473.057 C 825.553 473.046 826.215 472.455 827.029 471.353 L 827.029 471.353 C 827.819 470.275 828.516 468.81 829.693 467.678 L 829.693 467.678 C 830.471 466.925 831.569 466.349 832.902 466.36 L 832.902 466.36 C 834.941 466.349 836.272 467.64 837.151 468.895 L 837.151 468.895 C 838.052 470.168 838.75 471.532 839.566 472.284 L 839.566 472.284 C 840.115 472.786 840.611 473.047 841.403 473.055 L 841.403 473.055 C 844.163 472.99 845.941 471.309 846.037 467.01 L 846.037 467.01 C 846.037 462.406 846.037 424.112 846.037 424.112 L 846.037 424.112 L 846.037 418.881 C 846.037 418.881 846.037 380.587 846.037 375.983 L 846.037 375.983 C 845.941 371.685 844.163 370.004 841.403 369.938 L 841.403 369.938 C 840.255 369.949 839.593 370.54 838.777 371.64 L 838.777 371.64 C 837.987 372.721 837.29 374.183 836.113 375.313 L 836.113 375.313 C 835.333 376.068 834.237 376.644 832.902 376.634 L 832.902 376.634 C 830.863 376.644 829.534 375.351 828.654 374.099 L 828.654 374.099 C 827.754 372.825 827.056 371.465 826.24 370.712 L 826.24 370.712 C 825.693 370.208 825.195 369.949 824.407 369.938 L 824.407 369.938 C 823.259 369.949 822.597 370.54 821.783 371.64 L 821.783 371.64 C 820.993 372.721 820.296 374.183 819.119 375.313 L 819.119 375.313 C 818.339 376.068 817.243 376.644 815.91 376.634 L 815.91 376.634 C 813.869 376.644 812.54 375.351 811.663 374.099 L 811.663 374.099 C 810.76 372.825 810.064 371.465 809.249 370.712 L 809.249 370.712 C 808.699 370.208 808.204 369.949 807.415 369.938 L 807.415 369.938 C 806.267 369.949 805.603 370.54 804.789 371.64 L 804.789 371.64 C 803.999 372.721 803.302 374.183 802.125 375.313 L 802.125 375.313 C 801.345 376.065 800.249 376.644 798.916 376.634 L 798.916 376.634 C 796.877 376.644 795.548 375.351 794.669 374.099 L 794.669 374.099 C 793.768 372.825 793.07 371.465 792.257 370.712 L 792.257 370.712 C 791.708 370.208 791.212 369.949 790.421 369.938 L 790.421 369.938 C 789.275 369.949 788.613 370.54 787.8 371.64 L 787.8 371.64 C 787.009 372.721 786.312 374.183 785.135 375.313 L 785.135 375.313 C 784.356 376.065 783.26 376.644 781.926 376.634 L 781.926 376.634 C 779.888 376.644 778.557 375.351 777.679 374.099 L 777.679 374.099 C 776.776 372.825 776.081 371.465 775.267 370.712 L 775.267 370.712 C 774.718 370.208 774.222 369.949 773.432 369.938 L 773.432 369.938 C 772.285 369.949 771.623 370.54 770.808 371.64 L 770.808 371.64 C 770.019 372.721 769.322 374.183 768.144 375.313 L 768.144 375.313 C 767.366 376.068 766.27 376.644 764.935 376.634 L 764.935 376.634 C 762.896 376.644 761.567 375.351 760.689 374.099 L 760.689 374.099 C 759.787 372.825 759.091 371.465 758.277 370.712 L 758.277 370.712 C 757.728 370.208 757.232 369.949 756.442 369.938 L 756.442 369.938 C 755.296 369.949 754.634 370.54 753.82 371.64 L 753.82 371.64 C 753.03 372.721 752.333 374.183 751.156 375.313 L 751.156 375.313 C 750.379 376.065 749.282 376.644 747.949 376.634 L 747.949 376.634 C 745.91 376.644 744.582 375.351 743.702 374.099 L 743.702 374.099 C 742.801 372.825 742.103 371.465 741.29 370.712 L 741.29 370.712 C 740.741 370.208 740.245 369.949 739.454 369.938 L 739.454 369.938 C 738.308 369.949 737.646 370.54 736.831 371.64 L 736.831 371.64 C 736.042 372.721 735.343 374.183 734.169 375.313 L 734.169 375.313 C 733.389 376.065 732.291 376.644 730.957 376.634 L 730.957 376.634 C 728.919 376.644 727.588 375.351 726.71 374.099 L 726.71 374.099 C 725.807 372.825 725.112 371.465 724.298 370.712 L 724.298 370.712 C 723.749 370.208 723.253 369.949 722.465 369.938 L 722.465 369.938 C 721.316 369.949 720.654 370.54 719.839 371.64 L 719.839 371.64 C 719.05 372.721 718.353 374.183 717.177 375.313 L 717.177 375.313 C 716.399 376.065 715.303 376.644 713.97 376.634 L 713.97 376.634 C 711.929 376.644 710.598 375.351 709.72 374.099 L 709.72 374.099 C 708.818 372.825 708.122 371.465 707.306 370.712 L 707.306 370.712 C 706.759 370.208 706.261 369.949 705.473 369.938 L 705.473 369.938 C 704.327 369.949 703.665 370.538 702.851 371.64 L 702.851 371.64 C 702.061 372.721 701.364 374.183 700.187 375.313 L 700.187 375.313 C 699.41 376.065 698.313 376.644 696.98 376.634 L 696.98 376.634 C 694.941 376.644 693.61 375.351 692.733 374.099 L 692.733 374.099 C 691.83 372.825 691.134 371.465 690.319 370.712 L 690.319 370.712 C 689.77 370.208 689.274 369.949 688.485 369.938 L 688.485 369.938 C 687.339 369.949 686.677 370.54 685.862 371.64 L 685.862 371.64 C 685.071 372.721 684.374 374.183 683.197 375.313 L 683.197 375.313 C 682.42 376.065 681.322 376.644 679.988 376.634 L 679.988 376.634 C 677.95 376.644 676.621 375.351 675.745 374.099 L 675.745 374.099 C 674.843 372.825 674.145 371.465 673.331 370.712 L 673.331 370.712 C 672.782 370.208 672.286 369.949 671.496 369.938 L 671.496 369.938 C 670.35 369.949 669.688 370.54 668.874 371.64 L 668.874 371.64 C 668.084 372.721 667.386 374.183 666.21 375.313 L 666.21 375.313 C 665.432 376.065 664.336 376.644 663.003 376.634 L 663.003 376.634 C 660.962 376.644 659.633 375.351 658.756 374.099 L 658.756 374.099 C 657.853 372.825 657.157 371.465 656.342 370.712 L 656.342 370.712 C 655.793 370.208 655.297 369.949 654.508 369.938 L 654.508 369.938 C 653.362 369.949 652.7 370.54 651.884 371.64 L 651.884 371.64 C 651.096 372.721 650.399 374.183 649.222 375.313 L 649.222 375.313 C 648.443 376.065 647.347 376.644 646.014 376.634 L 646.014 376.634 C 643.975 376.644 642.644 375.351 641.768 374.099 L 641.768 374.099 C 640.864 372.825 640.168 371.465 639.354 370.712 L 639.354 370.712 C 638.805 370.208 638.309 369.949 637.519 369.938 L 637.519 369.938 C 636.373 369.949 635.713 370.538 634.897 371.64 L 634.897 371.64 C 634.109 372.719 633.412 374.183 632.235 375.313 L 632.235 375.313 C 631.455 376.065 630.359 376.644 629.026 376.634 L 629.026 376.634 C 626.987 376.644 625.656 375.351 624.779 374.099 L 624.779 374.099 C 623.878 372.825 623.18 371.465 622.367 370.712 L 622.367 370.712 C 621.818 370.208 621.322 369.949 620.533 369.938 L 620.533 369.938 C 619.387 369.949 618.725 370.54 617.909 371.64 L 617.909 371.64 C 617.121 372.721 616.424 374.183 615.247 375.313 L 615.247 375.313 C 614.468 376.065 613.372 376.644 612.039 376.634 L 612.039 376.634 C 609.997 376.644 608.669 375.351 607.791 374.099 L 607.791 374.099 C 606.889 372.825 606.193 371.465 605.379 370.712 L 605.379 370.712 C 604.83 370.208 604.334 369.949 603.546 369.938 L 603.546 369.938 C 602.4 369.949 601.738 370.54 600.922 371.64 L 600.922 371.64 C 600.134 372.721 599.437 374.183 598.26 375.313 L 598.26 375.313 C 597.48 376.065 596.384 376.644 595.051 376.634 L 595.051 376.634 C 593.012 376.644 591.681 375.351 590.806 374.099 L 590.806 374.099 C 589.903 372.825 589.208 371.465 588.392 370.712 L 588.392 370.712 C 587.845 370.208 587.347 369.949 586.559 369.938 L 586.559 369.938 C 585.413 369.949 584.751 370.54 583.937 371.64 L 583.937 371.64 C 583.146 372.721 582.449 374.183 581.272 375.313 L 581.272 375.313 C 580.494 376.065 579.397 376.644 578.064 376.634 L 578.064 376.634 C 576.025 376.644 574.696 375.351 573.818 374.099 L 573.818 374.099 C 572.915 372.825 572.22 371.465 571.404 370.712 L 571.404 370.712 C 570.857 370.208 570.361 369.949 569.571 369.938 L 569.571 369.938 C 568.426 369.949 567.765 370.538 566.949 371.64 L 566.949 371.64 C 566.16 372.721 565.463 374.183 564.287 375.313 L 564.287 375.313 C 563.507 376.065 562.411 376.644 561.078 376.634 L 561.078 376.634 C 559.039 376.644 557.71 375.351 556.832 374.099 L 556.832 374.099 C 555.929 372.825 555.234 371.465 554.418 370.712 L 554.418 370.712 C 553.871 370.208 553.373 369.949 552.585 369.938 L 552.585 369.938 C 551.438 369.949 550.779 370.538 549.963 371.64 L 549.963 371.64 C 549.174 372.719 548.477 374.183 547.301 375.313 L 547.301 375.313 C 546.521 376.065 545.426 376.644 544.092 376.634 L 544.092 376.634 C 542.053 376.644 540.724 375.351 539.847 374.099 L 539.847 374.099 C 538.944 372.825 538.249 371.465 537.435 370.712 L 537.435 370.712 C 536.886 370.208 536.39 369.949 535.6 369.938 L 535.6 369.938 C 534.454 369.949 533.794 370.538 532.978 371.64 L 532.978 371.64 C 532.189 372.719 531.492 374.183 530.316 375.313 L 530.316 375.313 C 529.538 376.065 528.442 376.644 527.107 376.634 L 527.107 376.634 C 525.068 376.644 523.739 375.351 522.861 374.099 L 522.861 374.099 C 521.96 372.825 521.263 371.465 520.449 370.712 L 520.449 370.712 C 519.9 370.208 519.404 369.949 518.616 369.938 L 518.616 369.938 C 517.469 369.949 516.808 370.538 515.994 371.64 L 515.994 371.64 C 515.203 372.721 514.506 374.183 513.33 375.313 L 513.33 375.313 C 512.552 376.065 511.454 376.644 510.121 376.634 L 510.121 376.634 C 508.082 376.644 506.753 375.351 505.876 374.099 L 505.876 374.099 C 504.973 372.825 504.278 371.465 503.461 370.712 L 503.461 370.712 C 502.915 370.208 502.417 369.949 501.628 369.938 L 501.628 369.938 C 500.481 369.949 499.82 370.54 499.006 371.64 L 499.006 371.64 C 498.215 372.721 497.518 374.183 496.342 375.313 L 496.342 375.313 C 495.562 376.065 494.466 376.644 493.133 376.634 L 493.133 376.634 C 491.094 376.644 489.765 375.351 488.888 374.099 L 488.888 374.099 C 487.985 372.825 487.287 371.465 486.474 370.712 L 486.474 370.712 C 485.927 370.208 485.429 369.949 484.641 369.938 L 484.641 369.938 C 483.494 369.949 482.833 370.54 482.017 371.64 L 482.017 371.64 C 481.228 372.721 480.531 374.183 479.355 375.313 L 479.355 375.313 C 478.575 376.065 477.479 376.644 476.146 376.634 L 476.146 376.634 C 474.107 376.644 472.776 375.351 471.901 374.099 L 471.901 374.099 C 470.998 372.825 470.3 371.465 469.487 370.712 L 469.487 370.712 C 468.94 370.208 468.442 369.949 467.654 369.938 L 467.654 369.938 C 466.677 369.94 465.8 370.076 465.151 370.699 L 465.151 370.699 C 464.496 371.316 463.841 372.659 463.841 375.563 L 463.841 375.563 C 463.839 381.633 463.839 412.183 463.841 412.185 L 463.841 412.185 L 463.841 430.809 C 463.839 430.845 463.839 461.362 463.841 467.43 L 463.841 467.43 C 463.841 470.333 464.496 471.677 465.151 472.294 L 465.151 472.294 C 465.802 472.919 466.677 473.055 467.654 473.055 L 467.654 473.055 C 468.799 473.046 469.46 472.455 470.276 471.353 L 470.276 471.353 C 471.065 470.275 471.762 468.81 472.938 467.678 L 472.938 467.678 C 473.718 466.925 474.814 466.349 476.147 466.358 L 476.147 466.358 C 478.186 466.349 479.515 467.642 480.393 468.895 L 480.393 468.895 C 481.296 470.168 481.993 471.532 482.807 472.284 L 482.807 472.284 C 483.356 472.786 483.852 473.047 484.642 473.055 L 484.642 473.055 C 485.787 473.046 486.448 472.455 487.264 471.353 L 487.264 471.353 C 488.053 470.275 488.75 468.81 489.926 467.678 L 489.926 467.678 C 490.706 466.925 491.802 466.349 493.135 466.358 L 493.135 466.358 C 495.174 466.349 496.505 467.642 497.383 468.895 L 497.383 468.895 C 498.284 470.168 498.981 471.532 499.795 472.284 L 499.795 472.284 C 500.344 472.786 500.84 473.047 501.63 473.055 L 501.63 473.055 C 502.776 473.046 503.436 472.455 504.252 471.353 L 504.252 471.353 C 505.043 470.275 505.74 468.81 506.914 467.678 L 506.914 467.678 C 507.694 466.925 508.79 466.349 510.123 466.358 L 510.123 466.358 C 512.162 466.349 513.493 467.642 514.371 468.895 L 514.371 468.895 C 515.272 470.168 515.969 471.532 516.783 472.284 L 516.783 472.284 C 517.332 472.786 517.828 473.047 518.618 473.055 L 518.618 473.055 C 519.763 473.046 520.424 472.455 521.238 471.353 L 521.238 471.353 C 522.029 470.275 522.726 468.81 523.9 467.678 L 523.9 467.678 C 524.68 466.925 525.775 466.349 527.109 466.36 L 527.109 466.36 C 529.148 466.349 530.479 467.642 531.354 468.895 L 531.354 468.895 C 532.257 470.168 532.954 471.532 533.768 472.284 L 533.768 472.284 C 534.315 472.786 534.813 473.047 535.601 473.055 L 535.601 473.055 C 536.747 473.046 537.407 472.455 538.223 471.353 L 538.223 471.353 C 539.014 470.275 539.711 468.81 540.885 467.678 L 540.885 467.678 C 541.665 466.925 542.761 466.349 544.094 466.36 L 544.094 466.36 C 546.133 466.349 547.462 467.642 548.34 468.895 L 548.34 468.895 C 549.243 470.168 549.938 471.532 550.754 472.284 L 550.754 472.284 C 551.301 472.786 551.797 473.047 552.587 473.055 L 552.587 473.055 C 553.733 473.046 554.393 472.455 555.209 471.353 L 555.209 471.353 C 556 470.275 556.697 468.81 557.871 467.678 L 557.871 467.678 C 558.651 466.925 559.747 466.349 561.08 466.358 L 561.08 466.358 C 563.119 466.349 564.448 467.642 565.325 468.895 L 565.325 468.895 C 566.228 470.168 566.923 471.532 567.74 472.284 L 567.74 472.284 C 568.286 472.786 568.785 473.047 569.573 473.057 L 569.573 473.057 C 570.72 473.046 571.379 472.455 572.195 471.353 L 572.195 471.353 C 572.984 470.275 573.681 468.81 574.857 467.678 L 574.857 467.678 C 575.637 466.925 576.732 466.349 578.066 466.358 L 578.066 466.358 C 580.105 466.349 581.436 467.642 582.313 468.895 L 582.313 468.895 C 583.216 470.168 583.911 471.532 584.728 472.284 L 584.728 472.284 C 585.274 472.786 585.77 473.047 586.561 473.057 L 586.561 473.057 C 587.708 473.046 588.367 472.455 589.183 471.353 L 589.183 471.353 C 589.972 470.275 590.669 468.81 591.845 467.678 L 591.845 467.678 C 592.623 466.925 593.719 466.349 595.053 466.358 L 595.053 466.358 C 597.092 466.349 598.421 467.64 599.298 468.895 L 599.298 468.895 C 600.201 470.168 600.899 471.532 601.712 472.284 L 601.712 472.284 C 602.261 472.786 602.757 473.047 603.548 473.055 L 603.548 473.055 C 604.693 473.046 605.354 472.455 606.167 471.353 L 606.167 471.353 C 606.958 470.275 607.655 468.81 608.829 467.678 L 608.829 467.678 C 609.609 466.925 610.705 466.349 612.041 466.358 L 612.041 466.358 C 614.079 466.349 615.408 467.642 616.286 468.895 L 616.286 468.895 C 617.188 470.168 617.886 471.532 618.7 472.284 L 618.7 472.284 C 619.249 472.786 619.745 473.047 620.535 473.055 L 620.535 473.055 C 621.68 473.046 622.342 472.455 623.155 471.353 L 623.155 471.353 C 623.945 470.275 624.643 468.81 625.819 467.678 L 625.819 467.678 C 626.597 466.925 627.693 466.349 629.028 466.358 L 629.028 466.358 C 631.067 466.349 632.396 467.642 633.275 468.895 L 633.275 468.895 C 634.176 470.168 634.872 471.532 635.687 472.284 L 635.687 472.284 C 636.234 472.786 636.73 473.047 637.521 473.055 L 637.521 473.055 C 638.667 473.046 639.329 472.455 640.142 471.353 L 640.142 471.353 C 640.933 470.275 641.63 468.81 642.807 467.678 L 642.807 467.678 C 643.586 466.925 644.682 466.349 646.016 466.36 L 646.016 466.36 C 648.054 466.349 649.385 467.642 650.261 468.895 L 650.261 468.895 C 651.163 470.168 651.861 471.532 652.675 472.284 L 652.675 472.284 C 653.222 472.786 653.72 473.047 654.51 473.055 L 654.51 473.055 C 655.655 473.046 656.316 472.455 657.132 471.353 L 657.132 471.353 C 657.92 470.275 658.618 468.81 659.794 467.678 L 659.794 467.678 C 660.574 466.925 661.67 466.349 663.005 466.358 L 663.005 466.358 C 665.044 466.349 666.373 467.642 667.25 468.895 L 667.25 468.895 C 668.153 470.168 668.849 471.532 669.664 472.284 L 669.664 472.284 C 670.211 472.786 670.709 473.047 671.498 473.055 L 671.498 473.055 C 672.644 473.046 673.306 472.455 674.12 471.353 L 674.12 471.353 C 674.91 470.275 675.607 468.81 676.784 467.678 L 676.784 467.678 C 677.561 466.925 678.657 466.349 679.99 466.358 L 679.99 466.358 C 682.032 466.349 683.36 467.64 684.238 468.895 L 684.238 468.895 C 685.14 470.168 685.839 471.532 686.652 472.284 L 686.652 472.284 C 687.199 472.786 687.697 473.047 688.487 473.055 L 688.487 473.055 C 689.632 473.046 690.294 472.455 691.109 471.353 L 691.109 471.353 C 691.898 470.275 692.595 468.81 693.773 467.678 L 693.773 467.678 C 694.551 466.925 695.647 466.349 696.982 466.358 L 696.982 466.358 C 699.021 466.349 700.35 467.642 701.228 468.895 L 701.228 468.895 C 702.13 470.168 702.826 471.532 703.639 472.284 L 703.639 472.284 C 704.189 472.786 704.684 473.047 705.475 473.055 L 705.475 473.055 C 706.62 473.046 707.281 472.455 708.097 471.353 L 708.097 471.353 C 708.887 470.275 709.584 468.81 710.761 467.678 L 710.761 467.678 C 711.541 466.925 712.637 466.349 713.972 466.358 L 713.972 466.358 C 716.009 466.349 717.338 467.642 718.215 468.895 L 718.215 468.895 C 719.118 470.168 719.813 471.532 720.629 472.284 L 720.629 472.284 C 721.178 472.786 721.676 473.047 722.467 473.055 L 722.467 473.055 C 723.612 473.046 724.273 472.455 725.086 471.353 L 725.086 471.353 C 725.877 470.275 726.574 468.81 727.751 467.678 L 727.751 467.678 C 728.53 466.925 729.626 466.349 730.959 466.358 L 730.959 466.358 C 733.001 466.349 734.329 467.64 735.207 468.895 L 735.207 468.895 C 736.109 470.168 736.807 471.532 737.621 472.284 L 737.621 472.284 C 738.17 472.786 738.666 473.047 739.456 473.055 L 739.456 473.055 C 740.603 473.046 741.265 472.455 742.078 471.353 L 742.078 471.353 C 742.869 470.275 743.566 468.81 744.742 467.678 L 744.742 467.678 C 745.52 466.925 746.618 466.349 747.951 466.358 L 747.951 466.358 C 749.99 466.349 751.319 467.642 752.197 468.895 L 752.197 468.895 C 753.097 470.168 753.795 471.532 754.608 472.284 L 754.608 472.284 C 755.158 472.786 755.653 473.047 756.444 473.055 L 756.444 473.055 C 757.59 473.046 758.252 472.455 759.066 471.353 L 759.066 471.353 C 759.856 470.275 760.553 468.81 761.728 467.678 L 761.728 467.678 C 762.507 466.925 763.603 466.349 764.937 466.36 L 764.937 466.36 C 766.975 466.349 768.306 467.64 769.184 468.895 L 769.184 468.895 C 770.087 470.168 770.785 471.532 771.598 472.284 L 771.598 472.284 C 772.147 472.786 772.645 473.047 773.434 473.055 L 773.434 473.055 C 774.58 473.046 775.242 472.455 776.058 471.353 L 776.058 471.353 C 776.846 470.275 777.543 468.81 778.719 467.678 L 778.719 467.678 C 779.497 466.925 780.595 466.349 781.928 466.358 L 781.928 466.358 C 783.967 466.349 785.298 467.64 786.174 468.895 L 786.174 468.895 C 787.076 470.168 787.774 471.532 788.588 472.284 L 788.588 472.284 C 789.137 472.786 789.633 473.047 790.423 473.055 L 790.423 473.055 C 791.569 473.046 792.232 472.455 793.045 471.353 L 793.045 471.353 C 793.836 470.275 794.533 468.81 795.709 467.678 L 795.709 467.678 C 796.487 466.925 797.585 466.349 798.918 466.358 L 798.918 466.358 C 800.957 466.349 802.286 467.642 803.165 468.895 L 803.165 468.895 C 804.066 470.168 804.764 471.532 805.58 472.284 L 805.58 472.284 C 806.127 472.786 806.625 473.047 807.417 473.055 L 807.417 473.055 C 808.562 473.046 809.223 472.455 810.039 471.353 L 810.039 471.353 C 810.827 470.275 811.524 468.81 812.701 467.678 L 812.701 467.678 C 813.481 466.925 814.577 466.349 815.912 466.36 L 815.912 466.36 C 815.921 466.36 815.929 466.36 815.937 466.36 L 815.937 466.36 C 817.96 466.359 819.281 467.645 820.157 468.895 L 820.157 468.895 Z" transform="matrix(0.258819, 0.965926, -0.965926, 0.258819, 892.558887, -320.212474)" style="fill: rgb(30, 30, 30);"/>
  <path d="M 693.472 668.445 L 693.472 666.446 C 694.904 666.446 696.366 666.471 697.823 666.469 L 697.823 666.469 C 702.999 666.48 708.068 666.113 711.724 663.418 L 711.724 663.418 C 715.372 660.743 717.99 655.634 718 645.369 L 718 645.369 C 718 621.64 718 621.64 718.002 621.616 L 718.002 621.616 L 718.002 608.014 C 718 608.014 718 608.014 718.002 584.265 L 718.002 584.265 C 717.989 574 715.372 568.886 711.724 566.213 L 711.724 566.213 C 708.07 563.517 702.998 563.151 697.821 563.16 L 697.821 563.16 C 696.364 563.16 694.904 563.187 693.472 563.187 L 693.472 563.187 L 693.472 561.186 C 694.878 561.186 696.34 561.16 697.821 561.16 L 697.821 561.16 C 703.056 561.169 708.576 561.447 712.906 564.598 L 712.906 564.598 C 717.249 567.774 720.014 573.712 720.002 584.265 L 720.002 584.265 C 720.002 608.014 720.002 608.014 720.002 608.014 L 720.002 608.014 L 720.002 621.616 C 720.002 621.639 720.002 621.639 720.002 645.369 L 720.002 645.369 C 720.015 655.918 717.249 661.856 712.906 665.03 L 712.906 665.03 C 708.576 668.181 703.056 668.46 697.823 668.469 L 697.823 668.469 C 696.343 668.471 694.883 668.445 693.472 668.445 L 693.472 668.445 Z M 693.472 668.445 L 693.472 668.448 L 693.472 668.445 L 693.472 668.445 Z" transform="matrix(0.258819, 0.965926, -0.965926, 0.258819, 1117.685146, -226.966782)" style="fill: rgb(30, 30, 30);"/>
  <path d="M 420.434 441.86 C 408.763 441.858 402.128 441.858 402.108 441.86 L 402.108 441.86 L 402.065 441.86 L 402.007 441.853 C 401.897 441.838 400.192 441.658 398.446 440.25 L 398.446 440.25 C 396.692 438.848 395.026 436.172 395.042 431.652 L 395.042 431.652 L 395.042 430.835 L 395.839 430.672 C 400.643 429.695 404.587 428.764 407.739 428.046 L 407.739 428.046 C 407.453 428.042 407.169 428.04 406.88 428.04 L 406.88 428.04 C 401.186 428.04 394.961 428.691 389.794 429.588 L 389.794 429.588 C 384.654 430.463 380.457 431.676 379.207 432.498 L 379.207 432.498 L 378.136 430.808 C 380.019 429.648 384.156 428.554 389.451 427.618 L 389.451 427.618 C 394.724 426.705 401.035 426.041 406.88 426.041 L 406.88 426.041 C 410.02 426.041 413.024 426.234 415.671 426.689 L 415.671 426.689 L 415.502 428.675 C 413.19 428.648 406.845 430.428 397.065 432.461 L 397.065 432.461 C 397.418 438.738 401.151 439.567 402.048 439.835 L 402.048 439.835 C 402.104 439.847 402.141 439.855 402.168 439.858 L 402.168 439.858 C 407.576 439.858 780.498 439.858 835.391 439.858 L 835.391 439.858 C 833.271 438.578 831.266 436.766 829.515 434.67 L 829.515 434.67 C 826.078 430.518 823.62 425.183 823.607 420.141 L 823.607 420.141 L 825.609 420.141 C 825.596 424.515 827.844 429.54 831.053 433.393 L 831.053 433.393 C 834.216 437.228 838.312 439.837 841.672 439.858 L 841.672 439.858 C 841.706 439.858 841.737 439.858 841.768 439.858 L 841.768 439.858 L 841.768 441.859 C 829.682 441.858 502.134 441.858 420.434 441.86 L 420.434 441.86 Z" transform="matrix(0.258819, 0.965926, -0.965926, 0.258819, 868.399547, -269.718994)" style="fill: rgb(30, 30, 30);"/>
  <path d="M 473.577 510.415 C 467.106 510.404 459.819 510.457 453.796 505.865 L 453.796 505.865 C 447.886 501.336 443.55 492.552 442.301 475.676 L 442.301 475.676 C 436.897 475.676 427.956 475.676 427.956 475.676 L 427.956 475.676 L 427.607 475.676 L 427.335 475.459 C 426.937 475.104 418.808 468.301 418.797 428.429 L 418.797 428.429 L 418.797 407.296 C 418.807 367.423 426.936 360.622 427.335 360.266 L 427.335 360.266 L 427.607 360.048 L 427.956 360.048 C 427.97 360.048 436.898 360.048 442.301 360.048 L 442.301 360.048 C 443.55 343.173 447.886 334.389 453.796 329.858 L 453.796 329.858 C 459.818 325.268 467.106 325.319 473.577 325.31 L 473.577 325.31 C 486.55 325.31 836.018 325.31 857.781 325.31 L 857.781 325.31 C 868.803 325.31 875.857 327.801 880.282 331.423 L 880.282 331.423 C 884.708 335.043 886.385 339.733 886.816 343.78 L 886.816 343.78 C 887.659 351.604 889.122 378.995 889.122 402.69 L 889.122 402.69 L 889.125 433.034 C 889.122 456.729 887.659 484.12 886.816 491.944 L 886.816 491.944 C 886.383 495.992 884.708 500.682 880.282 504.301 L 880.282 504.301 C 875.857 507.921 868.803 510.414 857.781 510.414 L 857.781 510.414 C 836.018 510.413 486.55 510.413 473.577 510.415 L 473.577 510.415 Z M 443.233 473.677 L 444.168 473.677 L 444.232 474.612 C 445.376 491.862 449.676 500.207 455.01 504.279 L 455.01 504.279 C 460.339 508.372 467.074 508.425 473.578 508.414 L 473.578 508.414 C 486.551 508.414 836.018 508.414 857.782 508.414 L 857.782 508.414 C 868.521 508.414 875.068 505.989 879.016 502.758 L 879.016 502.758 C 882.958 499.522 884.422 495.425 884.828 491.729 L 884.828 491.729 C 885.656 484.069 887.126 456.633 887.125 433.035 L 887.125 433.035 L 887.125 402.692 C 887.126 379.095 885.656 351.66 884.828 343.997 L 884.828 343.997 C 884.422 340.303 882.959 336.207 879.016 332.973 L 879.016 332.973 C 875.068 329.739 868.521 327.314 857.782 327.314 L 857.782 327.314 C 836.018 327.312 486.551 327.312 473.578 327.314 L 473.578 327.314 C 467.074 327.303 460.339 327.356 455.01 331.449 L 455.01 331.449 C 449.677 335.52 445.376 343.866 444.232 361.117 L 444.232 361.117 L 444.171 362.05 L 443.233 362.05 C 438.635 362.05 430.318 362.05 428.372 362.05 L 428.372 362.05 C 428.368 362.055 428.363 362.06 428.359 362.065 L 428.359 362.065 C 428.174 362.278 427.886 362.642 427.531 363.215 L 427.531 363.215 C 426.82 364.358 425.832 366.332 424.831 369.56 L 424.831 369.56 C 422.832 376.015 420.796 387.487 420.796 407.298 L 420.796 407.298 L 420.796 428.431 C 420.784 463.192 427.083 472.227 428.366 473.679 L 428.366 473.679 C 430.302 473.677 438.628 473.677 443.233 473.677 L 443.233 473.677 Z" transform="matrix(0.258819, 0.965926, -0.965926, 0.258819, 888.327785, -321.966046)" style="fill: rgb(30, 30, 30);"/>
  <path d="M 522.208 252.443 C 522.208 246.63 526.918 241.922 532.729 241.922 L 532.729 241.922 C 538.54 241.922 543.25 246.633 543.25 252.443 L 543.25 252.443 C 543.25 258.254 538.54 262.963 532.729 262.963 L 532.729 262.963 C 526.918 262.963 522.208 258.254 522.208 252.443 L 522.208 252.443 Z M 524.206 252.443 C 524.216 257.15 528.022 260.955 532.728 260.964 L 532.728 260.964 C 537.435 260.955 541.24 257.151 541.249 252.443 L 541.249 252.443 C 541.241 247.736 537.435 243.928 532.728 243.921 L 532.728 243.921 C 528.022 243.929 524.216 247.738 524.206 252.443 L 524.206 252.443 Z" transform="matrix(0.258819, 0.965926, -0.965926, 0.258819, 638.689206, -327.471146)" style="fill: rgb(30, 30, 30);"/>
  <path d="M 627.82 646.598 C 627.82 640.785 632.532 636.077 638.342 636.077 L 638.342 636.077 C 644.152 636.077 648.863 640.785 648.863 646.598 L 648.863 646.598 C 648.863 652.41 644.152 657.118 638.342 657.118 L 638.342 657.118 C 632.532 657.118 627.82 652.41 627.82 646.598 L 627.82 646.598 Z M 629.819 646.598 C 629.828 651.304 633.634 655.111 638.342 655.118 L 638.342 655.118 C 643.048 655.109 646.855 651.303 646.863 646.598 L 646.863 646.598 C 646.855 641.892 643.048 638.085 638.342 638.077 L 638.342 638.077 C 633.634 638.085 629.827 641.892 629.819 646.598 L 629.819 646.598 Z" transform="matrix(0.258819, 0.965926, -0.965926, 0.258819, 1097.692042, -137.344628)" style="fill: rgb(30, 30, 30);"/>
  <path d="M 559.148 229.785 L 559.102 229.695 L 559.077 229.603 C 554.815 214.113 553.325 194.298 553.323 174.034 L 553.323 174.034 C 553.329 128.667 560.816 81.14 561.991 75.534 L 561.991 75.534 C 562.724 72.059 563.427 69.845 564.139 68.408 L 564.139 68.408 C 564.835 67.017 565.639 66.146 566.811 66.108 L 566.811 66.108 C 567.104 66.108 567.376 66.177 567.611 66.276 L 567.611 66.276 C 575.97 68.032 579.493 70.707 581.281 75.893 L 581.281 75.893 C 583.091 81.009 583.616 88.361 587.226 100.426 L 587.226 100.426 C 594.334 124.235 613.759 131.596 619.2 133.236 L 619.2 133.236 C 621.939 134.059 625.362 134.828 628.347 135.751 L 628.347 135.751 C 631.328 136.715 633.901 137.652 635.115 139.54 L 635.115 139.54 L 635.117 139.542 L 633.401 140.569 C 632.941 139.667 630.632 138.51 627.754 137.661 L 627.754 137.661 C 624.879 136.769 621.465 136.003 618.626 135.152 L 618.626 135.152 C 612.908 133.446 592.711 125.741 585.31 101 L 585.31 101 C 581.666 88.792 581.075 81.216 579.398 76.566 L 579.398 76.566 C 577.705 72.01 575.39 70.081 567.085 68.209 L 567.085 68.209 L 566.96 68.182 L 566.848 68.126 C 566.812 68.105 566.812 68.111 566.812 68.109 L 566.812 68.109 L 566.804 68.115 C 566.783 68.125 566.727 68.155 566.646 68.23 L 566.646 68.23 C 566.481 68.377 566.219 68.717 565.932 69.3 L 565.932 69.3 C 565.349 70.463 564.659 72.565 563.951 75.947 L 563.951 75.947 C 562.814 81.332 555.321 128.911 555.325 174.034 L 555.325 174.034 C 555.323 194.155 556.817 213.804 560.982 228.978 L 560.982 228.978 C 561.686 230.291 563.755 231.901 567.515 231.901 L 567.515 231.901 C 571.04 231.906 576.071 230.463 582.639 226 L 582.639 226 C 589.265 221.505 590.816 214.933 593.644 207.897 L 593.644 207.897 C 596.44 200.898 600.702 193.602 612.72 188.774 L 612.72 188.774 C 615.061 187.978 619.477 188.105 623.863 187.607 L 623.863 187.607 C 628.246 187.162 632.254 185.995 633.377 183.672 L 633.377 183.672 L 635.148 184.601 C 633.2 188.136 628.559 189.063 624.082 189.594 L 624.082 189.594 C 619.609 190.072 614.958 190.061 613.431 190.644 L 613.431 190.644 C 601.972 195.317 598.283 201.833 595.499 208.645 L 595.499 208.645 C 592.745 215.423 591.087 222.661 583.765 227.652 L 583.765 227.652 C 576.974 232.266 571.587 233.899 567.516 233.903 L 567.516 233.903 C 563.085 233.903 560.233 231.945 559.148 229.785 L 559.148 229.785 Z" transform="matrix(0.258819, 0.965926, -0.965926, 0.258819, 585.330099, -462.806197)" style="fill: rgb(30, 30, 30);"/>
  <path d="M 573.221 164.592 C 562.891 153.893 554.21 137.721 554.214 116.032 L 554.214 116.032 C 554.214 111.359 554.618 106.43 555.491 101.247 L 555.491 101.247 C 560.114 73.782 568.809 53.436 577.029 39.489 L 577.029 39.489 C 585.272 25.528 592.942 18.026 595.811 16.047 L 595.811 16.047 C 597.917 14.622 599.38 13.891 600.784 13.866 L 600.784 13.866 C 601.932 13.835 602.894 14.551 603.392 15.418 L 603.392 15.418 C 603.923 16.285 604.24 17.333 604.592 18.551 L 604.592 18.551 L 604.592 18.553 L 602.669 19.101 C 602.336 17.918 602.017 16.984 601.692 16.472 L 601.692 16.472 C 601.332 15.957 601.215 15.895 600.784 15.866 L 600.784 15.866 C 600.209 15.841 598.911 16.328 596.941 17.699 L 596.941 17.699 C 594.508 19.346 586.833 26.773 578.753 40.504 L 578.753 40.504 C 570.651 54.251 562.048 74.361 557.463 101.581 L 557.463 101.581 C 556.609 106.657 556.215 111.474 556.215 116.032 L 556.215 116.032 C 556.219 137.176 564.639 152.808 574.662 163.206 L 574.662 163.206 C 584.653 173.602 596.388 178.676 602.422 178.64 L 602.422 178.64 C 602.914 178.64 603.362 178.609 603.766 178.548 L 603.766 178.548 L 604.056 180.527 C 603.542 180.602 602.996 180.637 602.423 180.639 L 602.423 180.639 C 595.449 180.6 583.583 175.289 573.221 164.592 L 573.221 164.592 Z" transform="matrix(0.258819, 0.965926, -0.965926, 0.258819, 523.380563, -487.578915)" style="fill: rgb(30, 30, 30);"/>
</svg>