<?xml version="1.0" encoding="utf-8"?>
<svg version="1.1" id="svg2" x="0px" y="0px" enable-background="new 0.25 0 567.927 113.032" xmlns="http://www.w3.org/2000/svg">
  <path d="M 22.869 39.465 L 177.131 39.465 C 181.292 39.465 184.664 42.837 184.664 46.998 L 184.664 48.168 C 184.664 52.327 181.292 55.7 177.131 55.7 L 22.869 55.7 C 18.708 55.7 15.336 52.327 15.336 48.168 L 15.336 46.998 C 15.336 42.837 18.708 39.465 22.869 39.465 Z" style="color: rgb(0, 0, 0); clip-rule: nonzero; display: inline; overflow: visible; visibility: visible; opacity: 1; isolation: auto; mix-blend-mode: normal; color-interpolation: sRGB; color-interpolation-filters: linearRGB; fill-opacity: 1; fill-rule: evenodd; stroke: none; stroke-width: 1px; stroke-linecap: butt; stroke-linejoin: miter; stroke-miterlimit: 4; stroke-dasharray: none; stroke-dashoffset: 0; stroke-opacity: 1; color-rendering: auto; image-rendering: auto; shape-rendering: auto; text-rendering: auto; fill: rgb(20, 20, 20);" id="rect4789"/>
  <path d="M 52 46.383 C 52 46.706 51.944 47.023 51.831 47.333 C 51.718 47.64 51.556 47.898 51.346 48.108 C 51.059 48.392 50.737 48.607 50.382 48.753 C 50.03 48.898 49.591 48.971 49.064 48.971 L 47.906 48.971 L 47.906 51.32 L 46.046 51.32 L 46.046 44.106 L 49.108 44.106 C 49.566 44.106 49.953 44.147 50.265 44.227 C 50.582 44.305 50.862 44.422 51.104 44.581 C 51.394 44.771 51.616 45.016 51.767 45.313 C 51.923 45.61 52 45.967 52 46.383 Z M 50.077 46.427 C 50.077 46.224 50.021 46.049 49.912 45.904 C 49.802 45.755 49.674 45.652 49.529 45.593 C 49.336 45.516 49.147 45.474 48.962 45.467 C 48.779 45.458 48.533 45.453 48.226 45.453 L 47.906 45.453 L 47.906 47.614 L 48.439 47.614 C 48.756 47.614 49.016 47.594 49.219 47.556 C 49.426 47.517 49.599 47.439 49.738 47.323 C 49.857 47.22 49.942 47.097 49.994 46.955 C 50.049 46.81 50.077 46.634 50.077 46.427 Z" style="font-style:normal;font-variant:normal;font-weight:bold;font-stretch:normal;font-size:medium;line-height:125%;font-family:sans-serif;-inkscape-font-specification:'sans-serif Bold';letter-spacing:7.03102636px;word-spacing:0px;fill:#ffffff;fill-opacity:1;stroke:none;stroke-width:1px;stroke-linecap:butt;stroke-linejoin:miter;stroke-opacity:1" id="path4793"/>
  <path d="M 60.368 51.32 L 55.164 51.32 L 55.164 44.106 L 57.024 44.106 L 57.024 49.925 L 60.368 49.925 L 60.368 51.32 Z" style="font-style:normal;font-variant:normal;font-weight:bold;font-stretch:normal;font-size:medium;line-height:125%;font-family:sans-serif;-inkscape-font-specification:'sans-serif Bold';letter-spacing:7.03102636px;word-spacing:0px;fill:#ffffff;fill-opacity:1;stroke:none;stroke-width:1px;stroke-linecap:butt;stroke-linejoin:miter;stroke-opacity:1" id="path4795"/>
  <path d="M 72.259 51.32 L 70.335 51.32 L 69.72 49.863 L 66.06 49.863 L 65.409 51.32 L 63.534 51.32 L 66.826 44.106 L 68.968 44.106 Z M 69.163 48.539 L 67.873 45.953 L 66.593 48.539 Z" style="font-style:normal;font-variant:normal;font-weight:bold;font-stretch:normal;font-size:medium;line-height:125%;font-family:sans-serif;-inkscape-font-specification:'sans-serif Bold';letter-spacing:7.03102636px;word-spacing:0px;fill:#ffffff;fill-opacity:1;stroke:none;stroke-width:1px;stroke-linecap:butt;stroke-linejoin:miter;stroke-opacity:1" id="path4797"/>
  <path d="M 79.361 44.106 L 76.584 48.53 L 76.584 51.32 L 74.724 51.32 L 74.724 48.617 L 71.88 44.106 L 73.992 44.106 L 75.692 46.897 L 77.316 44.106 Z" style="font-style:normal;font-variant:normal;font-weight:bold;font-stretch:normal;font-size:medium;line-height:125%;font-family:sans-serif;-inkscape-font-specification:'sans-serif Bold';letter-spacing:7.03102636px;word-spacing:0px;fill:#ffffff;fill-opacity:1;stroke:none;stroke-width:1px;stroke-linecap:butt;stroke-linejoin:miter;stroke-opacity:1" id="path4799"/>
  <path d="M 92.581 48.922 C 92.581 49.633 92.279 50.211 91.675 50.657 C 91.075 51.099 90.257 51.32 89.224 51.32 C 88.626 51.32 88.104 51.269 87.659 51.165 C 87.216 51.059 86.801 50.925 86.413 50.763 L 87.011 49.37 C 87.245 49.503 87.644 49.65 87.906 49.741 C 88.384 49.906 88.842 49.988 89.281 49.988 C 89.395 49.988 89.543 49.978 89.728 49.959 C 89.912 49.939 90.062 49.908 90.178 49.863 C 90.32 49.804 90.436 49.731 90.527 49.644 C 90.621 49.557 90.667 49.427 90.667 49.257 C 90.667 49.099 90.599 48.963 90.464 48.85 C 90.331 48.734 90.136 48.644 89.878 48.583 C 89.606 48.519 89.318 48.459 89.015 48.403 C 88.715 48.346 88.432 48.273 88.167 48.186 C 87.56 47.989 87.122 47.722 86.854 47.387 C 86.59 47.047 86.457 46.627 86.457 46.126 C 86.457 45.455 86.757 44.907 87.358 44.484 C 87.962 44.057 88.738 43.845 89.684 43.845 C 90.158 43.845 90.627 43.891 91.089 43.985 C 91.554 44.075 91.956 44.19 92.295 44.329 L 91.511 45.618 C 91.36 45.543 91.199 45.472 91.026 45.41 C 90.605 45.251 90.176 45.172 89.737 45.172 C 89.582 45.172 89.427 45.183 89.272 45.206 C 89.12 45.225 88.973 45.264 88.831 45.322 C 88.705 45.371 88.597 45.445 88.506 45.545 C 88.416 45.642 88.37 45.753 88.37 45.879 C 88.37 46.069 88.443 46.217 88.588 46.32 C 88.734 46.42 89.009 46.513 89.413 46.596 C 89.677 46.651 89.931 46.705 90.173 46.756 C 90.419 46.808 90.682 46.879 90.963 46.969 C 91.516 47.15 91.923 47.398 92.184 47.71 C 92.449 48.021 92.581 48.425 92.581 48.922 Z" style="font-style:normal;font-variant:normal;font-weight:bold;font-stretch:normal;font-size:medium;line-height:125%;font-family:sans-serif;-inkscape-font-specification:'sans-serif Bold';letter-spacing:7.03102636px;word-spacing:0px;fill:#ffffff;fill-opacity:1;stroke:none;stroke-width:1px;stroke-linecap:butt;stroke-linejoin:miter;stroke-opacity:1" id="path4801"/>
  <path d="M 118.889 45.501 L 116.636 45.501 L 116.636 51.32 L 114.776 51.32 L 114.776 45.501 L 112.522 45.501 L 112.522 44.106 L 118.889 44.106 L 118.889 45.501 Z" style="font-style:normal;font-variant:normal;font-weight:bold;font-stretch:normal;font-size:medium;line-height:125%;font-family:sans-serif;-inkscape-font-specification:'sans-serif Bold';letter-spacing:7.03102636px;word-spacing:0px;fill:#ffffff;fill-opacity:1;stroke:none;stroke-width:1px;stroke-linecap:butt;stroke-linejoin:miter;stroke-opacity:1" id="path4803"/>
  <path d="M 126.799 51.32 L 121.249 51.32 L 121.249 44.106 L 126.799 44.106 L 126.799 45.501 L 123.1 45.501 L 123.1 46.747 L 126.556 46.747 L 126.556 48.142 L 123.1 48.142 L 123.1 49.925 L 126.799 49.925 Z" style="font-style:normal;font-variant:normal;font-weight:bold;font-stretch:normal;font-size:medium;line-height:125%;font-family:sans-serif;-inkscape-font-specification:'sans-serif Bold';letter-spacing:7.03102636px;word-spacing:0px;fill:#ffffff;fill-opacity:1;stroke:none;stroke-width:1px;stroke-linecap:butt;stroke-linejoin:miter;stroke-opacity:1" id="path4805"/>
  <path d="M 139.207 51.32 L 137.257 51.32 L 137.091 47.843 L 135.077 51.319 L 133.794 51.319 L 131.78 47.843 L 131.615 51.32 L 129.761 51.32 L 130.026 44.106 L 131.839 44.106 L 134.487 49.091 L 137.129 44.106 L 138.942 44.106 Z" style="font-style:normal;font-variant:normal;font-weight:bold;font-stretch:normal;font-size:medium;line-height:125%;font-family:sans-serif;-inkscape-font-specification:'sans-serif Bold';letter-spacing:7.03102636px;word-spacing:0px;fill:#ffffff;fill-opacity:1;stroke:none;stroke-width:1px;stroke-linecap:butt;stroke-linejoin:miter;stroke-opacity:1" id="path4807"/>
  <path id="path4809" style="font-style:normal;font-variant:normal;font-weight:bold;font-stretch:normal;font-size:medium;line-height:125%;font-family:sans-serif;-inkscape-font-specification:'sans-serif Bold';letter-spacing:7.03102636px;word-spacing:0px;fill:#ffffff;fill-opacity:1;stroke:none;stroke-width:1px;stroke-linecap:butt;stroke-linejoin:miter;stroke-opacity:1" d="M 102.189 44.106 L 99.413 48.53 L 99.413 51.32 L 97.552 51.32 L 97.552 48.617 L 94.708 44.106 L 96.821 44.106 L 98.521 46.897 L 100.145 44.106 Z"/>
  <path id="path4811" style="font-style:normal;font-variant:normal;font-weight:bold;font-stretch:normal;font-size:medium;line-height:125%;font-family:sans-serif;-inkscape-font-specification:'sans-serif Bold';letter-spacing:7.03102636px;word-spacing:0px;fill:#ffffff;fill-opacity:1;stroke:none;stroke-width:1px;stroke-linecap:butt;stroke-linejoin:miter;stroke-opacity:1" d="M 110.116 48.922 C 110.116 49.633 109.814 50.211 109.21 50.657 C 108.609 51.099 107.791 51.32 106.758 51.32 C 106.161 51.32 105.639 51.269 105.193 51.165 C 104.751 51.059 104.336 50.925 103.948 50.763 L 104.546 49.37 C 104.78 49.503 105.18 49.65 105.44 49.741 C 105.918 49.906 106.377 49.988 106.817 49.988 C 106.93 49.988 107.078 49.978 107.262 49.959 C 107.446 49.939 107.596 49.908 107.713 49.863 C 107.855 49.804 107.971 49.731 108.062 49.644 C 108.156 49.557 108.202 49.427 108.202 49.257 C 108.202 49.099 108.134 48.963 107.998 48.85 C 107.867 48.734 107.671 48.644 107.412 48.583 C 107.141 48.519 106.854 48.459 106.55 48.403 C 106.249 48.346 105.967 48.273 105.702 48.186 C 105.095 47.989 104.657 47.722 104.39 47.387 C 104.124 47.047 103.991 46.627 103.991 46.126 C 103.991 45.455 104.292 44.907 104.893 44.484 C 105.497 44.057 106.272 43.845 107.219 43.845 C 107.694 43.845 108.162 43.891 108.623 43.985 C 109.089 44.075 109.491 44.19 109.83 44.329 L 109.046 45.618 C 108.895 45.543 108.733 45.472 108.561 45.41 C 108.141 45.251 107.712 45.172 107.272 45.172 C 107.117 45.172 106.962 45.183 106.807 45.206 C 106.655 45.225 106.508 45.264 106.366 45.322 C 106.24 45.371 106.132 45.445 106.042 45.545 C 105.951 45.642 105.906 45.753 105.906 45.879 C 105.906 46.069 105.978 46.217 106.124 46.32 C 106.269 46.42 106.543 46.513 106.947 46.596 C 107.212 46.651 107.466 46.705 107.708 46.756 C 107.953 46.808 108.217 46.879 108.498 46.969 C 109.05 47.15 109.457 47.398 109.718 47.71 C 109.984 48.021 110.116 48.425 110.116 48.922 Z"/>
  <path style="color: rgb(0, 0, 0); clip-rule: nonzero; display: inline; overflow: visible; visibility: visible; opacity: 1; isolation: auto; mix-blend-mode: normal; color-interpolation: sRGB; color-interpolation-filters: linearRGB; fill-opacity: 1; fill-rule: evenodd; stroke: none; stroke-width: 1px; stroke-linecap: butt; stroke-linejoin: miter; stroke-miterlimit: 4; stroke-dasharray: none; stroke-dashoffset: 0; stroke-opacity: 1; color-rendering: auto; image-rendering: auto; shape-rendering: auto; text-rendering: auto; fill: rgb(255, 255, 255);" d="M 145.535 44.124 L 145.535 44.508 L 145.546 44.508 C 145.577 44.508 147.014 44.534 147.014 45.137 L 147.014 50.324 C 147.014 50.672 146.359 50.952 145.546 50.952 L 145.535 50.952 L 145.535 51.336 L 147.478 51.336 L 147.998 51.336 L 149.941 51.336 L 149.941 50.952 L 149.931 50.952 C 149.118 50.952 148.463 50.672 148.463 50.324 L 148.463 45.137 C 148.463 44.534 149.899 44.508 149.931 44.508 L 149.941 44.508 L 149.941 44.124 L 147.998 44.124 L 147.478 44.124 L 145.535 44.124 Z" id="path4783"/>
  <path style="clip-rule: evenodd; fill-opacity: 1; fill-rule: evenodd; fill: rgb(20, 20, 20);" d="M 35.358 8.965 L 25.903 18.953 L 19.657 14.67 C 19.657 14.67 21.712 12.71 19.837 11.282 C 18.376 10.168 14.275 12.53 14.453 17.169 C 14.662 22.52 17.968 25.551 21.62 25.551 C 25.012 25.551 25.903 22.817 25.903 22.817 L 33.502 22.817 L 33.502 29.121 L 44.184 0.937 L 56.405 0.937 L 66.217 26.268 C 66.217 26.268 66.93 27.604 67.643 27.961 C 67.643 27.961 67.684 11.344 67.684 10.877 C 67.684 10.412 67.622 9.898 67.331 9.564 C 66.853 9.013 66.037 8.785 66.037 8.785 L 66.037 0.937 C 66.037 0.937 77.361 0.937 83.161 0.937 C 92.043 0.937 94.321 3.345 96.897 7.984 C 100.452 3.197 105.347 0.044 112.327 0.044 C 119.507 0.044 124.589 2.692 127.491 7.09 C 131.544 2.245 138.067 0 144.036 0 C 151.372 0 157.498 3.555 160.669 9.053 L 160.669 0.937 L 177.167 0.937 L 178.906 5.35 L 180.201 0.937 L 197.236 0.937 L 197.236 8.606 C 197.236 8.606 196.254 8.875 195.983 9.318 C 195.718 9.755 195.765 11.15 195.765 11.15 L 198.141 26.309 C 198.241 26.802 198.416 27.317 198.841 27.694 C 199.334 28.135 200 28.052 200 28.052 L 200 36.79 L 182.876 36.79 L 182.876 30.189 L 173.066 30.189 L 173.066 36.808 L 156.967 36.808 L 156.967 32.506 C 156.967 32.506 151.083 37.681 143.5 37.681 C 133.795 37.681 127.311 30.547 127.311 30.547 L 127.311 36.789 C 127.311 36.789 126.599 36.789 115.897 36.789 C 105.737 36.789 97.016 31.23 94.58 21.092 C 93.425 22.197 88.333 25.832 82.226 27.201 C 81.751 27.308 81.514 27.486 81.514 28.001 C 81.514 28.94 83.521 29.275 83.521 29.275 L 83.521 36.788 C 83.521 36.788 30.721 36.788 20.912 36.788 C 9.315 36.79 0 28.853 0 18.775 C 0 8.696 7.263 0.133 19.303 0.133 C 30.809 0.133 35.359 8.965 35.359 8.965 L 35.359 8.965 Z" id="path4815"/>
  <path style="clip-rule: evenodd; fill-opacity: 1; fill-rule: evenodd; fill: rgb(255, 255, 255);" d="M 30.852 9.121 L 25.815 14.403 C 25.815 14.403 25.548 14.538 25.325 14.538 C 25.102 14.538 24.788 14.313 24.788 14.313 L 24.165 13.781 C 24.165 13.781 23.985 13.737 23.985 13.557 C 23.985 13.381 24.477 12.932 24.477 12.085 C 24.477 11.237 24.299 7.714 18.859 7.714 C 13.419 7.714 11.01 12.798 11.01 16.991 C 11.01 21.183 13.595 28.853 22.071 28.853 C 27 28.853 28.044 26.085 28.044 26.085 L 29.738 26.085 L 29.738 33.312 L 20.463 33.312 C 9.405 33.312 3.249 24.658 3.249 18.416 C 3.249 8.844 11.573 3.532 19.126 3.532 C 26.439 3.533 30.852 9.121 30.852 9.121 L 30.852 9.121 Z" id="path4817"/>
  <path style="clip-rule: evenodd; fill-opacity: 1; fill-rule: evenodd; fill: rgb(255, 255, 255);" d="M 46.463 4.327 L 54.088 4.327 L 63.365 28.586 C 63.63 29.253 64.076 29.881 64.522 30.414 C 64.966 30.949 66.037 31.308 66.037 31.308 L 66.037 33.401 L 54.847 33.401 L 54.847 31.261 C 54.847 31.261 55.559 31.352 55.917 30.727 C 56.273 30.102 56.273 29.612 56.007 28.989 C 55.739 28.363 53.862 23.414 53.862 23.414 L 44.722 23.414 C 44.722 23.414 42.851 28.408 42.67 28.853 C 42.491 29.299 42.491 30.014 42.67 30.458 C 42.967 31.2 44.009 31.309 44.009 31.309 L 44.009 33.402 L 35.044 33.402 L 35.044 31.309 C 35.044 31.309 35.86 31.028 36.471 30.415 C 37.14 29.746 37.362 29.031 37.362 29.031 L 46.463 4.327 L 46.463 4.327 Z M 46.238 18.864 L 52.126 18.864 L 49.094 10.392 L 46.238 18.864 L 46.238 18.864 Z" id="path4819"/>
  <path style="clip-rule: evenodd; fill-opacity: 1; fill-rule: evenodd; fill: rgb(255, 255, 255);" d="M 69.605 4.327 C 69.605 4.327 78.613 4.327 83.876 4.327 C 89.138 4.327 94.399 6.198 94.399 12.262 C 94.399 18.328 90.564 20.469 87.265 21.986 C 83.456 23.736 78.436 25.109 78.436 25.109 L 78.436 29.745 C 78.436 29.745 78.481 30.058 78.925 30.589 C 79.373 31.125 79.863 31.26 79.863 31.26 L 79.863 33.4 L 69.517 33.4 L 69.517 31.307 C 69.517 31.307 70.14 31.171 70.589 30.726 C 71.033 30.28 71.124 29.745 71.124 29.745 L 71.124 8.785 C 71.124 8.785 71.165 7.893 70.811 7.538 C 70.454 7.178 69.606 6.689 69.606 6.689 L 69.606 4.327 L 69.605 4.327 L 69.605 4.327 Z M 78.524 8.696 L 78.524 21.093 C 78.524 21.093 86.907 17.616 86.907 12.71 C 86.907 6.645 78.524 8.696 78.524 8.696 L 78.524 8.696 Z" id="path4821"/>
  <path style="clip-rule: evenodd; fill-opacity: 1; fill-rule: evenodd; fill: rgb(255, 255, 255);" d="M 125.305 9.172 L 120.266 14.454 C 120.266 14.454 119.998 14.588 119.774 14.588 C 119.553 14.588 119.241 14.365 119.241 14.365 L 118.615 13.828 C 118.615 13.828 118.437 13.786 118.437 13.609 C 118.437 13.429 118.926 12.981 118.926 12.137 C 118.926 11.288 118.75 7.765 113.308 7.765 C 107.867 7.765 105.459 12.848 105.459 17.041 C 105.459 21.23 108.046 28.902 116.521 28.902 C 121.45 28.902 122.495 26.136 122.495 26.136 L 124.191 26.136 L 124.191 33.361 L 114.912 33.361 C 103.855 33.361 97.699 24.71 97.699 18.467 C 97.699 8.896 106.021 3.582 113.575 3.582 C 120.889 3.582 125.305 9.172 125.305 9.172 L 125.305 9.172 Z" id="path4823"/>
  <path style="clip-rule: evenodd; fill-opacity: 1; fill-rule: evenodd; fill: rgb(255, 255, 255);" d="M 143.366 34.238 C 133.732 34.238 126.808 27.203 126.808 18.643 C 126.808 10.077 133.911 3.443 143.366 3.443 C 152.817 3.443 159.921 10.077 159.921 18.643 C 159.921 27.202 152.996 34.238 143.366 34.238 L 143.366 34.238 Z M 134.802 18.775 C 134.802 27.337 139.172 29.478 143.366 29.478 C 147.555 29.478 152.017 26.802 152.017 18.775 C 152.017 10.749 147.022 8.072 143.366 8.072 C 139.709 8.072 134.802 10.211 134.802 18.775 L 134.802 18.775 Z" id="path4825"/>
  <path style="clip-rule: evenodd; fill-opacity: 1; fill-rule: evenodd; fill: rgb(255, 255, 255);" d="M 164.234 4.345 L 174.849 4.345 L 178.684 16.189 L 182.785 4.327 L 193.887 4.327 L 193.887 6.064 C 193.887 6.064 193.149 6.377 192.821 6.779 C 192.419 7.27 192.419 7.626 192.508 8.341 C 192.597 9.053 195.45 28.408 195.54 29.122 C 195.631 29.836 195.718 30.237 195.896 30.728 C 196.073 31.214 196.923 31.618 196.923 31.618 L 196.923 33.417 L 186.263 33.417 L 186.263 31.485 C 186.263 31.485 187.2 31.352 187.514 30.904 C 187.826 30.457 187.958 30.189 187.87 29.478 C 187.78 28.764 185.24 12.532 185.24 12.532 L 180.602 26.891 L 174.983 26.891 L 170.388 13.421 L 168.07 29.298 C 168.07 29.298 167.98 30.251 168.338 30.771 C 168.828 31.485 169.723 31.485 169.723 31.485 L 169.723 33.401 L 160.488 33.401 L 160.488 31.352 C 160.488 31.352 161.223 31.239 161.758 30.614 C 162.292 29.991 162.383 29.186 162.383 29.186 L 165.751 8.25 C 165.751 8.25 165.954 7.468 165.729 7.113 C 165.494 6.737 164.234 6.422 164.234 6.422 L 164.234 4.345 L 164.234 4.345 Z" id="path4827"/>
  <path style="color: rgb(0, 0, 0); clip-rule: nonzero; display: inline; overflow: visible; visibility: visible; opacity: 1; isolation: auto; mix-blend-mode: normal; color-interpolation: sRGB; color-interpolation-filters: linearRGB; fill-opacity: 1; fill-rule: evenodd; stroke: none; stroke-width: 1px; stroke-linecap: butt; stroke-linejoin: miter; stroke-miterlimit: 4; stroke-dasharray: none; stroke-dashoffset: 0; stroke-opacity: 1; color-rendering: auto; image-rendering: auto; shape-rendering: auto; text-rendering: auto; fill: rgb(255, 255, 255);" d="M 149.944 44.124 L 149.944 44.508 L 149.954 44.508 C 149.986 44.508 151.422 44.534 151.422 45.137 L 151.422 50.324 C 151.422 50.672 150.767 50.952 149.954 50.952 L 149.944 50.952 L 149.944 51.336 L 151.887 51.336 L 152.406 51.336 L 154.349 51.336 L 154.349 50.952 L 154.34 50.952 C 153.526 50.952 152.871 50.672 152.871 50.324 L 152.871 45.137 C 152.871 44.534 154.307 44.508 154.34 44.508 L 154.349 44.508 L 154.349 44.124 L 152.406 44.124 L 151.887 44.124 L 149.944 44.124 Z" id="path-1"/>
</svg>