<?xml version="1.0" encoding="utf-8"?>
<svg version="1.1" id="svg2" x="0px" y="0px" width="253.14752" height="109.20614" viewBox="0.25 0 253.14752197265625 70.5" enable-background="new 0.25 0 567.927 113.032" xmlns="http://www.w3.org/2000/svg">
  <path d="M 28.946 49.952 L 224.202 49.952 C 229.468 49.952 233.737 54.221 233.737 59.487 L 233.737 60.968 C 233.737 66.233 229.468 70.502 224.202 70.502 L 28.946 70.502 C 23.68 70.502 19.411 66.233 19.411 60.968 L 19.411 59.487 C 19.411 54.221 23.68 49.952 28.946 49.952 Z" style="color: rgb(0, 0, 0); clip-rule: nonzero; display: inline; overflow: visible; visibility: visible; opacity: 1; isolation: auto; mix-blend-mode: normal; color-interpolation: sRGB; color-interpolation-filters: linearRGB; fill-opacity: 1; fill-rule: evenodd; stroke: none; stroke-width: 1px; stroke-linecap: butt; stroke-linejoin: miter; stroke-miterlimit: 4; stroke-dasharray: none; stroke-dashoffset: 0; stroke-opacity: 1; color-rendering: auto; image-rendering: auto; shape-rendering: auto; text-rendering: auto; fill: rgb(20, 20, 20);" id="rect4789"/>
  <path d="M 65.819 58.709 C 65.819 59.118 65.747 59.519 65.604 59.911 C 65.461 60.3 65.257 60.627 64.991 60.892 C 64.627 61.252 64.22 61.524 63.771 61.708 C 63.325 61.892 62.769 61.984 62.102 61.984 L 60.637 61.984 L 60.637 64.958 L 58.282 64.958 L 58.282 55.827 L 62.158 55.827 C 62.738 55.827 63.227 55.878 63.623 55.98 C 64.024 56.078 64.378 56.227 64.684 56.428 C 65.052 56.669 65.332 56.978 65.524 57.354 C 65.721 57.73 65.819 58.182 65.819 58.709 Z M 63.384 58.764 C 63.384 58.507 63.314 58.286 63.176 58.102 C 63.037 57.914 62.875 57.783 62.691 57.709 C 62.446 57.611 62.207 57.558 61.973 57.55 C 61.741 57.538 61.43 57.532 61.042 57.532 L 60.637 57.532 L 60.637 60.267 L 61.311 60.267 C 61.712 60.267 62.041 60.242 62.299 60.193 C 62.56 60.144 62.779 60.046 62.955 59.899 C 63.106 59.768 63.214 59.613 63.28 59.433 C 63.349 59.249 63.384 59.026 63.384 58.764 Z" style="font-style:normal;font-variant:normal;font-weight:bold;font-stretch:normal;font-size:medium;line-height:125%;font-family:sans-serif;-inkscape-font-specification:'sans-serif Bold';letter-spacing:7.03102636px;word-spacing:0px;fill:#ffffff;fill-opacity:1;stroke:none;stroke-width:1px;stroke-linecap:butt;stroke-linejoin:miter;stroke-opacity:1" id="path4793"/>
  <path d="M 76.41 64.958 L 69.823 64.958 L 69.823 55.827 L 72.178 55.827 L 72.178 63.192 L 76.41 63.192 L 76.41 64.958 Z" style="font-style:normal;font-variant:normal;font-weight:bold;font-stretch:normal;font-size:medium;line-height:125%;font-family:sans-serif;-inkscape-font-specification:'sans-serif Bold';letter-spacing:7.03102636px;word-spacing:0px;fill:#ffffff;fill-opacity:1;stroke:none;stroke-width:1px;stroke-linecap:butt;stroke-linejoin:miter;stroke-opacity:1" id="path4795"/>
  <path d="M 91.461 64.958 L 89.026 64.958 L 88.247 63.113 L 83.615 63.113 L 82.791 64.958 L 80.417 64.958 L 84.584 55.827 L 87.295 55.827 Z M 87.543 61.438 L 85.909 58.164 L 84.289 61.438 Z" style="font-style:normal;font-variant:normal;font-weight:bold;font-stretch:normal;font-size:medium;line-height:125%;font-family:sans-serif;-inkscape-font-specification:'sans-serif Bold';letter-spacing:7.03102636px;word-spacing:0px;fill:#ffffff;fill-opacity:1;stroke:none;stroke-width:1px;stroke-linecap:butt;stroke-linejoin:miter;stroke-opacity:1" id="path4797"/>
  <path d="M 100.451 55.827 L 96.936 61.426 L 96.936 64.958 L 94.581 64.958 L 94.581 61.536 L 90.981 55.827 L 93.655 55.827 L 95.807 59.359 L 97.862 55.827 Z" style="font-style:normal;font-variant:normal;font-weight:bold;font-stretch:normal;font-size:medium;line-height:125%;font-family:sans-serif;-inkscape-font-specification:'sans-serif Bold';letter-spacing:7.03102636px;word-spacing:0px;fill:#ffffff;fill-opacity:1;stroke:none;stroke-width:1px;stroke-linecap:butt;stroke-linejoin:miter;stroke-opacity:1" id="path4799"/>
  <path d="M 117.184 61.923 C 117.184 62.822 116.801 63.554 116.037 64.118 C 115.277 64.678 114.242 64.958 112.934 64.958 C 112.177 64.958 111.517 64.893 110.953 64.762 C 110.393 64.627 109.867 64.458 109.377 64.253 L 110.133 62.489 C 110.429 62.658 110.935 62.844 111.266 62.959 C 111.871 63.168 112.451 63.272 113.007 63.272 C 113.151 63.272 113.338 63.259 113.572 63.235 C 113.805 63.21 113.995 63.17 114.142 63.113 C 114.322 63.039 114.469 62.947 114.584 62.836 C 114.702 62.726 114.761 62.562 114.761 62.346 C 114.761 62.146 114.675 61.974 114.504 61.831 C 114.336 61.684 114.089 61.571 113.762 61.493 C 113.418 61.412 113.054 61.336 112.67 61.266 C 112.29 61.193 111.932 61.101 111.597 60.991 C 110.828 60.741 110.274 60.404 109.935 59.979 C 109.6 59.549 109.432 59.018 109.432 58.384 C 109.432 57.534 109.812 56.841 110.573 56.305 C 111.337 55.765 112.319 55.496 113.516 55.496 C 114.117 55.496 114.71 55.555 115.295 55.673 C 115.884 55.788 116.393 55.933 116.822 56.109 L 115.829 57.741 C 115.638 57.645 115.434 57.556 115.215 57.477 C 114.683 57.276 114.14 57.176 113.584 57.176 C 113.387 57.176 113.191 57.19 112.995 57.219 C 112.803 57.243 112.617 57.293 112.437 57.366 C 112.278 57.428 112.141 57.522 112.026 57.648 C 111.912 57.771 111.854 57.912 111.854 58.071 C 111.854 58.312 111.946 58.499 112.13 58.629 C 112.314 58.756 112.662 58.873 113.173 58.979 C 113.508 59.048 113.829 59.116 114.136 59.181 C 114.447 59.247 114.78 59.337 115.135 59.451 C 115.835 59.68 116.35 59.993 116.681 60.389 C 117.016 60.782 117.184 61.293 117.184 61.923 Z" style="font-style:normal;font-variant:normal;font-weight:bold;font-stretch:normal;font-size:medium;line-height:125%;font-family:sans-serif;-inkscape-font-specification:'sans-serif Bold';letter-spacing:7.03102636px;word-spacing:0px;fill:#ffffff;fill-opacity:1;stroke:none;stroke-width:1px;stroke-linecap:butt;stroke-linejoin:miter;stroke-opacity:1" id="path4801"/>
  <path d="M 150.482 57.593 L 147.631 57.593 L 147.631 64.958 L 145.276 64.958 L 145.276 57.593 L 142.424 57.593 L 142.424 55.827 L 150.482 55.827 L 150.482 57.593 Z" style="font-style:normal;font-variant:normal;font-weight:bold;font-stretch:normal;font-size:medium;line-height:125%;font-family:sans-serif;-inkscape-font-specification:'sans-serif Bold';letter-spacing:7.03102636px;word-spacing:0px;fill:#ffffff;fill-opacity:1;stroke:none;stroke-width:1px;stroke-linecap:butt;stroke-linejoin:miter;stroke-opacity:1" id="path4803"/>
  <path d="M 160.494 64.958 L 153.47 64.958 L 153.47 55.827 L 160.494 55.827 L 160.494 57.593 L 155.813 57.593 L 155.813 59.169 L 160.187 59.169 L 160.187 60.935 L 155.813 60.935 L 155.813 63.192 L 160.494 63.192 Z" style="font-style:normal;font-variant:normal;font-weight:bold;font-stretch:normal;font-size:medium;line-height:125%;font-family:sans-serif;-inkscape-font-specification:'sans-serif Bold';letter-spacing:7.03102636px;word-spacing:0px;fill:#ffffff;fill-opacity:1;stroke:none;stroke-width:1px;stroke-linecap:butt;stroke-linejoin:miter;stroke-opacity:1" id="path4805"/>
  <path d="M 176.2 64.958 L 173.732 64.958 L 173.522 60.557 L 170.973 64.956 L 169.348 64.956 L 166.799 60.557 L 166.59 64.958 L 164.244 64.958 L 164.579 55.827 L 166.874 55.827 L 170.225 62.137 L 173.57 55.827 L 175.865 55.827 Z" style="font-style:normal;font-variant:normal;font-weight:bold;font-stretch:normal;font-size:medium;line-height:125%;font-family:sans-serif;-inkscape-font-specification:'sans-serif Bold';letter-spacing:7.03102636px;word-spacing:0px;fill:#ffffff;fill-opacity:1;stroke:none;stroke-width:1px;stroke-linecap:butt;stroke-linejoin:miter;stroke-opacity:1" id="path4807"/>
  <path id="path4809" style="font-style:normal;font-variant:normal;font-weight:bold;font-stretch:normal;font-size:medium;line-height:125%;font-family:sans-serif;-inkscape-font-specification:'sans-serif Bold';letter-spacing:7.03102636px;word-spacing:0px;fill:#ffffff;fill-opacity:1;stroke:none;stroke-width:1px;stroke-linecap:butt;stroke-linejoin:miter;stroke-opacity:1" d="M 129.345 55.827 L 125.831 61.426 L 125.831 64.958 L 123.475 64.958 L 123.475 61.536 L 119.876 55.827 L 122.55 55.827 L 124.702 59.359 L 126.757 55.827 Z"/>
  <path id="path4811" style="font-style:normal;font-variant:normal;font-weight:bold;font-stretch:normal;font-size:medium;line-height:125%;font-family:sans-serif;-inkscape-font-specification:'sans-serif Bold';letter-spacing:7.03102636px;word-spacing:0px;fill:#ffffff;fill-opacity:1;stroke:none;stroke-width:1px;stroke-linecap:butt;stroke-linejoin:miter;stroke-opacity:1" d="M 139.378 61.923 C 139.378 62.822 138.996 63.554 138.231 64.118 C 137.471 64.678 136.436 64.958 135.128 64.958 C 134.372 64.958 133.712 64.893 133.147 64.762 C 132.587 64.627 132.062 64.458 131.571 64.253 L 132.328 62.489 C 132.624 62.658 133.13 62.844 133.46 62.959 C 134.065 63.168 134.646 63.272 135.202 63.272 C 135.345 63.272 135.533 63.259 135.766 63.235 C 135.999 63.21 136.189 63.17 136.337 63.113 C 136.516 63.039 136.663 62.947 136.778 62.836 C 136.897 62.726 136.956 62.562 136.956 62.346 C 136.956 62.146 136.87 61.974 136.698 61.831 C 136.531 61.684 136.283 61.571 135.956 61.493 C 135.613 61.412 135.249 61.336 134.865 61.266 C 134.484 61.193 134.127 61.101 133.791 60.991 C 133.023 60.741 132.469 60.404 132.13 59.979 C 131.794 59.549 131.626 59.018 131.626 58.384 C 131.626 57.534 132.007 56.841 132.767 56.305 C 133.532 55.765 134.513 55.496 135.711 55.496 C 136.312 55.496 136.905 55.555 137.489 55.673 C 138.078 55.788 138.587 55.933 139.016 56.109 L 138.024 57.741 C 137.833 57.645 137.628 57.556 137.41 57.477 C 136.878 57.276 136.335 57.176 135.778 57.176 C 135.582 57.176 135.386 57.19 135.19 57.219 C 134.998 57.243 134.811 57.293 134.632 57.366 C 134.472 57.428 134.335 57.522 134.221 57.648 C 134.106 57.771 134.049 57.912 134.049 58.071 C 134.049 58.312 134.141 58.499 134.325 58.629 C 134.509 58.756 134.856 58.873 135.367 58.979 C 135.703 59.048 136.024 59.116 136.33 59.181 C 136.641 59.247 136.974 59.337 137.33 59.451 C 138.029 59.68 138.544 59.993 138.875 60.389 C 139.211 60.782 139.378 61.293 139.378 61.923 Z"/>
  <path style="color: rgb(0, 0, 0); clip-rule: nonzero; display: inline; overflow: visible; visibility: visible; opacity: 1; isolation: auto; mix-blend-mode: normal; color-interpolation: sRGB; color-interpolation-filters: linearRGB; fill-opacity: 1; fill-rule: evenodd; stroke: none; stroke-width: 1px; stroke-linecap: butt; stroke-linejoin: miter; stroke-miterlimit: 4; stroke-dasharray: none; stroke-dashoffset: 0; stroke-opacity: 1; color-rendering: auto; image-rendering: auto; shape-rendering: auto; text-rendering: auto; fill: rgb(255, 255, 255);" d="M 184.21 55.85 L 184.21 56.336 L 184.223 56.336 C 184.263 56.336 186.081 56.369 186.081 57.132 L 186.081 63.697 C 186.081 64.137 185.252 64.492 184.223 64.492 L 184.21 64.492 L 184.21 64.978 L 186.669 64.978 L 187.327 64.978 L 189.786 64.978 L 189.786 64.492 L 189.774 64.492 C 188.744 64.492 187.915 64.137 187.915 63.697 L 187.915 57.132 C 187.915 56.369 189.733 56.336 189.774 56.336 L 189.786 56.336 L 189.786 55.85 L 187.327 55.85 L 186.669 55.85 L 184.21 55.85 Z" id="path4783"/>
  <path style="clip-rule: evenodd; fill-opacity: 1; fill-rule: evenodd; fill: rgb(20, 20, 20);" d="M 44.754 11.347 L 32.786 23.989 L 24.881 18.569 C 24.881 18.569 27.482 16.087 25.109 14.28 C 23.259 12.87 18.069 15.86 18.294 21.731 C 18.558 28.504 22.743 32.341 27.365 32.341 C 31.659 32.341 32.786 28.88 32.786 28.88 L 42.405 28.88 L 42.405 36.86 L 55.926 1.186 L 71.394 1.186 L 83.813 33.249 C 83.813 33.249 84.716 34.939 85.618 35.391 C 85.618 35.391 85.67 14.359 85.67 13.768 C 85.67 13.179 85.592 12.528 85.224 12.106 C 84.618 11.408 83.586 11.119 83.586 11.119 L 83.586 1.186 C 83.586 1.186 97.919 1.186 105.26 1.186 C 116.502 1.186 119.386 4.234 122.646 10.106 C 127.146 4.046 133.342 0.056 142.177 0.056 C 151.265 0.056 157.697 3.407 161.37 8.974 C 166.5 2.842 174.757 0 182.312 0 C 191.597 0 199.352 4.5 203.365 11.459 L 203.365 1.186 L 224.248 1.186 L 226.448 6.772 L 228.088 1.186 L 249.65 1.186 L 249.65 10.893 C 249.65 10.893 248.406 11.234 248.063 11.794 C 247.728 12.347 247.787 14.113 247.787 14.113 L 250.795 33.3 C 250.921 33.924 251.143 34.576 251.681 35.053 C 252.305 35.611 253.148 35.507 253.148 35.507 L 253.148 46.567 L 231.474 46.567 L 231.474 38.212 L 219.057 38.212 L 219.057 46.589 L 198.68 46.589 L 198.68 41.144 C 198.68 41.144 191.232 47.694 181.634 47.694 C 169.35 47.694 161.143 38.664 161.143 38.664 L 161.143 46.565 C 161.143 46.565 160.241 46.565 146.696 46.565 C 133.836 46.565 122.797 39.529 119.714 26.697 C 118.252 28.095 111.807 32.696 104.077 34.43 C 103.476 34.565 103.176 34.79 103.176 35.442 C 103.176 36.63 105.716 37.054 105.716 37.054 L 105.716 46.564 C 105.716 46.564 38.885 46.564 26.469 46.564 C 11.791 46.567 0 36.52 0 23.764 C 0 11.007 9.193 0.168 24.432 0.168 C 38.996 0.168 44.755 11.347 44.755 11.347 L 44.755 11.347 Z" id="path4815"/>
  <path style="clip-rule: evenodd; fill-opacity: 1; fill-rule: evenodd; fill: rgb(255, 255, 255);" d="M 39.051 11.545 L 32.675 18.23 C 32.675 18.23 32.337 18.401 32.055 18.401 C 31.772 18.401 31.375 18.117 31.375 18.117 L 30.586 17.443 C 30.586 17.443 30.359 17.388 30.359 17.16 C 30.359 16.937 30.981 16.369 30.981 15.296 C 30.981 14.223 30.756 9.764 23.87 9.764 C 16.985 9.764 13.936 16.199 13.936 21.506 C 13.936 26.812 17.208 36.52 27.936 36.52 C 34.175 36.52 35.496 33.017 35.496 33.017 L 37.64 33.017 L 37.64 42.164 L 25.901 42.164 C 11.904 42.164 4.113 31.211 4.113 23.31 C 4.113 11.194 14.648 4.471 24.208 4.471 C 33.465 4.472 39.051 11.545 39.051 11.545 L 39.051 11.545 Z" id="path4817"/>
  <path style="clip-rule: evenodd; fill-opacity: 1; fill-rule: evenodd; fill: rgb(255, 255, 255);" d="M 58.81 5.477 L 68.461 5.477 L 80.203 36.183 C 80.539 37.027 81.104 37.822 81.668 38.496 C 82.23 39.174 83.586 39.628 83.586 39.628 L 83.586 42.277 L 69.422 42.277 L 69.422 39.568 C 69.422 39.568 70.323 39.684 70.776 38.892 C 71.227 38.101 71.227 37.481 70.89 36.692 C 70.551 35.9 68.175 29.636 68.175 29.636 L 56.606 29.636 C 56.606 29.636 54.238 35.957 54.009 36.521 C 53.783 37.085 53.783 37.99 54.009 38.552 C 54.385 39.491 55.704 39.629 55.704 39.629 L 55.704 42.278 L 44.357 42.278 L 44.357 39.629 C 44.357 39.629 45.389 39.274 46.163 38.497 C 47.009 37.651 47.291 36.746 47.291 36.746 L 58.81 5.477 L 58.81 5.477 Z M 58.525 23.877 L 65.978 23.877 L 62.14 13.153 L 58.525 23.877 L 58.525 23.877 Z" id="path4819"/>
  <path style="clip-rule: evenodd; fill-opacity: 1; fill-rule: evenodd; fill: rgb(255, 255, 255);" d="M 88.102 5.477 C 88.102 5.477 99.503 5.477 106.165 5.477 C 112.826 5.477 119.484 7.845 119.484 15.521 C 119.484 23.198 114.63 25.909 110.455 27.829 C 105.633 30.044 99.279 31.781 99.279 31.781 L 99.279 37.649 C 99.279 37.649 99.336 38.045 99.899 38.718 C 100.465 39.396 101.086 39.567 101.086 39.567 L 101.086 42.276 L 87.99 42.276 L 87.99 39.627 C 87.99 39.627 88.779 39.455 89.347 38.891 C 89.909 38.326 90.024 37.649 90.024 37.649 L 90.024 11.12 C 90.024 11.12 90.076 9.99 89.628 9.541 C 89.177 9.085 88.103 8.467 88.103 8.467 L 88.103 5.477 L 88.102 5.477 L 88.102 5.477 Z M 99.391 11.007 L 99.391 26.698 C 99.391 26.698 110.002 22.297 110.002 16.087 C 110.002 8.411 99.391 11.007 99.391 11.007 L 99.391 11.007 Z" id="path4821"/>
  <path style="clip-rule: evenodd; fill-opacity: 1; fill-rule: evenodd; fill: rgb(255, 255, 255);" d="M 158.603 11.61 L 152.225 18.295 C 152.225 18.295 151.886 18.465 151.603 18.465 C 151.323 18.465 150.928 18.182 150.928 18.182 L 150.136 17.503 C 150.136 17.503 149.911 17.45 149.911 17.225 C 149.911 16.998 150.53 16.43 150.53 15.362 C 150.53 14.288 150.307 9.829 143.419 9.829 C 136.531 9.829 133.484 16.262 133.484 21.569 C 133.484 26.872 136.758 36.583 147.485 36.583 C 153.724 36.583 155.047 33.082 155.047 33.082 L 157.193 33.082 L 157.193 42.226 L 145.449 42.226 C 131.453 42.226 123.661 31.277 123.661 23.374 C 123.661 11.26 134.195 4.534 143.756 4.534 C 153.014 4.534 158.603 11.61 158.603 11.61 L 158.603 11.61 Z" id="path4823"/>
  <path style="clip-rule: evenodd; fill-opacity: 1; fill-rule: evenodd; fill: rgb(255, 255, 255);" d="M 181.464 43.336 C 169.27 43.336 160.506 34.432 160.506 23.597 C 160.506 12.755 169.497 4.358 181.464 4.358 C 193.427 4.358 202.418 12.755 202.418 23.597 C 202.418 34.431 193.653 43.336 181.464 43.336 L 181.464 43.336 Z M 170.624 23.764 C 170.624 34.602 176.156 37.311 181.464 37.311 C 186.766 37.311 192.414 33.924 192.414 23.764 C 192.414 13.605 186.092 10.217 181.464 10.217 C 176.835 10.217 170.624 12.924 170.624 23.764 L 170.624 23.764 Z" id="path4825"/>
  <path style="clip-rule: evenodd; fill-opacity: 1; fill-rule: evenodd; fill: rgb(255, 255, 255);" d="M 207.877 5.5 L 221.313 5.5 L 226.167 20.491 L 231.358 5.477 L 245.411 5.477 L 245.411 7.676 C 245.411 7.676 244.477 8.072 244.061 8.58 C 243.553 9.202 243.553 9.652 243.665 10.558 C 243.778 11.459 247.389 35.957 247.503 36.861 C 247.618 37.765 247.728 38.272 247.954 38.894 C 248.178 39.509 249.253 40.02 249.253 40.02 L 249.253 42.297 L 235.761 42.297 L 235.761 39.852 C 235.761 39.852 236.946 39.683 237.344 39.116 C 237.739 38.551 237.906 38.212 237.794 37.311 C 237.681 36.408 234.466 15.862 234.466 15.862 L 228.595 34.037 L 221.483 34.037 L 215.667 16.988 L 212.733 37.084 C 212.733 37.084 212.619 38.29 213.072 38.948 C 213.692 39.852 214.825 39.852 214.825 39.852 L 214.825 42.277 L 203.136 42.277 L 203.136 39.684 C 203.136 39.684 204.067 39.541 204.744 38.749 C 205.42 37.961 205.535 36.942 205.535 36.942 L 209.798 10.442 C 209.798 10.442 210.054 9.452 209.77 9.003 C 209.472 8.527 207.878 8.128 207.878 8.128 L 207.878 5.5 L 207.877 5.5 Z" id="path4827"/>
  <path style="color: rgb(0, 0, 0); clip-rule: nonzero; display: inline; overflow: visible; visibility: visible; opacity: 1; isolation: auto; mix-blend-mode: normal; color-interpolation: sRGB; color-interpolation-filters: linearRGB; fill-opacity: 1; fill-rule: evenodd; stroke: none; stroke-width: 1px; stroke-linecap: butt; stroke-linejoin: miter; stroke-miterlimit: 4; stroke-dasharray: none; stroke-dashoffset: 0; stroke-opacity: 1; color-rendering: auto; image-rendering: auto; shape-rendering: auto; text-rendering: auto; fill: rgb(255, 255, 255);" d="M 189.79 55.85 L 189.79 56.336 L 189.803 56.336 C 189.843 56.336 191.661 56.369 191.661 57.132 L 191.661 63.697 C 191.661 64.137 190.832 64.492 189.803 64.492 L 189.79 64.492 L 189.79 64.978 L 192.249 64.978 L 192.907 64.978 L 195.366 64.978 L 195.366 64.492 L 195.354 64.492 C 194.324 64.492 193.495 64.137 193.495 63.697 L 193.495 57.132 C 193.495 56.369 195.313 56.336 195.354 56.336 L 195.366 56.336 L 195.366 55.85 L 192.907 55.85 L 192.249 55.85 L 189.79 55.85 Z" id="path-1"/>
</svg>