<?xml version="1.0" encoding="utf-8"?>
<svg version="1.1" id="svg2" x="0px" y="0px" enable-background="new 0.25 0 567.927 113.032" xmlns="http://www.w3.org/2000/svg" xmlns:bx="https://boxy-svg.com">
  <g transform="matrix(3, 0, 0, 3, 0, 0)" bx:origin="0 0">
    <path d="M 22.869 39.465 L 177.131 39.465 C 181.292 39.465 184.664 42.837 184.664 46.998 L 184.664 48.168 C 184.664 52.327 181.292 55.7 177.131 55.7 L 22.869 55.7 C 18.708 55.7 15.336 52.327 15.336 48.168 L 15.336 46.998 C 15.336 42.837 18.708 39.465 22.869 39.465 Z" style="color: rgb(0, 0, 0); clip-rule: nonzero; display: inline; overflow: visible; visibility: visible; opacity: 1; isolation: auto; mix-blend-mode: normal; color-interpolation: sRGB; color-interpolation-filters: linearRGB; fill-opacity: 1; fill-rule: evenodd; stroke: none; stroke-width: 1px; stroke-linecap: butt; stroke-linejoin: miter; stroke-miterlimit: 4; stroke-dasharray: none; stroke-dashoffset: 0; stroke-opacity: 1; color-rendering: auto; image-rendering: auto; shape-rendering: auto; text-rendering: auto; fill: rgb(20, 20, 20);" id="rect4789"/>
    <path d="M 49.796 46.383 C 49.796 46.706 49.739 47.023 49.626 47.333 C 49.513 47.64 49.352 47.899 49.142 48.108 C 48.855 48.392 48.533 48.607 48.178 48.753 C 47.826 48.898 47.387 48.971 46.859 48.971 L 45.702 48.971 L 45.702 51.32 L 43.842 51.32 L 43.842 44.106 L 46.904 44.106 C 47.362 44.106 47.749 44.146 48.061 44.227 C 48.378 44.304 48.658 44.422 48.9 44.581 C 49.191 44.772 49.411 45.016 49.563 45.312 C 49.719 45.609 49.796 45.967 49.796 46.383 Z M 47.873 46.427 C 47.873 46.224 47.817 46.049 47.708 45.904 C 47.598 45.755 47.47 45.651 47.325 45.593 C 47.131 45.515 46.942 45.474 46.757 45.467 C 46.575 45.458 46.329 45.453 46.022 45.453 L 45.702 45.453 L 45.702 47.614 L 46.235 47.614 C 46.552 47.614 46.811 47.594 47.015 47.556 C 47.221 47.517 47.394 47.44 47.534 47.323 C 47.653 47.22 47.738 47.097 47.791 46.955 C 47.845 46.809 47.873 46.633 47.873 46.427 Z" style="font-style:normal;font-variant:normal;font-weight:bold;font-stretch:normal;font-size:medium;line-height:125%;font-family:sans-serif;-inkscape-font-specification:'sans-serif Bold';letter-spacing:7.03102636px;word-spacing:0px;fill:#ffffff;fill-opacity:1;stroke:none;stroke-width:1px;stroke-linecap:butt;stroke-linejoin:miter;stroke-opacity:1" id="path4793"/>
    <path d="M 58.164 51.32 L 52.96 51.32 L 52.96 44.106 L 54.82 44.106 L 54.82 49.925 L 58.164 49.925 L 58.164 51.32 Z" style="font-style:normal;font-variant:normal;font-weight:bold;font-stretch:normal;font-size:medium;line-height:125%;font-family:sans-serif;-inkscape-font-specification:'sans-serif Bold';letter-spacing:7.03102636px;word-spacing:0px;fill:#ffffff;fill-opacity:1;stroke:none;stroke-width:1px;stroke-linecap:butt;stroke-linejoin:miter;stroke-opacity:1" id="path4795"/>
    <path d="M 70.055 51.32 L 68.131 51.32 L 67.515 49.862 L 63.856 49.862 L 63.205 51.32 L 61.33 51.32 L 64.621 44.106 L 66.764 44.106 Z M 66.959 48.539 L 65.668 45.953 L 64.388 48.539 Z" style="font-style:normal;font-variant:normal;font-weight:bold;font-stretch:normal;font-size:medium;line-height:125%;font-family:sans-serif;-inkscape-font-specification:'sans-serif Bold';letter-spacing:7.03102636px;word-spacing:0px;fill:#ffffff;fill-opacity:1;stroke:none;stroke-width:1px;stroke-linecap:butt;stroke-linejoin:miter;stroke-opacity:1" id="path4797"/>
    <path d="M 77.157 44.106 L 74.38 48.53 L 74.38 51.32 L 72.519 51.32 L 72.519 48.617 L 69.675 44.106 L 71.788 44.106 L 73.489 46.896 L 75.111 44.106 Z" style="font-style:normal;font-variant:normal;font-weight:bold;font-stretch:normal;font-size:medium;line-height:125%;font-family:sans-serif;-inkscape-font-specification:'sans-serif Bold';letter-spacing:7.03102636px;word-spacing:0px;fill:#ffffff;fill-opacity:1;stroke:none;stroke-width:1px;stroke-linecap:butt;stroke-linejoin:miter;stroke-opacity:1" id="path4799"/>
    <path d="M 90.377 48.923 C 90.377 49.632 90.074 50.211 89.471 50.657 C 88.87 51.099 88.053 51.32 87.02 51.32 C 86.421 51.32 85.9 51.269 85.455 51.165 C 85.012 51.058 84.596 50.925 84.209 50.763 L 84.806 49.369 C 85.04 49.503 85.44 49.65 85.702 49.741 C 86.179 49.906 86.638 49.988 87.077 49.988 C 87.191 49.988 87.338 49.978 87.523 49.959 C 87.707 49.939 87.858 49.908 87.974 49.862 C 88.116 49.804 88.232 49.731 88.323 49.643 C 88.417 49.557 88.463 49.427 88.463 49.257 C 88.463 49.099 88.395 48.963 88.26 48.85 C 88.127 48.734 87.932 48.644 87.674 48.583 C 87.402 48.519 87.115 48.458 86.811 48.403 C 86.511 48.345 86.228 48.273 85.963 48.186 C 85.356 47.988 84.918 47.723 84.65 47.387 C 84.386 47.047 84.253 46.628 84.253 46.126 C 84.253 45.455 84.553 44.908 85.154 44.484 C 85.758 44.057 86.534 43.845 87.479 43.845 C 87.954 43.845 88.423 43.892 88.885 43.984 C 89.35 44.075 89.753 44.19 90.091 44.329 L 89.307 45.618 C 89.156 45.542 88.994 45.472 88.821 45.409 C 88.402 45.251 87.972 45.172 87.533 45.172 C 87.377 45.172 87.222 45.183 87.068 45.206 C 86.916 45.225 86.769 45.265 86.627 45.322 C 86.501 45.371 86.393 45.445 86.302 45.545 C 86.212 45.642 86.166 45.753 86.166 45.879 C 86.166 46.07 86.239 46.217 86.384 46.32 C 86.53 46.421 86.805 46.513 87.208 46.597 C 87.473 46.651 87.726 46.704 87.969 46.756 C 88.215 46.808 88.478 46.879 88.758 46.969 C 89.311 47.15 89.719 47.398 89.979 47.711 C 90.244 48.021 90.377 48.424 90.377 48.923 Z" style="font-style:normal;font-variant:normal;font-weight:bold;font-stretch:normal;font-size:medium;line-height:125%;font-family:sans-serif;-inkscape-font-specification:'sans-serif Bold';letter-spacing:7.03102636px;word-spacing:0px;fill:#ffffff;fill-opacity:1;stroke:none;stroke-width:1px;stroke-linecap:butt;stroke-linejoin:miter;stroke-opacity:1" id="path4801"/>
    <path d="M 116.685 45.501 L 114.432 45.501 L 114.432 51.32 L 112.572 51.32 L 112.572 45.501 L 110.318 45.501 L 110.318 44.106 L 116.685 44.106 L 116.685 45.501 Z" style="font-style:normal;font-variant:normal;font-weight:bold;font-stretch:normal;font-size:medium;line-height:125%;font-family:sans-serif;-inkscape-font-specification:'sans-serif Bold';letter-spacing:7.03102636px;word-spacing:0px;fill:#ffffff;fill-opacity:1;stroke:none;stroke-width:1px;stroke-linecap:butt;stroke-linejoin:miter;stroke-opacity:1" id="path4803"/>
    <path d="M 124.594 51.32 L 119.045 51.32 L 119.045 44.106 L 124.594 44.106 L 124.594 45.501 L 120.896 45.501 L 120.896 46.746 L 124.352 46.746 L 124.352 48.141 L 120.896 48.141 L 120.896 49.925 L 124.594 49.925 Z" style="font-style:normal;font-variant:normal;font-weight:bold;font-stretch:normal;font-size:medium;line-height:125%;font-family:sans-serif;-inkscape-font-specification:'sans-serif Bold';letter-spacing:7.03102636px;word-spacing:0px;fill:#ffffff;fill-opacity:1;stroke:none;stroke-width:1px;stroke-linecap:butt;stroke-linejoin:miter;stroke-opacity:1" id="path4805"/>
    <path d="M 137.003 51.32 L 135.053 51.32 L 134.887 47.843 L 132.874 51.319 L 131.59 51.319 L 129.575 47.843 L 129.41 51.32 L 127.557 51.32 L 127.821 44.106 L 129.635 44.106 L 132.282 49.092 L 134.925 44.106 L 136.738 44.106 Z" style="font-style:normal;font-variant:normal;font-weight:bold;font-stretch:normal;font-size:medium;line-height:125%;font-family:sans-serif;-inkscape-font-specification:'sans-serif Bold';letter-spacing:7.03102636px;word-spacing:0px;fill:#ffffff;fill-opacity:1;stroke:none;stroke-width:1px;stroke-linecap:butt;stroke-linejoin:miter;stroke-opacity:1" id="path4807"/>
    <path id="path4809" style="font-style:normal;font-variant:normal;font-weight:bold;font-stretch:normal;font-size:medium;line-height:125%;font-family:sans-serif;-inkscape-font-specification:'sans-serif Bold';letter-spacing:7.03102636px;word-spacing:0px;fill:#ffffff;fill-opacity:1;stroke:none;stroke-width:1px;stroke-linecap:butt;stroke-linejoin:miter;stroke-opacity:1" d="M 99.985 44.106 L 97.209 48.53 L 97.209 51.32 L 95.347 51.32 L 95.347 48.617 L 92.504 44.106 L 94.617 44.106 L 96.317 46.896 L 97.941 44.106 Z"/>
    <path id="path4811" style="font-style:normal;font-variant:normal;font-weight:bold;font-stretch:normal;font-size:medium;line-height:125%;font-family:sans-serif;-inkscape-font-specification:'sans-serif Bold';letter-spacing:7.03102636px;word-spacing:0px;fill:#ffffff;fill-opacity:1;stroke:none;stroke-width:1px;stroke-linecap:butt;stroke-linejoin:miter;stroke-opacity:1" d="M 107.911 48.923 C 107.911 49.632 107.609 50.211 107.006 50.657 C 106.405 51.099 105.587 51.32 104.554 51.32 C 103.957 51.32 103.435 51.269 102.989 51.165 C 102.546 51.058 102.131 50.925 101.744 50.763 L 102.341 49.369 C 102.575 49.503 102.975 49.65 103.236 49.741 C 103.714 49.906 104.173 49.988 104.613 49.988 C 104.726 49.988 104.874 49.978 105.058 49.959 C 105.242 49.939 105.392 49.908 105.509 49.862 C 105.651 49.804 105.767 49.731 105.858 49.643 C 105.952 49.557 105.998 49.427 105.998 49.257 C 105.998 49.099 105.93 48.963 105.794 48.85 C 105.662 48.734 105.466 48.644 105.208 48.583 C 104.937 48.519 104.65 48.458 104.346 48.403 C 104.045 48.345 103.763 48.273 103.497 48.186 C 102.891 47.988 102.453 47.723 102.185 47.387 C 101.92 47.047 101.787 46.628 101.787 46.126 C 101.787 45.455 102.088 44.908 102.689 44.484 C 103.293 44.057 104.068 43.845 105.014 43.845 C 105.489 43.845 105.958 43.892 106.419 43.984 C 106.885 44.075 107.287 44.19 107.625 44.329 L 106.842 45.618 C 106.691 45.542 106.529 45.472 106.357 45.409 C 105.937 45.251 105.507 45.172 105.067 45.172 C 104.912 45.172 104.757 45.183 104.603 45.206 C 104.451 45.225 104.304 45.265 104.162 45.322 C 104.036 45.371 103.927 45.445 103.837 45.545 C 103.746 45.642 103.701 45.753 103.701 45.879 C 103.701 46.07 103.774 46.217 103.919 46.32 C 104.065 46.421 104.339 46.513 104.742 46.597 C 105.008 46.651 105.262 46.704 105.504 46.756 C 105.749 46.808 106.013 46.879 106.293 46.969 C 106.846 47.15 107.253 47.398 107.514 47.711 C 107.779 48.021 107.911 48.424 107.911 48.923 Z"/>
    <path style="color: rgb(0, 0, 0); clip-rule: nonzero; display: inline; overflow: visible; visibility: visible; opacity: 1; isolation: auto; mix-blend-mode: normal; color-interpolation: sRGB; color-interpolation-filters: linearRGB; fill-opacity: 1; fill-rule: evenodd; stroke: none; stroke-width: 1px; stroke-linecap: butt; stroke-linejoin: miter; stroke-miterlimit: 4; stroke-dasharray: none; stroke-dashoffset: 0; stroke-opacity: 1; color-rendering: auto; image-rendering: auto; shape-rendering: auto; text-rendering: auto; fill: rgb(255, 255, 255);" d="M 143.331 44.124 L 143.331 44.508 L 143.341 44.508 C 143.373 44.508 144.809 44.534 144.809 45.138 L 144.809 50.324 C 144.809 50.672 144.154 50.952 143.341 50.952 L 143.331 50.952 L 143.331 51.336 L 145.274 51.336 L 145.794 51.336 L 147.737 51.336 L 147.737 50.952 L 147.727 50.952 C 146.913 50.952 146.258 50.672 146.258 50.324 L 146.258 45.138 C 146.258 44.534 147.695 44.508 147.727 44.508 L 147.737 44.508 L 147.737 44.124 L 145.794 44.124 L 145.274 44.124 L 143.331 44.124 Z" id="path4783"/>
    <path style="clip-rule: evenodd; fill-opacity: 1; fill-rule: evenodd; fill: rgb(20, 20, 20);" d="M 35.358 8.964 L 25.903 18.953 L 19.657 14.67 C 19.657 14.67 21.712 12.71 19.837 11.282 C 18.375 10.168 14.275 12.53 14.453 17.168 C 14.662 22.519 17.968 25.551 21.62 25.551 C 25.012 25.551 25.903 22.817 25.903 22.817 L 33.502 22.817 L 33.502 29.121 L 44.184 0.937 L 56.405 0.937 L 66.217 26.269 C 66.217 26.269 66.93 27.604 67.643 27.96 C 67.643 27.96 67.684 11.345 67.684 10.877 C 67.684 10.412 67.622 9.898 67.331 9.564 C 66.853 9.013 66.037 8.785 66.037 8.785 L 66.037 0.937 C 66.037 0.937 77.361 0.937 83.16 0.937 C 92.043 0.937 94.321 3.345 96.896 7.984 C 100.452 3.197 105.347 0.044 112.327 0.044 C 119.507 0.044 124.589 2.692 127.491 7.09 C 131.544 2.245 138.067 0 144.036 0 C 151.372 0 157.498 3.555 160.669 9.053 L 160.669 0.937 L 177.168 0.937 L 178.906 5.35 L 180.202 0.937 L 197.236 0.937 L 197.236 8.606 C 197.236 8.606 196.254 8.875 195.983 9.318 C 195.718 9.755 195.764 11.15 195.764 11.15 L 198.141 26.309 C 198.24 26.802 198.416 27.317 198.841 27.694 C 199.334 28.134 200 28.052 200 28.052 L 200 36.791 L 182.877 36.791 L 182.877 30.19 L 173.066 30.19 L 173.066 36.808 L 156.968 36.808 L 156.968 32.506 C 156.968 32.506 151.083 37.681 143.5 37.681 C 133.795 37.681 127.311 30.546 127.311 30.546 L 127.311 36.789 C 127.311 36.789 126.598 36.789 115.897 36.789 C 105.738 36.789 97.016 31.23 94.58 21.092 C 93.425 22.197 88.334 25.832 82.226 27.202 C 81.752 27.308 81.515 27.486 81.515 28.001 C 81.515 28.94 83.521 29.274 83.521 29.274 L 83.521 36.788 C 83.521 36.788 30.721 36.788 20.912 36.788 C 9.315 36.791 0 28.853 0 18.775 C 0 8.696 7.263 0.133 19.303 0.133 C 30.809 0.133 35.359 8.964 35.359 8.964 L 35.359 8.964 Z" id="path4815"/>
    <path style="clip-rule: evenodd; fill-opacity: 1; fill-rule: evenodd; fill: rgb(255, 255, 255);" d="M 30.852 9.121 L 25.815 14.402 C 25.815 14.402 25.548 14.538 25.325 14.538 C 25.101 14.538 24.788 14.313 24.788 14.313 L 24.164 13.781 C 24.164 13.781 23.985 13.738 23.985 13.557 C 23.985 13.381 24.477 12.932 24.477 12.085 C 24.477 11.237 24.299 7.714 18.858 7.714 C 13.419 7.714 11.01 12.798 11.01 16.991 C 11.01 21.183 13.595 28.853 22.071 28.853 C 27 28.853 28.043 26.085 28.043 26.085 L 29.738 26.085 L 29.738 33.311 L 20.463 33.311 C 9.405 33.311 3.25 24.658 3.25 18.416 C 3.25 8.843 11.572 3.532 19.126 3.532 C 26.439 3.533 30.852 9.121 30.852 9.121 L 30.852 9.121 Z" id="path4817"/>
    <path style="clip-rule: evenodd; fill-opacity: 1; fill-rule: evenodd; fill: rgb(255, 255, 255);" d="M 46.463 4.327 L 54.088 4.327 L 63.364 28.587 C 63.63 29.253 64.077 29.881 64.522 30.413 C 64.966 30.949 66.037 31.308 66.037 31.308 L 66.037 33.401 L 54.847 33.401 L 54.847 31.261 C 54.847 31.261 55.559 31.353 55.917 30.726 C 56.273 30.102 56.273 29.612 56.007 28.989 C 55.739 28.363 53.862 23.414 53.862 23.414 L 44.722 23.414 C 44.722 23.414 42.851 28.408 42.67 28.854 C 42.492 29.299 42.492 30.014 42.67 30.458 C 42.967 31.2 44.009 31.309 44.009 31.309 L 44.009 33.402 L 35.044 33.402 L 35.044 31.309 C 35.044 31.309 35.859 31.028 36.471 30.414 C 37.14 29.746 37.362 29.032 37.362 29.032 L 46.463 4.327 L 46.463 4.327 Z M 46.238 18.864 L 52.126 18.864 L 49.094 10.391 L 46.238 18.864 L 46.238 18.864 Z" id="path4819"/>
    <path style="clip-rule: evenodd; fill-opacity: 1; fill-rule: evenodd; fill: rgb(255, 255, 255);" d="M 69.605 4.327 C 69.605 4.327 78.613 4.327 83.876 4.327 C 89.138 4.327 94.398 6.198 94.398 12.262 C 94.398 18.327 90.564 20.47 87.265 21.987 C 83.455 23.736 78.436 25.108 78.436 25.108 L 78.436 29.745 C 78.436 29.745 78.481 30.058 78.926 30.589 C 79.372 31.125 79.863 31.26 79.863 31.26 L 79.863 33.4 L 69.517 33.4 L 69.517 31.308 C 69.517 31.308 70.14 31.172 70.589 30.726 C 71.032 30.28 71.123 29.745 71.123 29.745 L 71.123 8.785 C 71.123 8.785 71.164 7.892 70.811 7.538 C 70.455 7.178 69.606 6.689 69.606 6.689 L 69.606 4.327 L 69.605 4.327 L 69.605 4.327 Z M 78.524 8.696 L 78.524 21.092 C 78.524 21.092 86.908 17.616 86.908 12.71 C 86.908 6.645 78.524 8.696 78.524 8.696 L 78.524 8.696 Z" id="path4821"/>
    <path style="clip-rule: evenodd; fill-opacity: 1; fill-rule: evenodd; fill: rgb(255, 255, 255);" d="M 125.304 9.172 L 120.266 14.454 C 120.266 14.454 119.998 14.588 119.774 14.588 C 119.553 14.588 119.241 14.364 119.241 14.364 L 118.615 13.828 C 118.615 13.828 118.437 13.787 118.437 13.609 C 118.437 13.429 118.926 12.98 118.926 12.137 C 118.926 11.289 118.75 7.765 113.308 7.765 C 107.866 7.765 105.459 12.847 105.459 17.04 C 105.459 21.23 108.046 28.903 116.521 28.903 C 121.45 28.903 122.495 26.137 122.495 26.137 L 124.19 26.137 L 124.19 33.36 L 114.912 33.36 C 103.855 33.36 97.699 24.711 97.699 18.466 C 97.699 8.896 106.021 3.582 113.575 3.582 C 120.889 3.582 125.304 9.172 125.304 9.172 L 125.304 9.172 Z" id="path4823"/>
    <path style="clip-rule: evenodd; fill-opacity: 1; fill-rule: evenodd; fill: rgb(255, 255, 255);" d="M 143.366 34.238 C 133.732 34.238 126.808 27.203 126.808 18.643 C 126.808 10.077 133.911 3.443 143.366 3.443 C 152.817 3.443 159.921 10.077 159.921 18.643 C 159.921 27.202 152.996 34.238 143.366 34.238 L 143.366 34.238 Z M 134.802 18.775 C 134.802 27.338 139.172 29.477 143.366 29.477 C 147.555 29.477 152.017 26.802 152.017 18.775 C 152.017 10.749 147.022 8.072 143.366 8.072 C 139.709 8.072 134.802 10.21 134.802 18.775 L 134.802 18.775 Z" id="path4825"/>
    <path style="clip-rule: evenodd; fill-opacity: 1; fill-rule: evenodd; fill: rgb(255, 255, 255);" d="M 164.233 4.345 L 174.849 4.345 L 178.684 16.189 L 182.785 4.327 L 193.888 4.327 L 193.888 6.065 C 193.888 6.065 193.149 6.377 192.821 6.779 C 192.42 7.27 192.42 7.625 192.508 8.342 C 192.597 9.053 195.45 28.408 195.54 29.122 C 195.631 29.836 195.718 30.237 195.896 30.728 C 196.074 31.214 196.923 31.618 196.923 31.618 L 196.923 33.417 L 186.263 33.417 L 186.263 31.485 C 186.263 31.485 187.199 31.352 187.514 30.904 C 187.826 30.457 187.958 30.19 187.87 29.477 C 187.78 28.764 185.24 12.532 185.24 12.532 L 180.602 26.891 L 174.983 26.891 L 170.388 13.421 L 168.07 29.298 C 168.07 29.298 167.98 30.251 168.338 30.771 C 168.828 31.485 169.723 31.485 169.723 31.485 L 169.723 33.401 L 160.488 33.401 L 160.488 31.353 C 160.488 31.353 161.224 31.24 161.758 30.613 C 162.292 29.991 162.383 29.186 162.383 29.186 L 165.751 8.25 C 165.751 8.25 165.953 7.467 165.729 7.113 C 165.494 6.737 164.234 6.421 164.234 6.421 L 164.234 4.345 L 164.233 4.345 Z" id="path4827"/>
    <path style="color: rgb(0, 0, 0); clip-rule: nonzero; display: inline; overflow: visible; visibility: visible; opacity: 1; isolation: auto; mix-blend-mode: normal; color-interpolation: sRGB; color-interpolation-filters: linearRGB; fill-opacity: 1; fill-rule: evenodd; stroke: none; stroke-width: 1px; stroke-linecap: butt; stroke-linejoin: miter; stroke-miterlimit: 4; stroke-dasharray: none; stroke-dashoffset: 0; stroke-opacity: 1; color-rendering: auto; image-rendering: auto; shape-rendering: auto; text-rendering: auto; fill: rgb(255, 255, 255);" d="M 147.74 44.124 L 147.74 44.508 L 147.75 44.508 C 147.782 44.508 149.218 44.534 149.218 45.138 L 149.218 50.324 C 149.218 50.672 148.563 50.952 147.75 50.952 L 147.74 50.952 L 147.74 51.336 L 149.682 51.336 L 150.202 51.336 L 152.145 51.336 L 152.145 50.952 L 152.135 50.952 C 151.322 50.952 150.667 50.672 150.667 50.324 L 150.667 45.138 C 150.667 44.534 152.103 44.508 152.135 44.508 L 152.145 44.508 L 152.145 44.124 L 150.202 44.124 L 149.682 44.124 L 147.74 44.124 Z" id="path-1"/>
    <path style="color: rgb(0, 0, 0); clip-rule: nonzero; display: inline; overflow: visible; visibility: visible; opacity: 1; isolation: auto; mix-blend-mode: normal; color-interpolation: sRGB; color-interpolation-filters: linearRGB; fill-opacity: 1; fill-rule: evenodd; stroke: none; stroke-width: 1px; stroke-linecap: butt; stroke-linejoin: miter; stroke-miterlimit: 4; stroke-dasharray: none; stroke-dashoffset: 0; stroke-opacity: 1; color-rendering: auto; image-rendering: auto; shape-rendering: auto; text-rendering: auto; fill: rgb(255, 255, 255);" d="M 152.148 44.124 L 152.148 44.508 L 152.158 44.508 C 152.19 44.508 153.626 44.534 153.626 45.138 L 153.626 50.324 C 153.626 50.672 152.972 50.952 152.158 50.952 L 152.148 50.952 L 152.148 51.336 L 154.091 51.336 L 154.611 51.336 L 156.553 51.336 L 156.553 50.952 L 156.544 50.952 C 155.73 50.952 155.075 50.672 155.075 50.324 L 155.075 45.138 C 155.075 44.534 156.511 44.508 156.544 44.508 L 156.553 44.508 L 156.553 44.124 L 154.611 44.124 L 154.091 44.124 L 152.148 44.124 Z" id="path-2"/>
  </g>
</svg>