<?xml version="1.0" encoding="utf-8"?>
<svg version="1.1" id="svg2" x="0px" y="0px" enable-background="new 0.25 0 567.927 113.032" xmlns="http://www.w3.org/2000/svg">
  <path d="M 28.946 49.952 L 224.202 49.952 C 229.468 49.952 233.737 54.221 233.737 59.487 L 233.737 60.968 C 233.737 66.233 229.468 70.502 224.202 70.502 L 28.946 70.502 C 23.68 70.502 19.411 66.233 19.411 60.968 L 19.411 59.487 C 19.411 54.221 23.68 49.952 28.946 49.952 Z" style="color: rgb(0, 0, 0); clip-rule: nonzero; display: inline; overflow: visible; visibility: visible; opacity: 1; isolation: auto; mix-blend-mode: normal; color-interpolation: sRGB; color-interpolation-filters: linearRGB; fill-opacity: 1; fill-rule: evenodd; stroke: none; stroke-width: 1px; stroke-linecap: butt; stroke-linejoin: miter; stroke-miterlimit: 4; stroke-dasharray: none; stroke-dashoffset: 0; stroke-opacity: 1; color-rendering: auto; image-rendering: auto; shape-rendering: auto; text-rendering: auto; fill: rgb(20, 20, 20);" id="rect4789"/>
  <path d="M 63.029 58.709 C 63.029 59.118 62.957 59.519 62.814 59.911 C 62.671 60.3 62.467 60.627 62.201 60.892 C 61.837 61.252 61.43 61.524 60.981 61.708 C 60.535 61.892 59.979 61.984 59.312 61.984 L 57.847 61.984 L 57.847 64.958 L 55.492 64.958 L 55.492 55.827 L 59.368 55.827 C 59.948 55.827 60.437 55.878 60.833 55.98 C 61.234 56.078 61.588 56.227 61.894 56.428 C 62.262 56.669 62.542 56.978 62.734 57.354 C 62.931 57.73 63.029 58.182 63.029 58.709 Z M 60.594 58.764 C 60.594 58.507 60.524 58.286 60.386 58.102 C 60.247 57.914 60.085 57.783 59.901 57.709 C 59.656 57.611 59.417 57.558 59.183 57.55 C 58.951 57.538 58.64 57.532 58.252 57.532 L 57.847 57.532 L 57.847 60.267 L 58.521 60.267 C 58.922 60.267 59.251 60.242 59.509 60.193 C 59.77 60.144 59.989 60.046 60.165 59.899 C 60.316 59.768 60.424 59.613 60.49 59.433 C 60.559 59.249 60.594 59.026 60.594 58.764 Z" style="font-style:normal;font-variant:normal;font-weight:bold;font-stretch:normal;font-size:medium;line-height:125%;font-family:sans-serif;-inkscape-font-specification:'sans-serif Bold';letter-spacing:7.03102636px;word-spacing:0px;fill:#ffffff;fill-opacity:1;stroke:none;stroke-width:1px;stroke-linecap:butt;stroke-linejoin:miter;stroke-opacity:1" id="path4793"/>
  <path d="M 73.62 64.958 L 67.033 64.958 L 67.033 55.827 L 69.388 55.827 L 69.388 63.192 L 73.62 63.192 L 73.62 64.958 Z" style="font-style:normal;font-variant:normal;font-weight:bold;font-stretch:normal;font-size:medium;line-height:125%;font-family:sans-serif;-inkscape-font-specification:'sans-serif Bold';letter-spacing:7.03102636px;word-spacing:0px;fill:#ffffff;fill-opacity:1;stroke:none;stroke-width:1px;stroke-linecap:butt;stroke-linejoin:miter;stroke-opacity:1" id="path4795"/>
  <path d="M 88.671 64.958 L 86.236 64.958 L 85.457 63.113 L 80.825 63.113 L 80.001 64.958 L 77.627 64.958 L 81.794 55.827 L 84.505 55.827 Z M 84.753 61.438 L 83.119 58.164 L 81.499 61.438 Z" style="font-style:normal;font-variant:normal;font-weight:bold;font-stretch:normal;font-size:medium;line-height:125%;font-family:sans-serif;-inkscape-font-specification:'sans-serif Bold';letter-spacing:7.03102636px;word-spacing:0px;fill:#ffffff;fill-opacity:1;stroke:none;stroke-width:1px;stroke-linecap:butt;stroke-linejoin:miter;stroke-opacity:1" id="path4797"/>
  <path d="M 97.661 55.827 L 94.146 61.426 L 94.146 64.958 L 91.791 64.958 L 91.791 61.536 L 88.191 55.827 L 90.865 55.827 L 93.017 59.359 L 95.072 55.827 Z" style="font-style:normal;font-variant:normal;font-weight:bold;font-stretch:normal;font-size:medium;line-height:125%;font-family:sans-serif;-inkscape-font-specification:'sans-serif Bold';letter-spacing:7.03102636px;word-spacing:0px;fill:#ffffff;fill-opacity:1;stroke:none;stroke-width:1px;stroke-linecap:butt;stroke-linejoin:miter;stroke-opacity:1" id="path4799"/>
  <path d="M 114.394 61.923 C 114.394 62.822 114.011 63.554 113.247 64.118 C 112.487 64.678 111.452 64.958 110.144 64.958 C 109.387 64.958 108.727 64.893 108.163 64.762 C 107.603 64.627 107.077 64.458 106.587 64.253 L 107.343 62.489 C 107.639 62.658 108.145 62.844 108.476 62.959 C 109.081 63.168 109.661 63.272 110.217 63.272 C 110.361 63.272 110.548 63.259 110.782 63.235 C 111.015 63.21 111.205 63.17 111.352 63.113 C 111.532 63.039 111.679 62.947 111.794 62.836 C 111.912 62.726 111.971 62.562 111.971 62.346 C 111.971 62.146 111.885 61.974 111.714 61.831 C 111.546 61.684 111.299 61.571 110.972 61.493 C 110.628 61.412 110.264 61.336 109.88 61.266 C 109.5 61.193 109.142 61.101 108.807 60.991 C 108.038 60.741 107.484 60.404 107.145 59.979 C 106.81 59.549 106.642 59.018 106.642 58.384 C 106.642 57.534 107.022 56.841 107.783 56.305 C 108.547 55.765 109.529 55.496 110.726 55.496 C 111.327 55.496 111.92 55.555 112.505 55.673 C 113.094 55.788 113.603 55.933 114.032 56.109 L 113.039 57.741 C 112.848 57.645 112.644 57.556 112.425 57.477 C 111.893 57.276 111.35 57.176 110.794 57.176 C 110.597 57.176 110.401 57.19 110.205 57.219 C 110.013 57.243 109.827 57.293 109.647 57.366 C 109.488 57.428 109.351 57.522 109.236 57.648 C 109.122 57.771 109.064 57.912 109.064 58.071 C 109.064 58.312 109.156 58.499 109.34 58.629 C 109.524 58.756 109.872 58.873 110.383 58.979 C 110.718 59.048 111.039 59.116 111.346 59.181 C 111.657 59.247 111.99 59.337 112.345 59.451 C 113.045 59.68 113.56 59.993 113.891 60.389 C 114.226 60.782 114.394 61.293 114.394 61.923 Z" style="font-style:normal;font-variant:normal;font-weight:bold;font-stretch:normal;font-size:medium;line-height:125%;font-family:sans-serif;-inkscape-font-specification:'sans-serif Bold';letter-spacing:7.03102636px;word-spacing:0px;fill:#ffffff;fill-opacity:1;stroke:none;stroke-width:1px;stroke-linecap:butt;stroke-linejoin:miter;stroke-opacity:1" id="path4801"/>
  <path d="M 147.692 57.593 L 144.841 57.593 L 144.841 64.958 L 142.486 64.958 L 142.486 57.593 L 139.634 57.593 L 139.634 55.827 L 147.692 55.827 L 147.692 57.593 Z" style="font-style:normal;font-variant:normal;font-weight:bold;font-stretch:normal;font-size:medium;line-height:125%;font-family:sans-serif;-inkscape-font-specification:'sans-serif Bold';letter-spacing:7.03102636px;word-spacing:0px;fill:#ffffff;fill-opacity:1;stroke:none;stroke-width:1px;stroke-linecap:butt;stroke-linejoin:miter;stroke-opacity:1" id="path4803"/>
  <path d="M 157.704 64.958 L 150.68 64.958 L 150.68 55.827 L 157.704 55.827 L 157.704 57.593 L 153.023 57.593 L 153.023 59.169 L 157.397 59.169 L 157.397 60.935 L 153.023 60.935 L 153.023 63.192 L 157.704 63.192 Z" style="font-style:normal;font-variant:normal;font-weight:bold;font-stretch:normal;font-size:medium;line-height:125%;font-family:sans-serif;-inkscape-font-specification:'sans-serif Bold';letter-spacing:7.03102636px;word-spacing:0px;fill:#ffffff;fill-opacity:1;stroke:none;stroke-width:1px;stroke-linecap:butt;stroke-linejoin:miter;stroke-opacity:1" id="path4805"/>
  <path d="M 173.41 64.958 L 170.942 64.958 L 170.732 60.557 L 168.183 64.956 L 166.558 64.956 L 164.009 60.557 L 163.8 64.958 L 161.454 64.958 L 161.789 55.827 L 164.084 55.827 L 167.435 62.137 L 170.78 55.827 L 173.075 55.827 Z" style="font-style:normal;font-variant:normal;font-weight:bold;font-stretch:normal;font-size:medium;line-height:125%;font-family:sans-serif;-inkscape-font-specification:'sans-serif Bold';letter-spacing:7.03102636px;word-spacing:0px;fill:#ffffff;fill-opacity:1;stroke:none;stroke-width:1px;stroke-linecap:butt;stroke-linejoin:miter;stroke-opacity:1" id="path4807"/>
  <path id="path4809" style="font-style:normal;font-variant:normal;font-weight:bold;font-stretch:normal;font-size:medium;line-height:125%;font-family:sans-serif;-inkscape-font-specification:'sans-serif Bold';letter-spacing:7.03102636px;word-spacing:0px;fill:#ffffff;fill-opacity:1;stroke:none;stroke-width:1px;stroke-linecap:butt;stroke-linejoin:miter;stroke-opacity:1" d="M 126.555 55.827 L 123.041 61.426 L 123.041 64.958 L 120.685 64.958 L 120.685 61.536 L 117.086 55.827 L 119.76 55.827 L 121.912 59.359 L 123.967 55.827 Z"/>
  <path id="path4811" style="font-style:normal;font-variant:normal;font-weight:bold;font-stretch:normal;font-size:medium;line-height:125%;font-family:sans-serif;-inkscape-font-specification:'sans-serif Bold';letter-spacing:7.03102636px;word-spacing:0px;fill:#ffffff;fill-opacity:1;stroke:none;stroke-width:1px;stroke-linecap:butt;stroke-linejoin:miter;stroke-opacity:1" d="M 136.588 61.923 C 136.588 62.822 136.206 63.554 135.441 64.118 C 134.681 64.678 133.646 64.958 132.338 64.958 C 131.582 64.958 130.922 64.893 130.357 64.762 C 129.797 64.627 129.272 64.458 128.781 64.253 L 129.538 62.489 C 129.834 62.658 130.34 62.844 130.67 62.959 C 131.275 63.168 131.856 63.272 132.412 63.272 C 132.555 63.272 132.743 63.259 132.976 63.235 C 133.209 63.21 133.399 63.17 133.547 63.113 C 133.726 63.039 133.873 62.947 133.988 62.836 C 134.107 62.726 134.166 62.562 134.166 62.346 C 134.166 62.146 134.08 61.974 133.908 61.831 C 133.741 61.684 133.493 61.571 133.166 61.493 C 132.823 61.412 132.459 61.336 132.075 61.266 C 131.694 61.193 131.337 61.101 131.001 60.991 C 130.233 60.741 129.679 60.404 129.34 59.979 C 129.004 59.549 128.836 59.018 128.836 58.384 C 128.836 57.534 129.217 56.841 129.977 56.305 C 130.742 55.765 131.723 55.496 132.921 55.496 C 133.522 55.496 134.115 55.555 134.699 55.673 C 135.288 55.788 135.797 55.933 136.226 56.109 L 135.234 57.741 C 135.043 57.645 134.838 57.556 134.62 57.477 C 134.088 57.276 133.545 57.176 132.988 57.176 C 132.792 57.176 132.596 57.19 132.4 57.219 C 132.208 57.243 132.021 57.293 131.842 57.366 C 131.682 57.428 131.545 57.522 131.431 57.648 C 131.316 57.771 131.259 57.912 131.259 58.071 C 131.259 58.312 131.351 58.499 131.535 58.629 C 131.719 58.756 132.066 58.873 132.577 58.979 C 132.913 59.048 133.234 59.116 133.54 59.181 C 133.851 59.247 134.184 59.337 134.54 59.451 C 135.239 59.68 135.754 59.993 136.085 60.389 C 136.421 60.782 136.588 61.293 136.588 61.923 Z"/>
  <path style="color: rgb(0, 0, 0); clip-rule: nonzero; display: inline; overflow: visible; visibility: visible; opacity: 1; isolation: auto; mix-blend-mode: normal; color-interpolation: sRGB; color-interpolation-filters: linearRGB; fill-opacity: 1; fill-rule: evenodd; stroke: none; stroke-width: 1px; stroke-linecap: butt; stroke-linejoin: miter; stroke-miterlimit: 4; stroke-dasharray: none; stroke-dashoffset: 0; stroke-opacity: 1; color-rendering: auto; image-rendering: auto; shape-rendering: auto; text-rendering: auto; fill: rgb(255, 255, 255);" d="M 181.42 55.85 L 181.42 56.336 L 181.433 56.336 C 181.473 56.336 183.291 56.369 183.291 57.132 L 183.291 63.697 C 183.291 64.137 182.462 64.492 181.433 64.492 L 181.42 64.492 L 181.42 64.978 L 183.879 64.978 L 184.537 64.978 L 186.996 64.978 L 186.996 64.492 L 186.984 64.492 C 185.954 64.492 185.125 64.137 185.125 63.697 L 185.125 57.132 C 185.125 56.369 186.943 56.336 186.984 56.336 L 186.996 56.336 L 186.996 55.85 L 184.537 55.85 L 183.879 55.85 L 181.42 55.85 Z" id="path4783"/>
  <path style="clip-rule: evenodd; fill-opacity: 1; fill-rule: evenodd; fill: rgb(20, 20, 20);" d="M 44.754 11.347 L 32.786 23.989 L 24.881 18.569 C 24.881 18.569 27.482 16.087 25.109 14.28 C 23.259 12.87 18.069 15.86 18.294 21.731 C 18.558 28.504 22.743 32.341 27.365 32.341 C 31.659 32.341 32.786 28.88 32.786 28.88 L 42.405 28.88 L 42.405 36.86 L 55.926 1.186 L 71.394 1.186 L 83.813 33.249 C 83.813 33.249 84.716 34.939 85.618 35.391 C 85.618 35.391 85.67 14.359 85.67 13.768 C 85.67 13.179 85.592 12.528 85.224 12.106 C 84.618 11.408 83.586 11.119 83.586 11.119 L 83.586 1.186 C 83.586 1.186 97.919 1.186 105.26 1.186 C 116.502 1.186 119.386 4.234 122.646 10.106 C 127.146 4.046 133.342 0.056 142.177 0.056 C 151.265 0.056 157.697 3.407 161.37 8.974 C 166.5 2.842 174.757 0 182.312 0 C 191.597 0 199.352 4.5 203.365 11.459 L 203.365 1.186 L 224.248 1.186 L 226.448 6.772 L 228.088 1.186 L 249.65 1.186 L 249.65 10.893 C 249.65 10.893 248.406 11.234 248.063 11.794 C 247.728 12.347 247.787 14.113 247.787 14.113 L 250.795 33.3 C 250.921 33.924 251.143 34.576 251.681 35.053 C 252.305 35.611 253.148 35.507 253.148 35.507 L 253.148 46.567 L 231.474 46.567 L 231.474 38.212 L 219.057 38.212 L 219.057 46.589 L 198.68 46.589 L 198.68 41.144 C 198.68 41.144 191.232 47.694 181.634 47.694 C 169.35 47.694 161.143 38.664 161.143 38.664 L 161.143 46.565 C 161.143 46.565 160.241 46.565 146.696 46.565 C 133.836 46.565 122.797 39.529 119.714 26.697 C 118.252 28.095 111.807 32.696 104.077 34.43 C 103.476 34.565 103.176 34.79 103.176 35.442 C 103.176 36.63 105.716 37.054 105.716 37.054 L 105.716 46.564 C 105.716 46.564 38.885 46.564 26.469 46.564 C 11.791 46.567 0 36.52 0 23.764 C 0 11.007 9.193 0.168 24.432 0.168 C 38.996 0.168 44.755 11.347 44.755 11.347 L 44.755 11.347 Z" id="path4815"/>
  <path style="clip-rule: evenodd; fill-opacity: 1; fill-rule: evenodd; fill: rgb(255, 255, 255);" d="M 39.051 11.545 L 32.675 18.23 C 32.675 18.23 32.337 18.401 32.055 18.401 C 31.772 18.401 31.375 18.117 31.375 18.117 L 30.586 17.443 C 30.586 17.443 30.359 17.388 30.359 17.16 C 30.359 16.937 30.981 16.369 30.981 15.296 C 30.981 14.223 30.756 9.764 23.87 9.764 C 16.985 9.764 13.936 16.199 13.936 21.506 C 13.936 26.812 17.208 36.52 27.936 36.52 C 34.175 36.52 35.496 33.017 35.496 33.017 L 37.64 33.017 L 37.64 42.164 L 25.901 42.164 C 11.904 42.164 4.113 31.211 4.113 23.31 C 4.113 11.194 14.648 4.471 24.208 4.471 C 33.465 4.472 39.051 11.545 39.051 11.545 L 39.051 11.545 Z" id="path4817"/>
  <path style="clip-rule: evenodd; fill-opacity: 1; fill-rule: evenodd; fill: rgb(255, 255, 255);" d="M 58.81 5.477 L 68.461 5.477 L 80.203 36.183 C 80.539 37.027 81.104 37.822 81.668 38.496 C 82.23 39.174 83.586 39.628 83.586 39.628 L 83.586 42.277 L 69.422 42.277 L 69.422 39.568 C 69.422 39.568 70.323 39.684 70.776 38.892 C 71.227 38.101 71.227 37.481 70.89 36.692 C 70.551 35.9 68.175 29.636 68.175 29.636 L 56.606 29.636 C 56.606 29.636 54.238 35.957 54.009 36.521 C 53.783 37.085 53.783 37.99 54.009 38.552 C 54.385 39.491 55.704 39.629 55.704 39.629 L 55.704 42.278 L 44.357 42.278 L 44.357 39.629 C 44.357 39.629 45.389 39.274 46.163 38.497 C 47.009 37.651 47.291 36.746 47.291 36.746 L 58.81 5.477 L 58.81 5.477 Z M 58.525 23.877 L 65.978 23.877 L 62.14 13.153 L 58.525 23.877 L 58.525 23.877 Z" id="path4819"/>
  <path style="clip-rule: evenodd; fill-opacity: 1; fill-rule: evenodd; fill: rgb(255, 255, 255);" d="M 88.102 5.477 C 88.102 5.477 99.503 5.477 106.165 5.477 C 112.826 5.477 119.484 7.845 119.484 15.521 C 119.484 23.198 114.63 25.909 110.455 27.829 C 105.633 30.044 99.279 31.781 99.279 31.781 L 99.279 37.649 C 99.279 37.649 99.336 38.045 99.899 38.718 C 100.465 39.396 101.086 39.567 101.086 39.567 L 101.086 42.276 L 87.99 42.276 L 87.99 39.627 C 87.99 39.627 88.779 39.455 89.347 38.891 C 89.909 38.326 90.024 37.649 90.024 37.649 L 90.024 11.12 C 90.024 11.12 90.076 9.99 89.628 9.541 C 89.177 9.085 88.103 8.467 88.103 8.467 L 88.103 5.477 L 88.102 5.477 L 88.102 5.477 Z M 99.391 11.007 L 99.391 26.698 C 99.391 26.698 110.002 22.297 110.002 16.087 C 110.002 8.411 99.391 11.007 99.391 11.007 L 99.391 11.007 Z" id="path4821"/>
  <path style="clip-rule: evenodd; fill-opacity: 1; fill-rule: evenodd; fill: rgb(255, 255, 255);" d="M 158.603 11.61 L 152.225 18.295 C 152.225 18.295 151.886 18.465 151.603 18.465 C 151.323 18.465 150.928 18.182 150.928 18.182 L 150.136 17.503 C 150.136 17.503 149.911 17.45 149.911 17.225 C 149.911 16.998 150.53 16.43 150.53 15.362 C 150.53 14.288 150.307 9.829 143.419 9.829 C 136.531 9.829 133.484 16.262 133.484 21.569 C 133.484 26.872 136.758 36.583 147.485 36.583 C 153.724 36.583 155.047 33.082 155.047 33.082 L 157.193 33.082 L 157.193 42.226 L 145.449 42.226 C 131.453 42.226 123.661 31.277 123.661 23.374 C 123.661 11.26 134.195 4.534 143.756 4.534 C 153.014 4.534 158.603 11.61 158.603 11.61 L 158.603 11.61 Z" id="path4823"/>
  <path style="clip-rule: evenodd; fill-opacity: 1; fill-rule: evenodd; fill: rgb(255, 255, 255);" d="M 181.464 43.336 C 169.27 43.336 160.506 34.432 160.506 23.597 C 160.506 12.755 169.497 4.358 181.464 4.358 C 193.427 4.358 202.418 12.755 202.418 23.597 C 202.418 34.431 193.653 43.336 181.464 43.336 L 181.464 43.336 Z M 170.624 23.764 C 170.624 34.602 176.156 37.311 181.464 37.311 C 186.766 37.311 192.414 33.924 192.414 23.764 C 192.414 13.605 186.092 10.217 181.464 10.217 C 176.835 10.217 170.624 12.924 170.624 23.764 L 170.624 23.764 Z" id="path4825"/>
  <path style="clip-rule: evenodd; fill-opacity: 1; fill-rule: evenodd; fill: rgb(255, 255, 255);" d="M 207.877 5.5 L 221.313 5.5 L 226.167 20.491 L 231.358 5.477 L 245.411 5.477 L 245.411 7.676 C 245.411 7.676 244.477 8.072 244.061 8.58 C 243.553 9.202 243.553 9.652 243.665 10.558 C 243.778 11.459 247.389 35.957 247.503 36.861 C 247.618 37.765 247.728 38.272 247.954 38.894 C 248.178 39.509 249.253 40.02 249.253 40.02 L 249.253 42.297 L 235.761 42.297 L 235.761 39.852 C 235.761 39.852 236.946 39.683 237.344 39.116 C 237.739 38.551 237.906 38.212 237.794 37.311 C 237.681 36.408 234.466 15.862 234.466 15.862 L 228.595 34.037 L 221.483 34.037 L 215.667 16.988 L 212.733 37.084 C 212.733 37.084 212.619 38.29 213.072 38.948 C 213.692 39.852 214.825 39.852 214.825 39.852 L 214.825 42.277 L 203.136 42.277 L 203.136 39.684 C 203.136 39.684 204.067 39.541 204.744 38.749 C 205.42 37.961 205.535 36.942 205.535 36.942 L 209.798 10.442 C 209.798 10.442 210.054 9.452 209.77 9.003 C 209.472 8.527 207.878 8.128 207.878 8.128 L 207.878 5.5 L 207.877 5.5 Z" id="path4827"/>
  <path style="color: rgb(0, 0, 0); clip-rule: nonzero; display: inline; overflow: visible; visibility: visible; opacity: 1; isolation: auto; mix-blend-mode: normal; color-interpolation: sRGB; color-interpolation-filters: linearRGB; fill-opacity: 1; fill-rule: evenodd; stroke: none; stroke-width: 1px; stroke-linecap: butt; stroke-linejoin: miter; stroke-miterlimit: 4; stroke-dasharray: none; stroke-dashoffset: 0; stroke-opacity: 1; color-rendering: auto; image-rendering: auto; shape-rendering: auto; text-rendering: auto; fill: rgb(255, 255, 255);" d="M 187 55.85 L 187 56.336 L 187.013 56.336 C 187.053 56.336 188.871 56.369 188.871 57.132 L 188.871 63.697 C 188.871 64.137 188.042 64.492 187.013 64.492 L 187 64.492 L 187 64.978 L 189.459 64.978 L 190.117 64.978 L 192.576 64.978 L 192.576 64.492 L 192.564 64.492 C 191.534 64.492 190.705 64.137 190.705 63.697 L 190.705 57.132 C 190.705 56.369 192.523 56.336 192.564 56.336 L 192.576 56.336 L 192.576 55.85 L 190.117 55.85 L 189.459 55.85 L 187 55.85 Z" id="path-1"/>
  <path style="color: rgb(0, 0, 0); clip-rule: nonzero; display: inline; overflow: visible; visibility: visible; opacity: 1; isolation: auto; mix-blend-mode: normal; color-interpolation: sRGB; color-interpolation-filters: linearRGB; fill-opacity: 1; fill-rule: evenodd; stroke: none; stroke-width: 1px; stroke-linecap: butt; stroke-linejoin: miter; stroke-miterlimit: 4; stroke-dasharray: none; stroke-dashoffset: 0; stroke-opacity: 1; color-rendering: auto; image-rendering: auto; shape-rendering: auto; text-rendering: auto; fill: rgb(255, 255, 255);" d="M 192.58 55.85 L 192.58 56.336 L 192.593 56.336 C 192.633 56.336 194.451 56.369 194.451 57.132 L 194.451 63.697 C 194.451 64.137 193.622 64.492 192.593 64.492 L 192.58 64.492 L 192.58 64.978 L 195.039 64.978 L 195.697 64.978 L 198.156 64.978 L 198.156 64.492 L 198.144 64.492 C 197.114 64.492 196.285 64.137 196.285 63.697 L 196.285 57.132 C 196.285 56.369 198.103 56.336 198.144 56.336 L 198.156 56.336 L 198.156 55.85 L 195.697 55.85 L 195.039 55.85 L 192.58 55.85 Z" id="path-2"/>
</svg>