<?xml version="1.0" encoding="utf-8"?>
<svg version="1.1" id="Donkey Kong" x="0px" y="0px" style="enable-background:new 0 0 4306.8 743.4;" xmlns="http://www.w3.org/2000/svg">
  <style type="text/css">
	.A{fill:#292526;}
	.B{fill:#E82934;}
	.C{fill:#FECE48;}
</style>
  <g transform="matrix(0.049855, 0, 0, 0.049855, 0, -0.000043)"/>
  <path class="B" d="M 178.283 5.639 C 178.442 4.916 178.617 4.388 178.796 4.113 C 180.561 1.446 182.072 1.042 185.228 1.137 C 185.228 1.137 188.349 1.137 193.045 1.566 C 200.932 2.283 199.038 12.708 199.038 12.708 C 199.038 12.708 198.834 13.725 197.671 14.059 C 196.515 14.398 191.978 13.716 191.978 13.716 C 191.978 13.716 191.121 13.277 191.156 12.768 L 191.11 10.604 C 190.867 9.104 189.645 9.183 187.965 9.084 C 186.056 8.969 185.178 10.12 185.023 12.339 C 185.023 12.339 184.679 17.525 184.415 21.064 C 184.097 25.352 186.385 25.122 186.385 25.122 C 189.102 25.357 190.388 25.421 190.393 22.002 L 189.37 21.921 C 189.37 21.921 188.867 21.887 188.413 21.094 L 188.778 17.011 C 188.778 17.011 189.031 15.635 190.288 15.65 C 190.288 15.65 195.802 16.038 196.909 16.128 C 197.038 16.138 198.305 16.313 198.529 17.744 L 197.602 32.91 C 197.602 32.91 197.696 33.907 196.53 34.206 L 191.095 33.827 C 191.095 33.827 190.298 33.408 190.204 32.895 L 190.502 31.324 C 190.099 34.724 181.488 33.642 179.534 33.084 C 179.21 32.989 178.756 32.75 178.358 32.426" style="fill: rgb(255, 255, 255);"/>
  <path class="C" d="M 177.545 5.474 C 177.625 5.095 177.715 4.756 177.814 4.467 C 177.914 4.173 178.014 3.929 178.168 3.694 L 178.168 3.694 C 178.597 3.046 179.016 2.513 179.47 2.069 C 180.143 1.401 180.896 0.952 181.728 0.699 C 182.561 0.439 183.463 0.364 184.5 0.364 C 184.74 0.364 184.993 0.369 185.258 0.374 L 185.233 1.132 L 185.233 0.374 C 185.253 0.374 188.393 0.374 193.12 0.808 C 194.566 0.937 195.757 1.381 196.699 2.039 C 198.12 3.026 198.943 4.462 199.411 5.918 C 199.875 7.374 200 8.875 200 10.101 C 200 11.676 199.796 12.813 199.786 12.843 L 199.786 12.858 C 199.776 12.923 199.701 13.267 199.431 13.676 C 199.168 14.084 198.663 14.568 197.891 14.787 C 197.701 14.842 197.512 14.867 197.308 14.887 C 197.104 14.907 196.888 14.912 196.655 14.912 C 195.717 14.912 194.541 14.798 193.579 14.688 C 192.617 14.578 191.883 14.469 191.873 14.464 C 191.794 14.454 191.719 14.428 191.639 14.388 C 191.615 14.373 191.37 14.254 191.095 14.03 C 190.956 13.915 190.811 13.775 190.672 13.591 C 190.543 13.401 190.408 13.142 190.408 12.798 L 190.413 12.714 L 191.171 12.768 L 190.413 12.783 L 190.368 10.619 L 191.126 10.604 L 190.378 10.729 C 190.327 10.455 190.258 10.326 190.189 10.245 C 190.138 10.186 190.079 10.14 189.974 10.091 C 189.819 10.016 189.556 9.956 189.201 9.926 C 188.847 9.891 188.418 9.877 187.934 9.852 C 187.865 9.847 187.796 9.847 187.73 9.847 C 187.381 9.847 187.112 9.906 186.903 9.997 C 186.594 10.135 186.375 10.34 186.18 10.729 C 185.985 11.113 185.85 11.676 185.801 12.404 L 185.801 12.404 C 185.801 12.404 185.457 17.589 185.188 21.134 C 185.168 21.398 185.158 21.637 185.158 21.862 C 185.158 22.574 185.253 23.083 185.372 23.438 C 185.562 23.971 185.786 24.155 185.96 24.26 C 186.135 24.364 186.304 24.374 186.339 24.369 L 186.345 24.369 L 186.37 24.793 L 186.324 24.369 L 186.345 24.369 L 186.37 24.793 L 186.324 24.369 L 186.464 24.369 C 187.057 24.42 187.571 24.459 187.985 24.459 C 188.354 24.459 188.638 24.425 188.832 24.364 C 188.977 24.319 189.077 24.265 189.156 24.195 C 189.276 24.096 189.391 23.931 189.49 23.582 C 189.59 23.232 189.655 22.709 189.655 22.002 L 190.413 22.002 L 190.353 22.759 L 189.331 22.679 L 189.336 22.679 C 189.241 22.675 188.992 22.635 188.692 22.459 C 188.393 22.285 188.054 21.972 187.77 21.473 C 187.691 21.338 187.656 21.184 187.671 21.03 L 188.034 16.946 L 188.044 16.877 C 188.054 16.821 188.13 16.403 188.434 15.924 C 188.583 15.684 188.802 15.431 189.117 15.231 C 189.426 15.027 189.834 14.897 190.283 14.897 L 190.313 14.897 L 190.358 14.902 C 190.358 14.902 195.867 15.291 196.984 15.38 L 196.984 15.38 C 197.079 15.385 197.209 15.406 197.408 15.465 C 197.696 15.545 198.1 15.714 198.479 16.059 C 198.858 16.403 199.187 16.941 199.292 17.639 C 199.302 17.694 199.307 17.749 199.297 17.803 L 198.37 32.969 L 197.612 32.925 L 198.365 32.855 C 198.37 32.875 198.37 32.92 198.37 32.979 C 198.37 33.169 198.345 33.538 198.11 33.956 C 197.995 34.161 197.821 34.375 197.592 34.555 C 197.357 34.734 197.069 34.874 196.73 34.959 C 196.645 34.979 196.569 34.989 196.485 34.979 L 191.051 34.599 C 190.946 34.59 190.847 34.565 190.752 34.515 C 190.727 34.5 190.492 34.38 190.223 34.161 C 190.084 34.051 189.939 33.917 189.799 33.742 C 189.665 33.568 189.525 33.344 189.47 33.045 C 189.455 32.954 189.455 32.86 189.47 32.77 L 189.77 31.2 C 189.844 30.796 190.228 30.527 190.632 30.591 C 191.036 30.652 191.32 31.025 191.27 31.429 C 191.201 32.067 190.891 32.635 190.457 33.04 C 189.804 33.657 188.942 33.987 187.995 34.196 C 187.043 34.4 185.995 34.476 184.949 34.476 C 183.787 34.476 182.63 34.385 181.643 34.256 C 180.656 34.131 179.853 33.971 179.34 33.827 L 179.34 33.827 C 179.105 33.757 178.866 33.652 178.617 33.518 C 178.378 33.384 178.128 33.219 177.889 33.024 L 178.847 31.848 C 179.006 31.977 179.185 32.092 179.35 32.186 C 179.514 32.277 179.669 32.341 179.758 32.366 C 180.133 32.476 180.906 32.63 181.837 32.745 C 182.765 32.865 183.862 32.95 184.949 32.95 C 186.245 32.95 187.516 32.815 188.408 32.501 C 188.852 32.341 189.196 32.147 189.411 31.938 C 189.625 31.729 189.73 31.529 189.765 31.244 L 190.518 31.334 L 191.26 31.474 L 190.961 33.045 L 190.214 32.9 L 190.961 32.765 L 190.827 32.79 L 190.956 32.745 L 190.961 32.765 L 190.827 32.79 L 190.956 32.745 L 190.916 32.76 L 190.956 32.745 L 190.961 32.745 L 190.921 32.76 L 190.961 32.745 C 190.961 32.745 190.981 32.785 191.031 32.835 C 191.1 32.91 191.22 33.004 191.315 33.069 C 191.365 33.099 191.405 33.124 191.429 33.144 L 191.459 33.16 L 191.464 33.165 L 191.33 33.413 L 191.464 33.165 L 191.464 33.165 L 191.33 33.413 L 191.464 33.165 L 191.11 33.837 L 191.166 33.079 L 196.6 33.458 L 196.545 34.216 L 196.355 33.478 C 196.52 33.438 196.61 33.384 196.674 33.334 C 196.765 33.264 196.799 33.199 196.829 33.129 C 196.854 33.06 196.859 32.984 196.859 32.969 L 196.859 32.964 L 197.163 32.959 L 196.859 32.989 L 196.859 32.969 L 197.163 32.964 L 196.859 32.994 L 196.859 32.88 L 197.786 17.714 L 198.544 17.759 L 197.796 17.878 C 197.757 17.624 197.681 17.464 197.592 17.339 C 197.467 17.155 197.298 17.051 197.138 16.981 C 197.058 16.946 196.984 16.926 196.934 16.911 L 196.874 16.901 L 196.859 16.901 L 196.879 16.747 L 196.864 16.901 L 196.859 16.901 L 196.879 16.747 L 196.864 16.901 L 196.869 16.901 C 196.321 16.856 194.66 16.742 193.145 16.632 C 191.63 16.522 190.253 16.428 190.248 16.428 L 190.303 15.67 L 190.293 16.428 L 190.283 16.428 C 190.113 16.428 190.023 16.467 189.939 16.517 C 189.814 16.592 189.7 16.752 189.63 16.911 C 189.595 16.991 189.57 17.066 189.556 17.11 L 189.54 17.165 L 189.54 17.175 L 189.201 17.105 L 189.54 17.17 L 189.54 17.18 L 189.201 17.11 L 189.54 17.175 L 188.793 17.036 L 189.55 17.105 L 189.186 21.189 L 188.429 21.124 L 189.092 20.745 C 189.261 21.039 189.401 21.139 189.465 21.179 L 189.505 21.199 L 189.515 21.204 L 189.48 21.318 L 189.5 21.199 L 189.515 21.204 L 189.48 21.318 L 189.5 21.199 L 189.411 21.697 L 189.446 21.194 L 189.5 21.199 L 189.411 21.697 L 189.446 21.194 L 189.455 21.194 L 190.477 21.273 C 190.876 21.303 191.176 21.637 191.176 22.031 C 191.176 22.734 191.121 23.323 191.006 23.831 C 190.916 24.215 190.786 24.554 190.602 24.848 C 190.323 25.297 189.894 25.626 189.436 25.79 C 188.972 25.959 188.493 26 187.99 26 C 187.482 26 186.938 25.955 186.345 25.905 L 186.404 25.147 L 186.48 25.905 C 186.459 25.905 186.409 25.91 186.345 25.91 C 186.195 25.91 185.96 25.895 185.661 25.8 C 185.228 25.666 184.674 25.326 184.281 24.678 C 183.881 24.035 183.643 23.138 183.643 21.877 C 183.643 21.612 183.658 21.333 183.677 21.035 C 183.812 19.27 183.962 17.091 184.081 15.351 C 184.141 14.483 184.191 13.725 184.23 13.181 C 184.266 12.638 184.291 12.319 184.291 12.319 L 184.291 12.319 C 184.37 11.178 184.62 10.216 185.202 9.472 C 185.492 9.109 185.871 8.809 186.299 8.625 C 186.733 8.436 187.217 8.351 187.735 8.351 C 187.835 8.351 187.929 8.356 188.03 8.36 C 188.847 8.416 189.6 8.401 190.332 8.635 C 190.697 8.755 191.066 8.959 191.35 9.293 C 191.63 9.622 191.804 10.046 191.878 10.52 L 191.888 10.624 L 191.933 12.788 L 191.933 12.863 L 191.584 12.838 L 191.933 12.838 L 191.933 12.863 L 191.584 12.838 L 191.933 12.838 L 191.684 12.838 L 191.918 12.748 L 191.933 12.838 L 191.684 12.838 L 191.918 12.748 L 191.844 12.778 L 191.913 12.743 L 191.918 12.753 L 191.844 12.783 L 191.913 12.748 C 191.908 12.753 192.018 12.878 192.138 12.957 C 192.197 12.997 192.253 13.038 192.293 13.058 L 192.337 13.082 L 192.342 13.087 L 192.248 13.267 L 192.342 13.087 L 192.342 13.087 L 192.248 13.267 L 192.342 13.087 L 191.993 13.76 L 192.108 13.012 C 192.108 13.012 192.153 13.018 192.232 13.033 C 192.516 13.072 193.26 13.176 194.117 13.272 C 194.969 13.367 195.947 13.446 196.665 13.441 C 196.864 13.441 197.043 13.436 197.188 13.421 C 197.332 13.411 197.442 13.391 197.477 13.377 C 197.867 13.262 198.046 13.067 198.17 12.888 C 198.23 12.798 198.27 12.714 198.29 12.658 L 198.309 12.599 L 198.309 12.594 L 198.709 12.688 L 198.305 12.609 L 198.309 12.594 L 198.709 12.688 L 198.305 12.609 L 199.048 12.758 L 198.3 12.623 L 198.3 12.619 C 198.314 12.523 198.484 11.507 198.484 10.156 C 198.489 8.655 198.27 6.745 197.472 5.245 C 197.079 4.492 196.55 3.839 195.832 3.34 C 195.119 2.842 194.207 2.488 192.985 2.378 C 190.653 2.164 188.712 2.059 187.357 2.005 C 186.674 1.979 186.145 1.964 185.786 1.959 C 185.607 1.954 185.467 1.954 185.377 1.954 C 185.283 1.954 185.243 1.954 185.243 1.954 L 185.223 1.954 C 184.973 1.944 184.734 1.944 184.51 1.944 C 183.867 1.944 183.319 1.979 182.845 2.054 C 182.136 2.174 181.593 2.383 181.07 2.762 C 180.541 3.141 180.023 3.719 179.445 4.592 L 179.445 4.592 C 179.414 4.637 179.34 4.786 179.265 5.01 C 179.195 5.23 179.11 5.524 179.036 5.863 L 177.545 5.474" style="fill: rgb(20, 20, 20);"/>
  <path class="B" d="M 96.49 9.288 C 98.319 14.03 100.548 19.668 100.548 19.668 L 100.105 32.326 C 100.105 32.326 100.239 33.388 101.581 33.533 C 103.38 33.722 106.043 33.688 106.043 33.688 C 106.043 33.688 107.388 34.012 107.438 32.501 C 107.469 31.708 107.882 19.897 107.882 19.897 L 115.505 3.794 C 115.505 3.794 115.804 2.184 114.453 2.139 C 113.097 2.094 109.408 1.91 109.408 1.91 C 109.408 1.91 108.655 1.625 108.012 3.111 C 107.418 4.482 104.642 11.407 104.642 11.407 L 102.298 2.911 C 101.566 1.48 101.49 1.63 100.14 1.585 C 99.332 1.556 97.891 1.521 96.714 1.541" style="fill: rgb(255, 255, 255);"/>
  <path class="C" d="M 97.203 9.014 C 98.115 11.382 99.127 13.975 99.916 15.974 C 100.309 16.976 100.643 17.828 100.882 18.426 C 101.122 19.03 101.261 19.379 101.261 19.379 C 101.301 19.479 101.316 19.579 101.316 19.683 L 100.873 32.341 L 100.115 32.311 L 100.867 32.217 L 100.409 32.277 L 100.862 32.196 L 100.867 32.217 L 100.409 32.277 L 100.862 32.196 L 100.768 32.212 L 100.862 32.191 L 100.862 32.196 L 100.768 32.212 L 100.862 32.191 C 100.862 32.196 100.898 32.336 100.997 32.456 C 101.047 32.515 101.112 32.576 101.211 32.63 C 101.316 32.686 101.456 32.735 101.67 32.76 C 102.946 32.895 104.756 32.915 105.584 32.915 C 105.873 32.915 106.043 32.915 106.043 32.915 C 106.102 32.915 106.168 32.92 106.227 32.935 L 106.168 33.179 L 106.217 32.93 L 106.227 32.935 L 106.168 33.179 L 106.217 32.93 C 106.222 32.935 106.277 32.94 106.342 32.94 C 106.446 32.94 106.541 32.91 106.566 32.885 C 106.581 32.87 106.596 32.86 106.62 32.805 C 106.646 32.75 106.681 32.64 106.681 32.456 L 106.681 32.456 C 106.696 32.062 106.805 28.911 106.915 25.855 C 107.02 22.804 107.125 19.847 107.125 19.847 C 107.13 19.748 107.155 19.643 107.194 19.548 L 114.817 3.441 L 115.505 3.765 L 114.762 3.625 L 115.086 3.684 L 114.762 3.63 L 114.762 3.645 L 115.086 3.704 L 114.762 3.65 C 114.762 3.65 114.777 3.545 114.777 3.421 C 114.782 3.256 114.737 3.061 114.693 2.992 L 114.632 2.926 C 114.607 2.911 114.558 2.887 114.423 2.882 C 113.057 2.832 109.367 2.648 109.367 2.648 C 109.288 2.643 109.214 2.628 109.138 2.598 L 109.248 2.299 L 109.248 2.623 C 109.234 2.623 109.204 2.623 109.138 2.598 L 109.248 2.299 L 109.248 2.623 L 109.248 2.563 L 109.258 2.623 L 109.248 2.623 L 109.248 2.563 L 109.258 2.623 L 109.238 2.633 C 109.209 2.648 109.143 2.682 109.054 2.792 C 108.959 2.901 108.834 3.091 108.704 3.39 C 108.415 4.053 107.573 6.137 106.805 8.036 C 106.421 8.989 106.053 9.896 105.783 10.569 C 105.515 11.242 105.339 11.671 105.339 11.671 C 105.215 11.975 104.916 12.165 104.592 12.145 C 104.268 12.125 103.989 11.901 103.903 11.587 L 101.561 3.086 L 102.293 2.887 L 101.62 3.23 C 101.441 2.882 101.311 2.648 101.217 2.518 C 101.147 2.418 101.112 2.388 101.102 2.378 L 101.082 2.368 C 101.062 2.358 100.967 2.344 100.803 2.334 C 100.638 2.324 100.404 2.324 100.11 2.314 C 99.462 2.288 98.41 2.258 97.423 2.258 C 97.183 2.258 96.949 2.258 96.729 2.263 L 96.704 0.743 C 96.939 0.738 97.178 0.738 97.428 0.738 C 98.444 0.738 99.511 0.768 100.169 0.793 C 100.493 0.803 100.753 0.803 101.002 0.822 C 101.191 0.837 101.391 0.863 101.6 0.937 C 101.76 0.992 101.914 1.082 102.054 1.187 C 102.258 1.352 102.413 1.546 102.548 1.76 C 102.687 1.974 102.822 2.224 102.982 2.533 C 103.006 2.582 103.026 2.623 103.036 2.677 L 105.379 11.178 L 104.646 11.377 L 103.943 11.097 C 103.943 11.097 104.637 9.363 105.405 7.459 C 106.177 5.554 107.015 3.485 107.319 2.778 C 107.588 2.159 107.897 1.74 108.251 1.466 C 108.6 1.192 108.984 1.092 109.258 1.097 C 109.467 1.097 109.612 1.142 109.676 1.167 L 109.408 1.88 L 109.448 1.122 C 109.448 1.122 110.37 1.167 111.462 1.222 C 112.553 1.271 113.815 1.331 114.482 1.357 C 114.822 1.366 115.14 1.451 115.405 1.605 C 115.604 1.72 115.77 1.875 115.894 2.039 C 116.078 2.283 116.173 2.548 116.232 2.778 C 116.288 3.011 116.303 3.225 116.303 3.4 C 116.303 3.679 116.268 3.869 116.263 3.904 C 116.248 3.964 116.228 4.033 116.203 4.089 L 108.58 20.191 L 107.897 19.867 L 108.655 19.892 C 108.655 19.892 108.246 31.708 108.216 32.501 C 108.201 32.844 108.142 33.154 108.017 33.423 C 107.837 33.832 107.508 34.126 107.189 34.27 C 106.87 34.42 106.576 34.445 106.352 34.45 C 106.092 34.45 105.923 34.41 105.883 34.4 L 106.063 33.662 L 106.072 34.42 C 106.072 34.42 105.893 34.42 105.594 34.42 C 104.737 34.42 102.916 34.405 101.521 34.256 C 101.087 34.211 100.717 34.086 100.414 33.907 C 99.96 33.637 99.696 33.269 99.551 32.974 C 99.406 32.675 99.372 32.451 99.367 32.397 L 99.362 32.272 L 99.806 19.614 L 100.564 19.638 L 99.855 19.918 C 99.855 19.918 97.622 14.278 95.797 9.533 L 97.203 9.014" style="fill: rgb(20, 20, 20);"/>
  <path class="B" d="M 79.689 10.724 C 80.401 19.688 81.633 33.035 81.633 33.035 C 81.942 33.502 82.451 33.927 83.253 33.867 C 84.969 33.747 97.995 32.835 97.995 32.835 C 97.995 32.835 99.272 32.611 99.168 31.104 C 99.138 30.701 99.087 27.316 98.714 25.411 L 97.507 24.569 L 88.673 25.112 L 88.378 20.949 L 95.628 20.466 C 95.628 20.466 97.033 20.67 97.253 18.701 L 96.954 14.607 C 96.396 13.002 95.413 13.506 95.413 13.506 L 87.9 14.015 L 87.62 10.016 C 87.62 10.016 95.044 9.597 96.196 9.413 C 97.562 9.214 97.258 9.029 97.538 7.773 C 97.293 4.268 97.163 2.403 97.163 2.403 C 97.163 2.403 96.844 0.957 95.563 1.047 C 94.511 1.122 81.384 1.815 80.482 1.815 C 79.873 2.224 79.619 1.969 79.414 2.273" style="fill: rgb(255, 255, 255);"/>
  <path class="C" d="M 80.447 10.659 C 80.801 15.136 81.289 20.715 81.689 25.167 C 81.888 27.395 82.062 29.345 82.192 30.736 C 82.316 32.127 82.396 32.959 82.396 32.959 L 81.638 33.03 L 82.271 32.611 C 82.376 32.765 82.495 32.895 82.625 32.974 C 82.76 33.06 82.899 33.109 83.119 33.109 L 83.209 33.104 C 84.919 32.984 97.951 32.073 97.951 32.073 L 98 32.83 L 97.867 32.082 L 97.936 32.471 L 97.857 32.087 L 97.867 32.082 L 97.936 32.471 L 97.857 32.087 L 97.881 32.077 C 97.946 32.057 98.105 31.992 98.205 31.882 C 98.26 31.828 98.305 31.768 98.344 31.673 C 98.385 31.583 98.415 31.459 98.415 31.27 L 98.41 31.15 L 98.41 31.15 C 98.405 31.075 98.405 30.981 98.395 30.846 C 98.38 30.367 98.35 29.445 98.285 28.433 C 98.22 27.42 98.115 26.324 97.966 25.556 L 98.714 25.407 L 98.275 26.03 L 97.069 25.192 L 97.507 24.569 L 97.552 25.326 L 88.723 25.87 C 88.304 25.895 87.945 25.581 87.92 25.167 L 87.631 21.005 C 87.615 20.8 87.681 20.605 87.815 20.451 C 87.95 20.296 88.135 20.206 88.339 20.191 L 95.587 19.703 C 95.643 19.703 95.697 19.703 95.747 19.708 L 95.702 20.012 L 95.727 19.708 L 95.742 19.708 L 95.697 20.012 L 95.722 19.708 L 95.742 19.708 C 95.812 19.708 95.972 19.693 96.102 19.589 C 96.166 19.538 96.24 19.459 96.316 19.314 C 96.39 19.165 96.465 18.946 96.5 18.611 L 97.258 18.696 L 96.5 18.75 L 96.206 14.658 L 96.964 14.602 L 96.25 14.852 C 96.112 14.449 95.967 14.288 95.897 14.234 C 95.822 14.179 95.812 14.189 95.788 14.184 L 95.742 14.189 L 95.737 14.189 L 95.643 13.92 L 95.772 14.174 L 95.737 14.189 L 95.643 13.92 L 95.772 14.174 C 95.683 14.219 95.577 14.249 95.478 14.254 L 87.95 14.767 C 87.531 14.798 87.172 14.483 87.142 14.059 L 86.863 10.061 C 86.848 9.857 86.913 9.657 87.048 9.503 C 87.182 9.353 87.372 9.258 87.576 9.248 C 87.576 9.248 88.039 9.224 88.753 9.178 C 89.824 9.114 91.455 9.018 92.921 8.914 C 93.653 8.865 94.352 8.814 94.91 8.77 C 95.468 8.725 95.906 8.68 96.066 8.65 L 96.076 8.65 C 96.396 8.605 96.595 8.556 96.66 8.53 L 96.679 8.52 L 96.679 8.52 L 96.784 8.709 L 96.6 8.6 L 96.674 8.52 L 96.779 8.709 L 96.595 8.6 L 96.709 8.67 L 96.585 8.62 L 96.595 8.6 L 96.709 8.67 L 96.585 8.62 C 96.585 8.62 96.595 8.595 96.605 8.551 C 96.64 8.406 96.674 8.061 96.775 7.603 L 97.517 7.768 L 96.76 7.822 C 96.64 6.072 96.545 4.727 96.48 3.824 C 96.416 2.921 96.38 2.453 96.38 2.453 L 97.138 2.398 L 96.396 2.563 L 96.844 2.468 L 96.396 2.572 L 96.396 2.568 L 96.844 2.473 L 96.396 2.577 L 96.396 2.572 C 96.385 2.523 96.301 2.273 96.166 2.094 C 96.102 2 96.021 1.929 95.947 1.885 C 95.872 1.84 95.788 1.809 95.653 1.809 L 95.592 1.809 C 95.314 1.83 94.306 1.885 92.906 1.959 C 90.817 2.074 87.88 2.229 85.388 2.353 C 84.141 2.413 83 2.473 82.132 2.513 C 81.694 2.533 81.329 2.548 81.045 2.563 C 80.761 2.572 80.572 2.582 80.462 2.582 L 80.462 1.815 L 80.88 2.448 C 80.676 2.582 80.482 2.677 80.307 2.737 C 80.048 2.827 79.834 2.842 79.809 2.847 L 79.809 2.847 L 79.733 2.513 L 79.913 2.797 C 79.858 2.832 79.809 2.847 79.809 2.847 L 79.733 2.513 L 79.913 2.797 L 79.714 2.488 L 80.023 2.692 C 80.013 2.712 79.968 2.762 79.913 2.797 L 79.714 2.488 L 80.023 2.692 L 78.781 1.85 C 78.842 1.765 78.916 1.671 79.006 1.6 C 79.166 1.466 79.355 1.396 79.475 1.366 C 79.664 1.326 79.733 1.326 79.794 1.306 C 79.853 1.291 79.923 1.266 80.053 1.182 C 80.177 1.102 80.327 1.052 80.477 1.052 C 80.552 1.052 80.865 1.042 81.304 1.022 C 82.865 0.957 86.19 0.788 89.236 0.628 C 90.762 0.548 92.212 0.469 93.344 0.409 C 94.471 0.344 95.289 0.299 95.503 0.284 C 95.558 0.279 95.618 0.279 95.668 0.279 C 96.112 0.279 96.515 0.414 96.819 0.618 C 97.278 0.923 97.533 1.326 97.681 1.641 C 97.837 1.954 97.886 2.199 97.896 2.239 L 97.911 2.349 C 97.911 2.349 98.041 4.213 98.29 7.718 C 98.295 7.788 98.29 7.867 98.27 7.942 C 98.205 8.222 98.176 8.441 98.14 8.655 C 98.115 8.814 98.086 8.974 98.016 9.168 C 97.961 9.313 97.871 9.472 97.742 9.607 C 97.647 9.707 97.533 9.791 97.418 9.857 C 97.248 9.951 97.074 10.006 96.894 10.051 C 96.714 10.096 96.52 10.13 96.286 10.161 L 96.176 9.408 L 96.296 10.156 C 96.117 10.186 95.872 10.211 95.548 10.24 C 93.324 10.444 87.651 10.765 87.646 10.765 L 87.6 10.006 L 88.359 9.956 L 88.638 13.954 L 87.88 14.01 L 87.83 13.252 L 95.358 12.738 L 95.408 13.497 L 95.059 12.818 C 95.124 12.788 95.373 12.658 95.767 12.658 C 96.076 12.653 96.485 12.758 96.834 13.048 C 97.188 13.332 97.462 13.76 97.666 14.344 C 97.691 14.403 97.702 14.479 97.707 14.538 L 98.006 18.632 L 98.006 18.77 C 97.951 19.254 97.837 19.658 97.661 19.997 C 97.403 20.505 97.008 20.844 96.64 21.015 C 96.271 21.189 95.937 21.219 95.732 21.219 C 95.623 21.219 95.543 21.209 95.513 21.204 L 95.623 20.451 L 95.673 21.209 L 88.429 21.693 L 88.373 20.934 L 89.131 20.885 L 89.426 25.048 L 88.668 25.102 L 88.618 24.344 L 97.452 23.801 C 97.627 23.791 97.791 23.836 97.936 23.936 L 99.138 24.778 C 99.301 24.893 99.411 25.058 99.447 25.252 C 99.651 26.279 99.755 27.615 99.821 28.767 C 99.85 29.341 99.87 29.869 99.885 30.272 C 99.89 30.477 99.895 30.652 99.905 30.786 C 99.91 30.915 99.916 31.015 99.916 31.04 L 99.916 31.04 C 99.921 31.114 99.926 31.19 99.926 31.265 C 99.926 31.713 99.826 32.112 99.651 32.431 C 99.392 32.915 99.013 33.204 98.714 33.359 C 98.41 33.518 98.17 33.558 98.12 33.568 L 98.046 33.578 C 98.046 33.578 94.791 33.807 91.315 34.046 C 87.84 34.291 84.161 34.545 83.304 34.604 C 83.238 34.609 83.174 34.609 83.109 34.609 C 82.605 34.609 82.151 34.466 81.798 34.236 C 81.439 34.007 81.184 33.717 80.995 33.433 C 80.926 33.328 80.88 33.209 80.87 33.084 C 80.87 33.084 79.639 19.737 78.926 10.765 L 80.447 10.659" style="fill: rgb(20, 20, 20);"/>
  <path class="B" d="M 62.125 32.506 C 63.83 32.686 66.766 33.079 66.766 33.079 C 66.766 33.079 68.242 33.099 68.422 31.384 C 68.601 29.67 69.319 22.859 69.319 22.859 L 72.764 32.491 C 73.407 33.642 73.537 33.792 75.332 33.976 C 77.131 34.166 79.679 34.435 79.679 34.435 C 79.679 34.435 81.04 34.445 81.199 32.945 C 81.274 32.227 77.974 24.564 75.322 18.197 C 79.789 11.237 83.224 4.413 83.224 4.413 C 83.224 4.413 83.528 3.041 82.177 2.643 C 80.875 2.258 77.7 2.174 77.7 2.174 C 77.7 2.174 76.633 1.89 75.71 3.221 C 74.339 5.195 70.47 11.851 70.47 11.851 L 71.358 2.762 C 71.422 2.094 71.218 1.62 70.481 1.5 L 64.493 0.788 C 64.493 0.788 63.565 0.972 63.476 1.83 C 63.476 1.83 62.723 8.391 61.96 15.336" style="fill: rgb(255, 255, 255);"/>
  <path class="C" d="M 62.205 31.749 C 63.93 31.928 66.861 32.321 66.866 32.321 L 66.766 33.074 L 66.776 32.316 L 66.766 32.915 L 66.766 32.316 L 66.776 32.316 L 66.766 32.915 L 66.766 32.316 L 66.766 32.561 L 66.761 32.316 L 66.766 32.316 L 66.766 32.561 L 66.761 32.316 L 66.802 32.311 C 66.896 32.301 67.11 32.257 67.27 32.132 C 67.355 32.067 67.429 31.992 67.499 31.867 C 67.569 31.744 67.634 31.568 67.659 31.3 C 67.843 29.584 68.556 22.779 68.556 22.779 C 68.591 22.425 68.87 22.146 69.22 22.106 C 69.573 22.061 69.907 22.27 70.027 22.604 L 73.472 32.232 L 72.754 32.486 L 73.417 32.117 C 73.577 32.402 73.697 32.606 73.786 32.731 C 73.855 32.825 73.906 32.875 73.95 32.91 C 74.021 32.959 74.1 33.009 74.329 33.064 C 74.554 33.119 74.903 33.169 75.396 33.219 C 77.191 33.408 79.743 33.678 79.743 33.678 L 79.664 34.435 L 79.669 33.672 L 79.664 34.375 L 79.664 33.672 L 79.669 33.672 L 79.664 34.375 L 79.664 33.672 L 79.664 33.892 L 79.654 33.672 L 79.664 33.672 L 79.664 33.892 L 79.654 33.672 C 79.669 33.678 79.893 33.652 80.053 33.553 C 80.138 33.502 80.207 33.443 80.273 33.344 C 80.337 33.244 80.396 33.104 80.427 32.86 L 80.926 32.915 L 80.422 32.915 L 80.427 32.86 L 80.926 32.915 L 80.422 32.915 L 80.701 32.915 L 80.427 32.94 L 80.422 32.915 L 80.701 32.915 L 80.427 32.94 L 80.422 32.93 C 80.411 32.87 80.357 32.63 80.248 32.316 C 79.883 31.214 79.021 29.071 77.983 26.563 C 76.942 24.051 75.715 21.153 74.598 18.482 C 74.504 18.252 74.529 17.988 74.664 17.778 C 76.882 14.319 78.852 10.888 80.263 8.321 C 80.97 7.04 81.534 5.972 81.927 5.23 C 82.122 4.857 82.271 4.567 82.371 4.367 C 82.475 4.168 82.526 4.063 82.526 4.063 L 83.204 4.403 L 82.46 4.238 L 82.904 4.332 L 82.46 4.243 L 82.46 4.233 L 82.904 4.327 L 82.46 4.238 L 82.46 4.228 C 82.465 4.204 82.47 4.143 82.47 4.063 C 82.47 3.929 82.441 3.765 82.381 3.65 C 82.347 3.595 82.306 3.545 82.246 3.49 C 82.182 3.441 82.092 3.39 81.942 3.34 C 81.689 3.266 81.269 3.191 80.816 3.131 C 80.123 3.041 79.325 2.982 78.712 2.947 C 78.403 2.926 78.138 2.916 77.954 2.906 C 77.769 2.901 77.659 2.896 77.659 2.896 C 77.605 2.896 77.541 2.887 77.485 2.872 L 77.595 2.453 L 77.505 2.882 L 77.48 2.877 L 77.59 2.458 L 77.5 2.887 L 77.516 2.822 L 77.5 2.887 L 77.5 2.887 L 77.516 2.822 L 77.5 2.887 C 77.5 2.887 77.47 2.882 77.421 2.882 C 77.325 2.882 77.176 2.896 76.992 2.992 C 76.802 3.086 76.568 3.256 76.304 3.63 C 75.98 4.098 75.481 4.881 74.927 5.778 C 74.1 7.125 73.143 8.73 72.391 10.001 C 72.016 10.64 71.692 11.188 71.463 11.582 C 71.233 11.975 71.098 12.204 71.098 12.204 C 70.919 12.513 70.55 12.653 70.212 12.544 C 69.873 12.434 69.653 12.105 69.687 11.75 L 70.57 2.663 L 70.57 2.663 C 70.575 2.608 70.58 2.558 70.58 2.518 C 70.58 2.433 70.57 2.373 70.565 2.339 C 70.546 2.288 70.546 2.299 70.541 2.288 C 70.531 2.283 70.481 2.243 70.331 2.219 L 70.455 1.471 L 70.366 2.224 L 64.378 1.511 L 64.468 0.758 L 64.618 1.5 L 64.542 1.122 L 64.628 1.5 L 64.618 1.505 L 64.542 1.127 L 64.628 1.505 C 64.628 1.505 64.593 1.516 64.542 1.536 C 64.468 1.566 64.363 1.62 64.309 1.681 C 64.249 1.74 64.223 1.78 64.208 1.89 L 64.208 1.895 C 64.208 1.895 64.164 2.304 64.079 3.026 C 63.83 5.195 63.261 10.191 62.693 15.395 L 61.182 15.231 C 61.945 8.281 62.698 1.72 62.698 1.72 L 63.451 1.804 L 62.693 1.725 C 62.728 1.376 62.863 1.067 63.032 0.832 C 63.292 0.479 63.605 0.289 63.85 0.174 C 64.094 0.06 64.279 0.025 64.318 0.015 C 64.393 0 64.478 -0.005 64.557 0.005 L 70.595 0.748 C 70.819 0.783 71.039 0.852 71.238 0.957 C 71.537 1.112 71.792 1.371 71.927 1.666 C 72.071 1.954 72.116 2.258 72.116 2.543 C 72.116 2.638 72.111 2.737 72.101 2.832 L 72.101 2.832 L 71.218 11.921 L 70.46 11.846 L 69.802 11.462 C 69.802 11.462 70.769 9.796 71.912 7.882 C 72.48 6.925 73.093 5.908 73.656 5 C 74.215 4.094 74.718 3.301 75.082 2.783 C 75.471 2.219 75.915 1.855 76.343 1.646 C 76.768 1.436 77.166 1.381 77.445 1.381 C 77.679 1.381 77.839 1.416 77.889 1.431 L 77.695 2.164 L 77.715 1.406 C 77.725 1.406 78.527 1.431 79.505 1.5 C 79.993 1.536 80.521 1.581 81.025 1.651 C 81.528 1.715 81.992 1.795 82.386 1.91 C 82.705 2 82.979 2.144 83.204 2.324 C 83.548 2.592 83.757 2.936 83.867 3.251 C 83.982 3.564 84.006 3.859 84.006 4.084 C 84.006 4.352 83.967 4.536 83.962 4.577 C 83.947 4.642 83.926 4.697 83.896 4.756 C 83.891 4.771 80.447 11.607 75.955 18.611 L 75.317 18.202 L 76.019 17.908 C 77.33 21.054 78.801 24.52 79.944 27.311 C 80.516 28.707 81.01 29.933 81.359 30.875 C 81.534 31.349 81.673 31.749 81.778 32.073 C 81.827 32.237 81.873 32.377 81.903 32.506 C 81.932 32.64 81.957 32.75 81.957 32.92 L 81.952 33.024 C 81.903 33.508 81.748 33.922 81.518 34.241 C 81.179 34.724 80.715 34.969 80.362 35.078 C 80.008 35.193 79.738 35.193 79.679 35.198 L 79.669 35.198 L 79.6 35.193 C 79.6 35.193 78.961 35.129 78.098 35.033 C 77.236 34.944 76.149 34.829 75.251 34.734 C 74.793 34.685 74.429 34.64 74.105 34.57 C 73.86 34.52 73.641 34.45 73.427 34.356 C 73.108 34.211 72.834 33.971 72.634 33.717 C 72.435 33.458 72.286 33.189 72.101 32.86 L 72.051 32.745 L 68.601 23.118 L 69.319 22.864 L 70.072 22.943 C 70.072 22.943 70.027 23.367 69.957 24.035 C 69.748 26.03 69.309 30.183 69.174 31.469 C 69.12 31.992 68.96 32.436 68.73 32.78 C 68.381 33.303 67.898 33.578 67.519 33.708 C 67.141 33.837 66.851 33.842 66.766 33.842 L 66.756 33.842 L 66.667 33.837 C 66.667 33.837 65.939 33.737 64.991 33.617 C 64.049 33.497 62.888 33.354 62.05 33.264 L 62.205 31.749" style="fill: rgb(20, 20, 20);"/>
  <path class="B" d="M 41.709 29.759 L 41.779 31.07 L 41.963 32.491 C 41.963 32.491 42.083 33.941 43.763 33.912 C 45.568 33.887 48.474 33.607 48.474 33.607 C 48.474 33.607 49.93 33.393 49.845 31.673 C 49.756 29.948 49.562 26.288 49.562 26.288 L 52.358 32.186 C 53.17 33.224 53.325 33.349 55.126 33.254 C 56.93 33.16 61.437 32.925 61.437 32.925 C 61.437 32.925 62.783 32.721 62.703 31.214 C 62.623 29.709 61.198 2.483 61.198 2.483 C 61.198 2.483 60.899 1.032 59.542 1.102 C 58.192 1.172 54.836 1.347 54.836 1.347 C 54.836 1.347 53.535 1.047 53.55 2.668 C 53.565 4.283 53.884 9.018 53.884 9.018 L 50.818 2.812 C 49.965 1.456 49.287 1.641 47.931 1.71 L 41.165 2.064 C 41.165 2.064 40.278 2.314 40.323 3.176 L 40.438 5.304" style="fill: rgb(255, 255, 255);"/>
  <path class="C" d="M 42.466 29.719 L 42.537 31.03 L 41.779 31.07 L 42.532 30.976 L 42.716 32.397 L 42.721 32.426 L 42.387 32.456 L 42.721 32.416 L 42.721 32.426 L 42.387 32.456 L 42.721 32.416 C 42.716 32.421 42.761 32.655 42.886 32.82 C 42.95 32.905 43.025 32.979 43.145 33.04 C 43.264 33.099 43.44 33.154 43.718 33.154 L 43.748 33.154 C 44.621 33.139 45.792 33.064 46.734 32.994 C 47.208 32.959 47.622 32.925 47.922 32.895 C 48.22 32.87 48.399 32.849 48.399 32.849 L 48.47 33.607 L 48.36 32.855 L 48.409 33.194 L 48.35 32.855 L 48.364 32.855 L 48.414 33.194 L 48.355 32.855 C 48.36 32.855 48.584 32.805 48.754 32.665 C 48.838 32.596 48.913 32.511 48.978 32.387 C 49.038 32.262 49.088 32.092 49.088 31.823 L 49.083 31.713 C 49.038 30.851 48.968 29.509 48.908 28.377 C 48.848 27.246 48.803 26.334 48.803 26.334 C 48.784 25.969 49.022 25.645 49.376 25.556 C 49.726 25.466 50.095 25.635 50.249 25.964 L 53.047 31.862 L 52.363 32.186 L 52.956 31.718 C 53.126 31.933 53.256 32.092 53.36 32.207 C 53.52 32.377 53.585 32.411 53.68 32.451 C 53.779 32.486 53.973 32.52 54.343 32.52 C 54.542 32.52 54.791 32.511 55.085 32.496 C 55.988 32.446 57.568 32.366 58.919 32.296 C 60.271 32.227 61.397 32.167 61.397 32.167 L 61.437 32.925 L 61.322 32.172 L 61.377 32.52 L 61.312 32.177 L 61.322 32.172 L 61.377 32.52 L 61.312 32.177 C 61.312 32.177 61.521 32.127 61.667 32.012 C 61.741 31.953 61.805 31.882 61.856 31.788 C 61.906 31.688 61.945 31.558 61.95 31.339 L 61.95 31.255 C 61.871 29.749 60.445 2.523 60.445 2.523 L 61.203 2.483 L 60.46 2.638 L 60.924 2.543 L 60.465 2.648 L 60.465 2.638 L 60.929 2.543 L 60.47 2.648 L 60.465 2.638 C 60.455 2.592 60.375 2.339 60.236 2.159 C 60.165 2.069 60.085 1.995 60.001 1.944 C 59.911 1.895 59.817 1.865 59.652 1.86 L 59.597 1.86 C 58.241 1.929 54.891 2.104 54.891 2.104 C 54.821 2.109 54.751 2.099 54.682 2.084 L 54.761 1.735 L 54.697 2.089 L 54.682 2.089 L 54.761 1.74 L 54.697 2.094 L 54.616 2.089 L 54.491 2.099 C 54.442 2.12 54.437 2.12 54.407 2.154 C 54.382 2.194 54.312 2.314 54.312 2.643 L 54.312 2.663 C 54.317 3.436 54.402 5.025 54.481 6.406 C 54.522 7.099 54.562 7.738 54.591 8.207 C 54.621 8.675 54.642 8.969 54.642 8.969 C 54.667 9.334 54.432 9.657 54.083 9.752 C 53.734 9.847 53.365 9.682 53.206 9.358 L 50.134 3.151 L 50.818 2.812 L 50.175 3.216 C 49.91 2.792 49.711 2.618 49.566 2.538 C 49.491 2.498 49.417 2.473 49.322 2.453 C 49.228 2.433 49.108 2.423 48.958 2.423 C 48.708 2.423 48.379 2.448 47.976 2.473 C 47.298 2.508 46.964 2.528 46.794 2.533 C 46.71 2.538 46.67 2.543 46.644 2.543 L 46.629 2.543 L 46.624 2.543 L 41.21 2.827 L 41.17 2.069 L 41.375 2.802 L 41.26 2.398 L 41.385 2.802 L 41.37 2.807 L 41.256 2.403 L 41.38 2.807 L 41.366 2.812 C 41.32 2.827 41.215 2.882 41.16 2.941 L 41.101 3.021 C 41.091 3.046 41.081 3.071 41.081 3.131 L 41.081 3.156 L 41.19 5.285 L 39.675 5.365 L 39.565 3.235 L 39.565 3.131 C 39.565 2.797 39.66 2.488 39.8 2.243 C 40.014 1.88 40.303 1.666 40.527 1.541 C 40.752 1.411 40.922 1.362 40.961 1.352 C 41.016 1.337 41.071 1.326 41.126 1.326 L 46.54 1.042 C 46.54 1.042 46.54 1.042 47.891 0.972 C 48.265 0.952 48.604 0.923 48.953 0.923 C 49.167 0.923 49.387 0.937 49.616 0.982 C 49.96 1.047 50.314 1.202 50.623 1.451 C 50.932 1.695 51.197 2.02 51.455 2.433 L 51.491 2.498 L 54.562 8.704 L 53.879 9.039 L 53.121 9.089 C 53.121 9.089 53.042 7.903 52.961 6.516 C 52.876 5.125 52.797 3.54 52.787 2.697 L 52.787 2.697 L 52.787 2.668 C 52.787 2.304 52.841 1.979 52.951 1.695 C 53.116 1.266 53.435 0.942 53.759 0.788 C 54.083 0.623 54.382 0.599 54.601 0.594 C 54.821 0.594 54.965 0.623 55.006 0.633 L 54.836 1.371 L 54.796 0.613 C 54.796 0.613 55.634 0.569 56.641 0.513 C 57.648 0.464 58.825 0.399 59.498 0.364 L 59.632 0.359 C 60.085 0.359 60.499 0.489 60.819 0.694 C 61.297 0.997 61.562 1.411 61.721 1.735 C 61.876 2.059 61.93 2.309 61.94 2.349 L 61.955 2.462 C 61.955 2.462 62.314 9.268 62.678 16.268 C 63.047 23.263 63.421 30.446 63.461 31.2 C 63.461 31.255 63.466 31.31 63.466 31.364 C 63.466 31.828 63.356 32.237 63.172 32.571 C 62.893 33.069 62.483 33.349 62.17 33.502 C 61.846 33.657 61.601 33.698 61.552 33.703 L 61.476 33.713 C 61.476 33.713 56.965 33.946 55.16 34.042 C 54.851 34.056 54.582 34.066 54.338 34.066 C 54.039 34.066 53.779 34.051 53.52 34.002 C 53.141 33.936 52.772 33.757 52.498 33.513 C 52.218 33.274 52.014 33.004 51.754 32.681 C 51.72 32.635 51.69 32.586 51.665 32.535 L 48.868 26.638 L 49.557 26.314 L 50.314 26.274 C 50.314 26.274 50.509 29.933 50.598 31.653 C 50.603 31.718 50.603 31.778 50.603 31.843 C 50.603 32.346 50.489 32.79 50.299 33.149 C 50.015 33.688 49.576 33.997 49.242 34.161 C 48.898 34.326 48.634 34.366 48.579 34.375 L 48.544 34.38 C 48.529 34.38 45.628 34.66 43.768 34.69 L 43.713 34.69 C 43.195 34.69 42.741 34.57 42.382 34.371 C 41.834 34.071 41.535 33.612 41.385 33.254 C 41.231 32.895 41.205 32.621 41.2 32.566 L 41.958 32.501 L 41.205 32.596 L 41.021 31.175 L 41.021 31.12 L 40.951 29.808 L 42.466 29.719" style="fill: rgb(20, 20, 20);"/>
  <path class="B" d="M 158.56 28.971 L 158.65 30.731 L 158.83 32.152 C 158.83 32.152 158.949 33.603 160.629 33.578 C 162.434 33.553 165.345 33.274 165.345 33.274 C 165.345 33.274 166.801 33.06 166.712 31.339 C 166.621 29.619 166.427 25.959 166.427 25.959 L 169.225 31.858 C 170.042 32.895 170.192 33.019 171.991 32.93 C 173.796 32.835 178.303 32.601 178.303 32.601 C 178.303 32.601 179.569 32.397 179.569 30.89 C 179.569 29.355 178.069 2.159 178.069 2.159 C 178.069 2.159 177.764 0.709 176.414 0.778 C 175.057 0.847 171.712 1.022 171.712 1.022 C 171.712 1.022 170.411 0.723 170.426 2.344 C 170.44 3.959 170.76 8.694 170.76 8.694 L 167.689 2.488 C 166.836 1.127 166.159 1.316 164.802 1.386 L 158.042 1.73 C 158.042 1.73 157.154 1.979 157.199 2.842 L 157.399 6.651" style="fill: rgb(255, 255, 255);"/>
  <path class="C" d="M 159.318 28.931 L 159.407 30.691 L 158.65 30.731 L 159.402 30.637 L 159.582 32.057 L 159.587 32.092 L 159.253 32.117 L 159.587 32.077 L 159.587 32.092 L 159.253 32.117 L 159.587 32.077 C 159.582 32.082 159.627 32.316 159.751 32.481 C 159.817 32.566 159.891 32.64 160.011 32.701 C 160.131 32.76 160.305 32.815 160.585 32.815 L 160.614 32.815 C 161.486 32.805 162.659 32.726 163.601 32.655 C 164.075 32.621 164.488 32.586 164.787 32.556 C 165.086 32.53 165.266 32.511 165.266 32.511 L 165.34 33.269 L 165.231 32.515 L 165.281 32.855 L 165.216 32.52 L 165.226 32.515 L 165.276 32.855 L 165.211 32.52 C 165.211 32.52 165.44 32.466 165.61 32.331 C 165.695 32.262 165.769 32.177 165.834 32.052 C 165.899 31.928 165.949 31.758 165.949 31.489 L 165.949 31.379 L 165.949 31.379 C 165.904 30.517 165.834 29.176 165.774 28.043 C 165.715 26.912 165.664 26 165.664 26 C 165.644 25.635 165.884 25.311 166.238 25.222 C 166.587 25.132 166.955 25.306 167.11 25.635 L 169.902 31.533 L 169.215 31.858 L 169.812 31.389 C 169.977 31.604 170.111 31.763 170.217 31.877 C 170.376 32.047 170.44 32.082 170.536 32.122 C 170.635 32.162 170.83 32.196 171.199 32.196 C 171.398 32.196 171.647 32.186 171.947 32.172 C 172.848 32.127 174.424 32.042 175.78 31.972 C 177.131 31.903 178.258 31.843 178.258 31.843 L 178.298 32.601 L 178.178 31.853 L 178.238 32.232 L 178.168 31.858 L 178.178 31.858 L 178.238 32.237 L 178.168 31.862 L 178.198 31.853 C 178.273 31.833 178.442 31.763 178.562 31.639 C 178.622 31.573 178.682 31.499 178.727 31.384 C 178.771 31.27 178.806 31.12 178.806 30.895 C 178.806 30.826 178.801 30.627 178.791 30.352 C 178.712 28.239 178.337 21.194 177.983 14.688 C 177.809 11.432 177.64 8.311 177.51 6.008 C 177.445 4.851 177.396 3.904 177.361 3.24 C 177.321 2.577 177.301 2.209 177.301 2.209 L 178.059 2.164 L 177.311 2.319 L 177.774 2.224 L 177.316 2.324 L 177.311 2.319 L 177.774 2.224 L 177.316 2.324 L 177.311 2.319 C 177.301 2.273 177.22 2.02 177.082 1.84 C 177.011 1.745 176.932 1.676 176.847 1.625 C 176.758 1.576 176.663 1.546 176.498 1.541 L 176.444 1.541 C 175.092 1.61 171.737 1.79 171.737 1.79 C 171.667 1.795 171.597 1.785 171.528 1.77 L 171.607 1.421 L 171.542 1.77 L 171.528 1.77 L 171.607 1.421 L 171.542 1.77 L 171.468 1.765 L 171.353 1.78 C 171.304 1.8 171.299 1.8 171.268 1.835 C 171.243 1.87 171.174 1.995 171.174 2.324 L 171.174 2.344 C 171.179 3.116 171.263 4.707 171.343 6.087 C 171.383 6.776 171.422 7.419 171.452 7.887 C 171.483 8.356 171.503 8.65 171.503 8.65 C 171.528 9.009 171.294 9.339 170.944 9.433 C 170.595 9.528 170.226 9.358 170.067 9.034 L 166.996 2.827 L 167.679 2.493 L 167.036 2.896 C 166.771 2.473 166.572 2.299 166.427 2.219 C 166.353 2.179 166.283 2.154 166.188 2.134 C 166.093 2.114 165.973 2.104 165.824 2.104 C 165.575 2.104 165.246 2.13 164.842 2.154 C 164.164 2.189 163.825 2.209 163.661 2.214 C 163.575 2.219 163.536 2.219 163.511 2.219 L 163.496 2.219 L 163.496 2.219 L 158.082 2.503 L 158.042 1.745 L 158.246 2.478 L 158.131 2.069 L 158.256 2.473 L 158.246 2.478 L 158.131 2.069 L 158.256 2.473 L 158.241 2.478 C 158.197 2.493 158.091 2.548 158.032 2.608 L 157.972 2.687 C 157.962 2.712 157.952 2.737 157.952 2.797 L 157.952 2.817 L 157.952 2.817 L 158.151 6.62 L 156.636 6.701 L 156.437 2.892 L 156.437 2.892 L 156.437 2.787 C 156.431 2.453 156.531 2.144 156.67 1.9 C 156.885 1.536 157.174 1.326 157.399 1.197 C 157.623 1.067 157.792 1.022 157.837 1.007 C 157.892 0.992 157.947 0.982 158.002 0.982 L 164.767 0.628 C 165.141 0.608 165.48 0.579 165.829 0.579 C 166.044 0.579 166.268 0.594 166.492 0.638 C 166.836 0.709 167.19 0.857 167.499 1.107 C 167.809 1.352 168.072 1.676 168.332 2.089 L 168.371 2.154 L 171.442 8.36 L 170.76 8.694 L 170.001 8.745 C 170.001 8.745 169.922 7.558 169.842 6.173 C 169.758 4.781 169.677 3.196 169.673 2.353 L 169.673 2.358 L 169.673 2.324 C 169.673 1.959 169.728 1.635 169.837 1.352 C 170.001 0.923 170.321 0.599 170.645 0.439 C 170.969 0.274 171.268 0.245 171.488 0.245 C 171.702 0.245 171.852 0.274 171.886 0.284 L 171.717 1.027 L 171.672 0.255 C 171.677 0.255 172.51 0.21 173.516 0.16 C 174.524 0.11 175.7 0.046 176.378 0.01 L 176.513 0.005 C 176.972 0.005 177.381 0.135 177.699 0.339 C 178.184 0.643 178.442 1.057 178.602 1.381 C 178.756 1.705 178.811 1.954 178.821 1.995 L 178.837 2.109 C 178.837 2.109 179.21 8.909 179.589 15.9 C 179.778 19.394 179.963 22.938 180.108 25.706 C 180.177 27.087 180.237 28.278 180.282 29.171 C 180.302 29.614 180.317 29.989 180.327 30.277 C 180.337 30.566 180.342 30.761 180.342 30.88 C 180.342 31.364 180.237 31.788 180.062 32.132 C 179.799 32.65 179.39 32.959 179.066 33.124 C 178.742 33.293 178.493 33.334 178.437 33.344 L 178.358 33.354 C 178.358 33.354 173.846 33.588 172.046 33.683 C 171.732 33.698 171.463 33.713 171.218 33.713 C 170.919 33.713 170.655 33.698 170.401 33.647 C 170.022 33.578 169.653 33.398 169.379 33.16 C 169.105 32.92 168.896 32.65 168.641 32.326 C 168.606 32.282 168.576 32.232 168.551 32.182 L 165.754 26.284 L 166.437 25.959 L 167.195 25.92 C 167.195 25.92 167.384 29.579 167.48 31.3 L 167.48 31.3 C 167.48 31.364 167.485 31.424 167.485 31.489 C 167.485 31.992 167.375 32.436 167.18 32.795 C 166.896 33.334 166.462 33.642 166.123 33.807 C 165.779 33.976 165.515 34.017 165.465 34.022 L 165.43 34.027 C 165.42 34.027 162.519 34.306 160.654 34.336 L 160.6 34.336 C 160.081 34.336 159.627 34.221 159.268 34.017 C 158.72 33.713 158.42 33.259 158.271 32.9 C 158.121 32.54 158.091 32.267 158.087 32.212 L 158.845 32.147 L 158.091 32.247 L 157.907 30.826 L 157.902 30.765 L 157.812 29.006 L 159.318 28.931" style="fill: rgb(20, 20, 20);"/>
  <path class="B" d="M 121.094 2.229 C 121.094 2.229 120.201 2.538 120.231 3.4 L 121.229 32.047 C 121.229 32.047 121.527 34.111 123.333 34.051 C 125.137 33.987 127.844 33.897 127.844 33.897 C 127.844 33.897 129.305 33.713 129.245 31.987 C 129.185 30.262 128.946 23.422 128.946 23.422 L 133.698 32.481 C 134.494 33.533 134.645 33.662 136.445 33.598 C 138.254 33.538 140.817 33.448 140.817 33.448 C 140.817 33.448 142.163 33.264 142.113 31.758 C 142.088 31.04 137.751 23.911 134.236 17.974 C 137.451 10.385 140.293 3.335 140.293 3.335 C 140.293 3.335 140.213 1.566 138.857 1.61 C 137.506 1.661 134.356 1.77 134.356 1.77 C 134.356 1.77 133.264 1.641 132.53 3.081 C 131.448 5.23 128.542 12.354 128.542 12.354 L 128.153 3.23 C 127.709 2.373 127.915 2.034 126.622 2.034 L 121.094 2.229" style="fill: rgb(255, 255, 255);"/>
  <path class="C" d="M 121.094 2.229 L 121.343 2.947 L 121.213 2.577 L 121.353 2.947 L 121.343 2.952 L 121.213 2.582 L 121.353 2.952 L 121.333 2.962 C 121.283 2.982 121.163 3.051 121.094 3.126 L 121.014 3.235 C 120.999 3.271 120.989 3.306 120.989 3.37 L 120.989 3.385 L 121.986 32.032 L 121.229 32.057 L 121.976 31.948 L 121.647 31.992 L 121.976 31.943 L 121.976 31.948 L 121.647 31.992 L 121.976 31.943 C 121.976 31.948 122.051 32.366 122.265 32.711 C 122.37 32.885 122.5 33.035 122.649 33.134 C 122.799 33.234 122.974 33.298 123.252 33.303 L 123.302 33.303 C 125.107 33.239 127.819 33.149 127.819 33.149 L 127.844 33.907 L 127.749 33.154 L 127.795 33.493 L 127.739 33.16 L 127.754 33.154 L 127.8 33.493 L 127.744 33.16 C 127.749 33.16 127.984 33.109 128.153 32.969 C 128.243 32.9 128.318 32.815 128.382 32.686 C 128.448 32.556 128.497 32.382 128.502 32.097 L 128.502 32.022 C 128.472 31.16 128.397 29.02 128.328 27.092 C 128.263 25.167 128.203 23.457 128.203 23.457 C 128.193 23.104 128.423 22.789 128.767 22.694 C 129.111 22.604 129.469 22.759 129.634 23.078 L 134.385 32.132 L 133.713 32.486 L 134.315 32.027 C 134.484 32.252 134.619 32.421 134.724 32.535 C 134.804 32.621 134.859 32.675 134.909 32.706 C 134.978 32.755 135.028 32.78 135.163 32.81 C 135.293 32.84 135.512 32.86 135.831 32.855 C 136.001 32.855 136.205 32.849 136.435 32.84 C 137.336 32.81 138.428 32.77 139.296 32.74 C 140.163 32.711 140.802 32.691 140.807 32.691 L 140.831 33.448 L 140.732 32.696 L 140.782 33.04 L 140.722 32.696 L 140.732 32.696 L 140.782 33.04 L 140.722 32.696 C 140.722 32.701 140.936 32.65 141.086 32.53 C 141.165 32.471 141.226 32.402 141.28 32.306 C 141.33 32.207 141.375 32.073 141.375 31.843 L 141.375 31.783 L 141.734 31.768 L 141.385 31.858 C 141.385 31.858 141.38 31.848 141.375 31.778 L 141.734 31.763 L 141.385 31.853 C 141.385 31.848 141.36 31.778 141.32 31.688 C 141.17 31.334 140.802 30.622 140.298 29.719 C 138.777 26.992 136.001 22.39 133.603 18.347 C 133.478 18.138 133.463 17.883 133.558 17.664 C 135.163 13.875 136.678 10.216 137.79 7.508 C 138.349 6.152 138.802 5.036 139.122 4.258 C 139.435 3.48 139.616 3.041 139.616 3.041 L 140.318 3.326 L 139.565 3.36 L 139.914 3.345 L 139.565 3.365 L 139.565 3.36 L 139.914 3.345 L 139.565 3.365 C 139.565 3.36 139.535 3.002 139.41 2.732 C 139.351 2.598 139.276 2.493 139.211 2.443 C 139.142 2.393 139.091 2.363 138.942 2.358 L 138.917 2.358 C 137.561 2.408 134.415 2.513 134.415 2.513 L 134.3 2.508 L 134.351 2.084 L 134.325 2.508 L 134.305 2.508 L 134.356 2.084 L 134.33 2.508 L 134.33 2.483 L 134.33 2.508 L 134.33 2.508 L 134.33 2.483 L 134.33 2.508 L 134.325 2.508 C 134.29 2.508 134.136 2.513 133.946 2.618 C 133.757 2.722 133.502 2.921 133.254 3.41 C 132.994 3.924 132.611 4.766 132.191 5.729 C 131.558 7.174 130.831 8.905 130.262 10.265 C 129.983 10.949 129.739 11.536 129.564 11.961 C 129.395 12.38 129.29 12.628 129.29 12.628 C 129.155 12.957 128.806 13.152 128.458 13.092 C 128.104 13.033 127.844 12.733 127.829 12.38 L 127.441 3.256 L 128.198 3.221 L 127.525 3.569 C 127.395 3.316 127.311 3.101 127.256 2.962 C 127.211 2.857 127.181 2.802 127.176 2.792 L 127.29 2.702 L 127.211 2.827 L 127.176 2.792 L 127.29 2.702 L 127.211 2.827 L 127.27 2.742 L 127.221 2.837 L 127.206 2.832 L 127.266 2.747 L 127.216 2.842 L 127.216 2.842 C 127.196 2.827 127.017 2.787 126.663 2.792 L 126.663 2.034 L 126.693 2.792 L 121.153 2.987 L 121.094 2.229 L 121.343 2.947 L 121.094 2.229 L 121.069 1.471 L 126.608 1.276 L 126.632 1.276 C 126.992 1.276 127.27 1.296 127.55 1.366 C 127.754 1.421 127.969 1.516 128.139 1.661 C 128.268 1.765 128.367 1.895 128.433 2.01 C 128.537 2.184 128.597 2.329 128.652 2.468 C 128.706 2.603 128.762 2.732 128.841 2.882 C 128.891 2.982 128.916 3.086 128.926 3.196 L 129.315 12.319 L 128.557 12.349 L 127.854 12.066 C 127.854 12.061 128.582 10.281 129.445 8.227 C 129.879 7.199 130.341 6.107 130.77 5.13 C 131.2 4.153 131.583 3.301 131.867 2.737 C 132.236 2.005 132.731 1.541 133.198 1.291 C 133.662 1.042 134.076 1.002 134.295 1.002 C 134.375 1.002 134.43 1.007 134.455 1.012 L 134.366 1.765 L 134.341 1.007 C 134.341 1.007 135.129 0.982 136.081 0.947 C 137.037 0.913 138.16 0.873 138.843 0.852 L 138.922 0.852 C 139.415 0.847 139.869 1.032 140.178 1.301 C 140.647 1.705 140.836 2.209 140.946 2.587 C 141.05 2.972 141.06 3.261 141.066 3.301 C 141.076 3.41 141.05 3.515 141.011 3.62 C 141.011 3.625 138.165 10.674 134.943 18.267 L 134.246 17.974 L 134.899 17.584 C 136.654 20.551 138.618 23.816 140.149 26.438 C 140.912 27.75 141.57 28.897 142.043 29.774 C 142.277 30.213 142.471 30.581 142.611 30.88 C 142.681 31.03 142.736 31.165 142.786 31.29 C 142.806 31.354 142.831 31.414 142.846 31.479 C 142.861 31.548 142.881 31.619 142.881 31.729 L 142.881 31.729 L 142.886 31.838 C 142.886 32.311 142.776 32.731 142.586 33.064 C 142.302 33.568 141.884 33.852 141.56 34.002 C 141.231 34.156 140.981 34.191 140.931 34.196 L 140.856 34.201 C 140.856 34.201 138.294 34.291 136.489 34.351 C 136.244 34.361 136.03 34.366 135.831 34.366 C 135.502 34.366 135.223 34.351 134.953 34.306 C 134.55 34.246 134.16 34.066 133.872 33.813 C 133.583 33.558 133.368 33.278 133.109 32.935 L 133.045 32.83 L 128.278 23.771 L 128.951 23.417 L 129.714 23.392 C 129.714 23.392 129.953 30.232 130.008 31.958 L 130.013 32.087 C 130.013 32.601 129.898 33.055 129.704 33.413 C 129.415 33.961 128.971 34.27 128.622 34.435 C 128.273 34.599 128.004 34.64 127.944 34.645 L 127.879 34.65 C 127.879 34.65 127.201 34.675 126.298 34.704 C 125.397 34.734 124.27 34.775 123.367 34.809 L 123.262 34.809 C 122.684 34.814 122.17 34.629 121.782 34.361 C 121.198 33.951 120.895 33.393 120.719 32.964 C 120.545 32.53 120.495 32.191 120.491 32.157 L 120.486 32.073 L 119.484 3.426 L 119.484 3.426 L 119.484 3.355 C 119.484 3.016 119.578 2.702 119.718 2.458 C 119.928 2.089 120.211 1.865 120.426 1.72 C 120.65 1.581 120.82 1.516 120.854 1.505 C 120.929 1.48 120.999 1.466 121.079 1.461 L 121.094 2.229" style="fill: rgb(20, 20, 20);"/>
  <path class="B" d="M 142.033 31.384 C 141.256 29.614 134.246 17.923 134.246 17.923 L 139.56 5.275 C 141.849 2.911 144.795 1.49 148.001 1.49 C 152.083 1.49 160.619 5.115 161.337 17.893 C 161.94 28.597 155.374 34.485 148.131 34.296 C 145.777 34.231 143.783 33.488 142.018 32.237 C 142.028 32.237 142.297 31.972 142.033 31.384 M 147.981 7.219 L 145.054 14.378 L 139.206 14.174 L 143.414 19.229 L 141.565 26.468 L 147.981 22.719 L 154.906 27.082 L 152.443 19.434 L 156.855 14.483 L 150.698 14.378 L 147.981 7.219 Z" style="fill: rgb(255, 255, 255);"/>
  <path class="C" d="M 142.033 31.384 L 141.34 31.688 C 141.26 31.514 141.071 31.14 140.807 30.656 C 139.889 28.966 138.08 25.87 136.509 23.208 C 135.721 21.877 134.994 20.65 134.46 19.758 C 133.927 18.865 133.598 18.306 133.593 18.306 C 133.468 18.102 133.448 17.844 133.543 17.624 L 138.862 4.971 C 138.897 4.881 138.952 4.806 139.017 4.737 C 141.425 2.248 144.565 0.718 148.006 0.718 C 149.137 0.718 150.519 0.967 151.989 1.536 C 154.193 2.393 156.586 3.993 158.501 6.63 C 160.414 9.268 161.83 12.928 162.105 17.844 C 162.13 18.317 162.144 18.78 162.144 19.234 C 162.149 24.235 160.56 28.203 158.037 30.91 C 155.519 33.622 152.078 35.048 148.479 35.048 C 148.355 35.048 148.235 35.048 148.116 35.043 C 145.613 34.979 143.448 34.171 141.585 32.849 C 141.4 32.721 141.285 32.515 141.265 32.287 C 141.246 32.062 141.33 31.838 141.489 31.683 L 141.794 31.997 L 141.4 31.803 C 141.415 31.773 141.44 31.734 141.489 31.683 L 141.794 31.997 L 141.4 31.803 L 141.575 31.887 L 141.385 31.843 L 141.4 31.803 L 141.575 31.887 L 141.385 31.843 L 141.475 31.862 L 141.385 31.853 L 141.385 31.843 L 141.475 31.862 L 141.385 31.853 L 141.405 31.858 L 141.385 31.853 L 141.385 31.853 L 141.405 31.858 L 141.385 31.853 L 141.385 31.853 C 141.385 31.843 141.385 31.793 141.335 31.678 L 142.033 31.384 L 142.726 31.08 C 142.846 31.354 142.905 31.624 142.905 31.862 C 142.905 32.112 142.846 32.326 142.766 32.481 C 142.691 32.635 142.601 32.735 142.557 32.785 L 142.028 32.242 L 142.471 31.624 C 144.127 32.795 145.961 33.478 148.16 33.543 C 148.269 33.543 148.374 33.548 148.484 33.548 C 151.685 33.548 154.697 32.292 156.93 29.893 C 159.159 27.495 160.629 23.936 160.629 19.249 C 160.629 18.821 160.614 18.387 160.595 17.943 C 160.24 11.716 158.012 7.837 155.429 5.464 C 154.138 4.283 152.747 3.475 151.441 2.967 C 150.139 2.458 148.918 2.253 148.011 2.253 C 145.029 2.253 142.287 3.569 140.114 5.809 L 139.565 5.28 L 140.269 5.574 L 134.948 18.222 L 134.251 17.928 L 134.899 17.535 C 134.899 17.535 136.654 20.461 138.504 23.607 C 139.43 25.183 140.378 26.808 141.15 28.158 C 141.539 28.831 141.874 29.44 142.142 29.933 C 142.412 30.432 142.611 30.811 142.731 31.08 L 142.033 31.384 M 147.981 7.219 L 148.684 7.508 L 145.757 14.663 C 145.637 14.957 145.348 15.146 145.029 15.136 L 139.181 14.932 L 139.211 14.174 L 139.795 13.686 L 144.002 18.741 C 144.157 18.926 144.216 19.18 144.152 19.414 L 142.302 26.653 L 141.57 26.463 L 141.185 25.81 L 147.606 22.056 C 147.851 21.912 148.15 21.916 148.394 22.071 L 155.32 26.433 L 154.916 27.076 L 154.193 27.311 L 151.73 19.668 C 151.645 19.409 151.705 19.13 151.884 18.931 L 156.297 13.98 L 156.865 14.488 L 156.85 15.246 L 150.693 15.141 C 150.379 15.136 150.109 14.942 149.995 14.653 L 147.273 7.488 L 147.981 7.219 L 148.684 7.508 L 147.981 7.219 L 148.688 6.95 L 151.411 14.109 L 150.703 14.378 L 150.713 13.62 L 156.875 13.72 C 157.169 13.725 157.433 13.905 157.558 14.174 C 157.677 14.449 157.623 14.762 157.429 14.987 L 153.011 19.938 L 152.448 19.429 L 153.17 19.194 L 155.634 26.842 C 155.733 27.147 155.629 27.481 155.379 27.675 C 155.125 27.869 154.781 27.889 154.507 27.719 L 147.582 23.357 L 147.986 22.714 L 148.369 23.367 L 141.948 27.117 C 141.685 27.271 141.355 27.257 141.111 27.066 C 140.866 26.882 140.757 26.568 140.831 26.274 L 142.681 19.03 L 143.419 19.219 L 142.836 19.703 L 138.628 14.648 C 138.438 14.418 138.399 14.099 138.528 13.83 C 138.663 13.561 138.937 13.396 139.236 13.406 L 145.089 13.61 L 145.065 14.369 L 144.361 14.079 L 147.288 6.92 C 147.407 6.63 147.687 6.446 148.001 6.446 C 148.31 6.451 148.589 6.646 148.698 6.94 L 147.981 7.219" style="fill: rgb(20, 20, 20);"/>
  <path class="B" d="M 0.758 4.079 L 2.543 31.744 C 2.543 31.744 2.622 33.917 5.085 33.912 C 7.503 33.907 13.082 33.713 13.082 33.713 C 13.082 33.713 17.415 34.101 20.884 27.61 C 22.719 24.175 22.675 24.125 23.013 18.387 C 23.462 10.869 17.494 1.232 10.729 1.471 L 2.931 1.75 C 2.931 1.75 1.007 1.62 0.758 4.079 M 10.669 11.536 C 12.718 11.467 13.944 14.423 14.139 16.757 C 14.493 21.059 14.163 20.451 13.81 22.111 C 13.456 23.767 11.741 24.648 11.741 24.648 L 9.482 24.729 L 8.824 11.602 L 10.669 11.536 Z" style="fill: rgb(255, 255, 255);"/>
  <path class="C" d="M 0.758 4.079 L 1.515 4.028 L 3.301 31.693 L 3.301 31.718 L 2.882 31.734 L 3.301 31.708 L 3.301 31.713 L 2.882 31.729 L 3.301 31.703 L 3.306 31.768 C 3.326 31.928 3.415 32.306 3.65 32.591 C 3.77 32.735 3.913 32.865 4.133 32.964 C 4.352 33.064 4.651 33.144 5.076 33.144 L 5.081 33.144 C 6.272 33.144 8.271 33.094 9.966 33.045 C 10.814 33.019 11.586 32.994 12.145 32.974 C 12.708 32.954 13.053 32.945 13.053 32.945 L 13.147 32.945 L 13.117 33.269 L 13.137 32.945 L 13.142 32.945 L 13.112 33.269 L 13.132 32.945 C 13.132 32.945 13.162 32.945 13.211 32.945 C 13.5 32.945 14.498 32.89 15.799 32.162 C 17.096 31.434 18.706 30.028 20.201 27.241 C 20.66 26.384 20.994 25.745 21.239 25.202 C 21.602 24.384 21.777 23.786 21.907 22.809 C 22.041 21.832 22.111 20.481 22.24 18.327 C 22.255 18.078 22.265 17.818 22.265 17.564 C 22.27 14.114 20.91 10.201 18.78 7.214 C 17.719 5.719 16.472 4.457 15.137 3.579 C 13.8 2.702 12.389 2.214 10.953 2.214 C 10.883 2.214 10.809 2.214 10.739 2.219 L 2.961 2.508 L 2.887 2.508 L 2.911 2.139 L 2.896 2.508 L 2.887 2.508 L 2.911 2.139 L 2.896 2.508 L 2.887 2.508 C 2.822 2.508 2.492 2.528 2.214 2.717 C 2.069 2.812 1.934 2.941 1.804 3.161 C 1.681 3.38 1.566 3.689 1.52 4.158 L 0.758 4.079 L 1.515 4.028 L 0.758 4.079 L 0 3.998 C 0.064 3.355 0.234 2.822 0.484 2.393 C 0.857 1.75 1.396 1.376 1.86 1.192 C 2.318 1.007 2.707 0.987 2.887 0.987 C 2.936 0.987 2.966 0.987 2.987 0.992 L 2.936 1.75 L 2.911 0.992 L 10.709 0.713 C 10.799 0.713 10.893 0.709 10.979 0.709 C 12.763 0.709 14.468 1.321 15.994 2.329 C 18.287 3.839 20.221 6.222 21.602 8.939 C 22.979 11.656 23.806 14.702 23.806 17.584 C 23.806 17.868 23.801 18.153 23.781 18.436 C 23.607 21.303 23.542 22.764 23.257 24.035 C 23.118 24.668 22.918 25.237 22.645 25.846 C 22.37 26.458 22.022 27.117 21.563 27.974 C 19.957 30.981 18.127 32.63 16.562 33.502 C 14.997 34.38 13.72 34.481 13.237 34.481 C 13.122 34.481 13.048 34.471 13.027 34.471 L 13.092 33.717 L 13.122 34.476 C 13.117 34.476 7.543 34.675 5.095 34.68 L 5.085 34.68 C 4.362 34.68 3.754 34.515 3.275 34.236 C 2.916 34.032 2.638 33.767 2.433 33.493 C 2.124 33.084 1.969 32.67 1.885 32.351 C 1.804 32.032 1.795 31.813 1.79 31.773 L 2.548 31.749 L 1.79 31.798 L 0 4.128 L 0 3.998 L 0.758 4.079 M 10.669 11.536 L 10.644 10.779 L 10.744 10.774 C 11.431 10.774 12.06 11.033 12.563 11.427 C 13.316 12.02 13.835 12.878 14.214 13.806 C 14.592 14.737 14.817 15.75 14.897 16.691 C 15.007 18.008 15.051 18.88 15.051 19.518 C 15.051 19.882 15.036 20.176 15.007 20.431 C 14.962 20.815 14.877 21.109 14.803 21.368 C 14.722 21.627 14.642 21.867 14.558 22.265 C 14.443 22.789 14.229 23.242 13.974 23.622 C 13.591 24.19 13.132 24.604 12.768 24.883 C 12.4 25.162 12.125 25.301 12.095 25.316 C 11.995 25.367 11.885 25.397 11.776 25.402 L 9.517 25.481 C 9.104 25.496 8.755 25.173 8.735 24.758 L 8.071 11.637 C 8.061 11.432 8.132 11.232 8.271 11.083 C 8.411 10.934 8.6 10.844 8.804 10.839 L 10.649 10.774 L 10.669 11.536 L 10.699 12.295 L 8.849 12.359 L 8.824 11.602 L 9.582 11.561 L 10.245 24.683 L 9.487 24.719 L 9.462 23.961 L 11.721 23.88 L 11.747 24.639 L 11.397 23.966 L 11.512 24.185 L 11.397 23.966 L 11.397 23.966 L 11.512 24.185 L 11.397 23.966 C 11.407 23.961 11.786 23.757 12.175 23.397 C 12.569 23.033 12.948 22.535 13.067 21.946 L 13.067 21.946 C 13.201 21.323 13.336 20.969 13.411 20.701 C 13.446 20.561 13.476 20.436 13.496 20.257 C 13.515 20.077 13.531 19.842 13.531 19.523 C 13.531 18.956 13.486 18.117 13.382 16.821 C 13.296 15.775 12.962 14.548 12.459 13.655 C 12.209 13.212 11.915 12.853 11.627 12.628 C 11.327 12.404 11.058 12.299 10.739 12.299 L 10.694 12.299 L 10.669 11.536" style="fill: rgb(20, 20, 20);"/>
  <path class="B" d="M 21.178 26.992 C 23.422 30.915 27.056 34.151 31.907 34.275 C 39.152 34.471 45.723 28.578 45.119 17.873 C 44.402 5.09 35.866 1.471 31.778 1.471 C 27.122 1.471 23.033 4.457 20.68 8.974 C 20.68 8.974 23.123 13.277 22.908 18.048 C 22.694 22.819 23.198 21.323 22.265 24.384 C 21.343 27.451 21.178 26.992 21.178 26.992 M 34.475 14.359 L 40.632 14.464 L 36.22 19.414 L 38.683 27.061 L 31.752 22.699 L 25.336 26.453 L 27.186 19.209 L 23.252 14.154 L 28.831 14.359 L 31.758 7.199 L 34.475 14.359 Z" style="fill: rgb(255, 255, 255);"/>
  <path class="C" d="M 21.178 26.992 L 21.836 26.613 C 22.913 28.497 24.319 30.208 26.01 31.444 C 27.7 32.681 29.664 33.458 31.922 33.518 C 32.032 33.518 32.137 33.523 32.247 33.523 C 35.448 33.518 38.458 32.267 40.692 29.869 C 42.92 27.471 44.392 23.911 44.392 19.224 C 44.392 18.796 44.381 18.362 44.351 17.918 C 43.997 11.691 41.769 7.813 39.191 5.439 C 37.895 4.253 36.504 3.45 35.203 2.941 C 33.902 2.433 32.685 2.229 31.773 2.229 C 29.609 2.229 27.58 2.921 25.795 4.153 C 24.01 5.385 22.475 7.164 21.353 9.323 L 20.68 8.974 L 21.343 8.6 C 21.358 8.625 21.936 9.647 22.52 11.258 C 23.098 12.863 23.681 15.061 23.681 17.449 C 23.681 17.659 23.676 17.868 23.666 18.083 C 23.622 19.16 23.607 19.907 23.607 20.466 C 23.607 20.979 23.617 21.323 23.617 21.627 C 23.622 22.026 23.591 22.385 23.497 22.809 C 23.402 23.237 23.252 23.747 22.994 24.609 C 22.629 25.81 22.38 26.489 22.191 26.907 C 22.091 27.117 22.017 27.267 21.912 27.4 C 21.862 27.471 21.802 27.54 21.697 27.615 C 21.602 27.69 21.433 27.78 21.209 27.78 C 21.079 27.78 20.939 27.745 20.834 27.685 C 20.675 27.6 20.591 27.495 20.545 27.42 C 20.495 27.346 20.476 27.286 20.461 27.251 C 20.326 26.882 20.5 26.474 20.859 26.309 C 21.214 26.145 21.637 26.279 21.836 26.623 L 21.178 26.992 L 21.892 26.737 L 21.214 26.977 L 21.762 26.508 C 21.851 26.613 21.877 26.683 21.897 26.737 L 21.219 26.977 L 21.767 26.508 L 21.219 26.982 L 21.563 26.344 C 21.657 26.393 21.722 26.458 21.767 26.508 L 21.219 26.982 L 21.563 26.344 L 21.219 26.987 L 21.219 26.259 C 21.338 26.259 21.468 26.293 21.563 26.344 L 21.219 26.987 L 21.219 26.259 L 21.219 26.946 L 20.805 26.389 C 20.874 26.339 21.009 26.259 21.219 26.259 L 21.219 26.946 L 20.805 26.389 L 21.094 26.778 L 20.714 26.474 C 20.724 26.463 20.75 26.433 20.81 26.389 L 21.099 26.778 L 20.719 26.474 L 20.795 26.533 L 20.714 26.479 L 20.719 26.474 L 20.795 26.533 L 20.714 26.479 C 20.724 26.463 20.824 26.288 20.964 25.925 C 21.104 25.556 21.298 24.997 21.553 24.16 C 21.811 23.303 21.956 22.809 22.031 22.48 C 22.101 22.146 22.111 21.977 22.116 21.617 C 22.116 21.348 22.106 20.989 22.106 20.456 C 22.106 19.882 22.116 19.105 22.166 18.008 C 22.176 17.818 22.176 17.634 22.176 17.444 C 22.176 15.306 21.642 13.262 21.099 11.766 C 20.829 11.018 20.561 10.405 20.356 9.982 C 20.257 9.772 20.171 9.607 20.117 9.498 C 20.087 9.443 20.066 9.403 20.052 9.378 L 20.037 9.353 L 20.032 9.348 C 19.908 9.124 19.902 8.85 20.022 8.625 C 21.249 6.267 22.938 4.298 24.953 2.906 C 26.961 1.516 29.305 0.713 31.793 0.713 C 32.925 0.713 34.305 0.957 35.777 1.531 C 37.979 2.388 40.378 3.989 42.287 6.62 C 44.202 9.258 45.613 12.918 45.892 17.834 C 45.922 18.306 45.932 18.77 45.932 19.224 C 45.932 24.225 44.346 28.193 41.823 30.9 C 39.306 33.607 35.866 35.038 32.267 35.038 C 32.147 35.038 32.022 35.038 31.902 35.033 C 29.315 34.969 27.032 34.061 25.132 32.665 C 23.232 31.275 21.702 29.4 20.535 27.366 L 21.178 26.992 L 21.892 26.737 L 21.178 26.992 M 34.475 14.359 L 34.484 13.601 L 40.642 13.706 C 40.941 13.711 41.205 13.89 41.325 14.159 C 41.445 14.433 41.395 14.747 41.195 14.972 L 36.783 19.923 L 36.215 19.414 L 36.938 19.18 L 39.4 26.828 C 39.501 27.132 39.396 27.466 39.147 27.66 C 38.892 27.854 38.543 27.874 38.274 27.705 L 31.344 23.342 L 31.748 22.699 L 32.132 23.352 L 25.711 27.107 C 25.446 27.262 25.117 27.241 24.872 27.056 C 24.629 26.872 24.519 26.558 24.594 26.264 L 26.443 19.02 L 27.181 19.209 L 26.583 19.678 L 22.645 14.623 C 22.464 14.388 22.435 14.074 22.569 13.811 C 22.704 13.546 22.979 13.387 23.272 13.396 L 28.851 13.601 L 28.821 14.359 L 28.119 14.074 L 31.045 6.915 C 31.16 6.625 31.443 6.441 31.758 6.441 C 32.072 6.446 32.346 6.641 32.456 6.93 L 35.178 14.089 L 34.475 14.359 L 34.484 13.601 L 34.475 14.359 L 33.767 14.628 L 31.045 7.469 L 31.752 7.199 L 32.456 7.488 L 29.529 14.648 C 29.41 14.942 29.116 15.132 28.797 15.117 L 23.218 14.912 L 23.247 14.154 L 23.846 13.686 L 27.785 18.741 C 27.928 18.926 27.979 19.165 27.919 19.394 L 26.065 26.638 L 25.331 26.448 L 24.948 25.79 L 31.364 22.036 C 31.609 21.892 31.912 21.902 32.152 22.051 L 39.086 26.418 L 38.683 27.061 L 37.96 27.296 L 35.492 19.648 C 35.412 19.394 35.472 19.115 35.647 18.91 L 40.058 13.959 L 40.632 14.464 L 40.617 15.221 L 34.46 15.117 C 34.147 15.112 33.872 14.917 33.762 14.628 L 34.475 14.359" style="fill: rgb(20, 20, 20);"/>
</svg>