<?xml version="1.0" encoding="utf-8"?>
<svg version="1.1" id="Donkey Kong" x="0px" y="0px" style="enable-background:new 0 0 4306.8 743.4;" xmlns="http://www.w3.org/2000/svg">
  <style type="text/css">
	.A{fill:#292526;}
	.B{fill:#E82934;}
	.C{fill:#FECE48;}
</style>
  <g/>
  <path class="B" d="M 3576 113.104 C 3579.2 98.604 3582.7 88.004 3586.3 82.504 C 3621.7 29.004 3652 20.904 3715.3 22.804 C 3715.3 22.804 3777.9 22.804 3872.1 31.404 C 4030.3 45.804 3992.3 254.904 3992.3 254.904 C 3992.3 254.904 3988.2 275.304 3964.9 282.004 C 3941.7 288.804 3850.7 275.104 3850.7 275.104 C 3850.7 275.104 3833.5 266.304 3834.2 256.104 L 3833.3 212.704 C 3828.4 182.604 3803.9 184.204 3770.2 182.204 C 3731.9 179.904 3714.3 203.004 3711.2 247.504 C 3711.2 247.504 3704.3 351.504 3699 422.504 C 3692.6 508.504 3738.5 503.904 3738.5 503.904 C 3793 508.604 3818.8 509.904 3818.9 441.304 L 3798.4 439.704 C 3798.4 439.704 3788.3 439.004 3779.2 423.104 L 3786.5 341.204 C 3786.5 341.204 3791.6 313.604 3816.8 313.904 C 3816.8 313.904 3927.4 321.704 3949.6 323.504 C 3952.2 323.704 3977.6 327.204 3982.1 355.904 L 3963.5 660.104 C 3963.5 660.104 3965.4 680.104 3942 686.104 L 3833 678.504 C 3833 678.504 3817 670.104 3815.1 659.804 L 3821.1 628.304 C 3813 696.504 3640.3 674.804 3601.1 663.604 C 3594.6 661.704 3585.5 656.904 3577.5 650.404" style="fill: rgb(255, 255, 255);"/>
  <path class="C" d="M 3561.2 109.804 C 3562.8 102.204 3564.6 95.404 3566.6 89.604 C 3568.6 83.704 3570.6 78.804 3573.7 74.104 L 3573.7 74.104 C 3582.3 61.104 3590.7 50.404 3599.8 41.504 C 3613.3 28.104 3628.4 19.104 3645.1 14.004 C 3661.8 8.804 3679.9 7.304 3700.7 7.304 C 3705.5 7.304 3710.6 7.404 3715.9 7.504 L 3715.4 22.704 L 3715.4 7.504 C 3715.8 7.504 3778.8 7.504 3873.6 16.204 C 3902.6 18.804 3926.5 27.704 3945.4 40.904 C 3973.9 60.704 3990.4 89.504 3999.8 118.704 C 4009.1 147.904 4011.6 178.004 4011.6 202.604 C 4011.6 234.204 4007.5 257.004 4007.3 257.604 L 4007.3 257.904 C 4007.1 259.204 4005.6 266.104 4000.2 274.304 C 3994.9 282.504 3984.8 292.204 3969.3 296.604 C 3965.5 297.704 3961.7 298.204 3957.6 298.604 C 3953.5 299.004 3949.2 299.104 3944.5 299.104 C 3925.7 299.104 3902.1 296.804 3882.8 294.604 C 3863.5 292.404 3848.8 290.204 3848.6 290.104 C 3847 289.904 3845.5 289.404 3843.9 288.604 C 3843.4 288.304 3838.5 285.904 3833 281.404 C 3830.2 279.104 3827.3 276.304 3824.5 272.604 C 3821.9 268.804 3819.2 263.604 3819.2 256.704 L 3819.3 255.004 L 3834.5 256.104 L 3819.3 256.404 L 3818.4 213.004 L 3833.6 212.704 L 3818.6 215.204 C 3817.6 209.704 3816.2 207.104 3814.8 205.504 C 3813.8 204.304 3812.6 203.404 3810.5 202.404 C 3807.4 200.904 3802.1 199.704 3795 199.104 C 3787.9 198.404 3779.3 198.104 3769.6 197.604 C 3768.2 197.504 3766.8 197.504 3765.5 197.504 C 3758.5 197.504 3753.1 198.704 3748.9 200.504 C 3742.7 203.304 3738.3 207.404 3734.4 215.204 C 3730.5 222.904 3727.8 234.204 3726.8 248.804 L 3726.8 248.804 C 3726.8 248.804 3719.9 352.804 3714.5 423.904 C 3714.1 429.204 3713.9 434.004 3713.9 438.504 C 3713.9 452.804 3715.8 463.004 3718.2 470.104 C 3722 480.804 3726.5 484.504 3730 486.604 C 3733.5 488.704 3736.9 488.904 3737.6 488.804 L 3737.7 488.804 L 3738.2 497.304 L 3737.3 488.804 L 3737.7 488.804 L 3738.2 497.304 L 3737.3 488.804 L 3740.1 488.804 C 3752 489.804 3762.3 490.604 3770.6 490.604 C 3778 490.604 3783.7 489.904 3787.6 488.704 C 3790.5 487.804 3792.5 486.704 3794.1 485.304 C 3796.5 483.304 3798.8 480.004 3800.8 473.004 C 3802.8 466.004 3804.1 455.504 3804.1 441.304 L 3819.3 441.304 L 3818.1 456.504 L 3797.6 454.904 L 3797.7 454.904 C 3795.8 454.804 3790.8 454.004 3784.8 450.504 C 3778.8 447.004 3772 440.704 3766.3 430.704 C 3764.7 428.004 3764 424.904 3764.3 421.804 L 3771.6 339.904 L 3771.8 338.504 C 3772 337.404 3773.5 329.004 3779.6 319.404 C 3782.6 314.604 3787 309.504 3793.3 305.504 C 3799.5 301.404 3807.7 298.804 3816.7 298.804 L 3817.3 298.804 L 3818.2 298.904 C 3818.2 298.904 3928.7 306.704 3951.1 308.504 L 3951.1 308.504 C 3953 308.604 3955.6 309.004 3959.6 310.204 C 3965.4 311.804 3973.5 315.204 3981.1 322.104 C 3988.7 329.004 3995.3 339.804 3997.4 353.804 C 3997.6 354.904 3997.7 356.004 3997.5 357.104 L 3978.9 661.304 L 3963.7 660.404 L 3978.8 659.004 C 3978.9 659.404 3978.9 660.304 3978.9 661.504 C 3978.9 665.304 3978.4 672.704 3973.7 681.104 C 3971.4 685.204 3967.9 689.504 3963.3 693.104 C 3958.6 696.704 3952.8 699.504 3946 701.204 C 3944.3 701.604 3942.8 701.804 3941.1 701.604 L 3832.1 694.004 C 3830 693.804 3828 693.304 3826.1 692.304 C 3825.6 692.004 3820.9 689.604 3815.5 685.204 C 3812.7 683.004 3809.8 680.304 3807 676.804 C 3804.3 673.304 3801.5 668.804 3800.4 662.804 C 3800.1 661.004 3800.1 659.104 3800.4 657.304 L 3806.4 625.804 C 3807.9 617.704 3815.6 612.304 3823.7 613.604 C 3831.8 614.804 3837.5 622.304 3836.5 630.404 C 3835.1 643.204 3828.9 654.604 3820.2 662.704 C 3807.1 675.104 3789.8 681.704 3770.8 685.904 C 3751.7 690.004 3730.7 691.504 3709.7 691.504 C 3686.4 691.504 3663.2 689.704 3643.4 687.104 C 3623.6 684.604 3607.5 681.404 3597.2 678.504 L 3597.2 678.504 C 3592.5 677.104 3587.7 675.004 3582.7 672.304 C 3577.9 669.604 3572.9 666.304 3568.1 662.404 L 3587.3 638.804 C 3590.5 641.404 3594.1 643.704 3597.4 645.604 C 3600.7 647.404 3603.8 648.704 3605.6 649.204 C 3613.1 651.404 3628.6 654.504 3647.3 656.804 C 3665.9 659.204 3687.9 660.904 3709.7 660.904 C 3735.7 660.904 3761.2 658.204 3779.1 651.904 C 3788 648.704 3794.9 644.804 3799.2 640.604 C 3803.5 636.404 3805.6 632.404 3806.3 626.704 L 3821.4 628.504 L 3836.3 631.304 L 3830.3 662.804 L 3815.3 659.904 L 3830.3 657.204 L 3827.6 657.704 L 3830.2 656.804 L 3830.3 657.204 L 3827.6 657.704 L 3830.2 656.804 L 3829.4 657.104 L 3830.2 656.804 L 3830.3 656.804 L 3829.5 657.104 L 3830.3 656.804 C 3830.3 656.804 3830.7 657.604 3831.7 658.604 C 3833.1 660.104 3835.5 662.004 3837.4 663.304 C 3838.4 663.904 3839.2 664.404 3839.7 664.804 L 3840.3 665.104 L 3840.4 665.204 L 3837.7 670.204 L 3840.4 665.204 L 3840.4 665.204 L 3837.7 670.204 L 3840.4 665.204 L 3833.3 678.704 L 3834.4 663.504 L 3943.4 671.104 L 3942.3 686.304 L 3938.5 671.504 C 3941.8 670.704 3943.6 669.604 3944.9 668.604 C 3946.7 667.204 3947.4 665.904 3948 664.504 C 3948.5 663.104 3948.6 661.604 3948.6 661.304 L 3948.6 661.204 L 3954.7 661.104 L 3948.6 661.704 L 3948.6 661.304 L 3954.7 661.204 L 3948.6 661.804 L 3948.6 659.504 L 3967.2 355.304 L 3982.4 356.204 L 3967.4 358.604 C 3966.6 353.504 3965.1 350.304 3963.3 347.804 C 3960.8 344.104 3957.4 342.004 3954.2 340.604 C 3952.6 339.904 3951.1 339.504 3950.1 339.204 L 3948.9 339.004 L 3948.6 339.004 L 3949 335.904 L 3948.7 339.004 L 3948.6 339.004 L 3949 335.904 L 3948.7 339.004 L 3948.8 339.004 C 3937.8 338.104 3904.5 335.804 3874.1 333.604 C 3843.7 331.404 3816.1 329.504 3816 329.504 L 3817.1 314.304 L 3816.9 329.504 L 3816.7 329.504 C 3813.3 329.504 3811.5 330.304 3809.8 331.304 C 3807.3 332.804 3805 336.004 3803.6 339.204 C 3802.9 340.804 3802.4 342.304 3802.1 343.204 L 3801.8 344.304 L 3801.8 344.504 L 3795 343.104 L 3801.8 344.404 L 3801.8 344.604 L 3795 343.204 L 3801.8 344.504 L 3786.8 341.704 L 3802 343.104 L 3794.7 425.004 L 3779.5 423.704 L 3792.8 416.104 C 3796.2 422.004 3799 424.004 3800.3 424.804 L 3801.1 425.204 L 3801.3 425.304 L 3800.6 427.604 L 3801 425.204 L 3801.3 425.304 L 3800.6 427.604 L 3801 425.204 L 3799.2 435.204 L 3799.9 425.104 L 3801 425.204 L 3799.2 435.204 L 3799.9 425.104 L 3800.1 425.104 L 3820.6 426.704 C 3828.6 427.304 3834.6 434.004 3834.6 441.904 C 3834.6 456.004 3833.5 467.804 3831.2 478.004 C 3829.4 485.704 3826.8 492.504 3823.1 498.404 C 3817.5 507.404 3808.9 514.004 3799.7 517.304 C 3790.4 520.704 3780.8 521.504 3770.7 521.504 C 3760.5 521.504 3749.6 520.604 3737.7 519.604 L 3738.9 504.404 L 3740.4 519.604 C 3740 519.604 3739 519.704 3737.7 519.704 C 3734.7 519.704 3730 519.404 3724 517.504 C 3715.3 514.804 3704.2 508.004 3696.3 495.004 C 3688.3 482.104 3683.5 464.104 3683.5 438.804 C 3683.5 433.504 3683.8 427.904 3684.2 421.904 C 3686.9 386.504 3689.9 342.804 3692.3 307.904 C 3693.5 290.504 3694.5 275.304 3695.3 264.404 C 3696 253.504 3696.5 247.104 3696.5 247.104 L 3696.5 247.104 C 3698.1 224.204 3703.1 204.904 3714.8 190.004 C 3720.6 182.704 3728.2 176.704 3736.8 173.004 C 3745.5 169.204 3755.2 167.504 3765.6 167.504 C 3767.6 167.504 3769.5 167.604 3771.5 167.704 C 3787.9 168.804 3803 168.504 3817.7 173.204 C 3825 175.604 3832.4 179.704 3838.1 186.404 C 3843.7 193.004 3847.2 201.504 3848.7 211.004 L 3848.9 213.104 L 3849.8 256.504 L 3849.8 258.004 L 3842.8 257.504 L 3849.8 257.504 L 3849.8 258.004 L 3842.8 257.504 L 3849.8 257.504 L 3844.8 257.504 L 3849.5 255.704 L 3849.8 257.504 L 3844.8 257.504 L 3849.5 255.704 L 3848 256.304 L 3849.4 255.604 L 3849.5 255.804 L 3848 256.404 L 3849.4 255.704 C 3849.3 255.804 3851.5 258.304 3853.9 259.904 C 3855.1 260.704 3856.2 261.504 3857 261.904 L 3857.9 262.404 L 3858 262.504 L 3856.1 266.104 L 3858 262.504 L 3858 262.504 L 3856.1 266.104 L 3858 262.504 L 3851 276.004 L 3853.3 261.004 C 3853.3 261.004 3854.2 261.104 3855.8 261.404 C 3861.5 262.204 3876.4 264.304 3893.6 266.204 C 3910.7 268.104 3930.3 269.704 3944.7 269.604 C 3948.7 269.604 3952.3 269.504 3955.2 269.204 C 3958.1 269.004 3960.3 268.604 3961 268.304 C 3968.8 266.004 3972.4 262.104 3974.9 258.504 C 3976.1 256.704 3976.9 255.004 3977.3 253.904 L 3977.7 252.704 L 3977.7 252.604 L 3985.7 254.504 L 3977.6 252.904 L 3977.7 252.604 L 3985.7 254.504 L 3977.6 252.904 L 3992.5 255.904 L 3977.5 253.204 L 3977.5 253.104 C 3977.8 251.204 3981.2 230.804 3981.2 203.704 C 3981.3 173.604 3976.9 135.304 3960.9 105.204 C 3953 90.104 3942.4 77.004 3928 67.004 C 3913.7 57.004 3895.4 49.904 3870.9 47.704 C 3824.1 43.404 3785.2 41.304 3758 40.204 C 3744.3 39.704 3733.7 39.404 3726.5 39.304 C 3722.9 39.204 3720.1 39.204 3718.3 39.204 C 3716.4 39.204 3715.6 39.204 3715.6 39.204 L 3715.2 39.204 C 3710.2 39.004 3705.4 39.004 3700.9 39.004 C 3688 39.004 3677 39.704 3667.5 41.204 C 3653.3 43.604 3642.4 47.804 3631.9 55.404 C 3621.3 63.004 3610.9 74.604 3599.3 92.104 L 3599.3 92.104 C 3598.7 93.004 3597.2 96.004 3595.7 100.504 C 3594.3 104.904 3592.6 110.804 3591.1 117.604 L 3561.2 109.804" style="fill: rgb(20, 20, 20);"/>
  <path class="B" d="M 1935.4 186.304 C 1972.1 281.404 2016.8 394.504 2016.8 394.504 L 2007.9 648.404 C 2007.9 648.404 2010.6 669.704 2037.5 672.604 C 2073.6 676.404 2127 675.704 2127 675.704 C 2127 675.704 2154 682.204 2155 651.904 C 2155.6 636.004 2163.9 399.104 2163.9 399.104 L 2316.8 76.104 C 2316.8 76.104 2322.8 43.804 2295.7 42.904 C 2268.5 42.004 2194.5 38.304 2194.5 38.304 C 2194.5 38.304 2179.4 32.604 2166.5 62.404 C 2154.6 89.904 2098.9 228.804 2098.9 228.804 L 2051.9 58.404 C 2037.2 29.704 2035.7 32.704 2008.6 31.804 C 1992.4 31.204 1963.5 30.504 1939.9 30.904" style="fill: rgb(255, 255, 255);"/>
  <path class="C" d="M 1949.7 180.804 C 1968 228.304 1988.3 280.304 2004.1 320.404 C 2012 340.504 2018.7 357.604 2023.5 369.604 C 2028.3 381.704 2031.1 388.704 2031.1 388.704 C 2031.9 390.704 2032.2 392.704 2032.2 394.804 L 2023.3 648.704 L 2008.1 648.104 L 2023.2 646.204 L 2014 647.404 L 2023.1 645.804 L 2023.2 646.204 L 2014 647.404 L 2023.1 645.804 L 2021.2 646.104 L 2023.1 645.704 L 2023.1 645.804 L 2021.2 646.104 L 2023.1 645.704 C 2023.1 645.804 2023.8 648.604 2025.8 651.004 C 2026.8 652.204 2028.1 653.404 2030.1 654.504 C 2032.2 655.604 2035 656.604 2039.3 657.104 C 2064.9 659.804 2101.2 660.204 2117.8 660.204 C 2123.6 660.204 2127 660.204 2127 660.204 C 2128.2 660.204 2129.5 660.304 2130.7 660.604 L 2129.5 665.504 L 2130.5 660.504 L 2130.7 660.604 L 2129.5 665.504 L 2130.5 660.504 C 2130.6 660.604 2131.7 660.704 2133 660.704 C 2135.1 660.704 2137 660.104 2137.5 659.604 C 2137.8 659.304 2138.1 659.104 2138.6 658.004 C 2139.1 656.904 2139.8 654.704 2139.8 651.004 L 2139.8 651.004 C 2140.1 643.104 2142.3 579.904 2144.5 518.604 C 2146.6 457.404 2148.7 398.104 2148.7 398.104 C 2148.8 396.104 2149.3 394.004 2150.1 392.104 L 2303 69.004 L 2316.8 75.504 L 2301.9 72.704 L 2308.4 73.904 L 2301.9 72.804 L 2301.9 73.104 L 2308.4 74.304 L 2301.9 73.204 C 2301.9 73.204 2302.2 71.104 2302.2 68.604 C 2302.3 65.304 2301.4 61.404 2300.5 60.004 L 2299.3 58.704 C 2298.8 58.404 2297.8 57.904 2295.1 57.804 C 2267.7 56.804 2193.7 53.104 2193.7 53.104 C 2192.1 53.004 2190.6 52.704 2189.1 52.104 L 2191.3 46.104 L 2191.3 52.604 C 2191 52.604 2190.4 52.604 2189.1 52.104 L 2191.3 46.104 L 2191.3 52.604 L 2191.3 51.404 L 2191.5 52.604 L 2191.3 52.604 L 2191.3 51.404 L 2191.5 52.604 L 2191.1 52.804 C 2190.5 53.104 2189.2 53.804 2187.4 56.004 C 2185.5 58.204 2183 62.004 2180.4 68.004 C 2174.6 81.304 2157.7 123.104 2142.3 161.204 C 2134.6 180.304 2127.2 198.504 2121.8 212.004 C 2116.4 225.504 2112.9 234.104 2112.9 234.104 C 2110.4 240.204 2104.4 244.004 2097.9 243.604 C 2091.4 243.204 2085.8 238.704 2084.1 232.404 L 2037.1 61.904 L 2051.8 57.904 L 2038.3 64.804 C 2034.7 57.804 2032.1 53.104 2030.2 50.504 C 2028.8 48.504 2028.1 47.904 2027.9 47.704 L 2027.5 47.504 C 2027.1 47.304 2025.2 47.004 2021.9 46.804 C 2018.6 46.604 2013.9 46.604 2008 46.404 C 1995 45.904 1973.9 45.304 1954.1 45.304 C 1949.3 45.304 1944.6 45.304 1940.2 45.404 L 1939.7 14.904 C 1944.4 14.804 1949.2 14.804 1954.2 14.804 C 1974.6 14.804 1996 15.404 2009.2 15.904 C 2015.7 16.104 2020.9 16.104 2025.9 16.504 C 2029.7 16.804 2033.7 17.304 2037.9 18.804 C 2041.1 19.904 2044.2 21.704 2047 23.804 C 2051.1 27.104 2054.2 31.004 2056.9 35.304 C 2059.7 39.604 2062.4 44.604 2065.6 50.804 C 2066.1 51.804 2066.5 52.604 2066.7 53.704 L 2113.7 224.204 L 2099 228.204 L 2084.9 222.604 C 2084.9 222.604 2098.8 187.804 2114.2 149.604 C 2129.7 111.404 2146.5 69.904 2152.6 55.704 C 2158 43.304 2164.2 34.904 2171.3 29.404 C 2178.3 23.904 2186 21.904 2191.5 22.004 C 2195.7 22.004 2198.6 22.904 2199.9 23.404 L 2194.5 37.704 L 2195.3 22.504 C 2195.3 22.504 2213.8 23.404 2235.7 24.504 C 2257.6 25.504 2282.9 26.704 2296.3 27.204 C 2303.1 27.404 2309.5 29.104 2314.8 32.204 C 2318.8 34.504 2322.1 37.604 2324.6 40.904 C 2328.3 45.804 2330.2 51.104 2331.4 55.704 C 2332.5 60.404 2332.8 64.704 2332.8 68.204 C 2332.8 73.804 2332.1 77.604 2332 78.304 C 2331.7 79.504 2331.3 80.904 2330.8 82.004 L 2177.9 405.004 L 2164.2 398.504 L 2179.4 399.004 C 2179.4 399.004 2171.2 636.004 2170.6 651.904 C 2170.3 658.804 2169.1 665.004 2166.6 670.404 C 2163 678.604 2156.4 684.504 2150 687.404 C 2143.6 690.404 2137.7 690.904 2133.2 691.004 C 2128 691.004 2124.6 690.204 2123.8 690.004 L 2127.4 675.204 L 2127.6 690.404 C 2127.6 690.404 2124 690.404 2118 690.404 C 2100.8 690.404 2064.3 690.104 2036.3 687.104 C 2027.6 686.204 2020.2 683.704 2014.1 680.104 C 2005 674.704 1999.7 667.304 1996.8 661.404 C 1993.9 655.404 1993.2 650.904 1993.1 649.804 L 1993 647.304 L 2001.9 393.404 L 2017.1 393.904 L 2002.9 399.504 C 2002.9 399.504 1958.1 286.404 1921.5 191.204 L 1949.7 180.804" style="fill: rgb(20, 20, 20);"/>
  <path class="B" d="M 1598.4 215.104 C 1612.7 394.904 1637.4 662.604 1637.4 662.604 C 1643.6 672.004 1653.8 680.504 1669.9 679.304 C 1704.3 676.904 1965.6 658.604 1965.6 658.604 C 1965.6 658.604 1991.2 654.104 1989.1 623.904 C 1988.5 615.804 1987.5 547.904 1980 509.704 L 1955.8 492.804 L 1778.6 503.704 L 1772.7 420.204 L 1918.1 410.504 C 1918.1 410.504 1946.3 414.604 1950.7 375.104 L 1944.7 293.004 C 1933.5 260.804 1913.8 270.904 1913.8 270.904 L 1763.1 281.104 L 1757.5 200.904 C 1757.5 200.904 1906.4 192.504 1929.5 188.804 C 1956.9 184.804 1950.8 181.104 1956.4 155.904 C 1951.5 85.604 1948.9 48.204 1948.9 48.204 C 1948.9 48.204 1942.5 19.204 1916.8 21.004 C 1895.7 22.504 1632.4 36.404 1614.3 36.404 C 1602.1 44.604 1597 39.504 1592.9 45.604" style="fill: rgb(255, 255, 255);"/>
  <path class="C" d="M 1613.6 213.804 C 1620.7 303.604 1630.5 415.504 1638.5 504.804 C 1642.5 549.504 1646 588.604 1648.6 616.504 C 1651.1 644.404 1652.7 661.104 1652.7 661.104 L 1637.5 662.504 L 1650.2 654.104 C 1652.3 657.204 1654.7 659.804 1657.3 661.404 C 1660 663.104 1662.8 664.104 1667.2 664.104 L 1669 664.004 C 1703.3 661.604 1964.7 643.304 1964.7 643.304 L 1965.7 658.504 L 1963 643.504 L 1964.4 651.304 L 1962.8 643.604 L 1963 643.504 L 1964.4 651.304 L 1962.8 643.604 L 1963.3 643.404 C 1964.6 643.004 1967.8 641.704 1969.8 639.504 C 1970.9 638.404 1971.8 637.204 1972.6 635.304 C 1973.4 633.504 1974 631.004 1974 627.204 L 1973.9 624.804 L 1973.9 624.804 C 1973.8 623.304 1973.8 621.404 1973.6 618.704 C 1973.3 609.104 1972.7 590.604 1971.4 570.304 C 1970.1 550.004 1968 528.004 1965 512.604 L 1980 509.604 L 1971.2 522.104 L 1947 505.304 L 1955.8 492.804 L 1956.7 508.004 L 1779.6 518.904 C 1771.2 519.404 1764 513.104 1763.5 504.804 L 1757.7 421.304 C 1757.4 417.204 1758.7 413.304 1761.4 410.204 C 1764.1 407.104 1767.8 405.304 1771.9 405.004 L 1917.3 395.204 C 1918.4 395.204 1919.5 395.204 1920.5 395.304 L 1919.6 401.404 L 1920.1 395.304 L 1920.4 395.304 L 1919.5 401.404 L 1920 395.304 L 1920.4 395.304 C 1921.8 395.304 1925 395.004 1927.6 392.904 C 1928.9 391.904 1930.4 390.304 1931.9 387.404 C 1933.4 384.404 1934.9 380.004 1935.6 373.304 L 1950.8 375.004 L 1935.6 376.104 L 1929.7 294.004 L 1944.9 292.904 L 1930.6 297.904 C 1927.8 289.804 1924.9 286.604 1923.5 285.504 C 1922 284.404 1921.8 284.604 1921.3 284.504 L 1920.4 284.604 L 1920.3 284.604 L 1918.4 279.204 L 1921 284.304 L 1920.3 284.604 L 1918.4 279.204 L 1921 284.304 C 1919.2 285.204 1917.1 285.804 1915.1 285.904 L 1764.1 296.204 C 1755.7 296.804 1748.5 290.504 1747.9 282.004 L 1742.3 201.804 C 1742 197.704 1743.3 193.704 1746 190.604 C 1748.7 187.604 1752.5 185.704 1756.6 185.504 C 1756.6 185.504 1765.9 185.004 1780.2 184.104 C 1801.7 182.804 1834.4 180.904 1863.8 178.804 C 1878.5 177.804 1892.5 176.804 1903.7 175.904 C 1914.9 175.004 1923.7 174.104 1926.9 173.504 L 1927.1 173.504 C 1933.5 172.604 1937.5 171.604 1938.8 171.104 L 1939.2 170.904 L 1939.2 170.904 L 1941.3 174.704 L 1937.6 172.504 L 1939.1 170.904 L 1941.2 174.704 L 1937.5 172.504 L 1939.8 173.904 L 1937.3 172.904 L 1937.5 172.504 L 1939.8 173.904 L 1937.3 172.904 C 1937.3 172.904 1937.5 172.404 1937.7 171.504 C 1938.4 168.604 1939.1 161.704 1941.1 152.504 L 1956 155.804 L 1940.8 156.904 C 1938.4 121.804 1936.5 94.804 1935.2 76.704 C 1933.9 58.604 1933.2 49.204 1933.2 49.204 L 1948.4 48.104 L 1933.5 51.404 L 1942.5 49.504 L 1933.5 51.604 L 1933.5 51.504 L 1942.5 49.604 L 1933.5 51.704 L 1933.5 51.604 C 1933.3 50.604 1931.6 45.604 1928.9 42.004 C 1927.6 40.104 1926 38.704 1924.5 37.804 C 1923 36.904 1921.3 36.304 1918.6 36.304 L 1917.4 36.304 C 1911.8 36.704 1891.6 37.804 1863.5 39.304 C 1821.6 41.604 1762.7 44.704 1712.7 47.204 C 1687.7 48.404 1664.8 49.604 1647.4 50.404 C 1638.6 50.804 1631.3 51.104 1625.6 51.404 C 1619.9 51.604 1616.1 51.804 1613.9 51.804 L 1613.9 36.404 L 1622.3 49.104 C 1618.2 51.804 1614.3 53.704 1610.8 54.904 C 1605.6 56.704 1601.3 57.004 1600.8 57.104 L 1600.8 57.104 L 1599.3 50.404 L 1602.9 56.104 C 1601.8 56.804 1600.8 57.104 1600.8 57.104 L 1599.3 50.404 L 1602.9 56.104 L 1598.9 49.904 L 1605.1 54.004 C 1604.9 54.404 1604 55.404 1602.9 56.104 L 1598.9 49.904 L 1605.1 54.004 L 1580.2 37.104 C 1581.4 35.404 1582.9 33.504 1584.7 32.104 C 1587.9 29.404 1591.7 28.004 1594.1 27.404 C 1597.9 26.604 1599.3 26.604 1600.5 26.204 C 1601.7 25.904 1603.1 25.404 1605.7 23.704 C 1608.2 22.104 1611.2 21.104 1614.2 21.104 C 1615.7 21.104 1622 20.904 1630.8 20.504 C 1662.1 19.204 1728.8 15.804 1789.9 12.604 C 1820.5 11.004 1849.6 9.404 1872.3 8.204 C 1894.9 6.904 1911.3 6.004 1915.6 5.704 C 1916.7 5.604 1917.9 5.604 1918.9 5.604 C 1927.8 5.604 1935.9 8.304 1942 12.404 C 1951.2 18.504 1956.3 26.604 1959.3 32.904 C 1962.4 39.204 1963.4 44.104 1963.6 44.904 L 1963.9 47.104 C 1963.9 47.104 1966.5 84.504 1971.5 154.804 C 1971.6 156.204 1971.5 157.804 1971.1 159.304 C 1969.8 164.904 1969.2 169.304 1968.5 173.604 C 1968 176.804 1967.4 180.004 1966 183.904 C 1964.9 186.804 1963.1 190.004 1960.5 192.704 C 1958.6 194.704 1956.3 196.404 1954 197.704 C 1950.6 199.604 1947.1 200.704 1943.5 201.604 C 1939.9 202.504 1936 203.204 1931.3 203.804 L 1929.1 188.704 L 1931.5 203.704 C 1927.9 204.304 1923 204.804 1916.5 205.404 C 1871.9 209.504 1758.1 215.904 1758 215.904 L 1757.1 200.704 L 1772.3 199.704 L 1777.9 279.904 L 1762.7 281.004 L 1761.7 265.804 L 1912.7 255.504 L 1913.7 270.704 L 1906.7 257.104 C 1908 256.504 1913 253.904 1920.9 253.904 C 1927.1 253.804 1935.3 255.904 1942.3 261.704 C 1949.4 267.404 1954.9 276.004 1959 287.704 C 1959.5 288.904 1959.7 290.404 1959.8 291.604 L 1965.8 373.704 L 1965.8 376.504 C 1964.7 386.204 1962.4 394.304 1958.9 401.104 C 1953.7 411.304 1945.8 418.104 1938.4 421.504 C 1931 425.004 1924.3 425.604 1920.2 425.604 C 1918 425.604 1916.4 425.404 1915.8 425.304 L 1918 410.204 L 1919 425.404 L 1773.7 435.104 L 1772.6 419.904 L 1787.8 418.904 L 1793.7 502.404 L 1778.5 503.504 L 1777.5 488.304 L 1954.7 477.404 C 1958.2 477.204 1961.5 478.104 1964.4 480.104 L 1988.5 497.004 C 1991.8 499.304 1994 502.604 1994.7 506.504 C 1998.8 527.104 2000.9 553.904 2002.2 577.004 C 2002.8 588.504 2003.2 599.104 2003.5 607.204 C 2003.6 611.304 2003.7 614.804 2003.9 617.504 C 2004 620.104 2004.1 622.104 2004.1 622.604 L 2004.1 622.604 C 2004.2 624.104 2004.3 625.604 2004.3 627.104 C 2004.3 636.104 2002.3 644.104 1998.8 650.504 C 1993.6 660.204 1986 666.004 1980 669.104 C 1973.9 672.304 1969.1 673.104 1968.1 673.304 L 1966.6 673.504 C 1966.6 673.504 1901.3 678.104 1831.6 682.904 C 1761.9 687.804 1688.1 692.904 1670.9 694.104 C 1669.6 694.204 1668.3 694.204 1667 694.204 C 1656.9 694.204 1647.8 691.304 1640.7 686.704 C 1633.5 682.104 1628.4 676.304 1624.6 670.604 C 1623.2 668.504 1622.3 666.104 1622.1 663.604 C 1622.1 663.604 1597.4 395.904 1583.1 215.904 L 1613.6 213.804" style="fill: rgb(20, 20, 20);"/>
  <path class="B" d="M 1246.1 652.004 C 1280.3 655.604 1339.2 663.504 1339.2 663.504 C 1339.2 663.504 1368.8 663.904 1372.4 629.504 C 1376 595.104 1390.4 458.504 1390.4 458.504 L 1459.5 651.704 C 1472.4 674.804 1475 677.804 1511 681.504 C 1547.1 685.304 1598.2 690.704 1598.2 690.704 C 1598.2 690.704 1625.5 690.904 1628.7 660.804 C 1630.2 646.404 1564 492.704 1510.8 365.004 C 1600.4 225.404 1669.3 88.504 1669.3 88.504 C 1669.3 88.504 1675.4 61.004 1648.3 53.004 C 1622.2 45.304 1558.5 43.604 1558.5 43.604 C 1558.5 43.604 1537.1 37.904 1518.6 64.604 C 1491.1 104.204 1413.5 237.704 1413.5 237.704 L 1431.3 55.404 C 1432.6 42.004 1428.5 32.504 1413.7 30.104 L 1293.6 15.804 C 1293.6 15.804 1275 19.504 1273.2 36.704 C 1273.2 36.704 1258.1 168.304 1242.8 307.604" style="fill: rgb(255, 255, 255);"/>
  <path class="C" d="M 1247.7 636.804 C 1282.3 640.404 1341.1 648.304 1341.2 648.304 L 1339.2 663.404 L 1339.4 648.204 L 1339.2 660.204 L 1339.2 648.204 L 1339.4 648.204 L 1339.2 660.204 L 1339.2 648.204 L 1339.2 653.104 L 1339.1 648.204 L 1339.2 648.204 L 1339.2 653.104 L 1339.1 648.204 L 1339.9 648.104 C 1341.8 647.904 1346.1 647.004 1349.3 644.504 C 1351 643.204 1352.5 641.704 1353.9 639.204 C 1355.3 636.704 1356.6 633.204 1357.1 627.804 C 1360.8 593.404 1375.1 456.904 1375.1 456.904 C 1375.8 449.804 1381.4 444.204 1388.4 443.404 C 1395.5 442.504 1402.2 446.704 1404.6 453.404 L 1473.7 646.504 L 1459.3 651.604 L 1472.6 644.204 C 1475.8 649.904 1478.2 654.004 1480 656.504 C 1481.4 658.404 1482.4 659.404 1483.3 660.104 C 1484.7 661.104 1486.3 662.104 1490.9 663.204 C 1495.4 664.304 1502.4 665.304 1512.3 666.304 C 1548.3 670.104 1599.5 675.504 1599.5 675.504 L 1597.9 690.704 L 1598 675.404 L 1597.9 689.504 L 1597.9 675.404 L 1598 675.404 L 1597.9 689.504 L 1597.9 675.404 L 1597.9 679.804 L 1597.7 675.404 L 1597.9 675.404 L 1597.9 679.804 L 1597.7 675.404 C 1598 675.504 1602.5 675.004 1605.7 673.004 C 1607.4 672.004 1608.8 670.804 1610.1 668.804 C 1611.4 666.804 1612.6 664.004 1613.2 659.104 L 1623.2 660.204 L 1613.1 660.204 L 1613.2 659.104 L 1623.2 660.204 L 1613.1 660.204 L 1618.7 660.204 L 1613.2 660.704 L 1613.1 660.204 L 1618.7 660.204 L 1613.2 660.704 L 1613.1 660.504 C 1612.9 659.304 1611.8 654.504 1609.6 648.204 C 1602.3 626.104 1585 583.104 1564.2 532.804 C 1543.3 482.404 1518.7 424.304 1496.3 370.704 C 1494.4 366.104 1494.9 360.804 1497.6 356.604 C 1542.1 287.204 1581.6 218.404 1609.9 166.904 C 1624.1 141.204 1635.4 119.804 1643.3 104.904 C 1647.2 97.404 1650.2 91.604 1652.2 87.604 C 1654.3 83.604 1655.3 81.504 1655.3 81.504 L 1668.9 88.304 L 1654 85.004 L 1662.9 86.904 L 1654 85.104 L 1654 84.904 L 1662.9 86.804 L 1654 85.004 L 1654 84.804 C 1654.1 84.304 1654.2 83.104 1654.2 81.504 C 1654.2 78.804 1653.6 75.504 1652.4 73.204 C 1651.7 72.104 1650.9 71.104 1649.7 70.004 C 1648.4 69.004 1646.6 68.004 1643.6 67.004 C 1638.5 65.504 1630.1 64.004 1621 62.804 C 1607.1 61.004 1591.1 59.804 1578.8 59.104 C 1572.6 58.704 1567.3 58.504 1563.6 58.304 C 1559.9 58.204 1557.7 58.104 1557.7 58.104 C 1556.6 58.104 1555.3 57.904 1554.2 57.604 L 1556.4 49.204 L 1554.6 57.804 L 1554.1 57.704 L 1556.3 49.304 L 1554.5 57.904 L 1554.8 56.604 L 1554.5 57.904 L 1554.5 57.904 L 1554.8 56.604 L 1554.5 57.904 C 1554.5 57.904 1553.9 57.804 1552.9 57.804 C 1551 57.804 1548 58.104 1544.3 60.004 C 1540.5 61.904 1535.8 65.304 1530.5 72.804 C 1524 82.204 1514 97.904 1502.9 115.904 C 1486.3 142.904 1467.1 175.104 1452 200.604 C 1444.5 213.404 1438 224.404 1433.4 232.304 C 1428.8 240.204 1426.1 244.804 1426.1 244.804 C 1422.5 251.004 1415.1 253.804 1408.3 251.604 C 1401.5 249.404 1397.1 242.804 1397.8 235.704 L 1415.5 53.404 L 1415.5 53.404 C 1415.6 52.304 1415.7 51.304 1415.7 50.504 C 1415.7 48.804 1415.5 47.604 1415.4 46.904 C 1415 45.904 1415 46.104 1414.9 45.904 C 1414.7 45.804 1413.7 45.004 1410.7 44.504 L 1413.2 29.504 L 1411.4 44.604 L 1291.3 30.304 L 1293.1 15.204 L 1296.1 30.104 L 1294.6 22.504 L 1296.3 30.104 L 1296.1 30.204 L 1294.6 22.604 L 1296.3 30.204 C 1296.3 30.204 1295.6 30.404 1294.6 30.804 C 1293.1 31.404 1291 32.504 1289.9 33.704 C 1288.7 34.904 1288.2 35.704 1287.9 37.904 L 1287.9 38.004 C 1287.9 38.004 1287 46.204 1285.3 60.704 C 1280.3 104.204 1268.9 204.404 1257.5 308.804 L 1227.2 305.504 C 1242.5 166.104 1257.6 34.504 1257.6 34.504 L 1272.7 36.204 L 1257.5 34.604 C 1258.2 27.604 1260.9 21.404 1264.3 16.704 C 1269.5 9.604 1275.8 5.804 1280.7 3.504 C 1285.6 1.204 1289.3 0.504 1290.1 0.304 C 1291.6 0.004 1293.3 -0.096 1294.9 0.104 L 1416 15.004 C 1420.5 15.704 1424.9 17.104 1428.9 19.204 C 1434.9 22.304 1440 27.504 1442.7 33.404 C 1445.6 39.204 1446.5 45.304 1446.5 51.004 C 1446.5 52.904 1446.4 54.904 1446.2 56.804 L 1446.2 56.804 L 1428.5 239.104 L 1413.3 237.604 L 1400.1 229.904 C 1400.1 229.904 1419.5 196.504 1442.4 158.104 C 1453.8 138.904 1466.1 118.504 1477.4 100.304 C 1488.6 82.104 1498.7 66.204 1506 55.804 C 1513.8 44.504 1522.7 37.204 1531.3 33.004 C 1539.8 28.804 1547.8 27.704 1553.4 27.704 C 1558.1 27.704 1561.3 28.404 1562.3 28.704 L 1558.4 43.404 L 1558.8 28.204 C 1559 28.204 1575.1 28.704 1594.7 30.104 C 1604.5 30.804 1615.1 31.704 1625.2 33.104 C 1635.3 34.404 1644.6 36.004 1652.5 38.304 C 1658.9 40.104 1664.4 43.004 1668.9 46.604 C 1675.8 52.004 1680 58.904 1682.2 65.204 C 1684.5 71.504 1685 77.404 1685 81.904 C 1685 87.304 1684.2 91.004 1684.1 91.804 C 1683.8 93.104 1683.4 94.204 1682.8 95.404 C 1682.7 95.704 1613.6 232.804 1523.5 373.304 L 1510.7 365.104 L 1524.8 359.204 C 1551.1 422.304 1580.6 491.804 1603.5 547.804 C 1615 575.804 1624.9 600.404 1631.9 619.304 C 1635.4 628.804 1638.2 636.804 1640.3 643.304 C 1641.3 646.604 1642.2 649.404 1642.8 652.004 C 1643.4 654.704 1643.9 656.904 1643.9 660.304 L 1643.8 662.404 C 1642.8 672.104 1639.7 680.404 1635.1 686.804 C 1628.3 696.504 1619 701.404 1611.9 703.604 C 1604.8 705.904 1599.4 705.904 1598.2 706.004 L 1598 706.004 L 1596.6 705.904 C 1596.6 705.904 1583.8 704.604 1566.5 702.704 C 1549.2 700.904 1527.4 698.604 1509.4 696.704 C 1500.2 695.704 1492.9 694.804 1486.4 693.404 C 1481.5 692.404 1477.1 691.004 1472.8 689.104 C 1466.4 686.204 1460.9 681.404 1456.9 676.304 C 1452.9 671.104 1449.9 665.704 1446.2 659.104 L 1445.2 656.804 L 1376 463.704 L 1390.4 458.604 L 1405.5 460.204 C 1405.5 460.204 1404.6 468.704 1403.2 482.104 C 1399 522.104 1390.2 605.404 1387.5 631.204 C 1386.4 641.704 1383.2 650.604 1378.6 657.504 C 1371.6 668.004 1361.9 673.504 1354.3 676.104 C 1346.7 678.704 1340.9 678.804 1339.2 678.804 L 1339 678.804 L 1337.2 678.704 C 1337.2 678.704 1322.6 676.704 1303.6 674.304 C 1284.7 671.904 1261.4 669.004 1244.6 667.204 L 1247.7 636.804" style="fill: rgb(20, 20, 20);"/>
  <path class="B" d="M 836.6 596.904 L 838 623.204 L 841.7 651.704 C 841.7 651.704 844.1 680.804 877.8 680.204 C 914 679.704 972.3 674.104 972.3 674.104 C 972.3 674.104 1001.5 669.804 999.8 635.304 C 998 600.704 994.1 527.304 994.1 527.304 L 1050.2 645.604 C 1066.5 666.404 1069.6 668.904 1105.7 667.004 C 1141.9 665.104 1232.3 660.404 1232.3 660.404 C 1232.3 660.404 1259.3 656.304 1257.7 626.104 C 1256.1 595.904 1227.5 49.804 1227.5 49.804 C 1227.5 49.804 1221.5 20.704 1194.3 22.104 C 1167.2 23.504 1099.9 27.004 1099.9 27.004 C 1099.9 27.004 1073.8 21.004 1074.1 53.504 C 1074.4 85.904 1080.8 180.904 1080.8 180.904 L 1019.3 56.404 C 1002.2 29.204 988.6 32.904 961.4 34.304 L 825.7 41.404 C 825.7 41.404 807.9 46.404 808.8 63.704 L 811.1 106.404" style="fill: rgb(255, 255, 255);"/>
  <path class="C" d="M 851.8 596.104 L 853.2 622.404 L 838 623.204 L 853.1 621.304 L 856.8 649.804 L 856.9 650.404 L 850.2 651.004 L 856.9 650.204 L 856.9 650.404 L 850.2 651.004 L 856.9 650.204 C 856.8 650.304 857.7 655.004 860.2 658.304 C 861.5 660.004 863 661.504 865.4 662.704 C 867.8 663.904 871.3 665.004 876.9 665.004 L 877.5 665.004 C 895 664.704 918.5 663.204 937.4 661.804 C 946.9 661.104 955.2 660.404 961.2 659.804 C 967.2 659.304 970.8 658.904 970.8 658.904 L 972.2 674.104 L 970 659.004 L 971 665.804 L 969.8 659.004 L 970.1 659.004 L 971.1 665.804 L 969.9 659.004 C 970 659.004 974.5 658.004 977.9 655.204 C 979.6 653.804 981.1 652.104 982.4 649.604 C 983.6 647.104 984.6 643.704 984.6 638.304 L 984.5 636.104 C 983.6 618.804 982.2 591.904 981 569.204 C 979.8 546.504 978.9 528.204 978.9 528.204 C 978.5 520.904 983.3 514.404 990.4 512.604 C 997.4 510.804 1004.8 514.204 1007.9 520.804 L 1064 639.104 L 1050.3 645.604 L 1062.2 636.204 C 1065.6 640.504 1068.2 643.704 1070.3 646.004 C 1073.5 649.404 1074.8 650.104 1076.7 650.904 C 1078.7 651.604 1082.6 652.304 1090 652.304 C 1094 652.304 1099 652.104 1104.9 651.804 C 1123 650.804 1154.7 649.204 1181.8 647.804 C 1208.9 646.404 1231.5 645.204 1231.5 645.204 L 1232.3 660.404 L 1230 645.304 L 1231.1 652.304 L 1229.8 645.404 L 1230 645.304 L 1231.1 652.304 L 1229.8 645.404 C 1229.8 645.404 1234 644.404 1236.9 642.104 C 1238.4 640.904 1239.7 639.504 1240.7 637.604 C 1241.7 635.604 1242.5 633.004 1242.6 628.604 L 1242.6 626.904 C 1241 596.704 1212.4 50.604 1212.4 50.604 L 1227.6 49.804 L 1212.7 52.904 L 1222 51.004 L 1212.8 53.104 L 1212.8 52.904 L 1222.1 51.004 L 1212.9 53.104 L 1212.8 52.904 C 1212.6 52.004 1211 46.904 1208.2 43.304 C 1206.8 41.504 1205.2 40.004 1203.5 39.004 C 1201.7 38.004 1199.8 37.404 1196.5 37.304 L 1195.4 37.304 C 1168.2 38.704 1101 42.204 1101 42.204 C 1099.6 42.304 1098.2 42.104 1096.8 41.804 L 1098.4 34.804 L 1097.1 41.904 L 1096.8 41.904 L 1098.4 34.904 L 1097.1 42.004 L 1095.5 41.904 L 1093 42.104 C 1092 42.504 1091.9 42.504 1091.3 43.204 C 1090.8 44.004 1089.4 46.404 1089.4 53.004 L 1089.4 53.404 C 1089.5 68.904 1091.2 100.804 1092.8 128.504 C 1093.6 142.404 1094.4 155.204 1095 164.604 C 1095.6 174.004 1096 179.904 1096 179.904 C 1096.5 187.204 1091.8 193.704 1084.8 195.604 C 1077.8 197.504 1070.4 194.204 1067.2 187.704 L 1005.6 63.204 L 1019.3 56.404 L 1006.4 64.504 C 1001.1 56.004 997.1 52.504 994.2 50.904 C 992.7 50.104 991.2 49.604 989.3 49.204 C 987.4 48.804 985 48.604 982 48.604 C 977 48.604 970.4 49.104 962.3 49.604 C 948.7 50.304 942 50.704 938.6 50.804 C 936.9 50.904 936.1 51.004 935.6 51.004 L 935.3 51.004 L 935.2 51.004 L 826.6 56.704 L 825.8 41.504 L 829.9 56.204 L 827.6 48.104 L 830.1 56.204 L 829.8 56.304 L 827.5 48.204 L 830 56.304 L 829.7 56.404 C 828.8 56.704 826.7 57.804 825.6 59.004 L 824.4 60.604 C 824.2 61.104 824 61.604 824 62.804 L 824 63.304 L 826.2 106.004 L 795.8 107.604 L 793.6 64.904 L 793.6 62.804 C 793.6 56.104 795.5 49.904 798.3 45.004 C 802.6 37.704 808.4 33.404 812.9 30.904 C 817.4 28.304 820.8 27.304 821.6 27.104 C 822.7 26.804 823.8 26.604 824.9 26.604 L 933.5 20.904 C 933.5 20.904 933.5 20.904 960.6 19.504 C 968.1 19.104 974.9 18.504 981.9 18.504 C 986.2 18.504 990.6 18.804 995.2 19.704 C 1002.1 21.004 1009.2 24.104 1015.4 29.104 C 1021.6 34.004 1026.9 40.504 1032.1 48.804 L 1032.8 50.104 L 1094.4 174.604 L 1080.7 181.304 L 1065.5 182.304 C 1065.5 182.304 1063.9 158.504 1062.3 130.704 C 1060.6 102.804 1059 71.004 1058.8 54.104 L 1058.8 54.104 L 1058.8 53.504 C 1058.8 46.204 1059.9 39.704 1062.1 34.004 C 1065.4 25.404 1071.8 18.904 1078.3 15.804 C 1084.8 12.504 1090.8 12.004 1095.2 11.904 C 1099.6 11.904 1102.5 12.504 1103.3 12.704 L 1099.9 27.504 L 1099.1 12.304 C 1099.1 12.304 1115.9 11.404 1136.1 10.304 C 1156.3 9.304 1179.9 8.004 1193.4 7.304 L 1196.1 7.204 C 1205.2 7.204 1213.5 9.804 1219.9 13.904 C 1229.5 20.004 1234.8 28.304 1238 34.804 C 1241.1 41.304 1242.2 46.304 1242.4 47.104 L 1242.7 49.404 C 1242.7 49.404 1249.9 185.904 1257.2 326.304 C 1264.6 466.604 1272.1 610.704 1272.9 625.804 C 1272.9 626.904 1273 628.004 1273 629.104 C 1273 638.404 1270.8 646.604 1267.1 653.304 C 1261.5 663.304 1253.3 668.904 1247 672.004 C 1240.5 675.104 1235.6 675.904 1234.6 676.004 L 1233.1 676.204 C 1233.1 676.204 1142.6 680.904 1106.4 682.804 C 1100.2 683.104 1094.8 683.304 1089.9 683.304 C 1083.9 683.304 1078.7 683.004 1073.5 682.004 C 1065.9 680.704 1058.5 677.104 1053 672.204 C 1047.4 667.404 1043.3 662.004 1038.1 655.504 C 1037.4 654.604 1036.8 653.604 1036.3 652.604 L 980.2 534.304 L 994 527.804 L 1009.2 527.004 C 1009.2 527.004 1013.1 600.404 1014.9 634.904 C 1015 636.204 1015 637.404 1015 638.704 C 1015 648.804 1012.7 657.704 1008.9 664.904 C 1003.2 675.704 994.4 681.904 987.7 685.204 C 980.8 688.504 975.5 689.304 974.4 689.504 L 973.7 689.604 C 973.4 689.604 915.2 695.204 877.9 695.804 L 876.8 695.804 C 866.4 695.804 857.3 693.404 850.1 689.404 C 839.1 683.404 833.1 674.204 830.1 667.004 C 827 659.804 826.5 654.304 826.4 653.204 L 841.6 651.904 L 826.5 653.804 L 822.8 625.304 L 822.8 624.204 L 821.4 597.904 L 851.8 596.104" style="fill: rgb(20, 20, 20);"/>
  <path class="B" d="M 3180.4 581.104 L 3182.2 616.404 L 3185.8 644.904 C 3185.8 644.904 3188.2 674.004 3221.9 673.504 C 3258.1 673.004 3316.5 667.404 3316.5 667.404 C 3316.5 667.404 3345.7 663.104 3343.9 628.604 C 3342.1 594.104 3338.2 520.704 3338.2 520.704 L 3394.3 639.004 C 3410.7 659.804 3413.7 662.304 3449.8 660.504 C 3486 658.604 3576.4 653.904 3576.4 653.904 C 3576.4 653.904 3601.8 649.804 3601.8 619.604 C 3601.8 588.804 3571.7 43.304 3571.7 43.304 C 3571.7 43.304 3565.6 14.204 3538.5 15.604 C 3511.3 17.004 3444.2 20.504 3444.2 20.504 C 3444.2 20.504 3418.1 14.504 3418.4 47.004 C 3418.7 79.404 3425.1 174.404 3425.1 174.404 L 3363.5 49.904 C 3346.4 22.604 3332.8 26.404 3305.6 27.804 L 3170 34.704 C 3170 34.704 3152.2 39.704 3153.1 57.004 L 3157.1 133.404" style="fill: rgb(255, 255, 255);"/>
  <path class="C" d="M 3195.6 580.304 L 3197.4 615.604 L 3182.2 616.404 L 3197.3 614.504 L 3200.9 643.004 L 3201 643.704 L 3194.3 644.204 L 3201 643.404 L 3201 643.704 L 3194.3 644.204 L 3201 643.404 C 3200.9 643.504 3201.8 648.204 3204.3 651.504 C 3205.6 653.204 3207.1 654.704 3209.5 655.904 C 3211.9 657.104 3215.4 658.204 3221 658.204 L 3221.6 658.204 C 3239.1 658.004 3262.6 656.404 3281.5 655.004 C 3291 654.304 3299.3 653.604 3305.3 653.004 C 3311.3 652.504 3314.9 652.104 3314.9 652.104 L 3316.4 667.304 L 3314.2 652.204 L 3315.2 659.004 L 3313.9 652.304 L 3314.1 652.204 L 3315.1 659.004 L 3313.8 652.304 C 3313.8 652.304 3318.4 651.204 3321.8 648.504 C 3323.5 647.104 3325 645.404 3326.3 642.904 C 3327.6 640.404 3328.6 637.004 3328.6 631.604 L 3328.6 629.404 L 3328.6 629.404 C 3327.7 612.104 3326.3 585.204 3325.1 562.504 C 3323.9 539.804 3322.9 521.504 3322.9 521.504 C 3322.5 514.204 3327.3 507.704 3334.4 505.904 C 3341.4 504.104 3348.8 507.604 3351.9 514.204 L 3407.9 632.504 L 3394.1 639.004 L 3406.1 629.604 C 3409.4 633.904 3412.1 637.104 3414.2 639.404 C 3417.4 642.804 3418.7 643.504 3420.6 644.304 C 3422.6 645.104 3426.5 645.804 3433.9 645.804 C 3437.9 645.804 3442.9 645.604 3448.9 645.304 C 3467 644.404 3498.6 642.704 3525.8 641.304 C 3552.9 639.904 3575.5 638.704 3575.5 638.704 L 3576.3 653.904 L 3573.9 638.904 L 3575.1 646.504 L 3573.7 639.004 L 3573.9 639.004 L 3575.1 646.604 L 3573.7 639.104 L 3574.3 638.904 C 3575.8 638.504 3579.2 637.104 3581.6 634.604 C 3582.8 633.304 3584 631.804 3584.9 629.504 C 3585.8 627.204 3586.5 624.204 3586.5 619.704 C 3586.5 618.304 3586.4 614.304 3586.2 608.804 C 3584.6 566.404 3577.1 425.104 3570 294.604 C 3566.5 229.304 3563.1 166.704 3560.5 120.504 C 3559.2 97.304 3558.2 78.304 3557.5 65.004 C 3556.7 51.704 3556.3 44.304 3556.3 44.304 L 3571.5 43.404 L 3556.5 46.504 L 3565.8 44.604 L 3556.6 46.604 L 3556.5 46.504 L 3565.8 44.604 L 3556.6 46.604 L 3556.5 46.504 C 3556.3 45.604 3554.7 40.504 3551.9 36.904 C 3550.5 35.004 3548.9 33.604 3547.2 32.604 C 3545.4 31.604 3543.5 31.004 3540.2 30.904 L 3539.1 30.904 C 3512 32.304 3444.7 35.904 3444.7 35.904 C 3443.3 36.004 3441.9 35.804 3440.5 35.504 L 3442.1 28.504 L 3440.8 35.504 L 3440.5 35.504 L 3442.1 28.504 L 3440.8 35.504 L 3439.3 35.404 L 3437 35.704 C 3436 36.104 3435.9 36.104 3435.3 36.804 C 3434.8 37.504 3433.4 40.004 3433.4 46.604 L 3433.4 47.004 C 3433.5 62.504 3435.2 94.404 3436.8 122.104 C 3437.6 135.904 3438.4 148.804 3439 158.204 C 3439.6 167.604 3440 173.504 3440 173.504 C 3440.5 180.704 3435.8 187.304 3428.8 189.204 C 3421.8 191.104 3414.4 187.704 3411.2 181.204 L 3349.6 56.704 L 3363.3 50.004 L 3350.4 58.104 C 3345.1 49.604 3341.1 46.104 3338.2 44.504 C 3336.7 43.704 3335.3 43.204 3333.4 42.804 C 3331.5 42.404 3329.1 42.204 3326.1 42.204 C 3321.1 42.204 3314.5 42.704 3306.4 43.204 C 3292.8 43.904 3286 44.304 3282.7 44.404 C 3281 44.504 3280.2 44.504 3279.7 44.504 L 3279.4 44.504 L 3279.4 44.504 L 3170.8 50.204 L 3170 35.004 L 3174.1 49.704 L 3171.8 41.504 L 3174.3 49.604 L 3174.1 49.704 L 3171.8 41.504 L 3174.3 49.604 L 3174 49.704 C 3173.1 50.004 3171 51.104 3169.8 52.304 L 3168.6 53.904 C 3168.4 54.404 3168.2 54.904 3168.2 56.104 L 3168.2 56.504 L 3168.2 56.504 L 3172.2 132.804 L 3141.8 134.404 L 3137.8 58.004 L 3137.8 58.004 L 3137.8 55.904 C 3137.7 49.204 3139.7 43.004 3142.5 38.104 C 3146.8 30.804 3152.6 26.604 3157.1 24.004 C 3161.6 21.404 3165 20.504 3165.9 20.204 C 3167 19.904 3168.1 19.704 3169.2 19.704 L 3304.9 12.604 C 3312.4 12.204 3319.2 11.604 3326.2 11.604 C 3330.5 11.604 3335 11.904 3339.5 12.804 C 3346.4 14.204 3353.5 17.204 3359.7 22.204 C 3365.9 27.104 3371.2 33.604 3376.4 41.904 L 3377.2 43.204 L 3438.8 167.704 L 3425.1 174.404 L 3409.9 175.404 C 3409.9 175.404 3408.3 151.604 3406.7 123.804 C 3405 95.904 3403.4 64.104 3403.3 47.204 L 3403.3 47.304 L 3403.3 46.604 C 3403.3 39.304 3404.4 32.804 3406.6 27.104 C 3409.9 18.504 3416.3 12.004 3422.8 8.804 C 3429.3 5.504 3435.3 4.904 3439.7 4.904 C 3444 4.904 3447 5.504 3447.7 5.704 L 3444.3 20.604 L 3443.4 5.104 C 3443.5 5.104 3460.2 4.204 3480.4 3.204 C 3500.6 2.204 3524.2 0.904 3537.8 0.204 L 3540.5 0.104 C 3549.7 0.104 3557.9 2.704 3564.3 6.804 C 3574 12.904 3579.2 21.204 3582.4 27.704 C 3585.5 34.204 3586.6 39.204 3586.8 40.004 L 3587.1 42.304 C 3587.1 42.304 3594.6 178.704 3602.2 318.904 C 3606 389.004 3609.7 460.104 3612.6 515.604 C 3614 543.304 3615.2 567.204 3616.1 585.104 C 3616.5 594.004 3616.8 601.504 3617 607.304 C 3617.2 613.104 3617.3 617.004 3617.3 619.404 C 3617.3 629.104 3615.2 637.604 3611.7 644.504 C 3606.4 654.904 3598.2 661.104 3591.7 664.404 C 3585.2 667.804 3580.2 668.604 3579.1 668.804 L 3577.5 669.004 C 3577.5 669.004 3487 673.704 3450.9 675.604 C 3444.6 675.904 3439.2 676.204 3434.3 676.204 C 3428.3 676.204 3423 675.904 3417.9 674.904 C 3410.3 673.504 3402.9 669.904 3397.4 665.104 C 3391.9 660.304 3387.7 654.904 3382.6 648.404 C 3381.9 647.504 3381.3 646.504 3380.8 645.504 L 3324.7 527.204 L 3338.4 520.704 L 3353.6 519.904 C 3353.6 519.904 3357.4 593.304 3359.3 627.804 L 3359.3 627.804 C 3359.3 629.104 3359.4 630.304 3359.4 631.604 C 3359.4 641.704 3357.2 650.604 3353.3 657.804 C 3347.6 668.604 3338.9 674.804 3332.1 678.104 C 3325.2 681.504 3319.9 682.304 3318.9 682.404 L 3318.2 682.504 C 3318 682.504 3259.8 688.104 3222.4 688.704 L 3221.3 688.704 C 3210.9 688.704 3201.8 686.404 3194.6 682.304 C 3183.6 676.204 3177.6 667.104 3174.6 659.904 C 3171.6 652.704 3171 647.204 3170.9 646.104 L 3186.1 644.804 L 3171 646.804 L 3167.3 618.304 L 3167.2 617.104 L 3165.4 581.804 L 3195.6 580.304" style="fill: rgb(20, 20, 20);"/>
  <path class="B" d="M 2428.9 44.704 C 2428.9 44.704 2411 50.904 2411.6 68.204 L 2431.6 642.804 C 2431.6 642.804 2437.6 684.204 2473.8 683.004 C 2510 681.704 2564.3 679.904 2564.3 679.904 C 2564.3 679.904 2593.6 676.204 2592.4 641.604 C 2591.2 607.004 2586.4 469.804 2586.4 469.804 L 2681.7 651.504 C 2697.7 672.604 2700.7 675.204 2736.8 673.904 C 2773.1 672.704 2824.5 670.904 2824.5 670.904 C 2824.5 670.904 2851.5 667.204 2850.5 637.004 C 2850 622.604 2763 479.604 2692.5 360.504 C 2757 208.304 2814 66.904 2814 66.904 C 2814 66.904 2812.4 31.404 2785.2 32.304 C 2758.1 33.304 2694.9 35.504 2694.9 35.504 C 2694.9 35.504 2673 32.904 2658.3 61.804 C 2636.6 104.904 2578.3 247.804 2578.3 247.804 L 2570.5 64.804 C 2561.6 47.604 2565.7 40.804 2539.8 40.804 L 2428.9 44.704" style="fill: rgb(255, 255, 255);"/>
  <path class="C" d="M 2428.9 44.704 L 2433.9 59.104 L 2431.3 51.704 L 2434.1 59.104 L 2433.9 59.204 L 2431.3 51.804 L 2434.1 59.204 L 2433.7 59.404 C 2432.7 59.804 2430.3 61.204 2428.9 62.704 L 2427.3 64.904 C 2427 65.604 2426.8 66.304 2426.8 67.604 L 2426.8 67.904 L 2446.8 642.504 L 2431.6 643.004 L 2446.6 640.804 L 2440 641.704 L 2446.6 640.704 L 2446.6 640.804 L 2440 641.704 L 2446.6 640.704 C 2446.6 640.804 2448.1 649.204 2452.4 656.104 C 2454.5 659.604 2457.1 662.604 2460.1 664.604 C 2463.1 666.604 2466.6 667.904 2472.2 668.004 L 2473.2 668.004 C 2509.4 666.704 2563.8 664.904 2563.8 664.904 L 2564.3 680.104 L 2562.4 665.004 L 2563.3 671.804 L 2562.2 665.104 L 2562.5 665.004 L 2563.4 671.804 L 2562.3 665.104 C 2562.4 665.104 2567.1 664.104 2570.5 661.304 C 2572.3 659.904 2573.8 658.204 2575.1 655.604 C 2576.4 653.004 2577.4 649.504 2577.5 643.804 L 2577.5 642.304 C 2576.9 625.004 2575.4 582.104 2574 543.404 C 2572.7 504.804 2571.5 470.504 2571.5 470.504 C 2571.3 463.404 2575.9 457.104 2582.8 455.204 C 2589.7 453.404 2596.9 456.504 2600.2 462.904 L 2695.5 644.504 L 2682 651.604 L 2694.1 642.404 C 2697.5 646.904 2700.2 650.304 2702.3 652.604 C 2703.9 654.304 2705 655.404 2706 656.004 C 2707.4 657.004 2708.4 657.504 2711.1 658.104 C 2713.7 658.704 2718.1 659.104 2724.5 659.004 C 2727.9 659.004 2732 658.904 2736.6 658.704 C 2754.7 658.104 2776.6 657.304 2794 656.704 C 2811.4 656.104 2824.2 655.704 2824.3 655.704 L 2824.8 670.904 L 2822.8 655.804 L 2823.8 662.704 L 2822.6 655.804 L 2822.8 655.804 L 2823.8 662.704 L 2822.6 655.804 C 2822.6 655.904 2826.9 654.904 2829.9 652.504 C 2831.5 651.304 2832.7 649.904 2833.8 648.004 C 2834.8 646.004 2835.7 643.304 2835.7 638.704 L 2835.7 637.504 L 2842.9 637.204 L 2835.9 639.004 C 2835.9 639.004 2835.8 638.804 2835.7 637.404 L 2842.9 637.104 L 2835.9 638.904 C 2835.9 638.804 2835.4 637.404 2834.6 635.604 C 2831.6 628.504 2824.2 614.204 2814.1 596.104 C 2783.6 541.404 2727.9 449.104 2679.8 368.004 C 2677.3 363.804 2677 358.704 2678.9 354.304 C 2711.1 278.304 2741.5 204.904 2763.8 150.604 C 2775 123.404 2784.1 101.004 2790.5 85.404 C 2796.8 69.804 2800.4 61.004 2800.4 61.004 L 2814.5 66.704 L 2799.4 67.404 L 2806.4 67.104 L 2799.4 67.504 L 2799.4 67.404 L 2806.4 67.104 L 2799.4 67.504 C 2799.4 67.404 2798.8 60.204 2796.3 54.804 C 2795.1 52.104 2793.6 50.004 2792.3 49.004 C 2790.9 48.004 2789.9 47.404 2786.9 47.304 L 2786.4 47.304 C 2759.2 48.304 2696.1 50.404 2696.1 50.404 L 2693.8 50.304 L 2694.8 41.804 L 2694.3 50.304 L 2693.9 50.304 L 2694.9 41.804 L 2694.4 50.304 L 2694.4 49.804 L 2694.4 50.304 L 2694.4 50.304 L 2694.4 49.804 L 2694.4 50.304 L 2694.3 50.304 C 2693.6 50.304 2690.5 50.404 2686.7 52.504 C 2682.9 54.604 2677.8 58.604 2672.8 68.404 C 2667.6 78.704 2659.9 95.604 2651.5 114.904 C 2638.8 143.904 2624.2 178.604 2612.8 205.904 C 2607.2 219.604 2602.3 231.404 2598.8 239.904 C 2595.4 248.304 2593.3 253.304 2593.3 253.304 C 2590.6 259.904 2583.6 263.804 2576.6 262.604 C 2569.5 261.404 2564.3 255.404 2564 248.304 L 2556.2 65.304 L 2571.4 64.604 L 2557.9 71.604 C 2555.3 66.504 2553.6 62.204 2552.5 59.404 C 2551.6 57.304 2551 56.204 2550.9 56.004 L 2553.2 54.204 L 2551.6 56.704 L 2550.9 56.004 L 2553.2 54.204 L 2551.6 56.704 L 2552.8 55.004 L 2551.8 56.904 L 2551.5 56.804 L 2552.7 55.104 L 2551.7 57.004 L 2551.7 57.004 C 2551.3 56.704 2547.7 55.904 2540.6 56.004 L 2540.6 40.804 L 2541.2 56.004 L 2430.1 59.904 L 2428.9 44.704 L 2433.9 59.104 L 2428.9 44.704 L 2428.4 29.504 L 2539.5 25.604 L 2540 25.604 C 2547.2 25.604 2552.8 26.004 2558.4 27.404 C 2562.5 28.504 2566.8 30.404 2570.2 33.304 C 2572.8 35.404 2574.8 38.004 2576.1 40.304 C 2578.2 43.804 2579.4 46.704 2580.5 49.504 C 2581.6 52.204 2582.7 54.804 2584.3 57.804 C 2585.3 59.804 2585.8 61.904 2586 64.104 L 2593.8 247.104 L 2578.6 247.704 L 2564.5 242.004 C 2564.5 241.904 2579.1 206.204 2596.4 165.004 C 2605.1 144.404 2614.4 122.504 2623 102.904 C 2631.6 83.304 2639.3 66.204 2645 54.904 C 2652.4 40.204 2662.3 30.904 2671.7 25.904 C 2681 20.904 2689.3 20.104 2693.7 20.104 C 2695.3 20.104 2696.4 20.204 2696.9 20.304 L 2695.1 35.404 L 2694.6 20.204 C 2694.6 20.204 2710.4 19.704 2729.5 19.004 C 2748.7 18.304 2771.2 17.504 2784.9 17.104 L 2786.5 17.104 C 2796.4 17.004 2805.5 20.704 2811.7 26.104 C 2821.1 34.204 2824.9 44.304 2827.1 51.904 C 2829.2 59.604 2829.4 65.404 2829.5 66.204 C 2829.7 68.404 2829.2 70.504 2828.4 72.604 C 2828.4 72.704 2771.3 214.104 2706.7 366.404 L 2692.7 360.504 L 2705.8 352.704 C 2741 412.204 2780.4 477.704 2811.1 530.304 C 2826.4 556.604 2839.6 579.604 2849.1 597.204 C 2853.8 606.004 2857.7 613.404 2860.5 619.404 C 2861.9 622.404 2863 625.104 2864 627.604 C 2864.4 628.904 2864.9 630.104 2865.2 631.404 C 2865.5 632.804 2865.9 634.204 2865.9 636.404 L 2865.9 636.404 L 2866 638.604 C 2866 648.104 2863.8 656.504 2860 663.204 C 2854.3 673.304 2845.9 679.004 2839.4 682.004 C 2832.8 685.104 2827.8 685.804 2826.8 685.904 L 2825.3 686.004 C 2825.3 686.004 2773.9 687.804 2737.7 689.004 C 2732.8 689.204 2728.5 689.304 2724.5 689.304 C 2717.9 689.304 2712.3 689.004 2706.9 688.104 C 2698.8 686.904 2691 683.304 2685.2 678.204 C 2679.4 673.104 2675.1 667.504 2669.9 660.604 L 2668.6 658.504 L 2573 476.804 L 2586.5 469.704 L 2601.8 469.204 C 2601.8 469.204 2606.6 606.404 2607.7 641.004 L 2607.8 643.604 C 2607.8 653.904 2605.5 663.004 2601.6 670.204 C 2595.8 681.204 2586.9 687.404 2579.9 690.704 C 2572.9 694.004 2567.5 694.804 2566.3 694.904 L 2565 695.004 C 2565 695.004 2551.4 695.504 2533.3 696.104 C 2515.2 696.704 2492.6 697.504 2474.5 698.204 L 2472.4 698.204 C 2460.8 698.304 2450.5 694.604 2442.7 689.204 C 2431 681.004 2424.9 669.804 2421.4 661.204 C 2417.9 652.504 2416.9 645.704 2416.8 645.004 L 2416.7 643.304 L 2396.6 68.704 L 2396.6 68.704 L 2396.6 67.304 C 2396.6 60.504 2398.5 54.204 2401.3 49.304 C 2405.5 41.904 2411.2 37.404 2415.5 34.504 C 2420 31.704 2423.4 30.404 2424.1 30.204 C 2425.6 29.704 2427 29.404 2428.6 29.304 L 2428.9 44.704" style="fill: rgb(20, 20, 20);"/>
  <path class="B" d="M 2848.9 629.504 C 2833.3 594.004 2692.7 359.504 2692.7 359.504 L 2799.3 105.804 C 2845.2 58.404 2904.3 29.904 2968.6 29.904 C 3050.5 29.904 3221.7 102.604 3236.1 358.904 C 3248.2 573.604 3116.5 691.704 2971.2 687.904 C 2924 686.604 2884 671.704 2848.6 646.604 C 2848.8 646.604 2854.2 641.304 2848.9 629.504 M 2968.2 144.804 L 2909.5 288.404 L 2792.2 284.304 L 2876.6 385.704 L 2839.5 530.904 L 2968.2 455.704 L 3107.1 543.204 L 3057.7 389.804 L 3146.2 290.504 L 3022.7 288.404 L 2968.2 144.804 Z" style="fill: rgb(255, 255, 255);"/>
  <path class="C" d="M 2848.9 629.504 L 2835 635.604 C 2833.4 632.104 2829.6 624.604 2824.3 614.904 C 2805.9 581.004 2769.6 518.904 2738.1 465.504 C 2722.3 438.804 2707.7 414.204 2697 396.304 C 2686.3 378.404 2679.7 367.204 2679.6 367.204 C 2677.1 363.104 2676.7 357.904 2678.6 353.504 L 2785.3 99.704 C 2786 97.904 2787.1 96.404 2788.4 95.004 C 2836.7 45.104 2899.7 14.404 2968.7 14.404 C 2991.4 14.404 3019.1 19.404 3048.6 30.804 C 3092.8 48.004 3140.8 80.104 3179.2 133.004 C 3217.6 185.904 3246 259.304 3251.5 357.904 C 3252 367.404 3252.3 376.704 3252.3 385.804 C 3252.4 486.104 3220.5 565.704 3169.9 620.004 C 3119.4 674.404 3050.4 703.004 2978.2 703.004 C 2975.7 703.004 2973.3 703.004 2970.9 702.904 C 2920.7 701.604 2877.3 685.404 2839.9 658.904 C 2836.2 656.304 2833.9 652.204 2833.5 647.604 C 2833.1 643.104 2834.8 638.604 2838 635.504 L 2844.1 641.804 L 2836.2 637.904 C 2836.5 637.304 2837 636.504 2838 635.504 L 2844.1 641.804 L 2836.2 637.904 L 2839.7 639.604 L 2835.9 638.704 L 2836.2 637.904 L 2839.7 639.604 L 2835.9 638.704 L 2837.7 639.104 L 2835.9 638.904 L 2835.9 638.704 L 2837.7 639.104 L 2835.9 638.904 L 2836.3 639.004 L 2835.9 638.904 L 2835.9 638.904 L 2836.3 639.004 L 2835.9 638.904 L 2835.9 638.904 C 2835.9 638.704 2835.9 637.704 2834.9 635.404 L 2848.9 629.504 L 2862.8 623.404 C 2865.2 628.904 2866.4 634.304 2866.4 639.104 C 2866.4 644.104 2865.2 648.404 2863.6 651.504 C 2862.1 654.604 2860.3 656.604 2859.4 657.604 L 2848.8 646.704 L 2857.7 634.304 C 2890.9 657.804 2927.7 671.504 2971.8 672.804 C 2974 672.804 2976.1 672.904 2978.3 672.904 C 3042.5 672.904 3102.9 647.704 3147.7 599.604 C 3192.4 551.504 3221.9 480.104 3221.9 386.104 C 3221.9 377.504 3221.6 368.804 3221.2 359.904 C 3214.1 235.004 3169.4 157.204 3117.6 109.604 C 3091.7 85.904 3063.8 69.704 3037.6 59.504 C 3011.5 49.304 2987 45.204 2968.8 45.204 C 2909 45.204 2854 71.604 2810.4 116.504 L 2799.4 105.904 L 2813.5 111.804 L 2706.8 365.504 L 2692.8 359.604 L 2705.8 351.704 C 2705.8 351.704 2741 410.404 2778.1 473.504 C 2796.7 505.104 2815.7 537.704 2831.2 564.804 C 2839 578.304 2845.7 590.504 2851.1 600.404 C 2856.5 610.404 2860.5 618.004 2862.9 623.404 L 2848.9 629.504 M 2968.2 144.804 L 2982.3 150.604 L 2923.6 294.104 C 2921.2 300.004 2915.4 303.804 2909 303.604 L 2791.7 299.504 L 2792.3 284.304 L 2804 274.504 L 2888.4 375.904 C 2891.5 379.604 2892.7 384.704 2891.4 389.404 L 2854.3 534.604 L 2839.6 530.804 L 2831.9 517.704 L 2960.7 442.404 C 2965.6 439.504 2971.6 439.604 2976.5 442.704 L 3115.4 530.204 L 3107.3 543.104 L 3092.8 547.804 L 3043.4 394.504 C 3041.7 389.304 3042.9 383.704 3046.5 379.704 L 3135 280.404 L 3146.4 290.604 L 3146.1 305.804 L 3022.6 303.704 C 3016.3 303.604 3010.9 299.704 3008.6 293.904 L 2954 150.204 L 2968.2 144.804 L 2982.3 150.604 L 2968.2 144.804 L 2982.4 139.404 L 3037 283.004 L 3022.8 288.404 L 3023 273.204 L 3146.6 275.204 C 3152.5 275.304 3157.8 278.904 3160.3 284.304 C 3162.7 289.804 3161.6 296.104 3157.7 300.604 L 3069.1 399.904 L 3057.8 389.704 L 3072.3 385.004 L 3121.7 538.404 C 3123.7 544.504 3121.6 551.204 3116.6 555.104 C 3111.5 559.004 3104.6 559.404 3099.1 556.004 L 2960.2 468.504 L 2968.3 455.604 L 2976 468.704 L 2847.2 543.904 C 2841.9 547.004 2835.3 546.704 2830.4 542.904 C 2825.5 539.204 2823.3 532.904 2824.8 527.004 L 2861.9 381.704 L 2876.7 385.504 L 2865 395.204 L 2780.6 293.804 C 2776.8 289.204 2776 282.804 2778.6 277.404 C 2781.3 272.004 2786.8 268.704 2792.8 268.904 L 2910.2 273.004 L 2909.7 288.204 L 2895.6 282.404 L 2954.3 138.804 C 2956.7 133.004 2962.3 129.304 2968.6 129.304 C 2974.8 129.404 2980.4 133.304 2982.6 139.204 L 2968.2 144.804" style="fill: rgb(20, 20, 20);"/>
  <path class="B" d="M 15.2 81.804 L 51 636.704 C 51 636.704 52.6 680.304 102 680.204 C 150.5 680.104 262.4 676.204 262.4 676.204 C 262.4 676.204 349.3 684.004 418.9 553.804 C 455.7 484.904 454.8 483.904 461.6 368.804 C 470.6 218.004 350.9 24.704 215.2 29.504 L 58.8 35.104 C 58.8 35.104 20.2 32.504 15.2 81.804 M 214 231.404 C 255.1 230.004 279.7 289.304 283.6 336.104 C 290.7 422.404 284.1 410.204 277 443.504 C 269.9 476.704 235.5 494.404 235.5 494.404 L 190.2 496.004 L 177 232.704 L 214 231.404 Z" style="fill: rgb(255, 255, 255);"/>
  <path class="C" d="M 15.2 81.804 L 30.4 80.804 L 66.2 635.704 L 66.2 636.204 L 57.8 636.504 L 66.2 636.004 L 66.2 636.104 L 57.8 636.404 L 66.2 635.904 L 66.3 637.204 C 66.7 640.404 68.5 648.004 73.2 653.704 C 75.6 656.604 78.5 659.204 82.9 661.204 C 87.3 663.204 93.3 664.804 101.8 664.804 L 101.9 664.804 C 125.8 664.804 165.9 663.804 199.9 662.804 C 216.9 662.304 232.4 661.804 243.6 661.404 C 254.9 661.004 261.8 660.804 261.8 660.804 L 263.7 660.804 L 263.1 667.304 L 263.5 660.804 L 263.6 660.804 L 263 667.304 L 263.4 660.804 C 263.4 660.804 264 660.804 265 660.804 C 270.8 660.804 290.8 659.704 316.9 645.104 C 342.9 630.504 375.2 602.304 405.2 546.404 C 414.4 529.204 421.1 516.404 426 505.504 C 433.3 489.104 436.8 477.104 439.4 457.504 C 442.1 437.904 443.5 410.804 446.1 367.604 C 446.4 362.604 446.6 357.404 446.6 352.304 C 446.7 283.104 419.4 204.604 376.7 144.704 C 355.4 114.704 330.4 89.404 303.6 71.804 C 276.8 54.204 248.5 44.404 219.7 44.404 C 218.3 44.404 216.8 44.404 215.4 44.504 L 59.4 50.304 L 57.9 50.304 L 58.4 42.904 L 58.1 50.304 L 57.9 50.304 L 58.4 42.904 L 58.1 50.304 L 57.9 50.304 C 56.6 50.304 50 50.704 44.4 54.504 C 41.5 56.404 38.8 59.004 36.2 63.404 C 33.7 67.804 31.4 74.004 30.5 83.404 L 15.2 81.804 L 30.4 80.804 L 15.2 81.804 L 0 80.204 C 1.3 67.304 4.7 56.604 9.7 48.004 C 17.2 35.104 28 27.604 37.3 23.904 C 46.5 20.204 54.3 19.804 57.9 19.804 C 58.9 19.804 59.5 19.804 59.9 19.904 L 58.9 35.104 L 58.4 19.904 L 214.8 14.304 C 216.6 14.304 218.5 14.204 220.2 14.204 C 256 14.204 290.2 26.504 320.8 46.704 C 366.8 77.004 405.6 124.804 433.3 179.304 C 460.9 233.804 477.5 294.904 477.5 352.704 C 477.5 358.404 477.4 364.104 477 369.804 C 473.5 427.304 472.2 456.604 466.5 482.104 C 463.7 494.804 459.7 506.204 454.2 518.404 C 448.7 530.704 441.7 543.904 432.5 561.104 C 400.3 621.404 363.6 654.504 332.2 672.004 C 300.8 689.604 275.2 691.604 265.5 691.604 C 263.2 691.604 261.7 691.404 261.3 691.404 L 262.6 676.304 L 263.2 691.504 C 263.1 691.504 151.3 695.504 102.2 695.604 L 102 695.604 C 87.5 695.604 75.3 692.304 65.7 686.704 C 58.5 682.604 52.9 677.304 48.8 671.804 C 42.6 663.604 39.5 655.304 37.8 648.904 C 36.2 642.504 36 638.104 35.9 637.304 L 51.1 636.804 L 35.9 637.804 L 0 82.804 L 0 80.204 L 15.2 81.804 M 214 231.404 L 213.5 216.204 L 215.5 216.104 C 229.3 216.104 241.9 221.304 252 229.204 C 267.1 241.104 277.5 258.304 285.1 276.904 C 292.7 295.604 297.2 315.904 298.8 334.804 C 301 361.204 301.9 378.704 301.9 391.504 C 301.9 398.804 301.6 404.704 301 409.804 C 300.1 417.504 298.4 423.404 296.9 428.604 C 295.3 433.804 293.7 438.604 292 446.604 C 289.7 457.104 285.4 466.204 280.3 473.804 C 272.6 485.204 263.4 493.504 256.1 499.104 C 248.7 504.704 243.2 507.504 242.6 507.804 C 240.6 508.804 238.4 509.404 236.2 509.504 L 190.9 511.104 C 182.6 511.404 175.6 504.904 175.2 496.604 L 161.9 233.404 C 161.7 229.304 163.1 225.304 165.9 222.304 C 168.7 219.304 172.5 217.504 176.6 217.404 L 213.6 216.104 L 214 231.404 L 214.6 246.604 L 177.5 247.904 L 177 232.704 L 192.2 231.904 L 205.5 495.104 L 190.3 495.804 L 189.8 480.604 L 235.1 479.004 L 235.6 494.204 L 228.6 480.704 L 230.9 485.104 L 228.6 480.704 L 228.6 480.704 L 230.9 485.104 L 228.6 480.704 C 228.8 480.604 236.4 476.504 244.2 469.304 C 252.1 462.004 259.7 452.004 262.1 440.204 L 262.1 440.204 C 264.8 427.704 267.5 420.604 269 415.204 C 269.7 412.404 270.3 409.904 270.7 406.304 C 271.1 402.704 271.4 398.004 271.4 391.604 C 271.4 380.204 270.5 363.404 268.4 337.404 C 266.7 316.404 260 291.804 249.9 273.904 C 244.9 265.004 239 257.804 233.2 253.304 C 227.2 248.804 221.8 246.704 215.4 246.704 L 214.5 246.704 L 214 231.404" style="fill: rgb(20, 20, 20);"/>
  <path class="B" d="M 424.8 541.404 C 469.8 620.104 542.7 685.004 640 687.504 C 785.3 691.404 917.1 573.204 905 358.504 C 890.6 102.104 719.4 29.504 637.4 29.504 C 544 29.504 462 89.404 414.8 180.004 C 414.8 180.004 463.8 266.304 459.5 362.004 C 455.2 457.704 465.3 427.704 446.6 489.104 C 428.1 550.604 424.8 541.404 424.8 541.404 M 691.5 288.004 L 815 290.104 L 726.5 389.404 L 775.9 542.804 L 636.9 455.304 L 508.2 530.604 L 545.3 385.304 L 466.4 283.904 L 578.3 288.004 L 637 144.404 L 691.5 288.004 Z" style="fill: rgb(255, 255, 255);"/>
  <path class="C" d="M 424.8 541.404 L 438 533.804 C 459.6 571.604 487.8 605.904 521.7 630.704 C 555.6 655.504 595 671.104 640.3 672.304 C 642.5 672.304 644.6 672.404 646.8 672.404 C 711 672.304 771.4 647.204 816.2 599.104 C 860.9 551.004 890.4 479.604 890.4 385.604 C 890.4 377.004 890.2 368.304 889.6 359.404 C 882.5 234.504 837.8 156.704 786.1 109.104 C 760.1 85.304 732.2 69.204 706.1 59.004 C 680 48.804 655.6 44.704 637.3 44.704 C 593.9 44.704 553.2 58.604 517.4 83.304 C 481.6 108.004 450.8 143.704 428.3 187.004 L 414.8 180.004 L 428.1 172.504 C 428.4 173.004 440 193.504 451.7 225.804 C 463.3 258.004 475 302.104 475 350.004 C 475 354.204 474.9 358.404 474.7 362.704 C 473.8 384.304 473.5 399.304 473.5 410.504 C 473.5 420.804 473.7 427.704 473.7 433.804 C 473.8 441.804 473.2 449.004 471.3 457.504 C 469.4 466.104 466.4 476.304 461.2 493.604 C 453.9 517.704 448.9 531.304 445.1 539.704 C 443.1 543.904 441.6 546.904 439.5 549.604 C 438.5 551.004 437.3 552.404 435.2 553.904 C 433.3 555.404 429.9 557.204 425.4 557.204 C 422.8 557.204 420 556.504 417.9 555.304 C 414.7 553.604 413 551.504 412.1 550.004 C 411.1 548.504 410.7 547.304 410.4 546.604 C 407.7 539.204 411.2 531.004 418.4 527.704 C 425.5 524.404 434 527.104 438 534.004 L 424.8 541.404 L 439.1 536.304 L 425.5 541.104 L 436.5 531.704 C 438.3 533.804 438.8 535.204 439.2 536.304 L 425.6 541.104 L 436.6 531.704 L 425.6 541.204 L 432.5 528.404 C 434.4 529.404 435.7 530.704 436.6 531.704 L 425.6 541.204 L 432.5 528.404 L 425.6 541.304 L 425.6 526.704 C 428 526.704 430.6 527.404 432.5 528.404 L 425.6 541.304 L 425.6 526.704 L 425.6 540.504 L 417.3 529.304 C 418.7 528.304 421.4 526.704 425.6 526.704 L 425.6 540.504 L 417.3 529.304 L 423.1 537.104 L 415.5 531.004 C 415.7 530.804 416.2 530.204 417.4 529.304 L 423.2 537.104 L 415.6 531.004 L 417.1 532.204 L 415.5 531.104 L 415.6 531.004 L 417.1 532.204 L 415.5 531.104 C 415.7 530.804 417.7 527.304 420.5 520.004 C 423.3 512.604 427.2 501.404 432.3 484.604 C 437.5 467.404 440.4 457.504 441.9 450.904 C 443.3 444.204 443.5 440.804 443.6 433.604 C 443.6 428.204 443.4 421.004 443.4 410.304 C 443.4 398.804 443.6 383.204 444.6 361.204 C 444.8 357.404 444.8 353.704 444.8 349.904 C 444.8 307.004 434.1 266.004 423.2 236.004 C 417.8 221.004 412.4 208.704 408.3 200.204 C 406.3 196.004 404.6 192.704 403.5 190.504 C 402.9 189.404 402.5 188.604 402.2 188.104 L 401.9 187.604 L 401.8 187.504 C 399.3 183.004 399.2 177.504 401.6 173.004 C 426.2 125.704 460.1 86.204 500.5 58.304 C 540.8 30.404 587.8 14.304 637.7 14.304 C 660.4 14.304 688.1 19.204 717.6 30.704 C 761.8 47.904 809.9 80.004 848.2 132.804 C 886.6 185.704 914.9 259.104 920.5 357.704 C 921.1 367.204 921.3 376.504 921.3 385.604 C 921.3 485.904 889.5 565.504 838.9 619.804 C 788.4 674.104 719.4 702.804 647.2 702.804 C 644.8 702.804 642.3 702.804 639.9 702.704 C 588 701.404 542.2 683.204 504.1 655.204 C 466 627.304 435.3 589.704 411.9 548.904 L 424.8 541.404 L 439.1 536.304 L 424.8 541.404 M 691.5 288.004 L 691.7 272.804 L 815.2 274.904 C 821.2 275.004 826.5 278.604 828.9 284.004 C 831.3 289.504 830.3 295.804 826.3 300.304 L 737.8 399.604 L 726.4 389.404 L 740.9 384.704 L 790.3 538.104 C 792.3 544.204 790.2 550.904 785.2 554.804 C 780.1 558.704 773.1 559.104 767.7 555.704 L 628.7 468.204 L 636.8 455.304 L 644.5 468.404 L 515.7 543.704 C 510.4 546.804 503.8 546.404 498.9 542.704 C 494 539.004 491.8 532.704 493.3 526.804 L 530.4 381.504 L 545.2 385.304 L 533.2 394.704 L 454.2 293.304 C 450.6 288.604 450 282.304 452.7 277.004 C 455.4 271.704 460.9 268.504 466.8 268.704 L 578.7 272.804 L 578.1 288.004 L 564 282.304 L 622.7 138.704 C 625 132.904 630.7 129.204 637 129.204 C 643.3 129.304 648.8 133.204 651 139.004 L 705.6 282.604 L 691.5 288.004 L 691.7 272.804 L 691.5 288.004 L 677.3 293.404 L 622.7 149.804 L 636.9 144.404 L 651 150.204 L 592.3 293.804 C 589.9 299.704 584 303.504 577.6 303.204 L 465.7 299.104 L 466.3 283.904 L 478.3 274.504 L 557.3 375.904 C 560.2 379.604 561.2 384.404 560 389.004 L 522.8 534.304 L 508.1 530.504 L 500.4 517.304 L 629.1 442.004 C 634 439.104 640.1 439.304 644.9 442.304 L 784 529.904 L 775.9 542.804 L 761.4 547.504 L 711.9 394.104 C 710.3 389.004 711.5 383.404 715 379.304 L 803.5 280.004 L 815 290.104 L 814.7 305.304 L 691.2 303.204 C 684.9 303.104 679.4 299.204 677.2 293.404 L 691.5 288.004" style="fill: rgb(20, 20, 20);"/>
</svg>