<?xml version="1.0" encoding="utf-8"?>
<svg version="1.1" id="Donkey Kong" x="0px" y="0px" style="enable-background:new 0 0 4306.8 743.4;" xmlns="http://www.w3.org/2000/svg">
  <style type="text/css">
	.A{fill:#292526;}
	.B{fill:#E82934;}
	.C{fill:#FECE48;}
</style>
  <g transform="matrix(0.050311, 0, 0, 0.050311, 0, -0.000042)"/>
  <path class="B" d="M 179.914 5.691 C 180.075 4.961 180.251 4.428 180.432 4.151 C 182.213 1.459 183.738 1.052 186.923 1.147 C 186.923 1.147 190.072 1.147 194.811 1.58 C 202.771 2.304 200.859 12.824 200.859 12.824 C 200.859 12.824 200.653 13.851 199.48 14.188 C 198.313 14.53 193.735 13.841 193.735 13.841 C 193.735 13.841 192.87 13.398 192.905 12.885 L 192.859 10.701 C 192.613 9.187 191.38 9.267 189.685 9.167 C 187.758 9.051 186.872 10.213 186.716 12.452 C 186.716 12.452 186.369 17.685 186.102 21.257 C 185.781 25.584 188.09 25.352 188.09 25.352 C 190.832 25.589 192.13 25.654 192.135 22.203 L 191.103 22.122 C 191.103 22.122 190.595 22.087 190.137 21.287 L 190.505 17.167 C 190.505 17.167 190.761 15.778 192.029 15.793 C 192.029 15.793 197.594 16.185 198.711 16.276 C 198.841 16.286 200.119 16.462 200.346 17.906 L 199.41 33.211 C 199.41 33.211 199.505 34.217 198.328 34.519 L 192.844 34.137 C 192.844 34.137 192.039 33.714 191.944 33.196 L 192.245 31.611 C 191.838 35.042 183.149 33.95 181.177 33.387 C 180.85 33.291 180.392 33.05 179.99 32.723" style="fill: rgb(255, 255, 255);"/>
  <path class="C" d="M 179.17 5.524 C 179.25 5.142 179.341 4.8 179.441 4.508 C 179.542 4.211 179.643 3.965 179.798 3.728 L 179.798 3.728 C 180.231 3.074 180.654 2.536 181.112 2.088 C 181.791 1.414 182.551 0.961 183.391 0.705 C 184.231 0.443 185.142 0.367 186.188 0.367 C 186.43 0.367 186.686 0.372 186.953 0.377 L 186.928 1.142 L 186.928 0.377 C 186.948 0.377 190.117 0.377 194.887 0.815 C 196.346 0.946 197.548 1.394 198.499 2.058 C 199.933 3.054 200.763 4.503 201.236 5.972 C 201.704 7.441 201.83 8.956 201.83 10.193 C 201.83 11.783 201.624 12.93 201.614 12.961 L 201.614 12.976 C 201.604 13.041 201.528 13.388 201.256 13.801 C 200.99 14.213 200.481 14.701 199.702 14.922 C 199.51 14.978 199.319 15.003 199.113 15.023 C 198.907 15.043 198.69 15.048 198.454 15.048 C 197.508 15.048 196.321 14.933 195.35 14.822 C 194.379 14.711 193.639 14.601 193.629 14.596 C 193.549 14.586 193.473 14.56 193.393 14.52 C 193.368 14.505 193.121 14.384 192.844 14.158 C 192.703 14.042 192.557 13.901 192.417 13.715 C 192.286 13.524 192.15 13.262 192.15 12.915 L 192.155 12.83 L 192.92 12.885 L 192.155 12.9 L 192.11 10.716 L 192.875 10.701 L 192.12 10.827 C 192.069 10.551 191.999 10.42 191.929 10.339 C 191.878 10.279 191.818 10.233 191.712 10.183 C 191.556 10.108 191.29 10.047 190.932 10.017 C 190.575 9.982 190.142 9.967 189.654 9.942 C 189.584 9.937 189.514 9.937 189.448 9.937 C 189.096 9.937 188.824 9.997 188.613 10.088 C 188.301 10.228 188.08 10.435 187.884 10.827 C 187.687 11.215 187.551 11.783 187.501 12.518 L 187.501 12.518 C 187.501 12.518 187.154 17.75 186.882 21.327 C 186.862 21.594 186.852 21.835 186.852 22.062 C 186.852 22.781 186.948 23.294 187.068 23.652 C 187.26 24.19 187.486 24.376 187.662 24.482 C 187.838 24.587 188.009 24.597 188.044 24.592 L 188.05 24.592 L 188.075 25.02 L 188.029 24.592 L 188.05 24.592 L 188.075 25.02 L 188.029 24.592 L 188.17 24.592 C 188.769 24.643 189.287 24.683 189.705 24.683 C 190.077 24.683 190.364 24.648 190.56 24.587 C 190.706 24.542 190.807 24.487 190.887 24.416 C 191.008 24.316 191.124 24.15 191.224 23.798 C 191.325 23.445 191.39 22.917 191.39 22.203 L 192.155 22.203 L 192.095 22.967 L 191.063 22.887 L 191.068 22.887 C 190.973 22.882 190.721 22.842 190.419 22.665 C 190.117 22.489 189.775 22.173 189.488 21.669 C 189.408 21.533 189.373 21.378 189.388 21.222 L 189.755 17.101 L 189.765 17.031 C 189.775 16.975 189.851 16.553 190.158 16.07 C 190.309 15.828 190.53 15.572 190.847 15.37 C 191.159 15.164 191.571 15.033 192.024 15.033 L 192.054 15.033 L 192.1 15.038 C 192.1 15.038 197.659 15.431 198.786 15.521 L 198.786 15.521 C 198.882 15.526 199.013 15.547 199.214 15.607 C 199.505 15.687 199.913 15.858 200.295 16.206 C 200.678 16.553 201.01 17.096 201.116 17.8 C 201.126 17.856 201.131 17.911 201.121 17.966 L 200.185 33.271 L 199.42 33.226 L 200.18 33.156 C 200.185 33.176 200.185 33.221 200.185 33.281 C 200.185 33.473 200.16 33.845 199.923 34.267 C 199.807 34.474 199.631 34.69 199.4 34.871 C 199.163 35.052 198.872 35.193 198.53 35.279 C 198.444 35.299 198.368 35.309 198.283 35.299 L 192.799 34.916 C 192.693 34.906 192.593 34.881 192.497 34.831 C 192.472 34.816 192.235 34.695 191.964 34.474 C 191.823 34.363 191.677 34.227 191.536 34.051 C 191.4 33.875 191.259 33.649 191.204 33.347 C 191.189 33.256 191.189 33.161 191.204 33.07 L 191.506 31.485 C 191.581 31.078 191.969 30.806 192.376 30.871 C 192.784 30.932 193.071 31.309 193.02 31.717 C 192.95 32.36 192.638 32.934 192.2 33.342 C 191.541 33.965 190.671 34.298 189.715 34.509 C 188.754 34.715 187.697 34.791 186.641 34.791 C 185.469 34.791 184.301 34.7 183.305 34.569 C 182.309 34.443 181.499 34.282 180.981 34.137 L 180.981 34.137 C 180.744 34.066 180.503 33.96 180.251 33.825 C 180.01 33.689 179.758 33.523 179.517 33.326 L 180.483 32.139 C 180.644 32.27 180.825 32.386 180.991 32.481 C 181.157 32.572 181.313 32.637 181.403 32.662 C 181.781 32.773 182.561 32.929 183.501 33.045 C 184.437 33.166 185.544 33.251 186.641 33.251 C 187.949 33.251 189.232 33.115 190.132 32.798 C 190.58 32.637 190.927 32.441 191.144 32.23 C 191.36 32.019 191.466 31.817 191.501 31.53 L 192.261 31.621 L 193.01 31.762 L 192.708 33.347 L 191.954 33.201 L 192.708 33.065 L 192.573 33.09 L 192.703 33.045 L 192.708 33.065 L 192.573 33.09 L 192.703 33.045 L 192.663 33.06 L 192.703 33.045 L 192.708 33.045 L 192.668 33.06 L 192.708 33.045 C 192.708 33.045 192.728 33.085 192.779 33.135 C 192.849 33.211 192.97 33.306 193.066 33.372 C 193.116 33.402 193.156 33.427 193.181 33.447 L 193.211 33.463 L 193.216 33.468 L 193.081 33.719 L 193.216 33.468 L 193.216 33.468 L 193.081 33.719 L 193.216 33.468 L 192.859 34.147 L 192.915 33.382 L 198.399 33.764 L 198.343 34.529 L 198.152 33.784 C 198.318 33.744 198.409 33.689 198.474 33.639 C 198.565 33.568 198.6 33.503 198.63 33.432 C 198.655 33.362 198.66 33.286 198.66 33.271 L 198.66 33.266 L 198.967 33.261 L 198.66 33.291 L 198.66 33.271 L 198.967 33.266 L 198.66 33.296 L 198.66 33.181 L 199.596 17.876 L 200.361 17.921 L 199.606 18.042 C 199.566 17.785 199.49 17.624 199.4 17.498 C 199.274 17.312 199.103 17.207 198.942 17.136 C 198.861 17.101 198.786 17.081 198.736 17.066 L 198.675 17.056 L 198.66 17.056 L 198.68 16.9 L 198.665 17.056 L 198.66 17.056 L 198.68 16.9 L 198.665 17.056 L 198.67 17.056 C 198.117 17.01 196.441 16.895 194.912 16.784 C 193.383 16.673 191.994 16.578 191.989 16.578 L 192.044 15.813 L 192.034 16.578 L 192.024 16.578 C 191.853 16.578 191.762 16.618 191.677 16.668 C 191.551 16.744 191.436 16.905 191.365 17.066 C 191.33 17.146 191.305 17.222 191.29 17.267 L 191.274 17.322 L 191.274 17.332 L 190.932 17.262 L 191.274 17.327 L 191.274 17.337 L 190.932 17.267 L 191.274 17.332 L 190.52 17.192 L 191.284 17.262 L 190.917 21.383 L 190.153 21.317 L 190.822 20.935 C 190.993 21.232 191.134 21.332 191.199 21.373 L 191.239 21.393 L 191.249 21.398 L 191.214 21.513 L 191.234 21.393 L 191.249 21.398 L 191.214 21.513 L 191.234 21.393 L 191.144 21.896 L 191.179 21.388 L 191.234 21.393 L 191.144 21.896 L 191.179 21.388 L 191.189 21.388 L 192.22 21.468 C 192.623 21.498 192.925 21.835 192.925 22.233 C 192.925 22.942 192.87 23.536 192.754 24.049 C 192.663 24.437 192.532 24.779 192.346 25.075 C 192.064 25.528 191.632 25.86 191.169 26.026 C 190.701 26.197 190.218 26.238 189.71 26.238 C 189.197 26.238 188.648 26.192 188.05 26.142 L 188.11 25.377 L 188.186 26.142 C 188.165 26.142 188.115 26.147 188.05 26.147 C 187.899 26.147 187.662 26.132 187.36 26.036 C 186.923 25.901 186.364 25.558 185.967 24.904 C 185.564 24.255 185.323 23.35 185.323 22.077 C 185.323 21.81 185.338 21.528 185.358 21.227 C 185.494 19.446 185.645 17.247 185.765 15.491 C 185.826 14.616 185.876 13.851 185.916 13.302 C 185.952 12.754 185.977 12.432 185.977 12.432 L 185.977 12.432 C 186.057 11.28 186.309 10.309 186.897 9.559 C 187.189 9.192 187.572 8.89 188.004 8.704 C 188.442 8.513 188.93 8.427 189.453 8.427 C 189.554 8.427 189.649 8.432 189.75 8.437 C 190.575 8.493 191.335 8.478 192.074 8.714 C 192.442 8.835 192.814 9.041 193.101 9.378 C 193.383 9.71 193.559 10.138 193.634 10.616 L 193.644 10.721 L 193.689 12.905 L 193.689 12.981 L 193.337 12.955 L 193.689 12.955 L 193.689 12.981 L 193.337 12.955 L 193.689 12.955 L 193.438 12.955 L 193.674 12.865 L 193.689 12.955 L 193.438 12.955 L 193.674 12.865 L 193.599 12.895 L 193.669 12.86 L 193.674 12.87 L 193.599 12.9 L 193.669 12.865 C 193.664 12.87 193.775 12.996 193.896 13.076 C 193.956 13.116 194.012 13.157 194.052 13.177 L 194.097 13.202 L 194.102 13.207 L 194.007 13.388 L 194.102 13.207 L 194.102 13.207 L 194.007 13.388 L 194.102 13.207 L 193.75 13.886 L 193.866 13.131 C 193.866 13.131 193.911 13.137 193.991 13.152 C 194.278 13.192 195.028 13.297 195.893 13.393 C 196.753 13.489 197.74 13.569 198.464 13.564 C 198.665 13.564 198.846 13.559 198.992 13.544 C 199.138 13.534 199.249 13.514 199.284 13.499 C 199.677 13.383 199.858 13.187 199.983 13.006 C 200.044 12.915 200.084 12.83 200.104 12.774 L 200.124 12.714 L 200.124 12.709 L 200.527 12.804 L 200.119 12.724 L 200.124 12.709 L 200.527 12.804 L 200.119 12.724 L 200.869 12.875 L 200.114 12.739 L 200.114 12.734 C 200.129 12.638 200.3 11.612 200.3 10.249 C 200.305 8.734 200.084 6.807 199.279 5.293 C 198.882 4.533 198.348 3.874 197.624 3.371 C 196.904 2.868 195.984 2.511 194.751 2.4 C 192.397 2.184 190.439 2.078 189.071 2.023 C 188.382 1.997 187.848 1.982 187.486 1.977 C 187.305 1.972 187.164 1.972 187.073 1.972 C 186.978 1.972 186.938 1.972 186.938 1.972 L 186.918 1.972 C 186.666 1.962 186.424 1.962 186.198 1.962 C 185.549 1.962 184.996 1.997 184.518 2.073 C 183.803 2.194 183.255 2.405 182.727 2.787 C 182.193 3.17 181.67 3.753 181.087 4.634 L 181.087 4.634 C 181.056 4.679 180.981 4.83 180.905 5.056 C 180.835 5.278 180.749 5.575 180.674 5.917 L 179.17 5.524" style="fill: rgb(20, 20, 20);"/>
  <path class="B" d="M 97.373 9.373 C 99.219 14.158 101.468 19.848 101.468 19.848 L 101.021 32.622 C 101.021 32.622 101.156 33.694 102.51 33.84 C 104.326 34.031 107.013 33.996 107.013 33.996 C 107.013 33.996 108.371 34.323 108.421 32.798 C 108.452 31.998 108.869 20.079 108.869 20.079 L 116.562 3.829 C 116.562 3.829 116.864 2.204 115.5 2.159 C 114.132 2.113 110.409 1.927 110.409 1.927 C 110.409 1.927 109.649 1.64 109 3.139 C 108.401 4.523 105.599 11.511 105.599 11.511 L 103.234 2.938 C 102.495 1.494 102.419 1.645 101.056 1.6 C 100.241 1.57 98.787 1.535 97.599 1.555" style="fill: rgb(255, 255, 255);"/>
  <path class="C" d="M 98.092 9.096 C 99.013 11.486 100.034 14.103 100.83 16.12 C 101.227 17.131 101.564 17.991 101.805 18.595 C 102.047 19.204 102.188 19.556 102.188 19.556 C 102.228 19.657 102.243 19.758 102.243 19.863 L 101.796 32.637 L 101.031 32.607 L 101.79 32.512 L 101.328 32.572 L 101.785 32.491 L 101.79 32.512 L 101.328 32.572 L 101.785 32.491 L 101.69 32.507 L 101.785 32.486 L 101.785 32.491 L 101.69 32.507 L 101.785 32.486 C 101.785 32.491 101.821 32.632 101.921 32.753 C 101.972 32.813 102.037 32.874 102.137 32.929 C 102.243 32.985 102.384 33.035 102.6 33.06 C 103.888 33.196 105.715 33.216 106.55 33.216 C 106.842 33.216 107.013 33.216 107.013 33.216 C 107.073 33.216 107.139 33.221 107.199 33.236 L 107.139 33.483 L 107.189 33.231 L 107.199 33.236 L 107.139 33.483 L 107.189 33.231 C 107.194 33.236 107.249 33.241 107.315 33.241 C 107.42 33.241 107.516 33.211 107.541 33.186 C 107.556 33.171 107.571 33.161 107.596 33.105 C 107.622 33.05 107.657 32.939 107.657 32.753 L 107.657 32.753 C 107.672 32.355 107.782 29.176 107.893 26.092 C 107.999 23.013 108.105 20.029 108.105 20.029 C 108.11 19.929 108.135 19.823 108.175 19.727 L 115.868 3.472 L 116.562 3.799 L 115.812 3.658 L 116.139 3.718 L 115.812 3.663 L 115.812 3.678 L 116.139 3.738 L 115.812 3.683 C 115.812 3.683 115.827 3.577 115.827 3.452 C 115.832 3.286 115.787 3.089 115.742 3.019 L 115.681 2.953 C 115.656 2.938 115.606 2.913 115.47 2.908 C 114.091 2.858 110.368 2.672 110.368 2.672 C 110.288 2.667 110.213 2.652 110.137 2.622 L 110.248 2.32 L 110.248 2.647 C 110.233 2.647 110.203 2.647 110.137 2.622 L 110.248 2.32 L 110.248 2.647 L 110.248 2.586 L 110.258 2.647 L 110.248 2.647 L 110.248 2.586 L 110.258 2.647 L 110.238 2.657 C 110.208 2.672 110.142 2.707 110.052 2.818 C 109.956 2.928 109.83 3.119 109.699 3.421 C 109.407 4.09 108.557 6.193 107.782 8.11 C 107.395 9.071 107.023 9.987 106.751 10.666 C 106.48 11.345 106.303 11.778 106.303 11.778 C 106.178 12.085 105.876 12.276 105.549 12.256 C 105.222 12.236 104.94 12.01 104.854 11.693 L 102.49 3.114 L 103.229 2.913 L 102.55 3.26 C 102.369 2.908 102.238 2.672 102.143 2.541 C 102.072 2.44 102.037 2.41 102.027 2.4 L 102.007 2.39 C 101.987 2.38 101.891 2.365 101.725 2.355 C 101.559 2.345 101.323 2.345 101.026 2.335 C 100.372 2.309 99.31 2.279 98.314 2.279 C 98.072 2.279 97.836 2.279 97.614 2.284 L 97.589 0.75 C 97.826 0.745 98.067 0.745 98.319 0.745 C 99.345 0.745 100.422 0.775 101.086 0.8 C 101.413 0.81 101.675 0.81 101.926 0.83 C 102.117 0.845 102.319 0.871 102.53 0.946 C 102.691 1.001 102.847 1.092 102.988 1.198 C 103.194 1.364 103.35 1.56 103.486 1.776 C 103.627 1.992 103.763 2.244 103.924 2.556 C 103.949 2.606 103.969 2.647 103.979 2.702 L 106.343 11.28 L 105.604 11.481 L 104.894 11.199 C 104.894 11.199 105.594 9.449 106.369 7.527 C 107.149 5.605 107.994 3.517 108.301 2.803 C 108.572 2.179 108.884 1.756 109.242 1.479 C 109.594 1.203 109.981 1.102 110.258 1.107 C 110.469 1.107 110.615 1.152 110.68 1.178 L 110.409 1.897 L 110.449 1.132 C 110.449 1.132 111.38 1.178 112.482 1.233 C 113.583 1.283 114.856 1.343 115.53 1.369 C 115.873 1.379 116.194 1.464 116.461 1.62 C 116.662 1.736 116.829 1.892 116.954 2.058 C 117.14 2.304 117.236 2.571 117.296 2.803 C 117.352 3.039 117.367 3.255 117.367 3.431 C 117.367 3.713 117.332 3.904 117.327 3.94 C 117.312 4 117.291 4.07 117.266 4.126 L 109.574 20.376 L 108.884 20.049 L 109.649 20.074 C 109.649 20.074 109.236 31.998 109.206 32.798 C 109.191 33.145 109.131 33.457 109.005 33.729 C 108.824 34.142 108.492 34.438 108.17 34.584 C 107.848 34.735 107.551 34.76 107.325 34.765 C 107.063 34.765 106.892 34.725 106.852 34.715 L 107.033 33.97 L 107.043 34.735 C 107.043 34.735 106.862 34.735 106.56 34.735 C 105.695 34.735 103.858 34.72 102.45 34.569 C 102.012 34.524 101.639 34.398 101.333 34.217 C 100.875 33.945 100.608 33.573 100.462 33.276 C 100.316 32.974 100.281 32.748 100.276 32.693 L 100.271 32.567 L 100.719 19.793 L 101.484 19.818 L 100.769 20.1 C 100.769 20.1 98.515 14.409 96.674 9.62 L 98.092 9.096" style="fill: rgb(20, 20, 20);"/>
  <path class="B" d="M 80.418 10.822 C 81.137 19.868 82.38 33.337 82.38 33.337 C 82.692 33.809 83.205 34.237 84.015 34.177 C 85.746 34.056 98.892 33.135 98.892 33.135 C 98.892 33.135 100.18 32.909 100.075 31.389 C 100.045 30.982 99.994 27.566 99.617 25.644 L 98.399 24.794 L 89.484 25.342 L 89.187 21.141 L 96.503 20.653 C 96.503 20.653 97.921 20.859 98.143 18.872 L 97.841 14.741 C 97.278 13.121 96.286 13.63 96.286 13.63 L 88.704 14.143 L 88.422 10.108 C 88.422 10.108 95.914 9.685 97.076 9.499 C 98.455 9.298 98.148 9.112 98.43 7.844 C 98.183 4.307 98.052 2.425 98.052 2.425 C 98.052 2.425 97.73 0.966 96.437 1.057 C 95.376 1.132 82.129 1.832 81.218 1.832 C 80.604 2.244 80.348 1.987 80.141 2.294" style="fill: rgb(255, 255, 255);"/>
  <path class="C" d="M 81.183 10.757 C 81.54 15.275 82.033 20.905 82.436 25.397 C 82.637 27.646 82.813 29.614 82.944 31.017 C 83.069 32.421 83.15 33.261 83.15 33.261 L 82.385 33.332 L 83.024 32.909 C 83.13 33.065 83.25 33.196 83.381 33.276 C 83.517 33.362 83.658 33.412 83.88 33.412 L 83.97 33.407 C 85.696 33.286 98.847 32.366 98.847 32.366 L 98.897 33.13 L 98.762 32.376 L 98.832 32.768 L 98.752 32.381 L 98.762 32.376 L 98.832 32.768 L 98.752 32.381 L 98.777 32.371 C 98.842 32.35 99.003 32.285 99.104 32.174 C 99.159 32.119 99.204 32.059 99.244 31.963 C 99.285 31.872 99.315 31.747 99.315 31.556 L 99.31 31.435 L 99.31 31.435 C 99.305 31.359 99.305 31.264 99.295 31.128 C 99.28 30.645 99.25 29.714 99.184 28.693 C 99.119 27.671 99.013 26.565 98.862 25.79 L 99.617 25.639 L 99.174 26.268 L 97.957 25.423 L 98.399 24.794 L 98.445 25.558 L 89.535 26.107 C 89.112 26.132 88.75 25.815 88.724 25.397 L 88.433 21.197 C 88.417 20.99 88.483 20.794 88.619 20.638 C 88.755 20.482 88.941 20.391 89.147 20.376 L 96.462 19.883 C 96.518 19.883 96.573 19.883 96.623 19.888 L 96.578 20.195 L 96.603 19.888 L 96.618 19.888 L 96.573 20.195 L 96.598 19.888 L 96.618 19.888 C 96.689 19.888 96.85 19.873 96.981 19.768 C 97.046 19.717 97.121 19.637 97.197 19.491 C 97.272 19.34 97.348 19.119 97.383 18.781 L 98.148 18.867 L 97.383 18.922 L 97.086 14.792 L 97.851 14.736 L 97.131 14.988 C 96.991 14.581 96.845 14.419 96.774 14.364 C 96.699 14.309 96.689 14.319 96.664 14.314 L 96.618 14.319 L 96.613 14.319 L 96.518 14.047 L 96.648 14.304 L 96.613 14.319 L 96.518 14.047 L 96.648 14.304 C 96.558 14.349 96.452 14.379 96.352 14.384 L 88.755 14.902 C 88.332 14.933 87.97 14.616 87.939 14.188 L 87.658 10.153 C 87.643 9.947 87.708 9.745 87.844 9.59 C 87.98 9.439 88.171 9.343 88.377 9.333 C 88.377 9.333 88.845 9.308 89.565 9.262 C 90.646 9.197 92.292 9.101 93.771 8.996 C 94.51 8.946 95.215 8.895 95.778 8.85 C 96.342 8.805 96.784 8.759 96.945 8.729 L 96.955 8.729 C 97.278 8.684 97.479 8.634 97.544 8.608 L 97.564 8.598 L 97.564 8.598 L 97.67 8.789 L 97.484 8.679 L 97.559 8.598 L 97.665 8.789 L 97.479 8.679 L 97.594 8.749 L 97.469 8.699 L 97.479 8.679 L 97.594 8.749 L 97.469 8.699 C 97.469 8.699 97.479 8.674 97.489 8.629 C 97.524 8.483 97.559 8.135 97.66 7.673 L 98.409 7.839 L 97.645 7.894 C 97.524 6.128 97.428 4.77 97.363 3.859 C 97.298 2.948 97.262 2.475 97.262 2.475 L 98.027 2.42 L 97.278 2.586 L 97.73 2.491 L 97.278 2.596 L 97.278 2.591 L 97.73 2.496 L 97.278 2.601 L 97.278 2.596 C 97.267 2.546 97.182 2.294 97.046 2.113 C 96.981 2.018 96.9 1.947 96.825 1.902 C 96.749 1.857 96.664 1.826 96.528 1.826 L 96.467 1.826 C 96.186 1.847 95.169 1.902 93.756 1.977 C 91.648 2.093 88.684 2.249 86.169 2.375 C 84.911 2.435 83.759 2.496 82.883 2.536 C 82.441 2.556 82.073 2.571 81.787 2.586 C 81.5 2.596 81.309 2.606 81.198 2.606 L 81.198 1.832 L 81.62 2.47 C 81.414 2.606 81.218 2.702 81.042 2.762 C 80.78 2.853 80.564 2.868 80.539 2.873 L 80.539 2.873 L 80.463 2.536 L 80.644 2.823 C 80.589 2.858 80.539 2.873 80.539 2.873 L 80.463 2.536 L 80.644 2.823 L 80.443 2.511 L 80.755 2.717 C 80.745 2.737 80.7 2.787 80.644 2.823 L 80.443 2.511 L 80.755 2.717 L 79.502 1.867 C 79.563 1.781 79.638 1.686 79.729 1.615 C 79.89 1.479 80.081 1.409 80.202 1.379 C 80.393 1.338 80.463 1.338 80.524 1.318 C 80.584 1.303 80.654 1.278 80.785 1.193 C 80.911 1.112 81.062 1.062 81.213 1.062 C 81.289 1.062 81.605 1.052 82.048 1.031 C 83.623 0.966 86.979 0.795 90.053 0.634 C 91.592 0.553 93.056 0.473 94.198 0.413 C 95.335 0.347 96.161 0.302 96.377 0.287 C 96.432 0.282 96.493 0.282 96.543 0.282 C 96.991 0.282 97.398 0.418 97.705 0.624 C 98.168 0.931 98.425 1.338 98.575 1.656 C 98.732 1.972 98.782 2.219 98.792 2.259 L 98.807 2.37 C 98.807 2.37 98.938 4.252 99.189 7.789 C 99.194 7.859 99.189 7.939 99.169 8.015 C 99.104 8.297 99.074 8.518 99.038 8.734 C 99.013 8.895 98.983 9.056 98.913 9.252 C 98.857 9.398 98.767 9.559 98.636 9.695 C 98.54 9.796 98.425 9.881 98.309 9.947 C 98.138 10.042 97.962 10.098 97.781 10.143 C 97.599 10.188 97.403 10.223 97.167 10.254 L 97.056 9.494 L 97.177 10.249 C 96.996 10.279 96.749 10.304 96.422 10.334 C 94.178 10.54 88.453 10.863 88.448 10.863 L 88.402 10.098 L 89.167 10.047 L 89.449 14.082 L 88.684 14.138 L 88.634 13.373 L 96.231 12.855 L 96.281 13.62 L 95.929 12.935 C 95.994 12.905 96.246 12.774 96.643 12.774 C 96.955 12.769 97.368 12.875 97.72 13.167 C 98.077 13.454 98.354 13.886 98.56 14.475 C 98.585 14.535 98.596 14.611 98.601 14.671 L 98.903 18.802 L 98.903 18.942 C 98.847 19.43 98.732 19.838 98.555 20.18 C 98.294 20.693 97.896 21.035 97.524 21.207 C 97.152 21.383 96.815 21.413 96.608 21.413 C 96.498 21.413 96.417 21.403 96.387 21.398 L 96.498 20.638 L 96.548 21.403 L 89.238 21.891 L 89.182 21.126 L 89.947 21.076 L 90.244 25.277 L 89.479 25.332 L 89.429 24.567 L 98.344 24.019 C 98.52 24.009 98.686 24.054 98.832 24.155 L 100.045 25.005 C 100.21 25.121 100.321 25.287 100.357 25.483 C 100.563 26.519 100.668 27.868 100.734 29.03 C 100.764 29.609 100.784 30.142 100.799 30.549 C 100.804 30.756 100.809 30.932 100.819 31.068 C 100.824 31.198 100.83 31.299 100.83 31.324 L 100.83 31.324 C 100.835 31.399 100.84 31.475 100.84 31.551 C 100.84 32.003 100.739 32.406 100.563 32.728 C 100.301 33.216 99.919 33.508 99.617 33.664 C 99.31 33.825 99.068 33.865 99.018 33.875 L 98.943 33.885 C 98.943 33.885 95.658 34.116 92.151 34.358 C 88.644 34.605 84.931 34.861 84.066 34.921 C 84 34.926 83.935 34.926 83.869 34.926 C 83.361 34.926 82.903 34.781 82.546 34.549 C 82.184 34.318 81.927 34.026 81.736 33.739 C 81.666 33.633 81.62 33.513 81.61 33.387 C 81.61 33.387 80.368 19.918 79.648 10.863 L 81.183 10.757" style="fill: rgb(20, 20, 20);"/>
  <path class="B" d="M 62.693 32.803 C 64.414 32.985 67.377 33.382 67.377 33.382 C 67.377 33.382 68.866 33.402 69.048 31.671 C 69.229 29.941 69.953 23.068 69.953 23.068 L 73.43 32.788 C 74.079 33.95 74.21 34.101 76.021 34.287 C 77.837 34.479 80.408 34.75 80.408 34.75 C 80.408 34.75 81.782 34.76 81.942 33.246 C 82.018 32.522 78.687 24.789 76.011 18.364 C 80.519 11.34 83.985 4.453 83.985 4.453 C 83.985 4.453 84.292 3.069 82.929 2.667 C 81.615 2.279 78.411 2.194 78.411 2.194 C 78.411 2.194 77.334 1.907 76.403 3.25 C 75.019 5.243 71.115 11.959 71.115 11.959 L 72.011 2.787 C 72.076 2.113 71.87 1.635 71.126 1.514 L 65.083 0.795 C 65.083 0.795 64.147 0.981 64.057 1.847 C 64.057 1.847 63.297 8.468 62.527 15.476" style="fill: rgb(255, 255, 255);"/>
  <path class="C" d="M 62.774 32.039 C 64.515 32.22 67.473 32.617 67.478 32.617 L 67.377 33.377 L 67.387 32.612 L 67.377 33.216 L 67.377 32.612 L 67.387 32.612 L 67.377 33.216 L 67.377 32.612 L 67.377 32.859 L 67.372 32.612 L 67.377 32.612 L 67.377 32.859 L 67.372 32.612 L 67.413 32.607 C 67.508 32.597 67.724 32.552 67.886 32.426 C 67.971 32.36 68.046 32.285 68.117 32.159 C 68.187 32.034 68.253 31.857 68.278 31.586 C 68.464 29.855 69.183 22.987 69.183 22.987 C 69.219 22.63 69.5 22.349 69.853 22.308 C 70.21 22.263 70.547 22.474 70.668 22.811 L 74.144 32.527 L 73.42 32.783 L 74.089 32.411 C 74.25 32.698 74.371 32.904 74.461 33.03 C 74.531 33.125 74.582 33.176 74.627 33.211 C 74.698 33.261 74.778 33.311 75.009 33.367 C 75.236 33.422 75.588 33.473 76.086 33.523 C 77.897 33.714 80.473 33.986 80.473 33.986 L 80.393 34.75 L 80.398 33.98 L 80.393 34.69 L 80.393 33.98 L 80.398 33.98 L 80.393 34.69 L 80.393 33.98 L 80.393 34.202 L 80.383 33.98 L 80.393 33.98 L 80.393 34.202 L 80.383 33.98 C 80.398 33.986 80.624 33.96 80.785 33.86 C 80.871 33.809 80.941 33.749 81.007 33.649 C 81.072 33.548 81.132 33.407 81.163 33.161 L 81.666 33.216 L 81.158 33.216 L 81.163 33.161 L 81.666 33.216 L 81.158 33.216 L 81.439 33.216 L 81.163 33.241 L 81.158 33.216 L 81.439 33.216 L 81.163 33.241 L 81.158 33.231 C 81.147 33.171 81.092 32.929 80.982 32.612 C 80.614 31.5 79.744 29.337 78.697 26.806 C 77.646 24.271 76.408 21.347 75.281 18.651 C 75.186 18.419 75.211 18.153 75.347 17.941 C 77.585 14.45 79.573 10.988 80.997 8.397 C 81.711 7.104 82.28 6.027 82.677 5.278 C 82.873 4.901 83.024 4.609 83.125 4.407 C 83.23 4.206 83.281 4.1 83.281 4.1 L 83.965 4.443 L 83.215 4.277 L 83.663 4.372 L 83.215 4.282 L 83.215 4.272 L 83.663 4.367 L 83.215 4.277 L 83.215 4.267 C 83.22 4.242 83.225 4.181 83.225 4.1 C 83.225 3.965 83.195 3.799 83.135 3.683 C 83.1 3.628 83.059 3.577 82.999 3.522 C 82.934 3.472 82.843 3.421 82.692 3.371 C 82.436 3.296 82.013 3.22 81.555 3.16 C 80.856 3.069 80.051 3.009 79.432 2.974 C 79.12 2.953 78.853 2.943 78.667 2.933 C 78.481 2.928 78.37 2.923 78.37 2.923 C 78.315 2.923 78.25 2.913 78.194 2.898 L 78.305 2.475 L 78.214 2.908 L 78.189 2.903 L 78.3 2.48 L 78.209 2.913 L 78.225 2.848 L 78.209 2.913 L 78.209 2.913 L 78.225 2.848 L 78.209 2.913 C 78.209 2.913 78.179 2.908 78.129 2.908 C 78.033 2.908 77.882 2.923 77.696 3.019 C 77.505 3.114 77.269 3.286 77.002 3.663 C 76.675 4.136 76.172 4.926 75.613 5.831 C 74.778 7.19 73.812 8.81 73.053 10.093 C 72.675 10.737 72.348 11.29 72.117 11.688 C 71.885 12.085 71.749 12.316 71.749 12.316 C 71.568 12.628 71.196 12.769 70.854 12.659 C 70.512 12.548 70.29 12.216 70.325 11.858 L 71.216 2.687 L 71.216 2.687 C 71.221 2.632 71.226 2.581 71.226 2.541 C 71.226 2.455 71.216 2.395 71.211 2.36 C 71.191 2.309 71.191 2.32 71.186 2.309 C 71.176 2.304 71.126 2.264 70.975 2.239 L 71.1 1.484 L 71.01 2.244 L 64.967 1.525 L 65.058 0.765 L 65.209 1.514 L 65.133 1.132 L 65.219 1.514 L 65.209 1.519 L 65.133 1.137 L 65.219 1.519 C 65.219 1.519 65.184 1.53 65.133 1.55 C 65.058 1.58 64.952 1.635 64.897 1.696 C 64.837 1.756 64.811 1.796 64.796 1.907 L 64.796 1.912 C 64.796 1.912 64.751 2.325 64.665 3.054 C 64.414 5.243 63.84 10.284 63.267 15.536 L 61.742 15.37 C 62.512 8.357 63.272 1.736 63.272 1.736 L 64.032 1.821 L 63.267 1.741 C 63.302 1.389 63.438 1.077 63.609 0.84 C 63.871 0.483 64.187 0.292 64.434 0.176 C 64.68 0.061 64.867 0.025 64.907 0.015 C 64.982 0 65.068 -0.005 65.148 0.005 L 71.241 0.755 C 71.467 0.79 71.689 0.86 71.89 0.966 C 72.192 1.122 72.449 1.384 72.585 1.681 C 72.73 1.972 72.776 2.279 72.776 2.566 C 72.776 2.662 72.771 2.762 72.761 2.858 L 72.761 2.858 L 71.87 12.03 L 71.105 11.954 L 70.441 11.567 C 70.441 11.567 71.417 9.886 72.57 7.954 C 73.143 6.988 73.762 5.962 74.33 5.046 C 74.894 4.131 75.402 3.331 75.769 2.808 C 76.162 2.239 76.61 1.872 77.042 1.661 C 77.47 1.449 77.872 1.394 78.154 1.394 C 78.39 1.394 78.551 1.429 78.602 1.444 L 78.406 2.184 L 78.426 1.419 C 78.436 1.419 79.246 1.444 80.232 1.514 C 80.725 1.55 81.258 1.595 81.766 1.666 C 82.274 1.731 82.742 1.811 83.14 1.927 C 83.462 2.018 83.738 2.164 83.965 2.345 C 84.312 2.616 84.523 2.963 84.634 3.281 C 84.75 3.597 84.775 3.894 84.775 4.121 C 84.775 4.392 84.735 4.578 84.73 4.619 C 84.715 4.684 84.694 4.74 84.664 4.8 C 84.659 4.815 81.183 11.713 76.65 18.781 L 76.006 18.369 L 76.715 18.072 C 78.038 21.247 79.522 24.744 80.675 27.561 C 81.253 28.97 81.751 30.207 82.103 31.158 C 82.28 31.636 82.42 32.039 82.526 32.366 C 82.576 32.532 82.622 32.673 82.652 32.803 C 82.682 32.939 82.707 33.05 82.707 33.221 L 82.702 33.326 C 82.652 33.815 82.496 34.232 82.264 34.554 C 81.922 35.042 81.454 35.289 81.097 35.399 C 80.74 35.515 80.468 35.515 80.408 35.52 L 80.398 35.52 L 80.328 35.515 C 80.328 35.515 79.683 35.45 78.813 35.354 C 77.943 35.264 76.846 35.148 75.94 35.052 C 75.477 35.002 75.11 34.957 74.783 34.886 C 74.536 34.836 74.315 34.765 74.099 34.67 C 73.777 34.524 73.5 34.282 73.299 34.026 C 73.098 33.764 72.947 33.493 72.761 33.161 L 72.71 33.045 L 69.229 23.33 L 69.953 23.073 L 70.713 23.153 C 70.713 23.153 70.668 23.581 70.597 24.255 C 70.386 26.268 69.943 30.459 69.807 31.757 C 69.752 32.285 69.591 32.733 69.359 33.08 C 69.007 33.608 68.519 33.885 68.137 34.016 C 67.755 34.147 67.463 34.152 67.377 34.152 L 67.367 34.152 L 67.277 34.147 C 67.277 34.147 66.542 34.046 65.586 33.925 C 64.635 33.804 63.463 33.659 62.618 33.568 L 62.774 32.039" style="fill: rgb(20, 20, 20);"/>
  <path class="B" d="M 42.091 30.031 L 42.161 31.354 L 42.347 32.788 C 42.347 32.788 42.468 34.252 44.163 34.222 C 45.985 34.197 48.918 33.915 48.918 33.915 C 48.918 33.915 50.387 33.699 50.301 31.963 C 50.211 30.222 50.015 26.529 50.015 26.529 L 52.837 32.481 C 53.657 33.528 53.813 33.654 55.63 33.558 C 57.451 33.463 61.999 33.226 61.999 33.226 C 61.999 33.226 63.357 33.02 63.277 31.5 C 63.196 29.981 61.758 2.506 61.758 2.506 C 61.758 2.506 61.456 1.041 60.087 1.112 C 58.724 1.183 55.338 1.359 55.338 1.359 C 55.338 1.359 54.025 1.057 54.04 2.692 C 54.055 4.322 54.377 9.101 54.377 9.101 L 51.283 2.838 C 50.422 1.469 49.738 1.656 48.37 1.726 L 41.542 2.083 C 41.542 2.083 40.647 2.335 40.692 3.205 L 40.808 5.353" style="fill: rgb(255, 255, 255);"/>
  <path class="C" d="M 42.855 29.991 L 42.926 31.314 L 42.161 31.354 L 42.921 31.259 L 43.107 32.693 L 43.112 32.723 L 42.775 32.753 L 43.112 32.713 L 43.112 32.723 L 42.775 32.753 L 43.112 32.713 C 43.107 32.718 43.152 32.954 43.278 33.12 C 43.343 33.206 43.419 33.281 43.54 33.342 C 43.66 33.402 43.837 33.457 44.118 33.457 L 44.148 33.457 C 45.029 33.442 46.211 33.367 47.162 33.296 C 47.64 33.261 48.058 33.226 48.36 33.196 C 48.661 33.171 48.842 33.15 48.842 33.15 L 48.913 33.915 L 48.802 33.156 L 48.852 33.498 L 48.792 33.156 L 48.807 33.156 L 48.857 33.498 L 48.797 33.156 C 48.802 33.156 49.029 33.105 49.2 32.964 C 49.285 32.894 49.361 32.808 49.426 32.683 C 49.487 32.557 49.537 32.386 49.537 32.114 L 49.532 32.003 C 49.487 31.133 49.416 29.779 49.356 28.637 C 49.295 27.495 49.25 26.575 49.25 26.575 C 49.23 26.207 49.471 25.88 49.828 25.79 C 50.181 25.699 50.553 25.87 50.709 26.202 L 53.532 32.154 L 52.842 32.481 L 53.441 32.008 C 53.612 32.225 53.743 32.386 53.848 32.502 C 54.01 32.673 54.075 32.708 54.171 32.748 C 54.271 32.783 54.467 32.818 54.84 32.818 C 55.041 32.818 55.292 32.808 55.589 32.793 C 56.5 32.743 58.095 32.662 59.458 32.592 C 60.822 32.522 61.959 32.461 61.959 32.461 L 61.999 33.226 L 61.883 32.466 L 61.939 32.818 L 61.873 32.471 L 61.883 32.466 L 61.939 32.818 L 61.873 32.471 C 61.873 32.471 62.084 32.421 62.231 32.305 C 62.306 32.245 62.371 32.174 62.422 32.079 C 62.472 31.978 62.512 31.847 62.517 31.626 L 62.517 31.541 C 62.437 30.021 60.998 2.546 60.998 2.546 L 61.763 2.506 L 61.013 2.662 L 61.481 2.566 L 61.018 2.672 L 61.018 2.662 L 61.486 2.566 L 61.023 2.672 L 61.018 2.662 C 61.008 2.616 60.927 2.36 60.787 2.179 C 60.716 2.088 60.635 2.013 60.55 1.962 C 60.459 1.912 60.364 1.882 60.198 1.877 L 60.142 1.877 C 58.774 1.947 55.393 2.123 55.393 2.123 C 55.323 2.128 55.252 2.118 55.182 2.103 L 55.262 1.751 L 55.197 2.108 L 55.182 2.108 L 55.262 1.756 L 55.197 2.113 L 55.116 2.108 L 54.99 2.118 C 54.94 2.139 54.935 2.139 54.905 2.174 C 54.88 2.214 54.809 2.335 54.809 2.667 L 54.809 2.687 C 54.814 3.467 54.9 5.071 54.98 6.465 C 55.021 7.164 55.061 7.809 55.091 8.282 C 55.121 8.754 55.142 9.051 55.142 9.051 C 55.167 9.419 54.93 9.745 54.578 9.841 C 54.226 9.937 53.853 9.771 53.693 9.444 L 50.593 3.18 L 51.283 2.838 L 50.634 3.245 C 50.367 2.818 50.166 2.642 50.02 2.561 C 49.944 2.521 49.869 2.496 49.773 2.475 C 49.678 2.455 49.557 2.445 49.406 2.445 C 49.154 2.445 48.822 2.47 48.415 2.496 C 47.731 2.531 47.394 2.551 47.222 2.556 C 47.137 2.561 47.097 2.566 47.071 2.566 L 47.056 2.566 L 47.051 2.566 L 41.587 2.853 L 41.547 2.088 L 41.754 2.828 L 41.638 2.42 L 41.764 2.828 L 41.749 2.833 L 41.633 2.425 L 41.759 2.833 L 41.744 2.838 C 41.698 2.853 41.592 2.908 41.537 2.968 L 41.477 3.049 C 41.467 3.074 41.457 3.099 41.457 3.16 L 41.457 3.185 L 41.567 5.333 L 40.038 5.414 L 39.927 3.265 L 39.927 3.16 C 39.927 2.823 40.023 2.511 40.164 2.264 C 40.38 1.897 40.672 1.681 40.898 1.555 C 41.125 1.424 41.296 1.374 41.336 1.364 C 41.391 1.349 41.447 1.338 41.502 1.338 L 46.966 1.052 C 46.966 1.052 46.966 1.052 48.329 0.981 C 48.707 0.961 49.049 0.931 49.401 0.931 C 49.617 0.931 49.839 0.946 50.07 0.991 C 50.417 1.057 50.774 1.213 51.086 1.464 C 51.398 1.711 51.665 2.038 51.926 2.455 L 51.962 2.521 L 55.061 8.784 L 54.372 9.122 L 53.607 9.172 C 53.607 9.172 53.527 7.975 53.446 6.576 C 53.36 5.172 53.28 3.572 53.27 2.722 L 53.27 2.722 L 53.27 2.692 C 53.27 2.325 53.325 1.997 53.436 1.711 C 53.602 1.278 53.924 0.951 54.251 0.795 C 54.578 0.629 54.88 0.604 55.101 0.599 C 55.323 0.599 55.468 0.629 55.509 0.639 L 55.338 1.384 L 55.297 0.619 C 55.297 0.619 56.143 0.574 57.159 0.518 C 58.175 0.468 59.363 0.403 60.042 0.367 L 60.178 0.362 C 60.635 0.362 61.053 0.493 61.375 0.7 C 61.858 1.006 62.125 1.424 62.286 1.751 C 62.442 2.078 62.497 2.33 62.507 2.37 L 62.522 2.485 C 62.522 2.485 62.884 9.353 63.252 16.417 C 63.624 23.476 64.001 30.725 64.042 31.485 C 64.042 31.541 64.047 31.596 64.047 31.651 C 64.047 32.119 63.936 32.532 63.75 32.869 C 63.468 33.372 63.055 33.654 62.739 33.809 C 62.412 33.965 62.165 34.006 62.115 34.011 L 62.039 34.021 C 62.039 34.021 57.486 34.257 55.665 34.353 C 55.353 34.368 55.081 34.378 54.835 34.378 C 54.533 34.378 54.271 34.363 54.01 34.313 C 53.627 34.247 53.255 34.066 52.978 33.82 C 52.696 33.578 52.49 33.306 52.228 32.98 C 52.193 32.934 52.163 32.884 52.138 32.833 L 49.315 26.882 L 50.01 26.555 L 50.774 26.514 C 50.774 26.514 50.971 30.207 51.061 31.943 C 51.066 32.008 51.066 32.069 51.066 32.134 C 51.066 32.642 50.951 33.09 50.759 33.452 C 50.473 33.996 50.03 34.308 49.693 34.474 C 49.345 34.64 49.079 34.68 49.024 34.69 L 48.988 34.695 C 48.973 34.695 46.045 34.977 44.168 35.007 L 44.113 35.007 C 43.59 35.007 43.132 34.886 42.77 34.685 C 42.217 34.383 41.915 33.92 41.764 33.558 C 41.608 33.196 41.582 32.919 41.577 32.864 L 42.342 32.798 L 41.582 32.894 L 41.396 31.46 L 41.396 31.405 L 41.326 30.081 L 42.855 29.991" style="fill: rgb(20, 20, 20);"/>
  <path class="B" d="M 160.011 29.236 L 160.102 31.012 L 160.283 32.446 C 160.283 32.446 160.403 33.91 162.099 33.885 C 163.92 33.86 166.858 33.578 166.858 33.578 C 166.858 33.578 168.327 33.362 168.237 31.626 C 168.146 29.89 167.95 26.197 167.95 26.197 L 170.773 32.149 C 171.598 33.196 171.749 33.321 173.565 33.231 C 175.386 33.135 179.934 32.899 179.934 32.899 C 179.934 32.899 181.212 32.693 181.212 31.173 C 181.212 29.624 179.698 2.179 179.698 2.179 C 179.698 2.179 179.391 0.715 178.028 0.785 C 176.659 0.855 173.283 1.031 173.283 1.031 C 173.283 1.031 171.97 0.73 171.985 2.365 C 172 3.995 172.322 8.774 172.322 8.774 L 169.223 2.511 C 168.363 1.137 167.679 1.328 166.31 1.399 L 159.488 1.746 C 159.488 1.746 158.592 1.997 158.637 2.868 L 158.839 6.712" style="fill: rgb(255, 255, 255);"/>
  <path class="C" d="M 160.776 29.196 L 160.866 30.972 L 160.102 31.012 L 160.861 30.917 L 161.042 32.35 L 161.047 32.386 L 160.71 32.411 L 161.047 32.371 L 161.047 32.386 L 160.71 32.411 L 161.047 32.371 C 161.042 32.376 161.088 32.612 161.213 32.778 C 161.279 32.864 161.354 32.939 161.475 33 C 161.596 33.06 161.772 33.115 162.054 33.115 L 162.084 33.115 C 162.964 33.105 164.147 33.025 165.098 32.954 C 165.576 32.919 165.993 32.884 166.295 32.854 C 166.597 32.828 166.778 32.808 166.778 32.808 L 166.853 33.573 L 166.743 32.813 L 166.793 33.156 L 166.728 32.818 L 166.738 32.813 L 166.788 33.156 L 166.723 32.818 C 166.723 32.818 166.954 32.763 167.125 32.627 C 167.211 32.557 167.286 32.471 167.351 32.345 C 167.417 32.22 167.467 32.049 167.467 31.777 L 167.467 31.666 L 167.467 31.666 C 167.422 30.796 167.351 29.443 167.291 28.3 C 167.231 27.158 167.18 26.238 167.18 26.238 C 167.16 25.87 167.402 25.543 167.759 25.453 C 168.111 25.362 168.483 25.538 168.639 25.87 L 171.457 31.822 L 170.763 32.149 L 171.366 31.676 C 171.532 31.893 171.668 32.054 171.774 32.169 C 171.935 32.34 172 32.376 172.096 32.416 C 172.196 32.456 172.393 32.491 172.765 32.491 C 172.966 32.491 173.218 32.481 173.52 32.466 C 174.43 32.421 176.02 32.335 177.388 32.265 C 178.752 32.195 179.889 32.134 179.889 32.134 L 179.929 32.899 L 179.808 32.144 L 179.869 32.527 L 179.798 32.149 L 179.808 32.149 L 179.869 32.532 L 179.798 32.154 L 179.829 32.144 C 179.904 32.124 180.075 32.054 180.196 31.928 C 180.256 31.862 180.317 31.787 180.362 31.671 C 180.407 31.556 180.442 31.405 180.442 31.178 C 180.442 31.108 180.437 30.907 180.427 30.63 C 180.347 28.497 179.969 21.388 179.612 14.822 C 179.436 11.537 179.265 8.387 179.134 6.063 C 179.069 4.895 179.019 3.94 178.984 3.27 C 178.943 2.601 178.923 2.229 178.923 2.229 L 179.688 2.184 L 178.933 2.34 L 179.401 2.244 L 178.938 2.345 L 178.933 2.34 L 179.401 2.244 L 178.938 2.345 L 178.933 2.34 C 178.923 2.294 178.842 2.038 178.702 1.857 C 178.631 1.761 178.551 1.691 178.465 1.64 C 178.375 1.59 178.279 1.56 178.113 1.555 L 178.058 1.555 C 176.694 1.625 173.308 1.806 173.308 1.806 C 173.238 1.811 173.167 1.801 173.097 1.786 L 173.177 1.434 L 173.112 1.786 L 173.097 1.786 L 173.177 1.434 L 173.112 1.786 L 173.037 1.781 L 172.921 1.796 C 172.871 1.816 172.866 1.816 172.835 1.852 C 172.81 1.887 172.74 2.013 172.74 2.345 L 172.74 2.365 C 172.745 3.145 172.83 4.75 172.911 6.143 C 172.951 6.838 172.991 7.487 173.021 7.959 C 173.052 8.432 173.072 8.729 173.072 8.729 C 173.097 9.091 172.861 9.424 172.508 9.519 C 172.156 9.615 171.784 9.444 171.623 9.117 L 168.524 2.853 L 169.213 2.516 L 168.564 2.923 C 168.297 2.496 168.096 2.32 167.95 2.239 C 167.875 2.199 167.804 2.174 167.709 2.154 C 167.613 2.133 167.492 2.123 167.341 2.123 C 167.09 2.123 166.758 2.149 166.35 2.174 C 165.666 2.209 165.324 2.229 165.158 2.234 C 165.072 2.239 165.032 2.239 165.007 2.239 L 164.992 2.239 L 164.992 2.239 L 159.528 2.526 L 159.488 1.761 L 159.694 2.501 L 159.578 2.088 L 159.704 2.496 L 159.694 2.501 L 159.578 2.088 L 159.704 2.496 L 159.689 2.501 C 159.644 2.516 159.538 2.571 159.478 2.632 L 159.417 2.712 C 159.407 2.737 159.397 2.762 159.397 2.823 L 159.397 2.843 L 159.397 2.843 L 159.598 6.681 L 158.069 6.762 L 157.868 2.918 L 157.868 2.918 L 157.868 2.813 C 157.862 2.475 157.963 2.164 158.104 1.917 C 158.32 1.55 158.612 1.338 158.839 1.208 C 159.065 1.077 159.236 1.031 159.281 1.016 C 159.337 1.001 159.392 0.991 159.448 0.991 L 166.275 0.634 C 166.652 0.614 166.994 0.584 167.346 0.584 C 167.563 0.584 167.789 0.599 168.015 0.644 C 168.363 0.715 168.72 0.865 169.032 1.117 C 169.344 1.364 169.61 1.691 169.872 2.108 L 169.912 2.174 L 173.011 8.437 L 172.322 8.774 L 171.557 8.825 C 171.557 8.825 171.477 7.627 171.396 6.229 C 171.311 4.825 171.23 3.225 171.226 2.375 L 171.226 2.38 L 171.226 2.345 C 171.226 1.977 171.281 1.65 171.391 1.364 C 171.557 0.931 171.879 0.604 172.206 0.443 C 172.533 0.277 172.835 0.247 173.057 0.247 C 173.273 0.247 173.424 0.277 173.459 0.287 L 173.288 1.036 L 173.243 0.257 C 173.248 0.257 174.088 0.212 175.104 0.161 C 176.121 0.111 177.308 0.046 177.992 0.01 L 178.128 0.005 C 178.591 0.005 179.004 0.136 179.325 0.342 C 179.814 0.649 180.075 1.067 180.236 1.394 C 180.392 1.721 180.447 1.972 180.457 2.013 L 180.473 2.128 C 180.473 2.128 180.85 8.991 181.232 16.045 C 181.423 19.571 181.61 23.148 181.756 25.941 C 181.826 27.335 181.886 28.537 181.932 29.438 C 181.952 29.885 181.967 30.263 181.977 30.554 C 181.987 30.846 181.992 31.042 181.992 31.163 C 181.992 31.651 181.886 32.079 181.71 32.426 C 181.444 32.949 181.031 33.261 180.704 33.427 C 180.377 33.598 180.126 33.639 180.07 33.649 L 179.99 33.659 C 179.99 33.659 175.437 33.895 173.62 33.991 C 173.303 34.006 173.032 34.021 172.785 34.021 C 172.483 34.021 172.216 34.006 171.96 33.955 C 171.578 33.885 171.205 33.704 170.929 33.463 C 170.652 33.221 170.441 32.949 170.184 32.622 C 170.149 32.577 170.118 32.527 170.093 32.476 L 167.271 26.524 L 167.96 26.197 L 168.725 26.157 C 168.725 26.157 168.916 29.85 169.012 31.586 L 169.012 31.586 C 169.012 31.651 169.017 31.712 169.017 31.777 C 169.017 32.285 168.906 32.733 168.71 33.095 C 168.423 33.639 167.985 33.95 167.643 34.116 C 167.296 34.287 167.029 34.328 166.979 34.333 L 166.944 34.338 C 166.934 34.338 164.006 34.62 162.124 34.65 L 162.069 34.65 C 161.546 34.65 161.088 34.534 160.725 34.328 C 160.172 34.021 159.87 33.563 159.719 33.201 C 159.568 32.838 159.538 32.562 159.533 32.507 L 160.298 32.441 L 159.538 32.542 L 159.352 31.108 L 159.347 31.047 L 159.256 29.271 L 160.776 29.196" style="fill: rgb(20, 20, 20);"/>
  <path class="B" d="M 122.202 2.249 C 122.202 2.249 121.301 2.561 121.331 3.431 L 122.338 32.34 C 122.338 32.34 122.639 34.423 124.461 34.363 C 126.282 34.298 129.014 34.207 129.014 34.207 C 129.014 34.207 130.488 34.021 130.428 32.28 C 130.367 30.539 130.126 23.636 130.126 23.636 L 134.921 32.778 C 135.725 33.84 135.877 33.97 137.693 33.905 C 139.519 33.845 142.105 33.754 142.105 33.754 C 142.105 33.754 143.464 33.568 143.413 32.049 C 143.388 31.324 139.011 24.13 135.464 18.138 C 138.709 10.48 141.577 3.366 141.577 3.366 C 141.577 3.366 141.496 1.58 140.128 1.625 C 138.764 1.676 135.585 1.786 135.585 1.786 C 135.585 1.786 134.483 1.656 133.743 3.109 C 132.651 5.278 129.718 12.467 129.718 12.467 L 129.326 3.26 C 128.878 2.395 129.085 2.053 127.781 2.053 L 122.202 2.249" style="fill: rgb(255, 255, 255);"/>
  <path class="C" d="M 122.202 2.249 L 122.453 2.974 L 122.322 2.601 L 122.463 2.974 L 122.453 2.979 L 122.322 2.606 L 122.463 2.979 L 122.443 2.989 C 122.393 3.009 122.272 3.079 122.202 3.155 L 122.121 3.265 C 122.106 3.301 122.096 3.336 122.096 3.401 L 122.096 3.416 L 123.102 32.325 L 122.338 32.35 L 123.092 32.24 L 122.76 32.285 L 123.092 32.235 L 123.092 32.24 L 122.76 32.285 L 123.092 32.235 C 123.092 32.24 123.168 32.662 123.384 33.01 C 123.49 33.186 123.621 33.337 123.771 33.437 C 123.923 33.538 124.099 33.603 124.38 33.608 L 124.43 33.608 C 126.252 33.543 128.989 33.452 128.989 33.452 L 129.014 34.217 L 128.918 33.457 L 128.964 33.799 L 128.908 33.463 L 128.923 33.457 L 128.969 33.799 L 128.913 33.463 C 128.918 33.463 129.155 33.412 129.326 33.271 C 129.416 33.201 129.492 33.115 129.557 32.985 C 129.623 32.854 129.673 32.678 129.678 32.391 L 129.678 32.315 C 129.648 31.445 129.572 29.286 129.502 27.34 C 129.437 25.397 129.376 23.672 129.376 23.672 C 129.366 23.315 129.598 22.998 129.945 22.902 C 130.292 22.811 130.654 22.967 130.82 23.289 L 135.615 32.426 L 134.936 32.783 L 135.544 32.32 C 135.715 32.547 135.851 32.718 135.957 32.833 C 136.037 32.919 136.093 32.974 136.143 33.005 C 136.213 33.055 136.264 33.08 136.4 33.11 C 136.531 33.14 136.752 33.161 137.074 33.156 C 137.245 33.156 137.451 33.15 137.683 33.14 C 138.593 33.11 139.695 33.07 140.571 33.04 C 141.446 33.01 142.09 32.99 142.095 32.99 L 142.12 33.754 L 142.02 32.995 L 142.07 33.342 L 142.01 32.995 L 142.02 32.995 L 142.07 33.342 L 142.01 32.995 C 142.01 33 142.226 32.949 142.377 32.828 C 142.457 32.768 142.518 32.698 142.573 32.602 C 142.623 32.502 142.669 32.366 142.669 32.134 L 142.669 32.074 L 143.031 32.059 L 142.679 32.149 C 142.679 32.149 142.674 32.139 142.669 32.069 L 143.031 32.054 L 142.679 32.144 C 142.679 32.139 142.653 32.069 142.613 31.978 C 142.462 31.621 142.09 30.902 141.582 29.991 C 140.047 27.239 137.245 22.595 134.825 18.515 C 134.699 18.304 134.684 18.047 134.78 17.826 C 136.4 14.002 137.929 10.309 139.051 7.577 C 139.615 6.208 140.072 5.082 140.395 4.297 C 140.711 3.512 140.893 3.069 140.893 3.069 L 141.602 3.356 L 140.842 3.391 L 141.194 3.376 L 140.842 3.396 L 140.842 3.391 L 141.194 3.376 L 140.842 3.396 C 140.842 3.391 140.812 3.029 140.686 2.757 C 140.626 2.622 140.55 2.516 140.485 2.465 C 140.415 2.415 140.364 2.385 140.213 2.38 L 140.188 2.38 C 138.82 2.43 135.645 2.536 135.645 2.536 L 135.529 2.531 L 135.58 2.103 L 135.554 2.531 L 135.534 2.531 L 135.585 2.103 L 135.559 2.531 L 135.559 2.506 L 135.559 2.531 L 135.559 2.531 L 135.559 2.506 L 135.559 2.531 L 135.554 2.531 C 135.519 2.531 135.363 2.536 135.172 2.642 C 134.981 2.747 134.724 2.948 134.473 3.441 C 134.211 3.96 133.824 4.81 133.401 5.781 C 132.762 7.24 132.028 8.986 131.454 10.359 C 131.172 11.049 130.926 11.642 130.75 12.07 C 130.579 12.493 130.473 12.744 130.473 12.744 C 130.337 13.076 129.985 13.272 129.633 13.212 C 129.276 13.152 129.014 12.85 128.999 12.493 L 128.607 3.286 L 129.371 3.25 L 128.692 3.602 C 128.561 3.346 128.476 3.129 128.42 2.989 C 128.375 2.883 128.345 2.828 128.34 2.818 L 128.455 2.727 L 128.375 2.853 L 128.34 2.818 L 128.455 2.727 L 128.375 2.853 L 128.435 2.767 L 128.385 2.863 L 128.37 2.858 L 128.43 2.772 L 128.38 2.868 L 128.38 2.868 C 128.36 2.853 128.179 2.813 127.822 2.818 L 127.822 2.053 L 127.852 2.818 L 122.262 3.014 L 122.202 2.249 L 122.453 2.974 L 122.202 2.249 L 122.177 1.484 L 127.766 1.288 L 127.791 1.288 C 128.154 1.288 128.435 1.308 128.717 1.379 C 128.923 1.434 129.14 1.53 129.311 1.676 C 129.442 1.781 129.542 1.912 129.608 2.028 C 129.713 2.204 129.774 2.35 129.829 2.491 C 129.884 2.627 129.94 2.757 130.02 2.908 C 130.07 3.009 130.096 3.114 130.106 3.225 L 130.498 12.432 L 129.733 12.462 L 129.024 12.176 C 129.024 12.171 129.759 10.375 130.629 8.302 C 131.067 7.265 131.534 6.163 131.967 5.177 C 132.4 4.191 132.787 3.331 133.074 2.762 C 133.446 2.023 133.945 1.555 134.417 1.303 C 134.885 1.052 135.303 1.011 135.524 1.011 C 135.605 1.011 135.66 1.016 135.685 1.021 L 135.595 1.781 L 135.57 1.016 C 135.57 1.016 136.365 0.991 137.326 0.956 C 138.291 0.921 139.424 0.881 140.113 0.86 L 140.193 0.86 C 140.691 0.855 141.149 1.041 141.461 1.313 C 141.934 1.721 142.125 2.229 142.236 2.611 C 142.341 2.999 142.351 3.291 142.357 3.331 C 142.367 3.441 142.341 3.547 142.301 3.653 C 142.301 3.658 139.429 10.772 136.178 18.434 L 135.474 18.138 L 136.133 17.745 C 137.904 20.739 139.886 24.034 141.431 26.68 C 142.201 28.004 142.865 29.161 143.343 30.046 C 143.579 30.489 143.775 30.861 143.916 31.163 C 143.987 31.314 144.042 31.45 144.092 31.576 C 144.113 31.641 144.138 31.701 144.153 31.767 C 144.168 31.837 144.188 31.908 144.188 32.019 L 144.188 32.019 L 144.193 32.129 C 144.193 32.607 144.082 33.03 143.891 33.367 C 143.604 33.875 143.182 34.162 142.855 34.313 C 142.523 34.469 142.271 34.504 142.221 34.509 L 142.145 34.514 C 142.145 34.514 139.559 34.605 137.738 34.665 C 137.491 34.675 137.275 34.68 137.074 34.68 C 136.742 34.68 136.46 34.665 136.188 34.62 C 135.781 34.559 135.388 34.378 135.097 34.122 C 134.805 33.865 134.588 33.583 134.327 33.236 L 134.262 33.13 L 129.452 23.989 L 130.131 23.631 L 130.901 23.606 C 130.901 23.606 131.142 30.509 131.198 32.25 L 131.203 32.381 C 131.203 32.899 131.087 33.357 130.891 33.719 C 130.599 34.272 130.151 34.584 129.799 34.75 C 129.447 34.916 129.175 34.957 129.115 34.962 L 129.049 34.967 C 129.049 34.967 128.365 34.992 127.454 35.022 C 126.544 35.052 125.407 35.093 124.496 35.128 L 124.39 35.128 C 123.807 35.133 123.288 34.946 122.896 34.675 C 122.307 34.262 122.001 33.699 121.824 33.266 C 121.648 32.828 121.598 32.486 121.593 32.451 L 121.588 32.366 L 120.577 3.457 L 120.577 3.457 L 120.577 3.386 C 120.577 3.044 120.672 2.727 120.813 2.48 C 121.025 2.108 121.311 1.882 121.528 1.736 C 121.754 1.595 121.925 1.53 121.96 1.519 C 122.036 1.494 122.106 1.479 122.187 1.474 L 122.202 2.249" style="fill: rgb(20, 20, 20);"/>
  <path class="B" d="M 143.333 31.671 C 142.548 29.885 135.474 18.087 135.474 18.087 L 140.837 5.323 C 143.147 2.938 146.12 1.504 149.355 1.504 C 153.475 1.504 162.089 5.162 162.813 18.057 C 163.422 28.859 156.796 34.801 149.486 34.61 C 147.111 34.544 145.099 33.794 143.317 32.532 C 143.328 32.532 143.599 32.265 143.333 31.671 M 149.335 7.285 L 146.381 14.51 L 140.48 14.304 L 144.726 19.405 L 142.86 26.71 L 149.335 22.927 L 156.323 27.33 L 153.838 19.612 L 158.29 14.616 L 152.077 14.51 L 149.335 7.285 Z" style="fill: rgb(255, 255, 255);"/>
  <path class="C" d="M 143.333 31.671 L 142.633 31.978 C 142.553 31.802 142.362 31.425 142.095 30.937 C 141.169 29.231 139.343 26.107 137.758 23.42 C 136.963 22.077 136.229 20.839 135.69 19.939 C 135.152 19.038 134.82 18.474 134.815 18.474 C 134.689 18.268 134.669 18.007 134.765 17.785 L 140.133 5.016 C 140.168 4.926 140.223 4.85 140.289 4.78 C 142.719 2.269 145.888 0.725 149.36 0.725 C 150.502 0.725 151.896 0.976 153.38 1.55 C 155.604 2.415 158.019 4.03 159.951 6.691 C 161.882 9.353 163.311 13.046 163.588 18.007 C 163.613 18.485 163.628 18.952 163.628 19.41 C 163.633 24.457 162.029 28.461 159.483 31.193 C 156.942 33.93 153.47 35.369 149.838 35.369 C 149.712 35.369 149.591 35.369 149.471 35.364 C 146.945 35.299 144.761 34.484 142.88 33.15 C 142.694 33.02 142.578 32.813 142.558 32.582 C 142.538 32.355 142.623 32.129 142.784 31.973 L 143.091 32.29 L 142.694 32.094 C 142.709 32.064 142.734 32.024 142.784 31.973 L 143.091 32.29 L 142.694 32.094 L 142.87 32.179 L 142.679 32.134 L 142.694 32.094 L 142.87 32.179 L 142.679 32.134 L 142.769 32.154 L 142.679 32.144 L 142.679 32.134 L 142.769 32.154 L 142.679 32.144 L 142.699 32.149 L 142.679 32.144 L 142.679 32.144 L 142.699 32.149 L 142.679 32.144 L 142.679 32.144 C 142.679 32.134 142.679 32.084 142.628 31.968 L 143.333 31.671 L 144.032 31.364 C 144.153 31.641 144.213 31.913 144.213 32.154 C 144.213 32.406 144.153 32.622 144.072 32.778 C 143.997 32.934 143.906 33.035 143.861 33.085 L 143.328 32.537 L 143.775 31.913 C 145.446 33.095 147.297 33.784 149.516 33.85 C 149.626 33.85 149.732 33.855 149.843 33.855 C 153.073 33.855 156.112 32.587 158.366 30.167 C 160.615 27.747 162.099 24.155 162.099 19.425 C 162.099 18.993 162.084 18.555 162.064 18.107 C 161.706 11.823 159.458 7.909 156.851 5.514 C 155.548 4.322 154.145 3.507 152.827 2.994 C 151.513 2.48 150.281 2.274 149.365 2.274 C 146.356 2.274 143.589 3.602 141.396 5.862 L 140.842 5.328 L 141.552 5.625 L 136.183 18.389 L 135.479 18.092 L 136.133 17.695 C 136.133 17.695 137.904 20.648 139.771 23.823 C 140.706 25.413 141.662 27.053 142.442 28.416 C 142.834 29.095 143.172 29.709 143.443 30.207 C 143.715 30.71 143.916 31.093 144.037 31.364 L 143.333 31.671 M 149.335 7.285 L 150.044 7.577 L 147.091 14.797 C 146.97 15.094 146.678 15.285 146.356 15.275 L 140.455 15.069 L 140.485 14.304 L 141.074 13.811 L 145.32 18.912 C 145.476 19.099 145.536 19.355 145.471 19.592 L 143.604 26.897 L 142.865 26.705 L 142.477 26.046 L 148.957 22.258 C 149.204 22.112 149.506 22.117 149.752 22.273 L 156.741 26.675 L 156.333 27.324 L 155.604 27.561 L 153.118 19.848 C 153.033 19.587 153.093 19.305 153.274 19.104 L 157.727 14.108 L 158.3 14.621 L 158.285 15.385 L 152.072 15.28 C 151.755 15.275 151.483 15.079 151.367 14.787 L 148.621 7.557 L 149.335 7.285 L 150.044 7.577 L 149.335 7.285 L 150.049 7.014 L 152.796 14.238 L 152.082 14.51 L 152.092 13.745 L 158.31 13.846 C 158.607 13.851 158.874 14.032 159 14.304 C 159.12 14.581 159.065 14.897 158.869 15.124 L 154.411 20.12 L 153.843 19.607 L 154.572 19.37 L 157.058 27.088 C 157.158 27.395 157.053 27.732 156.801 27.928 C 156.544 28.124 156.197 28.144 155.921 27.973 L 148.932 23.571 L 149.34 22.922 L 149.727 23.581 L 143.247 27.365 C 142.981 27.521 142.648 27.506 142.402 27.314 C 142.155 27.128 142.045 26.811 142.12 26.514 L 143.987 19.204 L 144.731 19.395 L 144.143 19.883 L 139.896 14.782 C 139.705 14.55 139.665 14.228 139.796 13.957 C 139.932 13.685 140.208 13.519 140.51 13.529 L 146.417 13.735 L 146.392 14.5 L 145.682 14.208 L 148.636 6.983 C 148.756 6.691 149.038 6.505 149.355 6.505 C 149.667 6.51 149.949 6.707 150.059 7.004 L 149.335 7.285" style="fill: rgb(20, 20, 20);"/>
  <path class="B" d="M 0.765 4.116 L 2.566 32.034 C 2.566 32.034 2.646 34.227 5.132 34.222 C 7.572 34.217 13.202 34.021 13.202 34.021 C 13.202 34.021 17.574 34.413 21.075 27.863 C 22.927 24.396 22.882 24.346 23.224 18.555 C 23.677 10.968 17.654 1.243 10.827 1.484 L 2.958 1.766 C 2.958 1.766 1.016 1.635 0.765 4.116 M 10.767 11.642 C 12.834 11.572 14.072 14.555 14.268 16.91 C 14.626 21.252 14.293 20.638 13.936 22.313 C 13.579 23.984 11.848 24.874 11.848 24.874 L 9.569 24.955 L 8.905 11.708 L 10.767 11.642 Z" style="fill: rgb(255, 255, 255);"/>
  <path class="C" d="M 0.765 4.116 L 1.529 4.065 L 3.331 31.983 L 3.331 32.008 L 2.908 32.024 L 3.331 31.998 L 3.331 32.003 L 2.908 32.019 L 3.331 31.993 L 3.336 32.059 C 3.356 32.22 3.446 32.602 3.683 32.889 C 3.804 33.035 3.949 33.166 4.171 33.266 C 4.392 33.367 4.694 33.447 5.122 33.447 L 5.127 33.447 C 6.329 33.447 8.347 33.397 10.057 33.347 C 10.913 33.321 11.692 33.296 12.256 33.276 C 12.824 33.256 13.172 33.246 13.172 33.246 L 13.267 33.246 L 13.237 33.573 L 13.257 33.246 L 13.262 33.246 L 13.232 33.573 L 13.252 33.246 C 13.252 33.246 13.282 33.246 13.332 33.246 C 13.624 33.246 14.631 33.191 15.944 32.456 C 17.252 31.722 18.877 30.303 20.386 27.49 C 20.849 26.625 21.186 25.981 21.433 25.433 C 21.8 24.607 21.976 24.004 22.107 23.018 C 22.243 22.032 22.313 20.668 22.444 18.495 C 22.459 18.243 22.469 17.981 22.469 17.725 C 22.474 14.243 21.101 10.294 18.952 7.28 C 17.881 5.771 16.623 4.498 15.275 3.612 C 13.926 2.727 12.502 2.234 11.053 2.234 C 10.983 2.234 10.908 2.234 10.837 2.239 L 2.988 2.531 L 2.913 2.531 L 2.938 2.159 L 2.923 2.531 L 2.913 2.531 L 2.938 2.159 L 2.923 2.531 L 2.913 2.531 C 2.848 2.531 2.515 2.551 2.234 2.742 C 2.088 2.838 1.952 2.968 1.821 3.19 C 1.696 3.411 1.58 3.723 1.534 4.196 L 0.765 4.116 L 1.529 4.065 L 0.765 4.116 L 0 4.035 C 0.065 3.386 0.236 2.848 0.488 2.415 C 0.865 1.766 1.409 1.389 1.877 1.203 C 2.339 1.016 2.732 0.996 2.913 0.996 C 2.963 0.996 2.993 0.996 3.014 1.001 L 2.963 1.766 L 2.938 1.001 L 10.807 0.72 C 10.898 0.72 10.993 0.715 11.079 0.715 C 12.88 0.715 14.6 1.333 16.14 2.35 C 18.454 3.874 20.406 6.279 21.8 9.021 C 23.189 11.763 24.024 14.837 24.024 17.745 C 24.024 18.032 24.019 18.319 23.999 18.605 C 23.823 21.498 23.757 22.972 23.47 24.255 C 23.33 24.894 23.128 25.468 22.852 26.082 C 22.575 26.7 22.223 27.365 21.76 28.23 C 20.14 31.264 18.293 32.929 16.714 33.809 C 15.134 34.695 13.846 34.796 13.358 34.796 C 13.242 34.796 13.167 34.786 13.146 34.786 L 13.212 34.026 L 13.242 34.791 C 13.237 34.791 7.612 34.992 5.142 34.997 L 5.132 34.997 C 4.402 34.997 3.788 34.831 3.305 34.549 C 2.943 34.343 2.662 34.076 2.455 33.799 C 2.143 33.387 1.987 32.969 1.902 32.647 C 1.821 32.325 1.811 32.104 1.806 32.064 L 2.571 32.039 L 1.806 32.089 L 0 4.166 L 0 4.035 L 0.765 4.116 M 10.767 11.642 L 10.741 10.878 L 10.842 10.873 C 11.536 10.873 12.17 11.134 12.678 11.532 C 13.438 12.13 13.962 12.996 14.344 13.932 C 14.726 14.872 14.953 15.894 15.033 16.844 C 15.144 18.173 15.189 19.053 15.189 19.697 C 15.189 20.064 15.174 20.361 15.144 20.618 C 15.099 21.005 15.013 21.302 14.938 21.564 C 14.857 21.825 14.776 22.067 14.691 22.469 C 14.575 22.998 14.359 23.455 14.102 23.838 C 13.715 24.411 13.252 24.829 12.885 25.111 C 12.513 25.392 12.236 25.533 12.206 25.548 C 12.105 25.599 11.994 25.629 11.884 25.634 L 9.604 25.714 C 9.187 25.729 8.835 25.403 8.815 24.985 L 8.145 11.743 C 8.135 11.537 8.206 11.335 8.347 11.184 C 8.488 11.034 8.679 10.943 8.885 10.938 L 10.746 10.873 L 10.767 11.642 L 10.797 12.407 L 8.93 12.472 L 8.905 11.708 L 9.67 11.667 L 10.339 24.909 L 9.574 24.945 L 9.549 24.18 L 11.828 24.099 L 11.854 24.864 L 11.501 24.185 L 11.617 24.406 L 11.501 24.185 L 11.501 24.185 L 11.617 24.406 L 11.501 24.185 C 11.511 24.18 11.894 23.974 12.286 23.611 C 12.684 23.244 13.066 22.741 13.187 22.147 L 13.187 22.147 C 13.322 21.518 13.458 21.161 13.534 20.89 C 13.569 20.749 13.599 20.623 13.619 20.442 C 13.639 20.261 13.655 20.024 13.655 19.702 C 13.655 19.129 13.609 18.283 13.504 16.975 C 13.418 15.919 13.081 14.681 12.573 13.78 C 12.321 13.333 12.024 12.971 11.733 12.744 C 11.431 12.518 11.159 12.412 10.837 12.412 L 10.792 12.412 L 10.767 11.642" style="fill: rgb(20, 20, 20);"/>
  <path class="B" d="M 21.372 27.239 C 23.636 31.198 27.304 34.463 32.199 34.589 C 39.51 34.786 46.141 28.839 45.532 18.037 C 44.808 5.137 36.194 1.484 32.069 1.484 C 27.37 1.484 23.244 4.498 20.869 9.056 C 20.869 9.056 23.335 13.398 23.118 18.213 C 22.902 23.028 23.41 21.518 22.469 24.607 C 21.538 27.702 21.372 27.239 21.372 27.239 M 34.79 14.49 L 41.004 14.596 L 36.551 19.592 L 39.037 27.309 L 32.043 22.907 L 25.568 26.695 L 27.435 19.385 L 23.465 14.284 L 29.095 14.49 L 32.049 7.265 L 34.79 14.49 Z" style="fill: rgb(255, 255, 255);"/>
  <path class="C" d="M 21.372 27.239 L 22.036 26.857 C 23.123 28.758 24.542 30.484 26.248 31.732 C 27.953 32.98 29.935 33.764 32.214 33.825 C 32.325 33.825 32.431 33.83 32.542 33.83 C 35.772 33.825 38.81 32.562 41.064 30.142 C 43.313 27.722 44.798 24.13 44.798 19.4 C 44.798 18.968 44.787 18.53 44.757 18.082 C 44.4 11.798 42.151 7.884 39.55 5.489 C 38.242 4.292 36.838 3.482 35.525 2.968 C 34.212 2.455 32.984 2.249 32.064 2.249 C 29.88 2.249 27.832 2.948 26.031 4.191 C 24.23 5.434 22.681 7.23 21.548 9.408 L 20.869 9.056 L 21.538 8.679 C 21.553 8.704 22.137 9.735 22.726 11.361 C 23.309 12.981 23.898 15.199 23.898 17.609 C 23.898 17.821 23.893 18.032 23.883 18.248 C 23.838 19.335 23.823 20.089 23.823 20.653 C 23.823 21.171 23.833 21.518 23.833 21.825 C 23.838 22.228 23.807 22.59 23.712 23.018 C 23.616 23.45 23.465 23.964 23.204 24.834 C 22.836 26.046 22.585 26.731 22.394 27.153 C 22.293 27.365 22.218 27.516 22.112 27.651 C 22.062 27.722 22.001 27.792 21.896 27.868 C 21.8 27.943 21.629 28.034 21.403 28.034 C 21.272 28.034 21.131 27.999 21.025 27.938 C 20.864 27.853 20.779 27.747 20.733 27.671 C 20.683 27.596 20.663 27.536 20.648 27.5 C 20.512 27.128 20.688 26.716 21.05 26.55 C 21.408 26.384 21.835 26.519 22.036 26.867 L 21.372 27.239 L 22.092 26.982 L 21.408 27.224 L 21.961 26.751 C 22.051 26.857 22.077 26.927 22.097 26.982 L 21.413 27.224 L 21.966 26.751 L 21.413 27.229 L 21.76 26.585 C 21.855 26.635 21.921 26.7 21.966 26.751 L 21.413 27.229 L 21.76 26.585 L 21.413 27.234 L 21.413 26.499 C 21.533 26.499 21.664 26.534 21.76 26.585 L 21.413 27.234 L 21.413 26.499 L 21.413 27.193 L 20.995 26.63 C 21.065 26.58 21.201 26.499 21.413 26.499 L 21.413 27.193 L 20.995 26.63 L 21.287 27.023 L 20.904 26.716 C 20.914 26.705 20.94 26.675 21 26.63 L 21.292 27.023 L 20.909 26.716 L 20.985 26.776 L 20.904 26.721 L 20.909 26.716 L 20.985 26.776 L 20.904 26.721 C 20.914 26.705 21.015 26.529 21.156 26.162 C 21.297 25.79 21.493 25.226 21.75 24.381 C 22.011 23.516 22.157 23.018 22.233 22.686 C 22.303 22.349 22.313 22.178 22.318 21.815 C 22.318 21.543 22.308 21.181 22.308 20.643 C 22.308 20.064 22.318 19.28 22.369 18.173 C 22.379 17.981 22.379 17.795 22.379 17.604 C 22.379 15.446 21.84 13.383 21.292 11.874 C 21.02 11.119 20.749 10.5 20.542 10.073 C 20.442 9.861 20.356 9.695 20.301 9.585 C 20.271 9.529 20.25 9.489 20.235 9.464 L 20.22 9.439 L 20.215 9.434 C 20.09 9.207 20.084 8.931 20.205 8.704 C 21.443 6.324 23.148 4.337 25.181 2.933 C 27.208 1.53 29.573 0.72 32.084 0.72 C 33.226 0.72 34.619 0.966 36.104 1.545 C 38.327 2.41 40.747 4.025 42.674 6.681 C 44.606 9.343 46.03 13.036 46.312 17.997 C 46.342 18.474 46.352 18.942 46.352 19.4 C 46.352 24.447 44.752 28.451 42.206 31.183 C 39.666 33.915 36.194 35.359 32.562 35.359 C 32.441 35.359 32.315 35.359 32.194 35.354 C 29.583 35.289 27.279 34.373 25.362 32.964 C 23.445 31.561 21.901 29.669 20.723 27.616 L 21.372 27.239 L 22.092 26.982 L 21.372 27.239 M 34.79 14.49 L 34.8 13.725 L 41.014 13.831 C 41.316 13.836 41.582 14.017 41.703 14.289 C 41.824 14.565 41.774 14.882 41.572 15.109 L 37.12 20.105 L 36.546 19.592 L 37.276 19.355 L 39.761 27.073 C 39.862 27.38 39.756 27.717 39.505 27.913 C 39.248 28.109 38.896 28.129 38.624 27.958 L 31.631 23.556 L 32.038 22.907 L 32.426 23.566 L 25.946 27.355 C 25.679 27.511 25.347 27.49 25.1 27.304 C 24.854 27.118 24.743 26.801 24.819 26.504 L 26.685 19.194 L 27.43 19.385 L 26.826 19.858 L 22.852 14.757 C 22.67 14.52 22.64 14.203 22.776 13.937 C 22.912 13.67 23.189 13.509 23.485 13.519 L 29.115 13.725 L 29.085 14.49 L 28.376 14.203 L 31.329 6.978 C 31.445 6.686 31.731 6.5 32.049 6.5 C 32.365 6.505 32.642 6.702 32.753 6.993 L 35.5 14.218 L 34.79 14.49 L 34.8 13.725 L 34.79 14.49 L 34.076 14.762 L 31.329 7.537 L 32.043 7.265 L 32.753 7.557 L 29.799 14.782 C 29.679 15.079 29.382 15.27 29.06 15.255 L 23.43 15.048 L 23.46 14.284 L 24.064 13.811 L 28.039 18.912 C 28.184 19.099 28.235 19.34 28.174 19.571 L 26.303 26.882 L 25.563 26.69 L 25.176 26.026 L 31.651 22.238 C 31.898 22.092 32.204 22.102 32.446 22.253 L 39.444 26.66 L 39.037 27.309 L 38.307 27.546 L 35.817 19.828 C 35.736 19.571 35.797 19.29 35.973 19.083 L 40.425 14.087 L 41.004 14.596 L 40.989 15.36 L 34.775 15.255 C 34.459 15.25 34.182 15.053 34.071 14.762 L 34.79 14.49" style="fill: rgb(20, 20, 20);"/>
</svg>