<?xml version="1.0" encoding="utf-8"?>
<svg xmlns="http://www.w3.org/2000/svg">
  <path id="path3" d="M 279.385 117.459 C 279.303 117.459 279.301 117.468 279.241 117.474 C 279.181 117.48 279.097 117.491 278.996 117.503 C 278.796 117.526 278.509 117.546 278.147 117.589 C 277.424 117.675 276.398 117.803 275.095 117.964 C 272.49 118.286 268.809 118.75 264.413 119.302 C 255.626 120.408 243.97 121.889 232.327 123.376 C 220.682 124.863 209.043 126.35 200.268 127.494 C 195.881 128.066 192.212 128.554 189.615 128.905 C 188.317 129.079 187.281 129.219 186.564 129.322 C 186.203 129.373 185.927 129.42 185.727 129.452 C 185.627 129.468 185.544 129.483 185.482 129.495 C 185.452 129.501 185.436 129.504 185.411 129.509 C 185.385 129.515 185.375 129.504 185.295 129.538 C 183.045 130.498 181.466 132.744 181.466 135.34 L 181.466 236.249 C 181.466 239.722 184.287 242.541 187.757 242.541 L 452.228 242.541 C 455.698 242.541 458.534 239.72 458.534 236.25 L 458.534 135.341 C 458.534 132.848 457.073 130.686 454.964 129.669 C 454.883 129.629 454.878 129.633 454.849 129.626 C 454.82 129.619 454.78 129.604 454.748 129.597 C 454.683 129.584 454.605 129.571 454.503 129.554 C 454.3 129.52 454.016 129.478 453.654 129.425 C 452.926 129.318 451.89 129.172 450.586 128.993 C 447.973 128.635 444.293 128.146 439.889 127.567 C 431.081 126.41 419.405 124.904 407.718 123.407 C 396.03 121.91 384.339 120.43 375.513 119.319 C 371.1 118.763 367.396 118.289 364.773 117.966 C 363.463 117.804 362.423 117.677 361.693 117.591 C 361.328 117.548 361.048 117.528 360.844 117.505 C 360.742 117.493 360.661 117.482 360.599 117.476 C 360.536 117.47 360.517 117.461 360.44 117.461 L 360.44 118.383 C 360.392 118.383 360.443 118.378 360.497 118.383 C 360.552 118.388 360.643 118.4 360.742 118.412 C 360.943 118.434 361.214 118.47 361.578 118.512 C 362.305 118.599 363.349 118.725 364.659 118.887 C 367.28 119.21 370.984 119.67 375.398 120.226 C 384.223 121.337 395.914 122.818 407.601 124.314 C 419.286 125.81 430.967 127.317 439.774 128.475 C 444.177 129.053 447.863 129.557 450.469 129.914 C 451.773 130.093 452.805 130.226 453.521 130.332 C 453.88 130.385 454.165 130.429 454.356 130.462 C 454.451 130.477 454.525 130.495 454.572 130.505 C 454.576 130.506 454.582 130.503 454.585 130.505 C 454.6 130.507 454.611 130.518 454.615 130.519 C 456.382 131.398 457.609 133.23 457.609 135.342 L 457.609 236.252 C 457.609 239.224 455.197 241.622 452.225 241.622 L 187.753 241.622 C 184.779 241.622 182.382 239.227 182.382 236.25 L 182.382 135.339 C 182.382 133.127 183.719 131.227 185.622 130.401 C 185.631 130.399 185.634 130.404 185.65 130.401 C 185.698 130.392 185.77 130.373 185.866 130.358 C 186.057 130.328 186.345 130.294 186.701 130.242 C 187.415 130.141 188.442 129.986 189.738 129.811 C 192.332 129.462 195.99 128.986 200.377 128.414 C 209.15 127.271 220.792 125.77 232.436 124.283 C 244.08 122.796 255.736 121.329 264.523 120.224 C 268.916 119.671 272.585 119.206 275.19 118.885 C 276.492 118.724 277.536 118.596 278.257 118.51 C 278.616 118.467 278.895 118.431 279.091 118.409 C 279.189 118.398 279.268 118.386 279.322 118.38 C 279.375 118.375 279.435 118.38 279.379 118.38 L 279.379 117.459 L 279.385 117.459 Z" style="fill: rgb(30, 30, 30);" transform="matrix(0.965926, -0.25882, 0.25882, 0.965926, -35.683775, 88.955779)"/>
  <path id="path5" d="M 273.6 113.132 C 272.999 113.132 272.485 113.413 272.189 113.823 C 271.893 114.233 271.786 114.744 271.786 115.248 L 271.786 151.668 C 271.786 174.277 290.117 192.624 312.726 192.624 C 335.337 192.624 353.682 174.277 353.682 151.668 L 353.682 115.249 C 353.682 114.721 353.572 114.205 353.265 113.795 C 352.957 113.386 352.44 113.134 351.823 113.134 L 273.599 113.134 L 273.6 113.132 Z M 273.6 114.054 L 351.824 114.054 C 352.223 114.054 352.393 114.16 352.53 114.342 C 352.666 114.524 352.76 114.846 352.76 115.249 L 352.76 151.669 C 352.76 173.781 334.837 191.702 312.726 191.702 C 290.614 191.702 272.707 173.78 272.707 151.669 L 272.707 115.249 C 272.707 114.886 272.795 114.554 272.937 114.356 C 273.08 114.159 273.25 114.055 273.601 114.055 L 273.6 114.054 Z" style="fill: rgb(30, 30, 30);" transform="matrix(0.965926, -0.258819, 0.258819, 0.965926, -28.911572, 86.150651)"/>
  <path id="path7" d="M 230.718 200.967 C 228.651 200.967 226.639 201.221 224.715 201.687 C 215.546 203.908 208.321 211.105 206.059 220.257 C 205.575 222.215 205.324 224.254 205.324 226.361 C 205.324 228.385 205.553 230.361 206.001 232.249 C 208.194 241.493 215.438 248.779 224.657 251.034 C 226.598 251.51 228.632 251.754 230.718 251.754 C 232.778 251.754 234.788 251.511 236.707 251.049 C 246.047 248.793 253.369 241.381 255.492 231.99 C 255.901 230.181 256.112 228.294 256.112 226.361 C 256.112 224.267 255.855 222.234 255.378 220.286 C 253.131 211.14 245.94 203.946 236.792 201.702 C 234.846 201.225 232.809 200.967 230.717 200.967 L 230.718 200.967 Z M 230.718 201.889 C 232.735 201.89 234.688 202.135 236.563 202.594 C 245.375 204.757 252.32 211.69 254.484 220.502 C 254.945 222.378 255.19 224.342 255.19 226.361 C 255.19 228.225 254.979 230.045 254.585 231.789 C 252.54 240.837 245.49 247.983 236.49 250.157 C 234.642 250.603 232.704 250.834 230.718 250.834 C 228.706 250.834 226.757 250.6 224.888 250.143 C 216.005 247.969 209.02 240.94 206.908 232.033 C 206.476 230.215 206.246 228.313 206.246 226.361 C 206.246 224.329 206.485 222.361 206.951 220.475 C 209.13 211.656 216.096 204.72 224.93 202.58 C 226.785 202.131 228.725 201.89 230.718 201.889 L 230.718 201.889 Z" style="fill: rgb(30, 30, 30);" transform="matrix(0.965926, -0.258819, 0.258819, 0.965926, -50.724875, 67.427234)"/>
  <path id="path9" d="M 230.718 200.967 C 228.652 200.967 226.639 201.221 224.715 201.688 L 224.701 201.688 L 224.672 201.688 C 224.257 201.829 223.888 202.085 223.65 202.464 C 223.411 202.846 223.318 203.314 223.318 203.89 L 223.318 217.839 C 223.318 218.287 223.241 218.567 223.131 218.704 C 223.022 218.839 222.827 218.962 222.267 218.962 L 208.246 218.962 C 207.746 218.962 207.315 218.991 206.922 219.178 C 206.529 219.367 206.242 219.738 206.073 220.216 L 206.073 220.229 L 206.059 220.259 C 205.575 222.216 205.324 224.255 205.324 226.362 C 205.324 228.386 205.553 230.362 206.001 232.251 L 206.015 232.251 C 206.14 232.734 206.355 233.168 206.75 233.431 C 207.144 233.693 207.636 233.762 208.247 233.762 L 222.253 233.762 C 222.701 233.762 222.941 233.847 223.074 233.977 C 223.207 234.108 223.318 234.367 223.318 234.899 L 223.318 248.834 C 223.318 249.5 223.44 249.998 223.693 250.359 C 223.946 250.721 224.31 250.908 224.614 251.021 L 224.643 251.021 L 224.658 251.036 C 226.599 251.511 228.633 251.756 230.718 251.756 C 232.778 251.756 234.788 251.513 236.707 251.05 L 236.721 251.05 C 237.097 250.946 237.47 250.722 237.728 250.345 C 237.987 249.968 238.117 249.46 238.117 248.834 L 238.117 234.885 C 238.117 234.456 238.224 234.194 238.376 234.035 C 238.529 233.877 238.782 233.762 239.269 233.762 L 253.189 233.762 C 253.909 233.762 254.456 233.577 254.83 233.23 C 255.204 232.882 255.383 232.435 255.492 232.007 L 255.492 231.993 C 255.902 230.184 256.111 228.297 256.111 226.365 C 256.111 224.27 255.856 222.236 255.377 220.289 L 255.377 220.275 C 255.247 219.803 255.01 219.405 254.614 219.195 C 254.217 218.986 253.774 218.964 253.189 218.964 L 239.283 218.964 C 238.736 218.964 238.481 218.847 238.347 218.706 C 238.213 218.565 238.117 218.308 238.117 217.842 L 238.117 203.893 C 238.117 203.338 238.082 202.889 237.872 202.497 C 237.662 202.104 237.266 201.838 236.807 201.705 L 236.792 201.705 C 234.846 201.228 232.809 200.97 230.717 200.97 L 230.718 200.967 Z M 230.718 201.89 C 232.73 201.89 234.678 202.137 236.548 202.595 C 236.552 202.596 236.558 202.594 236.563 202.595 C 236.862 202.684 236.967 202.767 237.052 202.926 C 237.139 203.088 237.196 203.397 237.196 203.89 L 237.196 217.839 C 237.196 218.42 237.303 218.964 237.671 219.351 C 238.039 219.738 238.604 219.884 239.283 219.884 L 253.19 219.884 C 253.736 219.884 254.047 219.941 254.183 220.013 C 254.316 220.082 254.391 220.164 254.486 220.503 C 254.486 220.507 254.485 220.512 254.486 220.516 C 254.944 222.389 255.191 224.346 255.191 226.361 C 255.191 228.224 254.98 230.045 254.586 231.789 C 254.495 232.135 254.385 232.39 254.212 232.551 C 254.034 232.716 253.759 232.839 253.19 232.839 L 239.269 232.839 C 238.626 232.839 238.082 233.019 237.715 233.401 C 237.347 233.782 237.197 234.308 237.197 234.883 L 237.197 248.833 C 237.197 249.327 237.094 249.64 236.966 249.825 C 236.839 250.01 236.677 250.097 236.462 250.155 C 234.622 250.598 232.696 250.832 230.718 250.832 C 228.722 250.832 226.789 250.606 224.931 250.155 C 224.924 250.152 224.925 250.145 224.917 250.142 C 224.703 250.06 224.565 249.979 224.457 249.825 C 224.345 249.665 224.241 249.382 224.241 248.833 L 224.241 234.897 C 224.241 234.235 224.097 233.695 223.723 233.328 C 223.348 232.961 222.822 232.839 222.254 232.839 L 208.247 232.839 C 207.722 232.839 207.43 232.759 207.268 232.651 C 207.107 232.543 207.003 232.4 206.908 232.032 C 206.476 230.214 206.246 228.312 206.246 226.361 C 206.246 224.343 206.477 222.391 206.937 220.516 L 206.951 220.516 C 207.071 220.176 207.163 220.075 207.326 219.997 C 207.487 219.92 207.785 219.882 208.247 219.882 L 222.268 219.882 C 222.975 219.882 223.522 219.702 223.852 219.292 C 224.181 218.883 224.24 218.363 224.24 217.838 L 224.24 203.889 C 224.24 203.416 224.316 203.133 224.428 202.953 C 224.536 202.78 224.693 202.674 224.96 202.579 C 224.969 202.577 224.966 202.568 224.974 202.565 C 226.815 202.123 228.741 201.89 230.718 201.89 L 230.718 201.89 Z" style="fill: rgb(30, 30, 30);" transform="matrix(0.965926, -0.25882, 0.25882, 0.965926, -50.725286, 67.427381)"/>
  <path id="circle11" d="M 230.718 219.496 C 226.933 219.496 223.852 222.577 223.852 226.362 C 223.852 230.148 226.933 233.229 230.718 233.229 C 234.504 233.229 237.585 230.147 237.585 226.362 C 237.585 222.577 234.503 219.496 230.718 219.496 Z M 230.718 220.416 C 234.005 220.416 236.664 223.074 236.664 226.362 C 236.664 229.649 234.005 232.307 230.718 232.307 C 227.431 232.307 224.773 229.649 224.773 226.362 C 224.773 223.074 227.431 220.416 230.718 220.416 Z" style="fill: rgb(30, 30, 30);" transform="matrix(0.965926, -0.258819, 0.258819, 0.965926, -50.725369, 67.427434)"/>
  <path id="path13" d="M 208.796 138.507 C 205.326 138.507 202.505 141.329 202.505 144.798 L 202.505 171.603 C 202.505 173.106 202.816 174.204 203.34 174.986 C 203.864 175.767 204.607 176.193 205.369 176.367 C 206.889 176.714 208.446 176.167 209.271 175.662 C 209.275 175.66 209.281 175.665 209.285 175.662 C 213.496 173.309 218.34 171.963 223.508 171.963 C 239.644 171.963 252.716 185.034 252.716 201.171 C 252.716 210.926 247.94 219.561 240.595 224.866 L 240.552 224.895 L 240.523 224.938 L 239.659 225.903 L 239.63 225.932 C 238.761 226.816 238.22 228.037 238.22 229.373 C 238.22 232.072 240.414 234.267 243.114 234.267 L 246.915 234.267 L 407.134 234.267 L 407.595 234.267 L 420.954 234.267 C 433.153 234.267 443.05 224.369 443.05 212.17 C 443.05 207.775 441.767 203.678 439.553 200.236 C 439.55 200.231 439.555 200.226 439.553 200.222 C 439.34 199.863 439.25 199.768 439.25 198.811 L 439.25 144.798 C 439.25 141.329 436.429 138.507 432.959 138.507 L 379.798 138.507 C 377.734 138.507 376.082 139.332 374.988 140.653 C 373.896 141.974 373.348 143.768 373.348 145.734 L 373.348 149.966 C 373.348 178.473 350.247 201.56 321.741 201.56 C 293.234 201.56 270.133 178.473 270.133 149.967 L 270.133 145.734 C 270.133 143.649 269.756 141.867 268.809 140.567 C 267.86 139.268 266.336 138.51 264.286 138.51 L 208.791 138.51 L 208.796 138.507 Z M 208.796 139.429 L 264.291 139.429 C 266.129 139.429 267.302 140.033 268.078 141.099 C 268.853 142.165 269.215 143.762 269.215 145.733 L 269.215 149.966 C 269.215 178.971 292.739 202.481 321.743 202.481 C 350.747 202.481 374.271 178.97 374.271 149.965 L 374.271 145.733 C 374.271 143.938 374.771 142.347 375.696 141.227 C 376.622 140.11 377.976 139.43 379.8 139.43 L 432.964 139.43 C 435.935 139.43 438.333 141.827 438.333 144.799 L 438.333 198.811 C 438.333 199.872 438.542 200.334 438.765 200.711 L 438.779 200.711 L 438.779 200.725 C 440.905 204.026 442.133 207.949 442.133 212.169 C 442.133 223.87 432.659 233.345 420.957 233.345 L 408.058 233.345 L 407.598 233.345 L 246.919 233.345 L 243.118 233.345 C 240.917 233.345 239.145 231.574 239.145 229.373 C 239.145 228.272 239.591 227.287 240.311 226.565 L 240.325 226.551 L 240.325 226.537 L 241.131 225.615 C 241.142 225.607 241.149 225.594 241.16 225.587 C 248.717 220.113 253.641 211.214 253.641 201.172 C 253.641 184.537 240.145 171.042 223.511 171.042 C 218.179 171.042 213.159 172.439 208.814 174.871 L 208.8 174.871 C 208.194 175.244 206.73 175.739 205.575 175.476 C 204.997 175.344 204.498 175.053 204.106 174.469 C 203.715 173.884 203.43 172.984 203.43 171.604 L 203.43 144.801 C 203.427 141.83 205.824 139.433 208.797 139.433 L 208.796 139.429 Z" style="fill: rgb(30, 30, 30);" transform="matrix(0.965926, -0.258819, 0.258819, 0.965926, -37.24212, 89.891916)"/>
  <path id="circle15" d="M 394.824 180.704 C 387.175 180.704 380.961 186.917 380.961 194.567 C 380.961 202.214 387.174 208.43 394.824 208.43 C 402.471 208.43 408.671 202.216 408.671 194.567 C 408.672 186.919 402.472 180.704 394.824 180.704 Z M 394.824 181.625 C 401.974 181.625 407.751 187.417 407.751 194.567 C 407.751 201.717 401.974 207.509 394.824 207.509 C 387.673 207.509 381.882 201.717 381.882 194.567 C 381.882 187.417 387.673 181.625 394.824 181.625 Z" style="fill: rgb(30, 30, 30);" transform="matrix(0.965926, -0.258819, 0.258819, 0.965926, -36.904605, 108.815564)"/>
  <path id="circle17" d="M 394.823 182.816 C 388.342 182.816 383.077 188.082 383.077 194.563 C 383.077 201.043 388.342 206.309 394.823 206.309 C 401.304 206.309 406.569 201.043 406.569 194.563 C 406.569 188.082 401.304 182.816 394.823 182.816 Z M 394.823 183.737 C 400.805 183.737 405.647 188.578 405.647 194.562 C 405.647 200.545 400.805 205.387 394.823 205.387 C 388.84 205.387 383.998 200.545 383.998 194.562 C 383.998 188.579 388.84 183.737 394.823 183.737 Z" style="fill: rgb(30, 30, 30);" transform="matrix(0.965926, -0.258819, 0.258819, 0.965926, -36.903194, 108.817171)"/>
  <path id="path19" d="M 394.274 172.939 C 384.643 172.939 376.827 180.756 376.827 190.386 C 376.827 200.018 384.643 207.834 394.274 207.834 L 426.563 207.834 C 436.194 207.834 444.01 200.018 444.01 190.386 C 444.01 180.756 436.194 172.939 426.563 172.939 L 394.274 172.939 Z M 394.274 173.86 L 426.563 173.86 C 435.697 173.86 443.089 181.252 443.089 190.386 C 443.089 199.521 435.698 206.912 426.563 206.912 L 394.274 206.912 C 385.141 206.912 377.748 199.522 377.748 190.386 C 377.749 181.252 385.141 173.86 394.274 173.86 Z" style="fill: rgb(30, 30, 30);" transform="matrix(0.965926, -0.25882, 0.25882, 0.965926, -35.291042, 112.711737)"/>
  <path id="circle21" d="M 426.01 172.347 C 418.363 172.347 412.147 178.561 412.147 186.21 C 412.147 193.857 418.362 200.073 426.01 200.073 C 433.659 200.073 439.859 193.859 439.859 186.21 C 439.859 178.562 433.658 172.347 426.01 172.347 Z M 426.01 173.268 C 433.161 173.268 438.937 179.06 438.937 186.21 C 438.937 193.36 433.161 199.152 426.01 199.152 C 418.86 199.152 413.069 193.36 413.069 186.21 C 413.069 179.06 418.86 173.268 426.01 173.268 Z" style="fill: rgb(30, 30, 30);" transform="matrix(0.965926, -0.258819, 0.258819, 0.965926, -33.678985, 116.602603)"/>
  <path id="circle23" d="M 426.01 174.459 C 419.529 174.459 414.264 179.726 414.264 186.206 C 414.264 192.687 419.529 197.953 426.01 197.953 C 432.492 197.953 437.758 192.687 437.758 186.206 C 437.758 179.726 432.492 174.459 426.01 174.459 Z M 426.01 175.381 C 431.993 175.381 436.836 180.222 436.836 186.206 C 436.836 192.189 431.993 197.03 426.01 197.03 C 420.028 197.03 415.185 192.189 415.185 186.206 C 415.185 180.223 420.028 175.381 426.01 175.381 Z" style="fill: rgb(30, 30, 30);" transform="matrix(0.965926, -0.25882, 0.25882, 0.965926, -33.677739, 116.604928)"/>
  <path id="path29" d="M 306.686 212.1 C 304.314 212.1 302.382 214.046 302.382 216.42 C 302.382 218.793 304.314 220.724 306.686 220.724 L 318.692 220.724 C 321.065 220.724 322.996 218.791 322.996 216.42 C 322.996 214.046 321.065 212.1 318.692 212.1 L 306.686 212.1 Z M 306.686 213.022 L 318.692 213.022 C 320.567 213.022 322.075 214.544 322.075 216.42 C 322.075 218.295 320.567 219.802 318.692 219.802 L 306.686 219.802 C 304.811 219.802 303.303 218.295 303.303 216.42 C 303.303 214.545 304.811 213.022 306.686 213.022 Z" style="fill: rgb(30, 30, 30);" transform="matrix(0.965926, -0.258819, 0.258819, 0.965926, -45.35692, 88.3039)"/>
  <path id="path31" d="M 306.687 209.699 C 302.984 209.699 299.979 212.719 299.979 216.422 C 299.979 220.125 302.984 223.131 306.687 223.131 L 318.693 223.131 C 322.397 223.131 325.416 220.125 325.416 216.422 C 325.416 212.719 322.397 209.699 318.693 209.699 L 306.687 209.699 Z M 306.687 210.621 L 318.693 210.621 C 321.898 210.621 324.494 213.217 324.494 216.422 C 324.494 219.627 321.898 222.209 318.693 222.209 L 306.687 222.209 C 303.481 222.209 300.901 219.627 300.901 216.422 C 300.901 213.217 303.482 210.621 306.687 210.621 Z" style="fill: rgb(30, 30, 30);" transform="matrix(0.965926, -0.258819, 0.258819, 0.965926, -45.357405, 88.306204)"/>
  <path id="path33" d="M 338.777 203.501 C 336.404 203.501 334.473 205.447 334.473 207.821 C 334.473 210.194 336.405 212.125 338.777 212.125 L 350.783 212.125 C 353.156 212.125 355.087 210.192 355.087 207.821 C 355.087 205.447 353.156 203.501 350.783 203.501 L 338.777 203.501 Z M 338.777 204.423 L 350.783 204.423 C 352.657 204.423 354.166 205.946 354.166 207.821 C 354.166 209.696 352.658 211.203 350.783 211.203 L 338.777 211.203 C 336.902 211.203 335.394 209.696 335.394 207.821 C 335.394 205.946 336.902 204.423 338.777 204.423 Z" style="fill: rgb(30, 30, 30);" transform="matrix(0.965926, -0.25882, 0.25882, 0.965926, -42.037953, 96.316986)"/>
  <path id="path35" d="M 338.779 201.104 C 335.075 201.104 332.056 204.124 332.056 207.827 C 332.056 211.53 335.075 214.536 338.779 214.536 L 350.785 214.536 C 354.489 214.536 357.493 211.53 357.493 207.827 C 357.493 204.124 354.489 201.104 350.785 201.104 L 338.779 201.104 Z M 338.779 202.026 L 350.785 202.026 C 353.992 202.026 356.571 204.622 356.571 207.827 C 356.571 211.032 353.992 213.614 350.785 213.614 L 338.779 213.614 C 335.573 213.614 332.978 211.032 332.978 207.827 C 332.978 204.622 335.573 202.026 338.779 202.026 Z" style="fill: rgb(30, 30, 30);" transform="matrix(0.965926, -0.25882, 0.25882, 0.965926, -42.039954, 96.315806)"/>
  <path id="path37" d="M 229.564 187.529 C 223.099 187.529 217.009 189.21 211.729 192.15 L 210.404 192.884 L 210.001 193.115 L 210.217 193.518 L 211.7 196.167 L 211.93 196.569 L 212.333 196.354 L 213.658 195.605 C 218.369 192.983 223.785 191.502 229.564 191.502 C 238.618 191.503 246.793 195.158 252.727 201.089 C 258.658 207.023 262.328 215.197 262.328 224.251 C 262.327 234.695 257.439 243.986 249.833 249.99 L 248.638 250.927 L 248.279 251.215 L 248.567 251.575 L 250.453 253.965 L 250.741 254.324 L 251.1 254.037 L 252.295 253.101 C 260.814 246.381 266.288 235.943 266.288 224.251 C 266.286 203.976 249.841 187.53 229.564 187.529 L 229.564 187.529 Z M 229.564 188.45 C 249.343 188.451 265.365 204.473 265.366 224.251 C 265.366 235.654 260.024 245.827 251.719 252.38 L 250.884 253.027 L 249.574 251.357 L 250.409 250.71 C 258.227 244.538 263.249 234.98 263.25 224.251 C 263.249 214.947 259.471 206.538 253.374 200.44 C 247.275 194.344 238.866 190.58 229.564 190.579 C 223.625 190.579 218.055 192.117 213.21 194.812 L 212.29 195.33 L 211.253 193.473 L 212.174 192.955 C 217.322 190.09 223.258 188.45 229.564 188.45 L 229.564 188.45 Z" style="fill: rgb(30, 30, 30);" transform="matrix(0.965926, -0.258819, 0.258819, 0.965926, -49.065394, 69.164188)"/>
</svg>