<?xml version="1.0" encoding="utf-8"?>
<svg version="1.1" id="Layer_1" x="0px" y="0px" width="407px" height="136px" viewBox="0 0 283.0199890136719 136" enable-background="new 0 0 407 136" xmlns="http://www.w3.org/2000/svg">
  <g transform="matrix(1, 0, 0, 1, -118.490021, 0)">
    <path d="M401.51,129c-94.34,0-188.68,0.01-283.02-0.01c0.01-4,0.01-8,0-11.99c94.34,0.01,188.68-0.01,283.02,0V129z" style="fill: rgb(255, 255, 255);"/>
  </g>
  <path d="M 20.072 70.199 C 25.131 70.198 30.167 69.889 34.92 68.08 C 47.63 63.7 56.05 50.27 55.63 37.01 C 55.26 30.51 53.06 24.08 49.13 18.87 C 43.28 10.6 33.09 5.91 23.04 6.16 L 0.43 6.151 L 0.43 25.256 L 0.37 25.519 L 0.43 25.514 L 0.43 95.32 L 9.63 95.32 L 9.63 70.199 M 9.54 14.39 C 14.72 14.38 19.9 14.27 25.07 14.51 C 32.77 15.02 40.25 19.32 44.02 26.14 C 48.74 34.21 48.2 45.13 42.38 52.5 C 38.32 57.97 31.71 61.47 24.88 61.58 C 19.8 61.65 14.823 61.613 9.63 61.613 L 9.54 14.39 Z" style="fill: rgb(255, 255, 255);"/>
  <path d="M 22.01 70.181" style="fill: rgb(255, 255, 255);"/>
  <g transform="matrix(1, 0, 0, 1, -118.490021, 0)">
    <path d="M274.112,57.437V40.11h-13.535c0.92,3.272,1.422,6.719,1.422,10.285c0,2.408-0.234,4.759-0.663,7.043H274.112z" style="fill: rgb(255, 255, 255);"/>
    <path d="M258.027,67.297c-6.217,12.473-19.092,21.045-33.975,21.045c-20.958,0-37.948-16.99-37.948-37.948&#10;&#9;&#9;s16.99-37.948,37.948-37.948c13.555,0,25.442,7.112,32.154,17.803h9.542c-7.493-15.484-23.341-26.17-41.697-26.17&#10;&#9;&#9;c-25.579,0-46.315,20.736-46.315,46.315s20.736,46.315,46.315,46.315c19.612,0,36.362-12.195,43.115-29.412H258.027z" style="fill: rgb(255, 255, 255);"/>
  </g>
  <polygon points="207.48 23.83 207.48 6.151 179.81 6.151 172.01 6.151 162.87 6.151 162.87 95.35 179.81 95.35 179.81 57.437 206.206 57.437 206.206 40.11 179.81 40.11 179.81 23.83" style="fill: rgb(255, 255, 255);"/>
  <polygon points="278.51 95.35 252.01 49.002 276.51 6.151 256.12 6.151 241.815 31.171 227.51 6.151 207.12 6.151 231.62 49.002 205.12 95.35 225.51 95.35 241.815 66.833 258.12 95.35" style="fill: rgb(255, 255, 255);"/>
  <g transform="matrix(1, 0, 0, 1, -118.490021, 0)">
    <path d="M128.272,113v-9.217L124.378,113h-0.896l-3.88-9.217V113h-1.037v-10.352h1.611l3.768,8.811l3.754-8.811h1.611V113H128.272z&#10;&#9;&#9;" style="fill: rgb(255, 255, 255);"/>
    <path d="M134.862,113.182c-2.087,0-3.516-1.261-3.516-4.076v-6.458h1.037v6.458c0,2.115,0.869,3.124,2.493,3.124&#10;&#9;&#9;c1.597,0,2.479-1.008,2.479-3.124v-6.458h1.037v6.458C138.392,111.921,136.963,113.182,134.862,113.182z" style="fill: rgb(255, 255, 255);"/>
    <path d="M140.432,113v-10.352h1.037v9.413h4.286V113H140.432z" style="fill: rgb(255, 255, 255);"/>
    <path d="M148.624,103.587V113h-1.037v-9.413h-2.367v-0.938h5.771v0.938H148.624z" style="fill: rgb(255, 255, 255);"/>
    <path d="M152.066,113v-10.352h1.037V113H152.066z" style="fill: rgb(255, 255, 255);"/>
    <path d="M164.854,113v-9.217L160.959,113h-0.896l-3.88-9.217V113h-1.037v-10.352h1.611l3.768,8.811l3.754-8.811h1.611V113H164.854z&#10;&#9;&#9;" style="fill: rgb(255, 255, 255);"/>
    <path d="M167.928,113v-10.352h5.659v0.938h-4.623v3.712h4.468v0.938h-4.468v3.824h4.623V113H167.928z" style="fill: rgb(255, 255, 255);"/>
    <path d="M178.136,113h-2.788v-10.352h2.438c1.877,0,2.97,0.224,3.95,0.813c1.541,0.91,2.353,2.451,2.353,4.398&#10;&#9;&#9;C184.089,110.843,182.184,113,178.136,113z M181.162,104.259c-0.785-0.476-1.765-0.672-3.334-0.672h-1.443v8.475h1.443&#10;&#9;&#9;c1.835,0,2.899-0.266,3.726-0.924c0.953-0.771,1.485-1.961,1.485-3.32C183.039,106.276,182.352,104.974,181.162,104.259z" style="fill: rgb(255, 255, 255);"/>
    <path d="M185.68,113v-10.352h1.037V113H185.68z" style="fill: rgb(255, 255, 255);"/>
    <path d="M196.772,113l-1.499-3.488h-4.819L188.942,113h-1.092l4.44-10.352h1.163L197.907,113H196.772z M192.878,103.825&#10;&#9;&#9;l-2.031,4.749h4.02L192.878,103.825z" style="fill: rgb(255, 255, 255);"/>
    <path d="M202.83,113v-10.352h5.659v0.938h-4.623v3.712h4.468v0.938h-4.468v3.824h4.623V113H202.83z" style="fill: rgb(255, 255, 255);"/>
    <path d="M217.45,113l-6.164-9.105V113h-1.037v-10.352h1.401l5.799,8.586v-8.586h1.037V113H217.45z" style="fill: rgb(255, 255, 255);"/>
    <path d="M222.963,103.587V113h-1.037v-9.413h-2.367v-0.938h5.771v0.938H222.963z" style="fill: rgb(255, 255, 255);"/>
    <path d="M226.405,113v-10.352h5.659v0.938h-4.623v3.712h4.468v0.938h-4.468v3.824h4.623V113H226.405z" style="fill: rgb(255, 255, 255);"/>
    <path d="M237.79,109.134l2.899,3.866H239.4l-3.488-4.692c2.899,0,3.88-0.504,3.88-2.367c0-1.723-1.064-2.354-3.474-2.354h-1.457&#10;&#9;&#9;V113h-1.037v-10.352h2.563c3.25,0,4.455,1.177,4.455,3.334C240.843,107.817,239.778,108.924,237.79,109.134z" style="fill: rgb(255, 255, 255);"/>
    <path d="M244.677,103.587V113h-1.037v-9.413h-2.367v-0.938h5.771v0.938H244.677z" style="fill: rgb(255, 255, 255);"/>
    <path d="M255.432,113l-1.499-3.488h-4.819L247.601,113h-1.092l4.44-10.352h1.163L256.566,113H255.432z M251.537,103.825&#10;&#9;&#9;l-2.031,4.749h4.02L251.537,103.825z" style="fill: rgb(255, 255, 255);"/>
    <path d="M257.695,113v-10.352h1.037V113H257.695z" style="fill: rgb(255, 255, 255);"/>
    <path d="M267.975,113l-6.164-9.105V113h-1.037v-10.352h1.401l5.799,8.586v-8.586h1.037V113H267.975z" style="fill: rgb(255, 255, 255);"/>
    <path d="M280.758,113v-9.217L276.864,113h-0.896l-3.88-9.217V113h-1.037v-10.352h1.611l3.768,8.811l3.754-8.811h1.611V113H280.758z&#10;&#9;&#9;" style="fill: rgb(255, 255, 255);"/>
    <path d="M283.833,113v-10.352h5.659v0.938h-4.623v3.712h4.468v0.938h-4.468v3.824h4.623V113H283.833z" style="fill: rgb(255, 255, 255);"/>
    <path d="M298.453,113l-6.164-9.105V113h-1.037v-10.352h1.401l5.799,8.586v-8.586h1.036V113H298.453z" style="fill: rgb(255, 255, 255);"/>
    <path d="M303.966,103.587V113h-1.037v-9.413h-2.367v-0.938h5.771v0.938H303.966z" style="fill: rgb(255, 255, 255);"/>
    <path d="M314.228,108.812h-1.989V113h-1.037v-10.352h2.857c2.844,0,3.992,0.966,3.992,3.138&#10;&#9;&#9;C318.052,107.747,317.043,108.812,314.228,108.812z M313.709,103.587h-1.471v4.286h1.919c2.059,0,2.844-0.588,2.844-2.087&#10;&#9;&#9;C317.001,103.685,315.685,103.587,313.709,103.587z" style="fill: rgb(255, 255, 255);"/>
    <path d="M319.406,113v-10.352h1.037v9.413h4.287V113H319.406z" style="fill: rgb(255, 255, 255);"/>
    <path d="M334.292,113l-1.499-3.488h-4.819L326.462,113h-1.092l4.44-10.352h1.163L335.427,113H334.292z M330.398,103.825&#10;&#9;&#9;l-2.031,4.749h4.02L330.398,103.825z" style="fill: rgb(255, 255, 255);"/>
    <path d="M339.092,109.54V113h-1.037v-3.46l-3.586-6.892h1.149l2.941,5.799l3.012-5.799h1.135L339.092,109.54z" style="fill: rgb(255, 255, 255);"/>
    <path d="M343.71,113v-10.352h5.659v0.938h-4.623v3.712h4.468v0.938h-4.468v3.824h4.623V113H343.71z" style="fill: rgb(255, 255, 255);"/>
    <path d="M355.094,109.134l2.899,3.866h-1.289l-3.488-4.692c2.899,0,3.88-0.504,3.88-2.367c0-1.723-1.064-2.354-3.474-2.354h-1.457&#10;&#9;&#9;V113h-1.037v-10.352h2.563c3.25,0,4.455,1.177,4.455,3.334C358.148,107.817,357.083,108.924,355.094,109.134z" style="fill: rgb(255, 255, 255);"/>
    <path d="M366.363,108.812h-1.989V113h-1.037v-10.352h2.858c2.843,0,3.992,0.966,3.992,3.138&#10;&#9;&#9;C370.187,107.747,369.179,108.812,366.363,108.812z M365.845,103.587h-1.471v4.286h1.919c2.059,0,2.844-0.588,2.844-2.087&#10;&#9;&#9;C369.137,103.685,367.82,103.587,365.845,103.587z" style="fill: rgb(255, 255, 255);"/>
    <path d="M376.528,113.182c-3.096,0-5.435-2.297-5.435-5.323c0-3.096,2.283-5.393,5.365-5.393c2.143,0,3.964,1.093,4.762,2.872&#10;&#9;&#9;h-1.163c-0.882-1.387-2.101-1.919-3.558-1.919c-2.465,0-4.356,1.905-4.356,4.398c0,2.423,1.975,4.412,4.37,4.412&#10;&#9;&#9;c1.513,0,2.507-0.574,3.6-1.947h1.148C380.227,112.202,378.629,113.182,376.528,113.182z" style="fill: rgb(255, 255, 255);"/>
    <path d="M387.67,103.587v3.74h4.063v0.938h-4.063V113h-1.037v-10.352h5.253v0.938H387.67z" style="fill: rgb(255, 255, 255);"/>
    <path d="M399.474,113l-2.927-4.426L393.605,113h-1.218l3.516-5.295l-3.32-5.057h1.219l2.746,4.146l2.731-4.146h1.205l-3.32,5.057&#10;&#9;&#9;l3.53,5.295H399.474z" style="fill: rgb(255, 255, 255);"/>
  </g>
  <g transform="matrix(1, 0, 0, 1, -118.490021, 0)">
    <path d="M383.604,108.757c-0.42,0-0.755-0.336-0.755-0.756c0-0.419,0.335-0.755,0.755-0.755c0.408,0,0.756,0.336,0.756,0.755&#10;&#9;&#9;C384.36,108.421,384.012,108.757,383.604,108.757z" style="fill: rgb(255, 255, 255);"/>
  </g>
</svg>