<?xml version="1.0" encoding="utf-8"?>
<svg version="1.1" id="Layer_1" x="0px" y="0px" enable-background="new 0 0 407 136" xmlns="http://www.w3.org/2000/svg">
  <g transform="matrix(0.499134, 0, 0, 0.499134, 0, 0)"/>
  <path d="M 69.161 35.039 C 71.686 35.038 74.2 34.884 76.572 33.981 C 82.916 31.795 87.119 25.091 86.909 18.473 C 86.725 15.229 85.626 12.019 83.665 9.419 C 80.745 5.291 75.659 2.95 70.642 3.075 L 59.357 3.07 L 59.357 12.606 L 59.327 12.737 L 59.357 12.735 L 59.357 47.577 L 63.949 47.577 L 63.949 35.039 M 63.904 7.183 C 66.49 7.178 69.075 7.123 71.656 7.242 C 75.499 7.497 79.233 9.643 81.114 13.047 C 83.47 17.075 83.201 22.526 80.296 26.205 C 78.269 28.935 74.97 30.682 71.561 30.737 C 69.025 30.772 66.541 30.753 63.949 30.753 L 63.904 7.183 Z" style="fill: rgb(255, 255, 255);"/>
  <path d="M 70.128 35.03" style="fill: rgb(255, 255, 255);"/>
  <g transform="matrix(0.499134, 0, 0, 0.499134, 0, 0)">
    <path d="M274.112,57.437V40.11h-13.535c0.92,3.272,1.422,6.719,1.422,10.285c0,2.408-0.234,4.759-0.663,7.043H274.112z" style="fill: rgb(255, 255, 255);"/>
    <path d="M258.027,67.297c-6.217,12.473-19.092,21.045-33.975,21.045c-20.958,0-37.948-16.99-37.948-37.948&#10;&#9;&#9;s16.99-37.948,37.948-37.948c13.555,0,25.442,7.112,32.154,17.803h9.542c-7.493-15.484-23.341-26.17-41.697-26.17&#10;&#9;&#9;c-25.579,0-46.315,20.736-46.315,46.315s20.736,46.315,46.315,46.315c19.612,0,36.362-12.195,43.115-29.412H258.027z" style="fill: rgb(255, 255, 255);"/>
  </g>
  <polygon points="162.703 11.894 162.703 3.07 148.892 3.07 144.998 3.07 140.436 3.07 140.436 47.592 148.892 47.592 148.892 28.669 162.067 28.669 162.067 20.02 148.892 20.02 148.892 11.894" style="fill: rgb(255, 255, 255);"/>
  <polygon points="198.156 47.592 184.929 24.459 197.158 3.07 186.981 3.07 179.84 15.559 172.7 3.07 162.523 3.07 174.752 24.459 161.525 47.592 171.702 47.592 179.84 33.359 187.979 47.592" style="fill: rgb(255, 255, 255);"/>
  <g transform="matrix(0.499134, 0, 0, 0.499134, 0, 0)">
    <path d="M128.272,113v-9.217L124.378,113h-0.896l-3.88-9.217V113h-1.037v-10.352h1.611l3.768,8.811l3.754-8.811h1.611V113H128.272z&#10;&#9;&#9;" style="fill: rgb(255, 255, 255);"/>
    <path d="M134.862,113.182c-2.087,0-3.516-1.261-3.516-4.076v-6.458h1.037v6.458c0,2.115,0.869,3.124,2.493,3.124&#10;&#9;&#9;c1.597,0,2.479-1.008,2.479-3.124v-6.458h1.037v6.458C138.392,111.921,136.963,113.182,134.862,113.182z" style="fill: rgb(255, 255, 255);"/>
    <path d="M140.432,113v-10.352h1.037v9.413h4.286V113H140.432z" style="fill: rgb(255, 255, 255);"/>
    <path d="M148.624,103.587V113h-1.037v-9.413h-2.367v-0.938h5.771v0.938H148.624z" style="fill: rgb(255, 255, 255);"/>
    <path d="M152.066,113v-10.352h1.037V113H152.066z" style="fill: rgb(255, 255, 255);"/>
    <path d="M164.854,113v-9.217L160.959,113h-0.896l-3.88-9.217V113h-1.037v-10.352h1.611l3.768,8.811l3.754-8.811h1.611V113H164.854z&#10;&#9;&#9;" style="fill: rgb(255, 255, 255);"/>
    <path d="M167.928,113v-10.352h5.659v0.938h-4.623v3.712h4.468v0.938h-4.468v3.824h4.623V113H167.928z" style="fill: rgb(255, 255, 255);"/>
    <path d="M178.136,113h-2.788v-10.352h2.438c1.877,0,2.97,0.224,3.95,0.813c1.541,0.91,2.353,2.451,2.353,4.398&#10;&#9;&#9;C184.089,110.843,182.184,113,178.136,113z M181.162,104.259c-0.785-0.476-1.765-0.672-3.334-0.672h-1.443v8.475h1.443&#10;&#9;&#9;c1.835,0,2.899-0.266,3.726-0.924c0.953-0.771,1.485-1.961,1.485-3.32C183.039,106.276,182.352,104.974,181.162,104.259z" style="fill: rgb(255, 255, 255);"/>
    <path d="M185.68,113v-10.352h1.037V113H185.68z" style="fill: rgb(255, 255, 255);"/>
    <path d="M196.772,113l-1.499-3.488h-4.819L188.942,113h-1.092l4.44-10.352h1.163L197.907,113H196.772z M192.878,103.825&#10;&#9;&#9;l-2.031,4.749h4.02L192.878,103.825z" style="fill: rgb(255, 255, 255);"/>
    <path d="M202.83,113v-10.352h5.659v0.938h-4.623v3.712h4.468v0.938h-4.468v3.824h4.623V113H202.83z" style="fill: rgb(255, 255, 255);"/>
    <path d="M217.45,113l-6.164-9.105V113h-1.037v-10.352h1.401l5.799,8.586v-8.586h1.037V113H217.45z" style="fill: rgb(255, 255, 255);"/>
    <path d="M222.963,103.587V113h-1.037v-9.413h-2.367v-0.938h5.771v0.938H222.963z" style="fill: rgb(255, 255, 255);"/>
    <path d="M226.405,113v-10.352h5.659v0.938h-4.623v3.712h4.468v0.938h-4.468v3.824h4.623V113H226.405z" style="fill: rgb(255, 255, 255);"/>
    <path d="M237.79,109.134l2.899,3.866H239.4l-3.488-4.692c2.899,0,3.88-0.504,3.88-2.367c0-1.723-1.064-2.354-3.474-2.354h-1.457&#10;&#9;&#9;V113h-1.037v-10.352h2.563c3.25,0,4.455,1.177,4.455,3.334C240.843,107.817,239.778,108.924,237.79,109.134z" style="fill: rgb(255, 255, 255);"/>
    <path d="M244.677,103.587V113h-1.037v-9.413h-2.367v-0.938h5.771v0.938H244.677z" style="fill: rgb(255, 255, 255);"/>
    <path d="M255.432,113l-1.499-3.488h-4.819L247.601,113h-1.092l4.44-10.352h1.163L256.566,113H255.432z M251.537,103.825&#10;&#9;&#9;l-2.031,4.749h4.02L251.537,103.825z" style="fill: rgb(255, 255, 255);"/>
    <path d="M257.695,113v-10.352h1.037V113H257.695z" style="fill: rgb(255, 255, 255);"/>
    <path d="M267.975,113l-6.164-9.105V113h-1.037v-10.352h1.401l5.799,8.586v-8.586h1.037V113H267.975z" style="fill: rgb(255, 255, 255);"/>
    <path d="M280.758,113v-9.217L276.864,113h-0.896l-3.88-9.217V113h-1.037v-10.352h1.611l3.768,8.811l3.754-8.811h1.611V113H280.758z&#10;&#9;&#9;" style="fill: rgb(255, 255, 255);"/>
    <path d="M283.833,113v-10.352h5.659v0.938h-4.623v3.712h4.468v0.938h-4.468v3.824h4.623V113H283.833z" style="fill: rgb(255, 255, 255);"/>
    <path d="M298.453,113l-6.164-9.105V113h-1.037v-10.352h1.401l5.799,8.586v-8.586h1.036V113H298.453z" style="fill: rgb(255, 255, 255);"/>
    <path d="M303.966,103.587V113h-1.037v-9.413h-2.367v-0.938h5.771v0.938H303.966z" style="fill: rgb(255, 255, 255);"/>
    <path d="M314.228,108.812h-1.989V113h-1.037v-10.352h2.857c2.844,0,3.992,0.966,3.992,3.138&#10;&#9;&#9;C318.052,107.747,317.043,108.812,314.228,108.812z M313.709,103.587h-1.471v4.286h1.919c2.059,0,2.844-0.588,2.844-2.087&#10;&#9;&#9;C317.001,103.685,315.685,103.587,313.709,103.587z" style="fill: rgb(255, 255, 255);"/>
    <path d="M319.406,113v-10.352h1.037v9.413h4.287V113H319.406z" style="fill: rgb(255, 255, 255);"/>
    <path d="M334.292,113l-1.499-3.488h-4.819L326.462,113h-1.092l4.44-10.352h1.163L335.427,113H334.292z M330.398,103.825&#10;&#9;&#9;l-2.031,4.749h4.02L330.398,103.825z" style="fill: rgb(255, 255, 255);"/>
    <path d="M339.092,109.54V113h-1.037v-3.46l-3.586-6.892h1.149l2.941,5.799l3.012-5.799h1.135L339.092,109.54z" style="fill: rgb(255, 255, 255);"/>
    <path d="M343.71,113v-10.352h5.659v0.938h-4.623v3.712h4.468v0.938h-4.468v3.824h4.623V113H343.71z" style="fill: rgb(255, 255, 255);"/>
    <path d="M355.094,109.134l2.899,3.866h-1.289l-3.488-4.692c2.899,0,3.88-0.504,3.88-2.367c0-1.723-1.064-2.354-3.474-2.354h-1.457&#10;&#9;&#9;V113h-1.037v-10.352h2.563c3.25,0,4.455,1.177,4.455,3.334C358.148,107.817,357.083,108.924,355.094,109.134z" style="fill: rgb(255, 255, 255);"/>
    <path d="M366.363,108.812h-1.989V113h-1.037v-10.352h2.858c2.843,0,3.992,0.966,3.992,3.138&#10;&#9;&#9;C370.187,107.747,369.179,108.812,366.363,108.812z M365.845,103.587h-1.471v4.286h1.919c2.059,0,2.844-0.588,2.844-2.087&#10;&#9;&#9;C369.137,103.685,367.82,103.587,365.845,103.587z" style="fill: rgb(255, 255, 255);"/>
    <path d="M376.528,113.182c-3.096,0-5.435-2.297-5.435-5.323c0-3.096,2.283-5.393,5.365-5.393c2.143,0,3.964,1.093,4.762,2.872&#10;&#9;&#9;h-1.163c-0.882-1.387-2.101-1.919-3.558-1.919c-2.465,0-4.356,1.905-4.356,4.398c0,2.423,1.975,4.412,4.37,4.412&#10;&#9;&#9;c1.513,0,2.507-0.574,3.6-1.947h1.148C380.227,112.202,378.629,113.182,376.528,113.182z" style="fill: rgb(255, 255, 255);"/>
    <path d="M387.67,103.587v3.74h4.063v0.938h-4.063V113h-1.037v-10.352h5.253v0.938H387.67z" style="fill: rgb(255, 255, 255);"/>
    <path d="M399.474,113l-2.927-4.426L393.605,113h-1.218l3.516-5.295l-3.32-5.057h1.219l2.746,4.146l2.731-4.146h1.205l-3.32,5.057&#10;&#9;&#9;l3.53,5.295H399.474z" style="fill: rgb(255, 255, 255);"/>
  </g>
  <g transform="matrix(0.499134, 0, 0, 0.499134, 0, 0)">
    <path d="M383.604,108.757c-0.42,0-0.755-0.336-0.755-0.756c0-0.419,0.335-0.755,0.755-0.755c0.408,0,0.756,0.336,0.756,0.755&#10;&#9;&#9;C384.36,108.421,384.012,108.757,383.604,108.757z" style="fill: rgb(255, 255, 255);"/>
  </g>
</svg>