<?xml version="1.0" encoding="utf-8"?>
<svg xmlns="http://www.w3.org/2000/svg">
  <path id="path5" d="M 239.79 120.791 C 207.093 120.791 180.573 147.296 180.573 179.993 C 180.573 212.691 207.092 239.209 239.789 239.209 C 252.697 239.209 264.634 235.084 274.365 228.071 L 274.379 228.057 L 275.598 227.125 L 275.598 227.111 L 275.612 227.111 C 277.57 225.547 280.047 224.617 282.75 224.617 L 304.597 224.617 L 335.403 224.617 L 357.249 224.617 C 359.954 224.617 362.43 225.547 364.388 227.111 L 364.403 227.111 L 364.403 227.125 L 365.621 228.057 L 365.635 228.071 C 375.365 235.084 387.304 239.209 400.211 239.209 C 432.909 239.209 459.427 212.69 459.427 179.993 C 459.427 147.296 432.907 120.791 400.211 120.791 L 335.848 120.791 L 323.936 120.791 L 323.478 120.791 L 323.478 121.25 L 323.478 121.852 L 316.654 121.852 L 316.654 121.25 L 316.654 120.791 L 316.196 120.791 L 304.155 120.791 L 239.791 120.791 L 239.79 120.791 Z M 239.79 121.709 L 304.153 121.709 L 315.735 121.709 L 315.735 122.311 L 315.735 122.77 L 316.194 122.77 L 323.934 122.77 L 324.393 122.77 L 324.393 122.311 L 324.393 121.709 L 335.846 121.709 L 400.209 121.709 C 432.411 121.709 458.507 147.793 458.507 179.993 C 458.507 212.195 432.409 238.291 400.209 238.291 C 387.502 238.291 375.756 234.225 366.177 227.325 L 366.163 227.325 L 364.959 226.394 C 362.844 224.705 360.163 223.699 357.247 223.699 L 335.401 223.699 L 304.596 223.699 L 282.749 223.699 C 279.832 223.699 277.152 224.705 275.036 226.394 L 273.832 227.325 L 273.819 227.325 C 264.245 234.229 252.501 238.293 239.79 238.293 C 207.589 238.293 181.492 212.197 181.492 179.995 C 181.492 147.794 207.59 121.71 239.791 121.71 L 239.79 121.709 Z" style="fill: rgb(30, 30, 30);" transform="matrix(0.965926, -0.258819, 0.258819, 0.965926, -35.683696, 88.95547)"/>
  <path id="circle9" d="M 242.752 168.703 C 225.197 168.703 210.958 182.944 210.958 200.498 C 210.958 218.052 225.198 232.293 242.752 232.293 C 260.307 232.293 274.561 218.052 274.561 200.498 C 274.561 182.943 260.307 168.703 242.752 168.703 Z M 242.752 169.621 C 259.811 169.621 273.644 183.439 273.644 200.498 C 273.644 217.555 259.811 231.374 242.752 231.374 C 225.693 231.374 211.875 217.555 211.875 200.498 C 211.875 183.439 225.694 169.621 242.752 169.621 Z" style="fill: rgb(30, 30, 30);" transform="matrix(0.965926, -0.258819, 0.258819, 0.965926, -43.620822, 69.662475)"/>
  <path id="path13" d="M 236.443 175.799 C 234.966 175.799 233.763 177.002 233.763 178.48 L 233.763 190.98 C 233.763 191.224 233.727 191.278 233.763 191.239 C 233.798 191.197 233.763 191.252 233.462 191.252 L 220.991 191.252 C 219.513 191.252 218.296 192.469 218.296 193.948 L 218.296 207.048 C 218.296 208.527 219.513 209.743 220.991 209.743 L 233.419 209.744 C 233.637 209.744 233.708 209.79 233.72 209.801 C 233.732 209.812 233.764 209.841 233.764 210.031 L 233.764 222.515 C 233.764 223.995 234.966 225.197 236.444 225.197 L 249.074 225.197 C 250.551 225.197 251.754 223.995 251.754 222.515 L 251.754 210.002 C 251.754 209.862 251.777 209.82 251.797 209.802 C 251.817 209.782 251.884 209.744 252.07 209.744 L 264.526 209.744 C 266.003 209.744 267.221 208.527 267.221 207.049 L 267.221 193.948 C 267.221 192.47 266.003 191.252 264.526 191.252 L 252.054 191.252 C 251.902 191.252 251.839 191.222 251.81 191.195 C 251.782 191.166 251.753 191.121 251.753 190.98 L 251.753 178.48 C 251.753 177.002 250.55 175.799 249.073 175.799 L 236.443 175.799 L 236.443 175.799 Z M 236.443 176.717 L 249.073 176.717 C 250.055 176.717 250.836 177.497 250.836 178.48 L 250.836 190.98 C 250.836 191.302 250.937 191.628 251.166 191.854 C 251.395 192.078 251.727 192.169 252.055 192.169 L 264.526 192.169 C 265.508 192.169 266.303 192.965 266.303 193.947 L 266.303 207.048 C 266.303 208.03 265.508 208.825 264.526 208.825 L 252.07 208.825 C 251.729 208.825 251.401 208.915 251.166 209.141 C 250.933 209.368 250.837 209.693 250.837 210.001 L 250.837 222.515 C 250.837 223.497 250.056 224.278 249.074 224.278 L 236.444 224.278 C 235.463 224.278 234.681 223.497 234.681 222.515 L 234.681 210.029 C 234.681 209.694 234.59 209.343 234.337 209.112 C 234.085 208.88 233.759 208.825 233.419 208.825 L 220.991 208.825 C 220.009 208.825 219.214 208.03 219.214 207.047 L 219.214 193.947 C 219.214 192.964 220.009 192.169 220.991 192.169 L 233.463 192.169 C 233.856 192.169 234.21 192.117 234.452 191.839 C 234.693 191.561 234.68 191.261 234.68 190.979 L 234.68 178.479 C 234.68 177.497 235.462 176.716 236.443 176.717 L 236.443 176.717 Z" style="fill: rgb(30, 30, 30);" transform="matrix(0.965926, -0.258819, 0.258819, 0.965926, -43.620893, 69.662302)"/>
  <path id="path25" d="M 303.978 185.223 C 302.904 185.128 301.785 185.452 300.896 186.198 L 288.899 196.261 C 287.12 197.752 286.877 200.419 288.367 202.196 C 289.858 203.974 292.525 204.202 294.303 202.712 L 306.316 192.648 C 308.094 191.158 308.321 188.492 306.832 186.713 C 306.087 185.824 305.054 185.317 303.979 185.223 L 303.978 185.223 Z M 303.892 186.141 C 304.731 186.215 305.543 186.603 306.129 187.302 C 307.301 188.7 307.125 190.775 305.727 191.946 L 293.715 202.009 C 292.316 203.18 290.242 203.006 289.07 201.609 C 287.898 200.21 288.087 198.135 289.486 196.964 L 301.499 186.9 C 302.199 186.314 303.054 186.066 303.893 186.14 L 303.892 186.141 Z" style="fill: rgb(30, 30, 30);" transform="matrix(0.965926, -0.25882, 0.25882, 0.965926, -40.187181, 83.651203)"/>
  <path id="path27" d="M 302.931 182.97 C 301.689 183.099 300.474 183.586 299.447 184.447 L 287.433 194.524 C 284.695 196.821 284.336 200.904 286.631 203.642 C 288.926 206.38 293.024 206.74 295.762 204.444 L 307.775 194.382 C 310.513 192.086 310.872 188.003 308.578 185.265 C 307.143 183.553 304.999 182.757 302.93 182.971 L 302.931 182.97 Z M 304.092 183.874 C 305.509 183.998 306.888 184.673 307.876 185.852 C 309.853 188.21 309.531 191.702 307.174 193.678 L 295.176 203.741 C 292.817 205.717 289.311 205.412 287.334 203.054 C 285.358 200.695 285.664 197.203 288.022 195.227 L 300.035 185.163 C 301.215 184.176 302.676 183.749 304.092 183.874 L 304.092 183.874 Z" style="fill: rgb(30, 30, 30);" transform="matrix(0.965926, -0.258819, 0.258819, 0.965926, -40.185796, 83.651174)"/>
  <path id="path29" d="M 332.974 177.454 C 331.898 177.359 330.795 177.683 329.906 178.429 L 317.893 188.491 C 316.118 189.979 315.881 192.633 317.362 194.411 L 317.362 194.426 C 318.852 196.204 321.519 196.432 323.297 194.941 L 335.31 184.879 C 337.088 183.388 337.316 180.722 335.826 178.944 C 335.081 178.056 334.048 177.548 332.974 177.454 L 332.974 177.454 Z M 332.888 178.371 C 333.726 178.445 334.538 178.833 335.124 179.532 C 336.296 180.93 336.121 183.005 334.722 184.177 L 322.709 194.24 C 321.312 195.411 319.237 195.237 318.065 193.839 C 316.893 192.44 317.082 190.365 318.481 189.194 L 330.494 179.131 C 331.193 178.545 332.049 178.297 332.888 178.371 L 332.888 178.371 Z" style="fill: rgb(30, 30, 30);" transform="matrix(0.965926, -0.258819, 0.258819, 0.965926, -37.188119, 90.891146)"/>
  <path id="path31" d="M 331.927 175.201 C 330.685 175.33 329.47 175.817 328.443 176.678 L 316.43 186.755 C 313.692 189.051 313.331 193.135 315.627 195.873 C 317.921 198.611 322.02 198.97 324.758 196.675 L 336.767 186.611 C 339.506 184.316 339.864 180.232 337.57 177.494 C 336.136 175.783 333.991 174.987 331.922 175.201 L 331.927 175.201 Z M 333.088 176.105 C 334.504 176.229 335.884 176.903 336.872 178.083 C 338.848 180.441 338.528 183.933 336.169 185.909 L 324.171 195.972 C 321.812 197.949 318.306 197.642 316.33 195.285 C 314.354 192.926 314.659 189.434 317.018 187.458 L 329.031 177.395 C 330.21 176.407 331.672 175.98 333.088 176.105 L 333.088 176.105 Z" style="fill: rgb(30, 30, 30);" transform="matrix(0.965926, -0.258819, 0.258819, 0.965926, -37.186904, 90.89067)"/>
  <path id="path33" d="M 397.699 106.391 C 368.621 106.391 345.034 129.98 345.034 159.055 C 345.034 188.134 368.622 211.708 397.699 211.708 C 414.207 211.708 428.941 204.118 438.596 192.227 L 438.639 192.17 L 438.668 192.113 L 438.769 191.869 L 438.998 191.324 L 438.41 191.237 C 438.081 191.192 437.822 190.924 437.822 190.578 C 437.822 190.199 438.118 189.904 438.496 189.904 C 438.812 189.904 439.078 190.108 439.156 190.391 L 439.428 191.409 L 439.987 190.521 L 440.245 190.091 L 440.259 190.062 C 446.607 181.364 450.352 170.646 450.352 159.055 C 450.352 129.978 426.777 106.39 397.7 106.39 L 397.7 106.391 Z M 397.699 107.308 C 426.281 107.308 449.433 130.477 449.433 159.055 C 449.433 170.419 445.764 180.911 439.556 189.446 C 439.27 189.177 438.916 188.987 438.495 188.987 C 437.621 188.987 436.904 189.705 436.904 190.578 C 436.904 191.143 437.258 191.558 437.706 191.84 C 428.216 203.403 413.826 210.791 397.698 210.791 C 369.116 210.791 345.949 187.639 345.949 159.056 C 345.949 130.475 369.117 107.309 397.698 107.309 L 397.699 107.308 Z" style="fill: rgb(30, 30, 30);" transform="matrix(0.965926, -0.258819, 0.258819, 0.965926, -27.613841, 108.349915)"/>
  <path id="circle35" d="M 371.914 155.544 C 365.928 155.544 361.063 160.409 361.063 166.395 C 361.063 172.381 365.928 177.247 371.914 177.247 C 377.901 177.247 382.766 172.381 382.766 166.395 C 382.766 160.409 377.901 155.544 371.914 155.544 Z M 371.914 156.46 C 377.405 156.46 381.848 160.905 381.848 166.395 C 381.848 171.886 377.405 176.329 371.914 176.329 C 366.424 176.329 361.98 171.886 361.98 166.395 C 361.98 160.905 366.424 156.46 371.914 156.46 L 371.914 156.46 Z" style="fill: rgb(30, 30, 30);" transform="matrix(0.965926, -0.258819, 0.258819, 0.965926, -30.393641, 101.92831)"/>
  <path id="circle37" d="M 392.052 128.894 C 386.065 128.894 381.215 133.759 381.215 139.746 C 381.215 145.732 386.066 150.597 392.052 150.597 C 398.038 150.597 402.904 145.732 402.904 139.746 C 402.904 133.759 398.038 128.894 392.052 128.894 Z M 392.052 129.811 C 397.542 129.811 401.986 134.255 401.986 139.746 C 401.986 145.236 397.542 149.679 392.052 149.679 C 386.562 149.679 382.132 145.236 382.132 139.746 C 382.132 134.255 386.561 129.811 392.052 129.811 Z" style="fill: rgb(30, 30, 30);" transform="matrix(0.965926, -0.258819, 0.258819, 0.965926, -22.80969, 106.234147)"/>
  <path id="path39" d="M 394.194 128.974 C 391.561 129.152 388.96 130.084 386.721 131.827 L 360.373 152.355 C 354.411 156.998 353.335 165.615 357.98 171.577 C 362.623 177.539 371.24 178.6 377.203 173.957 L 403.552 153.438 C 409.515 148.796 410.588 140.181 405.946 134.218 C 403.042 130.491 398.579 128.674 394.193 128.971 L 394.194 128.974 Z M 394.265 129.877 C 398.357 129.599 402.506 131.297 405.217 134.78 C 409.557 140.352 408.553 148.374 402.981 152.713 L 376.634 173.24 C 371.062 177.579 363.04 176.575 358.701 171.003 C 354.361 165.432 355.366 157.411 360.937 153.071 L 387.284 132.557 C 389.373 130.93 391.811 130.043 394.265 129.877 L 394.265 129.877 Z" style="fill: rgb(30, 30, 30);" transform="matrix(0.965926, -0.258819, 0.258819, 0.965926, -26.556793, 104.068826)"/>
  <path id="circle41" d="M 403.392 167.858 C 397.406 167.858 392.541 172.724 392.541 178.711 C 392.541 184.697 397.406 189.548 403.392 189.548 C 409.379 189.548 414.229 184.696 414.229 178.711 C 414.229 172.724 409.379 167.858 403.392 167.858 Z M 403.392 168.776 C 408.883 168.776 413.312 173.22 413.312 178.711 C 413.312 184.202 408.883 188.63 403.392 188.63 C 397.901 188.63 393.458 184.202 393.458 178.711 C 393.459 173.22 397.902 168.776 403.392 168.776 Z" style="fill: rgb(30, 30, 30);" transform="matrix(0.965926, -0.258819, 0.258819, 0.965926, -32.506735, 110.492905)"/>
  <path id="circle43" d="M 423.532 141.209 C 417.546 141.209 412.68 146.074 412.68 152.061 C 412.68 158.047 417.547 162.912 423.532 162.912 C 429.519 162.912 434.383 158.047 434.383 152.061 C 434.383 146.074 429.519 141.209 423.532 141.209 Z M 423.532 142.127 C 429.023 142.127 433.466 146.57 433.466 152.06 C 433.466 157.551 429.023 161.994 423.532 161.994 C 418.042 161.994 413.598 157.551 413.598 152.06 C 413.598 146.57 418.042 142.127 423.532 142.127 Z" style="fill: rgb(30, 30, 30);" transform="matrix(0.965926, -0.258819, 0.258819, 0.965926, -24.924663, 114.799314)"/>
  <path id="path45" d="M 425.674 141.29 C 423.042 141.468 420.427 142.401 418.192 144.143 L 391.844 164.67 C 385.881 169.314 384.806 177.93 389.45 183.893 C 394.093 189.854 402.71 190.915 408.674 186.272 L 435.021 165.758 C 440.983 161.115 442.059 152.498 437.415 146.535 C 434.512 142.81 430.061 140.994 425.674 141.29 L 425.674 141.29 Z M 425.732 142.193 C 429.823 141.915 433.972 143.612 436.683 147.095 C 441.023 152.667 440.033 160.689 434.461 165.029 L 408.113 185.556 C 402.541 189.895 394.519 188.891 390.181 183.32 C 385.842 177.748 386.832 169.726 392.403 165.387 L 418.765 144.874 C 420.854 143.245 423.276 142.359 425.732 142.193 L 425.732 142.193 Z" style="fill: rgb(30, 30, 30);" transform="matrix(0.965926, -0.258819, 0.258819, 0.965926, -28.672383, 112.633561)"/>
</svg>