<?xml version="1.0" encoding="utf-8"?>
<svg version="1.1" id="Layer_3" x="0px" y="0px" enable-background="new 0 0 598.189 350.26" preserveAspectRatio="none" xmlns="http://www.w3.org/2000/svg">
  <path d="M 634.928 344.006 C 633.785 344.006 632.486 343.77 631.07 343.304 C 628.119 342.332 625.38 341.573 623.363 341.166 C 620.123 340.515 615.093 339.548 609.528 338.646 C 607.251 338.278 592.246 336.852 586.531 336.852 L 586.396 336.853 C 579.284 336.883 572.826 337.078 571.208 337.18 C 569.426 337.292 567.401 337.348 565.189 337.348 C 539.099 337.348 491.898 329.817 485.148 325.513 C 483.821 325.054 460.323 316.941 450.48 313.431 C 448.57 312.749 440.899 310.483 435.335 309.37 C 426.317 307.567 413.854 305.389 408.519 304.901 C 408.27 304.88 407.963 304.86 407.637 304.84 C 406.807 304.788 405.865 304.729 405.339 304.595 C 403.863 304.224 401.192 303.173 399.911 300.305 C 398.237 296.556 396.929 262.355 396.874 260.9 C 396.88 260.762 397.015 258.678 397.559 257.511 C 400.934 249.099 414.765 220.44 450.564 205.857 C 450.826 205.751 451.28 205.561 451.754 205.361 C 452.343 205.114 452.963 204.854 453.29 204.723 C 454.314 204.312 455.879 203.823 457.523 203.823 C 459.634 203.823 461.281 204.616 462.418 206.181 C 462.767 206.659 463.418 208.663 463.524 209.583 L 463.54 209.722 C 463.618 210.406 463.706 211.182 463.812 211.891 C 464.172 214.306 465.289 217.76 468.57 220.499 C 468.738 220.648 484.227 234.356 499.198 234.356 C 499.735 234.356 500.272 234.337 500.795 234.303 C 501.267 234.272 502.788 233.923 503.574 233.608 C 505.514 232.829 509.375 231.517 513.426 231.484 L 579.607 228.36 C 579.977 228.334 617.833 225.692 629.225 222.598 C 629.558 222.507 630.249 222.343 630.972 222.173 C 631.733 221.992 632.529 221.804 632.96 221.688 C 633.987 221.411 635.396 221.031 636.695 221.031 C 639.247 221.031 640.681 222.474 640.96 225.32 C 640.991 225.833 643.898 275.576 640.962 338.068 C 640.96 338.12 640.727 344.005 634.928 344.006 Z M 586.53 335.86 C 592.155 335.86 606.971 337.227 609.685 337.667 C 615.265 338.571 620.308 339.539 623.557 340.193 C 625.613 340.608 628.391 341.378 631.38 342.361 C 632.695 342.794 633.89 343.013 634.927 343.013 C 639.754 343.013 639.962 338.234 639.968 338.03 C 642.902 275.586 639.999 225.893 639.969 225.398 C 639.741 223.071 638.73 222.025 636.693 222.025 C 635.525 222.025 634.244 222.37 633.215 222.648 C 632.778 222.766 631.971 222.957 631.199 223.139 C 630.49 223.307 629.811 223.468 629.484 223.556 C 617.998 226.675 580.046 229.325 579.664 229.351 L 513.453 232.477 C 509.545 232.509 505.819 233.777 503.944 234.53 C 503.084 234.874 501.478 235.253 500.861 235.294 C 500.316 235.331 499.757 235.349 499.198 235.349 C 483.844 235.349 468.078 221.391 467.921 221.25 C 464.413 218.323 463.215 214.623 462.829 212.037 C 462.722 211.312 462.632 210.527 462.553 209.835 L 462.538 209.696 C 462.436 208.819 461.807 207.028 461.616 206.766 C 460.675 205.472 459.299 204.816 457.523 204.816 C 456.038 204.816 454.602 205.267 453.66 205.646 C 453.335 205.775 452.721 206.033 452.139 206.278 C 451.66 206.479 451.203 206.671 450.939 206.778 C 415.502 221.213 401.819 249.562 398.469 257.907 C 397.993 258.928 397.866 260.893 397.865 260.913 C 398.328 273.115 399.54 297.041 400.817 299.9 C 401.926 302.386 404.279 303.306 405.583 303.633 C 406.021 303.746 406.951 303.803 407.698 303.85 C 408.034 303.871 408.35 303.891 408.607 303.914 C 413.978 304.404 426.487 306.59 435.53 308.398 C 441.14 309.521 448.884 311.808 450.813 312.496 C 460.888 316.09 485.284 324.51 485.529 324.595 L 485.64 324.649 C 491.94 328.784 539.759 336.356 565.188 336.356 C 567.38 336.356 569.384 336.3 571.146 336.189 C 572.773 336.087 579.259 335.889 586.392 335.86 L 586.53 335.86 Z" style="fill: rgb(30, 30, 30);" transform="matrix(0.965926, 0.258819, -0.258819, 0.965926, 88.598191, -125.142003)"/>
  <path d="M 447.348 230.252 L 447.515 230.214 C 447.779 230.153 448.052 230.182 448.334 230.3 C 448.576 230.398 448.813 230.563 449.042 230.796 C 449.218 230.971 449.372 231.167 449.499 231.381 C 449.624 231.594 449.706 231.783 449.744 231.95 C 449.812 232.248 449.827 232.486 449.787 232.663 C 449.747 232.841 449.677 232.972 449.576 233.057 C 449.475 233.142 449.365 233.198 449.247 233.225 C 449.095 233.26 448.948 233.237 448.81 233.155 C 448.671 233.073 448.594 232.959 448.582 232.808 C 448.567 232.679 448.596 232.572 448.667 232.487 C 448.739 232.401 448.84 232.337 448.968 232.292 C 449.121 232.257 449.241 232.255 449.328 232.286 C 449.155 231.88 448.903 231.562 448.573 231.331 C 448.242 231.099 447.9 231.024 447.544 231.105 L 447.481 231.12 C 447.274 231.167 447.074 231.305 446.883 231.531 C 446.676 231.785 446.467 232.038 446.255 232.288 C 446.005 232.346 445.705 232.134 445.353 231.651 C 444.81 230.914 444.457 230.472 444.292 230.327 C 443.793 229.88 443.243 229.724 442.637 229.862 C 441.79 230.056 441.501 230.74 441.77 231.913 C 441.897 232.469 442.131 232.994 442.471 233.489 C 442.811 233.985 443.278 234.467 443.875 234.937 C 444.357 235.316 444.897 235.663 445.496 235.98 C 446.094 236.296 446.692 236.548 447.292 236.741 C 447.891 236.932 448.427 237.04 448.9 237.063 C 449.209 237.072 449.478 237.051 449.706 236.999 C 449.977 236.937 450.207 236.855 450.395 236.752 C 450.815 236.51 450.974 236.171 450.874 235.734 C 450.826 235.526 450.725 235.344 450.568 235.186 C 450.411 235.028 450.202 234.888 449.94 234.766 C 449.5 234.567 448.94 234.403 448.259 234.274 L 446.624 233.968 L 446.195 233.868 C 445.439 233.661 444.922 233.506 444.642 233.402 C 443.963 233.149 443.497 232.883 443.243 232.605 C 443.11 232.459 442.99 232.301 442.884 232.134 C 442.781 231.971 442.714 231.824 442.683 231.692 C 442.655 231.567 442.675 231.493 442.742 231.47 C 442.796 231.451 442.943 231.565 443.183 231.815 C 443.353 231.986 443.566 232.133 443.821 232.256 C 444.272 232.469 445.132 232.704 446.403 232.955 L 446.938 233.083 L 448.038 233.303 C 448.257 233.353 448.476 233.402 448.696 233.449 C 449.047 233.539 449.389 233.659 449.72 233.805 C 449.938 233.894 450.137 234.002 450.32 234.129 C 450.606 234.326 450.832 234.539 450.998 234.768 C 451.164 234.996 451.277 235.244 451.337 235.506 C 451.425 235.888 451.399 236.264 451.262 236.636 C 451.124 237.007 450.896 237.313 450.579 237.554 C 450.351 237.73 450.088 237.853 449.808 237.917 L 449.547 237.977 L 449.114 237.999 C 448.847 238.001 448.58 237.987 448.316 237.958 C 448.047 237.928 447.779 237.88 447.516 237.816 C 446.027 237.47 444.68 236.693 443.477 235.492 C 442.34 234.353 441.627 233.156 441.338 231.896 C 441.141 231.034 441.143 230.326 441.346 229.775 C 441.55 229.223 441.967 228.875 442.599 228.731 C 443.379 228.552 444.062 228.794 444.654 229.455 L 446.028 231.726 L 446.111 231.706 C 446.231 231.329 446.376 231.014 446.547 230.757 C 446.719 230.504 446.985 230.335 447.348 230.252 L 447.348 230.252 Z M 443.682 224.045 C 443.121 223.87 442.553 223.718 441.978 223.592 C 441.309 223.446 440.873 223.396 440.673 223.442 C 440.589 223.461 440.555 223.499 440.567 223.554 C 440.595 223.679 440.841 223.866 441.303 224.114 C 441.765 224.362 442.207 224.545 442.628 224.659 C 443.049 224.775 443.359 224.854 443.559 224.896 C 443.9 224.969 444.246 225.025 444.594 225.064 C 445.028 225.11 445.481 225.112 445.954 225.07 C 445.404 224.743 444.893 224.488 444.42 224.304 L 443.682 224.045 L 443.682 224.045 Z M 443.372 221.498 C 443.043 221.411 442.71 221.334 442.377 221.266 C 441.964 221.185 441.691 221.159 441.56 221.19 C 441.456 221.213 441.412 221.264 441.429 221.34 C 441.455 221.451 441.672 221.603 442.081 221.794 C 442.441 221.959 442.841 222.113 443.282 222.252 L 443.989 222.419 C 444.226 222.468 444.445 222.497 444.645 222.51 C 444.845 222.523 445.097 222.52 445.4 222.501 C 445.133 222.292 444.869 222.115 444.61 221.971 C 444.353 221.827 444.084 221.709 443.806 221.618 L 443.372 221.498 L 443.372 221.498 Z M 444.511 217.912 L 446.165 218.297 L 448.619 218.86 C 448.874 218.919 449.055 218.979 449.165 219.042 C 449.307 219.119 449.39 219.213 449.416 219.324 C 449.426 219.373 449.424 219.425 449.407 219.48 C 449.355 219.638 449.26 219.732 449.122 219.764 C 449.01 219.789 448.873 219.781 448.71 219.737 L 446.348 219.097 L 445.963 218.986 C 446.125 219.089 446.275 219.218 446.413 219.376 C 446.603 219.597 446.718 219.799 446.762 219.987 C 446.806 220.181 446.776 220.349 446.669 220.491 C 446.591 220.595 446.465 220.698 446.29 220.796 C 446.454 220.876 446.631 220.993 446.819 221.147 C 446.964 221.273 447.089 221.408 447.191 221.548 C 447.293 221.69 447.36 221.833 447.393 221.979 C 447.458 222.263 447.392 222.531 447.193 222.781 C 447.131 222.861 447.048 222.945 446.945 223.035 C 447.01 223.07 447.075 223.107 447.14 223.144 C 447.212 223.186 447.271 223.231 447.318 223.279 C 447.509 223.439 447.681 223.625 447.835 223.834 C 447.989 224.044 448.087 224.242 448.131 224.43 C 448.173 224.617 448.164 224.792 448.102 224.952 C 448.04 225.112 447.937 225.263 447.794 225.406 L 447.642 225.551 L 447.864 225.707 C 448.319 226.034 448.592 226.4 448.684 226.801 C 448.727 226.989 448.716 227.163 448.651 227.324 C 448.586 227.486 448.481 227.633 448.337 227.769 L 448.171 227.906 L 448.401 228.051 C 448.592 228.182 448.738 228.316 448.839 228.454 C 448.94 228.592 449.011 228.754 449.054 228.941 C 449.129 229.267 449.037 229.522 448.78 229.705 C 448.618 229.83 448.413 229.921 448.163 229.978 C 447.934 230.031 447.636 230.026 447.272 229.964 C 446.971 229.9 446.676 229.808 446.393 229.687 C 446.106 229.567 445.823 229.411 445.545 229.219 C 445.206 228.982 444.919 228.718 444.684 228.424 C 444.45 228.131 444.29 227.807 444.21 227.453 C 444.111 227.024 444.235 226.769 444.582 226.688 C 444.711 226.645 444.845 226.672 444.985 226.771 C 445.063 226.826 445.116 226.898 445.144 226.987 C 445.171 227.105 445.181 227.199 445.176 227.27 C 445.17 227.34 445.153 227.401 445.125 227.452 C 445.095 227.502 445.048 227.541 444.982 227.572 C 444.916 227.601 444.882 227.629 444.881 227.655 C 444.879 227.682 444.883 227.711 444.891 227.746 C 444.929 227.913 445.078 228.101 445.338 228.312 C 445.563 228.495 445.826 228.655 446.128 228.794 C 446.43 228.933 446.739 229.03 447.054 229.086 C 447.371 229.142 447.654 229.141 447.903 229.084 C 448.015 229.058 448.108 229.021 448.184 228.97 C 448.26 228.92 448.284 228.832 448.255 228.707 C 448.22 228.554 448.048 228.392 447.739 228.222 C 447.496 228.088 447.177 227.953 446.78 227.816 C 446.575 227.746 446.368 227.681 446.16 227.62 C 445.983 227.567 445.805 227.516 445.626 227.468 C 445.57 227.444 445.517 227.321 445.466 227.099 C 445.434 226.96 445.419 226.843 445.423 226.747 C 445.427 226.651 445.455 226.605 445.506 226.608 L 446.549 226.806 C 446.794 226.853 446.957 226.881 447.04 226.891 C 447.169 226.913 447.33 226.931 447.523 226.944 C 447.582 226.945 447.622 226.944 447.642 226.939 C 447.712 226.923 447.755 226.882 447.773 226.816 C 447.791 226.75 447.789 226.668 447.767 226.571 C 447.743 226.467 447.627 226.322 447.418 226.136 C 447.21 225.95 447.061 225.837 446.976 225.799 L 446.677 225.867 C 446.584 225.889 446.48 225.905 446.366 225.917 C 446.121 225.973 445.88 225.999 445.641 225.995 C 445.402 225.992 445.125 225.971 444.808 225.933 C 444.657 225.91 444.501 225.885 444.346 225.859 C 444.19 225.832 444.027 225.802 443.857 225.767 C 442.933 225.563 442.089 225.26 441.33 224.857 C 440.495 224.412 440.03 223.982 439.935 223.565 C 439.888 223.364 439.913 223.207 440.007 223.094 C 440.101 222.981 440.253 222.901 440.461 222.853 C 440.816 222.772 441.297 222.782 441.904 222.883 C 442.345 222.958 442.825 223.078 443.346 223.243 C 443.486 223.287 443.627 223.334 443.767 223.383 C 443.929 223.441 444.09 223.501 444.251 223.562 C 444.556 223.683 444.847 223.811 445.123 223.949 C 445.4 224.087 445.695 224.254 446.012 224.453 L 446.661 224.895 C 446.835 224.856 446.98 224.764 447.096 224.621 C 447.213 224.477 447.248 224.301 447.2 224.093 C 447.168 223.954 447.058 223.793 446.87 223.609 C 446.719 223.461 446.568 223.343 446.416 223.254 L 445.753 223.328 C 445.243 223.364 444.715 223.321 444.167 223.198 L 443.69 223.077 C 443.005 222.891 442.346 222.608 441.71 222.227 C 441.075 221.847 440.728 221.524 440.667 221.261 C 440.627 221.087 440.647 220.953 440.728 220.858 C 440.808 220.762 440.946 220.693 441.14 220.648 C 441.439 220.58 441.821 220.582 442.286 220.654 C 442.755 220.726 443.214 220.839 443.662 220.991 C 443.961 221.097 444.255 221.217 444.544 221.348 C 444.888 221.51 445.178 221.674 445.413 221.839 C 445.604 221.971 445.789 222.125 445.968 222.304 C 445.997 222.304 446.04 222.298 446.096 222.285 C 446.228 222.254 446.33 222.192 446.404 222.099 C 446.477 222.006 446.492 221.865 446.45 221.678 C 446.412 221.511 446.292 221.356 446.091 221.212 C 445.89 221.068 445.587 220.944 445.184 220.839 L 445.045 220.805 C 444.77 220.741 444.497 220.669 444.227 220.587 C 443.989 220.514 443.752 220.437 443.517 220.355 L 442.721 220.088 C 442.698 220.079 442.664 220.03 442.622 219.941 C 442.579 219.852 442.549 219.766 442.529 219.683 C 442.499 219.551 442.488 219.445 442.494 219.362 C 442.501 219.28 442.539 219.246 442.608 219.259 C 442.63 219.261 442.684 219.275 442.771 219.299 C 442.951 219.35 443.131 219.404 443.311 219.46 C 443.58 219.545 443.851 219.626 444.122 219.701 C 444.467 219.797 444.749 219.868 444.97 219.912 C 445.316 219.987 445.569 220.005 445.728 219.968 C 445.86 219.938 445.914 219.868 445.888 219.757 C 445.85 219.59 445.751 219.445 445.591 219.32 C 445.431 219.196 445.147 219.057 444.738 218.902 C 444.459 218.796 444.176 218.7 443.89 218.615 C 443.617 218.533 443.341 218.457 443.065 218.387 L 442.395 218.234 C 442.346 218.215 442.308 218.166 442.279 218.085 C 442.247 217.998 442.222 217.909 442.201 217.818 C 442.169 217.68 442.156 217.565 442.161 217.477 C 442.166 217.388 442.196 217.352 442.251 217.369 L 442.865 217.515 L 444.511 217.912 L 444.511 217.912 Z" style="fill: rgb(30, 30, 30);" transform="matrix(0.965926, 0.258819, -0.258819, 0.965926, 74.11348, -107.584499)"/>
  <path d="M 445.599 240.484 C 438.642 240.484 432.982 234.824 432.982 227.867 C 432.982 220.91 438.642 215.249 445.599 215.249 C 452.557 215.249 458.217 220.91 458.217 227.867 C 458.217 234.824 452.557 240.484 445.599 240.484 Z M 445.599 216.242 C 439.19 216.242 433.975 221.457 433.975 227.867 C 433.975 234.277 439.19 239.492 445.599 239.492 C 452.009 239.492 457.224 234.277 457.224 227.867 C 457.224 221.457 452.009 216.242 445.599 216.242 Z" style="fill: rgb(30, 30, 30);" transform="matrix(0.965926, 0.258819, -0.258819, 0.965926, 74.159694, -107.565353)"/>
  <path d="M 520.853 226.467 L 520.642 225.497 C 521.008 225.286 521.694 223.578 521.962 214.571 L 521.969 214.352 C 521.996 213.46 522.011 213.09 522.019 212.904 C 522.026 212.739 522.027 212.739 522.023 212.603 C 522.005 211.891 521.858 210.96 521.263 210.571 C 520.664 210.18 519.838 210.468 519.599 210.566 C 519.185 210.734 518.023 211.191 517.624 211.27 C 505.126 213.751 489.798 209.747 485.617 206.741 C 485.397 206.583 484.705 206.068 484.195 205.688 L 483.661 205.292 C 481.723 203.861 478.419 205.095 478.384 205.108 L 478.032 204.18 C 478.187 204.121 481.88 202.744 484.251 204.493 L 484.788 204.892 C 485.293 205.268 485.978 205.778 486.196 205.935 C 489.639 208.41 504.417 212.879 517.429 210.298 C 517.666 210.251 518.548 209.923 519.224 209.647 C 519.674 209.462 520.829 209.102 521.806 209.74 C 522.574 210.241 522.98 211.196 523.016 212.578 C 523.02 212.743 523.021 212.743 523.011 212.946 C 523.004 213.129 522.989 213.497 522.962 214.381 L 522.955 214.601 C 522.705 222.973 522.137 226.189 520.853 226.467 Z" style="fill: rgb(30, 30, 30);" transform="matrix(0.965926, 0.258819, -0.258819, 0.965926, 72.711038, -122.218362)"/>
  <path stroke="#EFEFEF" stroke-width="2" stroke-miterlimit="10" d="M 398.075 248.03" style="fill: rgb(30, 30, 30);" transform="matrix(0.965926, 0.258819, -0.258819, 0.965926, 77.759036, -94.578048)"/>
  <path stroke="#EFEFEF" stroke-width="2" stroke-miterlimit="10" d="M 394.055 246.954" style="fill: rgb(30, 30, 30);" transform="matrix(0.965926, 0.258819, -0.258819, 0.965926, 77.343377, -93.574072)"/>
  <path stroke="#EFEFEF" stroke-width="2" stroke-miterlimit="10" d="M 397.974 248.409" style="fill: rgb(30, 30, 30);" transform="matrix(0.965926, 0.258819, -0.258819, 0.965926, 77.853492, -94.538808)"/>
  <path stroke="#EFEFEF" stroke-width="2" stroke-miterlimit="10" d="M 393.954 247.331" style="fill: rgb(30, 30, 30);" transform="matrix(0.965926, 0.258819, -0.258819, 0.965926, 77.437509, -93.53509)"/>
  <path d="M 396.356 267.037 L 392.541 267.037 L 392.457 266.644 C 392.44 266.566 390.798 258.708 390.916 247.295 L 391.908 247.305 C 391.807 257.165 393.028 264.332 393.351 266.045 L 396.111 266.045 C 396.153 266.012 396.194 265.969 396.189 265.94 C 395.8 263.655 394.913 257.263 395.078 247.291 L 396.07 247.307 C 395.903 257.473 396.868 264.012 397.168 265.775 C 397.279 266.429 396.772 266.849 396.455 266.993 L 396.356 267.037 Z" style="fill: rgb(30, 30, 30);" transform="matrix(0.965926, 0.258819, -0.258819, 0.965926, 79.985832, -93.224223)"/>
  <path d="M 393.122 262.157 C 393.101 262.141 391.007 260.492 387.301 260.019 C 383.865 259.577 365.999 259.345 362.452 259.303 C 361.591 259.29 360.885 258.703 360.561 257.734 C 359.824 255.531 358.116 249.634 358.179 242.449 L 359.172 242.458 C 359.11 249.492 360.781 255.265 361.502 257.419 C 361.612 257.749 361.883 258.301 362.465 258.311 C 367.459 258.37 384.024 258.598 387.427 259.035 C 391.43 259.546 393.652 261.31 393.745 261.386 L 393.122 262.157 Z" style="fill: rgb(30, 30, 30);" transform="matrix(0.965926, 0.258819, -0.258819, 0.965926, 78.11127, -88.708776)"/>
  <path stroke="#EFEFEF" stroke-width="2" stroke-miterlimit="10" d="M 361.814 238.315" style="fill: rgb(30, 30, 30);" transform="matrix(0.965926, 0.258819, -0.258819, 0.965926, 74.00904, -85.524028)"/>
  <path d="M 400.083 248.357 C 399.918 238.392 400.805 231.996 401.194 229.708 C 401.199 229.678 401.156 229.636 401.114 229.604 L 398.354 229.604 C 398.031 231.301 396.81 238.396 396.913 248.344 L 395.92 248.354 C 395.807 237.343 397.345 229.009 397.594 228.758 L 397.74 228.611 L 401.361 228.611 L 401.46 228.656 C 401.777 228.801 402.284 229.22 402.172 229.875 C 401.788 232.135 400.911 238.459 401.075 248.341 L 400.083 248.357 Z" style="fill: rgb(30, 30, 30);" transform="matrix(0.965926, 0.258819, -0.258819, 0.965926, 75.321604, -95.155911)"/>
  <path d="M 363.177 243.507 C 363.114 236.322 364.821 230.423 365.558 228.221 C 365.883 227.25 366.59 226.664 367.45 226.654 C 370.997 226.611 388.865 226.376 392.299 225.938 C 396.005 225.465 398.099 223.815 398.12 223.798 L 398.743 224.57 C 398.65 224.645 396.428 226.412 392.425 226.922 C 389.025 227.357 372.458 227.586 367.462 227.646 C 366.881 227.653 366.61 228.206 366.5 228.536 C 365.779 230.691 364.108 236.463 364.17 243.498 L 363.177 243.507 Z" style="fill: rgb(30, 30, 30);" transform="matrix(0.965926, 0.258819, -0.258819, 0.965926, 73.454656, -90.638039)"/>
  <path stroke="#EFEFEF" stroke-width="2" stroke-miterlimit="10" d="M 361.713 238.693" style="fill: rgb(30, 30, 30);" transform="matrix(0.965926, 0.258819, -0.258819, 0.965926, 74.103437, -85.485011)"/>
  <path d="M 390.423 263.233 C 390.387 263.063 386.877 246.1 390.423 228.97 L 391.395 229.171 C 387.893 246.091 391.359 262.86 391.395 263.027 L 390.423 263.233 Z" style="fill: rgb(30, 30, 30);" transform="matrix(0.965926, 0.258819, -0.258819, 0.965926, 76.988739, -92.58407)"/>
  <path d="M 399.125 268.074 L 398.585 268.074 C 397.37 268.074 396.21 267.101 395.998 265.906 C 395.984 265.833 394.701 258.463 394.726 248.126 L 395.719 248.129 C 395.694 258.379 396.962 265.66 396.975 265.733 C 397.105 266.465 397.842 267.083 398.585 267.083 L 399.125 267.083 C 399.371 267.083 399.594 267.012 399.77 266.881 L 400.366 267.675 C 400.017 267.936 399.588 268.074 399.125 268.074 Z" style="fill: rgb(30, 30, 30);" transform="matrix(0.965926, 0.258819, -0.258819, 0.965926, 80.34717, -94.097829)"/>
  <path d="M 399.723 248.922 C 399.698 238.586 400.982 231.217 400.995 231.144 C 401.098 230.561 401.423 230.016 401.909 229.607 L 402.548 230.367 C 402.239 230.626 402.035 230.963 401.972 231.316 C 401.96 231.389 400.691 238.678 400.716 248.92 L 399.723 248.922 Z" style="fill: rgb(30, 30, 30);" transform="matrix(0.965926, 0.258819, -0.258819, 0.965926, 75.594445, -95.668603)"/>
  <rect x="186.762" y="205.269" width="26.605" height="0.993" style="fill: rgb(30, 30, 30);" transform="matrix(0.965927, 0.258819, -0.258811, 0.965939, 233.540545, 7.726602)"/>
  <rect x="7.549" y="106.312" width="27.598" height="0.993" style="fill: rgb(30, 30, 30);" transform="matrix(0.965926, 0.258819, -0.258811, 0.965923, 380.323197, 147.292858)"/>
  <rect x="7.371" y="104.184" width="27.598" height="0.993" style="fill: rgb(30, 30, 30);" transform="matrix(0.965926, 0.258819, -0.258815, 0.965907, 380.322983, 147.296871)"/>
  <rect x="6.874" y="102.034" width="28.095" height="0.993" style="fill: rgb(30, 30, 30);" transform="matrix(0.965926, 0.258819, -0.258811, 0.965923, 380.323169, 147.292926)"/>
  <rect x="184.458" y="196.714" width="28.095" height="0.993" style="fill: rgb(30, 30, 30);" transform="matrix(0.965926, 0.258819, -0.258811, 0.965923, 233.540555, 7.72991)"/>
  <rect x="6.253" y="97.379" width="28.095" height="0.993" style="fill: rgb(30, 30, 30);" transform="matrix(0.965926, 0.258819, -0.258813, 0.965931, 380.342504, 147.702946)"/>
  <rect x="5.882" y="95.616" width="28.591" height="0.993" style="fill: rgb(30, 30, 30);" transform="matrix(0.965926, 0.258819, -0.258815, 0.965923, 380.323222, 147.294514)"/>
  <rect x="6.06" y="93.475" width="28.095" height="0.993" style="fill: rgb(30, 30, 30);" transform="matrix(0.965925, 0.258819, -0.258817, 0.96593, 380.322339, 147.297633)"/>
  <rect x="5.882" y="91.353" width="28.095" height="0.993" style="fill: rgb(30, 30, 30);" transform="matrix(0.965926, 0.258819, -0.258815, 0.965923, 380.323217, 147.294538)"/>
  <rect x="5.882" y="89.199" width="28.095" height="0.993" style="fill: rgb(30, 30, 30);" transform="matrix(0.965926, 0.258819, -0.258811, 0.965923, 380.322429, 147.295791)"/>
  <rect x="6.06" y="87.061" width="28.095" height="0.993" style="fill: rgb(30, 30, 30);" transform="matrix(0.965926, 0.258819, -0.258809, 0.965916, 380.322269, 147.296413)"/>
  <rect x="184.28" y="181.757" width="28.095" height="0.993" style="fill: rgb(30, 30, 30);" transform="matrix(0.965925, 0.258819, -0.258842, 0.965923, 233.54645, 7.729882)"/>
  <rect x="184.776" y="179.602" width="27.598" height="0.993" style="fill: rgb(30, 30, 30);" transform="matrix(0.965926, 0.258819, -0.258846, 0.965923, 233.546359, 7.732645)"/>
  <rect x="7.549" y="80.647" width="27.598" height="0.993" style="fill: rgb(30, 30, 30);" transform="matrix(0.965927, 0.258819, -0.258815, 0.965923, 380.323219, 147.29458)"/>
  <rect x="185.769" y="175.338" width="27.598" height="0.993" style="fill: rgb(30, 30, 30);" transform="matrix(0.965926, 0.25882, -0.258815, 0.965938, 233.540954, 7.729897)"/>
  <rect x="186.762" y="173.188" width="26.605" height="0.993" style="fill: rgb(30, 30, 30);" transform="matrix(0.965927, 0.258819, -0.258811, 0.965923, 233.54074, 7.729957)"/>
  <path stroke="#FFFF00" stroke-width="2" stroke-miterlimit="10" d="M 609.978 347.982" style="fill: rgb(30, 30, 30);" transform="matrix(0.965926, 0.258819, -0.258819, 0.965926, 110.848692, -146.016557)"/>
  <path stroke="#000000" stroke-width="2" stroke-miterlimit="10" d="M 620.243 263.082" style="fill: rgb(30, 30, 30);" transform="matrix(0.965926, 0.258819, -0.258819, 0.965926, 89.22475, -151.566203)"/>
  <path d="M 611.209 333.808 L 610.446 333.73 C 609.808 333.62 609.298 333.514 608.788 333.409 C 608.197 333.287 607.584 333.16 606.832 333.038 C 604.354 332.637 590.467 331.244 584.828 331.244 L 584.693 331.245 C 577.581 331.275 571.122 331.47 569.505 331.572 C 567.723 331.684 565.698 331.74 563.485 331.74 C 537.398 331.74 490.201 324.21 483.447 319.906 C 482.408 319.556 468.114 314.747 457.206 310.941 C 456.51 310.697 455.357 309.5 455.064 308.101 C 454.633 306.049 454.65 305.245 454.651 305.212 L 454.651 242.603 C 454.64 242.462 454.345 238.228 456.197 236.232 C 457.455 234.877 459.382 234.846 461.822 236.203 C 461.963 236.297 472.084 243.222 480.845 247.847 C 483.306 249.146 487.919 249.804 494.555 249.804 C 503.431 249.804 513.827 248.654 520.707 247.894 C 523.477 247.587 525.665 247.346 526.766 247.295 C 528.471 247.218 534.377 247.001 541.857 246.725 C 558.709 246.105 584.177 245.167 595.422 244.599 C 599.47 244.394 611.759 242.139 611.882 242.116 L 611.938 242.105 L 612.481 242.129 L 612.518 242.619 C 612.516 242.703 612.514 242.787 612.514 242.872 C 612.514 247.427 616.22 251.133 620.776 251.133 C 622.288 251.133 623.766 250.721 625.052 249.942 L 625.806 249.485 L 625.806 250.452 L 624.604 326.398 L 623.852 325.912 C 622.525 325.053 620.983 324.599 619.391 324.599 C 614.853 324.599 611.162 328.29 611.162 332.826 C 611.162 332.961 611.163 333.092 611.172 333.224 L 611.209 333.808 Z M 584.827 330.251 C 590.507 330.251 604.494 331.653 606.99 332.059 C 607.764 332.185 608.386 332.313 608.988 332.437 C 609.368 332.516 609.748 332.594 610.169 332.674 C 610.251 327.659 614.356 323.605 619.39 323.605 C 620.88 323.605 622.332 323.961 623.639 324.641 L 624.8 251.208 C 623.55 251.811 622.176 252.127 620.775 252.127 C 615.779 252.127 611.695 248.146 611.527 243.19 C 609.077 243.634 599.144 245.405 595.471 245.59 C 584.22 246.159 558.748 247.097 541.892 247.718 C 534.416 247.994 528.51 248.211 526.809 248.288 C 525.74 248.337 523.567 248.577 520.815 248.881 C 513.913 249.644 503.485 250.797 494.554 250.797 C 487.659 250.797 483.023 250.12 480.381 248.725 C 471.569 244.074 461.401 237.117 461.299 237.047 C 459.378 235.983 457.874 235.885 456.925 236.907 C 455.366 238.585 455.638 242.528 455.642 242.567 L 455.643 305.227 C 455.643 305.246 455.634 305.992 456.035 307.898 C 456.268 309.008 457.203 309.889 457.533 310.004 C 468.797 313.935 483.673 318.936 483.822 318.986 L 483.936 319.042 C 490.237 323.177 538.055 330.749 563.484 330.749 C 565.676 330.749 567.681 330.693 569.442 330.582 C 571.07 330.48 577.556 330.282 584.688 330.253 L 584.827 330.251 Z" style="fill: rgb(30, 30, 30);" transform="matrix(0.965926, 0.258819, -0.258819, 0.965926, 92.042402, -130.123987)"/>
</svg>