<?xml version="1.0" encoding="utf-8"?>
<svg version="1.1" id="Layer_3" x="0px" y="0px" viewBox="0 0 1280 720" enable-background="new 0 0 598.189 350.26" preserveAspectRatio="none" xmlns="http://www.w3.org/2000/svg">
  <path d="M 904.238 507.848 C 901.989 507.848 899.436 507.383 896.652 506.467 C 890.848 504.556 885.463 503.063 881.496 502.263 C 875.126 500.983 865.235 499.083 854.292 497.309 C 849.816 496.584 820.31 493.781 809.074 493.781 L 808.808 493.782 C 794.823 493.842 782.124 494.225 778.944 494.426 C 775.439 494.646 771.458 494.757 767.108 494.757 C 715.807 494.757 622.995 479.948 609.721 471.485 C 607.112 470.583 560.907 454.63 541.553 447.727 C 537.798 446.387 522.714 441.932 511.772 439.743 C 494.041 436.197 469.534 431.914 459.044 430.956 C 458.555 430.913 457.95 430.875 457.309 430.835 C 455.677 430.733 453.826 430.617 452.791 430.353 C 449.888 429.624 444.637 427.557 442.118 421.917 C 438.826 414.547 436.254 347.295 436.146 344.435 C 436.158 344.164 436.423 340.065 437.493 337.771 C 444.13 321.231 471.325 264.877 541.719 236.203 C 542.233 235.994 543.126 235.62 544.058 235.228 C 545.216 234.742 546.435 234.231 547.078 233.972 C 549.091 233.164 552.169 232.202 555.401 232.202 C 559.552 232.202 562.791 233.762 565.027 236.839 C 565.713 237.78 566.994 241.719 567.202 243.528 L 567.233 243.802 C 567.386 245.148 567.56 246.673 567.768 248.067 C 568.475 252.816 570.673 259.608 577.124 264.993 C 577.454 265.287 607.91 292.24 637.348 292.24 C 638.404 292.24 639.461 292.204 640.489 292.136 C 641.417 292.075 644.408 291.389 645.953 290.769 C 649.767 289.238 657.359 286.658 665.326 286.593 L 795.458 280.45 C 796.186 280.4 870.624 275.204 893.024 269.12 C 893.678 268.942 895.037 268.62 896.459 268.284 C 897.955 267.929 899.52 267.56 900.368 267.332 C 902.388 266.787 905.158 266.04 907.711 266.04 C 912.73 266.04 915.55 268.877 916.098 274.472 C 916.159 275.482 921.875 373.292 916.102 496.172 C 916.098 496.274 915.641 507.847 904.238 507.848 Z M 809.072 491.83 C 820.131 491.83 849.264 494.518 854.601 495.384 C 865.573 497.161 875.49 499.065 881.878 500.351 C 885.922 501.166 891.383 502.681 897.26 504.613 C 899.847 505.465 902.196 505.896 904.236 505.896 C 913.727 505.895 914.136 496.498 914.148 496.098 C 919.916 373.312 914.208 275.599 914.15 274.626 C 913.701 270.05 911.714 267.993 907.708 267.993 C 905.411 267.993 902.893 268.672 900.87 269.218 C 900.01 269.45 898.423 269.826 896.905 270.185 C 895.51 270.515 894.175 270.831 893.532 271.005 C 870.947 277.138 796.321 282.349 795.57 282.4 L 665.379 288.546 C 657.694 288.608 650.367 291.102 646.681 292.582 C 644.989 293.26 641.831 294.005 640.619 294.085 C 639.547 294.157 638.447 294.193 637.348 294.193 C 607.158 294.193 576.157 266.748 575.847 266.47 C 568.95 260.714 566.594 253.44 565.836 248.355 C 565.624 246.929 565.448 245.386 565.293 244.024 L 565.262 243.751 C 565.063 242.026 563.825 238.505 563.449 237.989 C 561.6 235.446 558.893 234.156 555.401 234.156 C 552.481 234.156 549.659 235.043 547.805 235.787 C 547.167 236.042 545.96 236.549 544.814 237.03 C 543.874 237.425 542.974 237.803 542.456 238.014 C 472.774 266.397 445.87 322.141 439.283 338.55 C 438.347 340.557 438.096 344.422 438.094 344.461 C 439.005 368.454 441.388 415.499 443.899 421.122 C 446.081 426.01 450.707 427.818 453.27 428.462 C 454.132 428.683 455.961 428.797 457.43 428.889 C 458.09 428.93 458.711 428.969 459.217 429.014 C 469.779 429.977 494.374 434.277 512.156 437.831 C 523.188 440.039 538.415 444.537 542.208 445.89 C 562.019 452.956 609.988 469.512 610.47 469.68 L 610.688 469.786 C 623.077 477.916 717.104 492.806 767.107 492.806 C 771.417 492.806 775.357 492.696 778.821 492.478 C 782.02 492.277 794.775 491.888 808.799 491.831 L 809.072 491.83 Z" style="fill: rgb(30, 30, 30);" transform="matrix(0.965926, 0.258819, -0.258819, 0.965926, 118.851631, -162.718968)"/>
  <path d="M 535.395 284.171 L 535.722 284.096 C 536.241 283.977 536.778 284.033 537.333 284.265 C 537.809 284.458 538.274 284.782 538.725 285.24 C 539.072 285.584 539.375 285.97 539.624 286.391 C 539.87 286.809 540.031 287.181 540.106 287.51 C 540.24 288.096 540.269 288.563 540.191 288.912 C 540.111 289.261 539.973 289.519 539.775 289.686 C 539.576 289.853 539.361 289.964 539.129 290.017 C 538.829 290.085 538.541 290.04 538.268 289.88 C 537.995 289.719 537.844 289.493 537.82 289.196 C 537.792 288.944 537.848 288.733 537.988 288.565 C 538.129 288.397 538.327 288.27 538.579 288.182 C 538.88 288.114 539.116 288.109 539.288 288.171 C 538.947 287.373 538.451 286.746 537.802 286.292 C 537.153 285.837 536.479 285.689 535.779 285.849 L 535.656 285.878 C 535.248 285.971 534.856 286.241 534.48 286.686 C 534.073 287.186 533.662 287.683 533.245 288.175 C 532.753 288.288 532.163 287.871 531.471 286.922 C 530.403 285.473 529.709 284.604 529.385 284.319 C 528.404 283.439 527.322 283.133 526.131 283.405 C 524.466 283.786 523.898 285.131 524.426 287.437 C 524.675 288.53 525.136 289.563 525.804 290.536 C 526.473 291.511 527.392 292.459 528.566 293.384 C 529.513 294.129 530.575 294.811 531.752 295.434 C 532.928 296.055 534.105 296.552 535.284 296.93 C 536.462 297.307 537.516 297.519 538.446 297.563 C 539.053 297.582 539.582 297.54 540.031 297.437 C 540.564 297.315 541.015 297.154 541.386 296.953 C 542.212 296.477 542.525 295.809 542.328 294.95 C 542.234 294.541 542.034 294.184 541.726 293.872 C 541.417 293.563 541.006 293.287 540.49 293.047 C 539.625 292.655 538.525 292.333 537.186 292.08 L 533.97 291.477 L 533.127 291.281 C 531.641 290.874 530.624 290.57 530.074 290.365 C 528.738 289.867 527.822 289.344 527.323 288.798 C 527.061 288.511 526.824 288.2 526.616 287.872 C 526.413 287.551 526.282 287.262 526.222 287.002 C 526.166 286.757 526.205 286.612 526.337 286.567 C 526.444 286.528 526.733 286.753 527.204 287.245 C 527.539 287.581 527.957 287.87 528.458 288.111 C 529.345 288.531 531.037 288.992 533.536 289.486 L 534.588 289.738 L 536.751 290.171 C 537.182 290.268 537.613 290.364 538.045 290.457 C 538.734 290.635 539.408 290.87 540.058 291.158 C 540.486 291.333 540.879 291.545 541.238 291.794 C 541.801 292.181 542.245 292.601 542.571 293.051 C 542.897 293.5 543.119 293.986 543.238 294.503 C 543.41 295.254 543.36 295.993 543.09 296.724 C 542.819 297.454 542.371 298.055 541.747 298.529 C 541.3 298.875 540.782 299.118 540.231 299.243 L 539.718 299.36 L 538.866 299.404 C 538.342 299.408 537.817 299.381 537.297 299.323 C 536.768 299.264 536.242 299.171 535.725 299.044 C 532.797 298.364 530.148 296.837 527.783 294.474 C 525.546 292.235 524.144 289.881 523.577 287.404 C 523.189 285.708 523.194 284.316 523.593 283.234 C 523.994 282.148 524.814 281.464 526.056 281.18 C 527.589 280.829 528.932 281.304 530.096 282.604 L 532.798 287.069 L 532.962 287.031 C 533.198 286.289 533.483 285.67 533.82 285.165 C 534.157 284.666 534.681 284.334 535.395 284.171 L 535.395 284.171 Z M 528.185 271.967 C 527.082 271.622 525.965 271.324 524.835 271.076 C 523.519 270.788 522.663 270.69 522.268 270.78 C 522.104 270.818 522.036 270.892 522.06 271 C 522.116 271.246 522.599 271.614 523.507 272.102 C 524.417 272.59 525.285 272.949 526.113 273.174 C 526.94 273.402 527.55 273.557 527.943 273.639 C 528.615 273.783 529.294 273.894 529.979 273.97 C 530.832 274.06 531.724 274.065 532.653 273.982 C 531.572 273.339 530.566 272.837 529.636 272.475 L 528.185 271.967 L 528.185 271.967 Z M 527.576 266.958 C 526.929 266.787 526.275 266.635 525.619 266.501 C 524.807 266.342 524.271 266.292 524.013 266.352 C 523.808 266.398 523.722 266.497 523.756 266.647 C 523.806 266.866 524.234 267.164 525.038 267.539 C 525.745 267.865 526.532 268.167 527.399 268.441 L 528.789 268.769 C 529.255 268.865 529.686 268.923 530.08 268.948 C 530.473 268.973 530.968 268.967 531.563 268.931 C 531.038 268.52 530.52 268.172 530.01 267.887 C 529.506 267.605 528.977 267.372 528.429 267.193 L 527.576 266.958 L 527.576 266.958 Z M 529.815 259.906 L 533.069 260.664 L 537.894 261.771 C 538.394 261.886 538.751 262.005 538.967 262.129 C 539.246 262.28 539.41 262.465 539.46 262.683 C 539.481 262.78 539.476 262.881 539.443 262.989 C 539.341 263.3 539.154 263.485 538.882 263.548 C 538.662 263.598 538.393 263.581 538.072 263.496 L 533.427 262.237 L 532.67 262.019 C 532.989 262.22 533.285 262.474 533.556 262.786 C 533.929 263.219 534.156 263.618 534.241 263.987 C 534.329 264.369 534.269 264.698 534.059 264.977 C 533.906 265.183 533.657 265.384 533.313 265.578 C 533.636 265.734 533.984 265.964 534.354 266.267 C 534.64 266.516 534.885 266.78 535.085 267.057 C 535.286 267.335 535.417 267.616 535.483 267.904 C 535.611 268.463 535.48 268.989 535.089 269.481 C 534.967 269.638 534.804 269.804 534.601 269.98 C 534.73 270.048 534.858 270.121 534.985 270.195 C 535.126 270.277 535.243 270.366 535.336 270.459 C 535.711 270.775 536.049 271.14 536.351 271.552 C 536.655 271.964 536.848 272.354 536.933 272.723 C 537.017 273.091 536.998 273.434 536.876 273.749 C 536.754 274.064 536.553 274.362 536.272 274.642 L 535.972 274.927 L 536.409 275.235 C 537.304 275.878 537.841 276.596 538.022 277.386 C 538.106 277.755 538.084 278.098 537.957 278.414 C 537.828 278.732 537.622 279.022 537.338 279.289 L 537.012 279.558 L 537.465 279.843 C 537.841 280.1 538.127 280.365 538.325 280.636 C 538.524 280.906 538.665 281.226 538.749 281.593 C 538.896 282.235 538.716 282.735 538.209 283.096 C 537.892 283.341 537.488 283.52 536.996 283.632 C 536.546 283.736 535.961 283.726 535.245 283.604 C 534.653 283.479 534.073 283.298 533.516 283.061 C 532.952 282.825 532.396 282.518 531.849 282.14 C 531.183 281.674 530.618 281.154 530.156 280.577 C 529.695 280.001 529.382 279.364 529.223 278.668 C 529.029 277.823 529.273 277.322 529.956 277.164 C 530.209 277.078 530.472 277.132 530.748 277.327 C 530.902 277.435 531.005 277.576 531.06 277.751 C 531.114 277.984 531.134 278.168 531.123 278.308 C 531.112 278.446 531.078 278.565 531.023 278.665 C 530.965 278.763 530.872 278.841 530.742 278.901 C 530.612 278.959 530.545 279.014 530.543 279.064 C 530.54 279.117 530.547 279.174 530.562 279.243 C 530.637 279.571 530.93 279.942 531.441 280.357 C 531.884 280.716 532.401 281.031 532.995 281.305 C 533.589 281.578 534.196 281.769 534.817 281.878 C 535.44 281.988 535.995 281.986 536.486 281.874 C 536.705 281.824 536.888 281.75 537.038 281.65 C 537.187 281.551 537.234 281.378 537.178 281.133 C 537.109 280.832 536.77 280.514 536.163 280.18 C 535.686 279.916 535.057 279.65 534.278 279.382 C 533.874 279.243 533.467 279.115 533.058 278.995 C 532.71 278.892 532.36 278.792 532.008 278.696 C 531.898 278.649 531.793 278.408 531.693 277.972 C 531.631 277.698 531.601 277.467 531.61 277.279 C 531.617 277.091 531.672 276.999 531.773 277.005 L 533.824 277.396 C 534.304 277.488 534.626 277.543 534.788 277.563 C 535.042 277.605 535.359 277.641 535.738 277.667 C 535.855 277.669 535.932 277.666 535.973 277.657 C 536.11 277.625 536.195 277.545 536.23 277.415 C 536.265 277.285 536.261 277.124 536.218 276.933 C 536.171 276.729 535.942 276.443 535.531 276.077 C 535.123 275.712 534.83 275.49 534.663 275.415 L 534.075 275.549 C 533.891 275.592 533.687 275.624 533.463 275.647 C 532.981 275.757 532.508 275.808 532.037 275.8 C 531.568 275.794 531.024 275.754 530.4 275.679 C 530.102 275.634 529.797 275.585 529.491 275.532 C 529.184 275.48 528.865 275.421 528.53 275.353 C 526.712 274.951 525.053 274.355 523.56 273.562 C 521.918 272.687 521.004 271.842 520.817 271.023 C 520.726 270.627 520.774 270.318 520.96 270.096 C 521.145 269.874 521.444 269.716 521.852 269.622 C 522.55 269.462 523.495 269.482 524.69 269.682 C 525.557 269.829 526.501 270.065 527.524 270.39 C 527.801 270.476 528.077 270.568 528.352 270.665 C 528.672 270.778 528.988 270.896 529.305 271.016 C 529.904 271.254 530.477 271.506 531.02 271.777 C 531.563 272.048 532.144 272.378 532.767 272.768 L 534.043 273.638 C 534.385 273.56 534.67 273.38 534.899 273.098 C 535.128 272.816 535.198 272.469 535.103 272.061 C 535.041 271.787 534.824 271.47 534.454 271.109 C 534.158 270.818 533.861 270.585 533.561 270.41 L 532.258 270.557 C 531.255 270.628 530.216 270.543 529.14 270.301 L 528.202 270.063 C 526.855 269.697 525.558 269.14 524.308 268.391 C 523.06 267.644 522.377 267.009 522.257 266.491 C 522.178 266.15 522.218 265.886 522.377 265.699 C 522.535 265.511 522.806 265.374 523.188 265.287 C 523.775 265.152 524.526 265.156 525.441 265.298 C 526.362 265.44 527.266 265.663 528.147 265.96 C 528.735 266.169 529.313 266.405 529.88 266.662 C 530.557 266.981 531.127 267.303 531.589 267.628 C 531.965 267.887 532.328 268.19 532.681 268.542 C 532.738 268.542 532.823 268.53 532.932 268.505 C 533.191 268.445 533.392 268.323 533.538 268.14 C 533.681 267.956 533.712 267.68 533.628 267.311 C 533.553 266.984 533.318 266.679 532.923 266.396 C 532.528 266.112 531.932 265.868 531.139 265.662 L 530.865 265.595 C 530.325 265.47 529.788 265.327 529.258 265.167 C 528.79 265.024 528.323 264.872 527.861 264.711 L 526.296 264.186 C 526.25 264.167 526.184 264.072 526.101 263.897 C 526.017 263.722 525.957 263.553 525.919 263.389 C 525.859 263.13 525.837 262.92 525.85 262.758 C 525.863 262.596 525.938 262.529 526.074 262.555 C 526.118 262.56 526.223 262.586 526.394 262.633 C 526.748 262.735 527.103 262.84 527.457 262.95 C 527.985 263.118 528.517 263.276 529.051 263.424 C 529.729 263.614 530.284 263.753 530.719 263.84 C 531.399 263.986 531.896 264.022 532.209 263.95 C 532.469 263.89 532.574 263.752 532.524 263.534 C 532.449 263.207 532.253 262.92 531.939 262.676 C 531.624 262.432 531.066 262.158 530.263 261.854 C 529.714 261.645 529.157 261.456 528.594 261.288 C 528.057 261.128 527.515 260.979 526.973 260.841 L 525.654 260.54 C 525.559 260.503 525.483 260.406 525.426 260.247 C 525.364 260.075 525.314 259.9 525.273 259.722 C 525.211 259.45 525.185 259.225 525.195 259.051 C 525.204 258.877 525.264 258.806 525.372 258.839 L 526.58 259.126 L 529.815 259.906 L 529.815 259.906 Z" style="fill: rgb(30, 30, 30);" transform="matrix(0.965926, 0.258819, -0.258819, 0.965926, 90.370363, -128.195336)"/>
  <path d="M 531.956 304.291 C 518.276 304.291 507.146 293.162 507.146 279.481 C 507.146 265.801 518.276 254.671 531.956 254.671 C 545.637 254.671 556.766 265.801 556.766 279.481 C 556.766 293.162 545.637 304.291 531.956 304.291 Z M 531.956 256.623 C 519.352 256.623 509.098 266.877 509.098 279.481 C 509.098 292.085 519.352 302.339 531.956 302.339 C 544.56 302.339 554.814 292.085 554.814 279.481 C 554.814 266.877 544.56 256.623 531.956 256.623 Z" style="fill: rgb(30, 30, 30);" transform="matrix(0.965926, 0.258819, -0.258819, 0.965926, 90.460993, -128.157293)"/>
  <path d="M 679.928 276.729 L 679.514 274.821 C 680.234 274.407 681.583 271.047 682.11 253.338 L 682.123 252.906 C 682.176 251.153 682.206 250.425 682.222 250.06 C 682.236 249.734 682.237 249.734 682.229 249.468 C 682.194 248.067 681.906 246.236 680.735 245.472 C 679.558 244.703 677.933 245.27 677.463 245.461 C 676.649 245.793 674.365 246.69 673.579 246.847 C 649.005 251.724 618.865 243.851 610.643 237.94 C 610.21 237.63 608.85 236.617 607.847 235.87 L 606.798 235.091 C 602.986 232.278 596.489 234.705 596.422 234.729 L 595.728 232.905 C 596.033 232.788 603.295 230.082 607.957 233.52 L 609.013 234.305 C 610.006 235.044 611.353 236.048 611.782 236.355 C 618.552 241.222 647.61 250.01 673.197 244.934 C 673.662 244.842 675.397 244.198 676.725 243.654 C 677.611 243.291 679.882 242.583 681.803 243.837 C 683.312 244.823 684.111 246.701 684.182 249.418 C 684.19 249.742 684.191 249.742 684.172 250.141 C 684.158 250.502 684.128 251.225 684.076 252.964 L 684.062 253.396 C 683.571 269.859 682.453 276.182 679.928 276.729 Z" style="fill: rgb(30, 30, 30);" transform="matrix(0.965926, 0.258819, -0.258819, 0.965926, 87.612259, -156.969635)"/>
  <path stroke="#EFEFEF" stroke-width="2" stroke-miterlimit="10" d="M 438.507 319.129" style="fill: rgb(30, 30, 30);" transform="matrix(0.965926, 0.258819, -0.258819, 0.965926, 97.538547, -102.61999)"/>
  <path stroke="#EFEFEF" stroke-width="2" stroke-miterlimit="10" d="M 430.603 317.013" style="fill: rgb(30, 30, 30);" transform="matrix(0.965926, 0.258819, -0.258819, 0.965926, 96.72147, -100.646325)"/>
  <path stroke="#EFEFEF" stroke-width="2" stroke-miterlimit="10" d="M 438.308 319.873" style="fill: rgb(30, 30, 30);" transform="matrix(0.965926, 0.258819, -0.258819, 0.965926, 97.724155, -102.543024)"/>
  <path stroke="#EFEFEF" stroke-width="2" stroke-miterlimit="10" d="M 430.404 317.754" style="fill: rgb(30, 30, 30);" transform="matrix(0.965926, 0.258819, -0.258819, 0.965926, 96.90647, -100.569574)"/>
  <path d="M 435.128 356.503 L 427.625 356.503 L 427.461 355.729 C 427.427 355.577 424.199 340.124 424.43 317.683 L 426.382 317.703 C 426.182 337.09 428.583 351.183 429.218 354.552 L 434.645 354.552 C 434.729 354.486 434.808 354.402 434.8 354.346 C 434.034 349.853 432.29 337.284 432.614 317.676 L 434.566 317.707 C 434.236 337.697 436.135 350.555 436.724 354.02 C 436.943 355.306 435.946 356.132 435.322 356.416 L 435.128 356.503 Z" style="fill: rgb(30, 30, 30);" transform="matrix(0.965926, 0.258819, -0.258819, 0.965926, 101.917, -99.957905)"/>
  <path d="M 428.768 346.906 C 428.728 346.876 424.61 343.633 417.323 342.703 C 410.566 341.834 375.435 341.378 368.462 341.295 C 366.768 341.27 365.38 340.115 364.742 338.209 C 363.293 333.878 359.935 322.282 360.06 308.154 L 362.012 308.171 C 361.89 322.004 365.175 333.355 366.593 337.591 C 366.809 338.238 367.342 339.325 368.487 339.344 C 378.307 339.461 410.879 339.909 417.57 340.768 C 425.442 341.772 429.811 345.242 429.993 345.39 L 428.768 346.906 Z" style="fill: rgb(30, 30, 30);" transform="matrix(0.965926, 0.258819, -0.258819, 0.965926, 98.231095, -91.079592)"/>
  <path stroke="#EFEFEF" stroke-width="2" stroke-miterlimit="10" d="M 367.207 300.025" style="fill: rgb(30, 30, 30);" transform="matrix(0.965926, 0.258819, -0.258819, 0.965926, 90.164484, -84.817084)"/>
  <path d="M 442.455 319.771 C 442.132 300.177 443.876 287.6 444.641 283.102 C 444.65 283.043 444.566 282.959 444.484 282.896 L 439.057 282.896 C 438.421 286.234 436.021 300.184 436.223 319.745 L 434.271 319.765 C 434.048 298.115 437.073 281.727 437.562 281.233 L 437.849 280.944 L 444.969 280.944 L 445.163 281.032 C 445.786 281.317 446.784 282.142 446.564 283.43 C 445.809 287.874 444.085 300.308 444.406 319.739 L 442.455 319.771 Z" style="fill: rgb(30, 30, 30);" transform="matrix(0.965926, 0.258819, -0.258819, 0.965926, 92.745461, -103.756531)"/>
  <path d="M 369.887 310.235 C 369.762 296.106 373.119 284.508 374.569 280.177 C 375.207 278.268 376.597 277.116 378.288 277.096 C 385.263 277.012 420.398 276.55 427.149 275.688 C 434.437 274.759 438.555 271.514 438.596 271.481 L 439.821 272.999 C 439.639 273.146 435.269 276.62 427.397 277.623 C 420.712 278.478 388.137 278.929 378.312 279.047 C 377.17 279.06 376.637 280.148 376.421 280.796 C 375.003 285.034 371.717 296.384 371.84 310.217 L 369.887 310.235 Z" style="fill: rgb(30, 30, 30);" transform="matrix(0.965926, 0.258819, -0.258819, 0.965926, 89.074693, -94.872833)"/>
  <path stroke="#EFEFEF" stroke-width="2" stroke-miterlimit="10" d="M 367.008 300.768" style="fill: rgb(30, 30, 30);" transform="matrix(0.965926, 0.258819, -0.258819, 0.965926, 90.350012, -84.740263)"/>
  <path d="M 423.461 349.022 C 423.39 348.689 416.488 315.333 423.461 281.651 L 425.372 282.046 C 418.486 315.315 425.301 348.288 425.372 348.617 L 423.461 349.022 Z" style="fill: rgb(30, 30, 30);" transform="matrix(0.965926, 0.258819, -0.258819, 0.965926, 96.023615, -98.699114)"/>
  <path d="M 440.572 358.542 L 439.51 358.542 C 437.122 358.542 434.84 356.628 434.423 354.278 C 434.397 354.135 431.873 339.643 431.923 319.317 L 433.874 319.323 C 433.826 339.477 436.32 353.794 436.345 353.938 C 436.6 355.377 438.049 356.593 439.51 356.593 L 440.572 356.593 C 441.056 356.593 441.495 356.454 441.841 356.196 L 443.013 357.757 C 442.327 358.269 441.483 358.542 440.572 358.542 Z" style="fill: rgb(30, 30, 30);" transform="matrix(0.965926, 0.258819, -0.258819, 0.965926, 102.627707, -101.676179)"/>
  <path d="M 441.749 320.883 C 441.699 300.558 444.223 286.068 444.249 285.924 C 444.452 284.779 445.09 283.706 446.047 282.903 L 447.302 284.397 C 446.695 284.906 446.294 285.57 446.171 286.264 C 446.146 286.407 443.652 300.74 443.7 320.878 L 441.749 320.883 Z" style="fill: rgb(30, 30, 30);" transform="matrix(0.965926, 0.258819, -0.258819, 0.965926, 93.282442, -104.764784)"/>
  <rect x="367.234" y="403.622" width="52.315" height="1.952" style="fill: rgb(30, 30, 30);" transform="matrix(0.965926, 0.258819, -0.258822, 0.965933, 114.983357, -153.380777)"/>
  <rect x="14.843" y="209.043" width="54.267" height="1.952" style="fill: rgb(30, 30, 30);" transform="matrix(0.965926, 0.258819, -0.258817, 0.965934, 403.602671, 121.045736)"/>
  <rect x="14.493" y="204.863" width="54.267" height="1.952" style="fill: rgb(30, 30, 30);" transform="matrix(0.965926, 0.258819, -0.258815, 0.965911, 403.602237, 121.050607)"/>
  <rect x="13.517" y="200.631" width="55.243" height="1.952" style="fill: rgb(30, 30, 30);" transform="matrix(0.965926, 0.258819, -0.258817, 0.965934, 403.602645, 121.045924)"/>
  <rect x="362.704" y="386.8" width="55.243" height="1.952" style="fill: rgb(30, 30, 30);" transform="matrix(0.965926, 0.258819, -0.258822, 0.965933, 114.983066, -153.380607)"/>
  <rect x="12.296" y="191.478" width="55.243" height="1.952" style="fill: rgb(30, 30, 30);" transform="matrix(0.965926, 0.258819, -0.258819, 0.965926, 403.640994, 121.853784)"/>
  <rect x="11.565" y="188.014" width="56.219" height="1.952" style="fill: rgb(30, 30, 30);" transform="matrix(0.965926, 0.258819, -0.258817, 0.965918, 403.602622, 121.049174)"/>
  <rect x="11.915" y="183.806" width="55.243" height="1.952" style="fill: rgb(30, 30, 30);" transform="matrix(0.965926, 0.258819, -0.258808, 0.96591, 403.599328, 121.056385)"/>
  <rect x="11.565" y="179.631" width="55.243" height="1.952" style="fill: rgb(30, 30, 30);" transform="matrix(0.965926, 0.258819, -0.258817, 0.965918, 403.602599, 121.049248)"/>
  <rect x="11.565" y="175.392" width="55.243" height="1.952" style="fill: rgb(30, 30, 30);" transform="matrix(0.965926, 0.258819, -0.258826, 0.965933, 403.602556, 121.052036)"/>
  <rect x="11.915" y="171.189" width="55.243" height="1.952" style="fill: rgb(30, 30, 30);" transform="matrix(0.965926, 0.258819, -0.258826, 0.965933, 403.602559, 121.051987)"/>
  <rect x="362.354" y="357.39" width="55.243" height="1.952" style="fill: rgb(30, 30, 30);" transform="matrix(0.965926, 0.258819, -0.258822, 0.965933, 114.982985, -153.380386)"/>
  <rect x="363.33" y="353.158" width="54.267" height="1.952" style="fill: rgb(30, 30, 30);" transform="matrix(0.965926, 0.258819, -0.258822, 0.965918, 114.983118, -153.374674)"/>
  <rect x="14.843" y="158.579" width="54.267" height="1.952" style="fill: rgb(30, 30, 30);" transform="matrix(0.965926, 0.258819, -0.258817, 0.965918, 403.602535, 121.049409)"/>
  <rect x="365.282" y="344.773" width="54.267" height="1.952" style="fill: rgb(30, 30, 30);" transform="matrix(0.965925, 0.258819, -0.258822, 0.965918, 114.983323, -153.37475)"/>
  <rect x="367.234" y="340.541" width="52.315" height="1.952" style="fill: rgb(30, 30, 30);" transform="matrix(0.965926, 0.258819, -0.258822, 0.965933, 114.9832, -153.380287)"/>
  <path stroke="#FFFF00" stroke-width="2" stroke-miterlimit="10" d="M 855.177 515.667" style="fill: rgb(30, 30, 30);" transform="matrix(0.965926, 0.258819, -0.258819, 0.965926, 162.603799, -203.765093)"/>
  <path stroke="#000000" stroke-width="2" stroke-miterlimit="10" d="M 875.362 348.726" style="fill: rgb(30, 30, 30);" transform="matrix(0.965926, 0.258819, -0.258819, 0.965926, 120.084209, -214.677847)"/>
  <path d="M 857.598 487.795 L 856.097 487.642 C 854.843 487.425 853.84 487.218 852.838 487.011 C 851.675 486.771 850.471 486.521 848.992 486.282 C 844.119 485.492 816.812 482.754 805.724 482.754 L 805.459 482.755 C 791.474 482.815 778.775 483.198 775.595 483.398 C 772.091 483.619 768.108 483.73 763.758 483.73 C 712.461 483.73 619.658 468.923 606.377 460.46 C 604.333 459.772 576.227 450.315 554.779 442.831 C 553.409 442.352 551.143 439.998 550.566 437.247 C 549.718 433.212 549.753 431.632 549.755 431.566 L 549.755 308.458 C 549.732 308.179 549.152 299.855 552.795 295.929 C 555.267 293.266 559.057 293.204 563.855 295.873 C 564.132 296.057 584.034 309.675 601.261 318.768 C 606.1 321.322 615.17 322.617 628.219 322.617 C 645.671 322.617 666.114 320.356 679.641 318.86 C 685.088 318.258 689.39 317.783 691.556 317.684 C 694.908 317.532 706.522 317.105 721.229 316.563 C 754.366 315.343 804.445 313.498 826.555 312.381 C 834.516 311.979 858.679 307.544 858.922 307.499 L 859.031 307.478 L 860.1 307.525 L 860.172 308.489 C 860.167 308.653 860.165 308.819 860.165 308.986 C 860.165 317.943 867.452 325.23 876.409 325.23 C 879.382 325.23 882.289 324.42 884.818 322.888 L 886.3 321.99 L 886.3 323.89 L 883.938 473.225 L 882.459 472.269 C 879.849 470.581 876.816 469.687 873.687 469.687 C 864.764 469.687 857.505 476.946 857.505 485.865 C 857.505 486.13 857.507 486.388 857.526 486.647 L 857.598 487.795 Z M 805.723 480.802 C 816.892 480.802 844.395 483.559 849.303 484.357 C 850.825 484.605 852.047 484.856 853.231 485.1 C 853.978 485.255 854.725 485.409 855.554 485.565 C 855.714 475.704 863.786 467.734 873.684 467.734 C 876.614 467.734 879.47 468.434 882.039 469.77 L 884.323 325.377 C 881.865 326.563 879.162 327.184 876.408 327.184 C 866.585 327.184 858.553 319.357 858.223 309.612 C 853.405 310.485 833.874 313.967 826.653 314.331 C 804.528 315.45 754.443 317.294 721.298 318.515 C 706.598 319.057 694.985 319.484 691.641 319.636 C 689.539 319.732 685.266 320.204 679.854 320.802 C 666.283 322.302 645.777 324.57 628.216 324.57 C 614.659 324.57 605.543 323.237 600.348 320.495 C 583.02 311.349 563.027 297.669 562.827 297.532 C 559.05 295.44 556.091 295.247 554.226 297.256 C 551.161 300.556 551.696 308.309 551.702 308.387 L 551.705 431.597 C 551.705 431.634 551.688 433.1 552.475 436.849 C 552.933 439.03 554.772 440.763 555.421 440.99 C 577.569 448.719 606.821 458.552 607.114 458.651 L 607.338 458.76 C 619.727 466.891 713.754 481.78 763.756 481.78 C 768.066 481.78 772.007 481.67 775.471 481.452 C 778.671 481.251 791.426 480.863 805.449 480.805 L 805.723 480.802 Z" style="fill: rgb(30, 30, 30);" transform="matrix(0.965926, 0.258819, -0.258819, 0.965926, 125.624269, -172.515215)"/>
</svg>