<?xml version="1.0" encoding="utf-8"?>
<svg version="1.2" baseProfile="tiny" id="Layer_3" x="0px" y="0px" viewBox="0 0 1280 720" preserveAspectRatio="none" xmlns="http://www.w3.org/2000/svg">
  <path id="path3" d="M 501.95 193.533 C 498.914 193.533 496.43 196.019 496.43 199.053 L 496.43 376.482 C 496.43 379.517 498.916 382.004 501.95 382.004 L 739.366 382.004 C 742.4 382.004 744.856 379.517 744.856 376.482 L 744.856 199.053 C 744.856 196.019 742.401 193.533 739.366 193.533 L 501.95 193.533 Z M 501.95 195.373 L 739.366 195.373 C 741.406 195.373 743.016 197.012 743.016 199.053 L 743.016 376.482 C 743.016 378.523 741.406 380.161 739.366 380.161 L 501.95 380.161 C 499.908 380.161 498.27 378.523 498.27 376.482 L 498.27 199.053 C 498.27 197.013 499.909 195.373 501.95 195.373 Z" style="fill: rgb(30, 30, 30);" transform="matrix(0.965926, -0.258819, 0.258819, 0.965926, -53.332081, 170.439764)"/>
  <path id="path5" d="M 499.487 169.551 C 496.452 169.551 493.967 172.035 493.967 175.07 L 493.967 500.307 C 493.967 503.344 496.452 505.828 499.487 505.828 L 768.557 505.828 C 771.59 505.828 774.077 503.344 774.077 500.307 L 774.077 175.069 C 774.077 172.034 771.59 169.549 768.557 169.549 L 499.487 169.549 Z M 499.487 171.389 L 768.557 171.389 C 770.599 171.389 772.236 173.027 772.236 175.069 L 772.236 500.307 C 772.236 502.35 770.599 503.985 768.557 503.985 L 499.487 503.985 C 497.447 503.985 495.807 502.35 495.807 500.307 L 495.807 175.069 C 495.807 173.029 497.447 171.389 499.487 171.389 Z" style="fill: rgb(30, 30, 30);" transform="matrix(0.965926, -0.258819, 0.258819, 0.965926, -65.796419, 175.603383)"/>
  <path id="path7" d="M 496.064 155.411 C 488.8 155.411 482.899 161.312 482.899 168.576 L 482.899 498.423 C 482.899 505.687 488.801 511.588 496.064 511.588 L 769.732 511.588 C 776.998 511.588 782.899 505.686 782.899 498.423 L 782.899 168.585 C 782.899 161.314 777.003 155.412 769.735 155.412 L 496.066 155.412 L 496.064 155.411 Z M 496.064 157.251 L 769.732 157.251 C 776.003 157.251 781.058 162.306 781.058 168.576 L 781.058 498.414 C 781.058 504.686 776 509.74 769.732 509.74 L 496.064 509.74 C 489.796 509.749 484.74 504.689 484.74 498.425 L 484.74 168.578 C 484.74 162.308 489.796 157.252 496.064 157.251 L 496.064 157.251 Z" style="fill: rgb(30, 30, 30);" transform="matrix(0.965926, -0.258819, 0.258819, 0.965926, -64.750531, 175.170087)"/>
  <path id="path9" d="M 545.265 471.824 C 543.922 471.824 542.821 472.955 542.821 474.298 L 542.821 491.518 C 542.821 492.859 543.922 493.961 545.265 493.961 L 562.627 493.961 C 563.972 493.961 565.071 492.859 565.071 491.518 L 565.071 474.298 C 565.071 472.955 563.97 471.824 562.627 471.824 L 545.265 471.824 Z M 545.265 473.665 L 562.627 473.665 C 562.975 473.665 563.231 473.949 563.231 474.298 L 563.231 491.518 C 563.231 491.865 562.975 492.122 562.627 492.122 L 545.265 492.122 C 544.917 492.122 544.661 491.865 544.661 491.518 L 544.661 474.298 C 544.661 473.948 544.917 473.665 545.265 473.665 Z" style="fill: rgb(30, 30, 30);" transform="matrix(0.965926, -0.258819, 0.258819, 0.965926, -106.106587, 159.826074)"/>
  <path id="path11" d="M 753.329 496.08 C 750.855 496.08 748.844 498.123 748.844 500.593 L 748.844 519.854 C 748.844 522.324 750.854 524.34 753.328 524.34 L 794.753 524.34 C 797.224 524.34 799.234 522.324 799.234 519.854 L 799.235 500.593 C 799.235 498.123 797.224 496.08 794.753 496.08 L 753.329 496.08 Z M 753.329 497.92 L 794.753 497.92 C 796.229 497.92 797.397 499.117 797.397 500.593 L 797.397 519.854 C 797.397 521.33 796.229 522.499 794.753 522.499 L 753.328 522.499 C 751.853 522.499 750.682 521.331 750.683 519.854 L 750.683 500.593 C 750.683 499.117 751.851 497.92 753.329 497.92 Z" style="fill: rgb(30, 30, 30);" transform="matrix(0.965926, -0.258819, 0.258819, 0.965926, -105.677373, 217.721318)"/>
  <path id="path13" d="M 777.625 497.165 C 776.564 497.165 775.697 498.03 775.697 499.091 L 775.697 513.983 C 775.697 515.046 776.564 515.909 777.625 515.909 L 791.279 515.909 C 792.341 515.909 793.235 515.046 793.235 513.983 L 793.235 499.091 C 793.235 498.03 792.338 497.165 791.279 497.165 L 777.625 497.165 Z M 777.625 499.008 L 791.279 499.008 C 791.349 499.008 791.395 499.026 791.395 499.091 L 791.395 513.983 C 791.395 514.05 791.346 514.069 791.279 514.069 L 777.625 514.069 C 777.558 514.069 777.539 514.048 777.539 513.983 L 777.539 499.091 C 777.537 499.025 777.558 499.008 777.625 499.008 Z" style="fill: rgb(30, 30, 30);" transform="matrix(0.965926, -0.258819, 0.258819, 0.965926, -104.371331, 220.294396)"/>
  <path id="path15" d="M 735.63 399.767 C 732.315 399.767 729.594 402.486 729.594 405.805 L 729.594 406.637 C 729.594 406.925 729.53 407.12 729.45 407.21 C 729.371 407.304 729.249 407.413 728.731 407.413 L 650.886 407.413 C 648.696 407.413 646.89 409.219 646.89 411.408 L 646.89 419.945 C 646.89 422.136 648.698 423.941 650.886 423.941 L 728.731 423.941 C 729.31 423.941 729.434 424.031 729.48 424.085 C 729.522 424.139 729.594 424.38 729.594 424.887 L 729.594 426.584 C 729.594 429.901 732.315 432.621 735.63 432.621 L 778.263 432.621 C 781.578 432.621 784.298 429.901 784.298 426.584 L 784.298 405.801 C 784.298 402.482 781.58 399.763 778.263 399.763 L 735.63 399.763 L 735.63 399.767 Z M 735.63 401.607 L 778.263 401.607 C 780.587 401.607 782.459 403.483 782.459 405.805 L 782.459 426.59 C 782.459 428.913 780.587 430.787 778.263 430.787 L 735.63 430.787 C 733.306 430.787 731.433 428.913 731.433 426.59 L 731.433 424.893 C 731.433 424.212 731.375 423.524 730.886 422.941 C 730.399 422.355 729.598 422.105 728.73 422.105 L 650.884 422.105 C 649.69 422.105 648.729 421.146 648.729 419.949 L 648.729 411.412 C 648.729 410.216 649.69 409.255 650.884 409.255 L 728.73 409.255 C 729.617 409.255 730.394 408.965 730.858 408.422 C 731.32 407.878 731.431 407.204 731.431 406.64 L 731.431 405.808 C 731.433 403.481 733.307 401.607 735.63 401.607 L 735.63 401.607 Z" style="fill: rgb(30, 30, 30);" transform="matrix(0.965926, -0.258819, 0.258819, 0.965926, -83.335223, 199.391037)"/>
  <path id="path17" d="M 660.793 411.097 C 659.731 411.097 658.867 411.96 658.867 413.022 L 658.867 417.795 C 658.867 418.854 659.731 419.72 660.793 419.72 L 739.586 419.72 C 739.901 419.72 739.915 419.793 739.902 419.779 C 739.891 419.762 739.961 419.851 739.961 420.181 L 739.961 427.741 C 739.961 428.8 740.827 429.695 741.886 429.695 L 772.188 429.695 C 773.247 429.695 774.114 428.801 774.114 427.741 L 774.114 413.022 C 774.114 411.96 773.247 411.097 772.188 411.097 L 660.797 411.097 L 660.793 411.097 Z M 660.793 412.937 L 772.184 412.937 C 772.251 412.937 772.269 412.956 772.269 413.022 L 772.269 427.741 C 772.269 427.807 772.249 427.855 772.184 427.855 L 741.882 427.855 C 741.817 427.855 741.797 427.809 741.797 427.741 L 741.797 420.181 C 741.797 419.617 741.698 419.012 741.28 418.542 C 740.865 418.069 740.205 417.88 739.584 417.88 L 660.79 417.88 C 660.725 417.88 660.703 417.858 660.703 417.795 L 660.703 413.022 C 660.703 412.955 660.725 412.937 660.79 412.937 L 660.793 412.937 Z" style="fill: rgb(30, 30, 30);" transform="matrix(0.965926, -0.258819, 0.258819, 0.965926, -84.392628, 199.76587)"/>
  <path id="circle19" d="M 777.879 403.155 C 776.572 403.155 775.492 404.206 775.492 405.509 C 775.492 406.818 776.573 407.898 777.879 407.898 C 779.185 407.898 780.264 406.816 780.264 405.509 C 780.264 404.206 779.186 403.155 777.879 403.155 Z" style="fill: rgb(30, 30, 30);" transform="matrix(0.965926, -0.258819, 0.258819, 0.965926, -78.452469, 215.147789)"/>
  <path id="path21" d="M 554.858 533.931 L 553.308 534.938 C 556.478 539.952 562.064 543.275 568.428 543.275 C 574.789 543.275 580.406 539.947 583.579 534.938 L 582.026 533.961 C 579.18 538.455 574.148 541.433 568.43 541.433 C 562.706 541.433 557.705 538.432 554.858 533.931 L 554.858 533.931 Z" style="fill: rgb(30, 30, 30);" transform="matrix(0.965926, -0.258819, 0.258819, 0.965926, -120.031603, 165.476689)"/>
  <path id="path23_1_" d="M 567.874 536.54" style="fill: rgb(30, 30, 30);" transform="matrix(0.965926, -0.258819, 0.258819, 0.965926, -119.516801, 165.258544)"/>
  <path id="path23_2_" d="M 560.131 534.735 C 562.206 536.443 564.854 537.466 567.75 537.466 C 570.678 537.466 573.37 536.42 575.454 534.676" style="fill: rgb(30, 30, 30);" transform="matrix(0.965926, -0.258819, 0.258819, 0.965926, -119.398269, 165.221553)"/>
  <path id="path25" d="M 542.674 502.172 L 542.674 554.003 C 542.674 557.037 545.159 559.493 548.193 559.493 L 823.389 559.494 C 826.424 559.494 828.907 557.038 828.907 554.004 L 828.907 502.692 L 827.07 502.691 L 827.07 554.004 C 827.07 556.044 825.43 557.653 823.39 557.653 L 548.193 557.652 C 546.152 557.652 544.512 556.043 544.512 554.003 L 544.512 502.172 L 542.674 502.172 Z" style="fill: rgb(30, 30, 30);" transform="matrix(0.965926, -0.258819, 0.258819, 0.965926, -114.022065, 195.583616)"/>
  <path id="path27" d="M 622.051 198.273 C 590.286 198.325 558.036 200.041 524.119 203.274 L 524.091 203.274 C 513.7 204.496 505.52 213.037 505.52 223.628 L 505.52 351.871 C 505.52 362.463 513.701 371.028 524.091 372.253 L 524.119 372.253 C 591.961 378.72 653.06 379.127 717.216 372.253 C 727.628 371.137 735.786 362.462 735.786 351.871 L 735.786 223.628 C 735.786 213.038 727.628 204.391 717.216 203.274 C 685.139 199.837 653.837 198.221 622.062 198.272 L 622.051 198.273 Z M 622.051 200.113 C 653.757 200.062 684.992 201.685 717.001 205.115 C 726.519 206.135 733.934 213.983 733.934 223.628 L 733.934 351.871 C 733.934 361.518 726.519 369.393 717.001 370.412 C 652.991 377.273 592.043 376.865 524.312 370.412 C 524.303 370.411 524.291 370.412 524.284 370.412 C 514.78 369.281 507.351 361.507 507.351 351.871 L 507.351 223.628 C 507.351 213.992 514.779 206.246 524.284 205.115 C 524.293 205.115 524.303 205.115 524.312 205.115 C 558.173 201.888 590.352 200.165 622.051 200.113 Z" style="fill: rgb(30, 30, 30);" transform="matrix(0.965926, -0.258819, 0.258819, 0.965926, -53.330544, 170.4421)"/>
</svg>