<?xml version="1.0" encoding="utf-8"?>
<svg version="1.2" baseProfile="tiny" id="Layer_3" x="0px" y="0px" preserveAspectRatio="none" xmlns="http://www.w3.org/2000/svg">
  <path id="path3" d="M 480.001 167.619 C 478.075 167.619 476.499 169.196 476.499 171.121 L 476.499 283.678 C 476.499 285.604 478.076 287.181 480.001 287.181 L 630.613 287.182 C 632.538 287.182 634.096 285.604 634.096 283.678 L 634.096 171.121 C 634.096 169.196 632.538 167.619 630.613 167.619 L 480.001 167.619 Z M 480.001 168.786 L 630.613 168.787 C 631.907 168.787 632.928 169.826 632.928 171.121 L 632.928 283.678 C 632.928 284.973 631.907 286.012 630.613 286.012 L 480.001 286.012 C 478.706 286.012 477.666 284.973 477.666 283.678 L 477.666 171.121 C 477.666 169.827 478.706 168.786 480.001 168.786 Z" style="fill: rgb(30, 30, 30);" transform="matrix(0.965926, -0.258819, 0.258819, 0.965926, -39.934319, 151.47032)"/>
  <path id="path5" d="M 478.439 152.405 C 476.513 152.405 474.937 153.981 474.937 155.907 L 474.937 362.23 C 474.937 364.157 476.513 365.733 478.439 365.733 L 649.131 365.733 C 651.055 365.733 652.633 364.157 652.633 362.23 L 652.633 155.906 C 652.633 153.981 651.055 152.404 649.131 152.404 L 478.439 152.404 Z M 478.439 153.571 L 649.131 153.571 C 650.427 153.571 651.465 154.611 651.465 155.906 L 651.465 362.23 C 651.465 363.527 650.427 364.564 649.131 364.564 L 478.439 364.564 C 477.144 364.564 476.104 363.527 476.104 362.23 L 476.104 155.906 C 476.104 154.612 477.144 153.571 478.439 153.571 Z" style="fill: rgb(30, 30, 30);" transform="matrix(0.965926, -0.258819, 0.258819, 0.965926, -47.841354, 154.745843)"/>
  <path id="path7" d="M 476.267 143.435 C 471.659 143.435 467.915 147.179 467.915 151.787 L 467.915 361.035 C 467.915 365.643 471.659 369.387 476.267 369.387 L 649.877 369.387 C 654.486 369.387 658.229 365.643 658.229 361.035 L 658.229 151.793 C 658.229 147.18 654.489 143.436 649.878 143.436 L 476.268 143.436 L 476.267 143.435 Z M 476.267 144.603 L 649.877 144.603 C 653.855 144.603 657.062 147.809 657.062 151.787 L 657.062 361.03 C 657.062 365.009 653.853 368.215 649.877 368.215 L 476.267 368.215 C 472.291 368.22 469.083 365.01 469.083 361.037 L 469.083 151.788 C 469.083 147.811 472.291 144.603 476.267 144.603 L 476.267 144.603 Z" style="fill: rgb(30, 30, 30);" transform="matrix(0.965926, -0.258819, 0.258819, 0.965926, -47.177865, 154.47088)"/>
  <path id="path9" d="M 507.479 344.162 C 506.627 344.162 505.929 344.879 505.929 345.731 L 505.929 356.655 C 505.929 357.506 506.627 358.205 507.479 358.205 L 518.493 358.205 C 519.346 358.205 520.044 357.506 520.044 356.655 L 520.044 345.731 C 520.044 344.879 519.345 344.162 518.493 344.162 L 507.479 344.162 Z M 507.479 345.329 L 518.493 345.329 C 518.714 345.329 518.876 345.51 518.876 345.731 L 518.876 356.655 C 518.876 356.875 518.714 357.038 518.493 357.038 L 507.479 357.038 C 507.258 357.038 507.096 356.875 507.096 356.655 L 507.096 345.731 C 507.096 345.509 507.258 345.329 507.479 345.329 Z" style="fill: rgb(30, 30, 30);" transform="matrix(0.965926, -0.258819, 0.258819, 0.965926, -73.413426, 144.737088)"/>
  <path id="path11" d="M 639.471 359.549 C 637.901 359.549 636.626 360.845 636.626 362.412 L 636.626 374.631 C 636.626 376.198 637.901 377.477 639.47 377.477 L 665.749 377.477 C 667.317 377.477 668.592 376.198 668.592 374.631 L 668.593 362.412 C 668.593 360.845 667.317 359.549 665.749 359.549 L 639.471 359.549 Z M 639.471 360.716 L 665.749 360.716 C 666.686 360.716 667.427 361.476 667.427 362.412 L 667.427 374.631 C 667.427 375.567 666.686 376.309 665.749 376.309 L 639.47 376.309 C 638.534 376.309 637.792 375.568 637.792 374.631 L 637.792 362.412 C 637.792 361.476 638.533 360.716 639.471 360.716 Z" style="fill: rgb(30, 30, 30);" transform="matrix(0.965926, -0.258819, 0.258819, 0.965926, -73.141094, 181.464693)"/>
  <path id="path13" d="M 654.884 360.237 C 654.211 360.237 653.661 360.786 653.661 361.459 L 653.661 370.906 C 653.661 371.581 654.211 372.128 654.884 372.128 L 663.546 372.128 C 664.219 372.128 664.786 371.581 664.786 370.906 L 664.786 361.459 C 664.786 360.786 664.217 360.237 663.546 360.237 L 654.884 360.237 Z M 654.884 361.406 L 663.546 361.406 C 663.59 361.406 663.619 361.418 663.619 361.459 L 663.619 370.906 C 663.619 370.949 663.588 370.961 663.546 370.961 L 654.884 370.961 C 654.841 370.961 654.829 370.947 654.829 370.906 L 654.829 361.459 C 654.828 361.417 654.841 361.406 654.884 361.406 Z" style="fill: rgb(30, 30, 30);" transform="matrix(0.965926, -0.258819, 0.258819, 0.965926, -72.312462, 183.096785)"/>
  <path id="path15" d="M 628.243 298.45 C 626.14 298.45 624.414 300.175 624.414 302.281 L 624.414 302.808 C 624.414 302.991 624.373 303.115 624.322 303.172 C 624.272 303.231 624.195 303.301 623.866 303.301 L 574.483 303.301 C 573.094 303.301 571.948 304.446 571.948 305.835 L 571.948 311.251 C 571.948 312.641 573.095 313.786 574.483 313.786 L 623.866 313.786 C 624.234 313.786 624.312 313.843 624.341 313.877 C 624.368 313.911 624.414 314.064 624.414 314.386 L 624.414 315.462 C 624.414 317.567 626.14 319.292 628.243 319.292 L 655.288 319.292 C 657.391 319.292 659.117 317.567 659.117 315.462 L 659.117 302.278 C 659.117 300.172 657.393 298.448 655.288 298.448 L 628.243 298.448 L 628.243 298.45 Z M 628.243 299.617 L 655.288 299.617 C 656.763 299.617 657.95 300.808 657.95 302.281 L 657.95 315.466 C 657.95 316.94 656.763 318.129 655.288 318.129 L 628.243 318.129 C 626.769 318.129 625.58 316.94 625.58 315.466 L 625.58 314.39 C 625.58 313.958 625.544 313.521 625.233 313.151 C 624.924 312.78 624.416 312.621 623.866 312.621 L 574.482 312.621 C 573.724 312.621 573.115 312.013 573.115 311.253 L 573.115 305.837 C 573.115 305.079 573.724 304.469 574.482 304.469 L 623.866 304.469 C 624.428 304.469 624.921 304.285 625.216 303.941 C 625.509 303.596 625.579 303.168 625.579 302.81 L 625.579 302.282 C 625.58 300.806 626.769 299.617 628.243 299.617 L 628.243 299.617 Z" style="fill: rgb(30, 30, 30);" transform="matrix(0.965926, -0.258819, 0.258819, 0.965926, -58.967738, 169.83632)"/>
  <path id="path17" d="M 580.768 305.637 C 580.094 305.637 579.546 306.185 579.546 306.859 L 579.546 309.886 C 579.546 310.558 580.094 311.108 580.768 311.108 L 630.753 311.108 C 630.952 311.108 630.961 311.154 630.953 311.145 C 630.946 311.134 630.99 311.191 630.99 311.4 L 630.99 316.196 C 630.99 316.868 631.54 317.436 632.212 317.436 L 651.435 317.436 C 652.106 317.436 652.656 316.868 652.656 316.196 L 652.656 306.859 C 652.656 306.185 652.106 305.637 651.435 305.637 L 580.77 305.637 L 580.768 305.637 Z M 580.768 306.805 L 651.432 306.805 C 651.475 306.805 651.486 306.817 651.486 306.859 L 651.486 316.196 C 651.486 316.238 651.473 316.268 651.432 316.268 L 632.209 316.268 C 632.168 316.268 632.155 316.239 632.155 316.196 L 632.155 311.4 C 632.155 311.042 632.092 310.658 631.827 310.36 C 631.564 310.06 631.145 309.94 630.751 309.94 L 580.766 309.94 C 580.725 309.94 580.711 309.926 580.711 309.886 L 580.711 306.859 C 580.711 306.816 580.725 306.805 580.766 306.805 L 580.768 306.805 Z" style="fill: rgb(30, 30, 30);" transform="matrix(0.965926, -0.258819, 0.258819, 0.965926, -59.638414, 170.073862)"/>
  <path id="circle19" d="M 655.045 300.599 C 654.216 300.599 653.531 301.266 653.531 302.093 C 653.531 302.923 654.216 303.608 655.045 303.608 C 655.873 303.608 656.558 302.922 656.558 302.093 C 656.558 301.266 655.874 300.599 655.045 300.599 Z" style="fill: rgb(30, 30, 30);" transform="matrix(0.965926, -0.258819, 0.258819, 0.965926, -55.870014, 179.83174)"/>
  <path id="path21" d="M 513.565 383.561 L 512.581 384.2 C 514.592 387.381 518.136 389.489 522.173 389.489 C 526.208 389.489 529.772 387.378 531.785 384.2 L 530.8 383.58 C 528.994 386.431 525.802 388.32 522.174 388.32 C 518.543 388.32 515.371 386.416 513.565 383.561 L 513.565 383.561 Z" style="fill: rgb(30, 30, 30);" transform="matrix(0.965926, -0.258819, 0.258819, 0.965926, -82.247023, 148.321269)"/>
  <path id="path23_1_" d="M 521.822 385.216" style="fill: rgb(30, 30, 30);" transform="matrix(0.965926, -0.258819, 0.258819, 0.965926, -81.920525, 148.18324)"/>
  <path id="path23_2_" d="M 516.91 384.071 C 518.226 385.154 519.906 385.803 521.743 385.803 C 523.601 385.803 525.308 385.14 526.63 384.033" style="fill: rgb(30, 30, 30);" transform="matrix(0.965926, -0.258819, 0.258819, 0.965926, -81.845277, 148.159902)"/>
  <path id="path25" d="M 505.835 363.414 L 505.835 396.294 C 505.835 398.219 507.412 399.777 509.337 399.777 L 683.915 399.778 C 685.841 399.778 687.416 398.22 687.416 396.295 L 687.416 363.744 L 686.251 363.743 L 686.251 396.295 C 686.251 397.589 685.21 398.61 683.916 398.61 L 509.337 398.609 C 508.042 398.609 507.001 397.589 507.001 396.294 L 507.001 363.414 L 505.835 363.414 Z" style="fill: rgb(30, 30, 30);" transform="matrix(0.965926, -0.258819, 0.258819, 0.965926, -78.434741, 167.420443)"/>
  <path id="path27" d="M 556.191 170.626 C 536.04 170.659 515.581 171.748 494.065 173.799 L 494.047 173.799 C 487.455 174.574 482.266 179.992 482.266 186.711 L 482.266 268.066 C 482.266 274.785 487.456 280.218 494.047 280.996 L 494.065 280.996 C 537.102 285.098 575.862 285.356 616.561 280.996 C 623.167 280.288 628.342 274.784 628.342 268.066 L 628.342 186.711 C 628.342 179.993 623.167 174.507 616.561 173.799 C 596.212 171.618 576.355 170.593 556.198 170.625 L 556.191 170.626 Z M 556.191 171.793 C 576.304 171.761 596.119 172.791 616.425 174.967 C 622.463 175.614 627.167 180.592 627.167 186.711 L 627.167 268.066 C 627.167 274.185 622.463 279.181 616.425 279.828 C 575.818 284.18 537.154 283.921 494.187 279.828 C 494.181 279.827 494.174 279.828 494.169 279.828 C 488.14 279.11 483.427 274.179 483.427 268.066 L 483.427 186.711 C 483.427 180.598 488.139 175.684 494.169 174.967 C 494.175 174.967 494.181 174.967 494.187 174.967 C 515.668 172.919 536.081 171.826 556.191 171.793 Z" style="fill: rgb(30, 30, 30);" transform="matrix(0.965926, -0.258819, 0.258819, 0.965926, -39.933161, 151.471462)"/>
</svg>