<?xml version="1.0" encoding="utf-8"?>
<svg id="Ebene_1" enable-background="new 0 0 566.929 79.219" version="1.1" y="0px" x="0px" xmlns="http://www.w3.org/2000/svg" xmlns:bx="https://boxy-svg.com">
  <g id="g3" fill="#fff" transform="matrix(1.10221, 0, 0, 1.10221, 0.477258, 2.574763)" bx:origin="0 0">
    <path id="path10" d="M 100.44 2.268 C 103.514 -1.666 109.876 -2.336 113.647 0.961 C 115.189 2.26 116.269 4.052 116.822 5.981 C 123.803 30.002 130.816 54.014 137.788 78.039 C 133.668 78.043 129.546 78.033 125.426 78.043 C 123.483 71.42 121.585 64.785 119.667 58.154 C 111.7 58.136 103.735 58.15 95.769 58.146 C 93.818 64.773 91.893 71.404 89.977 78.044 C 85.879 78.03 81.782 78.04 77.683 78.036 C 84.316 55.122 90.956 32.204 97.621 9.297 C 98.401 6.903 98.701 4.224 100.431 2.268 M 107.701 16.986 C 104.78 26.938 101.918 36.91 99.013 46.867 C 104.804 46.894 110.592 46.877 116.38 46.877 C 113.48 36.914 110.6 26.951 107.7 16.986 Z" bx:origin="-1.3 0"/>
    <path id="path12" d="M 187.23 2.785 C 189.377 -0.329 193.528 -1.842 197.183 -0.881 C 200.528 -0.11 203.088 2.773 203.971 6.018 C 210.946 30.023 217.944 54.019 224.918 78.023 C 220.793 78.056 216.668 78.023 212.543 78.041 C 210.625 71.412 208.727 64.775 206.795 58.146 C 198.841 58.15 190.888 58.132 182.935 58.152 C 181.034 64.787 179.075 71.404 177.172 78.037 C 173.078 78.041 168.986 78.035 164.892 78.041 C 171.521 55 178.228 31.978 184.911 8.954 C 185.611 6.873 185.881 4.581 187.231 2.785 M 186.231 46.877 C 191.997 46.885 197.761 46.881 203.527 46.881 C 200.659 36.897 197.745 26.925 194.883 16.942 C 191.993 26.922 189.083 36.893 186.223 46.877 Z" bx:origin="-2.755 0"/>
    <path id="path14" d="M 128.56 -1.001 L 173.272 -1.001 L 173.272 11.058 C 167.785 11.062 162.298 11.052 156.813 11.062 C 156.813 33.387 156.817 55.715 156.81 78.039 L 145.018 78.039 C 145.018 55.715 145.015 33.388 145.022 11.062 C 139.533 11.052 134.048 11.062 128.56 11.058 L 128.56 -1.001 Z" bx:origin="-2.885 -0.002"/>
    <path id="path16" d="M 238.02 -0.511 C 239.153 -0.902 240.362 -1.035 241.557 -1.006 C 246.256 -0.989 250.955 -1.003 255.655 -1 C 263.569 -0.855 271.124 4.056 274.549 11.179 C 276.921 15.805 277.165 21.184 276.567 26.258 C 276.156 31.571 273.927 36.883 269.844 40.403 C 267.686 42.327 264.999 43.491 262.691 45.202 C 261.423 46.169 261.361 48.044 262.015 49.386 C 268.253 59.015 274.738 68.491 281.105 78.04 C 276.447 78.048 271.791 78.028 267.133 78.048 C 261.036 68.89 255.003 59.687 248.931 50.517 C 247.146 47.908 246.661 44.451 247.73 41.472 C 248.564 39.187 250.561 37.514 252.785 36.653 C 257.031 35.034 261.216 32.487 263.567 28.481 C 265.355 25.471 265.264 21.756 264.459 18.46 C 263.516 14.183 259.348 10.816 254.945 10.965 C 251.898 10.986 248.854 10.949 245.813 10.979 C 244.436 10.947 243.141 12.144 243.158 13.54 C 243.144 35.041 243.166 56.544 243.152 78.044 C 239.192 78.038 235.235 78.044 231.274 78.04 C 231.267 54.894 231.281 31.743 231.267 8.597 C 231.277 4.539 234.167 0.722 238.007 -0.511 Z" bx:origin="-4.649 -0.002"/>
    <path id="path18" d="M 287.34 -1.001 L 299.838 -1.001 C 299.834 25.348 299.844 51.691 299.83 78.041 C 295.668 78.031 291.504 78.041 287.34 78.037 L 287.34 -1.001 Z" bx:origin="-23.027 -0.002"/>
    <path id="path22" d="M 504.33 78.037 C 482.494 78.037 464.726 60.271 464.726 38.434 C 464.716 16.596 482.486 -1.168 504.326 -1.168 C 526.164 -1.168 543.928 16.597 543.928 38.435 C 543.928 60.271 526.168 78.037 504.328 78.037 Z M 504.33 1.74 C 484.096 1.74 467.635 18.201 467.635 38.434 C 467.635 58.668 484.096 75.129 504.33 75.129 C 524.562 75.129 541.023 58.668 541.023 38.434 C 541.013 18.202 524.553 1.74 504.323 1.74 Z M 504.33 65.414 C 489.457 65.414 477.353 53.312 477.353 38.438 C 477.353 23.563 489.457 11.462 504.33 11.462 C 519.203 11.462 531.305 23.563 531.305 38.438 C 531.305 53.312 519.205 65.414 504.335 65.414 Z M 504.33 14.372 C 491.059 14.372 480.262 25.169 480.262 38.438 C 480.262 51.709 491.059 62.506 504.33 62.506 C 517.6 62.506 528.396 51.709 528.396 38.438 C 528.386 25.168 517.596 14.372 504.326 14.372 Z" bx:origin="-5.873 0"/>
    <path id="path26" d="M 423.26 78.037 C 401.424 78.037 383.656 60.271 383.656 38.434 C 383.646 16.596 401.416 -1.168 423.256 -1.168 C 445.094 -1.168 462.858 16.597 462.858 38.435 C 462.858 60.271 445.098 78.037 423.258 78.037 Z M 423.26 1.74 C 403.028 1.74 386.565 18.201 386.565 38.434 C 386.565 58.668 403.028 75.129 423.26 75.129 C 443.492 75.129 459.953 58.668 459.953 38.434 C 459.953 18.202 443.493 1.74 423.263 1.74 Z M 423.26 65.414 C 408.385 65.414 396.283 53.312 396.283 38.438 C 396.283 23.563 408.385 11.462 423.26 11.462 C 438.133 11.462 450.235 23.563 450.235 38.438 C 450.225 53.312 438.125 65.414 423.255 65.414 Z M 423.26 14.372 C 409.989 14.372 399.192 25.169 399.192 38.438 C 399.192 51.709 409.989 62.506 423.26 62.506 C 436.531 62.506 447.326 51.709 447.326 38.438 C 447.316 25.168 436.526 14.372 423.256 14.372 Z" bx:origin="-4.85 0"/>
    <path id="path30" d="M 355.4 78.037 C 340.105 78.037 327.664 65.596 327.664 50.299 C 327.664 41.121 332.301 32.457 339.861 27.323 C 337.929 24.343 336.918 20.913 336.918 17.314 C 336.918 7.124 345.208 -1.168 355.398 -1.168 C 365.588 -1.168 373.882 7.124 373.882 17.313 C 373.882 20.912 372.866 24.34 370.935 27.322 C 378.498 32.456 383.134 41.118 383.134 50.298 C 383.144 65.596 370.704 78.037 355.404 78.037 Z M 355.4 1.74 C 346.812 1.74 339.824 8.726 339.824 17.314 C 339.824 20.793 340.951 24.087 343.08 26.838 L 344.086 28.135 L 342.676 28.976 C 335.209 33.443 330.572 41.613 330.572 50.299 C 330.572 63.988 341.711 75.129 355.4 75.129 C 369.091 75.129 380.23 63.988 380.23 50.299 C 380.23 41.611 375.591 33.442 368.125 28.976 L 366.719 28.135 L 367.721 26.838 C 369.852 24.087 370.977 20.793 370.977 17.314 C 370.967 8.727 363.977 1.74 355.387 1.74 Z M 355.4 66.525 C 346.455 66.525 339.175 59.25 339.175 50.3 C 339.175 41.355 346.452 34.075 355.4 34.075 C 364.345 34.075 371.625 41.353 371.625 50.3 C 371.625 59.25 364.355 66.525 355.405 66.525 Z M 355.4 36.983 C 348.056 36.983 342.084 42.959 342.084 50.301 C 342.084 57.645 348.059 63.619 355.4 63.619 C 362.744 63.619 368.716 57.644 368.716 50.301 C 368.716 42.959 362.736 36.983 355.396 36.983 Z M 355.4 25.471 C 350.904 25.471 347.248 21.813 347.248 17.317 C 347.248 12.822 350.904 9.166 355.4 9.166 C 359.896 9.166 363.552 12.822 363.552 17.317 C 363.552 21.813 359.902 25.471 355.402 25.471 Z M 355.4 12.072 C 352.507 12.072 350.156 14.426 350.156 17.316 C 350.156 20.21 352.508 22.562 355.4 22.562 C 358.295 22.562 360.646 20.208 360.646 17.316 C 360.646 14.425 358.286 12.072 355.396 12.072 Z" bx:origin="-5.915 0"/>
    <path id="path36" d="M 22.521 13.816 C 23.824 13.812 25.127 13.816 26.432 13.814 C 26.437 16.878 26.432 19.945 26.434 23.009 C 26.447 25.568 26.375 28.125 26.269 30.682 C 26.094 34.372 25.863 38.071 25.252 41.719 C 24.832 44.235 23.961 46.662 22.883 48.965 C 21.122 52.676 18.355 55.817 15.244 58.457 C 12.462 60.906 9.14 62.689 5.647 63.895 C 3.671 64.577 1.637 65.1 -0.433 65.393 C -0.431 62.821 -0.431 60.25 -0.433 57.68 C 2.059 57.305 4.456 56.42 6.681 55.25 C 9.322 53.854 11.699 51.977 13.7 49.762 C 15.767 47.477 17.413 44.83 18.663 42.02 C 20.135 38.79 20.923 35.299 21.458 31.805 C 22.13 27.363 22.409 22.867 22.513 18.38 C 22.53 16.86 22.517 15.338 22.521 13.816 Z" bx:origin="-0.001 -0.29"/>
    <path id="path38" d="M 28.005 13.821 C 30.404 13.805 32.804 13.819 35.205 13.815 C 35.206 31.007 35.206 48.201 35.205 65.391 C 32.81 65.397 30.416 65.381 28.022 65.403 C 27.992 59.921 28.018 54.436 28.009 48.956 C 28.006 37.245 28.014 25.533 28.005 13.821 Z" bx:origin="-3.952 -0.29"/>
    <path id="path40" d="M 36.807 13.815 C 38.104 13.814 39.4 13.811 40.695 13.816 C 40.653 19.057 40.832 24.311 41.456 29.517 C 41.968 33.562 42.689 37.638 44.3 41.406 C 45.827 45.052 48.029 48.441 50.898 51.174 C 53.638 53.787 56.958 55.795 60.565 56.951 C 61.572 57.271 62.601 57.523 63.648 57.678 C 63.647 60.248 63.646 62.817 63.648 65.387 C 61.592 65.108 59.576 64.576 57.614 63.91 C 55.278 63.097 53.018 62.045 50.942 60.693 C 49.427 59.72 48.049 58.552 46.726 57.338 C 44.544 55.324 42.592 53.039 41.125 50.449 C 39.978 48.431 39.141 46.254 38.485 44.033 C 37.884 41.801 37.628 39.49 37.395 37.196 C 36.944 32.234 36.775 27.249 36.807 22.268 C 36.807 19.451 36.806 16.634 36.807 13.815 Z" bx:origin="-1.388 -0.29"/>
    <path id="path42" d="M 28.005 13.821 C 28.013 25.533 28.006 37.245 28.009 48.955 C 28.017 54.435 27.991 59.92 28.022 65.402 C 30.416 65.381 32.811 65.396 35.205 65.39 C 35.206 48.201 35.206 31.007 35.205 13.814 C 32.805 13.819 30.405 13.806 28.005 13.821" bx:origin="-3.952 -0.29"/>
    <path id="path44" d="M 36.807 13.815 C 36.806 16.633 36.807 19.451 36.807 22.268 C 36.775 27.247 36.944 32.234 37.395 37.196 C 37.628 39.49 37.884 41.801 38.485 44.033 C 39.14 46.254 39.978 48.431 41.125 50.449 C 42.592 53.039 44.544 55.324 46.726 57.338 C 48.05 58.555 49.427 59.721 50.942 60.693 C 53.018 62.045 55.278 63.095 57.614 63.91 C 59.576 64.576 61.592 65.105 63.648 65.387 C 63.646 62.817 63.647 60.248 63.648 57.678 C 62.602 57.526 61.572 57.272 60.565 56.951 C 56.958 55.795 53.638 53.787 50.898 51.174 C 48.029 48.444 45.827 45.053 44.3 41.406 C 42.689 37.638 41.968 33.562 41.456 29.517 C 40.831 24.311 40.653 19.057 40.695 13.816 C 39.399 13.812 38.103 13.814 36.807 13.815" bx:origin="-1.388 -0.29"/>
  </g>
</svg>