<?xml version="1.0" encoding="utf-8"?>
<svg id="Ebene_1" enable-background="new 0 0 566.929 79.219" version="1.1" y="0px" x="0px" xmlns="http://www.w3.org/2000/svg">
  <g id="g3" fill="#fff">
    <g transform="matrix(1, 0, 0, 1, -23, 0)">
      <g id="g5">
        <g id="g7" fill="#fff">
          <g id="_x23_ffffffff" fill="#fff">
            <path id="path10" d="m123.44 3.436c3.074-3.934 9.436-4.604 13.207-1.307 1.542 1.299 2.622 3.091 3.175 5.02 6.981 24.021 13.994 48.033 20.966 72.058-4.12 0.004-8.242-0.006-12.362 0.004-1.943-6.623-3.841-13.258-5.759-19.889-7.967-0.018-15.932-0.004-23.898-0.008-1.951 6.627-3.876 13.258-5.792 19.898-4.098-0.014-8.195-0.004-12.294-0.008 6.633-22.914 13.273-45.832 19.938-68.739 0.78-2.394 1.08-5.073 2.81-7.029m7.27 14.718c-2.921 9.952-5.783 19.924-8.688 29.881 5.791 0.027 11.579 0.01 17.367 0.01-2.9-9.963-5.78-19.926-8.68-29.891z"/>
            <path id="path12" d="m210.23 3.953c2.147-3.114 6.298-4.627 9.953-3.666 3.345 0.771 5.905 3.654 6.788 6.899 6.975 24.005 13.973 48.001 20.947 72.005-4.125 0.033-8.25 0-12.375 0.018-1.918-6.629-3.816-13.266-5.748-19.895-7.954 0.004-15.907-0.014-23.86 0.006-1.901 6.635-3.86 13.252-5.763 19.885-4.094 0.004-8.186-0.002-12.28 0.004 6.629-23.041 13.336-46.063 20.019-69.087 0.7-2.081 0.97-4.373 2.32-6.169m-1 44.092c5.766 0.008 11.53 0.004 17.296 0.004-2.868-9.984-5.782-19.956-8.644-29.939-2.89 9.98-5.8 19.951-8.66 29.935z"/>
            <path id="path14" d="m151.56 0.167h44.712v12.059c-5.487 0.004-10.974-0.006-16.459 0.004 0 22.325 0.004 44.653-0.003 66.977h-11.792c0-22.324-0.003-44.651 0.004-66.977-5.489-0.01-10.974 0-16.462-0.004v-12.059z"/>
            <path id="path16" d="m261.02 0.657c1.133-0.391 2.342-0.524 3.537-0.495 4.699 0.017 9.398 0.003 14.098 0.006 7.914 0.145 15.469 5.056 18.894 12.179 2.372 4.626 2.616 10.005 2.018 15.079-0.411 5.313-2.64 10.625-6.723 14.145-2.158 1.924-4.845 3.088-7.153 4.799-1.268 0.967-1.33 2.842-0.676 4.184 6.238 9.629 12.723 19.105 19.09 28.654-4.658 0.008-9.314-0.012-13.972 0.008-6.097-9.158-12.13-18.361-18.202-27.531-1.785-2.609-2.27-6.066-1.201-9.045 0.834-2.285 2.831-3.958 5.055-4.819 4.246-1.619 8.431-4.166 10.782-8.172 1.788-3.01 1.697-6.725 0.892-10.021-0.943-4.277-5.111-7.644-9.514-7.495-3.047 0.021-6.091-0.016-9.132 0.014-1.377-0.032-2.672 1.165-2.655 2.561-0.014 21.501 0.008 43.004-0.006 64.504-3.96-0.006-7.917 0-11.878-0.004-0.007-23.146 0.007-46.297-0.007-69.443 0.01-4.058 2.9-7.875 6.74-9.108z"/>
            <path id="path18" d="m310.34 0.167h12.498c-0.004 26.349 0.006 52.692-0.008 79.042-4.162-0.01-8.326 0-12.49-0.004v-79.038z"/>
          </g>
        </g>
      </g>
      <g id="g20">
        <path id="path22" d="m527.33 79.205c-21.836 0-39.604-17.766-39.604-39.603-0.01-21.838 17.76-39.602 39.6-39.602 21.838 0 39.602 17.765 39.602 39.603 0 21.836-17.76 39.602-39.6 39.602zm0-76.297c-20.234 0-36.695 16.461-36.695 36.694 0 20.234 16.461 36.695 36.695 36.695 20.232 0 36.693-16.461 36.693-36.695-0.01-20.232-16.47-36.694-36.7-36.694zm0 63.674c-14.873 0-26.977-12.102-26.977-26.976 0-14.875 12.104-26.976 26.977-26.976s26.975 12.101 26.975 26.976c0 14.874-12.1 26.976-26.97 26.976zm0-51.042c-13.271 0-24.068 10.797-24.068 24.066 0 13.271 10.797 24.068 24.068 24.068 13.27 0 24.066-10.797 24.066-24.068-0.01-13.27-10.8-24.066-24.07-24.066z"/>
      </g>
      <g id="g24">
        <path id="path26" d="m446.26 79.205c-21.836 0-39.604-17.766-39.604-39.603-0.01-21.838 17.76-39.602 39.6-39.602 21.838 0 39.602 17.765 39.602 39.603 0 21.836-17.76 39.602-39.6 39.602zm0-76.297c-20.232 0-36.695 16.461-36.695 36.694 0 20.234 16.463 36.695 36.695 36.695s36.693-16.461 36.693-36.695c0-20.232-16.46-36.694-36.69-36.694zm0 63.674c-14.875 0-26.977-12.102-26.977-26.976 0-14.875 12.102-26.976 26.977-26.976 14.873 0 26.975 12.101 26.975 26.976-0.01 14.874-12.11 26.976-26.98 26.976zm0-51.042c-13.271 0-24.068 10.797-24.068 24.066 0 13.271 10.797 24.068 24.068 24.068s24.066-10.797 24.066-24.068c-0.01-13.27-10.8-24.066-24.07-24.066z"/>
      </g>
      <g id="g28">
        <path id="path30" d="m378.4 79.205c-15.295 0-27.736-12.441-27.736-27.738 0-9.178 4.637-17.842 12.197-22.976-1.932-2.98-2.943-6.41-2.943-10.009 0-10.19 8.29-18.482 18.48-18.482s18.484 8.292 18.484 18.481c0 3.599-1.016 7.027-2.947 10.009 7.563 5.134 12.199 13.796 12.199 22.976 0.01 15.298-12.43 27.739-27.73 27.739zm0-76.297c-8.588 0-15.576 6.986-15.576 15.574 0 3.479 1.127 6.773 3.256 9.524l1.006 1.297-1.41 0.841c-7.467 4.467-12.104 12.637-12.104 21.323 0 13.689 11.139 24.83 24.828 24.83 13.691 0 24.83-11.141 24.83-24.83 0-8.688-4.639-16.857-12.105-21.323l-1.406-0.841 1.002-1.297c2.131-2.751 3.256-6.045 3.256-9.524-0.01-8.587-7-15.574-15.59-15.574zm0 64.785c-8.945 0-16.225-7.275-16.225-16.225 0-8.945 7.277-16.225 16.225-16.225 8.945 0 16.225 7.278 16.225 16.225 0 8.95-7.27 16.225-16.22 16.225zm0-29.542c-7.344 0-13.316 5.976-13.316 13.318 0 7.344 5.975 13.318 13.316 13.318 7.344 0 13.316-5.975 13.316-13.318 0-7.342-5.98-13.318-13.32-13.318zm0-11.512c-4.496 0-8.152-3.658-8.152-8.154 0-4.495 3.656-8.151 8.152-8.151s8.152 3.656 8.152 8.151c0 4.496-3.65 8.154-8.15 8.154zm0-13.399c-2.893 0-5.244 2.354-5.244 5.244 0 2.894 2.352 5.246 5.244 5.246 2.895 0 5.246-2.354 5.246-5.246 0-2.891-2.36-5.244-5.25-5.244z"/>
      </g>
    </g>
    <g id="g34" transform="matrix(1, 0, 0, 1, -8, 0)">
      <path id="path36" d="m30.521 14.984c1.303-0.004 2.606 0 3.911-0.002 0.005 3.064 0 6.131 0.002 9.195 0.013 2.559-0.059 5.116-0.165 7.673-0.175 3.69-0.406 7.389-1.017 11.037-0.42 2.516-1.291 4.943-2.369 7.246-1.761 3.711-4.528 6.852-7.639 9.492-2.782 2.449-6.104 4.232-9.597 5.438-1.976 0.682-4.01 1.205-6.08 1.498 0.002-2.572 0.002-5.143 0-7.713 2.492-0.375 4.889-1.26 7.114-2.43 2.641-1.396 5.018-3.273 7.019-5.488 2.067-2.285 3.713-4.932 4.963-7.742 1.472-3.23 2.26-6.721 2.795-10.215 0.672-4.442 0.951-8.938 1.055-13.425 0.017-1.52 0.004-3.042 0.008-4.564z"/>
      <path id="path38" d="m36.005 14.989c2.399-0.016 4.799-0.002 7.2-0.006 0.001 17.192 0.001 34.386 0 51.576-2.395 0.006-4.789-0.01-7.183 0.012-0.03-5.482-0.004-10.967-0.013-16.447-0.003-11.711 0.005-23.423-0.004-35.135z"/>
      <path id="path40" d="m44.807 14.983c1.297-0.001 2.593-0.004 3.888 0.001-0.042 5.241 0.137 10.495 0.761 15.701 0.512 4.045 1.233 8.121 2.844 11.889 1.527 3.646 3.729 7.035 6.598 9.768 2.74 2.613 6.06 4.621 9.667 5.777 1.007 0.32 2.036 0.572 3.083 0.727-0.001 2.57-0.002 5.139 0 7.709-2.056-0.279-4.072-0.811-6.034-1.477-2.336-0.813-4.596-1.865-6.672-3.217-1.515-0.973-2.893-2.141-4.216-3.355-2.182-2.014-4.134-4.299-5.601-6.889-1.147-2.018-1.984-4.195-2.64-6.416-0.601-2.232-0.857-4.543-1.09-6.837-0.451-4.962-0.62-9.947-0.588-14.928 0-2.817-0.001-5.634 0-8.453z"/>
      <path id="path42" d="m36.005 14.989c0.008 11.712 0.001 23.424 0.004 35.134 0.008 5.48-0.018 10.965 0.013 16.447 2.394-0.021 4.789-0.006 7.183-0.012 0.001-17.189 0.001-34.383 0-51.576-2.4 0.005-4.8-0.008-7.2 0.007"/>
      <path id="path44" d="m44.807 14.983c-0.001 2.818 0 5.636 0 8.453-0.032 4.979 0.137 9.966 0.588 14.928 0.233 2.294 0.489 4.605 1.09 6.837 0.655 2.221 1.493 4.398 2.64 6.416 1.467 2.59 3.419 4.875 5.601 6.889 1.324 1.217 2.701 2.383 4.216 3.355 2.076 1.352 4.336 2.402 6.672 3.217 1.962 0.666 3.978 1.195 6.034 1.477-0.002-2.57-0.001-5.139 0-7.709-1.046-0.152-2.076-0.406-3.083-0.727-3.607-1.156-6.927-3.164-9.667-5.777-2.869-2.73-5.071-6.121-6.598-9.768-1.611-3.768-2.332-7.844-2.844-11.889-0.625-5.206-0.803-10.46-0.761-15.701-1.296-0.004-2.592-0.002-3.888-0.001"/>
    </g>
  </g>
</svg>