<?xml version="1.0" encoding="utf-8"?>
<svg version="1.1" id="svg2" xmlns="http://www.w3.org/2000/svg">
  <g transform="matrix(1, 0, 0, 1, 4118.679913508649, 823.715369424549)" id="layer1"/>
  <path d="M 3747.875 0 C 3581.198 0 3432.566 71.988 3335.938 184.406 C 3307.41 147.766 3272.537 109.28 3234.438 82.187 C 3154.475 22.493 3050.799 4.327 2940 1.343 C 2752.426 -3.707 2602.402 97.627 2533.313 211.562 C 2474.952 95.124 2422.594 34.32 2219.531 24.218 L 1727.451 24.218 L 1727.563 229.312 C 1727.563 229.312 1750.964 236.786 1758.875 245.468 C 1765.476 252.713 1769.875 272.718 1769.875 272.718 L 1768.719 729.218 C 1768.719 729.218 1755.849 719.886 1750.719 713.906 C 1741.17 702.777 1727.625 676.468 1727.625 676.468 L 1475.5 24 L 1155.813 24.218 L 878.031 750.406 L 878.031 594.968 L 678.125 594.968 C 662.383 638.372 618.185 667.687 564.875 667.687 C 536.782 667.687 506.745 661.062 482.406 646.437 C 450.689 627.379 426.988 604.745 407.469 564.531 C 392.112 527.317 380.36 481.751 379 441.437 C 383.679 361.708 407.902 333.289 452.25 300.406 C 462.082 293.116 489.55 287.287 497.469 287.25 C 514.891 287.168 529.412 297.736 537.281 313.312 C 548.729 335.969 531.974 363.413 515.406 382.937 L 677.031 494.281 L 926.656 233.093 C 839.57 94.296 680.437 1.375 498.563 1.375 C 223.209 1.375 0 214.364 0 477.093 C 0 739.823 216.066 938.509 498.563 959.937 L 534.281 961.375 L 914.281 961.375 L 914.281 961.187 L 1799 961.187 L 1799 961.125 L 2131.625 960.656 L 2131.625 960.125 L 2183.656 960.125 L 2183.656 764.688 C 2183.656 764.688 2155.783 758.874 2144.313 751.063 C 2132.267 742.859 2131.125 729.938 2131.125 729.938 C 2130.909 724.954 2131.913 721.135 2134.531 717.875 C 2137.098 714.68 2143.104 712.507 2145.375 712.031 C 2179.724 704.845 2214.752 695.016 2249.813 682.406 C 2343.363 648.761 2422.084 600.893 2477.969 548 C 2515.365 768.946 2709.537 930.174 2944.281 957.094 C 2959.611 958.852 2972.818 960.181 2987.156 960.688 C 2990.964 960.822 2998.594 960.531 2998.594 960.531 L 3330.594 960.531 L 3329.584 797.155 C 3415.925 893.001 3584.141 984.874 3753.936 984.874 C 3892.671 984.874 4017.115 924.127 4104.826 849.009 L 4104.112 962 L 4523.344 962 L 4525.487 789.134 L 4634.781 790.563 L 4634.781 788.656 L 4781.438 789.938 L 4781.438 961.375 L 5228.563 961.375 L 5228.563 734.219 C 5228.563 734.219 5209.471 732.995 5202 727.781 C 5191.898 720.732 5181.438 697.063 5181.438 697.063 L 5118.594 279.719 C 5118.594 279.719 5120.479 251.799 5128.594 241.375 C 5135.271 232.799 5157.156 225.656 5157.156 225.656 L 5157.156 24.219 L 5117.156 24.219 L 5052.844 24.219 L 4711.438 24.219 L 4711.438 29.938 L 4680 135.656 L 4634.781 29.25 L 4634.781 24.219 L 4632.656 24.219 L 4631.438 21.375 L 4631.344 24.219 L 4201.25 24.219 L 4201.25 235.656 L 4171.875 195.656 C 4091.191 78.027 3949.566 0 3788.281 0 C 3781.705 0 3775.165 0.118 3768.656 0.375 C 3761.76 0.126 3754.837 0 3747.875 0 Z M 872.5 791.718 L 872.469 793.781 L 870.594 793.781 C 871.235 793.096 871.864 792.406 872.5 791.718 L 872.5 791.718 Z" id="path3840" style="fill-opacity: 1; stroke: none; fill: rgb(20, 20, 20);"/>
  <path d="M 498.229 90.758 C 271.247 92.187 85.863 257.524 85.863 473.81 C 85.863 690.095 290.51 875.881 538.229 870.288 L 778.942 870.966 L 778.942 681.459 L 733.479 681.459 C 719.195 717.19 652.482 752.139 604.112 752.139 C 578.622 752.139 514.451 748.674 490.713 740.36 C 448.803 725.681 389.001 704.61 337.005 617.219 C 323.071 586.584 283.836 511.93 292.603 403.028 C 296.848 337.393 338.539 255.46 413.351 218.356 C 445.972 202.178 478.812 199.523 536.472 204.755 C 577.868 208.512 619 237.619 633.36 272.553 C 644.468 299.571 641.276 332.494 628.201 351.248 C 627.268 352.586 627.248 353.771 627.441 355.048 C 627.588 356.02 628.849 357.64 628.849 357.64 L 651.634 375.439 C 651.634 375.439 658.12 379.946 665.697 379.745 C 670.098 379.627 677.964 374.854 677.964 374.854 L 808.085 238.3 C 727.64 129.753 584.68 90.758 498.229 90.758 Z" id="path3950" style="fill-opacity: 1; stroke: none; fill: rgb(255, 255, 255);"/>
  <path d="M 3750 87.093 C 3509.362 87.093 3314.282 268.094 3314.282 491.375 C 3314.282 714.656 3509.362 895.656 3750 895.656 C 3990.639 895.656 4185.719 714.656 4185.719 491.375 C 4185.719 268.094 3990.639 87.093 3750 87.093 Z M 3752.844 212.781 C 3876.714 212.781 3943.102 301.425 3970.014 407.085 C 3977.717 437.33 3974.594 537.894 3970.004 571.379 C 3956.01 673.491 3872.545 773.001 3751.437 769.937 C 3633.419 766.952 3554.475 712.007 3530.013 564.236 C 3522.857 521.01 3522.732 469.081 3528.562 425.656 C 3545.466 299.741 3628.974 212.781 3752.843 212.781 L 3752.843 212.781 Z" id="path3990" style="fill-opacity: 1; stroke: none; fill: rgb(255, 255, 255);"/>
  <path d="M 1215.625 112.187 C 1215.625 112.187 1024.286 629.933 990 724.218 C 955.715 818.504 917.157 815.656 917.157 815.656 L 920 872.781 L 1151.25 872.718 L 1151.438 817.843 C 1151.438 817.843 1136.6 817.082 1125.719 807.093 C 1104.616 787.722 1117.969 748.75 1117.969 748.75 L 1171.438 611.968 L 1408.907 612.468 C 1408.907 612.468 1455.195 728.041 1466.532 766.187 C 1481.322 815.957 1435.125 816.843 1435.125 816.843 L 1435.125 872.625 L 1727.563 872.468 L 1727.375 817.312 C 1727.375 817.312 1709.96 814.656 1691.438 798.5 C 1670.428 780.173 1656.125 742.375 1656.125 742.375 L 1416.625 112.718 L 1215.625 112.187 Z M 1284.282 271.375 L 1363.563 492.093 L 1210 492.781 L 1284.282 271.375 Z" id="path4001" style="fill-opacity: 1; stroke: none; fill: rgb(255, 255, 255);"/>
  <path d="M 1821 111.375 L 1819.875 174.843 C 1819.875 174.843 1838.463 180.169 1856.25 199.906 C 1865.681 210.37 1859.844 343.187 1859.844 343.187 L 1859.532 768.343 C 1859.532 768.343 1865.59 785.101 1845.25 801.937 C 1837.573 808.293 1830.772 815.029 1818.907 816.062 L 1817.5 872.625 L 2088.532 873.281 L 2089.188 815.75 C 2089.188 815.75 2079.601 811.968 2064.563 798.406 C 2056.075 790.751 2050.846 779.734 2050.969 768.75 C 2051.197 730.343 2052.095 693.439 2051.907 655.937 C 2146.845 633.07 2228.803 594.295 2260.75 582.531 C 2380.837 534.613 2474.02 458.533 2468.563 322.812 C 2467.532 226.657 2418.761 147.842 2314.282 130.031 C 2266.655 116.27 2244.789 113.865 2226 112.812 L 1821 111.375 Z M 2130.969 219.167 C 2160.204 218.605 2194.636 225.304 2221.145 238.655 C 2254.182 260.588 2274.282 283.309 2274.282 331.375 C 2275.644 353.971 2269.151 373.4 2258.282 393.156 C 2246.964 412.047 2212.727 448.312 2191.109 469.058 C 2127.909 514.24 2105.293 527.485 2055.086 550.596 L 2054.282 228.5 C 2081.039 223.453 2105.04 219.339 2130.969 219.167 Z" id="rect3593" style="fill-opacity: 1; stroke: none; fill: rgb(255, 255, 255);"/>
  <path d="M 2966.755 91.263 C 2739.772 92.692 2554.389 258.03 2554.389 474.315 C 2554.389 690.6 2759.036 876.386 3006.755 870.793 L 3247.468 871.471 L 3247.468 681.964 L 3202.004 681.964 C 3187.72 717.695 3121.007 752.645 3072.637 752.645 C 3047.147 752.645 2982.977 749.179 2959.238 740.865 C 2917.328 726.186 2857.526 705.115 2805.53 617.724 C 2791.596 587.089 2752.362 512.435 2761.128 403.533 C 2765.374 337.898 2807.064 255.965 2881.876 218.861 C 2914.498 202.683 2947.337 200.028 3004.997 205.261 C 3046.393 209.017 3087.525 238.124 3101.886 273.058 C 3112.993 300.076 3109.801 332.999 3096.726 351.753 C 3095.793 353.091 3095.773 354.276 3095.966 355.553 C 3096.114 356.525 3097.375 358.145 3097.375 358.145 L 3120.159 375.944 C 3120.159 375.944 3126.646 380.451 3134.223 380.25 C 3138.623 380.132 3146.489 375.359 3146.489 375.359 L 3276.61 238.805 C 3196.165 130.258 3053.205 91.263 2966.755 91.263 Z" id="path3622" style="fill-opacity: 1; stroke: none; fill: rgb(255, 255, 255);"/>
  <path d="M 4294.625 112.875 L 4294.875 167.406 C 4294.875 167.406 4318.72 173.825 4328.188 181.312 C 4339.012 189.872 4336.282 205.062 4336.282 205.062 C 4336.282 205.062 4249.785 742.586 4247.907 752.562 C 4245.886 763.295 4243.025 788.371 4227.938 802.312 C 4212.936 816.175 4195.625 818.968 4195.625 818.968 L 4195.375 872.75 L 4437.563 872.75 L 4437.563 822.5 C 4437.563 822.5 4417.851 820.975 4404.719 807.843 C 4391.587 794.712 4395.375 758.625 4395.375 758.625 L 4454.969 352.531 L 4576.188 702.031 L 4723.844 704.062 L 4843.782 327.687 L 4910.719 760.625 C 4910.719 760.625 4918.793 793.171 4901.375 809.875 C 4887.972 822.729 4868.563 824.531 4868.563 824.531 L 4868.563 874.781 L 5149.125 874.781 L 5148.875 821 C 5148.875 821 5142.595 823.15 5126.657 810.375 C 5117.284 802.862 5112.771 769.358 5110.75 758.625 C 5108.873 748.648 5033.282 207.781 5033.282 207.781 C 5033.282 207.781 5031.967 185.448 5044.219 174.031 C 5053.05 165.802 5071.125 158 5071.125 158 L 5070.688 113.468 L 4779.407 113.125 L 4672.813 420.156 L 4571.157 113.125 L 4294.625 112.875 Z" id="path3624" style="fill-opacity: 1; stroke: none; fill: rgb(255, 255, 255);"/>
</svg>