<?xml version="1.0" encoding="utf-8"?>
<svg version="1.1" id="svg2" xmlns="http://www.w3.org/2000/svg">
  <g transform="matrix(0.0625, 0, 0, 0.0625, 257.41745, 51.482208)" id="layer1"/>
  <path d="M 234.242 0 C 223.825 0 214.535 4.499 208.496 11.525 C 206.713 9.235 204.534 6.83 202.152 5.137 C 197.155 1.406 190.675 0.27 183.75 0.084 C 172.027 -0.232 162.65 6.102 158.332 13.223 C 154.684 5.945 151.412 2.145 138.721 1.514 L 107.966 1.514 L 107.973 14.332 C 107.973 14.332 109.435 14.799 109.93 15.342 C 110.342 15.795 110.617 17.045 110.617 17.045 L 110.545 45.576 C 110.545 45.576 109.741 44.993 109.42 44.619 C 108.823 43.924 107.977 42.279 107.977 42.279 L 92.219 1.5 L 72.238 1.514 L 54.877 46.9 L 54.877 37.186 L 42.383 37.186 C 41.399 39.898 38.637 41.73 35.305 41.73 C 33.549 41.73 31.672 41.316 30.15 40.402 C 28.168 39.211 26.687 37.797 25.467 35.283 C 24.507 32.957 23.772 30.109 23.688 27.59 C 23.98 22.607 25.494 20.831 28.266 18.775 C 28.88 18.32 30.597 17.955 31.092 17.953 C 32.181 17.948 33.088 18.608 33.58 19.582 C 34.296 20.998 33.248 22.713 32.213 23.934 L 42.314 30.893 L 57.916 14.568 C 52.473 5.893 42.527 0.086 31.16 0.086 C 13.951 0.086 0 13.398 0 29.818 C 0 46.239 13.504 58.657 31.16 59.996 L 33.393 60.086 L 57.143 60.086 L 57.143 60.074 L 112.438 60.074 L 112.438 60.07 L 133.227 60.041 L 133.227 60.008 L 136.479 60.008 L 136.479 47.793 C 136.479 47.793 134.736 47.43 134.02 46.941 C 133.267 46.429 133.195 45.621 133.195 45.621 C 133.182 45.31 133.245 45.071 133.408 44.867 C 133.569 44.667 133.944 44.532 134.086 44.502 C 136.233 44.053 138.422 43.438 140.613 42.65 C 146.46 40.548 151.38 37.556 154.873 34.25 C 157.21 48.059 169.346 58.136 184.018 59.818 C 184.976 59.928 185.801 60.011 186.697 60.043 C 186.935 60.051 187.412 60.033 187.412 60.033 L 208.162 60.033 L 208.099 49.822 C 213.495 55.813 224.009 61.555 234.621 61.555 C 243.292 61.555 251.07 57.758 256.552 53.063 L 256.507 60.125 L 282.709 60.125 L 282.843 49.321 L 289.674 49.41 L 289.674 49.291 L 298.84 49.371 L 298.84 60.086 L 326.785 60.086 L 326.785 45.889 C 326.785 45.889 325.592 45.812 325.125 45.486 C 324.494 45.046 323.84 43.566 323.84 43.566 L 319.912 17.482 C 319.912 17.482 320.03 15.737 320.537 15.086 C 320.954 14.55 322.322 14.104 322.322 14.104 L 322.322 1.514 L 319.822 1.514 L 315.803 1.514 L 294.465 1.514 L 294.465 1.871 L 292.5 8.479 L 289.674 1.828 L 289.674 1.514 L 289.541 1.514 L 289.465 1.336 L 289.459 1.514 L 262.578 1.514 L 262.578 14.729 L 260.742 12.229 C 255.699 4.877 246.848 0 236.768 0 C 236.357 0 235.948 0.007 235.541 0.023 C 235.11 0.008 234.677 0 234.242 0 Z M 54.531 49.482 L 54.529 49.611 L 54.412 49.611 C 54.452 49.569 54.492 49.525 54.531 49.482 L 54.531 49.482 Z" id="path3840" style="fill-opacity: 1; stroke: none; fill: rgb(20, 20, 20);"/>
  <path d="M 31.139 5.672 C 16.953 5.762 5.366 16.095 5.366 29.613 C 5.366 43.131 18.157 54.743 33.639 54.393 L 48.684 54.435 L 48.684 42.591 L 45.842 42.591 C 44.95 44.824 40.78 47.009 37.757 47.009 C 36.164 47.009 32.153 46.792 30.67 46.272 C 28.05 45.355 24.313 44.038 21.063 38.576 C 20.192 36.661 17.74 31.996 18.288 25.189 C 18.553 21.087 21.159 15.966 25.834 13.647 C 27.873 12.636 29.926 12.47 33.529 12.797 C 36.117 13.032 38.688 14.851 39.585 17.035 C 40.279 18.723 40.08 20.781 39.263 21.953 C 39.204 22.037 39.203 22.111 39.215 22.191 C 39.224 22.251 39.303 22.353 39.303 22.353 L 40.727 23.465 C 40.727 23.465 41.132 23.747 41.606 23.734 C 41.881 23.727 42.373 23.428 42.373 23.428 L 50.505 14.894 C 45.478 8.11 36.542 5.672 31.139 5.672 Z" id="path3950" style="fill-opacity: 1; stroke: none; fill: rgb(255, 255, 255);"/>
  <path d="M 234.375 5.443 C 219.335 5.443 207.143 16.756 207.143 30.711 C 207.143 44.666 219.335 55.979 234.375 55.979 C 249.415 55.979 261.607 44.666 261.607 30.711 C 261.607 16.756 249.415 5.443 234.375 5.443 Z M 234.553 13.299 C 242.295 13.299 246.444 18.839 248.126 25.443 C 248.607 27.333 248.412 33.618 248.125 35.711 C 247.251 42.093 242.034 48.313 234.465 48.121 C 227.089 47.935 222.155 44.5 220.626 35.265 C 220.179 32.563 220.171 29.318 220.535 26.604 C 221.592 18.734 226.811 13.299 234.553 13.299 L 234.553 13.299 Z" id="path3990" style="fill-opacity: 1; stroke: none; fill: rgb(255, 255, 255);"/>
  <path d="M 75.977 7.012 C 75.977 7.012 64.018 39.371 61.875 45.264 C 59.732 51.157 57.322 50.979 57.322 50.979 L 57.5 54.549 L 71.953 54.545 L 71.965 51.115 C 71.965 51.115 71.037 51.068 70.357 50.443 C 69.038 49.233 69.873 46.797 69.873 46.797 L 73.215 38.248 L 88.057 38.279 C 88.057 38.279 90.95 45.503 91.658 47.887 C 92.583 50.997 89.695 51.053 89.695 51.053 L 89.695 54.539 L 107.973 54.529 L 107.961 51.082 C 107.961 51.082 106.872 50.916 105.715 49.906 C 104.402 48.761 103.508 46.398 103.508 46.398 L 88.539 7.045 L 75.977 7.012 Z M 80.268 16.961 L 85.223 30.756 L 75.625 30.799 L 80.268 16.961 Z" id="path4001" style="fill-opacity: 1; stroke: none; fill: rgb(255, 255, 255);"/>
  <path d="M 113.813 6.961 L 113.742 10.928 C 113.742 10.928 114.904 11.261 116.016 12.494 C 116.605 13.148 116.24 21.449 116.24 21.449 L 116.221 48.021 C 116.221 48.021 116.599 49.069 115.328 50.121 C 114.848 50.518 114.423 50.939 113.682 51.004 L 113.594 54.539 L 130.533 54.58 L 130.574 50.984 C 130.574 50.984 129.975 50.748 129.035 49.9 C 128.505 49.422 128.178 48.733 128.186 48.047 C 128.2 45.646 128.256 43.34 128.244 40.996 C 134.178 39.567 139.3 37.143 141.297 36.408 C 148.802 33.413 154.626 28.658 154.285 20.176 C 154.221 14.166 151.173 9.24 144.643 8.127 C 141.666 7.267 140.299 7.117 139.125 7.051 L 113.813 6.961 Z M 133.186 13.698 C 135.013 13.663 137.165 14.082 138.822 14.916 C 140.886 16.287 142.143 17.707 142.143 20.711 C 142.228 22.123 141.822 23.337 141.143 24.572 C 140.435 25.753 138.295 28.02 136.944 29.316 C 132.994 32.14 131.581 32.968 128.443 34.412 L 128.393 14.281 C 130.065 13.966 131.565 13.709 133.186 13.698 Z" id="rect3593" style="fill-opacity: 1; stroke: none; fill: rgb(255, 255, 255);"/>
  <path d="M 185.422 5.704 C 171.236 5.793 159.649 16.127 159.649 29.645 C 159.649 43.162 172.44 54.774 187.922 54.425 L 202.967 54.467 L 202.967 42.623 L 200.125 42.623 C 199.232 44.856 195.063 47.04 192.04 47.04 C 190.447 47.04 186.436 46.824 184.952 46.304 C 182.333 45.387 178.595 44.07 175.346 38.608 C 174.475 36.693 172.023 32.027 172.57 25.221 C 172.836 21.119 175.441 15.998 180.117 13.679 C 182.156 12.668 184.209 12.502 187.812 12.829 C 190.4 13.064 192.97 14.883 193.868 17.066 C 194.562 18.755 194.363 20.812 193.545 21.985 C 193.487 22.068 193.486 22.142 193.498 22.222 C 193.507 22.283 193.586 22.384 193.586 22.384 L 195.01 23.497 C 195.01 23.497 195.415 23.778 195.889 23.766 C 196.164 23.758 196.656 23.46 196.656 23.46 L 204.788 14.925 C 199.76 8.141 190.825 5.704 185.422 5.704 Z" id="path3622" style="fill-opacity: 1; stroke: none; fill: rgb(255, 255, 255);"/>
  <path d="M 268.414 7.055 L 268.43 10.463 C 268.43 10.463 269.92 10.864 270.512 11.332 C 271.188 11.867 271.018 12.816 271.018 12.816 C 271.018 12.816 265.612 46.412 265.494 47.035 C 265.368 47.706 265.189 49.273 264.246 50.145 C 263.309 51.011 262.227 51.186 262.227 51.186 L 262.211 54.547 L 277.348 54.547 L 277.348 51.406 C 277.348 51.406 276.116 51.311 275.295 50.49 C 274.474 49.669 274.711 47.414 274.711 47.414 L 278.436 22.033 L 286.012 43.877 L 295.24 44.004 L 302.736 20.48 L 306.92 47.539 C 306.92 47.539 307.425 49.573 306.336 50.617 C 305.498 51.421 304.285 51.533 304.285 51.533 L 304.285 54.674 L 321.82 54.674 L 321.805 51.313 C 321.805 51.313 321.412 51.447 320.416 50.648 C 319.83 50.179 319.548 48.085 319.422 47.414 C 319.305 46.791 314.58 12.986 314.58 12.986 C 314.58 12.986 314.498 11.59 315.264 10.877 C 315.816 10.363 316.945 9.875 316.945 9.875 L 316.918 7.092 L 298.713 7.07 L 292.051 26.26 L 285.697 7.07 L 268.414 7.055 Z" id="path3624" style="fill-opacity: 1; stroke: none; fill: rgb(255, 255, 255);"/>
</svg>