<?xml version="1.0" encoding="utf-8"?>
<svg version="1.1" id="svg2" xmlns="http://www.w3.org/2000/svg">
  <g transform="matrix(0.038251, 0, 0, 0.038251, 157.545456, 31.508305)" id="layer1"/>
  <path d="M 143.362 0 C 136.986 0 131.3 2.753 127.604 7.054 C 126.513 5.652 125.18 4.18 123.722 3.144 C 120.663 0.861 116.698 0.165 112.459 0.051 C 105.285 -0.142 99.546 3.735 96.903 8.093 C 94.67 3.638 92.668 1.313 84.9 0.927 L 66.078 0.927 L 66.082 8.772 C 66.082 8.772 66.977 9.057 67.28 9.39 C 67.532 9.667 67.7 10.432 67.7 10.432 L 67.656 27.894 C 67.656 27.894 67.164 27.537 66.968 27.308 C 66.602 26.883 66.084 25.876 66.084 25.876 L 56.44 0.918 L 44.211 0.927 L 33.586 28.704 L 33.586 22.759 L 25.939 22.759 C 25.337 24.418 23.647 25.54 21.607 25.54 C 20.533 25.54 19.384 25.286 18.452 24.727 C 17.239 23.998 16.333 23.133 15.586 21.594 C 14.999 20.17 14.549 18.427 14.498 16.886 C 14.676 13.836 15.603 12.749 17.299 11.491 C 17.675 11.212 18.726 10.989 19.029 10.988 C 19.696 10.985 20.251 11.389 20.552 11.985 C 20.99 12.851 20.349 13.901 19.715 14.648 L 25.897 18.907 L 35.446 8.916 C 32.115 3.607 26.028 0.053 19.071 0.053 C 8.538 0.053 0 8.2 0 18.249 C 0 28.299 8.265 35.899 19.071 36.719 L 20.437 36.774 L 34.973 36.774 L 34.973 36.767 L 68.815 36.767 L 68.815 36.764 L 81.538 36.746 L 81.538 36.726 L 83.528 36.726 L 83.528 29.25 C 83.528 29.25 82.462 29.028 82.023 28.729 C 81.562 28.416 81.518 27.921 81.518 27.921 C 81.51 27.731 81.549 27.584 81.649 27.46 C 81.747 27.337 81.977 27.255 82.064 27.236 C 83.378 26.961 84.717 26.585 86.058 26.103 C 89.637 24.816 92.648 22.985 94.786 20.962 C 96.216 29.413 103.644 35.581 112.623 36.61 C 113.21 36.677 113.715 36.728 114.263 36.748 C 114.409 36.753 114.7 36.742 114.7 36.742 L 127.4 36.742 L 127.361 30.492 C 130.664 34.159 137.099 37.673 143.593 37.673 C 148.9 37.673 153.661 35.349 157.016 32.476 L 156.988 36.798 L 173.024 36.798 L 173.106 30.186 L 177.287 30.24 L 177.287 30.167 L 182.897 30.216 L 182.897 36.774 L 200 36.774 L 200 28.085 C 200 28.085 199.27 28.038 198.984 27.838 C 198.598 27.569 198.198 26.663 198.198 26.663 L 195.794 10.699 C 195.794 10.699 195.866 9.631 196.176 9.233 C 196.431 8.905 197.269 8.632 197.269 8.632 L 197.269 0.927 L 195.738 0.927 L 193.279 0.927 L 180.219 0.927 L 180.219 1.145 L 179.017 5.189 L 177.287 1.119 L 177.287 0.927 L 177.206 0.927 L 177.159 0.818 L 177.156 0.927 L 160.704 0.927 L 160.704 9.014 L 159.58 7.484 C 156.494 2.985 151.077 0 144.908 0 C 144.656 0 144.406 0.004 144.157 0.014 C 143.893 0.005 143.628 0 143.362 0 Z M 33.374 30.284 L 33.373 30.363 L 33.301 30.363 C 33.326 30.337 33.35 30.31 33.374 30.284 L 33.374 30.284 Z" id="path3840" style="fill-opacity: 1; stroke: none; fill: rgb(20, 20, 20);"/>
  <path d="M 19.058 3.471 C 10.376 3.526 3.284 9.851 3.284 18.124 C 3.284 26.397 11.113 33.504 20.588 33.29 L 29.796 33.315 L 29.796 26.067 L 28.056 26.067 C 27.51 27.433 24.958 28.771 23.108 28.771 C 22.133 28.771 19.678 28.638 18.771 28.32 C 17.167 27.758 14.88 26.952 12.891 23.609 C 12.358 22.437 10.857 19.582 11.193 15.416 C 11.355 12.906 12.95 9.772 15.811 8.352 C 17.059 7.734 18.315 7.632 20.521 7.832 C 22.104 7.976 23.678 9.089 24.227 10.426 C 24.652 11.459 24.53 12.718 24.03 13.436 C 23.994 13.487 23.993 13.532 24 13.581 C 24.006 13.618 24.054 13.681 24.054 13.681 L 24.926 14.361 C 24.926 14.361 25.174 14.534 25.464 14.526 C 25.632 14.521 25.933 14.338 25.933 14.338 L 30.91 9.115 C 27.834 4.964 22.365 3.471 19.058 3.471 Z" id="path3950" style="fill-opacity: 1; stroke: none; fill: rgb(255, 255, 255);"/>
  <path d="M 143.443 3.331 C 134.238 3.331 126.776 10.255 126.776 18.796 C 126.776 27.337 134.238 34.26 143.443 34.26 C 152.648 34.26 160.11 27.337 160.11 18.796 C 160.11 10.255 152.648 3.331 143.443 3.331 Z M 143.552 8.139 C 148.29 8.139 150.829 11.53 151.859 15.572 C 152.153 16.728 152.034 20.575 151.858 21.856 C 151.323 25.762 148.13 29.569 143.498 29.451 C 138.984 29.337 135.964 27.235 135.028 21.583 C 134.755 19.929 134.75 17.943 134.973 16.282 C 135.619 11.466 138.814 8.139 143.552 8.139 L 143.552 8.139 Z" id="path3990" style="fill-opacity: 1; stroke: none; fill: rgb(255, 255, 255);"/>
  <path d="M 46.5 4.292 C 46.5 4.292 39.181 24.096 37.869 27.703 C 36.557 31.309 35.082 31.2 35.082 31.2 L 35.191 33.385 L 44.037 33.383 L 44.044 31.284 C 44.044 31.284 43.476 31.255 43.06 30.872 C 42.253 30.132 42.764 28.641 42.764 28.641 L 44.809 23.409 L 53.893 23.428 C 53.893 23.428 55.664 27.849 56.097 29.308 C 56.663 31.211 54.895 31.246 54.895 31.246 L 54.895 33.379 L 66.082 33.373 L 66.075 31.263 C 66.075 31.263 65.408 31.162 64.7 30.544 C 63.896 29.843 63.349 28.397 63.349 28.397 L 54.188 4.312 L 46.5 4.292 Z M 49.126 10.381 L 52.158 18.823 L 46.284 18.85 L 49.126 10.381 Z" id="path4001" style="fill-opacity: 1; stroke: none; fill: rgb(255, 255, 255);"/>
  <path d="M 69.656 4.26 L 69.613 6.688 C 69.613 6.688 70.324 6.892 71.004 7.647 C 71.365 8.047 71.142 13.127 71.142 13.127 L 71.13 29.39 C 71.13 29.39 71.361 30.031 70.583 30.675 C 70.29 30.918 70.03 31.176 69.576 31.216 L 69.522 33.379 L 79.889 33.404 L 79.914 31.203 C 79.914 31.203 79.548 31.059 78.972 30.54 C 78.648 30.247 78.448 29.826 78.453 29.406 C 78.461 27.936 78.496 26.525 78.488 25.091 C 82.12 24.216 85.255 22.732 86.477 22.283 C 91.07 20.45 94.635 17.539 94.426 12.348 C 94.387 8.67 92.521 5.655 88.525 4.974 C 86.703 4.448 85.866 4.356 85.148 4.315 L 69.656 4.26 Z M 81.513 8.383 C 82.631 8.362 83.948 8.619 84.962 9.129 C 86.225 9.968 86.995 10.837 86.995 12.676 C 87.047 13.54 86.798 14.283 86.383 15.039 C 85.949 15.761 84.64 17.149 83.813 17.942 C 81.395 19.67 80.531 20.177 78.61 21.061 L 78.579 8.74 C 79.603 8.548 80.521 8.39 81.513 8.383 Z" id="rect3593" style="fill-opacity: 1; stroke: none; fill: rgb(255, 255, 255);"/>
  <path d="M 113.483 3.491 C 104.8 3.545 97.709 9.87 97.709 18.143 C 97.709 26.416 105.537 33.523 115.013 33.309 L 124.221 33.335 L 124.221 26.086 L 122.481 26.086 C 121.935 27.453 119.383 28.79 117.533 28.79 C 116.558 28.79 114.103 28.657 113.195 28.339 C 111.592 27.778 109.304 26.972 107.316 23.629 C 106.783 22.457 105.282 19.601 105.617 15.436 C 105.78 12.925 107.374 9.791 110.236 8.372 C 111.484 7.753 112.74 7.652 114.945 7.852 C 116.529 7.995 118.102 9.109 118.652 10.445 C 119.076 11.478 118.955 12.737 118.454 13.455 C 118.419 13.506 118.418 13.551 118.425 13.6 C 118.431 13.638 118.479 13.7 118.479 13.7 L 119.351 14.381 C 119.351 14.381 119.599 14.553 119.889 14.545 C 120.057 14.54 120.358 14.358 120.358 14.358 L 125.335 9.134 C 122.258 4.982 116.789 3.491 113.483 3.491 Z" id="path3622" style="fill-opacity: 1; stroke: none; fill: rgb(255, 255, 255);"/>
  <path d="M 164.276 4.318 L 164.285 6.404 C 164.285 6.404 165.197 6.649 165.56 6.935 C 165.973 7.263 165.869 7.844 165.869 7.844 C 165.869 7.844 162.561 28.405 162.488 28.787 C 162.411 29.197 162.302 30.156 161.725 30.69 C 161.151 31.22 160.489 31.327 160.489 31.327 L 160.479 33.384 L 169.743 33.384 L 169.743 31.462 C 169.743 31.462 168.989 31.404 168.487 30.901 C 167.984 30.399 168.13 29.018 168.13 29.018 L 170.409 13.485 L 175.046 26.854 L 180.694 26.931 L 185.281 12.534 L 187.842 29.095 C 187.842 29.095 188.151 30.34 187.485 30.979 C 186.972 31.471 186.229 31.539 186.229 31.539 L 186.229 33.462 L 196.961 33.462 L 196.952 31.405 C 196.952 31.405 196.712 31.487 196.102 30.998 C 195.743 30.711 195.571 29.429 195.494 29.018 C 195.422 28.637 192.53 7.948 192.53 7.948 C 192.53 7.948 192.48 7.093 192.949 6.657 C 193.287 6.342 193.978 6.044 193.978 6.044 L 193.961 4.34 L 182.819 4.327 L 178.742 16.072 L 174.853 4.327 L 164.276 4.318 Z" id="path3624" style="fill-opacity: 1; stroke: none; fill: rgb(255, 255, 255);"/>
</svg>