<?xml version="1.0" encoding="utf-8"?>
<svg xmlns="http://www.w3.org/2000/svg">
  <path d="M 298.845 260.215 C 272.361 260.215 248.267 258.93 230.171 257.451 L 230.171 257.451 C 212.054 255.966 200.022 254.314 197.411 253.512 L 197.411 253.512 L 197.389 253.506 L 197.371 253.497 C 190.82 250.827 186.202 244.393 186.202 236.881 L 186.202 236.881 L 186.202 106.758 C 186.203 104.767 187.499 103.078 189.296 102.494 L 189.296 102.494 L 189.312 102.488 L 189.328 102.485 C 190.35 102.229 195.731 101.571 202.075 100.953 L 202.075 100.953 C 208.402 100.34 215.602 99.784 220.082 99.783 L 220.082 99.783 L 419.917 99.783 C 424.397 99.784 431.597 100.34 437.925 100.953 L 437.925 100.953 C 444.268 101.57 449.65 102.229 450.703 102.494 L 450.703 102.494 C 452.5 103.078 453.797 104.768 453.798 106.758 L 453.798 106.758 L 453.798 236.882 C 453.797 244.394 449.181 250.827 442.628 253.499 L 442.628 253.499 L 442.604 253.509 L 442.588 253.514 C 439.977 254.315 427.944 255.968 409.828 257.452 L 409.828 257.452 C 391.732 258.931 367.639 260.217 341.155 260.217 L 341.155 260.217 L 341.155 259.719 L 341.155 259.22 C 367.608 259.22 391.676 257.936 409.747 256.459 L 409.747 256.459 C 427.746 254.993 439.868 253.311 442.272 252.568 L 442.272 252.568 C 448.449 250.04 452.801 243.97 452.801 236.882 L 452.801 236.882 L 452.801 106.758 C 452.801 105.21 451.791 103.897 450.426 103.451 L 450.426 103.451 C 449.611 103.238 444.12 102.553 437.828 101.944 L 437.828 101.944 C 431.52 101.333 424.323 100.78 419.917 100.78 L 419.917 100.78 L 220.082 100.78 C 215.676 100.78 208.479 101.332 202.171 101.944 L 202.171 101.944 C 195.912 102.55 190.446 103.231 189.586 103.448 L 189.586 103.448 C 188.199 103.908 187.197 105.216 187.198 106.758 L 187.198 106.758 L 187.198 236.882 C 187.197 243.97 191.551 250.039 197.727 252.567 L 197.727 252.567 C 200.132 253.309 212.255 254.991 230.252 256.458 L 230.252 256.458 C 248.323 257.935 272.392 259.219 298.845 259.219 L 298.845 259.219 L 341.155 259.219 L 341.155 259.718 L 341.155 260.216 L 298.845 260.216 L 298.845 260.215 Z" style="fill: rgb(30, 30, 30);" transform="matrix(0.965926, -0.258819, 0.258819, 0.965926, -35.683683, 88.955419)"/>
  <path d="M 256.655 229.881 C 255.223 229.799 254.392 229.744 254.086 229.681 L 254.086 229.681 C 252.933 229.463 252.063 228.45 252.062 227.234 L 252.062 227.234 L 252.062 108.156 C 252.062 106.779 253.176 105.665 254.553 105.665 L 254.553 105.665 L 379.364 105.665 C 380.739 105.665 381.854 106.779 381.854 108.156 L 381.854 108.156 L 381.855 227.234 C 381.853 228.396 381.059 229.372 379.981 229.649 L 379.981 229.649 L 379.98 229.648 L 379.981 229.649 L 379.98 229.648 C 379.776 229.701 379.599 229.705 379.204 229.743 L 379.204 229.743 C 378.804 229.774 378.252 229.811 377.561 229.849 L 377.561 229.849 C 376.181 229.927 374.249 230.019 371.91 230.12 L 371.91 230.12 C 367.231 230.323 360.921 230.557 354.13 230.782 L 354.13 230.782 C 340.552 231.23 325.068 231.635 316.915 231.636 L 316.915 231.636 C 302.363 231.635 266.543 230.436 256.655 229.881 L 256.655 229.881 Z M 253.058 108.156 L 253.059 227.234 C 253.057 227.964 253.583 228.572 254.288 228.706 L 254.288 228.706 C 254.391 228.735 255.32 228.812 256.711 228.887 L 256.711 228.887 C 258.116 228.966 260.056 229.058 262.385 229.158 L 262.385 229.158 C 267.047 229.358 273.277 229.589 279.974 229.809 L 279.974 229.809 C 293.367 230.248 308.626 230.64 316.917 230.64 L 316.917 230.64 C 324.914 230.64 340.044 230.248 353.461 229.807 L 353.461 229.807 C 366.855 229.369 378.639 228.873 379.697 228.691 L 379.697 228.691 L 379.698 228.694 L 379.712 228.689 L 379.734 228.683 C 380.378 228.517 380.859 227.931 380.858 227.234 L 380.858 227.234 L 380.858 108.156 C 380.855 107.331 380.187 106.662 379.364 106.661 L 379.364 106.661 L 254.553 106.661 C 253.729 106.662 253.061 107.331 253.058 108.156 L 253.058 108.156 Z" style="fill: rgb(30, 30, 30);" transform="matrix(0.965926, -0.258819, 0.258819, 0.965926, -32.849854, 87.781493)"/>
  <path d="M 262.211 219.32 C 261.661 219.32 261.213 218.874 261.213 218.325 L 261.213 218.325 L 261.213 115.687 C 261.213 115.137 261.659 114.691 262.211 114.691 L 262.211 114.691 L 370.826 114.691 C 371.376 114.691 371.821 115.136 371.821 115.687 L 371.821 115.687 L 371.821 218.325 C 371.821 218.875 371.376 219.32 370.826 219.32 L 370.826 219.32 L 262.211 219.32 L 262.211 219.32 Z M 262.211 218.325 L 370.826 218.325 L 370.826 115.687 L 262.211 115.687 L 262.211 218.325 L 262.211 218.325 Z" style="fill: rgb(30, 30, 30);" transform="matrix(0.965926, -0.258819, 0.258819, 0.965926, -32.439143, 87.611183)"/>
  <g transform="matrix(0.481261, -0.128953, 0.128953, 0.481261, 153.854645, 134.183807)">
    <path d="M67.262,66.962c-7.181,0-13.001-5.82-13.001-12.999l0,0c0-7.181,5.82-13,13.001-13l0,0h23.165&#10;&#9;&#9;c5.87,0.002,10.83,3.887,12.446,9.23l0,0c0.001,0.003,0.003,0.006,0.005,0.01l0,0c0.024,0.041,0.063,0.101,0.107,0.148l0,0&#10;&#9;&#9;c0.1,0.109,0.138,0.114,0.15,0.112l0,0h19.376c0.396-0.021,0.357-0.14,0.438-0.236l0,0l0.001,0.001l0.013-0.054l0.024-0.061&#10;&#9;&#9;c1.536-3.896,5.333-6.649,9.772-6.652l0,0c5.799,0.002,10.499,4.702,10.499,10.501l0,0c0,5.797-4.699,10.499-10.499,10.499l0,0&#10;&#9;&#9;c-4.459-0.002-8.269-2.778-9.792-6.702l0,0c-0.026-0.038-0.072-0.092-0.125-0.142l0,0c-0.118-0.106-0.215-0.156-0.333-0.156l0,0&#10;&#9;&#9;h-19.373c-0.083,0-0.143,0.003-0.187,0.008l0,0c-1.531,5.479-6.558,9.49-12.522,9.493l0,0H67.262L67.262,66.962z M56.262,53.963&#10;&#9;&#9;c0.01,6.075,4.925,10.988,11,10.998l0,0h23.165c5.095,0.002,9.381-3.464,10.631-8.161l0,0l0.021-0.071l0.028-0.067&#10;&#9;&#9;c0.077-0.181,0.251-0.572,0.657-0.848l0,0c0.402-0.272,0.863-0.351,1.372-0.351l0,0h19.376c1.599,0.065,2.173,1.301,2.234,1.37l0,0&#10;&#9;&#9;l-0.876,0.479l0.876-0.479l0.034,0.063l0.024,0.063c1.211,3.214,4.316,5.505,7.957,5.503l0,0c4.695-0.008,8.492-3.805,8.5-8.498&#10;&#9;&#9;l0,0c-0.008-4.695-3.805-8.492-8.5-8.5l0,0c-3.581-0.002-6.646,2.216-7.897,5.352l0,0c-0.049,0.158-0.166,0.464-0.443,0.801l0,0&#10;&#9;&#9;c-0.343,0.428-1.037,0.86-1.908,0.846l0,0h-19.376c-0.8-0.002-1.36-0.448-1.654-0.79l0,0c-0.307-0.353-0.435-0.659-0.463-0.718l0,0&#10;&#9;&#9;l-0.022-0.053l-0.016-0.057c-1.345-4.554-5.56-7.883-10.554-7.881l0,0H67.262C61.187,42.974,56.272,47.889,56.262,53.963&#10;&#9;&#9;L56.262,53.963z" style="fill: rgb(30, 30, 30);"/>
  </g>
  <path d="M 192.999 153.803 L 192.999 153.306 L 192.999 152.807 L 204.738 152.807 C 206.311 152.805 207.585 151.532 207.587 149.957 L 207.587 149.957 C 207.585 148.385 206.311 147.112 204.738 147.109 L 204.738 147.109 L 192.999 147.109 C 191.426 147.112 190.152 148.385 190.148 149.957 L 190.148 149.957 C 190.152 151.532 191.426 152.805 192.999 152.807 L 192.999 152.807 L 192.999 153.306 L 192.999 153.803 C 190.875 153.803 189.152 152.082 189.152 149.957 L 189.152 149.957 C 189.152 147.834 190.875 146.112 192.999 146.112 L 192.999 146.112 L 204.738 146.112 C 206.862 146.112 208.583 147.834 208.583 149.957 L 208.583 149.957 C 208.583 152.083 206.862 153.803 204.738 153.803 L 204.738 153.803 L 192.999 153.803 L 192.999 153.803 Z" style="fill: rgb(30, 30, 30);" transform="matrix(0.965926, -0.258819, 0.258819, 0.965926, -32.035603, 56.580362)"/>
  <circle cx="138.459" cy="56.266" r="6.549" style="fill: rgb(30, 30, 30);" transform="matrix(0.461566, -0.123677, 0.123676, 0.461565, 153.854492, 134.183838)"/>
  <path d="M 198.674 186.381 C 198.674 171.866 210.441 160.1 224.957 160.099 L 224.957 160.099 C 239.471 160.1 251.238 171.866 251.239 186.381 L 251.239 186.381 C 251.238 200.896 239.471 212.663 224.957 212.663 L 224.957 212.663 C 210.441 212.663 198.674 200.896 198.674 186.381 L 198.674 186.381 Z M 207.077 168.502 C 202.5 173.08 199.671 179.397 199.671 186.382 L 199.671 186.382 C 199.671 193.366 202.5 199.685 207.077 204.261 L 207.077 204.261 C 211.655 208.838 217.972 211.667 224.957 211.667 L 224.957 211.667 C 231.94 211.667 238.259 208.836 242.836 204.261 L 242.836 204.261 C 247.412 199.683 250.242 193.366 250.242 186.382 L 250.242 186.382 C 250.242 179.397 247.412 173.079 242.836 168.502 L 242.836 168.502 C 238.258 163.925 231.94 161.096 224.957 161.096 L 224.957 161.096 C 217.972 161.095 211.655 163.925 207.077 168.502 L 207.077 168.502 Z" style="fill: rgb(30, 30, 30);" transform="matrix(0.965926, -0.258819, 0.258819, 0.965926, -40.573733, 64.573778)"/>
  <polyline points="216.981 165.435 216.981 162.321 220.905 162.321 220.905 165.435" style="fill: rgb(30, 30, 30);" transform="matrix(0.965926, -0.258819, 0.258819, 0.965926, -34.954432, 62.25059)"/>
  <polyline points="204.031 194.367 200.917 194.367 200.917 190.443 204.031 190.443" style="fill: rgb(30, 30, 30);" transform="matrix(0.965926, -0.258819, 0.258819, 0.965926, -42.898914, 58.960114)"/>
  <polyline points="232.963 207.32 232.963 210.434 229.039 210.434 229.039 207.32" style="fill: rgb(30, 30, 30);" transform="matrix(0.965926, -0.258819, 0.258819, 0.965926, -46.190171, 66.904751)"/>
  <polyline points="245.915 178.386 249.029 178.386 249.029 182.31 245.915 182.31" style="fill: rgb(30, 30, 30);" transform="matrix(0.965926, -0.258819, 0.258819, 0.965926, -38.245077, 70.195641)"/>
  <polyline points="205.178 176.647 202.975 174.446 204.517 172.904 206.719 175.106" style="fill: rgb(30, 30, 30);" transform="matrix(0.965926, -0.258819, 0.258819, 0.965926, -38.255214, 58.973579)"/>
  <polyline points="215.223 206.162 213.021 208.364 211.479 206.823 213.681 204.62" style="fill: rgb(30, 30, 30);" transform="matrix(0.965926, -0.258819, 0.258819, 0.965926, -46.174288, 62.255331)"/>
  <polyline points="244.737 196.115 246.94 198.317 245.398 199.858 243.197 197.657" style="fill: rgb(30, 30, 30);" transform="matrix(0.965926, -0.258819, 0.258819, 0.965926, -42.892165, 70.174603)"/>
  <polyline points="234.691 166.601 236.893 164.399 238.435 165.94 236.233 168.141" style="fill: rgb(30, 30, 30);" transform="matrix(0.965926, -0.258819, 0.258819, 0.965926, -34.97315, 66.892508)"/>
  <path d="M 202.848 186.381 C 202.849 174.17 212.747 164.273 224.958 164.271 L 224.958 164.271 C 237.167 164.273 247.067 174.17 247.067 186.381 L 247.067 186.381 C 247.066 198.591 237.167 208.49 224.957 208.491 L 224.957 208.491 C 212.747 208.49 202.849 198.592 202.848 186.381 L 202.848 186.381 Z M 210.028 171.453 C 206.208 175.276 203.845 180.551 203.845 186.382 L 203.845 186.382 C 203.845 192.214 206.207 197.489 210.028 201.311 L 210.028 201.311 C 213.851 205.132 219.126 207.494 224.958 207.494 L 224.958 207.494 C 230.79 207.494 236.065 205.132 239.886 201.311 L 239.886 201.311 C 243.708 197.488 246.07 192.214 246.071 186.382 L 246.071 186.382 C 246.07 180.551 243.708 175.276 239.886 171.453 L 239.886 171.453 C 236.064 167.632 230.789 165.269 224.958 165.269 L 224.958 165.269 C 219.126 165.268 213.851 167.631 210.028 171.453 L 210.028 171.453 Z" style="fill: rgb(30, 30, 30);" transform="matrix(0.965926, -0.25882, 0.25882, 0.965926, -40.573804, 64.574272)"/>
  <path d="M 208.828 186.38 C 208.828 177.471 216.049 170.25 224.958 170.25 L 224.958 170.25 C 233.867 170.25 241.089 177.471 241.089 186.38 L 241.089 186.38 C 241.089 195.289 233.867 202.511 224.958 202.511 L 224.958 202.511 C 216.049 202.511 208.828 195.29 208.828 186.38 L 208.828 186.38 Z M 209.824 186.38 C 209.839 194.738 216.599 201.499 224.958 201.514 L 224.958 201.514 C 233.316 201.5 240.076 194.738 240.091 186.38 L 240.091 186.38 C 240.076 178.023 233.316 171.262 224.958 171.246 L 224.958 171.246 C 216.599 171.262 209.839 178.023 209.824 186.38 L 209.824 186.38 Z" style="fill: rgb(30, 30, 30);" transform="matrix(0.965926, -0.25882, 0.25882, 0.965926, -40.57366, 64.57455)"/>
  <path d="M 215.583 186.381 C 215.583 181.205 219.78 177.009 224.957 177.009 L 224.957 177.009 C 230.134 177.009 234.331 181.205 234.331 186.381 L 234.331 186.381 C 234.331 191.558 230.134 195.753 224.957 195.754 L 224.957 195.754 C 219.78 195.753 215.583 191.559 215.583 186.381 L 215.583 186.381 Z M 216.581 186.381 C 216.589 191.007 220.332 194.749 224.957 194.758 L 224.957 194.758 C 229.583 194.749 233.326 191.007 233.335 186.381 L 233.335 186.381 C 233.326 181.755 229.583 178.013 224.957 178.004 L 224.957 178.004 C 220.332 178.013 216.589 181.755 216.581 186.381 L 216.581 186.381 Z" style="fill: rgb(30, 30, 30);" transform="matrix(0.965926, -0.258819, 0.258819, 0.965926, -40.573853, 64.573938)"/>
  <g transform="matrix(0.481261, -0.128953, 0.128953, 0.481261, 153.854645, 134.183807)">
    <circle cx="91.595" cy="233.963" r="2.833" style="fill: rgb(30, 30, 30);"/>
    <circle cx="101.303" cy="233.963" r="2.833" style="fill: rgb(30, 30, 30);"/>
    <circle cx="111.011" cy="233.963" r="2.833" style="fill: rgb(30, 30, 30);"/>
    <circle cx="120.72" cy="233.963" r="2.833" style="fill: rgb(30, 30, 30);"/>
    <circle cx="130.428" cy="233.963" r="2.833" style="fill: rgb(30, 30, 30);"/>
  </g>
  <g transform="matrix(0.481261, -0.128953, 0.128953, 0.481261, 153.854645, 134.183807)">
    <circle cx="91.595" cy="243.742" r="2.833" style="fill: rgb(30, 30, 30);"/>
    <circle cx="101.303" cy="243.742" r="2.833" style="fill: rgb(30, 30, 30);"/>
    <circle cx="111.011" cy="243.742" r="2.833" style="fill: rgb(30, 30, 30);"/>
    <circle cx="120.72" cy="243.742" r="2.833" style="fill: rgb(30, 30, 30);"/>
    <circle cx="130.428" cy="243.742" r="2.833" style="fill: rgb(30, 30, 30);"/>
  </g>
  <g transform="matrix(0.481261, -0.128953, 0.128953, 0.481261, 153.854645, 134.183807)">
    <circle cx="91.595" cy="253.52" r="2.833" style="fill: rgb(30, 30, 30);"/>
    <circle cx="101.303" cy="253.52" r="2.833" style="fill: rgb(30, 30, 30);"/>
    <circle cx="111.011" cy="253.52" r="2.833" style="fill: rgb(30, 30, 30);"/>
    <circle cx="120.72" cy="253.52" r="2.833" style="fill: rgb(30, 30, 30);"/>
    <circle cx="130.428" cy="253.52" r="2.833" style="fill: rgb(30, 30, 30);"/>
  </g>
  <g transform="matrix(0.481261, -0.128953, 0.128953, 0.481261, 153.854645, 134.183807)">
    <circle cx="91.595" cy="263.297" r="2.833" style="fill: rgb(30, 30, 30);"/>
    <circle cx="101.303" cy="263.297" r="2.833" style="fill: rgb(30, 30, 30);"/>
    <circle cx="111.011" cy="263.297" r="2.833" style="fill: rgb(30, 30, 30);"/>
    <circle cx="120.72" cy="263.297" r="2.833" style="fill: rgb(30, 30, 30);"/>
    <circle cx="130.428" cy="263.297" r="2.833" style="fill: rgb(30, 30, 30);"/>
  </g>
  <g transform="matrix(0.481261, -0.128953, 0.128953, 0.481261, 153.854645, 134.183807)">
    <circle cx="462.262" cy="215.297" r="4.167" style="fill: rgb(30, 30, 30);"/>
    <circle cx="462.262" cy="255.047" r="4.167" style="fill: rgb(30, 30, 30);"/>
    <circle cx="462.262" cy="294.797" r="4.167" style="fill: rgb(30, 30, 30);"/>
  </g>
  <g transform="matrix(0.481261, -0.128953, 0.128953, 0.481261, 153.854645, 134.183807)">
    <circle cx="497.595" cy="211.465" r="4.167" style="fill: rgb(30, 30, 30);"/>
    <circle cx="497.595" cy="251.215" r="4.167" style="fill: rgb(30, 30, 30);"/>
    <circle cx="497.595" cy="290.965" r="4.167" style="fill: rgb(30, 30, 30);"/>
  </g>
  <g transform="matrix(0.481261, -0.128953, 0.128953, 0.481261, 153.854645, 134.183807)">
    <circle cx="532.928" cy="207.797" r="4.167" style="fill: rgb(30, 30, 30);"/>
    <circle cx="532.928" cy="247.547" r="4.167" style="fill: rgb(30, 30, 30);"/>
    <circle cx="532.928" cy="287.297" r="4.167" style="fill: rgb(30, 30, 30);"/>
  </g>
  <path d="M 389.834 148.547 C 389.835 142.356 394.853 137.337 401.045 137.337 L 401.045 137.337 C 407.236 137.337 412.254 142.356 412.256 148.547 L 412.256 148.547 C 412.254 154.738 407.236 159.758 401.045 159.758 L 401.045 159.758 C 394.853 159.758 389.835 154.739 389.834 148.547 L 389.834 148.547 Z M 390.83 148.547 C 390.842 154.189 395.405 158.751 401.045 158.761 L 401.045 158.761 C 406.686 158.751 411.249 154.189 411.257 148.547 L 411.257 148.547 C 411.249 142.908 406.686 138.344 401.045 138.333 L 401.045 138.333 C 395.403 138.344 390.84 142.908 390.83 148.547 L 390.83 148.547 Z" style="fill: rgb(30, 30, 30);" transform="matrix(0.965926, -0.258819, 0.258819, 0.965926, -24.781643, 108.859681)"/>
  <path d="M 411.359 123.243 C 411.36 117.052 416.379 112.033 422.57 112.033 L 422.57 112.033 C 428.762 112.033 433.78 117.052 433.781 123.243 L 433.781 123.243 C 433.78 129.435 428.762 134.453 422.57 134.454 L 422.57 134.454 C 416.379 134.453 411.36 129.436 411.359 123.243 L 411.359 123.243 Z M 412.356 123.243 C 412.366 128.885 416.929 133.447 422.57 133.457 L 422.57 133.457 C 428.211 133.447 432.773 128.885 432.785 123.243 L 432.785 123.243 C 432.774 117.603 428.211 113.04 422.57 113.03 L 422.57 113.03 C 416.929 113.04 412.366 117.604 412.356 123.243 L 412.356 123.243 Z" style="fill: rgb(30, 30, 30);" transform="matrix(0.965926, -0.258819, 0.258819, 0.965926, -17.499038, 113.568482)"/>
  <path d="M 408.087 91.286 C 408.087 87.054 411.517 83.626 415.748 83.625 L 415.748 83.625 C 419.978 83.626 423.408 87.054 423.408 91.286 L 423.408 91.286 C 423.408 95.517 419.978 98.946 415.748 98.947 L 415.748 98.947 C 411.517 98.946 408.087 95.517 408.087 91.286 L 408.087 91.286 Z M 409.084 91.286 C 409.09 94.965 412.066 97.943 415.748 97.95 L 415.748 97.95 C 419.428 97.943 422.405 94.966 422.412 91.286 L 422.412 91.286 C 422.405 87.606 419.428 84.629 415.748 84.622 L 415.748 84.622 C 412.066 84.629 409.09 87.606 409.084 91.286 L 409.084 91.286 Z" style="fill: rgb(30, 30, 30);" transform="matrix(0.965926, -0.258819, 0.258819, 0.965926, -9.460303, 110.713832)"/>
  <path d="M 410.702 91.287 C 410.702 88.5 412.962 86.242 415.748 86.242 L 415.748 86.242 C 418.533 86.242 420.791 88.5 420.791 91.287 L 420.791 91.287 C 420.791 94.072 418.533 96.33 415.748 96.33 L 415.748 96.33 C 412.962 96.33 410.702 94.072 410.702 91.287 L 410.702 91.287 Z M 411.699 91.287 C 411.704 93.522 413.512 95.33 415.748 95.335 L 415.748 95.335 C 417.983 95.33 419.791 93.522 419.796 91.287 L 419.796 91.287 C 419.791 89.05 417.983 87.242 415.748 87.238 L 415.748 87.238 C 413.512 87.242 411.704 89.05 411.699 91.287 L 411.699 91.287 Z" style="fill: rgb(30, 30, 30);" transform="matrix(0.965926, -0.258819, 0.258819, 0.965926, -9.460338, 110.713568)"/>
</svg>