<?xml version="1.0" encoding="utf-8"?>
<svg version="1.2" baseProfile="tiny" id="Layer_3" x="0px" y="0px" viewBox="0 0 1280 720" preserveAspectRatio="none" xmlns="http://www.w3.org/2000/svg">
  <path d="M 595.729 527.869 C 540.304 527.869 489.885 525.179 452.015 522.083 L 452.015 522.083 C 414.101 518.977 388.922 515.518 383.457 513.841 L 383.457 513.841 L 383.411 513.828 L 383.374 513.81 C 369.663 508.222 360 494.758 360 479.036 L 360 479.036 L 360 206.727 C 360.002 202.56 362.715 199.025 366.474 197.803 L 366.474 197.803 L 366.509 197.79 L 366.541 197.784 C 368.68 197.249 379.941 195.872 393.217 194.577 L 393.217 194.577 C 406.458 193.294 421.526 192.131 430.901 192.129 L 430.901 192.129 L 849.097 192.129 C 858.472 192.131 873.54 193.294 886.783 194.577 L 886.783 194.577 C 900.057 195.87 911.319 197.249 913.524 197.803 L 913.524 197.803 C 917.285 199.025 919.998 202.561 920 206.727 L 920 206.727 L 920 479.039 C 919.998 494.76 910.338 508.222 896.625 513.813 L 896.625 513.813 L 896.574 513.835 L 896.541 513.844 C 891.076 515.521 865.896 518.981 827.983 522.086 L 827.983 522.086 C 790.114 525.182 739.696 527.872 684.271 527.872 L 684.271 527.872 L 684.271 526.83 L 684.271 525.786 C 739.628 525.786 789.996 523.099 827.814 520.007 L 827.814 520.007 C 865.481 516.94 890.849 513.419 895.879 511.865 L 895.879 511.865 C 908.806 506.575 917.915 493.872 917.913 479.039 L 917.913 479.039 L 917.913 206.727 C 917.915 203.486 915.801 200.738 912.943 199.806 L 912.943 199.806 C 911.238 199.359 899.747 197.926 886.579 196.652 L 886.579 196.652 C 873.378 195.372 858.318 194.215 849.097 194.215 L 849.097 194.215 L 430.901 194.215 C 421.681 194.215 406.62 195.37 393.419 196.652 L 393.419 196.652 C 380.321 197.919 368.881 199.344 367.082 199.799 L 367.082 199.799 C 364.179 200.762 362.083 203.5 362.085 206.727 L 362.085 206.727 L 362.085 479.039 C 362.083 493.872 371.193 506.573 384.119 511.864 L 384.119 511.864 C 389.151 513.416 414.522 516.935 452.184 520.005 L 452.184 520.005 C 490.002 523.097 540.371 525.784 595.729 525.784 L 595.729 525.784 L 684.27 525.784 L 684.27 526.828 L 684.27 527.87 L 595.729 527.87 L 595.729 527.869 Z" style="fill: rgb(30, 30, 30);" transform="matrix(0.965926, -0.258819, 0.258819, 0.965926, -71.367528, 177.910958)"/>
  <path d="M 507.437 464.388 C 504.442 464.215 502.702 464.101 502.061 463.97 L 502.061 463.97 C 499.649 463.512 497.829 461.393 497.826 458.848 L 497.826 458.848 L 497.826 209.652 C 497.826 206.77 500.158 204.438 503.04 204.438 L 503.04 204.438 L 764.23 204.438 C 767.109 204.438 769.441 206.77 769.441 209.652 L 769.441 209.652 L 769.443 458.848 C 769.439 461.281 767.779 463.323 765.522 463.903 L 765.522 463.903 L 765.521 463.9 L 765.522 463.903 L 765.521 463.9 C 765.094 464.012 764.722 464.02 763.897 464.098 L 763.897 464.098 C 763.058 464.164 761.904 464.241 760.457 464.32 L 760.457 464.32 C 757.569 464.484 753.529 464.677 748.632 464.887 L 748.632 464.887 C 738.842 465.312 725.635 465.802 711.426 466.273 L 711.426 466.273 C 683.009 467.21 650.604 468.059 633.546 468.06 L 633.546 468.06 C 603.092 468.059 528.13 465.549 507.437 464.388 L 507.437 464.388 Z M 499.911 209.652 L 499.913 458.848 C 499.909 460.375 501.009 461.648 502.484 461.929 L 502.484 461.929 C 502.699 461.989 504.644 462.151 507.552 462.307 L 507.552 462.307 C 510.494 462.473 514.553 462.666 519.429 462.875 L 519.429 462.875 C 529.184 463.293 542.224 463.776 556.237 464.236 L 556.237 464.236 C 584.263 465.156 616.199 465.976 633.548 465.976 L 633.548 465.976 C 650.285 465.976 681.948 465.155 710.026 464.233 L 710.026 464.233 C 738.055 463.317 762.713 462.278 764.928 461.898 L 764.928 461.898 L 764.929 461.903 L 764.96 461.893 L 765.006 461.88 C 766.354 461.533 767.359 460.307 767.357 458.848 L 767.357 458.848 L 767.357 209.652 C 767.352 207.925 765.954 206.526 764.23 206.523 L 764.23 206.523 L 503.04 206.523 C 501.314 206.526 499.917 207.926 499.911 209.652 L 499.911 209.652 Z" style="fill: rgb(30, 30, 30);" transform="matrix(0.965926, -0.258819, 0.258819, 0.965926, -65.437088, 175.454142)"/>
  <path d="M 519.062 442.286 C 517.911 442.286 516.975 441.353 516.975 440.204 L 516.975 440.204 L 516.975 225.412 C 516.975 224.261 517.908 223.328 519.062 223.328 L 519.062 223.328 L 746.363 223.328 C 747.514 223.328 748.446 224.259 748.446 225.412 L 748.446 225.412 L 748.446 440.204 C 748.446 441.355 747.514 442.286 746.363 442.286 L 746.363 442.286 L 519.062 442.286 L 519.062 442.286 Z M 519.062 440.204 L 746.363 440.204 L 746.363 225.412 L 519.062 225.412 L 519.062 440.204 L 519.062 440.204 Z" style="fill: rgb(30, 30, 30);" transform="matrix(0.965926, -0.258819, 0.258819, 0.965926, -64.577658, 175.097402)"/>
  <g transform="matrix(1.007143, -0.269863, 0.269863, 1.007143, 292.305084, 264.120697)">
    <path d="M67.262,66.962c-7.181,0-13.001-5.82-13.001-12.999l0,0c0-7.181,5.82-13,13.001-13l0,0h23.165&#10;&#9;&#9;c5.87,0.002,10.83,3.887,12.446,9.23l0,0c0.001,0.003,0.003,0.006,0.005,0.01l0,0c0.024,0.041,0.063,0.101,0.107,0.148l0,0&#10;&#9;&#9;c0.1,0.109,0.138,0.114,0.15,0.112l0,0h19.376c0.396-0.021,0.357-0.14,0.438-0.236l0,0l0.001,0.001l0.013-0.054l0.024-0.061&#10;&#9;&#9;c1.536-3.896,5.333-6.649,9.772-6.652l0,0c5.799,0.002,10.499,4.702,10.499,10.501l0,0c0,5.797-4.699,10.499-10.499,10.499l0,0&#10;&#9;&#9;c-4.459-0.002-8.269-2.778-9.792-6.702l0,0c-0.026-0.038-0.072-0.092-0.125-0.142l0,0c-0.118-0.106-0.215-0.156-0.333-0.156l0,0&#10;&#9;&#9;h-19.373c-0.083,0-0.143,0.003-0.187,0.008l0,0c-1.531,5.479-6.558,9.49-12.522,9.493l0,0H67.262L67.262,66.962z M56.262,53.963&#10;&#9;&#9;c0.01,6.075,4.925,10.988,11,10.998l0,0h23.165c5.095,0.002,9.381-3.464,10.631-8.161l0,0l0.021-0.071l0.028-0.067&#10;&#9;&#9;c0.077-0.181,0.251-0.572,0.657-0.848l0,0c0.402-0.272,0.863-0.351,1.372-0.351l0,0h19.376c1.599,0.065,2.173,1.301,2.234,1.37l0,0&#10;&#9;&#9;l-0.876,0.479l0.876-0.479l0.034,0.063l0.024,0.063c1.211,3.214,4.316,5.505,7.957,5.503l0,0c4.695-0.008,8.492-3.805,8.5-8.498&#10;&#9;&#9;l0,0c-0.008-4.695-3.805-8.492-8.5-8.5l0,0c-3.581-0.002-6.646,2.216-7.897,5.352l0,0c-0.049,0.158-0.166,0.464-0.443,0.801l0,0&#10;&#9;&#9;c-0.343,0.428-1.037,0.86-1.908,0.846l0,0h-19.376c-0.8-0.002-1.36-0.448-1.654-0.79l0,0c-0.307-0.353-0.435-0.659-0.463-0.718l0,0&#10;&#9;&#9;l-0.022-0.053l-0.016-0.057c-1.345-4.554-5.56-7.883-10.554-7.881l0,0H67.262C61.187,42.974,56.272,47.889,56.262,53.963&#10;&#9;&#9;L56.262,53.963z" style="fill: rgb(30, 30, 30);"/>
  </g>
  <path d="M 374.221 305.178 L 374.221 304.138 L 374.221 303.093 L 398.79 303.093 C 402.083 303.089 404.746 300.425 404.753 297.13 L 404.753 297.13 C 404.747 293.839 402.083 291.175 398.79 291.169 L 398.79 291.169 L 374.221 291.169 C 370.929 291.175 368.266 293.839 368.258 297.13 L 368.258 297.13 C 368.265 300.425 370.929 303.089 374.221 303.093 L 374.221 303.093 L 374.221 304.138 L 374.221 305.178 C 369.777 305.178 366.174 301.576 366.174 297.13 L 366.174 297.13 C 366.174 292.687 369.778 289.083 374.221 289.083 L 374.221 289.083 L 398.79 289.083 C 403.235 289.083 406.837 292.687 406.837 297.13 L 406.837 297.13 C 406.837 301.578 403.234 305.178 398.79 305.178 L 398.79 305.178 L 374.221 305.178 L 374.221 305.178 Z" style="fill: rgb(30, 30, 30);" transform="matrix(0.965926, -0.258819, 0.258819, 0.965926, -63.733228, 110.159584)"/>
  <circle cx="138.459" cy="56.266" r="6.549" style="fill: rgb(30, 30, 30);" transform="matrix(0.965928, -0.25882, 0.258819, 0.965926, 292.304779, 264.120758)"/>
  <path d="M 386.101 373.355 C 386.101 342.978 410.726 318.355 441.102 318.353 L 441.102 318.353 C 471.477 318.356 496.102 342.978 496.103 373.355 L 496.103 373.355 C 496.101 403.731 471.476 428.355 441.102 428.356 L 441.102 428.356 C 410.726 428.355 386.101 403.731 386.101 373.355 L 386.101 373.355 Z M 403.686 335.939 C 394.107 345.519 388.186 358.739 388.186 373.356 L 388.186 373.356 C 388.186 387.972 394.107 401.196 403.686 410.773 L 403.686 410.773 C 413.265 420.351 426.486 426.27 441.102 426.27 L 441.102 426.27 C 455.716 426.27 468.94 420.347 478.518 410.773 L 478.518 410.773 C 488.095 401.192 494.015 387.972 494.018 373.356 L 494.018 373.356 C 494.015 358.739 488.095 345.517 478.518 335.939 L 478.518 335.939 C 468.938 326.361 455.716 320.441 441.102 320.441 L 441.102 320.441 C 426.486 320.439 413.265 326.361 403.686 335.939 L 403.686 335.939 Z" style="fill: rgb(30, 30, 30);" transform="matrix(0.965926, -0.258819, 0.258819, 0.965926, -81.601084, 126.887377)"/>
  <polyline points="424.412 329.521 424.412 323.004 432.623 323.004 432.623 329.521" style="fill: rgb(30, 30, 30);" transform="matrix(0.965926, -0.258819, 0.258819, 0.965926, -69.841627, 122.025742)"/>
  <polyline points="397.309 390.067 390.792 390.067 390.792 381.856 397.309 381.856" style="fill: rgb(30, 30, 30);" transform="matrix(0.965926, -0.258819, 0.258819, 0.965926, -86.467259, 115.139129)"/>
  <polyline points="457.855 417.173 457.855 423.69 449.644 423.69 449.644 417.173" style="fill: rgb(30, 30, 30);" transform="matrix(0.965926, -0.258819, 0.258819, 0.965926, -93.354559, 131.764908)"/>
  <polyline points="484.96 356.624 491.477 356.624 491.477 364.835 484.96 364.835" style="fill: rgb(30, 30, 30);" transform="matrix(0.965926, -0.258819, 0.258819, 0.965926, -76.728079, 138.651961)"/>
  <polyline points="399.708 352.985 395.099 348.378 398.325 345.15 402.933 349.759" style="fill: rgb(30, 30, 30);" transform="matrix(0.965926, -0.258819, 0.258819, 0.965926, -76.749195, 115.167165)"/>
  <polyline points="420.732 414.75 416.124 419.359 412.898 416.133 417.506 411.523" style="fill: rgb(30, 30, 30);" transform="matrix(0.965926, -0.258819, 0.258819, 0.965926, -93.321436, 122.035495)"/>
  <polyline points="482.497 393.725 487.106 398.333 483.88 401.558 479.272 396.951" style="fill: rgb(30, 30, 30);" transform="matrix(0.965926, -0.258819, 0.258819, 0.965926, -86.452901, 138.607762)"/>
  <polyline points="461.473 331.96 466.081 327.352 469.307 330.578 464.699 335.184" style="fill: rgb(30, 30, 30);" transform="matrix(0.965926, -0.258819, 0.258819, 0.965926, -69.880621, 131.739302)"/>
  <path d="M 394.832 373.355 C 394.835 347.8 415.548 327.088 441.102 327.085 L 441.102 327.085 C 466.654 327.088 487.37 347.8 487.371 373.355 L 487.371 373.355 C 487.368 398.907 466.654 419.623 441.102 419.624 L 441.102 419.624 C 415.548 419.623 394.836 398.908 394.832 373.355 L 394.832 373.355 Z M 409.859 342.114 C 401.864 350.114 396.919 361.153 396.919 373.356 L 396.919 373.356 C 396.919 385.562 401.863 396.601 409.859 404.598 L 409.859 404.598 C 417.86 412.595 428.899 417.537 441.103 417.537 L 441.103 417.537 C 453.308 417.537 464.346 412.595 472.344 404.598 L 472.344 404.598 C 480.342 396.599 485.284 385.561 485.286 373.356 L 485.286 373.356 C 485.284 361.153 480.342 350.114 472.344 342.114 L 472.344 342.114 C 464.345 334.119 453.306 329.172 441.103 329.172 L 441.103 329.172 C 428.899 329.171 417.859 334.116 409.859 342.114 L 409.859 342.114 Z" style="fill: rgb(30, 30, 30);" transform="matrix(0.965926, -0.258819, 0.258819, 0.965926, -81.601153, 126.887361)"/>
  <path d="M 407.347 373.352 C 407.347 354.709 422.458 339.597 441.103 339.597 L 441.103 339.597 C 459.746 339.597 474.86 354.709 474.86 373.352 L 474.86 373.352 C 474.86 391.997 459.746 407.11 441.103 407.11 L 441.103 407.11 C 422.458 407.11 407.347 391.998 407.347 373.352 L 407.347 373.352 Z M 409.431 373.352 C 409.463 390.844 423.61 404.993 441.102 405.024 L 441.102 405.024 C 458.594 404.995 472.741 390.844 472.773 373.352 L 472.773 373.352 C 472.741 355.863 458.594 341.714 441.102 341.682 L 441.102 341.682 C 423.611 341.714 409.463 355.863 409.431 373.352 L 409.431 373.352 Z" style="fill: rgb(30, 30, 30);" transform="matrix(0.965926, -0.258819, 0.258819, 0.965926, -81.600822, 126.887834)"/>
  <path d="M 421.486 373.355 C 421.486 362.522 430.268 353.741 441.101 353.741 L 441.101 353.741 C 451.934 353.741 460.717 362.522 460.717 373.355 L 460.717 373.355 C 460.717 384.189 451.935 392.968 441.101 392.97 L 441.101 392.97 C 430.269 392.968 421.486 384.191 421.486 373.355 L 421.486 373.355 Z M 423.573 373.355 C 423.589 383.035 431.422 390.866 441.102 390.885 L 441.102 390.885 C 450.784 390.866 458.615 383.035 458.633 373.355 L 458.633 373.355 C 458.615 363.673 450.784 355.843 441.102 355.823 L 441.102 355.823 C 431.422 355.843 423.589 363.673 423.573 373.355 L 423.573 373.355 Z" style="fill: rgb(30, 30, 30);" transform="matrix(0.965926, -0.258819, 0.258819, 0.965926, -81.601365, 126.887285)"/>
  <g transform="matrix(1.007143, -0.269863, 0.269863, 1.007143, 292.305084, 264.120697)">
    <circle cx="91.595" cy="233.963" r="2.833" style="fill: rgb(30, 30, 30);"/>
    <circle cx="101.303" cy="233.963" r="2.833" style="fill: rgb(30, 30, 30);"/>
    <circle cx="111.011" cy="233.963" r="2.833" style="fill: rgb(30, 30, 30);"/>
    <circle cx="120.72" cy="233.963" r="2.833" style="fill: rgb(30, 30, 30);"/>
    <circle cx="130.428" cy="233.963" r="2.833" style="fill: rgb(30, 30, 30);"/>
  </g>
  <g transform="matrix(1.007143, -0.269863, 0.269863, 1.007143, 292.305084, 264.120697)">
    <circle cx="91.595" cy="243.742" r="2.833" style="fill: rgb(30, 30, 30);"/>
    <circle cx="101.303" cy="243.742" r="2.833" style="fill: rgb(30, 30, 30);"/>
    <circle cx="111.011" cy="243.742" r="2.833" style="fill: rgb(30, 30, 30);"/>
    <circle cx="120.72" cy="243.742" r="2.833" style="fill: rgb(30, 30, 30);"/>
    <circle cx="130.428" cy="243.742" r="2.833" style="fill: rgb(30, 30, 30);"/>
  </g>
  <g transform="matrix(1.007143, -0.269863, 0.269863, 1.007143, 292.305084, 264.120697)">
    <circle cx="91.595" cy="253.52" r="2.833" style="fill: rgb(30, 30, 30);"/>
    <circle cx="101.303" cy="253.52" r="2.833" style="fill: rgb(30, 30, 30);"/>
    <circle cx="111.011" cy="253.52" r="2.833" style="fill: rgb(30, 30, 30);"/>
    <circle cx="120.72" cy="253.52" r="2.833" style="fill: rgb(30, 30, 30);"/>
    <circle cx="130.428" cy="253.52" r="2.833" style="fill: rgb(30, 30, 30);"/>
  </g>
  <g transform="matrix(1.007143, -0.269863, 0.269863, 1.007143, 292.305084, 264.120697)">
    <circle cx="91.595" cy="263.297" r="2.833" style="fill: rgb(30, 30, 30);"/>
    <circle cx="101.303" cy="263.297" r="2.833" style="fill: rgb(30, 30, 30);"/>
    <circle cx="111.011" cy="263.297" r="2.833" style="fill: rgb(30, 30, 30);"/>
    <circle cx="120.72" cy="263.297" r="2.833" style="fill: rgb(30, 30, 30);"/>
    <circle cx="130.428" cy="263.297" r="2.833" style="fill: rgb(30, 30, 30);"/>
  </g>
  <g transform="matrix(1.007143, -0.269863, 0.269863, 1.007143, 292.305084, 264.120697)">
    <circle cx="462.262" cy="215.297" r="4.167" style="fill: rgb(30, 30, 30);"/>
    <circle cx="462.262" cy="255.047" r="4.167" style="fill: rgb(30, 30, 30);"/>
    <circle cx="462.262" cy="294.797" r="4.167" style="fill: rgb(30, 30, 30);"/>
  </g>
  <g transform="matrix(1.007143, -0.269863, 0.269863, 1.007143, 292.305084, 264.120697)">
    <circle cx="497.595" cy="211.465" r="4.167" style="fill: rgb(30, 30, 30);"/>
    <circle cx="497.595" cy="251.215" r="4.167" style="fill: rgb(30, 30, 30);"/>
    <circle cx="497.595" cy="290.965" r="4.167" style="fill: rgb(30, 30, 30);"/>
  </g>
  <g transform="matrix(1.007143, -0.269863, 0.269863, 1.007143, 292.305084, 264.120697)">
    <circle cx="532.928" cy="207.797" r="4.167" style="fill: rgb(30, 30, 30);"/>
    <circle cx="532.928" cy="247.547" r="4.167" style="fill: rgb(30, 30, 30);"/>
    <circle cx="532.928" cy="287.297" r="4.167" style="fill: rgb(30, 30, 30);"/>
  </g>
  <path d="M 786.142 294.179 C 786.144 281.223 796.645 270.72 809.604 270.72 L 809.604 270.72 C 822.56 270.72 833.062 281.223 833.064 294.179 L 833.064 294.179 C 833.062 307.134 822.56 317.64 809.604 317.64 L 809.604 317.64 C 796.645 317.64 786.144 307.137 786.142 294.179 L 786.142 294.179 Z M 788.229 294.179 C 788.251 305.986 797.8 315.533 809.604 315.554 L 809.604 315.554 C 821.408 315.533 830.957 305.986 830.976 294.179 L 830.976 294.179 C 830.957 282.377 821.408 272.827 809.604 272.804 L 809.604 272.804 C 797.798 272.827 788.249 282.378 788.229 294.179 L 788.229 294.179 Z" style="fill: rgb(30, 30, 30);" transform="matrix(0.965926, -0.258819, 0.258819, 0.965926, -48.552854, 219.564858)"/>
  <path d="M 831.188 241.225 C 831.19 228.269 841.692 217.765 854.649 217.765 L 854.649 217.765 C 867.607 217.765 878.108 228.268 878.11 241.225 L 878.11 241.225 C 878.108 254.182 867.607 264.684 854.649 264.687 L 854.649 264.687 C 841.692 264.684 831.19 254.184 831.188 241.225 L 831.188 241.225 Z M 833.273 241.225 C 833.295 253.031 842.845 262.578 854.649 262.6 L 854.649 262.6 C 866.454 262.578 876.002 253.031 876.025 241.225 L 876.025 241.225 C 876.003 229.421 866.454 219.872 854.649 219.852 L 854.649 219.852 C 842.843 219.872 833.295 229.423 833.273 241.225 L 833.273 241.225 Z" style="fill: rgb(30, 30, 30);" transform="matrix(0.965926, -0.258819, 0.258819, 0.965926, -33.312432, 229.418889)"/>
  <path d="M 824.341 174.348 C 824.341 165.492 831.521 158.318 840.373 158.315 L 840.373 158.315 C 849.226 158.318 856.403 165.492 856.403 174.348 L 856.403 174.348 C 856.403 183.202 849.226 190.378 840.373 190.38 L 840.373 190.38 C 831.519 190.378 824.341 183.203 824.341 174.348 L 824.341 174.348 Z M 826.427 174.348 C 826.44 182.048 832.67 188.279 840.373 188.293 L 840.373 188.293 C 848.076 188.279 854.304 182.05 854.318 174.348 L 854.318 174.348 C 854.304 166.646 848.076 160.416 840.373 160.403 L 840.373 160.403 C 832.67 160.417 826.439 166.647 826.427 174.348 L 826.427 174.348 Z" style="fill: rgb(30, 30, 30);" transform="matrix(0.965926, -0.258819, 0.258819, 0.965926, -16.489491, 223.44474)"/>
  <path d="M 829.815 174.349 C 829.815 168.516 834.544 163.792 840.372 163.792 L 840.372 163.792 C 846.202 163.792 850.929 168.516 850.929 174.349 L 850.929 174.349 C 850.929 180.177 846.202 184.904 840.372 184.904 L 840.372 184.904 C 834.544 184.904 829.815 180.177 829.815 174.349 L 829.815 174.349 Z M 831.9 174.349 C 831.91 179.026 835.694 182.811 840.372 182.82 L 840.372 182.82 C 845.05 182.811 848.835 179.026 848.844 174.349 L 848.844 174.349 C 848.835 169.669 845.05 165.884 840.372 165.876 L 840.372 165.876 C 835.693 165.884 831.91 169.669 831.9 174.349 L 831.9 174.349 Z" style="fill: rgb(30, 30, 30);" transform="matrix(0.965926, -0.258819, 0.258819, 0.965926, -16.489589, 223.445276)"/>
</svg>