<?xml version="1.0" encoding="utf-8"?>
<svg version="1.2" baseProfile="tiny" id="Layer_3" x="0px" y="0px" preserveAspectRatio="none" xmlns="http://www.w3.org/2000/svg">
  <path d="M 553.266 318.245 L 552.291 318.076 L 552.803 317.229 C 561.745 302.506 571.435 272.508 571.866 253.996 L 571.866 253.996 C 571.926 251.494 571.953 249.015 571.953 246.589 L 571.953 246.589 C 571.962 230.936 570.766 217.341 569.64 213.632 L 569.64 213.632 C 568.973 211.403 568.279 209.819 566.965 208.783 L 566.965 208.783 C 565.655 207.741 563.573 207.125 559.919 207.126 L 559.919 207.126 L 376.619 207.126 C 372.964 207.125 370.881 207.741 369.573 208.783 L 369.573 208.783 C 368.259 209.819 367.565 211.403 366.898 213.632 L 366.898 213.632 C 365.772 217.342 364.575 230.939 364.583 246.589 L 364.583 246.589 C 364.583 249.014 364.61 251.492 364.671 253.996 L 364.671 253.996 C 365.103 272.508 374.793 302.505 383.735 317.229 L 383.735 317.229 L 384.247 318.076 L 383.27 318.245 C 381.72 318.514 379.481 318.641 376.904 318.641 L 376.904 318.641 C 370.453 318.634 361.971 317.849 357.448 316.184 L 357.448 316.184 L 357.158 316.077 L 357.051 315.788 C 350.327 297.855 338.725 271.082 338.728 233.287 L 338.728 233.287 C 338.728 225.533 339.216 217.316 340.332 208.617 L 340.332 208.617 C 346.844 157.471 373.566 131.828 414.626 126.433 L 414.626 126.433 L 414.803 127.772 C 374.263 133.196 348.237 158.047 341.675 208.789 L 341.675 208.789 C 340.564 217.431 340.081 225.589 340.081 233.287 L 340.081 233.287 C 340.083 270.605 351.449 297.044 358.208 315.02 L 358.208 315.02 C 362.472 316.507 370.728 317.296 376.904 317.289 L 376.904 317.289 C 378.904 317.29 380.695 317.208 382.057 317.051 L 382.057 317.051 C 373.119 301.758 363.783 272.574 363.319 254.028 L 363.319 254.028 C 363.258 251.511 363.231 249.024 363.23 246.588 L 363.23 246.588 C 363.239 230.822 364.385 217.34 365.601 213.243 L 365.601 213.243 C 366.287 210.964 367.058 209.052 368.731 207.721 L 368.731 207.721 C 370.409 206.397 372.836 205.773 376.619 205.773 L 376.619 205.773 L 559.919 205.773 C 563.702 205.773 566.129 206.397 567.805 207.721 L 567.805 207.721 C 569.48 209.052 570.251 210.963 570.936 213.243 L 570.936 213.243 C 572.15 217.339 573.298 230.82 573.306 246.588 L 573.306 246.588 C 573.305 249.026 573.277 251.513 573.217 254.028 L 573.217 254.028 C 572.755 272.574 563.418 301.758 554.481 317.051 L 554.481 317.051 C 555.84 317.208 557.633 317.29 559.633 317.289 L 559.633 317.289 C 565.808 317.296 574.064 316.507 578.33 315.02 L 578.33 315.02 C 585.087 297.043 596.453 270.605 596.456 233.287 L 596.456 233.287 C 596.455 225.59 595.972 217.432 594.864 208.789 L 594.864 208.789 C 588.3 158.047 562.276 133.195 521.734 127.772 L 521.734 127.772 L 521.736 127.772 L 521.912 126.433 C 562.971 131.828 589.694 157.471 596.205 208.617 L 596.205 208.617 C 597.321 217.318 597.808 225.533 597.808 233.287 L 597.808 233.287 C 597.811 271.081 586.21 297.855 579.486 315.788 L 579.486 315.788 L 579.377 316.078 L 579.088 316.184 C 574.565 317.849 566.083 318.634 559.632 318.643 L 559.632 318.643 C 557.054 318.641 554.816 318.514 553.266 318.245 L 553.266 318.245 Z" style="fill: rgb(30, 30, 30);" transform="matrix(0.965926, -0.258819, 0.258819, 0.965926, -41.641214, 128.779421)"/>
  <path d="M 395.148 141.265 C 391.788 141.264 389.062 138.54 389.062 135.179 L 389.062 135.179 L 389.062 132.36 C 389.065 130.556 390.213 128.938 392.186 127.575 L 392.186 127.575 C 394.17 126.203 397.046 125.008 400.819 124 L 400.819 124 C 408.363 121.99 419.508 120.753 434.144 120.751 L 434.144 120.751 L 453.341 120.751 C 475.306 120.769 489.365 123.498 495.3 127.575 L 495.3 127.575 C 497.272 128.937 498.42 130.553 498.424 132.36 L 498.424 132.36 L 498.424 135.177 C 498.423 138.54 495.7 141.263 492.337 141.265 L 492.337 141.265 L 492.337 140.589 L 492.337 139.912 C 494.952 139.908 497.067 137.792 497.071 135.178 L 497.071 135.178 L 497.071 132.36 C 497.075 131.178 496.321 129.935 494.528 128.687 L 494.528 128.687 C 492.748 127.45 489.995 126.285 486.316 125.308 L 486.316 125.308 C 478.954 123.343 467.898 122.103 453.341 122.104 L 453.341 122.104 L 434.143 122.104 C 412.321 122.085 398.316 124.936 392.955 128.687 L 392.955 128.687 C 391.164 129.935 390.41 131.178 390.412 132.36 L 390.412 132.36 L 390.412 135.179 C 390.418 137.792 392.532 139.908 395.146 139.912 L 395.146 139.912 L 492.336 139.912 L 492.336 140.589 L 492.336 141.265 L 395.148 141.265 L 395.148 141.265 Z" style="fill: rgb(30, 30, 30);" transform="matrix(0.965926, -0.258819, 0.258819, 0.965926, -18.787184, 119.313008)"/>
  <path d="M 480.886 150.623 L 414.24 150.623 C 411.041 150.625 409.027 150.103 407.662 149.461 L 407.662 149.461 C 406.306 148.824 405.582 148.063 405.158 147.822 L 405.158 147.822 C 403.896 147.057 400.519 144.106 399.593 143.3 L 399.593 143.3 C 398.788 142.582 397.637 141.967 397.037 140.38 L 397.037 140.38 L 398.306 139.906 C 398.721 141.022 399.485 141.421 400.483 142.281 L 400.483 142.281 C 401.36 143.054 404.859 146.076 405.854 146.662 L 405.854 146.662 C 406.554 147.098 407.072 147.691 408.236 148.236 L 408.236 148.236 C 409.392 148.778 411.183 149.271 414.239 149.271 L 414.239 149.271 L 480.886 149.271 C 483.943 149.271 485.734 148.778 486.888 148.236 L 486.888 148.236 C 488.056 147.691 488.57 147.098 489.273 146.662 L 489.273 146.662 C 490.266 146.077 493.764 143.054 494.641 142.281 L 494.641 142.281 C 495.64 141.421 496.402 141.022 496.82 139.906 L 496.82 139.906 L 496.822 139.906 L 498.086 140.379 C 497.489 141.967 496.337 142.582 495.533 143.3 L 495.533 143.3 C 494.605 144.104 491.228 147.056 489.969 147.822 L 489.969 147.822 C 489.543 148.063 488.818 148.824 487.464 149.461 L 487.464 149.461 C 486.098 150.103 484.089 150.624 480.898 150.623 L 480.898 150.623 C 480.896 150.623 480.891 150.623 480.886 150.623 L 480.886 150.623 Z" style="fill: rgb(30, 30, 30);" transform="matrix(0.965926, -0.258819, 0.258819, 0.965926, -22.346937, 120.787306)"/>
  <path d="M 472.637 159.999 L 427.294 159.999 C 419.594 160.006 415.477 155.456 410.321 149.334 L 410.321 149.334 L 411.354 148.461 C 416.57 154.627 420.23 158.64 427.294 158.647 L 427.294 158.647 L 472.638 158.647 C 479.703 158.64 483.362 154.627 488.576 148.461 L 488.576 148.461 L 488.578 148.462 L 489.61 149.334 C 484.46 155.452 480.345 159.999 472.656 159.999 L 472.656 159.999 C 472.651 159.999 472.644 159.999 472.637 159.999 L 472.637 159.999 Z" style="fill: rgb(30, 30, 30);" transform="matrix(0.965926, -0.258819, 0.258819, 0.965926, -24.585457, 121.714857)"/>
  <path d="M 423.624 158.887 L 424.571 157.922 C 427.7 160.988 434.599 166.119 447.201 166.126 L 447.201 166.126 L 457.268 166.125 C 469.872 166.119 476.77 160.988 479.901 157.922 L 479.901 157.922 L 479.901 157.922 L 480.849 158.887 C 477.554 162.134 470.251 167.483 457.268 167.477 L 457.268 167.477 L 447.201 167.478 C 434.219 167.484 426.917 162.134 423.624 158.887 L 423.624 158.887 Z" style="fill: rgb(30, 30, 30);" transform="matrix(0.965926, -0.258819, 0.258819, 0.965926, -26.700273, 122.591317)"/>
  <path d="M 357.83 204.678 C 353.857 204.674 349.173 203.751 345.429 200.898 L 345.429 200.898 C 341.679 198.048 338.968 193.236 338.979 185.794 L 338.979 185.794 C 338.979 182.91 339.378 179.628 340.267 175.893 L 340.267 175.893 L 341.583 176.206 C 340.712 179.857 340.33 183.035 340.33 185.794 L 340.33 185.794 C 340.342 192.921 342.846 197.213 346.249 199.823 L 346.249 199.823 C 349.657 202.431 354.059 203.328 357.83 203.325 L 357.83 203.325 L 561.268 203.325 C 565.038 203.328 569.44 202.431 572.848 199.823 L 572.848 199.823 C 576.249 197.213 578.753 192.919 578.765 185.794 L 578.765 185.794 C 578.765 183.035 578.383 179.857 577.516 176.206 L 577.516 176.206 L 577.516 176.206 L 578.832 175.893 C 579.718 179.628 580.117 182.91 580.118 185.794 L 580.118 185.794 C 580.13 193.236 577.418 198.048 573.668 200.898 L 573.668 200.898 C 569.923 203.751 565.238 204.674 561.267 204.678 L 561.267 204.678 L 357.83 204.678 L 357.83 204.678 Z" style="fill: rgb(30, 30, 30);" transform="matrix(0.965926, -0.258819, 0.258819, 0.965926, -33.590775, 125.423754)"/>
  <path d="M 538.479 316.238 L 537.802 316.238 L 537.802 224.044 C 537.798 221.429 535.681 219.314 533.068 219.308 L 533.068 219.308 L 427.347 219.308 C 424.734 219.313 422.62 221.429 422.613 224.044 L 422.613 224.044 L 422.613 316.239 L 421.937 316.239 C 412.677 316.238 395.122 316.238 395.095 316.238 L 395.095 316.238 L 395.095 314.885 C 395.122 314.885 411.851 314.885 421.261 314.885 L 421.261 314.885 L 421.261 224.044 C 421.261 220.681 423.985 217.957 427.347 217.957 L 427.347 217.957 L 533.068 217.957 C 536.43 217.957 539.154 220.681 539.155 224.044 L 539.155 224.044 L 539.155 314.885 C 549.934 314.885 565.285 314.885 565.285 314.885 L 565.285 314.885 L 565.285 316.24 C 565.285 316.238 549.28 316.238 538.479 316.238 L 538.479 316.238 Z M 395.095 316.238 L 395.095 316.239 L 395.095 316.238 L 395.095 316.238 Z" style="fill: rgb(30, 30, 30);" transform="matrix(0.965926, -0.258819, 0.258819, 0.965926, -52.768111, 133.383504)"/>
  <polygon points="433.796 312.111 433.796 310.76 550.111 310.76 550.111 312.111 433.796 312.111" style="fill: rgb(30, 30, 30);" transform="matrix(0.965926, -0.258818, 0.258818, 0.965926, -63.842422, 137.938522)"/>
  <g transform="matrix(0.653207, -0.175026, 0.175026, 0.653207, 242.495789, 159.755157)">
    <path d="M240.763,200.961v-0.999v-1.002h19.167c3.083-0.004,5.576-2.499,5.583-5.582l0,0&#10;&#9;&#9;c-0.006-3.084-2.5-5.579-5.583-5.583l0,0h-19.167c-3.085,0.004-5.579,2.499-5.584,5.583l0,0c0.006,3.083,2.501,5.578,5.584,5.582&#10;&#9;&#9;l0,0v1.002V200.961c-4.19,0-7.583-3.397-7.585-7.583l0,0c0.002-4.188,3.396-7.583,7.585-7.583l0,0h19.167&#10;&#9;&#9;c4.188,0,7.581,3.395,7.583,7.583l0,0c-0.002,4.186-3.395,7.583-7.583,7.583l0,0H240.763L240.763,200.961z" style="fill: rgb(30, 30, 30);"/>
    <path d="M288.845,200.961v-0.999v-1.002l19.167,0.002c3.083-0.006,5.578-2.501,5.582-5.584l0,0&#10;&#9;&#9;c-0.004-3.084-2.499-5.579-5.582-5.583l0,0h-19.167c-3.083,0.004-5.579,2.499-5.583,5.583l0,0c0.004,3.083,2.5,5.578,5.583,5.582&#10;&#9;&#9;l0,0v1.002V200.961c-4.188,0-7.583-3.397-7.583-7.583l0,0c0-4.188,3.395-7.583,7.583-7.583l0,0h19.167&#10;&#9;&#9;c4.188,0,7.583,3.395,7.583,7.583l0,0c0,4.186-3.395,7.583-7.583,7.583l0,0H288.845L288.845,200.961z" style="fill: rgb(30, 30, 30);"/>
    <path d="M336.927,200.962v-1.001v-1.001l19.168,0.002c3.083-0.006,5.578-2.5,5.584-5.584l0,0&#10;&#9;&#9;c-0.006-3.085-2.499-5.579-5.584-5.584l0,0h-19.168c-3.081,0.005-5.576,2.499-5.582,5.584l0,0c0.006,3.084,2.501,5.578,5.582,5.582&#10;&#9;&#9;l0,0v1.001V200.962c-4.188-0.002-7.582-3.396-7.582-7.584l0,0c0-4.189,3.395-7.583,7.582-7.585l0,0l19.168,0.002&#10;&#9;&#9;c4.189,0,7.583,3.394,7.583,7.583l0,0c0,4.188-3.394,7.582-7.583,7.584l0,0H336.927L336.927,200.962z" style="fill: rgb(30, 30, 30);"/>
  </g>
  <g transform="matrix(0.653207, -0.175026, 0.175026, 0.653207, 242.495789, 159.755157)">
    <path d="M240.762,232.518v-1.002v-0.999h19.168c3.083-0.005,5.577-2.501,5.582-5.584l0,0&#10;&#9;&#9;c-0.004-3.084-2.499-5.577-5.582-5.583l0,0h-19.168c-3.083,0.006-5.577,2.499-5.583,5.583l0,0c0.006,3.083,2.5,5.579,5.583,5.584&#10;&#9;&#9;l0,0v0.999V232.518c-4.188-0.002-7.583-3.396-7.583-7.585l0,0c0-4.188,3.395-7.583,7.583-7.583l0,0h19.168&#10;&#9;&#9;c4.188,0,7.582,3.396,7.583,7.583l0,0c-0.002,4.188-3.395,7.583-7.583,7.585l0,0H240.762L240.762,232.518z" style="fill: rgb(30, 30, 30);"/>
    <path d="M288.844,232.518v-1.002v-0.999h19.167c3.083-0.005,5.577-2.501,5.582-5.584l0,0&#10;&#9;&#9;c-0.005-3.084-2.499-5.577-5.582-5.583l0,0h-19.167c-3.083,0.006-5.577,2.499-5.583,5.583l0,0c0.006,3.083,2.5,5.579,5.583,5.584&#10;&#9;&#9;l0,0v0.999V232.518c-4.188-0.002-7.581-3.396-7.583-7.585l0,0c0.002-4.188,3.395-7.583,7.583-7.583l0,0h19.167&#10;&#9;&#9;c4.188,0,7.584,3.396,7.584,7.583l0,0c0,4.188-3.396,7.583-7.584,7.585l0,0H288.844L288.844,232.518z" style="fill: rgb(30, 30, 30);"/>
    <path d="M336.927,232.517v-0.999v-1.001h19.168c3.083-0.006,5.578-2.501,5.584-5.584l0,0&#10;&#9;&#9;c-0.006-3.083-2.499-5.577-5.584-5.582l0,0h-19.168c-3.081,0.005-5.576,2.499-5.582,5.582l0,0c0.006,3.083,2.501,5.578,5.582,5.584&#10;&#9;&#9;l0,0v1.001V232.517c-4.188,0-7.582-3.396-7.582-7.584l0,0c0-4.188,3.395-7.583,7.582-7.583l0,0h19.168&#10;&#9;&#9;c4.189,0,7.583,3.396,7.583,7.583l0,0c0,4.188-3.394,7.584-7.583,7.584l0,0H336.927L336.927,232.517z" style="fill: rgb(30, 30, 30);"/>
  </g>
  <g transform="matrix(0.653207, -0.175026, 0.175026, 0.653207, 242.495789, 159.755157)">
    <path d="M240.762,264.073v-1.001v-1h19.167c3.084-0.006,5.578-2.5,5.584-5.584l0,0&#10;&#9;&#9;c-0.006-3.084-2.5-5.577-5.584-5.582l0,0h-19.167c-3.084,0.005-5.578,2.498-5.583,5.582l0,0c0.006,3.084,2.5,5.578,5.583,5.584l0,0&#10;&#9;&#9;v1V264.073c-4.189-0.002-7.583-3.397-7.583-7.585l0,0c0-4.188,3.394-7.583,7.583-7.583l0,0h19.167c4.189,0,7.583,3.396,7.583,7.583&#10;&#9;&#9;l0,0c0,4.188-3.394,7.583-7.583,7.585l0,0H240.762L240.762,264.073z" style="fill: rgb(30, 30, 30);"/>
    <path d="M288.846,264.073v-1.001v-1h19.166c3.082-0.006,5.578-2.5,5.582-5.584l0,0&#10;&#9;&#9;c-0.004-3.084-2.498-5.577-5.582-5.582l0,0h-19.166c-3.084,0.005-5.578,2.498-5.583,5.582l0,0c0.006,3.084,2.5,5.578,5.583,5.584&#10;&#9;&#9;l0,0v1V264.073c-4.189-0.002-7.583-3.397-7.585-7.585l0,0c0.002-4.188,3.396-7.583,7.585-7.583l0,0h19.166&#10;&#9;&#9;c4.188,0,7.583,3.396,7.583,7.583l0,0c0,4.188-3.394,7.583-7.583,7.585l0,0H288.846L288.846,264.073z" style="fill: rgb(30, 30, 30);"/>
    <path d="M336.927,264.073v-1.001v-1h19.169c3.082-0.006,5.577-2.5,5.582-5.584l0,0&#10;&#9;&#9;c-0.005-3.084-2.498-5.577-5.582-5.582l0,0h-19.169c-3.082,0.005-5.577,2.498-5.581,5.582l0,0c0.004,3.084,2.499,5.578,5.581,5.584&#10;&#9;&#9;l0,0v1V264.073c-4.188-0.002-7.581-3.397-7.583-7.585l0,0c0.002-4.188,3.396-7.583,7.583-7.583l0,0h19.169&#10;&#9;&#9;c4.188,0,7.583,3.396,7.583,7.583l0,0c0,4.188-3.394,7.583-7.583,7.585l0,0H336.927L336.927,264.073z" style="fill: rgb(30, 30, 30);"/>
  </g>
  <g transform="matrix(0.653207, -0.175026, 0.175026, 0.653207, 242.495789, 159.755157)">
    <path d="M240.762,295.628v-1.001v-1.001h19.167c3.083-0.005,5.578-2.499,5.583-5.582l0,0&#10;&#9;&#9;c-0.004-3.084-2.499-5.578-5.583-5.583l0,0h-19.167c-3.083,0.005-5.578,2.499-5.584,5.583l0,0c0.006,3.083,2.501,5.577,5.584,5.582&#10;&#9;&#9;l0,0v1.001V295.628c-4.188-0.002-7.583-3.397-7.584-7.584l0,0c0.002-4.189,3.396-7.583,7.584-7.585l0,0h19.167&#10;&#9;&#9;c4.189,0.002,7.583,3.396,7.583,7.585l0,0c0,4.187-3.394,7.582-7.583,7.584l0,0H240.762L240.762,295.628z" style="fill: rgb(30, 30, 30);"/>
    <path d="M288.846,295.628v-1.001v-1.001l19.166,0.002c3.083-0.007,5.578-2.501,5.582-5.584l0,0&#10;&#9;&#9;c-0.004-3.084-2.499-5.578-5.582-5.583l0,0h-19.166c-3.083,0.005-5.578,2.499-5.584,5.583l0,0c0.006,3.083,2.501,5.577,5.584,5.582&#10;&#9;&#9;l0,0v1.001V295.628c-4.189-0.002-7.583-3.397-7.585-7.584l0,0c0.002-4.189,3.396-7.583,7.585-7.585l0,0l19.166,0.002&#10;&#9;&#9;c4.188,0,7.583,3.394,7.583,7.583l0,0c0,4.187-3.395,7.582-7.583,7.584l0,0H288.846L288.846,295.628z" style="fill: rgb(30, 30, 30);"/>
    <path d="M336.927,295.628v-1.001v-1.001l19.168,0.002c3.083-0.007,5.578-2.501,5.583-5.584l0,0&#10;&#9;&#9;c-0.005-3.084-2.5-5.578-5.583-5.583l0,0h-19.168c-3.081,0.005-5.576,2.499-5.583,5.583l0,0c0.007,3.083,2.502,5.577,5.583,5.582&#10;&#9;&#9;l0,0v1.001V295.628c-4.187-0.002-7.581-3.397-7.583-7.584l0,0c0.002-4.189,3.396-7.583,7.583-7.585l0,0l19.168,0.002&#10;&#9;&#9;c4.189,0,7.583,3.394,7.585,7.583l0,0c-0.002,4.187-3.396,7.582-7.585,7.584l0,0H336.927L336.927,295.628z" style="fill: rgb(30, 30, 30);"/>
  </g>
  <path d="M 435.843 197.111 C 434.786 196.167 434.244 194.852 434.246 193.538 L 434.246 193.538 C 434.244 192.404 434.648 191.257 435.463 190.346 L 435.463 190.346 L 444.401 180.345 C 445.345 179.289 446.66 178.747 447.973 178.747 L 447.973 178.747 C 449.107 178.747 450.252 179.15 451.164 179.966 L 451.164 179.966 C 452.221 180.91 452.763 182.226 452.762 183.539 L 452.762 183.539 C 452.762 184.673 452.359 185.816 451.545 186.728 L 451.545 186.728 L 442.609 196.73 L 442.105 196.28 L 442.609 196.731 C 441.663 197.788 440.348 198.328 439.034 198.328 L 439.034 198.328 C 437.9 198.328 436.755 197.927 435.843 197.111 L 435.843 197.111 Z M 445.409 181.248 L 436.472 191.249 C 435.885 191.907 435.599 192.721 435.599 193.538 L 435.599 193.538 C 435.599 194.485 435.984 195.421 436.745 196.102 L 436.745 196.102 C 437.401 196.688 438.217 196.975 439.034 196.976 L 439.034 196.976 C 439.98 196.975 440.918 196.59 441.599 195.83 L 441.599 195.83 L 441.598 195.829 L 450.536 185.828 C 451.122 185.17 451.41 184.356 451.41 183.539 L 451.41 183.539 C 451.408 182.592 451.023 181.656 450.262 180.975 L 450.262 180.975 C 449.604 180.386 448.79 180.102 447.974 180.1 L 447.974 180.1 C 447.026 180.102 446.089 180.487 445.409 181.248 L 445.409 181.248 Z" style="fill: rgb(30, 30, 30);" transform="matrix(0.965926, -0.258819, 0.258819, 0.965926, -33.685046, 121.211412)"/>
  <path d="M 457.977 193.252 C 456.842 193.254 455.698 192.849 454.786 192.035 L 454.786 192.035 C 453.73 191.091 453.187 189.775 453.188 188.461 L 453.188 188.461 C 453.187 187.328 453.591 186.183 454.406 185.271 L 454.406 185.271 L 463.343 175.271 C 464.287 174.214 465.603 173.671 466.916 173.671 L 466.916 173.671 C 468.049 173.671 469.191 174.074 470.105 174.89 L 470.105 174.89 C 471.164 175.835 471.706 177.149 471.703 178.463 L 471.703 178.463 C 471.703 179.598 471.301 180.74 470.486 181.653 L 470.486 181.653 L 461.55 191.655 C 460.605 192.712 459.294 193.251 457.98 193.251 L 457.98 193.251 C 457.98 193.252 457.979 193.252 457.977 193.252 L 457.977 193.252 Z M 464.352 176.172 L 455.416 186.173 C 454.828 186.832 454.543 187.645 454.54 188.461 L 454.54 188.461 C 454.543 189.408 454.928 190.345 455.689 191.026 L 455.689 191.026 C 456.346 191.614 457.159 191.9 457.977 191.9 L 457.977 191.9 C 458.924 191.899 459.862 191.514 460.544 190.753 L 460.544 190.753 L 469.479 180.753 C 470.065 180.094 470.353 179.28 470.354 178.463 L 470.354 178.463 C 470.353 177.516 469.969 176.579 469.207 175.899 L 469.207 175.899 C 468.547 175.31 467.733 175.025 466.917 175.024 L 466.917 175.024 C 465.969 175.026 465.033 175.411 464.352 176.172 L 464.352 176.172 Z" style="fill: rgb(30, 30, 30);" transform="matrix(0.965926, -0.258819, 0.258819, 0.965926, -31.725867, 125.940871)"/>
  <path d="M 356.923 188.084 C 356.925 171.557 370.323 158.16 386.849 158.16 L 386.849 158.16 C 403.375 158.16 416.773 171.557 416.773 188.084 L 416.773 188.084 C 416.773 204.61 403.375 218.008 386.849 218.009 L 386.849 218.009 C 370.323 218.008 356.926 204.61 356.923 188.084 L 356.923 188.084 Z M 366.646 167.881 C 361.474 173.053 358.278 180.192 358.278 188.084 L 358.278 188.084 C 358.278 195.975 361.474 203.113 366.646 208.287 L 366.646 208.287 C 371.818 213.457 378.957 216.654 386.849 216.654 L 386.849 216.654 C 394.74 216.654 401.879 213.457 407.052 208.287 L 407.052 208.287 C 412.223 203.113 415.42 195.975 415.42 188.084 L 415.42 188.084 C 415.42 180.191 412.223 173.053 407.052 167.881 L 407.052 167.881 C 401.879 162.709 394.74 159.512 386.849 159.512 L 386.849 159.512 C 378.957 159.512 371.819 162.709 366.646 167.881 L 366.646 167.881 Z" style="fill: rgb(30, 30, 30);" transform="matrix(0.965926, -0.258819, 0.258819, 0.965926, -35.49833, 106.532481)"/>
  <path d="M 365.152 188.083 C 365.152 176.101 374.867 166.388 386.849 166.388 L 386.849 166.388 C 398.831 166.388 408.545 176.102 408.545 188.083 L 408.545 188.083 C 408.545 200.067 398.831 209.779 386.849 209.779 L 386.849 209.779 C 374.867 209.779 365.152 200.067 365.152 188.083 L 365.152 188.083 Z M 366.505 188.083 C 366.524 199.319 375.613 208.408 386.849 208.428 L 386.849 208.428 C 398.084 208.407 407.173 199.319 407.192 188.083 L 407.192 188.083 C 407.173 176.847 398.085 167.759 386.849 167.74 L 386.849 167.74 C 375.613 167.759 366.526 176.847 366.505 188.083 L 366.505 188.083 Z" style="fill: rgb(30, 30, 30);" transform="matrix(0.965926, -0.258819, 0.258819, 0.965926, -35.498024, 106.532438)"/>
  <path d="M 488.44 189.644 L 488.44 189.643 L 488.44 188.968 L 488.44 188.291 L 508.107 188.291 C 509.379 188.291 510.499 187.666 511.18 186.711 L 511.18 186.711 L 516.868 178.527 C 517.348 177.906 517.631 177.133 517.631 176.288 L 517.631 176.288 C 517.631 174.85 516.804 173.606 515.58 172.996 L 515.58 172.996 L 502.751 166.182 C 501.981 165.761 501.102 165.523 500.162 165.523 L 500.162 165.523 C 498.325 165.523 496.707 166.436 495.716 167.849 L 495.716 167.849 L 485.412 181.819 C 484.838 182.505 484.496 183.383 484.496 184.346 L 484.496 184.346 C 484.499 186.524 486.261 188.288 488.44 188.29 L 488.44 188.29 L 488.44 188.967 L 488.44 189.643 C 485.515 189.643 483.143 187.271 483.143 184.346 L 483.143 184.346 C 483.143 183.056 483.607 181.867 484.349 180.982 L 484.349 180.982 L 494.618 167.059 C 495.84 165.314 497.868 164.17 500.162 164.17 L 500.162 164.17 C 501.331 164.17 502.438 164.468 503.392 164.99 L 503.392 164.99 L 516.198 171.793 C 517.848 172.613 518.984 174.319 518.985 176.288 L 518.985 176.288 C 518.985 177.441 518.593 178.508 517.957 179.327 L 517.957 179.327 L 512.286 187.49 C 511.358 188.791 509.829 189.643 508.107 189.643 L 508.107 189.643 L 488.44 189.643 L 488.44 189.644 Z" style="fill: rgb(30, 30, 30);" transform="matrix(0.965926, -0.258819, 0.258819, 0.965926, -28.713561, 135.71289)"/>
  <path d="M 492.509 177.386 C 492.509 172.203 496.71 168.003 501.892 168.003 L 501.892 168.003 C 507.073 168.003 511.274 172.203 511.275 177.386 L 511.275 177.386 C 511.274 182.567 507.073 186.769 501.892 186.77 L 501.892 186.77 C 496.71 186.769 492.509 182.567 492.509 177.386 L 492.509 177.386 Z M 493.861 177.386 C 493.87 181.821 497.457 185.409 501.892 185.416 L 501.892 185.416 C 506.326 185.407 509.915 181.82 509.922 177.386 L 509.922 177.386 C 509.915 172.95 506.326 169.364 501.892 169.355 L 501.892 169.355 C 497.457 169.364 493.869 172.95 493.861 177.386 L 493.861 177.386 Z" style="fill: rgb(30, 30, 30);" transform="matrix(0.965926, -0.258819, 0.258819, 0.965926, -28.809453, 135.943526)"/>
  <path d="M 503.843 153.987 C 503.844 148.804 508.045 144.605 513.227 144.604 L 513.227 144.604 C 518.408 144.606 522.609 148.805 522.61 153.987 L 522.61 153.987 C 522.609 159.169 518.408 163.37 513.227 163.37 L 513.227 163.37 C 508.045 163.37 503.844 159.17 503.843 153.987 L 503.843 153.987 Z M 505.196 153.987 C 505.204 158.423 508.79 162.01 513.227 162.017 L 513.227 162.017 C 517.661 162.01 521.248 158.423 521.257 153.987 L 521.257 153.987 C 521.248 149.553 517.661 145.965 513.227 145.956 L 513.227 145.956 C 508.792 145.965 505.204 149.553 505.196 153.987 L 505.196 153.987 Z" style="fill: rgb(30, 30, 30);" transform="matrix(0.965926, -0.258819, 0.258819, 0.965926, -22.367, 138.079801)"/>
  <path d="M 516.896 132.465 C 516.896 127.283 521.097 123.082 526.279 123.082 L 526.279 123.082 C 531.461 123.082 535.662 127.282 535.662 132.465 L 535.662 132.465 C 535.662 137.647 531.461 141.848 526.279 141.848 L 526.279 141.848 C 521.097 141.847 516.896 137.647 516.896 132.465 L 516.896 132.465 Z M 518.249 132.465 C 518.256 136.9 521.844 140.487 526.279 140.495 L 526.279 140.495 C 530.714 140.487 534.3 136.9 534.309 132.465 L 534.309 132.465 C 534.3 128.03 530.714 124.442 526.279 124.434 L 526.279 124.434 C 521.844 124.442 518.256 128.03 518.249 132.465 L 518.249 132.465 Z" style="fill: rgb(30, 30, 30);" transform="matrix(0.965926, -0.258819, 0.258819, 0.965926, -16.351947, 140.724509)"/>
  <path d="M 512.776 165.704 L 499.522 158.502 C 498.187 157.708 497.293 156.248 497.293 154.58 L 497.293 154.58 C 497.293 153.321 497.804 152.176 498.614 151.368 L 498.614 151.368 L 505.91 143.574 C 507.112 142.285 508.831 141.478 510.733 141.478 L 510.733 141.478 C 512.076 141.478 513.333 141.881 514.376 142.574 L 514.376 142.574 L 526.76 148.936 L 526.45 149.538 L 526.76 148.936 L 526.791 148.953 L 526.816 148.97 C 528.227 149.877 529.162 151.466 529.162 153.269 L 529.162 153.269 C 529.162 154.875 528.418 156.312 527.259 157.248 L 527.259 157.248 L 520.515 164.314 C 519.386 165.65 517.692 166.499 515.806 166.499 L 515.806 166.499 C 514.703 166.498 513.662 166.207 512.776 165.704 L 512.776 165.704 Z M 506.898 144.498 L 499.586 152.308 C 499.005 152.891 498.646 153.69 498.646 154.58 L 498.646 154.58 C 498.644 155.753 499.274 156.778 500.192 157.327 L 500.192 157.327 L 513.432 164.523 C 514.133 164.92 514.939 165.145 515.806 165.147 L 515.806 165.147 C 517.282 165.145 518.596 164.485 519.511 163.41 L 519.511 163.41 L 526.348 156.245 L 526.383 156.217 C 527.253 155.527 527.809 154.465 527.809 153.269 L 527.809 153.269 C 527.809 151.954 527.135 150.8 526.113 150.125 L 526.113 150.125 L 513.689 143.741 L 513.657 143.72 C 512.821 143.157 511.819 142.831 510.734 142.831 L 510.734 142.831 C 509.218 142.831 507.86 143.47 506.898 144.498 L 506.898 144.498 Z" style="fill: rgb(30, 30, 30);" transform="matrix(0.965926, -0.258819, 0.258819, 0.965926, -22.367355, 138.0801)"/>
  <path d="M 528.143 145.1 C 527.042 145.037 526.02 144.689 525.164 144.137 L 525.164 144.137 L 512.338 136.197 C 511.117 135.374 510.323 133.977 510.323 132.416 L 510.323 132.416 C 510.323 132.333 510.325 132.241 510.333 132.156 L 510.333 132.156 C 510.403 130.899 510.98 129.784 511.834 129.023 L 511.834 129.023 L 519.556 121.653 C 520.745 120.516 522.358 119.821 524.112 119.821 L 524.112 119.821 C 524.236 119.821 524.364 119.823 524.491 119.832 L 524.491 119.832 C 525.829 119.907 527.057 120.379 528.058 121.127 L 528.058 121.127 L 540.071 128.183 L 539.728 128.766 L 540.071 128.183 L 540.103 128.201 L 540.127 128.218 C 541.409 129.153 542.23 130.668 542.23 132.354 L 542.23 132.354 C 542.23 132.451 542.23 132.544 542.225 132.645 L 542.225 132.645 C 542.133 134.249 541.31 135.643 540.099 136.511 L 540.099 136.511 L 532.968 143.183 C 531.841 144.372 530.244 145.108 528.497 145.108 L 528.497 145.108 C 528.38 145.109 528.262 145.105 528.143 145.1 L 528.143 145.1 Z M 520.491 122.63 L 512.75 130.016 C 512.135 130.566 511.734 131.345 511.681 132.248 L 511.681 132.248 C 511.679 132.292 511.676 132.349 511.676 132.416 L 511.676 132.416 C 511.676 133.511 512.234 134.495 513.07 135.062 L 513.07 135.062 L 525.885 142.993 C 526.564 143.428 527.356 143.699 528.215 143.748 L 528.215 143.748 C 528.309 143.754 528.402 143.756 528.496 143.756 L 528.496 143.756 C 529.86 143.756 531.104 143.184 532.016 142.225 L 532.016 142.225 L 539.243 135.459 L 539.283 135.432 C 540.191 134.791 540.807 133.764 540.872 132.579 L 540.872 132.579 C 540.878 132.497 540.878 132.423 540.878 132.354 L 540.878 132.354 C 540.878 131.12 540.281 130.013 539.343 129.325 L 539.343 129.325 L 527.318 122.261 L 527.284 122.236 C 526.48 121.627 525.499 121.243 524.408 121.181 L 524.408 121.181 C 524.312 121.176 524.214 121.172 524.112 121.172 L 524.112 121.172 C 522.718 121.172 521.44 121.724 520.491 122.63 L 520.491 122.63 Z" style="fill: rgb(30, 30, 30);" transform="matrix(0.965926, -0.258819, 0.258819, 0.965926, -16.351916, 140.724029)"/>
  <path d="M 380.342 206.768 L 380.306 206.756 L 380.274 206.742 C 379.621 206.494 379.066 205.675 379.128 204.538 L 379.128 204.538 L 379.128 196.205 C 379.091 195.952 379.054 195.818 378.734 195.803 L 378.734 195.803 L 370.393 195.803 C 369.784 195.797 369.351 195.775 368.92 195.547 L 368.92 195.547 C 368.478 195.306 368.276 194.887 368.142 194.523 L 368.142 194.523 C 367.445 192.503 367.067 190.335 367.07 188.083 L 367.07 188.083 C 367.069 185.82 367.449 183.642 368.159 181.593 L 368.159 181.593 C 368.241 181.375 368.398 180.971 368.81 180.706 L 368.81 180.706 C 369.217 180.449 369.701 180.365 370.393 180.363 L 370.393 180.363 L 378.713 180.363 C 378.911 180.364 379.044 180.349 379.118 180.336 L 379.118 180.336 C 379.124 180.279 379.128 180.191 379.128 180.081 L 379.128 180.081 L 379.128 171.627 C 379.105 169.957 380.502 169.342 380.714 169.275 L 380.714 169.275 L 380.744 169.263 L 380.776 169.252 C 382.689 168.636 384.732 168.303 386.848 168.303 L 386.848 168.303 C 389.193 168.303 391.444 168.711 393.531 169.461 L 393.531 169.461 L 393.571 169.476 L 393.608 169.495 C 393.907 169.632 394.286 169.902 394.434 170.328 L 394.434 170.328 C 394.573 170.73 394.564 171.082 394.569 171.627 L 394.569 171.627 L 394.569 180.102 C 394.568 180.212 394.577 180.29 394.585 180.338 L 394.585 180.338 C 394.59 180.339 394.597 180.339 394.603 180.342 L 394.603 180.342 C 394.68 180.355 394.82 180.363 395.006 180.363 L 395.006 180.363 L 403.304 180.363 C 403.876 180.368 404.245 180.378 404.611 180.492 L 404.611 180.492 C 404.988 180.589 405.322 180.963 405.423 181.266 L 405.423 181.266 C 406.203 183.392 406.629 185.689 406.629 188.084 L 406.629 188.084 C 406.629 190.389 406.234 192.605 405.495 194.695 L 405.495 194.695 C 405.38 194.999 405.159 195.417 404.714 195.615 L 404.714 195.615 C 404.291 195.797 403.901 195.797 403.304 195.803 L 403.304 195.803 L 394.985 195.803 C 394.846 195.8 394.688 195.843 394.638 195.878 L 394.638 195.878 C 394.597 195.925 394.585 195.876 394.569 196.078 L 394.569 196.078 L 394.569 204.538 C 394.565 204.974 394.565 205.355 394.397 205.767 L 394.397 205.767 C 394.228 206.184 393.877 206.497 393.472 206.715 L 393.472 206.715 L 393.421 206.745 L 393.364 206.765 C 391.322 207.477 389.129 207.863 386.847 207.863 L 386.847 207.863 C 384.57 207.863 382.379 207.479 380.342 206.768 L 380.342 206.768 Z M 386.849 206.511 C 388.954 206.511 390.974 206.159 392.856 205.509 L 392.856 205.509 C 393.094 205.366 393.12 205.309 393.15 205.243 L 393.15 205.243 C 393.188 205.169 393.221 204.949 393.216 204.538 L 393.216 204.538 L 393.216 196.078 C 393.201 195.499 393.514 194.974 393.907 194.741 L 393.907 194.741 C 394.294 194.497 394.68 194.454 394.986 194.452 L 394.986 194.452 L 403.305 194.45 C 403.617 194.452 403.842 194.442 403.98 194.423 L 403.98 194.423 C 404.088 194.409 404.13 194.395 404.144 194.389 L 404.144 194.389 L 404.144 194.389 C 404.156 194.376 404.195 194.308 404.232 194.214 L 404.232 194.214 C 404.908 192.296 405.277 190.234 405.277 188.084 L 405.277 188.084 C 405.277 185.854 404.88 183.718 404.167 181.77 L 404.167 181.77 C 404.072 181.743 403.783 181.712 403.305 181.715 L 403.305 181.715 L 395.006 181.715 C 394.583 181.704 394.185 181.722 393.747 181.424 L 393.747 181.424 C 393.303 181.088 393.213 180.569 393.217 180.102 L 393.217 180.102 L 393.217 171.627 C 393.227 171.094 393.189 170.849 393.171 170.802 L 393.171 170.802 L 393.171 170.802 C 393.165 170.795 393.123 170.764 393.036 170.718 L 393.036 170.718 C 391.102 170.029 389.021 169.656 386.85 169.656 L 386.85 169.656 C 384.892 169.656 383.01 169.96 381.241 170.525 L 381.241 170.525 C 380.989 170.659 380.504 170.779 380.481 171.627 L 380.481 171.627 L 380.481 180.081 C 380.472 180.437 380.498 180.871 380.116 181.294 L 380.116 181.294 C 379.708 181.681 379.25 181.706 378.714 181.715 L 378.714 181.715 L 370.395 181.715 C 369.819 181.712 369.587 181.808 369.551 181.838 L 369.551 181.838 C 369.52 181.862 369.509 181.858 369.43 182.059 L 369.43 182.059 C 368.777 183.945 368.422 185.972 368.422 188.084 L 368.422 188.084 C 368.422 190.186 368.775 192.203 369.413 194.062 L 369.413 194.062 C 369.534 194.361 369.561 194.356 369.574 194.363 L 369.574 194.363 C 369.599 194.389 369.847 194.458 370.395 194.451 L 370.395 194.451 L 378.735 194.453 C 379.268 194.445 379.753 194.677 380.049 195.024 L 380.049 195.024 C 380.349 195.371 380.481 195.794 380.481 196.206 L 380.481 196.206 L 380.481 204.539 C 380.544 205.471 380.597 205.343 380.838 205.509 L 380.838 205.509 C 382.723 206.159 384.742 206.511 386.849 206.511 L 386.849 206.511 Z" style="fill: rgb(30, 30, 30);" transform="matrix(0.965926, -0.258819, 0.258819, 0.965926, -35.497867, 106.532678)"/>
  <g transform="matrix(0.653207, -0.175026, 0.175026, 0.653207, 242.495789, 159.755157)">
    <path d="M204.761,118.598c0.002-7.433,6.027-13.458,13.46-13.458l0,0v1.999c-6.329,0.012-11.447,5.131-11.46,11.459&#10;&#9;&#9;l0,0H204.761L204.761,118.598z" style="fill: rgb(30, 30, 30);"/>
    <path d="M183.969,118.598c-0.01-6.329-5.128-11.447-11.458-11.458l0,0v-2.002&#10;&#9;&#9;c7.434,0.002,13.458,6.027,13.458,13.46l0,0H183.969L183.969,118.598z" style="fill: rgb(30, 30, 30);"/>
  </g>
  <g transform="matrix(0.653207, -0.175026, 0.175026, 0.653207, 242.495789, 159.755157)">
    <path d="M204.761,72.826h0.002h1.999c0.012,6.329,5.13,11.446,11.46,11.458l0,0v2.001&#10;&#9;&#9;C210.788,86.283,204.763,80.26,204.761,72.826L204.761,72.826z" style="fill: rgb(30, 30, 30);"/>
    <path d="M172.511,84.285c6.329-0.012,11.447-5.13,11.459-11.458l0,0h1.999c0,7.433-6.025,13.458-13.458,13.459l0,0&#10;&#9;&#9;V84.285L172.511,84.285z" style="fill: rgb(30, 30, 30);"/>
  </g>
  <circle cx="195.346" cy="58.628" r="2.917" style="fill: rgb(30, 30, 30);" transform="matrix(0.653204, -0.175025, 0.175027, 0.653209, 242.496414, 159.754868)"/>
  <circle cx="169.124" cy="69.489" r="1.792" style="fill: rgb(30, 30, 30);" transform="matrix(0.653202, -0.175025, 0.175026, 0.653205, 242.49678, 159.755096)"/>
  <circle cx="158.262" cy="95.711" r="2.917" style="fill: rgb(30, 30, 30);" transform="matrix(0.653204, -0.175025, 0.175026, 0.653206, 242.496384, 159.755157)"/>
  <circle cx="195.345" cy="132.795" r="2.917" style="fill: rgb(30, 30, 30);" transform="matrix(0.653204, -0.175025, 0.175027, 0.653211, 242.496323, 159.754532)"/>
  <circle cx="232.429" cy="95.712" r="2.917" style="fill: rgb(30, 30, 30);" transform="matrix(0.653204, -0.175025, 0.175026, 0.653206, 242.496613, 159.755112)"/>
  <circle cx="169.124" cy="121.933" r="1.792" style="fill: rgb(30, 30, 30);" transform="matrix(0.653202, -0.175025, 0.175026, 0.653205, 242.496826, 159.755249)"/>
  <circle cx="221.567" cy="121.934" r="1.792" style="fill: rgb(30, 30, 30);" transform="matrix(0.653225, -0.175031, 0.175026, 0.653205, 242.492172, 159.7565)"/>
  <circle cx="221.568" cy="69.49" r="1.792" style="fill: rgb(30, 30, 30);" transform="matrix(0.653202, -0.175025, 0.175029, 0.653216, 242.496887, 159.754242)"/>
  <path d="M 378.949 217.306 L 378.949 216.629 L 378.949 215.954 L 552.746 215.954 C 554.1 215.951 555.194 214.856 555.197 213.503 L 555.197 213.503 C 555.194 212.147 554.1 211.052 552.746 211.05 L 552.746 211.05 L 378.949 211.05 C 377.596 211.052 376.499 212.147 376.498 213.503 L 376.498 213.503 C 376.499 214.856 377.596 215.951 378.949 215.954 L 378.949 215.954 L 378.949 216.629 L 378.949 217.306 C 376.849 217.305 375.147 215.603 375.147 213.503 L 375.147 213.503 C 375.147 211.402 376.849 209.699 378.949 209.697 L 378.949 209.697 L 552.746 209.697 C 554.847 209.699 556.549 211.402 556.549 213.503 L 556.549 213.503 C 556.549 215.602 554.847 217.305 552.746 217.306 L 552.746 217.306 L 378.949 217.306 L 378.949 217.306 Z" style="fill: rgb(30, 30, 30);" transform="matrix(0.965926, -0.258819, 0.258819, 0.965926, -39.384832, 127.845017)"/>
</svg>