<?xml version="1.0" encoding="utf-8"?>
<svg version="1.2" baseProfile="tiny" id="Layer_3" x="0px" y="0px" viewBox="0 0 1280 720" preserveAspectRatio="none" xmlns="http://www.w3.org/2000/svg">
  <path d="M 826.214 576.172 L 824.107 575.807 L 825.214 573.977 C 844.542 542.152 865.487 477.312 866.418 437.298 L 866.418 437.298 C 866.548 431.891 866.605 426.533 866.605 421.288 L 866.605 421.288 C 866.624 387.455 864.04 358.069 861.607 350.052 L 861.607 350.052 C 860.165 345.234 858.664 341.811 855.825 339.57 L 855.825 339.57 C 852.992 337.319 848.493 335.987 840.595 335.99 L 840.595 335.99 L 444.392 335.99 C 436.493 335.987 431.99 337.319 429.162 339.57 L 429.162 339.57 C 426.322 341.811 424.822 345.234 423.38 350.052 L 423.38 350.052 C 420.946 358.071 418.359 387.46 418.378 421.288 L 418.378 421.288 C 418.378 426.53 418.435 431.885 418.568 437.298 L 418.568 437.298 C 419.5 477.312 440.446 542.15 459.773 573.977 L 459.773 573.977 L 460.881 575.807 L 458.769 576.172 C 455.419 576.754 450.58 577.029 445.008 577.029 L 445.008 577.029 C 431.065 577.014 412.731 575.316 402.955 571.718 L 402.955 571.718 L 402.329 571.486 L 402.097 570.862 C 387.563 532.1 362.486 474.23 362.492 392.535 L 362.492 392.535 C 362.492 375.776 363.546 358.015 365.959 339.212 L 365.959 339.212 C 380.034 228.661 437.793 173.234 526.544 161.571 L 526.544 161.571 L 526.928 164.467 C 439.3 176.19 383.045 229.905 368.861 339.584 L 368.861 339.584 C 366.461 358.264 365.417 375.896 365.417 392.535 L 365.417 392.535 C 365.421 473.198 389.988 530.346 404.598 569.201 L 404.598 569.201 C 413.814 572.416 431.659 574.12 445.008 574.105 L 445.008 574.105 C 449.332 574.108 453.204 573.93 456.147 573.592 L 456.147 573.592 C 436.827 540.536 416.647 477.454 415.644 437.367 L 415.644 437.367 C 415.513 431.928 415.454 426.552 415.453 421.285 L 415.453 421.285 C 415.472 387.208 417.948 358.066 420.577 349.211 L 420.577 349.211 C 422.061 344.285 423.726 340.153 427.342 337.275 L 427.342 337.275 C 430.97 334.413 436.215 333.064 444.392 333.064 L 444.392 333.064 L 840.595 333.064 C 848.771 333.064 854.017 334.413 857.64 337.275 L 857.64 337.275 C 861.26 340.153 862.926 344.282 864.407 349.211 L 864.407 349.211 C 867.032 358.065 869.512 387.204 869.53 421.285 L 869.53 421.285 C 869.528 426.555 869.468 431.931 869.338 437.367 L 869.338 437.367 C 868.34 477.454 848.158 540.536 828.84 573.592 L 828.84 573.592 C 831.777 573.93 835.652 574.108 839.976 574.105 L 839.976 574.105 C 853.324 574.12 871.168 572.416 880.389 569.201 L 880.389 569.201 C 894.994 530.345 919.563 473.198 919.569 392.535 L 919.569 392.535 C 919.567 375.899 918.522 358.266 916.128 339.584 L 916.128 339.584 C 901.94 229.905 845.688 176.189 758.058 164.467 L 758.058 164.467 L 758.061 164.467 L 758.443 161.571 C 847.192 173.234 904.952 228.661 919.026 339.212 L 919.026 339.212 C 921.438 358.019 922.492 375.776 922.492 392.535 L 922.492 392.535 C 922.498 474.227 897.422 532.099 882.888 570.862 L 882.888 570.862 L 882.652 571.489 L 882.028 571.718 C 872.252 575.316 853.917 577.014 839.974 577.032 L 839.974 577.032 C 834.401 577.029 829.565 576.754 826.214 576.172 L 826.214 576.172 Z" style="fill: rgb(30, 30, 30);" transform="matrix(0.965926, -0.258819, 0.258819, 0.965926, -73.689825, 178.872618)"/>
  <path d="M 484.443 193.631 C 477.18 193.628 471.288 187.741 471.288 180.475 L 471.288 180.475 L 471.288 174.383 C 471.295 170.483 473.777 166.986 478.04 164.041 L 478.04 164.041 C 482.33 161.074 488.546 158.491 496.701 156.313 L 496.701 156.313 C 513.008 151.969 537.098 149.294 568.733 149.291 L 568.733 149.291 L 610.226 149.291 C 657.704 149.329 688.092 155.228 700.92 164.04 L 700.92 164.04 C 705.183 166.984 707.665 170.478 707.673 174.383 L 707.673 174.383 L 707.673 180.472 C 707.671 187.74 701.785 193.626 694.517 193.631 L 694.517 193.631 L 694.517 192.169 L 694.517 190.707 C 700.168 190.697 704.74 186.123 704.749 180.475 L 704.749 180.475 L 704.749 174.383 C 704.758 171.828 703.127 169.142 699.253 166.444 L 699.253 166.444 C 695.405 163.771 689.455 161.252 681.501 159.139 L 681.501 159.139 C 665.59 154.892 641.691 152.212 610.226 152.214 L 610.226 152.214 L 568.731 152.214 C 521.563 152.173 491.29 158.335 479.703 166.444 L 479.703 166.444 C 475.832 169.142 474.203 171.828 474.207 174.383 L 474.207 174.383 L 474.207 180.475 C 474.219 186.123 478.789 190.697 484.439 190.707 L 484.439 190.707 L 694.514 190.707 L 694.514 192.169 L 694.514 193.631 L 484.443 193.631 L 484.443 193.631 Z" style="fill: rgb(30, 30, 30);" transform="matrix(0.965926, -0.258819, 0.258819, 0.965926, -24.291315, 158.411288)"/>
  <path d="M 669.765 213.859 L 525.71 213.859 C 518.796 213.862 514.443 212.734 511.492 211.346 L 511.492 211.346 C 508.561 209.97 506.996 208.324 506.079 207.805 L 506.079 207.805 C 503.352 206.15 496.053 199.771 494.051 198.029 L 494.051 198.029 C 492.311 196.477 489.822 195.148 488.527 191.719 L 488.527 191.719 L 491.268 190.693 C 492.167 193.106 493.818 193.968 495.974 195.828 L 495.974 195.828 C 497.87 197.498 505.433 204.031 507.583 205.296 L 507.583 205.296 C 509.098 206.239 510.216 207.521 512.733 208.699 L 512.733 208.699 C 515.231 209.87 519.102 210.936 525.709 210.937 L 525.709 210.937 L 669.765 210.937 C 676.373 210.936 680.244 209.87 682.739 208.699 L 682.739 208.699 C 685.263 207.521 686.375 206.239 687.893 205.296 L 687.893 205.296 C 690.04 204.032 697.601 197.498 699.497 195.828 L 699.497 195.828 C 701.656 193.968 703.303 193.106 704.207 190.693 L 704.207 190.693 L 704.21 190.693 L 706.943 191.716 C 705.652 195.148 703.163 196.477 701.424 198.029 L 701.424 198.029 C 699.418 199.768 692.12 206.149 689.397 207.805 L 689.397 207.805 C 688.477 208.324 686.91 209.97 683.983 211.346 L 683.983 211.346 C 681.031 212.734 676.689 213.861 669.791 213.859 L 669.791 213.859 C 669.786 213.859 669.776 213.859 669.765 213.859 L 669.765 213.859 Z" style="fill: rgb(30, 30, 30);" transform="matrix(0.965926, -0.258819, 0.258819, 0.965926, -31.985554, 161.597561)"/>
  <path d="M 651.936 234.125 L 553.926 234.125 C 537.283 234.139 528.383 224.305 517.239 211.071 L 517.239 211.071 L 519.472 209.185 C 530.747 222.512 538.657 231.187 553.926 231.201 L 553.926 231.201 L 651.937 231.201 C 667.208 231.187 675.117 222.512 686.388 209.185 L 686.388 209.185 L 686.392 209.188 L 688.623 211.071 C 677.491 224.296 668.596 234.125 651.975 234.125 L 651.975 234.125 C 651.965 234.125 651.95 234.125 651.936 234.125 L 651.936 234.125 Z" style="fill: rgb(30, 30, 30);" transform="matrix(0.965926, -0.258819, 0.258819, 0.965926, -36.824173, 163.602867)"/>
  <path d="M 545.993 231.72 L 548.041 229.635 C 554.804 236.262 569.717 247.353 596.956 247.367 L 596.956 247.367 L 618.716 247.365 C 645.958 247.353 660.868 236.262 667.635 229.635 L 667.635 229.635 L 667.637 229.635 L 669.685 231.72 C 662.562 238.74 646.778 250.302 618.716 250.288 L 618.716 250.288 L 596.956 250.29 C 568.894 250.303 553.112 238.74 545.993 231.72 L 545.993 231.72 Z" style="fill: rgb(30, 30, 30);" transform="matrix(0.965926, -0.258819, 0.258819, 0.965926, -41.395251, 165.496806)"/>
  <path d="M 403.781 330.698 C 395.193 330.69 385.068 328.694 376.975 322.527 L 376.975 322.527 C 368.871 316.366 363.011 305.966 363.034 289.881 L 363.034 289.881 C 363.034 283.647 363.897 276.552 365.819 268.479 L 365.819 268.479 L 368.662 269.155 C 366.781 277.047 365.955 283.917 365.955 289.881 L 365.955 289.881 C 365.98 305.286 371.392 314.562 378.749 320.203 L 378.749 320.203 C 386.115 325.84 395.63 327.779 403.781 327.774 L 403.781 327.774 L 843.51 327.774 C 851.658 327.779 861.173 325.84 868.54 320.203 L 868.54 320.203 C 875.891 314.562 881.304 305.281 881.33 289.881 L 881.33 289.881 C 881.33 283.917 880.504 277.047 878.629 269.155 L 878.629 269.155 L 878.631 269.155 L 881.475 268.479 C 883.39 276.552 884.251 283.647 884.255 289.881 L 884.255 289.881 C 884.28 305.966 878.419 316.366 870.313 322.527 L 870.313 322.527 C 862.217 328.695 852.092 330.69 843.509 330.698 L 843.509 330.698 L 403.781 330.698 L 403.781 330.698 Z" style="fill: rgb(30, 30, 30);" transform="matrix(0.965926, -0.258819, 0.258819, 0.965926, -56.289035, 171.619286)"/>
  <path d="M 794.251 571.833 L 792.788 571.833 L 792.788 372.557 C 792.779 366.905 788.204 362.333 782.556 362.321 L 782.556 362.321 L 554.041 362.32 C 548.393 362.332 543.824 366.904 543.809 372.556 L 543.809 372.556 L 543.809 571.836 L 542.347 571.836 C 522.332 571.833 484.386 571.833 484.329 571.833 L 484.329 571.833 L 484.329 568.909 C 484.386 568.909 520.547 568.909 540.887 568.909 L 540.887 568.909 L 540.887 372.556 C 540.887 365.287 546.775 359.399 554.041 359.399 L 554.041 359.399 L 782.556 359.4 C 789.822 359.4 795.711 365.287 795.713 372.557 L 795.713 372.557 L 795.713 568.909 C 819.011 568.909 852.192 568.91 852.192 568.91 L 852.192 568.91 L 852.192 571.837 C 852.192 571.834 817.599 571.833 794.251 571.833 L 794.251 571.833 Z M 484.329 571.833 L 484.329 571.836 L 484.329 571.833 L 484.329 571.833 Z" style="fill: rgb(30, 30, 30);" transform="matrix(0.965926, -0.258819, 0.258819, 0.965926, -97.740433, 188.824233)"/>
  <polygon points="567.981 562.914 567.981 559.992 819.395 559.992 819.395 562.914 567.981 562.914" style="fill: rgb(30, 30, 30);" transform="matrix(0.965926, -0.258819, 0.258819, 0.965926, -121.677948, 198.670866)"/>
  <g transform="matrix(1.411903, -0.378318, 0.378318, 1.411903, 154.486618, 233.597473)">
    <path d="M240.763,200.961v-0.999v-1.002h19.167c3.083-0.004,5.576-2.499,5.583-5.582l0,0&#10;&#9;&#9;c-0.006-3.084-2.5-5.579-5.583-5.583l0,0h-19.167c-3.085,0.004-5.579,2.499-5.584,5.583l0,0c0.006,3.083,2.501,5.578,5.584,5.582&#10;&#9;&#9;l0,0v1.002V200.961c-4.19,0-7.583-3.397-7.585-7.583l0,0c0.002-4.188,3.396-7.583,7.585-7.583l0,0h19.167&#10;&#9;&#9;c4.188,0,7.581,3.395,7.583,7.583l0,0c-0.002,4.186-3.395,7.583-7.583,7.583l0,0H240.763L240.763,200.961z" style="fill: rgb(30, 30, 30);"/>
    <path d="M288.845,200.961v-0.999v-1.002l19.167,0.002c3.083-0.006,5.578-2.501,5.582-5.584l0,0&#10;&#9;&#9;c-0.004-3.084-2.499-5.579-5.582-5.583l0,0h-19.167c-3.083,0.004-5.579,2.499-5.583,5.583l0,0c0.004,3.083,2.5,5.578,5.583,5.582&#10;&#9;&#9;l0,0v1.002V200.961c-4.188,0-7.583-3.397-7.583-7.583l0,0c0-4.188,3.395-7.583,7.583-7.583l0,0h19.167&#10;&#9;&#9;c4.188,0,7.583,3.395,7.583,7.583l0,0c0,4.186-3.395,7.583-7.583,7.583l0,0H288.845L288.845,200.961z" style="fill: rgb(30, 30, 30);"/>
    <path d="M336.927,200.962v-1.001v-1.001l19.168,0.002c3.083-0.006,5.578-2.5,5.584-5.584l0,0&#10;&#9;&#9;c-0.006-3.085-2.499-5.579-5.584-5.584l0,0h-19.168c-3.081,0.005-5.576,2.499-5.582,5.584l0,0c0.006,3.084,2.501,5.578,5.582,5.582&#10;&#9;&#9;l0,0v1.001V200.962c-4.188-0.002-7.582-3.396-7.582-7.584l0,0c0-4.189,3.395-7.583,7.582-7.585l0,0l19.168,0.002&#10;&#9;&#9;c4.189,0,7.583,3.394,7.583,7.583l0,0c0,4.188-3.394,7.582-7.583,7.584l0,0H336.927L336.927,200.962z" style="fill: rgb(30, 30, 30);"/>
  </g>
  <g transform="matrix(1.411903, -0.378318, 0.378318, 1.411903, 154.486618, 233.597473)">
    <path d="M240.762,232.518v-1.002v-0.999h19.168c3.083-0.005,5.577-2.501,5.582-5.584l0,0&#10;&#9;&#9;c-0.004-3.084-2.499-5.577-5.582-5.583l0,0h-19.168c-3.083,0.006-5.577,2.499-5.583,5.583l0,0c0.006,3.083,2.5,5.579,5.583,5.584&#10;&#9;&#9;l0,0v0.999V232.518c-4.188-0.002-7.583-3.396-7.583-7.585l0,0c0-4.188,3.395-7.583,7.583-7.583l0,0h19.168&#10;&#9;&#9;c4.188,0,7.582,3.396,7.583,7.583l0,0c-0.002,4.188-3.395,7.583-7.583,7.585l0,0H240.762L240.762,232.518z" style="fill: rgb(30, 30, 30);"/>
    <path d="M288.844,232.518v-1.002v-0.999h19.167c3.083-0.005,5.577-2.501,5.582-5.584l0,0&#10;&#9;&#9;c-0.005-3.084-2.499-5.577-5.582-5.583l0,0h-19.167c-3.083,0.006-5.577,2.499-5.583,5.583l0,0c0.006,3.083,2.5,5.579,5.583,5.584&#10;&#9;&#9;l0,0v0.999V232.518c-4.188-0.002-7.581-3.396-7.583-7.585l0,0c0.002-4.188,3.395-7.583,7.583-7.583l0,0h19.167&#10;&#9;&#9;c4.188,0,7.584,3.396,7.584,7.583l0,0c0,4.188-3.396,7.583-7.584,7.585l0,0H288.844L288.844,232.518z" style="fill: rgb(30, 30, 30);"/>
    <path d="M336.927,232.517v-0.999v-1.001h19.168c3.083-0.006,5.578-2.501,5.584-5.584l0,0&#10;&#9;&#9;c-0.006-3.083-2.499-5.577-5.584-5.582l0,0h-19.168c-3.081,0.005-5.576,2.499-5.582,5.582l0,0c0.006,3.083,2.501,5.578,5.582,5.584&#10;&#9;&#9;l0,0v1.001V232.517c-4.188,0-7.582-3.396-7.582-7.584l0,0c0-4.188,3.395-7.583,7.582-7.583l0,0h19.168&#10;&#9;&#9;c4.189,0,7.583,3.396,7.583,7.583l0,0c0,4.188-3.394,7.584-7.583,7.584l0,0H336.927L336.927,232.517z" style="fill: rgb(30, 30, 30);"/>
  </g>
  <g transform="matrix(1.411903, -0.378318, 0.378318, 1.411903, 154.486618, 233.597473)">
    <path d="M240.762,264.073v-1.001v-1h19.167c3.084-0.006,5.578-2.5,5.584-5.584l0,0&#10;&#9;&#9;c-0.006-3.084-2.5-5.577-5.584-5.582l0,0h-19.167c-3.084,0.005-5.578,2.498-5.583,5.582l0,0c0.006,3.084,2.5,5.578,5.583,5.584l0,0&#10;&#9;&#9;v1V264.073c-4.189-0.002-7.583-3.397-7.583-7.585l0,0c0-4.188,3.394-7.583,7.583-7.583l0,0h19.167c4.189,0,7.583,3.396,7.583,7.583&#10;&#9;&#9;l0,0c0,4.188-3.394,7.583-7.583,7.585l0,0H240.762L240.762,264.073z" style="fill: rgb(30, 30, 30);"/>
    <path d="M288.846,264.073v-1.001v-1h19.166c3.082-0.006,5.578-2.5,5.582-5.584l0,0&#10;&#9;&#9;c-0.004-3.084-2.498-5.577-5.582-5.582l0,0h-19.166c-3.084,0.005-5.578,2.498-5.583,5.582l0,0c0.006,3.084,2.5,5.578,5.583,5.584&#10;&#9;&#9;l0,0v1V264.073c-4.189-0.002-7.583-3.397-7.585-7.585l0,0c0.002-4.188,3.396-7.583,7.585-7.583l0,0h19.166&#10;&#9;&#9;c4.188,0,7.583,3.396,7.583,7.583l0,0c0,4.188-3.394,7.583-7.583,7.585l0,0H288.846L288.846,264.073z" style="fill: rgb(30, 30, 30);"/>
    <path d="M336.927,264.073v-1.001v-1h19.169c3.082-0.006,5.577-2.5,5.582-5.584l0,0&#10;&#9;&#9;c-0.005-3.084-2.498-5.577-5.582-5.582l0,0h-19.169c-3.082,0.005-5.577,2.498-5.581,5.582l0,0c0.004,3.084,2.499,5.578,5.581,5.584&#10;&#9;&#9;l0,0v1V264.073c-4.188-0.002-7.581-3.397-7.583-7.585l0,0c0.002-4.188,3.396-7.583,7.583-7.583l0,0h19.169&#10;&#9;&#9;c4.188,0,7.583,3.396,7.583,7.583l0,0c0,4.188-3.394,7.583-7.583,7.585l0,0H336.927L336.927,264.073z" style="fill: rgb(30, 30, 30);"/>
  </g>
  <g transform="matrix(1.411903, -0.378318, 0.378318, 1.411903, 154.486618, 233.597473)">
    <path d="M240.762,295.628v-1.001v-1.001h19.167c3.083-0.005,5.578-2.499,5.583-5.582l0,0&#10;&#9;&#9;c-0.004-3.084-2.499-5.578-5.583-5.583l0,0h-19.167c-3.083,0.005-5.578,2.499-5.584,5.583l0,0c0.006,3.083,2.501,5.577,5.584,5.582&#10;&#9;&#9;l0,0v1.001V295.628c-4.188-0.002-7.583-3.397-7.584-7.584l0,0c0.002-4.189,3.396-7.583,7.584-7.585l0,0h19.167&#10;&#9;&#9;c4.189,0.002,7.583,3.396,7.583,7.585l0,0c0,4.187-3.394,7.582-7.583,7.584l0,0H240.762L240.762,295.628z" style="fill: rgb(30, 30, 30);"/>
    <path d="M288.846,295.628v-1.001v-1.001l19.166,0.002c3.083-0.007,5.578-2.501,5.582-5.584l0,0&#10;&#9;&#9;c-0.004-3.084-2.499-5.578-5.582-5.583l0,0h-19.166c-3.083,0.005-5.578,2.499-5.584,5.583l0,0c0.006,3.083,2.501,5.577,5.584,5.582&#10;&#9;&#9;l0,0v1.001V295.628c-4.189-0.002-7.583-3.397-7.585-7.584l0,0c0.002-4.189,3.396-7.583,7.585-7.585l0,0l19.166,0.002&#10;&#9;&#9;c4.188,0,7.583,3.394,7.583,7.583l0,0c0,4.187-3.395,7.582-7.583,7.584l0,0H288.846L288.846,295.628z" style="fill: rgb(30, 30, 30);"/>
    <path d="M336.927,295.628v-1.001v-1.001l19.168,0.002c3.083-0.007,5.578-2.501,5.583-5.584l0,0&#10;&#9;&#9;c-0.005-3.084-2.5-5.578-5.583-5.583l0,0h-19.168c-3.081,0.005-5.576,2.499-5.583,5.583l0,0c0.007,3.083,2.502,5.577,5.583,5.582&#10;&#9;&#9;l0,0v1.001V295.628c-4.187-0.002-7.581-3.397-7.583-7.584l0,0c0.002-4.189,3.396-7.583,7.583-7.585l0,0l19.168,0.002&#10;&#9;&#9;c4.189,0,7.583,3.394,7.585,7.583l0,0c-0.002,4.187-3.396,7.582-7.585,7.584l0,0H336.927L336.927,295.628z" style="fill: rgb(30, 30, 30);"/>
  </g>
  <path d="M 572.406 314.342 C 570.121 312.301 568.949 309.458 568.953 306.618 L 568.953 306.618 C 568.949 304.167 569.823 301.689 571.584 299.72 L 571.584 299.72 L 590.904 278.103 C 592.944 275.82 595.786 274.648 598.624 274.648 L 598.624 274.648 C 601.076 274.648 603.549 275.519 605.521 277.282 L 605.521 277.282 C 607.807 279.324 608.978 282.167 608.976 285.005 L 608.976 285.005 C 608.976 287.458 608.104 289.928 606.344 291.9 L 606.344 291.9 L 587.029 313.518 L 585.94 312.545 L 587.029 313.52 C 584.984 315.805 582.142 316.972 579.302 316.972 L 579.302 316.972 C 576.851 316.973 574.376 316.105 572.406 314.342 L 572.406 314.342 Z M 593.082 280.053 L 573.764 301.672 C 572.495 303.094 571.877 304.852 571.877 306.618 L 571.877 306.618 C 571.877 308.665 572.71 310.689 574.354 312.161 L 574.354 312.161 C 575.773 313.428 577.536 314.047 579.302 314.05 L 579.302 314.05 C 581.348 314.047 583.374 313.215 584.846 311.572 L 584.846 311.572 L 584.845 311.571 L 604.163 289.953 C 605.43 288.531 606.053 286.771 606.053 285.007 L 606.053 285.007 C 606.048 282.958 605.217 280.936 603.572 279.464 L 603.572 279.464 C 602.15 278.191 600.39 277.577 598.626 277.573 L 598.626 277.573 C 596.578 277.577 594.552 278.409 593.082 280.053 L 593.082 280.053 Z" style="fill: rgb(30, 30, 30);" transform="matrix(0.965926, -0.258819, 0.258819, 0.965926, -56.492778, 162.514676)"/>
  <path d="M 620.248 306.001 C 617.795 306.005 615.322 305.129 613.351 303.371 L 613.351 303.371 C 611.067 301.33 609.894 298.486 609.896 295.644 L 609.896 295.644 C 609.894 293.196 610.768 290.72 612.528 288.749 L 612.528 288.749 L 631.846 267.135 C 633.887 264.849 636.73 263.677 639.57 263.677 L 639.57 263.677 C 642.017 263.677 644.487 264.548 646.463 266.311 L 646.463 266.311 C 648.75 268.353 649.922 271.194 649.917 274.034 L 649.917 274.034 C 649.917 276.487 649.048 278.957 647.286 280.929 L 647.286 280.929 L 627.971 302.548 C 625.928 304.833 623.094 305.999 620.255 305.999 L 620.255 305.999 C 620.255 306.001 620.252 306.001 620.248 306.001 L 620.248 306.001 Z M 634.027 269.082 L 614.712 290.699 C 613.44 292.123 612.824 293.881 612.819 295.644 L 612.819 295.644 C 612.824 297.692 613.657 299.717 615.301 301.19 L 615.301 301.19 C 616.722 302.459 618.48 303.079 620.248 303.079 L 620.248 303.079 C 622.295 303.076 624.321 302.244 625.795 300.6 L 625.795 300.6 L 645.108 278.984 C 646.376 277.559 646.997 275.8 647 274.034 L 647 274.034 C 646.997 271.987 646.167 269.962 644.522 268.492 L 644.522 268.492 C 643.094 267.22 641.336 266.603 639.571 266.6 L 639.571 266.6 C 637.522 266.606 635.498 267.438 634.027 269.082 L 634.027 269.082 Z" style="fill: rgb(30, 30, 30);" transform="matrix(0.965926, -0.258819, 0.258819, 0.965926, -52.258207, 172.737426)"/>
  <path d="M 401.821 294.829 C 401.824 259.108 430.784 230.149 466.505 230.149 L 466.505 230.149 C 502.226 230.149 531.186 259.108 531.186 294.829 L 531.186 294.829 C 531.186 330.551 502.226 359.51 466.505 359.513 L 466.505 359.513 C 430.784 359.51 401.827 330.551 401.821 294.829 L 401.821 294.829 Z M 422.836 251.161 C 411.657 262.34 404.748 277.771 404.748 294.829 L 404.748 294.829 C 404.748 311.886 411.657 327.316 422.836 338.498 L 422.836 338.498 C 434.015 349.674 449.447 356.584 466.505 356.584 L 466.505 356.584 C 483.562 356.584 498.993 349.674 510.173 338.498 L 510.173 338.498 C 521.35 327.316 528.261 311.886 528.261 294.829 L 528.261 294.829 C 528.261 277.77 521.35 262.34 510.173 251.161 L 510.173 251.161 C 498.993 239.982 483.562 233.072 466.505 233.072 L 466.505 233.072 C 449.447 233.072 434.018 239.982 422.836 251.161 L 422.836 251.161 Z" style="fill: rgb(30, 30, 30);" transform="matrix(0.965926, -0.258819, 0.258819, 0.965926, -60.41215, 130.786088)"/>
  <path d="M 419.607 294.828 C 419.607 268.928 440.605 247.935 466.505 247.934 L 466.505 247.934 C 492.403 247.935 513.401 268.93 513.401 294.828 L 513.401 294.828 C 513.401 320.731 492.403 341.724 466.505 341.724 L 466.505 341.724 C 440.605 341.724 419.607 320.731 419.607 294.828 L 419.607 294.828 Z M 422.531 294.828 C 422.573 319.115 442.219 338.759 466.505 338.803 L 466.505 338.803 C 490.79 338.757 510.435 319.115 510.477 294.828 L 510.477 294.828 C 510.435 270.542 490.791 250.898 466.505 250.857 L 466.505 250.857 C 442.219 250.898 422.576 270.542 422.531 294.828 L 422.531 294.828 Z" style="fill: rgb(30, 30, 30);" transform="matrix(0.965926, -0.258819, 0.258819, 0.965926, -60.411657, 130.786281)"/>
  <path d="M 686.094 298.202 L 686.094 298.2 L 686.094 296.74 L 686.094 295.277 L 728.604 295.277 C 731.352 295.277 733.773 293.926 735.245 291.862 L 735.245 291.862 L 747.539 274.173 C 748.578 272.831 749.19 271.159 749.19 269.333 L 749.19 269.333 C 749.19 266.224 747.401 263.536 744.755 262.217 L 744.755 262.217 L 717.026 247.489 C 715.362 246.58 713.461 246.064 711.43 246.064 L 711.43 246.064 C 707.459 246.064 703.961 248.039 701.821 251.092 L 701.821 251.092 L 679.547 281.288 C 678.308 282.772 677.568 284.668 677.568 286.751 L 677.568 286.751 C 677.574 291.459 681.383 295.27 686.094 295.275 L 686.094 295.275 L 686.094 296.739 L 686.094 298.199 C 679.771 298.199 674.643 293.073 674.643 286.751 L 674.643 286.751 C 674.643 283.963 675.646 281.392 677.25 279.48 L 677.25 279.48 L 699.446 249.385 C 702.087 245.612 706.472 243.141 711.43 243.141 L 711.43 243.141 C 713.956 243.141 716.349 243.785 718.411 244.912 L 718.411 244.912 L 746.092 259.617 C 749.659 261.389 752.113 265.078 752.115 269.333 L 752.115 269.333 C 752.115 271.825 751.268 274.132 749.894 275.902 L 749.894 275.902 L 737.635 293.545 C 735.631 296.358 732.326 298.2 728.604 298.2 L 728.604 298.2 L 686.094 298.2 L 686.094 298.202 Z" style="fill: rgb(30, 30, 30);" transform="matrix(0.965926, -0.258819, 0.258819, 0.965926, -45.74714, 193.858952)"/>
  <path d="M 694.887 271.706 C 694.887 260.503 703.969 251.426 715.17 251.424 L 715.17 251.424 C 726.368 251.426 735.449 260.503 735.451 271.706 L 735.451 271.706 C 735.449 282.905 726.368 291.987 715.17 291.99 L 715.17 291.99 C 703.969 291.987 694.887 282.905 694.887 271.706 L 694.887 271.706 Z M 697.81 271.706 C 697.829 281.292 705.584 289.047 715.17 289.063 L 715.17 289.063 C 724.754 289.044 732.51 281.29 732.526 271.706 L 732.526 271.706 C 732.51 262.117 724.754 254.367 715.17 254.348 L 715.17 254.348 C 705.584 254.367 697.828 262.117 697.81 271.706 L 697.81 271.706 Z" style="fill: rgb(30, 30, 30);" transform="matrix(0.965926, -0.258819, 0.258819, 0.965926, -45.954154, 194.357514)"/>
  <path d="M 719.387 221.129 C 719.388 209.927 728.47 200.851 739.669 200.848 L 739.669 200.848 C 750.869 200.852 759.949 209.928 759.951 221.129 L 759.951 221.129 C 759.949 232.33 750.869 241.41 739.669 241.41 L 739.669 241.41 C 728.47 241.41 719.388 232.332 719.387 221.129 L 719.387 221.129 Z M 722.312 221.129 C 722.328 230.718 730.08 238.472 739.669 238.487 L 739.669 238.487 C 749.255 238.472 757.008 230.718 757.026 221.129 L 757.026 221.129 C 757.008 211.545 749.255 203.79 739.669 203.771 L 739.669 203.771 C 730.083 203.79 722.328 211.545 722.312 221.129 L 722.312 221.129 Z" style="fill: rgb(30, 30, 30);" transform="matrix(0.965926, -0.258819, 0.258819, 0.965926, -32.028784, 198.975178)"/>
  <path d="M 747.6 174.609 C 747.6 163.408 756.681 154.328 767.881 154.328 L 767.881 154.328 C 779.082 154.328 788.162 163.407 788.164 174.609 L 788.164 174.609 C 788.162 185.81 779.082 194.89 767.881 194.89 L 767.881 194.89 C 756.681 194.889 747.6 185.81 747.6 174.609 L 747.6 174.609 Z M 750.525 174.609 C 750.541 184.196 758.295 191.949 767.881 191.967 L 767.881 191.967 C 777.467 191.949 785.22 184.196 785.239 174.609 L 785.239 174.609 C 785.22 165.023 777.467 157.269 767.881 157.251 L 767.881 157.251 C 758.295 157.269 750.541 165.023 750.525 174.609 L 750.525 174.609 Z" style="fill: rgb(30, 30, 30);" transform="matrix(0.965926, -0.258819, 0.258819, 0.965926, -19.027189, 204.692274)"/>
  <path d="M 738.695 246.456 L 710.047 230.889 C 707.161 229.172 705.228 226.016 705.228 222.411 L 705.228 222.411 C 705.228 219.691 706.333 217.216 708.083 215.468 L 708.083 215.468 L 723.855 198.623 C 726.452 195.836 730.169 194.091 734.28 194.091 L 734.28 194.091 C 737.182 194.091 739.9 194.962 742.154 196.461 L 742.154 196.461 L 768.921 210.212 L 768.251 211.513 L 768.921 210.212 L 768.988 210.248 L 769.043 210.285 C 772.092 212.246 774.113 215.68 774.113 219.577 L 774.113 219.577 C 774.113 223.05 772.506 226.156 770.001 228.178 L 770.001 228.178 L 755.422 243.452 C 752.982 246.338 749.321 248.174 745.244 248.174 L 745.244 248.174 C 742.86 248.171 740.61 247.544 738.695 246.456 L 738.695 246.456 Z M 725.99 200.62 L 710.185 217.5 C 708.929 218.761 708.153 220.488 708.153 222.411 L 708.153 222.411 C 708.148 224.947 709.511 227.163 711.494 228.349 L 711.494 228.349 L 740.113 243.903 C 741.628 244.761 743.371 245.247 745.244 245.252 L 745.244 245.252 C 748.435 245.247 751.276 243.821 753.253 241.497 L 753.253 241.497 L 768.03 226.01 L 768.106 225.95 C 769.986 224.459 771.188 222.163 771.188 219.577 L 771.188 219.577 C 771.189 216.735 769.733 214.24 767.523 212.781 L 767.523 212.781 L 740.669 198.983 L 740.6 198.938 C 738.793 197.721 736.626 197.015 734.281 197.015 L 734.281 197.015 C 731.005 197.015 728.069 198.397 725.99 200.62 L 725.99 200.62 Z" style="fill: rgb(30, 30, 30);" transform="matrix(0.965926, -0.258819, 0.258819, 0.965926, -32.029644, 198.975698)"/>
  <path d="M 771.911 201.921 C 769.532 201.785 767.322 201.032 765.471 199.838 L 765.471 199.838 L 737.748 182.676 C 735.11 180.897 733.394 177.878 733.394 174.503 L 733.394 174.503 C 733.394 174.324 733.397 174.125 733.414 173.941 L 733.414 173.941 C 733.566 171.225 734.813 168.814 736.658 167.17 L 736.658 167.17 L 753.351 151.24 C 755.92 148.782 759.407 147.279 763.198 147.279 L 763.198 147.279 C 763.466 147.279 763.743 147.285 764.017 147.304 L 764.017 147.304 C 766.909 147.466 769.563 148.485 771.726 150.102 L 771.726 150.102 L 797.692 165.355 L 796.951 166.615 L 797.692 165.355 L 797.762 165.394 L 797.814 165.431 C 800.584 167.451 802.36 170.726 802.36 174.369 L 802.36 174.369 C 802.36 174.579 802.359 174.78 802.349 174.999 L 802.349 174.999 C 802.151 178.465 800.372 181.479 797.754 183.355 L 797.754 183.355 L 782.339 197.777 C 779.903 200.346 776.452 201.937 772.676 201.937 L 772.676 201.937 C 772.422 201.94 772.167 201.932 771.911 201.921 L 771.911 201.921 Z M 755.371 153.352 L 738.639 169.317 C 737.31 170.506 736.443 172.188 736.328 174.141 L 736.328 174.141 C 736.323 174.237 736.317 174.359 736.317 174.503 L 736.317 174.503 C 736.317 176.871 737.523 178.997 739.331 180.223 L 739.331 180.223 L 767.029 197.366 C 768.497 198.307 770.21 198.893 772.066 198.997 L 772.066 198.997 C 772.27 199.01 772.471 199.016 772.673 199.016 L 772.673 199.016 C 775.623 199.016 778.311 197.778 780.283 195.705 L 780.283 195.705 L 795.904 181.081 L 795.989 181.023 C 797.952 179.637 799.283 177.418 799.425 174.857 L 799.425 174.857 C 799.437 174.68 799.438 174.519 799.438 174.369 L 799.438 174.369 C 799.438 171.703 798.146 169.31 796.119 167.822 L 796.119 167.822 L 770.127 152.553 L 770.054 152.5 C 768.316 151.183 766.195 150.354 763.838 150.22 L 763.838 150.22 C 763.631 150.208 763.419 150.201 763.198 150.201 L 763.198 150.201 C 760.184 150.201 757.422 151.394 755.371 153.352 L 755.371 153.352 Z" style="fill: rgb(30, 30, 30);" transform="matrix(0.965926, -0.258819, 0.258819, 0.965926, -19.027186, 204.690891)"/>
  <path d="M 452.439 335.215 L 452.363 335.189 L 452.294 335.158 C 450.882 334.622 449.681 332.852 449.816 330.396 L 449.816 330.396 L 449.816 312.384 C 449.736 311.837 449.656 311.547 448.964 311.514 L 448.964 311.514 L 430.936 311.514 C 429.619 311.502 428.683 311.455 427.751 310.961 L 427.751 310.961 C 426.795 310.441 426.36 309.535 426.07 308.748 L 426.07 308.748 C 424.564 304.382 423.747 299.696 423.753 294.828 L 423.753 294.828 C 423.75 289.936 424.573 285.229 426.106 280.8 L 426.106 280.8 C 426.284 280.328 426.624 279.456 427.514 278.883 L 427.514 278.883 C 428.394 278.326 429.44 278.146 430.936 278.14 L 430.936 278.14 L 448.918 278.14 C 449.346 278.144 449.635 278.111 449.795 278.083 L 449.795 278.083 C 449.808 277.96 449.816 277.769 449.816 277.531 L 449.816 277.531 L 449.816 259.259 C 449.767 255.649 452.785 254.319 453.243 254.175 L 453.243 254.175 L 453.31 254.149 L 453.379 254.124 C 457.514 252.793 461.928 252.073 466.503 252.073 L 466.503 252.073 C 471.571 252.073 476.436 252.956 480.949 254.576 L 480.949 254.576 L 481.034 254.608 L 481.115 254.65 C 481.761 254.947 482.579 255.53 482.899 256.45 L 482.899 256.45 C 483.2 257.32 483.18 258.081 483.192 259.259 L 483.192 259.259 L 483.192 277.576 C 483.189 277.814 483.208 277.984 483.227 278.086 L 483.227 278.086 C 483.238 278.089 483.252 278.09 483.265 278.095 L 483.265 278.095 C 483.431 278.124 483.734 278.142 484.136 278.142 L 484.136 278.142 L 502.073 278.142 C 503.309 278.152 504.106 278.174 504.897 278.419 L 504.897 278.419 C 505.712 278.63 506.434 279.438 506.652 280.093 L 506.652 280.093 C 508.338 284.689 509.26 289.654 509.26 294.83 L 509.26 294.83 C 509.26 299.813 508.406 304.603 506.809 309.12 L 506.809 309.12 C 506.56 309.777 506.081 310.681 505.119 311.109 L 505.119 311.109 C 504.205 311.501 503.363 311.501 502.073 311.515 L 502.073 311.515 L 484.091 311.515 C 483.79 311.509 483.448 311.6 483.341 311.676 L 483.341 311.676 C 483.252 311.778 483.227 311.672 483.192 312.109 L 483.192 312.109 L 483.192 330.396 C 483.183 331.338 483.183 332.162 482.82 333.051 L 482.82 333.051 C 482.454 333.953 481.696 334.629 480.821 335.101 L 480.821 335.101 L 480.71 335.166 L 480.587 335.208 C 476.174 336.747 471.434 337.583 466.5 337.583 L 466.5 337.583 C 461.579 337.583 456.843 336.752 452.439 335.215 L 452.439 335.215 Z M 466.505 334.66 C 471.054 334.66 475.42 333.898 479.488 332.495 L 479.488 332.495 C 480.004 332.185 480.059 332.061 480.125 331.919 L 480.125 331.919 C 480.207 331.759 480.277 331.283 480.268 330.396 L 480.268 330.396 L 480.268 312.109 C 480.235 310.858 480.911 309.723 481.761 309.219 L 481.761 309.219 C 482.597 308.691 483.431 308.599 484.094 308.595 L 484.094 308.595 L 502.074 308.59 C 502.749 308.595 503.236 308.573 503.534 308.532 L 503.534 308.532 C 503.767 308.501 503.857 308.471 503.888 308.459 L 503.888 308.459 L 503.888 308.459 C 503.914 308.431 503.999 308.283 504.078 308.079 L 504.078 308.079 C 505.539 303.935 506.336 299.478 506.336 294.83 L 506.336 294.83 C 506.336 290.009 505.479 285.392 503.938 281.182 L 503.938 281.182 C 503.732 281.125 503.108 281.056 502.074 281.064 L 502.074 281.064 L 484.137 281.064 C 483.222 281.04 482.361 281.078 481.414 280.434 L 481.414 280.434 C 480.455 279.709 480.261 278.586 480.27 277.576 L 480.27 277.576 L 480.27 259.259 C 480.29 258.107 480.208 257.577 480.17 257.476 L 480.17 257.476 L 480.17 257.476 C 480.156 257.461 480.067 257.394 479.877 257.293 L 479.877 257.293 C 475.698 255.805 471.2 254.997 466.508 254.997 L 466.508 254.997 C 462.275 254.997 458.207 255.655 454.384 256.877 L 454.384 256.877 C 453.838 257.165 452.79 257.425 452.741 259.259 L 452.741 259.259 L 452.741 277.531 C 452.721 278.302 452.778 279.239 451.952 280.153 L 451.952 280.153 C 451.069 280.989 450.08 281.045 448.922 281.064 L 448.922 281.064 L 430.94 281.064 C 429.695 281.056 429.193 281.265 429.116 281.33 L 429.116 281.33 C 429.049 281.381 429.025 281.372 428.853 281.806 L 428.853 281.806 C 427.442 285.884 426.676 290.264 426.676 294.83 L 426.676 294.83 C 426.676 299.373 427.438 303.733 428.816 307.751 L 428.816 307.751 C 429.078 308.398 429.138 308.387 429.165 308.403 L 429.165 308.403 C 429.22 308.459 429.756 308.608 430.94 308.592 L 430.94 308.592 L 448.967 308.596 C 450.118 308.58 451.167 309.08 451.807 309.831 L 451.807 309.831 C 452.455 310.58 452.74 311.495 452.741 312.385 L 452.741 312.385 L 452.741 330.398 C 452.877 332.412 452.991 332.136 453.513 332.494 L 453.513 332.494 C 457.586 333.898 461.95 334.66 466.505 334.66 L 466.505 334.66 Z" style="fill: rgb(30, 30, 30);" transform="matrix(0.965926, -0.258819, 0.258819, 0.965926, -60.411273, 130.786761)"/>
  <g transform="matrix(1.411903, -0.378318, 0.378318, 1.411903, 154.486618, 233.597473)">
    <path d="M204.761,118.598c0.002-7.433,6.027-13.458,13.46-13.458l0,0v1.999c-6.329,0.012-11.447,5.131-11.46,11.459&#10;&#9;&#9;l0,0H204.761L204.761,118.598z" style="fill: rgb(30, 30, 30);"/>
    <path d="M183.969,118.598c-0.01-6.329-5.128-11.447-11.458-11.458l0,0v-2.002&#10;&#9;&#9;c7.434,0.002,13.458,6.027,13.458,13.46l0,0H183.969L183.969,118.598z" style="fill: rgb(30, 30, 30);"/>
  </g>
  <g transform="matrix(1.411903, -0.378318, 0.378318, 1.411903, 154.486618, 233.597473)">
    <path d="M204.761,72.826h0.002h1.999c0.012,6.329,5.13,11.446,11.46,11.458l0,0v2.001&#10;&#9;&#9;C210.788,86.283,204.763,80.26,204.761,72.826L204.761,72.826z" style="fill: rgb(30, 30, 30);"/>
    <path d="M172.511,84.285c6.329-0.012,11.447-5.13,11.459-11.458l0,0h1.999c0,7.433-6.025,13.458-13.458,13.459l0,0&#10;&#9;&#9;V84.285L172.511,84.285z" style="fill: rgb(30, 30, 30);"/>
  </g>
  <circle cx="195.346" cy="58.628" r="2.917" style="fill: rgb(30, 30, 30);" transform="matrix(1.411896, -0.378316, 0.378319, 1.411907, 154.487961, 233.596863)"/>
  <circle cx="169.124" cy="69.489" r="1.792" style="fill: rgb(30, 30, 30);" transform="matrix(1.411891, -0.378315, 0.378317, 1.411898, 154.488754, 233.597336)"/>
  <circle cx="158.262" cy="95.711" r="2.917" style="fill: rgb(30, 30, 30);" transform="matrix(1.411896, -0.378316, 0.378317, 1.411899, 154.487885, 233.597473)"/>
  <circle cx="195.345" cy="132.795" r="2.917" style="fill: rgb(30, 30, 30);" transform="matrix(1.411896, -0.378316, 0.37832, 1.41191, 154.487762, 233.596115)"/>
  <circle cx="232.429" cy="95.712" r="2.917" style="fill: rgb(30, 30, 30);" transform="matrix(1.411896, -0.378316, 0.378317, 1.411899, 154.488388, 233.597366)"/>
  <circle cx="169.124" cy="121.933" r="1.792" style="fill: rgb(30, 30, 30);" transform="matrix(1.411891, -0.378315, 0.378317, 1.411898, 154.488846, 233.597656)"/>
  <circle cx="221.567" cy="121.934" r="1.792" style="fill: rgb(30, 30, 30);" transform="matrix(1.41194, -0.378328, 0.378317, 1.411898, 154.47879, 233.600372)"/>
  <circle cx="221.568" cy="69.49" r="1.792" style="fill: rgb(30, 30, 30);" transform="matrix(1.411891, -0.378315, 0.378323, 1.411922, 154.488983, 233.59549)"/>
  <path d="M 449.43 357.994 L 449.43 356.529 L 449.43 355.071 L 825.089 355.071 C 828.017 355.065 830.382 352.697 830.388 349.772 L 830.388 349.772 C 830.382 346.843 828.017 344.475 825.089 344.47 L 825.089 344.47 L 449.43 344.47 C 446.505 344.475 444.134 346.843 444.131 349.772 L 444.131 349.772 C 444.134 352.697 446.505 355.065 449.43 355.071 L 449.43 355.071 L 449.43 356.529 L 449.43 357.994 C 444.891 357.991 441.211 354.311 441.211 349.772 L 441.211 349.772 C 441.211 345.232 444.891 341.551 449.43 341.547 L 449.43 341.547 L 825.089 341.547 C 829.631 341.551 833.31 345.232 833.31 349.772 L 833.31 349.772 C 833.31 354.311 829.631 357.991 825.089 357.994 L 825.089 357.994 L 449.43 357.994 L 449.43 357.994 Z" style="fill: rgb(30, 30, 30);" transform="matrix(0.965926, -0.258819, 0.258819, 0.965926, -68.813118, 176.853177)"/>
</svg>