<?xml version="1.0" encoding="utf-8"?>
<svg id="Ebene_1" enable-background="new 0 0 566.926 197.123" version="1.1" y="0px" x="0px" xmlns="http://www.w3.org/2000/svg" xmlns:bx="https://boxy-svg.com">
  <g fill="#fff" transform="matrix(1.056706, 0, 0, 1.056706, 0.020065, 0.01902)" bx:origin="0 0">
    <path id="path5" d="M 88.705 89.429 C 91.412 81.352 93.833 73.179 96.359 65.04 C 96.982 63.033 97.566 61.015 98.169 59.001 C 98.246 58.565 100.468 50.794 101.314 47.299 C 102.327 43.118 103.416 38.92 103.922 34.664 C 104.235 32.028 105.395 30.666 107.672 29.965 C 109.001 29.556 109.734 28.877 111.111 28.777 C 112.241 28.694 113.028 28.411 113.549 27.372 C 113.991 26.493 115.132 25.948 115.723 25.165 C 116.161 24.584 116.716 23.894 117.354 23.7 C 119.179 23.149 121.125 22.974 122.93 22.376 C 125.207 21.623 127.839 21.08 129.495 19.553 C 131.19 17.991 132.763 17.141 134.95 16.974 C 136.976 16.819 138.738 16.036 139.391 13.914 C 139.797 12.599 140.802 12.007 141.819 11.353 C 142.749 11.165 143.265 10.792 143.379 9.676 C 143.493 8.561 139.303 9.183 139.026 8.903 C 137.737 7.593 137.861 7.333 139.558 6.692 C 140.664 6.275 141.877 6.143 143.042 5.882 C 143.748 5.714 144.455 5.545 145.16 5.376 C 146.834 5.158 148.505 4.922 150.181 4.726 C 153.084 4.382 155.994 4.088 158.892 3.714 C 159.57 3.626 160.297 3.418 160.855 3.045 C 161.369 2.702 162.072 1.495 162.09 0.905 C 162.108 0.315 160.945 -0.018 160.388 0 C 158.071 0.078 155.745 0.239 153.45 0.564 C 149.879 1.072 146.322 1.695 142.774 2.349 C 139.815 2.895 136.876 3.554 133.928 4.162 C 133.515 4.211 128.198 5.45 127.818 5.559 C 126.678 5.83 125.539 6.101 124.399 6.371 L 124.146 6.407 C 123.031 6.604 121.917 6.802 120.802 6.999 C 117.343 7.716 113.89 8.467 110.423 9.14 C 108.544 9.503 106.62 9.972 104.75 10.371 C 102.083 10.941 99.468 11.439 96.793 11.963 C 90.876 13.123 84.937 14.164 79.006 15.253 C 78.436 15.274 57.945 18.912 47.044 19.232 C 44.517 19.306 41.979 19.263 39.445 19.242 C 38.569 19.235 37.868 19.381 37.588 20.389 C 37.229 21.68 37.524 22.101 39.023 22.696 C 39.697 22.965 40.253 23.533 40.863 23.965 C 40.161 24.436 39.507 25.019 38.741 25.337 C 38.218 25.556 37.534 25.356 36.936 25.441 C 36.457 25.509 35.917 25.621 35.549 25.902 C 33.945 27.123 34.436 28.564 36.783 29.635 C 39.899 31.058 40.084 31.724 38.141 34.539 C 37.766 34.796 37.016 35.036 37.017 35.31 C 37.018 35.582 37.687 35.95 38.082 36.063 C 38.417 36.159 38.84 35.95 39.224 35.875 C 39.735 36.441 40.423 36.929 40.719 37.59 C 41.347 38.993 42.26 39.55 43.806 39.43 C 48.123 39.093 52.487 39.125 56.759 38.506 C 61.226 37.859 65.561 36.443 70.107 36.041 C 73.817 35.714 77.493 34.991 81.185 34.446 C 82.182 34.299 82.757 34.679 82.722 35.743 C 82.676 37.157 82.804 38.662 82.551 39.982 C 82.299 41.3 81.524 45.683 80.822 48.774 C 79.893 52.87 78.541 57.484 78.515 57.726 C 78.105 59.138 77.697 60.548 77.288 61.96 C 75.909 66.269 72.663 77.038 72.4 78.11 C 71.191 83.029 65.948 95.652 65.19 97.285 C 63.446 101.042 61.693 104.82 59.583 108.375 C 57.502 111.881 54.98 115.126 52.643 118.479 C 50.846 121.056 46.275 125.568 46.216 125.635 C 39.401 133.409 31.664 135.065 31.487 135.125 C 26.418 136.88 21.579 136.839 16.61 134.325 C 14.372 133.192 11.99 132.194 10.047 130.664 C 7.967 129.026 5.713 126.918 3.803 125.214 C 3.231 124.703 2.824 123.97 2.037 123.557 C 0.873 122.949 0.064 123.474 0.006 124.819 C -0.019 125.404 0.025 126.094 0.311 126.575 C 2.498 130.248 4.932 133.782 8.608 136.1 C 12.176 138.351 17.562 140.92 21.143 142.359 C 24.724 143.797 27.581 144.767 30.346 145.331 C 33.111 145.894 37.785 146.684 41.69 145.525 C 45.595 144.371 49.923 142.587 55.955 137.666 C 61.987 132.743 74.091 118.925 78.753 110.339 C 80.759 106.647 82.568 102.847 84.385 99.057 C 85.896 95.894 87.582 92.758 88.695 89.438 Z"/>
    <polygon id="polygon7" points="268.58 99.114 268.58 99.122 268.57 99.132"/>
    <path id="path9" d="M 164.39 26.515 L 162.548 26.05 L 162.478 26.032 C 162.355 24.335 162.283 22.633 162.089 20.944 C 161.984 20.028 162.323 18.781 160.823 18.572 L 160.81 18.589 C 159.855 17.796 157.789 18.433 157.789 18.433 C 157.789 18.433 155.714 18.818 155.293 19.908 C 154.003 20.075 152.715 20.369 151.424 20.383 C 147.054 20.433 147.067 20.4 145.466 24.44 C 145.262 24.955 144.839 25.382 144.517 25.85 C 144.153 25.43 143.558 25.053 143.467 24.58 C 143.161 23.001 142.145 22.694 140.797 22.809 C 139.466 22.923 139.45 23.903 139.172 24.942 C 138.499 27.454 137.835 30.092 135.612 31.76 C 132.929 33.776 131.859 36.641 130.978 39.668 C 130.312 41.958 130.07 44.449 127.85 46.007 C 127.539 46.227 127.243 47.72 127.342 47.916 C 125.451 50.442 119.647 59.02 118.799 60.72 C 117.871 62.581 116.755 64.441 116.325 66.431 C 115.971 68.071 115.507 69.461 114.35 70.633 C 112.1 71.864 112.641 74.067 112.475 76.023 C 112.096 76.63 111.718 77.242 111.339 77.85 C 111.057 78.253 110.775 78.659 110.492 79.063 C 110.35 79.215 110.208 79.37 110.065 79.522 C 109.683 79.965 109.628 80.525 108.917 80.856 C 108.206 81.186 105.711 82.087 104.065 82.554 C 101.565 83.259 101.026 83.601 101.107 84.947 C 101.217 86.784 102.59 86.843 103.951 86.929 C 105.09 87 105.327 87.7 104.903 88.611 C 103.583 91.44 102.286 94.286 100.84 97.05 C 97.432 103.568 90.306 117.097 90.216 117.376 C 89.565 119.022 88.914 120.668 88.264 122.315 L 88.249 122.948 C 87.989 123.305 87.729 123.663 87.469 124.019 C 87.323 124.256 87.177 124.495 87.031 124.732 C 86.988 124.934 86.945 125.135 86.902 125.336 C 86.183 126.656 85.117 127.906 84.836 129.315 C 84.523 130.878 83.95 132.221 82.953 133.325 C 80.843 135.663 81.61 138.209 82.194 140.76 C 82.383 141.585 83.104 141.673 83.55 141.14 C 84.309 140.233 84.958 139.203 85.492 138.145 C 86.073 136.992 86.407 135.713 86.986 134.559 C 87.156 134.221 87.83 133.913 88.207 133.976 C 88.477 134.023 88.89 134.786 88.799 135.104 C 88.476 136.239 87.928 137.309 87.551 138.431 C 87.455 138.716 87.497 139.369 87.749 139.452 C 88.001 139.535 88.596 139.266 88.713 139.025 C 89.457 137.487 90.085 135.893 90.804 134.342 C 92.068 131.619 93.355 128.907 94.679 126.213 C 94.817 125.933 95.347 125.591 95.566 125.664 C 95.846 125.758 96.053 126.224 96.183 126.567 C 96.283 126.834 96.264 127.171 96.216 127.463 C 95.696 130.6 95.156 133.731 94.638 136.864 C 94.61 137.032 94.724 137.377 94.781 137.38 C 95.05 137.39 95.471 137.397 95.563 137.24 C 95.851 136.751 96.025 136.192 96.225 135.653 C 97.123 133.234 97.312 130.463 99.791 128.835 C 100.234 128.544 100.648 127.825 100.645 127.308 C 100.634 125.053 105.888 113.811 106.514 112.609 L 106.527 112.595 C 107.021 111.354 112.94 99.193 114.102 96.076 C 114.246 95.691 116.131 91.559 116.26 91.391 C 117.093 89.57 117.927 87.747 118.759 85.927 C 120.017 85.309 121.236 84.595 122.537 84.089 C 129.173 81.512 144.751 75.115 145.526 75.302 C 145.534 75.499 145.541 76.994 145.548 77.193 C 145.563 77.601 145.578 78.008 145.593 78.417 C 145.582 81.228 145.518 84.039 145.576 86.849 C 145.622 89.067 146.185 96.289 146.019 97.653 C 145.756 99.796 145.67 101.8 146.637 103.869 C 147.535 105.79 147.917 107.921 147.315 110.081 L 147.273 110.144 C 147.261 110.964 147.248 111.789 147.236 112.611 L 147.236 112.616 C 147.382 114.109 147.371 115.595 148.584 116.812 C 149.416 117.649 150.052 117.916 150.748 116.874 C 151.248 116.125 151.545 116.24 152.079 116.835 C 153.433 118.35 154.186 119.977 153.8 122.094 C 153.674 122.783 153.988 123.627 154.311 124.299 C 154.49 124.672 154.792 125.358 155.52 125.097 C 156.248 124.834 156.179 124.139 156.238 123.629 C 156.355 122.632 156.202 121.604 156.302 120.604 C 156.39 119.726 156.569 118.826 156.907 118.018 C 157.104 117.547 157.646 117.118 158.133 116.931 C 158.308 116.865 158.843 117.516 159.095 117.914 C 159.412 118.419 159.512 119.078 159.874 119.534 C 160.746 120.633 161.953 120.432 162.353 119.1 C 162.61 118.246 162.722 117.312 162.698 116.418 C 162.598 112.68 162.27 108.94 162.308 105.205 C 162.384 97.718 162.653 90.229 162.827 82.742 C 162.998 75.353 163.119 67.964 163.326 60.576 C 163.389 58.363 163.804 56.157 163.824 53.946 C 163.889 46.749 164.536 39.612 165.676 32.509 C 166.016 30.396 165.649 28.392 164.511 26.554 L 164.401 26.54 Z M 142.52 66.189 C 141.305 66.685 140.01 66.986 138.793 67.48 C 138.282 67.688 137.126 68.503 137.126 68.503 C 137.126 68.503 136.642 69.078 136.501 69.266 C 135.626 69.685 134.748 70.456 133.874 70.454 C 131.687 70.445 130.203 71.378 129.088 73.126 C 128.816 73.553 128.62 74.059 128.263 74.394 C 128.011 74.629 127.501 74.794 127.189 74.706 C 126.909 74.624 126.537 74.133 126.563 73.856 C 126.646 72.97 126.742 72.033 127.105 71.239 C 128.576 68.031 130.062 64.824 131.703 61.702 C 134.288 56.784 137.002 51.934 139.662 47.056 C 140.1 46.253 140.424 45.399 141.703 45.745 C 142.135 45.862 142.761 45.452 143.234 45.173 C 143.689 44.905 144.059 44.495 144.466 44.149 C 144.568 44.737 144.755 45.325 144.758 45.914 C 144.778 51.495 144.705 57.077 144.798 62.656 C 144.838 64.467 144.078 65.557 142.528 66.189 Z"/>
    <path id="path11" d="M 279.89 21.702 C 279.281 21.472 278.672 21.239 278.065 21.009 C 278.063 20.859 278.015 20.729 277.921 20.622 C 277.894 20.592 279.742 18.355 278.692 17.268 C 278.409 17.046 276.831 16.501 276.548 16.281 C 276.405 15.397 276.24 14.516 276.125 13.629 C 275.937 12.199 275.064 11.845 273.788 12.083 C 273.375 12.376 272.962 12.668 272.549 12.961 L 272.367 12.958 L 270.439 12.806 C 269.051 13.218 269.606 13.956 268.219 14.369 C 267.903 14.6 267.588 14.831 267.272 15.061 C 266.323 15.866 265.656 16.324 264.495 17.934 C 263.333 19.543 261.998 22.168 261.189 23.627 C 260.38 25.085 257.055 33.743 257.001 33.85 C 256.735 34.094 251.179 46.385 249.345 50.504 C 247.917 53.708 246.039 57.552 244.644 61.414 C 243.249 65.276 241.908 71.167 241.594 71.531 C 241.489 71.799 241.384 72.065 241.279 72.333 L 240.865 73.563 C 240.81 73.965 240.757 74.37 240.702 74.773 C 240.307 76.987 239.712 80.015 239.288 81.366 C 238.864 82.717 237.954 84.242 237.438 85.743 C 237.017 88.607 236.527 91.465 236.199 94.34 C 235.948 96.543 235.903 98.77 235.766 100.986 C 235.853 101.789 235.94 102.59 236.028 103.395 C 236.433 104.828 236.526 105.508 237.242 107.694 C 237.959 109.879 240.979 111.928 240.979 111.928 C 244.546 113.93 250.556 113.925 253.263 112.069 C 255.971 110.213 257.83 108.972 258.997 107.948 C 260.164 106.925 266.064 102.241 268.856 99.127 C 271.648 96.012 272.698 94.516 273.524 93.692 C 273.941 95.13 273.536 96.379 272.642 97.516 C 272.451 98.062 272.26 98.608 272.068 99.154 C 271.919 101.639 271.653 104.123 271.645 106.607 C 271.633 109.949 272.968 116.956 276.454 117.563 C 279.94 118.169 280.512 118.191 282.57 117.146 C 284.168 116.333 285.994 115.915 287.762 115.511 C 289.04 115.221 289.474 115.834 288.913 117.051 C 288.278 118.427 287.544 119.764 286.776 121.072 C 283.715 126.307 280.674 131.551 277.548 136.751 C 276.304 138.819 277.012 139.103 278.695 139.127 C 278.997 139.132 278.392 140.815 278.442 141.374 C 278.602 143.157 279.472 143.693 280.95 142.661 C 281.815 142.056 282.474 141.094 283.085 140.197 C 283.704 139.289 284.099 138.227 284.715 137.316 C 284.83 137.144 285.762 137.213 285.918 137.445 C 286.308 138.007 285.709 139.364 287.011 139.126 C 287.627 139.015 288.119 138.124 288.629 137.555 C 288.965 137.177 289.209 136.723 289.533 136.333 C 290.076 135.676 290.59 135.432 291.15 136.382 C 291.722 137.359 292.562 137.144 293.156 136.477 C 294.094 135.423 295.041 134.329 295.709 133.1 C 297.484 129.818 299.154 126.475 300.783 123.116 C 301.373 121.899 302.012 120.991 303.523 121.386 C 304.791 121.718 305.337 121.129 305.742 119.99 C 306.314 118.37 306.945 116.75 307.767 115.248 C 310.476 110.295 313.288 105.398 316.049 100.475 C 318.269 96.517 320.471 92.547 322.676 88.582 C 323.864 86.446 324.792 84.135 326.227 82.143 C 328.109 79.529 331.744 78.983 332.873 79.102 C 334.002 79.22 335.209 78.538 335.727 78.012 C 336.247 77.488 336.372 77.556 337.108 77.081 C 337.845 76.606 338.318 76.213 338.671 75.956 C 339.022 75.699 344.431 73.563 345.569 72.451 C 347.762 70.305 351.153 69.058 354.181 68.819 C 354.467 70.212 354.541 71.723 354.556 73.144 C 354.584 76.333 354.518 79.527 354.493 82.717 C 354.472 83.136 354.45 83.556 354.429 83.974 C 353.603 86.024 354.483 87.877 355.021 89.799 C 355.277 90.709 355.541 91.865 355.203 92.651 C 354.086 95.227 354.613 97.846 354.668 100.448 C 354.689 101.479 355.091 102.53 356.48 102.39 C 357.626 102.275 357.802 102.879 357.879 103.828 C 358.029 105.641 358.304 107.442 358.531 109.247 C 358.744 110.948 358.916 112.657 359.201 114.346 C 359.352 115.242 359.722 115.947 360.773 116.35 C 362.481 117.006 362.533 117.285 361.69 118.999 C 361.214 119.969 360.72 120.823 361.699 121.72 C 363.322 123.205 363.391 124.812 362.17 126.58 C 361.437 127.644 361.566 128.518 362.959 128.83 C 364.137 129.095 364.213 130.06 364.336 130.927 C 364.438 131.615 364.302 132.334 364.25 133.039 C 364.186 133.99 364.498 134.646 365.556 134.667 C 366.481 134.688 366.724 134.094 366.764 133.278 C 366.987 128.84 367.166 124.402 367.493 119.974 C 367.63 118.083 368.432 113.61 368.458 113.245 C 368.646 111.393 369.204 106.834 369.299 106.405 C 369.486 101.542 369.926 89.104 370.2 84.529 C 370.477 79.955 371.924 58.5 372.02 55.273 C 371.911 55.064 374.698 34.885 375.637 30.307 C 376.576 25.728 376.518 21.606 376.405 21.134 C 376.292 20.662 374.292 20.113 373.18 19.93 C 370.946 19.565 368.675 19.429 366.418 19.2 C 364.947 19.018 365.248 17.218 365.125 16.9 C 365.004 16.583 360.221 15.213 359.264 15.713 C 358.307 16.213 358.078 20.829 357.846 22.963 C 357.25 23.984 356.658 25.006 356.064 26.027 C 355.626 26.425 355.188 26.826 354.749 27.225 C 354.575 27.404 354.397 27.582 354.223 27.761 C 353.044 28.499 351.869 29.238 350.691 29.976 C 349.01 31.77 347.33 33.563 345.646 35.357 C 345.535 35.478 344.674 36.558 344.429 36.884 C 343.515 38.145 341.366 40.879 341.347 41.096 C 341.01 41.558 340.671 42.02 340.333 42.481 C 340.333 42.481 339.575 42.773 339.46 42.983 C 338.018 45.608 336.612 48.254 335.198 50.896 C 335.198 50.896 334.18 51.388 333.637 51.652 C 333.168 52.015 332.699 52.379 332.231 52.741 C 332.043 52.804 329.134 56.609 327.581 58.234 C 327.263 58.569 326.685 59.76 326.692 59.951 C 324.608 60.816 324.87 64.094 324.564 64.483 C 324.259 64.872 322.851 65.526 322.487 66.209 C 321.428 68.189 320.153 71.698 319.667 72.337 C 319.184 72.978 318.448 73.617 317.983 74.051 C 317.674 74.175 317.368 74.298 317.058 74.422 C 315.724 74.56 315.106 76.274 314.931 76.633 C 314.756 76.994 314.295 77.062 313.978 77.276 C 313.749 77.433 313.518 77.589 313.288 77.749 L 313.325 77.712 C 312.858 77.916 312.392 78.119 311.929 78.322 C 309.003 80.093 306.074 81.848 303.171 83.661 C 302.924 83.816 302.692 84.452 302.814 84.679 C 303.835 86.64 303.199 88.188 301.751 89.594 C 301.628 89.713 301.538 90.087 301.581 90.116 C 301.813 90.27 302.144 90.502 302.352 90.433 C 303.6 90.022 304.807 89.491 306.059 89.097 C 306.497 88.961 307.33 88.941 307.443 89.156 C 307.681 89.599 307.699 90.276 307.548 90.783 C 307.39 91.337 306.946 91.812 306.616 92.315 C 305.458 94.084 302.456 98.054 302.232 98.36 C 300.575 100.636 298.969 102.953 297.302 105.222 C 296.323 106.556 295.246 107.261 293.717 106.093 C 292.612 105.247 291.561 104.329 290.485 103.447 C 290.411 102.829 290.335 102.213 290.258 101.593 C 290.691 99.238 290.813 96.889 291.929 94.597 C 293.496 91.379 294.45 87.861 295.635 84.459 C 296.928 80.749 298.19 77.028 299.457 73.311 C 300.104 71.413 300.738 69.506 301.353 67.595 C 303.492 63.332 305.658 59.084 307.749 54.8 C 308.85 52.549 309.816 50.234 310.845 47.946 C 311.018 47.896 311.087 47.783 311.059 47.606 C 312.945 43.958 314.986 40.377 316.634 36.626 C 317.239 35.247 317.157 33.422 316.913 31.876 C 316.798 31.144 315.592 30.549 314.825 29.959 C 314.012 29.331 314.022 28.774 314.575 27.914 C 315.696 26.158 315.53 25.075 314.325 23.626 C 313.366 22.473 312.105 22.298 310.76 22.352 C 309.064 22.417 307.452 22.396 305.733 21.908 C 304.319 21.506 302.314 20.861 301.048 22.72 L 300.927 22.842 C 300.447 23.698 292.913 36.78 292.499 37.454 L 290.366 40.724 C 289.821 41.542 291.075 42.852 290.804 43.506 C 290.533 44.161 289.872 43.188 288.837 44.224 C 288.77 44.245 287.923 47.242 287.224 49.991 C 287.165 50.224 288.076 50.466 288.014 50.709 C 287.962 50.907 286.941 51.757 286.889 51.961 C 286.368 54.006 285.786 55.659 285.233 57.788 C 285.132 58.178 285.356 58.238 285.255 58.613 C 285.159 58.983 284.739 58.696 284.647 59.047 C 284.119 61.03 283.655 63.645 283.358 64.489 C 283.273 64.732 283.513 64.974 283.428 65.218 C 283.31 65.554 282.868 65.891 282.751 66.229 C 281.349 70.277 280.018 74.341 278.794 78.447 C 278.684 78.722 278.573 79 278.461 79.275 C 277.47 80.604 276.479 81.933 275.487 83.262 C 274.917 83.768 274.346 84.272 273.777 84.776 C 273.779 84.887 273.777 84.997 273.768 85.099 C 273.777 84.995 273.779 84.887 273.777 84.776 C 273.337 85.28 272.899 85.783 272.47 86.288 C 272.182 86.522 271.89 86.758 271.6 86.993 C 271.402 87.042 271.281 87.167 271.241 87.369 C 271.012 87.606 270.783 87.844 270.553 88.082 C 270.551 88.057 270.555 88.037 270.551 88.012 C 269.873 88.693 269.195 89.372 268.515 90.052 C 268.677 90.046 268.831 90.033 268.98 90.013 C 268.832 90.034 268.677 90.046 268.515 90.052 C 268.236 90.299 267.958 90.545 267.679 90.791 C 267.339 91.146 266.999 91.502 266.66 91.856 C 266.478 91.923 265.587 92.77 265.197 93.032 C 265.018 93.122 264.821 93.189 264.665 93.306 C 260.168 96.7 255.675 100.097 251.182 103.496 C 250.825 103.614 250.832 103.642 250.113 103.854 C 249.393 104.066 247.333 103.77 247.267 102.893 C 247.201 102.016 247.942 96.981 248.729 94.028 C 250.316 88.077 252.41 82.382 255.216 76.921 C 256.303 74.804 257.369 71.901 258.308 70.483 C 259.247 69.065 261.136 66.541 261.809 65.19 C 262.482 63.837 262.843 61.279 263.746 59.524 C 265.398 56.31 267.275 53.203 269.21 50.146 C 270.466 48.161 271.523 46.22 271.763 43.785 C 271.922 42.147 272.601 40.505 272.979 39.947 C 273.358 39.388 274.309 38.572 274.495 38.209 C 275.724 35.803 276.864 33.35 278.033 30.913 C 278.033 30.913 280.462 27.015 281.401 24.944 C 282.351 22.813 282.251 22.768 279.881 21.675 M 273.731 85.291 C 273.726 85.312 273.725 85.338 273.721 85.358 C 273.731 85.338 273.731 85.313 273.731 85.291 Z M 292.511 37.422 L 292.613 37.559 L 292.515 37.439 L 292.515 37.422 Z M 353.291 47.587 C 352.715 49.143 352.186 50.559 352.326 52.237 C 352.389 53.006 352.131 53.82 351.926 54.588 C 351.658 55.59 351.013 56.093 349.905 55.993 C 346.987 55.727 344.967 57.316 343.14 59.316 C 342.741 59.754 342.274 60.229 341.741 60.428 C 340.629 60.843 339.45 61.085 338.302 61.398 C 338.547 60.366 338.675 59.286 339.072 58.313 C 339.635 56.928 340.225 55.501 341.096 54.305 C 344.357 49.827 347.736 45.437 351.097 41.037 C 352.581 39.094 352.326 41.008 353.029 41.176 C 353.224 41.223 353.767 40.249 353.959 40.31 C 354.207 40.391 354.285 40.639 354.397 40.847 C 354.501 41.041 354.583 41.245 354.644 41.456 C 354.79 41.955 354.831 42.486 354.804 43.003 C 354.75 44.058 354.347 45.029 353.95 45.993 C 353.72 46.524 353.48 47.05 353.28 47.587 Z"/>
    <path id="path13" d="M 427.13 79.598 C 428.052 79.902 430.163 80.454 431.693 80.836 C 433.591 81.313 435.259 82.107 436.605 83.619 C 438.339 85.568 440.216 87.39 442.017 89.283 C 442.423 89.709 442.884 90.144 443.117 90.668 C 444.652 94.142 446.592 97.174 450.471 98.472 C 451.285 98.743 451.951 99.482 452.659 100.035 C 453.19 100.455 453.638 100.997 454.208 101.363 C 456.575 102.895 459.019 104.315 461.345 105.91 C 462.995 107.041 464.499 108.389 466.068 109.638 C 466.285 109.804 466.498 109.967 466.713 110.131 C 468.123 111.377 469.537 112.623 470.949 113.87 C 479.322 122.226 487.385 130.946 497.783 136.951 C 498.594 137.45 499.408 137.949 500.219 138.449 C 500.782 138.785 501.338 139.12 501.897 139.456 C 502.372 139.811 502.838 140.165 503.309 140.52 C 505.729 142.336 508.205 144.085 510.555 145.986 C 514.483 149.164 518.317 152.454 522.219 155.659 C 523.389 156.62 534.555 164.148 535.799 165.013 C 535.918 165.097 539.231 165.997 536.619 163.784 C 534.937 162.357 526.955 157.494 526.879 157.427 C 524.596 155.45 521.656 153.845 519.399 151.839 C 516.383 149.161 513.417 146.432 510.434 143.715 C 506.871 140.468 503.856 136.575 499.366 134.422 C 498.845 134.174 498.333 133.705 498.052 133.205 C 495.933 129.405 492.513 126.801 489.39 123.978 C 487.245 122.036 484.536 120.727 482.21 118.961 C 479.239 116.707 476.399 114.278 473.503 111.928 C 473.241 111.655 472.98 111.38 472.716 111.107 C 471.427 109.931 470.14 108.755 468.851 107.582 C 466.589 105.913 464.349 104.214 462.056 102.59 C 461.077 101.897 459.968 101.383 458.952 100.735 C 458.612 100.517 457.839 100.147 458.753 99.72 C 460.22 99.032 459.325 98.636 458.651 98.121 C 454.563 94.996 450.573 91.79 447.159 87.876 C 445.884 86.414 443.927 85.549 442.292 84.397 C 441.726 83.998 441.11 83.621 440.659 83.111 C 438.395 80.561 437.112 77.214 434.179 75.2 C 433.884 74.996 433.72 74.527 433.613 74.147 C 433.515 73.809 433.586 73.425 433.58 73.062 C 433.941 73.097 434.43 72.994 434.646 73.189 C 435.709 74.124 436.669 75.167 437.716 76.116 C 438.294 76.639 438.929 77.359 439.614 77.456 C 440.95 77.645 441.829 78.059 442.346 79.406 C 442.561 79.961 443.41 80.286 443.994 80.679 C 445.666 81.806 447.394 82.85 449.008 84.054 C 449.916 84.733 450.6 85.631 451.908 84.817 C 452.162 84.659 452.894 84.905 453.164 85.193 C 456.449 88.747 459.674 92.358 462.951 95.92 C 464.43 97.525 465.639 99.406 467.762 100.373 C 468.908 100.894 470.045 101.602 470.932 102.48 C 472.504 104.038 473.975 105.72 475.323 107.481 C 476.86 109.494 478.739 110.885 481.206 111.473 C 481.858 111.951 482.515 112.428 483.169 112.907 C 484.052 113.569 484.935 114.233 485.817 114.893 C 488.153 116.634 490.491 118.374 492.827 120.117 C 493.235 120.465 493.645 120.81 494.057 121.158 C 494.286 121.347 494.512 121.539 494.741 121.729 C 495.118 122.028 495.497 122.327 495.874 122.625 C 496.071 122.746 496.269 122.866 496.466 122.986 C 499.294 125.253 502.154 127.481 504.939 129.794 C 508.671 132.893 512.316 136.096 516.062 139.172 C 518.857 141.469 522.005 143.338 524.388 146.135 C 524.706 146.508 525.175 146.91 525.624 146.981 C 526.362 147.092 527.409 147.241 527.849 146.842 C 528.593 146.167 527.902 145.423 527.296 144.819 C 526.235 143.749 524.913 142.782 524.276 141.487 C 523.669 140.251 522.88 139.544 521.715 139.149 C 516.947 137.529 513.563 134.014 510.014 130.72 C 506.987 127.909 503.957 125.099 500.93 122.287 C 500.078 121.488 499.229 120.688 498.377 119.891 C 498.182 119.701 497.986 119.509 497.793 119.319 C 497.324 118.848 496.855 118.376 496.389 117.903 C 496.059 117.535 495.729 117.166 495.401 116.798 C 494.212 115.73 493.096 114.562 491.819 113.618 C 489.88 112.191 487.715 111.058 485.85 109.55 C 484 108.052 482.098 106.453 480.772 104.522 C 479.165 102.175 477.543 100.182 474.622 99.583 C 474.059 99.468 473.585 98.976 473.054 98.687 C 470.238 97.152 468.37 94.585 466.3 92.285 C 464.288 90.049 462.573 87.545 460.73 85.159 C 460.5 84.933 460.271 84.707 460.041 84.481 C 459.027 83.124 458.164 81.609 456.961 80.444 C 455.309 78.842 453.402 77.504 451.6 76.058 C 449.954 74.739 449.934 74.043 451.743 72.896 C 452.753 72.253 453.989 71.974 455.003 71.334 C 461.251 67.389 467.257 63.146 471.566 56.959 C 472.861 54.838 474.398 52.824 475.398 50.573 C 477.232 46.455 477.484 42.12 477.132 37.579 C 476.778 33.018 475.132 29.271 472.267 25.893 C 472.242 25.693 470.763 24.247 470.611 24.083 C 470.039 23.509 468.718 22.386 465.017 19.556 C 461.318 16.725 456.066 13.921 451.456 13.319 C 446.847 12.715 440.487 13.653 437.714 13.905 C 437.249 13.947 436.661 14.197 436.39 14.549 C 435.101 16.226 433.146 16.491 431.341 17.09 C 429.837 17.057 428.331 16.956 426.829 17.006 C 425.261 17.06 423.694 17.257 422.128 17.393 C 421.564 17.427 420.083 17.617 419.908 17.676 C 419.187 17.795 416.622 18.405 416.157 18.56 C 413.402 19.814 405.599 22.751 403.984 23.387 C 402.37 24.024 401.691 24.012 399.465 24.484 C 398.515 24.687 397.414 25.389 396.426 25.995 L 396.103 26.236 C 395.03 26.784 393.957 27.333 392.881 27.881 C 392.299 28.233 391.717 28.583 391.135 28.935 C 390.105 29.381 389.074 29.829 388.043 30.276 C 387.662 30.434 386.793 30.602 386.254 30.924 C 385.713 31.248 384.293 32.612 384.127 33.323 C 383.961 34.035 383.856 34.522 383.721 35.123 C 383.582 35.602 383.443 36.082 383.301 36.561 C 383.301 36.561 383.201 36.791 383.2 36.793 C 382.879 37.542 381.726 37.872 381.054 38.157 C 380.13 38.55 378.95 38.884 378.158 39.516 C 377.429 40.098 377.296 41.036 376.966 41.856 C 376.712 42.478 376.778 43.453 377.056 44.056 C 377.325 44.644 378.48 45.731 379.103 45.826 C 379.816 45.934 380.896 46.007 381.24 46.15 C 381.584 46.293 382.625 47.441 382.56 47.921 C 382.495 48.401 382.873 49.635 383.851 49.977 C 384.552 50.092 385.255 50.207 385.956 50.325 C 386.665 50.355 387.374 50.385 388.085 50.415 C 388.253 50.606 388.421 50.797 388.591 50.988 C 388.896 51.92 389.394 52.565 390.515 52.283 C 391.333 52.285 392.874 52.612 394.501 52.273 C 396.128 51.934 396.929 51.377 398.064 50.779 C 399.281 50.136 400.402 49.314 401.564 48.57 C 402.238 48.031 403.011 47.798 402.95 48.986 C 402.822 51.41 402.222 53.745 400.877 55.825 C 400.786 56.044 400.695 56.263 400.606 56.482 C 399.983 59.744 392.712 77.836 391.742 81.479 C 390.77 85.124 389.827 88.893 389.551 89.542 C 389.489 89.807 389.432 90.07 389.368 90.334 C 388.974 91.582 388.498 92.812 388.222 94.082 C 388.042 94.915 387.572 96.933 388.204 96.634 C 390.195 95.701 388.91 97.846 387.124 99.058 C 386.052 99.128 383.128 105.7 382.771 109.112 C 382.551 111.212 381.144 114.283 381.68 115.137 C 381.789 115.311 382.17 115.677 381.955 115.766 C 380.504 116.353 379.469 122.322 379.469 122.322 C 379.469 122.322 379.948 122.583 379.709 122.824 C 379.469 123.065 379.439 123.126 379.273 123.272 C 378.982 123.561 377.359 126.924 377.056 127.7 C 376.929 127.924 375.413 131.004 375.224 131.368 C 374.165 132.86 373.808 136.687 374.204 138.567 C 374.468 139.809 374.728 138.331 374.753 139.608 C 374.759 139.911 374.681 140.089 374.683 140.378 C 374.685 140.982 375.05 144.482 375.562 144.717 C 376.517 145.155 376.585 144.125 376.896 143.553 C 376.99 143.381 377.144 143.245 377.271 143.092 C 377.214 142.873 378.138 141.891 378.335 141.785 C 378.536 141.85 377.443 144.886 378.197 144.68 C 378.951 144.477 381.176 137.005 381.428 136.455 C 381.865 135.623 382.299 134.793 382.736 133.962 C 383.111 133.85 383.486 133.736 383.859 133.622 C 384.245 133.737 384.63 133.852 385.01 133.966 C 385.142 134.169 385.273 134.373 385.406 134.576 C 385.415 135.168 385.348 135.773 385.462 136.344 C 385.519 136.638 385.888 136.871 386.113 137.132 C 386.351 136.867 386.591 136.606 386.829 136.339 C 387.017 135.886 387.193 135.432 387.386 134.981 C 389.407 130.2 391.433 125.419 393.45 120.64 C 393.889 119.594 394.15 118.481 394.612 117.443 C 394.687 117.272 396.267 114.76 396.542 115.187 C 396.751 115.51 397.105 115.819 397.138 116.159 C 397.193 116.745 396.948 117.364 397.023 117.943 C 397.077 118.362 397.4 119.013 397.689 119.065 C 398.048 119.128 398.616 118.772 398.884 118.43 C 399.314 117.886 399.706 117.242 399.884 116.577 C 400.284 115.056 402.859 101.662 405.898 88.589 C 408.877 75.77 412.959 62.052 413.375 62.051 C 414.312 62.05 414.752 61.603 414.926 60.76 C 415.34 58.926 415.756 57.091 416.172 55.257 C 416.389 54.512 416.605 53.767 416.818 53.022 C 417.031 52.545 417.243 52.069 417.455 51.591 C 418.078 50.439 418.658 49.258 419.338 48.141 C 419.881 47.248 420.512 46.919 420.922 48.271 C 421.227 49.281 421.902 49.455 422.36 48.578 C 423.372 46.634 424.491 44.65 424.96 42.548 C 425.306 41.005 426.028 40.253 427.259 39.676 C 434.573 36.252 441.743 36.562 448.753 40.55 C 451.649 42.199 452.89 44.499 452.194 47.266 C 451.555 49.812 450.608 52.233 448.954 54.371 C 446.669 57.33 444.509 60.392 442.368 63.46 C 440.598 65.994 436.231 66.415 433.983 64.23 C 432.895 63.172 431.782 62.127 430.581 61.209 C 429.546 60.416 428.102 60.719 427.763 61.791 C 427.437 62.818 427.128 63.966 428.226 64.859 C 429.331 65.755 430.519 66.586 431.433 67.65 C 431.951 68.251 432.287 69.321 432.138 70.068 C 432.034 70.59 431.001 71.228 430.341 71.282 C 429.054 71.386 427.736 71.058 426.429 71.03 C 425.767 71.014 424.786 71.039 424.493 71.44 C 423.843 72.334 422.829 73.529 422.774 74.68 C 422.684 76.138 426.304 79.319 427.114 79.585 Z"/>
    <path id="path15" d="M 527.17 165.85 C 523.969 163.938 520.721 162.104 517.516 160.199 C 515.465 158.979 513.192 157.971 511.487 156.371 C 503.678 149.042 496.087 141.481 488.305 134.124 C 485.315 131.298 482.221 128.551 478.114 127.269 C 476.301 126.702 474.579 125.762 472.926 124.797 C 471.924 124.213 470.871 123.414 470.305 122.443 C 468.11 118.668 464.516 116.4 461.301 113.714 C 457.514 110.835 455.221 106.335 450.85 104.08 C 450.504 103.901 450.2 103.584 449.957 103.268 C 447.078 99.513 443.99 95.965 440.434 92.812 C 436.77 89.563 433.713 85.647 429.457 83.041 C 428.453 82.428 427.678 81.419 426.867 80.526 C 426.777 80.427 425.002 78.722 423.869 78.083 C 422.734 77.442 420.094 76.772 418.182 76.187 C 415.818 75.46 414.837 76.142 414.473 78.666 C 414.341 79.564 414.274 80.481 414.277 81.391 C 414.285 83.275 414.596 83.563 416.561 83.831 C 417.352 83.939 418.382 83.856 418.871 84.318 C 420.088 85.475 421.443 85.431 422.844 85.205 C 424.246 84.979 425.037 85.543 425.885 86.63 C 427.49 88.682 429.088 90.869 431.133 92.409 C 433.754 94.383 435.813 96.834 438.092 99.101 C 440.733 101.727 442.947 104.763 446.467 106.487 C 447.781 107.133 448.604 108.788 449.649 109.986 C 450.702 111.193 451.581 112.632 452.835 113.559 C 454.855 115.054 457.12 116.212 459.282 117.514 C 460.063 118.138 460.862 118.741 461.622 119.391 C 463.224 120.769 465.036 121.987 466.319 123.618 C 467.434 125.032 468.51 125.979 470.28 126.532 C 472.069 127.093 473.839 128.093 475.282 129.299 C 479.788 133.061 484.151 136.991 488.54 140.895 C 491.556 143.579 494.37 146.505 498.515 147.543 C 499.415 147.769 500.189 148.603 500.96 149.228 C 502.669 150.617 504.341 152.048 506.026 153.461 C 506.508 153.829 506.991 154.198 507.471 154.567 C 507.602 154.719 507.713 154.899 507.867 155.024 C 512.707 158.995 518.267 161.993 522.869 166.307 C 523.744 167.126 525.56 166.758 526.51 167.645 C 541.227 181.416 541.539 178.268 542.047 178.033 C 541.757 177.633 527.537 166.063 527.157 165.833 Z"/>
    <path id="path17" d="M 504.12 163.15 C 503.638 161.696 502.628 161.047 501.618 160.337 C 500.309 159.416 498.829 158.744 497.442 157.932 C 495.46 156.766 493.356 155.772 492.516 153.305 C 492.289 152.643 491.473 151.837 490.823 151.727 C 488.04 151.248 486.55 148.274 483.616 148.13 C 483.253 148.113 482.93 147.443 482.575 147.094 C 481.858 146.387 481.073 145.741 480.421 144.981 C 478.958 143.268 476.454 142.586 475.694 140.137 C 475.587 139.789 474.727 139.602 474.184 139.482 C 471.274 138.836 468.913 137.411 467.823 134.543 C 467.036 132.475 465.522 131.069 464.112 129.502 C 462.917 128.175 461.592 127.575 459.844 127.8 C 458.403 127.986 457.309 127.557 456.621 126.139 C 456.328 125.535 455.687 125.1 455.205 124.587 C 454.543 123.828 453.881 123.07 453.219 122.313 C 453.051 122.084 452.885 121.853 452.717 121.624 C 452.705 121.426 452.627 121.259 452.485 121.121 C 452.204 119.367 451.364 117.993 449.78 117.122 C 447.298 115.062 444.675 113.15 442.37 110.907 C 439.259 107.879 436.263 104.739 435.235 100.204 C 434.926 98.851 433.831 97.484 432.737 96.549 C 430.907 94.987 428.883 93.591 426.768 92.445 C 423.594 90.725 420.516 88.715 416.849 88.086 C 415.692 87.889 414.51 87.427 413.705 88.683 C 413.186 89.493 413.83 90.052 414.506 90.538 C 414.908 90.826 415.399 91.17 415.852 91.175 C 417.981 91.199 418.888 92.641 419.436 94.316 C 420.185 96.611 421.625 97.666 424.032 97.994 C 425.999 98.265 428.108 98.979 428.805 101.178 C 430.026 105.022 432.645 107.741 435.688 110.09 C 438.502 112.266 440.958 114.74 443.047 117.603 C 443.457 118.165 443.846 118.779 444.375 119.207 C 446.471 120.909 448.619 122.548 450.748 124.209 C 450.963 124.408 451.176 124.607 451.391 124.807 C 452.004 125.419 452.62 126.034 453.233 126.647 C 454.842 129.589 457.311 131.376 460.577 132.087 C 460.999 132.252 461.425 132.417 461.847 132.581 C 462.577 133.208 463.38 133.769 464.025 134.476 C 465.162 135.72 466.13 137.118 467.296 138.329 C 468.126 139.194 469.155 139.868 470.11 140.613 C 473.378 143.172 476.589 145.811 479.938 148.258 C 483.348 150.75 486.922 153.023 490.381 155.45 C 491.945 156.549 493.485 157.711 494.893 158.996 C 497.28 161.172 499.618 163.36 502.547 164.836 C 503.74 165.439 504.746 166.413 505.836 167.22 C 506.024 167.243 520.01 176.691 521.344 177.832 C 522.125 178.501 527.803 182.133 532.971 186.123 C 536.635 188.953 539.772 192.198 541.93 193.651 C 551.7 200.227 548.006 195.422 548.317 195.463 C 548.038 195.035 512.094 168.918 511.817 168.492 C 510.837 167.492 504.527 164.352 504.127 163.152 Z"/>
    <path id="path19" d="M 397.46 121.35 C 396.694 121.35 395.892 121.905 395.189 122.365 C 394.91 122.547 394.8 123.065 394.714 123.452 C 394.456 124.626 394.261 125.813 394.017 126.99 C 393.679 128.613 393.915 130.419 392.226 131.577 C 391.464 132.1 391.917 132.854 392.427 133.401 C 393.065 134.081 393.819 133.921 394.229 133.264 C 395.023 131.993 395.74 130.651 396.317 129.267 C 397.119 127.346 398.216 124.378 398.55 123.176 C 398.88 121.986 397.82 121.356 397.46 121.356 Z"/>
    <path id="path21" d="M 193.98 117.27 C 198.313 119.071 203.21 119.606 208.043 118.608 C 210.033 118.198 210.491 118.061 213.722 116.162 C 216.953 114.262 219.16 109.688 219.82 109.45 C 220.48 109.211 222.546 109.096 223.18 109.631 C 223.554 109.944 224.548 111.239 225.797 112.208 C 227.047 113.178 225.808 113.086 226.754 114.401 C 227.699 115.716 229.05 114.275 229.074 114.932 C 229.098 115.587 229.588 116.115 230.661 116.111 C 231.735 116.108 231.51 111.931 231.285 109.517 C 231.064 108.124 230.57 102.713 230.671 101.531 C 230.772 100.349 231.103 98.324 231.319 96.718 C 231.24 94.65 233.057 87.827 233.35 86.353 C 233.217 86.149 234.64 82.232 235.469 78.422 C 236.298 74.614 236.921 70.089 236.966 68.678 C 237.048 66.475 237.462 62.766 237.214 62.067 C 236.966 61.368 235.608 61.655 235.095 61.94 C 234.583 62.226 234.83 62.413 234.698 62.65 L 234.674 62.753 C 234.575 62.737 234.487 62.763 234.42 62.858 C 232.525 63.191 231.542 61.296 230.793 61.016 C 230.044 60.736 229.506 60.673 228.595 60.817 C 227.684 60.96 224.307 64.33 222.689 65.088 C 221.071 65.846 215.624 68.279 213.743 68 C 213.585 68.156 213.397 68.21 213.18 68.162 C 212.453 68.914 211.786 70.238 210.988 70.322 C 207.072 70.737 204.832 73.645 202.09 75.819 C 201.61 76.442 200.932 76.997 200.685 77.703 C 199.95 79.811 199.153 81.167 197.027 82.287 C 196.912 82.349 196.808 82.673 196.868 82.766 C 196.957 82.904 197.194 83.01 197.372 83.017 C 198.717 83.061 200.311 81.913 200.311 81.913 C 200.311 81.913 206.922 79.074 210.213 77.622 C 211.636 76.994 212.976 76.633 214.532 77.385 C 215.126 77.67 216.04 77.294 216.807 77.219 L 217.71 76.697 C 218.019 76.616 218.327 76.536 218.636 76.455 L 219.209 76.397 C 219.628 76.464 220.048 76.535 220.468 76.602 C 219.707 78.884 219.352 82.916 219.241 83.642 C 219.131 84.367 218.863 84.771 218.7 85.351 C 218.459 86.21 218.19 87.073 218.058 87.954 C 217.633 90.808 217.066 93.664 216.95 96.535 C 216.878 98.311 217.937 101.048 218.492 101.699 C 219.048 102.351 219.666 103.26 218.704 104.06 C 217.742 104.861 216.993 105.601 216.138 106.373 C 215.069 106.77 212.963 108.398 209.866 108.878 C 206.768 109.357 204.093 109.235 199.712 107.279 C 195.331 105.324 191.771 101.767 189.353 99.579 C 186.935 97.39 183.401 88.995 183.152 85.194 C 182.902 81.393 183.263 77.537 183.38 75.995 C 183.497 74.452 184.358 69.261 185.746 65.675 C 187.134 62.09 191.163 57.117 191.724 56.487 C 193.814 54.466 195.903 52.446 197.994 50.425 C 200.369 48.619 204.124 45.365 209.482 42.391 C 210.697 41.797 217.412 37.961 222.507 37.559 C 223.991 37.442 225.44 36.854 226.859 36.352 C 228.148 35.895 228.889 34.985 228.281 33.535 C 227.863 32.535 227.874 31.565 228.996 31.287 C 230.408 30.936 229.136 28.76 228.467 28.915 C 227.746 29.083 227.029 29.394 226 28.727 C 224.878 27.997 223.935 26.546 223.558 24.682 C 223.403 23.911 224.609 23.952 223.848 22.926 C 223.087 21.902 221.607 22.537 220.973 22.019 C 220.762 21.944 220.552 21.87 220.342 21.794 C 219.554 21.695 218.767 21.596 217.979 21.497 C 217.856 21.388 217.732 21.279 217.61 21.17 C 216.819 20.235 215.903 20.124 214.659 20.228 C 210.986 20.53 207.616 21.938 204.095 22.777 C 202.837 23.218 201.578 23.66 200.32 24.102 C 199.772 24.532 199.243 24.987 198.674 25.385 C 197.196 26.421 195.7 27.432 194.211 28.454 C 194.029 28.645 193.846 28.836 193.664 29.028 L 193.607 29.1 C 193.137 29.702 192.667 30.303 192.196 30.905 C 192.054 31.092 191.914 31.278 191.773 31.464 C 191.366 31.861 190.959 32.259 190.552 32.657 C 190.335 32.852 190.118 33.047 189.902 33.242 C 189.534 33.475 189.166 33.707 188.797 33.94 L 188.762 33.979 C 188.529 34.373 188.296 34.766 188.063 35.161 L 188.024 35.399 C 187.704 35.73 187.384 36.061 187.064 36.392 C 186.784 36.718 186.505 37.045 186.225 37.371 C 186.015 37.629 185.805 37.887 185.596 38.145 L 185.014 38.658 C 184.663 39.117 184.312 39.577 183.961 40.037 L 183.89 40.116 C 183.432 40.669 182.976 41.22 182.518 41.774 L 182.05 42.539 L 179.881 46.148 C 179.679 46.233 179.568 46.384 179.55 46.605 C 179.355 47.064 179.161 47.523 178.967 47.982 C 178.76 48.345 178.554 48.711 178.347 49.075 L 178.347 49.076 C 176.288 50.668 175.184 52.85 174.512 55.297 C 174.371 55.472 174.23 55.648 174.09 55.822 C 173.848 56.46 173.606 57.099 173.364 57.738 C 172.994 58.727 172.624 59.716 172.255 60.704 C 170.012 64.755 169.442 69.262 169.145 73.728 C 168.758 79.573 168.833 85.453 170.239 91.21 C 170.705 93.119 173.978 100.481 175.6 102.936 C 177.222 105.387 181.574 110.225 184.348 112.124 C 187.098 114.014 189.618 115.464 193.958 117.264 Z"/>
    <path id="path23" d="M 541.03 154.92 C 538.27 152.879 535.473 150.889 532.676 148.899 C 532.1 148.49 531.694 147.27 530.84 148.061 C 530.545 148.333 530.945 149.545 531.256 150.229 C 531.49 150.745 532.039 151.159 532.527 151.512 C 535.474 153.652 538.416 155.809 541.431 157.848 C 542.234 158.385 543.29 158.551 544.249 158.823 C 544.413 158.869 544.671 158.585 544.952 158.412 C 544.667 158.079 544.503 157.828 544.282 157.641 C 543.212 156.721 542.162 155.761 541.032 154.921 Z"/>
    <path id="path25" d="M 560.71 167.27 C 560.55 167.078 556.587 164.938 556.403 164.809 C 555.571 164.221 555.057 164.448 554.227 163.852 C 552.641 162.71 551.135 161.465 549.6 160.262 C 548.795 159.628 547.573 159.153 547.438 160.408 C 547.352 161.216 547.549 162.201 548.305 162.633 C 548.576 162.788 548.846 162.946 549.119 163.1 C 550.672 163.903 552.219 164.713 553.771 165.512 C 554.455 165.863 564.5 172.908 566.138 172.602 C 567.783 172.293 566.343 170.449 566.343 170.449 C 566.343 170.449 560.973 167.589 560.713 167.259 Z"/>
    <path id="path27" d="m540.51 167.99s7.076 4.818 9.74 6.05c2.666 1.229 4.205 2.255 3.281 0.819-0.922-1.437 0-1.129-2.977-2.871-2.973-1.742-4.609-2.357-5.943-3.691-1.334-1.333-4-2.46-4.105-1.538-0.1 0.92 0.01 1.23 0.01 1.23z"/>
    <path id="path29" d="m546.46 183.68c2.973 1.741 4.41 3.074 3.385 0.408-1.023-2.666-2.666-2.152-4.922-3.279-2.256-1.129-2.344-0.019-1.832 0.599l3.37 2.27z"/>
  </g>
</svg>