<?xml version="1.0" encoding="utf-8"?>
<svg xmlns="http://www.w3.org/2000/svg">
  <path id="line3" d="M 207.345 138.8 L 205.376 138.895 C 205.135 138.906 204.948 139.111 204.959 139.353 C 204.969 139.594 205.174 139.781 205.415 139.771 C 205.416 139.771 205.416 139.771 205.417 139.771 L 207.386 139.675 C 207.628 139.664 207.814 139.459 207.803 139.218 C 207.793 138.976 207.588 138.789 207.347 138.8 C 207.346 138.8 207.346 138.8 207.345 138.8 Z" style="fill: rgb(30, 30, 30);" transform="matrix(0.965926, -0.258819, 0.258819, 0.965926, -29.017463, 58.161348)"/>
  <path id="path5" d="M 303.439 107.34 C 278.396 107.34 240.172 109.275 217.001 110.867 C 216.929 110.873 216.858 110.896 216.796 110.936 C 216.881 110.881 216.786 110.939 216.728 110.977 C 216.67 111.014 216.584 111.068 216.509 111.154 C 216.361 111.326 216.268 111.676 216.386 111.988 C 216.386 111.993 216.386 111.998 216.386 112.001 C 218.235 116.724 224.134 133.849 230.207 151.235 C 236.28 168.62 242.518 186.262 245.121 192.176 C 247.932 198.56 251.321 204.121 256.125 208.102 C 260.93 212.083 267.151 214.445 275.483 214.445 L 303.164 214.445 L 326.594 214.445 L 354.275 214.445 C 362.606 214.445 368.814 212.083 373.618 208.102 C 378.424 204.121 381.812 198.56 384.622 192.176 C 387.227 186.262 393.464 168.62 399.537 151.235 C 405.61 133.85 411.523 116.725 413.371 112.001 C 413.371 111.997 413.371 111.992 413.371 111.988 C 413.49 111.676 413.383 111.326 413.234 111.154 C 413.164 111.068 413.09 111.013 413.033 110.976 C 412.976 110.939 412.866 110.881 412.95 110.935 C 412.888 110.895 412.818 110.872 412.744 110.867 C 389.573 109.274 351.367 107.34 326.323 107.34 L 303.439 107.34 L 303.439 107.34 Z M 303.439 108.215 L 326.323 108.215 C 351.269 108.215 389.357 110.14 412.525 111.729 C 410.633 116.568 404.779 133.598 398.718 150.948 C 392.647 168.332 386.387 186.022 383.832 191.822 C 381.051 198.139 377.711 203.579 373.06 207.434 C 368.408 211.287 362.443 213.571 354.278 213.571 L 326.597 213.571 L 303.165 213.571 L 275.484 213.571 C 267.318 213.571 261.34 211.287 256.688 207.434 C 252.033 203.58 248.709 198.138 245.927 191.822 C 243.373 186.021 237.1 168.331 231.028 150.947 C 224.965 133.599 219.112 116.57 217.22 111.729 C 240.388 110.14 278.487 108.215 303.439 108.215 L 303.439 108.215 Z" style="fill: rgb(30, 30, 30);" transform="matrix(0.965926, -0.258819, 0.258819, 0.965926, -30.912854, 86.97848)"/>
  <path id="line7" d="M 396.982 87.453 C 396.74 87.464 396.553 87.669 396.563 87.91 C 396.574 88.152 396.779 88.339 397.02 88.328 C 397.021 88.328 397.022 88.328 397.023 88.328 L 398.991 88.424 C 399.232 88.436 399.437 88.25 399.449 88.008 C 399.462 87.767 399.275 87.562 399.034 87.55 C 399.033 87.55 399.033 87.55 399.032 87.55 L 397.077 87.454 C 397.046 87.45 397.013 87.45 396.982 87.453 L 396.982 87.453 Z" style="fill: rgb(30, 30, 30);" transform="matrix(0.965926, -0.258819, 0.258819, 0.965926, -9.198227, 106.007897)"/>
  <path id="path9" d="M 301.266 114.074 C 284.559 114.074 267.728 114.25 261.487 114.635 C 255.886 114.981 249.342 115.56 243.565 116.986 C 237.788 118.413 232.744 120.673 230.223 124.491 C 227.664 128.366 228.548 134.323 230.114 139.665 C 231.679 145.007 234.008 149.819 234.529 151.189 C 235.074 152.619 238.347 161.547 241.979 170.97 C 245.612 180.392 249.578 190.282 251.603 193.84 C 254.165 198.342 256.781 202.293 261.172 205.104 C 265.564 207.914 271.688 209.547 281.212 209.547 L 303.48 209.547 L 326.774 209.547 L 349.029 209.547 C 358.553 209.547 364.678 207.914 369.069 205.104 C 373.46 202.293 376.075 198.342 378.638 193.84 C 380.663 190.282 384.629 180.392 388.261 170.97 C 391.895 161.547 395.18 152.619 395.725 151.189 C 396.247 149.82 398.561 145.007 400.127 139.665 C 401.693 134.324 402.59 128.366 400.031 124.491 C 397.52 120.672 392.477 118.412 386.702 116.985 C 380.923 115.559 374.379 114.98 368.78 114.634 C 362.538 114.249 345.697 114.074 328.987 114.074 L 301.278 114.074 L 301.266 114.074 Z M 301.266 114.949 L 328.975 114.95 C 345.676 114.95 362.554 115.13 368.714 115.51 C 374.295 115.854 380.79 116.431 386.471 117.834 C 392.153 119.237 396.984 121.47 399.293 124.969 C 401.566 128.41 400.833 134.164 399.293 139.418 C 397.753 144.671 395.487 149.344 394.906 150.874 C 394.345 152.343 391.071 161.24 387.441 170.655 C 383.813 180.069 379.807 190.027 377.887 193.402 C 375.341 197.872 372.816 201.671 368.605 204.364 C 364.393 207.059 358.452 208.671 349.029 208.671 L 326.774 208.671 L 303.48 208.671 L 281.212 208.671 C 271.789 208.671 265.862 207.059 261.651 204.364 C 257.439 201.67 254.914 197.872 252.368 193.402 C 250.448 190.027 246.429 180.069 242.8 170.655 C 239.173 161.241 235.914 152.343 235.354 150.874 C 234.771 149.344 232.492 144.672 230.953 139.418 C 229.412 134.164 228.68 128.411 230.953 124.969 C 233.262 121.47 238.094 119.236 243.775 117.834 C 249.456 116.43 255.964 115.854 261.546 115.509 C 267.706 115.129 284.57 114.949 301.271 114.949 L 301.266 114.949 Z" style="fill: rgb(30, 30, 30);" transform="matrix(0.965926, -0.258819, 0.258819, 0.965926, -31.142035, 87.073677)"/>
  <path id="path11" d="M 266.685 119.534 C 265.419 119.534 264.375 120.565 264.375 121.83 L 264.375 197.63 C 264.375 198.896 265.419 199.926 266.685 199.926 L 362.458 199.926 C 363.724 199.926 364.754 198.896 364.754 197.63 L 364.754 121.83 C 364.754 120.565 363.724 119.534 362.458 119.534 L 266.685 119.534 Z M 266.685 120.408 L 362.458 120.408 C 363.251 120.408 363.879 121.037 363.879 121.83 L 363.879 197.63 C 363.879 198.423 363.251 199.051 362.458 199.051 L 266.685 199.051 C 265.891 199.051 265.25 198.423 265.25 197.63 L 265.25 121.83 C 265.25 121.037 265.891 120.408 266.685 120.408 Z" style="fill: rgb(30, 30, 30);" transform="matrix(0.965926, -0.258819, 0.258819, 0.965926, -30.622634, 86.857926)"/>
  <path id="path13" d="M 271.833 126.577 C 271.368 126.577 270.986 126.959 270.986 127.424 L 270.986 191.907 C 270.986 192.372 271.368 192.755 271.833 192.755 L 357.256 192.755 C 357.722 192.755 358.104 192.372 358.104 191.907 L 358.104 127.425 C 358.104 126.959 357.722 126.577 357.256 126.577 L 271.833 126.577 Z M 271.861 127.451 L 357.232 127.452 L 357.232 191.878 L 271.861 191.878 L 271.861 127.451 Z" style="fill: rgb(30, 30, 30);" transform="matrix(0.965926, -0.258819, 0.258819, 0.965926, -30.606738, 86.850703)"/>
  <path id="circle15" d="M 252.358 164.009 C 251.226 164.009 250.307 164.94 250.307 166.073 C 250.307 167.205 251.225 168.137 252.358 168.137 C 253.49 168.137 254.422 167.206 254.422 166.073 C 254.422 164.94 253.49 164.009 252.358 164.009 Z" style="fill: rgb(30, 30, 30);" transform="matrix(0.965926, -0.258819, 0.258819, 0.965926, -34.383732, 70.975501)"/>
  <path id="circle17" d="M 213.361 172.739 C 203.499 172.739 195.495 180.744 195.495 190.606 C 195.495 200.468 203.5 208.473 213.361 208.473 C 223.223 208.473 231.228 200.468 231.228 190.606 C 231.228 180.746 223.223 172.741 213.361 172.741 L 213.361 172.739 Z M 213.361 173.613 C 222.75 173.613 230.353 181.216 230.353 190.605 C 230.353 199.995 222.751 207.598 213.361 207.598 C 203.972 207.598 196.369 199.995 196.369 190.605 C 196.369 181.218 203.971 173.615 213.361 173.615 L 213.361 173.613 Z" style="fill: rgb(30, 30, 30);" transform="matrix(0.965926, -0.258819, 0.258819, 0.965926, -42.062336, 61.716739)"/>
  <path id="circle19" d="M 213.359 174.665 C 204.564 174.665 197.434 181.81 197.434 190.604 C 197.434 199.399 204.565 206.529 213.359 206.529 C 222.154 206.529 229.298 199.398 229.298 190.604 C 229.298 181.81 222.154 174.665 213.359 174.665 Z M 213.359 175.54 C 221.681 175.54 228.423 182.282 228.423 190.604 C 228.423 198.927 221.681 205.655 213.359 205.655 C 205.037 205.655 198.309 198.926 198.309 190.604 C 198.309 182.283 205.038 175.54 213.359 175.54 Z" style="fill: rgb(30, 30, 30);" transform="matrix(0.965926, -0.258819, 0.258819, 0.965926, -42.059853, 61.717595)"/>
  <path id="path21" d="M 211.4 175.624 C 209.636 175.62 207.873 175.83 206.629 176.335 C 206.462 176.402 206.354 176.565 206.355 176.744 L 206.355 184.386 L 205.795 184.386 C 205.554 184.388 205.359 184.586 205.361 184.827 C 205.362 184.938 205.405 185.045 205.48 185.125 L 211.071 190.715 C 211.239 190.889 211.516 190.893 211.69 190.726 C 211.693 190.722 211.697 190.719 211.701 190.715 L 217.291 185.125 C 217.457 184.949 217.45 184.673 217.274 184.506 C 217.194 184.431 217.087 184.387 216.976 184.387 L 216.416 184.387 L 216.416 176.745 C 216.418 176.565 216.309 176.403 216.142 176.336 C 214.919 175.85 213.163 175.629 211.399 175.625 L 211.4 175.624 Z M 211.4 176.498 C 212.969 176.502 214.495 176.726 215.542 177.086 L 215.542 184.783 L 215.542 184.824 C 215.547 185.041 215.71 185.221 215.925 185.248 L 211.387 189.789 L 206.848 185.248 C 206.937 185.232 207.018 185.189 207.081 185.125 L 207.108 185.098 C 207.189 185.013 207.234 184.9 207.231 184.783 L 207.231 177.086 C 208.29 176.713 209.83 176.494 211.4 176.498 L 211.4 176.498 Z" style="fill: rgb(30, 30, 30);" transform="matrix(0.965926, -0.258819, 0.258819, 0.965926, -40.2222, 60.954306)"/>
  <path id="path23" d="M 207.482 186.55 C 207.278 186.595 207.135 186.779 207.14 186.987 L 207.14 187.548 L 199.498 187.548 C 199.323 187.552 199.167 187.659 199.102 187.821 C 198.616 189.045 198.381 190.801 198.377 192.565 C 198.373 194.329 198.597 196.092 199.102 197.336 C 199.171 197.493 199.326 197.594 199.498 197.596 L 207.14 197.596 L 207.14 198.17 C 207.142 198.412 207.339 198.606 207.581 198.604 C 207.698 198.603 207.81 198.555 207.892 198.471 L 213.482 192.884 C 213.65 192.714 213.65 192.439 213.482 192.269 L 207.891 186.679 C 207.785 186.569 207.63 186.522 207.481 186.556 L 207.482 186.55 Z M 208.015 188.027 L 212.553 192.565 L 208.015 197.117 C 207.999 197.028 207.956 196.945 207.891 196.881 L 207.851 196.85 C 207.772 196.767 207.664 196.719 207.55 196.714 L 199.84 196.714 C 199.469 195.656 199.248 194.129 199.252 192.559 C 199.256 190.99 199.48 189.464 199.84 188.417 L 207.55 188.417 L 207.577 188.417 C 207.804 188.418 207.993 188.246 208.014 188.02 L 208.015 188.027 Z" style="fill: rgb(30, 30, 30);" transform="matrix(0.965926, -0.258819, 0.258819, 0.965926, -42.822931, 59.876575)"/>
  <path id="path25" d="M 215.237 190.361 C 215.154 190.38 215.078 190.423 215.018 190.484 L 209.428 196.075 C 209.254 196.243 209.25 196.52 209.417 196.693 C 209.502 196.782 209.62 196.83 209.742 196.827 L 210.303 196.827 L 210.303 204.455 C 210.303 204.639 210.417 204.802 210.59 204.865 C 211.813 205.351 213.556 205.572 215.319 205.576 C 217.083 205.581 218.846 205.37 220.09 204.865 C 220.257 204.798 220.365 204.635 220.363 204.455 L 220.363 196.827 L 220.924 196.827 C 221.165 196.833 221.366 196.643 221.373 196.402 C 221.375 196.279 221.327 196.16 221.239 196.075 L 215.648 190.484 C 215.542 190.374 215.386 190.328 215.237 190.361 L 215.237 190.361 Z M 215.333 191.414 L 219.871 195.953 C 219.787 195.971 219.711 196.014 219.652 196.075 L 219.611 196.101 C 219.53 196.185 219.485 196.299 219.488 196.416 L 219.488 204.125 C 218.429 204.498 216.89 204.703 215.319 204.7 C 213.75 204.695 212.224 204.486 211.177 204.125 L 211.177 196.416 L 211.177 196.388 C 211.179 196.166 211.014 195.978 210.794 195.951 L 215.333 191.412 L 215.333 191.414 Z" style="fill: rgb(30, 30, 30);" transform="matrix(0.965926, -0.258819, 0.258819, 0.965926, -43.899321, 62.477867)"/>
  <path id="path27" d="M 219.087 182.603 C 218.989 182.613 218.897 182.657 218.827 182.726 L 213.236 188.316 C 213.068 188.486 213.068 188.76 213.236 188.931 L 218.827 194.521 C 218.995 194.695 219.272 194.699 219.445 194.532 C 219.53 194.451 219.578 194.338 219.579 194.221 L 219.579 193.646 L 227.22 193.646 C 227.395 193.643 227.551 193.536 227.617 193.373 C 228.103 192.15 228.336 190.407 228.341 188.643 C 228.346 186.879 228.122 185.116 227.617 183.872 C 227.551 183.71 227.395 183.603 227.22 183.599 L 219.579 183.599 L 219.579 183.038 C 219.581 182.797 219.386 182.6 219.145 182.597 C 219.126 182.598 219.107 182.6 219.087 182.603 L 219.087 182.603 Z M 218.718 184.092 C 218.733 184.174 218.77 184.251 218.828 184.312 L 218.869 184.353 C 218.949 184.431 219.057 184.475 219.169 184.476 L 226.879 184.476 C 227.251 185.535 227.471 187.074 227.467 188.645 C 227.463 190.209 227.237 191.726 226.879 192.773 L 219.169 192.773 L 219.142 192.773 C 218.925 192.77 218.738 192.927 218.705 193.142 L 214.168 188.619 L 218.721 184.095 L 218.718 184.092 Z" style="fill: rgb(30, 30, 30);" transform="matrix(0.965926, -0.258819, 0.258819, 0.965926, -41.298879, 63.555213)"/>
  <path id="path29" d="M 201.683 182.808 C 201.495 182.808 201.304 182.872 201.163 183.013 C 200.882 183.295 200.882 183.771 201.163 184.052 L 202.736 185.611 C 203.018 185.892 203.479 185.892 203.761 185.611 C 204.043 185.329 204.043 184.853 203.761 184.572 L 202.202 183.013 C 202.061 182.878 201.871 182.812 201.683 182.812 L 201.683 182.808 Z" style="fill: rgb(30, 30, 30);" transform="matrix(0.965926, -0.258819, 0.258819, 0.965926, -40.805454, 58.681474)"/>
  <path id="path31" d="M 207.858 199.987 C 207.671 199.987 207.48 200.051 207.339 200.192 L 205.781 201.764 L 205.781 201.778 C 205.508 202.06 205.489 202.511 205.767 202.789 C 206.049 203.072 206.524 203.07 206.806 202.789 L 208.365 201.23 C 208.647 200.949 208.647 200.474 208.365 200.191 C 208.224 200.051 208.047 199.987 207.858 199.987 L 207.858 199.987 Z" style="fill: rgb(30, 30, 30);" transform="matrix(0.965926, -0.258819, 0.258819, 0.965926, -45.094585, 60.459809)"/>
  <path id="path33" d="M 223.479 195.382 C 223.291 195.382 223.1 195.446 222.959 195.587 C 222.676 195.869 222.677 196.344 222.959 196.626 L 224.518 198.185 C 224.799 198.467 225.275 198.467 225.557 198.185 C 225.84 197.903 225.838 197.441 225.557 197.158 L 223.999 195.589 C 223.857 195.447 223.667 195.383 223.479 195.383 L 223.479 195.382 Z" style="fill: rgb(30, 30, 30);" transform="matrix(0.965926, -0.258819, 0.258819, 0.965926, -43.317277, 64.751011)"/>
  <path id="path35" d="M 220.433 178.202 C 220.245 178.202 220.054 178.265 219.913 178.407 L 218.355 179.964 C 218.073 180.246 218.073 180.721 218.355 181.003 C 218.637 181.284 219.098 181.284 219.38 181.003 L 220.952 179.445 C 221.236 179.164 221.235 178.688 220.952 178.406 C 220.812 178.265 220.621 178.201 220.433 178.201 L 220.433 178.202 Z" style="fill: rgb(30, 30, 30);" transform="matrix(0.965926, -0.258819, 0.258819, 0.965926, -39.027149, 62.974009)"/>
  <path id="path37" d="M 219.144 110.411 C 212.505 110.885 207.381 111.311 204.559 111.641 C 198.345 112.366 194.724 112.759 192.324 114.307 C 191.124 115.08 190.258 116.15 189.603 117.615 C 188.949 119.081 188.481 120.946 188.018 123.384 C 183.446 147.489 182.842 189.302 183.671 209.83 C 184.085 220.077 184.264 228.329 187.895 234.478 C 191.526 240.626 198.584 244.509 212.418 246.07 C 240.017 249.184 293.848 249.597 305.663 249.597 L 334.342 249.597 C 346.156 249.597 399.971 249.183 427.569 246.07 C 441.403 244.509 448.462 240.627 452.093 234.478 C 455.724 228.329 455.916 220.078 456.331 209.83 C 457.16 189.298 456.541 147.487 451.97 123.384 C 451.507 120.946 451.039 119.081 450.384 117.615 C 449.729 116.15 448.864 115.08 447.664 114.307 C 445.264 112.76 441.656 112.366 435.442 111.641 C 432.619 111.311 427.495 110.885 420.857 110.41 C 420.824 110.407 420.792 110.407 420.76 110.41 C 420.558 110.438 420.356 110.498 420.186 110.629 C 420.023 110.757 419.928 110.941 419.858 111.122 C 419.858 111.124 419.845 111.12 419.844 111.122 C 419.844 111.123 419.845 111.133 419.844 111.135 C 419.008 113.273 417.334 117.946 415.183 124.067 C 415.181 124.072 415.185 124.075 415.183 124.08 C 415.007 124.576 414.977 125.078 415.183 125.502 C 415.391 125.93 415.807 126.234 416.319 126.431 C 419.626 127.707 421.95 130.934 421.95 134.702 C 421.95 139.612 417.99 143.587 413.079 143.587 C 412.159 143.587 411.274 143.436 410.441 143.177 L 410.441 143.19 C 409.893 143.009 409.391 143.04 409.005 143.245 C 408.619 143.449 408.373 143.786 408.199 144.106 C 408.183 144.128 408.169 144.15 408.158 144.174 C 401.127 164.326 393.118 187.163 390.236 193.783 C 385.171 205.421 376.052 215.055 359.027 215.055 L 332.589 215.055 L 307.396 215.055 L 280.958 215.055 C 263.933 215.055 254.815 205.421 249.75 193.783 C 247.221 187.974 240.737 169.662 234.44 151.653 C 228.144 133.65 222.023 115.947 220.14 111.135 C 220.139 111.131 220.141 111.124 220.14 111.122 L 220.127 111.122 C 220.048 110.937 219.954 110.752 219.79 110.625 C 219.622 110.494 219.417 110.433 219.216 110.406 C 219.189 110.403 219.161 110.403 219.134 110.406 L 219.144 110.411 Z M 219.157 111.286 C 219.209 111.298 219.257 111.319 219.267 111.327 C 219.279 111.337 219.301 111.346 219.335 111.436 C 219.335 111.441 219.335 111.446 219.335 111.449 C 221.183 116.171 227.321 133.928 233.62 151.94 C 239.918 169.952 246.366 188.215 248.944 194.139 C 254.094 205.97 263.603 215.929 280.959 215.929 L 307.397 215.929 L 332.591 215.929 L 359.029 215.929 C 376.385 215.929 385.894 205.97 391.044 194.139 C 393.979 187.396 401.94 164.655 408.966 144.516 C 408.97 144.509 408.976 144.509 408.979 144.503 C 409.101 144.283 409.25 144.113 409.417 144.024 C 409.589 143.933 409.794 143.887 410.169 144.011 C 410.173 144.011 410.178 144.011 410.182 144.011 C 411.099 144.297 412.071 144.462 413.08 144.462 C 418.463 144.462 422.827 140.085 422.827 134.702 C 422.827 130.573 420.275 127.016 416.633 125.612 C 416.251 125.464 416.06 125.29 415.978 125.119 C 415.895 124.948 415.876 124.725 416.005 124.367 C 418.162 118.233 419.845 113.548 420.668 111.447 C 420.668 111.442 420.668 111.438 420.668 111.433 C 420.701 111.344 420.723 111.334 420.736 111.324 C 420.745 111.318 420.792 111.294 420.833 111.283 C 427.438 111.755 432.554 112.189 435.336 112.513 C 441.549 113.238 445.091 113.681 447.202 115.042 C 448.257 115.722 448.989 116.628 449.594 117.981 C 450.198 119.333 450.654 121.133 451.111 123.544 C 455.651 147.481 456.285 189.335 455.459 209.803 C 455.044 220.056 454.806 228.164 451.344 234.026 C 447.882 239.888 441.183 243.662 427.476 245.208 C 399.995 248.308 346.135 248.721 334.342 248.721 L 305.663 248.721 C 293.87 248.721 240.012 248.308 212.528 245.208 C 198.82 243.66 192.107 239.884 188.645 234.023 C 185.184 228.16 184.959 220.056 184.544 209.802 C 183.718 189.334 184.338 147.48 188.878 123.543 C 189.335 121.131 189.804 119.332 190.409 117.979 C 191.013 116.626 191.745 115.721 192.8 115.04 C 194.911 113.68 198.441 113.236 204.653 112.511 C 207.434 112.186 212.551 111.753 219.156 111.281 L 219.157 111.286 Z" style="fill: rgb(30, 30, 30);" transform="matrix(0.965926, -0.258819, 0.258819, 0.965926, -35.683783, 88.955408)"/>
  <path id="path39" d="M 400.831 103.778 C 400.561 103.711 400.25 103.673 399.942 103.805 C 399.634 103.937 399.413 104.214 399.258 104.584 C 399.253 104.593 399.249 104.602 399.244 104.611 L 394.952 117.31 L 394.952 117.324 C 394.857 117.587 394.8 117.816 394.788 118.035 C 394.777 118.258 394.819 118.485 394.939 118.664 C 395.181 119.023 395.531 119.117 395.883 119.252 C 395.895 119.257 395.909 119.262 395.924 119.265 C 396.667 119.49 397.445 119.608 398.26 119.608 C 402.743 119.608 406.395 115.97 406.395 111.488 C 406.395 107.915 404.084 104.877 400.872 103.791 C 400.858 103.787 400.844 103.782 400.831 103.778 L 400.831 103.778 Z M 400.283 104.611 C 400.325 104.594 400.435 104.584 400.612 104.625 C 400.619 104.627 400.618 104.624 400.626 104.625 C 403.467 105.605 405.519 108.307 405.519 111.488 C 405.519 115.497 402.27 118.733 398.26 118.733 C 397.531 118.733 396.832 118.632 396.169 118.432 C 395.853 118.307 395.674 118.203 395.662 118.185 C 395.657 118.176 395.643 118.176 395.649 118.09 C 395.654 118.003 395.69 117.847 395.772 117.625 C 395.772 117.62 395.772 117.615 395.772 117.612 L 400.064 104.926 C 400.07 104.913 400.073 104.924 400.078 104.912 L 400.078 104.898 C 400.171 104.696 400.243 104.629 400.283 104.611 L 400.283 104.611 Z" style="fill: rgb(30, 30, 30);" transform="matrix(0.965926, -0.258819, 0.258819, 0.965926, -15.250563, 107.485253)"/>
  <path id="circle41" d="M 400.975 110.412 C 400.131 110.412 399.445 111.113 399.445 111.957 C 399.445 112.801 400.131 113.487 400.975 113.487 C 401.819 113.487 402.52 112.8 402.52 111.957 C 402.52 111.113 401.819 110.412 400.975 110.412 Z" style="fill: rgb(30, 30, 30);" transform="matrix(0.965926, -0.258819, 0.258819, 0.965926, -15.311517, 107.596455)"/>
  <path id="circle43" d="M 409.127 141.041 C 404.801 141.041 401.295 144.548 401.295 148.873 C 401.295 153.198 404.802 156.72 409.127 156.72 C 413.451 156.72 416.973 153.198 416.973 148.873 C 416.973 144.549 413.451 141.041 409.127 141.041 Z M 409.127 141.916 C 412.979 141.916 416.099 145.021 416.099 148.873 C 416.099 152.725 412.98 155.845 409.127 155.845 C 405.275 155.845 402.17 152.726 402.17 148.873 C 402.169 145.021 405.275 141.916 409.127 141.916 Z" style="fill: rgb(30, 30, 30);" transform="matrix(0.965926, -0.258819, 0.258819, 0.965926, -24.592202, 110.964612)"/>
  <path id="circle47" d="M 424.783 120.658 C 420.458 120.658 416.95 124.179 416.95 128.504 C 416.95 132.829 420.458 136.337 424.783 136.337 C 429.107 136.337 432.629 132.829 432.629 128.504 C 432.629 124.181 429.107 120.658 424.783 120.658 L 424.783 120.658 Z M 424.783 121.533 C 428.635 121.533 431.755 124.653 431.755 128.505 C 431.755 132.357 428.635 135.463 424.783 135.463 C 420.931 135.463 417.825 132.357 417.825 128.505 C 417.825 124.653 420.93 121.533 424.783 121.533 Z" style="fill: rgb(30, 30, 30);" transform="matrix(0.965926, -0.258819, 0.258819, 0.965926, -18.783246, 114.322018)"/>
  <path id="path51" d="M 430.304 121.188 C 425.016 121.188 420.721 125.483 420.721 130.77 C 420.721 130.869 420.718 130.959 420.721 131.057 C 420.722 131.062 420.721 131.067 420.721 131.071 C 420.722 131.32 420.746 131.557 420.721 131.727 C 420.696 131.901 420.655 131.982 420.544 132.069 C 418.467 133.643 416.363 135.452 414.268 137.468 C 414.012 137.643 413.807 137.612 413.476 137.496 C 413.472 137.494 413.467 137.498 413.463 137.496 C 412.363 137.056 411.163 136.812 409.909 136.812 C 404.622 136.812 400.326 141.107 400.326 146.394 C 400.326 148.296 400.886 150.07 401.844 151.562 C 401.844 151.566 401.844 151.57 401.844 151.575 C 401.955 151.748 402.013 151.88 402.035 151.999 C 402.054 152.106 402.051 152.22 401.981 152.381 C 401.973 152.399 401.976 152.403 401.967 152.422 C 398.336 158.083 395.907 163.543 394.941 168.115 C 393.972 172.699 394.449 176.462 396.855 178.505 C 398.366 179.787 400.45 180.208 402.843 179.926 C 405.234 179.644 407.959 178.661 410.881 177.096 C 416.723 173.965 423.34 168.477 429.389 161.348 C 435.439 154.22 439.786 146.803 441.925 140.529 C 442.994 137.393 443.512 134.542 443.401 132.135 C 443.291 129.729 442.533 127.744 441.023 126.462 C 440.359 125.899 439.589 125.504 438.726 125.259 C 438.694 125.252 438.662 125.249 438.63 125.25 C 438.501 125.244 438.148 125.161 437.851 124.854 C 436.096 122.622 433.362 121.19 430.305 121.19 L 430.304 121.188 Z M 430.304 122.063 C 433.103 122.063 435.586 123.376 437.18 125.426 C 437.192 125.441 437.206 125.454 437.221 125.467 C 437.654 125.913 438.125 126.059 438.478 126.096 C 438.482 126.096 438.489 126.095 438.491 126.096 C 439.241 126.31 439.899 126.659 440.46 127.135 C 441.742 128.223 442.421 129.932 442.524 132.179 C 442.627 134.426 442.134 137.193 441.089 140.258 C 438.997 146.387 434.707 153.734 428.717 160.791 C 422.727 167.849 416.177 173.275 410.468 176.334 C 407.614 177.863 404.979 178.79 402.744 179.054 C 400.51 179.318 398.709 178.926 397.428 177.837 C 395.386 176.105 394.85 172.725 395.787 168.296 C 396.724 163.867 399.117 158.471 402.718 152.863 C 402.728 152.85 402.737 152.836 402.745 152.822 C 402.91 152.489 402.951 152.136 402.896 151.837 C 402.841 151.54 402.704 151.31 402.568 151.099 C 401.698 149.744 401.201 148.128 401.201 146.397 C 401.201 141.582 405.095 137.689 409.908 137.689 C 411.054 137.689 412.147 137.916 413.149 138.317 C 413.153 138.317 413.158 138.317 413.162 138.317 C 413.607 138.475 414.222 138.562 414.761 138.195 C 414.78 138.183 414.798 138.169 414.815 138.153 C 416.905 136.138 419.011 134.334 421.076 132.768 C 421.392 132.521 421.537 132.158 421.582 131.853 C 421.627 131.547 421.595 131.27 421.595 131.06 C 421.595 131.055 421.595 131.05 421.595 131.047 C 421.593 130.954 421.595 130.866 421.595 130.773 C 421.595 125.958 425.489 122.065 430.304 122.065 L 430.304 122.063 Z" style="fill: rgb(30, 30, 30);" transform="matrix(0.965926, -0.258819, 0.258819, 0.965926, -24.702688, 113.561987)"/>
  <path id="path53" d="M 216.468 170.116 C 212.213 170.116 208.287 171.464 205.013 173.67 C 203.758 174.516 202.651 174.714 201.636 174.572 C 200.622 174.43 199.685 173.937 198.902 173.314 C 197.336 172.068 196.387 170.362 196.387 170.362 C 196.268 170.15 195.998 170.075 195.786 170.194 C 195.574 170.313 195.499 170.583 195.619 170.795 C 195.619 170.796 195.62 170.798 195.621 170.799 C 195.621 170.799 196.637 172.62 198.369 173.998 C 199.235 174.687 200.292 175.278 201.513 175.447 C 202.733 175.617 204.098 175.342 205.504 174.395 C 208.648 172.276 212.399 170.991 216.467 170.991 C 227.134 170.991 235.769 179.627 235.769 190.293 C 235.769 195.903 235.479 205.492 231.874 214.27 C 228.268 223.048 221.409 231.007 208.088 233.517 C 207.85 233.562 207.694 233.791 207.738 234.028 C 207.782 234.267 208.012 234.423 208.25 234.378 C 208.25 234.378 208.251 234.378 208.252 234.378 C 221.852 231.815 229.009 223.567 232.694 214.598 C 236.379 205.627 236.645 195.932 236.645 190.292 C 236.645 179.154 227.607 170.116 216.468 170.116 L 216.468 170.116 Z" style="fill: rgb(30, 30, 30);" transform="matrix(0.965926, -0.258819, 0.258819, 0.965926, -44.98284, 62.82322)"/>
  <path id="polyline55" d="M 248.536 126.079 L 224.656 127.268 C 224.415 127.275 224.224 127.477 224.232 127.718 C 224.232 127.723 224.232 127.728 224.233 127.732 L 224.303 129.25 C 224.313 129.492 224.518 129.679 224.759 129.667 C 225.001 129.657 225.188 129.452 225.178 129.21 C 225.178 129.21 225.178 129.209 225.178 129.209 L 225.123 128.115 L 248.143 126.981 L 248.198 128.06 C 248.209 128.302 248.413 128.489 248.654 128.478 C 248.896 128.467 249.083 128.262 249.072 128.021 C 249.072 128.021 249.072 128.02 249.072 128.02 L 249.004 126.489 C 248.989 126.248 248.782 126.064 248.541 126.079 C 248.541 126.079 248.541 126.079 248.541 126.079 L 248.536 126.079 Z" style="fill: rgb(30, 30, 30);" transform="matrix(0.965926, -0.258819, 0.258819, 0.965926, -25.032202, 65.607222)"/>
</svg>