<?xml version="1.0" encoding="utf-8"?>
<svg version="1.1" width="149.36205" height="119.0586" id="svg2" xmlns="http://www.w3.org/2000/svg">
  <path d="M 38.09 36.717 C 36.082 33.87 32.771 32.014 29.025 32.014 C 22.894 32.014 17.929 36.982 17.929 43.109 C 17.929 49.235 22.894 54.203 29.025 54.203 C 33.472 54.203 37.31 51.582 39.081 47.802 L 29.287 47.802 L 29.287 42.757 L 44.929 42.757 C 44.934 42.875 44.938 42.992 44.938 43.109 C 44.938 44.74 44.694 46.318 44.236 47.802 C 42.235 54.3 36.183 59.03 29.025 59.03 C 20.234 59.03 13.107 51.899 13.107 43.109 C 13.107 34.317 20.234 27.192 29.025 27.192 C 35.54 27.192 41.138 31.11 43.602 36.717 L 38.09 36.717 Z" id="path68" style="fill-opacity: 1; fill-rule: nonzero; stroke: none; fill: rgb(255, 255, 255);"/>
  <path d="M 61.824 27.507 L 61.824 27.508 L 41.711 57.795 L 47.937 57.795 L 52.234 51.326 L 61.824 51.326 L 61.824 57.808 L 67.011 57.808 L 67.011 27.506 L 61.824 27.506 Z M 55.677 46.138 L 61.824 36.885 L 61.824 46.138 L 55.677 46.138 Z" id="path70" style="fill-opacity: 1; fill-rule: nonzero; stroke: none; fill: rgb(255, 255, 255);"/>
  <path d="M 107.632 27.507 L 107.632 27.508 L 93.762 48.386 L 93.762 27.506 L 88.575 27.506 L 88.575 27.507 L 68.461 57.795 L 74.694 57.795 L 88.575 36.885 L 88.575 57.807 L 93.762 57.807 L 93.762 57.771 L 107.632 36.885 L 107.632 57.807 L 112.819 57.807 L 112.819 27.506 L 107.632 27.506 Z" id="path72" style="fill-opacity: 1; fill-rule: nonzero; stroke: none; fill: rgb(255, 255, 255);"/>
  <path d="M 132.772 32.695 L 132.772 27.507 L 117.015 27.507 L 117.015 57.815 L 122.201 57.795 L 132.772 57.795 L 132.772 52.607 L 122.201 52.607 L 122.201 45.544 L 132.772 45.544 L 132.772 40.358 L 122.201 40.358 L 122.201 32.695 L 132.772 32.695 Z" id="path74" style="fill-opacity: 1; fill-rule: nonzero; stroke: none; fill: rgb(255, 255, 255);"/>
  <path d="M 163.627 47.491 C 165.29 43.749 167.787 38.123 167.787 38.123 L 162.699 38.123 L 160.02 44.161 L 156.031 40.478 C 157.857 39.01 159.461 37.154 159.461 34.058 C 159.461 32.396 158.804 30.827 157.62 29.637 C 156.265 28.285 154.359 27.51 152.382 27.51 C 148.959 27.51 145.414 29.959 145.414 34.058 C 145.414 36.913 146.986 38.758 148.547 40.124 C 145.656 42.171 143.139 44.352 143.139 48.848 C 143.139 51.399 144.062 53.72 145.737 55.395 C 147.426 57.086 149.785 58.018 152.382 58.018 C 157.3 58.018 159.74 55.638 161.609 51.958 L 167.641 57.534 L 170.801 54.119 L 163.627 47.491 Z M 150.554 32.873 C 150.992 32.433 151.696 32.163 152.382 32.163 C 153.114 32.163 153.857 32.455 154.329 32.925 C 154.655 33.25 154.814 33.619 154.814 34.058 C 154.814 35.364 154.187 36.075 152.476 37.34 C 150.98 36.143 150.065 35.308 150.065 34.058 C 150.065 33.593 150.225 33.203 150.554 32.873 M 157.932 48.86 C 156.327 52.436 155.187 53.363 152.382 53.363 C 151.005 53.363 149.847 52.926 149.025 52.11 C 148.216 51.299 147.791 50.171 147.791 48.848 C 147.791 46.403 149.047 45.434 152.141 43.29 C 152.157 43.28 152.175 43.266 152.186 43.256 L 158.025 48.65 L 157.932 48.86 Z" id="path86" style="fill-opacity: 1; fill-rule: nonzero; stroke: none; fill: rgb(255, 255, 255);"/>
  <g transform="matrix(1, 0, 0, 1, -450.491669, -333.158234)">
    <path d="M 677.104 361.711 L 677.104 361.711 L 656.992 392 L 663.219 392 L 667.515 385.532 L 677.104 385.532 L 677.104 392.015 L 682.294 392.015 L 682.294 361.711 L 677.104 361.711 Z M 670.957 380.346 L 677.104 371.095 L 677.104 380.346 L 670.957 380.346 Z" id="path76" style="fill-opacity: 1; fill-rule: nonzero; stroke: none; fill: rgb(255, 255, 255);"/>
    <path d="M 634.666 392.015 L 634.666 392.014 L 648.53 371.129 L 648.53 392.015 L 653.717 392.015 L 653.717 392.014 L 653.717 392.014 L 673.831 361.725 L 667.602 361.725 L 653.717 382.632 L 653.717 361.712 L 648.53 361.712 L 648.53 361.752 L 634.666 382.632 L 634.666 361.712 L 629.476 361.712 L 629.476 392.015 L 634.666 392.015 Z" id="path78" style="fill-opacity: 1; fill-rule: nonzero; stroke: none; fill: rgb(255, 255, 255);"/>
    <path d="M 745.839 361.711 L 745.839 373.911 L 736.472 373.911 L 736.472 361.711 L 731.286 361.711 L 731.286 392.01 L 736.472 392.01 L 736.472 379.102 L 745.839 379.102 L 745.839 392.01 L 751.027 392.01 L 751.027 361.711 L 745.839 361.711 Z" id="path80" style="fill-opacity: 1; fill-rule: nonzero; stroke: none; fill: rgb(255, 255, 255);"/>
    <path d="M 701.254 361.711 L 684.321 361.711 L 684.321 366.897 L 690.195 366.897 L 690.195 392.01 L 695.384 392.01 L 695.384 366.897 L 701.254 366.897 L 701.254 361.711 Z" id="path82" style="fill-opacity: 1; fill-rule: nonzero; stroke: none; fill: rgb(255, 255, 255);"/>
    <path d="M 723.955 383.844 C 721.962 386.057 719.081 387.446 715.869 387.446 C 709.856 387.446 704.984 382.575 704.984 376.567 C 704.984 370.557 709.856 365.686 715.869 365.686 C 719.03 365.686 721.879 367.107 723.864 369.291 L 729.941 369.291 C 727.285 364.239 721.979 360.669 715.869 360.669 C 707.089 360.669 699.971 367.787 699.971 376.567 C 699.971 385.346 707.089 392.469 715.869 392.469 C 722.022 392.469 727.357 388.959 730 383.844 L 723.955 383.844 Z" id="path84" style="fill-opacity: 1; fill-rule: nonzero; stroke: none; fill: rgb(255, 255, 255);"/>
  </g>
  <path d="M 3.217 22.368 L 3.217 64.708 C 3.217 64.708 3.217 67.84 21.884 67.84 C 35.678 67.84 185.894 67.84 257.956 67.84 C 261.711 67.84 265.254 67.84 268.555 67.84 C 285.537 67.84 296.096 67.84 296.096 67.84 C 296.096 67.84 312.741 67.84 312.741 64.708 C 312.741 61.325 312.741 22.368 312.741 22.368 C 312.741 22.368 312.741 18.84 296.096 18.84 C 279.456 18.84 21.884 18.84 21.884 18.84 C 21.884 18.84 3.217 18.84 3.217 22.368 Z" id="path2915" style="stroke-width: 1.5; stroke-miterlimit: 4; stroke-opacity: 1; stroke-dasharray: none; stroke-linecap: round; stroke-linejoin: round; fill: none; stroke: rgb(255, 255, 255);"/>
</svg>