<?xml version="1.0" encoding="utf-8"?>
<svg version="1.2" id="Layer_1" x="0px" y="0px" xmlns="http://www.w3.org/2000/svg">
  <g>
    <path d="M 51.159 19.503 C 47.046 13.677 40.266 9.876 32.595 9.876 C 20.04 9.876 9.873 20.046 9.873 32.595 C 9.873 45.138 20.04 55.311 32.595 55.311 C 41.703 55.311 49.56 49.944 53.187 42.201 L 33.132 42.201 L 33.132 31.872 L 65.16 31.872 C 65.172 32.115 65.181 32.352 65.181 32.595 C 65.181 35.934 64.68 39.165 63.744 42.201 C 59.646 55.509 47.253 65.196 32.595 65.196 C 14.595 65.196 0 50.592 0 32.595 C 0 14.589 14.595 0 32.595 0 C 45.936 0 57.399 8.025 62.445 19.503 L 51.159 19.503 Z" id="path68" style="fill-opacity: 1; fill-rule: nonzero; stroke: none; fill: rgb(255, 255, 255);"/>
    <path d="M 99.756 0.645 L 99.756 0.648 L 58.572 62.667 L 71.322 62.667 L 80.121 49.419 L 99.756 49.419 L 99.756 62.691 L 110.379 62.691 L 110.379 0.645 L 99.756 0.645 Z M 87.171 38.796 L 99.756 19.851 L 99.756 38.796 L 87.171 38.796 Z" id="path70" style="fill-opacity: 1; fill-rule: nonzero; stroke: none; fill: rgb(255, 255, 255);"/>
    <path d="M 193.557 0.645 L 193.557 0.648 L 165.156 43.401 L 165.156 0.645 L 154.536 0.645 L 154.536 0.645 L 113.349 62.664 L 126.111 62.664 L 154.536 19.848 L 154.536 62.691 L 165.156 62.691 L 165.156 62.616 L 193.557 19.848 L 193.557 62.691 L 204.177 62.691 L 204.177 0.645 L 193.557 0.645 Z" id="path72" style="fill-opacity: 1; fill-rule: nonzero; stroke: none; fill: rgb(255, 255, 255);"/>
    <path d="M 245.037 11.271 L 245.037 0.645 L 212.769 0.645 L 212.769 62.706 L 223.389 62.667 L 245.037 62.667 L 245.037 52.041 L 223.389 52.041 L 223.389 37.581 L 245.037 37.581 L 245.037 26.961 L 223.389 26.961 L 223.389 11.271 L 245.037 11.271 Z" id="path74" style="fill-opacity: 1; fill-rule: nonzero; stroke: none; fill: rgb(255, 255, 255);"/>
    <path d="M 312.666 42.279 C 316.071 34.614 321.186 23.094 321.186 23.094 L 310.764 23.094 L 305.28 35.46 L 297.111 27.915 C 300.852 24.912 304.137 21.111 304.137 14.769 C 304.137 11.367 302.79 8.154 300.366 5.718 C 297.591 2.949 293.688 1.362 289.641 1.362 C 282.63 1.362 275.37 6.378 275.37 14.769 C 275.37 20.616 278.592 24.393 281.787 27.192 C 275.868 31.383 270.714 35.847 270.714 45.054 C 270.714 50.28 272.604 55.032 276.033 58.461 C 279.492 61.926 284.322 63.831 289.641 63.831 C 299.709 63.831 304.707 58.959 308.532 51.423 L 320.886 62.841 L 327.357 55.848 L 312.666 42.279 Z M 285.897 12.345 C 286.794 11.442 288.237 10.89 289.641 10.89 C 291.138 10.89 292.662 11.49 293.625 12.45 C 294.294 13.116 294.618 13.872 294.618 14.769 C 294.618 17.445 293.337 18.9 289.833 21.492 C 286.77 19.038 284.895 17.331 284.895 14.769 C 284.895 13.818 285.222 13.02 285.897 12.345 M 301.005 45.081 C 297.72 52.404 295.386 54.3 289.641 54.3 C 286.821 54.3 284.451 53.406 282.765 51.735 C 281.109 50.073 280.239 47.766 280.239 45.054 C 280.239 40.05 282.813 38.064 289.146 33.675 C 289.179 33.654 289.215 33.627 289.239 33.606 L 301.194 44.652 L 301.005 45.081 Z" id="path86" style="fill-opacity: 1; fill-rule: nonzero; stroke: none; fill: rgb(255, 255, 255);"/>
    <path style="fill-opacity: 1; fill-rule: nonzero; stroke: none; fill: rgb(255, 255, 255);" id="path76" d="M 448.629 2.175 L 448.629 2.175 L 407.445 64.197 L 420.195 64.197 L 428.994 50.952 L 448.629 50.952 L 448.629 64.227 L 459.255 64.227 L 459.255 2.175 L 448.629 2.175 Z M 436.041 40.332 L 448.629 21.39 L 448.629 40.332 L 436.041 40.332 Z"/>
    <path style="fill-opacity: 1; fill-rule: nonzero; stroke: none; fill: rgb(255, 255, 255);" id="path78" d="M 361.728 64.227 L 361.728 64.224 L 390.117 21.459 L 390.117 64.227 L 400.74 64.227 L 400.74 64.224 L 400.74 64.224 L 441.927 2.202 L 429.171 2.202 L 400.74 45.012 L 400.74 2.175 L 390.117 2.175 L 390.117 2.256 L 361.728 45.012 L 361.728 2.175 L 351.102 2.175 L 351.102 64.227 L 361.728 64.227 Z"/>
    <path style="fill-opacity: 1; fill-rule: nonzero; stroke: none; fill: rgb(255, 255, 255);" id="path80" d="M 589.374 2.175 L 589.374 27.156 L 570.195 27.156 L 570.195 2.175 L 559.575 2.175 L 559.575 64.215 L 570.195 64.215 L 570.195 37.785 L 589.374 37.785 L 589.374 64.215 L 600 64.215 L 600 2.175 L 589.374 2.175 Z"/>
    <path style="fill-opacity: 1; fill-rule: nonzero; stroke: none; fill: rgb(255, 255, 255);" id="path82" d="M 498.078 2.175 L 463.407 2.175 L 463.407 12.795 L 475.434 12.795 L 475.434 64.215 L 486.06 64.215 L 486.06 12.795 L 498.078 12.795 L 498.078 2.175 Z"/>
    <path style="fill-opacity: 1; fill-rule: nonzero; stroke: none; fill: rgb(255, 255, 255);" id="path84" d="M 544.563 47.493 C 540.483 52.026 534.585 54.87 528.006 54.87 C 515.694 54.87 505.716 44.895 505.716 32.595 C 505.716 20.289 515.694 10.314 528.006 10.314 C 534.48 10.314 540.312 13.224 544.377 17.697 L 556.821 17.697 C 551.382 7.35 540.516 0.039 528.006 0.039 C 510.027 0.039 495.453 14.616 495.453 32.595 C 495.453 50.571 510.027 65.157 528.006 65.157 C 540.606 65.157 551.532 57.969 556.941 47.493 L 544.563 47.493 Z"/>
  </g>
</svg>