<?xml version="1.0" encoding="utf-8"?>
<svg xmlns="http://www.w3.org/2000/svg">
  <path id="path7" d="M 264.273 103.101 C 258.291 103.101 254.607 103.485 250.046 104.896 C 245.484 106.306 240.063 108.719 230.459 112.799 C 211.291 120.943 204.661 120.357 199.056 121.055 C 196.023 121.433 194.025 122.564 192.732 125.122 C 191.439 127.68 190.765 131.596 190.011 137.758 C 188.503 150.071 185.992 173.314 185.74 191.429 C 185.615 200.445 184.719 209.154 185.985 216.591 C 187.251 224.03 190.761 230.209 199.314 233.893 C 215.127 240.703 224.879 240.085 241.643 246.841 C 258.569 253.663 284.71 256.907 311.867 256.907 L 327.698 256.907 L 328.133 256.907 C 355.291 256.907 381.435 253.662 398.357 246.841 C 415.121 240.085 424.873 240.702 440.685 233.893 C 449.24 230.21 452.749 224.031 454.015 216.59 C 455.281 209.154 454.385 200.445 454.26 191.428 C 454.009 173.31 451.496 150.069 449.989 137.757 C 449.234 131.595 448.561 127.679 447.269 125.121 C 445.976 122.555 443.978 121.426 440.944 121.047 C 435.339 120.348 428.71 120.936 409.536 112.791 C 399.935 108.711 394.499 106.298 389.937 104.888 C 385.376 103.478 381.707 103.093 375.726 103.093 L 329.628 103.093 L 310.356 103.093 L 264.271 103.093 L 264.273 103.101 Z M 264.273 103.97 L 310.358 103.97 L 329.631 103.97 L 375.729 103.97 C 381.675 103.97 385.205 104.34 389.684 105.726 C 394.162 107.109 399.593 109.518 409.203 113.601 C 428.455 121.78 435.378 121.244 440.839 121.924 C 443.723 122.284 445.301 123.172 446.484 125.515 C 447.668 127.858 448.371 131.722 449.123 137.866 C 450.629 150.163 453.144 173.395 453.393 191.441 C 453.52 200.507 454.398 209.197 453.163 216.455 C 451.927 223.714 448.661 229.524 440.349 233.102 C 424.675 239.854 414.923 239.219 398.034 246.025 C 381.398 252.729 355.502 256 328.572 256.035 C 328.427 256.035 328.284 256.035 328.138 256.035 L 311.87 256.035 C 284.782 256.035 258.7 252.765 241.973 246.025 C 225.085 239.221 215.335 239.858 199.66 233.107 C 191.348 229.524 188.083 223.714 186.847 216.459 C 185.611 209.198 186.489 200.51 186.615 191.444 C 186.866 173.399 189.38 150.165 190.886 137.865 C 191.639 131.721 192.328 127.857 193.511 125.514 C 194.695 123.171 196.286 122.283 199.17 121.923 C 204.631 121.243 211.554 121.778 230.808 113.599 C 240.415 109.517 245.833 107.108 250.312 105.724 C 254.791 104.338 258.334 103.968 264.28 103.968 L 264.273 103.97 Z" style="fill: rgb(30, 30, 30);" transform="matrix(0.965926, -0.258819, 0.258819, 0.965926, -35.683669, 88.955367)"/>
  <path id="path13" d="M 316.028 120.008 C 283.607 120.007 266.6 122.658 259.662 123.408 C 256.081 123.795 253.829 125.311 252.454 127.842 C 251.077 130.373 250.519 133.849 250.046 138.288 C 249.096 147.215 245.421 203.249 247.23 219.763 C 247.48 222.039 247.707 225.282 249.964 228.4 C 252.222 231.519 256.477 234.463 264.641 236.331 C 280.883 240.044 302.273 242.315 311.2 242.315 L 329.427 242.315 C 338.352 242.315 359.743 240.044 375.985 236.331 C 384.15 234.462 388.404 231.519 390.662 228.4 C 392.919 225.282 393.147 222.04 393.395 219.763 C 395.205 203.249 391.516 147.215 390.567 138.288 C 390.094 133.85 389.535 130.373 388.159 127.842 C 386.784 125.311 384.533 123.795 380.951 123.408 C 374.015 122.658 357.007 120.008 324.586 120.008 L 316.03 120.008 L 316.028 120.008 Z M 316.028 120.878 L 324.582 120.878 C 356.956 120.878 373.849 123.508 380.852 124.265 C 384.24 124.631 386.134 125.945 387.395 128.263 C 388.655 130.582 389.238 133.97 389.707 138.382 C 390.64 147.162 394.294 203.498 392.523 219.666 C 392.27 221.974 392.058 224.973 389.952 227.882 C 387.845 230.792 383.813 233.648 375.779 235.485 C 359.624 239.18 338.203 241.444 329.425 241.444 L 311.198 241.444 C 302.42 241.444 280.985 239.181 264.831 235.485 C 256.797 233.648 252.764 230.792 250.658 227.882 C 248.552 224.973 248.341 221.974 248.088 219.666 C 246.316 203.496 249.983 147.162 250.916 138.382 C 251.386 133.97 251.955 130.582 253.215 128.263 C 254.476 125.945 256.371 124.631 259.758 124.265 C 266.76 123.508 283.655 120.878 316.028 120.878 L 316.028 120.878 Z" style="fill: rgb(30, 30, 30);" transform="matrix(0.965926, -0.258819, 0.258819, 0.965926, -35.973657, 89.07571)"/>
  <path id="path15" d="M 258.169 132.837 C 257.414 132.837 256.794 133.455 256.794 134.211 L 256.794 213.196 C 256.794 213.95 257.414 214.569 258.169 214.569 L 378.464 214.569 C 379.219 214.569 379.838 213.95 379.838 213.196 L 379.838 212.761 L 379.838 134.21 C 379.838 133.455 379.219 132.836 378.464 132.836 L 258.169 132.836 Z M 258.169 133.707 L 378.464 133.707 C 378.749 133.707 378.968 133.925 378.968 134.21 L 378.968 213.195 C 378.968 213.481 378.749 213.698 378.464 213.698 L 258.169 213.698 C 257.884 213.698 257.665 213.481 257.665 213.195 L 257.665 134.21 C 257.665 133.925 257.884 133.707 258.169 133.707 Z" style="fill: rgb(30, 30, 30);" transform="matrix(0.965926, -0.258819, 0.258819, 0.965926, -34.111152, 88.304986)"/>
  <g id="g17" transform="matrix(0.490656, -0.131471, 0.131471, 0.490656, 149.759796, 132.839966)">
    <path d="M129.542,228.164c0-5.183,4.201-9.384,9.386-9.384l0,0v0.857v0.855c-4.238,0.009-7.665,3.438-7.673,7.671&#10;&#9;&#9;l0,0c0.008,4.236,3.435,7.665,7.673,7.671l0,0c4.236-0.006,7.663-3.435,7.671-7.671l0,0c-0.008-4.233-3.435-7.662-7.671-7.671l0,0&#10;&#9;&#9;v-0.855v-0.857c5.183,0,9.384,4.201,9.384,9.384l0,0c0,5.183-4.201,9.384-9.384,9.386l0,0&#10;&#9;&#9;C133.744,237.548,129.542,233.347,129.542,228.164L129.542,228.164z" style="fill: rgb(30, 30, 30);"/>
    <path d="M96.121,226.993c-4.25-1.081-7.08-4.896-7.08-9.089l0,0c0-0.765,0.093-1.542,0.29-2.314l0,0&#10;&#9;&#9;c1.079-4.25,4.895-7.082,9.091-7.082l0,0c0.762,0,1.539,0.092,2.313,0.292l0,0l40.496,10.271l-0.422,1.659l-40.498-10.271&#10;&#9;&#9;c-0.634-0.163-1.266-0.238-1.889-0.238l0,0c-3.424,0-6.55,2.314-7.43,5.794l0,0c-0.162,0.63-0.238,1.264-0.238,1.89l0,0&#10;&#9;&#9;c0,3.422,2.313,6.549,5.79,7.428l0,0l40.494,10.271h0.002l-0.422,1.662L96.121,226.993L96.121,226.993z" style="fill: rgb(30, 30, 30);"/>
  </g>
  <g id="g23" transform="matrix(0.490656, -0.131471, 0.131471, 0.490656, 149.759796, 132.839966)">
    <path d="M129.542,257.58c0.002-5.183,4.201-9.384,9.386-9.386l0,0v0.858v0.856&#10;&#9;&#9;c-4.236,0.008-7.665,3.437-7.671,7.671l0,0c0.006,4.236,3.435,7.662,7.671,7.671l0,0c4.237-0.009,7.665-3.435,7.671-7.671l0,0&#10;&#9;&#9;c-0.006-4.234-3.434-7.663-7.671-7.671l0,0v-0.856v-0.858c5.185,0.002,9.384,4.203,9.384,9.386l0,0&#10;&#9;&#9;c0,5.183-4.202,9.384-9.384,9.386l0,0C133.745,266.964,129.543,262.763,129.542,257.58L129.542,257.58z" style="fill: rgb(30, 30, 30);"/>
    <path d="M96.123,256.409c-4.251-1.077-7.083-4.896-7.083-9.091l0,0c0-0.765,0.094-1.542,0.291-2.313l0,0&#10;&#9;&#9;c1.079-4.249,4.894-7.082,9.089-7.082l0,0c0.765,0,1.542,0.093,2.315,0.293l0,0l40.497,10.271l-0.422,1.661l-40.499-10.271&#10;&#9;&#9;c-0.634-0.164-1.266-0.238-1.892-0.238l0,0c-3.422,0-6.548,2.313-7.428,5.791l0,0c-0.162,0.63-0.237,1.264-0.237,1.89l0,0&#10;&#9;&#9;c0,3.426,2.313,6.551,5.789,7.43l0,0l40.495,10.271v0.002l-0.422,1.658L96.123,256.409L96.123,256.409z" style="fill: rgb(30, 30, 30);"/>
  </g>
  <path id="path29" d="M 431.122 169.273 C 430.898 169.237 430.662 169.23 430.429 169.287 L 402.124 176.184 C 401.187 176.41 400.617 177.369 400.845 178.304 C 401.072 179.241 402.017 179.826 402.953 179.597 L 431.258 172.702 C 432.194 172.474 432.777 171.515 432.55 170.579 C 432.38 169.877 431.797 169.385 431.122 169.273 L 431.122 169.273 Z M 430.646 170.144 C 431.125 170.028 431.591 170.304 431.707 170.783 C 431.824 171.262 431.532 171.742 431.054 171.858 L 402.749 178.74 C 402.27 178.857 401.804 178.58 401.688 178.101 C 401.571 177.622 401.862 177.142 402.341 177.026 L 430.646 170.144 Z" style="fill: rgb(30, 30, 30);" transform="matrix(0.965926, -0.258819, 0.258819, 0.965926, -30.951308, 113.793163)"/>
  <path id="path31" d="M 432.566 174.658 C 432.342 174.622 432.106 174.628 431.872 174.686 L 403.568 181.583 C 402.631 181.81 402.061 182.768 402.288 183.705 C 402.516 184.64 403.461 185.211 404.397 184.984 L 432.702 178.101 C 433.638 177.874 434.221 176.915 433.994 175.978 C 433.823 175.277 433.241 174.77 432.565 174.659 L 432.565 174.658 Z M 432.09 175.53 C 432.568 175.413 433.034 175.704 433.151 176.182 C 433.267 176.662 432.976 177.14 432.497 177.257 L 404.193 184.139 C 403.713 184.255 403.249 183.979 403.132 183.5 C 403.015 183.021 403.306 182.542 403.785 182.425 L 432.09 175.53 L 432.09 175.53 Z" style="fill: rgb(30, 30, 30);" transform="matrix(0.965926, -0.258819, 0.258819, 0.965926, -32.296844, 114.350502)"/>
  <path id="path33" d="M 434.012 180.057 C 433.788 180.021 433.552 180.027 433.319 180.085 L 405.014 186.98 C 404.077 187.207 403.507 188.153 403.735 189.089 C 403.962 190.026 404.908 190.609 405.843 190.381 L 434.148 183.499 C 435.084 183.272 435.668 182.313 435.44 181.377 C 435.27 180.675 434.687 180.17 434.012 180.057 L 434.012 180.057 Z M 433.537 180.927 C 434.015 180.811 434.481 181.102 434.597 181.581 C 434.714 182.059 434.423 182.526 433.944 182.643 L 405.639 189.538 C 405.16 189.654 404.696 189.364 404.578 188.885 C 404.462 188.407 404.752 187.941 405.232 187.825 L 433.532 180.929 L 433.537 180.927 Z" style="fill: rgb(30, 30, 30);" transform="matrix(0.965926, -0.258819, 0.258819, 0.965926, -33.644602, 114.908675)"/>
  <path id="path35" d="M 435.46 185.46 C 435.237 185.423 435.001 185.43 434.767 185.487 L 406.459 192.386 C 405.522 192.614 404.953 193.559 405.18 194.494 C 405.408 195.43 406.352 196.015 407.288 195.787 L 435.593 188.89 C 436.529 188.663 437.113 187.718 436.885 186.783 C 436.714 186.08 436.131 185.575 435.457 185.463 L 435.46 185.46 Z M 434.985 186.33 C 435.463 186.214 435.929 186.504 436.046 186.983 C 436.162 187.461 435.871 187.927 435.392 188.044 L 407.084 194.938 C 406.605 195.055 406.14 194.765 406.023 194.285 C 405.907 193.807 406.197 193.341 406.675 193.223 L 434.98 186.329 L 434.985 186.33 Z" style="fill: rgb(30, 30, 30);" transform="matrix(0.965926, -0.258819, 0.258819, 0.965926, -34.994077, 115.466919)"/>
  <path id="path37" d="M 436.906 190.857 C 436.682 190.821 436.447 190.828 436.213 190.885 L 407.908 197.768 C 406.972 197.995 406.401 198.953 406.629 199.889 C 406.857 200.826 407.802 201.41 408.738 201.182 L 437.043 194.286 C 437.978 194.058 438.562 193.113 438.334 192.178 C 438.164 191.475 437.582 190.969 436.906 190.857 L 436.906 190.857 Z M 436.431 191.728 C 436.909 191.611 437.375 191.903 437.492 192.381 C 437.608 192.859 437.317 193.325 436.838 193.442 L 408.534 200.338 C 408.054 200.455 407.589 200.164 407.472 199.685 C 407.356 199.207 407.647 198.741 408.126 198.625 L 436.426 191.731 L 436.431 191.728 Z" style="fill: rgb(30, 30, 30);" transform="matrix(0.965926, -0.258819, 0.258819, 0.965926, -36.341416, 116.025861)"/>
  <path id="circle39" d="M 404.241 140.338 C 399.115 140.338 394.964 144.504 394.964 149.629 C 394.964 154.751 399.115 158.918 404.241 158.918 C 409.364 158.918 413.529 154.752 413.529 149.629 C 413.53 144.504 409.364 140.338 404.241 140.338 Z M 404.241 141.208 C 408.894 141.208 412.659 144.973 412.659 149.629 C 412.659 154.281 408.894 158.047 404.241 158.047 C 399.586 158.047 395.834 154.281 395.834 149.629 C 395.835 144.974 399.586 141.208 404.241 141.208 Z" style="fill: rgb(30, 30, 30);" transform="matrix(0.965926, -0.258819, 0.258819, 0.965926, -24.952204, 109.725101)"/>
  <path id="circle41" d="M 426.357 125.611 C 421.234 125.611 417.081 129.777 417.081 134.901 C 417.081 140.026 421.234 144.192 426.357 144.192 C 431.481 144.192 435.647 140.026 435.647 134.901 C 435.647 129.777 431.482 125.611 426.357 125.611 Z M 426.357 126.483 C 431.011 126.483 434.777 130.249 434.777 134.901 C 434.777 139.556 431.011 143.321 426.357 143.321 C 421.704 143.321 417.952 139.556 417.952 134.901 C 417.952 130.248 421.704 126.483 426.357 126.483 Z" style="fill: rgb(30, 30, 30);" transform="matrix(0.965926, -0.258819, 0.258819, 0.965926, -20.387078, 114.947743)"/>
  <path id="circle43" d="M 393.698 106.234 C 392.04 106.234 390.692 107.582 390.692 109.238 C 390.692 110.896 392.04 112.244 393.698 112.244 C 395.354 112.244 396.703 110.896 396.703 109.238 C 396.703 107.582 395.353 106.234 393.698 106.234 Z M 393.698 107.103 C 394.883 107.103 395.832 108.052 395.832 109.238 C 395.832 110.425 394.883 111.374 393.698 111.374 C 392.51 111.374 391.562 110.425 391.562 109.238 C 391.562 108.052 392.51 107.103 393.698 107.103 Z" style="fill: rgb(30, 30, 30);" transform="matrix(0.965926, -0.258819, 0.258819, 0.965926, -14.858218, 105.618606)"/>
  <path id="path47" d="M 216.129 177.254 C 214.542 177.254 213.245 178.55 213.245 180.137 L 213.245 188.57 C 213.245 188.73 213.208 188.759 213.219 188.747 C 213.229 188.736 213.254 188.747 213.164 188.747 L 204.636 188.747 C 203.049 188.747 201.753 190.043 201.753 191.631 L 201.753 198.159 C 201.753 199.747 203.049 201.043 204.636 201.043 L 213.096 201.043 C 213.116 201.043 213.152 201.06 213.177 201.084 C 213.203 201.108 213.245 201.151 213.245 201.315 L 213.245 209.652 C 213.245 211.241 214.542 212.537 216.129 212.537 L 222.658 212.537 C 224.246 212.537 225.543 211.241 225.543 209.652 L 225.543 201.193 C 225.543 201.04 225.554 201.061 225.543 201.07 C 225.53 201.079 225.598 201.042 225.774 201.042 L 234.152 201.042 C 235.74 201.042 237.036 199.747 237.036 198.159 L 237.036 191.63 C 237.036 190.042 235.74 188.746 234.152 188.746 L 225.747 188.746 C 225.607 188.746 225.6 188.726 225.584 188.705 C 225.567 188.684 225.544 188.612 225.544 188.501 L 225.541 180.127 C 225.541 178.539 224.246 177.243 222.658 177.243 L 216.128 177.243 L 216.129 177.254 Z M 216.129 178.124 L 222.658 178.124 C 223.776 178.124 224.671 179.02 224.671 180.137 L 224.671 188.502 C 224.671 188.744 224.719 189.02 224.902 189.251 C 225.086 189.482 225.408 189.618 225.746 189.618 L 234.151 189.618 C 235.268 189.618 236.165 190.514 236.165 191.631 L 236.165 198.159 C 236.165 199.276 235.268 200.172 234.151 200.172 L 225.773 200.172 C 225.517 200.172 225.25 200.193 225.011 200.376 C 224.772 200.56 224.671 200.889 224.671 201.193 L 224.671 209.652 C 224.671 210.769 223.775 211.666 222.658 211.666 L 216.129 211.666 C 215.013 211.666 214.116 210.769 214.116 209.652 L 214.116 201.315 C 214.116 200.962 213.994 200.655 213.79 200.458 C 213.585 200.261 213.328 200.172 213.096 200.172 L 204.636 200.172 C 203.519 200.172 202.623 199.276 202.623 198.159 L 202.623 191.63 C 202.623 190.513 203.519 189.618 204.636 189.618 L 213.164 189.618 C 213.404 189.618 213.682 189.54 213.871 189.332 C 214.061 189.124 214.116 188.857 214.116 188.57 L 214.116 180.137 C 214.116 179.021 215.013 178.124 216.129 178.124 L 216.129 178.124 Z" style="fill: rgb(30, 30, 30);" transform="matrix(0.965926, -0.258819, 0.258819, 0.965926, -42.965526, 63.424133)"/>
</svg>