<?xml version="1.0" encoding="utf-8"?>
<svg version="1.1" id="Ebene_1" x="0px" y="0px" enable-background="new 0 -0.002 566.929 202.382" xmlns="http://www.w3.org/2000/svg">
  <g>
    <path d="M 143.403 103.494 L 188.484 103.494 C 206.907 103.494 221.901 88.497 221.901 70.077 C 221.901 51.657 206.907 36.75 188.484 36.75 L 176.73 36.75 C 175.803 36.75 175.059 36.012 175.059 35.085 C 175.059 34.065 175.8 33.327 176.73 33.327 L 221.718 33.327 L 221.811 19.254 L 176.73 19.254 C 168.027 19.254 160.992 26.292 160.992 34.995 C 160.992 43.788 168.024 50.916 176.73 50.916 L 188.484 50.916 C 199.035 50.916 207.648 59.526 207.648 70.08 C 207.648 80.634 199.035 89.148 188.484 89.148 L 143.403 89.148 L 143.403 103.494 L 143.403 103.494 Z" id="path5" style="fill-opacity: 1; fill: rgb(255, 255, 255);"/>
    <path d="M 143.403 85.905 L 188.484 85.905 C 197.28 85.905 204.315 78.78 204.315 70.077 C 204.315 61.374 197.28 54.246 188.484 54.246 L 176.73 54.246 C 166.179 54.246 157.659 45.546 157.659 34.992 C 157.659 24.438 166.179 15.924 176.73 15.924 L 221.808 15.924 L 221.715 1.668 L 176.724 1.668 C 158.304 1.668 143.4 16.569 143.4 35.085 C 143.4 53.505 158.304 68.409 176.724 68.409 L 188.388 68.409 C 189.315 68.409 190.056 69.15 190.056 70.077 C 190.056 71.001 189.315 71.742 188.388 71.742 L 143.4 71.742 L 143.403 85.905 L 143.403 85.905 Z" id="path7" style="fill-opacity: 1; fill: rgb(255, 255, 255);"/>
    <path d="M 256.8 89.238 C 249.027 89.238 242.64 83.034 242.64 75.075 L 242.64 29.805 C 242.64 22.218 249.03 15.831 256.8 15.831 L 304.938 15.831 L 304.938 1.668 L 256.8 1.668 C 241.158 1.668 228.477 14.349 228.477 29.994 L 228.477 75.075 C 228.477 90.72 241.155 103.404 256.8 103.404 L 304.755 103.404 L 304.755 89.238 L 256.8 89.238 L 256.8 89.238 Z" id="path9" style="fill-opacity: 1; fill: rgb(255, 255, 255);"/>
    <path d="M 246.063 29.991 C 246.063 24.069 250.875 19.161 256.8 19.161 L 304.938 19.161 L 304.938 33.324 L 263.469 33.324 C 260.133 33.324 260.133 36.654 260.133 36.654 L 294.753 36.654 L 294.753 50.82 L 246.063 50.82 L 246.063 29.991 L 246.063 29.991 Z" id="path11" style="fill-opacity: 1; fill: rgb(255, 255, 255);"/>
    <path d="M 256.8 85.815 C 250.878 85.815 246.063 81 246.063 75.078 L 246.063 54.246 L 294.753 54.246 L 294.753 68.406 L 260.133 68.406 C 260.133 71.739 263.466 71.739 263.466 71.739 L 304.752 71.739 L 304.752 85.812 L 256.8 85.815 L 256.8 85.815 Z" id="path13" style="fill-opacity: 1; fill: rgb(255, 255, 255);"/>
    <path d="M 338.724 89.238 C 330.858 89.238 324.468 82.848 324.468 75.075 L 324.468 29.994 C 324.468 22.218 330.861 15.831 338.634 15.831 L 385.293 15.831 L 385.293 1.668 L 338.541 1.668 C 322.896 1.668 310.215 14.349 310.215 29.994 L 310.215 75.075 C 310.215 90.72 322.986 103.404 338.634 103.404 L 385.293 103.404 L 385.293 36.66 L 345.207 36.66 L 345.207 50.823 L 371.127 50.823 L 371.127 89.238 L 338.724 89.238 L 338.724 89.238 Z" id="path15" style="fill-opacity: 1; fill: rgb(255, 255, 255);"/>
    <path d="M 327.798 75.075 C 327.798 81 332.709 85.908 338.631 85.908 L 367.791 85.908 L 367.791 54.153 L 345.204 54.153 L 345.204 68.409 L 353.628 68.409 L 353.628 71.742 L 345.3 71.742 C 343.446 71.742 341.967 70.173 341.967 68.409 L 341.967 36.657 C 341.967 36.657 341.967 33.324 345.3 33.324 L 385.29 33.324 L 385.29 19.158 L 338.634 19.158 C 332.709 19.158 327.801 24.066 327.801 29.991 L 327.798 75.075 L 327.798 75.075 Z" id="path17" style="fill-opacity: 1; fill: rgb(255, 255, 255);"/>
    <path d="M 429.075 18.978 C 429.72 17.127 431.388 15.834 433.428 15.834 C 435.462 15.834 437.133 17.13 437.781 18.978 L 460.365 86.001 L 427.323 86.001 L 427.323 70.263 L 438.432 70.263 L 433.434 55.356 L 417.138 103.401 L 400.476 103.401 L 429.075 18.978 L 429.075 18.978 Z" id="path19" style="fill-opacity: 1; fill: rgb(255, 255, 255);"/>
    <path d="M 464.994 89.238 L 427.317 89.238 L 427.317 103.401 L 484.617 103.401 L 454.812 14.997 C 452.217 6.387 443.607 0 433.422 0 C 423.243 0 414.633 6.294 412.041 14.997 L 381.951 103.401 L 396.948 103.401 L 426.105 17.403 C 427.308 14.535 430.086 12.591 433.416 12.591 C 436.659 12.591 439.437 14.535 440.64 17.403 L 464.994 89.238 L 464.994 89.238 Z" id="path21" style="fill-opacity: 1; fill: rgb(255, 255, 255);"/>
    <path id="path6717" d="M 98.07 195.786 L 63.093 195.786 L 63.093 191.823 C 64.359 191.79 65.988 191.658 67.977 191.43 C 69.966 191.208 71.331 190.893 72.078 190.479 C 73.233 189.777 74.079 188.97 74.616 188.052 C 75.156 187.143 75.423 186 75.423 184.623 L 75.423 127.053 L 74.589 127.053 L 47.586 194.499 L 44.799 194.499 L 19.08 125.661 L 18.357 125.661 L 18.357 172.911 C 18.357 177.483 18.645 180.963 19.221 183.342 C 19.797 185.721 20.679 187.431 21.873 188.469 C 22.692 189.249 24.381 190.002 26.946 190.707 C 29.511 191.415 31.188 191.787 31.968 191.82 L 31.968 195.78 L 0 195.78 L 0 191.82 C 1.677 191.673 3.432 191.394 5.271 190.986 C 7.113 190.578 8.535 189.966 9.54 189.144 C 10.842 188.109 11.736 186.507 12.216 184.347 C 12.702 182.196 12.942 178.584 12.942 173.526 L 12.942 133.02 C 12.942 130.68 12.666 128.766 12.105 127.278 C 11.55 125.793 10.749 124.584 9.708 123.654 C 8.556 122.649 7.143 121.905 5.469 121.419 C 3.795 120.939 2.139 120.663 0.504 120.582 L 0.504 116.625 L 27.504 116.625 L 50.154 175.98 L 69.513 126.33 C 70.218 124.512 70.824 122.604 71.325 120.612 C 71.829 118.623 72.099 117.291 72.135 116.622 L 97.965 116.622 L 97.965 120.582 C 96.924 120.621 95.592 120.792 93.975 121.086 C 92.358 121.389 91.176 121.665 90.432 121.92 C 89.169 122.367 88.311 123.117 87.864 124.155 C 87.417 125.196 87.195 126.33 87.195 127.557 L 87.195 184.626 C 87.195 185.928 87.417 187.023 87.864 187.917 C 88.311 188.805 89.166 189.591 90.432 190.254 C 91.104 190.632 92.295 190.977 94.005 191.289 C 95.715 191.601 97.071 191.784 98.076 191.817 L 98.076 195.78 L 98.07 195.78 L 98.07 195.786 Z" style="fill-opacity: 1; fill: rgb(255, 255, 255);"/>
    <path id="path6719" d="M 147.582 194.778 C 145.836 195.414 144.303 195.921 142.98 196.314 C 141.66 196.704 140.163 196.899 138.489 196.899 C 135.585 196.899 133.275 196.224 131.544 194.865 C 129.816 193.509 128.709 191.529 128.223 188.922 L 127.89 188.922 C 125.472 191.598 122.877 193.65 120.105 195.06 C 117.336 196.476 113.997 197.178 110.091 197.178 C 105.963 197.178 102.57 195.921 99.912 193.383 C 97.251 190.857 95.925 187.548 95.925 183.453 C 95.925 181.335 96.222 179.433 96.816 177.762 C 97.413 176.088 98.307 174.585 99.495 173.247 C 100.425 172.137 101.652 171.141 103.176 170.262 C 104.703 169.392 106.131 168.696 107.472 168.171 C 109.146 167.538 112.539 166.365 117.651 164.655 C 122.766 162.948 126.216 161.61 128.001 160.638 L 128.001 155.118 C 128.001 154.635 127.899 153.705 127.692 152.328 C 127.488 150.954 127.053 149.649 126.381 148.422 C 125.637 147.051 124.587 145.851 123.228 144.825 C 121.872 143.805 119.949 143.292 117.456 143.292 C 115.743 143.292 114.156 143.58 112.686 144.156 C 111.216 144.738 110.184 145.338 109.59 145.971 C 109.59 146.718 109.767 147.81 110.121 149.262 C 110.475 150.708 110.652 152.049 110.652 153.276 C 110.652 154.578 110.064 155.769 108.894 156.846 C 107.721 157.932 106.095 158.463 104.013 158.463 C 102.153 158.463 100.785 157.806 99.912 156.483 C 99.039 155.169 98.601 153.687 98.601 152.049 C 98.601 150.339 99.204 148.701 100.416 147.138 C 101.625 145.578 103.194 144.183 105.132 142.956 C 106.806 141.921 108.831 141.03 111.21 140.307 C 113.592 139.578 115.914 139.218 118.185 139.218 C 121.308 139.218 124.029 139.434 126.357 139.857 C 128.682 140.289 130.791 141.207 132.69 142.62 C 134.583 144 136.026 145.866 137.01 148.224 C 137.997 150.591 138.489 153.63 138.489 157.347 C 138.489 162.666 138.432 167.379 138.324 171.486 C 138.21 175.599 138.159 180.09 138.159 184.962 C 138.159 186.411 138.408 187.569 138.909 188.424 C 139.413 189.282 140.184 190.005 141.225 190.596 C 141.783 190.935 142.665 191.118 143.877 191.154 C 145.086 191.193 146.319 191.214 147.585 191.214 L 147.585 194.778 L 147.582 194.778 Z M 128.115 165.321 C 124.953 166.254 122.184 167.16 119.802 168.057 C 117.42 168.948 115.209 170.061 113.166 171.402 C 111.303 172.668 109.836 174.165 108.756 175.89 C 107.679 177.621 107.139 179.682 107.139 182.055 C 107.139 185.148 107.946 187.41 109.566 188.862 C 111.183 190.311 113.235 191.037 115.728 191.037 C 118.368 191.037 120.693 190.395 122.703 189.114 C 124.71 187.827 126.405 186.318 127.779 184.566 L 128.115 165.321 Z" style="fill-opacity: 1; fill: rgb(255, 255, 255);"/>
    <path id="path6721" d="M 177.513 168.837 C 179.037 170.178 180.21 171.723 181.029 173.466 C 181.848 175.218 182.256 177.357 182.256 179.88 C 182.256 184.98 180.348 189.144 176.541 192.378 C 172.728 195.612 167.787 197.232 161.727 197.232 C 158.529 197.232 155.58 196.653 152.886 195.501 C 150.186 194.349 148.263 193.29 147.111 192.321 L 145.995 195.948 L 141.813 195.948 L 141.255 176.808 L 145.104 176.808 C 145.401 178.257 146.031 179.955 147 181.881 C 147.966 183.816 149.139 185.562 150.516 187.125 C 151.965 188.766 153.702 190.14 155.73 191.256 C 157.758 192.369 160.035 192.933 162.564 192.933 C 166.134 192.933 168.888 192.123 170.823 190.5 C 172.755 188.886 173.724 186.57 173.724 183.555 C 173.724 181.992 173.418 180.651 172.803 179.514 C 172.188 178.383 171.288 177.39 170.097 176.529 C 168.87 175.671 167.364 174.903 165.579 174.213 C 163.794 173.526 161.805 172.845 159.609 172.176 C 157.86 171.657 155.916 170.943 153.78 170.028 C 151.641 169.116 149.808 168.042 148.284 166.818 C 146.649 165.519 145.308 163.914 144.267 162.021 C 143.226 160.125 142.704 157.893 142.704 155.328 C 142.704 150.828 144.378 147.018 147.726 143.889 C 151.074 140.766 155.556 139.203 161.172 139.203 C 163.323 139.203 165.531 139.482 167.781 140.034 C 170.028 140.598 171.861 141.264 173.277 142.044 L 174.561 139.143 L 178.575 139.143 L 179.412 156.825 L 175.563 156.825 C 174.783 152.883 173.1 149.676 170.514 147.201 C 167.928 144.729 164.778 143.493 161.055 143.493 C 158.007 143.493 155.607 144.258 153.858 145.782 C 152.112 147.312 151.239 149.151 151.239 151.305 C 151.239 152.982 151.524 154.374 152.103 155.49 C 152.679 156.606 153.543 157.551 154.698 158.334 C 155.811 159.081 157.215 159.78 158.91 160.428 C 160.602 161.079 162.693 161.82 165.186 162.63 C 167.64 163.41 169.956 164.325 172.131 165.363 C 174.306 166.422 176.1 167.577 177.513 168.837 Z" style="fill-opacity: 1; fill: rgb(255, 255, 255);"/>
    <path id="path6723" d="M 212.634 193.38 C 210.213 194.388 207.927 195.234 205.77 195.921 C 203.613 196.611 200.973 196.95 197.85 196.95 C 193.236 196.95 189.99 195.795 188.115 193.467 C 186.234 191.145 185.295 187.86 185.295 183.624 L 185.295 146.361 L 175.365 146.361 L 175.365 141.003 L 185.52 141.003 L 185.52 123.876 L 195.672 123.876 L 195.672 141.003 L 211.458 141.003 L 211.458 146.361 L 195.783 146.361 L 195.783 177.096 C 195.783 179.406 195.867 181.329 196.035 182.874 C 196.203 184.416 196.602 185.772 197.235 186.915 C 197.829 187.995 198.723 188.814 199.911 189.369 C 201.102 189.927 202.701 190.206 204.708 190.206 C 205.638 190.206 207.003 190.122 208.809 189.951 C 210.615 189.783 211.887 189.573 212.631 189.309 L 212.634 193.38 L 212.634 193.38 Z" style="fill-opacity: 1; fill: rgb(255, 255, 255);"/>
    <path id="path6725" d="M 255.168 182.841 C 252.864 187.23 249.777 190.728 245.91 193.329 C 242.043 195.933 237.597 197.229 232.575 197.229 C 228.153 197.229 224.274 196.452 220.944 194.889 C 217.617 193.329 214.872 191.205 212.715 188.529 C 210.558 185.856 208.95 182.733 207.888 179.16 C 206.826 175.587 206.298 171.822 206.298 167.838 C 206.298 164.268 206.868 160.764 208.002 157.32 C 209.136 153.885 210.801 150.786 212.994 148.035 C 215.115 145.398 217.746 143.265 220.887 141.645 C 224.031 140.025 227.556 139.218 231.462 139.218 C 235.476 139.218 238.917 139.854 241.779 141.114 C 244.644 142.38 246.966 144.111 248.751 146.301 C 250.464 148.389 251.736 150.846 252.573 153.669 C 253.41 156.492 253.83 159.564 253.83 162.87 L 253.83 166.551 L 217.404 166.551 C 217.404 170.163 217.746 173.436 218.433 176.373 C 219.123 179.313 220.209 181.896 221.697 184.131 C 223.146 186.288 225.042 187.989 227.385 189.234 C 229.728 190.485 232.518 191.097 235.755 191.097 C 239.064 191.097 241.917 190.329 244.317 188.781 C 246.717 187.245 249.033 184.461 251.262 180.447 L 255.168 182.841 Z M 242.841 161.865 C 242.841 159.783 242.664 157.554 242.31 155.172 C 241.956 152.79 241.389 150.804 240.609 149.202 C 239.757 147.495 238.584 146.106 237.093 145.017 C 235.608 143.943 233.691 143.403 231.351 143.403 C 227.442 143.403 224.199 145.029 221.613 148.284 C 219.03 151.539 217.626 156.066 217.404 161.865 L 242.841 161.865 L 242.841 161.865 Z" style="fill-opacity: 1; fill: rgb(255, 255, 255);"/>
    <path id="path6727" d="M 291.906 147.861 C 291.906 149.757 291.441 151.44 290.511 152.91 C 289.584 154.383 288.153 155.112 286.218 155.112 C 284.133 155.112 282.546 154.572 281.445 153.492 C 280.35 152.418 279.801 151.227 279.801 149.925 C 279.801 149.106 279.864 148.362 279.996 147.693 C 280.125 147.021 280.245 146.352 280.356 145.686 C 278.61 145.686 276.561 146.391 274.221 147.804 C 271.878 149.22 269.889 151.227 268.248 153.828 L 268.248 185.847 C 268.248 187.155 268.503 188.214 269.004 189.033 C 269.505 189.852 270.297 190.464 271.374 190.872 C 272.304 191.247 273.504 191.523 274.971 191.703 C 276.444 191.898 277.716 192.024 278.796 192.099 L 278.796 195.78 L 249.786 195.78 L 249.786 192.099 C 250.641 192.024 251.526 191.955 252.435 191.877 C 253.347 191.805 254.136 191.658 254.808 191.427 C 255.846 191.094 256.62 190.509 257.121 189.672 C 257.622 188.838 257.874 187.749 257.874 186.411 L 257.874 152.439 C 257.874 151.287 257.604 150.15 257.067 149.034 C 256.527 147.918 255.771 147.027 254.805 146.358 C 254.1 145.908 253.266 145.59 252.297 145.38 C 251.328 145.179 250.287 145.041 249.171 144.966 L 249.171 141.339 L 267.468 140.109 L 268.248 140.892 L 268.248 148.647 L 268.527 148.647 C 270.837 145.632 273.402 143.346 276.225 141.783 C 279.054 140.22 281.637 139.44 283.98 139.44 C 286.323 139.44 288.231 140.205 289.701 141.729 C 291.171 143.253 291.906 145.296 291.906 147.861 L 291.906 147.861 Z" style="fill-opacity: 1; fill: rgb(255, 255, 255);"/>
    <path id="path6729" d="M 351.321 159.468 C 352.992 161.331 354.228 163.365 355.026 165.579 C 355.83 167.793 356.232 170.37 356.232 173.304 C 356.232 180.3 353.64 186.066 348.474 190.599 C 343.305 195.138 336.891 197.403 329.229 197.403 C 325.695 197.403 322.164 196.86 318.63 195.759 C 315.096 194.664 312.048 193.332 309.48 191.772 L 307.083 195.846 L 302.622 195.846 L 301.842 168.732 L 306.36 168.732 C 307.29 172.077 308.379 175.104 309.624 177.798 C 310.872 180.498 312.516 183.012 314.562 185.358 C 316.494 187.554 318.753 189.3 321.336 190.602 C 323.922 191.904 326.925 192.552 330.342 192.552 C 332.91 192.552 335.148 192.219 337.068 191.55 C 338.982 190.878 340.539 189.927 341.727 188.703 C 342.915 187.476 343.794 186.036 344.376 184.38 C 344.955 182.73 345.243 180.819 345.243 178.662 C 345.243 175.506 344.352 172.554 342.567 169.818 C 340.785 167.082 338.127 165.012 334.587 163.599 C 332.169 162.63 329.4 161.559 326.277 160.389 C 323.154 159.219 320.454 158.112 318.189 157.068 C 313.728 155.061 310.257 152.43 307.782 149.175 C 305.307 145.923 304.074 141.669 304.074 136.425 C 304.074 133.416 304.689 130.608 305.913 128.001 C 307.143 125.4 308.889 123.072 311.157 121.026 C 313.314 119.097 315.864 117.579 318.801 116.481 C 321.738 115.383 324.81 114.837 328.005 114.837 C 331.65 114.837 334.914 115.392 337.797 116.511 C 340.677 117.624 343.311 118.932 345.687 120.411 L 347.976 116.619 L 352.44 116.619 L 352.89 142.893 L 348.372 142.893 C 347.556 139.881 346.635 137.004 345.609 134.241 C 344.589 131.493 343.263 129 341.622 126.768 C 340.023 124.614 338.07 122.889 335.766 121.605 C 333.459 120.324 330.633 119.679 327.288 119.679 C 323.757 119.679 320.742 120.819 318.249 123.081 C 315.759 125.355 314.511 128.124 314.511 131.394 C 314.511 134.817 315.309 137.652 316.911 139.902 C 318.51 142.155 320.835 144.003 323.883 145.452 C 326.598 146.754 329.265 147.879 331.884 148.821 C 334.506 149.775 337.047 150.789 339.501 151.866 C 341.736 152.832 343.878 153.93 345.942 155.16 C 348 156.399 349.794 157.83 351.321 159.468 L 351.321 159.468 Z" style="fill-opacity: 1; fill: rgb(255, 255, 255);"/>
    <path id="path6731" d="M 348.615 213.747 C 348.615 211.887 349.122 210.372 350.151 209.199 C 351.168 208.026 352.44 207.441 353.97 207.441 C 355.158 207.441 356.181 207.657 357.039 208.11 C 357.894 208.56 358.656 209.139 359.328 209.838 C 359.886 210.393 360.483 211.161 361.113 212.124 C 361.746 213.096 362.247 213.897 362.616 214.524 C 364.482 213.519 366.699 210.897 369.288 206.661 C 371.868 202.419 373.746 198.708 374.892 195.501 C 371.355 186.69 368.163 178.806 365.295 171.846 C 362.43 164.892 359.436 157.698 356.316 150.255 C 355.611 148.548 354.417 147.213 352.746 146.265 C 351.072 145.317 349.398 144.714 347.721 144.45 L 347.721 140.769 L 372.828 140.769 L 372.828 144.675 C 371.709 144.714 370.374 144.948 368.811 145.371 C 367.248 145.8 366.468 146.292 366.468 146.85 C 366.468 147.072 366.552 147.447 366.72 147.966 C 366.888 148.488 367.08 149.028 367.308 149.58 C 368.721 153.264 370.875 158.577 373.779 165.51 C 376.683 172.452 378.93 177.996 380.529 182.163 C 382.203 178.182 383.943 174.069 385.743 169.809 C 387.549 165.549 389.571 160.521 391.8 154.719 C 392.061 154.014 392.436 153.042 392.913 151.791 C 393.396 150.546 393.639 149.475 393.639 148.584 C 393.639 147.618 392.799 146.715 391.104 145.878 C 389.409 145.044 387.804 144.528 386.274 144.342 L 386.274 140.772 L 406.692 140.772 L 406.692 144.234 C 405.576 144.423 404.103 145.062 402.285 146.157 C 400.461 147.258 399.102 148.809 398.211 150.816 C 393.783 161.082 389.844 170.433 386.412 178.875 C 382.968 187.32 380.358 193.53 378.573 197.505 C 376.23 202.719 374.139 206.778 372.297 209.697 C 370.458 212.619 368.658 214.914 366.912 216.585 C 365.199 218.148 363.648 219.201 362.259 219.738 C 360.867 220.275 359.418 220.548 357.939 220.548 C 355.035 220.548 352.758 219.861 351.102 218.487 C 349.443 217.116 348.615 215.532 348.615 213.747 L 348.615 213.747 Z" style="fill-opacity: 1; fill: rgb(255, 255, 255);"/>
    <path id="path6733" d="M 433.497 168.837 C 435.018 170.178 436.191 171.723 437.01 173.466 C 437.829 175.218 438.237 177.357 438.237 179.88 C 438.237 184.98 436.329 189.144 432.522 192.378 C 428.706 195.612 423.771 197.232 417.708 197.232 C 414.513 197.232 411.558 196.653 408.867 195.501 C 406.167 194.349 404.244 193.29 403.092 192.321 L 401.973 195.948 L 397.791 195.948 L 397.236 176.808 L 401.082 176.808 C 401.376 178.257 402.009 179.955 402.981 181.881 C 403.95 183.816 405.117 185.562 406.497 187.125 C 407.946 188.766 409.683 190.14 411.714 191.256 C 413.736 192.369 416.016 192.933 418.545 192.933 C 422.112 192.933 424.866 192.123 426.801 190.5 C 428.73 188.886 429.702 186.57 429.702 183.555 C 429.702 181.992 429.396 180.651 428.781 179.514 C 428.166 178.383 427.263 177.39 426.072 176.529 C 424.848 175.671 423.339 174.903 421.557 174.213 C 419.772 173.526 417.78 172.845 415.587 172.176 C 413.835 171.657 411.891 170.943 409.755 170.028 C 407.613 169.116 405.786 168.042 404.262 166.818 C 402.627 165.519 401.283 163.914 400.242 162.021 C 399.198 160.125 398.679 157.893 398.679 155.328 C 398.679 150.828 400.356 147.018 403.704 143.889 C 407.052 140.766 411.528 139.203 417.147 139.203 C 419.301 139.203 421.512 139.482 423.756 140.034 C 426.003 140.598 427.839 141.264 429.255 142.044 L 430.539 139.143 L 434.553 139.143 L 435.39 156.825 L 431.541 156.825 C 430.761 152.883 429.075 149.676 426.498 147.201 C 423.909 144.729 420.762 143.493 417.039 143.493 C 413.988 143.493 411.585 144.258 409.839 145.782 C 408.09 147.312 407.22 149.151 407.22 151.305 C 407.22 152.982 407.505 154.374 408.084 155.49 C 408.663 156.606 409.524 157.551 410.679 158.334 C 411.795 159.081 413.202 159.78 414.894 160.428 C 416.58 161.079 418.677 161.82 421.17 162.63 C 423.627 163.41 425.94 164.325 428.118 165.363 C 430.284 166.422 432.081 167.577 433.497 168.837 L 433.497 168.837 Z" style="fill-opacity: 1; fill: rgb(255, 255, 255);"/>
    <path id="path6735" d="M 468.612 193.38 C 466.197 194.388 463.908 195.234 461.748 195.921 C 459.594 196.611 456.954 196.95 453.831 196.95 C 449.22 196.95 445.971 195.795 444.093 193.467 C 442.215 191.145 441.276 187.86 441.276 183.624 L 441.276 146.361 L 431.349 146.361 L 431.349 141.003 L 441.495 141.003 L 441.495 123.876 L 451.653 123.876 L 451.653 141.003 L 467.439 141.003 L 467.439 146.361 L 451.764 146.361 L 451.764 177.096 C 451.764 179.406 451.848 181.329 452.016 182.874 C 452.184 184.416 452.583 185.772 453.222 186.915 C 453.81 187.995 454.707 188.814 455.892 189.369 C 457.08 189.927 458.682 190.206 460.686 190.206 C 461.616 190.206 462.984 190.122 464.787 189.951 C 466.593 189.783 467.865 189.573 468.609 189.309 L 468.612 193.38 L 468.612 193.38 Z" style="fill-opacity: 1; fill: rgb(255, 255, 255);"/>
    <path id="path6737" d="M 511.149 182.841 C 508.845 187.23 505.758 190.728 501.888 193.329 C 498.021 195.933 493.575 197.229 488.553 197.229 C 484.14 197.229 480.255 196.452 476.925 194.889 C 473.598 193.329 470.856 191.205 468.693 188.529 C 466.539 185.856 464.928 182.733 463.866 179.16 C 462.804 175.587 462.279 171.822 462.279 167.838 C 462.279 164.268 462.849 160.764 463.98 157.32 C 465.114 153.885 466.782 150.786 468.972 148.035 C 471.09 145.398 473.724 143.265 476.865 141.645 C 480.006 140.025 483.534 139.218 487.434 139.218 C 491.454 139.218 494.892 139.854 497.754 141.114 C 500.619 142.38 502.941 144.111 504.729 146.301 C 506.439 148.389 507.714 150.846 508.551 153.669 C 509.382 156.492 509.802 159.564 509.802 162.87 L 509.802 166.551 L 473.379 166.551 C 473.379 170.163 473.724 173.436 474.408 176.373 C 475.092 179.313 476.181 181.896 477.675 184.131 C 479.118 186.288 481.023 187.989 483.36 189.234 C 485.703 190.485 488.49 191.097 491.73 191.097 C 495.045 191.097 497.892 190.329 500.295 188.781 C 502.695 187.245 505.011 184.461 507.246 180.447 L 511.149 182.841 Z M 498.819 161.865 C 498.819 159.783 498.645 157.554 498.291 155.172 C 497.94 152.79 497.37 150.804 496.59 149.202 C 495.738 147.495 494.568 146.106 493.074 145.017 C 491.583 143.943 489.669 143.403 487.326 143.403 C 483.426 143.403 480.177 145.029 477.591 148.284 C 475.011 151.539 473.604 156.066 473.382 161.865 L 498.819 161.865 L 498.819 161.865 Z" style="fill-opacity: 1; fill: rgb(255, 255, 255);"/>
    <path id="path6739" d="M 599.991 195.786 L 573.156 195.786 L 573.156 192.099 C 574.014 192.027 574.878 191.955 575.751 191.88 C 576.624 191.808 577.395 191.658 578.064 191.43 C 579.105 191.094 579.879 190.509 580.38 189.675 C 580.884 188.841 581.136 187.749 581.136 186.414 L 581.136 158.016 C 581.136 154.152 580.251 151.167 578.481 149.064 C 576.714 146.964 574.515 145.914 571.875 145.914 C 570.054 145.914 568.341 146.19 566.742 146.748 C 565.143 147.303 563.676 148.083 562.338 149.091 C 561.255 149.913 560.355 150.789 559.626 151.74 C 558.9 152.688 558.354 153.48 557.979 154.11 L 557.979 185.85 C 557.979 187.158 558.204 188.223 558.651 189.06 C 559.101 189.894 559.857 190.542 560.94 190.986 C 561.798 191.319 562.569 191.571 563.256 191.739 C 563.943 191.904 564.846 192.027 565.962 192.099 L 565.962 195.78 L 539.694 195.78 L 539.694 192.099 C 540.549 192.027 541.368 191.955 542.172 191.88 C 542.967 191.808 543.705 191.658 544.371 191.427 C 545.415 191.094 546.186 190.506 546.687 189.672 C 547.191 188.838 547.446 187.749 547.446 186.408 L 547.446 158.013 C 547.446 154.149 546.558 151.164 544.788 149.061 C 543.024 146.961 540.819 145.908 538.185 145.908 C 536.361 145.908 534.645 146.199 533.049 146.775 C 531.45 147.36 529.98 148.146 528.642 149.148 C 527.565 149.97 526.653 150.888 525.909 151.908 C 525.165 152.937 524.61 153.705 524.232 154.224 L 524.232 185.745 C 524.232 187.008 524.496 188.073 525.015 188.922 C 525.537 189.783 526.314 190.431 527.352 190.881 C 528.132 191.253 528.936 191.529 529.752 191.712 C 530.577 191.901 531.48 192.03 532.485 192.105 L 532.485 195.789 L 505.761 195.789 L 505.761 192.105 C 506.616 192.033 507.498 191.961 508.416 191.883 C 509.322 191.814 510.108 191.664 510.786 191.436 C 511.824 191.103 512.598 190.515 513.096 189.678 C 513.597 188.844 513.849 187.758 513.849 186.414 L 513.849 152.22 C 513.849 151.032 513.585 149.961 513.042 149.013 C 512.502 148.062 511.749 147.252 510.786 146.583 C 510.078 146.133 509.205 145.773 508.164 145.497 C 507.123 145.215 506.046 145.044 504.927 144.963 L 504.927 141.339 L 523.341 140.112 L 524.121 140.892 L 524.121 148.758 L 524.511 148.758 C 525.441 147.831 526.575 146.73 527.913 145.464 C 529.257 144.207 530.499 143.175 531.654 142.398 C 532.953 141.507 534.585 140.766 536.541 140.166 C 538.491 139.575 540.603 139.272 542.871 139.272 C 546.438 139.272 549.504 140.232 552.075 142.146 C 554.646 144.063 556.485 146.379 557.595 149.091 C 558.939 147.795 560.118 146.649 561.141 145.662 C 562.161 144.678 563.514 143.628 565.185 142.509 C 566.601 141.543 568.26 140.763 570.177 140.166 C 572.091 139.578 574.218 139.275 576.567 139.275 C 581.214 139.275 584.895 140.805 587.616 143.847 C 590.325 146.898 591.684 151.587 591.684 157.911 L 591.684 185.856 C 591.684 187.161 591.906 188.226 592.359 189.066 C 592.806 189.897 593.565 190.548 594.648 190.989 C 595.503 191.325 596.346 191.574 597.183 191.745 C 598.02 191.907 598.956 192.033 600 192.102 L 600 195.786 L 599.994 195.786 L 599.994 195.786 Z" style="fill-opacity: 1; fill: rgb(255, 255, 255);"/>
  </g>
</svg>