<?xml version="1.0" encoding="utf-8"?>
<svg viewBox="0 0 200 40" xmlns="http://www.w3.org/2000/svg">
  <g id="layer1" fill="#000000" stroke="none" transform="matrix(0.00719, 0, 0, 0.00719, 26.432028, 9.193336)">
    <path d="M1790 2655 c-19 -22 -8 -150 17 -206 l21 -46 406 -101 c394 -98 497 -130 543 -174 49 -46 48 -52 -36 -518 -43 -239 -77 -436 -76 -438 2 -2 68 39 149 89 l146 92 0 41 c0 23 -9 263 -20 533 -15 381 -23 499 -34 521 -16 31 -90 103 -125 121 -12 7 -219 30 -459 51 -240 21 -456 41 -479 44 -29 4 -45 1 -53 -9z" style="fill: rgb(204, 204, 204);"/>
    <path d="M936 2431 c-4 -6 -206 -739 -276 -1000 l-11 -43 -42 6 c-23 4 -43 9 -45 10 -2 2 49 197 112 433 64 236 116 436 116 445 0 34 -149 84 -281 95 -69 5 -78 4 -87 -13 -30 -57 -345 -958 -353 -1009 -10 -68 -12 -239 -3 -272 4 -14 44 -47 107 -88 l100 -65 89 1 c127 2 130 -1 216 -203 11 -25 31 -53 44 -61 12 -8 76 -29 140 -47 l117 -33 79 23 c79 23 80 23 118 4 33 -16 46 -33 81 -103 23 -46 46 -88 51 -93 15 -15 314 -80 339 -73 13 3 53 33 91 67 81 74 119 98 153 98 23 0 65 -24 145 -83 40 -30 319 -76 352 -58 26 14 99 124 147 221 35 71 42 108 160 765 122 684 123 690 103 707 -59 52 -417 120 -466 90 -7 -5 -63 -235 -128 -533 -64 -288 -117 -525 -119 -527 -5 -6 -85 19 -85 26 0 4 47 244 105 532 58 289 104 534 103 545 -4 24 -81 57 -218 91 -128 32 -320 57 -351 46 -23 -9 -31 -40 -149 -543 l-126 -534 -34 3 c-19 1 -39 7 -44 12 -6 6 35 209 108 537 134 604 133 537 5 578 -138 43 -348 70 -363 46z" style="fill: rgb(204, 204, 204);"/>
  </g>
  <path d="M 64.858 17.77 L 64.048 22.24 L 59.188 22.24 L 57.988 29.2 L 52.288 29.2 L 55.588 10.45 L 67.288 10.45 L 65.698 15.25 L 60.418 15.25 L 59.998 17.77 L 64.858 17.77 Z M 71.848 29.2 L 66.148 29.2 L 69.448 10.45 L 75.148 10.45 L 71.848 29.2 Z M 85.588 23.68 L 85.588 23.68 L 85.738 22.87 L 84.298 22.87 L 85.108 18.28 L 91.978 18.28 L 90.208 28.3 L 90.208 28.3 C 87.768 29.2 85.318 29.65 82.858 29.65 L 82.858 29.65 L 82.858 29.65 C 80.398 29.65 78.621 29.16 77.528 28.18 L 77.528 28.18 L 77.528 28.18 C 76.441 27.2 75.898 25.69 75.898 23.65 L 75.898 23.65 L 75.898 23.65 C 75.898 22.79 76.038 21.52 76.318 19.84 L 76.318 19.84 L 76.318 19.84 C 76.918 16.36 77.978 13.85 79.498 12.31 L 79.498 12.31 L 79.498 12.31 C 81.018 10.77 83.538 10 87.058 10 L 87.058 10 L 87.058 10 C 87.798 10 88.741 10.08 89.888 10.24 L 89.888 10.24 L 89.888 10.24 C 91.041 10.4 91.888 10.58 92.428 10.78 L 92.428 10.78 L 90.778 15.37 L 90.778 15.37 C 89.278 15.09 87.901 14.95 86.648 14.95 L 86.648 14.95 L 86.648 14.95 C 85.401 14.95 84.508 15.05 83.968 15.25 L 83.968 15.25 L 83.968 15.25 C 83.428 15.45 83.108 15.85 83.008 16.45 L 83.008 16.45 L 81.538 24.94 L 83.428 24.94 L 83.428 24.94 C 84.108 24.94 84.611 24.867 84.938 24.72 L 84.938 24.72 L 84.938 24.72 C 85.271 24.567 85.488 24.22 85.588 23.68 Z M 108.658 29.2 L 102.958 29.2 L 104.098 22.57 L 99.808 22.57 L 98.668 29.2 L 92.968 29.2 L 96.268 10.45 L 101.968 10.45 L 100.798 17.08 L 105.088 17.08 L 106.258 10.45 L 111.958 10.45 L 108.658 29.2 Z M 128.368 10.45 L 127.498 15.25 L 123.358 15.25 L 120.928 29.2 L 115.228 29.2 L 117.658 15.25 L 113.548 15.25 L 114.418 10.45 L 128.368 10.45 Z M 132.928 29.2 L 127.228 29.2 L 130.528 10.45 L 136.228 10.45 L 132.928 29.2 Z M 152.308 29.2 L 146.938 29.2 L 143.878 22.54 L 143.878 22.54 C 143.798 22.4 143.758 22.203 143.758 21.95 L 143.758 21.95 L 143.758 21.95 C 143.758 21.703 143.778 21.42 143.818 21.1 L 143.818 21.1 L 143.578 21.1 L 142.168 29.2 L 136.468 29.2 L 139.768 10.45 L 145.138 10.45 L 148.198 17.11 L 148.198 17.11 C 148.258 17.25 148.288 17.447 148.288 17.7 L 148.288 17.7 L 148.288 17.7 C 148.288 17.947 148.268 18.23 148.228 18.55 L 148.228 18.55 L 148.468 18.55 L 149.908 10.45 L 155.608 10.45 L 152.308 29.2 Z M 166.318 23.68 L 166.318 23.68 L 166.468 22.87 L 165.028 22.87 L 165.838 18.28 L 172.708 18.28 L 170.938 28.3 L 170.938 28.3 C 168.498 29.2 166.048 29.65 163.588 29.65 L 163.588 29.65 L 163.588 29.65 C 161.128 29.65 159.351 29.16 158.258 28.18 L 158.258 28.18 L 158.258 28.18 C 157.171 27.2 156.628 25.69 156.628 23.65 L 156.628 23.65 L 156.628 23.65 C 156.628 22.79 156.768 21.52 157.048 19.84 L 157.048 19.84 L 157.048 19.84 C 157.648 16.36 158.708 13.85 160.228 12.31 L 160.228 12.31 L 160.228 12.31 C 161.748 10.77 164.268 10 167.788 10 L 167.788 10 L 167.788 10 C 168.528 10 169.471 10.08 170.618 10.24 L 170.618 10.24 L 170.618 10.24 C 171.771 10.4 172.618 10.58 173.158 10.78 L 173.158 10.78 L 171.508 15.37 L 171.508 15.37 C 170.008 15.09 168.631 14.95 167.378 14.95 L 167.378 14.95 L 167.378 14.95 C 166.131 14.95 165.238 15.05 164.698 15.25 L 164.698 15.25 L 164.698 15.25 C 164.158 15.45 163.838 15.85 163.738 16.45 L 163.738 16.45 L 162.268 24.94 L 164.158 24.94 L 164.158 24.94 C 164.838 24.94 165.341 24.867 165.668 24.72 L 165.668 24.72 L 165.668 24.72 C 166.001 24.567 166.218 24.22 166.318 23.68 Z" style="white-space: pre; fill: rgb(255, 255, 255);"/>
</svg>