<?xml version="1.0" encoding="utf-8"?>
<svg version="1.2" baseProfile="tiny" id="Layer_4" x="0px" y="0px" preserveAspectRatio="none" xmlns="http://www.w3.org/2000/svg">
  <g transform="matrix(0.578387, -0.154978, 0.154978, 0.578387, 266.892365, 148.881485)">
    <path d="M192.498,221.686c-0.763,0-1.375-0.62-1.377-1.377l0,0v-17.392c0.002-0.757,0.614-1.379,1.377-1.379l0,0&#10;&#9;&#9;h18.336c0.759,0.002,1.375,0.614,1.377,1.379l0,0v17.392c-0.002,0.765-0.618,1.375-1.377,1.377l0,0H192.498L192.498,221.686z&#10;&#9;&#9; M210.212,219.687v-16.149h-17.089v16.149H210.212L210.212,219.687z" style="fill: rgb(30, 30, 30);"/>
    <path d="M196.769,217.415c-1.387,0-2.507-1.122-2.507-2.506l0,0v-9.293c0-1.387,1.122-2.507,2.507-2.509l0,0&#10;&#9;&#9;l9.795,0.002c1.384,0,2.506,1.12,2.506,2.507l0,0v9.293c0,1.384-1.122,2.506-2.506,2.508l0,0L196.769,217.415L196.769,217.415z&#10;&#9;&#9; M196.261,205.616v9.293c0.002,0.28,0.229,0.506,0.508,0.506l0,0l9.795,0.002c0.279-0.002,0.506-0.228,0.508-0.508l0,0v-9.293&#10;&#9;&#9;c-0.002-0.281-0.228-0.507-0.508-0.507l0,0l-9.795-0.002C196.488,205.109,196.263,205.335,196.261,205.616L196.261,205.616z" style="fill: rgb(30, 30, 30);"/>
  </g>
  <g transform="matrix(0.578387, -0.154978, 0.154978, 0.578387, 266.892365, 148.881485)">
    <path d="M212.447,221.686c-0.761-0.002-1.375-0.616-1.377-1.377l0,0v-17.392c0-0.761,0.616-1.379,1.377-1.379l0,0&#10;&#9;&#9;h18.336c0.763,0.002,1.375,0.614,1.377,1.379l0,0v17.392c-0.002,0.765-0.616,1.375-1.377,1.377l0,0H212.447L212.447,221.686z&#10;&#9;&#9; M230.161,219.687v-16.149h-17.09v16.149H230.161L230.161,219.687z" style="fill: rgb(30, 30, 30);"/>
    <path d="M216.718,217.415c-1.385,0-2.507-1.122-2.507-2.506l0,0v-9.293c0-1.387,1.122-2.507,2.507-2.509l0,0&#10;&#9;&#9;l9.794,0.002c1.385,0.002,2.504,1.122,2.507,2.507l0,0v9.293c0,1.384-1.12,2.506-2.507,2.508l0,0L216.718,217.415L216.718,217.415z&#10;&#9;&#9; M216.21,205.616v9.293c0.002,0.28,0.227,0.506,0.508,0.506l0,0l9.794,0.002c0.281-0.002,0.506-0.228,0.508-0.508l0,0v-9.293&#10;&#9;&#9;c-0.002-0.283-0.227-0.507-0.508-0.507l0,0l-9.794-0.002C216.437,205.109,216.212,205.335,216.21,205.616L216.21,205.616z" style="fill: rgb(30, 30, 30);"/>
  </g>
  <g transform="matrix(0.578387, -0.154978, 0.154978, 0.578387, 266.892365, 148.881485)">
    <path d="M232.396,221.686c-0.761-0.002-1.375-0.616-1.377-1.377l0,0v-17.392c0-0.761,0.616-1.379,1.377-1.379l0,0&#10;&#9;&#9;h18.337c0.763,0,1.375,0.622,1.377,1.379l0,0v17.392c-0.002,0.757-0.614,1.377-1.377,1.377l0,0H232.396L232.396,221.686z&#10;&#9;&#9; M250.108,219.687v-16.149h-17.088v16.149H250.108L250.108,219.687z" style="fill: rgb(30, 30, 30);"/>
    <path d="M236.667,217.415c-1.386,0-2.506-1.122-2.506-2.506l0,0v-9.293c0-1.385,1.122-2.507,2.506-2.509l0,0&#10;&#9;&#9;l9.795,0.002c1.385,0,2.506,1.12,2.506,2.507l0,0v9.293c0,1.384-1.122,2.506-2.506,2.508l0,0L236.667,217.415L236.667,217.415z&#10;&#9;&#9; M236.161,205.616v9.293c0,0.28,0.227,0.506,0.506,0.506l0,0l9.795,0.002c0.279-0.002,0.506-0.228,0.508-0.508l0,0v-9.293&#10;&#9;&#9;c-0.002-0.281-0.227-0.507-0.508-0.507l0,0l-9.795-0.002C236.386,205.109,236.161,205.333,236.161,205.616L236.161,205.616z" style="fill: rgb(30, 30, 30);"/>
  </g>
  <g transform="matrix(0.578387, -0.154978, 0.154978, 0.578387, 266.892365, 148.881485)">
    <path d="M252.346,221.685c-0.763,0-1.375-0.618-1.377-1.375l0,0l0.002-17.394c0-0.757,0.612-1.377,1.375-1.379l0,0&#10;&#9;&#9;l18.334,0.002c0.763,0,1.377,0.62,1.377,1.377l0,0v17.394c0,0.757-0.616,1.375-1.377,1.377l0,0L252.346,221.685L252.346,221.685z&#10;&#9;&#9; M270.059,219.686v-16.147h-17.088v16.147H270.059L270.059,219.686z" style="fill: rgb(30, 30, 30);"/>
    <path d="M256.615,217.416c-1.384,0-2.504-1.122-2.504-2.509l0,0v-9.292c0-1.385,1.122-2.507,2.504-2.507l0,0h9.797&#10;&#9;&#9;c1.384,0,2.506,1.122,2.506,2.507l0,0v9.292c0,1.385-1.12,2.509-2.506,2.509l0,0H256.615L256.615,217.416z M256.109,205.615v9.292&#10;&#9;&#9;c0.002,0.281,0.229,0.509,0.506,0.509l0,0h9.797c0.279,0,0.506-0.226,0.506-0.509l0,0v-9.292c0-0.281-0.225-0.507-0.506-0.507l0,0&#10;&#9;&#9;h-9.797C256.336,205.108,256.111,205.334,256.109,205.615L256.109,205.615z" style="fill: rgb(30, 30, 30);"/>
  </g>
  <g transform="matrix(0.578387, -0.154978, 0.154978, 0.578387, 266.892365, 148.881485)">
    <path d="M272.294,221.686c-0.763-0.002-1.375-0.616-1.377-1.377l0,0l0.002-17.392c0-0.761,0.612-1.377,1.375-1.379&#10;&#9;&#9;l0,0h18.336c0.761,0.002,1.375,0.614,1.377,1.379l0,0v17.392c-0.002,0.765-0.618,1.375-1.377,1.377l0,0H272.294L272.294,221.686z&#10;&#9;&#9; M290.009,219.687v-16.149h-17.09v16.149H290.009L290.009,219.687z" style="fill: rgb(30, 30, 30);"/>
    <path d="M276.564,217.416c-1.385,0-2.507-1.122-2.507-2.509l0,0v-9.292c0-1.385,1.125-2.507,2.507-2.507l0,0h9.797&#10;&#9;&#9;c1.384,0,2.506,1.122,2.506,2.507l0,0v9.292c0,1.387-1.12,2.509-2.506,2.509l0,0H276.564L276.564,217.416z M276.058,205.615v9.292&#10;&#9;&#9;c0,0.281,0.227,0.509,0.506,0.509l0,0h9.797c0.279,0,0.506-0.228,0.508-0.509l0,0v-9.292c-0.002-0.281-0.228-0.507-0.508-0.507l0,0&#10;&#9;&#9;h-9.797C276.285,205.108,276.058,205.334,276.058,205.615L276.058,205.615z" style="fill: rgb(30, 30, 30);"/>
  </g>
  <g transform="matrix(0.578387, -0.154978, 0.154978, 0.578387, 266.892365, 148.881485)">
    <path d="M292.246,221.686c-0.763-0.002-1.377-0.616-1.379-1.377l0,0l0.002-17.392c0-0.761,0.614-1.379,1.377-1.379&#10;&#9;&#9;l0,0h18.334c0.763,0.002,1.375,0.618,1.377,1.379l0,0v17.392h-0.002c0,0.761-0.612,1.375-1.375,1.377l0,0H292.246L292.246,221.686z&#10;&#9;&#9; M309.955,219.687l0.002-16.149h-17.089v16.149H309.955L309.955,219.687z" style="fill: rgb(30, 30, 30);"/>
    <path d="M296.515,217.415c-1.385,0-2.507-1.122-2.507-2.506l0,0v-9.293c0-1.387,1.122-2.507,2.507-2.509l0,0&#10;&#9;&#9;l9.797,0.002c1.384,0,2.506,1.12,2.506,2.507l0,0v9.293c0,1.384-1.122,2.506-2.506,2.508l0,0L296.515,217.415L296.515,217.415z&#10;&#9;&#9; M296.006,205.616v9.293c0.002,0.28,0.229,0.506,0.508,0.506l0,0l9.797,0.002c0.278-0.002,0.506-0.228,0.506-0.508l0,0v-9.293&#10;&#9;&#9;c0-0.281-0.228-0.507-0.506-0.507l0,0l-9.797-0.002C296.233,205.109,296.008,205.335,296.006,205.616L296.006,205.616z" style="fill: rgb(30, 30, 30);"/>
  </g>
  <g transform="matrix(0.578387, -0.154978, 0.154978, 0.578387, 266.892365, 148.881485)">
    <path d="M312.195,221.685c-0.761,0-1.379-0.614-1.379-1.375l0,0v-17.394c0.002-0.761,0.618-1.377,1.379-1.379l0,0&#10;&#9;&#9;l18.335,0.002c0.761,0,1.375,0.616,1.377,1.377l0,0v17.394h-0.002c0,0.761-0.614,1.375-1.375,1.377l0,0L312.195,221.685&#10;&#9;&#9;L312.195,221.685z M329.905,219.686l0.002-16.147h-17.09l-0.002,16.147H329.905L329.905,219.686z" style="fill: rgb(30, 30, 30);"/>
    <path d="M316.463,217.415c-1.384,0-2.506-1.122-2.506-2.506l0,0v-9.293c0.002-1.385,1.122-2.505,2.506-2.509l0,0&#10;&#9;&#9;l9.797,0.002c1.383,0,2.507,1.12,2.507,2.507l0,0v9.293c-0.002,1.386-1.122,2.506-2.507,2.508l0,0L316.463,217.415L316.463,217.415&#10;&#9;&#9;z M315.957,205.616v9.293c0,0.28,0.226,0.506,0.506,0.506l0,0l9.797,0.002c0.277-0.002,0.507-0.229,0.507-0.508l0,0v-9.293&#10;&#9;&#9;c0-0.281-0.228-0.507-0.507-0.507l0,0l-9.797-0.002C316.183,205.109,315.957,205.333,315.957,205.616L315.957,205.616z" style="fill: rgb(30, 30, 30);"/>
  </g>
  <g transform="matrix(0.578387, -0.154978, 0.154978, 0.578387, 266.892365, 148.881485)">
    <path d="M332.143,221.685c-0.764,0-1.374-0.618-1.376-1.376l0,0v-17.393c0.002-0.757,0.612-1.378,1.376-1.378l0,0&#10;&#9;&#9;h18.336c0.762,0.002,1.374,0.615,1.378,1.378l0,0v17.393h-0.002c-0.002,0.766-0.614,1.374-1.376,1.376l0,0H332.143L332.143,221.685&#10;&#9;&#9;z M349.855,219.686v-16.148h-17.088l-0.002,16.148H349.855L349.855,219.686z" style="fill: rgb(30, 30, 30);"/>
    <path d="M336.413,217.416c-1.384,0-2.507-1.121-2.507-2.507l0,0v-9.294c0-1.386,1.123-2.507,2.507-2.507l0,0h9.795&#10;&#9;&#9;c1.386,0,2.507,1.123,2.507,2.507l0,0v9.294c0,1.384-1.121,2.507-2.507,2.507l0,0H336.413L336.413,217.416z M335.904,205.615v9.294&#10;&#9;&#9;c0.002,0.279,0.229,0.507,0.509,0.507l0,0h9.795c0.279,0,0.507-0.226,0.507-0.507l0,0v-9.294c0-0.281-0.226-0.507-0.507-0.507l0,0&#10;&#9;&#9;h-9.795C336.132,205.108,335.906,205.336,335.904,205.615L335.904,205.615z" style="fill: rgb(30, 30, 30);"/>
  </g>
  <g transform="matrix(0.578387, -0.154978, 0.154978, 0.578387, 266.892365, 148.881485)">
    <path d="M352.092,221.686c-0.761,0-1.375-0.618-1.377-1.376l0,0v-17.393c0.002-0.757,0.614-1.377,1.377-1.379l0,0&#10;&#9;&#9;h18.335c0.761,0.002,1.377,0.618,1.379,1.379l0,0v17.393h-0.002c0,0.762-0.616,1.376-1.377,1.376l0,0H352.092L352.092,221.686z&#10;&#9;&#9; M369.805,219.686v-16.146l-17.089-0.002l-0.002,16.148H369.805L369.805,219.686z" style="fill: rgb(30, 30, 30);"/>
    <path d="M356.362,217.416c-1.387,0-2.506-1.123-2.506-2.508l0,0v-9.293c0-1.385,1.121-2.507,2.506-2.507l0,0h9.797&#10;&#9;&#9;c1.383,0.003,2.504,1.122,2.506,2.507l0,0v9.293c-0.002,1.385-1.121,2.508-2.506,2.508l0,0H356.362L356.362,217.416z&#10;&#9;&#9; M355.854,205.615v9.293c0.002,0.281,0.229,0.508,0.508,0.508l0,0h9.797c0.279,0,0.506-0.227,0.506-0.508l0,0v-9.293&#10;&#9;&#9;c0-0.282-0.225-0.506-0.506-0.506l0,0l-9.797-0.002C356.081,205.109,355.856,205.333,355.854,205.615L355.854,205.615z" style="fill: rgb(30, 30, 30);"/>
  </g>
  <g transform="matrix(0.578387, -0.154978, 0.154978, 0.578387, 266.892365, 148.881485)">
    <path d="M372.042,221.686c-0.761,0-1.376-0.615-1.379-1.376l0,0l0.003-17.394c0-0.761,0.615-1.376,1.376-1.376l0,0&#10;&#9;&#9;h18.337c0.764,0,1.374,0.619,1.374,1.376l0,0v17.394c0,0.757-0.61,1.376-1.374,1.376l0,0H372.042L372.042,221.686z&#10;&#9;&#9; M389.753,219.686l0.002-16.148h-17.092v16.148H389.753L389.753,219.686z" style="fill: rgb(30, 30, 30);"/>
    <path d="M376.312,217.415c-1.385,0-2.507-1.122-2.507-2.507l0,0v-9.292c0-1.386,1.122-2.508,2.507-2.508l0,0h9.797&#10;&#9;&#9;c1.384,0,2.506,1.122,2.506,2.508l0,0v9.292c0,1.385-1.122,2.507-2.506,2.509l0,0L376.312,217.415L376.312,217.415z&#10;&#9;&#9; M375.804,205.616v9.292c0.003,0.281,0.229,0.508,0.508,0.508l0,0h9.797c0.278,0,0.505-0.227,0.507-0.508l0,0v-9.292&#10;&#9;&#9;c-0.002-0.282-0.229-0.507-0.507-0.507l0,0l-9.797-0.002C376.033,205.109,375.807,205.334,375.804,205.616L375.804,205.616z" style="fill: rgb(30, 30, 30);"/>
  </g>
  <g transform="matrix(0.578387, -0.154978, 0.154978, 0.578387, 266.892365, 148.881485)">
    <path d="M391.991,221.686c-0.765-0.002-1.375-0.615-1.377-1.376l0,0v-17.394c0-0.76,0.612-1.377,1.377-1.377l0,0&#10;&#9;&#9;h18.336c0.761,0,1.375,0.617,1.377,1.377l0,0v17.394h-0.002c0,0.761-0.614,1.374-1.375,1.376l0,0H391.991L391.991,221.686z&#10;&#9;&#9; M409.702,219.687l0.002-16.149h-17.09v16.149H409.702L409.702,219.687z" style="fill: rgb(30, 30, 30);"/>
    <path d="M396.262,217.416c-1.387,0-2.504-1.125-2.506-2.507l0,0v-9.293c0.002-1.384,1.119-2.507,2.506-2.509l0,0&#10;&#9;&#9;l9.796,0.002c1.384,0,2.506,1.121,2.506,2.507l0,0v9.293c0,1.384-1.122,2.507-2.506,2.507l0,0H396.262L396.262,217.416z&#10;&#9;&#9; M395.754,205.616v9.293c0.002,0.281,0.227,0.507,0.508,0.507l0,0h9.796c0.277,0,0.506-0.228,0.506-0.507l0,0v-9.293&#10;&#9;&#9;c0-0.281-0.227-0.507-0.506-0.507l0,0l-9.796-0.002C395.98,205.109,395.756,205.333,395.754,205.616L395.754,205.616z" style="fill: rgb(30, 30, 30);"/>
  </g>
  <g transform="matrix(0.578387, -0.154978, 0.154978, 0.578387, 266.892365, 148.881485)">
    <path d="M148.229,241.729c-0.76,0-1.376-0.613-1.376-1.376l0,0V222.96c0-0.763,0.616-1.378,1.376-1.378l0,0h18.336&#10;&#9;&#9;c0.758,0,1.374,0.611,1.376,1.378l0,0v17.393c-0.002,0.768-0.62,1.374-1.376,1.376l0,0H148.229L148.229,241.729z M165.941,239.729&#10;&#9;&#9;v-16.147h-17.088v16.147H165.941L165.941,239.729z" style="fill: rgb(30, 30, 30);"/>
    <path d="M152.499,237.459c-1.386,0-2.506-1.122-2.506-2.506l0,0v-9.293c0-1.386,1.121-2.509,2.506-2.509l0,0h9.796&#10;&#9;&#9;c1.386,0,2.506,1.123,2.506,2.509l0,0v9.293c0,1.384-1.121,2.506-2.506,2.508l0,0L152.499,237.459L152.499,237.459z&#10;&#9;&#9; M151.992,225.66v9.293c0,0.277,0.229,0.507,0.507,0.507l0,0h9.796c0.28,0,0.507-0.228,0.507-0.507l0,0v-9.293&#10;&#9;&#9;c0-0.281-0.228-0.507-0.507-0.507l0,0l-9.796-0.003C152.221,225.153,151.992,225.381,151.992,225.66L151.992,225.66z" style="fill: rgb(30, 30, 30);"/>
  </g>
  <g transform="matrix(0.578387, -0.154978, 0.154978, 0.578387, 266.892365, 148.881485)">
    <path d="M168.179,241.728c-0.756,0-1.376-0.608-1.378-1.374l0,0l0.002-17.395c0-0.765,0.62-1.376,1.376-1.378l0,0&#10;&#9;&#9;l18.335,0.002c0.758,0,1.376,0.618,1.378,1.376l0,0v17.395h-0.002c0,0.759-0.618,1.374-1.376,1.374l0,0H168.179L168.179,241.728z&#10;&#9;&#9; M185.89,239.728v-16.145l-17.088-0.002l-0.002,16.146H185.89L185.89,239.728z" style="fill: rgb(30, 30, 30);"/>
    <path d="M172.449,237.459c-1.386,0-2.507-1.122-2.507-2.506l0,0v-9.293c0-1.386,1.121-2.509,2.507-2.509l0,0h9.795&#10;&#9;&#9;c1.386,0,2.507,1.123,2.507,2.509l0,0v9.293c0,1.384-1.121,2.506-2.507,2.508l0,0L172.449,237.459L172.449,237.459z&#10;&#9;&#9; M171.941,225.66v9.293c0.002,0.279,0.23,0.507,0.508,0.507l0,0h9.795c0.278,0,0.506-0.228,0.508-0.507l0,0v-9.293&#10;&#9;&#9;c-0.002-0.281-0.23-0.507-0.508-0.507l0,0l-9.795-0.003C172.171,225.153,171.943,225.379,171.941,225.66L171.941,225.66z" style="fill: rgb(30, 30, 30);"/>
  </g>
  <g transform="matrix(0.578387, -0.154978, 0.154978, 0.578387, 266.892365, 148.881485)">
    <path d="M188.128,241.728c-0.758,0-1.376-0.615-1.378-1.374l0,0l0.002-17.395c0-0.758,0.618-1.376,1.376-1.378l0,0&#10;&#9;&#9;l18.336,0.002c0.756,0,1.374,0.615,1.376,1.376l0,0v17.395c0,0.763-0.62,1.374-1.376,1.374l0,0H188.128L188.128,241.728z&#10;&#9;&#9; M205.84,239.728v-16.145l-17.088-0.002l-0.002,16.146H205.84L205.84,239.728z" style="fill: rgb(30, 30, 30);"/>
    <path d="M192.399,237.459c-1.388,0-2.506-1.122-2.508-2.506l0,0v-9.293c0.002-1.386,1.121-2.509,2.508-2.509l0,0&#10;&#9;&#9;h9.796c1.386,0,2.504,1.125,2.504,2.509l0,0v9.293c0,1.382-1.119,2.506-2.504,2.508l0,0L192.399,237.459L192.399,237.459z&#10;&#9;&#9; M191.892,225.66v9.293c0,0.279,0.228,0.507,0.507,0.507l0,0h9.796c0.278,0,0.503-0.228,0.505-0.507l0,0v-9.293&#10;&#9;&#9;c-0.002-0.281-0.228-0.507-0.505-0.507l0,0l-9.796-0.003C192.12,225.153,191.892,225.379,191.892,225.66L191.892,225.66z" style="fill: rgb(30, 30, 30);"/>
  </g>
  <g transform="matrix(0.578387, -0.154978, 0.154978, 0.578387, 266.892365, 148.881485)">
    <path d="M208.078,241.729c-0.761-0.002-1.376-0.617-1.376-1.376l0,0V222.96c0-0.758,0.615-1.376,1.376-1.378l0,0&#10;&#9;&#9;h18.335c0.759,0.002,1.376,0.615,1.376,1.378l0,0v17.393c0,0.763-0.62,1.374-1.376,1.376l0,0H208.078L208.078,241.729z&#10;&#9;&#9; M225.789,239.729v-16.147h-17.087v16.147H225.789L225.789,239.729z" style="fill: rgb(30, 30, 30);"/>
    <path d="M212.346,237.46c-1.386-0.002-2.504-1.124-2.507-2.508l0,0v-9.293c0.002-1.384,1.121-2.506,2.507-2.506l0,0&#10;&#9;&#9;h9.798c1.384,0,2.506,1.12,2.506,2.506l0,0v9.293c0,1.386-1.123,2.506-2.506,2.508l0,0H212.346L212.346,237.46z M211.84,225.659&#10;&#9;&#9;v9.293c0,0.279,0.23,0.507,0.506,0.509l0,0h9.798c0.277-0.002,0.505-0.229,0.507-0.509l0,0v-9.293&#10;&#9;&#9;c-0.002-0.279-0.23-0.508-0.507-0.508l0,0h-9.798C212.07,225.151,211.84,225.38,211.84,225.659L211.84,225.659z" style="fill: rgb(30, 30, 30);"/>
  </g>
  <g transform="matrix(0.578387, -0.154978, 0.154978, 0.578387, 266.892365, 148.881485)">
    <path d="M228.025,241.729c-0.758,0-1.374-0.613-1.376-1.376l0,0V222.96c0-0.763,0.618-1.378,1.376-1.378l0,0h18.338&#10;&#9;&#9;c0.756,0.002,1.374,0.615,1.376,1.378l0,0v17.393c-0.002,0.763-0.62,1.374-1.376,1.376l0,0H228.025L228.025,241.729z&#10;&#9;&#9; M245.739,239.729v-16.147h-17.09v16.147H245.739L245.739,239.729z" style="fill: rgb(30, 30, 30);"/>
    <path d="M232.297,237.459c-1.386,0-2.506-1.122-2.506-2.506l0,0v-9.293c0-1.386,1.121-2.509,2.506-2.509l0,0h9.796&#10;&#9;&#9;c1.386,0,2.506,1.123,2.506,2.509l0,0v9.293c0,1.384-1.121,2.506-2.506,2.508l0,0L232.297,237.459L232.297,237.459z M231.79,225.66&#10;&#9;&#9;v9.293c0,0.279,0.228,0.507,0.507,0.507l0,0h9.796c0.278,0,0.505-0.228,0.508-0.507l0,0v-9.293&#10;&#9;&#9;c-0.002-0.281-0.23-0.507-0.508-0.507l0,0l-9.796-0.003C232.018,225.153,231.79,225.379,231.79,225.66L231.79,225.66z" style="fill: rgb(30, 30, 30);"/>
  </g>
  <g transform="matrix(0.578387, -0.154978, 0.154978, 0.578387, 266.892365, 148.881485)">
    <path d="M247.976,241.729c-0.756-0.002-1.376-0.613-1.376-1.376l0,0V222.96c0-0.763,0.62-1.376,1.376-1.378l0,0&#10;&#9;&#9;h18.337c0.759,0.002,1.374,0.62,1.376,1.378l0,0v17.393h-0.002c0,0.759-0.615,1.374-1.374,1.376l0,0H247.976L247.976,241.729z&#10;&#9;&#9; M265.687,239.729l0.002-16.147h-17.09v16.147H265.687L265.687,239.729z" style="fill: rgb(30, 30, 30);"/>
    <path d="M252.245,237.459c-1.386,0-2.506-1.122-2.506-2.506l0,0v-9.293c0-1.386,1.121-2.509,2.506-2.509l0,0h9.796&#10;&#9;&#9;c1.386,0,2.506,1.123,2.506,2.509l0,0v9.293c0,1.384-1.121,2.506-2.506,2.508l0,0L252.245,237.459L252.245,237.459z&#10;&#9;&#9; M251.737,225.66v9.293c0.002,0.279,0.23,0.507,0.508,0.507l0,0h9.796c0.279,0,0.507-0.228,0.507-0.507l0,0v-9.293&#10;&#9;&#9;c0-0.281-0.228-0.507-0.507-0.507l0,0l-9.796-0.003C251.967,225.153,251.74,225.379,251.737,225.66L251.737,225.66z" style="fill: rgb(30, 30, 30);"/>
  </g>
  <g transform="matrix(0.578387, -0.154978, 0.154978, 0.578387, 266.892365, 148.881485)">
    <path d="M267.925,241.729c-0.758-0.002-1.376-0.613-1.378-1.376l0,0l0.002-17.393c0-0.763,0.618-1.376,1.376-1.378&#10;&#9;&#9;l0,0h18.336c0.76,0.002,1.374,0.62,1.376,1.378l0,0v17.393c-0.002,0.759-0.618,1.374-1.376,1.376l0,0H267.925L267.925,241.729z&#10;&#9;&#9; M285.637,239.729v-16.147h-17.088l-0.002,16.147H285.637L285.637,239.729z" style="fill: rgb(30, 30, 30);"/>
    <path d="M272.195,237.459c-1.386,0-2.504-1.122-2.506-2.506l0,0v-9.293c0.002-1.386,1.121-2.509,2.506-2.509l0,0&#10;&#9;&#9;h9.796c1.386,0,2.507,1.123,2.507,2.509l0,0v9.293c0,1.384-1.121,2.506-2.507,2.508l0,0L272.195,237.459L272.195,237.459z&#10;&#9;&#9; M271.689,225.66v9.293c0,0.279,0.228,0.507,0.505,0.507l0,0h9.796c0.278,0,0.505-0.228,0.508-0.507l0,0v-9.293&#10;&#9;&#9;c-0.002-0.281-0.23-0.507-0.508-0.507l0,0l-9.796-0.003C271.917,225.153,271.689,225.379,271.689,225.66L271.689,225.66z" style="fill: rgb(30, 30, 30);"/>
  </g>
  <g transform="matrix(0.578387, -0.154978, 0.154978, 0.578387, 266.892365, 148.881485)">
    <path d="M287.874,241.729c-0.759,0-1.374-0.613-1.376-1.376l0,0V222.96c0-0.763,0.618-1.378,1.376-1.378l0,0h18.335&#10;&#9;&#9;c0.756,0.002,1.376,0.611,1.378,1.378l0,0v17.393c-0.002,0.768-0.622,1.376-1.378,1.376l0,0H287.874L287.874,241.729z&#10;&#9;&#9; M305.587,239.729v-16.147h-17.09v16.147H305.587L305.587,239.729z" style="fill: rgb(30, 30, 30);"/>
    <path d="M292.145,237.459c-1.386,0-2.506-1.122-2.508-2.506l0,0v-9.293c0.002-1.386,1.123-2.509,2.508-2.509l0,0&#10;&#9;&#9;h9.795c1.386,0,2.507,1.123,2.507,2.509l0,0v9.293c0,1.384-1.121,2.506-2.507,2.508l0,0L292.145,237.459L292.145,237.459z&#10;&#9;&#9; M291.638,225.66v9.293c0,0.277,0.228,0.507,0.507,0.507l0,0h9.795c0.277,0,0.506-0.228,0.508-0.507l0,0v-9.293&#10;&#9;&#9;c-0.002-0.281-0.23-0.507-0.508-0.507l0,0l-9.795-0.003C291.865,225.153,291.638,225.381,291.638,225.66L291.638,225.66z" style="fill: rgb(30, 30, 30);"/>
  </g>
  <g transform="matrix(0.578387, -0.154978, 0.154978, 0.578387, 266.892365, 148.881485)">
    <path d="M307.823,241.729c-0.757-0.002-1.376-0.617-1.378-1.376l0,0l0.002-17.393c0-0.76,0.617-1.376,1.376-1.378&#10;&#9;&#9;l0,0h18.335c0.761,0.002,1.374,0.62,1.377,1.378l0,0v17.393c-0.003,0.759-0.616,1.374-1.377,1.376l0,0H307.823L307.823,241.729z&#10;&#9;&#9; M325.535,239.729v-16.147h-17.088l-0.002,16.147H325.535L325.535,239.729z" style="fill: rgb(30, 30, 30);"/>
    <path d="M312.095,237.459c-1.388,0-2.509-1.122-2.509-2.506l0,0v-9.293c0-1.386,1.121-2.509,2.509-2.509l0,0h9.794&#10;&#9;&#9;c1.386,0,2.507,1.123,2.507,2.509l0,0v9.293c0,1.384-1.121,2.506-2.507,2.508l0,0L312.095,237.459L312.095,237.459z&#10;&#9;&#9; M311.585,225.66v9.293c0.002,0.279,0.229,0.507,0.51,0.507l0,0h9.794c0.279,0,0.508-0.229,0.508-0.507l0,0v-9.293&#10;&#9;&#9;c0-0.279-0.229-0.507-0.508-0.507l0,0l-9.794-0.003C311.813,225.153,311.587,225.379,311.585,225.66L311.585,225.66z" style="fill: rgb(30, 30, 30);"/>
  </g>
  <g transform="matrix(0.578387, -0.154978, 0.154978, 0.578387, 266.892365, 148.881485)">
    <path d="M327.774,241.728c-0.755,0-1.379-0.608-1.381-1.374l0,0l0.002-17.395c0-0.767,0.622-1.376,1.379-1.378l0,0&#10;&#9;&#9;l18.335,0.002c0.759,0,1.374,0.615,1.376,1.376l0,0v17.395h-0.002c0,0.761-0.615,1.374-1.374,1.374l0,0H327.774L327.774,241.728z&#10;&#9;&#9; M345.483,239.728l0.002-16.145l-17.09-0.002l-0.002,16.146H345.483L345.483,239.728z" style="fill: rgb(30, 30, 30);"/>
    <path d="M332.043,237.459c-1.386,0-2.507-1.124-2.507-2.506l0,0v-9.293c0-1.384,1.121-2.509,2.507-2.509l0,0h9.796&#10;&#9;&#9;c1.386,0,2.506,1.123,2.506,2.509l0,0v9.293c0,1.384-1.12,2.506-2.506,2.508l0,0L332.043,237.459L332.043,237.459z M331.535,225.66&#10;&#9;&#9;v9.293c0.002,0.279,0.228,0.507,0.508,0.507l0,0h9.796c0.277,0,0.505-0.228,0.507-0.507l0,0v-9.293&#10;&#9;&#9;c-0.002-0.281-0.229-0.507-0.507-0.507l0,0l-9.796-0.003C331.763,225.153,331.537,225.379,331.535,225.66L331.535,225.66z" style="fill: rgb(30, 30, 30);"/>
  </g>
  <g transform="matrix(0.578387, -0.154978, 0.154978, 0.578387, 266.892365, 148.881485)">
    <path d="M347.723,241.729c-0.759-0.002-1.378-0.613-1.378-1.374l0,0V222.96c0.002-0.763,0.619-1.376,1.378-1.376&#10;&#9;&#9;l0,0h18.336c0.758,0,1.374,0.613,1.376,1.376l0,0v17.395h-0.002c0,0.761-0.616,1.374-1.374,1.374l0,0H347.723L347.723,241.729z&#10;&#9;&#9; M365.433,239.729l0.001-16.146h-17.089v16.146H365.433L365.433,239.729z" style="fill: rgb(30, 30, 30);"/>
    <path d="M351.993,237.458c-1.387,0-2.508-1.12-2.508-2.505l0,0v-9.294c0-1.386,1.121-2.507,2.508-2.509l0,0&#10;&#9;&#9;l9.795,0.002c1.386,0,2.507,1.123,2.507,2.507l0,0v9.294c0,1.385-1.121,2.505-2.507,2.508l0,0L351.993,237.458L351.993,237.458z&#10;&#9;&#9; M351.483,225.659v9.294c0.002,0.277,0.229,0.506,0.51,0.506l0,0l9.795,0.002c0.279-0.002,0.506-0.23,0.508-0.508l0,0v-9.294&#10;&#9;&#9;c-0.002-0.279-0.229-0.507-0.508-0.507l0,0l-9.795-0.003C351.713,225.152,351.485,225.38,351.483,225.659L351.483,225.659z" style="fill: rgb(30, 30, 30);"/>
  </g>
  <g transform="matrix(0.578387, -0.154978, 0.154978, 0.578387, 266.892365, 148.881485)">
    <path d="M367.577,241.728c-0.761,0-1.376-0.613-1.378-1.374l0,0l0.002-17.395c0-0.762,0.615-1.377,1.376-1.377l0,0&#10;&#9;&#9;h18.335c0.759,0.002,1.376,0.615,1.378,1.377l0,0v17.395h-0.002c0,0.763-0.619,1.374-1.376,1.374l0,0H367.577L367.577,241.728z&#10;&#9;&#9; M385.289,239.729v-16.147H368.2v16.147H385.289L385.289,239.729z" style="fill: rgb(30, 30, 30);"/>
    <path d="M371.847,237.459c-1.386,0-2.507-1.122-2.507-2.506l0,0v-9.293c0-1.385,1.121-2.507,2.507-2.509l0,0h9.798&#10;&#9;&#9;c1.384,0.002,2.503,1.124,2.505,2.509l0,0v9.293c-0.002,1.384-1.121,2.506-2.505,2.506l0,0H371.847L371.847,237.459z&#10;&#9;&#9; M371.34,225.66v9.293c0,0.279,0.229,0.507,0.507,0.507l0,0h9.798c0.276,0,0.505-0.228,0.505-0.507l0,0v-9.293&#10;&#9;&#9;c0-0.28-0.229-0.509-0.505-0.509l0,0h-9.798C371.568,225.151,371.34,225.38,371.34,225.66L371.34,225.66z" style="fill: rgb(30, 30, 30);"/>
  </g>
  <g transform="matrix(0.578387, -0.154978, 0.154978, 0.578387, 266.892365, 148.881485)">
    <path d="M387.527,241.728c-0.76,0-1.375-0.615-1.377-1.375l0,0V222.96c0.002-0.758,0.617-1.377,1.377-1.379l0,0&#10;&#9;&#9;l18.334,0.002c0.756,0,1.377,0.614,1.379,1.377l0,0v17.393h-0.002c0,0.763-0.621,1.375-1.377,1.377l0,0L387.527,241.728&#10;&#9;&#9;L387.527,241.728z M405.238,239.729v-16.146l-17.088-0.002v16.146L405.238,239.729L405.238,239.729z" style="fill: rgb(30, 30, 30);"/>
    <path d="M391.797,237.46c-1.387,0-2.507-1.124-2.507-2.507l0,0v-9.293c0-1.385,1.12-2.509,2.507-2.509l0,0h9.797&#10;&#9;&#9;c1.385,0.002,2.505,1.124,2.505,2.509l0,0v9.293c0,1.383-1.12,2.505-2.505,2.507l0,0H391.797L391.797,237.46z M391.289,225.66&#10;&#9;&#9;v9.293c0.002,0.279,0.229,0.506,0.508,0.506l0,0l9.797,0.002c0.276-0.002,0.506-0.229,0.506-0.508l0,0v-9.293&#10;&#9;&#9;c0-0.281-0.229-0.508-0.506-0.508l0,0l-9.797-0.002C391.518,225.152,391.291,225.379,391.289,225.66L391.289,225.66z" style="fill: rgb(30, 30, 30);"/>
  </g>
  <g transform="matrix(0.578387, -0.154978, 0.154978, 0.578387, 266.892365, 148.881485)">
    <path d="M407.477,241.728c-0.758,0-1.378-0.611-1.378-1.376l0,0v-17.393c0.002-0.762,0.618-1.376,1.378-1.376l0,0&#10;&#9;&#9;h18.337c0.758,0,1.371,0.612,1.376,1.376l0,0v17.393h-0.003c-0.002,0.767-0.615,1.374-1.373,1.376l0,0H407.477L407.477,241.728z&#10;&#9;&#9; M425.187,239.729l0.002-16.147h-17.09v16.147H425.187L425.187,239.729z" style="fill: rgb(30, 30, 30);"/>
    <path d="M411.747,237.459c-1.388,0-2.508-1.123-2.508-2.507l0,0v-9.292c0-1.386,1.12-2.509,2.508-2.509l0,0h9.793&#10;&#9;&#9;c1.387,0,2.507,1.123,2.509,2.509l0,0v9.292c-0.002,1.384-1.122,2.507-2.509,2.509l0,0L411.747,237.459L411.747,237.459z&#10;&#9;&#9; M411.238,225.66v9.292c0,0.28,0.228,0.508,0.509,0.508l0,0h9.793c0.28,0,0.508-0.229,0.51-0.508l0,0v-9.292&#10;&#9;&#9;c-0.002-0.279-0.229-0.509-0.51-0.509l0,0h-9.793C411.466,225.151,411.238,225.379,411.238,225.66L411.238,225.66z" style="fill: rgb(30, 30, 30);"/>
  </g>
  <g transform="matrix(0.578387, -0.154978, 0.154978, 0.578387, 266.892365, 148.881485)">
    <path d="M427.426,241.729c-0.758-0.002-1.378-0.613-1.378-1.375l0,0v-17.395c0.003-0.762,0.618-1.375,1.378-1.377&#10;&#9;&#9;l0,0h18.336c0.758,0.002,1.375,0.615,1.377,1.377l0,0v17.395h-0.002c0,0.762-0.619,1.373-1.375,1.375l0,0H427.426L427.426,241.729z&#10;&#9;&#9; M445.138,239.729v-16.147h-17.089l-0.002,16.147H445.138L445.138,239.729z" style="fill: rgb(30, 30, 30);"/>
    <path d="M431.695,237.459c-1.387,0-2.506-1.123-2.506-2.506l0,0v-9.294c0-1.385,1.119-2.506,2.506-2.509l0,0&#10;&#9;&#9;l9.796,0.003c1.385,0,2.506,1.121,2.506,2.506l0,0v9.294c0,1.383-1.121,2.506-2.506,2.508l0,0L431.695,237.459L431.695,237.459z&#10;&#9;&#9; M431.188,225.659v9.294c0.002,0.277,0.229,0.506,0.508,0.506l0,0l9.796,0.002c0.276-0.002,0.506-0.23,0.506-0.508l0,0v-9.294&#10;&#9;&#9;c0-0.28-0.229-0.509-0.506-0.509l0,0h-9.796C431.417,225.15,431.189,225.379,431.188,225.659L431.188,225.659z" style="fill: rgb(30, 30, 30);"/>
  </g>
  <g transform="matrix(0.578387, -0.154978, 0.154978, 0.578387, 266.892365, 148.881485)">
    <path d="M447.375,241.729c-0.759-0.002-1.376-0.616-1.378-1.376l0,0V222.96c0.002-0.759,0.619-1.376,1.378-1.378&#10;&#9;&#9;l0,0h18.334c0.76,0.002,1.375,0.619,1.377,1.378l0,0v17.393c-0.002,0.76-0.617,1.374-1.377,1.376l0,0H447.375L447.375,241.729z&#10;&#9;&#9; M465.086,239.729v-16.148h-17.088l-0.002,16.148H465.086L465.086,239.729z" style="fill: rgb(30, 30, 30);"/>
    <path d="M451.644,237.46c-1.387-0.002-2.505-1.124-2.505-2.508l0,0v-9.293c0-1.384,1.118-2.506,2.505-2.508l0,0&#10;&#9;&#9;h9.798c1.386,0,2.506,1.124,2.506,2.508l0,0v9.293c0,1.384-1.12,2.508-2.506,2.508l0,0H451.644L451.644,237.46z M451.138,225.659&#10;&#9;&#9;v9.293c0,0.281,0.229,0.508,0.506,0.508l0,0h9.798c0.278,0,0.505-0.227,0.507-0.508l0,0v-9.293c-0.002-0.28-0.229-0.507-0.507-0.51&#10;&#9;&#9;l0,0h-9.798C451.366,225.152,451.138,225.379,451.138,225.659L451.138,225.659z" style="fill: rgb(30, 30, 30);"/>
  </g>
  <g transform="matrix(0.578387, -0.154978, 0.154978, 0.578387, 266.892365, 148.881485)">
    <path d="M148.229,261.771c-0.762,0-1.373-0.612-1.377-1.373l0,0l0.002-17.395c0-0.763,0.619-1.374,1.375-1.376l0,0&#10;&#9;&#9;h27.378c0.754,0.002,1.375,0.617,1.377,1.376l0,0v17.395h-0.002c0,0.759-0.615,1.373-1.375,1.373l0,0H148.229L148.229,261.771z&#10;&#9;&#9; M174.984,259.772v-16.146h-26.131v16.146H174.984L174.984,259.772z" style="fill: rgb(30, 30, 30);"/>
    <path d="M152.499,257.502c-1.383,0-2.506-1.119-2.508-2.506l0,0l0.002-9.293c0-1.387,1.124-2.508,2.506-2.508l0,0&#10;&#9;&#9;h18.838c1.385,0,2.506,1.121,2.508,2.508l0,0v9.293h-0.002c0,1.385-1.121,2.506-2.506,2.508l0,0L152.499,257.502L152.499,257.502z&#10;&#9;&#9; M151.992,245.703v9.293c0,0.278,0.229,0.506,0.507,0.506l0,0l18.838,0.003c0.28-0.003,0.506-0.23,0.508-0.509l0,0h-0.002&#10;&#9;&#9;l0.002-9.293c-0.002-0.282-0.228-0.506-0.508-0.506l0,0l-18.838-0.003C152.219,245.197,151.992,245.423,151.992,245.703&#10;&#9;&#9;L151.992,245.703z" style="fill: rgb(30, 30, 30);"/>
  </g>
  <g transform="matrix(0.578387, -0.154978, 0.154978, 0.578387, 266.892365, 148.881485)">
    <path d="M177.222,261.771c-0.76,0-1.375-0.606-1.379-1.373l0,0l0.002-17.395c0-0.767,0.623-1.374,1.377-1.376l0,0&#10;&#9;&#9;h18.336c0.754,0.002,1.375,0.609,1.375,1.376l0,0v17.395c-0.004,0.765-0.615,1.371-1.375,1.373l0,0H177.222L177.222,261.771z&#10;&#9;&#9; M194.935,259.772v-16.146h-17.092v16.146H194.935L194.935,259.772z" style="fill: rgb(30, 30, 30);"/>
    <path d="M181.493,257.502c-1.387,0-2.508-1.121-2.508-2.506l0,0v-9.293c0-1.387,1.124-2.508,2.508-2.508l0,0h9.792&#10;&#9;&#9;c1.385,0.002,2.506,1.121,2.508,2.508l0,0v9.293c0,1.385-1.121,2.506-2.508,2.508l0,0L181.493,257.502L181.493,257.502z&#10;&#9;&#9; M180.984,245.703v9.293c0,0.278,0.227,0.506,0.509,0.506l0,0l9.792,0.003c0.283-0.003,0.507-0.229,0.509-0.509l0,0v-9.293&#10;&#9;&#9;c0-0.282-0.226-0.506-0.509-0.506l0,0l-9.792-0.003C181.21,245.197,180.984,245.421,180.984,245.703L180.984,245.703z" style="fill: rgb(30, 30, 30);"/>
  </g>
  <g transform="matrix(0.578387, -0.154978, 0.154978, 0.578387, 266.892365, 148.881485)">
    <path d="M197.17,261.771c-0.761,0-1.377-0.614-1.377-1.373l0,0v-17.395c0.002-0.759,0.623-1.374,1.377-1.376l0,0&#10;&#9;&#9;h18.336c0.756,0.002,1.375,0.617,1.375,1.376l0,0v17.395c0,0.759-0.613,1.373-1.375,1.373l0,0H197.17L197.17,261.771z&#10;&#9;&#9; M214.881,259.772l0.002-16.146h-17.09v16.146H214.881L214.881,259.772z" style="fill: rgb(30, 30, 30);"/>
    <path d="M201.44,257.503c-1.385,0-2.506-1.121-2.508-2.506l0,0l0.002-9.295c0-1.385,1.121-2.506,2.506-2.506l0,0&#10;&#9;&#9;h9.797c1.383,0,2.504,1.121,2.506,2.506l0,0v9.295c-0.002,1.385-1.121,2.504-2.506,2.506l0,0H201.44L201.44,257.503z&#10;&#9;&#9; M200.934,245.702v9.295c0,0.278,0.227,0.506,0.507,0.506l0,0h9.797c0.278,0,0.504-0.228,0.506-0.506l0,0h-0.002l0.002-9.295&#10;&#9;&#9;c-0.002-0.28-0.229-0.507-0.506-0.507l0,0h-9.797C201.16,245.195,200.934,245.422,200.934,245.702L200.934,245.702z" style="fill: rgb(30, 30, 30);"/>
  </g>
  <g transform="matrix(0.578387, -0.154978, 0.154978, 0.578387, 266.892365, 148.881485)">
    <path d="M217.12,261.772c-0.765-0.003-1.375-0.613-1.377-1.376l0,0v-17.393c0.002-0.763,0.621-1.376,1.377-1.378&#10;&#9;&#9;l0,0l18.336,0.002c0.754,0,1.374,0.615,1.375,1.376l0,0v17.393c0,0.759-0.613,1.376-1.375,1.376l0,0H217.12L217.12,261.772z&#10;&#9;&#9; M234.831,259.773v-16.146h-17.087v16.145L234.831,259.773L234.831,259.773z" style="fill: rgb(30, 30, 30);"/>
    <path d="M221.39,257.502c-1.385,0-2.506-1.121-2.508-2.506l0,0v-9.293c0-1.387,1.123-2.508,2.508-2.508l0,0h9.794&#10;&#9;&#9;c1.385,0.002,2.504,1.123,2.508,2.508l0,0v9.293h-0.002c0,1.385-1.121,2.506-2.506,2.508l0,0L221.39,257.502L221.39,257.502z&#10;&#9;&#9; M220.883,245.703l-0.002,9.293c0.002,0.278,0.229,0.506,0.509,0.506l0,0l9.794,0.003c0.28-0.003,0.507-0.229,0.507-0.509l0,0&#10;&#9;&#9;v-9.293c0-0.282-0.224-0.506-0.507-0.506l0,0l-9.794-0.003C221.11,245.197,220.883,245.421,220.883,245.703L220.883,245.703z" style="fill: rgb(30, 30, 30);"/>
  </g>
  <g transform="matrix(0.578387, -0.154978, 0.154978, 0.578387, 266.892365, 148.881485)">
    <path d="M237.068,261.772c-0.76,0-1.375-0.617-1.377-1.376l0,0l0.002-17.393c0-0.761,0.621-1.376,1.375-1.378l0,0&#10;&#9;&#9;l18.336,0.002c0.754,0,1.375,0.611,1.375,1.376l0,0v17.393c-0.002,0.763-0.615,1.376-1.375,1.376l0,0H237.068L237.068,261.772z&#10;&#9;&#9; M254.781,259.773v-16.146h-17.09v16.145L254.781,259.773L254.781,259.773z" style="fill: rgb(30, 30, 30);"/>
    <path d="M241.338,257.502c-1.385,0-2.506-1.121-2.506-2.506l0,0v-9.293c0-1.387,1.121-2.508,2.506-2.508l0,0h9.797&#10;&#9;&#9;c1.383,0,2.506,1.121,2.506,2.508l0,0v9.293c-0.002,1.385-1.123,2.506-2.506,2.508l0,0L241.338,257.502L241.338,257.502z&#10;&#9;&#9; M240.832,245.703v9.293c0,0.278,0.226,0.506,0.506,0.506l0,0l9.797,0.003c0.278-0.003,0.505-0.23,0.507-0.509l0,0h-0.002&#10;&#9;&#9;l0.002-9.293c-0.002-0.282-0.229-0.506-0.507-0.506l0,0l-9.797-0.003C241.058,245.197,240.832,245.421,240.832,245.703&#10;&#9;&#9;L240.832,245.703z" style="fill: rgb(30, 30, 30);"/>
  </g>
  <g transform="matrix(0.578387, -0.154978, 0.154978, 0.578387, 266.892365, 148.881485)">
    <path d="M257.018,261.771c-0.761,0-1.375-0.61-1.377-1.373l0,0v-17.395c0.002-0.763,0.623-1.374,1.377-1.376l0,0&#10;&#9;&#9;h18.336c0.756,0.002,1.375,0.613,1.375,1.376l0,0v17.395c-0.002,0.761-0.613,1.373-1.375,1.373l0,0H257.018L257.018,261.771z&#10;&#9;&#9; M274.729,259.772l0.002-16.146h-17.09v16.146H274.729L274.729,259.772z" style="fill: rgb(30, 30, 30);"/>
    <path d="M261.29,257.502c-1.387,0-2.509-1.121-2.509-2.506l0,0v-9.293c0-1.387,1.124-2.508,2.509-2.508l0,0h9.794&#10;&#9;&#9;c1.385,0.002,2.504,1.123,2.506,2.508l0,0v9.293c0,1.385-1.121,2.506-2.506,2.508l0,0L261.29,257.502L261.29,257.502z&#10;&#9;&#9; M260.781,245.703v9.293c0,0.278,0.228,0.506,0.509,0.506l0,0l9.794,0.003c0.28-0.003,0.504-0.229,0.507-0.509l0,0v-9.293&#10;&#9;&#9;c0-0.282-0.227-0.506-0.507-0.506l0,0l-9.794-0.003C261.007,245.197,260.781,245.421,260.781,245.703L260.781,245.703z" style="fill: rgb(30, 30, 30);"/>
  </g>
  <g transform="matrix(0.578387, -0.154978, 0.154978, 0.578387, 266.892365, 148.881485)">
    <path d="M276.969,261.771c-0.763,0-1.375-0.61-1.377-1.373l0,0v-17.395c0-0.763,0.621-1.374,1.377-1.376l0,0h18.334&#10;&#9;&#9;c0.754,0.002,1.375,0.613,1.377,1.376l0,0v17.395c-0.002,0.763-0.617,1.373-1.377,1.373l0,0H276.969L276.969,261.771z&#10;&#9;&#9; M294.68,259.772v-16.146h-17.09v16.146H294.68L294.68,259.772z" style="fill: rgb(30, 30, 30);"/>
    <path d="M281.238,257.502c-1.387,0-2.506-1.121-2.506-2.506l0,0v-9.293c0-1.385,1.122-2.508,2.506-2.508l0,0h9.795&#10;&#9;&#9;c1.385,0,2.508,1.121,2.508,2.508l0,0v9.293c-0.002,1.385-1.124,2.506-2.508,2.508l0,0L281.238,257.502L281.238,257.502z&#10;&#9;&#9; M280.731,245.703v9.293c0,0.28,0.226,0.506,0.506,0.506l0,0l9.795,0.003c0.28-0.003,0.507-0.23,0.509-0.509l0,0h-0.002&#10;&#9;&#9;l0.002-9.293c-0.002-0.282-0.227-0.506-0.509-0.506l0,0l-9.795-0.003C280.958,245.197,280.731,245.421,280.731,245.703&#10;&#9;&#9;L280.731,245.703z" style="fill: rgb(30, 30, 30);"/>
  </g>
  <g transform="matrix(0.578387, -0.154978, 0.154978, 0.578387, 266.892365, 148.881485)">
    <path d="M296.917,261.771c-0.762,0-1.375-0.61-1.377-1.373l0,0v-17.395c0.002-0.763,0.624-1.374,1.377-1.376l0,0&#10;&#9;&#9;h18.336c0.755,0.002,1.373,0.613,1.376,1.376l0,0v17.395c-0.003,0.763-0.615,1.373-1.376,1.373l0,0H296.917L296.917,261.771z&#10;&#9;&#9; M314.628,259.772l0.002-16.146h-17.089v16.146H314.628L314.628,259.772z" style="fill: rgb(30, 30, 30);"/>
    <path d="M301.186,257.503c-1.385-0.002-2.504-1.121-2.506-2.506l0,0l0.002-9.295c0-1.385,1.122-2.506,2.504-2.506&#10;&#9;&#9;l0,0h9.797c1.385,0,2.506,1.121,2.506,2.506l0,0v9.295c0,1.383-1.121,2.506-2.506,2.506l0,0H301.186L301.186,257.503z&#10;&#9;&#9; M300.681,245.702l-0.002,9.295c0.002,0.278,0.229,0.506,0.507,0.506l0,0h9.797c0.278,0,0.507-0.228,0.507-0.506l0,0v-9.295&#10;&#9;&#9;c0-0.282-0.227-0.507-0.507-0.507l0,0h-9.797C300.907,245.195,300.681,245.422,300.681,245.702L300.681,245.702z" style="fill: rgb(30, 30, 30);"/>
  </g>
  <g transform="matrix(0.578387, -0.154978, 0.154978, 0.578387, 266.892365, 148.881485)">
    <path d="M316.866,261.772c-0.763,0-1.375-0.613-1.379-1.376l0,0l0.002-17.393c0-0.765,0.621-1.376,1.377-1.378l0,0&#10;&#9;&#9;l18.335,0.002c0.754,0,1.375,0.611,1.377,1.376l0,0v17.393h-0.002c-0.002,0.763-0.615,1.376-1.375,1.376l0,0H316.866&#10;&#9;&#9;L316.866,261.772z M334.577,259.773v-16.146h-17.088l-0.002,16.145L334.577,259.773L334.577,259.773z" style="fill: rgb(30, 30, 30);"/>
    <path d="M321.137,257.502c-1.385,0-2.508-1.119-2.51-2.506l0,0l0.002-9.293c0-1.387,1.123-2.508,2.508-2.508l0,0&#10;&#9;&#9;h9.795c1.383,0,2.507,1.121,2.507,2.508l0,0v9.293c-0.003,1.387-1.124,2.506-2.507,2.508l0,0L321.137,257.502L321.137,257.502z&#10;&#9;&#9; M320.628,245.703v9.293c0,0.278,0.229,0.506,0.509,0.506l0,0l9.795,0.003c0.278-0.003,0.507-0.23,0.507-0.509l0,0v-9.293&#10;&#9;&#9;c0-0.28-0.227-0.506-0.507-0.506l0,0l-9.795-0.003C320.854,245.197,320.628,245.423,320.628,245.703L320.628,245.703z" style="fill: rgb(30, 30, 30);"/>
  </g>
  <g transform="matrix(0.578387, -0.154978, 0.154978, 0.578387, 266.892365, 148.881485)">
    <path d="M336.815,261.772c-0.759,0-1.376-0.613-1.378-1.376l0,0v-17.393c0.002-0.765,0.625-1.376,1.378-1.378l0,0&#10;&#9;&#9;l18.336,0.002c0.754,0,1.373,0.615,1.375,1.376l0,0v17.393c0,0.759-0.614,1.376-1.375,1.376l0,0H336.815L336.815,261.772z&#10;&#9;&#9; M354.526,259.773v-16.146h-17.088l-0.002,16.145L354.526,259.773L354.526,259.773z" style="fill: rgb(30, 30, 30);"/>
    <path d="M341.086,257.502c-1.385,0-2.507-1.121-2.509-2.506l0,0l0.002-9.293c0.002-1.385,1.122-2.506,2.507-2.508&#10;&#9;&#9;l0,0h9.795c1.385,0,2.506,1.121,2.508,2.508l0,0v9.293h-0.002c0,1.385-1.121,2.506-2.506,2.508l0,0L341.086,257.502&#10;&#9;&#9;L341.086,257.502z M340.579,245.703l-0.002,9.293c0.002,0.28,0.227,0.506,0.509,0.506l0,0l9.795,0.003&#10;&#9;&#9;c0.277-0.003,0.506-0.23,0.509-0.509l0,0h-0.003l0.003-9.293c-0.003-0.282-0.229-0.506-0.509-0.506l0,0l-9.795-0.003&#10;&#9;&#9;C340.804,245.197,340.579,245.421,340.579,245.703L340.579,245.703z" style="fill: rgb(30, 30, 30);"/>
  </g>
  <g transform="matrix(0.578387, -0.154978, 0.154978, 0.578387, 266.892365, 148.881485)">
    <path d="M356.764,261.772c-0.763,0-1.376-0.617-1.376-1.376l0,0v-17.393c0-0.761,0.619-1.376,1.376-1.378l0,0&#10;&#9;&#9;l18.338,0.002c0.757,0,1.371,0.617,1.374,1.376l0,0v17.393c-0.003,0.759-0.611,1.373-1.374,1.376l0,0H356.764L356.764,261.772z&#10;&#9;&#9; M374.475,259.773l0.002-16.146h-17.088l-0.002,16.145L374.475,259.773L374.475,259.773z" style="fill: rgb(30, 30, 30);"/>
    <path d="M361.034,257.502c-1.385,0-2.506-1.119-2.508-2.506l0,0l0.002-9.293c0-1.387,1.123-2.508,2.506-2.508l0,0&#10;&#9;&#9;h9.797c1.383,0,2.507,1.121,2.507,2.508l0,0v9.293c0,1.385-1.122,2.506-2.507,2.508l0,0L361.034,257.502L361.034,257.502z&#10;&#9;&#9; M360.527,245.703v9.293c0,0.278,0.229,0.506,0.507,0.506l0,0l9.797,0.003c0.278-0.003,0.505-0.23,0.507-0.509l0,0h-0.002&#10;&#9;&#9;l0.002-9.293c-0.002-0.282-0.229-0.506-0.507-0.506l0,0l-9.797-0.003C360.756,245.197,360.527,245.423,360.527,245.703&#10;&#9;&#9;L360.527,245.703z" style="fill: rgb(30, 30, 30);"/>
  </g>
  <g transform="matrix(0.578387, -0.154978, 0.154978, 0.578387, 266.892365, 148.881485)">
    <path d="M376.619,261.772c-0.764,0-1.375-0.616-1.377-1.375l0,0l0.002-17.396c0-0.759,0.62-1.372,1.375-1.375l0,0&#10;&#9;&#9;h18.337c0.753,0.003,1.375,0.61,1.377,1.375l0,0v17.396h-0.002c-0.004,0.765-0.615,1.372-1.375,1.375l0,0H376.619L376.619,261.772z&#10;&#9;&#9; M394.332,259.773v-16.147h-17.089v16.147H394.332L394.332,259.773z" style="fill: rgb(30, 30, 30);"/>
    <path d="M380.891,257.502c-1.387,0-2.508-1.121-2.508-2.506l0,0v-9.293c0.002-1.385,1.123-2.505,2.508-2.508l0,0&#10;&#9;&#9;h9.797c1.383,0,2.503,1.121,2.505,2.508l0,0v9.293h-0.002c0,1.385-1.12,2.506-2.503,2.508l0,0L380.891,257.502L380.891,257.502z&#10;&#9;&#9; M380.384,245.703l-0.002,9.293c0.002,0.279,0.227,0.506,0.509,0.506l0,0l9.797,0.002c0.276-0.002,0.503-0.229,0.505-0.508l0,0&#10;&#9;&#9;h-0.002l0.002-9.293c-0.002-0.282-0.229-0.507-0.505-0.507l0,0l-9.797-0.002C380.608,245.196,380.384,245.421,380.384,245.703&#10;&#9;&#9;L380.384,245.703z" style="fill: rgb(30, 30, 30);"/>
  </g>
  <g transform="matrix(0.578387, -0.154978, 0.154978, 0.578387, 266.892365, 148.881485)">
    <path d="M396.568,261.771c-0.763,0-1.376-0.615-1.376-1.374l0,0v-17.396c0.002-0.759,0.622-1.374,1.376-1.376l0,0&#10;&#9;&#9;l18.336,0.002c0.75,0,1.376,0.611,1.378,1.374l0,0v17.396h-0.002c0,0.763-0.617,1.374-1.376,1.376l0,0L396.568,261.771&#10;&#9;&#9;L396.568,261.771z M414.28,259.773l0.002-16.146l-17.09-0.002v16.146L414.28,259.773L414.28,259.773z" style="fill: rgb(30, 30, 30);"/>
    <path d="M400.84,257.502c-1.387,0-2.508-1.121-2.508-2.505l0,0v-9.295c0-1.386,1.124-2.508,2.508-2.508l0,0h9.795&#10;&#9;&#9;c1.384,0,2.505,1.124,2.507,2.508l0,0v9.295h-0.002c0,1.384-1.119,2.505-2.505,2.507l0,0L400.84,257.502L400.84,257.502z&#10;&#9;&#9; M400.333,245.702l-0.002,9.295c0.002,0.277,0.229,0.506,0.509,0.506l0,0h9.795c0.279,0,0.506-0.227,0.506-0.506l0,0v-9.295&#10;&#9;&#9;c0-0.281-0.227-0.506-0.506-0.506l0,0h-9.795C400.559,245.196,400.333,245.421,400.333,245.702L400.333,245.702z" style="fill: rgb(30, 30, 30);"/>
  </g>
  <g transform="matrix(0.578387, -0.154978, 0.154978, 0.578387, 266.892365, 148.881485)">
    <path d="M416.519,261.772c-0.762-0.002-1.376-0.612-1.378-1.375l0,0v-17.395c0.002-0.763,0.623-1.373,1.378-1.376&#10;&#9;&#9;l0,0h18.335c0.755,0.003,1.375,0.613,1.377,1.376l0,0v17.395h-0.002c-0.002,0.761-0.612,1.373-1.375,1.375l0,0H416.519&#10;&#9;&#9;L416.519,261.772z M434.229,259.772l0.002-16.146h-17.09v16.146H434.229L434.229,259.772z" style="fill: rgb(30, 30, 30);"/>
    <path d="M420.788,257.502c-1.386,0-2.508-1.12-2.508-2.505l0,0v-9.294c0-1.386,1.124-2.508,2.508-2.508l0,0h9.795&#10;&#9;&#9;c1.385,0,2.507,1.122,2.51,2.508l0,0v9.294h-0.003c0,1.385-1.122,2.505-2.507,2.507l0,0L420.788,257.502L420.788,257.502z&#10;&#9;&#9; M420.28,245.703v9.294c0,0.277,0.228,0.505,0.508,0.505l0,0l9.795,0.003c0.28-0.003,0.508-0.23,0.508-0.508l0,0v-9.294&#10;&#9;&#9;c0-0.282-0.226-0.508-0.508-0.508l0,0h-9.795C420.506,245.195,420.28,245.421,420.28,245.703L420.28,245.703z" style="fill: rgb(30, 30, 30);"/>
  </g>
  <g transform="matrix(0.578387, -0.154978, 0.154978, 0.578387, 266.892365, 148.881485)">
    <path d="M436.467,261.772c-0.761-0.002-1.374-0.613-1.378-1.376l0,0l0.002-17.393c0-0.765,0.622-1.375,1.376-1.377&#10;&#9;&#9;l0,0h18.336c0.754,0.002,1.376,0.612,1.378,1.377l0,0v17.393h-0.002c-0.002,0.763-0.613,1.374-1.376,1.376l0,0H436.467&#10;&#9;&#9;L436.467,261.772z M454.18,259.774v-16.148h-17.09v16.148H454.18L454.18,259.774z" style="fill: rgb(30, 30, 30);"/>
    <path d="M440.738,257.503c-1.387,0-2.507-1.122-2.509-2.507l0,0l0.002-9.293c0.002-1.384,1.12-2.505,2.507-2.509&#10;&#9;&#9;l0,0l9.794,0.002c1.384,0,2.507,1.12,2.509,2.507l0,0v9.293h-0.002c0,1.387-1.123,2.507-2.507,2.507l0,0H440.738L440.738,257.503z&#10;&#9;&#9; M440.231,245.703l-0.002,9.293c0.002,0.278,0.227,0.507,0.509,0.507l0,0h9.794c0.28,0,0.507-0.229,0.509-0.507l0,0h-0.002&#10;&#9;&#9;l0.002-9.293c-0.002-0.28-0.229-0.507-0.509-0.507l0,0l-9.794-0.002C440.456,245.196,440.231,245.421,440.231,245.703&#10;&#9;&#9;L440.231,245.703z" style="fill: rgb(30, 30, 30);"/>
  </g>
  <g transform="matrix(0.578387, -0.154978, 0.154978, 0.578387, 266.892365, 148.881485)">
    <path d="M456.417,261.772c-0.763-0.002-1.376-0.613-1.378-1.375l0,0v-17.395c0.002-0.763,0.623-1.376,1.378-1.376&#10;&#9;&#9;l0,0h18.335c0.756,0,1.375,0.616,1.377,1.376l0,0v17.395h-0.002c0,0.758-0.613,1.373-1.375,1.375l0,0H456.417L456.417,261.772z&#10;&#9;&#9; M474.128,259.773v-16.146H457.04l-0.002,16.146H474.128L474.128,259.773z" style="fill: rgb(30, 30, 30);"/>
    <path d="M460.688,257.502c-1.386,0-2.507-1.121-2.509-2.504l0,0l0.002-9.295c0.002-1.386,1.121-2.504,2.507-2.509&#10;&#9;&#9;l0,0l9.796,0.002c1.384,0,2.505,1.121,2.505,2.507l0,0v9.295c0,1.383-1.121,2.504-2.505,2.506l0,0L460.688,257.502L460.688,257.502&#10;&#9;&#9;z M460.18,245.703v9.295c0,0.278,0.227,0.504,0.508,0.504l0,0l9.796,0.002c0.277-0.002,0.504-0.228,0.506-0.506l0,0h-0.002&#10;&#9;&#9;l0.002-9.295c-0.002-0.283-0.227-0.508-0.506-0.508l0,0h-9.796C460.404,245.195,460.18,245.42,460.18,245.703L460.18,245.703z" style="fill: rgb(30, 30, 30);"/>
  </g>
  <g transform="matrix(0.578387, -0.154978, 0.154978, 0.578387, 266.892365, 148.881485)">
    <path d="M142.203,281.816c-0.76-0.002-1.376-0.612-1.379-1.377l0,0v-17.394c0.002-0.765,0.619-1.375,1.379-1.377&#10;&#9;&#9;l0,0h18.335c0.76,0.002,1.375,0.617,1.376,1.377l0,0v17.394c-0.002,0.763-0.616,1.375-1.376,1.377l0,0H142.203L142.203,281.816z&#10;&#9;&#9; M159.913,279.816v-16.147h-17.089v16.147H159.913L159.913,279.816z" style="fill: rgb(30, 30, 30);"/>
    <path d="M146.471,277.545c-1.384-0.002-2.504-1.121-2.506-2.506l0,0v-9.292c0-1.386,1.12-2.51,2.506-2.51l0,0h9.795&#10;&#9;&#9;c1.386,0,2.506,1.124,2.508,2.51l0,0v9.292c0,1.385-1.124,2.506-2.508,2.509l0,0L146.471,277.545L146.471,277.545z&#10;&#9;&#9; M145.965,265.747v9.292c0,0.281,0.225,0.506,0.506,0.506l0,0l9.795,0.002c0.281-0.002,0.508-0.227,0.508-0.508l0,0v-9.292&#10;&#9;&#9;c0-0.283-0.229-0.51-0.508-0.51l0,0h-9.795C146.191,265.237,145.965,265.464,145.965,265.747L145.965,265.747z" style="fill: rgb(30, 30, 30);"/>
  </g>
  <g transform="matrix(0.578387, -0.154978, 0.154978, 0.578387, 266.892365, 148.881485)">
    <path d="M162.15,281.815c-0.76,0-1.375-0.617-1.376-1.375l0,0v-17.394c0.002-0.76,0.616-1.377,1.376-1.377l0,0&#10;&#9;&#9;h18.337c0.762,0.003,1.374,0.614,1.374,1.377l0,0v17.394c0,0.76-0.612,1.372-1.374,1.375l0,0H162.15L162.15,281.815z&#10;&#9;&#9; M179.863,279.817v-16.149h-17.089v16.149H179.863L179.863,279.817z" style="fill: rgb(30, 30, 30);"/>
    <path d="M166.421,277.546c-1.384,0-2.508-1.121-2.508-2.506l0,0v-9.294c0.002-1.386,1.122-2.508,2.508-2.508l0,0&#10;&#9;&#9;h9.797c1.384,0,2.504,1.122,2.504,2.508l0,0v9.294c0,1.385-1.122,2.506-2.504,2.506l0,0H166.421L166.421,277.546z M165.913,265.746&#10;&#9;&#9;v9.294c0,0.279,0.227,0.506,0.508,0.506l0,0h9.797c0.277,0,0.504-0.227,0.506-0.506l0,0v-9.294c-0.002-0.28-0.231-0.508-0.506-0.51&#10;&#9;&#9;l0,0h-9.797C166.142,265.238,165.913,265.466,165.913,265.746L165.913,265.746z" style="fill: rgb(30, 30, 30);"/>
  </g>
  <g transform="matrix(0.578387, -0.154978, 0.154978, 0.578387, 266.892365, 148.881485)">
    <path d="M182.1,281.815c-0.765-0.003-1.375-0.615-1.377-1.375l0,0v-17.394c0.002-0.763,0.612-1.374,1.377-1.377l0,0&#10;&#9;&#9;h18.335c0.762,0,1.376,0.617,1.378,1.377l0,0v17.394h-0.002c0,0.758-0.614,1.375-1.376,1.375l0,0H182.1L182.1,281.815z&#10;&#9;&#9; M199.812,279.817v-16.149h-17.087l-0.002,16.149H199.812L199.812,279.817z" style="fill: rgb(30, 30, 30);"/>
    <path d="M186.371,277.545c-1.384,0-2.508-1.121-2.508-2.506l0,0v-9.292c0-1.386,1.122-2.508,2.508-2.51l0,0h9.796&#10;&#9;&#9;c1.386,0,2.506,1.124,2.506,2.51l0,0v9.292c-0.002,1.385-1.122,2.504-2.506,2.509l0,0L186.371,277.545L186.371,277.545z&#10;&#9;&#9; M185.863,265.747v9.292c0,0.281,0.227,0.506,0.508,0.506l0,0l9.796,0.002c0.281-0.002,0.506-0.227,0.506-0.508l0,0v-9.292&#10;&#9;&#9;c0-0.283-0.227-0.51-0.506-0.51l0,0h-9.796C186.092,265.237,185.863,265.464,185.863,265.747L185.863,265.747z" style="fill: rgb(30, 30, 30);"/>
  </g>
  <g transform="matrix(0.578387, -0.154978, 0.154978, 0.578387, 266.892365, 148.881485)">
    <path d="M202.05,281.815c-0.762,0-1.376-0.617-1.378-1.375l0,0v-17.394c0.002-0.76,0.616-1.377,1.378-1.377l0,0&#10;&#9;&#9;h18.335c0.762,0.003,1.375,0.61,1.377,1.377l0,0v17.394c-0.002,0.765-0.615,1.372-1.377,1.375l0,0H202.05L202.05,281.815z&#10;&#9;&#9; M219.763,279.817v-16.149h-17.089l-0.002,16.149H219.763L219.763,279.817z" style="fill: rgb(30, 30, 30);"/>
    <path d="M206.32,277.545c-1.384,0-2.508-1.121-2.508-2.506l0,0v-9.292c0.002-1.386,1.122-2.508,2.508-2.51l0,0&#10;&#9;&#9;h9.795c1.386,0,2.506,1.124,2.506,2.51l0,0v9.292c-0.002,1.385-1.122,2.504-2.506,2.509l0,0L206.32,277.545L206.32,277.545z&#10;&#9;&#9; M205.812,265.747v9.292c0,0.281,0.227,0.506,0.508,0.506l0,0l9.795,0.002c0.281-0.002,0.506-0.227,0.506-0.508l0,0v-9.292&#10;&#9;&#9;c0-0.283-0.227-0.51-0.506-0.51l0,0h-9.795C206.041,265.237,205.812,265.464,205.812,265.747L205.812,265.747z" style="fill: rgb(30, 30, 30);"/>
  </g>
  <g transform="matrix(0.578387, -0.154978, 0.154978, 0.578387, 266.892365, 148.881485)">
    <path d="M222,281.815c-0.762,0-1.376-0.615-1.379-1.375l0,0l0.002-17.394c0-0.763,0.614-1.377,1.376-1.377l0,0&#10;&#9;&#9;h18.335c0.762,0.003,1.375,0.614,1.376,1.377l0,0v17.394c-0.002,0.76-0.614,1.372-1.376,1.375l0,0H222L222,281.815z&#10;&#9;&#9; M239.709,279.817l0.002-16.149h-17.089v16.149H239.709L239.709,279.817z" style="fill: rgb(30, 30, 30);"/>
    <path d="M226.269,277.545c-1.384,0-2.508-1.121-2.508-2.506l0,0v-9.292c0.002-1.386,1.122-2.508,2.508-2.51l0,0&#10;&#9;&#9;h9.795c1.386,0.002,2.506,1.124,2.506,2.51l0,0v9.292c0,1.385-1.122,2.506-2.506,2.509l0,0L226.269,277.545L226.269,277.545z&#10;&#9;&#9; M225.761,265.747v9.292c0,0.281,0.227,0.506,0.508,0.506l0,0l9.795,0.002c0.279-0.002,0.506-0.227,0.506-0.508l0,0v-9.292&#10;&#9;&#9;c0-0.283-0.229-0.51-0.506-0.51l0,0h-9.795C225.99,265.237,225.761,265.464,225.761,265.747L225.761,265.747z" style="fill: rgb(30, 30, 30);"/>
  </g>
  <g transform="matrix(0.578387, -0.154978, 0.154978, 0.578387, 266.892365, 148.881485)">
    <path d="M241.948,281.815c-0.762,0-1.376-0.615-1.378-1.375l0,0l0.002-17.394c0-0.763,0.614-1.377,1.376-1.377l0,0&#10;&#9;&#9;h18.335c0.765,0.003,1.375,0.614,1.377,1.377l0,0v17.394c-0.002,0.76-0.612,1.372-1.377,1.375l0,0H241.948L241.948,281.815z&#10;&#9;&#9; M259.659,279.817l0.002-16.149h-17.089v16.149H259.659L259.659,279.817z" style="fill: rgb(30, 30, 30);"/>
    <path d="M246.217,277.546c-1.384,0-2.506-1.124-2.506-2.506l0,0v-9.294c0-1.384,1.12-2.508,2.506-2.508l0,0h9.798&#10;&#9;&#9;c1.384,0,2.504,1.122,2.506,2.508l0,0v9.294c-0.002,1.385-1.124,2.506-2.506,2.506l0,0H246.217L246.217,277.546z M245.711,265.746&#10;&#9;&#9;v9.294c0,0.281,0.227,0.506,0.505,0.506l0,0h9.798c0.279,0,0.504-0.227,0.506-0.506l0,0v-9.294c-0.002-0.28-0.229-0.508-0.506-0.51&#10;&#9;&#9;l0,0h-9.798C245.94,265.238,245.711,265.466,245.711,265.746L245.711,265.746z" style="fill: rgb(30, 30, 30);"/>
  </g>
  <g transform="matrix(0.578387, -0.154978, 0.154978, 0.578387, 266.892365, 148.881485)">
    <path d="M261.897,281.815c-0.765,0-1.375-0.621-1.376-1.375l0,0v-17.394c0.002-0.756,0.612-1.377,1.376-1.377l0,0&#10;&#9;&#9;h18.335c0.762,0,1.376,0.614,1.378,1.377l0,0v17.394h-0.002c0,0.76-0.614,1.375-1.376,1.375l0,0H261.897L261.897,281.815z&#10;&#9;&#9; M279.609,279.817v-16.149h-17.087l-0.002,16.149H279.609L279.609,279.817z" style="fill: rgb(30, 30, 30);"/>
    <path d="M266.167,277.545c-1.384,0-2.506-1.121-2.506-2.506l0,0v-9.292c0-1.386,1.12-2.508,2.506-2.51l0,0h9.796&#10;&#9;&#9;c1.386,0,2.506,1.124,2.506,2.51l0,0v9.292c-0.002,1.385-1.122,2.504-2.506,2.509l0,0L266.167,277.545L266.167,277.545z&#10;&#9;&#9; M265.661,265.747v9.292c0,0.281,0.227,0.506,0.506,0.506l0,0l9.796,0.002c0.281-0.002,0.505-0.227,0.505-0.508l0,0v-9.292&#10;&#9;&#9;c0-0.283-0.227-0.51-0.505-0.51l0,0h-9.796C265.89,265.237,265.661,265.464,265.661,265.747L265.661,265.747z" style="fill: rgb(30, 30, 30);"/>
  </g>
  <g transform="matrix(0.578387, -0.154978, 0.154978, 0.578387, 266.892365, 148.881485)">
    <path d="M281.847,281.816c-0.762-0.002-1.375-0.612-1.378-1.377l0,0v-17.394c0.004-0.765,0.616-1.375,1.378-1.377&#10;&#9;&#9;l0,0h18.334c0.759,0.002,1.375,0.612,1.377,1.377l0,0v17.394c-0.002,0.765-0.618,1.375-1.377,1.377l0,0H281.847L281.847,281.816z&#10;&#9;&#9; M299.56,279.816v-16.147H282.47v16.147H299.56L299.56,279.816z" style="fill: rgb(30, 30, 30);"/>
    <path d="M286.116,277.545c-1.382,0-2.506-1.119-2.506-2.506l0,0v-9.292c0-1.388,1.122-2.508,2.506-2.51l0,0h9.798&#10;&#9;&#9;c1.384,0.002,2.504,1.124,2.506,2.51l0,0v9.292c0,1.385-1.124,2.506-2.506,2.509l0,0L286.116,277.545L286.116,277.545z&#10;&#9;&#9; M285.608,265.747v9.292c0.002,0.279,0.227,0.506,0.508,0.506l0,0l9.798,0.002c0.279-0.002,0.505-0.227,0.505-0.508l0,0v-9.292&#10;&#9;&#9;c0-0.283-0.229-0.51-0.505-0.51l0,0h-9.798C285.837,265.237,285.61,265.467,285.608,265.747L285.608,265.747z" style="fill: rgb(30, 30, 30);"/>
  </g>
  <g transform="matrix(0.578387, -0.154978, 0.154978, 0.578387, 266.892365, 148.881485)">
    <path d="M301.796,281.816c-0.76-0.002-1.376-0.619-1.379-1.377l0,0l0.003-17.394c0-0.758,0.616-1.375,1.376-1.377&#10;&#9;&#9;l0,0h18.335c0.763,0,1.375,0.619,1.377,1.377l0,0v17.394h-0.002c0,0.758-0.612,1.377-1.375,1.377l0,0H301.796L301.796,281.816z&#10;&#9;&#9; M319.506,279.816l0.002-16.147h-17.089l-0.002,16.147H319.506L319.506,279.816z" style="fill: rgb(30, 30, 30);"/>
    <path d="M306.065,277.545c-1.385,0-2.507-1.121-2.507-2.506l0,0v-9.292c0-1.386,1.12-2.51,2.507-2.51l0,0h9.797&#10;&#9;&#9;c1.385,0.002,2.505,1.124,2.505,2.51l0,0v9.292c0,1.385-1.122,2.506-2.505,2.509l0,0L306.065,277.545L306.065,277.545z&#10;&#9;&#9; M305.558,265.747v9.292c0,0.281,0.227,0.506,0.508,0.506l0,0l9.797,0.002c0.279-0.002,0.506-0.227,0.506-0.508l0,0v-9.292&#10;&#9;&#9;c0-0.283-0.229-0.51-0.506-0.51l0,0h-9.797C305.786,265.237,305.558,265.464,305.558,265.747L305.558,265.747z" style="fill: rgb(30, 30, 30);"/>
  </g>
  <g transform="matrix(0.578387, -0.154978, 0.154978, 0.578387, 266.892365, 148.881485)">
    <path d="M321.745,281.816c-0.761-0.002-1.377-0.619-1.379-1.377l0,0l0.002-17.394c0-0.758,0.616-1.375,1.377-1.377&#10;&#9;&#9;l0,0h18.335c0.765,0.002,1.374,0.617,1.376,1.377l0,0v17.394c-0.002,0.763-0.611,1.375-1.376,1.377l0,0H321.745L321.745,281.816z&#10;&#9;&#9; M339.455,279.816l0.002-16.147h-17.089v16.147H339.455L339.455,279.816z" style="fill: rgb(30, 30, 30);"/>
    <path d="M326.015,277.545c-1.385-0.002-2.505-1.121-2.507-2.506l0,0v-9.292c0-1.386,1.12-2.51,2.507-2.51l0,0h9.795&#10;&#9;&#9;c1.387,0,2.509,1.124,2.509,2.51l0,0v9.292c0,1.385-1.124,2.506-2.509,2.509l0,0L326.015,277.545L326.015,277.545z&#10;&#9;&#9; M325.506,265.747v9.292c0.003,0.281,0.228,0.506,0.509,0.506l0,0l9.795,0.002c0.281-0.002,0.508-0.227,0.508-0.508l0,0v-9.292&#10;&#9;&#9;c0-0.283-0.229-0.51-0.508-0.51l0,0h-9.795C325.735,265.237,325.509,265.464,325.506,265.747L325.506,265.747z" style="fill: rgb(30, 30, 30);"/>
  </g>
  <g transform="matrix(0.578387, -0.154978, 0.154978, 0.578387, 266.892365, 148.881485)">
    <path d="M341.693,281.815c-0.761,0-1.375-0.615-1.377-1.375l0,0v-17.394c0.002-0.763,0.616-1.377,1.377-1.377l0,0&#10;&#9;&#9;h18.337c0.76,0,1.374,0.614,1.376,1.377l0,0v17.394c-0.002,0.76-0.616,1.375-1.376,1.375l0,0H341.693L341.693,281.815z&#10;&#9;&#9; M359.405,279.817l0.002-16.149h-17.09l-0.002,16.149H359.405L359.405,279.817z" style="fill: rgb(30, 30, 30);"/>
    <path d="M345.963,277.545c-1.384,0-2.504-1.119-2.506-2.506l0,0v-9.292c0.002-1.386,1.12-2.508,2.506-2.51l0,0&#10;&#9;&#9;h9.796c1.387,0,2.508,1.122,2.508,2.51l0,0v9.292c0,1.387-1.124,2.506-2.508,2.509l0,0L345.963,277.545L345.963,277.545z&#10;&#9;&#9; M345.457,265.747v9.292c0,0.279,0.229,0.506,0.506,0.506l0,0l9.796,0.002c0.281-0.002,0.508-0.229,0.51-0.508l0,0v-9.292&#10;&#9;&#9;c-0.002-0.28-0.23-0.51-0.51-0.51l0,0h-9.796C345.688,265.237,345.457,265.464,345.457,265.747L345.457,265.747z" style="fill: rgb(30, 30, 30);"/>
  </g>
  <g transform="matrix(0.578387, -0.154978, 0.154978, 0.578387, 266.892365, 148.881485)">
    <path d="M361.548,281.815c-0.764,0-1.374-0.619-1.376-1.375l0,0l0.002-17.394c0-0.758,0.61-1.377,1.374-1.377l0,0&#10;&#9;&#9;h18.337c0.759,0,1.375,0.61,1.377,1.377l0,0v17.394c-0.002,0.765-0.618,1.375-1.377,1.375l0,0H361.548L361.548,281.815z&#10;&#9;&#9; M379.261,279.817l0.002-16.149h-17.09v16.149H379.261L379.261,279.817z" style="fill: rgb(30, 30, 30);"/>
    <path d="M365.82,277.545c-1.384,0-2.508-1.119-2.508-2.506l0,0v-9.292c0-1.388,1.122-2.508,2.508-2.51l0,0h9.796&#10;&#9;&#9;c1.385,0,2.504,1.124,2.504,2.51l0,0v9.292c0,1.385-1.119,2.506-2.504,2.509l0,0L365.82,277.545L365.82,277.545z M365.311,265.747&#10;&#9;&#9;v9.292c0.002,0.279,0.228,0.506,0.51,0.506l0,0l9.796,0.002c0.279-0.002,0.504-0.227,0.506-0.508l0,0v-9.292&#10;&#9;&#9;c-0.002-0.283-0.229-0.51-0.506-0.51l0,0h-9.796C365.54,265.237,365.313,265.467,365.311,265.747L365.311,265.747z" style="fill: rgb(30, 30, 30);"/>
  </g>
  <g transform="matrix(0.578387, -0.154978, 0.154978, 0.578387, 266.892365, 148.881485)">
    <path d="M381.498,281.816c-0.762,0-1.374-0.619-1.377-1.377l0,0v-17.394c0.003-0.758,0.615-1.377,1.377-1.377l0,0&#10;&#9;&#9;h18.335c0.76,0,1.377,0.614,1.379,1.377l0,0v17.394h-0.002c0,0.763-0.617,1.377-1.377,1.377l0,0H381.498L381.498,281.816z&#10;&#9;&#9; M399.21,279.816v-16.147h-17.087l-0.002,16.147H399.21L399.21,279.816z" style="fill: rgb(30, 30, 30);"/>
    <path d="M385.77,277.545c-1.386-0.002-2.506-1.121-2.508-2.506l0,0v-9.292c0-1.386,1.12-2.51,2.508-2.51l0,0h9.796&#10;&#9;&#9;c1.387,0.002,2.506,1.124,2.506,2.51l0,0v9.292c0,1.385-1.122,2.506-2.506,2.509l0,0L385.77,277.545L385.77,277.545z&#10;&#9;&#9; M385.262,265.747v9.292c0,0.281,0.225,0.506,0.508,0.506l0,0l9.796,0.002c0.279-0.002,0.506-0.227,0.506-0.508l0,0v-9.292&#10;&#9;&#9;c0-0.283-0.229-0.51-0.506-0.51l0,0h-9.796C385.489,265.237,385.262,265.464,385.262,265.747L385.262,265.747z" style="fill: rgb(30, 30, 30);"/>
  </g>
  <g transform="matrix(0.578387, -0.154978, 0.154978, 0.578387, 266.892365, 148.881485)">
    <path d="M401.448,281.816c-0.758,0-1.377-0.611-1.379-1.377l0,0v-17.393c0.002-0.768,0.621-1.377,1.379-1.377l0,0&#10;&#9;&#9;h18.338c0.763,0,1.372,0.618,1.374,1.377l0,0v17.393h-0.002c0,0.758-0.609,1.375-1.372,1.377l0,0H401.448L401.448,281.816z&#10;&#9;&#9; M419.158,279.818l0.002-16.149h-17.091v16.149H419.158L419.158,279.818z" style="fill: rgb(30, 30, 30);"/>
    <path d="M405.718,277.546c-1.385-0.002-2.505-1.122-2.507-2.507l0,0v-9.292c0-1.385,1.119-2.509,2.507-2.511l0,0&#10;&#9;&#9;l9.794,0.002c1.387,0,2.509,1.122,2.509,2.509l0,0v9.292c0,1.387-1.124,2.507-2.509,2.507l0,0H405.718L405.718,277.546z&#10;&#9;&#9; M405.211,265.747v9.292c0,0.281,0.225,0.507,0.507,0.507l0,0h9.794c0.281,0,0.509-0.228,0.509-0.507l0,0v-9.292&#10;&#9;&#9;c0-0.281-0.229-0.509-0.509-0.509l0,0l-9.794-0.002C405.438,265.238,405.211,265.464,405.211,265.747L405.211,265.747z" style="fill: rgb(30, 30, 30);"/>
  </g>
  <g transform="matrix(0.578387, -0.154978, 0.154978, 0.578387, 266.892365, 148.881485)">
    <path d="M421.396,281.817c-0.762-0.003-1.375-0.617-1.378-1.378l0,0l0.003-17.394c0-0.761,0.613-1.375,1.375-1.377&#10;&#9;&#9;l0,0h37.173c0.761,0.002,1.375,0.611,1.38,1.377l0,0v17.394h-0.003c-0.002,0.766-0.616,1.375-1.377,1.378l0,0H421.396&#10;&#9;&#9;L421.396,281.817z M457.947,279.817V263.67l-35.927-0.002l-0.002,16.147L457.947,279.817L457.947,279.817z" style="fill: rgb(30, 30, 30);"/>
    <path d="M425.667,277.547c-1.383,0-2.506-1.121-2.506-2.507l0,0v-9.293c0-1.387,1.121-2.508,2.506-2.51l0,0H454.3&#10;&#9;&#9;c1.386,0,2.507,1.123,2.507,2.51l0,0v9.293c0,1.383-1.124,2.507-2.507,2.507l0,0H425.667L425.667,277.547z M425.16,265.747v9.293&#10;&#9;&#9;c0,0.279,0.228,0.505,0.507,0.505l0,0H454.3c0.281,0,0.508-0.226,0.508-0.505l0,0v-9.293c0-0.282-0.229-0.509-0.508-0.511l0,0&#10;&#9;&#9;h-28.633C425.391,265.238,425.16,265.467,425.16,265.747L425.16,265.747z" style="fill: rgb(30, 30, 30);"/>
  </g>
  <g transform="matrix(0.578387, -0.154978, 0.154978, 0.578387, 266.892365, 148.881485)">
    <path d="M142.202,301.858c-0.758,0-1.377-0.611-1.377-1.376l0,0v-17.394c0.002-0.767,0.622-1.376,1.377-1.376l0,0&#10;&#9;&#9;h18.335c0.758,0.002,1.376,0.614,1.376,1.376l0,0v17.394c0,0.762-0.618,1.376-1.376,1.378l0,0L142.202,301.858L142.202,301.858z&#10;&#9;&#9; M159.913,299.86v-16.147h-17.089v16.146L159.913,299.86L159.913,299.86z" style="fill: rgb(30, 30, 30);"/>
    <path d="M146.472,297.589c-1.387,0-2.508-1.122-2.508-2.506l0,0v-9.293c0-1.386,1.121-2.508,2.508-2.508l0,0h9.794&#10;&#9;&#9;c1.385,0,2.506,1.122,2.508,2.508l0,0v9.293c0,1.384-1.123,2.506-2.508,2.508l0,0L146.472,297.589L146.472,297.589z&#10;&#9;&#9; M145.963,285.79v9.293c0.002,0.28,0.228,0.507,0.509,0.507l0,0h9.794c0.28,0,0.507-0.227,0.507-0.507l0,0v-9.293&#10;&#9;&#9;c0-0.28-0.227-0.507-0.507-0.507l0,0l-9.794-0.003C146.191,285.283,145.965,285.51,145.963,285.79L145.963,285.79z" style="fill: rgb(30, 30, 30);"/>
  </g>
  <g transform="matrix(0.578387, -0.154978, 0.154978, 0.578387, 266.892365, 148.881485)">
    <path d="M211.335,321.902c-0.762,0-1.375-0.617-1.377-1.375l0,0v-17.394c0.002-0.76,0.615-1.377,1.377-1.379l0,0&#10;&#9;&#9;l159.243,0.002c0.762,0,1.375,0.617,1.377,1.377l0,0v17.394c-0.002,0.758-0.615,1.375-1.377,1.377l0,0L211.335,321.902&#10;&#9;&#9;L211.335,321.902z M369.955,319.903v-16.146l-157.996-0.002v16.148H369.955L369.955,319.903z" style="fill: rgb(30, 30, 30);"/>
    <path d="M215.605,317.633c-1.385,0-2.506-1.121-2.506-2.508l0,0v-9.292c0-1.385,1.121-2.506,2.506-2.508l0,0&#10;&#9;&#9;l150.703,0.002c1.384,0,2.505,1.121,2.505,2.506l0,0v9.292c0,1.387-1.121,2.508-2.505,2.508l0,0H215.605L215.605,317.633z&#10;&#9;&#9; M215.099,305.833v9.292c0,0.28,0.228,0.509,0.506,0.509l0,0h150.703c0.277,0,0.506-0.229,0.508-0.509l0,0v-9.292&#10;&#9;&#9;c-0.002-0.278-0.23-0.507-0.508-0.507l0,0H215.605C215.327,305.326,215.099,305.555,215.099,305.833L215.099,305.833z" style="fill: rgb(30, 30, 30);"/>
  </g>
  <g transform="matrix(0.578387, -0.154978, 0.154978, 0.578387, 266.892365, 148.881485)">
    <path d="M162.152,301.859c-0.76-0.002-1.377-0.618-1.377-1.376l0,0V283.09c0-0.76,0.62-1.376,1.377-1.376l0,0&#10;&#9;&#9;h28.128c0.756,0,1.378,0.611,1.378,1.376l0,0v17.394c0,0.762-0.62,1.374-1.378,1.376l0,0H162.152L162.152,301.859z&#10;&#9;&#9; M189.658,299.859v-16.147h-26.884v16.147H189.658L189.658,299.859z" style="fill: rgb(30, 30, 30);"/>
    <path d="M166.419,297.589c-1.383,0-2.506-1.12-2.506-2.506l0,0v-9.293c0-1.388,1.123-2.508,2.506-2.508l0,0h19.593&#10;&#9;&#9;c1.385,0,2.506,1.122,2.506,2.508l0,0v9.293c0,1.384-1.121,2.506-2.506,2.508l0,0L166.419,297.589L166.419,297.589z&#10;&#9;&#9; M165.913,285.79v9.293c0,0.28,0.228,0.507,0.507,0.507l0,0h19.593c0.279,0,0.507-0.227,0.507-0.507l0,0v-9.293&#10;&#9;&#9;c0-0.28-0.228-0.507-0.507-0.507l0,0l-19.593-0.003C166.14,285.283,165.913,285.51,165.913,285.79L165.913,285.79z" style="fill: rgb(30, 30, 30);"/>
  </g>
  <g transform="matrix(0.578387, -0.154978, 0.154978, 0.578387, 266.892365, 148.881485)">
    <path d="M191.896,301.859c-0.758-0.002-1.375-0.618-1.377-1.376l0,0V283.09c0.002-0.76,0.62-1.376,1.377-1.376l0,0&#10;&#9;&#9;h18.335c0.76,0.002,1.374,0.609,1.376,1.376l0,0v17.394c-0.002,0.762-0.616,1.374-1.376,1.376l0,0H191.896L191.896,301.859z&#10;&#9;&#9; M209.607,299.859v-16.147h-17.089v16.147H209.607L209.607,299.859z" style="fill: rgb(30, 30, 30);"/>
    <path d="M196.165,297.589c-1.383,0-2.506-1.12-2.508-2.506l0,0v-9.293c0.002-1.388,1.125-2.508,2.508-2.508l0,0&#10;&#9;&#9;h9.796c1.385,0,2.506,1.122,2.506,2.508l0,0v9.293c0,1.384-1.121,2.506-2.506,2.508l0,0L196.165,297.589L196.165,297.589z&#10;&#9;&#9; M195.658,285.79v9.293c0,0.28,0.228,0.507,0.507,0.507l0,0h9.796c0.28,0,0.507-0.227,0.507-0.507l0,0v-9.293&#10;&#9;&#9;c0-0.28-0.227-0.507-0.507-0.507l0,0l-9.796-0.003C195.886,285.283,195.658,285.51,195.658,285.79L195.658,285.79z" style="fill: rgb(30, 30, 30);"/>
  </g>
  <g transform="matrix(0.578387, -0.154978, 0.154978, 0.578387, 266.892365, 148.881485)">
    <path d="M211.846,301.858c-0.76,0-1.377-0.614-1.377-1.376l0,0v-17.394c0-0.762,0.62-1.374,1.377-1.376l0,0h18.333&#10;&#9;&#9;c0.758,0.002,1.375,0.614,1.378,1.376l0,0v17.394c-0.002,0.762-0.62,1.376-1.378,1.378l0,0L211.846,301.858L211.846,301.858z&#10;&#9;&#9; M229.558,299.86v-16.147h-17.089v16.146L229.558,299.86L229.558,299.86z" style="fill: rgb(30, 30, 30);"/>
    <path d="M216.115,297.589c-1.386,0-2.506-1.122-2.506-2.506l0,0v-9.293c0-1.386,1.121-2.508,2.506-2.508l0,0h9.796&#10;&#9;&#9;c1.386,0,2.506,1.122,2.506,2.508l0,0v9.293c0,1.384-1.12,2.506-2.506,2.508l0,0L216.115,297.589L216.115,297.589z M215.607,285.79&#10;&#9;&#9;v9.293c0.002,0.28,0.228,0.507,0.507,0.507l0,0h9.796c0.28,0,0.505-0.227,0.507-0.507l0,0v-9.293&#10;&#9;&#9;c-0.002-0.28-0.228-0.507-0.507-0.507l0,0l-9.796-0.003C215.835,285.283,215.609,285.51,215.607,285.79L215.607,285.79z" style="fill: rgb(30, 30, 30);"/>
  </g>
  <g transform="matrix(0.578387, -0.154978, 0.154978, 0.578387, 266.892365, 148.881485)">
    <path d="M231.794,301.859c-0.76-0.002-1.376-0.62-1.378-1.376l0,0l0.002-17.394c0-0.76,0.616-1.376,1.376-1.376l0,0&#10;&#9;&#9;h18.335c0.758,0,1.375,0.611,1.375,1.376l0,0v17.394c0,0.76-0.618,1.374-1.375,1.376l0,0H231.794L231.794,301.859z&#10;&#9;&#9; M249.506,299.859v-16.147h-17.087l-0.002,16.147H249.506L249.506,299.859z" style="fill: rgb(30, 30, 30);"/>
    <path d="M236.064,297.589c-1.386,0-2.506-1.122-2.506-2.506l0,0v-9.293c0-1.386,1.12-2.508,2.506-2.508l0,0h9.796&#10;&#9;&#9;c1.386,0,2.506,1.122,2.506,2.508l0,0v9.293c0,1.384-1.121,2.506-2.506,2.508l0,0L236.064,297.589L236.064,297.589z&#10;&#9;&#9; M235.557,285.79v9.293c0.002,0.28,0.228,0.507,0.507,0.507l0,0h9.796c0.278,0,0.505-0.227,0.505-0.507l0,0v-9.293&#10;&#9;&#9;c0-0.28-0.228-0.507-0.505-0.507l0,0l-9.796-0.003C235.784,285.283,235.559,285.51,235.557,285.79L235.557,285.79z" style="fill: rgb(30, 30, 30);"/>
  </g>
  <g transform="matrix(0.578387, -0.154978, 0.154978, 0.578387, 266.892365, 148.881485)">
    <path d="M251.744,301.859c-0.76,0-1.376-0.616-1.378-1.376l0,0l0.002-17.394c0-0.765,0.616-1.376,1.376-1.376l0,0&#10;&#9;&#9;h18.335c0.755,0,1.375,0.607,1.377,1.376l0,0v17.394c-0.002,0.765-0.622,1.374-1.377,1.376l0,0H251.744L251.744,301.859z&#10;&#9;&#9; M269.457,299.859v-16.147h-17.089l-0.002,16.147H269.457L269.457,299.859z" style="fill: rgb(30, 30, 30);"/>
    <path d="M256.015,297.589c-1.388,0-2.508-1.122-2.508-2.506l0,0v-9.293c0-1.386,1.12-2.508,2.508-2.508l0,0h9.794&#10;&#9;&#9;c1.385,0,2.506,1.122,2.506,2.508l0,0v9.293c0,1.384-1.121,2.506-2.506,2.508l0,0L256.015,297.589L256.015,297.589z&#10;&#9;&#9; M255.506,285.79v9.293c0,0.28,0.227,0.507,0.509,0.507l0,0h9.794c0.279,0,0.505-0.227,0.507-0.507l0,0v-9.293&#10;&#9;&#9;c-0.002-0.28-0.228-0.507-0.507-0.507l0,0l-9.794-0.003C255.733,285.283,255.506,285.51,255.506,285.79L255.506,285.79z" style="fill: rgb(30, 30, 30);"/>
  </g>
  <g transform="matrix(0.578387, -0.154978, 0.154978, 0.578387, 266.892365, 148.881485)">
    <path d="M271.694,301.858c-0.76,0-1.376-0.618-1.378-1.376l0,0v-17.394c0.002-0.76,0.62-1.374,1.378-1.376l0,0&#10;&#9;&#9;h18.335c0.755,0.002,1.374,0.616,1.375,1.376l0,0v17.394c-0.002,0.758-0.618,1.376-1.375,1.378l0,0L271.694,301.858&#10;&#9;&#9;L271.694,301.858z M289.405,299.86v-16.147h-17.089v16.146L289.405,299.86L289.405,299.86z" style="fill: rgb(30, 30, 30);"/>
    <path d="M275.962,297.589c-1.385,0-2.506-1.122-2.506-2.506l0,0v-9.293c0-1.386,1.121-2.508,2.506-2.508l0,0h9.796&#10;&#9;&#9;c1.385,0,2.506,1.122,2.506,2.508l0,0v9.293c0,1.384-1.121,2.506-2.506,2.508l0,0L275.962,297.589L275.962,297.589z&#10;&#9;&#9; M275.456,285.79v9.293c0,0.28,0.227,0.507,0.507,0.507l0,0h9.796c0.279,0,0.505-0.227,0.507-0.507l0,0v-9.293&#10;&#9;&#9;c-0.002-0.28-0.228-0.507-0.507-0.507l0,0l-9.796-0.003C275.683,285.283,275.456,285.51,275.456,285.79L275.456,285.79z" style="fill: rgb(30, 30, 30);"/>
  </g>
  <g transform="matrix(0.578387, -0.154978, 0.154978, 0.578387, 266.892365, 148.881485)">
    <path d="M291.642,301.859c-0.76-0.002-1.374-0.62-1.375-1.376l0,0V283.09c0.002-0.76,0.618-1.376,1.375-1.376l0,0&#10;&#9;&#9;h18.338c0.757,0,1.373,0.616,1.375,1.376l0,0v17.394h-0.002c0,0.756-0.616,1.374-1.373,1.376l0,0H291.642L291.642,301.859z&#10;&#9;&#9; M309.353,299.859l0.002-16.147h-17.088v16.147H309.353L309.353,299.859z" style="fill: rgb(30, 30, 30);"/>
    <path d="M295.914,297.589c-1.386,0-2.508-1.12-2.508-2.506l0,0v-9.293c0-1.388,1.123-2.508,2.508-2.508l0,0h9.794&#10;&#9;&#9;c1.383,0,2.506,1.12,2.506,2.508l0,0v9.293c0,1.386-1.123,2.506-2.506,2.508l0,0L295.914,297.589L295.914,297.589z M295.405,285.79&#10;&#9;&#9;v9.293c0,0.28,0.228,0.507,0.509,0.507l0,0h9.794c0.279,0,0.507-0.227,0.507-0.507l0,0v-9.293c0-0.28-0.228-0.507-0.507-0.507l0,0&#10;&#9;&#9;l-9.794-0.003C295.632,285.283,295.405,285.51,295.405,285.79L295.405,285.79z" style="fill: rgb(30, 30, 30);"/>
  </g>
  <g transform="matrix(0.578387, -0.154978, 0.154978, 0.578387, 266.892365, 148.881485)">
    <path d="M311.592,301.858c-0.758,0-1.378-0.614-1.38-1.376l0,0l0.002-17.394c0-0.762,0.62-1.374,1.378-1.376l0,0&#10;&#9;&#9;h18.335c0.756,0,1.374,0.609,1.378,1.376l0,0v17.394h-0.002c0,0.765-0.62,1.376-1.376,1.378l0,0L311.592,301.858L311.592,301.858z&#10;&#9;&#9; M329.303,299.86l0.002-16.147h-17.091l-0.002,16.146L329.303,299.86L329.303,299.86z" style="fill: rgb(30, 30, 30);"/>
    <path d="M315.86,297.589c-1.383,0-2.506-1.12-2.506-2.506l0,0v-9.293c0-1.388,1.123-2.508,2.506-2.508l0,0h9.797&#10;&#9;&#9;c1.386,0,2.506,1.122,2.506,2.508l0,0v9.293c0,1.384-1.12,2.506-2.506,2.508l0,0L315.86,297.589L315.86,297.589z M315.354,285.79&#10;&#9;&#9;v9.293c0,0.28,0.228,0.507,0.507,0.507l0,0h9.797c0.279,0,0.507-0.227,0.507-0.507l0,0v-9.293c0-0.28-0.228-0.507-0.507-0.507l0,0&#10;&#9;&#9;l-9.797-0.003C315.581,285.283,315.354,285.51,315.354,285.79L315.354,285.79z" style="fill: rgb(30, 30, 30);"/>
  </g>
  <g transform="matrix(0.578387, -0.154978, 0.154978, 0.578387, 266.892365, 148.881485)">
    <path d="M331.541,301.858c-0.76,0-1.376-0.614-1.378-1.376l0,0v-17.394c0-0.762,0.62-1.374,1.378-1.376l0,0h18.335&#10;&#9;&#9;c0.756,0.002,1.374,0.616,1.376,1.376l0,0v17.394c-0.002,0.758-0.618,1.376-1.376,1.378l0,0L331.541,301.858L331.541,301.858z&#10;&#9;&#9; M349.252,299.86v-16.147h-17.089v16.146L349.252,299.86L349.252,299.86z" style="fill: rgb(30, 30, 30);"/>
    <path d="M335.811,297.589c-1.386,0-2.506-1.12-2.506-2.506l0,0v-9.293c0-1.388,1.12-2.506,2.506-2.508l0,0h9.796&#10;&#9;&#9;c1.384,0,2.506,1.122,2.506,2.508l0,0v9.293c0,1.384-1.122,2.506-2.506,2.508l0,0L335.811,297.589L335.811,297.589z&#10;&#9;&#9; M335.303,285.79v9.293c0,0.28,0.229,0.507,0.508,0.507l0,0h9.796c0.279,0,0.505-0.227,0.507-0.507l0,0v-9.293&#10;&#9;&#9;c-0.002-0.28-0.228-0.507-0.507-0.507l0,0l-9.796-0.003C335.532,285.283,335.303,285.51,335.303,285.79L335.303,285.79z" style="fill: rgb(30, 30, 30);"/>
  </g>
  <g transform="matrix(0.578387, -0.154978, 0.154978, 0.578387, 266.892365, 148.881485)">
    <path d="M351.489,301.859c-0.761-0.002-1.374-0.62-1.376-1.376l0,0V283.09c0.002-0.76,0.615-1.376,1.376-1.376l0,0&#10;&#9;&#9;h18.337c0.756,0,1.374,0.616,1.376,1.376l0,0v17.394c-0.002,0.758-0.618,1.374-1.376,1.376l0,0H351.489L351.489,301.859z&#10;&#9;&#9; M369.202,299.859v-16.147h-17.089v16.147H369.202L369.202,299.859z" style="fill: rgb(30, 30, 30);"/>
    <path d="M355.759,297.59c-1.386,0-2.502-1.124-2.504-2.508l0,0v-9.293c0-1.384,1.118-2.506,2.504-2.506l0,0h9.798&#10;&#9;&#9;c1.384,0,2.504,1.12,2.506,2.506l0,0v9.293c-0.002,1.386-1.122,2.506-2.506,2.508l0,0H355.759L355.759,297.59z M355.254,285.789&#10;&#9;&#9;v9.293c0,0.282,0.227,0.507,0.505,0.509l0,0h9.798c0.277-0.002,0.505-0.229,0.507-0.509l0,0v-9.293&#10;&#9;&#9;c-0.002-0.277-0.229-0.507-0.507-0.507l0,0h-9.798C355.48,285.282,355.254,285.509,355.254,285.789L355.254,285.789z" style="fill: rgb(30, 30, 30);"/>
  </g>
  <g transform="matrix(0.578387, -0.154978, 0.154978, 0.578387, 266.892365, 148.881485)">
    <path d="M371.346,301.859c-0.76-0.002-1.377-0.616-1.377-1.376l0,0V283.09c0-0.765,0.619-1.376,1.377-1.376l0,0&#10;&#9;&#9;h18.336c0.758,0,1.373,0.616,1.376,1.376l0,0v17.394h-0.003c0,0.756-0.615,1.374-1.373,1.376l0,0H371.346L371.346,301.859z&#10;&#9;&#9; M389.056,299.859l0.002-16.147h-17.09v16.147H389.056L389.056,299.859z" style="fill: rgb(30, 30, 30);"/>
    <path d="M375.615,297.589c-1.386,0-2.506-1.122-2.506-2.506l0,0v-9.293c0-1.386,1.12-2.508,2.506-2.508l0,0h9.796&#10;&#9;&#9;c1.384,0,2.506,1.122,2.506,2.508l0,0v9.293c0,1.384-1.122,2.506-2.506,2.508l0,0L375.615,297.589L375.615,297.589z&#10;&#9;&#9; M375.107,285.79v9.293c0,0.28,0.228,0.507,0.508,0.507l0,0h9.796c0.277,0,0.505-0.227,0.507-0.507l0,0v-9.293&#10;&#9;&#9;c-0.002-0.28-0.229-0.507-0.507-0.507l0,0l-9.796-0.003C375.335,285.283,375.107,285.51,375.107,285.79L375.107,285.79z" style="fill: rgb(30, 30, 30);"/>
  </g>
  <g transform="matrix(0.578387, -0.154978, 0.154978, 0.578387, 266.892365, 148.881485)">
    <path d="M391.295,301.859c-0.76-0.002-1.378-0.618-1.378-1.376l0,0V283.09c0-0.76,0.62-1.376,1.378-1.376l0,0&#10;&#9;&#9;h27.377c0.76,0,1.374,0.616,1.376,1.376l0,0v17.394c-0.002,0.756-0.616,1.374-1.376,1.376l0,0H391.295L391.295,301.859z&#10;&#9;&#9; M418.048,299.859v-16.147h-26.131v16.147H418.048L418.048,299.859z" style="fill: rgb(30, 30, 30);"/>
    <path d="M395.564,297.589c-1.384,0-2.508-1.12-2.508-2.506l0,0v-9.293c0.002-1.388,1.124-2.508,2.508-2.508l0,0&#10;&#9;&#9;h18.839c1.384,0.002,2.504,1.12,2.506,2.508l0,0v9.293c-0.002,1.386-1.122,2.506-2.506,2.508l0,0L395.564,297.589L395.564,297.589z&#10;&#9;&#9; M395.058,285.79v9.293c0,0.28,0.227,0.507,0.507,0.507l0,0h18.839c0.277,0,0.505-0.227,0.507-0.507l0,0v-9.293&#10;&#9;&#9;c-0.002-0.28-0.229-0.507-0.507-0.507l0,0l-18.839-0.003C395.284,285.283,395.058,285.51,395.058,285.79L395.058,285.79z" style="fill: rgb(30, 30, 30);"/>
  </g>
  <g transform="matrix(0.578387, -0.154978, 0.154978, 0.578387, 266.892365, 148.881485)">
    <path d="M420.286,301.858c-0.759,0-1.376-0.614-1.378-1.376l0,0v-17.392c0-0.766,0.619-1.376,1.378-1.376l0,0&#10;&#9;&#9;h18.335c0.757,0,1.374,0.608,1.378,1.376l0,0v17.392h-0.002c0,0.766-0.617,1.376-1.376,1.376l0,0H420.286L420.286,301.858z&#10;&#9;&#9; M437.998,299.859v-16.147h-17.089l-0.002,16.147H437.998L437.998,299.859z" style="fill: rgb(30, 30, 30);"/>
    <path d="M424.556,297.59c-1.386,0-2.506-1.123-2.506-2.507l0,0v-9.294c0-1.386,1.12-2.506,2.506-2.508l0,0&#10;&#9;&#9;l9.796,0.002c1.384,0,2.506,1.122,2.506,2.506l0,0v9.294c0,1.384-1.122,2.507-2.506,2.507l0,0H424.556L424.556,297.59z&#10;&#9;&#9; M424.048,285.789v9.294c0.002,0.28,0.229,0.506,0.508,0.506l0,0l9.796,0.002c0.28-0.002,0.506-0.228,0.506-0.508l0,0v-9.294&#10;&#9;&#9;c0-0.28-0.226-0.506-0.506-0.506l0,0l-9.796-0.002C424.276,285.283,424.05,285.512,424.048,285.789L424.048,285.789z" style="fill: rgb(30, 30, 30);"/>
  </g>
  <g transform="matrix(0.578387, -0.154978, 0.154978, 0.578387, 266.892365, 148.881485)">
    <path d="M440.234,301.858c-0.759,0-1.375-0.614-1.377-1.375l0,0v-17.395c0-0.763,0.62-1.375,1.377-1.377l0,0&#10;&#9;&#9;l18.335,0.002c0.757,0,1.375,0.608,1.38,1.375l0,0v17.395h-0.003c0,0.765-0.62,1.375-1.377,1.377l0,0L440.234,301.858&#10;&#9;&#9;L440.234,301.858z M457.947,299.86v-16.146l-17.091-0.002v16.146L457.947,299.86L457.947,299.86z" style="fill: rgb(30, 30, 30);"/>
    <path d="M444.506,297.589c-1.385,0-2.508-1.121-2.508-2.506l0,0v-9.293c0-1.388,1.123-2.507,2.508-2.509l0,0&#10;&#9;&#9;l9.794,0.002c1.386,0,2.507,1.121,2.507,2.507l0,0v9.293c0,1.385-1.121,2.506-2.507,2.508l0,0L444.506,297.589L444.506,297.589z&#10;&#9;&#9; M443.997,285.79v9.293c0,0.278,0.229,0.507,0.509,0.507l0,0h9.794c0.281,0,0.508-0.227,0.508-0.507l0,0v-9.293&#10;&#9;&#9;c0-0.279-0.227-0.508-0.508-0.508l0,0h-9.794C444.226,285.282,443.997,285.511,443.997,285.79L443.997,285.79z" style="fill: rgb(30, 30, 30);"/>
  </g>
  <path d="M 358.363 242.263 L 358.362 233.238 C 358.363 232.368 359.067 231.663 359.939 231.663 L 359.939 231.663 C 360.81 231.663 361.516 232.367 361.516 233.238 L 361.516 233.238 L 361.516 242.263 C 361.516 243.134 360.81 243.839 359.939 243.84 L 359.939 243.84 C 359.068 243.839 358.363 243.134 358.363 242.263 L 358.363 242.263 Z M 359.56 233.238 L 359.56 242.263 C 359.562 242.472 359.731 242.641 359.939 242.641 L 359.939 242.641 C 360.149 242.641 360.318 242.472 360.319 242.263 L 360.319 242.263 L 360.318 233.238 C 360.318 233.031 360.149 232.861 359.939 232.861 L 359.939 232.861 C 359.73 232.861 359.562 233.029 359.56 233.238 L 359.56 233.238 Z" style="fill: rgb(30, 30, 30);" transform="matrix(0.965926, -0.258818, 0.258818, 0.965926, -49.269906, 101.260002)"/>
  <path d="M 362.25 241.221 L 362.25 232.197 C 362.25 231.326 362.956 230.622 363.826 230.622 L 363.826 230.622 C 364.697 230.622 365.402 231.326 365.402 232.197 L 365.402 232.197 L 365.402 241.221 C 365.402 242.092 364.697 242.798 363.826 242.798 L 363.826 242.798 C 362.955 242.798 362.25 242.092 362.25 241.221 L 362.25 241.221 Z M 363.446 232.197 L 363.446 241.221 C 363.447 241.431 363.616 241.6 363.826 241.6 L 363.826 241.6 C 364.035 241.6 364.203 241.431 364.205 241.221 L 364.205 241.221 L 364.203 232.197 C 364.203 231.988 364.035 231.819 363.826 231.819 L 363.826 231.819 C 363.616 231.819 363.447 231.988 363.446 232.197 L 363.446 232.197 Z" style="fill: rgb(30, 30, 30);" transform="matrix(0.965926, -0.258819, 0.258819, 0.965926, -48.867922, 102.230607)"/>
  <path d="M 366.135 240.18 L 366.135 231.155 C 366.135 230.285 366.841 229.58 367.711 229.58 L 367.711 229.58 C 368.582 229.58 369.287 230.286 369.288 231.155 L 369.288 231.155 L 369.288 240.18 C 369.288 241.052 368.581 241.756 367.711 241.757 L 367.711 241.757 C 366.841 241.756 366.135 241.052 366.135 240.18 L 366.135 240.18 Z M 367.333 231.155 L 367.333 240.18 C 367.333 240.389 367.502 240.558 367.711 240.558 L 367.711 240.558 C 367.921 240.558 368.09 240.389 368.09 240.18 L 368.09 240.18 L 368.09 231.155 C 368.09 230.946 367.92 230.778 367.711 230.778 L 367.711 230.778 C 367.502 230.778 367.333 230.946 367.333 231.155 L 367.333 231.155 Z" style="fill: rgb(30, 30, 30);" transform="matrix(0.965926, -0.258819, 0.258819, 0.965926, -48.465974, 103.200757)"/>
  <path d="M 370.021 239.139 L 370.022 230.114 C 370.022 229.244 370.727 228.539 371.598 228.539 L 371.598 228.539 C 372.469 228.539 373.173 229.245 373.173 230.114 L 373.173 230.114 L 373.173 239.139 C 373.173 240.01 372.467 240.714 371.598 240.716 L 371.598 240.716 C 370.727 240.714 370.021 240.01 370.021 239.139 L 370.021 239.139 Z M 371.218 230.114 L 371.218 239.139 C 371.219 239.348 371.388 239.517 371.598 239.517 L 371.598 239.517 C 371.806 239.517 371.976 239.348 371.976 239.139 L 371.976 239.139 L 371.976 230.114 C 371.976 229.905 371.806 229.737 371.598 229.737 L 371.598 229.737 C 371.388 229.737 371.219 229.905 371.218 230.114 L 371.218 230.114 Z" style="fill: rgb(30, 30, 30);" transform="matrix(0.965926, -0.258819, 0.258819, 0.965926, -48.06421, 104.171125)"/>
  <path d="M 373.908 238.098 L 373.907 229.073 C 373.908 228.202 374.612 227.498 375.483 227.498 L 375.483 227.498 C 376.355 227.498 377.059 228.202 377.06 229.073 L 377.06 229.073 L 377.06 238.098 C 377.059 238.968 376.354 239.674 375.483 239.674 L 375.483 239.674 C 374.612 239.674 373.908 238.968 373.908 238.098 L 373.908 238.098 Z M 375.105 229.073 L 375.105 238.098 C 375.105 238.307 375.275 238.477 375.483 238.477 L 375.483 238.477 C 375.692 238.477 375.862 238.307 375.862 238.098 L 375.862 238.098 L 375.862 229.073 C 375.862 228.865 375.692 228.695 375.483 228.695 L 375.483 228.695 C 375.275 228.695 375.105 228.865 375.105 229.073 L 375.105 229.073 Z" style="fill: rgb(30, 30, 30);" transform="matrix(0.965926, -0.258819, 0.258819, 0.965926, -47.662159, 105.141344)"/>
  <path d="M 377.793 237.056 L 377.793 228.032 C 377.793 227.16 378.499 226.457 379.37 226.457 L 379.37 226.457 C 380.241 226.457 380.945 227.16 380.945 228.032 L 380.945 228.032 L 380.945 237.056 C 380.945 237.927 380.24 238.633 379.37 238.633 L 379.37 238.633 C 378.499 238.633 377.793 237.927 377.793 237.056 L 377.793 237.056 Z M 378.991 228.032 L 378.991 237.056 C 378.991 237.266 379.16 237.435 379.37 237.435 L 379.37 237.435 C 379.579 237.435 379.749 237.266 379.749 237.056 L 379.749 237.056 L 379.749 228.032 C 379.749 227.823 379.579 227.654 379.37 227.654 L 379.37 227.654 C 379.16 227.654 378.991 227.823 378.991 228.032 L 378.991 228.032 Z" style="fill: rgb(30, 30, 30);" transform="matrix(0.965926, -0.258819, 0.258819, 0.965926, -47.260334, 106.111518)"/>
  <path d="M 381.679 236.015 L 381.679 226.99 C 381.679 226.119 382.385 225.416 383.256 225.416 L 383.256 225.416 C 384.126 225.416 384.831 226.119 384.831 226.99 L 384.831 226.99 L 384.831 236.015 C 384.831 236.885 384.125 237.592 383.256 237.592 L 383.256 237.592 C 382.385 237.592 381.679 236.885 381.679 236.015 L 381.679 236.015 Z M 382.876 226.99 L 382.876 236.015 C 382.877 236.224 383.047 236.394 383.256 236.394 L 383.256 236.394 C 383.465 236.394 383.634 236.224 383.635 236.015 L 383.635 236.015 L 383.635 226.99 C 383.634 226.782 383.465 226.613 383.256 226.613 L 383.256 226.613 C 383.046 226.613 382.877 226.782 382.876 226.99 L 382.876 226.99 Z" style="fill: rgb(30, 30, 30);" transform="matrix(0.965926, -0.258819, 0.258819, 0.965926, -46.858493, 107.081809)"/>
  <path d="M 359.332 296.782 L 359.332 199.178 L 588.685 199.178 L 588.685 296.183 L 588.685 296.781 L 359.332 296.781 L 359.332 296.782 Z M 588.086 296.183 L 588.086 295.583 L 588.086 296.183 L 588.086 296.183 Z M 360.528 295.583 L 587.487 295.583 L 587.487 200.376 L 360.529 200.376 L 360.528 295.583 L 360.528 295.583 Z" style="fill: rgb(30, 30, 30);" transform="matrix(0.965926, -0.258819, 0.258819, 0.965926, -48.030454, 131.131905)"/>
  <path d="M 353.423 248.858 L 353.423 230.063 L 357.328 230.063 L 357.328 248.259 L 357.328 248.858 L 353.423 248.858 L 353.423 248.858 Z M 356.73 248.259 L 356.73 247.659 L 356.73 248.259 L 356.73 248.259 Z M 354.621 231.262 L 354.621 247.659 L 356.131 247.659 L 356.131 231.261 L 354.621 231.262 L 354.621 231.262 Z" style="fill: rgb(30, 30, 30);" transform="matrix(0.965926, -0.258819, 0.258819, 0.965926, -49.867751, 100.137182)"/>
  <path d="M 570.422 190.77 L 570.422 171.977 L 574.327 171.977 L 574.327 190.171 L 574.327 190.77 L 570.422 190.77 L 570.422 190.77 Z M 573.729 190.171 L 573.729 189.573 L 573.729 190.171 L 573.729 190.171 Z M 571.621 189.573 L 573.129 189.573 L 573.129 173.175 L 571.621 173.175 L 571.621 189.573 L 571.621 189.573 Z" style="fill: rgb(30, 30, 30);" transform="matrix(0.965926, -0.258819, 0.258819, 0.965926, -27.439729, 154.321601)"/>
  <polygon points="352.24 220.099 352.24 218.904 580.264 218.904 580.264 220.1 352.24 220.099" style="fill: rgb(30, 30, 30);" transform="matrix(0.965926, -0.258819, 0.258819, 0.965926, -40.924169, 128.154342)"/>
  <path d="M 403.758 310.874 C 403.758 309.499 404.871 308.386 406.245 308.384 L 406.245 308.384 C 407.619 308.386 408.734 309.499 408.734 310.874 L 408.734 310.874 C 408.734 312.248 407.62 313.361 406.245 313.361 L 406.245 313.361 C 404.87 313.361 403.758 312.248 403.758 310.874 L 403.758 310.874 Z M 404.955 310.874 C 404.956 311.585 405.533 312.161 406.245 312.163 L 406.245 312.163 C 406.957 312.161 407.535 311.585 407.536 310.874 L 407.536 310.874 C 407.535 310.16 406.957 309.585 406.245 309.582 L 406.245 309.582 C 405.532 309.585 404.956 310.159 404.955 310.874 L 404.955 310.874 Z" style="fill: rgb(30, 30, 30);" transform="matrix(0.965926, -0.258819, 0.258819, 0.965926, -66.617266, 115.737015)"/>
  <path d="M 415.688 307.678 C 415.688 306.303 416.801 305.189 418.175 305.188 L 418.175 305.188 C 419.551 305.189 420.664 306.303 420.664 307.678 L 420.664 307.678 L 420.665 307.678 C 420.664 309.052 419.551 310.165 418.175 310.165 L 418.175 310.165 C 416.801 310.165 415.688 309.052 415.688 307.678 L 415.688 307.678 Z M 416.885 307.678 C 416.886 308.388 417.463 308.965 418.174 308.966 L 418.174 308.966 C 418.888 308.965 419.464 308.388 419.466 307.678 L 419.466 307.678 C 419.464 306.963 418.888 306.388 418.174 306.385 L 418.174 306.385 C 417.463 306.388 416.886 306.963 416.885 307.678 L 416.885 307.678 Z" style="fill: rgb(30, 30, 30);" transform="matrix(0.965926, -0.258819, 0.258819, 0.965926, -65.383526, 118.715877)"/>
  <path d="M 427.619 304.481 C 427.619 303.106 428.732 301.992 430.106 301.992 L 430.106 301.992 C 431.48 301.992 432.595 303.104 432.595 304.481 L 432.595 304.481 C 432.595 305.855 431.48 306.967 430.106 306.968 L 430.106 306.968 C 428.732 306.968 427.619 305.855 427.619 304.481 L 427.619 304.481 Z M 428.816 304.481 C 428.817 305.191 429.394 305.768 430.106 305.771 L 430.106 305.771 C 430.818 305.768 431.396 305.191 431.397 304.481 L 431.397 304.481 C 431.396 303.768 430.818 303.191 430.106 303.188 L 430.106 303.188 C 429.394 303.191 428.817 303.766 428.816 304.481 L 428.816 304.481 Z" style="fill: rgb(30, 30, 30);" transform="matrix(0.965926, -0.258819, 0.258819, 0.965926, -64.149596, 121.694565)"/>
  <path d="M 334.401 302.758 L 334.401 193.433 L 341.17 109.057 C 341.189 106.998 342.864 105.336 344.928 105.335 L 344.928 105.335 L 580.552 105.335 C 582.621 105.336 584.299 107.007 584.308 109.074 L 584.308 109.074 L 591.075 193.463 L 590.478 193.511 L 591.075 193.463 L 591.078 193.494 L 591.076 302.759 C 591.076 304.835 589.394 306.516 587.321 306.516 L 587.321 306.516 L 338.16 306.517 C 336.084 306.515 334.403 304.835 334.401 302.758 L 334.401 302.758 Z M 342.367 109.092 L 342.367 109.115 L 335.599 193.474 L 335.6 302.758 C 335.602 304.172 336.747 305.314 338.16 305.318 L 338.16 305.318 L 587.321 305.317 C 588.733 305.314 589.877 304.172 589.879 302.758 L 589.879 302.758 L 589.879 193.528 L 583.111 109.11 L 583.111 109.091 C 583.108 107.678 581.965 106.535 580.553 106.532 L 580.553 106.532 L 344.928 106.532 C 343.514 106.535 342.37 107.68 342.367 109.092 L 342.367 109.092 Z" style="fill: rgb(30, 30, 30);" transform="matrix(0.965926, -0.258818, 0.258818, 0.965926, -37.530058, 126.782244)"/>
</svg>