<?xml version="1.0" encoding="utf-8"?>
<svg version="1.2" baseProfile="tiny" id="Layer_3" x="0px" y="0px" viewBox="0 0 1280 720" preserveAspectRatio="none" xmlns="http://www.w3.org/2000/svg">
  <path id="circle3" d="M 358.59 346.989 C 273.584 346.989 204.653 415.921 204.653 500.918 C 204.653 585.924 273.584 654.856 358.591 654.856 C 443.594 654.856 512.528 585.926 512.528 500.918 C 512.528 415.915 443.596 346.981 358.59 346.981 L 358.59 346.989 Z M 358.59 350.181 C 441.867 350.181 509.335 417.645 509.335 500.925 C 509.335 584.205 441.871 651.671 358.591 651.671 C 275.302 651.671 207.838 584.216 207.838 500.924 C 207.838 417.649 275.302 350.184 358.582 350.184 L 358.59 350.181 Z" style="fill: rgb(30, 30, 30);" transform="matrix(0.965926, -0.258819, 0.258819, 0.965926, -117.428642, 109.878519)"/>
  <path id="circle5" d="M 358.594 435.986 C 322.75 435.986 293.647 465.084 293.647 500.933 C 293.647 536.777 322.748 565.877 358.594 565.877 C 394.439 565.877 423.541 536.778 423.541 500.933 C 423.541 465.086 394.441 435.986 358.594 435.986 Z M 358.594 439.178 C 392.712 439.178 420.348 466.812 420.348 500.933 C 420.348 535.051 392.715 562.685 358.594 562.685 C 324.475 562.685 296.839 535.051 296.839 500.933 C 296.839 466.813 324.475 439.178 358.594 439.178 Z" style="fill: rgb(30, 30, 30);" transform="matrix(0.965926, -0.258819, 0.258819, 0.965926, -117.431698, 109.87962)"/>
  <path id="polygon7" d="M 335.96 401.597 L 335.96 401.597 L 343.791 431.328 L 328.128 431.328 L 335.96 401.597 Z" style="fill: rgb(30, 30, 30);" transform="matrix(0.965926, -0.258819, 0.258819, 0.965926, -96.340926, 101.143376)"/>
  <path id="polygon9" d="M 272.934 445.852 L 299.52 461.365 L 288.497 472.439 L 272.934 445.852 L 272.934 445.852 Z" style="fill: rgb(30, 30, 30);" transform="matrix(0.965926, -0.258819, 0.258819, 0.965926, -109.082528, 89.72587)"/>
  <path id="polygon11" d="M 288.996 515.739 L 288.996 531.403 L 259.217 523.572 L 288.996 515.739 L 288.996 515.739 Z" style="fill: rgb(30, 30, 30);" transform="matrix(0.965926, -0.258819, 0.258819, 0.965926, -126.17008, 88.784126)"/>
  <path id="polygon13" d="M 319.084 560.003 L 330.107 571.074 L 303.521 586.588 L 319.084 560.003 L 319.084 560.003 Z" style="fill: rgb(30, 30, 30);" transform="matrix(0.965926, -0.258819, 0.258819, 0.965926, -137.584468, 101.531914)"/>
  <path id="polygon15" d="M 373.39 570.522 L 389.054 570.522 L 381.223 600.252 L 373.39 570.522 L 373.39 570.522 Z" style="fill: rgb(30, 30, 30);" transform="matrix(0.965926, -0.258819, 0.258819, 0.965926, -138.519314, 118.613909)"/>
  <path id="polygon17" d="M 428.731 529.426 L 444.195 555.962 L 417.658 540.497 L 428.731 529.426 Z" style="fill: rgb(30, 30, 30);" transform="matrix(0.965926, -0.258819, 0.258819, 0.965926, -125.775936, 130.023651)"/>
  <path id="polygon19" d="M 428.196 470.453 L 458.025 478.285 L 428.196 486.116 L 428.196 470.453 L 428.196 470.453 Z" style="fill: rgb(30, 30, 30);" transform="matrix(0.965926, -0.258819, 0.258819, 0.965926, -108.69039, 130.982406)"/>
  <path id="polygon21" d="M 413.621 415.325 L 398.156 441.863 L 387.082 430.788 L 413.621 415.325 Z" style="fill: rgb(30, 30, 30);" transform="matrix(0.965926, -0.258819, 0.258819, 0.965926, -97.286544, 118.222408)"/>
  <path id="circle25" d="M 661.897 290.024 C 630.471 290.024 604.982 315.512 604.982 346.938 C 604.982 378.365 630.471 403.905 661.897 403.905 C 693.322 403.905 718.864 378.366 718.864 346.938 C 718.864 315.512 693.325 290.024 661.897 290.024 L 661.897 290.024 Z M 661.897 293.216 C 691.598 293.216 715.669 317.236 715.669 346.938 C 715.669 376.639 691.598 400.713 661.897 400.713 C 632.197 400.713 608.175 376.639 608.175 346.938 C 608.175 317.236 632.197 293.216 661.897 293.216 Z" style="fill: rgb(30, 30, 30);" transform="matrix(0.965926, -0.258819, 0.258819, 0.965926, -67.246554, 183.140889)"/>
  <path id="circle27" d="M 661.892 308.238 C 640.53 308.238 623.184 325.585 623.184 346.946 C 623.184 368.307 640.53 385.655 661.892 385.655 C 683.254 385.655 700.6 368.307 700.6 346.946 C 700.6 325.585 683.254 308.238 661.892 308.238 Z M 661.892 311.43 C 681.526 311.43 697.406 327.31 697.406 346.944 C 697.406 366.579 681.523 382.46 661.892 382.46 C 642.256 382.46 626.376 366.579 626.376 346.944 C 626.376 327.31 642.257 311.43 661.892 311.43 Z" style="fill: rgb(30, 30, 30);" transform="matrix(0.965926, -0.258819, 0.258819, 0.965926, -67.242924, 183.132079)"/>
  <path id="circle31" d="M 801.428 252.636 C 769.998 252.636 744.51 278.125 744.51 309.551 C 744.51 340.978 770 366.467 801.428 366.467 C 832.852 366.467 858.394 340.978 858.394 309.551 C 858.394 278.124 832.855 252.636 801.428 252.636 Z M 801.428 255.828 C 831.126 255.828 855.2 279.851 855.2 309.551 C 855.2 339.252 831.126 363.272 801.428 363.272 C 771.725 363.272 747.704 339.25 747.704 309.551 C 747.706 279.849 771.725 255.828 801.428 255.828 Z" style="fill: rgb(30, 30, 30);" transform="matrix(0.965926, -0.258819, 0.258819, 0.965926, -52.809005, 217.978661)"/>
  <path id="circle33" d="M 801.429 270.85 C 780.066 270.85 762.719 288.196 762.719 309.558 C 762.719 330.918 780.066 348.267 801.429 348.267 C 822.788 348.267 840.135 330.918 840.135 309.558 C 840.135 288.196 822.788 270.85 801.429 270.85 Z M 801.429 274.041 C 821.065 274.041 836.941 289.922 836.941 309.556 C 836.941 329.191 821.059 345.071 801.429 345.071 C 781.793 345.071 765.912 329.191 765.912 309.556 C 765.912 289.922 781.795 274.041 801.429 274.041 Z" style="fill: rgb(30, 30, 30);" transform="matrix(0.965926, -0.258819, 0.258819, 0.965926, -52.811628, 217.972141)"/>
  <path id="circle37" d="M 940.964 215.248 C 909.537 215.248 884.047 240.737 884.047 272.162 C 884.047 303.589 909.535 329.078 940.964 329.078 C 972.392 329.078 997.93 303.589 997.93 272.162 C 997.93 240.736 972.391 215.248 940.964 215.248 Z M 940.964 218.44 C 970.665 218.44 994.738 242.462 994.738 272.162 C 994.738 301.864 970.665 325.884 940.964 325.884 C 911.263 325.884 887.24 301.861 887.24 272.162 C 887.24 242.46 911.264 218.44 940.964 218.44 Z" style="fill: rgb(30, 30, 30);" transform="matrix(0.965926, -0.258819, 0.258819, 0.965926, -38.377559, 252.819369)"/>
  <path id="circle39" d="M 940.965 233.461 C 919.602 233.461 902.255 250.807 902.255 272.169 C 902.255 293.53 919.602 310.878 940.965 310.878 C 962.325 310.878 979.674 293.53 979.674 272.169 C 979.674 250.807 962.325 233.461 940.965 233.461 Z M 940.965 236.652 C 960.601 236.652 976.48 252.533 976.48 272.167 C 976.48 291.802 960.599 307.683 940.965 307.683 C 921.33 307.683 905.449 291.802 905.449 272.167 C 905.449 252.533 921.329 236.652 940.965 236.652 Z" style="fill: rgb(30, 30, 30);" transform="matrix(0.965926, -0.258819, 0.258819, 0.965926, -38.380059, 252.813375)"/>
  <path id="circle43" d="M 1040.229 43.338 C 1008.801 43.338 983.313 68.828 983.313 100.252 C 983.313 131.679 1008.803 157.219 1040.229 157.219 C 1071.657 157.219 1097.145 131.679 1097.145 100.252 C 1097.128 68.828 1071.637 43.338 1040.223 43.338 L 1040.229 43.338 Z M 1040.229 46.53 C 1069.93 46.53 1093.951 70.555 1093.951 100.252 C 1093.951 129.954 1069.93 154.027 1040.229 154.027 C 1010.529 154.027 986.506 129.954 986.506 100.252 C 986.506 70.552 1010.529 46.53 1040.237 46.53 L 1040.229 46.53 Z" style="fill: rgb(30, 30, 30);" transform="matrix(0.965926, -0.258819, 0.258819, 0.965926, 9.490937, 272.647871)"/>
  <path id="circle45" d="M 1040.228 61.543 C 1018.867 61.543 1001.522 78.892 1001.522 100.252 C 1001.522 121.614 1018.867 139.009 1040.228 139.009 C 1061.591 139.009 1078.936 121.612 1078.936 100.252 C 1078.936 78.893 1061.591 61.543 1040.228 61.543 Z M 1040.228 64.734 C 1059.866 64.734 1075.744 80.615 1075.744 100.251 C 1075.744 119.887 1059.864 135.816 1040.228 135.816 C 1020.592 135.816 1004.714 119.887 1004.714 100.251 C 1004.714 80.615 1020.592 64.734 1040.228 64.734 Z" style="fill: rgb(30, 30, 30);" transform="matrix(0.965926, -0.258819, 0.258819, 0.965926, 9.491586, 272.647786)"/>
  <path id="circle49" d="M 698.589 426.957 C 667.162 426.957 641.674 452.496 641.674 483.923 C 641.674 515.349 667.162 540.838 698.589 540.838 C 730.013 540.838 755.555 515.35 755.555 483.923 C 755.555 452.498 730.017 426.957 698.589 426.957 L 698.589 426.957 Z M 698.589 430.15 C 728.29 430.15 752.361 454.221 752.361 483.923 C 752.361 513.623 728.29 537.646 698.589 537.646 C 668.889 537.646 644.866 513.623 644.866 483.923 C 644.866 454.222 668.889 430.15 698.589 430.15 Z" style="fill: rgb(30, 30, 30);" transform="matrix(0.965926, -0.258819, 0.258819, 0.965926, -101.43725, 197.303341)"/>
  <path id="circle51" d="M 698.596 445.223 C 677.234 445.223 659.887 462.572 659.888 483.933 C 659.888 505.294 677.235 522.641 698.596 522.641 C 719.959 522.641 737.305 505.294 737.304 483.933 C 737.304 462.572 719.959 445.223 698.596 445.223 Z M 698.596 448.414 C 718.23 448.414 734.111 464.297 734.111 483.931 C 734.111 503.565 718.228 519.447 698.596 519.447 C 678.96 519.447 663.081 503.564 663.081 483.931 C 663.08 464.297 678.96 448.414 698.596 448.414 Z" style="fill: rgb(30, 30, 30);" transform="matrix(0.965926, -0.258819, 0.258819, 0.965926, -101.446637, 197.299264)"/>
  <path id="circle55" d="M 838.126 389.57 C 806.696 389.57 781.208 415.11 781.208 446.536 C 781.208 477.962 806.698 503.451 838.126 503.451 C 869.55 503.451 895.092 477.962 895.092 446.536 C 895.092 415.11 869.552 389.57 838.126 389.57 L 838.126 389.57 Z M 838.126 392.763 C 867.823 392.763 891.898 416.835 891.898 446.536 C 891.898 476.236 867.823 500.259 838.126 500.259 C 808.422 500.259 784.402 476.235 784.402 446.536 C 784.404 416.835 808.422 392.763 838.126 392.763 Z" style="fill: rgb(30, 30, 30);" transform="matrix(0.965926, -0.258819, 0.258819, 0.965926, -87.006078, 232.143355)"/>
  <path id="circle57" d="M 838.134 407.836 C 816.771 407.836 799.423 425.184 799.423 446.546 C 799.423 467.906 816.771 485.254 838.134 485.254 C 859.493 485.254 876.839 467.906 876.839 446.546 C 876.839 425.184 859.493 407.836 838.134 407.836 Z M 838.134 411.027 C 857.77 411.027 873.646 426.91 873.646 446.544 C 873.646 466.178 857.764 482.059 838.134 482.059 C 818.497 482.059 802.617 466.176 802.617 446.544 C 802.617 426.91 818.5 411.027 838.134 411.027 Z" style="fill: rgb(30, 30, 30);" transform="matrix(0.965926, -0.258819, 0.258819, 0.965926, -87.015648, 232.139605)"/>
  <path id="circle59" d="M 977.662 352.18 C 946.235 352.18 920.745 377.721 920.745 409.146 C 920.745 440.572 946.234 466.061 977.662 466.061 C 1009.091 466.061 1034.628 440.572 1034.628 409.146 C 1034.628 377.721 1009.089 352.18 977.662 352.18 L 977.662 352.18 Z M 977.662 355.373 C 1007.363 355.373 1031.437 379.445 1031.437 409.146 C 1031.437 438.846 1007.364 462.869 977.662 462.869 C 947.961 462.869 923.938 438.845 923.938 409.146 C 923.938 379.445 947.962 355.373 977.662 355.373 Z" style="fill: rgb(30, 30, 30);" transform="matrix(0.965926, -0.258819, 0.258819, 0.965926, -72.57427, 266.983984)"/>
  <path id="circle61" d="M 977.669 370.446 C 956.307 370.446 938.959 387.794 938.959 409.156 C 938.959 430.517 956.307 447.864 977.669 447.864 C 999.028 447.864 1016.378 430.517 1016.378 409.156 C 1016.378 387.794 999.028 370.446 977.669 370.446 Z M 977.669 373.637 C 997.305 373.637 1013.183 389.52 1013.183 409.154 C 1013.183 428.788 997.304 444.671 977.669 444.671 C 958.034 444.671 942.153 428.788 942.153 409.154 C 942.153 389.52 958.033 373.637 977.669 373.637 Z" style="fill: rgb(30, 30, 30);" transform="matrix(0.965926, -0.258819, 0.258819, 0.965926, -72.58382, 266.98048)"/>
  <path id="line65" d="M 891.252 426.83 L 891.252 430.023 L 925.174 430.023 L 925.174 426.83 L 891.252 426.83 Z" style="fill: rgb(30, 30, 30);" transform="matrix(0.965926, -0.258819, 0.258819, 0.965926, -79.938316, 249.661016)"/>
  <path id="line67" d="M 751.812 464.214 L 751.812 467.407 L 785.582 467.407 L 785.582 464.214 L 751.812 464.214 Z" style="fill: rgb(30, 30, 30);" transform="matrix(0.965926, -0.258819, 0.258819, 0.965926, -94.367935, 214.825647)"/>
  <path id="polyline69" d="M 630.131 444.12 L 630.131 445.717 L 630.131 530.066 L 630.131 531.664 L 631.726 531.664 L 1066.746 531.664 L 1068.344 531.664 L 1068.344 530.067 L 1068.344 445.718 L 1068.344 444.121 L 1066.746 444.121 L 1049.137 444.121 L 1049.137 447.314 L 1065.149 447.314 L 1065.149 528.471 L 633.322 528.471 L 633.322 447.313 L 649.585 447.313 L 649.585 444.12 L 631.726 444.12 L 630.131 444.12 Z" style="fill: rgb(30, 30, 30);" transform="matrix(0.965926, -0.258819, 0.258819, 0.965926, -97.33871, 236.423459)"/>
  <path id="line73" d="M 854.756 290.624 L 854.756 293.817 L 888.678 293.817 L 888.678 290.624 L 854.756 290.624 Z" style="fill: rgb(30, 30, 30);" transform="matrix(0.965926, -0.258819, 0.258819, 0.965926, -45.929185, 235.57404)"/>
  <path id="line75" d="M 715.315 328.009 L 715.315 331.202 L 749.086 331.202 L 749.086 328.009 L 715.315 328.009 Z" style="fill: rgb(30, 30, 30);" transform="matrix(0.965926, -0.258819, 0.258819, 0.965926, -60.359008, 200.738199)"/>
  <path id="polyline77" d="M 571.804 226.439 L 571.804 228.034 L 571.804 312.388 L 571.804 313.984 L 573.399 313.984 L 591.257 313.984 L 591.257 310.791 L 574.995 310.791 L 574.995 229.631 L 1006.822 229.631 L 1006.822 310.791 L 990.809 310.791 L 990.809 313.984 L 1008.419 313.984 L 1010.016 313.984 L 1010.016 312.388 L 1010.016 228.034 L 1010.016 226.439 L 1008.419 226.439 L 573.399 226.439 L 571.804 226.439 Z" style="fill: rgb(30, 30, 30);" transform="matrix(0.965926, -0.258819, 0.258819, 0.965926, -42.986268, 213.909733)"/>
</svg>