<?xml version="1.0" encoding="UTF-8" standalone="no"?>
<!-- Generator: Adobe Illustrator 16.0.3, SVG Export Plug-In . SVG Version: 6.00 Build 0)  -->

<svg
   xmlns:dc="http://purl.org/dc/elements/1.1/"
   xmlns:cc="http://creativecommons.org/ns#"
   xmlns:rdf="http://www.w3.org/1999/02/22-rdf-syntax-ns#"
   xmlns:svg="http://www.w3.org/2000/svg"
   xmlns="http://www.w3.org/2000/svg"
   xmlns:sodipodi="http://sodipodi.sourceforge.net/DTD/sodipodi-0.dtd"
   xmlns:inkscape="http://www.inkscape.org/namespaces/inkscape"
   version="1.1"
   id="Ebene_1"
   x="0px"
   y="0px"
   width="566.929px"
   height="458.929px"
   viewBox="0 0 566.929 458.929"
   enable-background="new 0 0 566.929 458.929"
   xml:space="preserve"
   inkscape:version="0.91 r13725"
   sodipodi:docname="fba.svg"><metadata
     id="metadata33"><rdf:RDF><cc:Work
         rdf:about=""><dc:format>image/svg+xml</dc:format><dc:type
           rdf:resource="http://purl.org/dc/dcmitype/StillImage" /><dc:title></dc:title></cc:Work></rdf:RDF></metadata><defs
     id="defs31" /><sodipodi:namedview
     pagecolor="#ffffff"
     bordercolor="#666666"
     borderopacity="1"
     objecttolerance="10"
     gridtolerance="10"
     guidetolerance="10"
     inkscape:pageopacity="0"
     inkscape:pageshadow="2"
     inkscape:window-width="640"
     inkscape:window-height="480"
     id="namedview29"
     showgrid="false"
     inkscape:zoom="1.0160002"
     inkscape:cx="238.65473"
     inkscape:cy="188.61608"
     inkscape:current-layer="g3" /><g
     id="g3"><g
       id="g5"><path
         fill-rule="evenodd"
         clip-rule="evenodd"
         fill="#CF8A61"
         d="M564.898,182.695c0.103-1.35,0-2.745,0-3.875    c0.015-25.821,0.018-51.642-0.007-77.463c-0.001-1.341-0.074-2.729-0.417-4.015c-7.45-27.979-20.942-52.36-43.296-71.218    c-18.353-15.481-39.435-24.117-63.727-24.113C393.43,2.022,329.409,2.015,265.387,2.015c-86.168,0-172.335-0.001-258.502,0.01    c-1.591,0-3.182-0.08-4.898,0c0,19.744,0,39.258,0,58.69c1.204,0.469,2.251,0.942,3.338,1.29c7.92,2.53,15.849,5.035,23.776,7.545    c79.821,25.273,159.644,50.542,239.464,75.823c37.698,11.939,75.383,23.919,113.091,35.826c2.366,0.747,4.884,1.441,7.333,1.444    c57.348,0.081,114.696,0.064,172.045,0.052C562.162,182.695,563.549,182.799,564.898,182.695z M342.657,178.973    c-51.406-16.294-102.396-32.456-154.027-48.82c0,76.025,0,151.292,0,226.685c-22.218,11.208-44.116,22.253-65.864,33.224    c0,22.504,0,44.586,0,66.882c89.945,0,179.608,0,269.52,0c0-43.316,0-86.366,0-129.985c-16.6,0-32.95,0-49.629,0    C342.657,277.395,342.657,228.4,342.657,178.973z M360.105,196.69c0,38.089,0,75.92,0,114.012c68.267,0,136.274,0,204.543,0    c0-38.089,0-75.92,0-114.012C496.381,196.69,428.375,196.69,360.105,196.69z"
         id="path7"
         style="fill:#ffffff;fill-opacity:1" /></g><g
       id="g11"><path
         fill-rule="evenodd"
         clip-rule="evenodd"
         fill="#CF8A61"
         d="M564.898,182.695l-178.77-0.052L1.986,60.904    c0,0,0-39.136,0-58.88c1.717-0.08,177.233-0.01,263.401-0.01c64.021,0,128.043,0.007,192.064-0.003    c24.292-0.004,45.374,8.632,63.727,24.113c22.354,18.858,35.846,43.239,43.296,71.218c0.343,1.286,0.416,2.673,0.417,4.015    C564.916,127.179,564.898,182.695,564.898,182.695z"
         id="path13"
         style="fill:#ffffff;fill-opacity:1" /></g><g
       id="g17"><path
         fill-rule="evenodd"
         clip-rule="evenodd"
         fill="#CF8A61"
         d="M342.657,178.973c0,49.428,0,98.422,0,147.984    c16.679,0,33.029,0,49.629,0c0,43.619,0,86.669,0,129.985c-89.912,0-179.575,0-269.52,0c0-22.296,0-44.378,0-66.882    c21.748-10.971,43.646-22.016,65.864-33.224c0-75.393,0-150.66,0-226.685C240.261,146.517,291.25,162.678,342.657,178.973z"
         id="path19"
         style="fill:#ffffff;fill-opacity:1" /></g><g
       id="g23" /></g></svg>