<?xml version="1.0" encoding="utf-8"?>
<svg version="1.1" x="0px" y="0px" enable-background="new 0 0 539.992 50.788" id="svg2" xmlns="http://www.w3.org/2000/svg">
  <g id="g5">
    <g id="g7">
      <path id="path9" d="M 41.667,13.667 L 51.334,6.667 C 51.334,6.667 38.001,-1.332 23.334,11.334 C 23.334,11.334 18.001,18 28.001,22.667 C 28.001,22.667 42.001,28.667 34.668,32.667 C 34.668,32.667 23.335,42.668 12.001,31.334 L 0,40 C 0,40 15.333,54.001 36,45.334 C 36,45.334 54.667,40 52.667,24.667 C 52.667,24.667 53.333,18.667 41.667,13.667 z M 169.331,35.333 L 179.998,6 L 163.331,6 L 154.664,31.333 C 154.664,31.333 155.331,36.667 145.331,36.667 C 145.331,36.667 137.331,37.999 139.998,29.333 L 147.998,6 L 132.665,6 L 122.665,36.667 C 122.665,36.667 125.998,47.334 133.998,47.334 L 150.665,47.334 C 150.665,47.334 162.664,45.999 169.331,35.333 z M 160.662,48 L 168.662,48.666 L 197.995,18.666 L 206.662,47.333 L 222.662,47.333 L 209.996,0 L 160.662,48 z M 285.328,19.333 C 285.328,9.999 273.995,6 273.995,6 L 239.328,6 L 224.661,48 L 240.661,48 L 243.994,38.667 L 253.327,38.667 L 259.994,48.667 L 277.994,48.667 L 267.327,34.667 C 285.995,29.334 285.328,19.333 285.328,19.333 z M 263.327,27.334 L 247.994,27.334 L 251.994,16.001 L 266.661,16.001 C 270.661,16.668 271.328,21.334 271.328,21.334 C 267.327,28.001 263.327,27.334 263.327,27.334 z M 299.327,32 L 313.994,32 L 323.327,22 L 305.327,22 L 305.327,16.667 L 327.994,16.667 L 331.327,6.667 L 293.327,6.667 L 277.994,48.667 L 316.66,48.667 L 321.327,37.334 L 298.66,37.334 L 299.327,32 z M 487.326,18.002 L 492.659,6.668 L 452.659,6.668 L 437.992,49.335 L 455.325,49.335 L 460.658,34.002 L 473.991,34.002 L 483.991,24.002 L 464.66,24.002 L 466.66,18.002 L 487.326,18.002 L 487.326,18.002 z M 494.659,6.669 L 489.992,18.002 L 505.325,18.002 L 493.992,48.669 L 510.659,49.335 L 521.992,17.335 L 535.992,17.335 L 539.992,6.669 L 494.659,6.669 z M 363.333,16 L 373,9 C 373,9 359.667,1.001 345,13.667 C 345,13.667 339.667,20.333 349.667,25 C 349.667,25 363.667,31 356.334,35 C 356.334,35 345.001,45.001 333.667,33.667 L 321.667,42.333 C 321.667,42.333 337,56.334 357.667,47.667 C 357.667,47.667 376.334,42.333 374.334,27 C 374.333,27 375,21 363.333,16 z M 444.343,22.402 C 442.23,10.646 425.055,3.897 405.98,7.325 C 386.906,10.755 373.156,23.063 375.27,34.818 C 377.383,46.574 394.558,53.324 413.632,49.895 C 432.707,46.467 446.456,34.157 444.343,22.402 z M 413.33,39.911 C 402.635,42.336 392.759,38.985 391.272,32.428 C 389.786,25.871 397.251,18.589 407.946,16.164 C 418.642,13.739 428.517,17.09 430.004,23.646 C 431.49,30.204 424.025,37.486 413.33,39.911 z M 124.343,19.735 C 122.23,7.979 105.055,1.23 85.98,4.658 C 66.906,8.088 53.156,20.396 55.27,32.151 C 57.383,43.907 74.558,50.657 93.632,47.228 C 112.707,43.8 126.456,31.49 124.343,19.735 z M 93.33,37.244 C 82.635,39.669 72.759,36.318 71.272,29.761 C 69.786,23.204 77.251,15.922 87.946,13.497 C 98.642,11.072 108.517,14.423 110.004,20.979 C 111.49,27.537 104.025,34.819 93.33,37.244 z" style="fill: rgb(255, 255, 255);"/>
    </g>
  </g>
  <polygon id="polygon11" points="114.334,47.836 79.001,47.836 108.334,40.503 122.334,40.503 114.334,47.836 " style="fill: rgb(255, 255, 255);"/>
</svg>