<?xml version="1.0" encoding="utf-8"?>
<svg version="1.1" id="TEXT" x="0px" y="0px" enable-background="new 0 -0.001 566.929 157.78" xmlns="http://www.w3.org/2000/svg">
  <polygon points="491.191,27.662 536.777,27.946 557.949,5.927 479.951,5.642 406.662,79.217 396.4,79.784   396.686,9.001 355.481,51.055 345.625,52.224 345.625,9.374 261.264,92.842 250.775,93.958 251.667,8.077 177.937,82.94   168.255,82.987 167.12,11.089 127.342,51.15 116.278,51.717 116.697,8.939 11.591,114.895 46.209,114.328 91.598,70.276   100.303,70.276 99.883,114.54 136.035,77.543 144.679,77.543 144.679,115.23 104.892,154.73 143.019,154.165 218.036,78.299   228.14,78.299 228.14,115.57 274.897,115.854 320.115,70.353 328.843,69.786 328.708,112.799 364.839,76.667 373.375,76.667   373.941,113.102 373.203,114.998 482.378,114.998 503.279,93.815 435.398,92.661 434.781,82.809 445.357,71.67 470.968,71.667   493.216,49.133 479.769,48.565 479.769,39.082 " id="polygon8" style="fill-opacity: 1; fill: rgb(255, 255, 255);"/>
</svg>