<?xml version="1.0" encoding="utf-8"?>
<svg version="1.2" baseProfile="tiny" id="Layer_3" x="0px" y="0px" preserveAspectRatio="none" xmlns="http://www.w3.org/2000/svg">
  <path id="line3" d="M 539.57 219.931 L 539.57 221.214 L 630.538 221.214 L 630.538 219.931 L 539.57 219.931 Z" style="fill: rgb(30, 30, 30);" transform="matrix(0.965926, -0.258819, 0.258819, 0.965926, -37.153144, 158.939071)"/>
  <path id="path5" d="M 529.961 262.061 L 529.961 433.241 C 529.961 451.959 545.134 467.153 563.852 467.153 L 683.322 467.153 C 702.037 467.153 717.232 451.96 717.232 433.241 L 717.232 262.164 L 715.949 262.164 L 715.949 433.241 C 715.949 451.267 701.345 465.87 683.322 465.87 L 563.852 465.87 C 545.826 465.87 531.243 451.267 531.243 433.245 L 531.243 262.064 L 529.96 262.064 L 529.961 262.061 Z" style="fill: rgb(30, 30, 30);" transform="matrix(0.965926, -0.258819, 0.258819, 0.965926, -73.118755, 173.822343)"/>
  <path id="path7" d="M 562.279 292.24 C 553.309 292.24 546.025 299.524 546.025 308.495 L 546.025 436.802 C 546.025 445.773 553.309 453.056 562.279 453.056 L 689.226 453.056 C 697.977 453.056 705.075 446.111 705.42 437.443 L 705.48 437.443 L 705.48 436.802 L 705.48 308.495 C 705.48 299.524 698.195 292.24 689.226 292.24 L 562.279 292.24 L 562.279 292.24 Z M 562.279 293.523 L 689.227 293.523 C 697.505 293.523 704.197 300.217 704.197 308.495 L 704.197 436.161 L 704.197 436.802 C 704.197 445.081 697.504 451.774 689.226 451.774 L 562.279 451.774 C 554.002 451.774 547.307 445.079 547.307 436.802 L 547.307 308.495 C 547.307 300.217 554.002 293.523 562.279 293.523 Z" style="fill: rgb(30, 30, 30);" transform="matrix(0.965926, -0.258819, 0.258819, 0.965926, -75.126402, 174.654353)"/>
  <path id="circle9" d="M 535.325 231.359 C 515.296 231.359 499.049 247.606 499.049 267.634 C 499.049 287.663 515.296 303.91 535.326 303.91 C 555.356 303.91 571.602 287.663 571.602 267.634 C 571.602 247.605 555.356 231.359 535.325 231.359 L 535.325 231.359 Z M 535.325 232.642 C 554.66 232.642 570.318 248.299 570.318 267.634 C 570.318 286.97 554.66 302.628 535.325 302.628 C 515.989 302.628 500.332 286.97 500.332 267.634 C 500.332 248.298 515.989 232.642 535.325 232.642 Z" style="fill: rgb(30, 30, 30);" transform="matrix(0.965926, -0.258819, 0.258819, 0.965926, -51.028109, 147.671779)"/>
  <path id="circle11" d="M 651.559 200.214 C 631.53 200.214 615.283 216.461 615.283 236.489 C 615.283 256.519 631.53 272.766 651.559 272.766 C 671.586 272.766 687.834 256.519 687.834 236.489 C 687.834 216.46 671.586 200.214 651.559 200.214 Z M 651.559 201.497 C 670.894 201.497 686.552 217.155 686.552 236.489 C 686.552 255.825 670.894 271.483 651.559 271.483 C 632.223 271.483 616.566 255.825 616.566 236.489 C 616.566 217.154 632.223 201.497 651.559 201.497 Z" style="fill: rgb(30, 30, 30);" transform="matrix(0.965926, -0.258819, 0.258819, 0.965926, -39.006798, 176.693949)"/>
  <path id="path13" d="M 525.871 248.743 L 525.871 434.609 C 525.871 454.639 542.118 470.885 562.146 470.885 L 682.477 470.885 C 702.503 470.885 718.751 454.639 718.751 434.609 L 718.751 249.743 L 717.47 249.743 L 717.47 434.609 C 717.47 453.945 701.81 469.603 682.477 469.603 L 562.146 469.603 C 542.813 469.603 527.155 453.948 527.155 434.613 L 527.155 248.744 L 525.872 248.744 L 525.871 248.743 Z" style="fill: rgb(30, 30, 30);" transform="matrix(0.965926, -0.258819, 0.258819, 0.965926, -71.921955, 173.326188)"/>
  <path id="circle15" d="M 629.18 335.924 C 601.839 335.924 579.654 358.107 579.654 385.448 C 579.654 412.787 601.839 434.972 629.18 434.972 C 656.519 434.972 678.683 412.787 678.683 385.448 C 678.683 358.107 656.519 335.924 629.18 335.924 Z M 629.18 337.206 C 655.825 337.206 677.4 358.801 677.4 385.448 C 677.4 412.095 655.825 433.688 629.18 433.688 C 602.531 433.688 580.937 412.095 580.937 385.448 C 580.937 358.801 602.531 337.206 629.18 337.206 Z" style="fill: rgb(30, 30, 30);" transform="matrix(0.965926, -0.258819, 0.258819, 0.965926, -78.322893, 175.974611)"/>
  <path id="circle17" d="M 629.18 349.934 C 609.572 349.934 593.665 365.84 593.665 385.45 C 593.665 405.056 609.572 420.964 629.18 420.964 C 648.786 420.964 664.694 405.057 664.694 385.45 C 664.693 365.84 648.787 349.934 629.18 349.934 Z M 629.18 351.216 C 648.094 351.216 663.411 366.535 663.411 385.45 C 663.411 404.364 648.094 419.681 629.18 419.681 C 610.265 419.681 594.948 404.364 594.948 385.45 C 594.947 366.535 610.264 351.216 629.18 351.216 Z" style="fill: rgb(30, 30, 30);" transform="matrix(0.965926, -0.258818, 0.258818, 0.965926, -78.322549, 175.976742)"/>
  <g id="g19" transform="matrix(0.802286, -0.214972, 0.214972, 0.802286, 338.445709, 255.860428)">
    <path d="M220.186,198.782c-3.588,0-6.495-2.908-6.495-6.494l0,0l-0.001-42.093c0.001-3.586,2.908-6.492,6.496-6.494&#10;&#9;&#9;l0,0h42.09c3.585,0.002,6.492,2.909,6.494,6.494l0,0c-0.019,3.645-2.441,5.818-2.475,5.861l0,0L226.8,195.551h0.28l-1.652,1.368&#10;&#9;&#9;c-1.083,0.938-2.217,1.866-5.018,1.866l0,0C220.336,198.785,220.26,198.783,220.186,198.782L220.186,198.782z M215.234,150.195&#10;&#9;&#9;v42.093c0.004,2.734,2.216,4.945,4.951,4.951l0,0c2.732-0.052,3.012-0.524,4.228-1.487l0,0l40.817-40.815&#10;&#9;&#9;c-0.003-0.002,0.1-0.089,0.288-0.305l0,0c0.188-0.216,0.442-0.541,0.696-0.956l0,0c0.509-0.834,1.013-2.025,1.011-3.481l0,0&#10;&#9;&#9;c-0.005-2.731-2.217-4.943-4.949-4.949l0,0h-42.09C217.451,145.252,215.239,147.462,215.234,150.195L215.234,150.195z&#10;&#9;&#9; M225.48,196.87l-0.545-0.547L225.48,196.87L225.48,196.87z" style="fill: rgb(30, 30, 30);"/>
    <path d="M370.031,196.919l0.493-0.596l0.545-0.547l-0.545,0.547L370.031,196.919L370,196.892l-40.811-40.812&#10;&#9;&#9;c-0.06-0.065-2.482-2.239-2.501-5.882l0,0c0-3.587,2.906-6.494,6.495-6.496l0,0h42.093c3.584,0.002,6.49,2.907,6.49,6.496l0,0&#10;&#9;&#9;l0.002,42.093c-0.002,3.585-2.908,6.492-6.492,6.492l0,0c-0.078,0.001-0.15,0.003-0.222,0.003l0,0&#10;&#9;&#9;C372.251,198.785,371.112,197.858,370.031,196.919L370.031,196.919z M375.276,197.237c2.73-0.004,4.941-2.215,4.948-4.947l0,0&#10;&#9;&#9;l-0.003-42.093c-0.004-2.735-2.213-4.946-4.945-4.951l0,0h-42.093c-2.736,0.005-4.945,2.216-4.949,4.951l0,0&#10;&#9;&#9;c-0.008,2.174,1.138,3.783,1.706,4.434l0,0c0.187,0.216,0.286,0.306,0.315,0.331l0,0l40.789,40.791&#10;&#9;&#9;C372.261,196.715,372.54,197.188,375.276,197.237L375.276,197.237z" style="fill: rgb(30, 30, 30);"/>
  </g>
  <path id="circle25" d="M 535.324 241.018 C 520.637 241.018 508.728 252.946 508.728 267.632 C 508.728 282.32 520.636 294.247 535.324 294.247 C 550.012 294.247 561.94 282.321 561.94 267.632 C 561.94 252.945 550.012 241.018 535.324 241.018 Z M 535.324 242.299 C 549.318 242.299 560.657 253.639 560.657 267.632 C 560.657 281.627 549.318 292.965 535.324 292.965 C 521.33 292.965 510.012 281.627 510.012 267.632 C 510.012 253.639 521.329 242.299 535.324 242.299 Z" style="fill: rgb(30, 30, 30);" transform="matrix(0.965926, -0.258819, 0.258819, 0.965926, -51.027329, 147.673993)"/>
  <path id="circle27" d="M 651.559 209.877 C 636.871 209.877 624.942 221.805 624.942 236.492 C 624.942 251.181 636.871 263.108 651.559 263.108 C 666.247 263.108 678.155 251.181 678.155 236.492 C 678.155 221.804 666.248 209.877 651.559 209.877 Z M 651.559 211.159 C 665.554 211.159 676.871 222.499 676.871 236.492 C 676.871 250.486 665.554 261.825 651.559 261.825 C 637.564 261.825 626.226 250.486 626.226 236.492 C 626.226 222.499 637.564 211.159 651.559 211.159 Z" style="fill: rgb(30, 30, 30);" transform="matrix(0.965926, -0.258819, 0.258819, 0.965926, -39.007788, 176.69146)"/>
  <path id="line29" d="M 525.201 217.329 L 525.201 218.612 L 640.944 218.612 L 640.944 217.329 L 525.201 217.329 Z" style="fill: rgb(30, 30, 30);" transform="matrix(0.965926, -0.258819, 0.258819, 0.965926, -36.547204, 158.337437)"/>
  <path id="rect31" d="M 572.195 195.884 L 572.195 196.526 L 572.195 201.056 L 572.195 201.696 L 572.836 201.696 L 585.623 201.696 L 586.264 201.696 L 586.264 201.056 L 586.264 196.526 L 586.264 195.884 L 585.623 195.884 L 572.836 195.884 L 572.195 195.884 Z M 573.477 197.167 L 584.981 197.167 L 584.981 200.414 L 573.477 200.414 L 573.477 197.167 Z" style="fill: rgb(30, 30, 30);" transform="matrix(0.965926, -0.258819, 0.258819, 0.965926, -31.713865, 156.689142)"/>
  <path id="rect33" d="M 574.044 204.054 L 574.044 204.695 L 574.044 209.225 L 574.044 209.866 L 574.685 209.866 L 588.153 209.866 L 588.794 209.866 L 588.794 209.225 L 588.794 204.695 L 588.794 204.054 L 588.153 204.054 L 574.685 204.054 L 574.044 204.054 Z M 575.327 205.336 L 587.513 205.336 L 587.513 208.584 L 575.327 208.584 L 575.327 205.336 Z" style="fill: rgb(30, 30, 30);" transform="matrix(0.965926, -0.258819, 0.258819, 0.965926, -33.753827, 157.534419)"/>
  <path id="polyline35" d="M 575.81 212.236 L 575.81 212.878 L 575.81 217.407 L 577.093 217.407 L 577.093 213.519 L 589.94 213.519 L 589.94 217.407 L 591.223 217.407 L 591.223 212.878 L 591.223 212.237 L 590.582 212.237 L 576.452 212.237 L 575.81 212.237 Z" style="fill: rgb(30, 30, 30);" transform="matrix(0.965926, -0.258819, 0.258819, 0.965926, -35.717055, 158.345055)"/>
  <g id="g37" transform="matrix(0.802286, -0.214972, 0.214972, 0.802286, 338.445709, 255.860428)">
    <polygon points="291.881,16.031 291.881,11.4 293.425,11.4 293.425,16.031 291.881,16.031 &#9;" style="fill: rgb(30, 30, 30);"/>
    <polygon points="302.164,15.895 302.164,11.4 303.71,11.4 303.71,15.895 302.164,15.895 &#9;" style="fill: rgb(30, 30, 30);"/>
  </g>
  <g id="g43" transform="matrix(0.802286, -0.214972, 0.214972, 0.802286, 338.445709, 255.860428)">
    <polygon points="291.881,26.35 291.881,21.719 293.425,21.719 293.425,26.35 291.881,26.35 &#9;" style="fill: rgb(30, 30, 30);"/>
    <polygon points="302.164,26.215 302.164,21.718 303.71,21.718 303.71,26.215 302.164,26.215 &#9;" style="fill: rgb(30, 30, 30);"/>
  </g>
</svg>