<?xml version="1.0" encoding="utf-8"?>
<svg version="1.2" baseProfile="tiny" id="Layer_3" x="0px" y="0px" viewBox="0 0 1280 720" preserveAspectRatio="none" xmlns="http://www.w3.org/2000/svg">
  <path id="line3" d="M 549.498 225.616 L 549.498 227.16 L 659.02 227.16 L 659.02 225.616 L 549.498 225.616 Z" style="fill: rgb(30, 30, 30);" transform="matrix(0.965926, -0.258819, 0.258819, 0.965926, -38.003892, 164.107665)"/>
  <path id="path5" d="M 537.929 276.338 L 537.929 482.433 C 537.929 504.97 556.197 523.262 578.733 523.262 L 722.57 523.262 C 745.103 523.262 763.397 504.97 763.397 482.433 L 763.397 276.462 L 761.852 276.462 L 761.852 482.433 C 761.852 504.136 744.269 521.718 722.57 521.718 L 578.733 521.718 C 557.03 521.718 539.472 504.136 539.472 482.438 L 539.472 276.342 L 537.928 276.342 L 537.929 276.338 Z" style="fill: rgb(30, 30, 30);" transform="matrix(0.965926, -0.258819, 0.258819, 0.965926, -81.305083, 182.02672)"/>
  <path id="path7" d="M 576.839 312.673 C 566.039 312.673 557.269 321.443 557.269 332.243 L 557.269 486.721 C 557.269 497.522 566.039 506.29 576.839 506.29 L 729.679 506.29 C 740.215 506.29 748.76 497.928 749.176 487.492 L 749.248 487.492 L 749.248 486.721 L 749.248 332.243 C 749.248 321.443 740.477 312.673 729.678 312.673 L 576.839 312.673 L 576.839 312.673 Z M 576.839 314.218 L 729.68 314.218 C 739.646 314.218 747.703 322.277 747.703 332.243 L 747.703 485.949 L 747.703 486.721 C 747.703 496.688 739.645 504.746 729.679 504.746 L 576.839 504.746 C 566.873 504.746 558.813 496.686 558.813 486.721 L 558.813 332.243 C 558.813 322.277 566.873 314.218 576.839 314.218 Z" style="fill: rgb(30, 30, 30);" transform="matrix(0.965926, -0.258819, 0.258819, 0.965926, -83.722415, 183.02862)"/>
  <path id="circle9" d="M 544.387 239.374 C 520.273 239.374 500.712 258.935 500.712 283.048 C 500.712 307.163 520.273 326.724 544.388 326.724 C 568.503 326.724 588.063 307.163 588.063 283.048 C 588.063 258.934 568.503 239.374 544.387 239.374 L 544.387 239.374 Z M 544.387 240.919 C 567.666 240.919 586.517 259.77 586.517 283.048 C 586.517 306.328 567.666 325.18 544.387 325.18 C 521.107 325.18 502.257 306.328 502.257 283.048 C 502.257 259.769 521.107 240.919 544.387 240.919 Z" style="fill: rgb(30, 30, 30);" transform="matrix(0.965926, -0.258819, 0.258819, 0.965926, -54.708909, 150.542454)"/>
  <path id="circle11" d="M 684.329 201.877 C 660.215 201.877 640.654 221.438 640.654 245.551 C 640.654 269.666 660.215 289.227 684.329 289.227 C 708.441 289.227 728.003 269.666 728.003 245.551 C 728.003 221.437 708.441 201.877 684.329 201.877 Z M 684.329 203.422 C 707.608 203.422 726.459 222.273 726.459 245.551 C 726.459 268.831 707.608 287.683 684.329 287.683 C 661.049 287.683 642.198 268.831 642.198 245.551 C 642.198 222.272 661.049 203.422 684.329 203.422 Z" style="fill: rgb(30, 30, 30);" transform="matrix(0.965926, -0.258819, 0.258819, 0.965926, -40.235589, 185.48404)"/>
  <path id="path13" d="M 533.004 260.304 L 533.004 484.081 C 533.004 508.196 552.565 527.756 576.679 527.756 L 721.553 527.756 C 745.664 527.756 765.226 508.196 765.226 484.081 L 765.226 261.508 L 763.683 261.508 L 763.683 484.081 C 763.683 507.361 744.829 526.212 721.553 526.212 L 576.679 526.212 C 553.402 526.212 534.55 507.364 534.55 484.085 L 534.55 260.305 L 533.006 260.305 L 533.004 260.304 Z" style="fill: rgb(30, 30, 30);" transform="matrix(0.965926, -0.258819, 0.258819, 0.965926, -79.864443, 181.429703)"/>
  <path id="circle15" d="M 657.385 365.267 C 624.468 365.267 597.758 391.975 597.758 424.892 C 597.758 457.807 624.467 484.517 657.385 484.517 C 690.3 484.517 716.985 457.807 716.985 424.892 C 716.985 391.975 690.3 365.267 657.385 365.267 Z M 657.385 366.811 C 689.465 366.811 715.44 392.81 715.44 424.892 C 715.44 456.974 689.465 482.972 657.385 482.972 C 625.301 482.972 599.302 456.974 599.302 424.892 C 599.302 392.81 625.301 366.811 657.385 366.811 Z" style="fill: rgb(30, 30, 30);" transform="matrix(0.965926, -0.258819, 0.258819, 0.965926, -87.570801, 184.618236)"/>
  <path id="circle17" d="M 657.386 382.134 C 633.778 382.134 614.626 401.285 614.626 424.894 C 614.626 448.5 633.778 467.652 657.386 467.652 C 680.991 467.652 700.143 448.501 700.143 424.894 C 700.142 401.285 680.991 382.134 657.386 382.134 Z M 657.386 383.678 C 680.157 383.678 698.599 402.121 698.599 424.894 C 698.599 447.666 680.157 466.108 657.386 466.108 C 634.612 466.108 616.171 447.666 616.171 424.894 C 616.17 402.121 634.611 383.678 657.386 383.678 Z" style="fill: rgb(30, 30, 30);" transform="matrix(0.965926, -0.258818, 0.258818, 0.965926, -87.57043, 184.621086)"/>
  <g id="g19" transform="matrix(0.965926, -0.258819, 0.258819, 0.965926, 307.3508, 268.873352)">
    <path d="M220.186,198.782c-3.588,0-6.495-2.908-6.495-6.494l0,0l-0.001-42.093c0.001-3.586,2.908-6.492,6.496-6.494&#10;&#9;&#9;l0,0h42.09c3.585,0.002,6.492,2.909,6.494,6.494l0,0c-0.019,3.645-2.441,5.818-2.475,5.861l0,0L226.8,195.551h0.28l-1.652,1.368&#10;&#9;&#9;c-1.083,0.938-2.217,1.866-5.018,1.866l0,0C220.336,198.785,220.26,198.783,220.186,198.782L220.186,198.782z M215.234,150.195&#10;&#9;&#9;v42.093c0.004,2.734,2.216,4.945,4.951,4.951l0,0c2.732-0.052,3.012-0.524,4.228-1.487l0,0l40.817-40.815&#10;&#9;&#9;c-0.003-0.002,0.1-0.089,0.288-0.305l0,0c0.188-0.216,0.442-0.541,0.696-0.956l0,0c0.509-0.834,1.013-2.025,1.011-3.481l0,0&#10;&#9;&#9;c-0.005-2.731-2.217-4.943-4.949-4.949l0,0h-42.09C217.451,145.252,215.239,147.462,215.234,150.195L215.234,150.195z&#10;&#9;&#9; M225.48,196.87l-0.545-0.547L225.48,196.87L225.48,196.87z" style="fill: rgb(30, 30, 30);"/>
    <path d="M370.031,196.919l0.493-0.596l0.545-0.547l-0.545,0.547L370.031,196.919L370,196.892l-40.811-40.812&#10;&#9;&#9;c-0.06-0.065-2.482-2.239-2.501-5.882l0,0c0-3.587,2.906-6.494,6.495-6.496l0,0h42.093c3.584,0.002,6.49,2.907,6.49,6.496l0,0&#10;&#9;&#9;l0.002,42.093c-0.002,3.585-2.908,6.492-6.492,6.492l0,0c-0.078,0.001-0.15,0.003-0.222,0.003l0,0&#10;&#9;&#9;C372.251,198.785,371.112,197.858,370.031,196.919L370.031,196.919z M375.276,197.237c2.73-0.004,4.941-2.215,4.948-4.947l0,0&#10;&#9;&#9;l-0.003-42.093c-0.004-2.735-2.213-4.946-4.945-4.951l0,0h-42.093c-2.736,0.005-4.945,2.216-4.949,4.951l0,0&#10;&#9;&#9;c-0.008,2.174,1.138,3.783,1.706,4.434l0,0c0.187,0.216,0.286,0.306,0.315,0.331l0,0l40.789,40.791&#10;&#9;&#9;C372.261,196.715,372.54,197.188,375.276,197.237L375.276,197.237z" style="fill: rgb(30, 30, 30);"/>
  </g>
  <path id="circle25" d="M 544.386 251.003 C 526.703 251.003 512.365 265.364 512.365 283.046 C 512.365 300.73 526.702 315.09 544.386 315.09 C 562.07 315.09 576.43 300.731 576.43 283.046 C 576.43 265.363 562.07 251.003 544.386 251.003 Z M 544.386 252.546 C 561.234 252.546 574.886 266.199 574.886 283.046 C 574.886 299.895 561.234 313.546 544.386 313.546 C 527.537 313.546 513.911 299.895 513.911 283.046 C 513.911 266.199 527.536 252.546 544.386 252.546 Z" style="fill: rgb(30, 30, 30);" transform="matrix(0.965926, -0.258819, 0.258819, 0.965926, -54.707935, 150.545031)"/>
  <path id="circle27" d="M 684.329 213.511 C 666.645 213.511 652.283 227.872 652.283 245.554 C 652.283 263.239 666.645 277.599 684.329 277.599 C 702.013 277.599 716.35 263.239 716.35 245.554 C 716.35 227.871 702.014 213.511 684.329 213.511 Z M 684.329 215.054 C 701.178 215.054 714.804 228.707 714.804 245.554 C 714.804 262.403 701.178 276.054 684.329 276.054 C 667.479 276.054 653.829 262.403 653.829 245.554 C 653.829 228.707 667.479 215.054 684.329 215.054 Z" style="fill: rgb(30, 30, 30);" transform="matrix(0.965926, -0.258819, 0.258819, 0.965926, -40.23678, 185.481151)"/>
  <path id="line29" d="M 532.198 222.483 L 532.198 224.027 L 671.549 224.027 L 671.549 222.483 L 532.198 222.483 Z" style="fill: rgb(30, 30, 30);" transform="matrix(0.965926, -0.258819, 0.258819, 0.965926, -37.274317, 163.383692)"/>
  <path id="rect31" d="M 588.777 196.664 L 588.777 197.436 L 588.777 202.89 L 588.777 203.661 L 589.549 203.661 L 604.944 203.661 L 605.716 203.661 L 605.716 202.89 L 605.716 197.436 L 605.716 196.664 L 604.944 196.664 L 589.549 196.664 L 588.777 196.664 Z M 590.32 198.208 L 604.171 198.208 L 604.171 202.117 L 590.32 202.117 L 590.32 198.208 Z" style="fill: rgb(30, 30, 30);" transform="matrix(0.965926, -0.258819, 0.258819, 0.965926, -31.455188, 161.399144)"/>
  <path id="rect33" d="M 591.003 206.5 L 591.003 207.272 L 591.003 212.726 L 591.003 213.497 L 591.775 213.497 L 607.99 213.497 L 608.762 213.497 L 608.762 212.726 L 608.762 207.272 L 608.762 206.5 L 607.99 206.5 L 591.775 206.5 L 591.003 206.5 Z M 592.548 208.044 L 607.219 208.044 L 607.219 211.954 L 592.548 211.954 L 592.548 208.044 Z" style="fill: rgb(30, 30, 30);" transform="matrix(0.965926, -0.258819, 0.258819, 0.965926, -33.911107, 162.416475)"/>
  <path id="polyline35" d="M 593.129 216.351 L 593.129 217.124 L 593.129 222.577 L 594.674 222.577 L 594.674 217.896 L 610.141 217.896 L 610.141 222.577 L 611.686 222.577 L 611.686 217.124 L 611.686 216.352 L 610.914 216.352 L 593.902 216.352 L 593.129 216.352 Z" style="fill: rgb(30, 30, 30);" transform="matrix(0.965926, -0.258819, 0.258819, 0.965926, -36.274937, 163.392702)"/>
  <g id="g37" transform="matrix(0.965926, -0.258819, 0.258819, 0.965926, 307.3508, 268.873352)">
    <polygon points="291.881,16.031 291.881,11.4 293.425,11.4 293.425,16.031 291.881,16.031 &#9;" style="fill: rgb(30, 30, 30);"/>
    <polygon points="302.164,15.895 302.164,11.4 303.71,11.4 303.71,15.895 302.164,15.895 &#9;" style="fill: rgb(30, 30, 30);"/>
  </g>
  <g id="g43" transform="matrix(0.965926, -0.258819, 0.258819, 0.965926, 307.3508, 268.873352)">
    <polygon points="291.881,26.35 291.881,21.719 293.425,21.719 293.425,26.35 291.881,26.35 &#9;" style="fill: rgb(30, 30, 30);"/>
    <polygon points="302.164,26.215 302.164,21.718 303.71,21.718 303.71,26.215 302.164,26.215 &#9;" style="fill: rgb(30, 30, 30);"/>
  </g>
</svg>