<?xml version="1.0" encoding="utf-8"?>
<svg id="Ebene_1" enable-background="new 0 0 566.929 128.211" version="1.1" y="0px" x="0px" xmlns="http://www.w3.org/2000/svg">
  <g id="Layer_1" fill="#fff">
    <g id="g5" fill="#fff">
      <g id="g7">
        <g id="g9" fill="#fff">
          <g id="g11" enable-background="new    " fill="#fff">
            <g id="g13" enable-background="new    ">
              <g id="g15" fill="#fff">
                <g id="g17" fill="#fff">
                  <g id="g19" fill="#fff">
                    <path id="SVGID_1_" d="m252.63 61.838l3.529 5.3c-0.273-0.412-0.726-0.676-1.179-0.676-0.478 0-0.955 0.295-1.221 1.027l-3.529-5.299c0.267-0.732 0.743-1.029 1.222-1.029 0.45 0 0.9 0.266 1.18 0.677z"/>
                  </g>
                </g>
              </g>
            </g>
            <g id="g22" enable-background="new    ">
              <g id="g24" fill="#fff">
                <g id="g26" fill="#fff">
                  <g id="g28" fill="#fff">
                    <path id="SVGID_3_" d="m311.43 60.064l3.53 5.3c-0.172-0.258-0.422-0.391-0.687-0.391-0.353 0-0.724 0.236-0.964 0.721l-3.527-5.299c0.239-0.483 0.613-0.72 0.965-0.72 0.27-0.001 0.52 0.132 0.69 0.389z"/>
                  </g>
                </g>
              </g>
            </g>
            <g id="g31">
              <path id="path33" d="m314.47 41.153l29.807 0.189c0.568 0 4.659 0.663-0.453 1.999-4.084 1.063-7.429 0.661-8.764 5.979l-16.086 64.575c-1.336 5.768 3.152 10.742 8.955 12.301 1.313 0.32 1.393 1.714-0.157 1.799l-19.586-0.723-23.796 0.804c-1.728 0-1.795-1.794 0.085-2.125 5.562-0.567 10.478-5.151 11.548-8.913l15.643-56.077c0.002-0.846-0.435-1.287-0.914-1.287-0.35 0-0.724 0.236-0.965 0.719l-44.044 63.917c-1.22 1.967-3.14 3.271-4.838 3.271-1.835 0-3.412-1.521-3.578-5.375l-4.433-59.588c-0.048-0.826-0.744-1.454-1.438-1.454-0.478 0-0.956 0.297-1.222 1.029l-15.107 47.273c-1.237 3.592-1.325 7.104 0.147 9.645 1.463 2.611 5.229 5.803 9.64 6.701 1.714 0.412 1.628 2.125-0.004 2.209l-15.824-0.662-13.293 0.498c-1.561-0.084-1.393-1.631 0.004-1.883 4.578-0.979 9.826-5.637 12.205-12.266l19.571-62.897c0.821-2.376-0.476-5.236-2.852-5.804l-6.055-1.229c-1.063-0.082-1.215-1.632 0.002-1.632l34.736-0.282 3.482 54.755 2.548-3.099 33.147-49.173c0.38-0.676 1.37-2.225 1.87-3.206z"/>
            </g>
          </g>
        </g>
      </g>
      <g id="g35">
        <g id="g37" fill="#fff">
          <g id="g39" enable-background="new    " fill="#fff">
            <g id="g41" fill="#fff">
              <path id="path43" d="m359.42 40.928l40.013 0.331c1.882 0 2.765 3.332-1 3.664-4.021 0.354-8.226 3.215-9.214 6.641l-18.747 64.8c-0.905 3.439 1.593 9.183 8.05 9.669 1.063 0.247 1.061 1.877 0.079 1.877l-23.63-0.906-22.697 0.685c-1.232 0-0.896-1.629 0.154-1.795 3.111-0.567 12.154-4.076 13.88-9.633l20.901-64.692c1.309-4.656-3.016-6.949-7.922-8.095-1.05-0.159-0.83-2.452 0.14-2.535z"/>
            </g>
          </g>
        </g>
      </g>
      <g id="g45">
        <g id="g47" fill="#fff">
          <g id="g49" enable-background="new    " fill="#fff">
            <g id="g51" fill="#fff">
              <path id="path53" d="m464.13 36.898c4.105 0 8.133 0.34 12.004 1.062 2.461 0.496 5.475 1.62 4.738 3.746l-5.906 15.057c-0.467 1.534-1.244 2.462-2.031 2.462-1.094 0-2.207-1.792-2.551-6.244-0.195-2.436 0.197-11.205-3.146-11.393-0.85-0.046-1.695-0.067-2.543-0.067-5.363 0-10.688 0.885-15.43 2.396-18.068 5.767-29.525 15.623-37.079 32.453-7.386 16.191-3.739 33.693 1.478 39.662 3.557 4.066 11.865 6.874 18.252 6.874 3.75 0 6.836-0.97 7.904-3.224 3.457-8.307 5.133-18.494 4.809-23.151 0.014-5.647-2.201-6.086-6.41-6.866-2.951-0.313-3.896-2.227 1.615-2.227 0.293 0 0.604 0.006 0.936 0.019 1.77-0.011 3.492-0.017 5.188-0.017 3.881 0 7.602 0.021 11.299 0.039 3.473 0.018 6.924 0.035 10.473 0.035 3.246 0 6.576-0.017 10.072-0.06 0.98 0.483 0.896 0.897-0.088 1.384-5.973 0.897-8.352 2.043-8.924 4.254-2.309 7.85-4.383 16.438-8.123 24.488-1.33 2.883-7.604 5.626-9.648 6.204-6.354 2.263-16.916 4.063-26.975 4.063-8.072 0-15.821-1.16-20.812-4.183-18.713-11.438-22.079-33.127-14.438-47.428 11.33-21.272 45.47-39.334 75.34-39.334z"/>
            </g>
          </g>
        </g>
      </g>
      <g id="g55" opacity=".78" enable-background="new    ">
        <path id="path57" d="m558.18 127.46v-4.979h-1.861v-0.667h4.477v0.667h-1.867v4.979h-0.75z"/>
        <path id="path59" d="m561.54 127.46v-5.646h1.125l1.338 4c0.123 0.371 0.213 0.65 0.271 0.836 0.063-0.206 0.164-0.508 0.299-0.906l1.352-3.93h1.006v5.646h-0.719v-4.727l-1.643 4.727h-0.674l-1.633-4.808v4.808h-0.73z"/>
      </g>
      <g id="Tick">
        <g id="g62">
          <polygon id="polygon79" points="28.491 59.393 52.378 59.393 97.306 126.46 73.637 126.46"/>
          <polygon id="polygon104" points="158.26 0.001 181.93 0.001 97.553 126.46 74.98 126.46"/>
        </g>
        <g id="g106">
          <polygon id="polygon123" points="0 59.393 23.889 59.393 68.816 126.46 45.147 126.46"/>
          <polygon id="polygon148" points="129.77 0 153.44 0 69.063 126.46 46.489 126.46"/>
        </g>
      </g>
      <g id="g150">
        <path id="path152" d="m154.31 97.063l-11.644 16.51c-3.452 5.4 3.078 11.04 10.279 12.354 0.66 0.512 0.548 2.163-0.415 2.163-0.105 0-0.219-0.02-0.345-0.062-0.144-0.063-2.86-1.195-9.034-1.772-1.652-0.157-4.623-0.663-8.245-0.663-1.248 0-2.571 0.061-3.947 0.213l-13.024 1.834c-1.232-0.082-1.229-1.55 0.002-1.881 6.293-0.814 13.835-5.482 18.259-11.771l52.979-73.901c0.875-1.269 2.745-2.007 4.565-2.007 2.279 0 4.474 1.158 4.517 3.887l1.745 73.983c0.566 6.205 4.724 8.829 9.962 10.294 0.732 0.495 0.411 1.477-0.086 1.645-0.34-0.007-6.801-0.106-14.522-1.254-1.807-0.267-3.22-0.421-4.946-0.421-1.493 0-3.221 0.116-5.64 0.373-3.029 0.32-1.598 0.366-13.862 0.91-0.466 0.022-0.919-0.099-1.017-0.888 0.109-0.91 1.48-1.348 1.918-1.465 4.9-1.358 7.317-3.816 8.392-9.846 1.16-6.631 0.85-12.268 0.694-18.072m-7.51-4.477c2.696 0 5.234 0.015 7.125 0.056l-0.7-30.797c-0.133-0.4-0.313-0.605-0.519-0.605-0.169 0-0.357 0.145-0.546 0.439-6.558 9.313-15.59 20.729-22.065 29.972-0.415 0.73-0.001 0.979 0.98 0.979 0.157 0.015 0.688 0.019 1.498 0.019 1.393 0 3.607-0.015 6.142-0.026 2.54-0.019 5.4-0.037 8.09-0.037"/>
      </g>
      <g id="g154">
        <path id="path156" d="m551.41 126.37c0.732 0.482 0.398 1.464-0.086 1.632-0.34-0.006-6.801-0.106-14.521-1.239-1.834-0.271-3.254-0.429-5.002-0.429-1.479 0-3.189 0.113-5.584 0.366-3.041 0.318-1.598 0.365-13.877 0.91-0.457 0.021-0.904-0.098-1.002-0.887 0.107-0.909 1.48-1.338 1.906-1.467 4.908-1.348 7.326-3.815 8.404-9.845 1.158-6.618 0.838-12.256 0.684-18.069l-26.588-0.153-11.645 16.512c-3.439 5.392 3.09 11.024 10.289 12.338 0.662 0.521 0.539 2.168-0.422 2.168-0.107 0-0.223-0.021-0.352-0.063-0.145-0.06-2.859-1.183-9.021-1.773-1.65-0.156-4.625-0.662-8.246-0.662-1.248 0-2.57 0.059-3.945 0.213l-13.035 1.834c-1.221-0.084-1.219-1.551 0.004-1.881 6.305-0.814 13.834-5.472 18.27-11.771l52.98-73.886c0.875-1.274 2.744-2.013 4.563-2.013 2.281 0 4.479 1.163 4.52 3.891l1.744 73.972c0.57 6.22 4.74 8.84 9.98 10.31zm-36.62-33.497c2.705 0 5.256 0.015 7.152 0.056l-0.689-30.812c-0.137-0.4-0.318-0.605-0.521-0.605-0.172 0-0.355 0.144-0.539 0.44-6.568 9.325-15.592 20.74-22.078 29.97-0.404 0.732-0.002 0.98 0.979 0.98 0.191 0.018 0.945 0.022 2.078 0.022 1.377 0 3.32-0.012 5.516-0.022 2.53-0.014 5.39-0.029 8.1-0.029"/>
      </g>
    </g>
  </g>
</svg>