<?xml version="1.0" encoding="utf-8"?>
<svg xmlns="http://www.w3.org/2000/svg">
  <path id="circle3" d="M 185.266 173.771 C 144.566 173.771 111.564 206.774 111.564 247.469 C 111.564 288.168 144.566 321.172 185.266 321.172 C 225.964 321.172 258.968 288.169 258.968 247.469 C 258.968 206.771 225.965 173.767 185.266 173.767 L 185.266 173.771 Z M 185.266 175.299 C 225.137 175.299 257.44 207.599 257.44 247.472 C 257.44 287.345 225.139 319.647 185.266 319.647 C 145.389 319.647 113.088 287.35 113.088 247.472 C 113.088 207.601 145.389 175.3 185.262 175.3 L 185.266 175.299 Z" style="fill: rgb(30, 30, 30);" transform="matrix(0.965926, -0.258819, 0.258819, 0.965926, -57.737017, 56.382663)"/>
  <path id="circle5" d="M 185.268 216.381 C 168.106 216.381 154.172 230.312 154.172 247.476 C 154.172 264.637 168.105 278.57 185.268 278.57 C 202.43 278.57 216.363 264.638 216.363 247.476 C 216.363 230.313 202.431 216.381 185.268 216.381 Z M 185.268 217.909 C 201.603 217.909 214.834 231.139 214.834 247.476 C 214.834 263.811 201.604 277.042 185.268 277.042 C 168.932 277.042 155.701 263.811 155.701 247.476 C 155.701 231.14 168.932 217.909 185.268 217.909 Z" style="fill: rgb(30, 30, 30);" transform="matrix(0.965926, -0.258819, 0.258819, 0.965926, -57.738533, 56.383275)"/>
  <path id="polygon7" d="M 174.431 199.916 L 174.431 199.916 L 178.18 214.151 L 170.681 214.151 L 174.431 199.916 Z" style="fill: rgb(30, 30, 30);" transform="matrix(0.965926, -0.258819, 0.258819, 0.965926, -47.640589, 52.200365)"/>
  <path id="polygon9" d="M 144.255 221.104 L 156.984 228.532 L 151.707 233.834 L 144.255 221.104 L 144.255 221.104 Z" style="fill: rgb(30, 30, 30);" transform="matrix(0.965926, -0.258819, 0.258819, 0.965926, -53.741065, 46.734005)"/>
  <path id="polygon11" d="M 151.945 254.565 L 151.945 262.064 L 137.688 258.315 L 151.945 254.565 L 151.945 254.565 Z" style="fill: rgb(30, 30, 30);" transform="matrix(0.965926, -0.258819, 0.258819, 0.965926, -61.9222, 46.283113)"/>
  <path id="polygon13" d="M 166.351 275.758 L 171.629 281.058 L 158.9 288.486 L 166.351 275.758 L 166.351 275.758 Z" style="fill: rgb(30, 30, 30);" transform="matrix(0.965926, -0.258819, 0.258819, 0.965926, -67.387288, 52.386664)"/>
  <path id="polygon15" d="M 192.352 280.794 L 199.851 280.794 L 196.102 295.028 L 192.352 280.794 L 192.352 280.794 Z" style="fill: rgb(30, 30, 30);" transform="matrix(0.965926, -0.258819, 0.258819, 0.965926, -67.834856, 60.565133)"/>
  <path id="polygon17" d="M 218.848 261.118 L 226.252 273.823 L 213.546 266.418 L 218.848 261.118 Z" style="fill: rgb(30, 30, 30);" transform="matrix(0.965926, -0.258819, 0.258819, 0.965926, -61.733528, 66.027803)"/>
  <path id="polygon19" d="M 218.592 232.883 L 232.873 236.633 L 218.592 240.382 L 218.592 232.883 L 218.592 232.883 Z" style="fill: rgb(30, 30, 30);" transform="matrix(0.965926, -0.258819, 0.258819, 0.965926, -53.553338, 66.486908)"/>
  <path id="polygon21" d="M 211.614 206.488 L 204.209 219.194 L 198.907 213.892 L 211.614 206.488 Z" style="fill: rgb(30, 30, 30);" transform="matrix(0.965926, -0.258819, 0.258819, 0.965926, -48.093218, 60.377697)"/>
  <path id="circle25" d="M 330.483 146.497 C 315.437 146.497 303.234 158.7 303.234 173.746 C 303.234 188.793 315.437 201.021 330.483 201.021 C 345.529 201.021 357.758 188.793 357.758 173.746 C 357.758 158.7 345.531 146.497 330.483 146.497 L 330.483 146.497 Z M 330.483 148.025 C 344.704 148.025 356.228 159.525 356.228 173.746 C 356.228 187.966 344.704 199.493 330.483 199.493 C 316.264 199.493 304.762 187.966 304.762 173.746 C 304.762 159.525 316.264 148.025 330.483 148.025 Z" style="fill: rgb(30, 30, 30);" transform="matrix(0.965926, -0.258819, 0.258819, 0.965926, -33.710752, 91.459324)"/>
  <path id="circle27" d="M 330.481 155.217 C 320.253 155.217 311.948 163.523 311.948 173.75 C 311.948 183.977 320.253 192.283 330.481 192.283 C 340.709 192.283 349.014 183.977 349.014 173.75 C 349.014 163.523 340.709 155.217 330.481 155.217 Z M 330.481 156.746 C 339.881 156.746 347.484 164.349 347.484 173.749 C 347.484 183.15 339.88 190.753 330.481 190.753 C 321.08 190.753 313.477 183.15 313.477 173.749 C 313.477 164.349 321.08 156.746 330.481 156.746 Z" style="fill: rgb(30, 30, 30);" transform="matrix(0.965926, -0.258819, 0.258819, 0.965926, -33.70894, 91.455169)"/>
  <path id="circle31" d="M 397.288 128.596 C 382.24 128.596 370.037 140.8 370.037 155.846 C 370.037 170.893 382.241 183.096 397.288 183.096 C 412.333 183.096 424.562 170.893 424.562 155.846 C 424.562 140.799 412.335 128.596 397.288 128.596 Z M 397.288 130.124 C 411.507 130.124 423.033 141.626 423.033 155.846 C 423.033 170.066 411.507 181.567 397.288 181.567 C 383.067 181.567 371.566 170.065 371.566 155.846 C 371.567 141.625 383.067 130.124 397.288 130.124 Z" style="fill: rgb(30, 30, 30);" transform="matrix(0.965926, -0.258819, 0.258819, 0.965926, -26.798256, 108.138969)"/>
  <path id="circle33" d="M 397.289 137.316 C 387.06 137.316 378.755 145.621 378.755 155.849 C 378.755 166.076 387.06 174.382 397.289 174.382 C 407.515 174.382 415.82 166.076 415.82 155.849 C 415.82 145.621 407.515 137.316 397.289 137.316 Z M 397.289 138.844 C 406.69 138.844 414.291 146.448 414.291 155.848 C 414.291 165.249 406.687 172.852 397.289 172.852 C 387.887 172.852 380.284 165.249 380.284 155.848 C 380.284 146.448 387.888 138.844 397.289 138.844 Z" style="fill: rgb(30, 30, 30);" transform="matrix(0.965926, -0.258819, 0.258819, 0.965926, -26.799439, 108.135963)"/>
  <path id="circle37" d="M 464.095 110.695 C 449.049 110.695 436.845 122.899 436.845 137.945 C 436.845 152.991 449.048 165.195 464.095 165.195 C 479.143 165.195 491.37 152.991 491.37 137.945 C 491.37 122.899 479.142 110.695 464.095 110.695 Z M 464.095 112.224 C 478.316 112.224 489.841 123.725 489.841 137.945 C 489.841 152.166 478.316 163.666 464.095 163.666 C 449.875 163.666 438.373 152.164 438.373 137.945 C 438.373 123.724 449.876 112.224 464.095 112.224 Z" style="fill: rgb(30, 30, 30);" transform="matrix(0.965926, -0.258819, 0.258819, 0.965926, -19.888718, 124.820207)"/>
  <path id="circle39" d="M 464.096 119.415 C 453.868 119.415 445.562 127.72 445.562 137.948 C 445.562 148.175 453.868 156.481 464.096 156.481 C 474.323 156.481 482.629 148.175 482.629 137.948 C 482.629 127.72 474.323 119.415 464.096 119.415 Z M 464.096 120.943 C 473.497 120.943 481.1 128.547 481.1 137.947 C 481.1 147.348 473.496 154.952 464.096 154.952 C 454.695 154.952 447.091 147.348 447.091 137.947 C 447.091 128.547 454.695 120.943 464.096 120.943 Z" style="fill: rgb(30, 30, 30);" transform="matrix(0.965926, -0.258819, 0.258819, 0.965926, -19.889894, 124.817053)"/>
  <path id="circle43" d="M 511.622 28.388 C 496.574 28.388 484.371 40.592 484.371 55.637 C 484.371 70.684 496.575 82.912 511.622 82.912 C 526.669 82.912 538.872 70.684 538.872 55.637 C 538.865 40.592 526.659 28.388 511.619 28.388 L 511.622 28.388 Z M 511.622 29.916 C 525.842 29.916 537.344 41.419 537.344 55.637 C 537.344 69.858 525.842 81.384 511.622 81.384 C 497.402 81.384 485.9 69.858 485.9 55.637 C 485.9 41.418 497.402 29.916 511.625 29.916 L 511.622 29.916 Z" style="fill: rgb(30, 30, 30);" transform="matrix(0.965926, -0.258819, 0.258819, 0.965926, 3.029801, 134.313623)"/>
  <path id="circle45" d="M 511.621 37.104 C 501.394 37.104 493.089 45.411 493.089 55.637 C 493.089 65.865 501.394 74.194 511.621 74.194 C 521.849 74.194 530.154 65.864 530.154 55.637 C 530.154 45.411 521.849 37.104 511.621 37.104 Z M 511.621 38.632 C 521.023 38.632 528.626 46.236 528.626 55.637 C 528.626 65.038 521.022 72.665 511.621 72.665 C 502.22 72.665 494.618 65.038 494.618 55.637 C 494.618 46.236 502.22 38.632 511.621 38.632 Z" style="fill: rgb(30, 30, 30);" transform="matrix(0.965926, -0.258819, 0.258819, 0.965926, 3.030048, 134.313508)"/>
  <path id="circle49" d="M 348.051 212.058 C 333.004 212.058 320.801 224.285 320.801 239.332 C 320.801 254.378 333.004 266.582 348.051 266.582 C 363.096 266.582 375.325 254.379 375.325 239.332 C 375.325 224.286 363.098 212.058 348.051 212.058 L 348.051 212.058 Z M 348.051 213.587 C 362.271 213.587 373.796 225.111 373.796 239.332 C 373.796 253.552 362.271 265.054 348.051 265.054 C 333.831 265.054 322.329 253.552 322.329 239.332 C 322.329 225.112 333.831 213.587 348.051 213.587 Z" style="fill: rgb(30, 30, 30);" transform="matrix(0.965926, -0.258819, 0.258819, 0.965926, -50.080569, 98.239826)"/>
  <path id="circle51" d="M 348.054 220.803 C 337.827 220.803 329.521 229.109 329.522 239.337 C 329.522 249.564 337.827 257.869 348.054 257.869 C 358.282 257.869 366.587 249.564 366.587 239.337 C 366.587 229.109 358.282 220.803 348.054 220.803 Z M 348.054 222.331 C 357.455 222.331 365.058 229.935 365.058 239.336 C 365.058 248.736 357.454 256.34 348.054 256.34 C 338.653 256.34 331.05 248.736 331.05 239.336 C 331.05 229.935 338.653 222.331 348.054 222.331 Z" style="fill: rgb(30, 30, 30);" transform="matrix(0.965926, -0.258819, 0.258819, 0.965926, -50.085032, 98.238277)"/>
  <path id="circle55" d="M 414.859 194.157 C 399.81 194.157 387.607 206.385 387.607 221.432 C 387.607 236.478 399.811 248.681 414.859 248.681 C 429.904 248.681 442.133 236.478 442.133 221.432 C 442.133 206.385 429.905 194.157 414.859 194.157 L 414.859 194.157 Z M 414.859 195.686 C 429.077 195.686 440.604 207.211 440.604 221.432 C 440.604 235.651 429.077 247.153 414.859 247.153 C 400.637 247.153 389.136 235.651 389.137 221.432 C 389.137 207.211 400.637 195.686 414.859 195.686 Z" style="fill: rgb(30, 30, 30);" transform="matrix(0.965926, -0.258819, 0.258819, 0.965926, -43.1711, 114.920925)"/>
  <path id="circle57" d="M 414.862 202.903 C 404.634 202.903 396.328 211.209 396.328 221.436 C 396.328 231.663 404.634 239.969 414.862 239.969 C 425.089 239.969 433.394 231.663 433.394 221.436 C 433.394 211.209 425.089 202.903 414.862 202.903 Z M 414.862 204.431 C 424.264 204.431 431.865 212.035 431.865 221.435 C 431.865 230.836 424.261 238.439 414.862 238.439 C 405.461 238.439 397.858 230.835 397.858 221.435 C 397.858 212.035 405.462 204.431 414.862 204.431 Z" style="fill: rgb(30, 30, 30);" transform="matrix(0.965926, -0.258819, 0.258819, 0.965926, -43.175797, 114.919145)"/>
  <path id="circle59" d="M 481.666 176.256 C 466.619 176.256 454.415 188.484 454.415 203.53 C 454.415 218.576 466.619 230.78 481.666 230.78 C 496.714 230.78 508.94 218.576 508.94 203.53 C 508.94 188.484 496.712 176.256 481.666 176.256 L 481.666 176.256 Z M 481.666 177.784 C 495.886 177.784 507.412 189.31 507.412 203.53 C 507.412 217.75 495.886 229.252 481.666 229.252 C 467.445 229.252 455.944 217.749 455.944 203.53 C 455.944 189.31 467.446 177.784 481.666 177.784 Z" style="fill: rgb(30, 30, 30);" transform="matrix(0.965926, -0.258819, 0.258819, 0.965926, -36.261556, 131.601868)"/>
  <path id="circle61" d="M 481.669 185.001 C 471.441 185.001 463.135 193.307 463.135 203.535 C 463.136 213.762 471.441 222.067 481.669 222.067 C 491.896 222.067 500.202 213.762 500.202 203.535 C 500.202 193.307 491.896 185.001 481.669 185.001 Z M 481.669 186.529 C 491.07 186.529 498.673 194.133 498.673 203.534 C 498.673 212.934 491.07 220.539 481.669 220.539 C 472.268 220.539 464.665 212.934 464.665 203.534 C 464.665 194.133 472.268 186.529 481.669 186.529 Z" style="fill: rgb(30, 30, 30);" transform="matrix(0.965926, -0.258819, 0.258819, 0.965926, -36.265991, 131.600063)"/>
  <path id="line65" d="M 440.294 211.997 L 440.294 213.526 L 456.535 213.526 L 456.535 211.997 L 440.294 211.997 Z" style="fill: rgb(30, 30, 30);" transform="matrix(0.965926, -0.258819, 0.258819, 0.965926, -39.787372, 123.30784)"/>
  <path id="line67" d="M 373.533 229.896 L 373.533 231.425 L 389.701 231.424 L 389.701 229.896 L 373.533 229.896 Z" style="fill: rgb(30, 30, 30);" transform="matrix(0.965926, -0.258819, 0.258819, 0.965926, -46.696036, 106.629278)"/>
  <path id="polyline69" d="M 315.274 220.275 L 315.274 221.04 L 315.274 261.424 L 315.274 262.19 L 316.038 262.19 L 524.317 262.19 L 525.083 262.19 L 525.083 261.425 L 525.083 221.04 L 525.083 220.276 L 524.317 220.276 L 515.887 220.276 L 515.887 221.804 L 523.553 221.804 L 523.553 260.661 L 316.802 260.661 L 316.802 221.804 L 324.589 221.804 L 324.589 220.275 L 316.038 220.275 L 315.274 220.275 Z" style="fill: rgb(30, 30, 30);" transform="matrix(0.965926, -0.258819, 0.258819, 0.965926, -48.118332, 116.969995)"/>
  <path id="line73" d="M 422.821 146.784 L 422.821 148.313 L 439.062 148.313 L 439.062 146.784 L 422.821 146.784 Z" style="fill: rgb(30, 30, 30);" transform="matrix(0.965926, -0.258819, 0.258819, 0.965926, -23.504378, 116.563369)"/>
  <path id="line75" d="M 356.059 164.683 L 356.059 166.212 L 372.228 166.212 L 372.228 164.683 L 356.059 164.683 Z" style="fill: rgb(30, 30, 30);" transform="matrix(0.965926, -0.258819, 0.258819, 0.965926, -30.413071, 99.884729)"/>
  <path id="polyline77" d="M 287.349 116.053 L 287.349 116.817 L 287.349 157.204 L 287.349 157.968 L 288.112 157.968 L 296.662 157.968 L 296.662 156.44 L 288.876 156.44 L 288.876 117.582 L 495.627 117.582 L 495.627 156.44 L 487.96 156.44 L 487.96 157.968 L 496.392 157.968 L 497.156 157.968 L 497.156 157.204 L 497.156 116.817 L 497.156 116.053 L 496.392 116.053 L 288.112 116.053 L 287.349 116.053 Z" style="fill: rgb(30, 30, 30);" transform="matrix(0.965926, -0.258819, 0.258819, 0.965926, -22.095243, 106.19091)"/>
</svg>