<?xml version="1.0" encoding="utf-8"?>
<svg version="1.0" viewBox="0 0 1280 720" preserveAspectRatio="xMidYMid meet" xmlns="http://www.w3.org/2000/svg">
  <path d="M 242.346 712.515 C 203.725 667.232 177.753 608.327 171.915 552.79 C 162.484 462.448 208.515 375.4 303.871 303.77 C 391.369 237.904 520.257 187.532 663.741 163.132 C 713.888 154.599 752.584 151.456 800.562 152.129 C 829.977 152.503 841.879 153.252 862.387 156.095 C 953.476 168.52 1021.289 205.795 1062.38 266.048 C 1079.446 290.972 1090.598 316.27 1098.757 348.38 C 1115.673 414.545 1112.154 482.508 1088.652 544.107 C 1064.402 607.879 1018.669 659.074 967.548 679.807 C 951.98 686.169 949.06 686.617 911.412 688.939 C 839.783 693.354 777.135 702.038 724.741 714.761 C 717.93 716.483 709.622 718.279 706.329 718.878 C 701.239 719.851 667.108 720 474.525 720 L 248.708 720 L 242.346 712.515 Z M 421.533 587.145 C 435.978 584.975 449.301 579.735 460.978 571.651 C 505.811 540.665 512.398 474.274 474.675 434.53 C 447.055 405.414 404.242 397.704 367.941 415.369 C 353.795 422.255 341.52 432.883 332.763 446.057 C 322.06 462.149 317.494 477.567 317.419 497.402 C 317.419 517.761 323.557 536.099 335.907 552.566 C 355.367 578.462 389.198 592.16 421.533 587.145 Z M 643.157 512.596 C 666.21 506.234 681.554 485.951 681.554 461.774 C 681.554 432.06 658.576 409.082 628.861 409.082 C 599.146 409.082 576.243 431.986 576.243 461.774 C 576.243 488.795 595.179 510.425 622.125 514.243 C 627.888 514.991 636.945 514.318 643.157 512.596 Z M 723.544 395.833 C 750.788 387.45 766.058 361.403 760.219 333.411 C 756.327 314.848 740.834 298.906 721.972 294.115 C 714.712 292.244 703.185 292.094 696.299 293.816 C 677.288 298.531 662.617 312.827 657.528 331.54 C 655.507 339.099 655.657 352.721 657.902 359.982 C 660.821 369.262 664.488 375.4 671.15 382.136 C 682.303 393.439 695.026 398.453 710.82 397.779 C 715.61 397.63 720.175 396.882 723.544 395.833 Z M 978.401 343.44 C 993.297 339.473 1005.048 329.594 1011.783 315.447 C 1015.527 307.588 1016.874 301.675 1016.874 292.619 C 1016.874 282.963 1015.527 277.424 1010.81 267.919 C 1006.019 258.114 998.685 250.778 988.73 245.913 C 979.299 241.273 973.76 239.925 964.18 239.925 C 943.222 240 925.184 251.302 916.576 269.94 C 913.134 277.274 911.637 284.161 911.637 292.619 C 911.637 313.576 923.013 331.614 941.501 340.222 C 953.252 345.761 965.677 346.808 978.401 343.44 Z M 848.166 330.716 C 871.368 324.354 886.638 304.145 886.638 279.894 C 886.638 250.179 863.659 227.276 833.944 227.276 C 804.155 227.276 781.326 250.105 781.326 279.894 C 781.326 306.765 799.739 328.021 826.834 332.362 C 832.223 333.186 841.953 332.437 848.166 330.716 Z M 588.742 320.462 C 611.122 309.983 611.197 276.975 588.817 266.721 C 570.33 258.263 549.971 268.816 546.454 288.727 C 544.508 299.803 550.346 313.052 559.776 318.89 C 567.935 323.979 579.911 324.578 588.742 320.462 Z M 697.871 259.76 C 709.996 255.045 718.08 240.449 715.759 227.351 C 712.317 207.591 691.808 196.888 673.396 205.345 C 662.318 210.361 655.881 221.662 656.779 234.387 C 657.603 247.111 665.312 256.766 677.887 260.957 C 682.303 262.38 692.632 261.781 697.871 259.76 Z" style="fill: rgb(30, 30, 30);"/>
  <path d="M 396.833 557.955 C 372.357 553.014 353.495 534.677 347.807 510.276 C 346.011 502.492 346.161 490.068 348.107 482.358 C 351.4 469.709 359.334 457.209 369.288 449.051 C 374.902 444.485 386.953 438.497 394.213 436.626 C 402.596 434.53 416.368 434.83 424.75 437.375 C 436.577 440.892 444.361 445.683 453.044 454.814 C 463.896 466.191 469.36 478.766 470.034 494.034 C 470.633 508.105 467.713 519.109 460.229 530.485 C 446.382 551.742 420.858 562.82 396.833 557.955 Z" style="fill: rgb(30, 30, 30);"/>
</svg>