<?xml version="1.0" encoding="utf-8"?>
<svg version="1.2" baseProfile="tiny" id="Layer_3" x="0px" y="0px" xmlns="http://www.w3.org/2000/svg">
  <path d="M 413.495 370.726 C 410.35 370.278 407.294 369.488 404.286 368.57 L 404.286 368.57 L 403.928 368.461 L 403.9 368.09 C 403.723 365.889 403.64 363.665 403.64 361.449 L 403.64 361.449 C 403.64 358.22 403.817 355.004 404.141 351.906 L 404.141 351.906 C 402.336 351.124 400.61 350.177 398.891 349.21 L 398.891 349.21 C 397.282 348.157 395.588 347.157 394.047 345.882 L 394.047 345.882 C 389.404 348.777 384.444 351.154 379.132 353.049 L 379.132 353.049 L 378.811 353.165 L 378.567 352.927 C 376.29 350.717 374.268 348.259 372.385 345.744 L 372.385 345.744 L 372.159 345.442 L 372.359 345.126 C 375.311 340.419 378.426 336.182 382.084 332.187 L 382.084 332.187 C 381.096 330.504 380.194 328.773 379.453 326.949 L 379.453 326.949 C 378.551 325.131 378.07 323.21 377.44 321.407 L 377.44 321.407 C 372.134 320.994 366.533 320.042 361.152 318.448 L 361.152 318.448 L 360.82 318.35 L 360.767 318.008 C 360.283 314.921 360 311.812 360 308.678 L 360 308.678 C 360 308.625 360 308.574 360.001 308.528 L 360.001 308.528 L 360.004 308.166 L 360.337 308.027 C 365.313 305.943 370.655 304.372 375.803 303.286 L 375.803 303.286 C 375.942 301.288 376.445 299.389 376.719 297.518 L 376.719 297.518 L 376.725 297.475 L 376.736 297.436 C 377.302 295.625 377.669 293.691 378.411 291.822 L 378.411 291.822 C 374.293 288.342 370.358 284.31 366.976 279.876 L 366.976 279.876 L 366.773 279.61 L 366.917 279.309 C 368.291 276.414 370.074 273.785 371.803 271.164 L 371.803 271.164 L 372.016 270.841 L 372.391 270.935 C 377.778 272.273 382.917 274.048 387.725 276.194 L 387.725 276.194 C 389.073 274.838 390.336 273.314 391.907 272.093 L 391.907 272.093 C 393.372 270.759 394.948 269.579 396.575 268.481 L 396.575 268.481 C 395.232 263.142 394.57 257.794 394.331 252.058 L 394.331 252.058 L 394.315 251.694 L 394.646 251.539 C 397.478 250.216 400.339 248.845 403.4 247.918 L 403.4 247.918 L 403.741 247.815 L 403.975 248.086 C 407.512 252.218 410.627 256.66 413.285 261.312 L 413.285 261.312 C 415.22 260.831 417.176 260.661 419.11 260.402 L 419.11 260.402 C 420.602 260.306 422.113 260.221 423.63 260.221 L 423.63 260.221 C 424.084 260.221 424.537 260.229 424.992 260.247 L 424.992 260.247 C 427.033 255.304 429.682 250.253 432.843 245.692 L 432.843 245.692 L 433.035 245.413 L 433.37 245.462 C 436.514 245.91 439.569 246.7 442.579 247.618 L 442.579 247.618 L 442.935 247.726 L 442.965 248.099 C 443.14 250.296 443.222 252.518 443.222 254.734 L 443.222 254.734 C 443.222 257.966 443.046 261.183 442.724 264.282 L 442.724 264.282 C 444.53 265.065 446.257 266.012 447.974 266.977 L 447.974 266.977 C 449.582 268.032 451.277 269.032 452.817 270.307 L 452.817 270.307 C 457.461 267.41 462.421 265.036 467.733 263.138 L 467.733 263.138 L 468.053 263.023 L 468.298 263.26 C 470.575 265.472 472.595 267.931 474.48 270.444 L 474.48 270.444 L 474.706 270.744 L 474.506 271.064 C 471.553 275.769 468.439 280.005 464.782 284 L 464.782 284 C 465.765 285.677 466.667 287.406 467.405 289.224 L 467.405 289.224 C 468.313 291.047 468.794 292.974 469.425 294.782 L 469.425 294.782 C 474.731 295.194 480.33 296.146 485.712 297.74 L 485.712 297.74 L 486.044 297.838 L 486.097 298.18 C 486.576 301.26 486.863 304.364 486.863 307.495 L 486.863 307.495 C 486.863 307.548 486.863 307.603 486.863 307.657 L 486.863 307.657 L 486.863 308.019 L 486.527 308.161 C 481.55 310.246 476.208 311.817 471.062 312.903 L 471.062 312.903 C 470.922 314.901 470.419 316.799 470.146 318.669 L 470.146 318.669 L 470.139 318.711 L 470.126 318.752 C 469.562 320.564 469.195 322.5 468.453 324.368 L 468.453 324.368 C 472.57 327.848 476.505 331.88 479.886 336.313 L 479.886 336.313 L 480.089 336.577 L 479.946 336.879 C 478.572 339.775 476.79 342.404 475.06 345.023 L 475.06 345.023 L 474.846 345.346 L 474.471 345.253 C 469.086 343.917 463.946 342.142 459.139 339.996 L 459.139 339.996 C 457.791 341.349 456.529 342.875 454.957 344.096 L 454.957 344.096 C 453.492 345.43 451.916 346.61 450.289 347.708 L 450.289 347.708 C 451.632 353.047 452.294 358.395 452.533 364.132 L 452.533 364.132 L 452.547 364.495 L 452.218 364.65 C 449.385 365.974 446.525 367.344 443.463 368.271 L 443.463 368.271 L 443.121 368.372 L 442.889 368.102 C 439.352 363.972 436.236 359.528 433.577 354.877 L 433.577 354.877 C 431.643 355.359 429.689 355.528 427.79 355.783 L 427.79 355.783 L 427.771 355.785 L 427.752 355.788 C 426.26 355.88 424.751 355.967 423.234 355.967 L 423.234 355.967 C 422.78 355.967 422.326 355.959 421.871 355.942 L 421.871 355.942 C 419.829 360.885 417.182 365.936 414.021 370.497 L 414.021 370.497 L 413.829 370.775 L 413.495 370.726 L 413.495 370.726 Z M 413.314 369.592 C 416.412 365.074 419.013 360.06 421.005 355.171 L 421.005 355.171 L 421.151 354.811 L 421.54 354.832 C 422.101 354.86 422.666 354.871 423.235 354.871 L 423.235 354.871 C 424.698 354.871 426.173 354.788 427.647 354.696 L 427.647 354.696 C 429.717 354.421 431.764 354.245 433.702 353.714 L 433.702 353.714 L 434.113 353.6 L 434.323 353.972 C 436.935 358.592 440.002 363.009 443.488 367.116 L 443.488 367.116 C 446.204 366.261 448.807 365.038 451.424 363.812 L 451.424 363.812 C 451.168 358.137 450.49 352.867 449.133 347.603 L 449.133 347.603 L 449.037 347.226 L 449.36 347.011 C 451.072 345.874 452.713 344.659 454.254 343.259 L 454.254 343.259 C 455.829 342.038 457.131 340.431 458.636 338.951 L 458.636 338.951 L 458.904 338.689 L 459.246 338.844 C 463.978 340.982 469.049 342.755 474.362 344.097 L 474.362 344.097 C 475.964 341.676 477.562 339.277 478.814 336.71 L 478.814 336.71 C 475.449 332.345 471.533 328.368 467.444 324.947 L 467.444 324.947 L 467.132 324.685 L 467.294 324.313 C 468.077 322.494 468.454 320.477 469.07 318.472 L 469.07 318.472 C 469.379 316.396 469.915 314.409 469.994 312.43 L 469.994 312.43 L 470.012 312.003 L 470.43 311.916 C 475.527 310.865 480.833 309.33 485.771 307.291 L 485.771 307.291 C 485.759 304.412 485.502 301.546 485.072 298.693 L 485.072 298.693 C 479.757 297.148 474.221 296.23 468.991 295.845 L 468.991 295.845 L 468.637 295.82 L 468.517 295.486 C 467.798 293.5 467.319 291.491 466.424 289.709 L 466.424 289.709 L 466.415 289.691 L 466.406 289.671 C 465.642 287.78 464.687 285.976 463.635 284.21 L 463.635 284.21 L 463.426 283.858 L 463.703 283.558 C 467.345 279.622 470.44 275.452 473.381 270.801 L 473.381 270.801 C 471.65 268.512 469.813 266.29 467.781 264.286 L 467.781 264.286 C 462.533 266.187 457.641 268.557 453.063 271.447 L 453.063 271.447 L 452.719 271.663 L 452.412 271.397 C 450.892 270.081 449.124 269.038 447.407 267.914 L 447.407 267.914 C 445.61 266.904 443.799 265.915 441.927 265.133 L 441.927 265.133 L 441.548 264.976 L 441.593 264.569 C 441.94 261.384 442.128 258.067 442.128 254.736 L 442.128 254.736 C 442.128 252.673 442.056 250.604 441.904 248.559 L 441.904 248.559 C 439.15 247.73 436.377 247.022 433.552 246.597 L 433.552 246.597 C 430.454 251.118 427.853 256.131 425.861 261.019 L 425.861 261.019 L 425.714 261.379 L 425.327 261.359 C 424.764 261.33 424.198 261.319 423.632 261.319 L 423.632 261.319 C 422.155 261.319 420.668 261.401 419.22 261.494 L 419.22 261.494 C 417.15 261.77 415.103 261.945 413.163 262.477 L 413.163 262.477 L 412.752 262.589 L 412.542 262.217 C 409.931 257.597 406.864 253.181 403.378 249.074 L 403.378 249.074 C 400.66 249.929 398.058 251.153 395.441 252.377 L 395.441 252.377 C 395.697 258.054 396.375 263.323 397.732 268.587 L 397.732 268.587 L 397.83 268.963 L 397.506 269.179 C 395.793 270.317 394.153 271.531 392.613 272.932 L 392.613 272.932 C 391.037 274.153 389.734 275.759 388.228 277.239 L 388.228 277.239 L 387.961 277.501 L 387.62 277.348 C 382.887 275.211 377.819 273.437 372.505 272.093 L 372.505 272.093 C 370.902 274.514 369.304 276.913 368.051 279.48 L 368.051 279.48 C 371.417 283.846 375.333 287.821 379.421 291.243 L 379.421 291.243 L 379.733 291.503 L 379.572 291.878 C 378.79 293.695 378.412 295.714 377.796 297.719 L 377.796 297.719 C 377.486 299.794 376.95 301.78 376.872 303.76 L 376.872 303.76 L 376.854 304.187 L 376.436 304.274 C 371.339 305.325 366.032 306.86 361.094 308.898 L 361.094 308.898 C 361.107 311.778 361.361 314.642 361.794 317.498 L 361.794 317.498 C 367.108 319.043 372.645 319.959 377.875 320.344 L 377.875 320.344 L 378.227 320.37 L 378.349 320.704 C 379.067 322.688 379.547 324.7 380.44 326.48 L 380.44 326.48 L 380.449 326.498 L 380.458 326.52 C 381.223 328.408 382.177 330.212 383.231 331.981 L 383.231 331.981 L 383.441 332.33 L 383.163 332.631 C 379.522 336.569 376.424 340.739 373.485 345.39 L 373.485 345.39 C 375.215 347.679 377.053 349.9 379.084 351.905 L 379.084 351.905 C 384.333 350.007 389.225 347.633 393.802 344.744 L 393.802 344.744 L 394.145 344.529 L 394.453 344.793 C 395.972 346.11 397.742 347.154 399.457 348.278 L 399.457 348.278 C 401.256 349.286 403.067 350.274 404.939 351.059 L 404.939 351.059 L 405.314 351.215 L 405.27 351.622 C 404.924 354.805 404.735 358.121 404.735 361.45 L 404.735 361.45 C 404.735 363.514 404.807 365.583 404.961 367.633 L 404.961 367.633 C 407.715 368.461 410.488 369.168 413.314 369.592 L 413.314 369.592 Z M 408.187 333.645 C 402.941 330.426 398.474 325.602 396.111 319.793 L 396.111 319.793 C 394.477 316.095 393.705 312.128 393.705 308.139 L 393.705 308.139 C 393.705 305.92 393.944 303.695 394.41 301.489 L 394.41 301.489 C 395.895 295.399 399.074 289.823 403.841 285.747 L 403.841 285.747 C 408.495 281.519 414.606 279.099 420.737 278.462 L 420.737 278.462 C 421.598 278.383 422.464 278.345 423.333 278.345 L 423.333 278.345 C 428.683 278.347 434.093 279.811 438.681 282.543 L 438.681 282.543 C 443.927 285.764 448.392 290.588 450.754 296.396 L 450.754 296.396 C 452.389 300.093 453.161 304.06 453.161 308.049 L 453.161 308.049 C 453.161 310.267 452.923 312.49 452.458 314.7 L 452.458 314.7 C 450.972 320.791 447.794 326.364 443.025 330.441 L 443.025 330.441 C 438.372 334.671 432.26 337.09 426.137 337.726 L 426.137 337.726 L 426.08 337.181 L 426.13 337.726 C 425.268 337.804 424.401 337.842 423.532 337.842 L 423.532 337.842 C 418.181 337.84 412.771 336.376 408.187 333.645 L 408.187 333.645 Z M 420.842 279.552 C 414.927 280.165 409.027 282.509 404.565 286.568 L 404.565 286.568 C 399.978 290.489 396.909 295.855 395.477 301.731 L 395.477 301.731 C 395.029 303.848 394.799 305.998 394.799 308.139 L 394.799 308.139 C 394.799 311.988 395.545 315.802 397.119 319.364 L 397.119 319.364 C 399.383 324.937 403.689 329.603 408.753 332.707 L 408.753 332.707 C 413.151 335.33 418.381 336.748 423.532 336.747 L 423.532 336.747 C 424.367 336.747 425.198 336.711 426.024 336.636 L 426.024 336.636 L 426.024 336.635 C 431.939 336.024 437.839 333.679 442.302 329.621 L 442.302 329.621 C 446.891 325.699 449.958 320.333 451.39 314.457 L 451.39 314.457 C 451.836 312.336 452.066 310.187 452.066 308.048 L 452.066 308.048 C 452.066 304.2 451.322 300.387 449.747 296.821 L 449.747 296.821 C 447.483 291.251 443.178 286.585 438.113 283.479 L 438.113 283.479 C 433.712 280.856 428.483 279.44 423.332 279.44 L 423.332 279.44 C 422.496 279.44 421.663 279.477 420.842 279.552 L 420.842 279.552 Z" style="fill: rgb(30, 30, 30);"/>
  <path d="M 562.07 372.615 L 561.692 372.603 L 561.571 372.245 C 559.901 367.382 558.508 362.371 557.393 357.462 L 557.393 357.462 C 555.483 357.253 553.552 357.066 551.648 356.71 L 551.648 356.71 C 549.707 356.428 547.813 355.983 545.93 355.559 L 545.93 355.559 C 543.023 359.799 539.781 364.006 536.283 367.942 L 536.283 367.942 L 536.047 368.206 L 535.711 368.102 C 533.031 367.267 530.414 366.265 527.841 365.188 L 527.841 365.188 L 527.489 365.04 L 527.506 364.659 C 527.733 359.489 528.217 354.412 528.989 349.366 L 528.989 349.366 C 527.233 348.519 525.56 347.549 523.885 346.593 L 523.885 346.593 C 522.228 345.593 520.585 344.561 518.993 343.443 L 518.993 343.443 C 514.713 346.393 510.236 349.063 505.525 351.523 L 505.525 351.523 L 505.206 351.689 L 504.927 351.463 C 502.753 349.706 500.674 347.847 498.65 345.929 L 498.65 345.929 L 498.369 345.664 L 498.525 345.312 C 500.627 340.543 502.887 335.992 505.421 331.569 L 505.421 331.569 C 504.111 330.141 502.859 328.663 501.66 327.137 L 501.66 327.137 C 500.489 325.612 499.3 324.076 498.226 322.441 L 498.226 322.441 C 493.171 323.654 488.03 324.535 482.748 325.117 L 482.748 325.117 L 482.389 325.157 L 482.212 324.842 C 480.84 322.413 479.524 319.941 478.367 317.387 L 478.367 317.387 L 478.211 317.045 L 478.475 316.777 C 482.081 313.116 485.948 309.647 489.866 306.458 L 489.866 306.458 C 489.188 304.658 488.508 302.843 487.978 300.979 L 487.978 300.979 C 487.383 299.117 486.918 297.226 486.471 295.347 L 486.471 295.347 C 481.374 294.632 476.183 293.599 471.085 292.23 L 471.085 292.23 L 470.742 292.138 L 470.687 291.787 C 470.253 289.027 469.986 286.257 469.776 283.486 L 469.776 283.486 L 469.747 283.102 L 470.1 282.944 C 474.85 280.834 479.623 278.992 484.45 277.427 L 484.45 277.427 C 484.466 275.5 484.499 273.565 484.657 271.637 L 484.657 271.637 C 484.76 269.683 485.021 267.751 485.28 265.839 L 485.28 265.839 C 480.763 263.334 476.306 260.506 472.049 257.38 L 472.049 257.38 L 471.764 257.171 L 471.838 256.825 C 472.423 254.086 473.162 251.381 474.015 248.717 L 474.015 248.717 L 474.131 248.359 L 474.508 248.339 C 476.905 248.213 479.297 248.153 481.682 248.153 L 481.682 248.153 C 484.421 248.153 487.15 248.234 489.869 248.394 L 489.869 248.394 C 490.547 246.568 491.364 244.812 492.165 243.062 L 492.165 243.062 C 492.996 241.307 493.888 239.583 494.85 237.893 L 494.85 237.893 C 491.539 233.918 488.433 229.685 485.573 225.226 L 485.573 225.226 L 485.381 224.926 L 485.578 224.629 C 487.123 222.298 488.792 220.06 490.511 217.87 L 490.511 217.87 L 490.75 217.567 L 491.115 217.689 C 496.061 219.349 500.778 221.165 505.431 223.291 L 505.431 223.291 C 506.73 221.852 508.098 220.484 509.494 219.134 L 509.494 219.134 C 510.91 217.834 512.332 216.511 513.856 215.288 L 513.856 215.288 C 512.173 210.359 510.839 205.342 509.752 200.123 L 509.752 200.123 L 509.678 199.767 L 509.977 199.56 C 512.27 197.976 514.611 196.44 517.04 195.045 L 517.04 195.045 L 517.367 194.858 L 517.659 195.096 C 521.637 198.344 525.459 201.884 528.987 205.477 L 528.987 205.477 C 530.72 204.644 532.464 203.794 534.27 203.094 L 534.27 203.094 C 536.072 202.313 537.919 201.697 539.739 201.069 L 539.739 201.069 C 539.985 195.938 540.528 190.645 541.436 185.46 L 541.436 185.46 L 541.497 185.113 L 541.839 185.024 C 544.552 184.325 547.301 183.819 550.039 183.363 L 550.039 183.363 L 550.418 183.299 L 550.608 183.637 C 553.14 188.19 555.397 192.701 557.401 197.419 L 557.401 197.419 C 559.332 197.228 561.265 197.131 563.2 197.086 L 563.2 197.086 C 563.858 197.078 564.521 197.073 565.185 197.073 L 565.185 197.073 C 566.459 197.073 567.74 197.094 569.022 197.173 L 569.022 197.173 C 571.099 192.416 573.491 187.757 576.209 183.211 L 576.209 183.211 L 576.393 182.905 L 576.749 182.951 C 579.512 183.306 582.284 183.742 585.02 184.366 L 585.02 184.366 L 585.386 184.449 L 585.44 184.821 C 586.187 189.916 586.634 195.053 586.812 200.124 L 586.812 200.124 C 588.678 200.648 590.517 201.252 592.33 201.916 L 592.33 201.916 C 594.163 202.573 595.956 203.321 597.728 204.108 L 597.728 204.108 C 601.371 200.469 605.322 196.946 609.491 193.71 L 609.491 193.71 L 609.771 193.493 L 610.084 193.661 C 612.551 194.981 614.932 196.436 617.27 197.957 L 617.27 197.957 L 617.592 198.166 L 617.504 198.54 C 616.312 203.606 614.93 208.474 613.241 213.306 L 613.241 213.306 C 614.801 214.467 616.274 215.713 617.761 216.965 L 617.761 216.965 C 619.178 218.261 620.624 219.555 621.982 220.959 L 621.982 220.959 C 626.743 218.825 631.602 217.046 636.711 215.471 L 636.711 215.471 L 637.058 215.363 L 637.291 215.642 C 639.077 217.784 640.813 219.971 642.432 222.255 L 642.432 222.255 L 642.651 222.564 L 642.44 222.878 C 639.549 227.157 636.409 231.263 633.154 235.116 L 633.154 235.116 C 634.144 236.768 635.142 238.429 636.016 240.155 L 636.016 240.155 C 636.958 241.873 637.75 243.652 638.534 245.415 L 638.534 245.415 C 640.517 245.32 642.517 245.274 644.528 245.274 L 644.528 245.274 C 647.749 245.274 650.994 245.397 654.236 245.657 L 654.236 245.657 L 654.588 245.685 L 654.707 246.018 C 655.654 248.655 656.437 251.351 657.115 254.056 L 657.115 254.056 L 657.207 254.424 L 656.895 254.64 C 652.642 257.57 648.294 260.242 643.799 262.665 L 643.799 262.665 C 644.182 264.579 644.398 266.499 644.674 268.419 L 644.674 268.419 C 644.832 270.33 645.048 272.256 645.101 274.212 L 645.101 274.212 C 650.049 275.839 654.858 277.796 659.673 280.073 L 659.673 280.073 L 660 280.227 L 659.984 280.59 C 659.872 283.372 659.698 286.165 659.336 288.949 L 659.336 288.949 L 659.288 289.321 L 658.923 289.411 C 653.933 290.627 648.824 291.546 643.814 292.199 L 643.814 292.199 C 643.445 294.087 643.07 295.992 642.541 297.855 L 642.541 297.855 C 642.068 299.757 641.464 301.605 640.866 303.441 L 640.866 303.441 C 644.804 306.723 648.711 310.344 652.299 314.194 L 652.299 314.194 L 652.541 314.452 L 652.405 314.78 C 651.322 317.361 650.086 319.873 648.78 322.333 L 648.78 322.333 L 648.601 322.671 L 648.221 322.619 C 643.081 321.91 638.091 320.972 633.128 319.734 L 633.128 319.734 C 632.121 321.397 631.004 322.977 629.9 324.567 L 629.9 324.567 C 628.742 326.108 627.578 327.659 626.314 329.142 L 626.314 329.142 C 628.876 333.688 631.092 338.362 633.126 343.297 L 633.126 343.297 L 633.262 343.631 L 633.011 343.889 C 631.055 345.88 629.029 347.796 626.916 349.624 L 626.916 349.624 L 626.626 349.874 L 626.291 349.688 C 621.752 347.182 617.4 344.476 613.243 341.568 L 613.243 341.568 C 611.697 342.722 610.121 343.85 608.487 344.894 L 608.487 344.894 C 606.861 345.951 605.195 346.956 603.487 347.885 L 603.487 347.885 C 604.221 353.023 604.633 358.251 604.709 363.542 L 604.709 363.542 L 604.714 363.901 L 604.388 364.05 C 601.848 365.199 599.26 366.283 596.607 367.189 L 596.607 367.189 L 596.252 367.308 L 596.011 367.022 C 592.698 363.083 589.62 358.953 586.802 354.728 L 586.802 354.728 C 584.938 355.277 583.044 355.697 581.16 356.108 L 581.16 356.108 C 579.26 356.495 577.35 356.829 575.419 357.075 L 575.419 357.075 C 574.252 362.158 572.742 367.105 570.925 372.13 L 570.925 372.13 L 570.801 372.473 L 570.437 372.491 C 568.482 372.582 566.525 372.649 564.562 372.649 L 564.562 372.649 C 563.734 372.652 562.903 372.641 562.07 372.615 L 562.07 372.615 Z M 564.565 371.557 C 566.381 371.557 568.2 371.498 570.022 371.416 L 570.022 371.416 C 571.815 366.419 573.298 361.509 574.44 356.462 L 574.44 356.462 L 574.525 356.085 L 574.907 356.039 C 576.932 355.795 578.94 355.446 580.938 355.04 L 580.938 355.04 C 582.941 354.604 584.938 354.156 586.875 353.565 L 586.875 353.565 L 587.265 353.447 L 587.492 353.788 C 590.28 357.995 593.328 362.108 596.609 366.034 L 596.609 366.034 C 598.98 365.207 601.31 364.237 603.611 363.202 L 603.611 363.202 C 603.52 357.95 603.096 352.763 602.351 347.666 L 602.351 347.666 L 602.295 347.285 L 602.634 347.105 C 604.429 346.14 606.181 345.09 607.896 343.977 L 607.896 343.977 C 609.611 342.882 611.267 341.686 612.905 340.456 L 612.905 340.456 L 613.223 340.217 L 613.548 340.447 C 617.668 343.348 621.981 346.044 626.488 348.547 L 626.488 348.547 C 628.383 346.894 630.208 345.17 631.977 343.381 L 631.977 343.381 C 629.947 338.484 627.734 333.854 625.175 329.35 L 625.175 329.35 L 624.982 329.012 L 625.237 328.72 C 626.566 327.189 627.792 325.555 629.015 323.927 L 629.015 323.927 C 630.189 322.239 631.369 320.57 632.399 318.828 L 632.399 318.828 L 632.607 318.476 L 633.003 318.576 C 637.932 319.822 642.888 320.767 647.995 321.484 L 647.995 321.484 C 649.168 319.257 650.277 316.995 651.26 314.684 L 651.26 314.684 C 647.688 310.879 643.798 307.294 639.884 304.047 L 639.884 304.047 L 639.597 303.808 L 639.713 303.455 C 640.349 301.501 640.992 299.561 641.487 297.575 L 641.487 297.575 C 642.039 295.629 642.424 293.622 642.818 291.605 L 642.818 291.605 L 642.894 291.217 L 643.287 291.166 C 648.262 290.531 653.342 289.63 658.301 288.437 L 658.301 288.437 C 658.609 285.943 658.771 283.429 658.88 280.909 L 658.88 280.909 C 654.091 278.659 649.313 276.733 644.395 275.134 L 644.395 275.134 L 644.022 275.011 L 644.016 274.62 C 643.987 272.603 643.759 270.57 643.59 268.544 L 643.59 268.544 C 643.294 266.498 643.07 264.469 642.648 262.492 L 642.648 262.492 L 642.562 262.089 L 642.924 261.896 C 647.401 259.498 651.729 256.856 655.964 253.954 L 655.964 253.954 C 655.342 251.515 654.635 249.092 653.797 246.722 L 653.797 246.722 C 650.702 246.485 647.604 246.369 644.529 246.369 L 644.529 246.369 C 642.41 246.369 640.302 246.422 638.215 246.528 L 638.215 246.528 L 637.839 246.546 L 637.688 246.204 C 636.852 244.325 636.03 242.454 635.05 240.666 L 635.05 240.666 C 634.134 238.856 633.073 237.109 632.016 235.343 L 632.016 235.343 L 631.815 235.007 L 632.069 234.709 C 635.31 230.892 638.44 226.819 641.322 222.58 L 641.322 222.58 C 639.858 220.537 638.297 218.565 636.685 216.625 L 636.685 216.625 C 631.614 218.202 626.799 219.982 622.08 222.117 L 622.08 222.117 L 621.725 222.277 L 621.457 221.994 C 620.065 220.524 618.542 219.162 617.042 217.789 L 617.042 217.789 C 615.466 216.463 613.909 215.146 612.269 213.949 L 612.269 213.949 L 611.939 213.708 L 612.076 213.325 C 613.771 208.528 615.156 203.697 616.352 198.665 L 616.352 198.665 C 614.235 197.296 612.089 195.989 609.883 194.794 L 609.883 194.794 C 605.756 198.016 601.842 201.526 598.238 205.147 L 598.238 205.147 L 597.972 205.415 L 597.627 205.26 C 595.759 204.425 593.877 203.633 591.958 202.946 L 591.958 202.946 C 590.041 202.242 588.101 201.612 586.135 201.072 L 586.135 201.072 L 585.745 200.964 L 585.733 200.561 C 585.569 195.522 585.138 190.416 584.412 185.351 L 584.412 185.351 C 581.957 184.807 579.463 184.409 576.965 184.081 L 576.965 184.081 C 574.28 188.603 571.919 193.233 569.871 197.963 L 569.871 197.963 L 569.717 198.319 L 569.331 198.291 C 567.957 198.193 566.573 198.167 565.185 198.167 L 565.185 198.167 C 564.526 198.167 563.869 198.172 563.218 198.18 L 563.218 198.18 C 561.176 198.227 559.139 198.334 557.114 198.549 L 557.114 198.549 L 556.709 198.592 L 556.551 198.218 C 554.573 193.523 552.345 189.037 549.838 184.506 L 549.838 184.506 C 547.357 184.924 544.885 185.386 542.454 185.998 L 542.454 185.998 C 541.569 191.143 541.047 196.4 540.815 201.489 L 540.815 201.489 L 540.799 201.861 L 540.449 201.982 C 538.504 202.655 536.561 203.293 534.687 204.106 L 534.687 204.106 C 532.798 204.837 530.966 205.742 529.109 206.633 L 529.109 206.633 L 528.755 206.802 L 528.482 206.521 C 524.989 202.949 521.2 199.423 517.26 196.183 L 517.26 196.183 C 515.088 197.445 512.978 198.824 510.899 200.254 L 510.899 200.254 C 511.991 205.436 513.33 210.411 515.017 215.297 L 515.017 215.297 L 515.145 215.667 L 514.838 215.907 C 513.245 217.157 511.749 218.549 510.244 219.931 L 510.244 219.931 C 508.772 221.357 507.33 222.8 505.978 224.319 L 505.978 224.319 L 505.708 224.623 L 505.34 224.453 C 500.725 222.326 496.046 220.511 491.133 218.85 L 491.133 218.85 C 489.583 220.834 488.084 222.851 486.688 224.936 L 486.688 224.936 C 489.538 229.356 492.634 233.548 495.933 237.483 L 495.933 237.483 L 496.178 237.775 L 495.987 238.107 C 494.969 239.877 494.027 241.685 493.157 243.524 L 493.157 243.524 C 492.3 245.394 491.438 247.247 490.758 249.15 L 490.758 249.15 L 490.62 249.537 L 490.209 249.511 C 487.377 249.337 484.533 249.248 481.681 249.248 L 481.681 249.248 C 479.44 249.248 477.193 249.302 474.943 249.412 L 474.943 249.412 C 474.183 251.814 473.52 254.25 472.984 256.708 L 472.984 256.708 C 477.216 259.796 481.647 262.59 486.137 265.062 L 486.137 265.062 L 486.466 265.242 L 486.415 265.615 C 486.14 267.65 485.856 269.676 485.748 271.711 L 485.748 271.711 C 485.582 273.736 485.556 275.776 485.54 277.831 L 485.54 277.831 L 485.538 278.227 L 485.161 278.348 C 480.364 279.889 475.621 281.703 470.898 283.787 L 470.898 283.787 C 471.092 286.295 471.337 288.789 471.713 291.264 L 471.713 291.264 C 476.777 292.609 481.933 293.619 486.992 294.314 L 486.992 294.314 L 487.363 294.365 L 487.45 294.73 C 487.922 296.726 488.404 298.714 489.027 300.661 L 489.027 300.661 C 489.581 302.609 490.305 304.519 491.031 306.441 L 491.031 306.441 L 491.171 306.81 L 490.864 307.059 C 486.964 310.216 483.112 313.652 479.522 317.277 L 479.522 317.277 C 480.573 319.559 481.752 321.788 482.988 323.988 L 482.988 323.988 C 488.232 323.396 493.333 322.505 498.347 321.286 L 498.347 321.286 L 498.725 321.193 L 498.936 321.522 C 500.029 323.225 501.278 324.84 502.526 326.467 L 502.526 326.467 C 503.787 328.069 505.11 329.623 506.498 331.12 L 506.498 331.12 L 506.773 331.415 L 506.571 331.766 C 504.041 336.152 501.783 340.665 499.685 345.4 L 499.685 345.4 C 501.518 347.126 503.391 348.799 505.338 350.385 L 505.338 350.385 C 510.011 347.93 514.448 345.268 518.685 342.325 L 518.685 342.325 L 519.003 342.105 L 519.317 342.329 C 520.971 343.51 522.697 344.597 524.441 345.65 L 524.441 345.65 C 526.226 346.668 527.991 347.691 529.827 348.552 L 529.827 348.552 L 530.198 348.724 L 530.135 349.131 C 529.352 354.144 528.855 359.188 528.618 364.326 L 528.618 364.326 C 530.945 365.293 533.303 366.19 535.701 366.95 L 535.701 366.95 C 539.159 363.034 542.366 358.849 545.238 354.636 L 545.238 354.636 L 545.446 354.328 L 545.809 354.41 C 547.821 354.862 549.806 355.336 551.829 355.631 L 551.829 355.631 C 553.815 356.003 555.853 356.189 557.902 356.416 L 557.902 356.416 L 558.29 356.458 L 558.376 356.839 C 559.47 361.714 560.842 366.696 562.484 371.532 L 562.484 371.532 C 563.175 371.55 563.869 371.557 564.565 371.557 L 564.565 371.557 Z M 554.466 339.637 L 554.554 339.097 L 554.465 339.636 C 549.012 338.735 543.687 337.09 538.65 334.793 L 538.65 334.793 L 538.091 334.538 L 553.517 308.897 L 553.938 309.045 C 557.365 310.245 561.046 310.905 564.882 310.905 L 564.882 310.905 C 565.309 310.905 565.74 310.89 566.175 310.873 L 566.175 310.873 L 566.62 310.855 L 573.83 339.83 L 573.225 339.913 C 570.427 340.289 567.606 340.475 564.787 340.475 L 564.787 340.475 C 561.322 340.475 557.864 340.192 554.466 339.637 L 554.466 339.637 Z M 564.786 339.382 C 567.351 339.382 569.921 339.224 572.471 338.906 L 572.471 338.906 L 565.773 311.982 C 565.479 311.993 565.183 311.999 564.882 311.999 L 564.882 311.999 C 561.077 311.999 557.417 311.37 553.998 310.222 L 553.998 310.222 L 539.665 334.049 C 544.449 336.175 549.49 337.704 554.644 338.557 L 554.644 338.557 L 554.644 338.557 C 557.984 339.104 561.383 339.382 564.786 339.382 L 564.786 339.382 Z M 578.837 307.832 L 579.238 307.639 C 583.007 305.824 586.374 303.31 589.185 300.272 L 589.185 300.272 L 589.488 299.945 L 615.156 315.388 L 614.782 315.875 C 610.411 321.557 605.075 326.49 599.075 330.376 L 599.075 330.376 C 595.165 332.909 590.979 334.984 586.618 336.589 L 586.618 336.589 L 586.043 336.799 L 578.837 307.832 L 578.837 307.832 Z M 586.811 335.348 C 590.893 333.801 594.811 331.834 598.479 329.457 L 598.479 329.457 C 604.201 325.752 609.314 321.073 613.538 315.691 L 613.538 315.691 L 589.683 301.341 C 586.944 304.225 583.711 306.636 580.114 308.428 L 580.114 308.428 L 586.811 335.348 L 586.811 335.348 Z M 526.797 327.725 C 522.488 324.467 518.59 320.664 515.254 316.424 L 515.254 316.424 C 511.249 311.344 508.064 305.652 505.798 299.611 L 505.798 299.611 L 505.582 299.035 L 534.848 291.755 L 535.041 292.156 C 536.857 295.924 539.37 299.291 542.407 302.102 L 542.407 302.102 L 542.735 302.404 L 527.596 327.57 L 527.281 328.091 L 526.797 327.725 L 526.797 327.725 Z M 527.127 327.289 L 527.457 326.851 L 527.127 327.289 L 527.127 327.289 Z M 516.115 315.747 C 519.265 319.753 522.93 323.362 526.975 326.481 L 526.975 326.481 L 541.34 302.6 C 538.455 299.861 536.045 296.628 534.253 293.031 L 534.253 293.031 L 507.042 299.802 C 509.254 305.524 512.307 310.919 516.115 315.747 L 516.115 315.747 Z M 595.98 289.163 L 596.127 288.743 C 597.328 285.317 597.988 281.637 597.988 277.799 L 597.988 277.799 C 597.988 277.371 597.973 276.942 597.956 276.505 L 597.956 276.505 L 597.938 276.061 L 627.261 268.766 L 627.342 269.372 C 627.382 269.681 627.44 270.005 627.478 270.351 L 627.478 270.351 C 627.737 272.704 627.866 275.064 627.866 277.421 L 627.866 277.421 C 627.866 282.836 627.181 288.231 625.806 293.46 L 625.806 293.46 C 624.851 297.105 623.554 300.664 621.957 304.085 L 621.957 304.085 L 621.698 304.636 L 595.98 289.163 L 595.98 289.163 Z M 621.22 303.069 C 622.672 299.877 623.86 296.566 624.748 293.182 L 624.748 293.182 C 626.098 288.045 626.771 282.744 626.771 277.422 L 626.771 277.422 C 626.771 275.106 626.644 272.784 626.391 270.475 L 626.391 270.475 C 626.378 270.36 626.362 270.243 626.344 270.122 L 626.344 270.122 L 599.065 276.909 C 599.076 277.202 599.082 277.499 599.082 277.8 L 599.082 277.8 C 599.082 281.605 598.453 285.264 597.306 288.685 L 597.306 288.685 L 621.22 303.069 L 621.22 303.069 Z M 548.191 277.799 C 548.193 268.581 555.665 261.11 564.882 261.109 L 564.882 261.109 C 574.099 261.11 581.573 268.581 581.573 277.799 L 581.573 277.799 C 581.573 287.016 574.1 294.488 564.882 294.49 L 564.882 294.49 L 564.882 293.942 L 564.882 293.393 C 573.496 293.378 580.461 286.411 580.476 277.799 L 580.476 277.799 C 580.461 269.186 573.496 262.22 564.882 262.204 L 564.882 262.204 C 556.27 262.22 549.303 269.185 549.287 277.799 L 549.287 277.799 C 549.303 286.411 556.27 293.378 564.882 293.393 L 564.882 293.393 L 564.882 293.942 L 564.882 294.49 C 555.665 294.488 548.193 287.017 548.191 277.799 L 548.191 277.799 Z M 502.388 286.237 C 501.973 283.287 501.757 280.304 501.757 277.329 L 501.757 277.329 C 501.757 275.834 501.81 274.342 501.922 272.859 L 501.922 272.859 C 502.453 265.415 504.334 258.094 507.438 251.297 L 507.438 251.297 L 507.693 250.739 L 533.783 266.435 L 533.637 266.855 C 532.435 270.282 531.775 273.962 531.775 277.799 L 531.775 277.799 C 531.775 278.227 531.79 278.657 531.808 279.094 L 531.808 279.094 L 531.824 279.538 L 503.063 286.693 L 502.473 286.838 L 502.388 286.237 L 502.388 286.237 Z M 502.931 286.162 L 503.473 286.085 L 502.931 286.162 L 502.931 286.162 Z M 503.014 272.939 C 502.905 274.396 502.852 275.86 502.852 277.329 L 502.852 277.329 C 502.852 280.048 503.036 282.778 503.391 285.483 L 503.391 285.483 L 530.699 278.691 C 530.689 278.398 530.682 278.101 530.682 277.799 L 530.682 277.799 C 530.682 273.994 531.312 270.335 532.459 266.915 L 532.459 266.915 L 508.182 252.311 C 505.281 258.831 503.519 265.829 503.014 272.939 L 503.014 272.939 Z M 594.721 263.443 C 592.906 259.674 590.392 256.307 587.354 253.496 L 587.354 253.496 L 587.028 253.193 L 602.428 227.593 L 602.744 227.068 L 603.231 227.442 C 604.293 228.256 605.342 229.097 606.355 229.985 L 606.355 229.985 C 612.208 235.112 617.103 241.32 620.69 248.193 L 620.69 248.193 C 622.005 250.702 623.14 253.299 624.1 255.961 L 624.1 255.961 L 624.306 256.531 L 594.915 263.842 L 594.721 263.443 L 594.721 263.443 Z M 595.511 262.567 L 622.86 255.764 C 621.963 253.347 620.918 250.986 619.72 248.7 L 619.72 248.7 C 616.196 241.949 611.384 235.846 605.632 230.809 L 605.632 230.809 C 604.796 230.075 603.931 229.372 603.049 228.684 L 603.049 228.684 L 588.422 252.997 C 591.308 255.736 593.718 258.969 595.511 262.567 L 595.511 262.567 Z M 514.132 239.925 L 514.499 239.44 C 516.586 236.674 518.89 234.067 521.408 231.682 L 521.408 231.682 C 527.052 226.322 533.673 222.037 540.848 219.098 L 540.848 219.098 C 541.549 218.812 542.256 218.542 542.966 218.281 L 542.966 218.281 L 543.538 218.072 L 550.925 247.767 L 550.526 247.959 C 546.758 249.775 543.389 252.288 540.58 255.327 L 540.58 255.327 L 540.276 255.653 L 514.132 239.925 L 514.132 239.925 Z M 540.08 254.258 C 542.818 251.374 546.052 248.963 549.649 247.17 L 549.649 247.17 L 542.771 219.523 C 542.264 219.713 541.76 219.909 541.263 220.112 L 541.263 220.112 C 534.214 222.999 527.706 227.211 522.163 232.476 L 522.163 232.476 L 521.786 232.08 L 522.162 232.476 C 519.837 234.677 517.695 237.075 515.741 239.616 L 515.741 239.616 L 540.08 254.258 L 540.08 254.258 Z M 575.826 246.554 C 572.398 245.353 568.717 244.693 564.882 244.693 L 564.882 244.693 C 564.454 244.693 564.023 244.709 563.587 244.725 L 563.587 244.725 L 563.143 244.742 L 555.75 215.022 L 556.354 214.939 C 558.742 214.614 561.151 214.426 563.567 214.386 L 563.567 214.386 L 563.567 214.387 C 563.987 214.378 564.406 214.373 564.828 214.373 L 564.828 214.373 C 572.174 214.373 579.495 215.653 586.394 218.172 L 586.394 218.172 C 588.105 218.797 589.788 219.501 591.438 220.272 L 591.438 220.272 L 591.989 220.528 L 576.246 246.7 L 575.826 246.554 L 575.826 246.554 Z M 575.765 245.375 L 590.423 221.009 C 588.977 220.35 587.509 219.744 586.019 219.201 L 586.019 219.201 C 579.242 216.725 572.047 215.467 564.828 215.467 L 564.828 215.467 C 564.415 215.467 564.001 215.473 563.587 215.48 L 563.587 215.48 L 563.576 214.934 L 563.584 215.481 C 561.416 215.516 559.253 215.674 557.107 215.944 L 557.107 215.944 L 563.99 243.615 C 564.283 243.605 564.58 243.598 564.881 243.598 L 564.881 243.598 C 568.687 243.599 572.345 244.228 575.765 245.375 L 575.765 245.375 Z" style="fill: rgb(30, 30, 30);"/>
</svg>