<?xml version="1.0" encoding="utf-8"?>
<svg version="1.2" baseProfile="tiny" id="Layer_3" x="0px" y="0px" width="598.191px" height="350.257px" viewBox="0 0 1280 720" xmlns="http://www.w3.org/2000/svg">
  <path d="M 459.857 533.504 C 453.987 532.668 448.283 531.194 442.667 529.48 L 442.667 529.48 L 441.999 529.277 L 441.946 528.583 C 441.616 524.475 441.462 520.323 441.462 516.188 L 441.462 516.188 C 441.462 510.159 441.792 504.157 442.396 498.374 L 442.396 498.374 C 439.027 496.913 435.805 495.146 432.596 493.342 L 432.596 493.342 C 429.594 491.375 426.431 489.508 423.555 487.128 L 423.555 487.128 C 414.888 492.532 405.629 496.969 395.714 500.508 L 395.714 500.508 L 395.114 500.723 L 394.659 500.279 C 390.409 496.154 386.634 491.565 383.119 486.872 L 383.119 486.872 L 382.697 486.308 L 383.071 485.717 C 388.581 476.932 394.396 469.023 401.223 461.564 L 401.223 461.564 C 399.38 458.424 397.695 455.193 396.312 451.787 L 396.312 451.787 C 394.629 448.394 393.731 444.807 392.555 441.443 L 392.555 441.443 C 382.651 440.671 372.195 438.894 362.15 435.919 L 362.15 435.919 L 361.531 435.736 L 361.432 435.098 C 360.529 429.334 360 423.531 360 417.681 L 360 417.681 C 360 417.582 360 417.488 360.002 417.401 L 360.002 417.401 L 360.007 416.726 L 360.629 416.466 C 369.917 412.576 379.89 409.644 389.499 407.617 L 389.499 407.617 C 389.758 403.886 390.698 400.342 391.208 396.849 L 391.208 396.849 L 391.22 396.77 L 391.241 396.696 C 392.298 393.316 392.982 389.705 394.367 386.216 L 394.367 386.216 C 386.68 379.72 379.335 372.194 373.022 363.918 L 373.022 363.918 L 372.643 363.421 L 372.911 362.86 C 375.477 357.456 378.804 352.547 382.033 347.655 L 382.033 347.655 L 382.43 347.053 L 383.13 347.228 C 393.185 349.725 402.779 353.038 411.754 357.044 L 411.754 357.044 C 414.269 354.513 416.627 351.668 419.56 349.39 L 419.56 349.39 C 422.295 346.899 425.236 344.696 428.274 342.647 L 428.274 342.647 C 425.766 332.681 424.53 322.698 424.084 311.991 L 424.084 311.991 L 424.055 311.311 L 424.673 311.022 C 429.959 308.553 435.299 305.993 441.014 304.263 L 441.014 304.263 L 441.65 304.071 L 442.087 304.577 C 448.689 312.29 454.503 320.582 459.466 329.264 L 459.466 329.264 C 463.078 328.367 466.728 328.049 470.338 327.566 L 470.338 327.566 C 473.123 327.387 475.945 327.229 478.776 327.229 L 478.776 327.229 C 479.623 327.229 480.47 327.244 481.319 327.276 L 481.319 327.276 C 485.129 318.049 490.074 308.622 495.974 300.107 L 495.974 300.107 L 496.333 299.586 L 496.957 299.678 C 502.827 300.514 508.528 301.989 514.147 303.702 L 514.147 303.702 L 514.813 303.905 L 514.868 304.6 C 515.194 308.701 515.348 312.85 515.348 316.985 L 515.348 316.985 C 515.348 323.019 515.02 329.024 514.419 334.809 L 514.419 334.809 C 517.79 336.271 521.014 338.038 524.218 339.84 L 524.218 339.84 C 527.22 341.809 530.384 343.676 533.259 346.055 L 533.259 346.055 C 541.927 340.648 551.186 336.217 561.101 332.673 L 561.101 332.673 L 561.699 332.458 L 562.156 332.902 C 566.406 337.031 570.177 341.62 573.696 346.311 L 573.696 346.311 L 574.118 346.872 L 573.744 347.468 C 568.232 356.251 562.419 364.158 555.593 371.616 L 555.593 371.616 C 557.428 374.747 559.111 377.974 560.49 381.367 L 560.49 381.367 C 562.185 384.77 563.082 388.368 564.261 391.742 L 564.261 391.742 C 574.165 392.512 584.617 394.289 594.663 397.264 L 594.663 397.264 L 595.283 397.446 L 595.382 398.086 C 596.276 403.834 596.812 409.629 596.812 415.473 L 596.812 415.473 C 596.812 415.572 596.812 415.674 596.812 415.775 L 596.812 415.775 L 596.812 416.452 L 596.183 416.716 C 586.893 420.609 576.921 423.541 567.315 425.568 L 567.315 425.568 C 567.054 429.297 566.115 432.84 565.606 436.332 L 565.606 436.332 L 565.593 436.41 L 565.569 436.486 C 564.515 439.868 563.831 443.482 562.445 446.969 L 562.445 446.969 C 570.13 453.466 577.476 460.991 583.788 469.266 L 583.788 469.266 L 584.167 469.76 L 583.9 470.324 C 581.334 475.729 578.008 480.637 574.778 485.526 L 574.778 485.526 L 574.38 486.128 L 573.68 485.954 C 563.628 483.46 554.033 480.147 545.06 476.141 L 545.06 476.141 C 542.544 478.667 540.188 481.516 537.254 483.795 L 537.254 483.795 C 534.518 486.285 531.576 488.487 528.539 490.537 L 528.539 490.537 C 531.047 500.503 532.283 510.487 532.729 521.196 L 532.729 521.196 L 532.755 521.873 L 532.14 522.162 C 526.853 524.633 521.514 527.191 515.798 528.921 L 515.798 528.921 L 515.16 529.111 L 514.726 528.607 C 508.124 520.896 502.307 512.602 497.344 503.92 L 497.344 503.92 C 493.733 504.819 490.087 505.134 486.542 505.611 L 486.542 505.611 L 486.506 505.615 L 486.47 505.62 C 483.686 505.792 480.868 505.954 478.037 505.954 L 478.037 505.954 C 477.19 505.954 476.342 505.94 475.493 505.908 L 475.493 505.908 C 471.681 515.135 466.739 524.563 460.839 533.076 L 460.839 533.076 L 460.48 533.596 L 459.857 533.504 L 459.857 533.504 Z M 459.519 531.388 C 465.302 522.953 470.157 513.594 473.876 504.469 L 473.876 504.469 L 474.148 503.796 L 474.874 503.835 C 475.922 503.888 476.977 503.908 478.038 503.908 L 478.038 503.908 C 480.77 503.908 483.523 503.753 486.275 503.582 L 486.275 503.582 C 490.139 503.069 493.959 502.74 497.577 501.749 L 497.577 501.749 L 498.345 501.536 L 498.736 502.23 C 503.612 510.855 509.337 519.099 515.845 526.766 L 515.845 526.766 C 520.915 525.169 525.773 522.886 530.659 520.599 L 530.659 520.599 C 530.181 510.004 528.914 500.167 526.382 490.342 L 526.382 490.342 L 526.202 489.637 L 526.806 489.236 C 530.001 487.113 533.064 484.845 535.941 482.232 L 535.941 482.232 C 538.881 479.954 541.312 476.954 544.121 474.191 L 544.121 474.191 L 544.62 473.702 L 545.259 473.991 C 554.092 477.982 563.558 481.292 573.475 483.797 L 573.475 483.797 C 576.467 479.277 579.45 474.799 581.786 470.008 L 581.786 470.008 C 575.504 461.859 568.196 454.436 560.563 448.051 L 560.563 448.051 L 559.98 447.561 L 560.282 446.866 C 561.744 443.472 562.448 439.706 563.598 435.964 L 563.598 435.964 C 564.175 432.089 565.174 428.38 565.322 424.685 L 565.322 424.685 L 565.356 423.888 L 566.137 423.726 C 575.651 421.764 585.555 418.899 594.772 415.093 L 594.772 415.093 C 594.75 409.719 594.27 404.369 593.468 399.042 L 593.468 399.042 C 583.546 396.159 573.212 394.445 563.45 393.727 L 563.45 393.727 L 562.79 393.679 L 562.565 393.057 C 561.223 389.35 560.329 385.599 558.659 382.273 L 558.659 382.273 L 558.642 382.239 L 558.625 382.201 C 557.199 378.672 555.415 375.304 553.452 372.008 L 553.452 372.008 L 553.062 371.35 L 553.58 370.791 C 560.377 363.444 566.155 355.66 571.644 346.978 L 571.644 346.978 C 568.413 342.704 564.985 338.558 561.191 334.816 L 561.191 334.816 C 551.395 338.364 542.263 342.789 533.717 348.183 L 533.717 348.183 L 533.075 348.587 L 532.502 348.091 C 529.666 345.633 526.364 343.686 523.16 341.588 L 523.16 341.588 C 519.806 339.703 516.425 337.858 512.93 336.398 L 512.93 336.398 L 512.224 336.104 L 512.308 335.345 C 512.955 329.4 513.306 323.207 513.306 316.989 L 513.306 316.989 C 513.306 313.138 513.171 309.277 512.887 305.459 L 512.887 305.459 C 507.746 303.911 502.571 302.591 497.297 301.796 L 497.297 301.796 C 491.514 310.236 486.659 319.594 482.94 328.718 L 482.94 328.718 L 482.666 329.39 L 481.944 329.352 C 480.893 329.299 479.837 329.277 478.78 329.277 L 478.78 329.277 C 476.023 329.277 473.247 329.431 470.544 329.604 L 470.544 329.604 C 466.68 330.12 462.86 330.447 459.238 331.44 L 459.238 331.44 L 458.47 331.648 L 458.079 330.955 C 453.205 322.331 447.479 314.087 440.972 306.421 L 440.972 306.421 C 435.898 308.017 431.041 310.301 426.157 312.587 L 426.157 312.587 C 426.635 323.183 427.9 333.018 430.434 342.844 L 430.434 342.844 L 430.617 343.546 L 430.012 343.949 C 426.813 346.074 423.752 348.341 420.877 350.955 L 420.877 350.955 C 417.936 353.235 415.504 356.233 412.693 358.996 L 412.693 358.996 L 412.194 359.485 L 411.558 359.199 C 402.723 355.209 393.262 351.898 383.342 349.389 L 383.342 349.389 C 380.35 353.908 377.367 358.387 375.029 363.179 L 375.029 363.179 C 381.311 371.328 388.621 378.749 396.252 385.136 L 396.252 385.136 L 396.835 385.622 L 396.535 386.321 C 395.074 389.714 394.37 393.482 393.219 397.224 L 393.219 397.224 C 392.64 401.097 391.641 404.805 391.495 408.501 L 391.495 408.501 L 391.461 409.299 L 390.681 409.46 C 381.167 411.422 371.26 414.288 362.043 418.093 L 362.043 418.093 C 362.066 423.468 362.541 428.814 363.348 434.146 L 363.348 434.146 C 373.269 437.03 383.604 438.74 393.367 439.457 L 393.367 439.457 L 394.024 439.506 L 394.251 440.13 C 395.591 443.833 396.487 447.589 398.155 450.912 L 398.155 450.912 L 398.172 450.945 L 398.189 450.986 C 399.617 454.511 401.398 457.879 403.365 461.18 L 403.365 461.18 L 403.756 461.832 L 403.237 462.393 C 396.441 469.745 390.659 477.529 385.173 486.211 L 385.173 486.211 C 388.401 490.484 391.832 494.63 395.624 498.372 L 395.624 498.372 C 405.421 494.828 414.553 490.398 423.097 485.005 L 423.097 485.005 L 423.738 484.603 L 424.312 485.097 C 427.148 487.555 430.452 489.503 433.654 491.602 L 433.654 491.602 C 437.011 493.483 440.391 495.328 443.886 496.792 L 443.886 496.792 L 444.587 497.084 L 444.505 497.844 C 443.859 503.785 443.506 509.975 443.506 516.19 L 443.506 516.19 C 443.506 520.042 443.64 523.904 443.928 527.73 L 443.928 527.73 C 449.069 529.276 454.245 530.596 459.519 531.388 L 459.519 531.388 Z M 449.949 464.286 C 440.156 458.277 431.819 449.272 427.407 438.43 L 427.407 438.43 C 424.357 431.526 422.916 424.121 422.916 416.675 L 422.916 416.675 C 422.916 412.533 423.362 408.379 424.233 404.262 L 424.233 404.262 C 427.004 392.893 432.938 382.486 441.837 374.876 L 441.837 374.876 C 450.525 366.985 461.932 362.467 473.375 361.279 L 473.375 361.279 C 474.983 361.131 476.599 361.06 478.221 361.06 L 478.221 361.06 C 488.208 361.063 498.307 363.797 506.871 368.896 L 506.871 368.896 C 516.663 374.908 524.998 383.913 529.407 394.755 L 529.407 394.755 C 532.46 401.656 533.901 409.061 533.901 416.507 L 533.901 416.507 C 533.901 420.647 533.456 424.798 532.588 428.923 L 532.588 428.923 C 529.815 440.292 523.882 450.695 514.981 458.305 L 514.981 458.305 C 506.294 466.202 494.885 470.717 483.456 471.904 L 483.456 471.904 L 483.35 470.887 L 483.442 471.904 C 481.833 472.049 480.216 472.12 478.594 472.12 L 478.594 472.12 C 468.605 472.118 458.506 469.385 449.949 464.286 L 449.949 464.286 Z M 473.572 363.313 C 462.53 364.458 451.518 368.832 443.188 376.409 L 443.188 376.409 C 434.626 383.729 428.896 393.746 426.224 404.713 L 426.224 404.713 C 425.388 408.666 424.958 412.679 424.958 416.675 L 424.958 416.675 C 424.958 423.86 426.35 430.979 429.289 437.628 L 429.289 437.628 C 433.515 448.032 441.553 456.741 451.006 462.536 L 451.006 462.536 C 459.215 467.432 468.978 470.078 478.594 470.076 L 478.594 470.076 C 480.151 470.076 481.703 470.009 483.245 469.87 L 483.245 469.87 L 483.245 469.868 C 494.287 468.727 505.3 464.35 513.63 456.775 L 513.63 456.775 C 522.196 449.453 527.921 439.438 530.595 428.469 L 530.595 428.469 C 531.428 424.51 531.857 420.499 531.857 416.505 L 531.857 416.505 C 531.857 409.323 530.467 402.205 527.527 395.549 L 527.527 395.549 C 523.301 385.151 515.265 376.442 505.812 370.644 L 505.812 370.644 C 497.595 365.747 487.835 363.103 478.22 363.103 L 478.22 363.103 C 476.659 363.103 475.105 363.173 473.572 363.313 L 473.572 363.313 Z" style="fill: rgb(30, 30, 30);"/>
  <path d="M 737.197 537.031 L 736.491 537.008 L 736.266 536.34 C 733.149 527.263 730.548 517.909 728.467 508.745 L 728.467 508.745 C 724.902 508.355 721.297 508.006 717.743 507.341 L 717.743 507.341 C 714.119 506.814 710.584 505.985 707.069 505.193 L 707.069 505.193 C 701.643 513.107 695.591 520.96 689.061 528.307 L 689.061 528.307 L 688.622 528.8 L 687.994 528.607 C 682.991 527.048 678.106 525.178 673.304 523.167 L 673.304 523.167 L 672.647 522.891 L 672.678 522.18 C 673.101 512.529 674.005 503.052 675.446 493.633 L 675.446 493.633 C 672.169 492.051 669.045 490.24 665.919 488.456 L 665.919 488.456 C 662.825 486.589 659.759 484.663 656.787 482.576 L 656.787 482.576 C 648.798 488.083 640.441 493.066 631.647 497.658 L 631.647 497.658 L 631.052 497.969 L 630.531 497.547 C 626.473 494.267 622.592 490.797 618.813 487.217 L 618.813 487.217 L 618.289 486.721 L 618.581 486.065 C 622.503 477.163 626.723 468.668 631.453 460.411 L 631.453 460.411 C 629.007 457.745 626.671 454.986 624.432 452.139 L 624.432 452.139 C 622.246 449.292 620.026 446.425 618.022 443.372 L 618.022 443.372 C 608.586 445.636 598.99 447.281 589.129 448.368 L 589.129 448.368 L 588.459 448.443 L 588.129 447.855 C 585.568 443.32 583.112 438.706 580.951 433.938 L 580.951 433.938 L 580.661 433.299 L 581.153 432.799 C 587.884 425.966 595.103 419.491 602.417 413.538 L 602.417 413.538 C 601.152 410.177 599.882 406.789 598.893 403.309 L 598.893 403.309 C 597.781 399.834 596.913 396.304 596.08 392.797 L 596.08 392.797 C 586.564 391.463 576.875 389.534 567.359 386.978 L 567.359 386.978 L 566.718 386.806 L 566.615 386.152 C 565.806 380.999 565.308 375.829 564.916 370.656 L 564.916 370.656 L 564.861 369.939 L 565.521 369.645 C 574.387 365.705 583.296 362.268 592.306 359.347 L 592.306 359.347 C 592.336 355.749 592.398 352.138 592.693 348.539 L 592.693 348.539 C 592.886 344.89 593.373 341.285 593.857 337.715 L 593.857 337.715 C 585.424 333.039 577.105 327.76 569.159 321.926 L 569.159 321.926 L 568.626 321.534 L 568.764 320.889 C 569.856 315.777 571.235 310.726 572.828 305.755 L 572.828 305.755 L 573.044 305.086 L 573.748 305.049 C 578.222 304.814 582.687 304.702 587.139 304.702 L 587.139 304.702 C 592.252 304.702 597.347 304.852 602.423 305.151 L 602.423 305.151 C 603.688 301.743 605.213 298.464 606.709 295.198 L 606.709 295.198 C 608.259 291.922 609.925 288.704 611.72 285.549 L 611.72 285.549 C 605.539 278.129 599.742 270.228 594.403 261.905 L 594.403 261.905 L 594.044 261.345 L 594.412 260.79 C 597.297 256.438 600.411 252.261 603.621 248.173 L 603.621 248.173 L 604.067 247.607 L 604.749 247.836 C 613.98 250.934 622.785 254.324 631.472 258.292 L 631.472 258.292 C 633.897 255.607 636.449 253.053 639.055 250.533 L 639.055 250.533 C 641.698 248.106 644.353 245.636 647.198 243.354 L 647.198 243.354 C 644.056 234.152 641.566 224.788 639.538 215.045 L 639.538 215.045 L 639.399 214.38 L 639.957 213.994 C 644.238 211.038 648.607 208.17 653.142 205.567 L 653.142 205.567 L 653.751 205.218 L 654.296 205.661 C 661.723 211.725 668.857 218.333 675.443 225.039 L 675.443 225.039 C 678.678 223.485 681.932 221.898 685.305 220.592 L 685.305 220.592 C 688.667 219.133 692.116 217.983 695.513 216.811 L 695.513 216.811 C 695.972 207.233 696.986 197.353 698.68 187.675 L 698.68 187.675 L 698.794 187.027 L 699.433 186.861 C 704.497 185.556 709.629 184.611 714.74 183.76 L 714.74 183.76 L 715.448 183.64 L 715.801 184.271 C 720.528 192.77 724.741 201.191 728.483 209.998 L 728.483 209.998 C 732.087 209.642 735.694 209.461 739.306 209.376 L 739.306 209.376 C 740.535 209.361 741.773 209.352 743.012 209.352 L 743.012 209.352 C 745.391 209.352 747.782 209.392 750.175 209.539 L 750.175 209.539 C 754.051 200.658 758.516 191.963 763.591 183.477 L 763.591 183.477 L 763.933 182.905 L 764.598 182.99 C 769.756 183.653 774.93 184.468 780.038 185.632 L 780.038 185.632 L 780.72 185.788 L 780.822 186.481 C 782.215 195.992 783.05 205.582 783.383 215.048 L 783.383 215.048 C 786.866 216.026 790.299 217.153 793.682 218.393 L 793.682 218.393 C 797.105 219.619 800.451 221.015 803.759 222.484 L 803.759 222.484 C 810.559 215.692 817.934 209.114 825.717 203.075 L 825.717 203.075 L 826.239 202.67 L 826.824 202.982 C 831.428 205.447 835.874 208.162 840.238 211.002 L 840.238 211.002 L 840.839 211.392 L 840.675 212.09 C 838.449 221.547 835.87 230.633 832.716 239.653 L 832.716 239.653 C 835.628 241.82 838.379 244.146 841.155 246.484 L 841.155 246.484 C 843.799 248.903 846.499 251.319 849.033 253.94 L 849.033 253.94 C 857.92 249.956 866.99 246.634 876.527 243.695 L 876.527 243.695 L 877.176 243.493 L 877.61 244.015 C 880.944 248.013 884.184 252.094 887.207 256.358 L 887.207 256.358 L 887.616 256.935 L 887.221 257.522 C 881.826 265.508 875.963 273.174 869.888 280.366 L 869.888 280.366 C 871.735 283.45 873.599 286.55 875.23 289.771 L 875.23 289.771 C 876.988 292.979 878.467 296.299 879.931 299.591 L 879.931 299.591 C 883.632 299.414 887.365 299.327 891.119 299.327 L 891.119 299.327 C 897.131 299.327 903.189 299.557 909.24 300.042 L 909.24 300.042 L 909.897 300.095 L 910.12 300.716 C 911.888 305.638 913.349 310.67 914.614 315.72 L 914.614 315.72 L 914.786 316.407 L 914.204 316.81 C 906.265 322.28 898.149 327.267 889.758 331.79 L 889.758 331.79 C 890.474 335.364 890.877 338.948 891.391 342.532 L 891.391 342.532 C 891.687 346.098 892.089 349.694 892.188 353.344 L 892.188 353.344 C 901.426 356.382 910.402 360.034 919.39 364.285 L 919.39 364.285 L 920 364.573 L 919.971 365.25 C 919.761 370.444 919.436 375.657 918.761 380.854 L 918.761 380.854 L 918.671 381.549 L 917.989 381.716 C 908.675 383.987 899.138 385.701 889.786 386.921 L 889.786 386.921 C 889.097 390.445 888.397 394.001 887.41 397.479 L 887.41 397.479 C 886.527 401.029 885.399 404.479 884.283 407.905 L 884.283 407.905 C 891.635 414.032 898.928 420.792 905.626 427.977 L 905.626 427.977 L 906.077 428.46 L 905.822 429.071 C 903.801 433.889 901.494 438.578 899.056 443.17 L 899.056 443.17 L 898.722 443.801 L 898.013 443.704 C 888.419 442.381 879.103 440.631 869.839 438.319 L 869.839 438.319 C 867.96 441.423 865.874 444.373 863.814 447.34 L 863.814 447.34 C 861.652 450.217 859.48 453.113 857.119 455.881 L 857.119 455.881 C 861.902 464.366 866.039 473.091 869.836 482.303 L 869.836 482.303 L 870.09 482.927 L 869.62 483.408 C 865.969 487.125 862.187 490.701 858.243 494.113 L 858.243 494.113 L 857.702 494.581 L 857.077 494.234 C 848.603 489.555 840.48 484.505 832.721 479.076 L 832.721 479.076 C 829.835 481.23 826.892 483.336 823.843 485.285 L 823.843 485.285 C 820.807 487.258 817.697 489.133 814.509 490.867 L 814.509 490.867 C 815.88 500.459 816.649 510.217 816.791 520.095 L 816.791 520.095 L 816.8 520.764 L 816.192 521.042 C 811.45 523.188 806.619 525.21 801.666 526.901 L 801.666 526.901 L 801.004 527.124 L 800.555 526.59 C 794.369 519.237 788.625 511.529 783.364 503.641 L 783.364 503.641 C 779.885 504.667 776.349 505.451 772.833 506.217 L 772.833 506.217 C 769.286 506.939 765.72 507.564 762.116 508.023 L 762.116 508.023 C 759.937 517.511 757.119 526.745 753.727 536.125 L 753.727 536.125 L 753.495 536.766 L 752.815 536.799 C 749.166 536.969 745.513 537.094 741.85 537.094 L 741.85 537.094 C 740.303 537.099 738.752 537.079 737.197 537.031 L 737.197 537.031 Z M 741.855 535.056 C 745.244 535.056 748.641 534.946 752.042 534.793 L 752.042 534.793 C 755.389 525.464 758.157 516.3 760.288 506.878 L 760.288 506.878 L 760.447 506.175 L 761.16 506.089 C 764.939 505.633 768.689 504.982 772.418 504.223 L 772.418 504.223 C 776.156 503.409 779.884 502.574 783.501 501.471 L 783.501 501.471 L 784.229 501.251 L 784.651 501.887 C 789.857 509.74 795.545 517.418 801.67 524.745 L 801.67 524.745 C 806.097 523.202 810.445 521.391 814.741 519.459 L 814.741 519.459 C 814.571 509.655 813.779 499.973 812.389 490.459 L 812.389 490.459 L 812.284 489.748 L 812.917 489.411 C 816.268 487.611 819.538 485.65 822.74 483.572 L 822.74 483.572 C 825.94 481.529 829.032 479.296 832.089 477.001 L 832.089 477.001 L 832.683 476.555 L 833.289 476.983 C 840.981 482.398 849.032 487.432 857.445 492.104 L 857.445 492.104 C 860.982 489.018 864.388 485.799 867.691 482.461 L 867.691 482.461 C 863.902 473.32 859.77 464.676 854.993 456.269 L 854.993 456.269 L 854.633 455.639 L 855.109 455.094 C 857.59 452.235 859.878 449.185 862.161 446.147 L 862.161 446.147 C 864.353 442.995 866.555 439.88 868.478 436.628 L 868.478 436.628 L 868.866 435.971 L 869.605 436.157 C 878.806 438.483 888.057 440.247 897.59 441.585 L 897.59 441.585 C 899.78 437.428 901.85 433.206 903.685 428.892 L 903.685 428.892 C 897.017 421.789 889.757 415.097 882.45 409.036 L 882.45 409.036 L 881.915 408.591 L 882.131 407.932 C 883.319 404.284 884.518 400.663 885.442 396.956 L 885.442 396.956 C 886.474 393.324 887.191 389.576 887.928 385.811 L 887.928 385.811 L 888.069 385.088 L 888.803 384.993 C 898.089 383.807 907.572 382.126 916.829 379.899 L 916.829 379.899 C 917.404 375.243 917.707 370.55 917.909 365.846 L 917.909 365.846 C 908.971 361.646 900.052 358.051 890.871 355.065 L 890.871 355.065 L 890.175 354.837 L 890.163 354.106 C 890.11 350.341 889.683 346.547 889.368 342.765 L 889.368 342.765 C 888.816 338.946 888.397 335.158 887.609 331.468 L 887.609 331.468 L 887.449 330.716 L 888.126 330.354 C 896.482 325.879 904.562 320.947 912.466 315.53 L 912.466 315.53 C 911.306 310.977 909.985 306.455 908.422 302.031 L 908.422 302.031 C 902.644 301.587 896.862 301.372 891.121 301.372 L 891.121 301.372 C 887.165 301.372 883.23 301.471 879.335 301.668 L 879.335 301.668 L 878.634 301.702 L 878.352 301.064 C 876.79 297.555 875.256 294.064 873.426 290.726 L 873.426 290.726 C 871.717 287.347 869.737 284.086 867.764 280.79 L 867.764 280.79 L 867.388 280.162 L 867.862 279.605 C 873.913 272.481 879.754 264.878 885.134 256.965 L 885.134 256.965 C 882.402 253.151 879.487 249.47 876.479 245.849 L 876.479 245.849 C 867.013 248.793 858.026 252.116 849.217 256.1 L 849.217 256.1 L 848.553 256.4 L 848.053 255.872 C 845.454 253.128 842.612 250.584 839.811 248.022 L 839.811 248.022 C 836.87 245.546 833.964 243.088 830.903 240.853 L 830.903 240.853 L 830.286 240.404 L 830.542 239.689 C 833.707 230.734 836.292 221.716 838.523 212.323 L 838.523 212.323 C 834.572 209.768 830.567 207.329 826.449 205.098 L 826.449 205.098 C 818.745 211.113 811.439 217.664 804.712 224.423 L 804.712 224.423 L 804.214 224.923 L 803.57 224.635 C 800.083 223.075 796.57 221.597 792.988 220.314 L 792.988 220.314 C 789.41 219.001 785.788 217.825 782.119 216.816 L 782.119 216.816 L 781.391 216.615 L 781.368 215.863 C 781.063 206.457 780.258 196.925 778.902 187.471 L 778.902 187.471 C 774.32 186.455 769.665 185.713 765.002 185.101 L 765.002 185.101 C 759.989 193.541 755.582 202.184 751.76 211.014 L 751.76 211.014 L 751.472 211.678 L 750.751 211.625 C 748.187 211.443 745.604 211.395 743.012 211.395 L 743.012 211.395 C 741.783 211.395 740.555 211.404 739.341 211.419 L 739.341 211.419 C 735.528 211.507 731.727 211.706 727.947 212.108 L 727.947 212.108 L 727.19 212.188 L 726.896 211.489 C 723.203 202.726 719.045 194.352 714.364 185.894 L 714.364 185.894 C 709.733 186.674 705.118 187.536 700.581 188.679 L 700.581 188.679 C 698.929 198.282 697.954 208.095 697.522 217.595 L 697.522 217.595 L 697.491 218.289 L 696.839 218.515 C 693.207 219.772 689.58 220.963 686.082 222.481 L 686.082 222.481 C 682.556 223.845 679.137 225.535 675.671 227.198 L 675.671 227.198 L 675.01 227.513 L 674.499 226.989 C 667.98 220.32 660.907 213.738 653.553 207.691 L 653.553 207.691 C 649.497 210.046 645.56 212.62 641.679 215.29 L 641.679 215.29 C 643.716 224.963 646.216 234.25 649.366 243.371 L 649.366 243.371 L 649.604 244.06 L 649.031 244.509 C 646.057 246.843 643.265 249.441 640.456 252.02 L 640.456 252.02 C 637.707 254.682 635.017 257.376 632.493 260.212 L 632.493 260.212 L 631.989 260.779 L 631.302 260.462 C 622.686 256.49 613.952 253.102 604.781 250.003 L 604.781 250.003 C 601.889 253.705 599.091 257.47 596.484 261.362 L 596.484 261.362 C 601.805 269.613 607.583 277.438 613.741 284.784 L 613.741 284.784 L 614.199 285.33 L 613.842 285.949 C 611.943 289.253 610.184 292.627 608.559 296.06 L 608.559 296.06 C 606.96 299.551 605.352 303.01 604.081 306.563 L 604.081 306.563 L 603.824 307.285 L 603.057 307.236 C 597.771 306.911 592.462 306.746 587.138 306.746 L 587.138 306.746 C 582.954 306.746 578.761 306.846 574.56 307.052 L 574.56 307.052 C 573.142 311.536 571.904 316.082 570.903 320.671 L 570.903 320.671 C 578.804 326.434 587.075 331.65 595.456 336.264 L 595.456 336.264 L 596.07 336.601 L 595.975 337.297 C 595.462 341.096 594.932 344.878 594.73 348.677 L 594.73 348.677 C 594.419 352.456 594.371 356.265 594.342 360.1 L 594.342 360.1 L 594.338 360.84 L 593.634 361.066 C 584.68 363.942 575.826 367.328 567.009 371.219 L 567.009 371.219 C 567.372 375.9 567.83 380.556 568.531 385.175 L 568.531 385.175 C 577.984 387.685 587.609 389.572 597.052 390.869 L 597.052 390.869 L 597.745 390.964 L 597.907 391.646 C 598.787 395.371 599.688 399.081 600.85 402.717 L 600.85 402.717 C 601.885 406.353 603.236 409.917 604.591 413.505 L 604.591 413.505 L 604.853 414.194 L 604.279 414.659 C 597 420.552 589.81 426.966 583.107 433.732 L 583.107 433.732 C 585.07 437.992 587.27 442.154 589.578 446.26 L 589.578 446.26 C 599.366 445.155 608.888 443.491 618.247 441.216 L 618.247 441.216 L 618.953 441.042 L 619.348 441.657 C 621.388 444.836 623.719 447.85 626.048 450.887 L 626.048 450.887 C 628.403 453.878 630.873 456.779 633.464 459.574 L 633.464 459.574 L 633.976 460.124 L 633.599 460.779 C 628.877 468.966 624.661 477.391 620.745 486.23 L 620.745 486.23 C 624.168 489.451 627.664 492.574 631.297 495.535 L 631.297 495.535 C 640.02 490.952 648.303 485.982 656.213 480.49 L 656.213 480.49 L 656.805 480.079 L 657.391 480.496 C 660.48 482.702 663.702 484.73 666.956 486.695 L 666.956 486.695 C 670.288 488.597 673.584 490.506 677.01 492.112 L 677.01 492.112 L 677.704 492.434 L 677.585 493.193 C 676.123 502.551 675.197 511.966 674.754 521.557 L 674.754 521.557 C 679.097 523.363 683.499 525.038 687.976 526.456 L 687.976 526.456 C 694.431 519.146 700.416 511.333 705.777 503.469 L 705.777 503.469 L 706.167 502.894 L 706.844 503.047 C 710.599 503.891 714.305 504.777 718.081 505.327 L 718.081 505.327 C 721.788 506.021 725.592 506.368 729.417 506.792 L 729.417 506.792 L 730.141 506.871 L 730.303 507.582 C 732.345 516.681 734.905 525.982 737.971 535.008 L 737.971 535.008 C 739.261 535.042 740.556 535.056 741.855 535.056 L 741.855 535.056 Z M 723.003 475.472 L 723.168 474.464 L 723.001 475.47 C 712.823 473.788 702.882 470.717 693.48 466.43 L 693.48 466.43 L 692.436 465.954 L 721.231 418.091 L 722.018 418.366 C 728.415 420.607 735.286 421.839 742.447 421.839 L 742.447 421.839 C 743.244 421.839 744.048 421.811 744.861 421.778 L 744.861 421.778 L 745.69 421.745 L 759.15 475.832 L 758.02 475.986 C 752.797 476.688 747.531 477.036 742.27 477.036 L 742.27 477.036 C 735.802 477.036 729.347 476.508 723.003 475.472 L 723.003 475.472 Z M 742.268 474.995 C 747.056 474.995 751.852 474.701 756.613 474.107 L 756.613 474.107 L 744.109 423.849 C 743.561 423.869 743.009 423.881 742.447 423.881 L 742.447 423.881 C 735.343 423.881 728.512 422.707 722.129 420.563 L 722.129 420.563 L 695.375 465.04 C 704.305 469.01 713.715 471.863 723.335 473.456 L 723.335 473.456 L 723.335 473.456 C 729.571 474.477 735.915 474.995 742.268 474.995 L 742.268 474.995 Z M 768.496 416.103 L 769.244 415.742 C 776.28 412.353 782.565 407.661 787.813 401.991 L 787.813 401.991 L 788.377 401.38 L 836.291 430.206 L 835.593 431.115 C 827.435 441.723 817.473 450.93 806.274 458.184 L 806.274 458.184 C 798.975 462.913 791.161 466.785 783.02 469.782 L 783.02 469.782 L 781.948 470.174 L 768.496 416.103 L 768.496 416.103 Z M 783.38 467.466 C 791.001 464.578 798.314 460.906 805.162 456.469 L 805.162 456.469 C 815.843 449.552 825.387 440.819 833.271 430.773 L 833.271 430.773 L 788.741 403.985 C 783.629 409.37 777.594 413.87 770.88 417.215 L 770.88 417.215 L 783.38 467.466 L 783.38 467.466 Z M 671.355 453.235 C 663.312 447.154 656.034 440.056 649.808 432.141 L 649.808 432.141 C 642.332 422.658 636.386 412.033 632.156 400.757 L 632.156 400.757 L 631.753 399.682 L 686.384 386.092 L 686.744 386.841 C 690.133 393.874 694.825 400.159 700.494 405.407 L 700.494 405.407 L 701.105 405.969 L 672.847 452.946 L 672.259 453.919 L 671.355 453.235 L 671.355 453.235 Z M 671.971 452.421 L 672.587 451.605 L 671.971 452.421 L 671.971 452.421 Z M 651.415 430.876 C 657.295 438.354 664.137 445.092 671.687 450.914 L 671.687 450.914 L 698.502 406.335 C 693.117 401.223 688.617 395.188 685.272 388.474 L 685.272 388.474 L 634.479 401.112 C 638.607 411.794 644.307 421.865 651.415 430.876 L 651.415 430.876 Z M 800.497 381.254 L 800.771 380.469 C 803.013 374.074 804.245 367.204 804.245 360.041 L 804.245 360.041 C 804.245 359.242 804.217 358.44 804.184 357.626 L 804.184 357.626 L 804.151 356.797 L 858.888 343.178 L 859.039 344.31 C 859.114 344.887 859.221 345.492 859.293 346.137 L 859.293 346.137 C 859.776 350.53 860.017 354.936 860.017 359.335 L 860.017 359.335 C 860.017 369.443 858.738 379.513 856.172 389.274 L 856.172 389.274 C 854.388 396.079 851.968 402.722 848.986 409.107 L 848.986 409.107 L 848.503 410.136 L 800.497 381.254 L 800.497 381.254 Z M 847.61 407.211 C 850.322 401.252 852.538 395.073 854.197 388.756 L 854.197 388.756 C 856.717 379.166 857.973 369.271 857.973 359.336 L 857.973 359.336 C 857.973 355.013 857.736 350.68 857.263 346.37 L 857.263 346.37 C 857.239 346.154 857.209 345.936 857.176 345.711 L 857.176 345.711 L 806.255 358.379 C 806.275 358.926 806.287 359.48 806.287 360.042 L 806.287 360.042 C 806.287 367.146 805.113 373.976 802.971 380.361 L 802.971 380.361 L 847.61 407.211 L 847.61 407.211 Z M 711.29 360.041 C 711.293 342.834 725.241 328.888 742.447 328.885 L 742.447 328.885 C 759.652 328.888 773.603 342.834 773.603 360.041 L 773.603 360.041 C 773.603 377.246 759.653 391.193 742.447 391.197 L 742.447 391.197 L 742.447 390.175 L 742.447 389.15 C 758.526 389.122 771.528 376.116 771.556 360.041 L 771.556 360.041 C 771.528 343.963 758.526 330.959 742.447 330.93 L 742.447 330.93 C 726.37 330.959 713.365 343.961 713.336 360.041 L 713.336 360.041 C 713.365 376.116 726.37 389.122 742.447 389.15 L 742.447 389.15 L 742.447 390.175 L 742.447 391.197 C 725.241 391.193 711.293 377.247 711.29 360.041 L 711.29 360.041 Z M 625.792 375.791 C 625.016 370.284 624.614 364.716 624.614 359.163 L 624.614 359.163 C 624.614 356.373 624.713 353.588 624.922 350.82 L 624.922 350.82 C 625.912 336.923 629.423 323.258 635.217 310.571 L 635.217 310.571 L 635.693 309.529 L 684.395 338.827 L 684.122 339.612 C 681.879 346.009 680.647 352.878 680.647 360.041 L 680.647 360.041 C 680.647 360.839 680.674 361.642 680.708 362.457 L 680.708 362.457 L 680.739 363.286 L 627.051 376.643 L 625.95 376.914 L 625.792 375.791 L 625.792 375.791 Z M 626.805 375.651 L 627.816 375.508 L 626.805 375.651 L 626.805 375.651 Z M 626.96 350.968 C 626.756 353.688 626.657 356.422 626.657 359.163 L 626.657 359.163 C 626.657 364.239 627 369.334 627.664 374.384 L 627.664 374.384 L 678.638 361.706 C 678.619 361.159 678.606 360.604 678.606 360.041 L 678.606 360.041 C 678.606 352.938 679.782 346.107 681.923 339.723 L 681.923 339.723 L 636.606 312.462 C 631.192 324.634 627.903 337.696 626.96 350.968 L 626.96 350.968 Z M 798.147 333.243 C 794.758 326.208 790.065 319.922 784.395 314.675 L 784.395 314.675 L 783.786 314.109 L 812.533 266.322 L 813.123 265.342 L 814.032 266.04 C 816.014 267.561 817.972 269.131 819.863 270.787 L 819.863 270.787 C 830.789 280.358 839.925 291.946 846.622 304.776 L 846.622 304.776 C 849.077 309.46 851.195 314.307 852.987 319.276 L 852.987 319.276 L 853.371 320.34 L 798.509 333.988 L 798.147 333.243 L 798.147 333.243 Z M 799.621 331.607 L 850.673 318.909 C 848.997 314.397 847.047 309.989 844.811 305.723 L 844.811 305.723 C 838.232 293.121 829.251 281.728 818.514 272.325 L 818.514 272.325 C 816.953 270.956 815.338 269.643 813.691 268.359 L 813.691 268.359 L 786.388 313.744 C 791.775 318.856 796.273 324.892 799.621 331.607 L 799.621 331.607 Z M 647.714 289.343 L 648.398 288.438 C 652.294 283.273 656.595 278.407 661.295 273.955 L 661.295 273.955 C 671.83 263.95 684.19 255.952 697.583 250.465 L 697.583 250.465 C 698.892 249.932 700.211 249.427 701.537 248.941 L 701.537 248.941 L 702.605 248.551 L 716.394 303.98 L 715.648 304.339 C 708.615 307.73 702.327 312.42 697.082 318.092 L 697.082 318.092 L 696.515 318.701 L 647.714 289.343 L 647.714 289.343 Z M 696.149 316.098 C 701.26 310.714 707.297 306.213 714.012 302.866 L 714.012 302.866 L 701.172 251.258 C 700.226 251.613 699.286 251.979 698.357 252.359 L 698.357 252.359 C 685.199 257.747 673.052 265.609 662.704 275.438 L 662.704 275.438 L 662 274.698 L 662.702 275.438 C 658.362 279.547 654.365 284.022 650.716 288.766 L 650.716 288.766 L 696.149 316.098 L 696.149 316.098 Z M 762.875 301.716 C 756.477 299.474 749.606 298.242 742.447 298.242 L 742.447 298.242 C 741.648 298.242 740.844 298.273 740.03 298.303 L 740.03 298.303 L 739.2 298.334 L 725.4 242.856 L 726.527 242.701 C 730.986 242.095 735.483 241.745 739.992 241.67 L 739.992 241.67 L 739.992 241.672 C 740.775 241.655 741.559 241.646 742.345 241.646 L 742.345 241.646 C 756.059 241.646 769.725 244.035 782.603 248.736 L 782.603 248.736 C 785.797 249.903 788.937 251.217 792.018 252.656 L 792.018 252.656 L 793.047 253.134 L 763.659 301.989 L 762.875 301.716 L 762.875 301.716 Z M 762.761 299.516 L 790.123 254.032 C 787.423 252.803 784.684 251.671 781.903 250.657 L 781.903 250.657 C 769.252 246.036 755.821 243.688 742.345 243.688 L 742.345 243.688 C 741.575 243.688 740.803 243.698 740.029 243.712 L 740.029 243.712 L 740.009 242.693 L 740.023 243.714 C 735.977 243.779 731.94 244.073 727.933 244.578 L 727.933 244.578 L 740.781 296.231 C 741.329 296.212 741.882 296.199 742.444 296.199 L 742.444 296.199 C 749.549 296.201 756.378 297.374 762.761 299.516 L 762.761 299.516 Z" style="fill: rgb(30, 30, 30);"/>
</svg>