<?xml version="1.0" encoding="utf-8"?>
<svg id="Layer_2" width="1606.03" height="447.53" viewBox="0 0 1606.03 447.53" xmlns="http://www.w3.org/2000/svg">
  <g transform="matrix(1, 0, 0, 1, -291.049988, -9.000006)">
    <g id="g236">
      <path d="m 1873.1,447.11 c -0,-0.005 -36,-44.438 -56.767,-70.271 -6.948,-8.647 -12.102,-15.091 -13.915,-17.459 -2.52,-3.319 -4.314,-5.711 -5.493,-6.885 -1.24,-1.194 -1.428,-1.258 -2.363,-1.588 -0.648,-0.195 -1.811,-0.406 -3.803,-0.406 h -85.001 c -2.765,0 -5.47,-1.118 -7.423,-3.074 -1.955,-1.955 -3.076,-4.66 -3.076,-7.425 v -12.501 h -73.999 c -2.767,0 -5.47,-1.121 -7.425,-3.074 -1.955,-1.955 -3.076,-4.66 -3.076,-7.425 v -57.001 c 0,-2.765 1.121,-5.47 3.076,-7.425 1.955,-1.955 4.658,-3.074 7.425,-3.074 l 74.999,-0.002 v -1.999 h -77 c -2.765,0 -5.47,-1.119 -7.425,-3.074 -1.953,-1.955 -3.074,-4.66 -3.074,-7.425 v -54 c 0,-2.765 1.121,-5.47 3.074,-7.425 1.955,-1.956 4.66,-3.074 7.425,-3.074 l 74.998,-0.002 v -1.999 h -90 v 169.5 c 0,2.765 -1.118,5.467 -3.074,7.423 -1.955,1.955 -4.658,3.076 -7.423,3.076 h -64.501 c -2.765,0 -5.47,-1.118 -7.425,-3.074 -1.953,-1.955 -3.074,-4.66 -3.074,-7.425 l -0,-189.5 h -4.5 v 189.5 c 0,2.765 -1.118,5.467 -3.074,7.423 -1.955,1.955 -4.658,3.076 -7.423,3.076 h -157.5 c -2.767,0 -5.47,-1.118 -7.425,-3.074 -1.955,-1.955 -3.076,-4.66 -3.076,-7.425 v -135.5 c 0,-2.765 1.121,-5.47 3.076,-7.425 1.955,-1.956 4.658,-3.076 7.425,-3.076 h 81.998 v -99.5 h -101.5 v 246.5 c 0,2.765 -1.121,5.47 -3.076,7.426 -1.953,1.953 -4.658,3.074 -7.423,3.074 h -122.5 c -2.767,0 -5.47,-1.119 -7.425,-3.074 -1.956,-1.956 -3.076,-4.661 -3.076,-7.426 v -36 c 0,-2.765 1.12,-5.47 3.076,-7.425 1.955,-1.955 4.658,-3.074 7.425,-3.074 l 47.499,-0.002 V 169 h -124 v 125.5 h 45.502 c 2.765,0 5.47,1.119 7.425,3.074 1.956,1.955 3.074,4.66 3.074,7.425 v 36 c 0,2.765 -1.121,5.47 -3.076,7.426 -1.956,1.953 -4.658,3.074 -7.423,3.074 h -111.5 c -3.131,-0.015 -6.659,-0.019 -10.691,-0.915 -4.014,-0.871 -8.395,-2.879 -12.111,-6.086 -0.648,-0.564 -0.848,-0.787 -1.191,-1.128 -0.312,-0.321 -0.642,-0.668 -1.022,-1.073 -0.752,-0.805 -1.694,-1.829 -2.824,-3.076 -2.258,-2.49 -5.264,-5.846 -8.773,-9.793 -7.02,-7.889 -16.051,-18.124 -24.98,-28.272 -17.86,-20.297 -35.305,-40.239 -35.308,-40.243 -2.712,-3.098 -3.36,-7.504 -1.659,-11.252 1.7,-3.75 5.444,-6.161 9.562,-6.161 h 68.999 V 170 h -87.999 v 170 c 0,2.765 -1.121,5.467 -3.076,7.423 -1.953,1.955 -4.658,3.076 -7.423,3.076 h -64 c -2.767,0 -5.47,-1.121 -7.425,-3.076 -1.956,-1.956 -3.076,-4.658 -3.076,-7.423 V 107.96 c 0,-2.765 1.121,-5.47 3.076,-7.425 1.956,-1.953 4.658,-3.074 7.425,-3.074 h 85.497 v -4.5 h -195.42 v 4.5 h 84.001 c 2.765,0 5.47,1.121 7.423,3.074 1.955,1.956 3.076,4.661 3.076,7.425 v 232 c 0,2.765 -1.121,5.467 -3.076,7.423 -1.953,1.958 -4.658,3.076 -7.423,3.076 H 778.34 c -2.765,0 -5.467,-1.118 -7.422,-3.074 -1.956,-1.955 -3.077,-4.66 -3.077,-7.425 v -13.503 h -76 c -2.765,0 -5.469,-1.118 -7.422,-3.073 -1.956,-1.953 -3.077,-4.658 -3.077,-7.423 V 258.96 c 0,-2.768 1.121,-5.47 3.074,-7.425 1.956,-1.956 4.66,-3.074 7.425,-3.074 l 76,-0.003 v -2.498 h -76.5 c -2.765,0 -5.47,-1.121 -7.425,-3.074 -1.955,-1.956 -3.074,-4.661 -3.074,-7.426 v -53.5 c 0,-2.765 1.119,-5.47 3.074,-7.425 1.956,-1.956 4.661,-3.076 7.425,-3.076 h 77 v -3.001 h -91.5 v 171.5 c 0,2.765 -1.121,5.467 -3.076,7.423 -1.956,1.958 -4.658,3.076 -7.423,3.076 h -67 c -1.116,-0.005 -2.322,-0.027 -3.769,-0.247 -1.435,-0.209 -3.058,-0.686 -4.372,-1.282 -2.675,-1.247 -3.996,-2.313 -6.185,-3.734 -1.142,-0.783 -1.568,-1.258 -1.983,-1.666 -0.39,-0.403 -0.665,-0.729 -0.929,-1.046 -0.513,-0.628 -0.951,-1.222 -1.435,-1.897 -0.951,-1.335 -2.036,-2.962 -3.314,-4.942 -2.549,-3.95 -5.839,-9.267 -9.653,-15.548 -7.623,-12.553 -17.31,-28.923 -26.856,-45.199 -19.089,-32.545 -37.595,-64.685 -37.604,-64.696 -1.873,-3.253 -1.868,-7.249 0.009,-10.497 1.877,-3.246 5.339,-5.243 9.089,-5.243 l 81.5,-0.002 v -100 h -99.58 l -1.438,245.56 c -0.034,5.735 -4.702,10.403 -10.437,10.439 -0.03,0 -82.435,0.5 -86.062,0.5 -6.281,0.014 -11.354,-2.072 -14.664,-4.182 -3.172,-2.012 -4.93,-4.003 -5.549,-4.748 l -0.001,0.001 -76.876,-92.877 v 0.002 c -3.698,-4.468 -3.074,-11.089 1.394,-14.784 4.468,-3.697 11.086,-3.074 14.784,1.395 l 76.744,92.714 c 0.099,0.093 0.351,0.313 0.708,0.536 0.752,0.452 1.74,0.931 3.461,0.944 1.632,0 23.213,-0.126 44.249,-0.25 11.746,-0.07 23.342,-0.14 31.311,-0.188 l 1.44,-245.62 c 0.032,-5.768 4.731,-10.438 10.499,-10.438 h 120.5 c 2.765,0 5.469,1.119 7.422,3.074 1.956,1.956 3.077,4.661 3.077,7.425 v 121 c 0,2.765 -1.121,5.47 -3.077,7.425 -1.953,1.953 -4.658,3.074 -7.422,3.074 h -73.809 c 3.11,5.373 6.855,11.833 10.976,18.918 11.49,19.761 25.895,44.396 37.511,63.808 7.721,12.91 14.289,23.618 17.663,28.632 0.464,0.697 0.882,1.293 1.182,1.709 0.615,0.409 1.095,0.723 1.425,0.934 0.017,10e-4 0.034,10e-4 0.052,10e-4 2.599,-0.002 38.303,-0.003 56.499,-0.002 v -171.5 c 0,-2.765 1.121,-5.47 3.077,-7.423 1.956,-1.956 4.658,-3.077 7.425,-3.077 h 112.5 c 2.765,0 5.467,1.121 7.423,3.077 1.955,1.953 3.076,4.658 3.076,7.423 v 24.001 c 0,2.765 -1.121,5.47 -3.076,7.423 -1.956,1.955 -4.658,3.076 -7.423,3.076 h -77.002 v 32.5 h 76.5 c 2.765,0 5.47,1.121 7.425,3.076 1.956,1.955 3.077,4.658 3.077,7.425 v 23.5 c 0,2.765 -1.121,5.467 -3.077,7.423 -1.956,1.958 -4.661,3.076 -7.425,3.076 l -76,-0.002 v 36.002 h 76 c 2.765,0 5.47,1.121 7.425,3.076 1.956,1.956 3.077,4.658 3.077,7.426 v 13.497 h 43.498 v -211 h -83.998 c -2.765,0 -5.47,-1.119 -7.425,-3.074 -1.956,-1.956 -3.077,-4.661 -3.077,-7.425 V 82.445 c 0,-2.767 1.121,-5.47 3.077,-7.425 1.956,-1.956 4.661,-3.077 7.425,-3.077 h 216.5 c 2.765,0 5.47,1.121 7.425,3.077 1.956,1.955 3.074,4.658 3.074,7.425 v 25.499 c 0,2.765 -1.118,5.47 -3.074,7.425 -1.955,1.955 -4.66,3.076 -7.425,3.076 h -85.5 v 211 h 43.001 v -170 c 0,-2.765 1.121,-5.47 3.076,-7.425 1.956,-1.956 4.661,-3.076 7.425,-3.076 h 109 c 2.765,0 5.47,1.121 7.425,3.076 1.955,1.956 3.074,4.661 3.074,7.425 v 94.5 c 0,2.765 -1.121,5.468 -3.076,7.423 -1.953,1.955 -4.658,3.076 -7.423,3.076 h -56.342 c 4.75,5.417 10.236,11.667 15.898,18.108 16.278,18.516 34.146,38.746 39.771,44.816 0.504,0.547 0.932,0.995 1.141,1.211 1.172,0.931 1.792,1.164 2.972,1.467 1.218,0.291 3.188,0.41 6.059,0.398 4.831,-0.002 74.167,-0.002 101,-0.001 v -15 h -45.502 c -2.765,0 -5.47,-1.121 -7.423,-3.074 -1.956,-1.956 -3.077,-4.661 -3.077,-7.426 v -146.5 c 0,-2.767 1.121,-5.47 3.077,-7.425 1.953,-1.956 4.658,-3.076 7.423,-3.076 h 145 c 2.765,0 5.47,1.121 7.423,3.076 1.956,1.956 3.077,4.658 3.077,7.425 v 146.5 c 0,2.765 -1.121,5.47 -3.077,7.426 -1.955,1.953 -4.658,3.074 -7.423,3.074 h -47.503 v 14.999 h 101.5 v -246.5 c 0,-2.765 1.119,-5.47 3.074,-7.425 1.956,-1.956 4.661,-3.074 7.426,-3.074 h 122.5 c 2.765,0 5.47,1.119 7.425,3.074 1.956,1.956 3.074,4.661 3.074,7.425 v 120.5 c 0,2.765 -1.118,5.47 -3.074,7.423 -1.955,1.955 -4.66,3.076 -7.425,3.076 h -82.002 v 114.5 h 136.5 v -189.5 c 0,-2.765 1.121,-5.47 3.076,-7.423 1.955,-1.956 4.658,-3.077 7.425,-3.077 h 25.499 c 2.765,0 5.47,1.121 7.425,3.077 1.956,1.955 3.074,4.658 3.074,7.423 v 189.5 h 43.501 v -169.5 c 0,-2.765 1.121,-5.47 3.076,-7.425 1.956,-1.955 4.658,-3.074 7.425,-3.074 h 111 c 2.765,0 5.47,1.119 7.425,3.074 1.956,1.956 3.074,4.661 3.074,7.425 v 23 c 0,2.765 -1.118,5.47 -3.074,7.425 -1.955,1.953 -4.66,3.074 -7.425,3.074 h -75.001 v 33.001 h 77.002 c 2.765,0 5.47,1.119 7.426,3.074 1.953,1.956 3.073,4.661 3.073,7.426 v 22.999 c 0,2.765 -1.12,5.47 -3.076,7.426 -1.955,1.953 -4.658,3.074 -7.423,3.074 h -75.003 v 36 h 74.001 c 2.765,0 5.47,1.12 7.426,3.076 1.955,1.955 3.074,4.658 3.074,7.425 v 12.499 c 21.961,-10e-4 71.016,-10e-4 74.501,-10e-4 3.425,0.003 6.657,0.351 9.761,1.268 3.093,0.901 5.967,2.431 8.28,4.234 4.663,3.705 7.15,7.597 10.3,11.62 1.059,1.39 4.34,5.514 8.773,11.043 4.449,5.552 10.125,12.605 16.223,20.166 12.196,15.123 26.074,32.282 35.224,43.588 6.1,7.537 10.089,12.459 10.1,12.473 3.649,4.507 2.955,11.118 -1.55,14.769 -1.945,1.575 -4.282,2.341 -6.604,2.341 -3.2,0 -6.2,-1.32 -8.3,-3.89 z" id="path238" style="fill: none;"/>
      <path d="M 1881.3 456.5 C 1876.662 456.508 1872.012 454.466 1868.861 450.572 L 1868.862 450.57 C 1868.668 450.332 1832.808 406.065 1812.082 380.284 C 1805.119 371.617 1799.993 365.212 1798.073 362.705 C 1795.662 359.506 1793.802 357.109 1793.138 356.449 C 1793.005 356.322 1792.893 356.217 1792.803 356.134 C 1792.722 356.119 1792.615 356.103 1792.481 356.086 C 1792.128 356.042 1791.583 355.999 1790.795 356.001 L 1705.793 356.001 C 1701.545 355.992 1697.492 354.317 1694.481 351.315 C 1691.481 348.303 1689.804 344.253 1689.793 340.002 L 1689.793 333.002 L 1621.295 333.002 C 1617.042 332.99 1612.994 331.312 1609.981 328.316 C 1609.918 328.253 1609.856 328.188 1609.793 328.124 L 1609.793 340.002 C 1609.783 344.249 1608.107 348.302 1605.107 351.314 C 1602.095 354.311 1598.047 355.993 1593.795 356.002 L 1529.294 356.002 C 1525.046 355.993 1520.993 354.318 1517.978 351.314 C 1517.459 350.793 1516.981 350.24 1516.543 349.662 C 1516.105 350.241 1515.625 350.793 1515.106 351.314 C 1512.094 354.311 1508.046 355.993 1503.794 356.002 L 1346.294 356.002 C 1342.046 355.993 1337.993 354.318 1334.98 351.316 C 1333.457 349.786 1332.274 347.988 1331.477 346.031 C 1330.701 348.375 1329.386 350.528 1327.607 352.316 C 1324.595 355.313 1320.547 356.992 1316.295 357.002 L 1193.795 357.002 C 1189.546 356.992 1185.493 355.316 1182.482 352.316 C 1180.432 350.256 1179 347.713 1178.294 344.954 C 1177.589 347.715 1176.155 350.258 1174.104 352.321 C 1171.095 355.311 1167.047 356.992 1162.795 357.002 L 1051.265 357.002 C 1048.151 356.983 1044.101 357 1039.434 355.961 C 1034.53 354.89 1029.383 352.523 1024.877 348.649 C 1024.117 347.995 1023.641 347.493 1023.425 347.28 L 1023.386 347.241 L 1023.349 347.202 C 1023.012 346.855 1022.661 346.486 1022.258 346.055 C 1021.48 345.225 1020.519 344.182 1019.374 342.918 C 1017.097 340.406 1014.083 337.042 1010.567 333.086 C 1003.536 325.185 994.5 314.944 985.566 304.791 C 967.7 284.487 950.254 264.543 950.249 264.539 C 949.709 263.921 949.223 263.269 948.791 262.59 L 948.791 340.003 C 948.782 344.255 947.101 348.303 944.105 351.315 C 941.094 354.314 937.043 355.994 932.794 356.003 L 868.793 356.003 C 864.541 355.994 860.49 354.313 857.479 351.315 C 856.859 350.692 856.296 350.025 855.792 349.322 C 855.29 350.024 854.728 350.689 854.11 351.31 C 851.094 354.319 847.04 355.994 842.794 356.002 L 778.054 356.002 C 773.806 355.993 769.754 354.316 766.742 351.316 C 763.744 348.304 762.063 344.254 762.054 340.003 L 762.054 332.001 L 691.555 332.001 C 688.108 331.993 684.791 330.89 682.055 328.872 L 682.055 340.003 C 682.046 344.255 680.365 348.303 677.369 351.312 C 674.355 354.317 670.303 355.994 666.056 356.002 L 599.032 356.002 C 597.86 355.997 596.301 355.972 594.493 355.697 C 592.47 355.394 590.502 354.813 588.592 353.958 C 585.411 352.477 583.643 351.082 581.735 349.851 L 581.675 349.815 L 581.618 349.773 C 580.184 348.817 579.139 347.749 578.891 347.494 L 578.841 347.446 L 578.793 347.395 C 578.272 346.858 577.871 346.381 577.562 346.007 C 576.943 345.248 576.422 344.541 575.906 343.821 C 574.877 342.374 573.753 340.688 572.45 338.668 C 569.851 334.643 566.544 329.299 562.717 322.994 C 555.068 310.396 545.371 294.012 535.817 277.722 C 518.728 248.586 502.098 219.764 498.793 214.032 L 498.055 340.092 C 497.989 348.85 490.924 355.922 482.136 355.999 L 482.09 355.999 C 482.051 355.999 481.992 355.999 481.914 356.001 C 481.756 356.001 481.524 356.004 481.221 356.004 C 480.616 356.008 479.726 356.013 478.595 356.02 C 476.331 356.034 473.095 356.054 469.203 356.078 C 461.417 356.124 451 356.188 440.471 356.25 C 419.399 356.374 397.932 356.5 396.058 356.5 L 395.996 356.5 C 388.501 356.491 382.476 354.023 378.449 351.464 C 377.53 350.881 376.703 350.295 375.966 349.726 L 375.459 350.232 L 304.467 264.466 L 294.731 252.705 C 292.271 249.734 291.05 246.088 291.055 242.506 C 291.051 239.564 291.871 236.614 293.468 234.046 L 293.468 233.926 L 293.511 233.978 C 294.395 232.574 295.512 231.285 296.856 230.176 C 299.824 227.715 303.47 226.495 307.053 226.5 C 311.633 226.492 316.229 228.485 319.385 232.3 L 395.676 324.468 C 395.723 324.472 395.825 324.477 396.06 324.502 C 397.631 324.502 419.254 324.375 440.276 324.252 C 449.568 324.195 458.767 324.141 466.151 324.096 L 467.56 83.906 C 467.62 75.104 474.759 68.008 483.559 67.999 L 604.059 67.999 C 608.309 68.01 612.361 69.685 615.37 72.685 C 618.37 75.699 620.049 79.749 620.058 84.001 L 620.058 205.001 C 620.049 209.253 618.37 213.303 615.37 216.317 C 612.359 219.315 608.311 220.991 604.059 221.003 L 539.795 221.003 C 541.726 224.333 543.801 227.907 545.982 231.656 C 557.465 251.405 571.864 276.03 583.457 295.405 C 591.149 308.266 597.734 318.996 600.979 323.812 C 601.021 323.875 601.064 323.939 601.106 324.001 C 606.925 323.999 623.284 323.997 638.133 323.997 C 642.318 323.997 646.383 323.997 650.059 323.998 L 650.059 158.048 C 650.068 153.796 651.747 149.746 654.747 146.736 C 657.756 143.736 661.807 142.057 666.061 142.048 L 778.561 142.048 C 782.813 142.057 786.863 143.738 789.872 146.734 C 792.872 149.745 794.551 153.796 794.56 158.047 L 794.56 182.048 C 794.551 186.3 792.872 190.35 789.872 193.36 C 786.863 196.358 782.813 198.039 778.561 198.048 L 707.06 198.048 L 707.06 219.547 L 778.059 219.547 C 782.311 219.556 786.361 221.235 789.372 224.235 C 792.372 227.244 794.051 231.295 794.06 235.548 L 794.062 259.05 C 794.05 263.299 792.369 267.35 789.376 270.357 C 786.36 273.364 782.305 275.038 778.058 275.046 L 707.558 275.046 L 707.558 300.049 L 778.057 300.049 C 782.309 300.059 786.359 301.737 789.373 304.737 C 792.368 307.746 794.052 311.797 794.061 316.05 L 794.061 324.05 L 826.557 324.05 L 826.557 124.05 L 748.061 124.05 C 743.811 124.038 739.761 122.364 736.745 119.364 C 733.747 116.35 732.066 112.302 732.057 108.05 L 732.057 82.545 C 732.066 78.291 733.747 74.24 736.745 71.232 C 739.758 68.232 743.807 66.553 748.061 66.544 L 964.561 66.544 C 968.814 66.553 972.864 68.232 975.875 71.23 C 978.874 74.244 980.551 78.296 980.561 82.546 L 980.561 108.045 C 980.551 112.293 978.877 116.345 975.875 119.359 C 972.861 122.359 968.813 124.035 964.561 124.047 L 884.559 124.047 L 884.559 324.047 L 916.56 324.047 L 916.56 159.557 C 916.571 155.305 918.248 151.255 921.248 148.241 C 924.262 145.241 928.312 143.565 932.564 143.555 L 1041.564 143.553 C 1045.814 143.564 1049.864 145.241 1052.877 148.241 C 1055.877 151.257 1057.552 155.307 1057.563 159.557 L 1057.563 254.054 C 1057.552 258.307 1055.873 262.357 1052.877 265.366 C 1049.863 268.366 1045.814 270.045 1041.564 270.054 L 997.363 270.054 C 999.913 272.957 1002.561 275.973 1005.25 279.031 C 1021.506 297.52 1039.423 317.804 1044.936 323.754 C 1045.234 324.076 1045.506 324.365 1045.709 324.579 C 1045.778 324.629 1045.825 324.66 1045.851 324.676 L 1045.861 324.685 C 1045.861 324.683 1045.861 324.685 1045.914 324.702 C 1045.98 324.724 1046.132 324.768 1046.375 324.83 C 1046.823 324.924 1048.409 325.069 1050.687 325.058 C 1050.75 325.058 1050.924 325.053 1051.186 325.057 C 1054.553 325.055 1079.193 325.053 1104.45 325.053 C 1119.815 325.053 1135.406 325.053 1146.567 325.054 L 1146.567 321.055 L 1106.567 321.055 C 1102.313 321.046 1098.265 319.367 1095.254 316.369 C 1092.256 313.358 1090.575 309.307 1090.566 305.056 L 1090.566 158.536 C 1090.576 154.282 1092.255 150.231 1095.252 147.222 C 1098.266 144.22 1102.315 142.543 1106.567 142.534 L 1251.567 142.534 C 1255.819 142.543 1259.869 144.22 1262.879 147.22 C 1265.878 150.232 1267.558 154.282 1267.568 158.536 L 1267.568 305.036 C 1267.557 309.288 1265.878 313.339 1262.879 316.352 C 1259.867 319.347 1255.819 321.026 1251.567 321.035 L 1209.564 321.035 L 1209.564 325.035 L 1300.067 325.035 L 1300.067 84.035 C 1300.077 79.785 1301.753 75.735 1304.753 72.719 C 1307.769 69.719 1311.818 68.045 1316.068 68.035 L 1438.568 68.033 C 1442.815 68.044 1446.868 69.719 1449.879 72.719 C 1452.884 75.735 1454.558 79.785 1454.565 84.035 L 1454.565 204.535 C 1454.555 208.78 1452.881 212.835 1449.879 215.846 C 1446.865 218.844 1442.817 220.522 1438.566 220.532 L 1362.062 220.532 L 1362.062 324.032 L 1487.562 324.032 L 1487.562 140.032 C 1487.572 135.78 1489.25 131.73 1492.248 128.718 C 1495.26 125.72 1499.31 124.039 1503.564 124.03 L 1529.063 124.03 C 1533.315 124.039 1537.365 125.72 1540.374 128.718 C 1543.377 131.732 1545.053 135.782 1545.062 140.032 L 1545.062 324.032 L 1577.562 324.032 L 1577.562 160.032 C 1577.572 155.78 1579.25 151.732 1582.25 148.718 C 1585.261 145.718 1589.313 144.042 1593.563 144.032 L 1704.563 144.032 C 1708.81 144.044 1712.861 145.718 1715.875 148.718 C 1718.879 151.732 1720.551 155.784 1720.561 160.032 L 1720.561 183.033 C 1720.549 187.281 1718.877 191.333 1715.873 194.349 C 1712.859 197.344 1708.813 199.021 1704.561 199.032 L 1635.058 199.032 L 1635.058 221.033 L 1706.561 221.033 C 1710.811 221.042 1714.861 222.716 1717.879 225.721 C 1720.874 228.734 1722.548 232.783 1722.56 237.032 L 1722.56 260.031 C 1722.55 264.281 1720.872 268.331 1717.87 271.347 C 1714.861 274.342 1710.813 276.021 1706.561 276.03 L 1637.057 276.03 L 1637.057 301.031 L 1705.559 301.031 C 1709.808 301.041 1713.861 302.718 1716.874 305.717 C 1719.872 308.731 1721.548 312.781 1721.56 317.033 L 1721.56 324.03 L 1790.564 324.03 C 1794.355 324.033 1798.136 324.418 1801.859 325.516 C 1805.677 326.635 1809.116 328.465 1812.024 330.725 C 1817.441 335.038 1820.298 339.545 1823.275 343.321 C 1824.239 344.585 1827.55 348.749 1831.965 354.256 C 1836.409 359.8 1842.084 366.852 1848.177 374.409 C 1860.371 389.527 1874.247 406.684 1883.396 417.989 C 1889.451 425.47 1893.412 430.357 1893.501 430.468 C 1893.501 430.475 1893.501 430.468 1893.501 430.463 C 1893.501 430.459 1893.491 430.454 1893.501 430.461 C 1895.891 433.408 1897.069 437 1897.067 440.524 C 1897.077 445.164 1895.025 449.806 1891.138 452.964 C 1888.194 455.349 1884.611 456.53 1881.092 456.529 L 1880.792 456.529 L 1881.3 456.5 Z M 1746.6 345 L 1790.788 345 C 1793.167 345.002 1794.836 345.24 1796.176 345.64 L 1796.304 345.679 L 1796.419 345.718 C 1796.811 345.858 1797.701 346.144 1798.646 346.759 C 1799.557 347.36 1800.089 347.887 1800.768 348.531 L 1800.834 348.595 C 1802.584 350.374 1804.274 352.712 1806.813 356.033 C 1808.534 358.281 1813.716 364.762 1820.648 373.39 C 1841.404 399.207 1877.402 443.645 1877.402 443.645 L 1873.129 447.109 L 1877.402 443.645 C 1878.399 444.874 1879.814 445.492 1881.294 445.499 C 1882.413 445.494 1883.496 445.144 1884.429 444.389 C 1885.663 443.385 1886.281 441.965 1886.287 440.493 C 1886.277 439.372 1885.932 438.294 1885.124 437.289 C 1885.093 437.253 1885.047 437.196 1884.989 437.122 C 1884.865 436.971 1884.686 436.748 1884.45 436.459 C 1883.979 435.877 1883.289 435.025 1882.408 433.937 C 1880.644 431.763 1878.124 428.648 1875.074 424.877 C 1865.923 413.57 1852.043 396.411 1839.845 381.283 C 1833.743 373.72 1828.066 366.662 1823.612 361.105 C 1819.16 355.552 1815.911 351.47 1814.798 350.011 C 1811.434 345.679 1809.318 342.404 1805.448 339.337 C 1803.688 337.959 1801.379 336.73 1798.992 336.041 C 1796.526 335.312 1793.846 335 1790.79 334.998 C 1787.305 334.998 1738.249 334.998 1716.289 335 L 1710.787 335 L 1710.787 317.001 C 1710.797 315.717 1710.234 314.361 1709.324 313.465 C 1708.425 312.552 1707.067 311.989 1705.788 311.999 L 1626.287 311.999 L 1626.287 264.999 L 1706.79 264.999 C 1708.067 265.008 1709.425 264.446 1710.324 263.536 C 1711.234 262.637 1711.799 261.279 1711.79 259.999 L 1711.79 237 C 1711.8 235.721 1711.234 234.358 1710.329 233.464 C 1709.43 232.554 1708.069 231.991 1706.79 232.001 L 1624.287 232.001 L 1624.287 187.999 L 1704.79 187.999 C 1706.065 188.01 1707.43 187.446 1708.326 186.536 C 1709.234 185.641 1709.797 184.284 1709.787 183.002 L 1709.787 160.001 C 1709.797 158.721 1709.234 157.361 1708.324 156.464 C 1707.429 155.556 1706.069 154.991 1704.79 155.003 L 1593.79 155.003 C 1592.506 154.994 1591.152 155.553 1590.254 156.464 C 1589.343 157.363 1588.779 158.723 1588.788 160.001 L 1588.788 335.001 L 1534.286 335.001 L 1534.286 140.001 C 1534.296 138.719 1533.735 137.363 1532.823 136.464 C 1531.926 135.553 1530.563 134.989 1529.289 135.001 L 1503.79 135.001 C 1502.51 134.99 1501.152 135.552 1500.251 136.467 C 1499.343 137.361 1498.778 138.721 1498.788 140.001 L 1498.788 335.001 L 1442.538 335.001 L 1351.288 335.001 L 1351.288 209.491 L 1438.791 209.491 C 1440.065 209.503 1441.428 208.938 1442.329 208.023 C 1443.235 207.131 1443.797 205.773 1443.79 204.494 L 1443.79 83.994 C 1443.8 82.712 1443.237 81.354 1442.327 80.455 C 1441.43 79.547 1440.072 78.985 1438.793 78.994 L 1316.293 78.994 C 1315.011 78.985 1313.651 79.547 1312.754 80.455 C 1311.846 81.354 1311.282 82.714 1311.291 83.994 L 1311.291 335.994 L 1198.791 335.994 L 1198.791 309.995 L 1251.796 309.995 C 1253.073 310.004 1254.434 309.442 1255.33 308.532 C 1256.243 307.633 1256.805 306.272 1256.795 304.995 L 1256.795 158.495 C 1256.805 157.213 1256.243 155.86 1255.327 154.956 C 1254.433 154.045 1253.073 153.484 1251.796 153.493 L 1106.796 153.493 C 1105.517 153.484 1104.158 154.046 1103.26 154.959 C 1102.347 155.86 1101.785 157.213 1101.796 158.496 L 1101.796 304.996 C 1101.785 306.273 1102.349 307.634 1103.262 308.533 C 1104.157 309.441 1105.519 310.005 1106.796 309.996 L 1157.796 309.996 L 1157.796 335.997 L 1152.296 335.997 C 1141.18 335.995 1122.773 335.995 1104.679 335.995 C 1079.089 335.995 1054.122 335.995 1051.299 335.997 L 1051.233 335.997 L 1051.17 335.995 L 1050.916 335.995 C 1048.061 335.981 1046.02 335.914 1043.96 335.449 L 1043.909 335.435 L 1043.87 335.425 C 1042.545 335.171 1040.285 334.202 1038.846 332.939 L 1038.568 332.719 L 1038.314 332.457 C 1038.071 332.205 1037.621 331.734 1037.091 331.159 C 1031.344 324.955 1013.524 304.775 997.222 286.234 C 991.559 279.792 986.071 273.54 981.319 268.121 L 973.317 258.995 L 1041.797 258.995 C 1043.074 259.005 1044.433 258.44 1045.329 257.53 C 1046.242 256.631 1046.804 255.273 1046.795 253.995 L 1046.795 159.498 C 1046.805 158.216 1046.242 156.856 1045.331 155.959 C 1044.435 155.048 1043.074 154.486 1041.797 154.496 L 932.877 154.496 C 931.597 154.487 930.237 155.049 929.34 155.962 C 928.427 156.858 927.865 158.219 927.874 159.498 L 927.874 334.998 L 873.874 334.998 L 873.874 112.968 L 964.876 112.968 C 966.153 112.979 967.514 112.415 968.413 111.502 C 969.321 110.608 969.886 109.248 969.874 107.968 L 969.874 82.463 C 969.886 81.179 969.323 79.825 968.41 78.926 C 967.514 78.013 966.153 77.451 964.876 77.461 L 748.366 77.461 C 747.088 77.452 745.726 78.014 744.827 78.926 C 743.914 79.827 743.355 81.18 743.364 82.463 L 743.364 107.962 C 743.353 109.24 743.917 110.6 744.827 111.496 C 745.724 112.407 747.084 112.971 748.366 112.959 L 837.861 112.959 L 837.861 334.959 L 783.364 334.959 L 783.364 315.962 C 783.373 314.68 782.814 313.327 781.899 312.426 C 781 311.515 779.64 310.951 778.362 310.96 L 696.862 310.96 L 696.862 263.958 L 778.362 263.96 C 779.644 263.969 780.999 263.407 781.899 262.497 C 782.814 261.593 783.374 260.237 783.364 258.963 L 783.364 235.461 C 783.373 234.182 782.811 232.824 781.899 231.925 C 781 231.015 779.64 230.45 778.362 230.459 L 696.362 230.459 L 696.362 186.962 L 778.865 186.962 C 780.142 186.971 781.5 186.409 782.401 185.494 C 783.309 184.599 783.874 183.239 783.864 181.962 L 783.864 157.961 C 783.873 156.684 783.309 155.323 782.399 154.427 C 781.5 153.514 780.142 152.952 778.865 152.961 L 666.355 152.961 C 665.075 152.952 663.72 153.514 662.816 154.429 C 661.905 155.324 661.344 156.684 661.353 157.961 L 661.353 334.961 L 655.849 334.957 L 638.428 334.957 C 620.902 334.957 601.253 334.957 599.354 334.959 C 599.338 334.959 599.216 334.961 598.989 334.95 L 597.551 334.867 L 596.34 334.095 C 595.968 333.856 595.466 333.529 594.829 333.104 L 594.001 332.551 L 593.418 331.743 C 593.076 331.273 592.622 330.627 592.131 329.888 C 588.61 324.653 582.061 313.965 574.311 301.009 C 562.674 281.558 548.262 256.912 536.767 237.143 C 532.643 230.054 528.896 223.589 525.784 218.216 L 521.007 209.959 L 604.354 209.959 C 605.631 209.971 606.994 209.404 607.888 208.496 C 608.801 207.597 609.363 206.237 609.353 204.959 L 609.353 83.979 C 609.362 82.702 608.8 81.339 607.885 80.44 C 606.99 79.532 605.635 78.97 604.353 78.979 L 483.853 78.979 C 481.119 78.97 478.86 81.215 478.853 83.949 L 477.383 335.009 L 471.947 335.04 C 463.977 335.089 452.381 335.157 440.634 335.228 C 419.585 335.352 398.047 335.478 396.311 335.478 C 393.607 335.522 391.16 334.471 390.059 333.747 L 390.022 333.724 L 389.971 333.695 C 389.226 333.224 388.749 332.814 388.416 332.505 L 388.166 332.271 L 311.204 239.292 C 310.202 238.085 308.805 237.486 307.347 237.479 C 306.212 237.482 305.113 237.844 304.159 238.63 C 302.957 239.626 302.359 241.02 302.349 242.484 C 302.353 243.596 302.702 244.674 303.452 245.611 L 379.83 337.885 L 380.368 338.531 C 380.767 339.006 382.065 340.517 384.643 342.154 C 387.205 343.79 391.283 345.485 396.291 345.477 L 396.353 345.477 C 399.931 345.477 482.328 344.978 482.381 344.978 C 485.089 344.975 487.351 342.714 487.351 340.005 L 488.821 88.975 L 599.361 88.975 L 599.361 199.975 L 512.363 199.977 C 510.571 199.977 508.929 200.924 508.033 202.477 C 507.583 203.25 507.361 204.107 507.361 204.975 C 507.361 205.81 507.568 206.639 507.987 207.399 C 508.001 207.421 508.005 207.429 508.01 207.436 C 508.017 207.447 508.019 207.452 508.021 207.459 C 508.028 207.468 508.033 207.477 508.037 207.486 C 508.049 207.505 508.062 207.528 508.08 207.559 C 508.117 207.623 508.17 207.717 508.241 207.839 C 508.383 208.082 508.592 208.444 508.863 208.915 C 509.406 209.86 510.205 211.243 511.221 213.002 C 513.255 216.525 516.165 221.557 519.67 227.607 C 526.681 239.705 536.075 255.869 545.611 272.129 C 555.15 288.393 564.828 304.747 572.424 317.255 C 576.224 323.515 579.497 328.801 581.997 332.674 C 583.252 334.617 584.297 336.186 585.164 337.399 C 585.622 338.04 585.978 338.521 586.352 338.977 C 586.588 339.258 586.734 339.434 586.967 339.678 C 587.482 340.178 587.329 340.084 588.15 340.674 L 588.15 340.675 C 590.531 342.235 591.411 342.963 593.499 343.938 C 594.263 344.295 595.54 344.672 596.421 344.789 C 597.474 344.95 598.327 344.971 599.363 344.976 L 666.364 344.976 C 667.646 344.985 668.997 344.423 669.896 343.51 C 670.811 342.609 671.373 341.253 671.364 339.976 L 671.364 162.956 L 773.874 162.956 L 773.874 176.957 L 691.376 176.957 C 690.096 176.948 688.739 177.512 687.839 178.422 C 686.929 179.319 686.367 180.676 686.376 181.959 L 686.376 235.458 C 686.367 236.738 686.929 238.099 687.837 238.992 C 688.736 239.903 690.098 240.468 691.376 240.458 L 773.374 240.458 L 773.374 253.957 L 691.876 253.96 C 690.594 253.95 689.236 254.51 688.342 255.421 C 687.429 256.319 686.867 257.675 686.877 258.96 L 686.877 315.959 C 686.868 317.236 687.43 318.597 688.345 319.495 C 689.237 320.401 690.595 320.963 691.877 320.954 L 773.377 320.954 L 773.377 339.958 C 773.366 341.235 773.93 342.596 774.842 343.494 C 775.739 344.405 777.092 344.967 778.374 344.958 L 842.877 344.958 C 844.157 344.967 845.512 344.405 846.409 343.492 C 847.322 342.591 847.884 341.235 847.874 339.958 L 847.874 107.958 C 847.883 106.681 847.321 105.321 846.409 104.422 C 845.514 103.514 844.155 102.949 842.877 102.959 L 753.375 102.959 L 753.375 87.459 L 959.885 87.459 L 959.885 102.959 L 868.888 102.959 C 867.608 102.95 866.25 103.512 865.351 104.422 C 864.44 105.321 863.876 106.678 863.888 107.958 L 863.888 339.958 C 863.879 341.235 864.438 342.591 865.351 343.492 C 866.252 344.405 867.608 344.967 868.888 344.958 L 932.889 344.958 C 934.166 344.967 935.524 344.402 936.421 343.492 C 937.334 342.591 937.896 341.235 937.886 339.958 L 937.886 164.458 L 1036.886 164.458 L 1036.886 248.958 L 962.387 248.955 C 960.429 248.955 958.638 250.109 957.828 251.9 C 957.532 252.551 957.385 253.246 957.385 253.953 C 957.388 255.131 957.798 256.286 958.629 257.257 L 958.631 257.256 L 958.638 257.265 C 958.645 257.274 958.659 257.288 958.674 257.309 C 958.708 257.348 958.759 257.403 958.823 257.478 C 958.956 257.629 959.151 257.855 959.408 258.146 C 959.92 258.731 960.672 259.59 961.628 260.685 C 963.543 262.871 966.281 265.997 969.577 269.757 C 976.169 277.278 984.994 287.337 993.92 297.481 C 1002.846 307.626 1011.873 317.856 1018.882 325.732 C 1022.384 329.67 1025.382 333.016 1027.62 335.486 C 1028.734 336.715 1029.661 337.722 1030.377 338.488 C 1030.738 338.872 1031.044 339.193 1031.326 339.485 C 1031.728 339.885 1031.68 339.856 1032.178 340.294 C 1035.122 342.849 1038.737 344.497 1041.888 345.174 C 1045.257 345.922 1048.264 345.947 1051.388 345.958 L 1162.888 345.958 C 1164.165 345.968 1165.523 345.405 1166.422 344.495 C 1167.334 343.596 1167.897 342.233 1167.887 340.959 L 1167.887 304.958 C 1167.897 303.676 1167.334 302.318 1166.424 301.422 C 1165.528 300.511 1164.167 299.949 1162.888 299.958 L 1111.886 299.958 L 1111.886 163.478 L 1246.886 163.478 L 1246.886 299.978 L 1193.886 299.978 C 1192.605 299.969 1191.249 300.531 1190.35 301.444 C 1189.44 302.34 1188.875 303.699 1188.884 304.978 L 1188.884 340.979 C 1188.872 342.256 1189.437 343.616 1190.347 344.515 C 1191.246 345.425 1192.602 345.988 1193.883 345.978 L 1316.383 345.978 C 1317.658 345.988 1319.021 345.423 1319.915 344.515 C 1320.828 343.616 1321.39 342.253 1321.381 340.979 L 1321.381 88.979 L 1433.881 88.979 L 1433.881 199.479 L 1346.384 199.479 C 1345.104 199.47 1343.748 200.032 1342.85 200.942 C 1341.937 201.841 1341.374 203.203 1341.384 204.481 L 1341.384 339.981 C 1341.372 341.258 1341.937 342.619 1342.85 343.517 C 1343.746 344.428 1345.099 344.99 1346.384 344.981 L 1503.884 344.981 C 1505.159 344.99 1506.517 344.428 1507.416 343.515 C 1508.328 342.616 1508.888 341.263 1508.879 339.981 L 1508.879 144.981 L 1524.381 144.981 L 1524.381 339.981 C 1524.371 341.258 1524.936 342.621 1525.847 343.517 C 1526.741 344.428 1528.099 344.99 1529.381 344.981 L 1593.882 344.981 C 1595.157 344.99 1596.515 344.428 1597.414 343.515 C 1598.326 342.616 1598.886 341.263 1598.877 339.981 L 1598.877 164.981 L 1699.877 164.981 L 1699.877 177.981 L 1619.381 177.983 C 1618.099 177.974 1616.741 178.536 1615.847 179.444 C 1614.936 180.343 1614.372 181.705 1614.381 182.983 L 1614.381 236.982 C 1614.371 238.259 1614.936 239.622 1615.844 240.516 C 1616.741 241.427 1618.101 241.991 1619.381 241.982 L 1701.879 241.982 L 1701.879 254.981 L 1621.381 254.981 C 1620.099 254.972 1618.743 255.534 1617.847 256.445 C 1616.934 257.343 1616.369 258.704 1616.381 259.981 L 1616.381 316.983 C 1616.369 318.258 1616.934 319.621 1617.844 320.515 C 1618.743 321.427 1620.101 321.99 1621.381 321.98 L 1700.881 321.98 L 1700.881 339.982 C 1700.869 341.259 1701.434 342.62 1702.349 343.521 C 1703.239 344.429 1704.597 344.991 1705.879 344.982 L 1746.679 344.982 L 1746.6 345 Z M 1122.8 289 L 1162.803 289 C 1167.052 289.009 1171.103 290.686 1174.116 293.684 C 1176.167 295.744 1177.597 298.288 1178.302 301.047 C 1179.007 298.286 1180.44 295.743 1182.49 293.686 C 1185.502 290.686 1189.554 289.009 1193.803 289 L 1235.801 288.998 L 1235.801 174.508 L 1122.801 174.508 L 1122.801 289.008 L 1122.801 289.004 L 1122.8 289 Z M 958.56 257.34 C 958.55 257.326 958.543 257.321 958.541 257.318 L 958.529 257.304 L 958.525 257.299 L 958.524 257.3 C 958.534 257.32 958.544 257.33 958.554 257.34 L 958.56 257.34 Z M 948.78 245.42 C 951.688 240.845 956.759 238.011 962.281 238.007 L 1025.778 238.007 L 1025.778 175.51 L 948.78 175.51 L 948.78 245.415 L 948.76 245.42 L 948.78 245.42 Z M 1332.3 196.77 C 1333.018 195.471 1333.918 194.267 1334.987 193.193 C 1337.999 190.195 1342.049 188.515 1346.301 188.507 L 1422.799 188.505 L 1422.799 100.007 L 1332.299 100.007 L 1332.299 196.777 L 1332.3 196.77 Z M 499.12 195.9 C 502.09 191.604 506.998 189.004 512.277 189.004 L 588.276 189.002 L 588.276 100.002 L 499.682 100.002 L 499.112 195.902 L 499.12 195.9 Z M 855.78 98.683 C 855.822 98.623 855.866 98.564 855.909 98.505 L 855.65 98.505 C 855.7 98.563 855.74 98.623 855.78 98.683 Z" id="path240" style="fill: rgb(255, 255, 255);"/>
    </g>
    <g id="g242">
      <path d="m 1507.4,102.43 -35.499,-35.501 c -1.986,-1.983 -3.097,-4.694 -3.075,-7.5 0.021,-2.805 1.169,-5.5 3.182,-7.456 l 35.501,-34.5 c 4.135,-4.019 10.746,-3.948 14.793,0.159 l 34.501,35.002 c 4.026,4.083 4.026,10.656 0,14.741 l -34.501,35 c -1.968,2 -4.634,3.119 -7.439,3.13 h -0.033 c -2.9,-0.01 -5.6,-1.11 -7.5,-3.08 z m -13.2,-42.82 20.49,20.491 19.809,-20.098 -19.914,-20.203 -20.4,19.81 z" id="path244" style="fill: none;"/>
      <path d="M 1514.8 111 C 1510.559 111.002 1506.482 109.316 1503.482 106.314 L 1507.37 102.424 L 1503.482 106.312 L 1467.982 70.822 C 1464.983 67.822 1463.299 63.762 1463.293 59.526 C 1463.293 59.513 1463.293 59.475 1463.293 59.42 C 1463.293 59.369 1463.293 59.302 1463.303 59.218 C 1463.38 54.999 1465.116 50.98 1468.147 48.031 L 1503.649 13.531 C 1506.743 10.521 1510.795 9 1514.796 9.007 C 1518.911 9.001 1523.073 10.607 1526.192 13.772 L 1560.693 48.774 C 1563.754 51.875 1565.3 55.966 1565.295 60.006 C 1565.305 64.046 1563.752 68.135 1560.693 71.238 L 1526.195 106.234 C 1523.205 109.277 1519.113 110.995 1514.837 111.008 L 1514.937 111.008 L 1514.8 111 Z M 1514.8 100 L 1514.812 100 C 1516.165 99.989 1517.407 99.467 1518.354 98.508 L 1552.855 63.51 C 1553.821 62.524 1554.287 61.284 1554.292 59.998 C 1554.292 58.707 1553.821 57.47 1552.855 56.488 L 1518.357 21.488 C 1517.365 20.485 1516.105 20.005 1514.794 19.998 C 1513.522 20.002 1512.295 20.458 1511.314 21.41 L 1475.812 55.91 C 1474.86 56.831 1474.305 58.134 1474.296 59.462 L 1474.295 59.603 C 1474.321 60.878 1474.851 62.127 1475.761 63.031 L 1488.26 75.531 L 1511.258 98.531 C 1512.258 99.486 1513.458 100 1514.858 100 L 1514.8 100 Z M 1490.3 63.498 L 1486.355 59.553 L 1514.656 32.05 L 1542.211 60.002 L 1514.708 87.907 L 1490.208 63.498 L 1490.3 63.498 Z M 1514.7 72.294 L 1526.815 60.002 L 1514.541 47.55 L 1502.073 59.666 L 1514.773 72.294 L 1514.7 72.294 Z" id="path246" style="fill: rgb(255, 255, 255);"/>
    </g>
  </g>
</svg>