<?xml version="1.0" encoding="utf-8"?>
<svg id="Layer_2" xmlns="http://www.w3.org/2000/svg">
  <g>
    <path d="M 591.046 163.674 C 591.046 163.674 577.597 147.071 569.839 137.42 C 567.244 134.192 565.318 131.783 564.64 130.898 C 563.698 129.659 563.029 128.765 562.588 128.327 C 562.126 127.88 562.054 127.856 561.706 127.733 C 561.463 127.661 561.028 127.58 560.284 127.58 L 528.528 127.58 C 527.496 127.58 526.485 127.163 525.756 126.434 C 525.024 125.702 524.607 124.691 524.607 123.659 L 524.607 118.988 L 496.959 118.988 C 495.927 118.988 494.916 118.571 494.187 117.839 C 493.455 117.11 493.038 116.099 493.038 115.067 L 493.038 93.77 C 493.038 92.738 493.455 91.727 494.187 90.998 C 494.916 90.266 495.927 89.849 496.959 89.849 L 524.979 89.849 L 524.979 89.102 L 496.212 89.102 C 495.18 89.102 494.169 88.682 493.44 87.953 C 492.708 87.224 492.291 86.213 492.291 85.178 L 492.291 65.006 C 492.291 63.971 492.708 62.96 493.44 62.231 C 494.169 61.499 495.18 61.082 496.212 61.082 L 524.232 61.082 L 524.232 60.335 L 490.608 60.335 L 490.608 123.659 C 490.608 124.691 490.191 125.702 489.459 126.431 C 488.73 127.163 487.719 127.58 486.687 127.58 L 462.588 127.58 C 461.556 127.58 460.545 127.163 459.816 126.434 C 459.087 125.702 458.667 124.691 458.667 123.659 L 458.667 52.862 L 456.987 52.862 L 456.987 123.659 C 456.987 124.691 456.567 125.702 455.838 126.431 C 455.106 127.163 454.098 127.58 453.063 127.58 L 394.223 127.58 C 393.188 127.58 392.18 127.163 391.448 126.434 C 390.719 125.702 390.299 124.691 390.299 123.659 L 390.299 73.037 C 390.299 72.005 390.719 70.994 391.448 70.262 C 392.18 69.533 393.188 69.113 394.223 69.113 L 424.856 69.113 L 424.856 31.942 L 386.936 31.942 L 386.936 124.031 C 386.936 125.066 386.519 126.077 385.787 126.806 C 385.058 127.535 384.047 127.955 383.015 127.955 L 337.249 127.955 C 336.214 127.955 335.206 127.538 334.474 126.806 C 333.742 126.077 333.325 125.066 333.325 124.031 L 333.325 110.582 C 333.325 109.55 333.742 108.539 334.474 107.81 C 335.206 107.078 336.214 106.661 337.249 106.661 L 354.995 106.661 L 354.995 59.774 L 308.668 59.774 L 308.668 106.661 L 325.666 106.661 C 326.701 106.661 327.712 107.078 328.441 107.807 C 329.173 108.539 329.59 109.55 329.59 110.582 L 329.59 124.031 C 329.59 125.063 329.17 126.074 328.441 126.806 C 327.709 127.535 326.701 127.955 325.666 127.955 L 284.011 127.955 C 282.841 127.949 281.524 127.946 280.018 127.613 C 278.518 127.286 276.88 126.536 275.494 125.339 C 275.251 125.129 275.176 125.045 275.047 124.916 C 274.93 124.796 274.807 124.667 274.666 124.517 C 274.384 124.217 274.033 123.833 273.61 123.368 C 272.767 122.438 271.645 121.184 270.334 119.708 C 267.712 116.762 264.337 112.937 261.001 109.145 C 254.329 101.564 247.809 94.112 247.809 94.112 C 246.795 92.954 246.555 91.307 247.189 89.909 C 247.825 88.508 249.223 87.608 250.762 87.608 L 276.541 87.608 L 276.541 60.146 L 243.663 60.146 L 243.663 123.659 C 243.663 124.691 243.246 125.702 242.514 126.431 C 241.785 127.163 240.774 127.58 239.742 127.58 L 215.832 127.58 C 214.797 127.58 213.789 127.163 213.057 126.431 C 212.325 125.702 211.908 124.691 211.908 123.659 L 211.908 36.97 C 211.908 35.935 212.328 34.924 213.057 34.195 C 213.789 33.466 214.797 33.046 215.832 33.046 L 247.773 33.046 L 247.773 31.366 L 174.765 31.366 L 174.765 33.046 L 206.148 33.046 C 207.18 33.046 208.191 33.466 208.92 34.195 C 209.649 34.927 210.069 35.935 210.069 36.97 L 210.069 123.644 C 210.069 124.676 209.649 125.687 208.92 126.416 C 208.191 127.148 207.18 127.565 206.148 127.565 L 182.049 127.565 C 181.014 127.565 180.006 127.148 179.274 126.416 C 178.545 125.687 178.125 124.676 178.125 123.644 L 178.125 118.598 L 149.733 118.598 C 148.701 118.598 147.689 118.181 146.96 117.452 C 146.228 116.72 145.808 115.709 145.808 114.677 L 145.808 93.383 C 145.808 92.348 146.228 91.34 146.957 90.608 C 147.689 89.879 148.701 89.459 149.733 89.459 L 178.125 89.459 L 178.125 88.526 L 149.547 88.526 C 148.512 88.526 147.5 88.106 146.771 87.377 C 146.042 86.645 145.622 85.637 145.622 84.602 L 145.622 64.616 C 145.622 63.584 146.042 62.573 146.771 61.841 C 147.503 61.112 148.512 60.692 149.547 60.692 L 178.314 60.692 L 178.314 59.57 L 144.128 59.57 L 144.128 123.644 C 144.128 124.676 143.708 125.684 142.979 126.416 C 142.247 127.148 141.239 127.565 140.207 127.565 L 115.175 127.565 C 114.758 127.562 114.308 127.556 113.768 127.472 C 113.231 127.394 112.625 127.217 112.133 126.995 C 111.134 126.527 110.642 126.131 109.823 125.6 C 109.397 125.306 109.238 125.129 109.082 124.976 C 108.935 124.826 108.833 124.703 108.734 124.586 C 108.542 124.352 108.38 124.13 108.2 123.878 C 107.843 123.377 107.438 122.771 106.961 122.03 C 106.007 120.554 104.78 118.568 103.355 116.222 C 100.505 111.533 96.887 105.416 93.32 99.335 C 86.189 87.176 79.277 75.17 79.274 75.167 C 78.572 73.952 78.575 72.458 79.277 71.243 C 79.976 70.031 81.272 69.287 82.673 69.287 L 113.12 69.284 L 113.12 31.924 L 75.917 31.924 L 75.38 123.665 C 75.368 125.807 73.622 127.553 71.48 127.565 C 71.468 127.565 40.681 127.751 39.328 127.751 C 36.982 127.757 35.086 126.977 33.85 126.188 C 32.665 125.438 32.008 124.694 31.777 124.415 L 31.777 124.415 L 3.055 89.717 L 3.055 89.717 C 1.675 88.049 1.906 85.577 3.577 84.194 C 5.245 82.814 7.717 83.048 9.1 84.716 L 37.771 119.354 C 37.807 119.39 37.9 119.471 38.035 119.555 C 38.317 119.723 38.686 119.903 39.328 119.906 C 39.937 119.906 48.001 119.861 55.859 119.813 C 60.248 119.786 64.58 119.762 67.556 119.744 L 68.096 27.979 C 68.108 25.825 69.863 24.082 72.017 24.082 L 117.035 24.082 C 118.07 24.082 119.078 24.499 119.81 25.228 C 120.539 25.96 120.959 26.971 120.959 28.003 L 120.959 73.208 C 120.959 74.243 120.539 75.251 119.81 75.983 C 119.078 76.712 118.067 77.132 117.035 77.132 L 89.462 77.132 C 90.623 79.139 92.021 81.551 93.563 84.2 C 97.853 91.58 103.235 100.784 107.576 108.038 C 110.459 112.859 112.913 116.861 114.173 118.733 C 114.347 118.994 114.503 119.216 114.617 119.372 C 114.845 119.525 115.025 119.642 115.148 119.72 C 115.154 119.72 115.16 119.72 115.169 119.72 C 116.138 119.72 129.479 119.72 136.274 119.72 L 136.274 55.649 C 136.274 54.617 136.694 53.606 137.426 52.877 C 138.155 52.145 139.166 51.728 140.198 51.728 L 182.229 51.728 C 183.261 51.728 184.272 52.145 185.001 52.877 C 185.733 53.606 186.15 54.617 186.15 55.649 L 186.15 64.616 C 186.15 65.648 185.733 66.659 185.001 67.388 C 184.272 68.12 183.261 68.537 182.229 68.537 L 153.462 68.537 L 153.462 80.681 L 182.043 80.681 C 183.075 80.681 184.086 81.098 184.815 81.83 C 185.547 82.559 185.964 83.57 185.964 84.602 L 185.964 93.383 C 185.964 94.415 185.547 95.426 184.815 96.155 C 184.086 96.887 183.075 97.304 182.043 97.304 L 153.648 97.304 L 153.648 110.753 L 182.043 110.753 C 183.075 110.753 184.086 111.173 184.815 111.905 C 185.547 112.634 185.964 113.645 185.964 114.677 L 185.964 119.72 L 202.215 119.72 L 202.215 40.891 L 170.835 40.891 C 169.803 40.891 168.792 40.474 168.06 39.742 C 167.331 39.013 166.911 38.002 166.911 36.97 L 166.911 27.436 C 166.911 26.404 167.331 25.393 168.06 24.664 C 168.792 23.932 169.803 23.512 170.835 23.512 L 251.719 23.512 C 252.751 23.512 253.762 23.932 254.491 24.664 C 255.223 25.393 255.64 26.404 255.64 27.436 L 255.64 36.964 C 255.64 37.996 255.223 39.007 254.491 39.736 C 253.762 40.468 252.751 40.885 251.719 40.885 L 219.774 40.885 L 219.774 119.714 L 235.839 119.714 L 235.839 56.204 C 235.839 55.172 236.259 54.161 236.988 53.429 C 237.72 52.7 238.731 52.28 239.763 52.28 L 280.486 52.28 C 281.518 52.28 282.529 52.7 283.261 53.429 C 283.99 54.161 284.407 55.172 284.407 56.204 L 284.407 91.508 C 284.407 92.543 283.99 93.551 283.258 94.283 C 282.529 95.012 281.518 95.432 280.486 95.432 L 259.438 95.432 C 261.211 97.454 263.26 99.791 265.375 102.197 C 271.459 109.115 278.134 116.672 280.234 118.94 C 280.423 119.144 280.582 119.312 280.66 119.39 C 281.098 119.738 281.329 119.825 281.77 119.939 C 282.226 120.047 282.961 120.092 284.035 120.089 C 285.838 120.086 311.743 120.086 321.766 120.089 L 321.766 114.485 L 304.768 114.485 C 303.736 114.485 302.725 114.065 301.996 113.336 C 301.264 112.604 300.847 111.593 300.847 110.561 L 300.847 55.829 C 300.847 54.797 301.264 53.786 301.996 53.057 C 302.725 52.325 303.736 51.908 304.768 51.908 L 358.94 51.908 C 359.972 51.908 360.983 52.325 361.712 53.057 C 362.444 53.786 362.864 54.797 362.864 55.829 L 362.864 110.561 C 362.864 111.593 362.444 112.604 361.712 113.336 C 360.983 114.065 359.972 114.485 358.94 114.485 L 341.191 114.485 L 341.191 120.086 L 379.112 120.086 L 379.112 27.997 C 379.112 26.962 379.532 25.951 380.261 25.222 C 380.993 24.49 382.004 24.073 383.036 24.073 L 428.801 24.073 C 429.833 24.073 430.844 24.49 431.576 25.222 C 432.305 25.954 432.722 26.962 432.722 27.997 L 432.722 73.016 C 432.722 74.048 432.305 75.059 431.576 75.788 C 430.844 76.517 429.833 76.937 428.801 76.937 L 398.165 76.937 L 398.165 119.714 L 449.163 119.714 L 449.163 48.916 C 449.163 47.884 449.579 46.873 450.312 46.144 C 451.04 45.412 452.052 44.995 453.084 44.995 L 462.612 44.995 C 463.644 44.995 464.655 45.412 465.384 46.144 C 466.116 46.873 466.533 47.884 466.533 48.916 L 466.533 119.714 L 482.784 119.714 L 482.784 56.39 C 482.784 55.358 483.204 54.347 483.936 53.615 C 484.665 52.886 485.676 52.466 486.708 52.466 L 528.177 52.466 C 529.209 52.466 530.22 52.886 530.952 53.615 C 531.681 54.347 532.101 55.358 532.101 56.39 L 532.101 64.982 C 532.101 66.014 531.681 67.025 530.952 67.757 C 530.22 68.486 529.209 68.903 528.177 68.903 L 500.157 68.903 L 500.157 81.233 L 528.924 81.233 C 529.959 81.233 530.97 81.65 531.699 82.382 C 532.428 83.114 532.848 84.122 532.848 85.157 L 532.848 93.749 C 532.848 94.781 532.428 95.792 531.699 96.524 C 530.967 97.253 529.959 97.67 528.924 97.67 L 500.904 97.67 L 500.904 111.122 L 528.552 111.122 C 529.584 111.122 530.595 111.539 531.324 112.271 C 532.056 113 532.473 114.011 532.473 115.043 L 532.473 119.714 C 540.678 119.714 559.006 119.714 560.308 119.714 C 561.586 119.714 562.795 119.843 563.953 120.185 C 565.111 120.524 566.182 121.094 567.046 121.769 C 568.789 123.152 569.719 124.607 570.895 126.11 C 571.291 126.629 572.518 128.168 574.174 130.235 C 575.836 132.308 577.957 134.945 580.234 137.768 C 584.791 143.42 589.975 149.829 593.392 154.053 C 595.672 156.87 597.163 158.709 597.166 158.715 C 598.531 160.398 598.27 162.867 596.587 164.232 C 595.861 164.82 594.988 165.105 594.121 165.105 C 592.924 165.105 591.805 164.613 591.019 163.653 Z" id="path238" style="fill: none;"/>
    <path d="M 594.112 167.184 C 592.378 167.187 590.641 166.422 589.462 164.967 L 589.465 164.967 C 589.39 164.88 575.995 148.34 568.252 138.707 C 565.651 135.47 563.734 133.076 563.017 132.14 C 562.117 130.946 561.421 130.049 561.175 129.803 C 561.124 129.755 561.082 129.716 561.049 129.686 C 561.019 129.68 560.977 129.674 560.929 129.668 C 560.797 129.65 560.593 129.635 560.299 129.635 L 528.54 129.635 C 526.953 129.632 525.441 129.008 524.316 127.886 C 523.194 126.761 522.567 125.246 522.564 123.659 L 522.564 121.043 L 496.974 121.043 C 495.384 121.04 493.872 120.413 492.747 119.294 C 492.723 119.27 492.699 119.246 492.675 119.222 L 492.675 123.659 C 492.672 125.246 492.045 126.761 490.926 127.886 C 489.801 129.005 488.289 129.632 486.699 129.638 L 462.603 129.638 C 461.016 129.632 459.501 129.008 458.376 127.886 C 458.181 127.691 458.001 127.484 457.839 127.268 C 457.674 127.484 457.497 127.691 457.302 127.886 C 456.177 129.005 454.665 129.632 453.075 129.638 L 394.235 129.638 C 392.648 129.632 391.133 129.008 390.008 127.886 C 389.438 127.313 388.997 126.644 388.697 125.912 C 388.409 126.788 387.917 127.592 387.254 128.258 C 386.126 129.38 384.614 130.007 383.027 130.01 L 337.261 130.01 C 335.674 130.007 334.159 129.38 333.034 128.258 C 332.269 127.49 331.732 126.539 331.468 125.51 C 331.207 126.542 330.67 127.49 329.905 128.261 C 328.78 129.377 327.268 130.007 325.678 130.01 L 284.011 130.01 C 282.85 130.004 281.335 130.01 279.592 129.62 C 277.759 129.221 275.836 128.336 274.153 126.89 C 273.871 126.644 273.691 126.458 273.61 126.377 L 273.598 126.362 L 273.583 126.35 C 273.457 126.218 273.325 126.08 273.175 125.921 C 272.884 125.609 272.527 125.222 272.098 124.748 C 271.246 123.809 270.121 122.552 268.807 121.076 C 266.182 118.124 262.804 114.299 259.468 110.504 C 252.793 102.92 246.273 95.468 246.273 95.468 C 246.072 95.237 245.889 94.991 245.727 94.739 L 245.727 123.659 C 245.724 125.249 245.097 126.761 243.978 127.886 C 242.853 129.005 241.338 129.635 239.751 129.638 L 215.841 129.638 C 214.251 129.635 212.739 129.005 211.614 127.886 C 211.383 127.652 211.173 127.403 210.984 127.142 C 210.795 127.403 210.585 127.652 210.354 127.883 C 209.229 129.008 207.714 129.635 206.127 129.638 L 181.941 129.638 C 180.354 129.632 178.842 129.008 177.714 127.886 C 176.595 126.761 175.968 125.249 175.965 123.659 L 175.965 120.671 L 149.625 120.671 C 148.337 120.668 147.098 120.254 146.075 119.501 L 146.075 123.659 C 146.072 125.249 145.445 126.761 144.326 127.883 C 143.198 129.008 141.686 129.635 140.099 129.638 L 115.058 129.638 C 114.62 129.635 114.038 129.626 113.363 129.524 C 112.607 129.41 111.872 129.191 111.158 128.873 C 109.97 128.321 109.31 127.799 108.596 127.34 L 108.575 127.325 L 108.554 127.31 C 108.017 126.953 107.627 126.554 107.534 126.458 L 107.516 126.44 L 107.498 126.422 C 107.303 126.221 107.153 126.041 107.039 125.903 C 106.808 125.618 106.613 125.354 106.418 125.087 C 106.034 124.544 105.614 123.914 105.128 123.161 C 104.156 121.658 102.923 119.66 101.492 117.305 C 98.633 112.598 95.012 106.478 91.442 100.391 C 85.058 89.507 78.845 78.74 77.609 76.598 L 77.336 123.692 C 77.309 126.965 74.672 129.608 71.387 129.635 L 71.369 129.635 C 71.357 129.635 71.333 129.635 71.306 129.635 C 71.246 129.635 71.159 129.638 71.045 129.638 C 70.82 129.638 70.487 129.641 70.064 129.644 C 69.218 129.647 68.009 129.656 66.557 129.665 C 63.647 129.683 59.756 129.707 55.823 129.728 C 47.947 129.776 39.928 129.824 39.229 129.824 L 39.205 129.824 C 36.406 129.818 34.153 128.897 32.65 127.94 C 32.305 127.724 31.996 127.505 31.723 127.292 L 31.534 127.481 L 5.011 95.438 L 1.372 91.046 C 0.454 89.936 -0.002 88.574 0.001 87.236 C -0.002 86.135 0.304 85.034 0.901 84.074 L 0.901 84.029 L 0.919 84.05 C 1.249 83.525 1.666 83.042 2.167 82.628 C 3.277 81.71 4.639 81.254 5.977 81.254 C 7.687 81.251 9.406 81.998 10.585 83.423 L 39.085 117.857 C 39.103 117.857 39.142 117.86 39.229 117.869 C 39.817 117.869 47.893 117.821 55.748 117.776 C 59.219 117.755 62.657 117.734 65.417 117.716 L 65.942 27.982 C 65.963 24.694 68.633 22.042 71.918 22.039 L 116.936 22.039 C 118.526 22.045 120.038 22.669 121.163 23.791 C 122.285 24.916 122.912 26.428 122.915 28.018 L 122.915 73.223 C 122.912 74.813 122.285 76.325 121.163 77.45 C 120.038 78.572 118.526 79.196 116.936 79.202 L 92.93 79.202 C 93.65 80.447 94.424 81.782 95.24 83.183 C 99.53 90.56 104.909 99.761 109.241 106.997 C 112.115 111.803 114.575 115.811 115.787 117.611 C 115.802 117.635 115.817 117.659 115.835 117.68 C 118.007 117.68 124.118 117.68 129.668 117.68 C 131.231 117.68 132.749 117.68 134.123 117.68 L 134.123 55.682 C 134.126 54.095 134.753 52.58 135.875 51.455 C 136.997 50.336 138.512 49.709 140.102 49.706 L 182.13 49.706 C 183.72 49.709 185.232 50.336 186.357 51.455 C 187.476 52.58 188.106 54.095 188.109 55.682 L 188.109 64.649 C 188.106 66.236 187.476 67.751 186.357 68.876 C 185.232 69.995 183.72 70.622 182.13 70.625 L 155.418 70.625 L 155.418 78.659 L 181.944 78.659 C 183.531 78.662 185.046 79.289 186.171 80.408 C 187.29 81.533 187.917 83.048 187.92 84.635 L 187.923 93.416 C 187.917 95.003 187.29 96.518 186.171 97.64 C 185.043 98.765 183.531 99.389 181.944 99.392 L 155.604 99.392 L 155.604 108.734 L 181.944 108.734 C 183.531 108.737 185.043 109.364 186.171 110.483 C 187.29 111.608 187.917 113.123 187.923 114.71 L 187.923 117.698 L 200.061 117.698 L 200.061 42.979 L 170.736 42.979 C 169.149 42.976 167.634 42.349 166.509 41.23 C 165.39 40.102 164.76 38.59 164.757 37.003 L 164.757 27.475 C 164.76 25.885 165.39 24.37 166.509 23.248 C 167.634 22.126 169.146 21.499 170.736 21.496 L 251.62 21.496 C 253.21 21.499 254.722 22.126 255.847 23.248 C 256.966 24.373 257.593 25.885 257.599 27.475 L 257.599 37 C 257.593 38.587 256.969 40.102 255.847 41.227 C 254.722 42.349 253.21 42.973 251.62 42.979 L 221.73 42.979 L 221.73 117.698 L 233.685 117.698 L 233.685 56.246 C 233.691 54.659 234.318 53.144 235.437 52.019 C 236.565 50.897 238.077 50.273 239.664 50.267 L 280.387 50.267 C 281.977 50.27 283.489 50.897 284.614 52.019 C 285.736 53.144 286.36 54.659 286.366 56.246 L 286.366 91.55 C 286.36 93.137 285.733 94.652 284.614 95.777 C 283.489 96.896 281.977 97.523 280.387 97.526 L 263.875 97.526 C 264.826 98.612 265.816 99.737 266.821 100.88 C 272.893 107.789 279.589 115.367 281.647 117.59 C 281.758 117.71 281.86 117.818 281.935 117.896 C 281.962 117.917 281.98 117.926 281.989 117.932 L 281.992 117.938 C 281.992 117.935 281.992 117.938 282.013 117.944 C 282.037 117.95 282.094 117.968 282.184 117.992 C 282.352 118.025 282.946 118.079 283.795 118.076 C 283.819 118.076 283.885 118.073 283.984 118.076 C 285.241 118.076 294.445 118.073 303.883 118.073 C 309.622 118.073 315.448 118.073 319.615 118.076 L 319.615 116.582 L 304.672 116.582 C 303.082 116.576 301.57 115.949 300.445 114.83 C 299.326 113.705 298.699 112.193 298.696 110.603 L 298.696 55.865 C 298.699 54.275 299.326 52.763 300.445 51.638 C 301.57 50.516 303.085 49.889 304.672 49.886 L 358.844 49.886 C 360.434 49.889 361.946 50.516 363.071 51.638 C 364.19 52.763 364.82 54.275 364.823 55.865 L 364.823 110.597 C 364.817 112.184 364.19 113.699 363.071 114.824 C 361.946 115.943 360.434 116.57 358.844 116.573 L 343.153 116.573 L 343.153 118.067 L 376.964 118.067 L 376.964 28.03 C 376.967 26.443 377.594 24.931 378.716 23.803 C 379.841 22.681 381.353 22.057 382.943 22.054 L 428.708 22.051 C 430.295 22.057 431.807 22.681 432.932 23.803 C 434.054 24.931 434.681 26.443 434.684 28.03 L 434.684 73.049 C 434.681 74.636 434.054 76.151 432.932 77.276 C 431.807 78.395 430.295 79.022 428.705 79.025 L 400.124 79.025 L 400.124 117.692 L 447.012 117.692 L 447.012 48.952 C 447.014 47.362 447.641 45.85 448.76 44.725 C 449.889 43.603 451.401 42.976 452.991 42.973 L 462.516 42.973 C 464.106 42.976 465.618 43.603 466.743 44.725 C 467.865 45.85 468.489 47.362 468.492 48.952 L 468.492 117.692 L 480.636 117.692 L 480.636 56.423 C 480.639 54.836 481.266 53.324 482.385 52.196 C 483.51 51.077 485.025 50.45 486.612 50.447 L 528.081 50.447 C 529.668 50.45 531.183 51.077 532.308 52.196 C 533.43 53.324 534.054 54.836 534.06 56.423 L 534.06 65.018 C 534.054 66.605 533.43 68.117 532.308 69.245 C 531.18 70.364 529.671 70.991 528.081 70.994 L 502.116 70.994 L 502.116 79.214 L 528.828 79.214 C 530.415 79.217 531.93 79.841 533.058 80.963 C 534.174 82.091 534.801 83.603 534.804 85.19 L 534.804 93.782 C 534.801 95.369 534.174 96.884 533.052 98.009 C 531.93 99.128 530.418 99.755 528.828 99.761 L 502.863 99.761 L 502.863 109.1 L 528.453 109.1 C 530.04 109.103 531.555 109.73 532.68 110.849 C 533.802 111.977 534.426 113.489 534.432 115.079 L 534.432 117.692 L 560.212 117.692 C 561.628 117.692 563.041 117.836 564.433 118.247 C 565.858 118.664 567.142 119.348 568.228 120.194 C 570.253 121.805 571.321 123.488 572.434 124.898 C 572.794 125.372 574.03 126.926 575.68 128.984 C 577.339 131.054 579.46 133.691 581.737 136.514 C 586.291 142.16 591.475 148.571 594.895 152.796 C 597.157 155.589 598.636 157.416 598.669 157.458 C 598.669 157.461 598.669 157.458 598.669 157.455 C 598.669 157.455 598.666 157.452 598.669 157.455 C 599.563 158.556 600.001 159.897 600.001 161.214 C 600.004 162.948 599.239 164.682 597.787 165.861 C 596.686 166.752 595.348 167.193 594.034 167.193 L 593.92 167.193 L 594.112 167.184 Z M 543.786 125.525 L 560.296 125.525 C 561.184 125.528 561.808 125.615 562.309 125.765 L 562.357 125.78 L 562.399 125.795 C 562.546 125.846 562.879 125.954 563.233 126.182 C 563.572 126.407 563.77 126.605 564.025 126.845 L 564.049 126.869 C 564.703 127.535 565.333 128.408 566.284 129.647 C 566.926 130.487 568.861 132.908 571.45 136.133 C 579.205 145.778 592.654 162.381 592.654 162.381 L 591.058 163.674 L 592.654 162.381 C 593.026 162.84 593.554 163.071 594.109 163.074 C 594.526 163.071 594.931 162.939 595.279 162.657 C 595.741 162.282 595.972 161.754 595.975 161.202 C 595.969 160.785 595.84 160.38 595.54 160.005 C 595.528 159.993 595.51 159.972 595.489 159.942 C 595.441 159.888 595.375 159.804 595.288 159.696 C 595.111 159.477 594.853 159.159 594.523 158.754 C 593.866 157.941 592.924 156.777 591.784 155.37 C 588.367 151.146 583.18 144.734 578.623 139.082 C 576.343 136.256 574.222 133.619 572.56 131.543 C 570.895 129.467 569.683 127.943 569.266 127.397 C 568.009 125.78 567.22 124.556 565.774 123.41 C 565.114 122.897 564.253 122.438 563.362 122.18 C 562.441 121.907 561.439 121.79 560.296 121.79 C 558.994 121.79 540.666 121.79 532.461 121.79 L 530.406 121.79 L 530.406 115.067 C 530.412 114.587 530.199 114.08 529.86 113.744 C 529.524 113.405 529.017 113.195 528.54 113.198 L 498.837 113.198 L 498.837 95.639 L 528.915 95.639 C 529.392 95.642 529.899 95.432 530.235 95.093 C 530.574 94.757 530.784 94.25 530.781 93.77 L 530.781 85.178 C 530.784 84.701 530.574 84.191 530.235 83.858 C 529.899 83.516 529.392 83.306 528.915 83.312 L 498.09 83.312 L 498.09 66.872 L 528.168 66.872 C 528.642 66.875 529.152 66.665 529.488 66.326 C 529.827 65.99 530.037 65.483 530.034 65.006 L 530.034 56.411 C 530.037 55.934 529.827 55.427 529.488 55.091 C 529.152 54.752 528.645 54.539 528.168 54.545 L 486.699 54.545 C 486.219 54.542 485.712 54.749 485.376 55.091 C 485.037 55.427 484.827 55.934 484.83 56.411 L 484.83 121.79 L 464.466 121.79 L 464.466 48.94 C 464.472 48.46 464.262 47.953 463.92 47.617 C 463.587 47.278 463.077 47.068 462.6 47.071 L 453.075 47.071 C 452.595 47.068 452.088 47.278 451.752 47.62 C 451.413 47.953 451.203 48.46 451.206 48.94 L 451.206 121.79 L 430.19 121.79 L 396.101 121.79 L 396.101 74.9 L 428.789 74.9 C 429.266 74.906 429.776 74.693 430.112 74.354 C 430.451 74.018 430.661 73.511 430.658 73.034 L 430.658 28.015 C 430.661 27.535 430.451 27.028 430.112 26.692 C 429.776 26.353 429.269 26.143 428.792 26.146 L 383.027 26.146 C 382.547 26.143 382.04 26.353 381.704 26.692 C 381.365 27.028 381.155 27.538 381.158 28.015 L 381.158 122.162 L 339.127 122.162 L 339.127 112.448 L 358.931 112.448 C 359.408 112.451 359.915 112.241 360.251 111.902 C 360.593 111.566 360.803 111.059 360.797 110.582 L 360.797 55.85 C 360.803 55.37 360.593 54.866 360.248 54.527 C 359.915 54.188 359.408 53.978 358.931 53.981 L 304.759 53.981 C 304.279 53.978 303.772 54.188 303.436 54.527 C 303.097 54.866 302.887 55.37 302.89 55.85 L 302.89 110.582 C 302.887 111.059 303.097 111.566 303.439 111.902 C 303.772 112.241 304.282 112.451 304.759 112.448 L 323.812 112.448 L 323.812 122.162 L 321.757 122.162 C 317.605 122.162 310.726 122.162 303.967 122.162 C 294.406 122.162 285.079 122.162 284.026 122.162 L 283.999 122.162 L 283.978 122.162 L 283.882 122.162 C 282.814 122.156 282.052 122.132 281.284 121.958 L 281.263 121.952 L 281.248 121.949 C 280.753 121.853 279.91 121.493 279.373 121.019 L 279.268 120.938 L 279.175 120.839 C 279.082 120.746 278.914 120.569 278.716 120.356 C 276.571 118.037 269.911 110.498 263.821 103.571 C 261.706 101.165 259.657 98.828 257.881 96.806 L 254.89 93.395 L 280.474 93.395 C 280.951 93.398 281.461 93.188 281.794 92.849 C 282.136 92.513 282.346 92.006 282.343 91.526 L 282.343 56.225 C 282.346 55.745 282.136 55.238 281.794 54.902 C 281.461 54.563 280.951 54.353 280.474 54.356 L 239.781 54.356 C 239.304 54.353 238.797 54.563 238.461 54.902 C 238.119 55.238 237.909 55.745 237.912 56.225 L 237.912 121.79 L 217.74 121.79 L 217.74 38.839 L 251.737 38.839 C 252.214 38.845 252.724 38.632 253.06 38.293 C 253.399 37.957 253.609 37.45 253.606 36.973 L 253.606 27.442 C 253.609 26.965 253.399 26.458 253.057 26.122 C 252.724 25.78 252.214 25.57 251.737 25.576 L 170.85 25.576 C 170.373 25.57 169.863 25.78 169.527 26.122 C 169.188 26.458 168.978 26.965 168.981 27.442 L 168.981 36.97 C 168.978 37.447 169.188 37.954 169.527 38.29 C 169.863 38.629 170.37 38.842 170.85 38.836 L 204.285 38.836 L 204.285 121.775 L 183.924 121.775 L 183.924 114.677 C 183.93 114.2 183.72 113.693 183.378 113.357 C 183.042 113.018 182.535 112.805 182.058 112.808 L 151.608 112.808 L 151.608 95.249 L 182.058 95.249 C 182.535 95.255 183.042 95.045 183.378 94.703 C 183.72 94.367 183.93 93.86 183.924 93.383 L 183.924 84.602 C 183.93 84.125 183.72 83.618 183.378 83.282 C 183.042 82.943 182.535 82.73 182.058 82.736 L 151.422 82.736 L 151.422 66.485 L 182.244 66.485 C 182.721 66.488 183.228 66.278 183.564 65.936 C 183.906 65.603 184.116 65.093 184.113 64.616 L 184.113 55.649 C 184.116 55.172 183.906 54.665 183.564 54.329 C 183.228 53.987 182.721 53.777 182.244 53.783 L 140.21 53.783 C 139.733 53.777 139.226 53.987 138.887 54.329 C 138.548 54.665 138.338 55.172 138.341 55.649 L 138.341 121.775 L 136.286 121.775 L 129.776 121.775 C 123.23 121.775 115.889 121.775 115.178 121.775 C 115.172 121.775 115.127 121.775 115.043 121.772 L 114.506 121.742 L 114.053 121.451 C 113.915 121.364 113.726 121.241 113.489 121.082 L 113.18 120.875 L 112.961 120.575 C 112.835 120.398 112.664 120.158 112.481 119.882 C 111.164 117.926 108.719 113.933 105.824 109.091 C 101.477 101.825 96.092 92.618 91.796 85.232 C 90.257 82.583 88.856 80.168 87.695 78.161 L 85.91 75.077 L 117.047 75.077 C 117.524 75.08 118.034 74.87 118.367 74.528 C 118.709 74.192 118.919 73.685 118.916 73.208 L 118.916 28.009 C 118.919 27.532 118.709 27.022 118.367 26.686 C 118.031 26.347 117.527 26.137 117.047 26.143 L 72.029 26.143 C 71.009 26.137 70.163 26.977 70.16 27.997 L 69.611 121.793 L 67.58 121.805 C 64.604 121.823 60.272 121.85 55.883 121.874 C 48.019 121.922 39.97 121.97 39.322 121.97 C 38.314 121.985 37.399 121.592 36.988 121.322 L 36.973 121.313 L 36.955 121.304 C 36.676 121.127 36.499 120.974 36.373 120.857 L 36.28 120.77 L 7.528 86.033 C 7.153 85.583 6.631 85.361 6.088 85.358 C 5.662 85.358 5.251 85.493 4.897 85.787 C 4.447 86.159 4.222 86.681 4.219 87.227 C 4.222 87.641 4.351 88.046 4.63 88.394 L 33.166 122.867 L 33.367 123.11 C 33.517 123.287 34 123.851 34.963 124.463 C 35.92 125.075 37.444 125.708 39.316 125.705 L 39.34 125.705 C 40.675 125.705 71.459 125.519 71.48 125.519 C 72.491 125.516 73.337 124.673 73.337 123.659 L 73.886 29.875 L 115.181 29.875 L 115.181 71.345 L 82.679 71.348 C 82.01 71.348 81.398 71.699 81.062 72.281 C 80.894 72.569 80.81 72.89 80.81 73.214 C 80.81 73.526 80.888 73.835 81.044 74.12 C 81.05 74.129 81.053 74.132 81.053 74.132 C 81.056 74.138 81.056 74.138 81.059 74.141 C 81.062 74.144 81.062 74.15 81.065 74.153 C 81.068 74.159 81.074 74.168 81.08 74.18 C 81.095 74.204 81.113 74.237 81.14 74.285 C 81.194 74.375 81.272 74.51 81.374 74.687 C 81.575 75.038 81.875 75.557 82.253 76.214 C 83.012 77.528 84.101 79.409 85.409 81.668 C 88.028 86.189 91.538 92.228 95.102 98.303 C 98.666 104.378 102.281 110.489 105.119 115.16 C 106.538 117.5 107.762 119.474 108.695 120.92 C 109.163 121.646 109.553 122.234 109.877 122.687 C 110.048 122.927 110.183 123.107 110.321 123.275 C 110.411 123.38 110.465 123.446 110.552 123.539 C 110.744 123.725 110.687 123.689 110.993 123.911 L 110.993 123.911 C 111.884 124.493 112.211 124.766 112.991 125.129 C 113.276 125.264 113.753 125.405 114.083 125.447 C 114.476 125.507 114.797 125.516 115.184 125.516 L 140.213 125.516 C 140.693 125.522 141.197 125.312 141.533 124.97 C 141.875 124.634 142.085 124.127 142.082 123.65 L 142.082 57.515 L 180.381 57.515 L 180.381 62.747 L 149.559 62.747 C 149.082 62.744 148.575 62.954 148.238 63.293 C 147.896 63.629 147.686 64.136 147.689 64.616 L 147.689 84.602 C 147.686 85.079 147.896 85.589 148.235 85.922 C 148.572 86.264 149.082 86.474 149.559 86.471 L 180.192 86.471 L 180.192 91.514 L 149.745 91.514 C 149.268 91.511 148.761 91.721 148.424 92.06 C 148.085 92.396 147.875 92.903 147.878 93.383 L 147.878 114.677 C 147.875 115.154 148.085 115.661 148.428 115.997 C 148.761 116.336 149.268 116.546 149.745 116.543 L 180.195 116.543 L 180.195 123.644 C 180.189 124.121 180.402 124.628 180.741 124.964 C 181.077 125.303 181.581 125.513 182.061 125.51 L 206.16 125.51 C 206.637 125.513 207.144 125.303 207.477 124.964 C 207.819 124.625 208.029 124.121 208.026 123.644 L 208.026 36.967 C 208.029 36.49 207.819 35.983 207.477 35.647 C 207.144 35.308 206.637 35.098 206.16 35.101 L 172.722 35.101 L 172.722 29.311 L 249.874 29.311 L 249.874 35.101 L 215.877 35.101 C 215.397 35.098 214.89 35.308 214.554 35.647 C 214.215 35.983 214.005 36.49 214.008 36.967 L 214.008 123.644 C 214.005 124.121 214.215 124.625 214.554 124.964 C 214.893 125.303 215.397 125.513 215.877 125.51 L 239.787 125.51 C 240.264 125.513 240.771 125.303 241.107 124.964 C 241.446 124.625 241.656 124.121 241.653 123.644 L 241.653 58.076 L 278.641 58.076 L 278.641 89.645 L 250.807 89.645 C 250.075 89.645 249.406 90.077 249.106 90.746 C 248.995 90.989 248.938 91.247 248.938 91.511 C 248.941 91.952 249.094 92.384 249.403 92.747 L 249.406 92.747 L 249.406 92.75 C 249.409 92.753 249.415 92.759 249.421 92.765 C 249.433 92.78 249.454 92.801 249.475 92.828 C 249.526 92.885 249.598 92.969 249.694 93.077 C 249.886 93.296 250.168 93.617 250.525 94.028 C 251.239 94.844 252.262 96.011 253.495 97.415 C 255.958 100.226 259.255 103.985 262.588 107.774 C 265.924 111.563 269.296 115.385 271.915 118.328 C 273.223 119.798 274.342 121.049 275.179 121.973 C 275.596 122.432 275.941 122.807 276.208 123.092 C 276.343 123.236 276.457 123.356 276.562 123.467 C 276.712 123.614 276.694 123.605 276.88 123.767 C 277.981 124.724 279.331 125.339 280.51 125.591 C 281.767 125.87 282.892 125.879 284.059 125.885 L 325.714 125.885 C 326.191 125.888 326.698 125.678 327.034 125.339 C 327.376 125.003 327.586 124.493 327.58 124.016 L 327.58 110.567 C 327.586 110.087 327.376 109.58 327.034 109.247 C 326.701 108.905 326.191 108.695 325.714 108.698 L 306.661 108.698 L 306.661 57.71 L 357.095 57.71 L 357.095 108.707 L 337.294 108.707 C 336.817 108.704 336.31 108.914 335.974 109.253 C 335.632 109.589 335.422 110.096 335.425 110.573 L 335.425 124.025 C 335.422 124.502 335.632 125.009 335.971 125.345 C 336.307 125.684 336.814 125.894 337.294 125.891 L 383.06 125.891 C 383.537 125.894 384.044 125.684 384.38 125.345 C 384.719 125.009 384.929 124.499 384.926 124.025 L 384.926 29.878 L 426.956 29.878 L 426.956 71.162 L 394.268 71.162 C 393.788 71.156 393.284 71.366 392.948 71.708 C 392.606 72.044 392.396 72.551 392.399 73.028 L 392.399 123.65 C 392.396 124.127 392.606 124.637 392.948 124.973 C 393.281 125.312 393.788 125.522 394.268 125.519 L 453.111 125.519 C 453.585 125.522 454.092 125.312 454.428 124.97 C 454.77 124.637 454.98 124.13 454.977 123.65 L 454.977 50.801 L 460.767 50.801 L 460.767 123.65 C 460.764 124.127 460.974 124.637 461.316 124.973 C 461.649 125.312 462.156 125.522 462.636 125.519 L 486.732 125.519 C 487.209 125.522 487.716 125.312 488.052 124.97 C 488.391 124.637 488.601 124.13 488.598 123.65 L 488.598 58.271 L 526.332 58.271 L 526.332 63.128 L 496.257 63.131 C 495.78 63.125 495.273 63.335 494.937 63.677 C 494.598 64.013 494.388 64.52 494.391 64.997 L 494.391 85.172 C 494.388 85.649 494.598 86.159 494.937 86.492 C 495.273 86.831 495.78 87.044 496.257 87.038 L 527.079 87.038 L 527.079 91.895 L 497.007 91.895 C 496.527 91.892 496.02 92.102 495.684 92.444 C 495.345 92.777 495.132 93.287 495.138 93.764 L 495.138 115.058 C 495.132 115.535 495.345 116.045 495.684 116.378 C 496.02 116.72 496.527 116.93 497.007 116.927 L 526.707 116.927 L 526.707 123.653 C 526.701 124.13 526.914 124.637 527.256 124.973 C 527.586 125.312 528.096 125.522 528.573 125.519 L 543.816 125.519 L 543.786 125.525 Z M 310.738 104.606 L 325.681 104.606 C 327.268 104.609 328.783 105.236 329.908 106.355 C 330.676 107.126 331.21 108.074 331.471 109.106 C 331.735 108.074 332.272 107.123 333.037 106.355 C 334.162 105.236 335.677 104.609 337.264 104.606 L 352.955 104.603 L 352.955 61.832 L 310.738 61.832 L 310.738 104.609 L 310.738 104.606 L 310.738 104.606 Z M 249.379 92.777 C 249.373 92.771 249.373 92.771 249.37 92.768 L 249.367 92.765 L 249.364 92.762 L 249.364 92.762 C 249.37 92.771 249.373 92.774 249.376 92.777 L 249.379 92.777 Z M 245.724 88.325 C 246.81 86.615 248.704 85.556 250.768 85.553 L 274.489 85.553 L 274.489 62.207 L 245.724 62.207 L 245.724 88.322 L 245.715 88.325 L 245.724 88.325 Z M 389.006 70.148 C 389.273 69.662 389.609 69.212 390.011 68.813 C 391.136 67.691 392.648 67.064 394.238 67.061 L 422.816 67.061 L 422.816 33.997 L 389.006 33.997 L 389.006 70.151 L 389.006 70.148 Z M 77.732 69.824 C 78.842 68.219 80.675 67.247 82.649 67.247 L 111.041 67.247 L 111.041 33.997 L 77.942 33.997 L 77.729 69.824 L 77.732 69.824 Z M 210.978 33.502 C 210.996 33.481 211.011 33.457 211.029 33.436 L 210.93 33.436 C 210.948 33.457 210.963 33.481 210.978 33.502 Z" id="path240" style="fill: rgb(255, 255, 255);"/>
    <path d="M 454.422 34.903 L 441.161 21.64 C 440.417 20.899 440.003 19.885 440.012 18.838 C 440.018 17.791 440.447 16.783 441.2 16.051 L 454.464 3.163 C 456.009 1.663 458.478 1.687 459.99 3.223 L 472.881 16.3 C 474.384 17.824 474.384 20.281 472.881 21.805 L 459.99 34.882 C 459.255 35.629 458.259 36.046 457.212 36.052 L 457.2 36.052 C 456.114 36.049 455.106 35.638 454.398 34.9 Z M 449.493 18.907 L 457.146 26.56 L 464.547 19.051 L 457.107 11.506 L 449.487 18.907 Z" id="path244" style="fill: none;"/>
    <path d="M 457.188 38.104 C 455.604 38.104 454.08 37.474 452.958 36.355 L 454.413 34.9 L 452.958 36.352 L 439.697 23.095 C 438.575 21.973 437.945 20.458 437.945 18.874 C 437.945 18.868 437.945 18.856 437.945 18.835 C 437.945 18.814 437.945 18.79 437.948 18.76 C 437.975 17.182 438.626 15.682 439.757 14.581 L 453.021 1.69 C 454.179 0.565 455.691 -0.002 457.185 0.001 C 458.724 -0.002 460.278 0.598 461.445 1.78 L 474.333 14.857 C 475.476 16.015 476.055 17.545 476.052 19.054 C 476.055 20.563 475.476 22.09 474.333 23.251 L 461.445 36.325 C 460.329 37.462 458.799 38.104 457.2 38.107 L 457.239 38.107 L 457.188 38.104 Z M 457.188 33.994 L 457.191 33.994 C 457.698 33.991 458.163 33.796 458.514 33.439 L 471.405 20.362 C 471.765 19.993 471.939 19.531 471.942 19.051 C 471.942 18.568 471.765 18.106 471.405 17.74 L 458.517 4.663 C 458.145 4.288 457.674 4.108 457.185 4.108 C 456.711 4.108 456.252 4.279 455.886 4.633 L 442.622 17.524 C 442.265 17.866 442.058 18.355 442.055 18.85 L 442.055 18.904 C 442.064 19.378 442.262 19.846 442.601 20.185 L 447.272 24.853 L 455.865 33.445 C 456.237 33.802 456.687 33.994 457.209 33.994 L 457.188 33.994 Z M 448.034 20.359 L 446.561 18.883 L 457.134 8.608 L 467.427 19.051 L 457.152 29.476 L 447.999 20.359 L 448.034 20.359 Z M 457.149 23.644 L 461.676 19.051 L 457.092 14.401 L 452.433 18.925 L 457.179 23.644 L 457.149 23.644 Z" id="path246" style="fill: rgb(255, 255, 255);"/>
  </g>
</svg>