<?xml version="1.0" encoding="utf-8"?>
<svg version="1.1" id="svg2" xmlns="http://www.w3.org/2000/svg">
  <path d="M 16.321 27.165 C 21.066 19.982 20.959 4.692 20.959 0.925 L 24.453 0.925 C 24.439 2.375 25.215 16.951 22.754 26.13 C 20.293 35.309 11.106 45.606 0 45.606 L 0 39.093 C 3.266 39.093 11.578 34.348 16.321 27.165 Z" id="path13" style="fill: rgb(255, 255, 255);"/>
  <rect width="6.262" height="44.773" x="25.424" y="0.925" id="rect2854" style="fill: rgb(255, 255, 255);"/>
  <path d="M 40.787 27.165 C 36.042 19.982 36.149 4.692 36.149 0.925 L 32.655 0.925 C 32.669 2.375 31.893 16.951 34.354 26.13 C 36.815 35.309 46.002 45.606 57.108 45.606 L 57.108 39.093 C 53.842 39.093 45.53 34.348 40.787 27.165 Z" id="path2858" style="fill: rgb(255, 255, 255);"/>
  <rect width="7.194" height="45.218" x="133.374" y="123.258" id="rect3" transform="matrix(1.000002, 0, 0, 1, 59.431709, -122.078212)" style="fill: rgb(255, 255, 255);"/>
  <path d="M 79.223 0.035 C 76.957 0.035 75.023 1.439 74.275 3.446 L 74.275 3.483 L 61.456 46.4 L 69.139 46.4 L 72.101 34.743 L 86.381 34.743 L 89.492 46.4 L 97.363 46.4 L 84.207 3.446 L 84.17 3.446 C 83.413 1.449 81.489 0.035 79.223 0.035 Z M 79.147 9.893 L 84.095 28.709 L 74.312 28.709 L 79.147 9.893 Z" id="path5" style="fill: rgb(255, 255, 255);"/>
  <path d="M 93.203 1.01 L 93.203 7.081 L 104.372 7.081 L 104.372 46.4 L 111.568 46.4 L 111.568 7.081 L 122.775 7.081 L 122.775 1.01 L 93.203 1.01 Z" id="path7" style="fill: rgb(255, 255, 255);"/>
  <path d="M 177.83 29.981 C 177.62 29.623 177.493 29.191 177.493 28.712 C 177.493 28.279 177.603 27.887 177.773 27.55 C 178.04 27.13 178.517 26.892 178.835 26.69 C 182.581 24.413 185.241 19.626 185.241 14.082 C 185.241 6.647 180.561 0.555 174.758 0.085 C 174.035 -0.01 172.404 0 172.404 0 L 164.215 0 L 164.22 0 C 161.38 0 159.07 3.075 159.07 6.864 L 159.081 6.875 L 159.081 46.394 L 166.073 46.394 L 166.073 9.696 L 166.07 9.696 C 166.07 8.546 166.77 7.608 167.631 7.608 L 172.349 7.608 C 172.777 7.608 174.058 7.64 174.312 7.688 L 174.312 7.692 C 176.398 7.92 178.092 9.901 178.584 12.523 C 178.611 12.63 178.63 12.736 178.644 12.844 C 178.644 12.854 178.644 12.865 178.644 12.868 C 178.672 13.029 178.685 13.181 178.699 13.337 C 178.725 13.581 178.729 13.829 178.729 14.081 C 178.729 16.495 177.731 18.607 176.255 19.703 C 175.955 19.94 175.646 20.146 175.318 20.324 C 175.087 20.464 174.818 20.594 174.536 20.72 C 172.65 21.607 171.841 22.133 171.053 23.142 C 170.17 24.375 169.612 26.04 169.597 27.88 C 169.583 29.61 170.034 31.19 170.803 32.414 L 179.685 46.4 L 188.004 46.4 L 177.83 29.98" id="path9" style="fill: rgb(255, 255, 255);"/>
  <path d="M 137.362 0.035 C 135.097 0.035 133.163 1.439 132.415 3.446 L 132.415 3.483 L 119.597 46.4 L 127.28 46.4 L 130.241 34.743 L 144.521 34.743 L 147.633 46.4 L 155.503 46.4 L 142.348 3.446 L 142.31 3.446 C 141.554 1.449 139.63 0.035 137.362 0.035 Z M 137.288 9.893 L 142.235 28.709 L 132.453 28.709 L 137.288 9.893 Z" id="path2852" style="fill: rgb(255, 255, 255);"/>
</svg>