<?xml version="1.0" encoding="utf-8"?>
<svg version="1.1" id="svg2" xmlns="http://www.w3.org/2000/svg">
  <path d="M 16.774 24.878 C 20.73 18.889 20.641 6.141 20.641 3 L 23.554 3 C 23.542 4.209 24.189 16.362 22.137 24.015 C 20.085 31.668 12.426 40.253 3.166 40.253 L 3.166 34.823 C 5.889 34.823 12.819 30.867 16.774 24.878 Z" id="path13" style="fill: rgb(255, 255, 255);"/>
  <rect width="5.221" height="37.33" x="24.363" y="3" id="rect2854" style="fill: rgb(255, 255, 255);"/>
  <path d="M 37.172 24.878 C 33.216 18.889 33.305 6.141 33.305 3 L 30.392 3 C 30.404 4.209 29.757 16.362 31.809 24.015 C 33.861 31.668 41.52 40.253 50.78 40.253 L 50.78 34.823 C 48.057 34.823 41.127 30.867 37.172 24.878 Z" id="path2858" style="fill: rgb(255, 255, 255);"/>
  <rect width="5.998" height="37.701" x="111.201" y="102.767" id="rect3" transform="matrix(0.999999, 0, 0, 1, 52.717556, -99.554222)" style="fill: rgb(255, 255, 255);"/>
  <path d="M 69.218 2.258 C 67.329 2.258 65.717 3.429 65.093 5.102 L 65.093 5.133 L 54.405 40.915 L 60.811 40.915 L 63.28 31.196 L 75.186 31.196 L 77.78 40.915 L 84.343 40.915 L 73.374 5.102 L 73.343 5.102 C 72.712 3.437 71.108 2.258 69.218 2.258 Z M 69.155 10.477 L 73.28 26.165 L 65.124 26.165 L 69.155 10.477 Z" id="path5" style="fill: rgb(255, 255, 255);"/>
  <path d="M 80.874 3.071 L 80.874 8.133 L 90.186 8.133 L 90.186 40.915 L 96.186 40.915 L 96.186 8.133 L 105.53 8.133 L 105.53 3.071 L 80.874 3.071 Z" id="path7" style="fill: rgb(255, 255, 255);"/>
  <path d="M 151.432 27.226 C 151.257 26.927 151.151 26.567 151.151 26.168 C 151.151 25.807 151.243 25.48 151.385 25.199 C 151.607 24.849 152.005 24.65 152.27 24.482 C 155.393 22.583 157.611 18.592 157.611 13.97 C 157.611 7.771 153.709 2.692 148.871 2.3 C 148.268 2.221 146.908 2.229 146.908 2.229 L 140.081 2.229 L 140.085 2.229 C 137.717 2.229 135.791 4.793 135.791 7.952 L 135.8 7.961 L 135.8 40.91 L 141.63 40.91 L 141.63 10.313 L 141.627 10.313 C 141.627 9.354 142.211 8.572 142.929 8.572 L 146.862 8.572 C 147.219 8.572 148.287 8.599 148.499 8.639 L 148.499 8.642 C 150.238 8.832 151.651 10.484 152.061 12.67 C 152.083 12.759 152.099 12.848 152.111 12.938 C 152.111 12.946 152.111 12.955 152.111 12.958 C 152.134 13.092 152.145 13.219 152.157 13.349 C 152.178 13.552 152.182 13.759 152.182 13.969 C 152.182 15.982 151.35 17.743 150.119 18.656 C 149.869 18.854 149.611 19.026 149.338 19.174 C 149.145 19.291 148.921 19.399 148.686 19.504 C 147.113 20.244 146.439 20.682 145.782 21.524 C 145.046 22.552 144.58 23.94 144.568 25.474 C 144.556 26.916 144.932 28.234 145.573 29.254 L 152.979 40.915 L 159.915 40.915 L 151.432 27.225" id="path9" style="fill: rgb(255, 255, 255);"/>
  <path d="M 117.692 2.258 C 115.803 2.258 114.191 3.429 113.567 5.102 L 113.567 5.133 L 102.88 40.915 L 109.286 40.915 L 111.755 31.196 L 123.661 31.196 L 126.255 40.915 L 132.817 40.915 L 121.849 5.102 L 121.817 5.102 C 121.187 3.437 119.583 2.258 117.692 2.258 Z M 117.63 10.477 L 121.755 26.165 L 113.599 26.165 L 117.63 10.477 Z" id="path2852" style="fill: rgb(255, 255, 255);"/>
</svg>