<?xml version="1.0" encoding="utf-8"?>
<svg version="1.0" viewBox="0 0 1280 720" preserveAspectRatio="xMidYMid meet" xmlns="http://www.w3.org/2000/svg">
  <path d="M 330.327 718.4 C 329.447 716.801 218.196 301.963 217.237 296.602 C 215.799 288.924 221.073 278.524 228.266 274.924 C 230.584 273.724 249.446 268.285 271.584 262.366 C 293.163 256.606 330.007 246.768 353.504 240.449 C 377.001 234.129 432.787 219.171 477.383 207.252 C 521.98 195.253 558.664 185.334 558.823 185.174 C 559.063 185.014 558.424 179.735 557.385 173.416 C 550.192 127.02 549.233 71.266 554.587 16.071 C 556.346 -2.007 554.427 0.073 569.453 0.073 L 582.321 0.073 L 581.761 3.833 C 576.246 46.307 575.207 100.703 579.284 140.859 C 581.122 159.017 583.759 176.375 584.718 177.335 C 585.437 178.055 667.757 156.297 913.357 90.464 C 1093.581 42.149 1244.074 2.073 1247.83 1.353 C 1252.306 0.553 1258.86 0.073 1266.852 0.073 L 1279 0.073 L 1279 17.591 C 1279 28.55 1278.68 35.35 1278.2 35.669 C 1277.721 35.909 1197.08 57.667 1098.936 83.984 L 920.551 131.82 L 920.071 136.939 C 919.272 145.098 916.474 150.297 910.72 154.058 C 907.603 156.136 907.843 156.056 827.441 177.575 C 799.549 185.014 749.118 198.533 715.39 207.571 C 650.254 225.09 647.377 225.649 640.824 222.931 C 636.507 221.09 632.512 217.73 630.354 213.892 C 629.235 212.051 628.116 210.452 627.876 210.452 C 627.556 210.452 540.602 233.729 451.808 257.567 C 437.102 261.487 392.746 273.406 353.185 283.963 C 313.703 294.603 280.216 303.802 278.697 304.521 C 273.103 307.161 268.067 315.241 267.987 321.481 C 267.987 323.56 288.288 400.832 319.138 516.26 C 365.573 689.603 372.126 714 373.885 718.64 C 374.444 719.919 373.085 720 352.785 720 C 332.085 720 331.126 719.919 330.327 718.4 Z" style="fill: rgb(30, 30, 30);"/>
  <path d="M 426.233 719.2 C 426.872 718.8 428.071 718.4 428.79 718.4 C 429.51 718.4 430.229 718.08 430.389 717.68 C 430.549 717.12 594.229 672.884 717.149 640.249 C 729.697 636.888 740.326 633.848 740.806 633.528 C 741.366 633.048 740.087 627.049 736.57 613.851 C 730.576 591.053 730.336 588.093 734.172 580.735 C 735.93 577.295 737.849 574.895 740.087 573.294 C 743.682 570.815 734.412 573.374 939.412 518.42 C 974.977 508.902 1000.473 502.421 1002.63 502.421 C 1010.142 502.421 1018.455 507.221 1021.571 513.54 C 1022.37 515.14 1025.328 524.899 1028.045 535.218 C 1030.762 545.537 1033.32 554.256 1033.56 554.577 C 1033.879 554.896 1061.372 547.857 1094.78 538.898 C 1214.743 506.661 1275.404 490.504 1277.001 490.264 C 1278.6 490.023 1278.6 490.504 1278.84 511.381 L 1279 532.659 L 1276.443 533.538 C 1275.004 534.019 1228.888 546.418 1173.903 561.136 C 1118.997 575.854 996.876 608.571 902.567 633.928 C 656.568 699.922 591.352 717.2 583.68 718.72 C 577.685 719.84 567.935 720 500.96 720 C 451.648 720 425.434 719.68 426.233 719.2 Z" style="fill: rgb(30, 30, 30);"/>
  <path d="M 504.956 634.409 C 500.641 633.688 497.283 631.848 494.487 628.569 C 491.29 624.969 490.89 624.009 485.055 602.171 C 482.259 591.612 479.621 582.813 479.301 582.413 C 478.902 582.093 470.11 584.094 459.8 586.893 C 438.861 592.572 432.627 593.213 426.632 590.493 C 423.036 588.893 419.36 584.973 417.761 581.054 C 417.122 579.695 411.847 560.416 405.853 538.259 C 394.425 495.382 393.625 491.384 396.342 484.983 C 397.861 481.225 401.617 477.384 405.294 475.705 C 406.972 474.984 416.882 472.105 427.352 469.225 C 437.822 466.426 446.773 463.785 447.092 463.465 C 447.492 463.066 445.654 454.746 443.017 444.908 C 437.422 423.95 436.862 417.79 440.139 410.831 C 442.058 406.671 445.814 402.831 449.33 401.473 C 450.449 401.073 464.756 397.072 480.98 392.593 C 506.394 385.713 511.43 384.513 516.944 384.513 C 522.539 384.433 523.818 384.673 527.174 386.674 C 533.888 390.673 534.368 391.713 542.6 422.669 C 544.757 430.83 546.755 436.829 547.315 436.829 C 547.794 436.829 556.985 434.429 567.775 431.549 C 584.558 427.069 587.995 426.35 592.231 426.67 C 600.943 427.31 606.697 432.19 609.494 441.229 C 610.213 443.468 615.328 462.266 620.843 483.143 C 630.354 518.66 630.993 521.539 630.674 527.219 C 630.514 532.258 630.034 533.939 628.276 536.658 C 624.759 541.858 620.523 543.777 599.344 549.457 C 588.794 552.257 579.683 554.976 579.204 555.537 C 578.484 556.176 579.603 561.217 583.44 575.214 C 588.075 592.252 588.554 594.652 588.315 600.572 C 588.075 606.411 587.835 607.451 585.597 610.572 C 583.998 612.731 581.522 614.81 578.804 616.171 C 574.488 618.33 517.584 633.928 511.35 634.648 C 509.592 634.808 506.714 634.728 504.956 634.409 Z M 536.925 605.611 C 557.784 600.012 560.342 599.133 562.66 596.972 C 565.537 594.333 565.137 592.012 557.704 564.175 C 553.469 548.337 551.711 540.498 552.27 539.938 C 552.67 539.539 562.34 536.658 573.769 533.618 C 607.496 524.5 607.416 524.58 606.617 517.46 C 606.137 512.42 592.151 460.266 590.073 455.466 C 588.235 451.307 586.157 450.107 581.921 450.827 C 580.163 451.147 568.254 454.186 555.466 457.626 C 537.404 462.505 531.89 463.705 531.251 462.986 C 530.691 462.425 527.734 452.347 524.537 440.508 C 517.823 415.31 516.305 410.831 513.668 409.152 C 511.27 407.551 510.391 407.711 489.052 413.31 C 462.918 420.27 460.759 421.39 461.639 427.949 C 461.799 429.63 464.836 441.469 468.192 454.266 C 471.629 467.065 474.187 477.945 474.027 478.584 C 473.787 479.145 464.995 481.864 452.927 485.143 C 427.991 491.783 423.196 493.302 420.719 495.542 C 419.12 496.982 418.96 497.702 419.28 501.222 C 419.839 506.101 433.746 558.336 435.743 562.815 C 437.742 567.375 439.18 568.256 443.656 567.855 C 445.735 567.615 457.962 564.656 470.83 561.217 C 484.815 557.456 494.487 555.216 494.886 555.697 C 495.285 556.096 498.003 565.455 500.88 576.414 C 507.593 601.452 509.112 606.331 511.27 608.731 C 512.789 610.331 513.428 610.492 517.344 610.171 C 519.742 609.931 528.613 607.931 536.925 605.611 Z" style="fill: rgb(30, 30, 30);"/>
  <path d="M 727.938 550.898 C 724.421 549.217 721.145 546.338 718.108 542.337 C 717.548 541.617 712.274 522.899 706.279 500.743 C 694.291 456.267 693.891 454.106 697.168 446.587 C 699.167 441.868 704.601 436.589 708.597 435.309 C 710.036 434.908 767.819 419.311 837.032 400.752 C 956.355 368.835 963.148 367.076 968.264 367.395 C 977.055 368.036 984.248 373.474 986.726 381.394 C 987.445 383.473 992.48 402.193 997.995 422.91 C 1008.465 462.185 1009.104 465.625 1006.866 472.026 C 1005.267 476.585 1000.871 481.864 997.275 483.544 C 995.677 484.343 973.778 490.504 948.683 497.223 C 748.478 550.978 741.366 552.816 736.65 552.816 C 733.373 552.816 730.736 552.257 727.938 550.898 Z M 797.231 494.342 C 837.751 483.464 841.348 482.344 843.185 479.544 C 844.384 477.705 844.384 477.064 843.105 471.305 C 840.948 461.226 837.352 450.428 835.353 448.348 C 833.195 446.028 831.518 445.948 823.205 448.108 C 809.539 451.548 751.516 467.305 749.358 468.105 C 745.841 469.385 743.523 472.026 743.523 474.664 C 743.523 480.265 749.597 500.262 752.075 502.982 C 753.753 504.741 754.472 504.981 757.589 504.501 C 759.508 504.262 777.41 499.703 797.231 494.342 Z M 913.277 463.225 C 934.696 457.467 953.638 452.107 955.396 451.147 C 960.032 448.827 960.591 446.988 958.913 439.708 C 958.194 436.348 956.515 430.189 955.236 426.029 C 952.359 416.91 950.361 414.831 945.326 415.63 C 941.409 416.191 875.394 433.868 868.441 436.108 C 861.807 438.268 859.41 440.269 859.41 443.468 C 859.41 446.587 864.605 466.506 866.203 469.706 C 867.642 472.345 869.48 473.544 872.277 473.624 C 873.476 473.624 891.938 468.906 913.277 463.225 Z" style="fill: rgb(30, 30, 30);"/>
  <path d="M 1077.837 458.587 C 1072.481 456.666 1068.486 453.546 1066.088 449.388 C 1064.969 447.387 1059.934 430.269 1053.54 406.431 C 1042.271 364.275 1041.552 360.516 1044.269 354.197 C 1046.347 349.397 1050.103 345.158 1053.86 343.317 C 1055.698 342.438 1074.879 336.999 1096.379 331.24 C 1138.098 319.961 1141.934 319.32 1148.328 322.04 C 1152.963 323.879 1156.48 326.92 1158.637 330.68 C 1159.836 332.76 1164.712 349.477 1171.185 373.635 C 1182.934 417.311 1183.333 419.391 1179.976 426.989 C 1178.059 431.389 1173.343 436.348 1169.746 437.709 C 1164.552 439.628 1089.505 459.387 1085.989 459.707 C 1083.351 459.946 1080.633 459.547 1077.837 458.587 Z M 1124.271 427.069 C 1142.333 421.15 1153.922 402.193 1150.725 383.874 C 1145.93 356.276 1114.681 342.358 1091.503 357.557 C 1070.163 371.476 1067.367 400.592 1085.669 418.03 C 1096.379 428.269 1110.604 431.629 1124.271 427.069 Z" style="fill: rgb(30, 30, 30);"/>
  <path d="M 1232.405 417.311 C 1227.77 415.63 1223.294 412.351 1221.136 408.992 C 1218.179 404.592 1197.48 326.84 1197.48 320.361 C 1197.56 313.002 1202.115 305.002 1208.11 301.883 C 1211.066 300.363 1277.562 282.445 1278.44 283.004 C 1278.76 283.165 1279 289.643 1279 297.403 C 1279 310.441 1278.92 311.401 1277.642 310.842 C 1276.842 310.602 1273.325 310.122 1269.808 309.882 C 1243.754 308.041 1222.575 333.079 1229.048 358.037 C 1232.405 370.915 1242.795 381.875 1255.823 386.033 C 1260.618 387.634 1268.371 388.033 1274.844 386.993 L 1279 386.274 L 1279 397.152 C 1279 407.711 1278.92 408.112 1277.241 408.831 C 1272.686 410.831 1242.236 418.431 1239.038 418.431 C 1237.041 418.351 1234.084 417.87 1232.405 417.311 Z" style="fill: rgb(30, 30, 30);"/>
  <path d="M 690.615 414.991 C 682.703 410.911 681.744 408.911 674.95 383.553 C 671.754 371.716 669.196 360.756 669.196 359.157 C 669.196 351.717 675.19 341.719 680.945 339.319 C 682.223 338.838 740.406 323.16 810.258 304.362 C 926.624 273.166 937.734 270.365 942.129 270.686 C 944.846 270.846 948.203 271.645 949.722 272.446 C 953.078 274.125 958.273 278.925 959.712 281.644 C 961.31 284.764 972.099 325.88 972.099 329 C 972.099 337.079 965.946 346.678 959.073 349.157 C 957.234 349.878 925.345 358.516 888.182 368.435 C 851.018 378.435 794.513 393.552 762.624 402.112 C 720.026 413.47 703.483 417.63 700.206 417.63 C 696.689 417.63 694.611 417.071 690.615 414.991 Z" style="fill: rgb(30, 30, 30);"/>
  <path d="M 666.318 319.32 C 662.323 317.481 657.527 313.321 655.928 310.281 C 655.289 309.002 652.253 298.683 649.215 287.323 C 643.062 264.366 642.502 259.807 645.299 253.648 C 647.537 248.607 652.732 243.489 657.127 242.049 C 667.437 238.689 912.078 173.656 914.556 173.656 C 921.109 173.656 929.022 177.814 932.538 183.095 C 935.655 187.814 945.726 225.889 945.726 232.85 C 945.726 241.648 940.051 250.368 932.858 252.768 C 931.34 253.247 873.716 268.766 804.743 287.244 C 670.155 323.32 673.431 322.521 666.318 319.32 Z" style="fill: rgb(30, 30, 30);"/>
</svg>