<?xml version="1.0" encoding="utf-8"?>
<svg id="Ebene_1" x="0px" y="0px" width="290.5px" height="85.789px" viewBox="23.577 0 290.5 85.789" xmlns="http://www.w3.org/2000/svg">
  <path d="M 277.235 70.452 L 62.086 70.452 C 42.663 70.452 26.858 54.648 26.858 35.224 C 26.858 15.8 42.665 0 62.086 0 L 277.232 0 C 296.658 0 312.461 15.802 312.461 35.226 C 312.461 54.649 296.66 70.452 277.235 70.452 Z M 62.086 8.333 C 47.257 8.333 35.191 20.396 35.191 35.228 C 35.191 50.056 47.255 62.123 62.086 62.123 L 277.232 62.123 C 292.058 62.123 304.128 50.058 304.128 35.228 C 304.128 20.398 292.06 8.333 277.232 8.333 L 62.086 8.333 Z" style="fill: rgb(138, 138, 138);"/>
  <path d="M 89.718 51.562 L 89.718 19.047 L 79.94 19.047 L 79.94 41.782 L 65.516 19.047 L 55.004 19.047 L 55.004 51.562 L 64.783 51.562 L 64.783 28.093 L 79.937 51.562 L 89.718 51.562 Z" style="fill: rgb(138, 138, 138);"/>
  <path d="M 105.61 51.562 L 105.61 29.56 L 95.832 29.56 L 95.832 51.562 L 105.61 51.562 Z" style="fill: rgb(138, 138, 138);"/>
  <path d="M 105.61 24.914 L 105.61 19.047 L 95.832 19.047 L 95.832 24.914 L 105.61 24.914 Z" style="fill: rgb(138, 138, 138);"/>
  <path id="_x33_162" d="M 139.834 51.562 L 139.834 36.403 C 139.834 33.225 133.722 28.826 130.545 28.826 L 127.61 28.826 C 125.411 28.826 122.964 30.782 120.764 31.76 L 120.764 29.56 L 110.986 29.56 L 110.986 51.562 L 120.764 51.562 L 120.764 36.403 C 120.764 34.936 124.186 33.225 125.655 33.225 C 127.122 33.225 129.809 34.936 129.809 36.403 L 129.809 51.561 L 139.834 51.562 L 139.834 51.562 Z" style="fill: rgb(138, 138, 138);"/>
  <path id="_x33_162_1_" d="M 221.655 52.319 L 221.655 37.162 C 221.655 33.982 215.546 29.584 212.362 29.584 L 209.43 29.584 C 207.229 29.584 204.784 31.54 202.581 32.517 L 202.581 30.318 L 192.805 30.318 L 192.805 52.32 L 202.581 52.32 L 202.581 37.162 C 202.581 35.695 206.006 33.982 207.473 33.982 C 208.94 33.982 211.627 35.695 211.627 37.162 L 211.627 52.318 L 221.655 52.318 Z" style="fill: rgb(138, 138, 138);"/>
  <path d="M 155.725 51.562 L 155.725 29.56 L 160.86 29.56 L 160.86 26.626 L 155.725 26.626 L 155.725 21.98 L 145.704 21.98 L 145.704 26.626 L 140.569 26.626 L 140.569 29.56 L 145.704 29.56 L 145.704 51.562 L 155.725 51.562 Z" style="fill: rgb(138, 138, 138);"/>
  <path d="M 174.549 28.826 C 166.726 28.826 160.126 34.204 160.126 40.805 C 160.126 47.651 166.726 53.028 174.549 53.028 C 181.395 53.028 187.018 49.118 188.485 43.983 L 178.464 43.983 L 178.464 46.918 C 178.464 49.362 176.755 50.098 174.554 50.098 C 172.355 50.098 170.886 49.364 170.886 46.918 L 170.886 40.807 L 188.98 40.807 C 188.975 34.205 182.619 28.826 174.549 28.826 Z M 174.549 31.026 C 176.75 31.026 178.461 32.494 178.461 34.938 L 178.461 37.137 L 170.883 37.137 L 170.883 34.938 C 170.883 32.493 172.35 31.026 174.549 31.026 Z" style="fill: rgb(138, 138, 138);"/>
  <path d="M 270.875 28.826 C 262.805 28.826 256.448 34.204 256.448 40.805 C 256.448 47.651 262.802 53.028 270.875 53.028 C 278.692 53.028 285.297 47.651 285.297 40.805 C 285.293 34.205 278.694 28.826 270.875 28.826 Z M 270.875 31.026 C 273.069 31.026 274.541 32.494 274.541 34.938 L 274.541 46.917 C 274.541 49.36 273.069 50.096 270.875 50.096 C 268.43 50.096 266.961 49.362 266.961 46.917 L 266.961 34.938 C 266.959 32.493 268.428 31.026 270.875 31.026 Z" style="fill: rgb(138, 138, 138);"/>
  <path d="M 242.758 19.047 L 242.758 31.026 C 242.758 31.026 239.821 28.827 235.909 28.827 C 229.799 28.827 224.665 34.205 224.665 40.073 C 224.665 46.184 229.801 52.297 235.909 52.297 C 239.821 52.297 242.758 50.83 242.758 50.83 L 242.758 51.561 L 252.536 51.561 L 252.536 19.047 L 242.758 19.047 Z M 239.09 32.493 C 241.288 32.493 242.758 34.205 242.758 36.405 L 242.758 45.45 C 242.758 47.65 241.288 48.384 239.09 48.384 C 236.647 48.384 235.178 47.652 235.178 45.45 L 235.178 36.405 C 235.178 34.205 236.647 32.493 239.09 32.493 Z" style="fill: rgb(138, 138, 138);"/>
  <g>
    <path d="M286.516,29.216c-2.773,0-5.035-2.258-5.035-5.035c0-2.959,2.213-5.28,5.035-5.28&#10;&#9;&#9;&#9;c2.729,0,5.037,2.417,5.037,5.28C291.553,26.862,289.203,29.216,286.516,29.216z M286.516,19.683c-2.426,0-4.252,1.935-4.252,4.5&#10;&#9;&#9;&#9;c0,2.344,1.908,4.254,4.252,4.254c2.229,0,4.254-2.027,4.254-4.254C290.77,21.784,288.787,19.683,286.516,19.683z M287.401,26.33&#10;&#9;&#9;&#9;l-0.863-1.516h-1.096v1.321h-0.779V21.59h2.104c0.979,0,1.488,0.813,1.488,1.613c0,0.614-0.303,1.237-0.885,1.491l0.711,1.248&#10;&#9;&#9;&#9;L287.401,26.33z M285.442,24.036h1.32c0.221,0,0.396-0.079,0.521-0.235c0.119-0.149,0.188-0.368,0.188-0.597&#10;&#9;&#9;&#9;c0-0.312-0.15-0.832-0.709-0.832h-1.32V24.036L285.442,24.036z" style="fill: rgb(138, 138, 138);"/>
  </g>
  <g>
    <path d="M48.071,85.789h-9.103c-2.601,0-3.901-1.301-3.901-3.901v-7.803h13.004v2.602H37.667v1.95h10.403v2.601&#10;&#9;&#9;H37.667v0.65c0,0.867,0.434,1.301,1.301,1.301h9.103V85.789z" style="fill: rgb(138, 138, 138);"/>
    <path d="M49.372,85.789V74.085h9.103c2.601,0,3.901,1.301,3.901,3.901v7.803h-2.601v-7.803&#10;&#9;&#9;c0-0.866-0.434-1.3-1.3-1.3h-6.502v9.103H49.372z" style="fill: rgb(138, 138, 138);"/>
    <path d="M63.676,74.085H76.68v2.602h-5.202v9.103h-2.601v-9.103h-5.202V74.085z" style="fill: rgb(138, 138, 138);"/>
    <path d="M90.984,85.789h-9.103c-2.601,0-3.901-1.301-3.901-3.901v-7.803h13.004v2.602H80.581v1.95h10.403v2.601&#10;&#9;&#9;H80.581v0.65c0,0.867,0.434,1.301,1.301,1.301h9.103V85.789z" style="fill: rgb(138, 138, 138);"/>
    <path d="M94.886,81.238v4.552h-2.601V74.085h9.103c2.601,0,3.901,1.188,3.901,3.563&#10;&#9;&#9;c0,1.127-0.187,1.955-0.559,2.483c0.373,0.616,0.559,1.418,0.559,2.406v3.251h-2.601v-3.251c0-0.867-0.434-1.301-1.3-1.301H94.886z&#10;&#9;&#9; M94.886,78.637h7.803v-1.95h-7.803V78.637z" style="fill: rgb(138, 138, 138);"/>
    <path d="M106.589,74.085h13.004v2.602h-5.202v9.103h-2.601v-9.103h-5.202V74.085z" style="fill: rgb(138, 138, 138);"/>
    <path d="M123.495,82.538v3.251h-2.601v-7.803c0-2.601,1.3-3.901,3.901-3.901h5.202c2.601,0,3.901,1.301,3.901,3.901&#10;&#9;&#9;v7.803h-2.601v-3.251H123.495z M131.297,79.938v-1.951c0-0.866-0.434-1.3-1.3-1.3h-5.202c-0.867,0-1.301,0.434-1.301,1.3v1.951&#10;&#9;&#9;H131.297z" style="fill: rgb(138, 138, 138);"/>
    <path d="M135.199,85.789V74.085h2.601v11.704H135.199z" style="fill: rgb(138, 138, 138);"/>
    <path d="M139.1,85.789V74.085h9.103c2.601,0,3.901,1.301,3.901,3.901v7.803h-2.601v-7.803&#10;&#9;&#9;c0-0.866-0.434-1.3-1.3-1.3h-6.502v9.103H139.1z" style="fill: rgb(138, 138, 138);"/>
    <path d="M153.404,85.789V74.085h10.403c2.602,0,3.901,1.301,3.901,3.901v7.803h-2.601v-7.803&#10;&#9;&#9;c0-0.866-0.434-1.3-1.301-1.3h-1.95v9.103h-2.601v-9.103h-3.251v9.103H153.404z" style="fill: rgb(138, 138, 138);"/>
    <path d="M182.013,85.789h-9.103c-2.601,0-3.901-1.301-3.901-3.901v-7.803h13.004v2.602H171.61v1.95h10.403v2.601&#10;&#9;&#9;H171.61v0.65c0,0.867,0.434,1.301,1.301,1.301h9.103V85.789z" style="fill: rgb(138, 138, 138);"/>
    <path d="M183.314,85.789V74.085h9.103c2.602,0,3.901,1.301,3.901,3.901v7.803h-2.601v-7.803&#10;&#9;&#9;c0-0.866-0.434-1.3-1.301-1.3h-6.502v9.103H183.314z" style="fill: rgb(138, 138, 138);"/>
    <path d="M197.619,74.085h13.004v2.602h-5.201v9.103h-2.602v-9.103h-5.201V74.085z" style="fill: rgb(138, 138, 138);"/>
    <path d="M217.125,83.189h10.403v-1.951h-6.502c-2.601,0-3.901-1.175-3.901-3.523c0-2.419,1.301-3.629,3.901-3.629&#10;&#9;&#9;h9.103v2.602h-10.403v1.95h6.502c2.602,0,3.901,1.192,3.901,3.576s-1.3,3.576-3.901,3.576h-9.103V83.189z" style="fill: rgb(138, 138, 138);"/>
    <path d="M236.63,81.238h-1.3c-2.601,0-3.901-1.3-3.901-3.901v-3.251h2.601v3.251c0,0.867,0.434,1.301,1.301,1.301&#10;&#9;&#9;h5.201c0.867,0,1.301-0.434,1.301-1.301v-3.251h2.601v3.251c0,2.602-1.3,3.901-3.901,3.901h-1.3v4.552h-2.602V81.238z" style="fill: rgb(138, 138, 138);"/>
    <path d="M245.734,83.189h10.403v-1.951h-6.502c-2.601,0-3.901-1.175-3.901-3.523c0-2.419,1.301-3.629,3.901-3.629&#10;&#9;&#9;h9.103v2.602h-10.403v1.95h6.502c2.602,0,3.901,1.192,3.901,3.576s-1.3,3.576-3.901,3.576h-9.103V83.189z" style="fill: rgb(138, 138, 138);"/>
    <path d="M260.039,74.085h13.004v2.602h-5.201v9.103h-2.602v-9.103h-5.201V74.085z" style="fill: rgb(138, 138, 138);"/>
    <path d="M287.346,85.789h-9.103c-2.601,0-3.901-1.301-3.901-3.901v-7.803h13.004v2.602h-10.403v1.95h10.403v2.601&#10;&#9;&#9;h-10.403v0.65c0,0.867,0.434,1.301,1.301,1.301h9.103V85.789z" style="fill: rgb(138, 138, 138);"/>
    <path d="M288.647,85.789V74.085h10.403c2.601,0,3.901,1.301,3.901,3.901v7.803h-2.601v-7.803&#10;&#9;&#9;c0-0.866-0.434-1.3-1.301-1.3h-1.95v9.103h-2.602v-9.103h-3.251v9.103H288.647z" style="fill: rgb(138, 138, 138);"/>
  </g>
</svg>