<?xml version="1.0" encoding="utf-8"?>
<svg id="svg3336" version="1.1" xmlns="http://www.w3.org/2000/svg">
  <g transform="matrix(1.5028548,0,0,1.5028548,-6.4274638,1.7253164)" id="g3511">
    <g id="g3513">
      <path d="m 254.02,30.598 -1.986,8.185 -1.834,-9.063 -24.559,-5.406 0.172,13.656 3.701,0.83 -0.267,2.463 c -0.048,-0.019 -0.078,-0.048 -0.104,-0.069 -4.588,-2.421 -10.276,-2.669 -15.629,-0.647 -1.796,0.687 -3.463,1.59 -4.975,2.688 l -3.705,-23.388 -16.333,0 -0.45,2.689 -17.191,0 -1.963,12.023 -1.426,-1.761 c -4.166,-5.118 -10.205,-7.937 -16.895,-8.077 l 14.596,-7.845 -10.178,-15.189 -18.389,21.189 3.174,3.87 c -2.875,1.175 -5.387,2.795 -7.468,4.752 l -15.767,-13.989 -5.513,10.566 0.212,-10.154 -24.651,7.875 0.632,13.244 4.194,-1.088 0.62,6.712 c -4.792,-2.152 -10.552,-2.099 -15.894,0.158 -1.583,0.69 -3.059,1.538 -4.419,2.524 0.924,-4.089 0.705,-8.12 -0.853,-11.715 -1.84,-4.248 -5.078,-7.759 -9.048,-9.974 -2.783,-1.854 -6.1,-3.009 -9.571,-3.402 -8.53,-1.491 -18.773,0.04 -28.854,4.335 -3.706,1.581 -7.163,3.375 -10.281,5.361 l -3.941,2.499 2.38,4.019 7.386,12.483 c 0,0 2.26,3.825 2.275,3.823 l 3.994,-1.963 0.557,-0.256 18.353,40.961 1.77,3.937 4.098,-1.32 9.93,-3.181 4.352,-1.383 -1.148,-4.43 -5.274,-20.245 c 1.517,-1.123 2.933,-2.314 4.24,-3.561 -0.295,2.419 -0.14,4.868 0.526,7.212 1.379,4.908 4.593,8.785 9.053,10.933 4.817,2.315 10.694,2.321 16.131,0.015 2.727,-1.157 5.152,-2.845 7.207,-4.854 l 0.749,8.063 17.39,-2.561 -0.027,-15.593 36.337,17.959 0,-17.389 c 1.458,-0.122 2.946,-0.352 4.442,-0.719 4.002,-0.967 7.427,-2.293 10.47,-4.116 l -1.526,9.339 19.592,3.083 1.075,-7.05 5.117,9.453 3.128,-6.027 1.143,9.896 22.213,3.916 -1.178,-7.473 c 3.041,0.344 6.246,-0.064 9.342,-1.232 0.733,-0.271 1.457,-0.601 2.15,-0.955 l -0.885,7.951 14.784,2.086 0.11,6.063 15.416,4.839 20.071,-60.495 -20.9,-5.08 z m -86.793,8.99 1.019,-1.083 -1.231,7.627 -3.211,-2.892 3.423,-3.652 z m -13.018,-31.156 5.382,7.311 -15.387,7.628 -1.063,-1.615 11.068,-13.324 z M 52.32,64.809 58.459,88.364 48.523,91.538 28.134,46.004 c -1.109,0.583 -3.157,1.561 -5.038,2.483 L 15.713,36.015 c 2.936,-1.875 6.156,-3.537 9.581,-4.984 9.612,-4.088 18.783,-5.308 26.118,-4.012 2.595,0.292 5.342,1.057 7.748,2.654 3.301,1.859 5.826,4.505 7.282,7.875 3.551,8.206 -2.381,20.015 -14.122,27.261 z m 45.681,-4.192 c -0.114,3.507 -1.402,7.021 -3.558,9.994 -2.051,2.875 -4.916,5.248 -8.287,6.699 -8.62,3.652 -17.24,0 -19.543,-8.184 -2.231,-7.913 2.96,-17.333 11.312,-20.931 5.334,-2.252 10.686,-1.718 14.52,0.887 2.368,1.606 4.174,4.021 5.017,7.047 0.106,0.321 0.176,0.658 0.247,0.988 0.241,1.153 0.338,2.335 0.292,3.5 z m 46.901,16.653 -36.055,-18.033 0.064,18.894 -9.327,1.272 -0.65,-7.788 c 2.88,-4.938 3.933,-10.757 2.43,-16.093 -0.825,-2.933 -2.349,-5.479 -4.42,-7.519 l -1.338,-15.879 -4.188,1.086 -0.185,-4.015 14.978,-4.46 0.918,15.448 11.034,-15.503 10.787,10.273 -15.085,15.892 14.172,5.606 c 1.583,3 3.998,5.549 7.028,7.427 2.929,1.808 6.285,2.877 9.835,3.228 l 0.002,10.164 0,0 z m -18.721,-26.126 -5.015,-1.935 4.675,-4.544 c -0.2,2.086 -0.097,4.267 0.34,6.479 z m 39.237,4.724 c -3.46,2.862 -7.404,4.728 -12.615,5.987 -1.139,0.261 -2.255,0.451 -3.347,0.547 -8.271,0.813 -15.21,-2.985 -17.843,-9.145 -0.328,-0.746 -0.581,-1.501 -0.772,-2.307 -1.218,-5.188 -0.178,-9.825 2.385,-13.458 0.738,-1.06 1.614,-2.026 2.598,-2.896 2.414,-2.154 5.496,-3.72 9,-4.562 7.879,-1.9 14.818,0.505 19.072,5.725 L 148.882,51.74 c 1.018,0.192 2.637,-0.075 3.832,-0.361 3.576,-0.872 5.577,-2.77 7.34,-4.838 l 6,5.398 1.818,1.642 c -0.788,0.815 -1.616,1.584 -2.454,2.287 z m 31.853,21.327 -3.266,-21.635 -4.619,11.935 -6.916,-14.917 -0.078,0 -2.733,17.275 -11.527,-2.006 1.621,-9.64 c 0.435,-0.409 0.863,-0.819 1.284,-1.252 l 3.736,-3.847 -3.631,-3.252 3.858,-22.957 11.63,0 2.911,15.892 3.262,-18.417 8.319,0 3.452,22.438 c -4.393,5.004 -6.527,11.731 -5.059,17.885 1.135,4.771 4.067,8.613 8.27,10.857 0.423,0.213 0.861,0.424 1.313,0.606 l 0.44,2.909 -12.267,-1.874 z m 28.725,-7.049 c -1.271,0.905 -2.67,1.674 -4.174,2.229 -2.969,1.131 -5.922,1.366 -8.553,0.843 -1.834,-0.362 -3.506,-1.077 -4.961,-2.112 -2.314,-1.674 -4.018,-4.146 -4.769,-7.25 -0.876,-3.729 -0.069,-7.711 1.937,-11.199 1,-1.705 2.283,-3.307 3.801,-4.688 1.693,-1.518 3.656,-2.761 5.84,-3.601 5.083,-1.896 10.096,-1.242 13.625,1.295 1.298,0.92 2.375,2.091 3.224,3.452 0.644,1.075 1.144,2.26 1.447,3.554 1.081,4.478 -0.206,9.274 -3.031,13.138 -1.21,1.647 -2.685,3.127 -4.386,4.339 z m 25.955,20.392 -8.524,-2.539 -0.743,-31.426 -4.287,24.243 -9.299,-1.484 0.666,-6.98 c 6.072,-5.131 9.291,-13.225 7.527,-20.56 -0.775,-3.248 -2.445,-6.076 -4.799,-8.226 l 0.785,-8.232 -3.516,-0.936 0.235,-4.395 16.021,3.22 5.387,25.546 5.525,-22.903 12.188,2.693 -17.166,51.979 z" id="path3522" style="fill-opacity: 1; fill: rgb(255, 255, 255);"/>
    </g>
  </g>
  <path d="m 333.51679,76.839501 c 0.14277,0.569584 0.21641,1.133153 0.19838,1.732793 -0.15629,3.585811 -3.52721,6.35407 -7.54583,6.166213 -4.01563,-0.138263 -7.17012,-3.186053 -7.01232,-6.762847 0.13525,-3.352869 3.12293,-6.006911 6.81244,-6.176733 -0.70033,-0.157799 -1.43222,-0.240456 -2.19567,-0.267509 -6.72226,-0.29005 -12.21671,4.470994 -12.44815,10.398253 -0.25849,6.339042 4.82266,11.507359 11.43823,11.794405 6.73129,0.269011 12.22271,-4.508565 12.49023,-10.817549 0.0782,-2.186654 -0.56808,-4.283136 -1.73731,-6.067026" id="path3500" style="fill-opacity: 1; fill: rgb(255, 255, 255);"/>
  <path d="m 129.58691,84.078754 c 0,3.60084 -3.27472,6.486321 -7.28584,6.486321 -4.02164,0 -7.28434,-2.886983 -7.28434,-6.486321 0,-3.355875 2.87045,-6.122631 6.54945,-6.444241 -0.70484,-0.127744 -1.43824,-0.201384 -2.19568,-0.201384 -6.72076,0 -12.02283,4.98497 -12.02283,10.921247 0,6.334532 5.30357,11.30297 11.91463,11.30297 6.72678,0 12.02434,-4.971443 12.02434,-11.30297 0,-2.192666 -0.72437,-4.259091 -1.97024,-5.960323 0.16832,0.512474 0.27051,1.080554 0.27051,1.684701" id="path3509" style="fill-opacity: 1; fill: rgb(255, 255, 255);"/>
  <path style="fill:#7d7f68" d="m 230.85678,74.941396 c -0.0992,0.08716 -0.19086,0.198377 -0.269,0.312594 0.10371,-0.09468 0.20438,-0.177336 0.31108,-0.264503 l -0.0421,-0.04809 z" id="path3414"/>
  <path style="fill:#7d7f68" d="m 175.66744,75.677794 0.0782,0.03306 -0.0782,-0.03306 z" id="path3420"/>
  <path d="m 219.46895,59.939968 c 0,3.60084 -3.27472,6.486321 -7.28584,6.486321 -4.02164,0 -7.28434,-2.886983 -7.28434,-6.486321 0,-3.355875 2.87045,-6.122631 6.54945,-6.444241 -0.70484,-0.127744 -1.43824,-0.201384 -2.19568,-0.201384 -6.72076,0 -12.02283,4.98497 -12.02283,10.921247 0,6.334532 5.30357,11.30297 11.91463,11.30297 6.72678,0 12.02434,-4.971443 12.02434,-11.30297 0,-2.192666 -0.72437,-4.259091 -1.97024,-5.960323 0.16832,0.512474 0.27051,1.080554 0.27051,1.684701" id="path3509-8" style="fill-opacity: 1; fill: rgb(255, 255, 255);"/>
  <path d="m 78.749594,65.848033 c 0,3.60084 -3.27472,6.486321 -7.28584,6.486321 -4.02164,0 -7.28434,-2.886983 -7.28434,-6.486321 0,-3.355875 2.87045,-6.122631 6.54945,-6.444241 -0.70484,-0.127744 -1.43824,-0.201384 -2.19568,-0.201384 -6.72076,0 -12.02283,4.98497 -12.02283,10.921247 0,6.334532 5.30357,11.30297 11.91463,11.30297 6.72678,0 12.02434,-4.971443 12.02434,-11.30297 0,-2.192666 -0.72437,-4.259091 -1.97024,-5.960323 0.16832,0.512474 0.27051,1.080554 0.27051,1.684701" id="path3509-2" style="fill-opacity: 1; fill: rgb(255, 255, 255);"/>
</svg>