<?xml version="1.0" encoding="utf-8"?>
<svg version="1.2" baseProfile="tiny" id="Layer_3" x="0px" y="0px" preserveAspectRatio="none" xmlns="http://www.w3.org/2000/svg">
  <path id="path3" d="M 523.694 131.024 C 521.526 131.024 519.749 132.781 519.749 134.948 L 519.749 404.499 C 519.749 406.665 521.526 408.423 523.693 408.423 L 639.643 408.423 C 641.589 408.423 643.137 406.985 643.451 405.128 L 643.588 405.128 L 643.588 404.499 L 643.588 134.948 C 643.588 132.781 641.809 131.023 639.643 131.023 L 523.694 131.023 L 523.694 131.024 Z M 523.694 132.28 L 639.643 132.28 C 641.129 132.28 642.332 133.46 642.332 134.948 L 642.332 403.871 L 642.332 404.499 C 642.332 405.986 641.132 407.168 639.643 407.168 L 523.693 407.168 C 522.206 407.168 521.006 405.987 521.006 404.499 L 521.006 134.948 C 521.006 133.46 522.206 132.28 523.694 132.28 L 523.694 132.28 Z" style="fill: rgb(30, 30, 30);" transform="matrix(0.965926, -0.258819, 0.258819, 0.965926, -49.989571, 159.737435)"/>
  <path id="path5" d="M 529.041 164.712 C 521.393 164.712 515.188 170.936 515.188 178.585 L 515.188 286.53 C 515.188 294.176 521.393 300.402 529.041 300.402 L 614.381 300.402 C 622.027 300.402 628.233 294.177 628.233 286.53 L 628.233 285.902 L 628.233 178.585 C 628.233 170.938 622.027 164.712 614.381 164.712 L 529.041 164.712 Z M 529.041 165.967 L 614.381 165.967 C 621.349 165.967 626.978 171.616 626.978 178.584 L 626.978 286.529 C 626.978 293.498 621.349 299.145 614.381 299.145 L 529.041 299.145 C 522.07 299.145 516.443 293.497 516.443 286.529 L 516.443 178.585 C 516.443 171.616 522.072 165.967 529.041 165.967 Z" style="fill: rgb(30, 30, 30);" transform="matrix(0.965926, -0.258819, 0.258819, 0.965926, -40.709619, 155.8937)"/>
  <path id="path7" d="M 534.383 172.771 C 529.812 172.771 526.101 176.501 526.101 181.072 L 526.101 281.011 C 526.101 285.581 529.812 289.31 534.383 289.31 L 608.219 289.31 C 612.788 289.31 616.5 285.581 616.5 281.011 L 616.5 181.072 C 616.5 176.501 612.79 172.771 608.219 172.771 L 534.383 172.771 Z M 534.383 174.028 L 608.219 174.028 C 612.111 174.028 615.244 177.18 615.244 181.073 L 615.244 281.011 C 615.244 284.904 612.111 288.055 608.219 288.055 L 534.383 288.055 C 530.492 288.055 527.357 284.905 527.357 281.011 L 527.357 181.072 C 527.357 177.18 530.49 174.028 534.383 174.028 Z" style="fill: rgb(30, 30, 30);" transform="matrix(0.965926, -0.258819, 0.258819, 0.965926, -40.331083, 155.735932)"/>
  <path id="circle9" d="M 601.958 300.732 C 577.29 300.732 557.278 320.743 557.278 345.412 C 557.278 370.081 577.288 390.093 601.958 390.093 C 626.628 390.093 646.638 370.081 646.638 345.412 C 646.638 320.743 626.628 300.732 601.958 300.732 Z M 601.958 301.989 C 625.948 301.989 645.383 321.422 645.383 345.412 C 645.383 369.403 625.948 388.836 601.958 388.836 C 577.968 388.836 558.534 369.403 558.534 345.412 C 558.534 321.422 577.968 301.989 601.958 301.989 Z" style="fill: rgb(30, 30, 30);" transform="matrix(0.965926, -0.258819, 0.258819, 0.965926, -68.888095, 167.567797)"/>
  <path id="circle11" d="M 602.091 313.237 C 584.057 313.237 569.42 327.876 569.42 345.909 C 569.42 363.942 584.057 378.58 602.091 378.58 C 620.125 378.58 634.742 363.942 634.742 345.909 C 634.742 327.875 620.125 313.237 602.091 313.237 Z M 602.091 314.494 C 619.445 314.494 633.487 328.554 633.487 345.909 C 633.487 363.262 619.446 377.324 602.091 377.324 C 584.735 377.324 570.675 363.262 570.675 345.909 C 570.678 328.553 584.738 314.494 602.093 314.494 L 602.091 314.494 Z" style="fill: rgb(30, 30, 30);" transform="matrix(0.965926, -0.258819, 0.258819, 0.965926, -69.012205, 167.61622)"/>
  <path id="path13" d="M 495.768 133.252 C 495.043 133.252 494.434 133.842 494.434 134.567 L 494.434 136.293 L 495.69 136.293 L 495.69 134.567 C 495.69 134.523 495.724 134.508 495.768 134.508 L 595.274 134.508 C 595.318 134.508 595.352 134.523 595.352 134.567 L 595.352 136.391 L 596.608 136.391 L 596.608 134.567 C 596.616 133.842 596.006 133.252 595.278 133.252 L 495.777 133.252 L 495.768 133.252 Z" style="fill: rgb(30, 30, 30);" transform="matrix(0.965926, -0.258819, 0.258819, 0.965926, -16.306197, 145.784992)"/>
  <g id="g15" transform="matrix(0.843957, -0.226138, 0.226138, 0.843957, 287.962158, 187.537231)">
    <g id="g17">
      <path d="M258.635,99.395c-2.16,0-3.908-1.75-3.908-3.908l0,0V76.358c0-2.158,1.748-3.906,3.908-3.906l0,0h20.327&#10;&#9;&#9;&#9;c2.158,0,3.909,1.748,3.909,3.906l0,0v19.13l-0.002,0c-0.001,2.157-1.749,3.904-3.906,3.906l0,0H258.635L258.635,99.395z&#10;&#9;&#9;&#9; M256.165,76.358v19.128c0.002,1.364,1.106,2.468,2.47,2.47l0,0h20.327c1.362-0.002,2.468-1.106,2.47-2.47l0,0V76.358&#10;&#9;&#9;&#9;c-0.002-1.362-1.108-2.468-2.47-2.47l0,0h-20.327C257.271,73.89,256.167,74.994,256.165,76.358L256.165,76.358z M281.483,95.753&#10;&#9;&#9;&#9;l0.662-0.265L281.483,95.753L281.483,95.753z" style="fill: rgb(30, 30, 30);"/>
      <path id="circle21" d="M268.809,75.374c-5.818,0-10.555,4.737-10.555,10.556s4.737,10.556,10.555,10.556&#10;&#9;&#9;&#9;s10.533-4.737,10.533-10.556C279.342,80.112,274.627,75.374,268.809,75.374z M268.809,76.812c5.042,0,9.095,4.077,9.095,9.118&#10;&#9;&#9;&#9;c0,5.041-4.054,9.118-9.095,9.118c-5.041,0-9.118-4.077-9.118-9.118S263.768,76.812,268.809,76.812z" style="fill: rgb(30, 30, 30);"/>
    </g>
    <g id="g23">
      <path d="M290.19,99.395c-2.158,0-3.907-1.749-3.907-3.907l0,0V76.359c0-2.158,1.749-3.907,3.907-3.907l0,0h20.329&#10;&#9;&#9;&#9;c2.156,0,3.906,1.749,3.906,3.907l0,0v20.665l-0.238-0.199c-0.547,1.5-1.985,2.57-3.671,2.57l0,0H290.19L290.19,99.395z&#10;&#9;&#9;&#9; M287.721,76.359v19.128c0.002,1.364,1.106,2.467,2.469,2.47l0,0h20.326c1.362-0.002,2.466-1.106,2.47-2.47l0,0v-1.532&#10;&#9;&#9;&#9;l0.002,0.001V76.359c-0.002-1.365-1.105-2.469-2.469-2.472l0,0H290.19C288.827,73.89,287.723,74.994,287.721,76.359&#10;&#9;&#9;&#9;L287.721,76.359z M313.244,96.04l0.46-0.55L313.244,96.04L313.244,96.04z" style="fill: rgb(30, 30, 30);"/>
      <path id="circle27" d="M300.363,75.374c-5.819,0-10.556,4.737-10.556,10.556s4.737,10.556,10.556,10.556&#10;&#9;&#9;&#9;c5.817,0,10.532-4.737,10.532-10.556C310.896,80.112,306.181,75.374,300.363,75.374z M300.363,76.812&#10;&#9;&#9;&#9;c5.041,0,9.096,4.077,9.096,9.118c0,5.041-4.056,9.118-9.096,9.118c-5.042,0-9.118-4.077-9.118-9.118&#10;&#9;&#9;&#9;S295.321,76.812,300.363,76.812z" style="fill: rgb(30, 30, 30);"/>
    </g>
    <g id="g29">
      <path d="M321.744,99.395c-2.156,0-3.905-1.749-3.905-3.908l0,0V76.36c0-2.159,1.747-3.908,3.905-3.908l0,0h20.328&#10;&#9;&#9;&#9;c2.156,0,3.908,1.749,3.908,3.908l0,0v19.127v0.002l0,0c-0.002,2.158-1.752,3.906-3.908,3.906l0,0H321.744L321.744,99.395z&#10;&#9;&#9;&#9; M319.273,76.36v19.127c0.004,1.365,1.108,2.469,2.471,2.471l0,0h20.328c1.362-0.002,2.467-1.106,2.471-2.471l0,0V76.36&#10;&#9;&#9;&#9;c-0.004-1.365-1.108-2.469-2.471-2.471l0,0h-20.328C320.38,73.891,319.277,74.995,319.273,76.36L319.273,76.36z" style="fill: rgb(30, 30, 30);"/>
      <path id="circle33" d="M331.915,75.374c-5.817,0-10.555,4.737-10.555,10.556s4.737,10.556,10.555,10.556&#10;&#9;&#9;&#9;c5.818,0,10.533-4.737,10.533-10.556C342.448,80.112,337.733,75.374,331.915,75.374z M331.915,76.812&#10;&#9;&#9;&#9;c5.042,0,9.097,4.077,9.097,9.118c0,5.041-4.055,9.118-9.097,9.118c-5.041,0-9.117-4.077-9.117-9.118&#10;&#9;&#9;&#9;S326.874,76.812,331.915,76.812z" style="fill: rgb(30, 30, 30);"/>
    </g>
  </g>
  <g id="g35" transform="matrix(0.843957, -0.226138, 0.226138, 0.843957, 287.962158, 187.537231)">
    <g id="g37">
      <path d="M258.635,130.44c-2.16,0-3.908-1.748-3.908-3.907l0,0v-19.13c0-2.159,1.75-3.909,3.908-3.909l0,0h20.327&#10;&#9;&#9;&#9;c2.158,0.002,3.909,1.748,3.909,3.909l0,0v20.868l-0.282-0.282c-0.577,1.437-1.982,2.451-3.626,2.451l0,0H258.635L258.635,130.44z&#10;&#9;&#9;&#9; M256.165,107.403v19.13c0.002,1.365,1.106,2.468,2.47,2.471l0,0h20.327c1.362-0.002,2.468-1.106,2.47-2.471l0,0v-19.13&#10;&#9;&#9;&#9;c-0.002-1.365-1.108-2.468-2.47-2.47l0,0h-20.327C257.269,104.935,256.167,106.039,256.165,107.403L256.165,107.403z&#10;&#9;&#9;&#9; M281.642,127.042l0.509-0.509L281.642,127.042L281.642,127.042z" style="fill: rgb(30, 30, 30);"/>
      <path id="circle41" d="M268.809,106.411c-5.818,0-10.555,4.737-10.555,10.556s4.737,10.556,10.555,10.556&#10;&#9;&#9;&#9;s10.533-4.737,10.533-10.556C279.342,111.149,274.627,106.411,268.809,106.411z M268.809,107.849c5.042,0,9.095,4.077,9.095,9.118&#10;&#9;&#9;&#9;s-4.054,9.119-9.095,9.119c-5.041,0-9.118-4.077-9.118-9.119C259.691,111.926,263.768,107.849,268.809,107.849z" style="fill: rgb(30, 30, 30);"/>
    </g>
    <g id="g43">
      <path d="M290.19,130.441c-2.158,0-3.907-1.75-3.907-3.907l0,0v-19.132c0-2.159,1.749-3.907,3.907-3.907l0,0h20.329&#10;&#9;&#9;&#9;c2.156,0,3.906,1.749,3.906,3.907l0,0v20.129l-0.122-0.041c-0.426,1.695-1.962,2.949-3.787,2.951l0,0H290.19L290.19,130.441z&#10;&#9;&#9;&#9; M287.721,107.402v19.132c0.002,1.363,1.106,2.467,2.469,2.469l0,0h20.326c1.362-0.002,2.466-1.106,2.47-2.469l0,0v-0.997l0.002,0&#10;&#9;&#9;&#9;v-18.136c-0.002-1.363-1.105-2.467-2.469-2.469l0,0H290.19C288.827,104.935,287.723,106.039,287.721,107.402L287.721,107.402z&#10;&#9;&#9;&#9; M313.477,127.214l0.229-0.679L313.477,127.214L313.477,127.214z" style="fill: rgb(30, 30, 30);"/>
      <path id="circle47" d="M300.363,106.411c-5.819,0-10.556,4.737-10.556,10.556s4.737,10.556,10.556,10.556&#10;&#9;&#9;&#9;c5.817,0,10.532-4.737,10.532-10.556C310.896,111.149,306.181,106.411,300.363,106.411z M300.363,107.849&#10;&#9;&#9;&#9;c5.041,0,9.096,4.077,9.096,9.118s-4.056,9.119-9.096,9.119c-5.042,0-9.118-4.077-9.118-9.119&#10;&#9;&#9;&#9;C291.245,111.926,295.321,107.849,300.363,107.849z" style="fill: rgb(30, 30, 30);"/>
    </g>
    <g id="g49">
      <path d="M321.744,130.441c-2.156,0-3.905-1.749-3.905-3.908l0,0v-19.131c0-2.159,1.747-3.908,3.905-3.908l0,0&#10;&#9;&#9;&#9;h20.328c2.156,0.002,3.908,1.749,3.908,3.908l0,0v19.131v0.002l0,0c-0.002,2.158-1.752,3.906-3.908,3.906l0,0H321.744&#10;&#9;&#9;&#9;L321.744,130.441z M319.273,107.402v19.131c0.004,1.365,1.108,2.469,2.471,2.471l0,0h20.328c1.362-0.002,2.467-1.106,2.471-2.471&#10;&#9;&#9;&#9;l0,0v-19.131c-0.004-1.363-1.108-2.467-2.471-2.471l0,0h-20.328C320.38,104.936,319.277,106.038,319.273,107.402L319.273,107.402z&#10;&#9;&#9;&#9;" style="fill: rgb(30, 30, 30);"/>
      <path id="circle53" d="M331.915,106.411c-5.817,0-10.555,4.737-10.555,10.556s4.737,10.556,10.555,10.556&#10;&#9;&#9;&#9;c5.818,0,10.533-4.737,10.533-10.556C342.448,111.149,337.733,106.411,331.915,106.411z M331.915,107.849&#10;&#9;&#9;&#9;c5.042,0,9.097,4.077,9.097,9.118s-4.055,9.119-9.097,9.119c-5.041,0-9.117-4.077-9.117-9.119&#10;&#9;&#9;&#9;C322.798,111.926,326.874,107.849,331.915,107.849z" style="fill: rgb(30, 30, 30);"/>
    </g>
  </g>
  <g id="g55" transform="matrix(0.843957, -0.226138, 0.226138, 0.843957, 287.962158, 187.537231)">
    <g id="g57">
      <path d="M257.778,161.486c-2.159,0-3.908-1.749-3.908-3.906l0,0v-19.132c0-2.157,1.749-3.906,3.908-3.906l0,0&#10;&#9;&#9;&#9;h20.327c2.159,0,3.908,1.747,3.908,3.906l0,0v19.132v0.086l-0.001,0.005c-0.05,2.115-1.78,3.815-3.907,3.815l0,0H257.778&#10;&#9;&#9;&#9;L257.778,161.486z M255.307,138.448v19.132c0.002,1.363,1.106,2.467,2.471,2.469l0,0h20.327c1.363-0.002,2.467-1.106,2.469-2.469&#10;&#9;&#9;&#9;l0,0v-0.09l0.002-0.008v-19.034c-0.004-1.365-1.106-2.467-2.471-2.469l0,0h-20.327&#10;&#9;&#9;&#9;C256.414,135.981,255.31,137.085,255.307,138.448L255.307,138.448z" style="fill: rgb(30, 30, 30);"/>
      <path id="circle61" d="M267.933,137.472c-5.818,0-10.533,4.716-10.533,10.533c0,5.818,4.715,10.556,10.533,10.556&#10;&#9;&#9;&#9;c5.818,0,10.556-4.737,10.556-10.556C278.489,142.187,273.752,137.472,267.933,137.472z M267.933,138.909&#10;&#9;&#9;&#9;c5.042,0,9.119,4.054,9.119,9.095c0,5.042-4.077,9.119-9.119,9.119c-5.041,0-9.095-4.077-9.095-9.119&#10;&#9;&#9;&#9;C258.838,142.963,262.892,138.909,267.933,138.909z" style="fill: rgb(30, 30, 30);"/>
    </g>
    <g id="g63">
      <path d="M289.333,161.486c-2.158,0-3.907-1.749-3.907-3.907l0,0v-19.132c0-2.158,1.749-3.905,3.907-3.907l0,0&#10;&#9;&#9;&#9;h20.328c2.156,0.002,3.904,1.749,3.904,3.907l0,0v19.13v0.002c0,2.158-1.746,3.907-3.904,3.907l0,0H289.333L289.333,161.486z&#10;&#9;&#9;&#9; M286.861,138.447v19.132c0.004,1.363,1.108,2.467,2.472,2.472l0,0h20.328c1.363-0.004,2.468-1.108,2.47-2.472l0,0v-0.002v-19.13&#10;&#9;&#9;&#9;c-0.002-1.363-1.106-2.467-2.47-2.469l0,0h-20.328C287.97,135.98,286.866,137.084,286.861,138.447L286.861,138.447z" style="fill: rgb(30, 30, 30);"/>
      <path id="circle67" d="M299.487,137.472c-5.818,0-10.533,4.715-10.533,10.533c0,5.819,4.715,10.556,10.533,10.556&#10;&#9;&#9;&#9;c5.819,0,10.556-4.737,10.556-10.556S305.306,137.472,299.487,137.472z M299.487,138.909c5.042,0,9.119,4.054,9.119,9.095&#10;&#9;&#9;&#9;c0,5.042-4.076,9.119-9.119,9.119c-5.042,0-9.096-4.076-9.096-9.119C290.391,142.963,294.445,138.909,299.487,138.909z" style="fill: rgb(30, 30, 30);"/>
    </g>
    <g id="g69">
      <path d="M320.881,161.486c-2.158,0-3.905-1.749-3.905-3.905l0,0v-19.133c0-2.158,1.747-3.905,3.905-3.905l0,0&#10;&#9;&#9;&#9;h20.328c2.158,0,3.907,1.747,3.907,3.905l0,0v19.131v0.002c0,2.156-1.749,3.905-3.907,3.905l0,0H320.881L320.881,161.486z&#10;&#9;&#9;&#9; M318.412,138.447v19.133c0.002,1.362,1.104,2.466,2.469,2.469l0,0h20.328c1.364-0.002,2.469-1.106,2.471-2.469l0,0v-0.002&#10;&#9;&#9;&#9;v-19.131c-0.002-1.364-1.106-2.466-2.471-2.468l0,0h-20.328C319.517,135.981,318.414,137.085,318.412,138.447L318.412,138.447z" style="fill: rgb(30, 30, 30);"/>
      <path id="circle73" d="M331.039,137.472c-5.818,0-10.532,4.716-10.532,10.533c0,5.818,4.715,10.556,10.532,10.556&#10;&#9;&#9;&#9;s10.557-4.737,10.557-10.556C341.596,142.187,336.857,137.472,331.039,137.472z M331.039,138.909c5.041,0,9.119,4.054,9.119,9.095&#10;&#9;&#9;&#9;c0,5.042-4.077,9.119-9.119,9.119c-5.041,0-9.095-4.077-9.095-9.119C321.944,142.963,325.998,138.909,331.039,138.909z" style="fill: rgb(30, 30, 30);"/>
    </g>
  </g>
  <g id="g75" transform="matrix(0.843957, -0.226138, 0.226138, 0.843957, 287.962158, 187.537231)">
    <g id="g77">
      <path d="M257.779,192.532c-2.159,0-3.908-1.749-3.908-3.906l0,0v-19.132c0-2.157,1.749-3.908,3.908-3.908l0,0&#10;&#9;&#9;&#9;h20.326c2.159,0,3.908,1.749,3.908,3.908l0,0v19.132v0.04l0,0.002c-0.024,2.136-1.763,3.864-3.908,3.864l0,0H257.779&#10;&#9;&#9;&#9;L257.779,192.532z M255.309,169.494v19.132c0.002,1.364,1.104,2.467,2.47,2.469l0,0h20.326c1.364-0.002,2.468-1.106,2.47-2.469&#10;&#9;&#9;&#9;l0,0v-0.004v-19.128c-0.002-1.364-1.104-2.468-2.47-2.472l0,0h-20.326C256.415,167.026,255.311,168.13,255.309,169.494&#10;&#9;&#9;&#9;L255.309,169.494z" style="fill: rgb(30, 30, 30);"/>
      <path id="circle81" d="M267.933,168.511c-5.818,0-10.533,4.737-10.533,10.555c0,5.817,4.715,10.532,10.533,10.532&#10;&#9;&#9;&#9;c5.818,0,10.556-4.715,10.556-10.532C278.489,173.248,273.752,168.511,267.933,168.511z M267.933,169.948&#10;&#9;&#9;&#9;c5.042,0,9.119,4.076,9.119,9.118c0,5.041-4.077,9.095-9.119,9.095c-5.041,0-9.095-4.054-9.095-9.095&#10;&#9;&#9;&#9;C258.838,174.025,262.892,169.948,267.933,169.948z" style="fill: rgb(30, 30, 30);"/>
    </g>
    <g id="g83">
      <path d="M289.333,192.532c-2.157,0-3.906-1.749-3.906-3.906l0,0v-19.132c0-2.157,1.747-3.908,3.906-3.908l0,0&#10;&#9;&#9;&#9;h20.328c2.158,0,3.907,1.749,3.907,3.908l0,0v19.128v0.004c0,2.155-1.747,3.906-3.907,3.906l0,0H289.333L289.333,192.532z&#10;&#9;&#9;&#9; M286.862,169.494v19.132c0.002,1.364,1.106,2.467,2.47,2.469l0,0h20.328c1.363-0.002,2.468-1.106,2.47-2.469l0,0v-0.004v-19.128&#10;&#9;&#9;&#9;c-0.002-1.364-1.106-2.468-2.47-2.472l0,0h-20.328C287.968,167.026,286.864,168.13,286.862,169.494L286.862,169.494z" style="fill: rgb(30, 30, 30);"/>
      <path id="circle87" d="M299.487,168.511c-5.818,0-10.533,4.736-10.533,10.555c0,5.818,4.715,10.532,10.533,10.532&#10;&#9;&#9;&#9;c5.819,0,10.556-4.715,10.556-10.532C310.043,173.248,305.306,168.511,299.487,168.511z M299.487,169.948&#10;&#9;&#9;&#9;c5.042,0,9.119,4.076,9.119,9.118c0,5.041-4.076,9.095-9.119,9.095c-5.042,0-9.096-4.054-9.096-9.095&#10;&#9;&#9;&#9;C290.391,174.024,294.445,169.948,299.487,169.948z" style="fill: rgb(30, 30, 30);"/>
    </g>
    <g id="g89">
      <path d="M320.881,192.531c-2.158,0-3.905-1.747-3.905-3.905l0,0v-19.133c0-2.156,1.747-3.907,3.905-3.907l0,0&#10;&#9;&#9;&#9;h20.328c2.158,0,3.907,1.751,3.907,3.907l0,0v19.129v0.004c0,2.156-1.749,3.905-3.907,3.905l0,0H320.881L320.881,192.531z&#10;&#9;&#9;&#9; M318.412,169.493v19.133c0.002,1.364,1.104,2.466,2.469,2.471l0,0h20.328c1.364-0.005,2.469-1.108,2.471-2.471l0,0v-0.004&#10;&#9;&#9;&#9;v-19.129c-0.002-1.362-1.106-2.468-2.471-2.47l0,0h-20.328C319.519,167.024,318.414,168.13,318.412,169.493L318.412,169.493z" style="fill: rgb(30, 30, 30);"/>
      <path id="circle93" d="M331.039,168.511c-5.818,0-10.532,4.737-10.532,10.555c0,5.817,4.715,10.532,10.532,10.532&#10;&#9;&#9;&#9;s10.557-4.715,10.557-10.532C341.596,173.248,336.857,168.511,331.039,168.511z M331.039,169.948c5.041,0,9.119,4.076,9.119,9.118&#10;&#9;&#9;&#9;c0,5.041-4.077,9.095-9.119,9.095c-5.041,0-9.095-4.054-9.095-9.095C321.944,174.025,325.998,169.948,331.039,169.948z" style="fill: rgb(30, 30, 30);"/>
    </g>
  </g>
</svg>