<?xml version="1.0" encoding="utf-8"?>
<svg version="1.2" baseProfile="tiny" id="Layer_3" x="0px" y="0px" viewBox="0 0 1280 720" preserveAspectRatio="none" xmlns="http://www.w3.org/2000/svg">
  <path id="path3" d="M 546.899 137.974 C 543.399 137.974 540.529 140.812 540.529 144.312 L 540.529 579.637 C 540.529 583.135 543.399 585.974 546.899 585.974 L 734.158 585.974 C 737.3 585.974 739.801 583.652 740.307 580.652 L 740.529 580.652 L 740.529 579.637 L 740.529 144.311 C 740.529 140.812 737.656 137.972 734.157 137.972 L 546.899 137.972 L 546.899 137.974 Z M 546.899 140.002 L 734.158 140.002 C 736.558 140.002 738.501 141.908 738.501 144.311 L 738.501 578.623 L 738.501 579.637 C 738.501 582.038 736.562 583.947 734.158 583.947 L 546.899 583.947 C 544.497 583.947 542.558 582.04 542.558 579.637 L 542.558 144.311 C 542.558 141.908 544.497 140.002 546.899 140.002 L 546.899 140.002 Z" style="fill: rgb(30, 30, 30);" transform="matrix(0.965926, -0.258819, 0.258819, 0.965926, -71.860005, 178.114992)"/>
  <path id="path5" d="M 555.535 192.381 C 543.184 192.381 533.162 202.433 533.162 214.786 L 533.162 389.117 C 533.162 401.465 543.184 411.52 555.535 411.52 L 693.359 411.52 C 705.707 411.52 715.731 401.467 715.731 389.117 L 715.731 388.102 L 715.731 214.786 C 715.731 202.435 705.707 192.381 693.359 192.381 L 555.535 192.381 Z M 555.535 194.408 L 693.359 194.408 C 704.613 194.408 713.703 203.53 713.703 214.784 L 713.703 389.115 C 713.703 400.37 704.612 409.49 693.359 409.49 L 555.535 409.49 C 544.277 409.49 535.19 400.369 535.19 389.115 L 535.19 214.786 C 535.19 203.53 544.28 194.408 555.535 194.408 Z" style="fill: rgb(30, 30, 30);" transform="matrix(0.965926, -0.258819, 0.258819, 0.965926, -56.873032, 171.907327)"/>
  <path id="path7" d="M 564.163 205.396 C 556.781 205.396 550.787 211.42 550.787 218.801 L 550.787 380.203 C 550.787 387.584 556.78 393.606 564.163 393.606 L 683.408 393.606 C 690.787 393.606 696.782 387.584 696.782 380.203 L 696.782 218.801 C 696.782 211.42 690.79 205.396 683.408 205.396 L 564.163 205.396 Z M 564.163 207.425 L 683.408 207.425 C 689.693 207.425 694.753 212.516 694.753 218.803 L 694.753 380.204 C 694.753 386.49 689.693 391.58 683.408 391.58 L 564.163 391.58 C 557.878 391.58 552.816 386.492 552.816 380.204 L 552.816 218.801 C 552.816 212.516 557.876 207.425 564.163 207.425 Z" style="fill: rgb(30, 30, 30);" transform="matrix(0.965926, -0.258819, 0.258819, 0.965926, -56.261627, 171.652605)"/>
  <path id="circle9" d="M 673.297 412.053 C 633.457 412.053 601.138 444.37 601.138 484.211 C 601.138 524.051 633.455 556.37 673.297 556.37 C 713.139 556.37 745.455 524.051 745.455 484.211 C 745.455 444.37 713.139 412.053 673.297 412.053 Z M 673.297 414.082 C 712.04 414.082 743.427 445.467 743.427 484.211 C 743.427 522.956 712.04 554.341 673.297 554.341 C 634.552 554.341 603.167 522.956 603.167 484.211 C 603.167 445.467 634.553 414.082 673.297 414.082 Z" style="fill: rgb(30, 30, 30);" transform="matrix(0.965926, -0.258819, 0.258819, 0.965926, -102.381239, 190.761333)"/>
  <path id="circle11" d="M 673.511 432.249 C 644.386 432.249 620.747 455.89 620.747 485.014 C 620.747 514.138 644.386 537.778 673.511 537.778 C 702.636 537.778 726.243 514.138 726.243 485.014 C 726.243 455.889 702.636 432.249 673.511 432.249 Z M 673.511 434.278 C 701.538 434.278 724.215 456.985 724.215 485.014 C 724.215 513.039 701.539 535.75 673.511 535.75 C 645.481 535.75 622.774 513.039 622.774 485.014 C 622.779 456.984 645.486 434.278 673.514 434.278 L 673.511 434.278 Z" style="fill: rgb(30, 30, 30);" transform="matrix(0.965926, -0.258819, 0.258819, 0.965926, -102.581885, 190.839614)"/>
  <path id="path13" d="M 501.8 141.572 C 500.629 141.572 499.645 142.526 499.645 143.696 L 499.645 146.484 L 501.673 146.484 L 501.673 143.696 C 501.673 143.625 501.729 143.601 501.8 143.601 L 662.501 143.601 C 662.572 143.601 662.628 143.625 662.628 143.696 L 662.628 146.642 L 664.656 146.642 L 664.656 143.696 C 664.669 142.526 663.684 141.572 662.508 141.572 L 501.814 141.572 L 501.8 141.572 Z" style="fill: rgb(30, 30, 30);" transform="matrix(0.965926, -0.258819, 0.258819, 0.965926, -17.461332, 155.58203)"/>
  <g id="g15" transform="matrix(1.362993, -0.365213, 0.365213, 1.362993, 166.192581, 229.243286)">
    <g id="g17">
      <path d="M258.635,99.395c-2.16,0-3.908-1.75-3.908-3.908l0,0V76.358c0-2.158,1.748-3.906,3.908-3.906l0,0h20.327&#10;&#9;&#9;&#9;c2.158,0,3.909,1.748,3.909,3.906l0,0v19.13l-0.002,0c-0.001,2.157-1.749,3.904-3.906,3.906l0,0H258.635L258.635,99.395z&#10;&#9;&#9;&#9; M256.165,76.358v19.128c0.002,1.364,1.106,2.468,2.47,2.47l0,0h20.327c1.362-0.002,2.468-1.106,2.47-2.47l0,0V76.358&#10;&#9;&#9;&#9;c-0.002-1.362-1.108-2.468-2.47-2.47l0,0h-20.327C257.271,73.89,256.167,74.994,256.165,76.358L256.165,76.358z M281.483,95.753&#10;&#9;&#9;&#9;l0.662-0.265L281.483,95.753L281.483,95.753z" style="fill: rgb(30, 30, 30);"/>
      <path id="circle21" d="M268.809,75.374c-5.818,0-10.555,4.737-10.555,10.556s4.737,10.556,10.555,10.556&#10;&#9;&#9;&#9;s10.533-4.737,10.533-10.556C279.342,80.112,274.627,75.374,268.809,75.374z M268.809,76.812c5.042,0,9.095,4.077,9.095,9.118&#10;&#9;&#9;&#9;c0,5.041-4.054,9.118-9.095,9.118c-5.041,0-9.118-4.077-9.118-9.118S263.768,76.812,268.809,76.812z" style="fill: rgb(30, 30, 30);"/>
    </g>
    <g id="g23">
      <path d="M290.19,99.395c-2.158,0-3.907-1.749-3.907-3.907l0,0V76.359c0-2.158,1.749-3.907,3.907-3.907l0,0h20.329&#10;&#9;&#9;&#9;c2.156,0,3.906,1.749,3.906,3.907l0,0v20.665l-0.238-0.199c-0.547,1.5-1.985,2.57-3.671,2.57l0,0H290.19L290.19,99.395z&#10;&#9;&#9;&#9; M287.721,76.359v19.128c0.002,1.364,1.106,2.467,2.469,2.47l0,0h20.326c1.362-0.002,2.466-1.106,2.47-2.47l0,0v-1.532&#10;&#9;&#9;&#9;l0.002,0.001V76.359c-0.002-1.365-1.105-2.469-2.469-2.472l0,0H290.19C288.827,73.89,287.723,74.994,287.721,76.359&#10;&#9;&#9;&#9;L287.721,76.359z M313.244,96.04l0.46-0.55L313.244,96.04L313.244,96.04z" style="fill: rgb(30, 30, 30);"/>
      <path id="circle27" d="M300.363,75.374c-5.819,0-10.556,4.737-10.556,10.556s4.737,10.556,10.556,10.556&#10;&#9;&#9;&#9;c5.817,0,10.532-4.737,10.532-10.556C310.896,80.112,306.181,75.374,300.363,75.374z M300.363,76.812&#10;&#9;&#9;&#9;c5.041,0,9.096,4.077,9.096,9.118c0,5.041-4.056,9.118-9.096,9.118c-5.042,0-9.118-4.077-9.118-9.118&#10;&#9;&#9;&#9;S295.321,76.812,300.363,76.812z" style="fill: rgb(30, 30, 30);"/>
    </g>
    <g id="g29">
      <path d="M321.744,99.395c-2.156,0-3.905-1.749-3.905-3.908l0,0V76.36c0-2.159,1.747-3.908,3.905-3.908l0,0h20.328&#10;&#9;&#9;&#9;c2.156,0,3.908,1.749,3.908,3.908l0,0v19.127v0.002l0,0c-0.002,2.158-1.752,3.906-3.908,3.906l0,0H321.744L321.744,99.395z&#10;&#9;&#9;&#9; M319.273,76.36v19.127c0.004,1.365,1.108,2.469,2.471,2.471l0,0h20.328c1.362-0.002,2.467-1.106,2.471-2.471l0,0V76.36&#10;&#9;&#9;&#9;c-0.004-1.365-1.108-2.469-2.471-2.471l0,0h-20.328C320.38,73.891,319.277,74.995,319.273,76.36L319.273,76.36z" style="fill: rgb(30, 30, 30);"/>
      <path id="circle33" d="M331.915,75.374c-5.817,0-10.555,4.737-10.555,10.556s4.737,10.556,10.555,10.556&#10;&#9;&#9;&#9;c5.818,0,10.533-4.737,10.533-10.556C342.448,80.112,337.733,75.374,331.915,75.374z M331.915,76.812&#10;&#9;&#9;&#9;c5.042,0,9.097,4.077,9.097,9.118c0,5.041-4.055,9.118-9.097,9.118c-5.041,0-9.117-4.077-9.117-9.118&#10;&#9;&#9;&#9;S326.874,76.812,331.915,76.812z" style="fill: rgb(30, 30, 30);"/>
    </g>
  </g>
  <g id="g35" transform="matrix(1.362993, -0.365213, 0.365213, 1.362993, 166.192581, 229.243286)">
    <g id="g37">
      <path d="M258.635,130.44c-2.16,0-3.908-1.748-3.908-3.907l0,0v-19.13c0-2.159,1.75-3.909,3.908-3.909l0,0h20.327&#10;&#9;&#9;&#9;c2.158,0.002,3.909,1.748,3.909,3.909l0,0v20.868l-0.282-0.282c-0.577,1.437-1.982,2.451-3.626,2.451l0,0H258.635L258.635,130.44z&#10;&#9;&#9;&#9; M256.165,107.403v19.13c0.002,1.365,1.106,2.468,2.47,2.471l0,0h20.327c1.362-0.002,2.468-1.106,2.47-2.471l0,0v-19.13&#10;&#9;&#9;&#9;c-0.002-1.365-1.108-2.468-2.47-2.47l0,0h-20.327C257.269,104.935,256.167,106.039,256.165,107.403L256.165,107.403z&#10;&#9;&#9;&#9; M281.642,127.042l0.509-0.509L281.642,127.042L281.642,127.042z" style="fill: rgb(30, 30, 30);"/>
      <path id="circle41" d="M268.809,106.411c-5.818,0-10.555,4.737-10.555,10.556s4.737,10.556,10.555,10.556&#10;&#9;&#9;&#9;s10.533-4.737,10.533-10.556C279.342,111.149,274.627,106.411,268.809,106.411z M268.809,107.849c5.042,0,9.095,4.077,9.095,9.118&#10;&#9;&#9;&#9;s-4.054,9.119-9.095,9.119c-5.041,0-9.118-4.077-9.118-9.119C259.691,111.926,263.768,107.849,268.809,107.849z" style="fill: rgb(30, 30, 30);"/>
    </g>
    <g id="g43">
      <path d="M290.19,130.441c-2.158,0-3.907-1.75-3.907-3.907l0,0v-19.132c0-2.159,1.749-3.907,3.907-3.907l0,0h20.329&#10;&#9;&#9;&#9;c2.156,0,3.906,1.749,3.906,3.907l0,0v20.129l-0.122-0.041c-0.426,1.695-1.962,2.949-3.787,2.951l0,0H290.19L290.19,130.441z&#10;&#9;&#9;&#9; M287.721,107.402v19.132c0.002,1.363,1.106,2.467,2.469,2.469l0,0h20.326c1.362-0.002,2.466-1.106,2.47-2.469l0,0v-0.997l0.002,0&#10;&#9;&#9;&#9;v-18.136c-0.002-1.363-1.105-2.467-2.469-2.469l0,0H290.19C288.827,104.935,287.723,106.039,287.721,107.402L287.721,107.402z&#10;&#9;&#9;&#9; M313.477,127.214l0.229-0.679L313.477,127.214L313.477,127.214z" style="fill: rgb(30, 30, 30);"/>
      <path id="circle47" d="M300.363,106.411c-5.819,0-10.556,4.737-10.556,10.556s4.737,10.556,10.556,10.556&#10;&#9;&#9;&#9;c5.817,0,10.532-4.737,10.532-10.556C310.896,111.149,306.181,106.411,300.363,106.411z M300.363,107.849&#10;&#9;&#9;&#9;c5.041,0,9.096,4.077,9.096,9.118s-4.056,9.119-9.096,9.119c-5.042,0-9.118-4.077-9.118-9.119&#10;&#9;&#9;&#9;C291.245,111.926,295.321,107.849,300.363,107.849z" style="fill: rgb(30, 30, 30);"/>
    </g>
    <g id="g49">
      <path d="M321.744,130.441c-2.156,0-3.905-1.749-3.905-3.908l0,0v-19.131c0-2.159,1.747-3.908,3.905-3.908l0,0&#10;&#9;&#9;&#9;h20.328c2.156,0.002,3.908,1.749,3.908,3.908l0,0v19.131v0.002l0,0c-0.002,2.158-1.752,3.906-3.908,3.906l0,0H321.744&#10;&#9;&#9;&#9;L321.744,130.441z M319.273,107.402v19.131c0.004,1.365,1.108,2.469,2.471,2.471l0,0h20.328c1.362-0.002,2.467-1.106,2.471-2.471&#10;&#9;&#9;&#9;l0,0v-19.131c-0.004-1.363-1.108-2.467-2.471-2.471l0,0h-20.328C320.38,104.936,319.277,106.038,319.273,107.402L319.273,107.402z&#10;&#9;&#9;&#9;" style="fill: rgb(30, 30, 30);"/>
      <path id="circle53" d="M331.915,106.411c-5.817,0-10.555,4.737-10.555,10.556s4.737,10.556,10.555,10.556&#10;&#9;&#9;&#9;c5.818,0,10.533-4.737,10.533-10.556C342.448,111.149,337.733,106.411,331.915,106.411z M331.915,107.849&#10;&#9;&#9;&#9;c5.042,0,9.097,4.077,9.097,9.118s-4.055,9.119-9.097,9.119c-5.041,0-9.117-4.077-9.117-9.119&#10;&#9;&#9;&#9;C322.798,111.926,326.874,107.849,331.915,107.849z" style="fill: rgb(30, 30, 30);"/>
    </g>
  </g>
  <g id="g55" transform="matrix(1.362993, -0.365213, 0.365213, 1.362993, 166.192581, 229.243286)">
    <g id="g57">
      <path d="M257.778,161.486c-2.159,0-3.908-1.749-3.908-3.906l0,0v-19.132c0-2.157,1.749-3.906,3.908-3.906l0,0&#10;&#9;&#9;&#9;h20.327c2.159,0,3.908,1.747,3.908,3.906l0,0v19.132v0.086l-0.001,0.005c-0.05,2.115-1.78,3.815-3.907,3.815l0,0H257.778&#10;&#9;&#9;&#9;L257.778,161.486z M255.307,138.448v19.132c0.002,1.363,1.106,2.467,2.471,2.469l0,0h20.327c1.363-0.002,2.467-1.106,2.469-2.469&#10;&#9;&#9;&#9;l0,0v-0.09l0.002-0.008v-19.034c-0.004-1.365-1.106-2.467-2.471-2.469l0,0h-20.327&#10;&#9;&#9;&#9;C256.414,135.981,255.31,137.085,255.307,138.448L255.307,138.448z" style="fill: rgb(30, 30, 30);"/>
      <path id="circle61" d="M267.933,137.472c-5.818,0-10.533,4.716-10.533,10.533c0,5.818,4.715,10.556,10.533,10.556&#10;&#9;&#9;&#9;c5.818,0,10.556-4.737,10.556-10.556C278.489,142.187,273.752,137.472,267.933,137.472z M267.933,138.909&#10;&#9;&#9;&#9;c5.042,0,9.119,4.054,9.119,9.095c0,5.042-4.077,9.119-9.119,9.119c-5.041,0-9.095-4.077-9.095-9.119&#10;&#9;&#9;&#9;C258.838,142.963,262.892,138.909,267.933,138.909z" style="fill: rgb(30, 30, 30);"/>
    </g>
    <g id="g63">
      <path d="M289.333,161.486c-2.158,0-3.907-1.749-3.907-3.907l0,0v-19.132c0-2.158,1.749-3.905,3.907-3.907l0,0&#10;&#9;&#9;&#9;h20.328c2.156,0.002,3.904,1.749,3.904,3.907l0,0v19.13v0.002c0,2.158-1.746,3.907-3.904,3.907l0,0H289.333L289.333,161.486z&#10;&#9;&#9;&#9; M286.861,138.447v19.132c0.004,1.363,1.108,2.467,2.472,2.472l0,0h20.328c1.363-0.004,2.468-1.108,2.47-2.472l0,0v-0.002v-19.13&#10;&#9;&#9;&#9;c-0.002-1.363-1.106-2.467-2.47-2.469l0,0h-20.328C287.97,135.98,286.866,137.084,286.861,138.447L286.861,138.447z" style="fill: rgb(30, 30, 30);"/>
      <path id="circle67" d="M299.487,137.472c-5.818,0-10.533,4.715-10.533,10.533c0,5.819,4.715,10.556,10.533,10.556&#10;&#9;&#9;&#9;c5.819,0,10.556-4.737,10.556-10.556S305.306,137.472,299.487,137.472z M299.487,138.909c5.042,0,9.119,4.054,9.119,9.095&#10;&#9;&#9;&#9;c0,5.042-4.076,9.119-9.119,9.119c-5.042,0-9.096-4.076-9.096-9.119C290.391,142.963,294.445,138.909,299.487,138.909z" style="fill: rgb(30, 30, 30);"/>
    </g>
    <g id="g69">
      <path d="M320.881,161.486c-2.158,0-3.905-1.749-3.905-3.905l0,0v-19.133c0-2.158,1.747-3.905,3.905-3.905l0,0&#10;&#9;&#9;&#9;h20.328c2.158,0,3.907,1.747,3.907,3.905l0,0v19.131v0.002c0,2.156-1.749,3.905-3.907,3.905l0,0H320.881L320.881,161.486z&#10;&#9;&#9;&#9; M318.412,138.447v19.133c0.002,1.362,1.104,2.466,2.469,2.469l0,0h20.328c1.364-0.002,2.469-1.106,2.471-2.469l0,0v-0.002&#10;&#9;&#9;&#9;v-19.131c-0.002-1.364-1.106-2.466-2.471-2.468l0,0h-20.328C319.517,135.981,318.414,137.085,318.412,138.447L318.412,138.447z" style="fill: rgb(30, 30, 30);"/>
      <path id="circle73" d="M331.039,137.472c-5.818,0-10.532,4.716-10.532,10.533c0,5.818,4.715,10.556,10.532,10.556&#10;&#9;&#9;&#9;s10.557-4.737,10.557-10.556C341.596,142.187,336.857,137.472,331.039,137.472z M331.039,138.909c5.041,0,9.119,4.054,9.119,9.095&#10;&#9;&#9;&#9;c0,5.042-4.077,9.119-9.119,9.119c-5.041,0-9.095-4.077-9.095-9.119C321.944,142.963,325.998,138.909,331.039,138.909z" style="fill: rgb(30, 30, 30);"/>
    </g>
  </g>
  <g id="g75" transform="matrix(1.362993, -0.365213, 0.365213, 1.362993, 166.192581, 229.243286)">
    <g id="g77">
      <path d="M257.779,192.532c-2.159,0-3.908-1.749-3.908-3.906l0,0v-19.132c0-2.157,1.749-3.908,3.908-3.908l0,0&#10;&#9;&#9;&#9;h20.326c2.159,0,3.908,1.749,3.908,3.908l0,0v19.132v0.04l0,0.002c-0.024,2.136-1.763,3.864-3.908,3.864l0,0H257.779&#10;&#9;&#9;&#9;L257.779,192.532z M255.309,169.494v19.132c0.002,1.364,1.104,2.467,2.47,2.469l0,0h20.326c1.364-0.002,2.468-1.106,2.47-2.469&#10;&#9;&#9;&#9;l0,0v-0.004v-19.128c-0.002-1.364-1.104-2.468-2.47-2.472l0,0h-20.326C256.415,167.026,255.311,168.13,255.309,169.494&#10;&#9;&#9;&#9;L255.309,169.494z" style="fill: rgb(30, 30, 30);"/>
      <path id="circle81" d="M267.933,168.511c-5.818,0-10.533,4.737-10.533,10.555c0,5.817,4.715,10.532,10.533,10.532&#10;&#9;&#9;&#9;c5.818,0,10.556-4.715,10.556-10.532C278.489,173.248,273.752,168.511,267.933,168.511z M267.933,169.948&#10;&#9;&#9;&#9;c5.042,0,9.119,4.076,9.119,9.118c0,5.041-4.077,9.095-9.119,9.095c-5.041,0-9.095-4.054-9.095-9.095&#10;&#9;&#9;&#9;C258.838,174.025,262.892,169.948,267.933,169.948z" style="fill: rgb(30, 30, 30);"/>
    </g>
    <g id="g83">
      <path d="M289.333,192.532c-2.157,0-3.906-1.749-3.906-3.906l0,0v-19.132c0-2.157,1.747-3.908,3.906-3.908l0,0&#10;&#9;&#9;&#9;h20.328c2.158,0,3.907,1.749,3.907,3.908l0,0v19.128v0.004c0,2.155-1.747,3.906-3.907,3.906l0,0H289.333L289.333,192.532z&#10;&#9;&#9;&#9; M286.862,169.494v19.132c0.002,1.364,1.106,2.467,2.47,2.469l0,0h20.328c1.363-0.002,2.468-1.106,2.47-2.469l0,0v-0.004v-19.128&#10;&#9;&#9;&#9;c-0.002-1.364-1.106-2.468-2.47-2.472l0,0h-20.328C287.968,167.026,286.864,168.13,286.862,169.494L286.862,169.494z" style="fill: rgb(30, 30, 30);"/>
      <path id="circle87" d="M299.487,168.511c-5.818,0-10.533,4.736-10.533,10.555c0,5.818,4.715,10.532,10.533,10.532&#10;&#9;&#9;&#9;c5.819,0,10.556-4.715,10.556-10.532C310.043,173.248,305.306,168.511,299.487,168.511z M299.487,169.948&#10;&#9;&#9;&#9;c5.042,0,9.119,4.076,9.119,9.118c0,5.041-4.076,9.095-9.119,9.095c-5.042,0-9.096-4.054-9.096-9.095&#10;&#9;&#9;&#9;C290.391,174.024,294.445,169.948,299.487,169.948z" style="fill: rgb(30, 30, 30);"/>
    </g>
    <g id="g89">
      <path d="M320.881,192.531c-2.158,0-3.905-1.747-3.905-3.905l0,0v-19.133c0-2.156,1.747-3.907,3.905-3.907l0,0&#10;&#9;&#9;&#9;h20.328c2.158,0,3.907,1.751,3.907,3.907l0,0v19.129v0.004c0,2.156-1.749,3.905-3.907,3.905l0,0H320.881L320.881,192.531z&#10;&#9;&#9;&#9; M318.412,169.493v19.133c0.002,1.364,1.104,2.466,2.469,2.471l0,0h20.328c1.364-0.005,2.469-1.108,2.471-2.471l0,0v-0.004&#10;&#9;&#9;&#9;v-19.129c-0.002-1.362-1.106-2.468-2.471-2.47l0,0h-20.328C319.519,167.024,318.414,168.13,318.412,169.493L318.412,169.493z" style="fill: rgb(30, 30, 30);"/>
      <path id="circle93" d="M331.039,168.511c-5.818,0-10.532,4.737-10.532,10.555c0,5.817,4.715,10.532,10.532,10.532&#10;&#9;&#9;&#9;s10.557-4.715,10.557-10.532C341.596,173.248,336.857,168.511,331.039,168.511z M331.039,169.948c5.041,0,9.119,4.076,9.119,9.118&#10;&#9;&#9;&#9;c0,5.041-4.077,9.095-9.119,9.095c-5.041,0-9.095-4.054-9.095-9.095C321.944,174.025,325.998,169.948,331.039,169.948z" style="fill: rgb(30, 30, 30);"/>
    </g>
  </g>
</svg>