<?xml version="1.0" encoding="utf-8"?>
<svg id="svg2" version="1.0" xmlns="http://www.w3.org/2000/svg">
  <path style="fill: none; fill-rule: evenodd; stroke-width: 6; stroke-linecap: butt; stroke-linejoin: miter; stroke-miterlimit: 4; stroke-dasharray: none; stroke-opacity: 1; stroke: rgb(30, 30, 30);" d="M 387.723 341.373 C 361.54 303.64 360 296.709 360 296.709 L 361.54 285.157 C 361.54 285.157 393.883 245.883 440.088 212 C 477.315 184.7 509.543 171.897 535.565 168.758 C 541.839 168.001 547.754 167.806 553.29 168.106 C 581.783 169.646 617.977 178.886 638.769 198.139 C 659.561 217.391 661.101 235.872 659.561 249.734 C 658.021 263.595 638.769 289.778 638.769 289.778 C 638.769 289.778 470.891 373.716 464.731 373.716 C 458.57 373.716 442.399 368.326 442.399 368.326 C 442.399 368.326 426.227 363.705 415.446 360.625 C 404.665 357.545 388.493 342.913 387.723 341.373 Z" id="path3199"/>
  <path style="fill: none; fill-rule: evenodd; stroke-width: 4; stroke-linecap: butt; stroke-linejoin: miter; stroke-miterlimit: 4; stroke-dasharray: none; stroke-opacity: 1; stroke: rgb(30, 30, 30);" d="M 360 295.168 C 380.792 319.811 388.493 332.902 393.883 337.523 C 399.274 342.143 420.066 345.224 433.927 351.384 C 447.789 357.545 454.719 360.625 460.11 360.625 C 465.501 360.625 490.144 344.453 510.936 329.052 C 531.728 313.65 563.301 291.318 581.012 283.617 C 598.724 275.916 604.115 272.066 616.436 272.066 C 628.757 272.066 637.229 279.767 637.229 279.767 L 652.63 266.963 L 656.519 259.979" id="path4172"/>
  <path style="fill: none; fill-rule: evenodd; stroke-width: 4; stroke-linecap: butt; stroke-linejoin: miter; stroke-miterlimit: 4; stroke-dasharray: none; stroke-opacity: 1; stroke: rgb(30, 30, 30);" d="M 554.06 297.479 C 554.06 287.467 551.75 282.848 547.129 278.227 C 542.508 273.606 488.585 236.371 489.355 235.6 C 490.125 234.83 492.454 228.942 493.994 225.091 C 495.534 221.241 493.994 220.471 489.373 220.471 C 484.753 220.471 474.742 226.631 474.742 226.631 C 474.742 226.631 463.191 219.701 455.49 216.62 C 447.789 213.54 443.939 212 443.939 212 L 440.088 211.23" id="path4174"/>
  <path style="fill: none; fill-rule: evenodd; stroke-width: 4; stroke-linecap: butt; stroke-linejoin: miter; stroke-miterlimit: 4; stroke-dasharray: none; stroke-opacity: 1; stroke: rgb(30, 30, 30);" d="M 423.791 270.343 C 413.38 282.584 398.504 304.409 398.504 309.03 C 398.504 313.65 399.274 314.42 404.665 314.42 C 410.055 314.42 430.077 299.789 447.019 285.927 C 463.961 272.066 487.625 240.41 489.165 235.79 C 490.706 231.169 494.764 222.781 492.454 220.471 C 490.144 218.161 474.912 225.02 461.651 235.103 C 444.492 248.148 435.196 257.914 423.791 270.343 Z" id="path4176"/>
  <path style="fill: none; fill-rule: evenodd; stroke-width: 4; stroke-linecap: butt; stroke-linejoin: miter; stroke-miterlimit: 4; stroke-dasharray: none; stroke-opacity: 1; stroke: rgb(30, 30, 30);" d="M 400.814 311.34 C 397.734 315.191 394.654 321.351 394.654 321.351 L 394.654 336.753 L 394.654 336.753" id="path4180"/>
  <path style="fill: none; fill-rule: evenodd; stroke-width: 1px; stroke-linecap: butt; stroke-linejoin: miter; stroke-opacity: 1; stroke: rgb(30, 30, 30);" d="M 363.08 285.157 C 363.08 285.157 368.471 290.548 374.631 298.249 C 380.792 305.95 395.423 322.892 395.423 322.892 C 395.423 322.892 406.205 326.742 420.066 332.132 C 433.927 337.523 453.95 348.304 457.8 349.074 C 461.651 349.844 464.731 347.534 470.891 343.684 C 477.052 339.833 546.359 289.008 565.611 278.997 C 584.863 268.986 596.414 262.055 604.115 260.515 C 611.816 258.975 614.126 258.975 614.126 258.975" id="path8058"/>
</svg>