<?xml version="1.0" encoding="utf-8"?>
<svg id="svg2985" version="1.1" xmlns="http://www.w3.org/2000/svg">
  <path id="path2999" style="fill-opacity: 1; fill-rule: evenodd; stroke: none; fill: rgb(255, 255, 255);" d="M 47.631 13.81 L 32.039 32.939 L 36.775 14.214 L 13.39 35.945 C 9.389 33.94 6.994 31.261 6.994 28.205 C 6.994 21.009 20.271 14.393 36.551 13.478 C 40.465 13.257 44.206 13.386 47.631 13.81 L 47.631 13.81 Z M 48.72 37.759 L 54.782 15.244 C 61.67 17.252 66.106 20.72 66.106 24.878 C 66.106 30.16 58.957 35.126 48.72 37.759 L 48.72 37.759 Z M 19.177 53.697 L 25.946 29.104 L 12.311 43.002 C 4.63 40.174 -0.04 35.752 0.001 30.606 C 0.001 21.138 16.267 12.717 36.212 11.86 C 40.63 11.67 44.868 11.866 48.788 12.391 L 58.886 0 L 55.222 13.613 C 65.532 16.204 72.424 21.329 72.424 27.491 C 72.424 36.589 57.402 44.719 38.532 46.102 L 44.673 24.141 L 19.177 53.697 L 19.177 53.697"/>
  <path id="path3001" style="fill-opacity: 1; fill-rule: evenodd; stroke: none; fill: rgb(255, 255, 255);" d="M 87.972 16.807 L 79.635 16.807 L 72.895 39.934 L 79.261 39.934 L 81.902 30.868 L 82.996 25.586 L 82.347 39.934 L 87.312 39.934 L 94.985 25.837 L 93.01 30.868 L 90.368 39.934 L 96.701 39.934 L 103.441 16.807 L 95.134 16.807 L 87.408 30.868 L 87.972 16.807 L 87.972 16.807"/>
  <path id="path3003" style="fill-opacity: 1; fill-rule: evenodd; stroke: none; fill: rgb(255, 255, 255);" d="M 106.145 16.807 L 99.406 39.934 L 106.312 39.934 L 113.052 16.807 L 106.145 16.807 L 106.145 16.807"/>
  <path id="path3005" style="fill-opacity: 1; fill-rule: evenodd; stroke: none; fill: rgb(255, 255, 255);" d="M 121.062 22.303 C 122.815 22.255 124.134 22.641 125.019 23.463 C 125.905 24.283 126.04 25.824 125.424 28.085 C 125.036 29.417 124.57 30.505 124.026 31.35 C 123.484 32.195 122.872 32.856 122.193 33.331 C 121.512 33.807 120.784 34.122 120.006 34.276 C 119.23 34.431 118.403 34.486 117.526 34.438 L 121.062 22.303 L 121.062 22.303 Z M 115.885 16.807 L 109.145 39.934 L 118.151 39.934 C 119.765 39.934 121.306 39.72 122.778 39.291 C 124.25 38.864 125.604 38.167 126.841 37.204 C 128.075 36.24 129.172 34.99 130.128 33.456 C 131.084 31.921 131.85 30.061 132.423 27.87 C 133.005 25.657 133.09 23.837 132.679 22.41 C 132.267 20.981 131.611 19.852 130.707 19.019 C 129.804 18.186 128.773 17.609 127.616 17.288 C 126.457 16.966 125.411 16.807 124.478 16.807 L 115.885 16.807 L 115.885 16.807"/>
  <path id="path3007" style="fill-opacity: 1; fill-rule: evenodd; stroke: none; fill: rgb(255, 255, 255);" d="M 135.33 16.807 L 133.938 39.934 L 140.621 39.934 L 146.759 26.621 L 145.363 39.934 L 152.078 39.934 L 163.783 16.807 L 157.321 16.807 L 150.933 30.868 L 152.771 16.807 L 146.501 16.807 L 140.43 30.868 L 142.205 16.807 L 135.33 16.807 L 135.33 16.807"/>
  <path id="path3009" style="fill-opacity: 1; fill-rule: evenodd; stroke: none; fill: rgb(255, 255, 255);" d="M 166.035 32.118 L 170.236 24.587 L 170.078 32.118 L 166.035 32.118 L 166.035 32.118 Z M 169.002 16.807 L 154.815 39.934 L 161.785 39.934 L 163.327 36.936 L 170.043 36.936 L 169.837 39.934 L 176.807 39.934 L 176.163 16.807 L 169.002 16.807 L 169.002 16.807"/>
  <path id="path3011" style="fill-opacity: 1; fill-rule: evenodd; stroke: none; fill: rgb(255, 255, 255);" d="M 177.755 16.807 L 181.087 31.582 L 178.654 39.934 L 185.369 39.934 L 187.802 31.582 L 200 16.807 L 192.108 16.807 L 186.581 24.301 L 185.393 16.807 L 177.755 16.807 L 177.755 16.807"/>
</svg>