<?xml version="1.0" encoding="utf-8"?>
<svg id="svg2985" version="1.1" xmlns="http://www.w3.org/2000/svg">
  <path id="path2999" style="fill-opacity: 1; fill-rule: evenodd; stroke: none; fill: rgb(255, 255, 255);" d="M 119.077 34.524 L 80.096 82.349 L 91.938 35.535 L 33.474 89.862 C 23.472 84.851 17.484 78.151 17.484 70.513 C 17.484 52.522 50.677 35.983 91.376 33.695 C 101.161 33.142 110.515 33.465 119.077 34.524 L 119.077 34.524 Z M 121.8 94.397 L 136.955 38.111 C 154.174 43.131 165.264 51.799 165.264 62.196 C 165.264 75.399 147.391 87.814 121.8 94.397 L 121.8 94.397 Z M 47.943 134.242 L 64.864 72.761 L 30.777 107.506 C 11.574 100.435 -0.101 89.38 0.001 76.514 C 0.001 52.845 40.667 31.793 90.53 29.649 C 101.574 29.174 112.169 29.666 121.968 30.977 L 147.215 0 L 138.054 34.031 C 163.829 40.509 181.059 53.322 181.059 68.728 C 181.059 91.471 143.505 111.797 96.329 115.254 L 111.681 60.353 L 47.943 134.242 L 47.943 134.242"/>
  <path id="path3001" style="fill-opacity: 1; fill-rule: evenodd; stroke: none; fill: rgb(255, 255, 255);" d="M 219.93 42.016 L 199.087 42.016 L 182.238 99.835 L 198.151 99.835 L 204.755 77.17 L 207.489 63.965 L 205.867 99.835 L 218.279 99.835 L 237.462 64.591 L 232.523 77.17 L 225.919 99.835 L 241.753 99.835 L 258.602 42.016 L 237.835 42.016 L 218.52 77.17 L 219.93 42.016 L 219.93 42.016"/>
  <path id="path3003" style="fill-opacity: 1; fill-rule: evenodd; stroke: none; fill: rgb(255, 255, 255);" d="M 265.363 42.016 L 248.514 99.835 L 265.78 99.835 L 282.628 42.016 L 265.363 42.016 L 265.363 42.016"/>
  <path id="path3005" style="fill-opacity: 1; fill-rule: evenodd; stroke: none; fill: rgb(255, 255, 255);" d="M 302.653 55.757 C 307.035 55.637 310.335 56.603 312.548 58.656 C 314.762 60.708 315.098 64.559 313.559 70.211 C 312.588 73.542 311.425 76.262 310.065 78.375 C 308.708 80.488 307.179 82.139 305.48 83.328 C 303.779 84.517 301.96 85.305 300.015 85.691 C 298.073 86.078 296.006 86.214 293.814 86.094 L 302.653 55.757 L 302.653 55.757 Z M 289.712 42.016 L 272.861 99.835 L 295.377 99.835 C 299.41 99.835 303.264 99.299 306.945 98.229 C 310.625 97.16 314.01 95.418 317.101 93.01 C 320.187 90.601 322.929 87.475 325.319 83.64 C 327.709 79.802 329.624 75.151 331.058 69.675 C 332.512 64.143 332.723 59.593 331.696 56.024 C 330.666 52.453 329.026 49.629 326.767 47.548 C 324.51 45.465 321.931 44.022 319.038 43.219 C 316.141 42.416 313.527 42.016 311.193 42.016 L 289.712 42.016 L 289.712 42.016"/>
  <path id="path3007" style="fill-opacity: 1; fill-rule: evenodd; stroke: none; fill: rgb(255, 255, 255);" d="M 338.324 42.016 L 334.843 99.835 L 351.553 99.835 L 366.897 66.552 L 363.406 99.835 L 380.193 99.835 L 409.457 42.016 L 393.302 42.016 L 377.331 77.17 L 381.927 42.016 L 366.252 42.016 L 351.075 77.17 L 355.511 42.016 L 338.324 42.016 L 338.324 42.016"/>
  <path id="path3009" style="fill-opacity: 1; fill-rule: evenodd; stroke: none; fill: rgb(255, 255, 255);" d="M 415.087 80.296 L 425.588 61.468 L 425.193 80.296 L 415.087 80.296 L 415.087 80.296 Z M 422.503 42.016 L 387.037 99.835 L 404.462 99.835 L 408.316 92.34 L 425.105 92.34 L 424.591 99.835 L 442.016 99.835 L 440.405 42.016 L 422.503 42.016 L 422.503 42.016"/>
  <path id="path3011" style="fill-opacity: 1; fill-rule: evenodd; stroke: none; fill: rgb(255, 255, 255);" d="M 444.387 42.016 L 452.716 78.954 L 446.633 99.835 L 463.42 99.835 L 469.504 78.954 L 500 42.016 L 480.268 42.016 L 466.452 60.753 L 463.481 42.016 L 444.387 42.016 L 444.387 42.016"/>
</svg>