<?xml version="1.0" encoding="utf-8"?>
<svg version="1.2" baseProfile="tiny" id="Layer_3" x="0px" y="0px" viewBox="0 0 1280 720" preserveAspectRatio="none" xmlns="http://www.w3.org/2000/svg">
  <path id="rect3" d="M 343.948 290.021 L 343.948 290.941 L 343.948 323.85 L 343.948 324.769 L 344.869 324.769 L 792.078 324.769 L 792.998 324.769 L 792.998 323.85 L 792.998 290.941 L 792.998 290.021 L 792.078 290.021 L 344.868 290.021 L 343.948 290.021 Z M 345.789 291.863 L 791.157 291.863 L 791.157 322.928 L 345.789 322.928 L 345.789 291.863 Z" style="fill: rgb(30, 30, 30);" transform="matrix(0.965926, -0.258819, 0.258819, 0.965926, -60.189432, 157.605862)"/>
  <path id="circle5" d="M 763.728 243.628 C 761.239 243.628 759.183 245.657 759.183 248.144 C 759.183 250.631 761.239 252.688 763.728 252.688 C 766.215 252.688 768.243 250.631 768.243 248.144 C 768.243 245.657 766.215 243.628 763.728 243.628 Z M 763.728 245.468 C 765.22 245.468 766.403 246.65 766.403 248.144 C 766.403 249.636 765.22 250.847 763.728 250.847 C 762.236 250.847 761.023 249.636 761.023 248.144 C 761.023 246.65 762.236 245.468 763.728 245.468 Z" style="fill: rgb(30, 30, 30);" transform="matrix(0.965926, -0.258819, 0.258819, 0.965926, -38.205129, 206.119259)"/>
  <path id="path7" d="M 816.986 232.942 C 815.839 232.942 814.838 233.135 814.139 233.833 C 813.442 234.531 813.247 235.532 813.247 236.682 L 813.247 255.895 C 813.247 257.044 813.442 258.045 814.139 258.744 C 814.839 259.442 815.838 259.635 816.986 259.635 L 836.087 259.635 C 837.236 259.635 838.238 259.442 838.935 258.744 C 839.635 258.045 839.826 257.044 839.826 255.895 L 839.826 236.682 C 839.826 235.532 839.635 234.531 838.935 233.833 C 838.237 233.135 837.235 232.942 836.087 232.942 L 816.986 232.942 L 816.986 232.942 Z M 816.986 234.782 L 836.087 234.782 C 837.017 234.782 837.448 234.964 837.64 235.156 C 837.833 235.349 837.985 235.752 837.985 236.682 L 837.985 255.895 C 837.985 256.825 837.833 257.257 837.64 257.449 C 837.448 257.642 837.016 257.794 836.087 257.794 L 816.986 257.794 C 816.059 257.794 815.626 257.64 815.433 257.449 C 815.242 257.257 815.089 256.825 815.089 255.895 L 815.089 236.682 C 815.089 235.752 815.242 235.349 815.433 235.156 C 815.628 234.963 816.059 234.782 816.986 234.782 Z" style="fill: rgb(30, 30, 30);" transform="matrix(0.965926, -0.258819, 0.258819, 0.965926, -35.580608, 222.315413)"/>
  <path id="path9" d="M 844.444 225.585 C 843.295 225.585 842.294 225.778 841.597 226.476 C 840.897 227.174 840.705 228.175 840.705 229.325 L 840.705 248.538 C 840.705 249.687 840.897 250.688 841.597 251.387 C 842.295 252.085 843.296 252.278 844.444 252.278 L 863.545 252.278 C 864.692 252.278 865.693 252.085 866.393 251.387 C 867.09 250.688 867.284 249.688 867.284 248.538 L 867.284 229.325 C 867.284 228.175 867.09 227.174 866.393 226.476 C 865.692 225.778 864.693 225.585 863.545 225.585 L 844.444 225.585 L 844.444 225.585 Z M 844.444 227.425 L 863.545 227.425 C 864.472 227.425 864.905 227.606 865.098 227.799 C 865.29 227.992 865.443 228.395 865.443 229.325 L 865.443 248.538 C 865.443 249.468 865.29 249.9 865.098 250.092 C 864.903 250.285 864.472 250.437 863.545 250.437 L 844.444 250.437 C 843.515 250.437 843.084 250.283 842.891 250.092 C 842.699 249.9 842.546 249.468 842.546 248.538 L 842.546 229.325 C 842.546 228.395 842.699 227.992 842.891 227.799 C 843.084 227.606 843.515 227.425 844.444 227.425 Z" style="fill: rgb(30, 30, 30);" transform="matrix(0.965926, -0.258819, 0.258819, 0.965926, -32.740865, 229.171356)"/>
  <path id="path11" d="M 837.334 199.05 C 836.185 199.05 835.184 199.244 834.487 199.942 C 833.787 200.641 833.595 201.641 833.595 202.788 L 833.595 222.003 C 833.595 223.153 833.787 224.154 834.487 224.852 C 835.177 225.55 836.18 225.743 837.331 225.743 L 856.432 225.743 C 857.579 225.743 858.581 225.55 859.28 224.851 C 859.978 224.153 860.171 223.153 860.171 222.003 L 860.171 202.787 C 860.171 201.64 859.978 200.639 859.28 199.941 C 858.58 199.244 857.574 199.05 856.435 199.05 L 837.334 199.05 L 837.334 199.05 Z M 837.334 200.891 L 856.435 200.891 C 857.362 200.891 857.795 201.073 857.988 201.264 C 858.18 201.456 858.333 201.86 858.333 202.788 L 858.333 222.003 C 858.333 222.933 858.18 223.365 857.988 223.557 C 857.793 223.749 857.362 223.902 856.435 223.902 L 837.334 223.902 C 836.405 223.902 835.974 223.749 835.781 223.557 C 835.589 223.365 835.436 222.933 835.436 222.003 L 835.436 202.788 C 835.436 201.86 835.589 201.458 835.781 201.264 C 835.974 201.073 836.407 200.891 837.336 200.891 L 837.334 200.891 Z" style="fill: rgb(30, 30, 30);" transform="matrix(0.965926, -0.258819, 0.258819, 0.965926, -26.11542, 226.426731)"/>
  <path id="path13" d="M 851.557 252.117 C 850.408 252.117 849.407 252.341 848.71 253.039 C 848.01 253.737 847.818 254.71 847.818 255.859 L 847.818 275.103 C 847.818 276.252 848.01 277.224 848.71 277.92 C 849.408 278.62 850.409 278.841 851.557 278.841 L 870.658 278.841 C 871.805 278.841 872.806 278.62 873.506 277.92 C 874.203 277.224 874.397 276.25 874.397 275.103 L 874.397 255.859 C 874.397 254.71 874.203 253.737 873.506 253.039 C 872.805 252.341 871.806 252.117 870.658 252.117 L 851.557 252.117 Z M 851.557 253.96 L 870.658 253.96 C 871.585 253.96 872.018 254.142 872.211 254.333 C 872.403 254.526 872.556 254.93 872.556 255.859 L 872.556 275.103 C 872.556 276.031 872.403 276.434 872.211 276.627 C 872.016 276.82 871.585 277 870.658 277 L 851.557 277 C 850.628 277 850.197 276.819 850.004 276.627 C 849.812 276.434 849.659 276.031 849.659 275.103 L 849.659 255.859 C 849.659 254.93 849.812 254.526 850.004 254.333 C 850.197 254.141 850.628 253.96 851.557 253.96 Z" style="fill: rgb(30, 30, 30);" transform="matrix(0.965926, -0.258819, 0.258819, 0.965926, -39.369496, 231.916974)"/>
  <path id="path15" d="M 833.502 293.789 C 832.354 293.789 831.351 293.983 830.654 294.68 C 829.957 295.38 829.762 296.381 829.762 297.529 L 829.762 316.745 C 829.762 317.893 829.957 318.894 830.654 319.592 C 831.352 320.289 832.353 320.483 833.502 320.483 L 852.631 320.483 C 853.779 320.483 854.75 320.289 855.45 319.592 C 856.148 318.894 856.37 317.893 856.37 316.745 L 856.37 297.529 C 856.37 296.381 856.148 295.38 855.45 294.68 C 854.75 293.983 853.78 293.789 852.631 293.789 L 833.502 293.789 Z M 833.502 295.631 L 852.631 295.631 C 853.559 295.631 853.964 295.784 854.155 295.976 C 854.348 296.167 854.53 296.601 854.53 297.529 L 854.53 316.745 C 854.53 317.672 854.348 318.105 854.155 318.297 C 853.964 318.49 853.559 318.641 852.631 318.641 L 833.502 318.641 C 832.574 318.641 832.169 318.49 831.978 318.297 C 831.785 318.105 831.603 317.672 831.603 316.745 L 831.603 297.529 C 831.603 296.601 831.785 296.167 831.978 295.976 C 832.169 295.784 832.574 295.631 833.502 295.631 Z" style="fill: rgb(30, 30, 30);" transform="matrix(0.965926, -0.258819, 0.258819, 0.965926, -50.765872, 228.667047)"/>
  <path id="path17" d="M 730.758 292.969 C 729.609 292.969 728.637 293.192 727.939 293.891 C 727.24 294.589 727.019 295.561 727.019 296.71 L 727.019 315.953 C 727.019 317.102 727.242 318.073 727.939 318.772 C 728.637 319.472 729.61 319.693 730.758 319.693 L 749.885 319.693 C 751.035 319.693 752.037 319.472 752.733 318.772 C 753.435 318.074 753.626 317.102 753.626 315.953 L 753.626 296.711 C 753.626 295.561 753.433 294.59 752.735 293.891 C 752.037 293.193 751.035 292.97 749.887 292.97 L 730.758 292.969 L 730.758 292.969 Z M 730.758 294.81 L 749.885 294.81 C 750.816 294.81 751.218 294.992 751.41 295.185 C 751.595 295.378 751.779 295.779 751.779 296.71 L 751.779 315.953 C 751.779 316.88 751.597 317.285 751.404 317.479 C 751.213 317.671 750.81 317.852 749.88 317.852 L 730.753 317.852 C 729.823 317.852 729.42 317.67 729.229 317.479 C 729.034 317.285 728.854 316.88 728.854 315.953 L 728.854 296.71 C 728.854 295.781 729.034 295.378 729.229 295.185 C 729.42 294.992 729.823 294.81 730.753 294.81 L 730.758 294.81 Z" style="fill: rgb(30, 30, 30);" transform="matrix(0.965926, -0.258819, 0.258819, 0.965926, -54.058408, 202.047468)"/>
  <path id="path19" d="M 756.386 284.047 C 755.237 284.047 754.236 284.27 753.54 284.969 C 752.842 285.667 752.647 286.639 752.647 287.788 L 752.647 307.031 C 752.647 308.18 752.842 309.151 753.54 309.85 C 754.237 310.55 755.238 310.771 756.386 310.771 L 790.848 310.771 C 791.998 310.771 792.997 310.55 793.696 309.85 C 794.393 309.152 794.588 308.18 794.588 307.031 L 794.588 287.788 C 794.588 286.639 794.393 285.667 793.696 284.969 C 792.998 284.27 791.997 284.047 790.848 284.047 L 756.386 284.047 Z M 756.386 285.888 L 790.848 285.888 C 791.778 285.888 792.209 286.07 792.401 286.263 C 792.593 286.456 792.746 286.859 792.746 287.788 L 792.746 307.031 C 792.746 307.96 792.593 308.363 792.401 308.557 C 792.209 308.749 791.776 308.93 790.848 308.93 L 756.386 308.93 C 755.457 308.93 755.026 308.748 754.833 308.557 C 754.641 308.363 754.489 307.958 754.489 307.031 L 754.489 287.788 C 754.489 286.859 754.641 286.456 754.833 286.263 C 755.026 286.07 755.459 285.888 756.386 285.888 Z" style="fill: rgb(30, 30, 30);" transform="matrix(0.965926, -0.258819, 0.258819, 0.965926, -50.614734, 210.360884)"/>
  <path id="path21" d="M 702.999 300.411 C 701.851 300.411 700.849 300.634 700.151 301.333 C 699.453 302.031 699.26 303.003 699.26 304.152 L 699.26 323.395 C 699.26 324.544 699.453 325.515 700.151 326.214 C 700.851 326.914 701.849 327.135 702.999 327.135 L 722.099 327.135 C 723.25 327.135 724.25 326.914 724.947 326.214 C 725.645 325.515 725.839 324.544 725.839 323.395 L 725.839 304.152 C 725.839 303.003 725.645 302.031 724.947 301.333 C 724.25 300.634 723.249 300.411 722.099 300.411 L 702.999 300.411 Z M 702.999 302.252 L 722.099 302.252 C 723.029 302.252 723.461 302.434 723.653 302.627 C 723.844 302.82 723.997 303.221 723.997 304.152 L 723.997 323.395 C 723.997 324.324 723.844 324.727 723.653 324.921 C 723.461 325.113 723.029 325.294 722.099 325.294 L 702.999 325.294 C 702.07 325.294 701.638 325.112 701.445 324.921 C 701.253 324.727 701.099 324.322 701.099 323.395 L 701.099 304.152 C 701.099 303.223 701.253 302.82 701.445 302.627 C 701.638 302.434 702.07 302.252 702.999 302.252 Z" style="fill: rgb(30, 30, 30);" transform="matrix(0.965926, -0.258819, 0.258819, 0.965926, -56.930892, 195.112923)"/>
  <path id="path23" d="M 675.212 307.852 C 674.065 307.852 673.064 308.075 672.365 308.774 C 671.667 309.472 671.474 310.444 671.474 311.593 L 671.474 330.836 C 671.474 331.985 671.667 332.956 672.365 333.655 C 673.065 334.355 674.066 334.576 675.212 334.576 L 694.342 334.576 C 695.491 334.576 696.492 334.355 697.189 333.655 C 697.888 332.957 698.081 331.985 698.081 330.836 L 698.081 311.593 C 698.081 310.444 697.888 309.472 697.189 308.774 C 696.491 308.075 695.49 307.852 694.342 307.852 L 675.212 307.852 Z M 675.212 309.693 L 694.342 309.693 C 695.271 309.693 695.674 309.875 695.866 310.068 C 696.059 310.261 696.241 310.664 696.241 311.593 L 696.241 330.836 C 696.241 331.765 696.059 332.168 695.866 332.362 C 695.674 332.554 695.271 332.735 694.342 332.735 L 675.212 332.735 C 674.285 332.735 673.882 332.553 673.69 332.362 C 673.495 332.168 673.315 331.763 673.315 330.836 L 673.315 311.593 C 673.315 310.664 673.495 310.261 673.69 310.068 C 673.882 309.875 674.285 309.693 675.212 309.693 Z" style="fill: rgb(30, 30, 30);" transform="matrix(0.965926, -0.258819, 0.258819, 0.965926, -59.803077, 188.178585)"/>
  <path id="path25" d="M 647.455 315.294 C 646.306 315.294 645.305 315.517 644.608 316.216 C 643.91 316.914 643.716 317.886 643.716 319.035 L 643.716 338.278 C 643.716 339.427 643.91 340.398 644.608 341.097 C 645.306 341.797 646.307 342.018 647.455 342.018 L 666.556 342.018 C 667.705 342.018 668.705 341.797 669.404 341.097 C 670.101 340.399 670.295 339.427 670.295 338.278 L 670.295 319.035 C 670.295 317.886 670.101 316.914 669.404 316.216 C 668.706 315.517 667.704 315.294 666.556 315.294 L 647.455 315.294 Z M 647.455 317.135 L 666.556 317.135 C 667.486 317.135 667.917 317.317 668.109 317.51 C 668.301 317.703 668.454 318.106 668.454 319.035 L 668.454 338.278 C 668.454 339.207 668.301 339.61 668.109 339.804 C 667.917 339.996 667.484 340.177 666.556 340.177 L 647.455 340.177 C 646.526 340.177 646.094 339.995 645.902 339.804 C 645.71 339.61 645.558 339.205 645.558 338.278 L 645.558 319.035 C 645.558 318.106 645.71 317.703 645.902 317.51 C 646.094 317.317 646.528 317.135 647.455 317.135 Z" style="fill: rgb(30, 30, 30);" transform="matrix(0.965926, -0.258819, 0.258819, 0.965926, -62.675509, 181.244196)"/>
  <path id="path27" d="M 619.67 322.735 C 618.521 322.735 617.52 322.958 616.822 323.657 C 616.124 324.355 615.93 325.327 615.93 326.476 L 615.93 345.719 C 615.93 346.868 616.124 347.839 616.822 348.538 C 617.52 349.238 618.52 349.459 619.67 349.459 L 638.799 349.459 C 639.948 349.459 640.92 349.238 641.618 348.538 C 642.315 347.84 642.538 346.868 642.538 345.719 L 642.538 326.476 C 642.538 325.327 642.315 324.355 641.618 323.657 C 640.92 322.958 639.947 322.735 638.799 322.735 L 619.67 322.735 Z M 619.67 324.576 L 638.799 324.576 C 639.728 324.576 640.131 324.758 640.323 324.951 C 640.515 325.144 640.697 325.547 640.697 326.476 L 640.697 345.719 C 640.697 346.648 640.515 347.051 640.323 347.245 C 640.129 347.438 639.725 347.618 638.796 347.618 L 619.667 347.618 C 618.738 347.618 618.336 347.438 618.142 347.245 C 617.949 347.051 617.768 346.649 617.768 345.721 L 617.768 326.477 C 617.768 325.548 617.95 325.144 618.142 324.952 C 618.335 324.76 618.738 324.579 619.667 324.579 L 619.67 324.576 Z" style="fill: rgb(30, 30, 30);" transform="matrix(0.965926, -0.258819, 0.258819, 0.965926, -65.547672, 174.30998)"/>
  <path id="path29" d="M 591.911 330.176 C 590.763 330.176 589.762 330.399 589.064 331.098 C 588.365 331.796 588.172 332.768 588.172 333.917 L 588.172 353.16 C 588.172 354.309 588.365 355.28 589.064 355.979 C 589.762 356.679 590.763 356.9 591.911 356.9 L 611.012 356.9 C 612.16 356.9 613.161 356.679 613.859 355.979 C 614.558 355.28 614.751 354.309 614.751 353.16 L 614.751 333.917 C 614.751 332.768 614.558 331.796 613.859 331.098 C 613.161 330.399 612.161 330.176 611.012 330.176 L 591.911 330.176 Z M 591.911 332.017 L 611.012 332.017 C 611.94 332.017 612.372 332.199 612.565 332.392 C 612.758 332.585 612.911 332.988 612.911 333.917 L 612.911 353.16 C 612.911 354.089 612.758 354.492 612.565 354.686 C 612.372 354.878 611.94 355.059 611.012 355.059 L 591.911 355.059 C 590.983 355.059 590.551 354.877 590.358 354.686 C 590.165 354.492 590.013 354.087 590.013 353.16 L 590.013 333.917 C 590.013 332.988 590.166 332.585 590.358 332.392 C 590.551 332.199 590.983 332.017 591.911 332.017 Z" style="fill: rgb(30, 30, 30);" transform="matrix(0.965926, -0.258819, 0.258819, 0.965926, -68.419866, 167.375446)"/>
  <path id="path31" d="M 564.126 337.618 C 562.978 337.618 561.977 337.841 561.279 338.54 C 560.581 339.238 560.387 340.21 560.387 341.359 L 560.387 360.602 C 560.387 361.751 560.581 362.722 561.279 363.421 C 561.977 364.121 562.977 364.342 564.126 364.342 L 583.255 364.342 C 584.404 364.342 585.376 364.121 586.074 363.421 C 586.773 362.722 586.995 361.751 586.995 360.602 L 586.995 341.359 C 586.995 340.21 586.773 339.238 586.074 338.54 C 585.376 337.841 584.404 337.618 583.255 337.618 L 564.126 337.618 Z M 564.126 339.459 L 583.255 339.459 C 584.184 339.459 584.587 339.641 584.779 339.834 C 584.972 340.027 585.153 340.43 585.153 341.359 L 585.153 360.602 C 585.153 361.531 584.971 361.934 584.779 362.128 C 584.587 362.32 584.184 362.501 583.255 362.501 L 564.126 362.501 C 563.198 362.501 562.795 362.319 562.602 362.128 C 562.41 361.934 562.229 361.529 562.229 360.602 L 562.229 341.359 C 562.229 340.43 562.411 340.027 562.602 339.834 C 562.795 339.641 563.197 339.459 564.126 339.459 Z" style="fill: rgb(30, 30, 30);" transform="matrix(0.965926, -0.258819, 0.258819, 0.965926, -71.292265, 160.441527)"/>
  <path id="path33" d="M 536.341 345.063 C 535.192 345.063 534.22 345.286 533.522 345.985 C 532.823 346.683 532.601 347.655 532.601 348.804 L 532.601 368.047 C 532.601 369.196 532.823 370.168 533.522 370.866 C 534.22 371.565 535.192 371.787 536.341 371.787 L 555.469 371.787 C 556.618 371.787 557.619 371.566 558.317 370.866 C 559.016 370.167 559.209 369.196 559.209 368.047 L 559.209 348.804 C 559.209 347.655 559.016 346.683 558.317 345.985 C 557.619 345.286 556.619 345.063 555.469 345.063 L 536.341 345.063 Z M 536.341 346.904 L 555.469 346.904 C 556.398 346.904 556.83 347.086 557.023 347.279 C 557.215 347.472 557.367 347.875 557.367 348.804 L 557.367 368.047 C 557.367 368.976 557.214 369.379 557.023 369.573 C 556.831 369.765 556.398 369.946 555.469 369.946 L 536.341 369.946 C 535.413 369.946 535.009 369.764 534.817 369.573 C 534.624 369.379 534.443 368.974 534.443 368.047 L 534.443 348.804 C 534.443 347.875 534.625 347.472 534.817 347.279 C 535.009 347.086 535.413 346.904 536.341 346.904 Z" style="fill: rgb(30, 30, 30);" transform="matrix(0.965926, -0.258819, 0.258819, 0.965926, -74.16595, 153.50366)"/>
  <path id="path35" d="M 508.582 352.501 C 507.434 352.501 506.433 352.724 505.735 353.423 C 505.036 354.121 504.843 355.093 504.843 356.242 L 504.843 375.485 C 504.843 376.634 505.036 377.606 505.735 378.304 C 506.433 379.003 507.434 379.225 508.582 379.225 L 527.711 379.225 C 528.859 379.225 529.831 379.004 530.529 378.304 C 531.229 377.605 531.45 376.634 531.45 375.485 L 531.45 356.242 C 531.45 355.093 531.229 354.121 530.529 353.423 C 529.831 352.724 528.859 352.501 527.711 352.501 L 508.582 352.501 Z M 508.582 354.342 L 527.711 354.342 C 528.639 354.342 529.042 354.524 529.235 354.717 C 529.428 354.91 529.609 355.313 529.609 356.242 L 529.609 375.485 C 529.609 376.414 529.428 376.817 529.235 377.011 C 529.042 377.203 528.639 377.384 527.711 377.384 L 508.582 377.384 C 507.655 377.384 507.223 377.202 507.029 377.011 C 506.836 376.817 506.684 376.412 506.684 375.485 L 506.684 356.242 C 506.684 355.313 506.837 354.91 507.029 354.717 C 507.222 354.524 507.654 354.342 508.582 354.342 Z" style="fill: rgb(30, 30, 30);" transform="matrix(0.965926, -0.258819, 0.258819, 0.965926, -77.036906, 146.572675)"/>
  <path id="path37" d="M 480.796 359.946 C 479.648 359.946 478.676 360.169 477.977 360.868 C 477.279 361.566 477.057 362.538 477.057 363.687 L 477.057 382.93 C 477.057 384.079 477.279 385.051 477.977 385.749 C 478.676 386.448 479.648 386.67 480.796 386.67 L 499.925 386.67 C 501.074 386.67 502.075 386.449 502.773 385.749 C 503.471 385.051 503.665 384.079 503.665 382.93 L 503.665 363.687 C 503.665 362.538 503.471 361.566 502.773 360.868 C 502.075 360.169 501.074 359.946 499.925 359.946 L 480.796 359.946 Z M 480.796 361.787 L 499.925 361.787 C 500.854 361.787 501.257 361.969 501.449 362.162 C 501.642 362.355 501.823 362.758 501.823 363.687 L 501.823 382.93 C 501.823 383.859 501.642 384.262 501.449 384.456 C 501.257 384.648 500.854 384.829 499.925 384.829 L 480.796 384.829 C 479.869 384.829 479.465 384.647 479.271 384.456 C 479.079 384.262 478.898 383.857 478.898 382.93 L 478.898 363.687 C 478.898 362.758 479.08 362.355 479.271 362.162 C 479.465 361.969 479.869 361.787 480.796 361.787 Z" style="fill: rgb(30, 30, 30);" transform="matrix(0.965926, -0.258819, 0.258819, 0.965926, -79.910579, 139.63494)"/>
  <path id="path39" d="M 453.04 367.387 C 451.891 367.387 450.89 367.61 450.192 368.309 C 449.493 369.007 449.3 369.979 449.3 371.128 L 449.3 390.371 C 449.3 391.52 449.494 392.491 450.192 393.19 C 450.89 393.89 451.891 394.111 453.04 394.111 L 472.14 394.111 C 473.289 394.111 474.29 393.89 474.988 393.19 C 475.687 392.491 475.88 391.52 475.88 390.371 L 475.88 371.128 C 475.88 369.979 475.687 369.007 474.988 368.309 C 474.29 367.61 473.29 367.387 472.14 367.387 L 453.04 367.387 Z M 453.04 369.228 L 472.14 369.228 C 473.069 369.228 473.501 369.41 473.694 369.603 C 473.886 369.796 474.038 370.199 474.038 371.128 L 474.038 390.371 C 474.038 391.3 473.885 391.703 473.694 391.897 C 473.502 392.089 473.069 392.27 472.14 392.27 L 453.04 392.27 C 452.111 392.27 451.678 392.088 451.487 391.897 C 451.308 391.703 451.155 391.301 451.155 390.371 L 451.155 371.128 C 451.155 370.199 451.308 369.796 451.499 369.603 C 451.692 369.41 452.125 369.229 453.052 369.229 L 453.04 369.228 Z" style="fill: rgb(30, 30, 30);" transform="matrix(0.965926, -0.258819, 0.258819, 0.965926, -82.782724, 132.700818)"/>
  <path id="path41" d="M 425.256 374.828 C 424.108 374.828 423.136 375.051 422.438 375.75 C 421.739 376.448 421.517 377.42 421.517 378.569 L 421.517 397.812 C 421.517 398.961 421.738 399.932 422.438 400.631 C 423.136 401.331 424.108 401.552 425.256 401.552 L 444.385 401.552 C 445.534 401.552 446.534 401.331 447.233 400.631 C 447.931 399.932 448.124 398.961 448.124 397.812 L 448.124 378.569 C 448.124 377.42 447.931 376.448 447.233 375.75 C 446.534 375.051 445.534 374.828 444.385 374.828 L 425.256 374.828 Z M 425.256 376.669 L 444.385 376.669 C 445.313 376.669 445.717 376.851 445.91 377.044 C 446.102 377.237 446.284 377.64 446.284 378.569 L 446.284 397.812 C 446.284 398.741 446.102 399.144 445.91 399.338 C 445.717 399.53 445.314 399.711 444.385 399.711 L 425.256 399.711 C 424.328 399.711 423.925 399.529 423.732 399.338 C 423.539 399.146 423.358 398.742 423.358 397.812 L 423.358 378.569 C 423.358 377.64 423.54 377.237 423.732 377.044 C 423.925 376.851 424.328 376.67 425.256 376.669 L 425.256 376.669 Z" style="fill: rgb(30, 30, 30);" transform="matrix(0.965926, -0.258819, 0.258819, 0.965926, -85.654816, 125.76708)"/>
  <path id="path43" d="M 397.499 382.269 C 396.351 382.269 395.35 382.492 394.652 383.191 C 393.954 383.889 393.76 384.861 393.76 386.01 L 393.76 405.253 C 393.76 406.402 393.954 407.374 394.652 408.072 C 395.35 408.771 396.351 408.993 397.499 408.993 L 416.599 408.993 C 417.748 408.993 418.749 408.772 419.447 408.072 C 419.942 407.578 420.152 406.917 420.252 406.175 L 420.338 406.175 L 420.338 405.253 L 420.338 386.01 C 420.338 384.861 420.145 383.889 419.447 383.191 C 418.749 382.492 417.747 382.269 416.599 382.269 L 397.499 382.269 Z M 397.499 384.11 L 416.599 384.11 C 417.528 384.11 417.96 384.292 418.152 384.485 C 418.345 384.678 418.497 385.081 418.497 386.01 L 418.497 404.333 L 418.497 405.253 C 418.497 406.182 418.345 406.585 418.152 406.779 C 417.959 406.971 417.528 407.152 416.599 407.152 L 397.499 407.152 C 396.572 407.152 396.139 406.97 395.946 406.779 C 395.754 406.587 395.602 406.18 395.602 405.253 L 395.602 386.01 C 395.602 385.081 395.754 384.678 395.946 384.485 C 396.139 384.292 396.571 384.11 397.499 384.11 Z" style="fill: rgb(30, 30, 30);" transform="matrix(0.965926, -0.258819, 0.258819, 0.965926, -88.526985, 118.832843)"/>
  <path id="path45" d="M 420.438 405.75 C 419.29 405.75 418.289 405.974 417.591 406.672 C 416.892 407.37 416.699 408.344 416.699 409.49 L 416.699 428.735 C 416.699 429.883 416.892 430.855 417.591 431.554 C 418.289 432.253 419.29 432.474 420.438 432.474 L 439.567 432.474 C 440.715 432.474 441.687 432.252 442.386 431.554 C 443.084 430.855 443.307 429.883 443.307 428.735 L 443.307 409.49 C 443.307 408.343 443.084 407.37 442.386 406.672 C 441.687 405.974 440.715 405.75 439.567 405.75 L 420.438 405.75 Z M 420.438 407.592 L 439.567 407.592 C 440.495 407.592 440.898 407.774 441.092 407.964 C 441.284 408.157 441.466 408.562 441.466 409.489 L 441.466 428.733 C 441.466 429.662 441.284 430.066 441.092 430.258 C 440.899 430.45 440.495 430.632 439.567 430.632 L 420.438 430.632 C 419.51 430.632 419.107 430.45 418.914 430.258 C 418.721 430.045 418.54 429.641 418.54 428.72 L 418.54 409.477 C 418.54 408.549 418.721 408.144 418.914 407.951 C 419.107 407.758 419.51 407.578 420.438 407.578 L 420.438 407.592 Z" style="fill: rgb(30, 30, 30);" transform="matrix(0.965926, -0.258819, 0.258819, 0.965926, -93.82217, 125.573857)"/>
  <path id="path47" d="M 376.016 415.302 C 374.868 415.302 373.868 415.526 373.168 416.224 C 372.469 416.924 372.277 417.89 372.277 419.039 L 372.277 438.284 C 372.277 439.433 372.47 440.404 373.168 441.104 C 373.867 441.802 374.868 442.024 376.016 442.024 L 412.692 442.024 C 413.841 442.024 414.842 441.802 415.54 441.104 C 416.238 440.404 416.432 439.432 416.432 438.284 L 416.432 437.364 L 416.432 419.039 C 416.432 417.893 416.238 416.92 415.54 416.222 C 414.841 415.524 413.841 415.3 412.692 415.3 L 376.016 415.3 L 376.016 415.302 Z M 376.016 417.144 L 412.692 417.144 C 413.621 417.144 414.024 417.326 414.217 417.516 C 414.41 417.709 414.591 418.114 414.591 419.041 L 414.591 438.285 C 414.591 439.214 414.41 439.618 414.217 439.81 C 414.025 440.002 413.621 440.184 412.692 440.184 L 376.016 440.184 C 375.088 440.184 374.685 440.002 374.492 439.81 C 374.299 439.597 374.117 439.193 374.117 438.272 L 374.117 419.029 C 374.117 418.101 374.299 417.696 374.491 417.503 C 374.684 417.31 375.088 417.13 376.016 417.13 L 376.016 417.144 Z" style="fill: rgb(30, 30, 30);" transform="matrix(0.965926, -0.258819, 0.258819, 0.965926, -97.508626, 116.672826)"/>
  <path id="path49" d="M 447.946 398.38 C 446.798 398.38 445.826 398.604 445.127 399.302 C 444.429 400 444.206 400.974 444.206 402.12 L 444.206 421.365 C 444.206 422.513 444.429 423.485 445.127 424.184 C 445.826 424.883 446.798 425.104 447.946 425.104 L 467.075 425.104 C 468.224 425.104 469.224 424.882 469.923 424.184 C 470.621 423.486 470.814 422.513 470.814 421.365 L 470.814 420.443 L 470.814 402.12 C 470.814 400.973 470.621 400 469.923 399.302 C 469.224 398.604 468.223 398.38 467.075 398.38 L 447.946 398.38 Z M 447.946 400.222 L 467.075 400.222 C 468.004 400.222 468.436 400.404 468.628 400.594 C 468.821 400.787 468.973 401.192 468.973 402.119 L 468.973 421.363 C 468.973 422.292 468.82 422.696 468.628 422.888 C 468.435 423.08 468.004 423.262 467.075 423.262 L 447.946 423.262 C 447.019 423.262 446.615 423.08 446.421 422.888 C 446.229 422.696 446.048 422.292 446.048 421.363 L 446.048 402.119 C 446.048 401.192 446.23 400.787 446.421 400.594 C 446.615 400.404 447.018 400.222 447.946 400.222 Z" style="fill: rgb(30, 30, 30);" transform="matrix(0.965926, -0.258819, 0.258819, 0.965926, -90.977365, 132.442011)"/>
  <path id="path51" d="M 475.481 391.002 C 474.333 391.002 473.332 391.226 472.634 391.924 C 471.936 392.622 471.742 393.596 471.742 394.742 L 471.742 413.987 C 471.742 415.135 471.936 416.107 472.634 416.806 C 473.332 417.505 474.332 417.726 475.481 417.726 L 494.61 417.726 C 495.758 417.726 496.731 417.504 497.429 416.806 C 498.127 416.108 498.35 415.135 498.35 413.987 L 498.35 394.742 C 498.35 393.595 498.128 392.622 497.429 391.924 C 496.731 391.226 495.758 391.002 494.61 391.002 L 475.481 391.002 Z M 475.481 392.844 L 494.61 392.844 C 495.539 392.844 495.941 393.026 496.135 393.216 C 496.327 393.409 496.509 393.814 496.509 394.741 L 496.509 413.985 C 496.509 414.914 496.327 415.318 496.135 415.51 C 495.942 415.702 495.539 415.884 494.61 415.884 L 475.481 415.884 C 474.553 415.884 474.121 415.702 473.928 415.51 C 473.736 415.318 473.584 414.914 473.584 413.985 L 473.584 394.741 C 473.584 393.814 473.737 393.409 473.928 393.216 C 474.121 393.026 474.553 392.844 475.481 392.844 Z" style="fill: rgb(30, 30, 30);" transform="matrix(0.965926, -0.258819, 0.258819, 0.965926, -88.129565, 139.317514)"/>
  <path id="path53" d="M 502.992 383.63 C 501.844 383.63 500.872 383.854 500.173 384.552 C 499.475 385.25 499.252 386.224 499.252 387.37 L 499.252 406.615 C 499.252 407.763 499.475 408.735 500.173 409.434 C 500.871 410.133 501.844 410.354 502.992 410.354 L 522.121 410.354 C 523.27 410.354 524.271 410.132 524.969 409.434 C 525.667 408.735 525.861 407.763 525.861 406.615 L 525.861 387.37 C 525.861 386.223 525.667 385.25 524.969 384.552 C 524.27 383.854 523.27 383.63 522.121 383.63 L 502.992 383.63 Z M 502.992 385.472 L 522.121 385.472 C 523.05 385.472 523.453 385.654 523.646 385.844 C 523.839 386.037 524.02 386.442 524.02 387.369 L 524.02 406.613 C 524.02 407.542 523.838 407.946 523.646 408.138 C 523.453 408.33 523.05 408.512 522.121 408.512 L 502.992 408.512 C 502.065 408.512 501.661 408.33 501.467 408.138 C 501.275 407.946 501.094 407.542 501.094 406.613 L 501.094 387.369 C 501.094 386.442 501.276 386.037 501.467 385.844 C 501.66 385.654 502.064 385.472 502.992 385.472 Z" style="fill: rgb(30, 30, 30);" transform="matrix(0.965926, -0.258819, 0.258819, 0.965926, -85.28415, 146.186558)"/>
  <path id="path55" d="M 530.519 376.258 C 529.371 376.258 528.369 376.482 527.671 377.18 C 526.973 377.878 526.78 378.852 526.78 379.998 L 526.78 399.243 C 526.78 400.391 526.973 401.363 527.671 402.062 C 528.37 402.761 529.371 402.982 530.519 402.982 L 549.62 402.982 C 550.769 402.982 551.769 402.76 552.467 402.062 C 553.165 401.363 553.359 400.391 553.359 399.243 L 553.359 379.998 C 553.359 378.851 553.165 377.878 552.467 377.18 C 551.769 376.482 550.768 376.258 549.62 376.258 L 530.519 376.258 Z M 530.519 378.1 L 549.62 378.1 C 550.548 378.1 550.98 378.282 551.173 378.472 C 551.365 378.665 551.517 379.07 551.517 379.997 L 551.517 399.241 C 551.517 400.17 551.364 400.574 551.173 400.766 C 550.98 400.958 550.548 401.14 549.62 401.14 L 530.519 401.14 C 529.59 401.14 529.159 400.958 528.966 400.766 C 528.774 400.574 528.621 400.17 528.621 399.241 L 528.621 379.997 C 528.621 379.07 528.774 378.665 528.966 378.472 C 529.158 378.282 529.59 378.1 530.519 378.1 Z" style="fill: rgb(30, 30, 30);" transform="matrix(0.965926, -0.258819, 0.258819, 0.965926, -82.438645, 153.056239)"/>
  <path id="path57" d="M 558.028 368.883 C 556.88 368.883 555.908 369.107 555.209 369.805 C 554.51 370.503 554.289 371.477 554.289 372.623 L 554.289 391.868 C 554.289 393.016 554.51 393.988 555.209 394.687 C 555.908 395.386 556.88 395.607 558.028 395.607 L 577.157 395.607 C 578.306 395.607 579.306 395.385 580.004 394.687 C 580.702 393.989 580.896 393.016 580.896 391.868 L 580.896 372.623 C 580.896 371.476 580.702 370.503 580.004 369.805 C 579.306 369.107 578.305 368.883 577.157 368.883 L 558.028 368.883 Z M 558.028 370.725 L 577.157 370.725 C 578.085 370.725 578.489 370.907 578.681 371.097 C 578.873 371.29 579.055 371.695 579.055 372.622 L 579.055 391.866 C 579.055 392.795 578.873 393.199 578.681 393.391 C 578.489 393.583 578.085 393.765 577.157 393.765 L 558.028 393.765 C 557.099 393.765 556.697 393.583 556.504 393.391 C 556.311 393.199 556.13 392.795 556.13 391.866 L 556.13 372.622 C 556.13 371.695 556.311 371.29 556.504 371.097 C 556.697 370.907 557.099 370.725 558.028 370.725 Z" style="fill: rgb(30, 30, 30);" transform="matrix(0.965926, -0.258819, 0.258819, 0.965926, -79.592039, 159.928442)"/>
  <path id="path59" d="M 585.565 361.509 C 584.417 361.509 583.416 361.733 582.718 362.431 C 582.019 363.129 581.826 364.103 581.826 365.249 L 581.826 384.494 C 581.826 385.642 582.019 386.614 582.718 387.313 C 583.417 388.012 584.417 388.233 585.565 388.233 L 604.666 388.233 C 605.814 388.233 606.815 388.011 607.513 387.313 C 608.211 386.614 608.405 385.642 608.405 384.494 L 608.405 365.249 C 608.405 364.102 608.211 363.129 607.513 362.431 C 606.814 361.733 605.814 361.509 604.666 361.509 L 585.565 361.509 Z M 585.565 363.351 L 604.666 363.351 C 605.594 363.351 606.026 363.533 606.219 363.723 C 606.412 363.916 606.564 364.321 606.564 365.248 L 606.564 384.492 C 606.564 385.421 606.411 385.825 606.219 386.017 C 606.026 386.209 605.593 386.391 604.666 386.391 L 585.565 386.391 C 584.637 386.391 584.205 386.209 584.012 386.017 C 583.819 385.825 583.667 385.421 583.667 384.492 L 583.667 365.248 C 583.667 364.321 583.82 363.916 584.012 363.723 C 584.204 363.533 584.637 363.351 585.565 363.351 Z" style="fill: rgb(30, 30, 30);" transform="matrix(0.965926, -0.258819, 0.258819, 0.965926, -76.745697, 166.800671)"/>
  <path id="path61" d="M 613.073 354.134 C 611.926 354.134 610.924 354.358 610.227 355.056 C 609.528 355.754 609.335 356.728 609.335 357.874 L 609.335 377.119 C 609.335 378.267 609.528 379.239 610.227 379.938 C 610.924 380.637 611.926 380.858 613.073 380.858 L 632.203 380.858 C 633.351 380.858 634.352 380.636 635.051 379.938 C 635.749 379.239 635.942 378.267 635.942 377.119 L 635.942 357.874 C 635.942 356.727 635.749 355.754 635.051 355.056 C 634.351 354.358 633.351 354.134 632.203 354.134 L 613.073 354.134 Z M 613.073 355.976 L 632.203 355.976 C 633.13 355.976 633.534 356.158 633.727 356.348 C 633.919 356.541 634.102 356.946 634.102 357.873 L 634.102 377.117 C 634.102 378.046 633.919 378.45 633.727 378.642 C 633.534 378.834 633.13 379.016 632.203 379.016 L 613.073 379.016 C 612.146 379.016 611.742 378.834 611.549 378.642 C 611.357 378.45 611.176 378.046 611.176 377.117 L 611.176 357.873 C 611.176 356.946 611.357 356.541 611.549 356.348 C 611.742 356.158 612.146 355.976 613.073 355.976 Z" style="fill: rgb(30, 30, 30);" transform="matrix(0.965926, -0.258819, 0.258819, 0.965926, -73.899077, 173.67287)"/>
  <path id="path63" d="M 640.611 346.759 C 639.463 346.759 638.462 346.983 637.764 347.681 C 637.065 348.379 636.872 349.353 636.872 350.499 L 636.872 369.744 C 636.872 370.892 637.066 371.864 637.764 372.563 C 638.463 373.262 639.463 373.483 640.611 373.483 L 659.712 373.483 C 660.859 373.483 661.861 373.261 662.56 372.563 C 663.258 371.864 663.451 370.892 663.451 369.744 L 663.451 350.499 C 663.451 349.352 663.258 348.379 662.56 347.681 C 661.86 346.983 660.86 346.759 659.712 346.759 L 640.611 346.759 Z M 640.611 348.601 L 659.712 348.601 C 660.641 348.601 661.073 348.783 661.265 348.973 C 661.458 349.166 661.61 349.571 661.61 350.498 L 661.61 369.742 C 661.61 370.671 661.458 371.075 661.265 371.267 C 661.071 371.459 660.64 371.641 659.712 371.641 L 640.611 371.641 C 639.683 371.641 639.251 371.459 639.058 371.267 C 638.867 371.075 638.714 370.671 638.714 369.742 L 638.714 350.498 C 638.714 349.571 638.867 349.166 639.058 348.973 C 639.251 348.783 639.683 348.601 640.611 348.601 Z" style="fill: rgb(30, 30, 30);" transform="matrix(0.965926, -0.258819, 0.258819, 0.965926, -71.052452, 180.544985)"/>
  <path id="path65" d="M 668.12 339.384 C 666.971 339.384 665.97 339.608 665.273 340.306 C 664.573 341.004 664.381 341.978 664.381 343.124 L 664.381 362.369 C 664.381 363.517 664.575 364.489 665.273 365.188 C 665.971 365.887 666.972 366.108 668.12 366.108 L 687.249 366.108 C 688.397 366.108 689.369 365.886 690.069 365.188 C 690.767 364.489 690.988 363.517 690.988 362.369 L 690.988 343.124 C 690.988 341.977 690.767 341.004 690.069 340.306 C 689.369 339.608 688.396 339.384 687.249 339.384 L 668.12 339.384 Z M 668.12 341.226 L 687.249 341.226 C 688.178 341.226 688.581 341.408 688.774 341.598 C 688.966 341.791 689.148 342.196 689.148 343.123 L 689.148 362.367 C 689.148 363.296 688.966 363.7 688.774 363.892 C 688.58 364.084 688.178 364.266 687.249 364.266 L 668.12 364.266 C 667.191 364.266 666.788 364.084 666.596 363.892 C 666.404 363.7 666.222 363.296 666.222 362.367 L 666.222 343.123 C 666.222 342.196 666.404 341.791 666.596 341.598 C 666.788 341.408 667.191 341.226 668.12 341.226 Z" style="fill: rgb(30, 30, 30);" transform="matrix(0.965926, -0.258819, 0.258819, 0.965926, -68.205841, 187.417148)"/>
  <path id="path67" d="M 695.647 332.012 C 694.5 332.012 693.498 332.236 692.8 332.934 C 692.102 333.632 691.908 334.606 691.908 335.752 L 691.908 354.997 C 691.908 356.145 692.102 357.117 692.8 357.816 C 693.497 358.515 694.5 358.736 695.647 358.736 L 714.749 358.736 C 715.898 358.736 716.899 358.514 717.595 357.816 C 718.293 357.117 718.488 356.145 718.488 354.997 L 718.488 335.752 C 718.488 334.605 718.293 333.632 717.595 332.934 C 716.898 332.236 715.897 332.012 714.749 332.012 L 695.647 332.012 Z M 695.647 333.854 L 714.749 333.854 C 715.678 333.854 716.109 334.036 716.302 334.226 C 716.493 334.419 716.646 334.824 716.646 335.751 L 716.646 354.995 C 716.646 355.924 716.493 356.328 716.302 356.52 C 716.109 356.712 715.677 356.894 714.749 356.894 L 695.647 356.894 C 694.72 356.894 694.286 356.712 694.094 356.52 C 693.901 356.328 693.749 355.924 693.749 354.995 L 693.749 335.751 C 693.749 334.824 693.901 334.419 694.094 334.226 C 694.286 334.036 694.72 333.854 695.647 333.854 Z" style="fill: rgb(30, 30, 30);" transform="matrix(0.965926, -0.258819, 0.258819, 0.965926, -65.360335, 194.287043)"/>
  <path id="path69" d="M 723.156 324.637 C 722.009 324.637 721.007 324.861 720.308 325.559 C 719.611 326.257 719.417 327.231 719.417 328.377 L 719.417 347.622 C 719.417 348.77 719.611 349.742 720.308 350.441 C 721.008 351.14 722.008 351.361 723.156 351.361 L 742.286 351.361 C 743.435 351.361 744.406 351.139 745.104 350.441 C 745.802 349.743 746.025 348.77 746.025 347.622 L 746.025 328.377 C 746.025 327.23 745.802 326.257 745.104 325.559 C 744.406 324.861 743.434 324.637 742.286 324.637 L 723.156 324.637 Z M 723.156 326.479 L 742.286 326.479 C 743.215 326.479 743.618 326.661 743.81 326.851 C 744.002 327.044 744.184 327.449 744.184 328.376 L 744.184 347.62 C 744.184 348.549 744.002 348.953 743.81 349.145 C 743.618 349.337 743.213 349.519 742.286 349.519 L 723.156 349.519 C 722.228 349.519 721.824 349.337 721.632 349.145 C 721.439 348.953 721.257 348.549 721.257 347.62 L 721.257 328.376 C 721.257 327.449 721.439 327.044 721.632 326.851 C 721.824 326.661 722.228 326.479 723.156 326.479 Z" style="fill: rgb(30, 30, 30);" transform="matrix(0.965926, -0.258819, 0.258819, 0.965926, -62.513711, 201.159166)"/>
  <path id="path71" stroke="#F4F4F4" stroke-width="1.9014" d="M 800.712 332.651" style="fill: rgb(30, 30, 30);" transform="matrix(0.965926, -0.258819, 0.258819, 0.965926, -58.812821, 218.574351)"/>
  <path id="path73" stroke="#F4F4F4" stroke-width="1.9014" d="M 804.288 337.431" style="fill: rgb(30, 30, 30);" transform="matrix(0.965926, -0.258819, 0.258819, 0.965926, -59.928115, 219.662717)"/>
  <path id="path75" d="M 752.727 313.254 C 751.578 313.254 750.577 313.478 749.879 314.176 C 749.18 314.874 748.988 315.848 748.988 316.994 L 748.988 336.239 C 748.988 337.387 749.18 338.359 749.879 339.058 C 750.578 339.757 751.579 339.978 752.727 339.978 C 754.191 339.978 754.949 340.121 755.115 340.236 C 755.197 340.295 755.251 340.325 755.316 340.554 C 755.38 340.78 755.402 341.179 755.402 341.761 L 755.402 363.796 C 755.402 364.946 755.624 365.946 756.323 366.644 C 757.02 367.342 757.993 367.536 759.142 367.536 L 801.138 367.536 C 802.287 367.536 803.288 367.342 803.985 366.644 C 804.677 365.952 804.873 364.96 804.877 363.825 C 804.877 363.814 804.877 363.806 804.877 363.796 L 805.05 317.025 L 805.05 316.996 C 805.05 315.847 804.828 314.874 804.129 314.176 C 803.431 313.478 802.459 313.256 801.311 313.256 L 752.727 313.256 L 752.727 313.254 Z M 752.727 315.096 L 801.311 315.096 C 802.24 315.096 802.643 315.278 802.835 315.468 C 803.028 315.661 803.21 316.066 803.21 316.993 L 803.036 363.796 C 803.036 364.723 802.884 365.155 802.692 365.348 C 802.5 365.54 802.067 365.692 801.139 365.692 L 759.143 365.692 C 758.213 365.692 757.81 365.54 757.619 365.348 C 757.434 365.155 757.25 364.723 757.25 363.793 L 757.25 341.759 C 757.25 341.098 757.223 340.546 757.076 340.033 C 756.93 339.52 756.631 339.02 756.185 338.71 C 755.291 338.085 754.245 338.134 752.734 338.134 C 751.804 338.134 751.402 337.952 751.209 337.76 C 751.017 337.567 750.835 337.163 750.835 336.236 L 750.835 316.991 C 750.835 316.064 751.017 315.659 751.209 315.467 C 751.402 315.275 751.804 315.093 752.734 315.093 L 752.727 315.096 Z" style="fill: rgb(30, 30, 30);" transform="matrix(0.965926, -0.258819, 0.258819, 0.965926, -61.62443, 212.705964)"/>
  <path id="path77" d="M 433.078 431.137 C 431.93 431.137 430.929 431.359 430.231 432.057 C 429.532 432.756 429.339 433.729 429.339 434.876 L 429.339 454.12 C 429.339 455.269 429.532 456.24 430.231 456.938 C 430.929 457.636 431.93 457.859 433.078 457.859 L 452.207 457.859 C 453.355 457.859 454.327 457.636 455.026 456.938 C 455.725 456.24 455.947 455.268 455.947 454.12 L 455.947 434.876 C 455.947 433.729 455.725 432.756 455.026 432.057 C 454.328 431.359 453.355 431.137 452.207 431.137 L 433.078 431.137 Z M 433.078 432.977 L 452.207 432.977 C 453.135 432.977 453.538 433.159 453.732 433.352 C 453.925 433.545 454.106 433.948 454.106 434.876 L 454.106 454.12 C 454.106 455.049 453.924 455.451 453.732 455.644 C 453.539 455.837 453.136 456.019 452.207 456.019 L 433.078 456.019 C 432.15 456.019 431.746 455.837 431.553 455.644 C 431.361 455.451 431.179 455.048 431.179 454.12 L 431.179 434.876 C 431.179 433.948 431.362 433.545 431.553 433.352 C 431.745 433.159 432.15 432.977 433.078 432.977 Z" style="fill: rgb(30, 30, 30);" transform="matrix(0.965926, -0.258819, 0.258819, 0.965926, -99.961819, 129.710282)"/>
  <path id="path79" d="M 382.692 441.277 C 381.544 441.277 380.572 441.499 379.874 442.197 C 379.175 442.896 378.953 443.869 378.953 445.016 L 378.953 464.26 C 378.953 465.409 379.175 466.38 379.874 467.078 C 380.572 467.776 381.544 467.999 382.692 467.999 L 426.905 467.999 C 428.054 467.999 429.025 467.776 429.724 467.078 C 430.423 466.38 430.645 465.408 430.645 464.26 L 430.645 445.016 C 430.645 443.869 430.423 442.896 429.724 442.197 C 429.026 441.499 428.054 441.277 426.905 441.277 L 382.692 441.277 Z M 382.692 443.117 L 426.905 443.117 C 427.834 443.117 428.237 443.299 428.429 443.492 C 428.622 443.685 428.803 444.088 428.803 445.016 L 428.803 464.26 C 428.803 465.189 428.622 465.591 428.429 465.784 C 428.238 465.977 427.834 466.159 426.905 466.159 L 382.692 466.159 C 381.764 466.159 381.361 465.977 381.168 465.784 C 380.976 465.591 380.795 465.188 380.795 464.26 L 380.795 445.016 C 380.795 444.088 380.976 443.685 381.168 443.492 C 381.361 443.289 381.764 443.114 382.692 443.114 L 382.692 443.117 Z" style="fill: rgb(30, 30, 30);" transform="matrix(0.965926, -0.258819, 0.258819, 0.965926, -103.875739, 120.261043)"/>
  <path id="path81" d="M 460.612 423.763 C 459.464 423.763 458.463 423.985 457.765 424.683 C 457.066 425.382 456.873 426.355 456.873 427.502 L 456.873 446.746 C 456.873 447.895 457.067 448.866 457.765 449.564 C 458.463 450.262 459.464 450.485 460.612 450.485 L 479.713 450.485 C 480.861 450.485 481.863 450.262 482.561 449.564 C 483.056 449.069 483.266 448.408 483.366 447.666 L 483.452 447.666 L 483.452 446.746 L 483.452 427.502 C 483.452 426.355 483.259 425.382 482.561 424.683 C 481.863 423.985 480.861 423.763 479.713 423.763 L 460.612 423.763 L 460.612 423.763 Z M 460.612 425.603 L 479.713 425.603 C 480.642 425.603 481.073 425.785 481.266 425.978 C 481.459 426.171 481.612 426.574 481.612 427.502 L 481.612 445.825 L 481.612 446.746 C 481.612 447.675 481.459 448.077 481.266 448.27 C 481.073 448.463 480.642 448.645 479.713 448.645 L 460.612 448.645 C 459.685 448.645 459.252 448.463 459.059 448.27 C 458.867 448.077 458.715 447.674 458.715 446.746 L 458.715 427.502 C 458.715 426.574 458.868 426.171 459.059 425.978 C 459.252 425.785 459.684 425.603 460.612 425.603 Z" style="fill: rgb(30, 30, 30);" transform="matrix(0.965926, -0.258819, 0.258819, 0.965926, -97.115657, 136.581719)"/>
  <path id="path83" d="M 488.116 416.39 C 486.967 416.39 485.966 416.612 485.268 417.31 C 484.569 418.009 484.376 418.982 484.376 420.129 L 484.376 439.373 C 484.376 440.522 484.57 441.493 485.268 442.191 C 485.966 442.889 486.967 443.112 488.116 443.112 L 507.244 443.112 C 508.393 443.112 509.365 442.889 510.063 442.191 C 510.762 441.493 510.984 440.521 510.984 439.373 L 510.984 420.129 C 510.984 418.982 510.762 418.009 510.063 417.31 C 509.365 416.612 508.393 416.39 507.244 416.39 L 488.116 416.39 Z M 488.116 418.23 L 507.244 418.23 C 508.173 418.23 508.577 418.412 508.768 418.605 C 508.961 418.798 509.142 419.201 509.142 420.129 L 509.142 439.373 C 509.142 440.302 508.961 440.704 508.768 440.897 C 508.577 441.09 508.173 441.272 507.244 441.272 L 488.116 441.272 C 487.188 441.272 486.784 441.09 486.592 440.897 C 486.399 440.704 486.218 440.301 486.218 439.373 L 486.218 420.129 C 486.218 419.201 486.4 418.798 486.592 418.605 C 486.783 418.412 487.188 418.23 488.116 418.23 Z" style="fill: rgb(30, 30, 30);" transform="matrix(0.965926, -0.258819, 0.258819, 0.965926, -94.269709, 143.452466)"/>
  <path id="path85" d="M 515.627 409.018 C 514.478 409.018 513.506 409.24 512.807 409.938 C 512.109 410.637 511.886 411.61 511.886 412.757 L 511.886 432.001 C 511.886 433.15 512.108 434.121 512.807 434.819 C 513.505 435.517 514.478 435.74 515.627 435.74 L 534.755 435.74 C 535.904 435.74 536.905 435.517 537.603 434.819 C 538.301 434.121 538.495 433.149 538.495 432.001 L 538.495 412.757 C 538.495 411.61 538.301 410.637 537.603 409.938 C 536.904 409.24 535.904 409.018 534.755 409.018 L 515.627 409.018 Z M 515.627 410.858 L 534.755 410.858 C 535.684 410.858 536.116 411.04 536.308 411.233 C 536.5 411.426 536.653 411.829 536.653 412.757 L 536.653 432.001 C 536.653 432.93 536.5 433.332 536.308 433.525 C 536.116 433.718 535.684 433.9 534.755 433.9 L 515.627 433.9 C 514.698 433.9 514.294 433.718 514.102 433.525 C 513.909 433.332 513.728 432.929 513.728 432.001 L 513.728 412.757 C 513.728 411.829 513.909 411.426 514.102 411.233 C 514.294 411.04 514.698 410.858 515.627 410.858 Z" style="fill: rgb(30, 30, 30);" transform="matrix(0.965926, -0.258819, 0.258819, 0.965926, -91.424294, 150.321513)"/>
  <path id="path87" d="M 543.163 401.64 C 542.015 401.64 541.013 401.862 540.315 402.56 C 539.616 403.259 539.424 404.232 539.424 405.379 L 539.424 424.623 C 539.424 425.772 539.617 426.743 540.315 427.441 C 541.013 428.139 542.015 428.362 543.163 428.362 L 562.292 428.362 C 563.439 428.362 564.411 428.139 565.11 427.441 C 565.808 426.743 566.031 425.771 566.031 424.623 L 566.031 405.379 C 566.031 404.232 565.809 403.259 565.11 402.56 C 564.412 401.862 563.44 401.64 562.292 401.64 L 543.163 401.64 Z M 543.163 403.48 L 562.292 403.48 C 563.219 403.48 563.623 403.662 563.816 403.855 C 564.008 404.048 564.189 404.451 564.189 405.379 L 564.189 424.623 C 564.189 425.552 564.007 425.954 563.816 426.147 C 563.623 426.34 563.22 426.522 562.292 426.522 L 543.163 426.522 C 542.234 426.522 541.802 426.34 541.61 426.147 C 541.417 425.954 541.264 425.551 541.264 424.623 L 541.264 405.379 C 541.264 404.451 541.417 404.048 541.61 403.855 C 541.802 403.662 542.234 403.48 543.163 403.48 Z" style="fill: rgb(30, 30, 30);" transform="matrix(0.965926, -0.258819, 0.258819, 0.965926, -88.576434, 157.197234)"/>
  <path id="path89" d="M 570.672 394.269 C 569.524 394.269 568.551 394.491 567.853 395.189 C 567.154 395.888 566.933 396.861 566.933 398.008 L 566.933 417.252 C 566.933 418.401 567.154 419.372 567.853 420.07 C 568.551 420.768 569.524 420.991 570.672 420.991 L 589.801 420.991 C 590.949 420.991 591.95 420.768 592.648 420.07 C 593.346 419.372 593.54 418.4 593.54 417.252 L 593.54 398.008 C 593.54 396.861 593.346 395.888 592.648 395.189 C 591.95 394.491 590.949 394.269 589.801 394.269 L 570.672 394.269 Z M 570.672 396.109 L 589.801 396.109 C 590.728 396.109 591.132 396.291 591.325 396.484 C 591.517 396.677 591.698 397.08 591.698 398.008 L 591.698 417.252 C 591.698 418.181 591.517 418.583 591.325 418.776 C 591.132 418.969 590.729 419.151 589.801 419.151 L 570.672 419.151 C 569.743 419.151 569.341 418.969 569.148 418.776 C 568.955 418.583 568.774 418.18 568.774 417.252 L 568.774 398.008 C 568.774 397.08 568.955 396.677 569.148 396.484 C 569.34 396.291 569.743 396.109 570.672 396.109 Z" style="fill: rgb(30, 30, 30);" transform="matrix(0.965926, -0.258819, 0.258819, 0.965926, -85.731309, 164.06584)"/>
  <path id="path91" d="M 598.208 386.894 C 597.06 386.894 596.059 387.116 595.36 387.814 C 594.662 388.513 594.469 389.486 594.469 390.633 L 594.469 409.877 C 594.469 411.026 594.662 411.997 595.36 412.695 C 596.059 413.393 597.061 413.616 598.208 413.616 L 617.309 413.616 C 618.457 413.616 619.458 413.393 620.156 412.695 C 620.854 411.997 621.048 411.025 621.048 409.877 L 621.048 390.633 C 621.048 389.486 620.854 388.513 620.156 387.814 C 619.457 387.116 618.457 386.894 617.309 386.894 L 598.208 386.894 Z M 598.208 388.734 L 617.309 388.734 C 618.237 388.734 618.669 388.916 618.862 389.109 C 619.054 389.302 619.207 389.705 619.207 390.633 L 619.207 409.877 C 619.207 410.806 619.054 411.208 618.862 411.401 C 618.669 411.594 618.237 411.776 617.309 411.776 L 598.208 411.776 C 597.281 411.776 596.848 411.594 596.655 411.401 C 596.462 411.208 596.31 410.805 596.31 409.877 L 596.31 390.633 C 596.31 389.705 596.463 389.302 596.655 389.109 C 596.848 388.916 597.28 388.734 598.208 388.734 Z" style="fill: rgb(30, 30, 30);" transform="matrix(0.965926, -0.258819, 0.258819, 0.965926, -82.884752, 170.937832)"/>
  <path id="path93" d="M 625.709 379.522 C 624.561 379.522 623.589 379.744 622.89 380.442 C 622.192 381.141 621.969 382.114 621.969 383.261 L 621.969 402.505 C 621.969 403.654 622.191 404.625 622.89 405.323 C 623.589 406.021 624.561 406.244 625.709 406.244 L 644.838 406.244 C 645.987 406.244 646.988 406.021 647.685 405.323 C 648.384 404.625 648.578 403.653 648.578 402.505 L 648.578 383.261 C 648.578 382.114 648.384 381.141 647.685 380.442 C 646.987 379.744 645.987 379.522 644.838 379.522 L 625.709 379.522 Z M 625.709 381.362 L 644.838 381.362 C 645.767 381.362 646.17 381.544 646.362 381.737 C 646.554 381.93 646.736 382.333 646.736 383.261 L 646.736 402.505 C 646.736 403.434 646.554 403.836 646.362 404.029 C 646.17 404.222 645.767 404.404 644.838 404.404 L 625.709 404.404 C 624.781 404.404 624.377 404.222 624.184 404.029 C 623.992 403.836 623.811 403.433 623.811 402.505 L 623.811 383.261 C 623.811 382.333 623.993 381.93 624.184 381.737 C 624.376 381.544 624.78 381.362 625.709 381.362 Z" style="fill: rgb(30, 30, 30);" transform="matrix(0.965926, -0.258819, 0.258819, 0.965926, -80.039178, 177.808023)"/>
  <path id="path95" d="M 653.245 372.147 C 652.097 372.147 651.096 372.369 650.397 373.067 C 649.7 373.766 649.505 374.739 649.505 375.886 L 649.505 395.13 C 649.505 396.279 649.7 397.25 650.397 397.948 C 651.097 398.646 652.096 398.869 653.245 398.869 L 672.345 398.869 C 673.495 398.869 674.496 398.646 675.193 397.948 C 675.891 397.25 676.085 396.278 676.085 395.13 L 676.085 375.886 C 676.085 374.739 675.891 373.766 675.193 373.067 C 674.495 372.369 673.494 372.147 672.345 372.147 L 653.245 372.147 Z M 653.245 373.987 L 672.345 373.987 C 673.275 373.987 673.707 374.169 673.898 374.362 C 674.091 374.555 674.243 374.958 674.243 375.886 L 674.243 395.13 C 674.243 396.059 674.091 396.461 673.898 396.654 C 673.707 396.847 673.274 397.029 672.345 397.029 L 653.245 397.029 C 652.317 397.029 651.884 396.847 651.692 396.654 C 651.5 396.461 651.347 396.058 651.347 395.13 L 651.347 375.886 C 651.347 374.958 651.5 374.555 651.692 374.362 C 651.884 374.169 652.317 373.987 653.245 373.987 Z" style="fill: rgb(30, 30, 30);" transform="matrix(0.965926, -0.258819, 0.258819, 0.965926, -77.192614, 184.679826)"/>
  <path id="path97" d="M 680.754 364.773 C 679.606 364.773 678.634 364.995 677.935 365.693 C 677.237 366.392 677.014 367.365 677.014 368.512 L 677.014 387.756 C 677.014 388.905 677.208 389.876 677.906 390.574 C 678.606 391.272 679.605 391.495 680.754 391.495 L 699.883 391.495 C 701.032 391.495 702.034 391.272 702.73 390.574 C 703.428 389.876 703.622 388.904 703.622 387.756 L 703.622 368.512 C 703.622 367.365 703.428 366.392 702.73 365.693 C 702.033 364.995 701.031 364.773 699.883 364.773 L 680.754 364.773 L 680.754 364.773 Z M 680.754 366.613 L 699.883 366.613 C 700.812 366.613 701.215 366.795 701.407 366.988 C 701.599 367.181 701.781 367.584 701.781 368.512 L 701.781 387.756 C 701.781 388.685 701.599 389.087 701.407 389.28 C 701.215 389.473 700.811 389.655 699.883 389.655 L 680.754 389.655 C 679.826 389.655 679.421 389.473 679.229 389.28 C 679.037 389.087 678.855 388.684 678.855 387.756 L 678.855 368.512 C 678.855 367.584 679.037 367.181 679.229 366.988 C 679.422 366.795 679.826 366.613 680.754 366.613 Z" style="fill: rgb(30, 30, 30);" transform="matrix(0.965926, -0.258819, 0.258819, 0.965926, -74.346275, 191.552083)"/>
  <path id="path99" d="M 708.292 357.398 C 707.143 357.398 706.141 357.62 705.444 358.318 C 704.745 359.017 704.552 359.99 704.552 361.137 L 704.552 380.381 C 704.552 381.53 704.745 382.501 705.444 383.199 C 706.142 383.897 707.143 384.12 708.292 384.12 L 727.392 384.12 C 728.54 384.12 729.541 383.897 730.24 383.199 C 730.938 382.501 731.132 381.529 731.132 380.381 L 731.132 361.137 C 731.132 359.99 730.938 359.017 730.24 358.318 C 729.54 357.62 728.541 357.398 727.392 357.398 L 708.292 357.398 Z M 708.292 359.238 L 727.392 359.238 C 728.32 359.238 728.753 359.42 728.946 359.613 C 729.137 359.806 729.29 360.209 729.29 361.137 L 729.29 380.381 C 729.29 381.31 729.137 381.712 728.946 381.905 C 728.753 382.098 728.32 382.28 727.392 382.28 L 708.292 382.28 C 707.362 382.28 706.931 382.098 706.739 381.905 C 706.547 381.712 706.394 381.309 706.394 380.381 L 706.394 361.137 C 706.394 360.209 706.547 359.806 706.739 359.613 C 706.931 359.42 707.362 359.238 708.292 359.238 Z" style="fill: rgb(30, 30, 30);" transform="matrix(0.965926, -0.258819, 0.258819, 0.965926, -71.499613, 198.424478)"/>
  <path id="path101" d="M 735.801 350.023 C 734.652 350.023 733.65 350.245 732.953 350.943 C 732.253 351.642 732.061 352.615 732.061 353.762 L 732.061 373.006 C 732.061 374.155 732.253 375.126 732.953 375.824 C 733.651 376.522 734.653 376.745 735.801 376.745 L 754.93 376.745 C 756.077 376.745 757.049 376.522 757.747 375.824 C 758.446 375.126 758.667 374.154 758.667 373.006 L 758.667 353.762 C 758.667 352.615 758.445 351.642 757.747 350.943 C 757.049 350.245 756.076 350.023 754.93 350.023 L 735.801 350.023 Z M 735.801 351.863 L 754.93 351.863 C 755.857 351.863 756.262 352.045 756.453 352.238 C 756.644 352.431 756.826 352.834 756.826 353.762 L 756.826 373.006 C 756.826 373.935 756.644 374.337 756.453 374.53 C 756.26 374.723 755.857 374.905 754.93 374.905 L 735.801 374.905 C 734.871 374.905 734.469 374.723 734.276 374.53 C 734.084 374.337 733.902 373.934 733.902 373.006 L 733.902 353.762 C 733.902 352.834 734.084 352.431 734.276 352.238 C 734.469 352.045 734.871 351.863 735.801 351.863 Z" style="fill: rgb(30, 30, 30);" transform="matrix(0.965926, -0.258819, 0.258819, 0.965926, -68.653046, 205.296448)"/>
  <path id="path103" d="M 453.188 454.509 C 452.039 454.509 451.038 454.731 450.34 455.428 C 449.641 456.128 449.448 457.1 449.448 458.248 L 449.448 477.491 C 449.448 478.641 449.641 479.611 450.34 480.309 C 451.038 481.009 452.038 481.231 453.188 481.231 L 472.316 481.231 C 473.465 481.231 474.437 481.009 475.135 480.309 C 475.631 479.814 475.84 479.155 475.94 478.412 L 476.056 478.412 L 476.056 477.491 L 476.056 458.248 C 476.056 457.1 475.834 456.128 475.135 455.428 C 474.437 454.731 473.465 454.509 472.316 454.509 L 453.188 454.509 Z M 453.188 456.348 L 472.316 456.348 C 473.245 456.348 473.648 456.53 473.84 456.723 C 474.033 456.917 474.214 457.319 474.214 458.248 L 474.214 476.571 L 474.214 477.491 C 474.214 478.421 474.032 478.824 473.84 479.016 C 473.648 479.209 473.245 479.391 472.316 479.391 L 453.188 479.391 C 452.259 479.391 451.856 479.209 451.664 479.016 C 451.471 478.824 451.29 478.419 451.29 477.491 L 451.29 458.248 C 451.29 457.319 451.472 456.917 451.664 456.723 C 451.856 456.53 452.259 456.348 453.188 456.348 Z" style="fill: rgb(30, 30, 30);" transform="matrix(0.965926, -0.258819, 0.258819, 0.965926, -105.325815, 135.711388)"/>
  <path id="path105" d="M 389.663 466.45 C 388.515 466.45 387.543 466.672 386.845 467.369 C 386.146 468.069 385.924 469.041 385.924 470.189 L 385.924 489.432 C 385.924 490.582 386.146 491.552 386.845 492.25 C 387.543 492.95 388.516 493.172 389.663 493.172 L 446.706 493.172 C 447.854 493.172 448.855 492.95 449.553 492.25 C 450.251 491.552 450.445 490.581 450.445 489.432 L 450.445 470.189 C 450.445 469.041 450.251 468.069 449.553 467.369 C 448.854 466.672 447.854 466.45 446.706 466.45 L 389.663 466.45 Z M 389.663 468.289 L 446.706 468.289 C 447.634 468.289 448.067 468.471 448.259 468.664 C 448.451 468.858 448.603 469.26 448.603 470.189 L 448.603 489.432 C 448.603 490.362 448.45 490.765 448.259 490.957 C 448.066 491.15 447.634 491.332 446.706 491.332 L 389.663 491.332 C 388.736 491.332 388.332 491.15 388.139 490.957 C 387.947 490.765 387.766 490.36 387.766 489.432 L 387.766 470.189 C 387.766 469.26 387.947 468.858 388.139 468.664 C 388.332 468.471 388.736 468.286 389.664 468.286 L 389.663 468.289 Z" style="fill: rgb(30, 30, 30);" transform="matrix(0.965926, -0.258819, 0.258819, 0.965926, -109.934894, 124.583215)"/>
  <path id="path107" d="M 480.699 447.137 C 479.55 447.137 478.578 447.359 477.879 448.056 C 477.18 448.756 476.958 449.728 476.958 450.876 L 476.958 470.119 C 476.958 471.269 477.18 472.239 477.879 472.937 C 478.577 473.637 479.55 473.859 480.699 473.859 L 499.827 473.859 C 500.976 473.859 501.977 473.637 502.675 472.937 C 503.374 472.241 503.567 471.268 503.567 470.119 L 503.567 469.199 L 503.567 450.876 C 503.567 449.728 503.373 448.756 502.675 448.056 C 501.977 447.359 500.977 447.137 499.827 447.137 L 480.699 447.137 L 480.699 447.137 Z M 480.699 448.976 L 499.827 448.976 C 500.756 448.976 501.16 449.158 501.352 449.351 C 501.545 449.545 501.726 449.947 501.726 450.876 L 501.726 470.119 C 501.726 471.049 501.573 471.452 501.38 471.644 C 501.188 471.837 500.756 472.019 499.827 472.019 L 480.699 472.019 C 479.77 472.019 479.367 471.837 479.174 471.644 C 478.981 471.452 478.8 471.047 478.8 470.119 L 478.8 450.876 C 478.8 449.947 478.982 449.545 479.174 449.351 C 479.367 449.158 479.77 448.976 480.699 448.976 Z" style="fill: rgb(30, 30, 30);" transform="matrix(0.965926, -0.258819, 0.258819, 0.965926, -102.480394, 142.580435)"/>
  <path id="path109" d="M 508.235 439.759 C 507.086 439.759 506.085 439.981 505.387 440.678 C 504.689 441.378 504.495 442.35 504.495 443.498 L 504.495 462.741 C 504.495 463.891 504.689 464.861 505.387 465.559 C 506.086 466.259 507.086 466.481 508.235 466.481 L 527.363 466.481 C 528.512 466.481 529.484 466.259 530.183 465.559 C 530.881 464.863 531.104 463.89 531.104 462.741 L 531.104 443.498 C 531.104 442.35 530.881 441.378 530.183 440.678 C 529.485 439.981 528.512 439.759 527.363 439.759 L 508.235 439.759 Z M 508.235 441.598 L 527.363 441.598 C 528.292 441.598 528.695 441.78 528.888 441.973 C 529.081 442.167 529.262 442.569 529.262 443.498 L 529.262 462.741 C 529.262 463.671 529.08 464.074 528.888 464.266 C 528.696 464.459 528.292 464.641 527.363 464.641 L 508.235 464.641 C 507.306 464.641 506.873 464.459 506.682 464.266 C 506.489 464.074 506.337 463.669 506.337 462.741 L 506.337 443.498 C 506.337 442.569 506.49 442.167 506.682 441.973 C 506.873 441.78 507.306 441.598 508.235 441.598 Z" style="fill: rgb(30, 30, 30);" transform="matrix(0.965926, -0.258819, 0.258819, 0.965926, -99.632533, 149.456138)"/>
  <path id="path111" d="M 535.735 432.39 C 534.587 432.39 533.615 432.612 532.917 433.309 C 532.217 434.009 531.996 434.981 531.996 436.129 L 531.996 455.372 C 531.996 456.522 532.217 457.492 532.917 458.19 C 533.615 458.89 534.587 459.112 535.735 459.112 L 554.864 459.112 C 556.012 459.112 557.013 458.89 557.711 458.19 C 558.41 457.494 558.602 456.521 558.602 455.372 L 558.602 436.129 C 558.602 434.981 558.41 434.009 557.711 433.309 C 557.013 432.612 556.012 432.39 554.864 432.39 L 535.735 432.39 Z M 535.735 434.229 L 554.864 434.229 C 555.792 434.229 556.195 434.411 556.388 434.604 C 556.581 434.798 556.762 435.2 556.762 436.129 L 556.762 455.372 C 556.762 456.302 556.581 456.705 556.388 456.897 C 556.195 457.09 555.792 457.272 554.864 457.272 L 535.735 457.272 C 534.807 457.272 534.404 457.09 534.21 456.897 C 534.017 456.705 533.836 456.3 533.836 455.372 L 533.836 436.129 C 533.836 435.2 534.017 434.798 534.21 434.604 C 534.403 434.411 534.807 434.229 535.735 434.229 Z" style="fill: rgb(30, 30, 30);" transform="matrix(0.965926, -0.258819, 0.258819, 0.965926, -96.788202, 156.322275)"/>
  <path id="path113" d="M 563.271 425.016 C 562.123 425.016 561.122 425.238 560.424 425.935 C 559.726 426.635 559.532 427.607 559.532 428.755 L 559.532 447.998 C 559.532 449.148 559.726 450.118 560.424 450.816 C 561.122 451.516 562.123 451.738 563.271 451.738 L 582.372 451.738 C 583.52 451.738 584.521 451.516 585.22 450.816 C 585.918 450.118 586.111 449.147 586.111 447.998 L 586.111 428.755 C 586.111 427.607 585.918 426.635 585.22 425.935 C 584.52 425.238 583.52 425.016 582.372 425.016 L 563.271 425.016 Z M 563.271 426.855 L 582.372 426.855 C 583.3 426.855 583.732 427.037 583.925 427.23 C 584.118 427.424 584.27 427.826 584.27 428.755 L 584.27 447.998 C 584.27 448.928 584.117 449.331 583.925 449.523 C 583.732 449.716 583.3 449.898 582.372 449.898 L 563.271 449.898 C 562.343 449.898 561.911 449.716 561.718 449.523 C 561.526 449.331 561.374 448.926 561.374 447.998 L 561.374 428.755 C 561.374 427.826 561.527 427.424 561.718 427.23 C 561.911 427.037 562.344 426.855 563.271 426.855 Z" style="fill: rgb(30, 30, 30);" transform="matrix(0.965926, -0.258819, 0.258819, 0.965926, -93.941877, 163.1944)"/>
  <path id="path115" d="M 590.78 417.641 C 589.632 417.641 588.66 417.863 587.961 418.56 C 587.263 419.26 587.04 420.232 587.04 421.38 L 587.04 440.623 C 587.04 441.773 587.262 442.743 587.961 443.441 C 588.66 444.141 589.632 444.363 590.78 444.363 L 609.908 444.363 C 611.057 444.363 612.058 444.141 612.757 443.441 C 613.455 442.743 613.648 441.772 613.648 440.623 L 613.648 421.38 C 613.648 420.232 613.455 419.26 612.757 418.56 C 612.058 417.863 611.057 417.641 609.909 417.641 L 590.78 417.641 Z M 590.78 419.48 L 609.908 419.48 C 610.837 419.48 611.24 419.662 611.433 419.855 C 611.626 420.049 611.807 420.451 611.807 421.38 L 611.807 440.623 C 611.807 441.553 611.625 441.956 611.433 442.148 C 611.24 442.341 610.838 442.523 609.908 442.523 L 590.78 442.523 C 589.852 442.523 589.448 442.341 589.255 442.148 C 589.063 441.956 588.882 441.551 588.882 440.623 L 588.882 421.38 C 588.882 420.451 589.063 420.049 589.255 419.855 C 589.448 419.662 589.852 419.48 590.78 419.48 Z" style="fill: rgb(30, 30, 30);" transform="matrix(0.965926, -0.258819, 0.258819, 0.965926, -91.095342, 170.066592)"/>
  <path id="path117" d="M 618.318 410.266 C 617.169 410.266 616.167 410.488 615.469 411.185 C 614.771 411.885 614.578 412.857 614.578 414.005 L 614.578 433.248 C 614.578 434.398 614.771 435.368 615.469 436.066 C 616.167 436.766 617.169 436.988 618.318 436.988 L 637.417 436.988 C 638.567 436.988 639.568 436.766 640.266 436.066 C 640.964 435.37 641.158 434.397 641.158 433.248 L 641.158 414.005 C 641.158 412.857 640.964 411.885 640.266 411.185 C 639.568 410.488 638.567 410.266 637.417 410.266 L 618.318 410.266 Z M 618.318 412.105 L 637.417 412.105 C 638.346 412.105 638.779 412.287 638.971 412.48 C 639.164 412.674 639.315 413.076 639.315 414.005 L 639.315 433.248 C 639.315 434.178 639.162 434.581 638.971 434.773 C 638.779 434.966 638.346 435.148 637.417 435.148 L 618.318 435.148 C 617.388 435.148 616.956 434.966 616.763 434.773 C 616.572 434.581 616.419 434.176 616.419 433.248 L 616.419 414.005 C 616.419 413.076 616.573 412.674 616.763 412.48 C 616.956 412.287 617.388 412.105 618.318 412.105 Z" style="fill: rgb(30, 30, 30);" transform="matrix(0.965926, -0.258819, 0.258819, 0.965926, -88.24869, 176.93905)"/>
  <path id="path119" d="M 645.818 402.893 C 644.67 402.893 643.668 403.115 642.971 403.812 C 642.272 404.512 642.079 405.484 642.079 406.632 L 642.079 425.875 C 642.079 427.025 642.273 427.995 642.971 428.693 C 643.669 429.393 644.67 429.615 645.818 429.615 L 664.948 429.615 C 666.095 429.615 667.067 429.393 667.766 428.693 C 668.464 427.997 668.687 427.024 668.687 425.875 L 668.687 406.632 C 668.687 405.484 668.492 404.512 667.795 403.812 C 667.095 403.115 666.096 402.893 664.948 402.893 L 645.818 402.893 L 645.818 402.893 Z M 645.818 404.732 L 664.948 404.732 C 665.875 404.732 666.28 404.914 666.472 405.107 C 666.664 405.301 666.846 405.703 666.846 406.632 L 666.846 425.875 C 666.846 426.805 666.664 427.208 666.472 427.4 C 666.28 427.593 665.875 427.775 664.948 427.775 L 645.818 427.775 C 644.89 427.775 644.487 427.593 644.294 427.4 C 644.101 427.208 643.919 426.803 643.919 425.875 L 643.919 406.632 C 643.919 405.703 644.101 405.301 644.294 405.107 C 644.487 404.914 644.889 404.732 645.818 404.732 Z" style="fill: rgb(30, 30, 30);" transform="matrix(0.965926, -0.258819, 0.258819, 0.965926, -85.402853, 183.809188)"/>
  <path id="path121" d="M 673.354 395.519 C 672.206 395.519 671.204 395.741 670.506 396.438 C 669.808 397.138 669.615 398.11 669.615 399.258 L 669.615 418.501 C 669.615 419.651 669.808 420.621 670.506 421.319 C 671.205 422.019 672.207 422.241 673.354 422.241 L 692.455 422.241 C 693.604 422.241 694.605 422.019 695.302 421.319 C 696.001 420.623 696.194 419.65 696.194 418.501 L 696.194 399.258 C 696.194 398.11 696.001 397.138 695.302 396.438 C 694.604 395.741 693.603 395.519 692.455 395.519 L 673.354 395.519 Z M 673.354 397.358 L 692.455 397.358 C 693.384 397.358 693.815 397.54 694.008 397.733 C 694.2 397.927 694.353 398.329 694.353 399.258 L 694.353 418.501 C 694.353 419.431 694.2 419.834 694.008 420.026 C 693.816 420.219 693.384 420.401 692.455 420.401 L 673.354 420.401 C 672.425 420.401 671.995 420.219 671.801 420.026 C 671.608 419.834 671.456 419.429 671.456 418.501 L 671.456 399.258 C 671.456 398.329 671.608 397.927 671.801 397.733 C 671.995 397.54 672.425 397.358 673.354 397.358 Z" style="fill: rgb(30, 30, 30);" transform="matrix(0.965926, -0.258819, 0.258819, 0.965926, -82.556536, 190.680968)"/>
  <path id="path123" d="M 700.864 388.144 C 699.715 388.144 698.714 388.366 698.016 389.063 C 697.317 389.763 697.125 390.735 697.125 391.883 L 697.125 411.126 C 697.125 412.276 697.317 413.246 698.016 413.944 C 698.715 414.644 699.716 414.866 700.864 414.866 L 719.992 414.866 C 721.141 414.866 722.113 414.644 722.81 413.944 C 723.51 413.248 723.731 412.275 723.731 411.126 L 723.731 391.883 C 723.731 390.735 723.509 389.763 722.81 389.063 C 722.113 388.366 721.14 388.144 719.992 388.144 L 700.864 388.144 Z M 700.864 389.983 L 719.992 389.983 C 720.921 389.983 721.324 390.165 721.516 390.358 C 721.709 390.552 721.891 390.954 721.891 391.883 L 721.891 411.126 C 721.891 412.056 721.709 412.459 721.516 412.651 C 721.324 412.844 720.921 413.026 719.992 413.026 L 700.864 413.026 C 699.935 413.026 699.532 412.844 699.34 412.651 C 699.145 412.459 698.965 412.054 698.965 411.126 L 698.965 391.883 C 698.965 390.954 699.145 390.552 699.34 390.358 C 699.532 390.165 699.935 389.983 700.864 389.983 Z" style="fill: rgb(30, 30, 30);" transform="matrix(0.965926, -0.258819, 0.258819, 0.965926, -79.709905, 197.553279)"/>
  <path id="path125" d="M 728.374 380.773 C 727.225 380.773 726.253 380.995 725.555 381.692 C 724.856 382.392 724.635 383.364 724.635 384.512 L 724.635 403.755 C 724.635 404.905 724.856 405.875 725.555 406.573 C 726.253 407.273 727.226 407.495 728.374 407.495 L 747.502 407.495 C 748.65 407.495 749.652 407.273 750.349 406.573 C 751.049 405.877 751.24 404.904 751.24 403.755 L 751.24 384.512 C 751.24 383.364 751.049 382.392 750.349 381.692 C 749.651 380.995 748.649 380.773 747.502 380.773 L 728.374 380.773 Z M 728.374 382.612 L 747.502 382.612 C 748.43 382.612 748.862 382.794 749.055 382.987 C 749.248 383.181 749.4 383.583 749.4 384.512 L 749.4 403.755 C 749.4 404.685 749.248 405.088 749.055 405.28 C 748.863 405.473 748.43 405.655 747.502 405.655 L 728.374 405.655 C 727.445 405.655 727.042 405.473 726.849 405.28 C 726.657 405.088 726.475 404.683 726.475 403.755 L 726.475 384.512 C 726.475 383.583 726.657 383.181 726.849 382.987 C 727.042 382.794 727.445 382.612 728.374 382.612 Z" style="fill: rgb(30, 30, 30);" transform="matrix(0.965926, -0.258819, 0.258819, 0.965926, -76.864786, 204.422102)"/>
  <path id="path127" d="M 755.137 368.445 C 753.989 368.445 752.988 368.667 752.29 369.364 C 751.592 370.064 751.369 371.036 751.369 372.184 L 751.369 391.427 C 751.369 392.577 751.592 393.547 752.29 394.245 C 752.989 394.945 753.99 395.167 755.137 395.167 L 812.783 395.167 C 813.932 395.167 814.933 394.945 815.631 394.245 C 816.331 393.549 816.522 392.576 816.522 391.427 L 816.522 372.184 C 816.522 371.036 816.329 370.064 815.631 369.364 C 814.932 368.667 813.931 368.445 812.783 368.445 L 755.137 368.445 Z M 755.137 370.284 L 812.783 370.284 C 813.712 370.284 814.144 370.466 814.336 370.659 C 814.529 370.853 814.681 371.255 814.681 372.184 L 814.681 391.427 C 814.681 392.357 814.529 392.76 814.336 392.952 C 814.144 393.145 813.711 393.327 812.783 393.327 L 755.137 393.327 C 754.209 393.327 753.778 393.145 753.584 392.952 C 753.392 392.76 753.209 392.355 753.209 391.427 L 753.209 372.184 C 753.209 371.255 753.392 370.853 753.584 370.659 C 753.778 370.466 754.209 370.284 755.137 370.284 Z" style="fill: rgb(30, 30, 30);" transform="matrix(0.965926, -0.258819, 0.258819, 0.965926, -72.106376, 215.909781)"/>
  <path id="path129" d="M 735.458 407.224 C 734.308 407.224 733.336 407.418 732.638 408.116 C 731.94 408.814 731.719 409.814 731.719 410.963 L 731.719 430.179 C 731.719 431.327 731.94 432.327 732.638 433.025 C 733.336 433.725 734.31 433.918 735.458 433.918 L 754.586 433.918 C 755.734 433.918 756.735 433.725 757.432 433.025 C 758.133 432.327 758.323 431.327 758.323 430.179 L 758.323 410.963 C 758.323 409.814 758.133 408.814 757.432 408.116 C 756.734 407.418 755.732 407.224 754.586 407.224 L 735.458 407.224 Z M 735.458 409.066 L 754.586 409.066 C 755.513 409.066 755.945 409.248 756.138 409.439 C 756.331 409.632 756.484 410.036 756.484 410.963 L 756.484 430.179 C 756.484 431.109 756.331 431.541 756.138 431.733 C 755.946 431.926 755.513 432.077 754.586 432.077 L 735.458 432.077 C 734.529 432.077 734.125 431.926 733.932 431.733 C 733.74 431.541 733.558 431.106 733.558 430.179 L 733.558 410.963 C 733.558 410.034 733.74 409.632 733.932 409.439 C 734.125 409.247 734.529 409.066 735.458 409.066 Z" style="fill: rgb(30, 30, 30);" transform="matrix(0.965926, -0.258819, 0.258819, 0.965926, -83.465816, 207.156267)"/>
  <path id="path131" d="M 481.785 444.253 C 480.636 444.253 479.635 444.447 478.937 445.145 C 478.239 445.843 478.045 446.843 478.045 447.992 L 478.045 467.208 C 478.045 468.356 478.239 469.356 478.937 470.054 C 479.635 470.752 480.636 470.947 481.785 470.947 L 731.872 470.947 C 733.021 470.947 734.022 470.754 734.719 470.054 C 735.418 469.356 735.611 468.356 735.611 467.208 L 735.611 447.992 C 735.611 446.843 735.418 445.843 734.719 445.145 C 734.021 444.447 733.02 444.253 731.872 444.253 L 481.785 444.253 Z M 481.785 446.095 L 731.872 446.095 C 732.801 446.095 733.232 446.277 733.425 446.468 C 733.616 446.661 733.769 447.065 733.769 447.992 L 733.769 467.208 C 733.769 468.138 733.616 468.57 733.425 468.762 C 733.232 468.955 732.8 469.106 731.872 469.106 L 481.785 469.106 C 480.856 469.106 480.453 468.955 480.26 468.762 C 480.067 468.57 479.886 468.135 479.886 467.208 L 479.886 447.992 C 479.886 447.063 480.068 446.661 480.26 446.468 C 480.452 446.276 480.856 446.095 481.785 446.095 Z" style="fill: rgb(30, 30, 30);" transform="matrix(0.965926, -0.258819, 0.258819, 0.965926, -97.758385, 172.65088)"/>
  <path id="path133" d="M 369.714 389.71 C 368.565 389.71 367.564 389.933 366.866 390.632 C 366.168 391.33 365.974 392.302 365.974 393.451 L 365.974 412.694 C 365.974 413.843 366.168 414.815 366.866 415.513 C 367.564 416.212 368.565 416.434 369.714 416.434 L 388.842 416.434 C 389.992 416.434 390.992 416.213 391.69 415.513 C 392.389 414.814 392.582 413.843 392.582 412.694 L 392.582 393.451 C 392.582 392.302 392.388 391.33 391.69 390.632 C 390.992 389.933 389.992 389.71 388.842 389.71 L 369.714 389.71 Z M 369.714 391.551 L 388.842 391.551 C 389.771 391.551 390.175 391.733 390.367 391.926 C 390.56 392.119 390.741 392.522 390.741 393.451 L 390.741 412.694 C 390.741 413.623 390.559 414.026 390.367 414.22 C 390.175 414.413 389.772 414.593 388.843 414.593 L 369.715 414.593 C 368.786 414.593 368.382 414.412 368.19 414.22 C 367.997 414.026 367.816 413.624 367.816 412.694 L 367.816 393.451 C 367.816 392.523 367.998 392.119 368.19 391.926 C 368.382 391.733 368.786 391.552 369.714 391.551 L 369.714 391.551 Z" style="fill: rgb(30, 30, 30);" transform="matrix(0.965926, -0.258819, 0.258819, 0.965926, -91.399125, 111.898723)"/>
  <path id="path135" d="M 840.844 321.19 C 839.696 321.19 838.693 321.383 837.996 322.081 C 837.299 322.779 837.104 323.78 837.104 324.93 L 837.104 344.144 C 837.104 345.292 837.299 346.293 837.996 346.993 C 838.694 347.69 839.695 347.885 840.844 347.885 L 859.973 347.885 C 861.121 347.885 862.092 347.69 862.792 346.993 C 863.49 346.292 863.712 345.292 863.712 344.144 L 863.712 324.93 C 863.712 323.78 863.49 322.779 862.792 322.081 C 862.092 321.383 861.122 321.19 859.973 321.19 L 840.844 321.19 Z M 840.844 323.03 L 859.973 323.03 C 860.901 323.03 861.306 323.183 861.497 323.376 C 861.69 323.568 861.872 324.001 861.872 324.929 L 861.872 344.144 C 861.872 345.071 861.69 345.503 861.497 345.696 C 861.306 345.889 860.901 346.041 859.973 346.041 L 840.844 346.041 C 839.916 346.041 839.511 345.889 839.32 345.696 C 839.127 345.503 838.945 345.071 838.945 344.144 L 838.945 324.929 C 838.945 323.998 839.127 323.568 839.32 323.376 C 839.511 323.183 839.916 323.03 840.844 323.03 Z" style="fill: rgb(30, 30, 30);" transform="matrix(0.965926, -0.258819, 0.258819, 0.965926, -57.607733, 231.500908)"/>
  <path id="path137" d="M 848.184 348.582 C 847.036 348.582 846.033 348.776 845.336 349.474 C 844.639 350.174 844.444 351.173 844.444 352.322 L 844.444 371.537 C 844.444 372.687 844.639 373.687 845.336 374.385 C 846.034 375.083 847.035 375.276 848.184 375.276 L 867.313 375.276 C 868.461 375.276 869.432 375.083 870.132 374.385 C 870.83 373.687 871.052 372.686 871.052 371.537 L 871.052 352.322 C 871.052 351.174 870.83 350.173 870.132 349.474 C 869.432 348.776 868.462 348.582 867.313 348.582 L 848.184 348.582 Z M 848.184 350.424 L 867.313 350.424 C 868.241 350.424 868.646 350.576 868.837 350.768 C 869.03 350.961 869.212 351.393 869.212 352.322 L 869.212 371.537 C 869.212 372.466 869.03 372.898 868.837 373.091 C 868.646 373.281 868.241 373.435 867.313 373.435 L 848.184 373.435 C 847.256 373.435 846.851 373.281 846.66 373.091 C 846.467 372.898 846.285 372.465 846.285 371.537 L 846.285 352.322 C 846.285 351.393 846.467 350.961 846.66 350.768 C 846.851 350.576 847.256 350.424 848.184 350.424 Z" style="fill: rgb(30, 30, 30);" transform="matrix(0.965926, -0.258819, 0.258819, 0.965926, -64.447066, 234.333924)"/>
  <path id="path139" d="M 855.525 375.978 C 854.377 375.978 853.374 376.169 852.677 376.87 C 851.979 377.567 851.785 378.568 851.785 379.716 L 851.785 398.932 C 851.785 400.08 851.979 401.081 852.677 401.779 C 853.375 402.477 854.376 402.672 855.525 402.672 L 874.654 402.672 C 875.802 402.672 876.773 402.477 877.473 401.779 C 878.171 401.08 878.393 400.08 878.393 398.932 L 878.393 379.716 C 878.393 378.567 878.171 377.565 877.473 376.87 C 876.773 376.169 875.803 375.978 874.654 375.978 L 855.525 375.978 Z M 855.525 377.82 L 874.654 377.82 C 875.582 377.82 875.987 377.971 876.178 378.164 C 876.371 378.356 876.553 378.788 876.553 379.718 L 876.553 398.932 C 876.553 399.861 876.371 400.294 876.178 400.486 C 875.987 400.68 875.582 400.831 874.654 400.831 L 855.525 400.831 C 854.596 400.831 854.192 400.68 854.001 400.486 C 853.807 400.294 853.626 399.861 853.626 398.932 L 853.626 379.718 C 853.626 378.788 853.807 378.357 854.001 378.164 C 854.192 377.971 854.596 377.82 855.525 377.82 Z" style="fill: rgb(30, 30, 30);" transform="matrix(0.965926, -0.258819, 0.258819, 0.965926, -71.287543, 237.167469)"/>
  <path id="path141" d="M 860.986 286.429 C 859.836 286.429 858.835 286.623 858.138 287.32 C 857.439 288.02 857.246 289.021 857.246 290.169 L 857.246 309.385 C 857.246 310.533 857.439 311.535 858.138 312.232 C 858.836 312.929 859.837 313.123 860.986 313.123 L 880.086 313.123 C 881.235 313.123 882.235 312.929 882.934 312.232 C 883.632 311.534 883.826 310.533 883.826 309.385 L 883.826 290.169 C 883.826 289.021 883.632 288.02 882.934 287.32 C 882.234 286.623 881.235 286.429 880.086 286.429 L 860.986 286.429 Z M 860.986 288.271 L 880.086 288.271 C 881.015 288.271 881.448 288.424 881.639 288.616 C 881.832 288.807 881.984 289.241 881.984 290.169 L 881.984 309.385 C 881.984 310.312 881.832 310.745 881.639 310.937 C 881.446 311.13 881.014 311.281 880.086 311.281 L 860.986 311.281 C 860.056 311.281 859.625 311.13 859.433 310.937 C 859.241 310.745 859.088 310.312 859.088 309.385 L 859.088 290.169 C 859.088 289.241 859.241 288.807 859.433 288.616 C 859.624 288.424 860.058 288.271 860.986 288.271 Z" style="fill: rgb(30, 30, 30);" transform="matrix(0.965926, -0.258819, 0.258819, 0.965926, -47.924938, 235.525833)"/>
  <path id="path143" d="M 868.408 313.808 C 867.259 313.808 866.258 314.001 865.56 314.699 C 864.86 315.397 864.669 316.398 864.669 317.548 L 864.669 336.762 C 864.669 337.91 864.86 338.911 865.56 339.611 C 866.258 340.308 867.26 340.503 868.408 340.503 L 887.509 340.503 C 888.656 340.503 889.657 340.308 890.356 339.611 C 891.053 338.91 891.248 337.91 891.248 336.762 L 891.248 317.548 C 891.248 316.398 891.053 315.397 890.356 314.699 C 889.656 314.001 888.657 313.808 887.509 313.808 L 868.408 313.808 Z M 868.408 315.648 L 887.509 315.648 C 888.436 315.648 888.869 315.801 889.062 315.994 C 889.253 316.186 889.406 316.619 889.406 317.547 L 889.406 336.762 C 889.406 337.689 889.253 338.121 889.062 338.314 C 888.869 338.507 888.436 338.659 887.509 338.659 L 868.408 338.659 C 867.478 338.659 867.047 338.507 866.855 338.314 C 866.662 338.121 866.51 337.689 866.51 336.762 L 866.51 317.547 C 866.51 316.616 866.662 316.186 866.855 315.994 C 867.046 315.801 867.478 315.648 868.408 315.648 Z" style="fill: rgb(30, 30, 30);" transform="matrix(0.965926, -0.258819, 0.258819, 0.965926, -54.758366, 238.379913)"/>
  <path id="path145" d="M 875.748 341.2 C 874.599 341.2 873.598 341.394 872.9 342.092 C 872.2 342.792 872.009 343.791 872.009 344.94 L 872.009 364.155 C 872.009 365.305 872.2 366.305 872.9 367.003 C 873.598 367.701 874.6 367.894 875.748 367.894 L 894.849 367.894 C 895.996 367.894 896.997 367.701 897.696 367.003 C 898.393 366.305 898.588 365.304 898.588 364.155 L 898.588 344.94 C 898.588 343.792 898.393 342.791 897.696 342.092 C 896.996 341.394 895.997 341.2 894.849 341.2 L 875.748 341.2 Z M 875.748 343.042 L 894.849 343.042 C 895.776 343.042 896.209 343.194 896.402 343.386 C 896.593 343.579 896.746 344.011 896.746 344.94 L 896.746 364.155 C 896.746 365.084 896.593 365.516 896.402 365.709 C 896.209 365.899 895.776 366.053 894.849 366.053 L 875.748 366.053 C 874.818 366.053 874.387 365.899 874.195 365.709 C 874.002 365.516 873.85 365.083 873.85 364.155 L 873.85 344.94 C 873.85 344.011 874.002 343.579 874.195 343.386 C 874.386 343.194 874.818 343.042 875.748 343.042 Z" style="fill: rgb(30, 30, 30);" transform="matrix(0.965926, -0.258819, 0.258819, 0.965926, -61.597697, 241.212976)"/>
  <path id="path147" d="M 883.089 368.596 C 881.94 368.596 880.939 368.787 880.241 369.488 C 879.541 370.185 879.35 371.186 879.35 372.334 L 879.35 391.55 C 879.35 392.698 879.541 393.699 880.241 394.397 C 880.939 395.095 881.941 395.29 883.089 395.29 L 902.19 395.29 C 903.337 395.29 904.338 395.095 905.037 394.397 C 905.734 393.698 905.929 392.698 905.929 391.55 L 905.929 372.334 C 905.929 371.185 905.734 370.183 905.037 369.488 C 904.337 368.787 903.338 368.596 902.19 368.596 L 883.089 368.596 Z M 883.089 370.438 L 902.19 370.438 C 903.117 370.438 903.55 370.589 903.743 370.782 C 903.934 370.974 904.087 371.406 904.087 372.336 L 904.087 391.55 C 904.087 392.479 903.934 392.912 903.743 393.104 C 903.55 393.298 903.117 393.449 902.19 393.449 L 883.089 393.449 C 882.159 393.449 881.728 393.298 881.536 393.104 C 881.343 392.912 881.191 392.479 881.191 391.55 L 881.191 372.336 C 881.191 371.406 881.343 370.975 881.536 370.782 C 881.727 370.589 882.159 370.438 883.089 370.438 Z" style="fill: rgb(30, 30, 30);" transform="matrix(0.965926, -0.258819, 0.258819, 0.965926, -68.438163, 244.046471)"/>
  <path id="path149" d="M 888.459 279.071 C 887.312 279.071 886.31 279.265 885.611 279.962 C 884.913 280.662 884.692 281.663 884.692 282.811 L 884.692 302.027 C 884.692 303.175 884.913 304.177 885.611 304.874 C 886.311 305.571 887.311 305.765 888.459 305.765 L 907.56 305.765 C 908.709 305.765 909.71 305.571 910.407 304.874 C 911.107 304.176 911.299 303.175 911.299 302.027 L 911.299 282.811 C 911.299 281.663 911.107 280.662 910.407 279.962 C 909.709 279.265 908.708 279.071 907.56 279.071 L 888.459 279.071 Z M 888.459 280.913 L 907.56 280.913 C 908.489 280.913 908.921 281.066 909.113 281.258 C 909.304 281.449 909.457 281.883 909.457 282.811 L 909.457 302.027 C 909.457 302.954 909.304 303.387 909.113 303.579 C 908.921 303.772 908.488 303.923 907.56 303.923 L 888.459 303.923 C 887.529 303.923 887.099 303.772 886.906 303.579 C 886.714 303.387 886.532 302.954 886.532 302.027 L 886.532 282.811 C 886.532 281.883 886.714 281.449 886.906 281.258 C 887.098 281.066 887.531 280.913 888.459 280.913 Z" style="fill: rgb(30, 30, 30);" transform="matrix(0.965926, -0.258819, 0.258819, 0.965926, -45.084901, 242.38221)"/>
  <path id="path151" d="M 895.801 306.471 C 894.652 306.471 893.652 306.664 892.953 307.362 C 892.255 308.06 892.034 309.061 892.034 310.211 L 892.034 329.425 C 892.034 330.573 892.255 331.574 892.953 332.274 C 893.654 332.971 894.654 333.166 895.801 333.166 L 914.902 333.166 C 916.051 333.166 917.052 332.971 917.749 332.274 C 918.449 331.573 918.641 330.573 918.641 329.425 L 918.641 310.211 C 918.641 309.061 918.449 308.06 917.749 307.362 C 917.051 306.664 916.05 306.471 914.902 306.471 L 895.801 306.471 Z M 895.801 308.311 L 914.902 308.311 C 915.831 308.311 916.263 308.464 916.456 308.657 C 916.646 308.849 916.799 309.282 916.799 310.21 L 916.799 329.425 C 916.799 330.352 916.646 330.784 916.456 330.977 C 916.263 331.17 915.831 331.322 914.902 331.322 L 895.801 331.322 C 894.871 331.322 894.441 331.17 894.248 330.977 C 894.056 330.784 893.874 330.352 893.874 329.425 L 893.874 310.21 C 893.874 309.279 894.056 308.849 894.248 308.657 C 894.441 308.464 894.873 308.311 895.801 308.311 Z" style="fill: rgb(30, 30, 30);" transform="matrix(0.965926, -0.258819, 0.258819, 0.965926, -51.926483, 245.216119)"/>
  <path id="path153" d="M 903.141 333.864 C 901.994 333.864 900.992 334.058 900.293 334.756 C 899.595 335.456 899.374 336.455 899.374 337.604 L 899.374 356.819 C 899.374 357.969 899.595 358.969 900.293 359.667 C 900.993 360.365 901.993 360.558 903.141 360.558 L 922.242 360.558 C 923.391 360.558 924.392 360.365 925.089 359.667 C 925.789 358.969 925.981 357.968 925.981 356.819 L 925.981 337.604 C 925.981 336.456 925.789 335.455 925.089 334.756 C 924.391 334.058 923.39 333.864 922.242 333.864 L 903.141 333.864 Z M 903.141 335.706 L 922.242 335.706 C 923.171 335.706 923.603 335.858 923.795 336.05 C 923.986 336.243 924.139 336.675 924.139 337.604 L 924.139 356.819 C 924.139 357.748 923.986 358.18 923.795 358.373 C 923.603 358.563 923.17 358.717 922.242 358.717 L 903.141 358.717 C 902.211 358.717 901.781 358.563 901.588 358.373 C 901.396 358.18 901.214 357.747 901.214 356.819 L 901.214 337.604 C 901.214 336.675 901.396 336.243 901.588 336.05 C 901.78 335.858 902.213 335.706 903.141 335.706 Z" style="fill: rgb(30, 30, 30);" transform="matrix(0.965926, -0.258819, 0.258819, 0.965926, -58.766084, 248.049217)"/>
  <path id="path155" d="M 910.482 361.26 C 909.335 361.26 908.333 361.451 907.634 362.152 C 906.936 362.849 906.715 363.85 906.715 364.998 L 906.715 384.214 C 906.715 385.362 906.936 386.363 907.634 387.061 C 908.334 387.759 909.334 387.954 910.482 387.954 L 929.583 387.954 C 930.732 387.954 931.733 387.759 932.43 387.061 C 933.13 386.362 933.322 385.362 933.322 384.214 L 933.322 364.998 C 933.322 363.849 933.13 362.847 932.43 362.152 C 931.732 361.451 930.731 361.26 929.583 361.26 L 910.482 361.26 Z M 910.482 363.102 L 929.583 363.102 C 930.512 363.102 930.944 363.253 931.136 363.446 C 931.327 363.638 931.48 364.07 931.48 365 L 931.48 384.214 C 931.48 385.143 931.327 385.576 931.136 385.768 C 930.944 385.962 930.511 386.113 929.583 386.113 L 910.482 386.113 C 909.552 386.113 909.122 385.962 908.929 385.768 C 908.737 385.576 908.555 385.143 908.555 384.214 L 908.555 365 C 908.555 364.07 908.737 363.639 908.929 363.446 C 909.121 363.253 909.554 363.102 910.482 363.102 Z" style="fill: rgb(30, 30, 30);" transform="matrix(0.965926, -0.258819, 0.258819, 0.965926, -65.606548, 250.882726)"/>
  <path id="path157" d="M 871.589 218.311 C 870.439 218.311 869.438 218.504 868.741 219.202 C 868.042 219.9 867.849 220.901 867.849 222.051 L 867.849 241.264 C 867.849 242.413 868.042 243.414 868.741 244.113 C 869.439 244.811 870.44 245.004 871.589 245.004 L 890.689 245.004 C 891.837 245.004 892.839 244.811 893.537 244.113 C 894.235 243.414 894.429 242.414 894.429 241.264 L 894.429 222.051 C 894.429 220.901 894.235 219.9 893.537 219.202 C 892.838 218.504 891.838 218.311 890.689 218.311 L 871.589 218.311 L 871.589 218.311 Z M 871.589 220.151 L 890.689 220.151 C 891.617 220.151 892.051 220.332 892.242 220.525 C 892.435 220.718 892.587 221.121 892.587 222.051 L 892.587 241.264 C 892.587 242.194 892.435 242.626 892.242 242.818 C 892.051 243.011 891.617 243.163 890.689 243.163 L 871.589 243.163 C 870.659 243.163 870.228 243.009 870.036 242.818 C 869.844 242.626 869.691 242.194 869.691 241.264 L 869.691 222.051 C 869.691 221.121 869.844 220.718 870.036 220.525 C 870.227 220.332 870.659 220.151 871.589 220.151 Z" style="fill: rgb(30, 30, 30);" transform="matrix(0.965926, -0.258819, 0.258819, 0.965926, -29.933288, 235.949082)"/>
  <path id="path159" d="M 373.872 330.879 C 372.723 330.879 371.723 331.1 371.025 331.799 C 370.326 332.497 370.133 333.471 370.133 334.618 L 370.133 443.493 C 370.133 444.643 370.327 445.615 371.025 446.313 C 371.723 447.012 372.724 447.234 373.872 447.234 L 460.974 447.234 C 461.428 447.234 461.606 447.314 461.578 447.29 C 461.549 447.268 461.635 447.299 461.635 447.867 L 461.635 471.885 C 461.635 473.036 461.829 474.036 462.527 474.734 C 463.226 475.432 464.226 475.625 465.375 475.625 L 748.995 475.625 C 750.144 475.625 751.145 475.432 751.843 474.734 C 752.542 474.034 752.734 473.034 752.734 471.885 L 752.734 448.127 C 752.734 447.656 752.831 447.5 752.936 447.408 C 753.039 447.315 753.263 447.234 753.712 447.234 L 815.127 447.234 C 816.277 447.234 817.249 447.013 817.946 446.315 C 818.644 445.616 818.867 444.643 818.867 443.495 L 818.867 334.62 C 818.867 333.471 818.644 332.499 817.946 331.801 C 817.249 331.102 816.276 330.88 815.127 330.88 L 373.864 330.88 L 373.872 330.879 Z M 373.872 332.721 L 815.136 332.721 C 816.065 332.721 816.469 332.901 816.661 333.095 C 816.853 333.286 817.035 333.69 817.035 334.618 L 817.035 443.493 C 817.035 444.422 816.853 444.827 816.661 445.018 C 816.469 445.21 816.067 445.392 815.136 445.392 L 753.722 445.392 C 752.999 445.392 752.296 445.533 751.736 446.025 C 751.179 446.518 750.902 447.302 750.902 448.125 L 750.902 471.883 C 750.902 472.813 750.72 473.245 750.529 473.437 C 750.336 473.63 749.933 473.781 749.004 473.781 L 465.383 473.781 C 464.455 473.781 464.023 473.628 463.83 473.437 C 463.639 473.245 463.486 472.812 463.486 471.883 L 463.486 447.865 C 463.486 447.049 463.3 446.312 462.738 445.851 C 462.177 445.39 461.548 445.391 460.984 445.391 L 373.881 445.391 C 372.953 445.391 372.52 445.208 372.328 445.016 C 372.136 444.825 371.983 444.421 371.983 443.492 L 371.983 334.617 C 371.983 333.689 372.136 333.286 372.328 333.094 C 372.521 332.901 372.953 332.72 373.881 332.72 L 373.872 332.721 Z" style="fill: rgb(30, 30, 30);" transform="matrix(0.965926, -0.258819, 0.258819, 0.965926, -84.112207, 167.608407)"/>
</svg>