<?xml version="1.0" encoding="utf-8"?>
<svg version="1.1" id="Ebene_1" x="0px" y="0px" enable-background="new 0 0 566.929 226.773" xmlns="http://www.w3.org/2000/svg">
  <path d="M 0 0 L 0 5.474 L 38.93 5.474 L 38.93 0 L 0 0 Z M 44.445 0 L 44.445 5.474 L 99.922 5.474 C 99.922 5.474 94.255 0 86.75 0 L 44.445 0 Z M 110.804 0 L 110.804 5.474 L 144.367 5.474 L 142.375 0 L 110.804 0 Z M 168.43 0 L 166.438 5.474 L 199.696 5.474 L 199.696 0 L 168.43 0 Z M 0 10.644 L 0 16.118 L 38.93 16.118 L 38.93 10.644 L 0 10.644 Z M 44.445 10.652 L 44.445 16.118 L 106.36 16.118 C 106.36 16.118 105.636 11.905 104.375 10.652 L 44.445 10.652 Z M 110.804 10.652 L 110.804 16.118 L 148.047 16.118 L 146.202 10.652 L 110.804 10.652 Z M 164.445 10.652 L 162.601 16.118 L 199.695 16.118 L 199.695 10.652 L 164.445 10.652 Z M 11.187 21.289 L 11.187 26.769 L 28.047 26.769 L 28.047 21.289 L 11.187 21.289 Z M 55.633 21.289 L 55.633 26.769 L 72.492 26.769 L 72.492 21.289 L 55.633 21.289 Z M 88.891 21.289 L 88.891 26.769 L 105.75 26.769 C 105.75 26.769 106.82 23.875 106.82 21.289 L 88.891 21.289 Z M 121.992 21.289 L 121.992 26.769 L 151.883 26.769 L 149.89 21.289 L 121.992 21.289 Z M 160.774 21.289 L 158.773 26.769 L 188.812 26.769 L 188.812 21.289 L 160.774 21.289 Z M 11.187 31.941 L 11.187 37.415 L 28.047 37.415 L 28.047 31.941 L 11.187 31.941 Z M 55.633 31.941 L 55.633 37.415 L 98.695 37.415 C 98.695 37.415 102.297 34.607 103.445 31.941 L 55.633 31.941 Z M 121.992 31.941 L 121.992 37.415 L 138.852 37.415 L 138.852 34.368 L 139.922 37.415 L 170.805 37.415 L 171.953 34.368 L 171.953 37.415 L 188.812 37.415 L 188.812 31.941 L 157.164 31.941 L 155.484 36.578 L 153.797 31.941 L 121.992 31.941 Z M 11.187 42.586 L 11.187 48.06 L 28.047 48.06 L 28.047 42.586 L 11.187 42.586 Z M 55.633 42.586 L 55.633 48.06 L 103.446 48.06 C 102.297 45.404 98.696 42.586 98.696 42.586 L 55.633 42.586 Z M 121.992 42.586 L 121.992 48.06 L 138.852 48.06 L 138.852 42.586 L 121.992 42.586 Z M 141.914 42.586 L 143.953 48.06 L 167.11 48.06 L 169.047 42.586 L 141.914 42.586 Z M 171.953 42.586 L 171.953 48.06 L 188.812 48.06 L 188.812 42.586 L 171.953 42.586 Z M 11.187 53.23 L 11.187 58.703 L 28.047 58.703 L 28.047 53.23 L 11.187 53.23 Z M 55.633 53.23 L 55.633 58.703 L 72.492 58.703 L 72.492 53.23 L 55.633 53.23 Z M 88.891 53.23 L 88.891 58.703 L 106.82 58.703 C 106.82 56.12 105.75 53.23 105.75 53.23 L 88.891 53.23 Z M 121.992 53.23 L 121.992 58.703 L 138.852 58.703 L 138.852 53.23 L 121.992 53.23 Z M 145.742 53.23 L 147.719 58.703 L 163.243 58.703 L 165.234 53.23 L 145.742 53.23 Z M 171.953 53.23 L 171.953 58.703 L 188.812 58.703 L 188.812 53.23 L 171.953 53.23 Z M 0.304 63.875 L 0.304 69.356 L 39.235 69.356 L 39.235 63.875 L 0.304 63.875 Z M 44.445 63.875 L 44.445 69.356 L 104.375 69.356 C 105.636 68.1 106.36 63.875 106.36 63.875 L 44.445 63.875 Z M 111.11 63.875 L 111.11 69.356 L 138.853 69.356 L 138.853 63.875 L 111.11 63.875 Z M 149.578 63.875 L 151.609 69.356 L 159.508 69.356 L 161.414 63.875 L 149.578 63.875 Z M 171.953 63.875 L 171.953 69.356 L 200 69.356 L 200 63.875 L 171.953 63.875 Z M 0.304 74.527 L 0.304 80.001 L 39.235 80.001 L 39.235 74.527 L 0.304 74.527 Z M 44.445 74.527 L 44.445 79.992 L 86.75 79.992 C 94.255 79.992 99.922 74.527 99.922 74.527 L 44.445 74.527 Z M 111.11 74.527 L 111.11 80.001 L 138.853 80.001 L 138.853 74.527 L 111.11 74.527 Z M 153.43 74.527 L 155.382 79.986 L 155.719 79.993 L 157.703 74.528 L 153.43 74.527 L 153.43 74.527 Z M 171.953 74.527 L 171.953 80.001 L 200 80.001 L 200 74.527 L 171.953 74.527 Z" id="path3" style="fill-opacity: 1; fill: rgb(255, 255, 255);"/>
</svg>