<?xml version="1.0" encoding="utf-8"?>
<svg xmlns="http://www.w3.org/2000/svg">
  <path id="path3" d="M 275.469 59.468 C 271.361 59.468 260.221 60.223 256.161 60.566 C 254.086 60.742 252.398 61.215 251.228 62.5 C 250.058 63.786 249.497 65.771 249.393 68.81 C 249.287 71.873 249.128 96.4 249 121.573 C 248.871 146.743 248.77 172.49 248.77 177.771 C 248.77 183.062 248.983 206.815 249.244 229.99 C 249.376 241.578 249.521 253.017 249.654 261.917 C 249.787 270.819 249.902 277.145 249.998 278.652 C 250.275 283.019 251.115 286.223 252.572 288.634 C 254.029 291.044 256.108 292.631 258.717 293.714 C 263.935 295.884 271.291 296.192 280.992 297.764 C 300.484 300.92 310.462 300.517 313.15 300.517 L 326.852 300.517 C 329.54 300.517 339.5 300.92 358.991 297.764 C 368.691 296.192 376.066 295.884 381.281 293.714 C 383.891 292.631 385.954 291.044 387.413 288.634 C 388.87 286.223 389.708 283.019 389.985 278.652 C 390.08 277.145 390.197 270.819 390.33 261.917 C 390.462 253.017 390.609 241.577 390.739 229.99 C 391.002 206.814 391.231 183.062 391.231 177.771 C 391.231 172.489 391.115 146.741 390.986 121.568 C 390.849 96.401 390.707 71.873 390.601 68.81 C 390.498 65.771 389.92 63.786 388.751 62.499 C 387.576 61.214 385.892 60.742 383.815 60.566 C 379.755 60.222 368.632 59.467 364.524 59.467 L 322.451 59.467 L 317.515 59.467 L 275.46 59.467 L 275.469 59.467 Z M 275.469 60.516 L 317.526 60.516 L 322.459 60.516 L 364.532 60.516 C 368.51 60.516 379.715 61.273 383.741 61.615 C 385.708 61.782 387.066 62.195 387.986 63.204 C 388.905 64.214 389.458 65.921 389.559 68.843 C 389.659 71.741 389.808 96.417 389.936 121.585 C 390.065 146.754 390.182 172.5 390.182 177.767 C 390.182 183.029 389.953 206.813 389.691 229.986 C 389.559 241.573 389.414 252.998 389.281 261.898 C 389.148 270.797 389.023 277.211 388.937 278.583 C 388.666 282.847 387.845 285.879 386.51 288.088 C 385.175 290.298 383.334 291.72 380.873 292.744 C 375.95 294.788 368.586 295.145 358.829 296.726 C 339.405 299.872 329.645 299.464 326.85 299.464 L 313.148 299.463 C 310.355 299.463 300.595 299.872 281.172 296.726 L 281.09 296.71 C 271.378 295.142 264.033 294.783 259.126 292.744 C 256.665 291.721 254.807 290.298 253.471 288.089 C 252.136 285.879 251.317 282.847 251.046 278.583 C 250.964 277.213 250.84 270.8 250.707 261.9 C 250.574 252.999 250.429 241.576 250.298 229.985 C 250.036 206.812 249.822 183.028 249.822 177.767 C 249.822 172.5 249.924 146.754 250.052 121.584 C 250.181 96.414 250.345 71.739 250.446 68.843 C 250.546 65.921 251.1 64.214 252.019 63.204 C 252.939 62.195 254.297 61.782 256.264 61.615 C 260.29 61.274 271.496 60.517 275.473 60.517 L 275.469 60.516 Z" style="fill: rgb(30, 30, 30);" transform="matrix(0.965926, -0.258819, 0.258819, 0.965926, -35.683772, 88.955607)"/>
  <path id="path5" d="M 302.348 71.012 C 290.691 71.012 254.451 71.298 250.128 71.438 C 247.99 71.507 246.268 71.603 244.982 72.454 C 243.695 73.305 243.047 74.888 243.047 77.437 C 243.047 79.898 243.016 101.797 242.998 123.738 C 242.982 145.672 242.978 167.577 243.047 170.335 L 243.047 170.351 C 243.116 173.031 243.186 174.896 244.359 176.284 C 245.531 177.672 247.622 178.38 251.423 179.071 C 255.29 179.774 265.119 180.457 275.385 180.972 C 285.651 181.486 296.293 181.823 301.659 181.823 L 309.608 181.823 C 314.974 181.823 325.632 181.486 335.897 180.972 C 346.164 180.457 355.993 179.774 359.86 179.071 C 363.66 178.38 365.735 177.673 366.908 176.284 C 368.08 174.896 368.167 173.03 368.235 170.351 C 368.306 167.605 368.301 145.68 368.284 123.737 C 368.267 101.796 368.235 79.898 368.235 77.436 C 368.235 74.887 367.588 73.305 366.302 72.453 C 365.015 71.603 363.294 71.506 361.155 71.437 C 356.834 71.298 320.574 71.011 308.919 71.011 L 302.346 71.011 L 302.348 71.011 Z M 302.348 72.061 L 308.919 72.061 C 320.559 72.061 356.931 72.336 361.107 72.47 C 363.217 72.539 364.787 72.717 365.728 73.339 C 366.669 73.96 367.187 75.052 367.187 77.436 C 367.187 79.908 367.219 101.797 367.236 123.738 C 367.253 145.68 367.253 167.72 367.187 170.319 L 367.187 170.335 C 367.118 172.987 366.986 174.555 366.105 175.597 C 365.223 176.64 363.401 177.36 359.664 178.039 C 355.993 178.706 346.087 179.41 335.832 179.924 C 325.578 180.437 314.93 180.776 309.608 180.776 L 301.659 180.776 C 296.337 180.776 285.689 180.438 275.434 179.924 C 265.18 179.41 255.274 178.707 251.604 178.039 C 247.871 177.357 246.048 176.638 245.166 175.594 C 244.284 174.55 244.169 172.982 244.101 170.317 C 244.034 167.722 244.035 145.678 244.052 123.738 C 244.069 101.797 244.102 79.907 244.102 77.436 C 244.102 75.052 244.62 73.96 245.561 73.339 C 246.501 72.717 248.055 72.539 250.166 72.471 C 254.339 72.335 290.712 72.061 302.352 72.061 L 302.348 72.061 Z" style="fill: rgb(30, 30, 30);" transform="matrix(0.965926, -0.258819, 0.258819, 0.965926, -22.304641, 83.413365)"/>
  <path id="path7" d="M 263.819 82.94 C 263.082 82.94 262.475 83.546 262.475 84.284 L 262.475 155.728 C 262.475 156.466 263.082 157.072 263.819 157.072 L 344.034 157.072 C 344.77 157.072 345.378 156.466 345.378 155.728 L 345.378 84.284 C 345.378 83.547 344.772 82.94 344.034 82.94 L 263.819 82.94 Z M 263.819 83.989 L 344.034 83.989 C 344.204 83.989 344.328 84.114 344.328 84.284 L 344.328 155.728 C 344.328 155.9 344.204 156.024 344.034 156.024 L 263.819 156.024 C 263.648 156.024 263.523 155.899 263.523 155.728 L 263.523 84.284 C 263.522 84.114 263.648 83.989 263.819 83.989 Z" style="fill: rgb(30, 30, 30);" transform="matrix(0.965926, -0.258819, 0.258819, 0.965926, -20.703793, 82.751048)"/>
  <path id="path9" d="M 331.808 256.927 C 330.026 256.927 328.397 257.095 327.153 257.517 C 326.531 257.728 325.998 258.006 325.597 258.402 C 325.195 258.798 324.941 259.337 324.941 259.927 C 324.941 260.518 325.195 261.054 325.597 261.451 C 325.998 261.848 326.532 262.125 327.153 262.336 C 328.397 262.759 330.026 262.909 331.808 262.909 C 333.591 262.909 335.218 262.759 336.462 262.336 C 337.084 262.125 337.617 261.848 338.019 261.451 C 338.42 261.055 338.674 260.518 338.674 259.927 C 338.674 259.337 338.42 258.799 338.019 258.402 C 337.617 258.006 337.084 257.728 336.462 257.517 C 335.218 257.094 333.59 256.927 331.808 256.927 Z M 331.808 257.976 C 333.526 257.976 335.068 258.145 336.119 258.501 C 336.643 258.678 337.043 258.903 337.283 259.14 C 337.522 259.376 337.627 259.609 337.627 259.926 C 337.627 260.243 337.522 260.459 337.283 260.696 C 337.043 260.933 336.643 261.157 336.119 261.336 C 335.069 261.692 333.526 261.859 331.808 261.859 C 330.09 261.859 328.546 261.692 327.497 261.336 C 326.972 261.157 326.572 260.933 326.334 260.696 C 326.094 260.459 325.989 260.244 325.989 259.926 C 325.989 259.608 326.094 259.376 326.334 259.14 C 326.572 258.903 326.972 258.678 327.497 258.501 C 328.546 258.145 330.09 257.976 331.808 257.976 Z" style="fill: rgb(30, 30, 30);" transform="matrix(0.965926, -0.258819, 0.258819, 0.965926, -55.965646, 94.734557)"/>
  <path id="path11" d="M 352.456 251.392 C 350.674 251.392 349.047 251.559 347.803 251.982 C 347.18 252.193 346.647 252.47 346.245 252.866 C 345.844 253.263 345.606 253.801 345.606 254.392 C 345.606 254.983 345.843 255.519 346.245 255.916 C 346.647 256.313 347.181 256.59 347.803 256.801 C 349.047 257.224 350.674 257.374 352.456 257.374 C 354.24 257.374 355.868 257.224 357.112 256.801 C 357.734 256.59 358.267 256.313 358.669 255.916 C 359.07 255.519 359.325 254.983 359.325 254.392 C 359.325 253.801 359.07 253.264 358.669 252.866 C 358.267 252.47 357.733 252.193 357.112 251.982 C 355.868 251.559 354.24 251.392 352.456 251.392 Z M 352.456 252.441 C 354.175 252.441 355.718 252.61 356.768 252.966 C 357.293 253.143 357.691 253.367 357.931 253.604 C 358.171 253.841 358.275 254.074 358.275 254.391 C 358.275 254.708 358.171 254.924 357.931 255.161 C 357.691 255.398 357.293 255.622 356.768 255.8 C 355.718 256.156 354.175 256.324 352.456 256.324 C 350.739 256.324 349.197 256.156 348.147 255.8 C 347.622 255.622 347.223 255.398 346.983 255.161 C 346.744 254.924 346.655 254.709 346.655 254.391 C 346.655 254.073 346.744 253.841 346.983 253.604 C 347.222 253.367 347.622 253.143 348.147 252.966 C 349.197 252.61 350.738 252.441 352.456 252.441 Z" style="fill: rgb(30, 30, 30);" transform="matrix(0.965926, -0.258819, 0.258819, 0.965926, -53.829172, 99.892611)"/>
  <path id="path13" d="M 287.191 211.718 C 285.697 211.718 284.47 212.944 284.47 214.439 L 284.47 222.748 C 284.47 222.829 284.475 222.799 284.47 222.829 L 276.095 222.829 C 274.6 222.829 273.374 224.039 273.374 225.534 L 273.374 231.615 C 273.374 233.11 274.6 234.336 276.095 234.336 L 284.47 234.336 L 284.47 242.711 C 284.47 244.206 285.696 245.432 287.191 245.432 L 293.272 245.432 C 294.766 245.432 295.976 244.206 295.976 242.711 L 295.976 234.419 C 295.976 234.344 295.989 234.356 295.992 234.337 L 304.368 234.337 C 305.862 234.337 307.089 233.111 307.089 231.616 L 307.089 225.534 C 307.089 224.039 305.862 222.829 304.368 222.829 L 295.977 222.829 C 295.974 222.816 295.977 222.846 295.977 222.797 L 295.977 214.438 C 295.977 212.944 294.766 211.717 293.272 211.717 L 287.191 211.717 L 287.191 211.718 Z M 287.191 212.766 L 293.272 212.766 C 294.199 212.766 294.927 213.51 294.927 214.439 L 294.927 222.797 C 294.927 223.051 294.971 223.337 295.173 223.568 C 295.376 223.8 295.683 223.88 295.944 223.88 L 304.368 223.88 C 305.295 223.88 306.04 224.606 306.04 225.535 L 306.04 231.616 C 306.04 232.545 305.296 233.288 304.368 233.288 L 295.959 233.288 C 295.647 233.288 295.301 233.425 295.123 233.681 C 294.946 233.937 294.926 234.196 294.926 234.418 L 294.926 242.712 C 294.926 243.639 294.198 244.384 293.271 244.384 L 287.19 244.384 C 286.263 244.384 285.518 243.639 285.518 242.712 L 285.518 234.271 C 285.518 234.177 285.551 233.966 285.387 233.697 C 285.223 233.43 284.866 233.288 284.534 233.288 L 276.094 233.288 C 275.167 233.288 274.422 232.544 274.422 231.616 L 274.422 225.535 C 274.422 224.606 275.165 223.88 276.094 223.88 L 284.567 223.88 C 284.853 223.88 285.21 223.732 285.371 223.47 C 285.531 223.208 285.518 222.974 285.518 222.748 L 285.518 214.439 C 285.518 213.51 286.263 212.766 287.191 212.766 L 287.191 212.766 Z" style="fill: rgb(30, 30, 30);" transform="matrix(0.965926, -0.258819, 0.258819, 0.965926, -49.270022, 82.905901)"/>
  <path id="circle33" d="M 356.299 205.523 C 351.122 205.523 346.908 209.721 346.908 214.898 C 346.908 220.075 351.122 224.289 356.299 224.289 C 361.477 224.289 365.69 220.075 365.69 214.898 C 365.69 209.721 361.476 205.523 356.299 205.523 Z M 356.299 206.571 C 360.909 206.571 364.642 210.287 364.642 214.898 C 364.642 219.508 360.909 223.241 356.299 223.241 C 351.689 223.241 347.957 219.508 347.957 214.898 C 347.957 210.287 351.689 206.571 356.299 206.571 Z" style="fill: rgb(30, 30, 30);" transform="matrix(0.965926, -0.258818, 0.258818, 0.965926, -43.48103, 99.539221)"/>
  <path id="circle35" d="M 379.256 190.573 C 374.079 190.573 369.865 194.787 369.865 199.963 C 369.865 205.141 374.079 209.354 379.256 209.354 C 384.433 209.354 388.631 205.141 388.631 199.963 C 388.631 194.787 384.433 190.573 379.256 190.573 Z M 379.256 191.622 C 383.865 191.622 387.582 195.354 387.582 199.963 C 387.582 204.574 383.866 208.306 379.256 208.306 C 374.646 208.306 370.913 204.574 370.913 199.963 C 370.913 195.354 374.646 191.622 379.256 191.622 Z" style="fill: rgb(30, 30, 30);" transform="matrix(0.965926, -0.25882, 0.25882, 0.965926, -38.831873, 104.970517)"/>
  <path id="circle37" d="M 375.323 251.943 C 374.446 251.943 373.718 252.656 373.718 253.533 C 373.718 254.409 374.446 255.139 375.323 255.139 C 376.2 255.139 376.914 254.409 376.914 253.533 C 376.914 252.655 376.2 251.943 375.323 251.943 Z" style="fill: rgb(30, 30, 30);" transform="matrix(0.965926, -0.258819, 0.258819, 0.965926, -52.832647, 105.778091)"/>
  <path id="circle39" d="M 377.372 259.588 C 376.495 259.588 375.766 260.318 375.766 261.194 C 375.766 262.07 376.495 262.783 377.372 262.783 C 378.249 262.783 378.963 262.069 378.963 261.194 C 378.963 260.318 378.249 259.588 377.372 259.588 Z" style="fill: rgb(30, 30, 30);" transform="matrix(0.965926, -0.258819, 0.258819, 0.965926, -54.741382, 106.568762)"/>
  <path id="circle41" d="M 379.425 267.252 C 378.548 267.252 377.819 267.966 377.819 268.842 C 377.819 269.718 378.548 270.448 379.425 270.448 C 380.302 270.448 381.016 269.718 381.016 268.842 C 381.016 267.965 380.302 267.252 379.425 267.252 Z" style="fill: rgb(30, 30, 30);" transform="matrix(0.965926, -0.258819, 0.258819, 0.965926, -56.65515, 107.361278)"/>
  <path id="circle43" d="M 378.124 246.511 C 377.248 246.511 376.519 247.225 376.519 248.101 C 376.519 248.975 377.248 249.707 378.124 249.707 C 379.001 249.707 379.716 248.976 379.716 248.101 C 379.716 247.224 379.001 246.511 378.124 246.511 Z" style="fill: rgb(30, 30, 30);" transform="matrix(0.965926, -0.258819, 0.258819, 0.965926, -51.331285, 106.318083)"/>
  <path id="circle45" d="M 380.155 254.091 C 379.279 254.091 378.55 254.821 378.55 255.697 C 378.55 256.573 379.279 257.287 380.155 257.287 C 381.032 257.287 381.746 256.572 381.746 255.697 C 381.746 254.822 381.032 254.091 380.155 254.091 Z" style="fill: rgb(30, 30, 30);" transform="matrix(0.965926, -0.258819, 0.258819, 0.965926, -53.223941, 107.101897)"/>
  <path id="circle47" d="M 382.192 261.69 C 381.315 261.69 380.586 262.404 380.586 263.279 C 380.586 264.156 381.315 264.885 382.192 264.885 C 383.068 264.885 383.783 264.156 383.783 263.279 C 383.783 262.404 383.068 261.69 382.192 261.69 Z" style="fill: rgb(30, 30, 30);" transform="matrix(0.965926, -0.258819, 0.258819, 0.965926, -55.121182, 107.8879)"/>
  <path id="circle49" d="M 384.222 269.273 C 383.346 269.273 382.617 269.987 382.617 270.862 C 382.617 271.739 383.346 272.469 384.222 272.469 C 385.099 272.469 385.813 271.739 385.813 270.862 C 385.813 269.987 385.099 269.273 384.222 269.273 Z" style="fill: rgb(30, 30, 30);" transform="matrix(0.965926, -0.258818, 0.258818, 0.965926, -57.014613, 108.671443)"/>
  <path id="circle51" d="M 382.816 248.692 C 381.939 248.692 381.226 249.423 381.226 250.299 C 381.226 251.176 381.939 251.889 382.816 251.889 C 383.691 251.889 384.421 251.175 384.421 250.299 C 384.421 249.423 383.692 248.692 382.816 248.692 Z" style="fill: rgb(30, 30, 30);" transform="matrix(0.965926, -0.258819, 0.258819, 0.965926, -51.735541, 107.610413)"/>
  <path id="circle53" d="M 384.852 256.292 C 383.975 256.292 383.262 257.006 383.262 257.881 C 383.262 258.758 383.975 259.487 384.852 259.487 C 385.727 259.487 386.457 258.758 386.457 257.881 C 386.457 257.006 385.728 256.292 384.852 256.292 Z" style="fill: rgb(30, 30, 30);" transform="matrix(0.965926, -0.258819, 0.258819, 0.965926, -53.632932, 108.396301)"/>
  <path id="circle55" d="M 386.884 263.876 C 386.007 263.876 385.294 264.606 385.294 265.482 C 385.294 266.358 386.008 267.072 386.884 267.072 C 387.76 267.072 388.489 266.358 388.489 265.482 C 388.489 264.606 387.761 263.876 386.884 263.876 Z" style="fill: rgb(30, 30, 30);" transform="matrix(0.965926, -0.258819, 0.258819, 0.965926, -55.526661, 109.180536)"/>
  <path id="circle57" d="M 388.916 271.46 C 388.04 271.46 387.327 272.189 387.327 273.066 C 387.327 273.942 388.04 274.656 388.916 274.656 C 389.792 274.656 390.522 273.942 390.522 273.066 C 390.522 272.189 389.793 271.46 388.916 271.46 Z" style="fill: rgb(30, 30, 30);" transform="matrix(0.965926, -0.25882, 0.25882, 0.965926, -57.42045, 109.965645)"/>
  <path id="circle59" d="M 385.628 242.982 C 384.751 242.982 384.039 243.695 384.039 244.572 C 384.039 245.448 384.752 246.178 385.628 246.178 C 386.504 246.178 387.235 245.448 387.235 244.572 C 387.235 243.695 386.504 242.982 385.628 242.982 Z" style="fill: rgb(30, 30, 30);" transform="matrix(0.965926, -0.258818, 0.258818, 0.965926, -50.16157, 108.143646)"/>
  <path id="circle61" d="M 387.661 250.565 C 386.784 250.565 386.072 251.295 386.072 252.171 C 386.072 253.049 386.785 253.761 387.661 253.761 C 388.537 253.761 389.268 253.048 389.268 252.171 C 389.268 251.295 388.537 250.565 387.661 250.565 Z" style="fill: rgb(30, 30, 30);" transform="matrix(0.965926, -0.258819, 0.258819, 0.965926, -52.055042, 108.928585)"/>
  <path id="circle63" d="M 389.693 258.149 C 388.816 258.149 388.104 258.88 388.104 259.756 C 388.104 260.632 388.817 261.345 389.693 261.345 C 390.569 261.345 391.3 260.631 391.3 259.756 C 391.3 258.88 390.569 258.149 389.693 258.149 Z" style="fill: rgb(30, 30, 30);" transform="matrix(0.965926, -0.258819, 0.258819, 0.965926, -53.948686, 109.712923)"/>
  <path id="circle65" d="M 391.729 265.749 C 390.853 265.749 390.14 266.463 390.14 267.338 C 390.14 268.213 390.853 268.944 391.729 268.944 C 392.605 268.944 393.336 268.214 393.336 267.338 C 393.336 266.462 392.605 265.749 391.729 265.749 Z" style="fill: rgb(30, 30, 30);" transform="matrix(0.965926, -0.258819, 0.258819, 0.965926, -55.846201, 110.498828)"/>
  <path id="circle67" d="M 390.211 245.066 C 389.335 245.066 388.622 245.78 388.622 246.655 C 388.622 247.532 389.336 248.262 390.211 248.262 C 391.087 248.262 391.818 247.532 391.818 246.655 C 391.818 245.78 391.087 245.066 390.211 245.066 Z" style="fill: rgb(30, 30, 30);" transform="matrix(0.965926, -0.25882, 0.25882, 0.965926, -50.545024, 109.401589)"/>
  <path id="circle69" d="M 392.243 252.65 C 391.367 252.65 390.653 253.38 390.653 254.257 C 390.653 255.133 391.368 255.846 392.243 255.846 C 393.119 255.846 393.85 255.132 393.85 254.257 C 393.85 253.38 393.119 252.65 392.243 252.65 Z" style="fill: rgb(30, 30, 30);" transform="matrix(0.965926, -0.25882, 0.25882, 0.965926, -52.43869, 110.185806)"/>
  <path id="circle71" d="M 394.277 260.249 C 393.402 260.249 392.688 260.963 392.688 261.84 C 392.688 262.715 393.403 263.429 394.277 263.429 C 395.154 263.429 395.884 262.715 395.884 261.84 C 395.884 260.962 395.153 260.249 394.277 260.249 Z" style="fill: rgb(30, 30, 30);" transform="matrix(0.965926, -0.25882, 0.25882, 0.965926, -54.334061, 110.971029)"/>
  <path id="circle73" d="M 396.31 267.828 C 395.434 267.828 394.721 268.542 394.721 269.417 C 394.721 270.294 395.435 271.024 396.31 271.024 C 397.186 271.024 397.917 270.294 397.917 269.417 C 397.917 268.542 397.186 267.828 396.31 267.828 Z" style="fill: rgb(30, 30, 30);" transform="matrix(0.965926, -0.25882, 0.25882, 0.965926, -56.22846, 111.755729)"/>
  <path id="circle75" d="M 392.854 239.355 C 391.977 239.355 391.248 240.069 391.248 240.945 C 391.248 241.821 391.977 242.534 392.854 242.534 C 393.73 242.534 394.443 241.82 394.443 240.945 C 394.443 240.069 393.73 239.355 392.854 239.355 Z" style="fill: rgb(30, 30, 30);" transform="matrix(0.965926, -0.258819, 0.258819, 0.965926, -48.975126, 109.885844)"/>
  <path id="circle77" d="M 394.888 246.939 C 394.011 246.939 393.282 247.653 393.282 248.529 C 393.282 249.405 394.011 250.135 394.888 250.135 C 395.764 250.135 396.477 249.405 396.477 248.529 C 396.477 247.653 395.764 246.939 394.888 246.939 Z" style="fill: rgb(30, 30, 30);" transform="matrix(0.965926, -0.258819, 0.258819, 0.965926, -50.870903, 110.670991)"/>
  <path id="circle79" d="M 396.92 254.523 C 396.044 254.523 395.315 255.253 395.315 256.13 C 395.315 257.006 396.044 257.72 396.92 257.72 C 397.797 257.72 398.509 257.005 398.509 256.13 C 398.509 255.253 397.796 254.523 396.92 254.523 Z" style="fill: rgb(30, 30, 30);" transform="matrix(0.965926, -0.25882, 0.25882, 0.965926, -52.764788, 111.455861)"/>
  <path id="circle81" d="M 398.952 262.107 C 398.075 262.107 397.347 262.837 397.347 263.713 C 397.347 264.59 398.075 265.303 398.952 265.303 C 399.829 265.303 400.541 264.59 400.541 263.713 C 400.541 262.838 399.828 262.107 398.952 262.107 Z" style="fill: rgb(30, 30, 30);" transform="matrix(0.965926, -0.258819, 0.258819, 0.965926, -54.658138, 112.239661)"/>
  <path id="circle83" d="M 397.407 241.2 C 396.53 241.2 395.818 241.914 395.818 242.789 C 395.818 243.665 396.531 244.395 397.407 244.395 C 398.282 244.395 399.012 243.665 399.012 242.789 C 399.012 241.914 398.281 241.2 397.407 241.2 Z" style="fill: rgb(30, 30, 30);" transform="matrix(0.965926, -0.25882, 0.25882, 0.965926, -49.299134, 111.132038)"/>
  <path id="circle85" d="M 399.439 248.783 C 398.563 248.783 397.85 249.496 397.85 250.373 C 397.85 251.249 398.564 251.979 399.439 251.979 C 400.315 251.979 401.045 251.249 401.045 250.373 C 401.044 249.496 400.314 248.783 399.439 248.783 Z" style="fill: rgb(30, 30, 30);" transform="matrix(0.965926, -0.25882, 0.25882, 0.965926, -51.192641, 111.916503)"/>
  <path id="circle87" d="M 401.47 256.366 C 400.594 256.366 399.881 257.097 399.881 257.973 C 399.881 258.85 400.594 259.562 401.47 259.562 C 402.345 259.562 403.076 258.849 403.076 257.973 C 403.076 257.097 402.345 256.366 401.47 256.366 Z" style="fill: rgb(30, 30, 30);" transform="matrix(0.965926, -0.258818, 0.258818, 0.965926, -53.085808, 112.699764)"/>
  <path id="circle89" d="M 401.938 242.911 C 401.06 242.911 400.331 243.64 400.331 244.518 C 400.331 245.394 401.06 246.107 401.938 246.107 C 402.813 246.107 403.527 245.393 403.527 244.518 C 403.527 243.641 402.812 242.911 401.938 242.911 Z" style="fill: rgb(30, 30, 30);" transform="matrix(0.965926, -0.25882, 0.25882, 0.965926, -49.588329, 112.358814)"/>
  <path id="circle91" d="M 403.974 250.51 C 403.096 250.51 402.367 251.225 402.367 252.1 C 402.367 252.976 403.096 253.707 403.974 253.707 C 404.85 253.707 405.563 252.976 405.563 252.1 C 405.563 251.224 404.849 250.51 403.974 250.51 Z" style="fill: rgb(30, 30, 30);" transform="matrix(0.965926, -0.25882, 0.25882, 0.965926, -51.485814, 113.144576)"/>
  <path id="circle93" d="M 406.006 258.094 C 405.128 258.094 404.399 258.824 404.399 259.701 C 404.399 260.577 405.128 261.29 406.006 261.29 C 406.881 261.29 407.595 260.577 407.595 259.701 C 407.595 258.825 406.88 258.094 406.006 258.094 Z" style="fill: rgb(30, 30, 30);" transform="matrix(0.965926, -0.258819, 0.258819, 0.965926, -53.3792, 113.928474)"/>
  <path id="circle95" d="M 403.507 263.966 C 402.631 263.966 401.918 264.68 401.918 265.556 C 401.918 266.432 402.632 267.162 403.507 267.162 C 404.383 267.162 405.113 266.433 405.113 265.556 C 405.113 264.679 404.382 263.966 403.507 263.966 Z" style="fill: rgb(30, 30, 30);" transform="matrix(0.965926, -0.25882, 0.25882, 0.965926, -54.983681, 113.486727)"/>
</svg>