<?xml version="1.0" encoding="utf-8"?>
<svg version="1.1" id="Ebene_2" x="0px" y="0px" enable-background="new 0 0 566.93 65.438" xmlns="http://www.w3.org/2000/svg">
  <g transform="matrix(0.581993, 0, 0, 0.581993, -164.845612, 43.772087)">
    <path id="path5256" d="M 437.047 25.516 C 435.855 21.904 432.706 18.467 432.706 18.467 C 432.706 18.467 427.975 12.321 418.682 10.225 C 410.726 8.561 404.474 12.07 404.474 12.07 C 404.474 12.07 398.797 14.345 394.531 19.048 C 387.735 25.59 385.782 35.136 385.782 35.136 C 385.782 35.136 383.178 43.45 387.303 50.032 L 391.785 55.454 C 398.111 60.733 404.872 61.273 404.872 61.273 C 404.872 61.273 410.332 62.502 416.696 60.839 C 422.259 59.717 426.31 56.97 426.31 56.97 C 426.31 56.97 435.532 51.873 438.059 41.461 L 437.047 25.516 Z M 422.69 42.833 C 422.69 42.833 419.004 49.27 410.908 48.508 C 401.398 47.533 400.28 39.183 400.28 39.183 C 400.28 39.183 398.975 33.037 404.833 27.685 C 410.764 22.698 416.946 23.456 416.946 23.456 C 416.946 23.456 421.1 23.853 423.238 30.724 C 425.982 39.471 422.69 42.833 422.69 42.833" style="fill-opacity: 1; fill: rgb(255, 255, 255);"/>
    <path id="path5262" d="M 467.773 42.944 C 464.729 42.272 459.856 43.519 459.856 43.519 C 459.856 43.519 453.06 46.012 452.011 45.977 C 451.615 45.4 450.748 34.3 450.999 29.854 C 451.145 22.008 450.49 15.611 450.49 15.611 C 450.49 15.611 450.167 8.053 446.117 3.572 C 441.346 -1.239 438.016 0.825 436.101 1.979 C 431.51 6.101 433.644 11.125 433.644 11.125 L 436.033 17.887 C 436.033 17.887 437.188 20.781 437.045 25.515 L 438.057 41.459 C 438.057 43.592 439.794 57.943 439.794 57.943 C 439.794 57.943 439.97 62.608 444.455 63.439 C 449.048 64.198 453.564 61.919 455.48 61.016 C 457.397 60.115 459.927 59.319 459.927 59.319 C 459.927 59.319 462.025 58.848 464.121 58.669 C 469.037 58.197 470.809 57.331 470.809 57.331 C 470.809 57.331 472.71 57.045 473.993 55.232 C 475.271 53.422 476.819 44.93 467.773 42.944" style="fill-opacity: 1; fill: rgb(255, 255, 255);"/>
    <path id="path5264" d="M 387.3 50.029 C 384.071 49.06 380.362 49.702 380.362 49.702 C 380.362 49.702 369.877 50.713 364.417 49.556 C 355.96 48.076 356.243 38.964 356.243 38.964 C 356.243 38.964 355.96 32.925 361.056 24.756 C 367.345 14.668 374.286 12.861 374.286 12.861 C 374.286 12.861 376.019 12.212 377.646 13.078 C 378.659 18.932 384.334 18.896 384.334 18.896 C 384.334 18.896 392.505 19.441 392.105 9.537 C 391.167 1.399 383.323 0.28 380.031 -0.481 C 370.167 -2.252 363.762 3.027 363.762 3.027 C 363.762 3.027 357.148 6.605 349.231 19.078 C 343.84 26.813 343.191 32.889 343.191 32.889 C 343.191 32.889 342.542 34.335 342.795 40.772 C 342.65 45.795 344.532 49.448 344.532 49.448 C 344.532 49.448 347.386 58.093 356.423 61.635 C 361.92 63.911 369.948 63.876 369.948 63.876 C 369.948 63.876 377.719 63.768 383.681 63.441 C 386.936 63.693 388.493 61.994 388.493 61.994 C 388.493 61.994 392.141 59.609 391.782 55.451 C 391.782 55.451 391.074 51.156 387.3 50.029" style="fill-opacity: 1; fill: rgb(255, 255, 255);"/>
    <path id="path5258" d="M 518.642 23.6 C 512.317 13.261 501.182 11.706 501.182 11.706 C 501.182 11.706 497.639 10.512 490.049 11.523 C 475.803 14.236 470.849 25.19 470.849 25.19 C 470.849 25.19 465.75 33.214 467.775 42.94 L 473.999 55.232 C 478.589 59.534 480.468 59.534 480.756 59.79 C 486.832 62.537 493.881 60.946 493.881 60.946 C 493.881 60.946 502.776 60.079 510.91 53.752 C 517.416 48.981 520.236 41.966 520.236 41.966 L 521.099 32.556 L 518.642 23.6 L 518.642 23.6 Z M 501.326 44.713 C 491.095 50.859 484.658 44.134 484.658 44.134 C 484.658 44.134 481.803 42.254 481.188 36.541 C 480.75 29.926 487.334 26.491 487.334 26.491 C 487.334 26.491 490.805 24.357 495.144 24.683 C 499.483 25.007 500.852 24.718 504.363 27.323 C 507.687 30.325 507.47 32.529 507.47 32.529 C 507.47 32.529 508.665 39.978 501.326 44.713" style="fill-opacity: 1; fill: rgb(255, 255, 255);"/>
    <path id="path5260" d="M 520.234 41.966 C 520.234 41.966 520.452 47.749 519.546 49.16 C 518.317 51.799 518.499 54.366 518.499 54.366 C 518.499 54.366 517.664 62.175 526.708 63.473 C 532.922 63.438 533.679 58.267 533.789 56.062 C 534.149 54.33 534.006 46.264 534.006 46.264 L 542.069 52.845 C 542.069 52.845 547.925 57.762 551.364 60.617 C 554.945 63.435 555.843 63.942 555.843 63.942 C 555.843 63.942 556.606 64.843 559.349 64.519 C 561.56 64.557 563.583 62.567 563.583 62.567 C 563.583 62.567 566.146 60.692 566.797 57.4 C 567.592 53.495 564.557 51.579 564.557 51.579 C 564.557 51.579 553.352 42.54 545.759 36.321 C 550.856 33.538 553.315 31.622 553.315 31.622 C 553.315 31.622 560.403 26.924 561.919 19.726 C 564.018 11.808 558.052 8.702 558.052 8.702 C 558.052 8.702 554.326 6.026 551.182 4.615 C 543.262 0.747 535.889 1.542 535.889 1.542 C 535.889 1.542 525.406 0.82 518.573 9.245 C 515.429 13.328 517.383 18.681 517.383 18.681 C 517.383 18.681 517.771 19.538 518.646 23.597 C 520.399 31.764 520.234 41.966 520.234 41.966 L 520.234 41.966 Z M 533.972 25.913 L 533.284 16.478 C 533.284 16.478 539.898 16.332 542.647 16.802 C 548.073 17.633 547.781 19.154 547.781 19.154 C 547.781 19.154 547.6 21.069 543.478 22.95 C 538.998 25.12 533.972 25.913 533.972 25.913" style="fill-opacity: 1; fill: rgb(255, 255, 255);"/>
  </g>
  <g transform="matrix(0.581993, 0, 0, 0.581993, 0.714687, 0.213009)">
    <path id="path5266" d="M 152.788 62.488 L 140.832 62.488 L 139.234 26.476 L 123.689 62.488 L 115.714 62.488 L 109.072 29.931 L 98.705 62.488 L 78.374 62.488 L 75.317 45.085 L 61.495 45.085 L 53.655 62.488 L 41.16 62.488 L 66.812 4.288 L 81.561 4.288 L 89.4 51.328 L 104.685 4.287 L 116.508 4.287 L 122.356 36.18 L 135.916 4.287 L 150.267 4.287 L 152.788 62.488 Z M 73.515 33.781 L 71.326 22.491 L 66.277 33.781 L 73.515 33.781" style="fill-opacity: 1; fill: rgb(255, 255, 255);"/>
    <path id="path5268" d="M 187.072 62.488 L 189.07 50 L 168.204 50 L 169.858 39.635 L 188.006 39.635 L 190 27.14 L 171.659 27.14 L 173.253 16.774 L 194.114 16.774 L 196.109 4.288 L 163.022 4.288 L 153.717 62.488 L 187.072 62.488" style="fill-opacity: 1; fill: rgb(255, 255, 255);"/>
    <path id="path5270" d="M 342.419 4.287 L 328.465 4.287 L 316.638 23.287 L 309.2 4.287 L 295.512 4.287 L 309.596 34.979 L 305.257 62.487 L 317.22 62.487 L 320.891 38.172 L 342.419 4.287" style="fill-opacity: 1; fill: rgb(255, 255, 255);"/>
    <path id="path5272" d="M 253.306 28.382 C 257.02 12.289 270.775 1.728 284.023 4.791 C 297.279 7.854 305.012 23.377 301.301 39.47 C 297.587 55.559 283.834 66.122 270.58 63.059 C 257.327 59.996 249.595 44.469 253.306 28.382 Z M 271.405 51.405 C 277.732 54.235 285.483 48.684 288.707 39.007 C 291.93 29.322 289.421 19.179 283.093 16.348 C 276.765 13.516 269.024 19.07 265.795 28.752 C 262.568 38.435 265.082 48.573 271.405 51.405" style="fill-opacity: 1; fill: rgb(255, 255, 255);"/>
    <path id="path5276" d="M 224.595 16.877 C 224.595 16.877 224.86 16.877 232.381 16.877 C 240.82 16.877 239.108 27.689 231.065 27.689 C 224.469 27.689 222.752 27.689 222.752 27.689 L 224.595 16.877 Z M 220.906 39.556 C 220.906 39.556 223.411 39.556 230.927 39.556 C 240.426 39.556 240.16 51.161 229.61 51.161 C 223.02 51.161 219.06 51.161 219.06 51.161 L 220.906 39.556 L 220.906 39.556 Z M 214.311 4.607 L 205.082 62.374 C 205.082 62.374 224.204 62.374 231.985 62.374 C 243.061 62.374 259.261 46.048 244.516 32.702 C 259.678 17.01 244.642 4.747 236.6 4.607 C 230.139 4.503 214.184 4.607 214.184 4.607 L 214.311 4.607" style="fill-opacity: 1; fill: rgb(255, 255, 255);"/>
    <path id="path5274" d="M 15.648 9.468 C 4.252 16.521 -1.228 27.271 0.231 41.89 C 1.928 58.847 23.887 69.53 42.49 58.769 C 44.119 57.829 43.482 57.977 44.085 57.438 L 47.808 33.782 L 25.614 33.782 L 23.912 44.679 L 33.188 44.679 L 32.123 50.529 C 26.809 52.654 17.771 51.856 13.919 44.947 C 11.479 40.571 9.216 30.805 19.502 21.823 C 27.871 14.514 42.358 13.19 50.732 17.043 C 50.732 17.043 51.794 10.932 52.589 5.214 C 36.511 -0.366 24.018 4.287 15.648 9.468" style="fill-opacity: 1; fill: rgb(255, 255, 255);"/>
  </g>
</svg>