<?xml version="1.0" encoding="utf-8"?>
<svg version="1.2" baseProfile="tiny" id="Layer_3" x="0px" y="0px" viewBox="0 0 1280 720" preserveAspectRatio="none" xmlns="http://www.w3.org/2000/svg">
  <path id="polyline3" d="M 520.79 138.484 L 520.79 139.74 L 522.285 397.337 L 524.8 397.337 L 523.304 140.964 L 707.655 140.964 L 706.159 397.337 L 708.639 397.337 L 710.135 139.74 L 710.135 138.484 L 708.912 138.484 L 522.048 138.484 L 520.79 138.484 Z" style="fill: rgb(30, 30, 30);" transform="matrix(0.965926, -0.258819, 0.258819, 0.965926, -48.368986, 168.422376)"/>
  <path id="polyline5" d="M 584.653 404.771 L 582.173 405.042 L 603.111 592.385 L 603.245 593.505 L 604.368 593.505 L 651.133 593.505 L 651.133 591.026 L 605.453 591.026 L 584.653 404.771 Z" style="fill: rgb(30, 30, 30);" transform="matrix(0.965926, -0.258819, 0.258819, 0.965926, -108.174544, 176.609388)"/>
  <path id="polyline7" d="M 762.046 374.378 L 741.245 560.633 L 695.635 560.633 L 695.635 563.112 L 742.37 563.112 L 743.49 563.112 L 743.592 561.992 L 764.528 374.649 L 762.046 374.378 L 762.046 374.378 Z" style="fill: rgb(30, 30, 30);" transform="matrix(0.965926, -0.258819, 0.258819, 0.965926, -96.44314, 204.930879)"/>
  <path id="path9" d="M 603.937 431.866 C 602.36 431.866 601.015 433.127 601.015 434.72 L 601.015 459.226 C 601.015 460.817 602.36 462.08 603.937 462.08 L 636.6 462.08 C 637.694 462.08 638.513 461.391 639.013 460.483 L 639.524 460.483 L 639.524 459.226 L 639.524 434.72 C 639.524 433.127 638.212 431.866 636.634 431.866 L 603.937 431.866 Z M 603.937 434.346 L 636.634 434.346 C 636.905 434.346 637.042 434.518 637.042 434.72 L 637.042 457.968 L 637.042 459.226 C 637.042 459.427 636.872 459.6 636.6 459.6 L 603.937 459.6 C 603.665 459.6 603.496 459.427 603.496 459.226 L 603.496 434.72 C 603.496 434.518 603.666 434.346 603.937 434.346 Z" style="fill: rgb(30, 30, 30);" transform="matrix(0.965926, -0.258819, 0.258819, 0.965926, -94.550008, 175.767937)"/>
  <path id="path13" stroke-width="1.8313" d="M 559.118 202.97 C 559.118 203.599 558.593 204.108 557.945 204.108 L 523.555 204.108 C 522.905 204.108 522.379 203.599 522.379 202.97 L 522.379 176.824 C 522.379 176.194 522.904 175.688 523.555 175.688 L 557.945 175.688 C 558.593 175.688 559.118 176.197 559.118 176.824 L 559.118 202.97 Z" style="fill: none; stroke: rgb(30, 30, 30);" transform="matrix(0.965926, -0.258819, 0.258819, 0.965926, -30.723662, 146.426618)"/>
  <path id="path15" stroke-width="1.8313" d="M 609.334 189.514 C 609.334 190.143 608.807 190.652 608.158 190.652 L 573.769 190.652 C 573.121 190.652 572.596 190.143 572.596 189.514 L 572.596 163.368 C 572.596 162.738 573.121 162.232 573.769 162.232 L 608.158 162.232 C 608.808 162.232 609.334 162.741 609.334 163.368 L 609.334 189.514 Z" style="fill: none; stroke: rgb(30, 30, 30);" transform="matrix(0.965926, -0.258819, 0.258819, 0.965926, -25.529901, 158.965076)"/>
  <path id="path17" stroke-width="1.8313" d="M 659.551 176.06 C 659.551 176.689 659.024 177.198 658.377 177.198 L 623.985 177.198 C 623.337 177.198 622.809 176.689 622.809 176.06 L 622.809 149.914 C 622.809 149.284 623.338 148.778 623.985 148.778 L 658.375 148.778 C 659.024 148.778 659.549 149.287 659.549 149.914 L 659.549 176.06 Z" style="fill: none; stroke: rgb(30, 30, 30);" transform="matrix(0.965926, -0.258819, 0.258819, 0.965926, -20.336721, 171.503268)"/>
  <path id="path19" d="M 644.68 420.945 C 643.102 420.945 641.756 422.206 641.756 423.799 L 641.756 448.305 C 641.756 449.896 643.102 451.159 644.68 451.159 L 677.375 451.159 C 678.469 451.159 679.257 450.467 679.755 449.562 L 680.299 449.562 L 680.299 448.305 L 680.299 423.799 C 680.299 422.209 678.952 420.945 677.375 420.945 L 644.68 420.945 Z M 644.68 423.425 L 677.375 423.425 C 677.646 423.425 677.785 423.596 677.785 423.799 L 677.785 447.047 L 677.785 448.305 C 677.785 448.507 677.646 448.679 677.375 448.679 L 644.68 448.679 C 644.408 448.679 644.236 448.506 644.236 448.305 L 644.236 423.799 C 644.238 423.597 644.408 423.425 644.68 423.425 Z" style="fill: rgb(30, 30, 30);" transform="matrix(0.965926, -0.258819, 0.258819, 0.965926, -90.334652, 185.944748)"/>
  <path id="path21" d="M 684.634 410.243 C 683.057 410.243 681.713 411.507 681.713 413.097 L 681.713 437.603 C 681.713 439.192 683.057 440.457 684.634 440.457 L 717.329 440.457 C 718.906 440.457 720.219 439.192 720.219 437.603 L 720.219 413.097 C 720.219 411.507 718.906 410.243 717.329 410.243 L 684.634 410.243 Z M 684.634 412.723 L 717.329 412.723 C 717.597 412.723 717.736 412.894 717.736 413.097 L 717.736 437.603 C 717.736 437.805 717.597 437.977 717.329 437.977 L 684.634 437.977 C 684.36 437.977 684.192 437.805 684.192 437.603 L 684.192 413.097 C 684.192 412.894 684.36 412.723 684.634 412.723 Z" style="fill: rgb(30, 30, 30);" transform="matrix(0.965926, -0.258819, 0.258819, 0.965926, -86.203782, 195.916591)"/>
  <path id="path23" d="M 613.57 467.815 C 611.993 467.815 610.648 469.078 610.648 470.669 L 610.648 495.174 C 610.648 496.766 611.993 498.031 613.57 498.031 L 646.233 498.031 C 647.33 498.031 648.15 497.313 648.646 496.401 L 649.157 496.401 L 649.157 495.177 L 649.157 470.67 C 649.157 469.078 647.845 467.817 646.267 467.817 L 613.57 467.817 Z M 613.57 470.295 L 646.267 470.295 C 646.538 470.295 646.675 470.466 646.675 470.667 L 646.675 493.917 L 646.675 495.174 C 646.675 495.378 646.505 495.547 646.233 495.547 L 613.57 495.547 C 613.298 495.547 613.129 495.378 613.129 495.174 L 613.129 470.667 C 613.129 470.466 613.299 470.295 613.57 470.295 Z" style="fill: rgb(30, 30, 30);" transform="matrix(0.965926, -0.258819, 0.258819, 0.965926, -103.526326, 179.486095)"/>
  <path id="path25" d="M 654.313 456.894 C 652.735 456.894 651.389 458.157 651.389 459.748 L 651.389 484.253 C 651.389 485.845 652.735 487.11 654.313 487.11 L 687.008 487.11 C 688.105 487.11 688.892 486.389 689.388 485.48 L 689.932 485.48 L 689.932 484.256 L 689.932 459.749 C 689.932 458.16 688.585 456.896 687.008 456.896 L 654.313 456.896 Z M 654.313 459.374 L 687.008 459.374 C 687.279 459.374 687.418 459.545 687.418 459.746 L 687.418 482.996 L 687.418 484.253 C 687.418 484.459 687.279 484.626 687.008 484.626 L 654.313 484.626 C 654.041 484.626 653.869 484.457 653.869 484.253 L 653.869 459.746 C 653.871 459.545 654.041 459.374 654.313 459.374 Z" style="fill: rgb(30, 30, 30);" transform="matrix(0.965926, -0.258819, 0.258819, 0.965926, -99.310965, 189.662943)"/>
  <path id="path27" d="M 694.267 446.192 C 692.69 446.192 691.346 447.458 691.346 449.046 L 691.346 473.551 C 691.346 475.143 692.69 476.408 694.267 476.408 L 726.962 476.408 C 728.539 476.408 729.852 475.143 729.852 473.551 L 729.852 449.046 C 729.852 447.458 728.539 446.192 726.962 446.192 L 694.267 446.192 Z M 694.267 448.672 L 726.962 448.672 C 727.23 448.672 727.369 448.843 727.369 449.044 L 727.369 473.551 C 727.369 473.757 727.23 473.924 726.962 473.924 L 694.267 473.924 C 693.993 473.924 693.825 473.757 693.825 473.551 L 693.825 449.044 C 693.825 448.843 693.993 448.672 694.267 448.672 Z" style="fill: rgb(30, 30, 30);" transform="matrix(0.965926, -0.258819, 0.258819, 0.965926, -95.180071, 199.634751)"/>
  <path id="path29" d="M 622.467 501.003 C 620.89 501.003 619.545 502.301 619.545 503.893 L 619.545 528.365 C 619.545 529.956 620.89 531.253 622.467 531.253 L 655.13 531.253 C 656.224 531.253 657.043 530.526 657.543 529.622 L 658.054 529.622 L 658.054 528.365 L 658.054 503.893 C 658.054 502.301 656.742 501.003 655.164 501.003 L 622.467 501.003 Z M 622.467 503.484 L 655.164 503.484 C 655.435 503.484 655.572 503.69 655.572 503.893 L 655.572 527.143 L 655.572 528.365 C 655.572 528.568 655.402 528.737 655.13 528.737 L 622.467 528.737 C 622.195 528.737 622.026 528.568 622.026 528.365 L 622.026 503.893 C 622.026 503.69 622.196 503.484 622.467 503.484 Z" style="fill: rgb(30, 30, 30);" transform="matrix(0.965926, -0.258819, 0.258819, 0.965926, -111.817249, 182.92025)"/>
  <path id="path31" d="M 663.21 490.082 C 661.632 490.082 660.286 491.379 660.286 492.972 L 660.286 517.444 C 660.286 519.034 661.632 520.331 663.21 520.331 L 695.905 520.331 C 696.999 520.331 697.787 519.605 698.285 518.701 L 698.829 518.701 L 698.829 517.444 L 698.829 492.972 C 698.829 491.383 697.482 490.082 695.905 490.082 L 663.21 490.082 Z M 663.21 492.563 L 695.905 492.563 C 696.176 492.563 696.315 492.769 696.315 492.972 L 696.315 516.222 L 696.315 517.444 C 696.315 517.649 696.176 517.816 695.905 517.816 L 663.21 517.816 C 662.938 517.816 662.766 517.647 662.766 517.444 L 662.766 492.972 C 662.768 492.769 662.938 492.563 663.21 492.563 Z" style="fill: rgb(30, 30, 30);" transform="matrix(0.965926, -0.258819, 0.258819, 0.965926, -107.601726, 193.096971)"/>
  <path id="path33" d="M 703.164 479.381 C 701.587 479.381 700.243 480.682 700.243 482.271 L 700.243 506.743 C 700.243 508.333 701.587 509.63 703.164 509.63 L 735.859 509.63 C 737.436 509.63 738.749 508.333 738.749 506.743 L 738.749 482.271 C 738.749 480.682 737.436 479.381 735.859 479.381 L 703.164 479.381 Z M 703.164 481.862 L 735.859 481.862 C 736.127 481.862 736.266 482.068 736.266 482.271 L 736.266 506.743 C 736.266 506.948 736.127 507.115 735.859 507.115 L 703.164 507.115 C 702.89 507.115 702.722 506.948 702.722 506.743 L 702.722 482.271 C 702.722 482.068 702.89 481.862 703.164 481.862 Z" style="fill: rgb(30, 30, 30);" transform="matrix(0.965926, -0.258819, 0.258819, 0.965926, -103.471267, 203.069289)"/>
  <path id="path35" d="M 631.233 533.736 C 629.656 533.736 628.311 535.036 628.311 536.625 L 628.311 561.098 C 628.311 562.687 629.656 563.952 631.233 563.952 L 663.896 563.952 C 664.99 563.952 665.809 563.258 666.309 562.353 L 666.82 562.353 L 666.82 561.098 L 666.82 536.625 C 666.82 535.036 665.508 533.736 663.93 533.736 L 631.233 533.736 Z M 631.233 536.218 L 663.93 536.218 C 664.201 536.218 664.338 536.421 664.338 536.625 L 664.338 559.838 L 664.338 561.098 C 664.338 561.299 664.168 561.471 663.896 561.471 L 631.233 561.471 C 630.961 561.471 630.792 561.299 630.792 561.098 L 630.792 536.627 C 630.792 536.421 630.962 536.218 631.233 536.218 Z" style="fill: rgb(30, 30, 30);" transform="matrix(0.965926, -0.258819, 0.258819, 0.965926, -119.986045, 186.303744)"/>
  <path id="path37" d="M 671.977 522.815 C 670.399 522.815 669.053 524.115 669.053 525.704 L 669.053 550.177 C 669.053 551.766 670.399 553.031 671.977 553.031 L 704.672 553.031 C 705.766 553.031 706.554 552.334 707.052 551.432 L 707.596 551.432 L 707.596 550.177 L 707.596 525.704 C 707.596 524.115 706.249 522.815 704.672 522.815 L 671.977 522.815 Z M 671.977 525.297 L 704.672 525.297 C 704.943 525.297 705.082 525.498 705.082 525.704 L 705.082 548.917 L 705.082 550.177 C 705.082 550.378 704.943 550.55 704.672 550.55 L 671.977 550.55 C 671.705 550.55 671.533 550.378 671.533 550.177 L 671.533 525.706 C 671.535 525.5 671.705 525.297 671.977 525.297 Z" style="fill: rgb(30, 30, 30);" transform="matrix(0.965926, -0.258819, 0.258819, 0.965926, -115.770687, 196.480912)"/>
  <path id="path39" d="M 711.931 512.114 C 710.354 512.114 709.01 513.414 709.01 515.003 L 709.01 539.476 C 709.01 541.065 710.354 542.33 711.931 542.33 L 744.626 542.33 C 746.203 542.33 747.516 541.065 747.516 539.476 L 747.516 515.003 C 747.516 513.414 746.203 512.114 744.626 512.114 L 711.931 512.114 Z M 711.931 514.596 L 744.626 514.596 C 744.894 514.596 745.033 514.797 745.033 515.003 L 745.033 539.476 C 745.033 539.677 744.894 539.847 744.626 539.847 L 711.931 539.847 C 711.657 539.847 711.489 539.677 711.489 539.476 L 711.489 515.003 C 711.489 514.797 711.657 514.596 711.931 514.596 Z" style="fill: rgb(30, 30, 30);" transform="matrix(0.965926, -0.258819, 0.258819, 0.965926, -111.640063, 206.452756)"/>
  <path id="rect41" d="M 669.941 556.454 L 669.941 557.71 L 669.941 576.132 L 669.941 577.389 L 671.164 577.389 L 720.007 577.389 L 721.263 577.389 L 721.263 576.132 L 721.263 557.71 L 721.263 556.454 L 720.007 556.454 L 671.164 556.454 L 669.941 556.454 Z M 672.423 558.933 L 718.747 558.933 L 718.747 574.874 L 672.423 574.874 L 672.423 558.933 Z" style="fill: rgb(30, 30, 30);" transform="matrix(0.965926, -0.258819, 0.258819, 0.965926, -123.027914, 199.352203)"/>
  <path id="line47" d="M 550.436 366.092 L 550.436 368.61 L 734.311 368.61 L 734.311 366.092 L 550.436 366.092 Z" style="fill: rgb(30, 30, 30);" transform="matrix(0.965926, -0.258819, 0.258819, 0.965926, -73.189046, 178.775477)"/>
  <path id="line49" d="M 557.659 393.046 L 557.659 395.563 L 741.534 395.563 L 741.534 393.046 L 557.659 393.046 Z" style="fill: rgb(30, 30, 30);" transform="matrix(0.965926, -0.258819, 0.258819, 0.965926, -79.91899, 181.56335)"/>
  <path d="M 623.122 325.75 C 623.071 325.008 622.467 324.43 621.727 324.43 L 621.727 324.43 C 620.982 324.43 620.383 325.008 620.331 325.75 L 620.331 325.75 L 620.247 326.989 L 619.009 326.912 C 613.158 326.547 607.621 325.008 602.635 322.532 L 602.635 322.532 L 601.521 321.98 L 602.07 320.868 C 602.173 320.657 602.221 320.44 602.221 320.23 L 602.221 320.23 C 602.219 319.739 601.973 319.278 601.522 319.017 L 601.522 319.017 C 601.297 318.888 601.069 318.832 600.831 318.832 L 600.831 318.832 C 600.374 318.832 599.923 319.056 599.651 319.467 L 599.651 319.467 L 598.96 320.502 L 597.923 319.812 C 593.182 316.65 589.106 312.573 585.942 307.83 L 585.942 307.83 L 585.253 306.796 L 586.286 306.105 C 586.696 305.832 586.92 305.379 586.92 304.921 L 586.92 304.921 C 586.92 304.687 586.863 304.454 586.735 304.232 L 586.735 304.232 C 586.471 303.778 586.01 303.536 585.519 303.533 L 585.519 303.533 C 585.305 303.533 585.094 303.58 584.891 303.681 L 584.891 303.681 L 583.774 304.235 L 583.221 303.12 C 580.745 298.133 579.208 292.597 578.844 286.746 L 578.844 286.746 L 578.764 285.508 L 580.003 285.426 C 580.745 285.377 581.322 284.773 581.322 284.033 L 581.322 284.033 C 581.322 283.288 580.745 282.684 580.003 282.633 L 580.003 282.633 L 578.764 282.55 L 578.844 281.312 C 579.206 275.46 580.745 269.925 583.22 264.939 L 583.22 264.939 L 583.773 263.829 L 584.885 264.379 C 585.089 264.48 585.307 264.528 585.519 264.528 L 585.519 264.528 C 586.01 264.524 586.474 264.279 586.732 263.83 L 586.732 263.83 C 586.865 263.603 586.92 263.371 586.92 263.134 L 586.92 263.134 C 586.92 262.68 586.696 262.227 586.289 261.957 L 586.289 261.957 L 585.249 261.266 L 585.941 260.231 C 589.102 255.486 593.178 251.408 597.921 248.248 L 597.921 248.248 L 598.957 247.554 L 599.651 248.593 C 599.921 248.999 600.37 249.227 600.828 249.227 L 600.828 249.227 C 601.066 249.227 601.3 249.168 601.522 249.041 L 601.522 249.041 C 601.971 248.78 602.219 248.317 602.219 247.829 L 602.219 247.829 C 602.219 247.611 602.173 247.399 602.073 247.196 L 602.073 247.196 L 601.521 246.08 L 602.635 245.526 C 607.621 243.05 613.158 241.515 619.006 241.146 L 619.006 241.146 L 620.245 241.068 L 620.329 242.31 C 620.383 243.05 620.983 243.632 621.727 243.629 L 621.727 243.629 C 622.464 243.632 623.073 243.051 623.123 242.31 L 623.123 242.31 L 623.206 241.072 L 624.443 241.149 C 630.294 241.515 635.831 243.051 640.818 245.528 L 640.818 245.528 L 641.943 246.086 L 641.372 247.209 C 641.275 247.403 641.228 247.61 641.228 247.83 L 641.228 247.83 C 641.23 248.317 641.475 248.779 641.927 249.041 L 641.927 249.041 C 642.146 249.17 642.384 249.227 642.621 249.227 L 642.621 249.227 C 643.081 249.226 643.527 249 643.799 248.593 L 643.799 248.593 L 644.49 247.554 L 645.53 248.248 C 650.269 251.411 654.345 255.487 657.508 260.228 L 657.508 260.228 L 658.202 261.267 L 657.16 261.959 C 656.753 262.228 656.527 262.677 656.527 263.138 L 656.527 263.138 C 656.527 263.371 656.584 263.606 656.719 263.832 L 656.719 263.832 C 656.975 264.283 657.435 264.526 657.93 264.528 L 657.93 264.528 C 658.146 264.528 658.359 264.481 658.564 264.381 L 658.564 264.381 L 659.675 263.83 L 660.232 264.942 C 662.708 269.929 664.245 275.461 664.608 281.313 L 664.608 281.313 L 664.689 282.554 L 663.451 282.636 C 662.709 282.683 662.13 283.288 662.13 284.033 L 662.13 284.033 C 662.13 284.774 662.706 285.378 663.451 285.429 L 663.451 285.429 L 664.686 285.509 L 664.608 286.75 C 664.245 292.602 662.709 298.136 660.232 303.123 L 660.232 303.123 L 659.675 304.239 L 658.561 303.683 C 658.354 303.58 658.146 303.534 657.93 303.534 L 657.93 303.534 C 657.439 303.537 656.982 303.779 656.716 304.231 L 656.716 304.231 L 655.638 303.61 L 656.711 304.241 C 656.584 304.457 656.527 304.685 656.527 304.924 L 656.527 304.924 C 656.527 305.378 656.755 305.83 657.165 306.102 L 657.165 306.102 L 658.206 306.792 L 657.514 307.831 C 654.349 312.575 650.273 316.65 645.53 319.813 L 645.53 319.813 L 644.493 320.5 L 643.803 319.47 C 643.524 319.054 643.078 318.834 642.624 318.834 L 642.624 318.834 C 642.391 318.834 642.154 318.89 641.924 319.021 L 641.924 319.021 C 641.475 319.28 641.233 319.74 641.228 320.235 L 641.228 320.235 C 641.228 320.446 641.275 320.659 641.379 320.866 L 641.379 320.866 L 641.931 321.981 L 640.818 322.537 C 635.834 325.013 630.297 326.549 624.445 326.913 L 624.445 326.913 L 623.206 326.99 L 623.122 325.75 L 623.122 325.75 Z M 618.131 324.347 C 618.715 322.938 620.097 321.939 621.727 321.939 L 621.727 321.939 C 623.354 321.939 624.736 322.935 625.32 324.347 L 625.32 324.347 C 630.094 323.929 634.621 322.684 638.769 320.753 L 638.769 320.753 C 638.746 320.58 638.735 320.407 638.735 320.233 L 638.735 320.233 C 638.733 318.898 639.43 317.58 640.682 316.861 L 640.682 316.861 C 641.288 316.511 641.961 316.339 642.622 316.339 L 642.622 316.339 C 643.479 316.339 644.318 316.624 645.003 317.153 L 645.003 317.153 C 648.823 314.463 652.158 311.128 654.849 307.309 L 654.849 307.309 C 654.318 306.623 654.032 305.782 654.032 304.924 L 654.032 304.924 C 654.032 304.273 654.198 303.597 654.557 302.987 L 654.557 302.987 L 654.555 302.986 C 655.273 301.739 656.587 301.037 657.927 301.041 L 657.927 301.041 C 658.1 301.041 658.274 301.051 658.448 301.076 L 658.448 301.076 C 660.378 296.926 661.624 292.396 662.045 287.625 L 662.045 287.625 C 660.635 287.041 659.637 285.658 659.637 284.03 L 659.637 284.03 C 659.637 282.403 660.633 281.017 662.045 280.433 L 662.045 280.433 C 661.624 275.662 660.378 271.129 658.447 266.981 L 658.447 266.981 C 658.273 267.003 658.1 267.015 657.927 267.015 L 657.927 267.015 C 656.589 267.019 655.274 266.319 654.557 265.076 L 654.557 265.076 C 654.204 264.467 654.032 263.792 654.032 263.136 L 654.032 263.136 C 654.032 262.278 654.318 261.438 654.846 260.753 L 654.846 260.753 C 652.154 256.933 648.819 253.597 645 250.907 L 645 250.907 C 644.316 251.434 643.475 251.718 642.62 251.718 L 642.62 251.718 C 641.96 251.718 641.286 251.549 640.682 251.197 L 640.682 251.197 C 639.432 250.48 638.733 249.166 638.735 247.829 L 638.735 247.829 C 638.735 247.655 638.748 247.481 638.769 247.306 L 638.769 247.306 C 634.62 245.378 630.089 244.132 625.318 243.711 L 625.318 243.711 C 624.734 245.12 623.354 246.119 621.727 246.12 L 621.727 246.12 C 620.095 246.119 618.714 245.119 618.129 243.711 L 618.129 243.711 C 613.355 244.132 608.826 245.378 604.675 247.309 L 604.675 247.309 C 604.698 247.481 604.709 247.655 604.709 247.829 L 604.709 247.829 C 604.712 249.164 604.013 250.476 602.767 251.197 L 602.767 251.197 C 602.157 251.549 601.486 251.72 600.827 251.718 L 600.827 251.718 C 599.971 251.718 599.13 251.434 598.446 250.907 L 598.446 250.907 C 594.626 253.597 591.292 256.934 588.602 260.756 L 588.602 260.756 C 589.128 261.439 589.412 262.278 589.412 263.134 L 589.412 263.134 C 589.412 263.795 589.241 264.467 588.891 265.075 L 588.891 265.075 C 588.172 266.323 586.858 267.02 585.518 267.017 L 585.518 267.017 C 585.345 267.017 585.172 267.004 584.999 266.981 L 584.999 266.981 C 583.07 271.132 581.823 275.662 581.404 280.434 L 581.404 280.434 C 582.813 281.017 583.809 282.403 583.811 284.033 L 583.811 284.033 C 583.811 285.659 582.814 287.041 581.405 287.627 L 581.405 287.627 C 581.826 292.398 583.071 296.927 585.001 301.077 L 585.001 301.077 C 585.173 301.052 585.346 301.041 585.519 301.041 L 585.519 301.041 C 586.858 301.039 588.169 301.739 588.893 302.987 L 588.893 302.987 C 589.245 303.597 589.412 304.267 589.412 304.925 L 589.412 304.925 C 589.412 305.783 589.128 306.623 588.6 307.306 L 588.6 307.306 C 591.292 311.127 594.624 314.463 598.446 317.153 L 598.446 317.153 C 599.13 316.625 599.971 316.34 600.828 316.34 L 600.828 316.34 C 601.482 316.34 602.159 316.508 602.768 316.862 L 602.768 316.862 C 604.014 317.58 604.711 318.896 604.708 320.232 L 604.708 320.232 C 604.708 320.407 604.696 320.58 604.673 320.754 L 604.673 320.754 C 608.831 322.681 613.36 323.929 618.131 324.347 L 618.131 324.347 Z" style="fill: rgb(30, 30, 30);" transform="matrix(0.965926, -0.258819, 0.258819, 0.965926, -52.327289, 170.592687)"/>
  <path id="circle55" d="M 621.737 211.405 C 581.644 211.405 549.104 243.944 549.104 284.039 C 549.104 324.133 581.642 356.669 621.737 356.669 C 661.834 356.669 694.336 324.133 694.336 284.039 C 694.336 243.944 661.832 211.405 621.737 211.405 Z M 621.737 213.886 C 660.486 213.886 691.853 245.29 691.853 284.039 C 691.853 322.785 660.486 354.155 621.737 354.155 C 582.99 354.155 551.586 322.785 551.586 284.039 C 551.586 245.29 582.989 213.886 621.737 213.886 Z" style="fill: rgb(30, 30, 30);" transform="matrix(0.965926, -0.258819, 0.258819, 0.965926, -52.329579, 170.591272)"/>
  <path id="circle57" d="M 621.733 220.617 C 586.73 220.617 558.311 249.035 558.311 284.039 C 558.311 319.041 586.73 347.426 621.733 347.426 C 656.736 347.426 685.121 319.039 685.121 284.039 C 685.121 249.035 656.736 220.617 621.733 220.617 Z M 621.733 223.131 C 655.391 223.131 682.639 250.38 682.639 284.039 C 682.639 317.694 655.392 344.944 621.733 344.944 C 588.076 344.944 560.793 317.694 560.793 284.039 C 560.792 250.38 588.076 223.131 621.733 223.131 Z" style="fill: rgb(30, 30, 30);" transform="matrix(0.965926, -0.258819, 0.258819, 0.965926, -52.325706, 170.589695)"/>
  <path id="circle59" d="M 621.737 252.904 C 604.553 252.904 590.571 266.853 590.571 284.038 C 590.571 301.221 604.553 315.169 621.737 315.169 C 638.921 315.169 652.871 301.221 652.871 284.038 C 652.871 266.853 638.921 252.904 621.737 252.904 Z M 621.737 255.384 C 637.577 255.384 650.39 268.199 650.39 284.038 C 650.39 299.876 637.577 312.689 621.737 312.689 C 605.9 312.689 593.085 299.876 593.085 284.038 C 593.085 268.199 605.9 255.384 621.737 255.384 Z" style="fill: rgb(30, 30, 30);" transform="matrix(0.965926, -0.258819, 0.258819, 0.965926, -52.329421, 170.591506)"/>
  <path id="rect61" d="M 506.874 147.956 L 506.874 149.179 L 506.874 207.639 L 506.874 208.897 L 508.133 208.897 L 674.877 208.897 L 676.136 208.897 L 676.136 207.639 L 676.136 149.18 L 676.136 147.958 L 674.877 147.958 L 508.133 147.958 L 506.874 147.958 Z M 509.356 150.438 L 673.619 150.438 L 673.619 206.415 L 509.356 206.415 L 509.356 150.438 Z" style="fill: rgb(30, 30, 30);" transform="matrix(0.965926, -0.258819, 0.258819, 0.965926, -26.025129, 159.172464)"/>
  <path id="rect63" d="M 512.875 154.489 L 512.875 155.745 L 512.875 196.939 L 512.875 198.196 L 514.133 198.196 L 667.758 198.196 L 669.016 198.196 L 669.016 196.939 L 669.016 155.745 L 669.016 154.489 L 667.758 154.489 L 514.133 154.489 L 512.875 154.489 Z M 515.357 157.003 L 666.501 157.003 L 666.501 195.681 L 515.357 195.681 L 515.357 157.003 Z" style="fill: rgb(30, 30, 30);" transform="matrix(0.965926, -0.258819, 0.258819, 0.965926, -25.50482, 158.956651)"/>
  <path id="line65" d="M 493.343 165.768 L 492.051 167.91 L 502.249 174.231 L 503.574 172.09 L 493.343 165.768 Z" style="fill: rgb(30, 30, 30);" transform="matrix(0.965926, -0.258819, 0.258819, 0.965926, -27.036561, 134.635925)"/>
  <path id="line67" d="M 504.982 169.916 L 503.25 171.683 L 509.809 178.174 L 511.54 176.407 L 504.982 169.916 Z" style="fill: rgb(30, 30, 30);" transform="matrix(0.965926, -0.258819, 0.258819, 0.965926, -27.757091, 137.253911)"/>
  <path id="line69" d="M 672.864 120.067 L 662.803 126.355 L 664.13 128.462 L 674.19 122.175 L 672.864 120.067 Z" style="fill: rgb(30, 30, 30);" transform="matrix(0.965926, -0.258819, 0.258819, 0.965926, -9.383557, 177.253793)"/>
  <path id="line71" d="M 664.271 128.517 L 657.984 134.975 L 659.752 136.742 L 666.073 130.25 L 664.271 128.517 Z" style="fill: rgb(30, 30, 30);" transform="matrix(0.965926, -0.258819, 0.258819, 0.965926, -11.768973, 175.864714)"/>
  <path id="line73" d="M 672.793 174.716 L 670.65 176.009 L 676.971 186.612 L 679.112 185.354 L 672.793 174.716 Z" style="fill: rgb(30, 30, 30);" transform="matrix(0.965926, -0.258819, 0.258819, 0.965926, -23.763276, 180.827995)"/>
  <path id="line75" d="M 522.506 216.141 L 515.947 226.915 L 518.088 228.242 L 524.648 217.434 L 522.506 216.141 Z" style="fill: rgb(30, 30, 30);" transform="matrix(0.965926, -0.258819, 0.258819, 0.965926, -39.778683, 142.233864)"/>
  <path id="path77" d="M 686.552 145.07 L 686.552 147.55 L 689.305 147.55 C 689.728 147.55 690.063 147.631 690.255 147.824 C 690.452 148.015 690.781 148.544 690.564 150.135 C 690.411 151.23 690.244 153.923 690.053 157.679 C 689.86 161.437 689.644 166.136 689.441 170.832 C 689.037 180.225 688.671 189.722 688.557 191.326 C 688.429 193.11 688.343 194.652 688.014 195.575 C 687.689 196.498 687.436 196.889 686.042 197.036 L 686.315 199.484 C 688.41 199.26 689.814 197.962 690.36 196.425 C 690.904 194.886 690.919 193.199 691.038 191.496 C 691.176 189.61 691.52 180.354 691.924 170.967 C 692.125 166.273 692.346 161.556 692.535 157.813 C 692.727 154.071 692.912 151.183 693.011 150.472 C 693.29 148.454 692.924 146.951 692.023 146.054 C 691.128 145.156 690.006 145.069 689.307 145.069 L 686.552 145.069 Z" style="fill: rgb(30, 30, 30);" transform="matrix(0.965926, -0.258819, 0.258819, 0.965926, -21.091829, 184.344601)"/>
  <path id="path79" d="M 503.473 195.007 C 502.773 195.007 501.651 195.094 500.753 195.991 C 499.857 196.89 499.489 198.391 499.768 200.411 C 499.866 201.123 500.054 204.009 500.244 207.752 C 500.436 211.495 500.655 216.213 500.855 220.904 C 501.261 230.291 501.606 239.55 501.738 241.434 C 501.861 243.138 501.874 244.826 502.42 246.364 C 502.964 247.899 504.368 249.197 506.464 249.422 L 506.736 246.974 C 505.343 246.826 505.092 246.435 504.765 245.513 C 504.437 244.589 504.349 243.049 504.221 241.265 C 504.108 239.661 503.743 230.163 503.338 220.77 C 503.137 216.073 502.916 211.374 502.726 207.616 C 502.534 203.861 502.367 201.167 502.216 200.073 C 501.997 198.482 502.329 197.953 502.522 197.762 C 502.715 197.568 503.051 197.489 503.473 197.489 L 506.225 197.489 L 506.225 195.008 L 503.473 195.008 Z" style="fill: rgb(30, 30, 30);" transform="matrix(0.965926, -0.258819, 0.258819, 0.965926, -40.367007, 137.811115)"/>
  <rect x="362.053" y="449.435" width="14.309" height="5.098" style="fill: rgb(30, 30, 30);" transform="matrix(0.965927, -0.258823, 0.258821, 0.965914, 186.414647, 233.708218)"/>
  <rect x="434.495" y="449.435" width="14.309" height="5.098" style="fill: rgb(30, 30, 30);" transform="matrix(0.965927, -0.258819, 0.258821, 0.965926, 186.417533, 233.700437)"/>
</svg>