<?xml version="1.0" encoding="utf-8"?>
<svg version="1.2" baseProfile="tiny" id="Layer_3" x="0px" y="0px" preserveAspectRatio="none" xmlns="http://www.w3.org/2000/svg">
  <path id="polyline3" d="M 509.406 130.928 L 509.406 131.711 L 510.338 292.434 L 511.908 292.434 L 510.974 132.475 L 625.996 132.475 L 625.063 292.434 L 626.61 292.434 L 627.544 131.711 L 627.544 130.928 L 626.781 130.928 L 510.191 130.928 L 509.406 130.928 Z" style="fill: rgb(30, 30, 30);" transform="matrix(0.965926, -0.258819, 0.258819, 0.965926, -35.416775, 154.345211)"/>
  <path id="polyline5" d="M 549.252 297.072 L 547.704 297.242 L 560.768 414.131 L 560.852 414.829 L 561.552 414.829 L 590.731 414.829 L 590.731 413.283 L 562.229 413.283 L 549.252 297.072 Z" style="fill: rgb(30, 30, 30);" transform="matrix(0.965926, -0.258819, 0.258819, 0.965926, -72.731125, 159.452975)"/>
  <path id="polyline7" d="M 659.933 278.109 L 646.954 394.319 L 618.497 394.319 L 618.497 395.866 L 647.656 395.866 L 648.355 395.866 L 648.419 395.167 L 661.481 278.278 L 659.933 278.109 L 659.933 278.109 Z" style="fill: rgb(30, 30, 30);" transform="matrix(0.965926, -0.258819, 0.258819, 0.965926, -65.411667, 177.123828)"/>
  <path id="path9" d="M 561.284 313.978 C 560.3 313.978 559.46 314.765 559.46 315.759 L 559.46 331.049 C 559.46 332.041 560.3 332.829 561.284 332.829 L 581.663 332.829 C 582.346 332.829 582.857 332.399 583.169 331.833 L 583.487 331.833 L 583.487 331.049 L 583.487 315.759 C 583.487 314.765 582.669 313.978 581.684 313.978 L 561.284 313.978 Z M 561.284 315.525 L 581.684 315.525 C 581.853 315.525 581.939 315.633 581.939 315.759 L 581.939 330.264 L 581.939 331.049 C 581.939 331.174 581.833 331.282 581.663 331.282 L 561.284 331.282 C 561.114 331.282 561.008 331.174 561.008 331.049 L 561.008 315.759 C 561.008 315.633 561.115 315.525 561.284 315.525 Z" style="fill: rgb(30, 30, 30);" transform="matrix(0.965926, -0.258819, 0.258819, 0.965926, -64.230558, 158.92815)"/>
  <path id="path13" stroke-width="1.8313" d="M 533.32 171.163 C 533.32 171.555 532.992 171.873 532.588 171.873 L 511.131 171.873 C 510.725 171.873 510.397 171.555 510.397 171.163 L 510.397 154.849 C 510.397 154.456 510.725 154.14 511.131 154.14 L 532.588 154.14 C 532.992 154.14 533.32 154.458 533.32 154.849 L 533.32 171.163 Z" style="fill: none; stroke: rgb(30, 30, 30);" transform="matrix(0.965926, -0.258819, 0.258819, 0.965926, -24.407286, 140.621177)"/>
  <path id="path15" stroke-width="1.8313" d="M 564.651 162.767 C 564.651 163.159 564.322 163.477 563.917 163.477 L 542.461 163.477 C 542.057 163.477 541.729 163.159 541.729 162.767 L 541.729 146.454 C 541.729 146.061 542.057 145.745 542.461 145.745 L 563.917 145.745 C 564.323 145.745 564.651 146.062 564.651 146.454 L 564.651 162.767 Z" style="fill: none; stroke: rgb(30, 30, 30);" transform="matrix(0.965926, -0.258819, 0.258819, 0.965926, -21.166777, 148.444288)"/>
  <path id="path17" stroke-width="1.8313" d="M 595.983 154.373 C 595.983 154.765 595.654 155.083 595.25 155.083 L 573.792 155.083 C 573.388 155.083 573.058 154.765 573.058 154.373 L 573.058 138.059 C 573.058 137.666 573.388 137.35 573.792 137.35 L 595.249 137.35 C 595.654 137.35 595.982 137.668 595.982 138.059 L 595.982 154.373 Z" style="fill: none; stroke: rgb(30, 30, 30);" transform="matrix(0.965926, -0.258819, 0.258819, 0.965926, -17.92656, 156.267169)"/>
  <path id="path19" d="M 586.704 307.164 C 585.72 307.164 584.88 307.951 584.88 308.945 L 584.88 324.235 C 584.88 325.227 585.72 326.015 586.704 326.015 L 607.104 326.015 C 607.786 326.015 608.278 325.584 608.589 325.019 L 608.928 325.019 L 608.928 324.235 L 608.928 308.945 C 608.928 307.953 608.088 307.164 607.104 307.164 L 586.704 307.164 Z M 586.704 308.711 L 607.104 308.711 C 607.273 308.711 607.36 308.818 607.36 308.945 L 607.36 323.45 L 607.36 324.235 C 607.36 324.361 607.273 324.468 607.104 324.468 L 586.704 324.468 C 586.535 324.468 586.427 324.36 586.427 324.235 L 586.427 308.945 C 586.429 308.819 586.535 308.711 586.704 308.711 Z" style="fill: rgb(30, 30, 30);" transform="matrix(0.965926, -0.258819, 0.258819, 0.965926, -61.600366, 165.27756)"/>
  <path id="path21" d="M 611.633 300.486 C 610.649 300.486 609.81 301.275 609.81 302.267 L 609.81 317.557 C 609.81 318.549 610.649 319.338 611.633 319.338 L 632.032 319.338 C 633.016 319.338 633.836 318.549 633.836 317.557 L 633.836 302.267 C 633.836 301.275 633.016 300.486 632.032 300.486 L 611.633 300.486 Z M 611.633 302.034 L 632.032 302.034 C 632.2 302.034 632.286 302.14 632.286 302.267 L 632.286 317.557 C 632.286 317.683 632.2 317.79 632.032 317.79 L 611.633 317.79 C 611.462 317.79 611.357 317.683 611.357 317.557 L 611.357 302.267 C 611.357 302.14 611.462 302.034 611.633 302.034 Z" style="fill: rgb(30, 30, 30);" transform="matrix(0.965926, -0.258819, 0.258819, 0.965926, -59.022999, 171.499553)"/>
  <path id="path23" d="M 567.294 336.408 C 566.31 336.408 565.471 337.196 565.471 338.188 L 565.471 353.478 C 565.471 354.471 566.31 355.26 567.294 355.26 L 587.673 355.26 C 588.358 355.26 588.869 354.812 589.179 354.243 L 589.498 354.243 L 589.498 353.48 L 589.498 338.189 C 589.498 337.196 588.679 336.409 587.695 336.409 L 567.294 336.409 Z M 567.294 337.955 L 587.695 337.955 C 587.864 337.955 587.949 338.062 587.949 338.187 L 587.949 352.693 L 587.949 353.478 C 587.949 353.605 587.843 353.71 587.673 353.71 L 567.294 353.71 C 567.124 353.71 567.019 353.605 567.019 353.478 L 567.019 338.187 C 567.019 338.062 567.125 337.955 567.294 337.955 Z" style="fill: rgb(30, 30, 30);" transform="matrix(0.965926, -0.258819, 0.258819, 0.965926, -69.831093, 161.247918)"/>
  <path id="path25" d="M 592.715 329.594 C 591.73 329.594 590.89 330.382 590.89 331.374 L 590.89 346.664 C 590.89 347.657 591.73 348.446 592.715 348.446 L 613.114 348.446 C 613.799 348.446 614.29 347.996 614.599 347.429 L 614.938 347.429 L 614.938 346.666 L 614.938 331.375 C 614.938 330.383 614.098 329.595 613.114 329.595 L 592.715 329.595 Z M 592.715 331.141 L 613.114 331.141 C 613.283 331.141 613.37 331.248 613.37 331.373 L 613.37 345.879 L 613.37 346.664 C 613.37 346.792 613.283 346.896 613.114 346.896 L 592.715 346.896 C 592.545 346.896 592.438 346.791 592.438 346.664 L 592.438 331.373 C 592.439 331.248 592.545 331.141 592.715 331.141 Z" style="fill: rgb(30, 30, 30);" transform="matrix(0.965926, -0.258819, 0.258819, 0.965926, -67.201017, 167.597376)"/>
  <path id="path27" d="M 617.643 322.916 C 616.659 322.916 615.821 323.706 615.821 324.697 L 615.821 339.986 C 615.821 340.979 616.659 341.769 617.643 341.769 L 638.043 341.769 C 639.027 341.769 639.846 340.979 639.846 339.986 L 639.846 324.697 C 639.846 323.706 639.027 322.916 638.043 322.916 L 617.643 322.916 Z M 617.643 324.463 L 638.043 324.463 C 638.21 324.463 638.297 324.57 638.297 324.696 L 638.297 339.986 C 638.297 340.115 638.21 340.219 638.043 340.219 L 617.643 340.219 C 617.472 340.219 617.368 340.115 617.368 339.986 L 617.368 324.696 C 617.368 324.57 617.472 324.463 617.643 324.463 Z" style="fill: rgb(30, 30, 30);" transform="matrix(0.965926, -0.258819, 0.258819, 0.965926, -64.623643, 173.819479)"/>
  <path id="path29" d="M 572.845 357.115 C 571.861 357.115 571.022 357.924 571.022 358.918 L 571.022 374.187 C 571.022 375.179 571.861 375.988 572.845 375.988 L 593.224 375.988 C 593.907 375.988 594.418 375.535 594.73 374.971 L 595.049 374.971 L 595.049 374.187 L 595.049 358.918 C 595.049 357.924 594.23 357.115 593.246 357.115 L 572.845 357.115 Z M 572.845 358.663 L 593.246 358.663 C 593.415 358.663 593.5 358.791 593.5 358.918 L 593.5 373.424 L 593.5 374.187 C 593.5 374.313 593.394 374.419 593.224 374.419 L 572.845 374.419 C 572.675 374.419 572.57 374.313 572.57 374.187 L 572.57 358.918 C 572.57 358.791 572.676 358.663 572.845 358.663 Z" style="fill: rgb(30, 30, 30);" transform="matrix(0.965926, -0.258819, 0.258819, 0.965926, -75.004037, 163.390557)"/>
  <path id="path31" d="M 598.266 350.301 C 597.281 350.301 596.441 351.11 596.441 352.104 L 596.441 367.373 C 596.441 368.365 597.281 369.174 598.266 369.174 L 618.665 369.174 C 619.348 369.174 619.839 368.721 620.15 368.157 L 620.49 368.157 L 620.49 367.373 L 620.49 352.104 C 620.49 351.112 619.649 350.301 618.665 350.301 L 598.266 350.301 Z M 598.266 351.849 L 618.665 351.849 C 618.834 351.849 618.921 351.977 618.921 352.104 L 618.921 366.61 L 618.921 367.373 C 618.921 367.5 618.834 367.605 618.665 367.605 L 598.266 367.605 C 598.096 367.605 597.989 367.499 597.989 367.373 L 597.989 352.104 C 597.99 351.977 598.096 351.849 598.266 351.849 Z" style="fill: rgb(30, 30, 30);" transform="matrix(0.965926, -0.258819, 0.258819, 0.965926, -72.373931, 169.740121)"/>
  <path id="path33" d="M 623.194 343.624 C 622.21 343.624 621.372 344.436 621.372 345.427 L 621.372 360.696 C 621.372 361.688 622.21 362.497 623.194 362.497 L 643.594 362.497 C 644.578 362.497 645.397 361.688 645.397 360.696 L 645.397 345.427 C 645.397 344.436 644.578 343.624 643.594 343.624 L 623.194 343.624 Z M 623.194 345.172 L 643.594 345.172 C 643.761 345.172 643.848 345.3 643.848 345.427 L 643.848 360.696 C 643.848 360.824 643.761 360.928 643.594 360.928 L 623.194 360.928 C 623.023 360.928 622.919 360.824 622.919 360.696 L 622.919 345.427 C 622.919 345.3 623.023 345.172 623.194 345.172 Z" style="fill: rgb(30, 30, 30);" transform="matrix(0.965926, -0.258819, 0.258819, 0.965926, -69.796704, 175.962132)"/>
  <path id="path35" d="M 578.314 377.538 C 577.33 377.538 576.491 378.349 576.491 379.34 L 576.491 394.61 C 576.491 395.601 577.33 396.39 578.314 396.39 L 598.694 396.39 C 599.376 396.39 599.887 395.957 600.199 395.393 L 600.518 395.393 L 600.518 394.61 L 600.518 379.34 C 600.518 378.349 599.7 377.538 598.715 377.538 L 578.314 377.538 Z M 578.314 379.086 L 598.715 379.086 C 598.884 379.086 598.97 379.213 598.97 379.34 L 598.97 393.823 L 598.97 394.61 C 598.97 394.735 598.864 394.842 598.694 394.842 L 578.314 394.842 C 578.145 394.842 578.039 394.735 578.039 394.61 L 578.039 379.341 C 578.039 379.213 578.145 379.086 578.314 379.086 Z" style="fill: rgb(30, 30, 30);" transform="matrix(0.965926, -0.258819, 0.258819, 0.965926, -80.100818, 165.501572)"/>
  <path id="path37" d="M 603.736 370.724 C 602.751 370.724 601.911 371.535 601.911 372.526 L 601.911 387.796 C 601.911 388.787 602.751 389.576 603.736 389.576 L 624.135 389.576 C 624.818 389.576 625.309 389.142 625.62 388.579 L 625.96 388.579 L 625.96 387.796 L 625.96 372.526 C 625.96 371.535 625.119 370.724 624.135 370.724 L 603.736 370.724 Z M 603.736 372.272 L 624.135 372.272 C 624.304 372.272 624.391 372.398 624.391 372.526 L 624.391 387.01 L 624.391 387.796 C 624.391 387.921 624.304 388.028 624.135 388.028 L 603.736 388.028 C 603.566 388.028 603.459 387.921 603.459 387.796 L 603.459 372.528 C 603.46 372.399 603.566 372.272 603.736 372.272 Z" style="fill: rgb(30, 30, 30);" transform="matrix(0.965926, -0.258819, 0.258819, 0.965926, -77.470689, 171.851433)"/>
  <path id="path39" d="M 628.664 364.047 C 627.68 364.047 626.842 364.858 626.842 365.849 L 626.842 381.119 C 626.842 382.11 627.68 382.9 628.664 382.9 L 649.064 382.9 C 650.048 382.9 650.867 382.11 650.867 381.119 L 650.867 365.849 C 650.867 364.858 650.048 364.047 649.064 364.047 L 628.664 364.047 Z M 628.664 365.595 L 649.064 365.595 C 649.231 365.595 649.318 365.721 649.318 365.849 L 649.318 381.119 C 649.318 381.244 649.231 381.35 649.064 381.35 L 628.664 381.35 C 628.493 381.35 628.389 381.244 628.389 381.119 L 628.389 365.849 C 628.389 365.721 628.493 365.595 628.664 365.595 Z" style="fill: rgb(30, 30, 30);" transform="matrix(0.965926, -0.258819, 0.258819, 0.965926, -74.893597, 178.073431)"/>
  <path id="rect41" d="M 602.466 391.712 L 602.466 392.496 L 602.466 403.99 L 602.466 404.774 L 603.229 404.774 L 633.703 404.774 L 634.487 404.774 L 634.487 403.99 L 634.487 392.496 L 634.487 391.712 L 633.703 391.712 L 603.229 391.712 L 602.466 391.712 Z M 604.014 393.259 L 632.917 393.259 L 632.917 403.205 L 604.014 403.205 L 604.014 393.259 Z" style="fill: rgb(30, 30, 30);" transform="matrix(0.965926, -0.258819, 0.258819, 0.965926, -81.998767, 173.643205)"/>
  <path id="line47" d="M 527.903 272.939 L 527.903 274.51 L 642.628 274.51 L 642.628 272.939 L 527.903 272.939 Z" style="fill: rgb(30, 30, 30);" transform="matrix(0.965926, -0.258819, 0.258819, 0.965926, -50.902659, 160.804715)"/>
  <path id="line49" d="M 532.409 289.757 L 532.409 291.327 L 647.135 291.327 L 647.135 289.757 L 532.409 289.757 Z" style="fill: rgb(30, 30, 30);" transform="matrix(0.965926, -0.258819, 0.258819, 0.965926, -55.101797, 162.544112)"/>
  <path d="M 573.254 247.769 C 573.222 247.306 572.845 246.945 572.383 246.945 L 572.383 246.945 C 571.919 246.945 571.545 247.306 571.512 247.769 L 571.512 247.769 L 571.46 248.542 L 570.688 248.494 C 567.037 248.266 563.582 247.306 560.471 245.761 L 560.471 245.761 L 559.776 245.417 L 560.119 244.723 C 560.183 244.591 560.213 244.456 560.213 244.325 L 560.213 244.325 C 560.212 244.018 560.058 243.731 559.777 243.568 L 559.777 243.568 C 559.636 243.487 559.494 243.452 559.346 243.452 L 559.346 243.452 C 559.061 243.452 558.779 243.592 558.609 243.849 L 558.609 243.849 L 558.178 244.494 L 557.531 244.064 C 554.573 242.091 552.03 239.547 550.056 236.588 L 550.056 236.588 L 549.626 235.943 L 550.271 235.512 C 550.526 235.341 550.666 235.059 550.666 234.773 L 550.666 234.773 C 550.666 234.627 550.631 234.482 550.551 234.343 L 550.551 234.343 C 550.386 234.06 550.098 233.909 549.792 233.907 L 549.792 233.907 C 549.659 233.907 549.527 233.936 549.4 233.999 L 549.4 233.999 L 548.703 234.345 L 548.358 233.649 C 546.813 230.538 545.854 227.084 545.627 223.433 L 545.627 223.433 L 545.577 222.661 L 546.35 222.609 C 546.813 222.579 547.173 222.202 547.173 221.74 L 547.173 221.74 C 547.173 221.275 546.813 220.899 546.35 220.867 L 546.35 220.867 L 545.577 220.815 L 545.627 220.043 C 545.853 216.391 546.813 212.938 548.358 209.827 L 548.358 209.827 L 548.703 209.134 L 549.396 209.477 C 549.524 209.541 549.66 209.57 549.792 209.57 L 549.792 209.57 C 550.098 209.568 550.388 209.415 550.549 209.135 L 550.549 209.135 C 550.632 208.993 550.666 208.849 550.666 208.701 L 550.666 208.701 C 550.666 208.417 550.526 208.135 550.272 207.966 L 550.272 207.966 L 549.624 207.535 L 550.055 206.889 C 552.028 203.929 554.571 201.384 557.53 199.413 L 557.53 199.413 L 558.176 198.98 L 558.609 199.628 C 558.778 199.881 559.058 200.024 559.344 200.024 L 559.344 200.024 C 559.492 200.024 559.638 199.987 559.777 199.908 L 559.777 199.908 C 560.057 199.745 560.212 199.456 560.212 199.151 L 560.212 199.151 C 560.212 199.015 560.183 198.883 560.121 198.756 L 560.121 198.756 L 559.776 198.06 L 560.471 197.715 C 563.582 196.17 567.037 195.212 570.686 194.982 L 570.686 194.982 L 571.459 194.933 L 571.511 195.708 C 571.545 196.17 571.919 196.533 572.383 196.531 L 572.383 196.531 C 572.843 196.533 573.223 196.17 573.254 195.708 L 573.254 195.708 L 573.306 194.936 L 574.078 194.984 C 577.729 195.212 581.183 196.17 584.295 197.716 L 584.295 197.716 L 584.997 198.064 L 584.64 198.765 C 584.58 198.886 584.551 199.015 584.551 199.152 L 584.551 199.152 C 584.552 199.456 584.705 199.744 584.987 199.908 L 584.987 199.908 C 585.123 199.988 585.272 200.024 585.42 200.024 L 585.42 200.024 C 585.707 200.023 585.985 199.882 586.155 199.628 L 586.155 199.628 L 586.586 198.98 L 587.235 199.413 C 590.192 201.386 592.735 203.929 594.708 206.888 L 594.708 206.888 L 595.141 207.536 L 594.491 207.968 C 594.237 208.135 594.096 208.416 594.096 208.703 L 594.096 208.703 C 594.096 208.849 594.132 208.995 594.216 209.136 L 594.216 209.136 C 594.376 209.418 594.663 209.569 594.971 209.57 L 594.971 209.57 C 595.106 209.57 595.239 209.541 595.367 209.479 L 595.367 209.479 L 596.06 209.135 L 596.408 209.829 C 597.953 212.94 598.912 216.392 599.138 220.043 L 599.138 220.043 L 599.189 220.817 L 598.416 220.869 C 597.953 220.898 597.592 221.275 597.592 221.74 L 597.592 221.74 C 597.592 222.203 597.951 222.579 598.416 222.611 L 598.416 222.611 L 599.187 222.661 L 599.138 223.435 C 598.912 227.087 597.953 230.54 596.408 233.651 L 596.408 233.651 L 596.06 234.347 L 595.365 234 C 595.236 233.936 595.106 233.907 594.971 233.907 L 594.971 233.907 C 594.665 233.909 594.38 234.06 594.214 234.342 L 594.214 234.342 L 593.541 233.955 L 594.211 234.349 C 594.132 234.483 594.096 234.626 594.096 234.775 L 594.096 234.775 C 594.096 235.058 594.238 235.34 594.494 235.51 L 594.494 235.51 L 595.144 235.94 L 594.712 236.589 C 592.737 239.548 590.194 242.091 587.235 244.064 L 587.235 244.064 L 586.588 244.493 L 586.157 243.85 C 585.983 243.591 585.705 243.454 585.422 243.454 L 585.422 243.454 C 585.276 243.454 585.128 243.489 584.985 243.57 L 584.985 243.57 C 584.705 243.732 584.554 244.019 584.551 244.328 L 584.551 244.328 C 584.551 244.459 584.58 244.592 584.645 244.721 L 584.645 244.721 L 584.989 245.417 L 584.295 245.764 C 581.185 247.309 577.73 248.267 574.079 248.494 L 574.079 248.494 L 573.306 248.542 L 573.254 247.769 L 573.254 247.769 Z M 570.14 246.893 C 570.504 246.014 571.366 245.391 572.383 245.391 L 572.383 245.391 C 573.398 245.391 574.261 246.012 574.625 246.893 L 574.625 246.893 C 577.604 246.633 580.428 245.856 583.016 244.651 L 583.016 244.651 C 583.002 244.543 582.995 244.435 582.995 244.327 L 582.995 244.327 C 582.994 243.494 583.429 242.671 584.21 242.223 L 584.21 242.223 C 584.588 242.004 585.008 241.897 585.42 241.897 L 585.42 241.897 C 585.955 241.897 586.479 242.075 586.906 242.405 L 586.906 242.405 C 589.289 240.726 591.37 238.646 593.049 236.263 L 593.049 236.263 C 592.718 235.835 592.539 235.31 592.539 234.775 L 592.539 234.775 C 592.539 234.369 592.643 233.947 592.867 233.566 L 592.867 233.566 L 592.866 233.566 C 593.314 232.788 594.134 232.35 594.97 232.352 L 594.97 232.352 C 595.078 232.352 595.186 232.358 595.295 232.374 L 595.295 232.374 C 596.499 229.785 597.276 226.958 597.539 223.981 L 597.539 223.981 C 596.659 223.617 596.037 222.754 596.037 221.738 L 596.037 221.738 C 596.037 220.723 596.658 219.858 597.539 219.494 L 597.539 219.494 C 597.276 216.517 596.499 213.689 595.294 211.101 L 595.294 211.101 C 595.185 211.115 595.078 211.122 594.97 211.122 L 594.97 211.122 C 594.135 211.125 593.314 210.688 592.867 209.912 L 592.867 209.912 C 592.647 209.532 592.539 209.111 592.539 208.702 L 592.539 208.702 C 592.539 208.167 592.718 207.642 593.047 207.215 L 593.047 207.215 C 591.368 204.832 589.287 202.75 586.904 201.072 L 586.904 201.072 C 586.477 201.401 585.953 201.578 585.419 201.578 L 585.419 201.578 C 585.007 201.578 584.587 201.472 584.21 201.253 L 584.21 201.253 C 583.43 200.805 582.994 199.986 582.995 199.151 L 582.995 199.151 C 582.995 199.043 583.003 198.934 583.016 198.825 L 583.016 198.825 C 580.428 197.622 577.601 196.845 574.624 196.582 L 574.624 196.582 C 574.26 197.461 573.398 198.085 572.383 198.085 L 572.383 198.085 C 571.365 198.085 570.503 197.461 570.138 196.582 L 570.138 196.582 C 567.16 196.845 564.334 197.622 561.744 198.827 L 561.744 198.827 C 561.758 198.934 561.765 199.043 561.765 199.151 L 561.765 199.151 C 561.767 199.984 561.331 200.803 560.554 201.253 L 560.554 201.253 C 560.173 201.472 559.754 201.579 559.343 201.578 L 559.343 201.578 C 558.809 201.578 558.284 201.401 557.858 201.072 L 557.858 201.072 C 555.474 202.75 553.394 204.832 551.716 207.217 L 551.716 207.217 C 552.044 207.643 552.221 208.167 552.221 208.701 L 552.221 208.701 C 552.221 209.113 552.114 209.532 551.896 209.912 L 551.896 209.912 C 551.447 210.69 550.628 211.125 549.791 211.123 L 549.791 211.123 C 549.683 211.123 549.576 211.115 549.468 211.101 L 549.468 211.101 C 548.264 213.691 547.486 216.517 547.225 219.495 L 547.225 219.495 C 548.104 219.858 548.725 220.723 548.726 221.74 L 548.726 221.74 C 548.726 222.755 548.104 223.617 547.225 223.983 L 547.225 223.983 C 547.488 226.959 548.265 229.785 549.469 232.374 L 549.469 232.374 C 549.576 232.359 549.684 232.352 549.792 232.352 L 549.792 232.352 C 550.628 232.351 551.445 232.788 551.897 233.566 L 551.897 233.566 C 552.117 233.947 552.221 234.365 552.221 234.775 L 552.221 234.775 C 552.221 235.311 552.044 235.835 551.714 236.261 L 551.714 236.261 C 553.394 238.645 555.473 240.726 557.858 242.405 L 557.858 242.405 C 558.284 242.075 558.809 241.898 559.344 241.898 L 559.344 241.898 C 559.752 241.898 560.174 242.002 560.554 242.223 L 560.554 242.223 C 561.332 242.671 561.767 243.492 561.765 244.326 L 561.765 244.326 C 561.765 244.435 561.757 244.543 561.743 244.652 L 561.743 244.652 C 564.337 245.854 567.163 246.633 570.14 246.893 L 570.14 246.893 Z" style="fill: rgb(30, 30, 30);" transform="matrix(0.965926, -0.258819, 0.258819, 0.965926, -37.886403, 155.69909)"/>
  <path id="circle55" d="M 572.39 176.425 C 547.374 176.425 527.072 196.727 527.072 221.744 C 527.072 246.76 547.373 267.06 572.39 267.06 C 597.407 267.06 617.686 246.76 617.686 221.744 C 617.686 196.727 597.406 176.425 572.39 176.425 Z M 572.39 177.973 C 596.566 177.973 616.137 197.567 616.137 221.744 C 616.137 245.919 596.566 265.491 572.39 265.491 C 548.214 265.491 528.62 245.919 528.62 221.744 C 528.62 197.567 548.214 177.973 572.39 177.973 Z" style="fill: rgb(30, 30, 30);" transform="matrix(0.965926, -0.258819, 0.258819, 0.965926, -37.887829, 155.698205)"/>
  <path id="circle57" d="M 572.387 182.173 C 550.548 182.173 532.816 199.904 532.816 221.744 C 532.816 243.583 550.548 261.293 572.387 261.293 C 594.227 261.293 611.937 243.582 611.937 221.744 C 611.937 199.904 594.227 182.173 572.387 182.173 Z M 572.387 183.742 C 593.387 183.742 610.388 200.743 610.388 221.744 C 610.388 242.742 593.388 259.744 572.387 259.744 C 551.387 259.744 534.365 242.742 534.365 221.744 C 534.364 200.743 551.387 183.742 572.387 183.742 Z" style="fill: rgb(30, 30, 30);" transform="matrix(0.965926, -0.258819, 0.258819, 0.965926, -37.885457, 155.69723)"/>
  <path id="circle59" d="M 572.39 202.318 C 561.668 202.318 552.944 211.021 552.944 221.743 C 552.944 232.464 561.668 241.167 572.39 241.167 C 583.111 241.167 591.815 232.464 591.815 221.743 C 591.815 211.021 583.111 202.318 572.39 202.318 Z M 572.39 203.865 C 582.273 203.865 590.267 211.861 590.267 221.743 C 590.267 231.625 582.273 239.62 572.39 239.62 C 562.508 239.62 554.513 231.625 554.513 221.743 C 554.513 211.861 562.508 203.865 572.39 203.865 Z" style="fill: rgb(30, 30, 30);" transform="matrix(0.965926, -0.258819, 0.258819, 0.965926, -37.887827, 155.698496)"/>
  <path id="rect61" d="M 500.723 136.838 L 500.723 137.601 L 500.723 174.076 L 500.723 174.861 L 501.509 174.861 L 605.545 174.861 L 606.331 174.861 L 606.331 174.076 L 606.331 137.601 L 606.331 136.839 L 605.545 136.839 L 501.509 136.839 L 500.723 136.839 Z M 502.272 138.386 L 604.76 138.386 L 604.76 173.312 L 502.272 173.312 L 502.272 138.386 Z" style="fill: rgb(30, 30, 30);" transform="matrix(0.965926, -0.258819, 0.258819, 0.965926, -21.475839, 148.573695)"/>
  <path id="rect63" d="M 504.467 140.914 L 504.467 141.697 L 504.467 167.4 L 504.467 168.184 L 505.252 168.184 L 601.103 168.184 L 601.888 168.184 L 601.888 167.4 L 601.888 141.697 L 601.888 140.914 L 601.103 140.914 L 505.252 140.914 L 504.467 140.914 Z M 506.016 142.482 L 600.319 142.482 L 600.319 166.615 L 506.016 166.615 L 506.016 142.482 Z" style="fill: rgb(30, 30, 30);" transform="matrix(0.965926, -0.258819, 0.258819, 0.965926, -21.151159, 148.438934)"/>
  <path id="line65" d="M 492.281 147.951 L 491.474 149.288 L 497.837 153.231 L 498.664 151.896 L 492.281 147.951 Z" style="fill: rgb(30, 30, 30);" transform="matrix(0.965926, -0.258819, 0.258819, 0.965926, -22.106756, 133.264602)"/>
  <path id="line67" d="M 499.543 150.539 L 498.462 151.642 L 502.554 155.692 L 503.634 154.589 L 499.543 150.539 Z" style="fill: rgb(30, 30, 30);" transform="matrix(0.965926, -0.258819, 0.258819, 0.965926, -22.556416, 134.898107)"/>
  <path id="line69" d="M 604.289 119.437 L 598.012 123.36 L 598.84 124.675 L 605.117 120.752 L 604.289 119.437 Z" style="fill: rgb(30, 30, 30);" transform="matrix(0.965926, -0.258819, 0.258819, 0.965926, -11.092599, 159.855386)"/>
  <path id="line71" d="M 598.928 124.709 L 595.005 128.738 L 596.108 129.841 L 600.052 125.79 L 598.928 124.709 Z" style="fill: rgb(30, 30, 30);" transform="matrix(0.965926, -0.258819, 0.258819, 0.965926, -12.58091, 158.988469)"/>
  <path id="line73" d="M 604.245 153.534 L 602.908 154.341 L 606.852 160.956 L 608.188 160.171 L 604.245 153.534 Z" style="fill: rgb(30, 30, 30);" transform="matrix(0.965926, -0.258819, 0.258819, 0.965926, -20.064452, 162.085268)"/>
  <path id="line75" d="M 510.476 179.38 L 506.384 186.103 L 507.72 186.93 L 511.813 180.187 L 510.476 179.38 Z" style="fill: rgb(30, 30, 30);" transform="matrix(0.965926, -0.258819, 0.258819, 0.965926, -30.056894, 138.00531)"/>
  <path id="path77" d="M 612.83 135.037 L 612.83 136.584 L 614.547 136.584 C 614.811 136.584 615.02 136.635 615.14 136.755 C 615.263 136.874 615.468 137.204 615.333 138.197 C 615.237 138.88 615.133 140.561 615.014 142.904 C 614.894 145.249 614.759 148.181 614.632 151.111 C 614.38 156.971 614.152 162.897 614.081 163.897 C 614.001 165.011 613.947 165.973 613.742 166.549 C 613.539 167.124 613.381 167.368 612.511 167.46 L 612.682 168.987 C 613.989 168.848 614.865 168.038 615.206 167.079 C 615.545 166.119 615.554 165.066 615.629 164.004 C 615.715 162.827 615.929 157.052 616.181 151.195 C 616.307 148.266 616.445 145.323 616.563 142.988 C 616.682 140.653 616.798 138.851 616.86 138.407 C 617.034 137.148 616.805 136.211 616.243 135.651 C 615.685 135.091 614.985 135.036 614.549 135.036 L 612.83 135.036 Z" style="fill: rgb(30, 30, 30);" transform="matrix(0.965926, -0.258819, 0.258819, 0.965926, -18.397601, 164.279282)"/>
  <path id="path79" d="M 498.601 166.194 C 498.164 166.194 497.464 166.248 496.904 166.808 C 496.345 167.369 496.115 168.306 496.289 169.566 C 496.351 170.01 496.468 171.811 496.586 174.146 C 496.706 176.482 496.843 179.425 496.968 182.352 C 497.221 188.209 497.436 193.986 497.519 195.161 C 497.595 196.225 497.603 197.278 497.944 198.237 C 498.283 199.195 499.159 200.005 500.467 200.145 L 500.637 198.618 C 499.768 198.526 499.611 198.282 499.407 197.706 C 499.203 197.13 499.148 196.169 499.068 195.056 C 498.997 194.055 498.77 188.129 498.517 182.268 C 498.391 179.338 498.253 176.406 498.135 174.061 C 498.015 171.718 497.911 170.038 497.817 169.355 C 497.68 168.362 497.887 168.032 498.008 167.913 C 498.128 167.792 498.338 167.743 498.601 167.743 L 500.318 167.743 L 500.318 166.195 L 498.601 166.195 Z" style="fill: rgb(30, 30, 30);" transform="matrix(0.965926, -0.258819, 0.258819, 0.965926, -30.424009, 135.245699)"/>
  <rect x="225.896" y="280.413" width="8.928" height="3.181" style="fill: rgb(30, 30, 30);" transform="matrix(0.965929, -0.258823, 0.258839, 0.965921, 300.773495, 190.342267)"/>
  <rect x="271.095" y="280.416" width="8.928" height="3.181" style="fill: rgb(30, 30, 30);" transform="matrix(0.965927, -0.258819, 0.258817, 0.96593, 300.781098, 190.33483)"/>
</svg>