<?xml version="1.0" encoding="utf-8"?>
<svg version="1.1" x="0px" y="0px" enable-background="new 0 0 566.929 129.21" xmlns="http://www.w3.org/2000/svg" xmlns:bx="https://boxy-svg.com">
  <g transform="matrix(2.99991, 0, 0, 2.99991, 0, 0)" bx:origin="0 0">
    <path d="M 42.561 9.04 C 42.742 9.69 43.036 10.757 43.29 12.178 C 43.544 13.601 43.757 15.38 43.775 17.452 C 43.793 19.527 43.615 21.897 43.085 24.5 C 42.554 27.106 41.671 29.947 40.277 32.959 C 38.9 35.937 36.94 38.679 34.519 41.119 C 32.094 43.562 29.207 45.699 25.981 47.465 C 22.75 49.232 19.182 50.626 15.399 51.578 C 11.614 52.53 7.617 53.039 3.533 53.039 C 3.478 53.039 3.422 53.039 3.367 53.039 C 3.311 53.039 3.256 53.039 3.201 53.038 C 3.145 53.038 3.09 53.038 3.034 53.037 C 2.979 53.037 2.923 53.036 2.868 53.035 C 3.532 52.561 4.068 52.157 4.49 51.709 C 4.913 51.261 5.224 50.77 5.439 50.122 C 5.654 49.474 5.774 48.67 5.815 47.596 C 5.857 46.524 5.82 45.183 5.722 43.462 C 5.624 41.742 5.505 39.292 5.373 36.526 C 5.243 33.765 5.099 30.691 4.954 27.715 C 4.809 24.745 4.661 21.872 4.519 19.502 C 4.378 17.135 4.242 15.268 4.121 14.303 C 4.019 13.482 3.895 12.767 3.738 12.157 C 3.581 11.547 3.39 11.042 3.155 10.638 C 2.919 10.235 2.637 9.935 2.298 9.735 C 1.958 9.535 1.56 9.436 1.093 9.436 C 1.011 9.436 0.927 9.439 0.84 9.446 C 0.754 9.452 0.665 9.461 0.574 9.473 C 0.483 9.485 0.39 9.501 0.294 9.519 C 0.198 9.537 0.101 9.558 0 9.583 C 2.752 7.459 5.171 5.799 7.357 4.504 C 9.541 3.21 11.494 2.278 13.316 1.61 C 15.137 0.944 16.828 0.541 18.488 0.305 C 20.148 0.069 21.777 0 23.476 0 C 24.008 0 24.547 0.007 25.095 0.017 C 25.644 0.028 26.202 0.043 26.773 0.058 C 27.344 0.073 27.929 0.089 28.528 0.103 C 29.128 0.117 29.744 0.128 30.378 0.135 C 33.038 0.162 35.143 0.437 36.804 0.839 C 38.467 1.241 39.687 1.77 40.578 2.302 C 41.469 2.834 42.031 3.37 42.376 3.787 C 42.72 4.203 42.848 4.5 42.871 4.554 C 42.603 4.784 42.404 5.016 42.268 5.277 C 42.132 5.538 42.058 5.827 42.041 6.167 C 42.023 6.509 42.063 6.902 42.151 7.372 C 42.24 7.843 42.379 8.391 42.561 9.04 Z M 31.993 34.724 C 33.122 32.644 33.901 30.443 34.397 28.213 C 34.893 25.985 35.105 23.728 35.1 21.53 C 35.094 19.336 34.871 17.202 34.495 15.216 C 34.12 13.232 33.592 11.397 32.976 9.797 C 32.45 8.429 31.845 7.343 31.168 6.482 C 30.492 5.622 29.743 4.988 28.927 4.524 C 28.11 4.061 27.226 3.768 26.28 3.591 C 25.334 3.414 24.324 3.352 23.258 3.352 C 23.079 3.352 22.898 3.354 22.716 3.357 C 22.534 3.361 22.349 3.365 22.164 3.371 C 21.979 3.377 21.791 3.384 21.603 3.392 C 21.414 3.4 21.224 3.409 21.032 3.419 C 18.437 3.55 16.541 4.158 15.157 5.072 C 13.771 5.986 12.898 7.207 12.352 8.561 C 11.804 9.916 11.584 11.405 11.505 12.855 C 11.425 14.305 11.488 15.717 11.505 16.914 C 11.524 18.113 11.643 20.648 11.812 23.804 C 11.981 26.968 12.202 30.758 12.423 34.449 C 12.645 38.151 12.868 41.753 13.042 44.521 C 13.215 47.294 13.339 49.227 13.362 49.579 C 15.1 49.439 16.685 49.258 18.197 48.859 C 19.709 48.461 21.148 47.845 22.595 46.837 C 24.042 45.829 25.495 44.43 27.037 42.466 C 28.576 40.504 30.202 37.98 31.993 34.724" style="fill: rgb(255, 255, 255);"/>
    <path d="M 65.019 50.303 C 65.049 50.289 65.217 50.216 65.453 50.067 C 65.689 49.917 65.994 49.691 66.297 49.37 C 66.6 49.05 66.902 48.635 67.134 48.109 C 67.366 47.584 67.527 46.947 67.55 46.182 C 67.572 45.418 67.582 43.656 67.582 41.423 C 67.583 39.195 67.575 36.499 67.562 33.862 C 67.551 31.229 67.534 28.655 67.519 26.658 C 67.503 24.664 67.488 23.245 67.478 22.917 C 67.346 22.913 67.212 22.91 67.075 22.908 C 66.938 22.905 66.799 22.903 66.657 22.901 C 66.515 22.9 66.371 22.899 66.225 22.898 C 66.08 22.897 65.931 22.897 65.782 22.897 C 64.74 22.897 63.612 22.916 62.482 22.944 C 61.353 22.973 60.22 23.012 59.169 23.053 C 58.119 23.094 57.149 23.136 56.344 23.171 C 55.54 23.206 54.9 23.233 54.508 23.245 C 54.114 24.243 53.45 25.759 52.853 27.693 C 52.256 29.63 51.726 31.988 51.604 34.666 C 51.481 37.351 51.768 40.358 52.806 43.588 C 53.846 46.825 55.642 50.288 58.538 53.874 C 57.481 53.707 56.389 53.116 55.316 52.243 C 54.243 51.37 53.191 50.215 52.215 48.916 C 51.24 47.618 50.34 46.177 49.57 44.732 C 48.801 43.289 48.163 41.841 47.708 40.525 C 47.255 39.21 46.881 37.797 46.61 36.312 C 46.339 34.83 46.173 33.278 46.133 31.685 C 46.093 30.093 46.18 28.46 46.418 26.815 C 46.655 25.172 47.043 23.515 47.605 21.875 C 48.165 20.237 48.713 19.034 49.228 18.105 C 49.742 17.176 50.223 16.521 50.647 15.98 C 51.071 15.44 51.439 15.013 51.728 14.542 C 52.018 14.071 52.229 13.554 52.338 12.835 C 52.447 12.116 52.361 11.577 52.167 11.172 C 51.974 10.768 51.673 10.499 51.355 10.319 C 51.037 10.14 50.7 10.05 50.434 10.005 C 50.168 9.961 49.973 9.961 49.938 9.961 C 52.444 9.798 55.151 9.639 57.824 9.49 C 60.498 9.341 63.138 9.203 65.51 9.081 C 67.882 8.959 69.986 8.854 71.588 8.773 C 73.189 8.692 74.288 8.635 74.65 8.608 C 74.666 8.607 74.682 8.606 74.697 8.605 C 74.713 8.604 74.728 8.603 74.743 8.602 C 74.758 8.602 74.773 8.601 74.788 8.601 C 74.802 8.6 74.817 8.6 74.831 8.6 C 75.138 8.6 75.343 8.67 75.464 8.782 C 75.586 8.895 75.624 9.05 75.597 9.221 C 75.57 9.393 75.478 9.581 75.339 9.758 C 75.2 9.935 75.014 10.102 74.8 10.232 C 74.576 10.368 74.418 10.523 74.307 10.704 C 74.196 10.885 74.131 11.092 74.095 11.329 C 74.058 11.566 74.049 11.833 74.048 12.137 C 74.047 12.441 74.054 12.78 74.051 13.161 C 74.048 13.541 74.028 15.627 74.001 18.584 C 73.974 21.546 73.939 25.386 73.904 29.26 C 73.868 33.144 73.832 37.064 73.804 40.162 C 73.775 43.266 73.755 45.543 73.749 46.126 C 73.743 46.71 73.812 47.245 73.941 47.723 C 74.069 48.202 74.257 48.622 74.491 48.977 C 74.724 49.333 75.001 49.622 75.309 49.836 C 75.616 50.05 75.954 50.19 76.307 50.246 C 75.121 50.246 73.844 50.249 72.589 50.254 C 71.334 50.26 70.102 50.266 69.008 50.273 C 67.914 50.279 66.958 50.286 66.255 50.291 C 65.551 50.298 65.101 50.302 65.019 50.303 Z M 67.593 17.729 C 67.611 17.362 67.637 16.927 67.661 16.471 C 67.684 16.014 67.706 15.537 67.715 15.085 C 67.723 14.633 67.72 14.207 67.694 13.853 C 67.668 13.499 67.619 13.217 67.537 13.054 C 67.454 12.889 67.353 12.725 67.229 12.572 C 67.104 12.419 66.957 12.276 66.78 12.156 C 66.604 12.035 66.399 11.934 66.161 11.864 C 65.922 11.793 65.65 11.754 65.34 11.754 C 65.22 11.754 65.093 11.76 64.961 11.773 C 64.829 11.785 64.69 11.804 64.545 11.831 C 64.4 11.857 64.249 11.89 64.091 11.931 C 63.934 11.972 63.769 12.021 63.597 12.078 C 62.982 12.281 62.401 12.535 61.815 12.888 C 61.229 13.242 60.64 13.695 60.009 14.295 C 59.377 14.897 58.702 15.646 57.947 16.593 C 57.192 17.54 56.355 18.685 55.399 20.076 C 55.681 20.084 55.973 20.091 56.272 20.097 C 56.571 20.102 56.877 20.107 57.188 20.111 C 57.499 20.114 57.816 20.117 58.134 20.119 C 58.453 20.12 58.774 20.121 59.095 20.121 C 59.87 20.121 60.644 20.117 61.383 20.108 C 62.122 20.1 62.825 20.088 63.458 20.074 C 64.089 20.059 64.651 20.043 65.106 20.025 C 65.561 20.007 65.91 19.988 66.118 19.969 C 66.411 19.941 66.645 19.879 66.833 19.779 C 67.02 19.679 67.161 19.54 67.268 19.359 C 67.375 19.179 67.447 18.955 67.497 18.685 C 67.547 18.414 67.575 18.097 67.593 17.729" style="fill: rgb(255, 255, 255);"/>
    <path d="M 89.037 25.651 C 91.411 24.174 93.396 22.85 95.063 21.649 C 96.728 20.449 98.076 19.369 99.18 18.378 C 100.285 17.386 101.144 16.483 101.832 15.633 C 102.52 14.784 103.037 13.989 103.455 13.214 C 103.104 12.702 102.746 12.216 102.356 11.774 C 101.966 11.331 101.545 10.934 101.068 10.601 C 100.591 10.268 100.057 9.999 99.443 9.813 C 98.829 9.627 98.134 9.525 97.333 9.525 C 97.178 9.525 97.019 9.528 96.856 9.536 C 96.693 9.544 96.526 9.556 96.354 9.571 C 96.182 9.587 96.006 9.607 95.826 9.632 C 95.646 9.656 95.461 9.685 95.271 9.718 C 94.103 9.92 93.039 10.23 92.099 10.638 C 91.16 11.045 90.344 11.552 89.674 12.147 C 89.004 12.742 88.479 13.427 88.121 14.192 C 87.763 14.958 87.572 15.805 87.568 16.723 C 87.563 17.642 87.559 19.902 87.554 22.781 C 87.549 25.666 87.543 29.174 87.539 32.577 C 87.534 35.989 87.53 39.294 87.527 41.753 C 87.524 44.218 87.522 45.83 87.522 45.848 C 87.52 46.265 87.534 46.614 87.6 46.931 C 87.664 47.248 87.78 47.532 87.98 47.82 C 88.18 48.108 88.464 48.398 88.868 48.725 C 89.271 49.053 89.793 49.419 90.469 49.858 C 89.915 49.858 89.02 49.858 87.959 49.858 C 86.897 49.858 85.669 49.858 84.45 49.858 C 83.232 49.858 82.021 49.858 80.995 49.858 C 79.969 49.858 79.126 49.858 78.643 49.858 C 78.835 49.838 79.073 49.789 79.322 49.681 C 79.571 49.573 79.831 49.405 80.067 49.147 C 80.304 48.889 80.517 48.54 80.672 48.07 C 80.827 47.6 80.924 47.009 80.93 46.266 C 80.936 45.266 80.935 43.143 80.92 40.471 C 80.905 37.803 80.876 34.589 80.83 31.398 C 80.783 28.215 80.718 25.053 80.63 22.475 C 80.542 19.902 80.43 17.909 80.29 17.05 C 80.149 16.192 79.981 15.56 79.79 15.092 C 79.6 14.624 79.387 14.32 79.159 14.121 C 78.93 13.922 78.686 13.828 78.43 13.779 C 78.174 13.729 77.908 13.724 77.636 13.705 C 80.127 12.328 82.337 11.223 84.338 10.34 C 86.338 9.458 88.13 8.796 89.787 8.306 C 91.443 7.816 92.964 7.499 94.422 7.303 C 95.88 7.108 97.275 7.034 98.68 7.034 C 98.729 7.034 98.78 7.034 98.83 7.034 C 98.879 7.034 98.93 7.035 98.979 7.035 C 99.029 7.035 99.079 7.036 99.129 7.036 C 99.179 7.037 99.229 7.037 99.279 7.038 C 100.737 7.058 102.055 7.189 103.28 7.445 C 104.504 7.701 105.635 8.081 106.721 8.598 C 107.806 9.116 108.845 9.771 109.886 10.576 C 110.927 11.382 111.97 12.338 113.061 13.457 C 111.064 15.639 108.975 17.389 106.86 18.813 C 104.744 20.239 102.604 21.337 100.509 22.213 C 98.413 23.089 96.364 23.744 94.43 24.281 C 92.494 24.82 90.674 25.241 89.037 25.651 Z" style="fill: rgb(255, 255, 255);"/>
    <path d="M 112.842 7.955 L 126.685 8.608 C 126.09 8.852 125.585 9.109 125.163 9.378 C 124.742 9.646 124.405 9.927 124.142 10.218 C 123.88 10.51 123.696 10.811 123.58 11.121 C 123.464 11.432 123.417 11.751 123.434 12.077 C 123.451 12.403 123.459 12.992 123.463 13.697 C 123.467 14.403 123.466 15.225 123.462 16.015 C 123.459 16.807 123.453 17.567 123.449 18.147 C 123.443 18.728 123.44 19.129 123.439 19.202 L 135.827 19.202 C 135.828 19.147 135.832 18.848 135.834 18.396 C 135.836 17.944 135.835 17.342 135.826 16.681 C 135.818 16.022 135.801 15.304 135.771 14.623 C 135.742 13.942 135.698 13.297 135.635 12.782 C 135.573 12.266 135.421 11.821 135.207 11.437 C 134.993 11.053 134.715 10.729 134.402 10.454 C 134.09 10.18 133.742 9.954 133.384 9.768 C 133.026 9.581 132.66 9.433 132.312 9.311 C 134.105 9.324 135.774 9.354 137.273 9.39 C 138.772 9.427 140.101 9.471 141.215 9.514 C 142.328 9.557 143.226 9.599 143.862 9.631 C 144.498 9.663 144.874 9.686 144.942 9.69 C 144.543 10.029 144.211 10.31 143.929 10.635 C 143.646 10.961 143.416 11.333 143.221 11.852 C 143.028 12.371 142.87 13.038 142.736 13.955 C 142.602 14.873 142.49 16.043 142.387 17.568 C 142.285 19.094 142.157 21.471 142.022 24.222 C 141.886 26.979 141.743 30.111 141.612 33.138 C 141.482 36.17 141.363 39.095 141.275 41.424 C 141.187 43.756 141.132 45.487 141.127 46.127 C 141.123 46.766 141.162 47.326 141.245 47.816 C 141.329 48.305 141.454 48.725 141.622 49.084 C 141.789 49.443 141.998 49.74 142.246 49.987 C 142.495 50.233 142.784 50.429 143.11 50.582 C 141.587 50.569 140.096 50.554 138.712 50.542 C 137.328 50.528 136.051 50.516 134.954 50.506 C 133.859 50.495 132.943 50.486 132.285 50.479 C 131.625 50.472 131.222 50.469 131.149 50.468 C 131.192 50.465 131.428 50.446 131.762 50.356 C 132.096 50.268 132.527 50.108 132.961 49.823 C 133.395 49.539 133.83 49.13 134.171 48.541 C 134.513 47.952 134.76 47.184 134.819 46.183 C 134.877 45.183 134.96 43.25 135.051 40.901 C 135.142 38.556 135.243 35.797 135.337 33.137 C 135.431 30.482 135.519 27.924 135.584 25.97 C 135.65 24.019 135.694 22.669 135.703 22.424 C 134.04 22.451 132.449 22.473 130.991 22.488 C 129.534 22.504 128.211 22.515 127.087 22.521 C 125.963 22.528 125.038 22.532 124.376 22.534 C 123.714 22.535 123.314 22.535 123.241 22.535 C 123.23 22.809 123.161 24.317 123.068 26.46 C 122.974 28.606 122.855 31.392 122.742 34.214 C 122.628 37.041 122.52 39.905 122.447 42.196 C 122.376 44.491 122.339 46.21 122.372 46.738 C 122.404 47.266 122.467 47.735 122.564 48.149 C 122.659 48.563 122.79 48.922 122.954 49.228 C 123.119 49.534 123.318 49.788 123.554 49.994 C 123.791 50.199 124.064 50.356 124.375 50.467 C 122.922 50.467 121.487 50.467 120.148 50.467 C 118.809 50.467 117.565 50.467 116.494 50.467 C 115.423 50.467 114.524 50.467 113.874 50.467 C 113.226 50.467 112.827 50.467 112.754 50.467 C 112.785 50.467 112.96 50.462 113.207 50.389 C 113.454 50.314 113.773 50.17 114.095 49.888 C 114.417 49.606 114.741 49.188 114.997 48.564 C 115.253 47.941 115.441 47.114 115.492 46.016 C 115.543 44.918 115.643 42.518 115.756 39.485 C 115.869 36.458 115.996 32.803 116.101 29.183 C 116.206 25.573 116.29 21.997 116.319 19.11 C 116.348 16.228 116.322 14.029 116.206 13.16 C 116.088 12.291 115.868 11.552 115.591 10.926 C 115.315 10.301 114.982 9.79 114.639 9.377 C 114.297 8.964 113.944 8.649 113.629 8.417 C 113.314 8.187 113.036 8.037 112.842 7.955 Z" style="fill: rgb(255, 255, 255);"/>
    <path d="M 151.817 9.68 C 151.948 9.68 152.083 9.692 152.221 9.717 C 152.361 9.742 152.505 9.78 152.654 9.83 C 152.803 9.881 152.958 9.944 153.12 10.02 C 153.282 10.096 153.45 10.184 153.626 10.286 C 154.329 10.693 155.451 11.326 156.785 12.141 C 158.118 12.956 159.664 13.953 161.214 15.084 C 162.765 16.216 164.32 17.484 165.671 18.84 C 167.023 20.198 168.171 21.644 168.907 23.133 C 168.989 21.384 169.007 19.865 168.961 18.557 C 168.915 17.249 168.804 16.15 168.628 15.239 C 168.453 14.328 168.213 13.605 167.907 13.049 C 167.602 12.493 167.23 12.103 166.794 11.859 C 166.994 11.856 167.192 11.853 167.388 11.851 C 167.584 11.85 167.777 11.848 167.968 11.847 C 168.16 11.845 168.348 11.845 168.533 11.844 C 168.718 11.843 168.9 11.843 169.079 11.843 C 169.795 11.843 170.452 11.848 171.038 11.853 C 171.623 11.859 172.136 11.868 172.563 11.876 C 172.99 11.885 173.33 11.893 173.57 11.899 C 173.81 11.906 173.95 11.91 173.975 11.911 C 173.388 12.305 172.946 12.583 172.614 12.85 C 172.282 13.118 172.059 13.374 171.908 13.723 C 171.756 14.073 171.677 14.517 171.632 15.159 C 171.586 15.801 171.577 16.642 171.563 17.786 C 171.551 18.93 171.527 20.444 171.48 22.173 C 171.432 23.904 171.363 25.851 171.259 27.859 C 171.156 29.87 171.018 31.943 170.836 33.92 C 170.654 35.9 170.427 37.784 170.144 39.416 C 169.86 41.049 169.393 42.618 168.813 44.084 C 168.232 45.551 167.539 46.915 166.807 48.135 C 166.074 49.356 165.302 50.434 164.564 51.329 C 163.826 52.224 163.122 52.935 162.527 53.424 C 163.692 51.206 164.661 49.133 165.435 47.181 C 166.209 45.231 166.789 43.401 167.177 41.665 C 167.565 39.931 167.761 38.291 167.768 36.719 C 167.774 35.15 167.592 33.647 167.221 32.188 C 166.85 30.73 166.048 29.206 165.012 27.723 C 163.978 26.242 162.711 24.804 161.411 23.517 C 160.111 22.232 158.778 21.098 157.608 20.225 C 156.439 19.351 155.433 18.738 154.786 18.493 C 154.575 18.413 154.38 18.338 154.199 18.27 C 154.018 18.203 153.852 18.143 153.698 18.093 C 153.545 18.043 153.404 18.004 153.275 17.976 C 153.146 17.949 153.029 17.934 152.922 17.934 C 152.702 17.934 152.526 17.997 152.381 18.146 C 152.236 18.294 152.124 18.528 152.032 18.868 C 151.94 19.209 151.867 19.656 151.803 20.232 C 151.739 20.808 151.683 21.513 151.624 22.368 C 151.535 23.64 151.41 25.679 151.274 28.048 C 151.137 30.419 150.987 33.123 150.848 35.713 C 150.708 38.31 150.578 40.793 150.481 42.715 C 150.385 44.64 150.32 46.001 150.313 46.349 C 150.305 46.696 150.347 47.099 150.434 47.519 C 150.521 47.939 150.652 48.375 150.821 48.79 C 150.991 49.204 151.199 49.595 151.44 49.925 C 151.681 50.255 151.954 50.524 152.253 50.69 C 151.449 50.663 150.51 50.606 149.549 50.535 C 148.589 50.465 147.607 50.381 146.717 50.299 C 145.827 50.217 145.029 50.138 144.436 50.077 C 143.842 50.016 143.454 49.974 143.383 49.967 C 144.002 49.883 144.556 49.761 145.045 49.571 C 145.534 49.38 145.956 49.121 146.31 48.762 C 146.664 48.403 146.949 47.946 147.164 47.359 C 147.378 46.772 147.521 46.056 147.591 45.18 C 147.66 44.305 147.788 42.246 147.938 39.621 C 148.089 37.002 148.263 33.821 148.427 30.694 C 148.591 27.575 148.744 24.507 148.855 22.1 C 148.965 19.697 149.033 17.949 149.024 17.459 C 149.015 16.967 148.991 16.562 148.931 16.229 C 148.872 15.896 148.776 15.637 148.626 15.436 C 148.476 15.235 148.272 15.094 147.993 15 C 147.714 14.905 147.361 14.857 146.914 14.843 C 147.485 13.997 147.979 13.252 148.423 12.609 C 148.867 11.967 149.262 11.427 149.634 10.993 C 150.006 10.559 150.356 10.23 150.711 10.01 C 151.066 9.791 151.426 9.68 151.817 9.68 Z" style="fill: rgb(255, 255, 255);"/>
    <path d="M 177.673 12.377 C 177.989 12.377 178.36 12.391 178.805 12.421 C 179.249 12.45 179.766 12.497 180.375 12.559 C 180.983 12.623 181.682 12.703 182.49 12.803 C 183.299 12.903 184.215 13.022 185.258 13.162 C 186.688 13.353 188.028 13.52 189.263 13.664 C 190.497 13.808 191.627 13.927 192.635 14.022 C 193.643 14.118 194.53 14.19 195.28 14.237 C 196.031 14.285 196.644 14.309 197.103 14.309 C 197.133 14.309 197.164 14.309 197.192 14.309 C 197.222 14.309 197.25 14.308 197.278 14.308 C 197.305 14.307 197.332 14.307 197.359 14.306 C 197.385 14.306 197.41 14.305 197.435 14.304 C 197.699 14.294 197.944 14.268 198.171 14.233 C 198.397 14.199 198.603 14.155 198.79 14.114 C 198.976 14.072 199.142 14.031 199.287 14.002 C 199.432 13.971 199.556 13.952 199.657 13.952 C 199.711 13.952 199.759 13.958 199.8 13.97 C 199.842 13.982 199.877 14.002 199.906 14.029 C 199.934 14.057 199.956 14.092 199.972 14.138 C 199.988 14.183 199.997 14.238 200 14.304 C 200.006 14.494 199.917 14.728 199.744 15.042 C 199.57 15.356 199.312 15.748 198.982 16.255 C 198.651 16.762 198.248 17.383 197.783 18.153 C 197.319 18.923 196.792 19.843 196.217 20.948 C 196.213 20.896 196.191 20.611 196.084 20.194 C 195.977 19.777 195.784 19.228 195.437 18.649 C 195.09 18.069 194.589 17.459 193.866 16.919 C 193.143 16.379 192.198 15.909 190.962 15.61 C 190.845 15.581 190.73 15.557 190.616 15.536 C 190.502 15.515 190.389 15.498 190.277 15.485 C 190.165 15.471 190.054 15.461 189.945 15.454 C 189.836 15.448 189.727 15.444 189.62 15.444 C 188.593 15.444 187.676 15.743 186.865 16.216 C 186.053 16.689 185.348 17.335 184.745 18.03 C 184.142 18.724 183.641 19.467 183.241 20.133 C 182.84 20.798 182.539 21.385 182.335 21.768 C 182.11 22.192 181.983 22.509 181.965 22.748 C 181.948 22.987 182.04 23.148 182.252 23.258 C 182.465 23.367 182.798 23.425 183.264 23.46 C 183.73 23.495 184.328 23.506 185.068 23.52 C 185.809 23.533 186.68 23.585 187.571 23.658 C 188.462 23.732 189.372 23.827 190.189 23.93 C 191.006 24.032 191.732 24.142 192.254 24.243 C 192.775 24.344 193.093 24.436 193.095 24.505 C 193.097 24.573 193.069 24.683 192.988 24.838 C 192.908 24.994 192.775 25.195 192.565 25.448 C 192.357 25.702 192.073 26.006 191.691 26.366 C 191.31 26.728 190.831 27.146 190.23 27.626 C 189.87 27.211 189.457 26.88 189.001 26.617 C 188.545 26.354 188.048 26.158 187.519 26.014 C 186.99 25.87 186.43 25.778 185.849 25.722 C 185.269 25.666 184.668 25.646 184.058 25.646 C 184.004 25.646 183.949 25.646 183.894 25.646 C 183.838 25.647 183.784 25.647 183.729 25.648 C 183.674 25.649 183.619 25.649 183.563 25.65 C 183.508 25.651 183.453 25.652 183.397 25.653 C 182.727 25.668 182.225 25.692 181.845 25.766 C 181.465 25.839 181.208 25.963 181.029 26.175 C 180.85 26.388 180.748 26.689 180.679 27.119 C 180.61 27.549 180.573 28.107 180.524 28.834 C 180.471 32.382 180.847 35.52 181.554 38.295 C 182.263 41.076 183.304 43.491 184.577 45.587 C 185.85 47.685 187.357 49.463 188.993 50.968 C 190.631 52.475 192.4 53.707 194.198 54.713 C 193.558 54.615 192.611 54.444 191.453 54.087 C 190.295 53.731 188.927 53.19 187.451 52.352 C 185.976 51.515 184.392 50.382 182.8 48.843 C 181.21 47.306 179.613 45.364 178.108 42.908 C 176.608 40.457 175.658 37.895 175.102 35.382 C 174.547 32.873 174.384 30.413 174.458 28.157 C 174.531 25.905 174.841 23.857 175.231 22.167 C 175.62 20.479 176.09 19.148 176.486 18.33 C 176.882 17.513 177.176 16.798 177.369 16.172 C 177.561 15.545 177.653 15.007 177.643 14.541 C 177.634 14.076 177.524 13.684 177.314 13.35 C 177.104 13.017 176.793 12.742 176.383 12.511 C 176.462 12.49 176.546 12.471 176.636 12.454 C 176.726 12.438 176.823 12.424 176.928 12.412 C 177.034 12.401 177.147 12.392 177.271 12.386 C 177.394 12.379 177.527 12.377 177.673 12.377 Z" style="fill: rgb(255, 255, 255);"/>
  </g>
</svg>