<?xml version="1.0" encoding="utf-8"?>
<svg version="1.1" x="0px" y="0px" enable-background="new 0 0 566.929 129.21" xmlns="http://www.w3.org/2000/svg">
  <path d="M 90.121 19.142 C 90.505 20.518 91.128 22.777 91.665 25.787 C 92.203 28.8 92.654 32.566 92.692 36.954 C 92.73 41.348 92.353 46.367 91.231 51.877 C 90.107 57.397 88.236 63.412 85.286 69.789 C 82.369 76.096 78.219 81.902 73.093 87.067 C 67.957 92.24 61.844 96.767 55.013 100.505 C 48.173 104.248 40.617 107.198 32.607 109.214 C 24.592 111.23 16.128 112.309 7.481 112.309 C 7.364 112.309 7.247 112.309 7.129 112.309 C 7.011 112.308 6.894 112.308 6.777 112.307 C 6.659 112.306 6.542 112.305 6.425 112.304 C 6.308 112.303 6.19 112.302 6.072 112.3 C 7.479 111.297 8.613 110.441 9.508 109.492 C 10.403 108.544 11.061 107.503 11.517 106.131 C 11.973 104.759 12.226 103.056 12.314 100.783 C 12.402 98.512 12.324 95.673 12.116 92.029 C 11.908 88.388 11.656 83.2 11.378 77.342 C 11.101 71.497 10.798 64.988 10.49 58.686 C 10.182 52.397 9.869 46.313 9.569 41.294 C 9.27 36.283 8.983 32.329 8.727 30.286 C 8.51 28.547 8.248 27.034 7.915 25.742 C 7.582 24.45 7.179 23.38 6.68 22.526 C 6.18 21.673 5.584 21.037 4.865 20.614 C 4.146 20.191 3.304 19.981 2.314 19.981 C 2.14 19.981 1.962 19.987 1.779 20.001 C 1.596 20.014 1.408 20.033 1.216 20.059 C 1.023 20.085 0.825 20.117 0.623 20.156 C 0.42 20.195 0.213 20.239 0 20.291 C 5.828 15.795 10.949 12.28 15.578 9.537 C 20.203 6.796 24.338 4.823 28.196 3.41 C 32.052 1.998 35.633 1.145 39.148 0.646 C 42.663 0.146 46.113 0 49.71 0 C 50.836 0 51.977 0.014 53.138 0.037 C 54.3 0.059 55.482 0.09 56.691 0.122 C 57.9 0.154 59.138 0.189 60.408 0.218 C 61.678 0.247 62.982 0.272 64.325 0.286 C 69.957 0.343 74.413 0.926 77.932 1.777 C 81.453 2.628 84.036 3.747 85.923 4.874 C 87.81 6.001 88.999 7.136 89.729 8.018 C 90.459 8.9 90.729 9.529 90.778 9.643 C 90.211 10.129 89.789 10.622 89.501 11.174 C 89.212 11.726 89.057 12.338 89.02 13.059 C 88.983 13.782 89.066 14.615 89.254 15.611 C 89.442 16.608 89.736 17.767 90.121 19.142 Z M 67.743 73.527 C 70.134 69.123 71.785 64.463 72.835 59.739 C 73.884 55.022 74.334 50.243 74.322 45.59 C 74.31 40.944 73.838 36.424 73.042 32.219 C 72.248 28.019 71.13 24.132 69.826 20.744 C 68.711 17.848 67.431 15.548 65.998 13.726 C 64.566 11.905 62.98 10.562 61.251 9.58 C 59.522 8.599 57.651 7.978 55.647 7.603 C 53.643 7.228 51.506 7.098 49.248 7.098 C 48.869 7.098 48.486 7.102 48.1 7.109 C 47.714 7.116 47.324 7.126 46.932 7.138 C 46.539 7.151 46.142 7.165 45.743 7.182 C 45.344 7.199 44.941 7.218 44.535 7.239 C 39.04 7.517 35.025 8.805 32.094 10.74 C 29.16 12.676 27.311 15.26 26.154 18.127 C 24.995 20.996 24.529 24.149 24.361 27.219 C 24.193 30.291 24.325 33.28 24.362 35.815 C 24.402 38.353 24.653 43.722 25.011 50.405 C 25.37 57.104 25.837 65.128 26.306 72.945 C 26.776 80.783 27.248 88.411 27.616 94.272 C 27.983 100.144 28.245 104.237 28.293 104.982 C 31.974 104.686 35.329 104.302 38.531 103.458 C 41.733 102.614 44.78 101.31 47.844 99.175 C 50.907 97.041 53.985 94.079 57.249 89.92 C 60.509 85.766 63.951 80.422 67.743 73.527" style="fill: rgb(255, 255, 255);"/>
  <path d="M 137.675 106.514 C 137.739 106.486 138.095 106.331 138.595 106.015 C 139.095 105.698 139.739 105.219 140.381 104.539 C 141.023 103.861 141.662 102.983 142.153 101.87 C 142.644 100.757 142.986 99.408 143.034 97.789 C 143.082 96.172 143.102 92.439 143.103 87.712 C 143.104 82.993 143.087 77.285 143.061 71.701 C 143.036 66.127 143.001 60.676 142.968 56.448 C 142.935 52.226 142.903 49.22 142.882 48.526 C 142.603 48.518 142.319 48.512 142.029 48.506 C 141.739 48.501 141.444 48.496 141.144 48.493 C 140.844 48.49 140.539 48.487 140.23 48.485 C 139.921 48.483 139.607 48.483 139.291 48.483 C 137.084 48.483 134.697 48.523 132.304 48.584 C 129.912 48.645 127.514 48.728 125.289 48.814 C 123.064 48.9 121.011 48.989 119.307 49.063 C 117.603 49.137 116.248 49.195 115.419 49.22 C 114.585 51.333 113.178 54.543 111.915 58.639 C 110.65 62.741 109.528 67.733 109.269 73.405 C 109.009 79.089 109.616 85.456 111.814 92.296 C 114.017 99.151 117.819 106.484 123.952 114.076 C 121.714 113.722 119.401 112.472 117.129 110.623 C 114.858 108.774 112.631 106.328 110.564 103.578 C 108.499 100.83 106.593 97.779 104.963 94.719 C 103.335 91.662 101.983 88.596 101.021 85.811 C 100.06 83.026 99.268 80.033 98.695 76.89 C 98.122 73.751 97.769 70.465 97.684 67.091 C 97.6 63.721 97.784 60.264 98.288 56.78 C 98.791 53.3 99.612 49.793 100.802 46.319 C 101.988 42.851 103.149 40.303 104.239 38.336 C 105.327 36.37 106.345 34.983 107.243 33.838 C 108.141 32.693 108.92 31.79 109.533 30.792 C 110.146 29.794 110.592 28.701 110.824 27.177 C 111.055 25.655 110.872 24.513 110.462 23.657 C 110.052 22.801 109.416 22.231 108.742 21.851 C 108.068 21.471 107.355 21.281 106.792 21.186 C 106.229 21.091 105.816 21.091 105.741 21.091 C 111.048 20.747 116.78 20.41 122.441 20.095 C 128.102 19.78 133.692 19.486 138.715 19.228 C 143.738 18.97 148.193 18.748 151.584 18.576 C 154.975 18.405 157.302 18.284 158.069 18.227 C 158.103 18.225 158.136 18.222 158.169 18.22 C 158.202 18.218 158.234 18.217 158.266 18.215 C 158.298 18.214 158.329 18.213 158.36 18.212 C 158.391 18.211 158.422 18.211 158.451 18.211 C 159.101 18.211 159.535 18.358 159.793 18.596 C 160.05 18.834 160.132 19.163 160.074 19.526 C 160.016 19.889 159.821 20.287 159.528 20.662 C 159.233 21.037 158.84 21.391 158.386 21.665 C 157.912 21.953 157.577 22.283 157.342 22.666 C 157.107 23.049 156.97 23.487 156.893 23.989 C 156.815 24.491 156.795 25.057 156.793 25.7 C 156.792 26.343 156.807 27.061 156.8 27.867 C 156.793 28.672 156.752 33.09 156.695 39.35 C 156.638 45.623 156.563 53.753 156.488 61.956 C 156.413 70.182 156.337 78.481 156.277 85.041 C 156.216 91.615 156.173 96.436 156.161 97.67 C 156.149 98.906 156.295 100.039 156.567 101.052 C 156.839 102.065 157.237 102.956 157.731 103.708 C 158.225 104.46 158.812 105.072 159.464 105.526 C 160.115 105.98 160.83 106.276 161.577 106.394 C 159.067 106.394 156.362 106.401 153.705 106.412 C 151.048 106.423 148.439 106.436 146.122 106.451 C 143.806 106.465 141.781 106.479 140.292 106.49 C 138.801 106.504 137.848 106.512 137.675 106.514 Z M 143.126 37.541 C 143.164 36.764 143.219 35.842 143.269 34.876 C 143.319 33.91 143.364 32.898 143.383 31.941 C 143.402 30.984 143.394 30.082 143.339 29.333 C 143.284 28.583 143.18 27.987 143.007 27.642 C 142.832 27.291 142.618 26.944 142.355 26.62 C 142.091 26.296 141.778 25.995 141.405 25.739 C 141.031 25.483 140.598 25.27 140.093 25.121 C 139.588 24.972 139.012 24.888 138.355 24.888 C 138.1 24.888 137.833 24.901 137.552 24.928 C 137.272 24.955 136.979 24.995 136.672 25.051 C 136.365 25.106 136.045 25.177 135.711 25.264 C 135.377 25.351 135.028 25.454 134.665 25.575 C 133.362 26.005 132.131 26.542 130.891 27.29 C 129.651 28.039 128.403 28.998 127.066 30.27 C 125.728 31.543 124.3 33.13 122.701 35.135 C 121.101 37.141 119.33 39.565 117.306 42.511 C 117.903 42.528 118.52 42.542 119.153 42.554 C 119.786 42.566 120.435 42.576 121.094 42.584 C 121.753 42.591 122.423 42.597 123.097 42.601 C 123.772 42.604 124.451 42.606 125.131 42.606 C 126.772 42.606 128.412 42.596 129.977 42.578 C 131.541 42.56 133.03 42.535 134.369 42.505 C 135.707 42.475 136.896 42.44 137.86 42.402 C 138.824 42.364 139.563 42.324 140.003 42.283 C 140.623 42.224 141.119 42.093 141.516 41.881 C 141.913 41.669 142.212 41.376 142.438 40.993 C 142.664 40.61 142.817 40.137 142.923 39.564 C 143.028 38.991 143.088 38.32 143.126 37.541" style="fill: rgb(255, 255, 255);"/>
  <path d="M 188.532 54.316 C 193.56 51.187 197.762 48.385 201.292 45.841 C 204.817 43.299 207.673 41.014 210.011 38.914 C 212.349 36.815 214.169 34.902 215.626 33.102 C 217.083 31.304 218.177 29.621 219.062 27.981 C 218.318 26.897 217.56 25.866 216.735 24.93 C 215.91 23.994 215.018 23.153 214.007 22.448 C 212.997 21.743 211.867 21.173 210.567 20.779 C 209.267 20.385 207.795 20.168 206.099 20.168 C 205.771 20.168 205.434 20.176 205.089 20.192 C 204.743 20.209 204.39 20.234 204.026 20.267 C 203.662 20.3 203.29 20.343 202.908 20.395 C 202.526 20.446 202.135 20.507 201.733 20.577 C 199.259 21.006 197.006 21.662 195.016 22.525 C 193.027 23.388 191.3 24.46 189.882 25.72 C 188.463 26.981 187.352 28.431 186.594 30.052 C 185.835 31.674 185.43 33.467 185.421 35.411 C 185.412 37.357 185.402 42.142 185.392 48.238 C 185.381 54.346 185.37 61.775 185.36 68.981 C 185.35 76.205 185.341 83.203 185.335 88.411 C 185.329 93.629 185.324 97.044 185.324 97.082 C 185.32 97.964 185.35 98.704 185.489 99.375 C 185.626 100.046 185.87 100.648 186.294 101.257 C 186.718 101.866 187.319 102.48 188.174 103.174 C 189.029 103.868 190.134 104.643 191.564 105.572 C 190.392 105.572 188.497 105.572 186.25 105.572 C 184.002 105.572 181.402 105.572 178.82 105.572 C 176.24 105.572 173.677 105.572 171.504 105.572 C 169.331 105.572 167.547 105.572 166.524 105.572 C 166.931 105.53 167.434 105.427 167.962 105.198 C 168.489 104.969 169.04 104.614 169.54 104.067 C 170.041 103.521 170.492 102.782 170.821 101.787 C 171.149 100.792 171.354 99.54 171.366 97.966 C 171.38 95.849 171.376 91.354 171.345 85.695 C 171.313 80.046 171.253 73.241 171.154 66.485 C 171.055 59.744 170.918 53.049 170.731 47.591 C 170.544 42.142 170.308 37.921 170.011 36.103 C 169.712 34.287 169.356 32.947 168.952 31.956 C 168.55 30.965 168.099 30.322 167.616 29.901 C 167.132 29.48 166.614 29.28 166.072 29.176 C 165.531 29.071 164.967 29.061 164.391 29.02 C 169.666 26.105 174.346 23.765 178.583 21.895 C 182.818 20.026 186.612 18.625 190.12 17.588 C 193.627 16.551 196.848 15.878 199.935 15.464 C 203.022 15.05 205.977 14.895 208.951 14.895 C 209.056 14.895 209.162 14.895 209.268 14.895 C 209.373 14.895 209.48 14.896 209.585 14.897 C 209.69 14.897 209.796 14.898 209.901 14.899 C 210.007 14.9 210.114 14.901 210.219 14.903 C 213.307 14.945 216.098 15.223 218.691 15.764 C 221.284 16.306 223.679 17.111 225.977 18.207 C 228.275 19.303 230.476 20.69 232.679 22.395 C 234.884 24.101 237.092 26.125 239.403 28.495 C 235.175 33.114 230.751 36.82 226.273 39.836 C 221.792 42.855 217.26 45.18 212.825 47.035 C 208.387 48.891 204.048 50.276 199.952 51.414 C 195.852 52.556 191.999 53.447 188.532 54.316 Z" style="fill: rgb(255, 255, 255);"/>
  <path d="M 238.938 16.845 L 268.251 18.228 C 266.991 18.744 265.922 19.288 265.029 19.857 C 264.137 20.426 263.422 21.021 262.867 21.637 C 262.312 22.254 261.921 22.892 261.676 23.549 C 261.43 24.206 261.332 24.882 261.367 25.573 C 261.402 26.262 261.42 27.51 261.429 29.003 C 261.437 30.497 261.434 32.238 261.427 33.912 C 261.42 35.588 261.408 37.197 261.398 38.426 C 261.387 39.656 261.379 40.505 261.377 40.659 L 287.609 40.659 C 287.61 40.543 287.619 39.909 287.623 38.952 C 287.627 37.996 287.625 36.72 287.607 35.322 C 287.589 33.925 287.554 32.406 287.491 30.963 C 287.428 29.522 287.336 28.156 287.203 27.065 C 287.071 25.972 286.75 25.03 286.295 24.217 C 285.842 23.404 285.254 22.718 284.592 22.136 C 283.93 21.555 283.193 21.078 282.436 20.683 C 281.678 20.287 280.903 19.973 280.165 19.716 C 283.963 19.744 287.497 19.806 290.671 19.884 C 293.845 19.962 296.659 20.055 299.017 20.146 C 301.375 20.237 303.275 20.326 304.622 20.394 C 305.969 20.462 306.765 20.509 306.909 20.518 C 306.065 21.235 305.361 21.83 304.764 22.52 C 304.166 23.21 303.678 23.997 303.266 25.096 C 302.856 26.195 302.523 27.607 302.239 29.55 C 301.954 31.494 301.718 33.971 301.499 37.199 C 301.283 40.43 301.012 45.465 300.726 51.29 C 300.439 57.126 300.136 63.76 299.859 70.168 C 299.582 76.589 299.33 82.782 299.145 87.713 C 298.959 92.651 298.841 96.318 298.832 97.672 C 298.822 99.026 298.906 100.212 299.082 101.248 C 299.258 102.285 299.523 103.173 299.879 103.933 C 300.233 104.693 300.675 105.323 301.201 105.845 C 301.728 106.367 302.34 106.781 303.031 107.106 C 299.806 107.077 296.649 107.047 293.718 107.02 C 290.787 106.992 288.083 106.966 285.761 106.944 C 283.441 106.921 281.503 106.902 280.108 106.888 C 278.712 106.873 277.857 106.866 277.703 106.864 C 277.794 106.857 278.294 106.817 279.001 106.628 C 279.709 106.44 280.622 106.102 281.54 105.499 C 282.458 104.896 283.38 104.03 284.103 102.783 C 284.826 101.536 285.35 99.91 285.474 97.79 C 285.597 95.673 285.773 91.58 285.966 86.606 C 286.159 81.641 286.372 75.799 286.571 70.167 C 286.77 64.544 286.956 59.128 287.094 54.991 C 287.235 50.86 287.328 48.001 287.346 47.481 C 283.825 47.54 280.455 47.585 277.369 47.618 C 274.283 47.651 271.482 47.674 269.103 47.688 C 266.722 47.703 264.763 47.71 263.361 47.714 C 261.959 47.717 261.113 47.717 260.959 47.717 C 260.934 48.297 260.789 51.49 260.592 56.029 C 260.393 60.573 260.142 66.472 259.901 72.446 C 259.661 78.432 259.431 84.497 259.278 89.349 C 259.126 94.208 259.049 97.848 259.118 98.967 C 259.185 100.085 259.319 101.078 259.524 101.954 C 259.727 102.83 260.003 103.59 260.351 104.238 C 260.699 104.886 261.122 105.425 261.622 105.86 C 262.123 106.295 262.701 106.627 263.36 106.862 C 260.283 106.862 257.245 106.862 254.409 106.862 C 251.573 106.862 248.939 106.862 246.671 106.862 C 244.403 106.862 242.5 106.862 241.125 106.862 C 239.752 106.862 238.906 106.862 238.752 106.862 C 238.818 106.861 239.188 106.852 239.711 106.696 C 240.234 106.539 240.91 106.233 241.592 105.636 C 242.274 105.039 242.959 104.153 243.502 102.832 C 244.045 101.513 244.443 99.762 244.551 97.437 C 244.659 95.112 244.869 90.03 245.11 83.607 C 245.348 77.198 245.617 69.459 245.84 61.794 C 246.063 54.149 246.24 46.578 246.302 40.464 C 246.363 34.362 246.307 29.706 246.061 27.865 C 245.813 26.026 245.346 24.46 244.76 23.136 C 244.175 21.813 243.47 20.73 242.744 19.856 C 242.019 18.981 241.273 18.314 240.605 17.823 C 239.939 17.336 239.35 17.019 238.938 16.845 Z" style="fill: rgb(255, 255, 255);"/>
  <path d="M 321.467 20.496 C 321.744 20.496 322.03 20.522 322.323 20.576 C 322.618 20.629 322.923 20.709 323.239 20.815 C 323.555 20.922 323.884 21.056 324.225 21.216 C 324.568 21.377 324.924 21.565 325.297 21.781 C 326.787 22.641 329.162 23.983 331.986 25.708 C 334.81 27.434 338.083 29.544 341.364 31.939 C 344.648 34.336 347.941 37.021 350.802 39.893 C 353.665 42.768 356.097 45.831 357.654 48.983 C 357.828 45.279 357.867 42.064 357.769 39.293 C 357.671 36.524 357.437 34.197 357.064 32.268 C 356.693 30.34 356.184 28.809 355.537 27.631 C 354.891 26.453 354.104 25.627 353.18 25.11 C 353.604 25.104 354.024 25.099 354.438 25.095 C 354.853 25.091 355.262 25.088 355.667 25.085 C 356.072 25.082 356.47 25.081 356.862 25.079 C 357.254 25.078 357.639 25.078 358.018 25.078 C 359.534 25.078 360.926 25.087 362.166 25.099 C 363.405 25.112 364.491 25.13 365.395 25.147 C 366.299 25.165 367.02 25.183 367.528 25.196 C 368.037 25.21 368.333 25.22 368.386 25.222 C 367.142 26.055 366.207 26.644 365.504 27.21 C 364.8 27.776 364.328 28.318 364.008 29.059 C 363.688 29.8 363.519 30.739 363.424 32.098 C 363.328 33.457 363.307 35.238 363.278 37.661 C 363.253 40.084 363.202 43.289 363.102 46.95 C 363.002 50.616 362.855 54.739 362.635 58.991 C 362.416 63.249 362.125 67.638 361.739 71.824 C 361.353 76.017 360.873 80.007 360.273 83.461 C 359.673 86.92 358.683 90.242 357.455 93.347 C 356.225 96.453 354.758 99.34 353.207 101.924 C 351.656 104.51 350.021 106.792 348.459 108.687 C 346.896 110.583 345.405 112.088 344.144 113.124 C 346.611 108.426 348.663 104.037 350.303 99.903 C 351.942 95.775 353.17 91.9 353.992 88.225 C 354.813 84.553 355.228 81.08 355.242 77.752 C 355.256 74.428 354.869 71.247 354.084 68.157 C 353.299 65.07 351.6 61.842 349.406 58.702 C 347.217 55.567 344.535 52.521 341.781 49.797 C 339.03 47.076 336.207 44.675 333.729 42.825 C 331.253 40.976 329.123 39.677 327.753 39.158 C 327.306 38.989 326.894 38.829 326.511 38.687 C 326.128 38.544 325.775 38.417 325.45 38.312 C 325.125 38.206 324.827 38.122 324.555 38.064 C 324.282 38.006 324.034 37.974 323.807 37.974 C 323.341 37.974 322.968 38.108 322.662 38.423 C 322.355 38.737 322.117 39.232 321.922 39.953 C 321.727 40.674 321.573 41.621 321.438 42.84 C 321.302 44.06 321.184 45.553 321.059 47.364 C 320.87 50.057 320.606 54.375 320.317 59.39 C 320.027 64.412 319.71 70.136 319.415 75.622 C 319.118 81.119 318.844 86.377 318.639 90.447 C 318.434 94.523 318.298 97.406 318.283 98.143 C 318.265 98.878 318.355 99.731 318.539 100.62 C 318.723 101.51 319 102.433 319.359 103.31 C 319.718 104.187 320.159 105.016 320.668 105.714 C 321.178 106.413 321.756 106.982 322.391 107.335 C 320.688 107.277 318.699 107.156 316.664 107.007 C 314.631 106.858 312.552 106.679 310.667 106.506 C 308.783 106.333 307.093 106.165 305.837 106.036 C 304.58 105.908 303.758 105.818 303.608 105.803 C 304.918 105.626 306.093 105.367 307.128 104.964 C 308.162 104.56 309.057 104.011 309.807 103.251 C 310.556 102.492 311.16 101.523 311.614 100.28 C 312.067 99.037 312.37 97.521 312.518 95.668 C 312.665 93.815 312.935 89.455 313.254 83.897 C 313.573 78.35 313.942 71.615 314.289 64.994 C 314.637 58.388 314.961 51.893 315.195 46.796 C 315.428 41.707 315.571 38.006 315.553 36.968 C 315.534 35.928 315.483 35.07 315.357 34.365 C 315.23 33.66 315.028 33.11 314.711 32.685 C 314.393 32.26 313.96 31.961 313.369 31.761 C 312.779 31.561 312.031 31.46 311.086 31.429 C 312.295 29.639 313.34 28.061 314.281 26.7 C 315.22 25.34 316.056 24.197 316.844 23.277 C 317.633 22.358 318.373 21.662 319.124 21.195 C 319.876 20.733 320.638 20.496 321.467 20.496 Z" style="fill: rgb(255, 255, 255);"/>
  <path d="M 376.217 26.207 C 376.885 26.207 377.671 26.237 378.612 26.3 C 379.553 26.363 380.648 26.461 381.937 26.594 C 383.225 26.728 384.706 26.899 386.416 27.11 C 388.128 27.321 390.068 27.573 392.277 27.869 C 395.304 28.274 398.142 28.629 400.757 28.933 C 403.371 29.237 405.763 29.49 407.898 29.692 C 410.033 29.894 411.911 30.046 413.499 30.147 C 415.088 30.248 416.386 30.298 417.359 30.298 C 417.423 30.298 417.487 30.298 417.547 30.298 C 417.61 30.298 417.669 30.297 417.728 30.296 C 417.787 30.295 417.844 30.294 417.9 30.293 C 417.956 30.292 418.009 30.29 418.062 30.288 C 418.621 30.268 419.14 30.211 419.619 30.138 C 420.098 30.065 420.535 29.973 420.93 29.885 C 421.325 29.797 421.676 29.711 421.983 29.648 C 422.291 29.584 422.552 29.543 422.767 29.543 C 422.881 29.543 422.983 29.555 423.07 29.581 C 423.158 29.607 423.232 29.648 423.293 29.706 C 423.354 29.765 423.4 29.84 423.434 29.936 C 423.468 30.032 423.487 30.148 423.492 30.289 C 423.506 30.691 423.317 31.187 422.95 31.851 C 422.582 32.515 422.036 33.346 421.337 34.419 C 420.637 35.492 419.782 36.807 418.799 38.438 C 417.815 40.069 416.7 42.017 415.482 44.356 C 415.473 44.246 415.428 43.643 415.201 42.76 C 414.974 41.877 414.565 40.715 413.831 39.488 C 413.096 38.261 412.035 36.969 410.504 35.825 C 408.973 34.682 406.972 33.686 404.355 33.053 C 404.108 32.993 403.864 32.941 403.622 32.897 C 403.38 32.853 403.141 32.817 402.904 32.788 C 402.667 32.759 402.432 32.738 402.201 32.724 C 401.97 32.71 401.741 32.703 401.514 32.703 C 399.339 32.703 397.397 33.336 395.679 34.337 C 393.961 35.338 392.467 36.707 391.191 38.177 C 389.914 39.648 388.854 41.221 388.006 42.63 C 387.157 44.039 386.52 45.283 386.088 46.094 C 385.611 46.99 385.342 47.662 385.305 48.169 C 385.268 48.675 385.463 49.015 385.913 49.247 C 386.363 49.479 387.069 49.602 388.055 49.676 C 389.041 49.75 390.307 49.773 391.875 49.803 C 393.443 49.831 395.289 49.94 397.175 50.095 C 399.061 50.251 400.988 50.453 402.718 50.67 C 404.449 50.887 405.986 51.119 407.09 51.333 C 408.194 51.547 408.867 51.743 408.871 51.888 C 408.876 52.033 408.817 52.265 408.646 52.594 C 408.475 52.923 408.193 53.35 407.75 53.886 C 407.309 54.422 406.708 55.066 405.899 55.83 C 405.091 56.595 404.077 57.48 402.806 58.497 C 402.043 57.619 401.168 56.917 400.203 56.36 C 399.238 55.803 398.184 55.388 397.064 55.084 C 395.945 54.779 394.758 54.584 393.529 54.466 C 392.3 54.347 391.028 54.304 389.737 54.304 C 389.621 54.304 389.505 54.304 389.388 54.305 C 389.271 54.306 389.156 54.306 389.039 54.308 C 388.922 54.31 388.806 54.311 388.688 54.313 C 388.572 54.314 388.455 54.317 388.337 54.319 C 386.918 54.35 385.854 54.402 385.05 54.558 C 384.246 54.714 383.702 54.975 383.322 55.425 C 382.943 55.875 382.728 56.512 382.582 57.423 C 382.436 58.334 382.357 59.516 382.253 61.056 C 382.14 68.567 382.937 75.212 384.435 81.089 C 385.936 86.977 388.14 92.09 390.834 96.528 C 393.531 100.972 396.721 104.737 400.186 107.923 C 403.655 111.113 407.4 113.722 411.207 115.852 C 409.853 115.645 407.846 115.283 405.394 114.528 C 402.942 113.774 400.047 112.628 396.921 110.854 C 393.797 109.082 390.443 106.683 387.072 103.424 C 383.705 100.168 380.323 96.056 377.137 90.857 C 373.96 85.666 371.949 80.242 370.772 74.92 C 369.597 69.608 369.252 64.399 369.409 59.622 C 369.564 54.853 370.22 50.516 371.045 46.937 C 371.869 43.363 372.864 40.546 373.703 38.813 C 374.541 37.083 375.164 35.57 375.572 34.243 C 375.979 32.917 376.173 31.776 376.153 30.791 C 376.133 29.806 375.9 28.975 375.455 28.269 C 375.011 27.563 374.353 26.981 373.485 26.492 C 373.652 26.447 373.829 26.406 374.02 26.371 C 374.211 26.336 374.416 26.307 374.639 26.282 C 374.862 26.258 375.102 26.24 375.364 26.227 C 375.625 26.213 375.908 26.207 376.217 26.207 Z" style="fill: rgb(255, 255, 255);"/>
</svg>