<?xml version="1.0" encoding="utf-8"?>
<svg version="1.2" baseProfile="tiny" id="Layer_3" x="0px" y="0px" preserveAspectRatio="none" xmlns="http://www.w3.org/2000/svg">
  <path id="path3" d="M 346.247 175.576 L 345.139 175.611 C 345.279 178.682 344.35 186.719 343.253 194.248 C 342.144 201.869 340.232 226.686 344.724 247.305 C 346.96 257.568 349.581 267.787 353.014 275.703 C 356.445 283.62 360.709 289.344 366.408 290.274 C 371.943 291.178 375.919 289.312 378.798 285.29 C 381.677 281.269 383.573 275.16 385.409 267.38 C 389.07 251.855 392.943 234.498 393.75 230.833 C 394.116 229.172 395.399 227.233 397.09 225.761 C 398.781 224.29 400.869 223.291 402.715 223.356 L 402.749 222.265 C 400.494 222.185 398.204 223.311 396.363 224.913 C 394.522 226.515 393.118 228.605 392.677 230.607 C 391.874 234.261 387.978 251.607 384.318 267.12 C 382.493 274.86 380.6 280.858 377.898 284.633 C 375.196 288.408 371.807 290.021 366.581 289.167 C 361.519 288.34 357.393 283.039 354.017 275.253 C 350.642 267.467 348.027 257.299 345.797 247.063 C 341.358 226.689 343.257 201.881 344.343 194.421 C 345.443 186.872 346.401 178.947 346.247 175.576 Z" style="fill: rgb(30, 30, 30);" transform="matrix(0.965926, -0.258819, 0.258819, 0.965926, -47.62807, 104.303396)"/>
  <path id="path5" d="M 385.627 111.871 C 385.2 111.883 384.59 111.985 383.169 112.131 C 381.636 112.288 375.549 113.322 368.789 114.623 C 362.028 115.923 354.676 117.466 350.774 118.655 C 346.854 119.849 342.578 122.088 339.18 124.107 C 337.48 125.115 335.996 126.059 334.905 126.806 C 334.359 127.18 333.909 127.505 333.573 127.758 C 333.237 128.011 333.046 128.16 332.88 128.346 C 332.411 128.874 332.33 129.594 332.293 130.648 C 332.254 131.702 332.305 133.123 332.379 135.026 L 333.486 134.974 C 333.414 133.07 333.365 131.677 333.4 130.7 C 333.435 129.723 333.596 129.204 333.712 129.073 C 333.692 129.095 333.929 128.88 334.248 128.641 C 334.566 128.401 334.994 128.09 335.529 127.723 C 336.599 126.991 338.057 126.055 339.734 125.058 C 343.088 123.067 347.337 120.859 351.103 119.711 C 354.889 118.558 362.251 117.012 368.997 115.714 C 375.742 114.416 381.951 113.357 383.273 113.222 C 384.708 113.075 385.375 112.987 385.644 112.98 C 385.779 112.977 385.784 112.981 385.783 112.98 C 385.781 112.979 385.832 113.017 385.973 113.119 L 386.613 112.219 C 386.498 112.136 386.414 112.058 386.233 111.976 C 386.052 111.894 385.84 111.866 385.627 111.871 Z" style="fill: rgb(30, 30, 30);" transform="matrix(0.965926, -0.258819, 0.258819, 0.965926, -19.702918, 97.237939)"/>
  <path id="path7" d="M 438.316 71.255 C 418.201 71.255 400.072 76.221 387.249 84.217 L 386.937 84.407 L 386.989 84.753 L 393.859 133.224 L 383.995 96.746 L 382.939 97.039 L 395.122 142.154 L 395.122 142.171 L 395.139 142.223 L 396.212 142.015 L 396.212 141.946 L 396.195 141.877 L 388.131 84.978 C 400.716 77.225 418.534 72.363 438.316 72.363 L 438.645 72.363 C 458.422 72.363 476.245 77.23 488.829 84.978 L 480.765 141.946 L 480.748 142.016 L 481.839 142.224 L 494.038 97.04 L 492.966 96.746 L 483.086 133.329 L 489.972 84.754 L 490.024 84.408 L 489.731 84.218 C 476.907 76.223 458.761 71.256 438.646 71.256 L 438.316 71.256 Z" style="fill: rgb(30, 30, 30);" transform="matrix(0.965926, -0.258819, 0.258819, 0.965926, -12.685082, 117.126235)"/>
  <path id="path9" d="M 411.669 81.415 C 411.669 81.415 410.192 84.447 408.934 87.922 C 408.303 89.668 407.964 90.955 407.394 91.85 C 406.825 92.744 406.047 93.333 404.262 93.787 C 402.511 94.234 397.343 94.914 391.249 95.968 C 385.153 97.022 378.076 98.469 372.248 100.536 C 352.95 107.381 339.403 126.156 339.403 147.814 C 339.403 175.658 361.992 197.578 389.812 198.24 C 402.07 198.532 410.408 200.09 416.081 202.342 C 421.755 204.594 424.765 207.518 426.533 210.631 C 427.339 212.05 428.226 215.785 429.025 220.668 C 429.824 225.55 430.596 231.631 431.362 237.99 C 432.892 250.707 434.417 264.515 436.293 272.202 C 438.565 281.51 441.545 292.512 445.725 301.239 C 447.814 305.604 450.213 309.39 452.993 312.125 C 455.773 314.858 458.97 316.537 462.597 316.537 L 463.79 316.537 C 467.419 316.537 470.632 314.858 473.412 312.125 C 476.192 309.39 478.574 305.604 480.662 301.239 C 484.843 292.511 487.822 281.509 490.094 272.202 C 491.971 264.516 493.512 250.707 495.044 237.99 C 495.809 231.631 496.564 225.551 497.362 220.668 C 498.162 215.785 499.049 212.05 499.854 210.631 C 501.624 207.518 504.65 204.594 510.322 202.342 C 515.996 200.09 524.318 198.532 536.576 198.24 C 564.397 197.578 586.985 175.659 586.985 147.814 C 586.985 126.156 573.437 107.381 554.14 100.536 C 548.313 98.469 541.235 97.022 535.14 95.968 C 529.045 94.914 523.877 94.234 522.126 93.787 C 520.341 93.333 519.563 92.744 518.993 91.85 C 518.425 90.955 518.103 89.668 517.472 87.922 C 516.215 84.447 514.736 81.415 514.736 81.415 L 513.732 81.9 C 513.732 81.9 515.182 84.878 516.413 88.285 C 517.028 89.979 517.347 91.32 518.059 92.439 C 518.77 93.557 519.9 94.366 521.848 94.862 C 523.831 95.367 528.879 96.01 534.948 97.06 C 541.017 98.109 548.061 99.549 553.775 101.577 C 572.625 108.262 585.877 126.62 585.877 147.815 C 585.877 175.061 563.795 196.486 536.539 197.135 C 524.199 197.428 515.763 198.981 509.908 201.304 C 504.052 203.629 500.775 206.75 498.884 210.079 C 497.861 211.881 497.076 215.563 496.271 220.478 C 495.468 225.395 494.701 231.491 493.935 237.853 C 492.405 250.578 490.858 264.403 489.022 271.927 C 486.754 281.213 483.769 292.171 479.659 300.757 C 477.604 305.049 475.273 308.751 472.633 311.347 C 469.994 313.942 467.08 315.43 463.79 315.43 L 462.596 315.43 C 459.306 315.43 456.393 313.942 453.753 311.347 C 451.114 308.751 448.783 305.049 446.727 300.757 C 442.617 292.171 439.632 281.212 437.366 271.927 C 435.529 264.402 433.982 250.578 432.452 237.853 C 431.686 231.491 430.919 225.394 430.115 220.478 C 429.312 215.563 428.526 211.88 427.502 210.079 C 425.611 206.75 422.335 203.629 416.479 201.304 C 410.624 198.981 402.186 197.427 389.847 197.135 C 362.591 196.485 340.51 175.061 340.51 147.815 C 340.51 126.619 353.761 108.262 372.611 101.577 C 378.326 99.549 385.37 98.109 391.439 97.06 C 397.508 96.01 402.556 95.367 404.539 94.862 C 406.487 94.366 407.616 93.558 408.329 92.439 C 409.041 91.32 409.36 89.98 409.972 88.285 C 411.205 84.878 412.654 81.9 412.654 81.9 L 411.669 81.415 Z" style="fill: rgb(30, 30, 30);" transform="matrix(0.965926, -0.258819, 0.258819, 0.965926, -35.715848, 126.663524)"/>
  <path id="path11" d="M 584.998 125.571 C 584.845 128.942 585.802 136.867 586.901 144.417 C 587.987 151.876 589.885 176.684 585.447 197.058 C 583.218 207.295 580.603 217.462 577.227 225.248 C 573.851 233.034 569.726 238.336 564.665 239.163 C 559.438 240.016 556.067 238.403 553.364 234.628 C 550.662 230.854 548.752 224.854 546.927 217.115 C 543.267 201.602 539.39 184.256 538.585 180.602 C 538.145 178.601 536.723 176.511 534.881 174.909 C 533.041 173.306 530.752 172.18 528.497 172.261 L 528.548 173.352 C 530.393 173.286 532.464 174.285 534.156 175.757 C 535.847 177.229 537.131 179.167 537.496 180.828 C 538.302 184.492 542.193 201.851 545.854 217.376 C 547.69 225.155 549.585 231.265 552.464 235.286 C 555.345 239.308 559.32 241.173 564.855 240.269 C 570.555 239.339 574.818 233.615 578.25 225.699 C 581.682 217.782 584.303 207.564 586.539 197.301 C 591.031 176.682 589.12 151.865 588.01 144.244 C 586.913 136.713 585.966 128.677 586.106 125.606 L 584.998 125.571 Z" style="fill: rgb(30, 30, 30);" transform="matrix(0.965926, -0.258819, 0.258819, 0.965926, -28.326831, 150.900293)"/>
  <path id="path13" d="M 489.116 70.114 C 488.903 70.109 488.691 70.137 488.51 70.219 C 488.33 70.299 488.227 70.378 488.112 70.461 L 488.752 71.361 C 488.895 71.26 488.964 71.221 488.961 71.222 C 488.958 71.223 488.947 71.219 489.081 71.222 C 489.351 71.229 490.018 71.318 491.452 71.465 C 492.775 71.6 498.982 72.658 505.728 73.956 C 512.474 75.254 519.854 76.8 523.639 77.953 C 527.404 79.102 531.637 81.31 534.991 83.3 C 536.669 84.297 538.127 85.233 539.195 85.965 C 539.732 86.333 540.176 86.644 540.493 86.883 C 540.812 87.122 541.033 87.338 541.013 87.315 C 541.129 87.447 541.307 87.965 541.342 88.942 C 541.378 89.92 541.328 91.312 541.255 93.216 L 542.345 93.268 C 542.419 91.366 542.488 89.945 542.449 88.89 C 542.412 87.836 542.314 87.117 541.844 86.588 C 541.678 86.401 541.489 86.253 541.151 86 C 540.816 85.748 540.366 85.422 539.819 85.049 C 538.728 84.301 537.261 83.358 535.563 82.349 C 532.164 80.331 527.872 78.092 523.951 76.898 C 520.049 75.708 512.697 74.166 505.937 72.865 C 499.177 71.564 493.106 70.531 491.574 70.373 C 490.153 70.228 489.543 70.126 489.116 70.114 Z" style="fill: rgb(30, 30, 30);" transform="matrix(0.965926, -0.258819, 0.258819, 0.965926, -3.585174, 136.14931)"/>
  <path id="circle15" d="M 373.444 144.235 C 357.296 144.235 344.199 157.351 344.199 173.497 C 344.199 189.644 357.296 202.743 373.444 202.743 C 389.592 202.743 402.689 189.644 402.689 173.497 C 402.689 157.351 389.592 144.235 373.444 144.235 Z M 373.444 145.343 C 388.993 145.343 401.582 157.948 401.582 173.497 C 401.582 189.047 388.993 201.636 373.444 201.636 C 357.895 201.636 345.306 189.047 345.306 173.497 C 345.306 157.948 357.894 145.343 373.444 145.343 Z" style="fill: rgb(30, 30, 30);" transform="matrix(0.965926, -0.258819, 0.258819, 0.965926, -32.17745, 102.56584)"/>
  <path id="circle17" d="M 452.884 146.733 C 445.308 146.733 439.145 152.897 439.145 160.473 C 439.145 168.05 445.308 174.196 452.884 174.196 C 460.461 174.196 466.607 168.05 466.607 160.473 C 466.608 152.896 460.461 146.733 452.884 146.733 Z M 452.884 147.841 C 459.862 147.841 465.499 153.495 465.499 160.473 C 465.499 167.451 459.862 173.089 452.884 173.089 C 445.907 173.089 440.252 167.451 440.252 160.473 C 440.252 153.494 445.907 147.841 452.884 147.841 Z" style="fill: rgb(30, 30, 30);" transform="matrix(0.965926, -0.258819, 0.258819, 0.965926, -26.099895, 122.680619)"/>
  <path id="circle19" d="M 466.28 182.383 C 450.78 182.383 438.195 194.969 438.195 210.469 C 438.195 225.969 450.78 238.538 466.28 238.538 C 481.781 238.538 494.348 225.97 494.348 210.469 C 494.348 194.968 481.781 182.383 466.28 182.383 Z M 466.28 183.49 C 481.182 183.49 493.242 195.566 493.242 210.469 C 493.242 225.371 481.182 237.43 466.28 237.43 C 451.378 237.43 439.302 225.371 439.302 210.469 C 439.302 195.566 451.378 183.49 466.28 183.49 Z" style="fill: rgb(30, 30, 30);" transform="matrix(0.965926, -0.258819, 0.258819, 0.965926, -38.583395, 127.851363)"/>
  <path id="circle21" d="M 452.887 150.106 C 447.17 150.106 442.521 154.755 442.521 160.472 C 442.521 166.188 447.17 170.838 452.887 170.838 C 458.604 170.838 463.252 166.188 463.252 160.472 C 463.252 154.754 458.605 150.106 452.887 150.106 Z M 452.887 151.213 C 458.005 151.213 462.145 155.353 462.145 160.471 C 462.145 165.589 458.005 169.729 452.887 169.729 C 447.768 169.729 443.629 165.589 443.629 160.471 C 443.629 155.352 447.768 151.213 452.887 151.213 Z" style="fill: rgb(30, 30, 30);" transform="matrix(0.965926, -0.258819, 0.258819, 0.965926, -26.101468, 122.683522)"/>
  <path id="circle23" d="M 504.677 134.831 C 498.394 134.831 493.289 139.934 493.289 146.217 C 493.289 152.5 498.394 157.604 504.677 157.604 C 510.96 157.604 516.065 152.5 516.065 146.217 C 516.064 139.934 510.959 134.831 504.677 134.831 Z M 504.677 135.938 C 510.361 135.938 514.956 140.533 514.956 146.217 C 514.956 151.901 510.361 156.496 504.677 156.496 C 498.993 156.496 494.398 151.901 494.398 146.217 C 494.397 140.533 498.993 135.938 504.677 135.938 Z" style="fill: rgb(30, 30, 30);" transform="matrix(0.965926, -0.258819, 0.258819, 0.965926, -20.647422, 135.602163)"/>
  <path id="circle25" d="M 527.555 147.799 C 521.27 147.799 516.166 152.902 516.166 159.185 C 516.166 165.468 521.27 170.572 527.555 170.572 C 533.837 170.572 538.941 165.468 538.941 159.185 C 538.941 152.902 533.837 147.799 527.555 147.799 Z M 527.555 148.906 C 533.238 148.906 537.833 153.501 537.833 159.185 C 537.833 164.87 533.238 169.464 527.555 169.464 C 521.87 169.464 517.274 164.87 517.274 159.185 C 517.274 153.501 521.87 148.906 527.555 148.906 Z" style="fill: rgb(30, 30, 30);" transform="matrix(0.965926, -0.258819, 0.258819, 0.965926, -23.224289, 141.964903)"/>
  <path id="path27" d="M 367.736 150.396 C 365.657 150.396 363.963 152.09 363.963 154.168 L 363.963 162.751 C 363.963 163.26 363.896 163.592 363.791 163.738 C 363.684 163.884 363.507 164.015 362.873 164.015 L 354.117 164.015 C 352.039 164.015 350.345 165.709 350.345 167.787 L 350.345 179.209 C 350.345 181.287 352.039 182.981 354.117 182.981 L 362.752 182.981 C 363.173 182.982 363.467 183.082 363.652 183.259 C 363.836 183.435 363.963 183.712 363.963 184.192 L 363.963 192.828 C 363.963 194.906 365.658 196.6 367.736 196.6 L 379.156 196.6 C 381.235 196.6 382.929 194.906 382.929 192.828 L 382.929 184.175 C 382.929 183.525 383.067 183.289 383.206 183.172 C 383.345 183.055 383.631 182.981 384.089 182.981 L 392.776 182.981 C 394.854 182.981 396.548 181.287 396.548 179.209 L 396.548 167.787 C 396.548 165.709 394.854 164.015 392.776 164.015 L 384.106 164.015 C 383.441 164.015 382.929 163.589 382.929 162.804 L 382.929 154.168 C 382.929 152.09 381.235 150.396 379.156 150.396 L 367.736 150.396 Z M 367.736 151.503 L 379.156 151.503 C 380.635 151.503 381.821 152.689 381.821 154.167 L 381.821 162.803 C 381.821 164.14 382.893 165.122 384.106 165.122 L 392.776 165.122 C 394.255 165.122 395.44 166.307 395.44 167.787 L 395.44 179.208 C 395.44 180.687 394.255 181.873 392.776 181.873 L 384.089 181.873 C 383.534 181.873 382.958 181.935 382.497 182.323 C 382.035 182.709 381.822 183.349 381.822 184.174 L 381.822 192.826 C 381.822 194.305 380.636 195.491 379.157 195.491 L 367.736 195.491 C 366.256 195.491 365.071 194.305 365.071 192.826 L 365.071 184.191 C 365.071 183.489 364.846 182.873 364.414 182.46 C 363.982 182.048 363.38 181.872 362.753 181.872 L 354.118 181.872 C 352.637 181.872 351.453 180.686 351.453 179.207 L 351.453 167.786 C 351.453 166.306 352.637 165.121 354.118 165.121 L 362.874 165.121 C 363.693 165.121 364.336 164.867 364.691 164.377 C 365.046 163.886 365.071 163.326 365.071 162.751 L 365.071 154.168 C 365.07 152.689 366.256 151.503 367.736 151.503 Z" style="fill: rgb(30, 30, 30);" transform="matrix(0.965926, -0.258819, 0.258819, 0.965926, -32.179706, 102.566867)"/>
  <path id="path31" d="M 383.713 164.986 C 382.848 164.986 382.138 165.696 382.138 166.56 L 382.138 173.396 C 382.138 174.261 382.848 174.988 383.713 174.988 C 384.024 174.988 384.314 174.886 384.562 174.728 C 384.567 174.724 384.573 174.714 384.579 174.71 L 384.596 174.71 L 390.202 171.318 L 390.219 171.318 C 390.668 171.04 390.963 170.547 390.963 169.986 C 390.963 169.391 390.626 168.87 390.132 168.602 L 390.116 168.585 L 384.578 165.245 C 384.574 165.242 384.565 165.248 384.561 165.245 C 384.314 165.082 384.03 164.986 383.713 164.986 L 383.713 164.986 Z M 383.713 166.093 C 383.813 166.093 383.898 166.111 383.973 166.161 L 383.973 166.179 L 383.99 166.179 L 389.562 169.553 L 389.579 169.553 L 389.597 169.57 C 389.746 169.649 389.856 169.799 389.856 169.986 C 389.856 170.159 389.763 170.302 389.631 170.384 L 383.99 173.776 L 383.99 173.793 L 383.973 173.793 C 383.898 173.843 383.814 173.88 383.713 173.88 C 383.447 173.88 383.246 173.662 383.246 173.395 L 383.246 166.56 C 383.246 166.294 383.447 166.093 383.713 166.093 L 383.713 166.093 Z" style="fill: rgb(30, 30, 30);" transform="matrix(0.965926, -0.258819, 0.258819, 0.965926, -30.824482, 105.838798)"/>
  <path id="circle33" d="M 373.444 168.687 C 370.8 168.687 368.65 170.853 368.65 173.497 C 368.65 176.142 370.8 178.291 373.444 178.291 C 376.088 178.291 378.238 176.142 378.238 173.497 C 378.238 170.853 376.088 168.687 373.444 168.687 Z M 373.444 169.795 C 375.489 169.795 377.13 171.452 377.13 173.497 C 377.13 175.543 375.489 177.184 373.444 177.184 C 371.398 177.184 369.758 175.543 369.758 173.497 C 369.758 171.452 371.398 169.795 373.444 169.795 Z" style="fill: rgb(30, 30, 30);" transform="matrix(0.965926, -0.258819, 0.258819, 0.965926, -32.17745, 102.56584)"/>
  <path id="path35" d="M 369.935 155.98 C 369.348 155.98 368.839 156.311 368.568 156.793 C 368.56 156.807 368.54 156.813 368.533 156.828 L 365.211 162.365 L 365.194 162.348 C 365.188 162.358 365.2 162.373 365.194 162.382 C 365.038 162.627 364.934 162.92 364.934 163.23 C 364.934 164.095 365.643 164.805 366.51 164.805 L 373.362 164.805 C 374.228 164.805 374.937 164.096 374.937 163.23 C 374.937 162.911 374.826 162.614 374.66 162.364 L 374.66 162.348 L 371.286 156.723 L 371.269 156.723 C 370.989 156.277 370.497 155.98 369.935 155.98 Z M 369.935 157.087 C 370.108 157.087 370.25 157.179 370.333 157.312 L 373.724 162.937 L 373.741 162.953 L 373.741 162.971 C 373.792 163.045 373.828 163.131 373.828 163.23 C 373.828 163.496 373.629 163.697 373.362 163.697 L 366.509 163.697 C 366.241 163.697 366.041 163.497 366.041 163.23 C 366.041 163.131 366.077 163.046 366.128 162.971 L 366.128 162.953 L 369.503 157.363 L 369.503 157.347 L 369.52 157.347 C 369.598 157.196 369.748 157.087 369.935 157.087 Z" style="fill: rgb(30, 30, 30);" transform="matrix(0.965926, -0.258819, 0.258819, 0.965926, -28.907374, 101.211523)"/>
  <path id="path37" d="M 363.179 172.006 C 362.868 172.006 362.576 172.09 362.33 172.248 L 362.296 172.265 L 356.689 175.657 L 356.671 175.657 C 356.224 175.935 355.928 176.444 355.928 177.006 C 355.928 177.602 356.266 178.123 356.759 178.391 L 356.776 178.408 L 362.314 181.73 L 362.33 181.748 L 362.33 181.73 C 362.579 181.892 362.863 182.007 363.179 182.007 C 364.044 182.007 364.771 181.28 364.771 180.416 L 364.771 173.58 C 364.771 172.714 364.044 172.006 363.179 172.006 L 363.179 172.006 Z M 363.179 173.113 C 363.445 173.113 363.663 173.314 363.663 173.58 L 363.663 180.416 C 363.663 180.682 363.446 180.9 363.179 180.9 C 363.078 180.9 362.994 180.864 362.919 180.813 L 362.903 180.796 L 357.33 177.439 L 357.313 177.422 L 357.296 177.422 C 357.146 177.344 357.036 177.192 357.036 177.006 C 357.036 176.833 357.128 176.691 357.261 176.609 L 362.903 173.199 L 362.919 173.182 C 362.994 173.131 363.079 173.113 363.179 173.113 L 363.179 173.113 Z" style="fill: rgb(30, 30, 30);" transform="matrix(0.965926, -0.258819, 0.258819, 0.965926, -33.534042, 99.296658)"/>
  <path id="path39" d="M 373.527 182.173 C 372.661 182.173 371.951 182.883 371.951 183.749 C 371.951 184.059 372.052 184.367 372.211 184.613 L 372.228 184.648 L 375.602 190.255 L 375.62 190.255 C 375.898 190.703 376.39 190.999 376.952 190.999 C 377.539 190.999 378.048 190.667 378.319 190.185 L 378.336 190.185 C 378.342 190.174 378.348 190.162 378.354 190.15 L 381.693 184.631 L 381.693 184.613 C 381.855 184.365 381.952 184.064 381.952 183.748 C 381.952 182.882 381.243 182.172 380.378 182.172 L 373.527 182.172 L 373.527 182.173 Z M 373.527 183.281 L 380.379 183.281 C 380.646 183.281 380.846 183.482 380.846 183.748 C 380.846 183.847 380.81 183.949 380.759 184.024 L 380.759 184.042 L 377.385 189.614 L 377.385 189.631 L 377.367 189.648 C 377.289 189.8 377.138 189.891 376.952 189.891 C 376.778 189.891 376.637 189.816 376.554 189.683 L 373.162 184.042 L 373.145 184.024 C 373.095 183.95 373.058 183.847 373.058 183.748 C 373.059 183.482 373.26 183.281 373.527 183.281 Z" style="fill: rgb(30, 30, 30);" transform="matrix(0.965926, -0.258819, 0.258819, 0.965926, -35.447583, 103.920025)"/>
  <path id="polygon41" d="M 465.225 193.162 L 465.069 193.213 L 452.662 197.955 L 452.386 198.059 L 452.317 198.336 L 449.011 211.332 L 448.976 211.504 L 449.028 211.678 L 453.769 224.085 L 453.873 224.345 L 454.15 224.414 L 467.162 227.719 L 467.319 227.755 L 467.492 227.704 L 479.9 222.96 L 480.159 222.857 L 480.229 222.58 L 483.534 209.585 L 483.586 209.411 L 483.516 209.239 L 478.775 196.849 L 478.67 196.571 L 478.394 196.502 L 465.398 193.198 L 465.225 193.162 Z M 465.295 194.321 L 477.841 197.505 L 482.409 209.481 L 479.224 222.027 L 467.25 226.595 L 454.704 223.411 L 450.134 211.436 L 453.318 198.89 L 465.295 194.321 Z" style="fill: rgb(30, 30, 30);" transform="matrix(0.965926, -0.258819, 0.258819, 0.965926, -38.582484, 127.853352)"/>
  <path id="circle43" d="M 466.28 197.125 C 458.919 197.125 452.938 203.105 452.938 210.466 C 452.938 217.828 458.919 223.791 466.28 223.791 C 473.641 223.791 479.623 217.828 479.623 210.466 C 479.623 203.105 473.641 197.125 466.28 197.125 Z M 466.28 198.233 C 473.043 198.233 478.515 203.703 478.515 210.466 C 478.515 217.228 473.043 222.684 466.28 222.684 C 459.518 222.684 454.046 217.229 454.046 210.466 C 454.046 203.703 459.518 198.233 466.28 198.233 Z" style="fill: rgb(30, 30, 30);" transform="matrix(0.965926, -0.258819, 0.258819, 0.965926, -38.582376, 127.853212)"/>
  <path id="line45" d="M 513.956 152.04 L 513.211 152.836 L 516.637 156.072 L 517.398 155.258 L 513.956 152.04 Z" style="fill: rgb(30, 30, 30);" transform="matrix(0.965926, -0.258819, 0.258819, 0.965926, -22.314051, 138.619855)"/>
  <path id="line47" d="M 515.609 148.858 L 514.849 149.671 L 518.294 152.89 L 519.054 152.094 L 515.609 148.858 Z" style="fill: rgb(30, 30, 30);" transform="matrix(0.965926, -0.258819, 0.258819, 0.965926, -21.434363, 138.937714)"/>
  <g id="g49" transform="matrix(0.71643, -0.191967, 0.191967, 0.71643, 214.461288, 124.569061)">
    <path id="path51" d="M402.872,99.087c-0.419,0-0.812,0.114-1.143,0.326l-0.047,0.024l-7.559,4.572h-0.023&#10;&#9;&#9;c-0.604,0.376-1.003,1.039-1.003,1.797c0,0.803,0.456,1.505,1.118,1.867l0.024,0.023l7.466,4.503l0.023,0.023v-0.023&#10;&#9;&#9;c0.334,0.216,0.718,0.35,1.143,0.35c1.167,0,2.147-0.957,2.147-2.123v-9.216C405.02,100.042,404.039,99.087,402.872,99.087&#10;&#9;&#9;L402.872,99.087z M402.872,100.58c0.361,0,0.653,0.271,0.653,0.63v9.216c0,0.359-0.291,0.629-0.653,0.629&#10;&#9;&#9;c-0.132,0-0.246-0.025-0.35-0.093v-0.023H402.5l-7.514-4.526l-0.022-0.023h-0.023c-0.201-0.106-0.351-0.332-0.351-0.583&#10;&#9;&#9;c0-0.226,0.133-0.399,0.304-0.513l7.606-4.597h0.022v-0.023C402.626,100.604,402.738,100.58,402.872,100.58L402.872,100.58z" style="fill: rgb(30, 30, 30);"/>
    <path id="circle53" d="M400.237,94.163c-6.428,0-11.644,5.24-11.644,11.666c0,6.427,5.216,11.643,11.644,11.643&#10;&#9;&#9;c6.425,0,11.665-5.216,11.665-11.643C411.902,99.403,406.662,94.163,400.237,94.163z M400.237,95.657&#10;&#9;&#9;c5.619,0,10.172,4.553,10.172,10.172c0,5.62-4.553,10.15-10.172,10.15s-10.149-4.53-10.149-10.15&#10;&#9;&#9;C390.088,100.209,394.618,95.657,400.237,95.657z" style="fill: rgb(30, 30, 30);"/>
    <path id="path55" d="M441.627,99.087c-1.167,0-2.147,0.957-2.147,2.123v9.216c0,1.167,0.98,2.123,2.147,2.123&#10;&#9;&#9;c0.419,0,0.811-0.113,1.144-0.327c0.008-0.005,0.016-0.018,0.022-0.023h0.023l7.559-4.573h0.024&#10;&#9;&#9;c0.604-0.375,1.003-1.039,1.003-1.797c0-0.802-0.455-1.505-1.12-1.867l-0.023-0.023l-7.466-4.502c-0.006-0.005-0.017,0.003-0.022,0&#10;&#9;&#9;C442.436,99.218,442.054,99.087,441.627,99.087L441.627,99.087z M441.627,100.58c0.132,0,0.247,0.024,0.349,0.093v0.023H442&#10;&#9;&#9;l7.513,4.527l0.022,0.023h0.023c0.207,0.107,0.351,0.33,0.351,0.583c0,0.227-0.135,0.401-0.304,0.514L442,110.938l-0.024,0.023&#10;&#9;&#9;c-0.099,0.067-0.211,0.093-0.349,0.093c-0.359,0-0.654-0.27-0.654-0.629v-9.216C440.973,100.85,441.268,100.58,441.627,100.58&#10;&#9;&#9;L441.627,100.58z" style="fill: rgb(30, 30, 30);"/>
    <path id="circle57" d="M444.263,94.163c-6.427,0-11.665,5.24-11.665,11.666c0,6.427,5.238,11.643,11.665,11.643&#10;&#9;&#9;s11.643-5.216,11.643-11.643C455.905,99.403,450.689,94.163,444.263,94.163z M444.263,95.657c5.619,0,10.15,4.553,10.15,10.172&#10;&#9;&#9;c0,5.62-4.531,10.15-10.15,10.15c-5.62,0-10.173-4.53-10.173-10.15C434.09,100.209,438.643,95.657,444.263,95.657z" style="fill: rgb(30, 30, 30);"/>
  </g>
  <g id="g59" transform="matrix(0.71643, -0.191967, 0.191967, 0.71643, 214.461288, 124.569061)">
    <path id="path61" d="M422.262,76.665c-0.757,0-1.444,0.4-1.82,1.003v0.023l-4.572,7.559&#10;&#9;&#9;c-0.005,0.006,0.004,0.018,0,0.024l-0.024,0.023c-0.211,0.332-0.326,0.724-0.326,1.143c0,1.166,0.956,2.146,2.123,2.146h9.216&#10;&#9;&#9;c1.167,0,2.147-0.979,2.147-2.146c0-0.426-0.152-0.808-0.373-1.143v-0.023l-4.504-7.467c-0.004-0.01-0.017-0.013-0.023-0.023&#10;&#9;&#9;C423.744,77.121,423.064,76.665,422.262,76.665L422.262,76.665z M422.262,78.158c0.251,0,0.454,0.147,0.56,0.35v0.023l0.023,0.023&#10;&#9;&#9;l4.526,7.513l0.023,0.023c0.067,0.1,0.116,0.217,0.116,0.35c0,0.359-0.292,0.654-0.653,0.654h-9.216&#10;&#9;&#9;c-0.361,0-0.63-0.294-0.63-0.654c0-0.136,0.025-0.25,0.093-0.35l0.023-0.023l4.597-7.606&#10;&#9;&#9;C421.839,78.29,422.034,78.158,422.262,78.158z" style="fill: rgb(30, 30, 30);"/>
    <path id="circle63" d="M422.262,72.162c-6.427,0-11.666,5.215-11.666,11.642c0,6.427,5.239,11.666,11.666,11.666&#10;&#9;&#9;c6.428,0,11.642-5.239,11.642-11.666C433.903,77.377,428.689,72.162,422.262,72.162z M422.262,73.655&#10;&#9;&#9;c5.619,0,10.148,4.528,10.148,10.149c0,5.62-4.529,10.173-10.148,10.173c-5.62,0-10.173-4.553-10.173-10.173&#10;&#9;&#9;C412.089,78.184,416.642,73.655,422.262,73.655z" style="fill: rgb(30, 30, 30);"/>
    <path id="path65" d="M417.642,123.048c-1.167,0-2.123,0.979-2.123,2.146c0,0.425,0.13,0.809,0.351,1.143h-0.024&#10;&#9;&#9;l0.024,0.024l4.503,7.466l0.022,0.023c0.362,0.665,1.064,1.12,1.867,1.12c0.757,0,1.421-0.401,1.796-1.003v-0.023l4.574-7.56&#10;&#9;&#9;v-0.023c0.005-0.008,0.018-0.015,0.021-0.024c0.214-0.33,0.352-0.721,0.352-1.143c0-1.167-0.979-2.146-2.147-2.146H417.642&#10;&#9;&#9;L417.642,123.048z M417.642,124.541h9.216c0.361,0,0.653,0.294,0.653,0.653c0,0.134-0.046,0.248-0.116,0.351l-0.023,0.023&#10;&#9;&#9;l-4.597,7.606c-0.113,0.172-0.287,0.304-0.513,0.304c-0.253,0-0.478-0.147-0.584-0.35v-0.023l-0.023-0.023l-4.526-7.513&#10;&#9;&#9;l-0.023-0.023c-0.065-0.099-0.093-0.215-0.093-0.351C417.012,124.834,417.282,124.541,417.642,124.541L417.642,124.541z" style="fill: rgb(30, 30, 30);"/>
    <path id="circle67" d="M422.262,116.165c-6.427,0-11.666,5.239-11.666,11.666c0,6.426,5.239,11.642,11.666,11.642&#10;&#9;&#9;s11.642-5.216,11.642-11.642C433.903,121.404,428.688,116.165,422.262,116.165z M422.262,117.658&#10;&#9;&#9;c5.619,0,10.148,4.553,10.148,10.173c0,5.619-4.529,10.149-10.148,10.149c-5.62,0-10.173-4.53-10.173-10.149&#10;&#9;&#9;C412.089,122.211,416.642,117.658,422.262,117.658z" style="fill: rgb(30, 30, 30);"/>
  </g>
  <path id="path69" d="M 526.188 104.765 C 521.616 106.8 517.94 110.479 515.927 115.061 L 516.947 115.511 C 518.849 111.183 522.32 107.69 526.638 105.768 L 526.188 104.765 Z" style="fill: rgb(30, 30, 30);" transform="matrix(0.965926, -0.258819, 0.258819, 0.965926, -10.743536, 138.670788)"/>
  <path id="path71" d="M 523.752 130.032 L 522.749 130.481 C 524.773 134.998 528.403 138.624 532.924 140.639 L 533.391 139.635 C 529.121 137.732 525.665 134.298 523.752 130.032 Z" style="fill: rgb(30, 30, 30);" transform="matrix(0.965926, -0.258819, 0.258819, 0.965926, -17.033859, 141.28593)"/>
  <path id="path73" d="M 557.57 123.267 C 555.669 127.5 552.267 130.91 548.036 132.819 L 548.504 133.84 C 552.981 131.818 556.58 128.198 558.593 123.717 L 557.57 123.267 Z" style="fill: rgb(30, 30, 30);" transform="matrix(0.965926, -0.258819, 0.258819, 0.965926, -14.418354, 147.588787)"/>
  <path id="path75" d="M 541.742 98.027 L 541.275 99.048 C 545.508 100.959 548.926 104.377 550.828 108.617 L 551.832 108.15 C 549.819 103.662 546.223 100.05 541.742 98.027 Z" style="fill: rgb(30, 30, 30);" transform="matrix(0.965926, -0.258819, 0.258819, 0.965926, -8.118349, 144.978964)"/>
</svg>