<?xml version="1.0" encoding="utf-8"?>
<svg version="1.2" baseProfile="tiny" id="Layer_3" x="0px" y="0px" viewBox="0 0 1280 720" preserveAspectRatio="none" xmlns="http://www.w3.org/2000/svg">
  <path id="path3" d="M 386.045 322.706 L 383.604 322.783 C 383.912 329.552 381.863 347.265 379.447 363.861 C 377.002 380.658 372.787 435.356 382.689 480.802 C 387.616 503.422 393.393 525.944 400.959 543.393 C 408.523 560.841 417.92 573.457 430.481 575.507 C 442.68 577.499 451.444 573.388 457.79 564.523 C 464.136 555.659 468.314 542.195 472.36 525.048 C 480.43 490.829 488.966 452.573 490.745 444.495 C 491.551 440.835 494.379 436.562 498.106 433.317 C 501.834 430.074 506.435 427.872 510.503 428.017 L 510.58 425.612 C 505.608 425.436 500.562 427.916 496.504 431.448 C 492.447 434.979 489.352 439.586 488.379 443.997 C 486.609 452.051 478.022 490.282 469.957 524.474 C 465.934 541.533 461.762 554.755 455.807 563.074 C 449.85 571.394 442.382 574.949 430.862 573.068 C 419.705 571.245 410.611 559.561 403.171 542.4 C 395.731 525.239 389.969 502.829 385.053 480.267 C 375.27 435.362 379.455 380.683 381.849 364.242 C 384.273 347.602 386.384 330.137 386.045 322.706 Z" style="fill: rgb(30, 30, 30);" transform="matrix(0.965926, -0.258819, 0.258819, 0.965926, -101.189218, 130.099157)"/>
  <path id="path5" d="M 472.84 182.296 C 471.9 182.322 470.556 182.548 467.424 182.87 C 464.045 183.216 450.629 185.494 435.728 188.361 C 420.827 191.228 404.622 194.629 396.023 197.249 C 387.383 199.881 377.959 204.816 370.468 209.265 C 366.723 211.486 363.452 213.567 361.047 215.215 C 359.844 216.039 358.852 216.755 358.111 217.313 C 357.37 217.87 356.95 218.199 356.584 218.609 C 355.549 219.773 355.371 221.359 355.289 223.682 C 355.204 226.005 355.317 229.138 355.479 233.332 L 357.92 233.217 C 357.76 229.021 357.652 225.951 357.73 223.796 C 357.807 221.643 358.162 220.499 358.417 220.211 C 358.373 220.26 358.896 219.786 359.599 219.258 C 360.3 218.73 361.242 218.043 362.422 217.236 C 364.781 215.621 367.993 213.558 371.689 211.362 C 379.083 206.974 388.447 202.106 396.749 199.577 C 405.092 197.035 421.319 193.627 436.187 190.766 C 451.054 187.905 464.738 185.572 467.653 185.275 C 470.815 184.951 472.286 184.756 472.879 184.74 C 473.175 184.733 473.188 184.742 473.185 184.74 C 473.18 184.738 473.293 184.823 473.603 185.046 L 475.014 183.063 C 474.761 182.881 474.575 182.708 474.176 182.528 C 473.777 182.348 473.311 182.285 472.84 182.296 Z" style="fill: rgb(30, 30, 30);" transform="matrix(0.965926, -0.258819, 0.258819, 0.965926, -39.640618, 114.52641)"/>
  <path id="path7" d="M 588.97 92.777 C 544.637 92.777 504.678 103.722 476.415 121.346 L 475.729 121.765 L 475.843 122.526 L 490.984 229.36 L 469.243 148.959 L 466.917 149.606 L 493.768 249.042 L 493.768 249.08 L 493.807 249.194 L 496.171 248.736 L 496.171 248.583 L 496.134 248.431 L 478.36 123.023 C 506.099 105.934 545.369 95.218 588.97 95.218 L 589.696 95.218 C 633.285 95.218 672.568 105.945 700.305 123.023 L 682.531 248.584 L 682.493 248.738 L 684.898 249.196 L 711.786 149.608 L 709.422 148.96 L 687.646 229.592 L 702.824 122.528 L 702.939 121.766 L 702.292 121.348 C 674.028 103.725 634.032 92.779 589.697 92.779 L 588.97 92.779 Z" style="fill: rgb(30, 30, 30);" transform="matrix(0.965926, -0.258819, 0.258819, 0.965926, -24.1729, 158.361688)"/>
  <path id="path9" d="M 530.24 115.169 C 530.24 115.169 526.983 121.852 524.212 129.511 C 522.82 133.359 522.073 136.197 520.817 138.169 C 519.563 140.14 517.848 141.438 513.913 142.439 C 510.054 143.424 498.664 144.922 485.232 147.245 C 471.797 149.568 456.198 152.757 443.352 157.313 C 400.819 172.4 370.96 213.781 370.96 261.516 C 370.96 322.888 420.747 371.199 482.065 372.66 C 509.083 373.303 527.459 376.737 539.963 381.7 C 552.469 386.663 559.103 393.109 563 399.969 C 564.777 403.098 566.732 411.33 568.493 422.092 C 570.254 432.852 571.956 446.255 573.643 460.27 C 577.015 488.3 580.378 518.734 584.512 535.675 C 589.519 556.191 596.088 580.44 605.3 599.676 C 609.905 609.295 615.192 617.64 621.32 623.668 C 627.447 629.693 634.493 633.393 642.487 633.393 L 645.118 633.393 C 653.115 633.393 660.198 629.692 666.325 623.668 C 672.451 617.64 677.702 609.295 682.305 599.676 C 691.519 580.438 698.085 556.19 703.093 535.675 C 707.23 518.736 710.627 488.3 714.003 460.27 C 715.689 446.255 717.354 432.854 719.112 422.092 C 720.874 411.329 722.829 403.098 724.605 399.969 C 728.505 393.109 735.176 386.663 747.677 381.7 C 760.183 376.737 778.524 373.303 805.541 372.66 C 866.86 371.199 916.646 322.89 916.646 261.516 C 916.646 213.781 886.786 172.4 844.254 157.313 C 831.41 152.757 815.811 149.568 802.377 147.245 C 788.942 144.922 777.553 143.423 773.693 142.439 C 769.758 141.438 768.045 140.14 766.788 138.169 C 765.536 136.197 764.826 133.359 763.435 129.511 C 760.664 121.852 757.406 115.169 757.406 115.169 L 755.192 116.238 C 755.192 116.238 758.388 122.803 761.102 130.312 C 762.456 134.046 763.159 137.001 764.728 139.467 C 766.297 141.932 768.786 143.714 773.08 144.807 C 777.45 145.921 788.578 147.338 801.953 149.651 C 815.33 151.964 830.856 155.137 843.45 159.607 C 884.997 174.342 914.204 214.803 914.204 261.519 C 914.204 321.572 865.534 368.792 805.46 370.223 C 778.262 370.87 759.668 374.293 746.764 379.413 C 733.856 384.537 726.635 391.416 722.466 398.752 C 720.212 402.725 718.481 410.84 716.707 421.673 C 714.937 432.51 713.246 445.946 711.559 459.968 C 708.187 488.015 704.777 518.487 700.729 535.069 C 695.731 555.536 689.153 579.689 680.093 598.613 C 675.563 608.072 670.427 616.233 664.607 621.954 C 658.791 627.674 652.369 630.954 645.116 630.954 L 642.486 630.954 C 635.234 630.954 628.814 627.674 622.996 621.954 C 617.178 616.233 612.041 608.072 607.51 598.613 C 598.45 579.689 591.872 555.534 586.876 535.069 C 582.827 518.484 579.418 488.015 576.046 459.968 C 574.357 445.946 572.668 432.509 570.896 421.673 C 569.126 410.84 567.393 402.723 565.137 398.752 C 560.968 391.416 553.748 384.537 540.841 379.413 C 527.935 374.293 509.339 370.868 482.142 370.223 C 422.069 368.792 373.401 321.572 373.401 261.519 C 373.401 214.803 402.606 174.342 444.153 159.607 C 456.749 155.139 472.274 151.964 485.65 149.651 C 499.027 147.338 510.153 145.921 514.525 144.807 C 518.818 143.714 521.307 141.933 522.877 139.467 C 524.446 137.001 525.149 134.047 526.499 130.312 C 529.216 122.803 532.411 116.238 532.411 116.238 L 530.24 115.169 Z" style="fill: rgb(30, 30, 30);" transform="matrix(0.965926, -0.258819, 0.258819, 0.965926, -74.933996, 179.381772)"/>
  <path id="path11" d="M 912.266 212.493 C 911.93 219.923 914.038 237.389 916.461 254.029 C 918.854 270.47 923.039 325.149 913.257 370.054 C 908.343 392.616 902.58 415.026 895.14 432.187 C 887.699 449.348 878.607 461.032 867.451 462.855 C 855.931 464.735 848.501 461.181 842.544 452.861 C 836.588 444.542 832.379 431.318 828.356 414.261 C 820.29 380.069 811.745 341.838 809.97 333.784 C 809 329.373 805.866 324.766 801.807 321.235 C 797.751 317.703 792.705 315.221 787.735 315.399 L 787.848 317.804 C 791.915 317.659 796.479 319.861 800.207 323.104 C 803.936 326.349 806.765 330.622 807.57 334.282 C 809.347 342.358 817.921 380.618 825.992 414.835 C 830.038 431.982 834.215 445.448 840.561 454.31 C 846.91 463.175 855.672 467.286 867.871 465.294 C 880.433 463.244 889.829 450.628 897.393 433.18 C 904.959 415.731 910.734 393.209 915.663 370.589 C 925.563 325.143 921.351 270.445 918.905 253.648 C 916.487 237.05 914.4 219.338 914.709 212.57 L 912.266 212.493 Z" style="fill: rgb(30, 30, 30);" transform="matrix(0.965926, -0.258819, 0.258819, 0.965926, -58.648417, 232.801656)"/>
  <path id="path13" d="M 700.936 90.261 C 700.467 90.25 700.001 90.312 699.602 90.492 C 699.205 90.67 698.978 90.843 698.724 91.026 L 700.135 93.009 C 700.449 92.787 700.601 92.702 700.595 92.703 C 700.588 92.705 700.564 92.697 700.859 92.703 C 701.455 92.718 702.926 92.914 706.086 93.238 C 709.001 93.537 722.683 95.868 737.552 98.729 C 752.42 101.59 768.686 104.998 777.028 107.54 C 785.327 110.071 794.655 114.938 802.049 119.325 C 805.747 121.521 808.96 123.584 811.315 125.199 C 812.497 126.008 813.476 126.695 814.176 127.221 C 814.879 127.748 815.366 128.225 815.322 128.174 C 815.577 128.464 815.969 129.606 816.046 131.759 C 816.125 133.914 816.015 136.984 815.855 141.18 L 818.258 141.295 C 818.42 137.102 818.572 133.97 818.487 131.645 C 818.404 129.322 818.188 127.736 817.153 126.572 C 816.787 126.16 816.37 125.832 815.626 125.276 C 814.886 124.72 813.895 124.002 812.69 123.179 C 810.284 121.531 807.052 119.451 803.308 117.228 C 795.818 112.781 786.357 107.846 777.716 105.213 C 769.116 102.592 752.912 99.193 738.011 96.324 C 723.112 93.457 709.731 91.18 706.354 90.833 C 703.222 90.513 701.878 90.287 700.936 90.261 Z" style="fill: rgb(30, 30, 30);" transform="matrix(0.965926, -0.258819, 0.258819, 0.965926, -4.116125, 200.289711)"/>
  <path id="circle15" d="M 445.989 253.629 C 410.398 253.629 381.53 282.537 381.53 318.125 C 381.53 353.714 410.398 382.584 445.989 382.584 C 481.579 382.584 510.447 353.714 510.447 318.125 C 510.447 282.537 481.579 253.629 445.989 253.629 Z M 445.989 256.07 C 480.26 256.07 508.007 283.854 508.007 318.125 C 508.007 352.397 480.26 380.145 445.989 380.145 C 411.718 380.145 383.971 352.398 383.971 318.125 C 383.971 283.854 411.716 256.07 445.989 256.07 Z" style="fill: rgb(30, 30, 30);" transform="matrix(0.965926, -0.258819, 0.258819, 0.965926, -67.135298, 126.269422)"/>
  <path id="circle17" d="M 621.08 259.135 C 604.381 259.135 590.797 272.72 590.797 289.419 C 590.797 306.118 604.381 319.664 621.08 319.664 C 637.78 319.664 651.325 306.118 651.325 289.419 C 651.327 272.718 637.78 259.135 621.08 259.135 Z M 621.08 261.576 C 636.46 261.576 648.883 274.039 648.883 289.419 C 648.883 304.797 636.459 317.225 621.08 317.225 C 605.702 317.225 593.237 304.797 593.237 289.419 C 593.237 274.037 605.701 261.576 621.08 261.576 Z" style="fill: rgb(30, 30, 30);" transform="matrix(0.965926, -0.258819, 0.258819, 0.965926, -53.739979, 170.603548)"/>
  <path id="circle19" d="M 650.606 337.708 C 616.442 337.708 588.703 365.449 588.703 399.612 C 588.703 433.775 616.442 461.478 650.606 461.478 C 684.771 461.478 712.469 433.777 712.469 399.612 C 712.469 365.447 684.771 337.708 650.606 337.708 Z M 650.606 340.149 C 683.45 340.149 710.03 366.766 710.03 399.612 C 710.03 432.458 683.45 459.037 650.606 459.037 C 617.761 459.037 591.144 432.458 591.144 399.612 C 591.144 366.766 617.761 340.149 650.606 340.149 Z" style="fill: rgb(30, 30, 30);" transform="matrix(0.965926, -0.258819, 0.258819, 0.965926, -81.25415, 182.000019)"/>
  <path id="circle21" d="M 621.085 266.568 C 608.485 266.568 598.238 276.815 598.238 289.416 C 598.238 302.015 608.485 312.263 621.085 312.263 C 633.686 312.263 643.931 302.015 643.931 289.416 C 643.931 276.813 633.688 266.568 621.085 266.568 Z M 621.085 269.009 C 632.367 269.009 641.491 278.134 641.491 289.414 C 641.491 300.694 632.367 309.819 621.085 309.819 C 609.804 309.819 600.68 300.695 600.68 289.414 C 600.68 278.132 609.804 269.009 621.085 269.009 Z" style="fill: rgb(30, 30, 30);" transform="matrix(0.965926, -0.258819, 0.258819, 0.965926, -53.743299, 170.610074)"/>
  <path id="circle23" d="M 735.234 232.901 C 721.386 232.901 710.134 244.15 710.134 257.998 C 710.134 271.846 721.386 283.095 735.234 283.095 C 749.082 283.095 760.335 271.846 760.335 257.998 C 760.333 244.15 749.081 232.901 735.234 232.901 Z M 735.234 235.342 C 747.763 235.342 757.891 245.469 757.891 257.998 C 757.891 270.525 747.763 280.652 735.234 280.652 C 722.707 280.652 712.578 270.525 712.578 257.998 C 712.577 245.469 722.706 235.342 735.234 235.342 Z" style="fill: rgb(30, 30, 30);" transform="matrix(0.965926, -0.258819, 0.258819, 0.965926, -41.72228, 199.083745)"/>
  <path id="circle25" d="M 785.658 261.483 C 771.807 261.483 760.557 272.732 760.557 286.58 C 760.557 300.428 771.807 311.677 785.658 311.677 C 799.505 311.677 810.754 300.428 810.754 286.58 C 810.754 272.732 799.505 261.483 785.658 261.483 Z M 785.658 263.924 C 798.185 263.924 808.312 274.051 808.312 286.58 C 808.312 299.109 798.185 309.236 785.658 309.236 C 773.129 309.236 763 299.109 763 286.58 C 763 274.051 773.129 263.924 785.658 263.924 Z" style="fill: rgb(30, 30, 30);" transform="matrix(0.965926, -0.258819, 0.258819, 0.965926, -47.401803, 213.107569)"/>
  <path id="path27" d="M 433.407 267.208 C 428.825 267.208 425.093 270.941 425.093 275.522 L 425.093 294.439 C 425.093 295.562 424.944 296.292 424.712 296.614 C 424.478 296.936 424.086 297.225 422.69 297.225 L 403.391 297.225 C 398.811 297.225 395.077 300.959 395.077 305.539 L 395.077 330.713 C 395.077 335.294 398.811 339.027 403.391 339.027 L 422.423 339.027 C 423.352 339.029 423.999 339.25 424.406 339.639 C 424.813 340.028 425.093 340.638 425.093 341.697 L 425.093 360.73 C 425.093 365.311 428.827 369.045 433.407 369.045 L 458.579 369.045 C 463.16 369.045 466.895 365.311 466.895 360.73 L 466.895 341.659 C 466.895 340.226 467.198 339.706 467.505 339.448 C 467.812 339.191 468.442 339.027 469.45 339.027 L 488.597 339.027 C 493.177 339.027 496.911 335.294 496.911 330.713 L 496.911 305.539 C 496.911 300.959 493.177 297.225 488.597 297.225 L 469.488 297.225 C 468.022 297.225 466.895 296.287 466.895 294.555 L 466.895 275.522 C 466.895 270.941 463.16 267.208 458.579 267.208 L 433.407 267.208 Z M 433.407 269.647 L 458.579 269.647 C 461.839 269.647 464.453 272.261 464.453 275.52 L 464.453 294.554 C 464.453 297.501 466.815 299.664 469.488 299.664 L 488.597 299.664 C 491.858 299.664 494.47 302.276 494.47 305.538 L 494.47 330.711 C 494.47 333.971 491.858 336.585 488.597 336.585 L 469.45 336.585 C 468.228 336.585 466.959 336.722 465.942 337.576 C 464.925 338.427 464.455 339.838 464.455 341.656 L 464.455 360.727 C 464.455 363.987 461.841 366.601 458.581 366.601 L 433.409 366.601 C 430.146 366.601 427.535 363.987 427.535 360.727 L 427.535 341.694 C 427.535 340.147 427.038 338.79 426.087 337.88 C 425.135 336.971 423.808 336.583 422.425 336.583 L 403.393 336.583 C 400.13 336.583 397.519 333.968 397.519 330.71 L 397.519 305.536 C 397.519 302.275 400.13 299.662 403.393 299.662 L 422.691 299.662 C 424.498 299.662 425.915 299.103 426.696 298.023 C 427.48 296.941 427.535 295.706 427.535 294.438 L 427.535 275.522 C 427.533 272.261 430.146 269.647 433.407 269.647 Z" style="fill: rgb(30, 30, 30);" transform="matrix(0.965926, -0.258819, 0.258819, 0.965926, -67.14032, 126.271628)"/>
  <path id="path31" d="M 468.623 299.365 C 466.715 299.365 465.15 300.929 465.15 302.835 L 465.15 317.901 C 465.15 319.808 466.715 321.41 468.623 321.41 C 469.308 321.41 469.948 321.186 470.493 320.837 C 470.504 320.828 470.517 320.806 470.53 320.798 L 470.568 320.798 L 482.925 313.322 L 482.963 313.322 C 483.952 312.709 484.602 311.622 484.602 310.386 C 484.602 309.075 483.859 307.926 482.771 307.334 L 482.734 307.297 L 470.529 299.937 C 470.519 299.93 470.501 299.942 470.491 299.937 C 469.947 299.577 469.321 299.365 468.623 299.365 L 468.623 299.365 Z M 468.623 301.804 C 468.842 301.804 469.03 301.845 469.195 301.956 L 469.195 301.994 L 469.232 301.994 L 481.514 309.432 L 481.552 309.432 L 481.59 309.469 C 481.92 309.643 482.162 309.974 482.162 310.385 C 482.162 310.766 481.957 311.081 481.665 311.263 L 469.232 318.738 L 469.232 318.776 L 469.195 318.776 C 469.031 318.887 468.845 318.967 468.623 318.967 C 468.036 318.967 467.594 318.488 467.594 317.9 L 467.594 302.834 C 467.594 302.247 468.036 301.804 468.623 301.804 L 468.623 301.804 Z" style="fill: rgb(30, 30, 30);" transform="matrix(0.965926, -0.258819, 0.258819, 0.965926, -64.153202, 133.483167)"/>
  <path id="circle33" d="M 445.989 307.522 C 440.161 307.522 435.423 312.297 435.423 318.125 C 435.423 323.953 440.161 328.691 445.989 328.691 C 451.817 328.691 456.554 323.953 456.554 318.125 C 456.554 312.297 451.817 307.522 445.989 307.522 Z M 445.989 309.965 C 450.497 309.965 454.112 313.617 454.112 318.125 C 454.112 322.634 450.497 326.25 445.989 326.25 C 441.48 326.25 437.864 322.634 437.864 318.125 C 437.864 313.617 441.479 309.965 445.989 309.965 Z" style="fill: rgb(30, 30, 30);" transform="matrix(0.965926, -0.258819, 0.258819, 0.965926, -67.135298, 126.269422)"/>
  <path id="path35" d="M 438.255 279.515 C 436.962 279.515 435.839 280.246 435.242 281.307 C 435.224 281.338 435.181 281.351 435.165 281.384 L 427.843 293.589 L 427.805 293.551 C 427.792 293.572 427.819 293.607 427.805 293.626 C 427.462 294.166 427.233 294.812 427.233 295.495 C 427.233 297.401 428.796 298.966 430.705 298.966 L 445.809 298.966 C 447.717 298.966 449.28 297.403 449.28 295.495 C 449.28 294.792 449.034 294.138 448.668 293.587 L 448.668 293.55 L 441.232 281.153 L 441.194 281.153 C 440.578 280.171 439.494 279.515 438.255 279.515 Z M 438.255 281.956 C 438.636 281.956 438.948 282.157 439.133 282.451 L 446.607 294.848 L 446.644 294.885 L 446.644 294.923 C 446.756 295.088 446.836 295.276 446.836 295.495 C 446.836 296.082 446.396 296.525 445.807 296.525 L 430.704 296.525 C 430.114 296.525 429.672 296.083 429.672 295.495 C 429.672 295.276 429.752 295.09 429.864 294.923 L 429.864 294.885 L 437.302 282.564 L 437.302 282.528 L 437.339 282.528 C 437.511 282.196 437.843 281.956 438.255 281.956 Z" style="fill: rgb(30, 30, 30);" transform="matrix(0.965926, -0.258819, 0.258819, 0.965926, -59.92772, 123.284752)"/>
  <path id="path37" d="M 423.364 314.838 C 422.678 314.838 422.035 315.023 421.494 315.371 L 421.419 315.408 L 409.06 322.884 L 409.021 322.884 C 408.035 323.497 407.383 324.62 407.383 325.858 C 407.383 327.172 408.127 328.32 409.214 328.91 L 409.251 328.947 L 421.457 336.27 L 421.494 336.309 L 421.494 336.27 C 422.042 336.628 422.668 336.881 423.364 336.881 C 425.271 336.881 426.873 335.279 426.873 333.373 L 426.873 318.307 C 426.874 316.399 425.271 314.838 423.364 314.838 L 423.364 314.838 Z M 423.364 317.277 C 423.951 317.277 424.432 317.72 424.432 318.307 L 424.432 333.373 C 424.432 333.96 423.953 334.44 423.364 334.44 C 423.142 334.44 422.956 334.362 422.792 334.249 L 422.755 334.211 L 410.473 326.812 L 410.435 326.775 L 410.397 326.775 C 410.066 326.602 409.825 326.268 409.825 325.858 C 409.825 325.477 410.028 325.163 410.321 324.982 L 422.755 317.467 L 422.792 317.429 C 422.957 317.318 423.144 317.277 423.364 317.277 L 423.364 317.277 Z" style="fill: rgb(30, 30, 30);" transform="matrix(0.965926, -0.258819, 0.258819, 0.965926, -70.125362, 119.064083)"/>
  <path id="path39" d="M 446.171 337.247 C 444.263 337.247 442.699 338.811 442.699 340.719 C 442.699 341.404 442.921 342.081 443.271 342.625 L 443.309 342.702 L 450.745 355.059 L 450.785 355.059 C 451.398 356.048 452.483 356.699 453.721 356.699 C 455.015 356.699 456.137 355.967 456.733 354.906 L 456.771 354.906 C 456.784 354.881 456.797 354.855 456.81 354.829 L 464.17 342.663 L 464.17 342.624 C 464.528 342.078 464.742 341.414 464.742 340.718 C 464.742 338.808 463.178 337.245 461.272 337.245 L 446.171 337.245 L 446.171 337.247 Z M 446.171 339.688 L 461.275 339.688 C 461.862 339.688 462.303 340.131 462.303 340.718 C 462.303 340.935 462.225 341.161 462.112 341.327 L 462.112 341.365 L 454.674 353.647 L 454.674 353.685 L 454.636 353.722 C 454.463 354.056 454.131 354.257 453.721 354.257 C 453.338 354.257 453.026 354.093 452.843 353.799 L 445.367 341.365 L 445.329 341.327 C 445.22 341.164 445.138 340.937 445.138 340.718 C 445.141 340.131 445.583 339.688 446.171 339.688 Z" style="fill: rgb(30, 30, 30);" transform="matrix(0.965926, -0.258819, 0.258819, 0.965926, -74.342815, 129.254325)"/>
  <path id="polygon41" d="M 648.28 361.466 L 647.937 361.579 L 620.591 372.03 L 619.981 372.259 L 619.829 372.87 L 612.543 401.515 L 612.466 401.894 L 612.58 402.277 L 623.031 429.624 L 623.26 430.195 L 623.87 430.349 L 652.55 437.633 L 652.894 437.712 L 653.276 437.599 L 680.624 427.144 L 681.196 426.916 L 681.35 426.306 L 688.633 397.663 L 688.749 397.281 L 688.595 396.901 L 678.144 369.593 L 677.914 368.981 L 677.305 368.828 L 648.661 361.545 L 648.28 361.466 Z M 648.434 364.021 L 676.086 371.04 L 686.154 397.434 L 679.135 425.086 L 652.742 435.156 L 625.09 428.138 L 615.019 401.744 L 622.037 374.092 L 648.434 364.021 Z" style="fill: rgb(30, 30, 30);" transform="matrix(0.965926, -0.258819, 0.258819, 0.965926, -81.252323, 182.005272)"/>
  <path id="circle43" d="M 650.605 370.201 C 634.38 370.201 621.198 383.382 621.198 399.607 C 621.198 415.832 634.38 428.975 650.605 428.975 C 666.829 428.975 680.013 415.832 680.013 399.607 C 680.013 383.382 666.829 370.201 650.605 370.201 Z M 650.605 372.643 C 665.511 372.643 677.571 384.701 677.571 399.607 C 677.571 414.511 665.511 426.535 650.605 426.535 C 635.701 426.535 623.641 414.513 623.641 399.607 C 623.641 384.701 635.701 372.643 650.605 372.643 Z" style="fill: rgb(30, 30, 30);" transform="matrix(0.965926, -0.258819, 0.258819, 0.965926, -81.252083, 182.004514)"/>
  <path id="line45" d="M 755.685 270.832 L 754.045 272.586 L 761.596 279.718 L 763.273 277.925 L 755.685 270.832 Z" style="fill: rgb(30, 30, 30);" transform="matrix(0.965926, -0.258819, 0.258819, 0.965926, -45.395735, 205.735148)"/>
  <path id="line47" d="M 759.33 263.817 L 757.653 265.611 L 765.247 272.704 L 766.922 270.95 L 759.33 263.817 Z" style="fill: rgb(30, 30, 30);" transform="matrix(0.965926, -0.258819, 0.258819, 0.965926, -43.456606, 206.435259)"/>
  <g id="g49" transform="matrix(1.579057, -0.423107, 0.423107, 1.579057, 95.581169, 210.283768)">
    <path id="path51" d="M402.872,99.087c-0.419,0-0.812,0.114-1.143,0.326l-0.047,0.024l-7.559,4.572h-0.023&#10;&#9;&#9;c-0.604,0.376-1.003,1.039-1.003,1.797c0,0.803,0.456,1.505,1.118,1.867l0.024,0.023l7.466,4.503l0.023,0.023v-0.023&#10;&#9;&#9;c0.334,0.216,0.718,0.35,1.143,0.35c1.167,0,2.147-0.957,2.147-2.123v-9.216C405.02,100.042,404.039,99.087,402.872,99.087&#10;&#9;&#9;L402.872,99.087z M402.872,100.58c0.361,0,0.653,0.271,0.653,0.63v9.216c0,0.359-0.291,0.629-0.653,0.629&#10;&#9;&#9;c-0.132,0-0.246-0.025-0.35-0.093v-0.023H402.5l-7.514-4.526l-0.022-0.023h-0.023c-0.201-0.106-0.351-0.332-0.351-0.583&#10;&#9;&#9;c0-0.226,0.133-0.399,0.304-0.513l7.606-4.597h0.022v-0.023C402.626,100.604,402.738,100.58,402.872,100.58L402.872,100.58z" style="fill: rgb(30, 30, 30);"/>
    <path id="circle53" d="M400.237,94.163c-6.428,0-11.644,5.24-11.644,11.666c0,6.427,5.216,11.643,11.644,11.643&#10;&#9;&#9;c6.425,0,11.665-5.216,11.665-11.643C411.902,99.403,406.662,94.163,400.237,94.163z M400.237,95.657&#10;&#9;&#9;c5.619,0,10.172,4.553,10.172,10.172c0,5.62-4.553,10.15-10.172,10.15s-10.149-4.53-10.149-10.15&#10;&#9;&#9;C390.088,100.209,394.618,95.657,400.237,95.657z" style="fill: rgb(30, 30, 30);"/>
    <path id="path55" d="M441.627,99.087c-1.167,0-2.147,0.957-2.147,2.123v9.216c0,1.167,0.98,2.123,2.147,2.123&#10;&#9;&#9;c0.419,0,0.811-0.113,1.144-0.327c0.008-0.005,0.016-0.018,0.022-0.023h0.023l7.559-4.573h0.024&#10;&#9;&#9;c0.604-0.375,1.003-1.039,1.003-1.797c0-0.802-0.455-1.505-1.12-1.867l-0.023-0.023l-7.466-4.502c-0.006-0.005-0.017,0.003-0.022,0&#10;&#9;&#9;C442.436,99.218,442.054,99.087,441.627,99.087L441.627,99.087z M441.627,100.58c0.132,0,0.247,0.024,0.349,0.093v0.023H442&#10;&#9;&#9;l7.513,4.527l0.022,0.023h0.023c0.207,0.107,0.351,0.33,0.351,0.583c0,0.227-0.135,0.401-0.304,0.514L442,110.938l-0.024,0.023&#10;&#9;&#9;c-0.099,0.067-0.211,0.093-0.349,0.093c-0.359,0-0.654-0.27-0.654-0.629v-9.216C440.973,100.85,441.268,100.58,441.627,100.58&#10;&#9;&#9;L441.627,100.58z" style="fill: rgb(30, 30, 30);"/>
    <path id="circle57" d="M444.263,94.163c-6.427,0-11.665,5.24-11.665,11.666c0,6.427,5.238,11.643,11.665,11.643&#10;&#9;&#9;s11.643-5.216,11.643-11.643C455.905,99.403,450.689,94.163,444.263,94.163z M444.263,95.657c5.619,0,10.15,4.553,10.15,10.172&#10;&#9;&#9;c0,5.62-4.531,10.15-10.15,10.15c-5.62,0-10.173-4.53-10.173-10.15C434.09,100.209,438.643,95.657,444.263,95.657z" style="fill: rgb(30, 30, 30);"/>
  </g>
  <g id="g59" transform="matrix(1.579057, -0.423107, 0.423107, 1.579057, 95.581169, 210.283768)">
    <path id="path61" d="M422.262,76.665c-0.757,0-1.444,0.4-1.82,1.003v0.023l-4.572,7.559&#10;&#9;&#9;c-0.005,0.006,0.004,0.018,0,0.024l-0.024,0.023c-0.211,0.332-0.326,0.724-0.326,1.143c0,1.166,0.956,2.146,2.123,2.146h9.216&#10;&#9;&#9;c1.167,0,2.147-0.979,2.147-2.146c0-0.426-0.152-0.808-0.373-1.143v-0.023l-4.504-7.467c-0.004-0.01-0.017-0.013-0.023-0.023&#10;&#9;&#9;C423.744,77.121,423.064,76.665,422.262,76.665L422.262,76.665z M422.262,78.158c0.251,0,0.454,0.147,0.56,0.35v0.023l0.023,0.023&#10;&#9;&#9;l4.526,7.513l0.023,0.023c0.067,0.1,0.116,0.217,0.116,0.35c0,0.359-0.292,0.654-0.653,0.654h-9.216&#10;&#9;&#9;c-0.361,0-0.63-0.294-0.63-0.654c0-0.136,0.025-0.25,0.093-0.35l0.023-0.023l4.597-7.606&#10;&#9;&#9;C421.839,78.29,422.034,78.158,422.262,78.158z" style="fill: rgb(30, 30, 30);"/>
    <path id="circle63" d="M422.262,72.162c-6.427,0-11.666,5.215-11.666,11.642c0,6.427,5.239,11.666,11.666,11.666&#10;&#9;&#9;c6.428,0,11.642-5.239,11.642-11.666C433.903,77.377,428.689,72.162,422.262,72.162z M422.262,73.655&#10;&#9;&#9;c5.619,0,10.148,4.528,10.148,10.149c0,5.62-4.529,10.173-10.148,10.173c-5.62,0-10.173-4.553-10.173-10.173&#10;&#9;&#9;C412.089,78.184,416.642,73.655,422.262,73.655z" style="fill: rgb(30, 30, 30);"/>
    <path id="path65" d="M417.642,123.048c-1.167,0-2.123,0.979-2.123,2.146c0,0.425,0.13,0.809,0.351,1.143h-0.024&#10;&#9;&#9;l0.024,0.024l4.503,7.466l0.022,0.023c0.362,0.665,1.064,1.12,1.867,1.12c0.757,0,1.421-0.401,1.796-1.003v-0.023l4.574-7.56&#10;&#9;&#9;v-0.023c0.005-0.008,0.018-0.015,0.021-0.024c0.214-0.33,0.352-0.721,0.352-1.143c0-1.167-0.979-2.146-2.147-2.146H417.642&#10;&#9;&#9;L417.642,123.048z M417.642,124.541h9.216c0.361,0,0.653,0.294,0.653,0.653c0,0.134-0.046,0.248-0.116,0.351l-0.023,0.023&#10;&#9;&#9;l-4.597,7.606c-0.113,0.172-0.287,0.304-0.513,0.304c-0.253,0-0.478-0.147-0.584-0.35v-0.023l-0.023-0.023l-4.526-7.513&#10;&#9;&#9;l-0.023-0.023c-0.065-0.099-0.093-0.215-0.093-0.351C417.012,124.834,417.282,124.541,417.642,124.541L417.642,124.541z" style="fill: rgb(30, 30, 30);"/>
    <path id="circle67" d="M422.262,116.165c-6.427,0-11.666,5.239-11.666,11.666c0,6.426,5.239,11.642,11.666,11.642&#10;&#9;&#9;s11.642-5.216,11.642-11.642C433.903,121.404,428.688,116.165,422.262,116.165z M422.262,117.658&#10;&#9;&#9;c5.619,0,10.148,4.553,10.148,10.173c0,5.619-4.529,10.149-10.148,10.149c-5.62,0-10.173-4.53-10.173-10.149&#10;&#9;&#9;C412.089,122.211,416.642,117.658,422.262,117.658z" style="fill: rgb(30, 30, 30);"/>
  </g>
  <path id="path69" d="M 782.647 166.635 C 772.57 171.12 764.467 179.229 760.03 189.328 L 762.279 190.319 C 766.471 180.779 774.121 173.082 783.637 168.845 L 782.647 166.635 Z" style="fill: rgb(30, 30, 30);" transform="matrix(0.965926, -0.258819, 0.258819, 0.965926, -19.893656, 205.846642)"/>
  <path id="path71" d="M 777.276 222.324 L 775.066 223.315 C 779.527 233.27 787.528 241.261 797.493 245.703 L 798.521 243.491 C 789.11 239.296 781.494 231.727 777.276 222.324 Z" style="fill: rgb(30, 30, 30);" transform="matrix(0.965926, -0.258819, 0.258819, 0.965926, -33.757816, 211.61093)"/>
  <path id="path73" d="M 851.815 207.414 C 847.625 216.744 840.125 224.259 830.801 228.468 L 831.831 230.718 C 841.7 226.261 849.631 218.282 854.069 208.405 L 851.815 207.414 Z" style="fill: rgb(30, 30, 30);" transform="matrix(0.965926, -0.258819, 0.258819, 0.965926, -27.993182, 225.502699)"/>
  <path id="path75" d="M 816.929 151.783 L 815.899 154.033 C 825.228 158.246 832.763 165.78 836.953 175.125 L 839.166 174.095 C 834.731 164.203 826.804 156.243 816.929 151.783 Z" style="fill: rgb(30, 30, 30);" transform="matrix(0.965926, -0.258819, 0.258819, 0.965926, -14.107526, 219.750711)"/>
</svg>