<?xml version="1.0" encoding="utf-8"?>
<svg version="1.2" baseProfile="tiny" id="Layer_3" x="0px" y="0px" viewBox="0 0 1280 720" preserveAspectRatio="none" xmlns="http://www.w3.org/2000/svg">
  <path d="M 524.433 533.921 C 509.457 533.919 497.318 521.779 497.316 506.805 L 497.316 506.805 L 497.316 229.373 C 497.318 214.397 509.457 202.258 524.433 202.256 L 524.433 202.256 L 770.202 202.256 C 785.177 202.258 797.316 214.397 797.316 229.373 L 797.316 229.373 L 797.316 506.805 C 797.316 521.779 785.177 533.919 770.202 533.921 L 770.202 533.921 L 524.433 533.921 L 524.433 533.921 Z M 499.42 229.373 L 499.42 506.805 C 499.444 520.62 510.619 531.792 524.433 531.817 L 524.433 531.817 L 770.202 531.817 C 784.016 531.792 795.189 520.62 795.213 506.805 L 795.213 506.805 L 795.213 229.373 C 795.189 215.559 784.016 204.385 770.202 204.361 L 770.202 204.361 L 524.433 204.361 C 510.619 204.385 499.444 215.558 499.42 229.373 L 499.42 229.373 Z" style="fill: rgb(30, 30, 30);" transform="matrix(0.965926, -0.258819, 0.258819, 0.965926, -73.211587, 180.080139)"/>
  <path d="M 526.66 385.073 C 526.658 365.453 531.511 347.001 539.751 330.61 L 539.751 330.61 C 540.937 327.974 541.417 325.669 541.417 323.565 L 541.417 323.565 C 541.423 318.94 539.07 315.096 536.128 311.068 L 536.128 311.068 C 533.166 306.978 527.512 301.887 518.48 291.062 L 518.48 291.062 C 512.439 283.821 508.509 274.621 508.509 264.402 L 508.509 264.402 C 508.511 241.962 526.701 223.772 549.141 223.77 L 549.141 223.77 C 564.557 223.772 577.597 232.555 584.818 244.945 L 584.818 244.945 C 590.498 254.756 596.36 264.608 603.375 267.15 L 603.375 267.15 C 607.233 268.586 610.177 269.085 612.921 269.085 L 612.921 269.085 C 615.459 269.085 617.855 268.652 620.645 268.069 L 620.645 268.069 C 628.965 266.329 637.583 265.282 646.45 265.282 L 646.45 265.282 C 712.61 265.284 766.241 318.916 766.241 385.073 L 766.241 385.073 C 766.241 451.232 712.609 504.865 646.45 504.865 L 646.45 504.865 C 580.292 504.865 526.66 451.232 526.66 385.073 L 526.66 385.073 Z M 541.648 331.514 C 533.53 347.652 528.763 365.785 528.763 385.072 L 528.763 385.072 C 528.763 417.576 541.934 446.99 563.232 468.291 L 563.232 468.291 C 584.534 489.59 613.95 502.76 646.451 502.76 L 646.451 502.76 C 678.954 502.76 708.369 489.59 729.67 468.291 L 729.67 468.291 C 750.97 446.99 764.139 417.574 764.139 385.072 L 764.139 385.072 C 764.139 352.57 750.97 323.156 729.67 301.853 L 729.67 301.853 C 708.369 280.555 678.952 267.384 646.451 267.384 L 646.451 267.384 C 637.75 267.384 629.278 268.41 621.077 270.125 L 621.077 270.125 C 618.263 270.713 615.705 271.188 612.923 271.188 L 612.923 271.188 C 609.914 271.188 606.676 270.623 602.643 269.119 L 602.643 269.119 C 594.474 265.998 588.75 255.772 583.003 246.002 L 583.003 246.002 C 576.101 234.18 563.732 225.871 549.143 225.874 L 549.143 225.874 C 538.499 225.874 528.875 230.183 521.899 237.158 L 521.899 237.158 C 514.924 244.133 510.615 253.758 510.615 264.4 L 510.615 264.4 C 510.615 274.074 514.325 282.793 520.096 289.717 L 520.096 289.717 C 529.069 300.476 534.614 305.427 537.829 309.831 L 537.829 309.831 C 540.799 313.908 543.515 318.179 543.52 323.564 L 543.52 323.564 C 543.522 325.994 542.957 328.613 541.668 331.473 L 541.668 331.473 L 540.711 331.042 L 541.648 331.514 L 541.648 331.514 Z" style="fill: rgb(30, 30, 30);" transform="matrix(0.965926, -0.258819, 0.258819, 0.965926, -72.574318, 177.378727)"/>
  <path d="M 552.18 381.986 C 552.183 327.131 596.65 282.662 651.507 282.662 L 651.507 282.662 C 706.363 282.662 750.83 327.131 750.832 381.986 L 750.832 381.986 C 750.83 436.842 706.362 481.311 651.507 481.313 L 651.507 481.313 C 596.649 481.311 552.183 436.841 552.18 381.986 L 552.18 381.986 Z M 582.76 313.238 C 565.163 330.836 554.284 355.134 554.284 381.984 L 554.284 381.984 C 554.284 408.835 565.164 433.136 582.76 450.733 L 582.76 450.733 C 600.355 468.328 624.655 479.211 651.507 479.211 L 651.507 479.211 C 678.358 479.211 702.658 468.328 720.253 450.733 L 720.253 450.733 C 737.848 433.137 748.73 408.835 748.73 381.984 L 748.73 381.984 C 748.73 355.134 737.848 330.836 720.253 313.238 L 720.253 313.238 C 702.659 295.643 678.358 284.762 651.507 284.762 L 651.507 284.762 C 624.655 284.763 600.355 295.645 582.76 313.238 L 582.76 313.238 Z" style="fill: rgb(30, 30, 30);" transform="matrix(0.965926, -0.258819, 0.258819, 0.965926, -76.66614, 181.638192)"/>
  <path d="M 602.186 381.986 C 602.186 354.748 624.267 332.667 651.506 332.666 L 651.506 332.666 C 678.745 332.667 700.826 354.748 700.826 381.986 L 700.826 381.986 C 700.826 409.225 678.745 431.305 651.506 431.306 L 651.506 431.306 C 624.266 431.305 602.186 409.225 602.186 381.986 L 602.186 381.986 Z M 618.118 348.598 C 609.572 357.147 604.291 368.945 604.289 381.986 L 604.289 381.986 C 604.291 395.029 609.572 406.826 618.118 415.375 L 618.118 415.375 C 626.665 423.92 638.465 429.203 651.506 429.203 L 651.506 429.203 C 664.547 429.203 676.344 423.92 684.894 415.375 L 684.894 415.375 C 693.441 406.826 698.724 395.028 698.724 381.986 L 698.724 381.986 C 698.724 368.945 693.441 357.147 684.894 348.598 L 684.894 348.598 C 676.344 340.054 664.548 334.77 651.506 334.77 L 651.506 334.77 C 638.465 334.77 626.665 340.054 618.118 348.598 L 618.118 348.598 Z" style="fill: rgb(30, 30, 30);" transform="matrix(0.965926, -0.258819, 0.258819, 0.965926, -76.665745, 181.638092)"/>
  <path d="M 566.147 381.986 C 566.147 334.842 604.364 296.627 651.506 296.626 L 651.506 296.626 C 698.65 296.627 736.864 334.842 736.866 381.986 L 736.866 381.986 C 736.864 429.129 698.649 467.345 651.506 467.345 L 651.506 467.345 C 604.363 467.345 566.147 429.129 566.147 381.986 L 566.147 381.986 Z M 592.636 323.114 C 577.567 338.186 568.249 358.992 568.249 381.986 L 568.249 381.986 C 568.249 404.98 577.567 425.786 592.636 440.855 L 592.636 440.855 C 607.704 455.925 628.513 465.243 651.506 465.243 L 651.506 465.243 C 674.5 465.243 695.307 455.925 710.378 440.855 L 710.378 440.855 C 725.445 425.786 734.762 404.978 734.762 381.986 L 734.762 381.986 C 734.762 358.99 725.445 338.183 710.378 323.114 L 710.378 323.114 C 695.307 308.044 674.5 298.728 651.506 298.728 L 651.506 298.728 C 628.511 298.728 607.704 308.044 592.636 323.114 L 592.636 323.114 Z" style="fill: rgb(30, 30, 30);" transform="matrix(0.965926, -0.258819, 0.258819, 0.965926, -76.665545, 181.638011)"/>
  <path d="M 579.145 381.986 C 579.147 342.022 611.542 309.627 651.505 309.625 L 651.505 309.625 C 691.467 309.627 723.864 342.022 723.864 381.986 L 723.864 381.986 C 723.864 421.948 691.467 454.345 651.505 454.345 L 651.505 454.345 C 611.542 454.346 579.147 421.948 579.145 381.986 L 579.145 381.986 Z M 601.826 332.306 C 589.111 345.025 581.248 362.582 581.248 381.987 L 581.248 381.987 C 581.248 401.391 589.111 418.948 601.826 431.665 L 601.826 431.665 C 614.543 444.381 632.099 452.242 651.505 452.245 L 651.505 452.245 C 670.909 452.242 688.466 444.381 701.184 431.665 L 701.184 431.665 C 713.899 418.948 721.761 401.389 721.763 381.987 L 721.763 381.987 C 721.761 362.582 713.899 345.025 701.184 332.306 L 701.184 332.306 C 688.466 319.592 670.907 311.729 651.505 311.729 L 651.505 311.729 C 632.1 311.729 614.543 319.591 601.826 332.306 L 601.826 332.306 Z" style="fill: rgb(30, 30, 30);" transform="matrix(0.965926, -0.258819, 0.258819, 0.965926, -76.66548, 181.637488)"/>
  <path d="M 589.7 381.986 C 589.702 347.852 617.371 320.18 651.505 320.18 L 651.505 320.18 C 685.639 320.18 713.308 347.852 713.308 381.986 L 713.308 381.986 L 713.31 381.986 C 713.308 416.12 685.639 443.79 651.505 443.79 L 651.505 443.79 C 617.371 443.79 589.702 416.12 589.7 381.986 L 589.7 381.986 Z M 609.29 339.771 C 598.484 350.577 591.803 365.497 591.803 381.986 L 591.803 381.986 C 591.803 398.476 598.483 413.394 609.29 424.201 L 609.29 424.201 C 620.096 435.005 635.016 441.688 651.505 441.688 L 651.505 441.688 C 667.995 441.688 682.914 435.007 693.72 424.201 L 693.72 424.201 C 704.526 413.394 711.207 398.475 711.207 381.986 L 711.207 381.986 C 711.207 365.496 704.527 350.577 693.72 339.771 L 693.72 339.771 C 682.914 328.965 667.994 322.283 651.505 322.283 L 651.505 322.283 C 635.016 322.283 620.096 328.965 609.29 339.771 L 609.29 339.771 Z" style="fill: rgb(30, 30, 30);" transform="matrix(0.965926, -0.258819, 0.258819, 0.965926, -76.665529, 181.637851)"/>
  <path d="M 496.52 289.383 C 496.522 273.091 509.726 259.887 526.018 259.885 L 526.018 259.885 C 542.311 259.887 555.516 273.091 555.516 289.383 L 555.516 289.383 C 555.516 305.675 542.31 318.88 526.018 318.88 L 526.018 318.88 C 509.725 318.88 496.521 305.676 496.52 289.383 L 496.52 289.383 Z M 498.623 289.383 C 498.649 304.513 510.888 316.75 526.017 316.777 L 526.017 316.777 C 541.147 316.751 553.385 304.513 553.413 289.383 L 553.413 289.383 C 553.385 274.253 541.147 262.015 526.017 261.989 L 526.017 261.989 C 510.888 262.015 498.649 274.254 498.623 289.383 L 498.623 289.383 Z" style="fill: rgb(30, 30, 30);" transform="matrix(0.965926, -0.258819, 0.258819, 0.965926, -56.974075, 146.003943)"/>
  <path d="M 637.081 417.862 L 637.081 416.809 L 637.826 416.065 L 637.081 416.809 L 637.081 417.862 L 636.646 417.862 L 615.631 396.845 L 615.631 367.124 L 636.646 346.111 L 666.365 346.111 L 687.382 367.124 L 687.382 396.846 L 666.367 417.861 L 637.081 417.861 L 637.081 417.862 Z M 665.494 415.758 L 685.278 395.973 L 685.278 367.999 L 665.494 348.215 L 637.517 348.215 L 617.735 367.996 L 617.735 395.973 L 637.519 415.758 L 665.494 415.758 L 665.494 415.758 Z" style="fill: rgb(30, 30, 30);" transform="matrix(0.965926, -0.258819, 0.258819, 0.965926, -76.66586, 181.638234)"/>
  <path d="M 641.639 381.986 C 641.639 376.535 646.054 372.117 651.504 372.117 L 651.504 372.117 C 656.956 372.117 661.374 376.535 661.374 381.986 L 661.374 381.986 C 661.374 387.438 656.956 391.853 651.504 391.853 L 651.504 391.853 C 646.054 391.852 641.639 387.437 641.639 381.986 L 641.639 381.986 Z M 643.74 381.986 C 643.749 386.274 647.217 389.743 651.504 389.752 L 651.504 389.752 C 655.793 389.743 659.263 386.274 659.273 381.986 L 659.273 381.986 C 659.263 377.697 655.793 374.227 651.504 374.219 L 651.504 374.219 C 647.217 374.227 643.749 377.697 643.74 381.986 L 643.74 381.986 Z" style="fill: rgb(30, 30, 30);" transform="matrix(0.965926, -0.258819, 0.258819, 0.965926, -76.665479, 181.638232)"/>
  <rect x="281.405" y="97.042" transform="matrix(0.866029, -0.499989, 0.499993, 0.866029, 298.382525, 345.7951)" width="12.614" height="6.436" style="fill: rgb(30, 30, 30);"/>
  <rect x="263.787" y="103.465" transform="matrix(0.765997, -0.64285, 0.64285, 0.765992, 306.849978, 391.433298)" width="12.615" height="6.436" style="fill: rgb(30, 30, 30);"/>
  <rect x="247.523" y="112.841" transform="matrix(0.642754, -0.766075, 0.766068, 0.642751, 316.982641, 432.652551)" width="12.614" height="6.436" style="fill: rgb(30, 30, 30);"/>
  <rect x="233.156" y="124.904" transform="matrix(0.500001, -0.866024, 0.866027, 0.499999, 327.598907, 471.489196)" width="12.614" height="6.436" style="fill: rgb(30, 30, 30);"/>
  <rect x="221.092" y="139.273" transform="matrix(0.342062, -0.939678, 0.939674, 0.342067, 338.678554, 510.121948)" width="12.614" height="6.436" style="fill: rgb(30, 30, 30);"/>
  <rect x="211.714" y="155.523" transform="matrix(0.173636, -0.98481, 0.984815, 0.17363, 351.304927, 550.436358)" width="12.614" height="6.436" style="fill: rgb(30, 30, 30);"/>
  <rect x="205.294" y="173.15" transform="matrix(-0.00001, -1, 1.000002, -0.000014, 367.495229, 593.594977)" width="12.614" height="6.436" style="fill: rgb(30, 30, 30);"/>
  <polygon points="549.35 395.372 548.251 407.937 536.466 407.505 542.408 400.877 542.94 394.809" style="fill: rgb(30, 30, 30);" transform="matrix(0.965926, -0.258819, 0.258819, 0.965926, -85.383865, 154.191458)"/>
  <polygon points="553.107 412.933 554.206 425.5 547.796 426.062 547.186 419.1 541.322 413.302" style="fill: rgb(30, 30, 30);" transform="matrix(0.965926, -0.258819, 0.258819, 0.965926, -89.909304, 156.065718)"/>
  <rect x="205.293" y="228.869" transform="matrix(-0.49999, -0.86603, 0.86604, -0.499982, 463.08641, 735.104089)" width="12.615" height="6.436" style="fill: rgb(30, 30, 30);"/>
  <rect x="211.714" y="246.5" transform="matrix(-0.642776, -0.766051, 0.766053, -0.642778, 517.900987, 778.708979)" width="12.614" height="6.436" style="fill: rgb(30, 30, 30);"/>
  <rect x="221.092" y="262.749" transform="matrix(-0.766076, -0.642752, 0.642749, -0.766076, 585.564873, 814.364647)" width="12.614" height="6.435" style="fill: rgb(30, 30, 30);"/>
  <rect x="233.157" y="277.126" transform="matrix(-0.866027, -0.499998, 0.500012, -0.866019, 664.905247, 837.720676)" width="12.614" height="6.436" style="fill: rgb(30, 30, 30);"/>
  <rect x="247.53" y="289.188" transform="matrix(-0.939721, -0.341938, 0.341943, -0.939724, 753.233201, 844.715414)" width="12.614" height="6.436" style="fill: rgb(30, 30, 30);"/>
  <rect x="263.776" y="298.567" transform="matrix(-0.984811, -0.173636, 0.173629, -0.984808, 846.393355, 832.095185)" width="12.614" height="6.434" style="fill: rgb(30, 30, 30);"/>
  <rect x="281.404" y="304.979" transform="matrix(-0.999998, 0.000007, -0.000009, -1, 939.233107, 797.826571)" width="12.615" height="6.436" style="fill: rgb(30, 30, 30);"/>
  <polygon points="664.663 484.174 677.229 485.273 677.086 495.289 670.715 491.164 664.101 490.585" style="fill: rgb(30, 30, 30);" transform="matrix(0.965926, -0.258819, 0.258819, 0.965926, -103.899457, 190.268016)"/>
  <polygon points="682.224 480.417 694.791 479.318 695.353 485.729 688.807 486.301 682.368 490.433" style="fill: rgb(30, 30, 30);" transform="matrix(0.965926, -0.258819, 0.258819, 0.965926, -102.025067, 194.793196)"/>
  <rect x="337.12" y="304.978" transform="matrix(-0.866028, 0.499993, -0.499995, -0.866031, 1156.852826, 570.407431)" width="12.615" height="6.435" style="fill: rgb(30, 30, 30);"/>
  <rect x="354.756" y="298.565" transform="matrix(-0.766055, 0.642775, -0.642784, -0.766049, 1191.278504, 463.541795)" width="12.615" height="6.436" style="fill: rgb(30, 30, 30);"/>
  <rect x="371.03" y="289.205" transform="matrix(-0.642798, 0.766039, -0.766048, -0.642793, 1200.500417, 350.098577)" width="12.616" height="6.435" style="fill: rgb(30, 30, 30);"/>
  <rect x="385.38" y="277.126" transform="matrix(-0.500001, 0.866021, -0.866023, -0.499998, 1183.356567, 236.765454)" width="12.615" height="6.436" style="fill: rgb(30, 30, 30);"/>
  <rect x="397.462" y="262.766" transform="matrix(-0.342008, 0.939695, -0.939695, -0.342015, 1140.668033, 130.361303)" width="12.616" height="6.436" style="fill: rgb(30, 30, 30);"/>
  <rect x="406.799" y="246.491" transform="matrix(-0.17355, 0.984828, -0.984827, -0.173552, 1075.145599, 37.158946)" width="12.614" height="6.436" style="fill: rgb(30, 30, 30);"/>
  <rect x="413.229" y="228.869" transform="matrix(0.000015, 1, -1.000005, 0.000009, 991.23906, -37.561985)" width="12.614" height="6.436" style="fill: rgb(30, 30, 30);"/>
  <polygon points="753.677 368.701 754.776 356.135 765.791 356.504 760.676 362.533 760.087 369.263" style="fill: rgb(30, 30, 30);" transform="matrix(0.965926, -0.258819, 0.258819, 0.965926, -67.986118, 208.992383)"/>
  <polygon points="749.915 351.107 748.815 338.542 755.227 337.979 755.737 343.817 761.186 350.804" style="fill: rgb(30, 30, 30);" transform="matrix(0.965926, -0.258819, 0.258819, 0.965926, -63.44828, 207.148563)"/>
  <rect x="413.241" y="173.154" transform="matrix(0.500077, 0.865983, -0.865981, 0.500076, 687.661528, -123.35718)" width="12.614" height="6.437" style="fill: rgb(30, 30, 30);"/>
  <rect x="406.817" y="155.522" transform="matrix(0.642778, 0.766054, -0.766051, 0.642781, 590.005135, -105.715317)" width="12.614" height="6.436" style="fill: rgb(30, 30, 30);"/>
  <rect x="397.463" y="139.284" transform="matrix(0.766034, 0.642796, -0.64279, 0.76604, 503.007774, -69.157924)" width="12.616" height="6.437" style="fill: rgb(30, 30, 30);"/>
  <rect x="385.381" y="124.902" transform="matrix(0.866027, 0.5, -0.500001, 0.866023, 430.173307, -18.032844)" width="12.614" height="6.437" style="fill: rgb(30, 30, 30);"/>
  <rect x="371.009" y="112.843" transform="matrix(0.93972, 0.341936, -0.341938, 0.939727, 373.431265, 42.758237)" width="12.616" height="6.437" style="fill: rgb(30, 30, 30);"/>
  <rect x="354.755" y="103.46" transform="matrix(0.984809, 0.173636, -0.173641, 0.984808, 333.14362, 108.220311)" width="12.614" height="6.436" style="fill: rgb(30, 30, 30);"/>
  <rect x="337.119" y="97.041" transform="matrix(1.000005, -0.000015, 0.000019, 1.000001, 308.068153, 174.087695)" width="12.614" height="6.437" style="fill: rgb(30, 30, 30);"/>
</svg>