<?xml version="1.0" encoding="utf-8"?>
<svg version="1.2" baseProfile="tiny" id="Layer_3" x="0px" y="0px" preserveAspectRatio="none" xmlns="http://www.w3.org/2000/svg">
  <path d="M 508.445 444.08 C 497.157 444.079 488.007 434.928 488.006 423.642 L 488.006 423.642 L 488.006 214.527 C 488.007 203.239 497.157 194.089 508.445 194.088 L 508.445 194.088 L 693.694 194.088 C 704.981 194.089 714.131 203.239 714.131 214.527 L 714.131 214.527 L 714.131 423.642 C 714.131 434.928 704.981 444.079 693.694 444.08 L 693.694 444.08 L 508.445 444.08 L 508.445 444.08 Z M 489.591 214.527 L 489.591 423.642 C 489.609 434.055 498.033 442.476 508.445 442.494 L 508.445 442.494 L 693.694 442.494 C 704.106 442.476 712.528 434.055 712.546 423.642 L 712.546 423.642 L 712.546 214.527 C 712.528 204.115 704.106 195.692 693.694 195.674 L 693.694 195.674 L 508.445 195.674 C 498.033 195.692 489.61 204.114 489.591 214.527 L 489.591 214.527 Z" style="fill: rgb(30, 30, 30);" transform="matrix(0.965926, -0.258819, 0.258819, 0.965926, -62.10411, 166.440532)"/>
  <path d="M 510.124 331.886 C 510.122 317.097 513.78 303.189 519.991 290.834 L 519.991 290.834 C 520.885 288.848 521.247 287.11 521.247 285.524 L 521.247 285.524 C 521.251 282.038 519.478 279.141 517.26 276.105 L 517.26 276.105 C 515.028 273.022 510.766 269.184 503.958 261.025 L 503.958 261.025 C 499.405 255.567 496.442 248.633 496.442 240.93 L 496.442 240.93 C 496.444 224.016 510.154 210.305 527.069 210.304 L 527.069 210.304 C 538.688 210.305 548.517 216.925 553.96 226.264 L 553.96 226.264 C 558.242 233.659 562.66 241.085 567.948 243.001 L 567.948 243.001 C 570.856 244.084 573.075 244.46 575.143 244.46 L 575.143 244.46 C 577.056 244.46 578.862 244.134 580.965 243.694 L 580.965 243.694 C 587.236 242.383 593.732 241.593 600.415 241.593 L 600.415 241.593 C 650.284 241.595 690.708 282.02 690.708 331.886 L 690.708 331.886 C 690.708 381.753 650.283 422.179 600.415 422.179 L 600.415 422.179 C 550.549 422.179 510.124 381.753 510.124 331.886 L 510.124 331.886 Z M 521.421 291.516 C 515.302 303.68 511.709 317.348 511.709 331.885 L 511.709 331.885 C 511.709 356.385 521.636 378.556 537.69 394.612 L 537.69 394.612 C 553.746 410.666 575.919 420.593 600.416 420.593 L 600.416 420.593 C 624.915 420.593 647.087 410.666 663.143 394.612 L 663.143 394.612 C 679.197 378.556 689.124 356.384 689.124 331.885 L 689.124 331.885 C 689.124 307.387 679.197 285.216 663.143 269.159 L 663.143 269.159 C 647.087 253.105 624.914 243.178 600.416 243.178 L 600.416 243.178 C 593.858 243.178 587.472 243.951 581.291 245.244 L 581.291 245.244 C 579.169 245.687 577.241 246.045 575.144 246.045 L 575.144 246.045 C 572.876 246.045 570.436 245.619 567.396 244.486 L 567.396 244.486 C 561.238 242.133 556.924 234.425 552.592 227.061 L 552.592 227.061 C 547.39 218.15 538.067 211.887 527.07 211.89 L 527.07 211.89 C 519.047 211.89 511.793 215.138 506.535 220.395 L 506.535 220.395 C 501.278 225.652 498.03 232.907 498.03 240.929 L 498.03 240.929 C 498.03 248.22 500.826 254.792 505.176 260.011 L 505.176 260.011 C 511.939 268.121 516.119 271.853 518.542 275.172 L 518.542 275.172 C 520.781 278.245 522.828 281.465 522.832 285.524 L 522.832 285.524 C 522.833 287.355 522.407 289.329 521.436 291.485 L 521.436 291.485 L 520.715 291.16 L 521.421 291.516 L 521.421 291.516 Z" style="fill: rgb(30, 30, 30);" transform="matrix(0.965926, -0.258819, 0.258819, 0.965926, -61.623746, 164.404222)"/>
  <path d="M 529.359 329.559 C 529.362 288.212 562.879 254.694 604.227 254.694 L 604.227 254.694 C 645.575 254.694 679.092 288.212 679.093 329.559 L 679.093 329.559 C 679.092 370.907 645.574 404.426 604.227 404.427 L 604.227 404.427 C 562.878 404.425 529.362 370.906 529.359 329.559 L 529.359 329.559 Z M 552.409 277.74 C 539.145 291.005 530.945 309.319 530.945 329.558 L 530.945 329.558 C 530.945 349.797 539.146 368.114 552.409 381.377 L 552.409 381.377 C 565.671 394.64 583.987 402.843 604.227 402.843 L 604.227 402.843 C 624.466 402.843 642.782 394.64 656.044 381.377 L 656.044 381.377 C 669.307 368.114 677.509 349.797 677.509 329.558 L 677.509 329.558 C 677.509 309.319 669.307 291.005 656.044 277.74 L 656.044 277.74 C 642.783 264.478 624.466 256.277 604.227 256.277 L 604.227 256.277 C 583.987 256.277 565.671 264.48 552.409 277.74 L 552.409 277.74 Z" style="fill: rgb(30, 30, 30);" transform="matrix(0.965926, -0.258819, 0.258819, 0.965926, -64.708032, 167.614739)"/>
  <path d="M 567.051 329.559 C 567.051 309.028 583.695 292.385 604.226 292.384 L 604.226 292.384 C 624.758 292.385 641.401 309.028 641.401 329.559 L 641.401 329.559 C 641.401 350.091 624.758 366.733 604.226 366.734 L 604.226 366.734 C 583.694 366.733 567.051 350.091 567.051 329.559 L 567.051 329.559 Z M 579.06 304.393 C 572.619 310.837 568.638 319.729 568.637 329.559 L 568.637 329.559 C 568.638 339.39 572.619 348.282 579.06 354.726 L 579.06 354.726 C 585.502 361.167 594.397 365.149 604.226 365.149 L 604.226 365.149 C 614.056 365.149 622.948 361.167 629.393 354.726 L 629.393 354.726 C 635.835 348.282 639.817 339.39 639.817 329.559 L 639.817 329.559 C 639.817 319.729 635.835 310.837 629.393 304.393 L 629.393 304.393 C 622.948 297.953 614.057 293.97 604.226 293.97 L 604.226 293.97 C 594.397 293.97 585.502 297.953 579.06 304.393 L 579.06 304.393 Z" style="fill: rgb(30, 30, 30);" transform="matrix(0.965926, -0.258819, 0.258819, 0.965926, -64.70766, 167.61469)"/>
  <path d="M 539.887 329.559 C 539.887 294.024 568.693 265.22 604.226 265.219 L 604.226 265.219 C 639.761 265.22 668.565 294.024 668.567 329.559 L 668.567 329.559 C 668.565 365.093 639.76 393.898 604.226 393.898 L 604.226 393.898 C 568.692 393.898 539.887 365.093 539.887 329.559 L 539.887 329.559 Z M 559.853 285.184 C 548.495 296.545 541.471 312.227 541.471 329.559 L 541.471 329.559 C 541.471 346.891 548.495 362.573 559.853 373.932 L 559.853 373.932 C 571.211 385.291 586.895 392.314 604.226 392.314 L 604.226 392.314 C 621.558 392.314 637.241 385.291 648.601 373.932 L 648.601 373.932 C 659.958 362.573 666.981 346.889 666.981 329.559 L 666.981 329.559 C 666.981 312.226 659.958 296.542 648.601 285.184 L 648.601 285.184 C 637.241 273.825 621.558 266.803 604.226 266.803 L 604.226 266.803 C 586.894 266.803 571.211 273.825 559.853 285.184 L 559.853 285.184 Z" style="fill: rgb(30, 30, 30);" transform="matrix(0.965926, -0.258819, 0.258819, 0.965926, -64.707486, 167.614935)"/>
  <path d="M 549.684 329.559 C 549.686 299.436 574.104 275.018 604.226 275.017 L 604.226 275.017 C 634.347 275.018 658.766 299.436 658.766 329.559 L 658.766 329.559 C 658.766 359.68 634.347 384.1 604.226 384.1 L 604.226 384.1 C 574.104 384.1 549.686 359.68 549.684 329.559 L 549.684 329.559 Z M 566.78 292.113 C 557.196 301.7 551.269 314.933 551.269 329.56 L 551.269 329.56 C 551.269 344.186 557.196 357.419 566.78 367.005 L 566.78 367.005 C 576.366 376.589 589.598 382.515 604.226 382.517 L 604.226 382.517 C 618.851 382.515 632.085 376.589 641.671 367.005 L 641.671 367.005 C 651.255 357.419 657.181 344.184 657.183 329.56 L 657.183 329.56 C 657.181 314.933 651.255 301.7 641.671 292.113 L 641.671 292.113 C 632.085 282.529 618.85 276.603 604.226 276.603 L 604.226 276.603 C 589.599 276.603 576.366 282.529 566.78 292.113 L 566.78 292.113 Z" style="fill: rgb(30, 30, 30);" transform="matrix(0.965926, -0.258819, 0.258819, 0.965926, -64.707558, 167.614392)"/>
  <path d="M 557.64 329.559 C 557.642 303.831 578.497 282.973 604.226 282.973 L 604.226 282.973 C 629.954 282.973 650.81 303.831 650.81 329.559 L 650.81 329.559 L 650.811 329.559 C 650.81 355.288 629.954 376.144 604.226 376.144 L 604.226 376.144 C 578.497 376.144 557.642 355.288 557.64 329.559 L 557.64 329.559 Z M 572.406 297.74 C 564.261 305.885 559.225 317.131 559.225 329.559 L 559.225 329.559 C 559.225 341.989 564.26 353.233 572.406 361.379 L 572.406 361.379 C 580.551 369.522 591.797 374.56 604.226 374.56 L 604.226 374.56 C 616.655 374.56 627.9 369.524 636.045 361.379 L 636.045 361.379 C 644.19 353.233 649.226 341.988 649.226 329.559 L 649.226 329.559 C 649.226 317.13 644.191 305.885 636.045 297.74 L 636.045 297.74 C 627.9 289.595 616.654 284.558 604.226 284.558 L 604.226 284.558 C 591.797 284.558 580.551 289.595 572.406 297.74 L 572.406 297.74 Z" style="fill: rgb(30, 30, 30);" transform="matrix(0.965926, -0.258819, 0.258819, 0.965926, -64.707539, 167.614532)"/>
  <path d="M 487.406 259.759 C 487.407 247.479 497.36 237.527 509.64 237.525 L 509.64 237.525 C 521.921 237.527 531.874 247.479 531.874 259.759 L 531.874 259.759 C 531.874 272.04 521.92 281.993 509.64 281.993 L 509.64 281.993 C 497.359 281.993 487.406 272.04 487.406 259.759 L 487.406 259.759 Z M 488.991 259.759 C 489.01 271.164 498.235 280.387 509.639 280.408 L 509.639 280.408 C 521.043 280.388 530.268 271.164 530.289 259.759 L 530.289 259.759 C 530.268 248.355 521.043 239.131 509.639 239.111 L 509.639 239.111 C 498.235 239.131 489.01 248.356 488.991 259.759 L 488.991 259.759 Z" style="fill: rgb(30, 30, 30);" transform="matrix(0.965926, -0.258819, 0.258819, 0.965926, -49.864979, 140.75543)"/>
  <path d="M 593.354 356.601 L 593.354 355.807 L 593.915 355.246 L 593.354 355.807 L 593.354 356.601 L 593.026 356.601 L 577.186 340.759 L 577.186 318.357 L 593.026 302.518 L 615.426 302.518 L 631.268 318.357 L 631.268 340.76 L 615.428 356.6 L 593.354 356.6 L 593.354 356.601 Z M 614.77 355.015 L 629.682 340.102 L 629.682 319.016 L 614.77 304.104 L 593.682 304.104 L 578.771 319.014 L 578.771 340.102 L 593.684 355.015 L 614.77 355.015 L 614.77 355.015 Z" style="fill: rgb(30, 30, 30);" transform="matrix(0.965926, -0.258819, 0.258819, 0.965926, -64.70769, 167.614697)"/>
  <path d="M 596.789 329.559 C 596.789 325.45 600.117 322.12 604.225 322.12 L 604.225 322.12 C 608.334 322.12 611.664 325.45 611.664 329.559 L 611.664 329.559 C 611.664 333.669 608.334 336.996 604.225 336.996 L 604.225 336.996 C 600.117 336.996 596.789 333.668 596.789 329.559 L 596.789 329.559 Z M 598.373 329.559 C 598.38 332.791 600.994 335.406 604.225 335.413 L 604.225 335.413 C 607.458 335.406 610.073 332.791 610.081 329.559 L 610.081 329.559 C 610.073 326.326 607.458 323.711 604.225 323.705 L 604.225 323.705 C 600.994 323.711 598.38 326.326 598.373 329.559 L 598.373 329.559 Z" style="fill: rgb(30, 30, 30);" transform="matrix(0.965926, -0.258819, 0.258819, 0.965926, -64.70731, 167.614521)"/>
  <rect x="212.109" y="73.145" transform="matrix(0.866028, -0.49999, 0.499994, 0.866031, 338.059787, 302.280009)" width="9.508" height="4.851" style="fill: rgb(30, 30, 30);"/>
  <rect x="198.83" y="77.987" transform="matrix(0.765999, -0.642848, 0.642858, 0.765994, 344.439954, 336.679806)" width="9.509" height="4.851" style="fill: rgb(30, 30, 30);"/>
  <rect x="186.571" y="85.054" transform="matrix(0.642755, -0.766073, 0.766073, 0.642754, 352.078489, 367.748904)" width="9.508" height="4.851" style="fill: rgb(30, 30, 30);"/>
  <rect x="175.741" y="94.147" transform="matrix(0.5, -0.866022, 0.86603, 0.499999, 360.081016, 397.02165)" width="9.508" height="4.851" style="fill: rgb(30, 30, 30);"/>
  <rect x="166.648" y="104.977" transform="matrix(0.342062, -0.939676, 0.939671, 0.342069, 368.432859, 426.141181)" width="9.508" height="4.851" style="fill: rgb(30, 30, 30);"/>
  <rect x="159.58" y="117.226" transform="matrix(0.17364, -0.984808, 0.984822, 0.173632, 377.947526, 456.527997)" width="9.508" height="4.851" style="fill: rgb(30, 30, 30);"/>
  <rect x="154.741" y="130.512" transform="matrix(-0.000013, -1, 0.999997, -0.000013, 390.153841, 489.059229)" width="9.508" height="4.851" style="fill: rgb(30, 30, 30);"/>
  <polygon points="527.226 339.649 526.398 349.12 517.515 348.794 521.994 343.798 522.395 339.224" style="fill: rgb(30, 30, 30);" transform="matrix(0.965926, -0.258819, 0.258819, 0.965926, -71.278861, 146.926612)"/>
  <polygon points="530.058 352.885 530.886 362.358 526.055 362.781 525.595 357.534 521.175 353.164" style="fill: rgb(30, 30, 30);" transform="matrix(0.965926, -0.258819, 0.258819, 0.965926, -74.689953, 148.339609)"/>
  <rect x="154.74" y="172.511" transform="matrix(-0.499993, -0.866031, 0.866038, -0.499984, 462.205016, 595.722753)" width="9.509" height="4.851" style="fill: rgb(30, 30, 30);"/>
  <rect x="159.579" y="185.8" transform="matrix(-0.642778, -0.766051, 0.766055, -0.642774, 503.521016, 628.588298)" width="9.508" height="4.851" style="fill: rgb(30, 30, 30);"/>
  <rect x="166.648" y="198.047" transform="matrix(-0.766073, -0.642752, 0.642745, -0.766077, 554.523659, 655.464996)" width="9.508" height="4.85" style="fill: rgb(30, 30, 30);"/>
  <rect x="175.742" y="208.884" transform="matrix(-0.866026, -0.5, 0.500006, -0.866025, 614.326947, 673.07097)" width="9.508" height="4.851" style="fill: rgb(30, 30, 30);"/>
  <rect x="186.576" y="217.976" transform="matrix(-0.939728, -0.34194, 0.341942, -0.939725, 680.904164, 678.342667)" width="9.508" height="4.851" style="fill: rgb(30, 30, 30);"/>
  <rect x="198.822" y="225.044" transform="matrix(-0.98481, -0.173637, 0.173631, -0.984809, 751.122471, 668.828957)" width="9.508" height="4.85" style="fill: rgb(30, 30, 30);"/>
  <rect x="212.108" y="229.878" transform="matrix(-1, 0.00001, -0.000013, -0.999997, 821.101586, 642.997845)" width="9.509" height="4.851" style="fill: rgb(30, 30, 30);"/>
  <polygon points="614.143 406.583 623.615 407.412 623.507 414.961 618.705 411.852 613.72 411.416" style="fill: rgb(30, 30, 30);" transform="matrix(0.965926, -0.258819, 0.258819, 0.965926, -85.235098, 174.119822)"/>
  <polygon points="627.38 403.751 636.853 402.923 637.276 407.755 632.342 408.187 627.489 411.301" style="fill: rgb(30, 30, 30);" transform="matrix(0.965926, -0.258819, 0.258819, 0.965926, -83.822208, 177.530302)"/>
  <rect x="254.104" y="229.878" transform="matrix(-0.866029, 0.499994, -0.499994, -0.86603, 985.131872, 471.581941)" width="9.509" height="4.85" style="fill: rgb(30, 30, 30);"/>
  <rect x="267.398" y="225.044" transform="matrix(-0.766058, 0.642772, -0.642795, -0.766051, 1011.083639, 391.033222)" width="9.509" height="4.851" style="fill: rgb(30, 30, 30);"/>
  <rect x="279.665" y="217.99" transform="matrix(-0.642801, 0.766038, -0.766045, -0.64279, 1018.032751, 305.52367)" width="9.509" height="4.85" style="fill: rgb(30, 30, 30);"/>
  <rect x="290.479" y="208.883" transform="matrix(-0.500006, 0.866023, -0.866034, -0.500002, 1005.111782, 220.099585)" width="9.509" height="4.851" style="fill: rgb(30, 30, 30);"/>
  <rect x="299.587" y="198.06" transform="matrix(-0.342008, 0.939695, -0.939696, -0.342019, 972.932676, 139.898001)" width="9.509" height="4.851" style="fill: rgb(30, 30, 30);"/>
  <rect x="306.626" y="185.793" transform="matrix(-0.17355, 0.984824, -0.984836, -0.173557, 923.547179, 69.646553)" width="9.508" height="4.851" style="fill: rgb(30, 30, 30);"/>
  <rect x="311.472" y="172.511" transform="matrix(0.000013, 1.000003, -1.000009, 0.000013, 860.302622, 13.322788)" width="9.508" height="4.851" style="fill: rgb(30, 30, 30);"/>
  <polygon points="681.238 319.546 682.066 310.074 690.369 310.352 686.513 314.896 686.069 319.969" style="fill: rgb(30, 30, 30);" transform="matrix(0.965926, -0.258819, 0.258819, 0.965926, -58.165383, 188.233129)"/>
  <polygon points="678.402 306.284 677.573 296.813 682.406 296.389 682.791 300.789 686.898 306.056" style="fill: rgb(30, 30, 30);" transform="matrix(0.965926, -0.258819, 0.258819, 0.965926, -54.745021, 186.843361)"/>
  <rect x="311.481" y="130.515" transform="matrix(0.500077, 0.865984, -0.865985, 0.500074, 631.478751, -51.344194)" width="9.508" height="4.852" style="fill: rgb(30, 30, 30);"/>
  <rect x="306.639" y="117.225" transform="matrix(0.642776, 0.766055, -0.766056, 0.642782, 557.871144, -38.046933)" width="9.508" height="4.851" style="fill: rgb(30, 30, 30);"/>
  <rect x="299.587" y="104.985" transform="matrix(0.766037, 0.6428, -0.642783, 0.766045, 492.294369, -10.49196)" width="9.509" height="4.852" style="fill: rgb(30, 30, 30);"/>
  <rect x="290.482" y="94.145" transform="matrix(0.866026, 0.5, -0.500005, 0.866023, 437.39695, 28.044442)" width="9.508" height="4.852" style="fill: rgb(30, 30, 30);"/>
  <rect x="279.647" y="85.056" transform="matrix(0.939724, 0.341938, -0.341938, 0.939723, 394.627078, 73.865438)" width="9.509" height="4.852" style="fill: rgb(30, 30, 30);"/>
  <rect x="267.397" y="77.983" transform="matrix(0.984812, 0.173636, -0.173639, 0.984808, 364.259792, 123.208211)" width="9.508" height="4.851" style="fill: rgb(30, 30, 30);"/>
  <rect x="254.105" y="73.145" transform="matrix(1, -0.000016, 0.000013, 0.999997, 345.360255, 172.856016)" width="9.508" height="4.852" style="fill: rgb(30, 30, 30);"/>
</svg>