<?xml version="1.0" encoding="utf-8"?>
<svg id="Ebene_1" enable-background="new 0 0 566.924 121.752" version="1.1" y="0px" x="0px" xmlns="http://www.w3.org/2000/svg" xmlns:bx="https://boxy-svg.com">
  <g id="g3" fill="#fff" transform="matrix(1.058343, 0, 0, 1.058343, 0, 1.903959)" bx:origin="0 0">
    <path id="path6" d="M 207.01 5.277 C 211.734 -0.766 221.511 -1.799 227.307 3.271 C 229.677 5.267 231.338 8.021 232.187 10.986 C 242.917 47.906 253.695 84.808 264.41 121.736 C 258.078 121.742 251.743 121.724 245.411 121.742 C 242.424 111.562 239.508 101.365 236.559 91.176 C 224.313 91.151 212.074 91.17 199.829 91.164 C 196.831 101.348 193.871 111.543 190.928 121.746 C 184.63 121.725 178.332 121.742 172.033 121.736 C 182.227 86.515 192.433 51.297 202.676 16.086 C 203.896 12.4 204.356 8.283 207.006 5.273 M 218.186 27.898 C 213.696 43.193 209.297 58.517 204.832 73.82 C 213.732 73.863 222.628 73.836 231.524 73.836 C 227.074 58.523 222.644 43.211 218.184 27.898 Z"/>
    <path id="path8" d="M 340.41 6.072 C 343.711 1.285 350.091 -1.037 355.706 0.441 C 360.848 1.625 364.781 6.056 366.14 11.045 C 376.859 47.938 387.616 84.818 398.334 121.715 C 391.992 121.764 385.655 121.715 379.314 121.74 C 376.365 111.552 373.449 101.353 370.479 91.164 C 358.254 91.17 346.032 91.143 333.808 91.174 C 330.886 101.369 327.873 111.541 324.952 121.737 C 318.659 121.743 312.371 121.731 306.078 121.743 C 316.266 86.329 326.575 50.946 336.846 15.553 C 337.916 12.35 338.336 8.827 340.406 6.065 M 338.866 73.833 C 347.729 73.845 356.588 73.839 365.45 73.839 C 361.041 58.493 356.56 43.169 352.166 27.825 C 347.736 43.163 343.266 58.487 338.866 73.833 Z"/>
    <path id="path10" d="M 250.24 0.256 L 318.959 0.256 L 318.959 18.789 C 310.523 18.795 302.094 18.779 293.663 18.795 C 293.663 53.108 293.669 87.422 293.658 121.735 L 275.536 121.735 C 275.536 87.424 275.531 53.11 275.541 18.795 C 267.105 18.779 258.675 18.795 250.24 18.789 C 250.24 12.606 250.23 6.433 250.24 0.251 Z"/>
    <path id="path12" d="M 418.48 1.01 C 420.22 0.408 422.078 0.203 423.916 0.246 C 431.139 0.271 438.362 0.252 445.583 0.256 C 457.747 0.481 469.356 8.027 474.62 18.975 C 478.266 26.084 478.641 34.352 477.722 42.151 C 477.088 50.315 473.664 58.479 467.388 63.891 C 464.074 66.844 459.945 68.635 456.396 71.266 C 454.448 72.748 454.349 75.631 455.357 77.694 C 464.943 92.493 474.908 107.061 484.696 121.733 C 477.538 121.745 470.38 121.717 463.221 121.745 C 453.851 107.671 444.578 93.526 435.245 79.432 C 432.502 75.42 431.756 70.108 433.4 65.53 C 434.681 62.018 437.75 59.45 441.168 58.124 C 447.693 55.634 454.126 51.724 457.74 45.565 C 460.489 40.938 460.346 35.229 459.11 30.165 C 457.66 23.591 451.255 18.419 444.486 18.645 C 439.804 18.676 435.126 18.624 430.452 18.666 C 428.336 18.617 426.345 20.457 426.372 22.6 C 426.35 55.647 426.383 88.696 426.362 121.741 C 420.275 121.729 414.194 121.741 408.107 121.735 C 408.095 86.159 408.118 50.581 408.095 15.005 C 408.095 8.775 412.525 2.907 418.445 1.015 Z"/>
    <path id="path14" d="M 494.26 0.256 L 513.47 0.256 C 513.464 40.752 513.482 81.242 513.458 121.736 C 507.062 121.718 500.662 121.736 494.26 121.73 L 494.26 0.26 Z"/>
    <path id="path18" d="M 54.173 0.008 C 57.249 -0.002 60.326 0.008 63.402 0 C 63.415 7.234 63.402 14.469 63.407 21.701 C 63.439 27.74 63.268 33.777 63.018 39.808 C 62.606 48.519 62.061 57.247 60.618 65.859 C 59.627 71.795 57.574 77.521 55.026 82.957 C 50.87 91.717 44.34 99.129 36.999 105.363 C 30.432 111.142 22.594 115.349 14.35 118.197 C 9.686 119.802 4.887 121.041 0 121.73 C 0.005 115.664 0.005 109.593 0 103.527 C 5.883 102.644 11.538 100.556 16.791 97.797 C 23.024 94.502 28.635 90.068 33.357 84.844 C 38.234 79.449 42.121 73.203 45.071 66.571 C 48.545 58.946 50.404 50.71 51.668 42.462 C 53.252 31.98 53.912 21.374 54.157 10.778 C 54.192 7.195 54.162 3.603 54.173 0.015 Z"/>
    <path id="path20" d="M 67.116 0.02 C 72.778 -0.017 78.444 0.014 84.108 0.004 C 84.11 40.578 84.11 81.154 84.108 121.734 C 78.458 121.746 72.805 121.707 67.155 121.755 C 67.083 108.817 67.145 95.876 67.125 82.939 C 67.118 55.3 67.136 27.663 67.116 0.025 Z"/>
    <path id="path22" d="M 87.888 0.004 C 90.948 0.002 94.006 -0.004 97.064 0.006 C 96.965 12.377 97.386 24.772 98.861 37.063 C 100.068 46.61 101.77 56.227 105.572 65.122 C 109.177 73.727 114.373 81.726 121.144 88.173 C 127.61 94.339 135.446 99.079 143.959 101.808 C 146.334 102.568 148.764 103.163 151.233 103.523 C 151.23 109.587 151.227 115.652 151.233 121.714 C 146.381 121.056 141.623 119.806 136.993 118.232 C 131.479 116.314 126.146 113.83 121.248 110.644 C 117.672 108.343 114.42 105.591 111.296 102.72 C 106.147 97.972 101.538 92.574 98.077 86.464 C 95.369 81.706 93.394 76.564 91.847 71.319 C 90.429 66.048 89.824 60.602 89.274 55.184 C 88.21 43.475 87.812 31.707 87.888 19.954 C 87.894 13.305 87.892 6.652 87.894 0.004 Z"/>
    <path id="path24" d="M 54.173 0.008 C 54.163 3.596 54.193 7.188 54.157 10.778 C 53.912 21.374 53.253 31.979 51.668 42.462 C 50.404 50.71 48.544 58.946 45.071 66.571 C 42.121 73.206 38.234 79.45 33.357 84.844 C 28.635 90.071 23.024 94.502 16.791 97.797 C 11.538 100.559 5.883 102.645 0 103.527 C 0.005 109.593 0.005 115.664 0 121.73 C 4.887 121.041 9.686 119.802 14.35 118.197 C 22.594 115.349 30.432 111.142 36.999 105.363 C 44.34 99.129 50.87 91.717 55.026 82.957 C 57.573 77.521 59.627 71.795 60.618 65.859 C 62.061 57.248 62.607 48.519 63.018 39.808 C 63.268 33.777 63.439 27.74 63.407 21.701 C 63.402 14.462 63.415 7.227 63.402 -0.007 C 60.325 0.001 57.249 -0.009 54.173 0.001"/>
    <path id="path26" d="M 67.116 0.02 C 67.136 27.661 67.118 55.295 67.126 82.936 C 67.146 95.874 67.084 108.815 67.156 121.752 C 72.806 121.701 78.458 121.74 84.109 121.731 C 84.111 81.157 84.111 40.581 84.109 0.001 C 78.444 0.015 72.778 -0.017 67.116 0.021"/>
    <path id="path28" d="M 87.888 0.004 C 87.886 6.652 87.888 13.305 87.888 19.953 C 87.812 31.707 88.21 43.474 89.274 55.183 C 89.824 60.601 90.429 66.046 91.847 71.318 C 93.394 76.562 95.369 81.705 98.077 86.463 C 101.537 92.572 106.147 97.971 111.296 102.719 C 114.42 105.59 117.672 108.342 121.248 110.641 C 126.146 113.829 131.479 116.313 136.993 118.231 C 141.623 119.805 146.381 121.055 151.233 121.713 C 151.227 115.65 151.23 109.586 151.233 103.522 C 148.763 103.163 146.334 102.567 143.959 101.807 C 135.446 99.078 127.609 94.338 121.144 88.172 C 114.373 81.725 109.177 73.727 105.572 65.121 C 101.77 56.226 100.068 46.609 98.861 37.06 C 97.386 24.771 96.965 12.376 97.064 0.005 C 93.989 0.003 90.93 0.009 87.87 0.011"/>
    <path id="path30" d="M 562.21 99.303 L 566.173 99.303 L 566.173 121.752 L 547.504 106.539 C 545.753 105.109 543.585 103.449 541.279 103.449 C 537.638 103.449 534.642 106.678 534.642 110.271 C 534.642 113.822 537.498 116.726 541 116.957 L 541 121.291 C 534.823 120.6 530.676 116.588 530.676 110.271 C 530.676 104.373 535.055 99.3 541.094 99.3 C 543.676 99.3 546.258 100.269 548.24 101.88 L 562.209 113.314 L 562.199 99.307 Z"/>
    <path id="path32" d="M 532.8 79.432 L 545.338 88.698 L 545.433 88.606 C 544.924 87.59 544.603 86.44 544.603 85.194 C 544.603 79.479 549.905 75.145 555.483 75.145 C 561.843 75.145 566.916 80.309 566.916 86.624 C 566.916 92.616 561.937 98.196 555.808 98.196 C 552.302 98.196 549.354 96.444 546.632 94.417 L 530.683 82.567 L 532.803 79.432 Z M 555.94 79.293 C 551.606 79.293 548.471 82.981 548.471 86.668 C 548.471 90.449 551.929 94.045 555.707 94.045 C 559.72 94.045 563.039 90.635 563.039 86.668 C 563.039 82.795 559.819 79.293 555.939 79.293 Z"/>
    <path id="path34" d="M 530.68 56.256 C 530.68 66.211 538.842 74.309 548.875 74.309 C 558.828 74.309 566.924 66.211 566.924 56.256 C 566.924 46.014 558.964 37.988 548.803 37.988 C 538.633 37.988 530.673 46.014 530.673 56.256 Z M 548.88 42.256 C 556.734 42.256 562.883 48.504 562.883 56.479 C 562.883 63.958 556.602 70.042 548.88 70.042 C 541.079 70.042 534.733 63.958 534.733 56.479 C 534.733 48.369 540.813 42.256 548.883 42.256 Z"/>
    <path id="path36" d="M 530.68 18.299 C 530.68 28.252 538.842 36.35 548.875 36.35 C 558.828 36.35 566.924 28.252 566.924 18.299 C 566.924 8.055 558.964 0.029 548.803 0.029 C 538.633 0.029 530.673 8.055 530.673 18.299 Z M 548.88 4.297 C 556.734 4.297 562.883 10.543 562.883 18.52 C 562.883 25.999 556.602 32.083 548.88 32.083 C 541.079 32.083 534.733 25.999 534.733 18.52 C 534.733 10.412 540.813 4.297 548.883 4.297 Z"/>
  </g>
</svg>