<?xml version="1.0" encoding="utf-8"?>
<svg version="1.0" preserveAspectRatio="xMidYMid meet" xmlns="http://www.w3.org/2000/svg">
  <g id="layer2" fill="#181818" stroke="none"/>
  <path d="M 1010 1756.633 C 860 1743.633 696 1678.633 563 1579.633 C 478 1516.633 425 1463.633 356 1368.633 C 292 1282.633 230 1138.633 230 1078.633 C 230 1058.633 220 1045.633 193 1027.633 C 65 943.633 0 895.633 0 884.633 C 0 877.633 49 840.633 109 801.633 L 218 730.633 L 240 662.633 C 265 587.633 342 423.633 365 398.633 C 373 389.633 380 376.633 380 370.633 C 380 352.633 571 163.633 620 132.633 C 790 26.633 933 -8.367 1164 1.633 C 1347 8.633 1471 50.633 1612 150.633 C 1675 195.633 1780 300.633 1800 338.633 C 1818 372.633 1792 371.633 1747 335.633 C 1668 272.633 1586 229.633 1465 187.633 C 1404 166.633 1377 163.633 1250 163.633 C 1123 163.633 1096 166.633 1035 187.633 C 775 275.633 602 453.633 534 699.633 C 509 789.633 509 979.633 534 1073.633 C 587 1274.633 731 1443.633 917 1524.633 C 1038 1576.633 1105 1591.633 1233 1596.633 C 1351 1600.633 1368 1598.633 1448 1573.633 C 1587 1530.633 1679 1477.633 1777 1385.633 C 1884 1284.633 1835 1400.633 1721 1517.633 C 1616 1624.633 1528 1680.633 1392 1724.633 C 1327 1746.633 1162 1770.633 1110 1765.633 C 1102 1764.633 1057 1760.633 1010 1756.633 Z" style="fill: rgb(255, 255, 255);"/>
  <path d="M 1570 1386.633 C 1504 1351.633 1490 1347.633 1439 1350.633 C 1407 1351.633 1379 1350.633 1376 1347.633 C 1373 1344.633 1390 1297.633 1414 1244.633 L 1458 1146.633 L 1415 1103.633 C 1313 998.633 1338 857.633 1480 737.633 C 1508 713.633 1547 669.633 1566 641.633 C 1585 612.633 1604 588.633 1607 588.633 C 1611 588.633 1625 599.633 1639 612.633 C 1672 643.633 1726 657.633 1766 646.633 C 1784 642.633 1814 621.633 1833 601.633 C 1863 571.633 1870 567.633 1875 581.633 C 1887 610.633 1859 712.633 1824 770.633 C 1805 801.633 1790 829.633 1790 832.633 C 1790 836.633 1805 852.633 1823 867.633 C 1905 940.633 1920 1036.633 1867 1151.633 C 1820 1251.633 1684 1429.633 1656 1427.633 C 1650 1427.633 1611 1409.633 1570 1386.633 Z M 1759 1183.633 C 1759 1069.633 1698 996.633 1620 1018.633 C 1582 1029.633 1535 1070.633 1513 1112.633 C 1496 1145.633 1500 1150.633 1560 1167.633 C 1610 1181.633 1725 1242.633 1736 1260.633 C 1747 1278.633 1759 1240.633 1759 1183.633 Z M 1680 948.633 C 1694 938.633 1715 912.633 1728 890.633 L 1751 849.633 L 1716 855.633 C 1666 863.633 1612 841.633 1558 790.633 L 1510 745.633 L 1495 782.633 C 1477 825.633 1486 874.633 1523 929.633 C 1557 980.633 1623 988.633 1680 948.633 Z" style="fill: rgb(255, 255, 255);"/>
  <path d="M 2025 1368.633 C 2000 1335.633 1966 1301.633 1949 1293.633 C 1915 1275.633 1913 1267.633 1940 1243.633 C 1959 1226.633 1960 1212.633 1960 1011.633 C 1960 813.633 1959 797.633 1943 800.633 C 1900 807.633 1903 787.633 1953 735.633 C 2012 674.633 2052 600.633 2090 478.633 C 2107 423.633 2121 393.633 2131 393.633 C 2142 393.633 2146 420.633 2148 540.633 L 2151 687.633 L 2213 690.633 L 2275 693.633 L 2275 748.633 L 2275 803.633 L 2212 806.633 L 2150 809.633 L 2152 1016.633 L 2155 1223.633 L 2197 1223.633 C 2220 1223.633 2242 1226.633 2245 1230.633 C 2253 1238.633 2093 1428.633 2079 1428.633 C 2075 1428.633 2050 1401.633 2025 1368.633 Z" style="fill: rgb(255, 255, 255);"/>
  <path d="M 2456 1411.633 C 2447 1401.633 2416 1365.633 2385 1332.633 C 2337 1279.633 2332 1269.633 2345 1258.633 C 2358 1247.633 2360 1196.633 2360 894.633 L 2360 542.633 L 2321 465.633 C 2299 423.633 2285 386.633 2291 383.633 C 2305 374.633 2319 386.633 2341 431.633 L 2362 472.633 L 2377 442.633 C 2414 370.633 2480 326.633 2571 313.633 C 2634 304.633 2639 319.633 2590 368.633 L 2550 408.633 L 2552 831.633 L 2555 1253.633 L 2585 1256.633 C 2647 1262.633 2646 1266.633 2574 1339.633 C 2488 1426.633 2475 1434.633 2456 1411.633 Z" style="fill: rgb(255, 255, 255);"/>
  <path d="M 3320 1366.633 C 3295 1345.633 3244 1307.633 3207 1281.633 C 3144 1239.633 3140 1234.633 3154 1219.633 C 3167 1204.633 3170 1171.633 3170 1032.633 L 3170 863.633 L 3135 814.633 C 3092 754.633 3091 730.633 3130 664.633 C 3170 594.633 3263 492.633 3278 502.633 C 3295 512.633 3292 589.633 3275 612.633 C 3252 642.633 3257 660.633 3300 718.633 L 3340 772.633 L 3341 957.633 L 3341 1143.633 L 3392 1182.633 L 3444 1221.633 L 3482 1177.633 C 3504 1152.633 3527 1111.633 3536 1081.633 C 3550 1033.633 3550 1023.633 3535 966.633 C 3526 931.633 3494 852.633 3464 790.633 C 3433 729.633 3410 672.633 3413 664.633 C 3416 657.633 3436 646.633 3457 641.633 C 3478 635.633 3551 614.633 3619 594.633 C 3705 568.633 3746 560.633 3753 567.633 C 3760 574.633 3741 601.633 3692 652.633 L 3620 726.633 L 3645 764.633 C 3710 860.633 3711 1020.633 3646 1127.633 C 3612 1182.633 3485 1313.633 3405 1375.633 L 3365 1406.633 L 3320 1366.633 Z" style="fill: rgb(255, 255, 255);"/>
  <path d="M 3793 1361.633 C 3757 1327.633 3740 1302.633 3735 1278.633 C 3732 1259.633 3730 1134.633 3732 1001.633 L 3735 760.633 L 3760 733.633 C 3774 718.633 3816 691.633 3854 672.633 C 3893 653.633 3947 617.633 3976 593.633 C 4005 568.633 4032 548.633 4037 548.633 C 4041 548.633 4067 570.633 4093 597.633 C 4120 624.633 4168 660.633 4201 678.633 C 4271 715.633 4277 722.633 4251 740.633 C 4216 765.633 4210 803.633 4210 1002.633 C 4210 1212.633 4214 1227.633 4264 1214.633 C 4278 1211.633 4291 1212.633 4294 1216.633 C 4297 1221.633 4261 1265.633 4214 1314.633 L 4128 1403.633 L 4089 1358.633 C 4067 1333.633 4042 1296.633 4033 1275.633 L 4017 1236.633 L 3930 1323.633 L 3843 1409.633 L 3793 1361.633 Z M 3993 1200.633 C 4008 1187.633 4010 1163.633 4010 984.633 L 4009 783.633 L 3965 745.633 L 3920 707.633 L 3920 955.633 C 3920 1126.633 3924 1208.633 3931 1215.633 C 3944 1228.633 3967 1222.633 3993 1200.633 Z" style="fill: rgb(255, 255, 255);"/>
  <path d="M 887 1367.633 C 830 1320.633 818 1287.633 811 1165.633 L 805 1057.633 L 746 1025.633 C 714 1007.633 687 988.633 687 983.633 C 687 977.633 714 960.633 748 943.633 C 805 915.633 809 911.633 810 878.633 C 812 813.633 827 757.633 851 732.633 C 863 719.633 902 694.633 936 678.633 C 970 662.633 1023 628.633 1054 603.633 C 1085 578.633 1112 558.633 1116 558.633 C 1119 558.633 1145 578.633 1172 603.633 C 1200 628.633 1249 665.633 1281 684.633 L 1340 721.633 L 1315 750.633 C 1290 779.633 1290 781.633 1290 984.633 C 1290 1199.633 1296 1234.633 1330 1223.633 C 1371 1210.633 1358 1242.633 1293 1313.633 C 1256 1354.633 1220 1388.633 1214 1388.633 C 1197 1388.633 1146 1327.633 1124 1280.633 C 1114 1257.633 1102 1240.633 1098 1241.633 C 1095 1242.633 1072 1261.633 1048 1283.633 C 1024 1306.633 987 1340.633 964 1361.633 L 924 1397.633 L 887 1367.633 Z M 1076 1206.633 L 1105 1183.633 L 1102 984.633 L 1100 785.633 L 1051 738.633 L 1002 691.633 L 1001 950.633 C 1000 1092.633 1002 1213.633 1005 1218.633 C 1015 1235.633 1045 1229.633 1076 1206.633 Z" style="fill: rgb(255, 255, 255);"/>
  <path d="M 2830 1367.633 C 2719 1293.633 2660 1195.633 2660 1085.633 C 2660 1043.633 2656 1036.633 2615 1002.633 C 2590 982.633 2570 962.633 2570 957.633 C 2570 953.633 2590 937.633 2615 922.633 C 2650 902.633 2660 890.633 2660 870.633 C 2660 855.633 2667 818.633 2675 788.633 C 2692 721.633 2744 671.633 2847 619.633 C 2884 600.633 2927 576.633 2942 566.633 L 2970 547.633 L 2989 578.633 C 2999 595.633 3032 657.633 3061 715.633 L 3114 820.633 L 3089 842.633 C 3075 853.633 3015 903.633 2957 951.633 C 2898 999.633 2850 1046.633 2850 1054.633 C 2850 1070.633 2881 1133.633 2902 1159.633 C 2935 1200.633 3010 1219.633 3052 1197.633 C 3065 1190.633 3076 1190.633 3082 1196.633 C 3092 1206.633 2911 1391.633 2887 1395.633 C 2880 1397.633 2855 1384.633 2830 1367.633 Z M 2913 926.633 L 2952 893.633 L 2907 791.633 C 2837 635.633 2841 633.633 2840 816.633 C 2840 999.633 2836 993.633 2913 926.633 Z" style="fill: rgb(255, 255, 255);"/>
  <path d="M 5343 1356.633 C 5320 1332.633 5296 1300.633 5291 1285.633 C 5274 1240.633 5277 805.633 5294 764.633 C 5308 730.633 5345 703.633 5440 657.633 C 5470 642.633 5515 612.633 5540 590.633 L 5585 550.633 L 5648 609.633 C 5682 641.633 5728 677.633 5750 688.633 C 5799 713.633 5808 727.633 5784 745.633 C 5766 758.633 5765 774.633 5765 986.633 L 5765 1213.633 L 5790 1216.633 C 5804 1218.633 5819 1223.633 5823 1228.633 C 5828 1232.633 5798 1271.633 5756 1314.633 L 5681 1393.633 L 5646 1358.633 C 5626 1339.633 5599 1303.633 5586 1277.633 L 5563 1230.633 L 5479 1314.633 C 5433 1360.633 5393 1398.633 5390 1398.633 C 5387 1398.633 5365 1379.633 5343 1356.633 Z M 5540 1206.633 L 5570 1184.633 L 5570 981.633 C 5570 869.633 5566 778.633 5562 778.633 C 5558 778.633 5535 760.633 5512 738.633 L 5470 697.633 L 5470 963.633 C 5470 1223.633 5470 1228.633 5490 1228.633 C 5502 1228.633 5524 1218.633 5540 1206.633 Z" style="fill: rgb(255, 255, 255);"/>
  <path d="M 4727 1346.633 C 4662 1267.633 4660 1255.633 4660 988.633 C 4660 778.633 4658 747.633 4644 741.633 C 4636 738.633 4616 744.633 4602 755.633 L 4575 775.633 L 4572 993.633 C 4570 1145.633 4573 1215.633 4581 1224.633 C 4590 1235.633 4584 1246.633 4552 1277.633 C 4529 1299.633 4504 1331.633 4495 1347.633 C 4487 1364.633 4477 1378.633 4474 1378.633 C 4472 1378.633 4438 1347.633 4400 1309.633 C 4333 1242.633 4332 1240.633 4351 1222.633 C 4369 1206.633 4370 1190.633 4370 986.633 C 4370 760.633 4365 728.633 4330 728.633 C 4320 728.633 4308 723.633 4305 718.633 C 4298 706.633 4437 548.633 4454 548.633 C 4479 548.633 4539 624.633 4552 671.633 C 4558 697.633 4567 718.633 4571 718.633 C 4574 718.633 4585 708.633 4596 697.633 C 4606 685.633 4649 647.633 4692 612.633 L 4768 549.633 L 4794 582.633 C 4808 601.633 4838 634.633 4862 656.633 L 4904 696.633 L 4877 728.633 L 4850 760.633 L 4850 971.633 C 4850 1088.633 4855 1190.633 4860 1198.633 C 4865 1206.633 4879 1213.633 4891 1213.633 C 4903 1213.633 4915 1218.633 4917 1223.633 C 4919 1229.633 4885 1269.633 4841 1312.633 L 4763 1390.633 L 4727 1346.633 Z" style="fill: rgb(255, 255, 255);"/>
  <path d="M 5058 1346.633 C 4991 1258.633 4990 1253.633 4990 970.633 C 4990 712.633 4990 710.633 4968 695.633 C 4945 680.633 4945 680.633 5016 608.633 L 5087 536.633 L 5153 602.633 C 5190 638.633 5220 671.633 5220 675.633 C 5220 680.633 5211 691.633 5200 701.633 C 5181 717.633 5180 730.633 5180 946.633 C 5180 1186.633 5182 1198.633 5225 1198.633 C 5237 1198.633 5250 1201.633 5254 1205.633 C 5260 1212.633 5102 1378.633 5089 1378.633 C 5085 1378.633 5071 1363.633 5058 1346.633 Z" style="fill: rgb(255, 255, 255);"/>
  <path d="M 5057 476.633 C 5043 451.633 5019 423.633 5005 414.633 C 4991 405.633 4980 394.633 4980 389.633 C 4980 384.633 5005 354.633 5035 323.633 L 5090 267.633 L 5149 325.633 L 5208 384.633 L 5171 419.633 C 5151 438.633 5124 469.633 5109 488.633 L 5084 522.633 L 5057 476.633 Z" style="fill: rgb(255, 255, 255);"/>
</svg>