<?xml version="1.0" encoding="utf-8"?>
<svg version="1.0" preserveAspectRatio="xMidYMid meet" xmlns="http://www.w3.org/2000/svg">
  <g id="layer2" fill="#181818" stroke="none" transform="matrix(0.041208, 0, 0, 0.041208, 0, -0.000183)"/>
  <path d="M 41.62 72.387 C 35.439 71.851 28.681 69.172 23.2 65.093 C 19.697 62.497 17.513 60.313 14.67 56.398 C 12.033 52.854 9.478 46.92 9.478 44.448 C 9.478 43.624 9.066 43.088 7.953 42.346 C 2.678 38.885 0 36.907 0 36.453 C 0 36.165 2.019 34.641 4.492 33.033 L 8.983 30.108 L 9.89 27.305 C 10.92 24.215 14.093 17.457 15.041 16.427 C 15.37 16.056 15.659 15.52 15.659 15.273 C 15.659 14.531 23.53 6.743 25.549 5.465 C 32.554 1.097 38.447 -0.345 47.966 0.067 C 55.507 0.355 60.616 2.086 66.427 6.207 C 69.023 8.061 73.35 12.388 74.174 13.954 C 74.916 15.355 73.844 15.314 71.99 13.831 C 68.735 11.234 65.356 9.462 60.369 7.732 C 57.856 6.866 56.743 6.743 51.51 6.743 C 46.276 6.743 45.164 6.866 42.65 7.732 C 31.936 11.358 24.807 18.693 22.005 28.83 C 20.975 32.539 20.975 40.368 22.005 44.242 C 24.189 52.525 30.123 59.489 37.788 62.827 C 42.774 64.969 45.534 65.588 50.809 65.793 C 55.672 65.958 56.372 65.876 59.669 64.846 C 65.397 63.074 69.188 60.89 73.226 57.099 C 77.635 52.937 75.616 57.717 70.919 62.538 C 66.592 66.947 62.965 69.255 57.361 71.068 C 54.683 71.975 47.883 72.964 45.741 72.758 C 45.411 72.717 43.556 72.551 41.62 72.387 Z" style="fill: rgb(255, 255, 255);"/>
  <path d="M 64.696 57.14 C 61.976 55.698 61.4 55.533 59.298 55.657 C 57.979 55.698 56.826 55.657 56.702 55.533 C 56.578 55.409 57.279 53.472 58.268 51.288 L 60.081 47.25 L 58.309 45.478 C 54.106 41.151 55.136 35.341 60.987 30.396 C 62.141 29.407 63.748 27.594 64.531 26.44 C 65.314 25.245 66.097 24.256 66.221 24.256 C 66.386 24.256 66.963 24.709 67.54 25.245 C 68.899 26.522 71.124 27.099 72.773 26.646 C 73.515 26.481 74.751 25.616 75.534 24.792 C 76.77 23.556 77.058 23.391 77.265 23.968 C 77.759 25.163 76.605 29.366 75.163 31.756 C 74.38 33.033 73.762 34.187 73.762 34.311 C 73.762 34.475 74.38 35.135 75.122 35.753 C 78.501 38.761 79.119 42.717 76.935 47.456 C 74.998 51.577 69.394 58.912 68.24 58.829 C 67.993 58.829 66.386 58.088 64.696 57.14 Z M 72.484 48.775 C 72.484 44.077 69.971 41.069 66.757 41.975 C 65.191 42.429 63.254 44.118 62.347 45.849 C 61.647 47.209 61.812 47.415 64.284 48.115 C 66.344 48.692 71.083 51.206 71.537 51.948 C 71.99 52.689 72.484 51.124 72.484 48.775 Z M 69.229 39.091 C 69.806 38.679 70.671 37.607 71.207 36.701 L 72.155 35.011 L 70.713 35.258 C 68.652 35.588 66.427 34.682 64.202 32.58 L 62.224 30.726 L 61.606 32.25 C 60.864 34.022 61.235 36.042 62.76 38.308 C 64.161 40.409 66.88 40.739 69.229 39.091 Z" style="fill: rgb(255, 255, 255);"/>
  <path d="M 83.446 56.398 C 82.416 55.038 81.014 53.637 80.314 53.308 C 78.913 52.566 78.83 52.236 79.943 51.247 C 80.726 50.547 80.767 49.97 80.767 41.687 C 80.767 33.528 80.726 32.869 80.067 32.992 C 78.295 33.28 78.419 32.456 80.479 30.314 C 82.91 27.8 84.558 24.75 86.124 19.723 C 86.825 17.457 87.402 16.22 87.814 16.22 C 88.267 16.22 88.432 17.333 88.514 22.278 L 88.638 28.336 L 91.193 28.459 L 93.748 28.583 L 93.748 30.849 L 93.748 33.116 L 91.152 33.239 L 88.597 33.363 L 88.679 41.893 L 88.803 50.423 L 90.533 50.423 C 91.481 50.423 92.388 50.547 92.511 50.711 C 92.841 51.041 86.248 58.871 85.671 58.871 C 85.506 58.871 84.476 57.758 83.446 56.398 Z" style="fill: rgb(255, 255, 255);"/>
  <path d="M 101.206 58.17 C 100.835 57.758 99.558 56.275 98.281 54.914 C 96.303 52.731 96.096 52.319 96.632 51.865 C 97.168 51.412 97.25 49.31 97.25 36.866 L 97.25 22.361 L 95.643 19.188 C 94.737 17.457 94.16 15.932 94.407 15.809 C 94.984 15.438 95.561 15.932 96.467 17.786 L 97.333 19.476 L 97.951 18.24 C 99.476 15.273 102.195 13.46 105.945 12.924 C 108.541 12.553 108.747 13.171 106.728 15.19 L 105.08 16.839 L 105.162 34.27 L 105.286 51.659 L 106.522 51.783 C 109.077 52.03 109.036 52.195 106.069 55.203 C 102.525 58.788 101.989 59.118 101.206 58.17 Z" style="fill: rgb(255, 255, 255);"/>
  <path d="M 136.81 56.316 C 135.78 55.45 133.678 53.884 132.153 52.813 C 129.557 51.082 129.392 50.876 129.969 50.258 C 130.505 49.64 130.629 48.28 130.629 42.552 L 130.629 35.588 L 129.186 33.569 C 127.414 31.097 127.373 30.108 128.98 27.388 C 130.629 24.503 134.461 20.3 135.079 20.712 C 135.78 21.124 135.656 24.297 134.956 25.245 C 134.008 26.481 134.214 27.223 135.986 29.613 L 137.634 31.838 L 137.675 39.462 L 137.675 47.127 L 139.777 48.733 L 141.919 50.341 L 143.486 48.528 C 144.392 47.497 145.34 45.808 145.711 44.572 C 146.288 42.594 146.288 42.181 145.669 39.832 C 145.298 38.39 143.98 35.135 142.744 32.58 C 141.466 30.066 140.518 27.718 140.642 27.388 C 140.766 27.099 141.59 26.646 142.455 26.44 C 143.32 26.193 146.329 25.327 149.131 24.503 C 152.675 23.432 154.364 23.102 154.653 23.391 C 154.941 23.679 154.158 24.792 152.139 26.893 L 149.172 29.943 L 150.202 31.509 C 152.881 35.465 152.922 42.058 150.243 46.467 C 148.842 48.733 143.609 54.132 140.312 56.687 L 138.664 57.964 L 136.81 56.316 Z" style="fill: rgb(255, 255, 255);"/>
  <path d="M 156.301 56.11 C 154.818 54.709 154.117 53.679 153.911 52.689 C 153.787 51.907 153.705 46.756 153.787 41.275 L 153.911 31.344 L 154.941 30.231 C 155.518 29.613 157.249 28.5 158.815 27.718 C 160.422 26.935 162.647 25.451 163.842 24.462 C 165.037 23.432 166.15 22.608 166.356 22.608 C 166.521 22.608 167.592 23.514 168.663 24.627 C 169.776 25.74 171.754 27.223 173.114 27.965 C 175.998 29.49 176.246 29.778 175.174 30.52 C 173.732 31.55 173.485 33.116 173.485 41.316 C 173.485 49.97 173.65 50.588 175.71 50.052 C 176.287 49.929 176.823 49.97 176.946 50.134 C 177.07 50.341 175.586 52.154 173.65 54.173 L 170.106 57.84 L 168.499 55.986 C 167.592 54.956 166.562 53.431 166.191 52.566 L 165.531 50.959 L 161.947 54.544 L 158.361 58.088 L 156.301 56.11 Z M 164.543 49.475 C 165.161 48.939 165.243 47.951 165.243 40.574 L 165.202 32.292 L 163.389 30.726 L 161.534 29.16 L 161.534 39.379 C 161.534 46.426 161.699 49.805 161.988 50.093 C 162.524 50.629 163.471 50.382 164.543 49.475 Z" style="fill: rgb(255, 255, 255);"/>
  <path d="M 36.551 56.357 C 34.202 54.42 33.708 53.06 33.42 48.033 L 33.172 43.582 L 30.741 42.264 C 29.422 41.522 28.31 40.739 28.31 40.533 C 28.31 40.286 29.422 39.585 30.823 38.885 C 33.172 37.731 33.337 37.566 33.378 36.206 C 33.461 33.528 34.079 31.22 35.068 30.19 C 35.562 29.654 37.17 28.624 38.571 27.965 C 39.972 27.305 42.155 25.904 43.433 24.874 C 44.71 23.844 45.823 23.02 45.988 23.02 C 46.111 23.02 47.183 23.844 48.296 24.874 C 49.449 25.904 51.468 27.429 52.787 28.212 L 55.218 29.737 L 54.188 30.932 C 53.158 32.127 53.158 32.209 53.158 40.574 C 53.158 49.434 53.405 50.876 54.806 50.423 C 56.496 49.887 55.96 51.206 53.282 54.132 C 51.757 55.821 50.274 57.222 50.026 57.222 C 49.326 57.222 47.224 54.709 46.318 52.772 C 45.905 51.824 45.411 51.124 45.246 51.165 C 45.123 51.206 44.175 51.989 43.186 52.895 C 42.197 53.843 40.672 55.244 39.724 56.11 L 38.076 57.593 L 36.551 56.357 Z M 44.34 49.723 L 45.534 48.775 L 45.411 40.574 L 45.329 32.374 L 43.309 30.437 L 41.29 28.5 L 41.249 39.173 C 41.208 45.025 41.29 50.011 41.414 50.217 C 41.826 50.917 43.062 50.67 44.34 49.723 Z" style="fill: rgb(255, 255, 255);"/>
  <path d="M 116.618 56.357 C 112.044 53.308 109.613 49.269 109.613 44.736 C 109.613 43.005 109.448 42.717 107.758 41.316 C 106.728 40.492 105.904 39.668 105.904 39.462 C 105.904 39.297 106.728 38.638 107.758 38.02 C 109.2 37.195 109.613 36.701 109.613 35.877 C 109.613 35.258 109.901 33.734 110.231 32.498 C 110.931 29.737 113.074 27.676 117.319 25.534 C 118.843 24.75 120.615 23.762 121.233 23.349 L 122.387 22.566 L 123.17 23.844 C 123.582 24.544 124.942 27.099 126.137 29.49 L 128.321 33.816 L 127.291 34.723 C 126.714 35.176 124.241 37.237 121.851 39.215 C 119.42 41.193 117.442 43.129 117.442 43.459 C 117.442 44.118 118.72 46.714 119.585 47.786 C 120.945 49.475 124.035 50.258 125.766 49.352 C 126.302 49.063 126.755 49.063 127.002 49.31 C 127.414 49.723 119.956 57.346 118.967 57.511 C 118.678 57.593 117.648 57.058 116.618 56.357 Z M 120.038 38.184 L 121.645 36.824 L 119.791 32.621 C 116.906 26.193 117.071 26.111 117.03 33.651 C 117.03 41.193 116.865 40.945 120.038 38.184 Z" style="fill: rgb(255, 255, 255);"/>
  <path d="M 220.173 55.904 C 219.225 54.914 218.236 53.596 218.03 52.978 C 217.33 51.124 217.453 33.198 218.154 31.509 C 218.731 30.108 220.256 28.995 224.17 27.099 C 225.407 26.481 227.261 25.245 228.291 24.339 L 230.145 22.69 L 232.742 25.121 C 234.143 26.44 236.038 27.923 236.945 28.377 C 238.964 29.407 239.335 29.984 238.346 30.726 C 237.604 31.261 237.563 31.921 237.563 40.657 L 237.563 50.011 L 238.593 50.134 C 239.17 50.217 239.788 50.423 239.953 50.629 C 240.159 50.794 238.923 52.401 237.192 54.173 L 234.101 57.428 L 232.659 55.986 C 231.835 55.203 230.722 53.72 230.187 52.648 L 229.239 50.711 L 225.777 54.173 C 223.882 56.068 222.234 57.634 222.11 57.634 C 221.986 57.634 221.08 56.851 220.173 55.904 Z M 228.291 49.723 L 229.527 48.816 L 229.527 40.451 C 229.527 35.835 229.363 32.086 229.197 32.086 C 229.033 32.086 228.085 31.344 227.137 30.437 L 225.407 28.748 L 225.407 39.709 C 225.407 50.423 225.407 50.629 226.231 50.629 C 226.725 50.629 227.632 50.217 228.291 49.723 Z" style="fill: rgb(255, 255, 255);"/>
  <path d="M 194.789 55.491 C 192.111 52.236 192.028 51.742 192.028 40.739 C 192.028 32.086 191.946 30.808 191.369 30.561 C 191.039 30.437 190.215 30.685 189.638 31.138 L 188.525 31.962 L 188.402 40.945 C 188.319 47.209 188.443 50.093 188.773 50.464 C 189.144 50.917 188.896 51.371 187.578 52.648 C 186.63 53.555 185.6 54.873 185.229 55.533 C 184.899 56.233 184.487 56.81 184.364 56.81 C 184.281 56.81 182.88 55.533 181.314 53.967 C 178.553 51.206 178.512 51.124 179.295 50.382 C 180.037 49.723 180.078 49.063 180.078 40.657 C 180.078 31.344 179.872 30.025 178.43 30.025 C 178.017 30.025 177.523 29.819 177.399 29.613 C 177.111 29.119 182.839 22.608 183.539 22.608 C 184.569 22.608 187.042 25.74 187.578 27.676 C 187.825 28.748 188.196 29.613 188.361 29.613 C 188.484 29.613 188.938 29.201 189.391 28.748 C 189.803 28.253 191.575 26.687 193.347 25.245 L 196.479 22.649 L 197.55 24.009 C 198.127 24.792 199.363 26.152 200.352 27.058 L 202.083 28.707 L 200.97 30.025 L 199.858 31.344 L 199.858 40.039 C 199.858 44.86 200.064 49.063 200.27 49.393 C 200.476 49.723 201.053 50.011 201.547 50.011 C 202.042 50.011 202.536 50.217 202.619 50.423 C 202.701 50.67 201.3 52.319 199.487 54.09 L 196.273 57.305 L 194.789 55.491 Z" style="fill: rgb(255, 255, 255);"/>
  <path d="M 208.429 55.491 C 205.668 51.865 205.627 51.659 205.627 39.998 C 205.627 29.366 205.627 29.283 204.72 28.665 C 203.773 28.047 203.773 28.047 206.698 25.08 L 209.624 22.113 L 212.344 24.833 C 213.868 26.316 215.105 27.676 215.105 27.841 C 215.105 28.047 214.734 28.5 214.28 28.913 C 213.497 29.572 213.456 30.108 213.456 39.008 C 213.456 48.898 213.538 49.393 215.31 49.393 C 215.805 49.393 216.341 49.516 216.506 49.681 C 216.753 49.97 210.242 56.81 209.706 56.81 C 209.541 56.81 208.965 56.192 208.429 55.491 Z" style="fill: rgb(255, 255, 255);"/>
  <path d="M 208.388 19.641 C 207.811 18.611 206.822 17.457 206.245 17.086 C 205.668 16.715 205.215 16.262 205.215 16.056 C 205.215 15.85 206.245 14.613 207.481 13.336 L 209.748 11.029 L 212.179 13.418 L 214.61 15.85 L 213.085 17.292 C 212.261 18.075 211.149 19.352 210.53 20.135 L 209.5 21.536 L 208.388 19.641 Z" style="fill: rgb(255, 255, 255);"/>
</svg>