<?xml version="1.0" encoding="utf-8"?>
<svg version="1.0" preserveAspectRatio="xMidYMid meet" xmlns="http://www.w3.org/2000/svg" xmlns:bx="https://boxy-svg.com">
  <g transform="matrix(2.997707, 0, 0, 2.997707, 0, 0.863339)" bx:origin="0 0">
    <path d="M 34.687 60.329 C 29.536 59.882 23.903 57.649 19.335 54.25 C 16.416 52.086 14.596 50.266 12.226 47.003 C 10.029 44.049 7.899 39.104 7.899 37.044 C 7.899 36.357 7.556 35.91 6.628 35.292 C 2.232 32.407 0 30.759 0 30.381 C 0 30.141 1.683 28.87 3.744 27.53 L 7.487 25.093 L 8.243 22.756 C 9.101 20.181 11.745 14.549 12.535 13.691 C 12.81 13.381 13.051 12.935 13.051 12.729 C 13.051 12.11 19.61 5.62 21.293 4.555 C 27.131 0.914 32.042 -0.288 39.976 0.056 C 46.261 0.296 50.519 1.738 55.362 5.173 C 57.525 6.718 61.131 10.324 61.818 11.629 C 62.436 12.797 61.543 12.763 59.998 11.527 C 57.285 9.363 54.469 7.886 50.313 6.444 C 48.218 5.722 47.291 5.62 42.929 5.62 C 38.567 5.62 37.641 5.722 35.545 6.444 C 26.616 9.466 20.675 15.579 18.339 24.027 C 17.481 27.119 17.481 33.643 18.339 36.872 C 20.16 43.775 25.105 49.579 31.493 52.361 C 35.649 54.146 37.949 54.662 42.345 54.833 C 46.398 54.971 46.981 54.902 49.729 54.044 C 54.503 52.567 57.663 50.747 61.028 47.587 C 64.702 44.119 63.02 48.102 59.105 52.12 C 55.499 55.795 52.476 57.718 47.806 59.229 C 45.574 59.985 39.907 60.81 38.121 60.638 C 37.846 60.604 36.3 60.465 34.687 60.329 Z" style="fill: rgb(255, 255, 255);"/>
    <path d="M 53.919 47.622 C 51.652 46.42 51.172 46.282 49.42 46.386 C 48.321 46.42 47.36 46.386 47.257 46.282 C 47.153 46.179 47.737 44.565 48.562 42.744 L 50.073 39.379 L 48.596 37.902 C 45.093 34.296 45.951 29.454 50.828 25.333 C 51.789 24.508 53.129 22.997 53.781 22.036 C 54.434 21.04 55.086 20.215 55.19 20.215 C 55.327 20.215 55.808 20.593 56.289 21.04 C 57.422 22.104 59.276 22.585 60.65 22.207 C 61.269 22.07 62.299 21.349 62.951 20.662 C 63.982 19.632 64.222 19.494 64.394 19.975 C 64.806 20.971 63.844 24.474 62.642 26.466 C 61.99 27.53 61.475 28.492 61.475 28.595 C 61.475 28.732 61.99 29.282 62.608 29.797 C 65.424 32.304 65.939 35.601 64.119 39.551 C 62.505 42.985 57.834 49.098 56.872 49.029 C 56.667 49.029 55.327 48.412 53.919 47.622 Z M 60.41 40.65 C 60.41 36.735 58.315 34.228 55.637 34.983 C 54.331 35.361 52.717 36.769 51.961 38.211 C 51.378 39.345 51.515 39.517 53.575 40.1 C 55.292 40.581 59.242 42.676 59.62 43.294 C 59.998 43.912 60.41 42.608 60.41 40.65 Z M 57.697 32.579 C 58.178 32.236 58.899 31.342 59.345 30.587 L 60.135 29.179 L 58.934 29.385 C 57.216 29.66 55.362 28.905 53.507 27.153 L 51.859 25.608 L 51.344 26.878 C 50.725 28.355 51.034 30.038 52.305 31.927 C 53.473 33.678 55.739 33.953 57.697 32.579 Z" style="fill: rgb(255, 255, 255);"/>
    <path d="M 69.545 47.003 C 68.687 45.87 67.519 44.702 66.935 44.428 C 65.768 43.809 65.698 43.534 66.626 42.71 C 67.279 42.127 67.313 41.646 67.313 34.743 C 67.313 27.943 67.279 27.394 66.729 27.496 C 65.253 27.736 65.356 27.049 67.073 25.264 C 69.099 23.169 70.472 20.627 71.777 16.437 C 72.362 14.549 72.842 13.518 73.186 13.518 C 73.563 13.518 73.701 14.446 73.769 18.567 L 73.873 23.616 L 76.002 23.718 L 78.131 23.822 L 78.131 25.71 L 78.131 27.599 L 75.968 27.702 L 73.838 27.805 L 73.907 34.914 L 74.01 42.023 L 75.452 42.023 C 76.242 42.023 76.998 42.127 77.1 42.263 C 77.375 42.538 71.881 49.064 71.4 49.064 C 71.262 49.064 70.404 48.137 69.545 47.003 Z" style="fill: rgb(255, 255, 255);"/>
    <path d="M 84.347 48.48 C 84.038 48.137 82.974 46.901 81.909 45.766 C 80.261 43.947 80.088 43.604 80.535 43.225 C 80.982 42.848 81.05 41.096 81.05 30.725 L 81.05 18.636 L 79.711 15.992 C 78.956 14.549 78.475 13.278 78.681 13.175 C 79.161 12.866 79.642 13.278 80.397 14.823 L 81.119 16.232 L 81.634 15.202 C 82.905 12.729 85.171 11.218 88.297 10.771 C 90.46 10.462 90.632 10.977 88.949 12.66 L 87.576 14.034 L 87.644 28.561 L 87.747 43.054 L 88.777 43.157 C 90.907 43.363 90.873 43.5 88.4 46.007 C 85.446 48.995 85 49.27 84.347 48.48 Z" style="fill: rgb(255, 255, 255);"/>
    <path d="M 114.02 46.935 C 113.162 46.213 111.41 44.908 110.139 44.015 C 107.975 42.573 107.838 42.401 108.319 41.886 C 108.765 41.371 108.869 40.237 108.869 35.464 L 108.869 29.66 L 107.666 27.977 C 106.189 25.917 106.155 25.093 107.494 22.826 C 108.869 20.421 112.062 16.918 112.577 17.262 C 113.162 17.605 113.058 20.25 112.475 21.04 C 111.685 22.07 111.856 22.688 113.333 24.68 L 114.707 26.534 L 114.741 32.888 L 114.741 39.276 L 116.493 40.615 L 118.278 41.955 L 119.584 40.444 C 120.339 39.585 121.129 38.177 121.438 37.147 C 121.919 35.499 121.919 35.154 121.403 33.197 C 121.094 31.995 119.996 29.282 118.966 27.153 C 117.9 25.058 117.11 23.101 117.214 22.826 C 117.317 22.585 118.004 22.207 118.725 22.036 C 119.446 21.83 121.953 21.108 124.289 20.421 C 127.242 19.529 128.65 19.254 128.891 19.494 C 129.131 19.734 128.478 20.662 126.796 22.413 L 124.323 24.955 L 125.181 26.26 C 127.414 29.557 127.448 35.052 125.215 38.726 C 124.048 40.615 119.686 45.115 116.939 47.244 L 115.565 48.308 L 114.02 46.935 Z" style="fill: rgb(255, 255, 255);"/>
    <path d="M 130.264 46.763 C 129.028 45.595 128.444 44.737 128.272 43.912 C 128.169 43.26 128.101 38.967 128.169 34.399 L 128.272 26.123 L 129.131 25.195 C 129.612 24.68 131.054 23.752 132.359 23.101 C 133.699 22.448 135.553 21.211 136.549 20.387 C 137.545 19.529 138.473 18.842 138.644 18.842 C 138.782 18.842 139.674 19.597 140.567 20.525 C 141.495 21.452 143.143 22.688 144.276 23.307 C 146.68 24.577 146.887 24.818 145.993 25.436 C 144.792 26.294 144.586 27.599 144.586 34.433 C 144.586 41.646 144.723 42.161 146.44 41.714 C 146.921 41.612 147.368 41.646 147.47 41.783 C 147.573 41.955 146.337 43.466 144.723 45.149 L 141.77 48.205 L 140.43 46.66 C 139.674 45.801 138.816 44.53 138.507 43.809 L 137.957 42.47 L 134.97 45.458 L 131.981 48.412 L 130.264 46.763 Z M 137.133 41.233 C 137.648 40.787 137.717 39.963 137.717 33.815 L 137.682 26.913 L 136.171 25.608 L 134.625 24.302 L 134.625 32.819 C 134.625 38.692 134.763 41.508 135.004 41.748 C 135.451 42.195 136.24 41.989 137.133 41.233 Z" style="fill: rgb(255, 255, 255);"/>
    <path d="M 30.462 46.969 C 28.505 45.355 28.093 44.221 27.853 40.032 L 27.646 36.322 L 25.62 35.224 C 24.521 34.605 23.594 33.953 23.594 33.781 C 23.594 33.575 24.521 32.991 25.688 32.407 C 27.646 31.446 27.784 31.308 27.818 30.175 C 27.887 27.943 28.402 26.019 29.226 25.161 C 29.638 24.714 30.978 23.856 32.146 23.307 C 33.313 22.756 35.133 21.589 36.198 20.73 C 37.262 19.872 38.19 19.185 38.327 19.185 C 38.43 19.185 39.323 19.872 40.251 20.73 C 41.212 21.589 42.894 22.86 43.994 23.512 L 46.02 24.783 L 45.161 25.779 C 44.303 26.775 44.303 26.844 44.303 33.815 C 44.303 41.199 44.509 42.401 45.676 42.023 C 47.085 41.577 46.638 42.676 44.406 45.115 C 43.135 46.522 41.899 47.69 41.693 47.69 C 41.109 47.69 39.357 45.595 38.602 43.981 C 38.258 43.191 37.846 42.608 37.709 42.642 C 37.606 42.676 36.816 43.329 35.992 44.084 C 35.168 44.874 33.897 46.041 33.107 46.763 L 31.733 47.999 L 30.462 46.969 Z M 36.954 41.44 L 37.949 40.65 L 37.846 33.815 L 37.778 26.981 L 36.095 25.367 L 34.412 23.752 L 34.378 32.647 C 34.344 37.525 34.412 41.68 34.515 41.852 C 34.859 42.435 35.889 42.229 36.954 41.44 Z" style="fill: rgb(255, 255, 255);"/>
    <path d="M 97.192 46.969 C 93.38 44.428 91.354 41.062 91.354 37.284 C 91.354 35.841 91.216 35.601 89.808 34.433 C 88.949 33.747 88.262 33.06 88.262 32.888 C 88.262 32.751 88.949 32.202 89.808 31.687 C 91.009 30.999 91.354 30.587 91.354 29.901 C 91.354 29.385 91.594 28.115 91.869 27.084 C 92.452 24.783 94.238 23.066 97.776 21.28 C 99.046 20.627 100.523 19.804 101.038 19.459 L 102 18.807 L 102.652 19.872 C 102.996 20.455 104.129 22.585 105.125 24.577 L 106.945 28.183 L 106.087 28.939 C 105.606 29.316 103.545 31.034 101.553 32.682 C 99.527 34.331 97.878 35.944 97.878 36.22 C 97.878 36.769 98.943 38.932 99.664 39.826 C 100.798 41.233 103.373 41.886 104.816 41.131 C 105.262 40.89 105.64 40.89 105.846 41.096 C 106.189 41.44 99.974 47.793 99.149 47.931 C 98.908 47.999 98.05 47.553 97.192 46.969 Z M 100.042 31.823 L 101.381 30.69 L 99.836 27.187 C 97.432 21.83 97.569 21.761 97.535 28.045 C 97.535 34.331 97.397 34.124 100.042 31.823 Z" style="fill: rgb(255, 255, 255);"/>
    <path d="M 183.496 46.591 C 182.706 45.766 181.882 44.668 181.71 44.153 C 181.127 42.608 181.229 27.668 181.814 26.26 C 182.295 25.093 183.565 24.165 186.827 22.585 C 187.858 22.07 189.404 21.04 190.262 20.285 L 191.807 18.91 L 193.972 20.936 C 195.139 22.036 196.719 23.272 197.474 23.65 C 199.157 24.508 199.466 24.989 198.642 25.608 C 198.024 26.053 197.989 26.604 197.989 33.884 L 197.989 41.68 L 198.848 41.783 C 199.329 41.852 199.844 42.023 199.981 42.195 C 200.153 42.333 199.123 43.672 197.68 45.149 L 195.104 47.862 L 193.902 46.66 C 193.216 46.007 192.288 44.771 191.842 43.878 L 191.052 42.263 L 188.167 45.149 C 186.587 46.728 185.214 48.033 185.111 48.033 C 185.007 48.033 184.252 47.381 183.496 46.591 Z M 190.262 41.44 L 191.292 40.684 L 191.292 33.713 C 191.292 29.866 191.155 26.741 191.017 26.741 C 190.88 26.741 190.09 26.123 189.3 25.367 L 187.858 23.959 L 187.858 33.094 C 187.858 42.023 187.858 42.195 188.545 42.195 C 188.957 42.195 189.713 41.852 190.262 41.44 Z" style="fill: rgb(255, 255, 255);"/>
    <path d="M 162.341 46.247 C 160.109 43.534 160.04 43.123 160.04 33.953 C 160.04 26.741 159.971 25.676 159.491 25.47 C 159.215 25.367 158.529 25.573 158.048 25.951 L 157.12 26.638 L 157.018 34.124 C 156.949 39.345 157.052 41.748 157.327 42.058 C 157.636 42.435 157.429 42.814 156.331 43.878 C 155.541 44.634 154.683 45.732 154.373 46.282 C 154.098 46.866 153.755 47.346 153.652 47.346 C 153.583 47.346 152.416 46.282 151.11 44.977 C 148.809 42.676 148.775 42.608 149.428 41.989 C 150.046 41.44 150.08 40.89 150.08 33.884 C 150.08 26.123 149.909 25.023 148.707 25.023 C 148.363 25.023 147.951 24.852 147.848 24.68 C 147.608 24.268 152.381 18.842 152.965 18.842 C 153.823 18.842 155.884 21.452 156.331 23.066 C 156.537 23.959 156.846 24.68 156.984 24.68 C 157.086 24.68 157.464 24.337 157.842 23.959 C 158.185 23.547 159.662 22.241 161.139 21.04 L 163.749 18.876 L 164.642 20.01 C 165.123 20.662 166.153 21.796 166.977 22.551 L 168.42 23.925 L 167.492 25.023 L 166.565 26.123 L 166.565 33.369 C 166.565 37.387 166.737 40.89 166.909 41.165 C 167.08 41.44 167.561 41.68 167.973 41.68 C 168.386 41.68 168.797 41.852 168.866 42.023 C 168.935 42.229 167.767 43.604 166.256 45.08 L 163.578 47.759 L 162.341 46.247 Z" style="fill: rgb(255, 255, 255);"/>
    <path d="M 173.709 46.247 C 171.408 43.225 171.373 43.054 171.373 33.335 C 171.373 24.474 171.373 24.405 170.617 23.89 C 169.828 23.375 169.828 23.375 172.266 20.902 L 174.705 18.429 L 176.971 20.696 C 178.242 21.932 179.273 23.066 179.273 23.203 C 179.273 23.375 178.963 23.752 178.585 24.097 C 177.932 24.646 177.898 25.093 177.898 32.51 C 177.898 40.752 177.967 41.165 179.443 41.165 C 179.856 41.165 180.303 41.268 180.44 41.405 C 180.646 41.646 175.22 47.346 174.773 47.346 C 174.635 47.346 174.155 46.831 173.709 46.247 Z" style="fill: rgb(255, 255, 255);"/>
    <path d="M 173.674 16.369 C 173.194 15.511 172.369 14.549 171.888 14.24 C 171.408 13.931 171.03 13.553 171.03 13.381 C 171.03 13.21 171.888 12.179 172.919 11.114 L 174.808 9.192 L 176.834 11.183 L 178.86 13.21 L 177.589 14.411 C 176.902 15.064 175.976 16.128 175.46 16.781 L 174.601 17.948 L 173.674 16.369 Z" style="fill: rgb(255, 255, 255);"/>
  </g>
</svg>