<?xml version="1.0" encoding="utf-8"?>
<svg version="1.1" id="svg2" x="0px" y="0px" enable-background="new 0.25 0 567.927 113.032" xmlns="http://www.w3.org/2000/svg">
  <path d="M 28.946 49.952 L 224.202 49.952 C 229.468 49.952 233.737 54.221 233.737 59.487 L 233.737 60.968 C 233.737 66.233 229.468 70.502 224.202 70.502 L 28.946 70.502 C 23.68 70.502 19.411 66.233 19.411 60.968 L 19.411 59.487 C 19.411 54.221 23.68 49.952 28.946 49.952 Z" style="color: rgb(0, 0, 0); clip-rule: nonzero; display: inline; overflow: visible; visibility: visible; opacity: 1; isolation: auto; mix-blend-mode: normal; color-interpolation: sRGB; color-interpolation-filters: linearRGB; fill-opacity: 1; fill-rule: evenodd; stroke: none; stroke-width: 1px; stroke-linecap: butt; stroke-linejoin: miter; stroke-miterlimit: 4; stroke-dasharray: none; stroke-dashoffset: 0; stroke-opacity: 1; color-rendering: auto; image-rendering: auto; shape-rendering: auto; text-rendering: auto; fill: rgb(20, 20, 20);" id="rect4789"/>
  <path d="M 68.359 58.709 C 68.359 59.118 68.287 59.519 68.144 59.911 C 68.001 60.3 67.797 60.627 67.531 60.892 C 67.167 61.252 66.76 61.524 66.311 61.708 C 65.865 61.892 65.309 61.984 64.642 61.984 L 63.177 61.984 L 63.177 64.958 L 60.822 64.958 L 60.822 55.827 L 64.698 55.827 C 65.278 55.827 65.767 55.878 66.163 55.98 C 66.564 56.078 66.918 56.227 67.224 56.428 C 67.592 56.669 67.872 56.978 68.064 57.354 C 68.261 57.73 68.359 58.182 68.359 58.709 Z M 65.924 58.764 C 65.924 58.507 65.854 58.286 65.716 58.102 C 65.577 57.914 65.415 57.783 65.231 57.709 C 64.986 57.611 64.747 57.558 64.513 57.55 C 64.281 57.538 63.97 57.532 63.582 57.532 L 63.177 57.532 L 63.177 60.267 L 63.851 60.267 C 64.252 60.267 64.581 60.242 64.839 60.193 C 65.1 60.144 65.319 60.046 65.495 59.899 C 65.646 59.768 65.754 59.613 65.82 59.433 C 65.889 59.249 65.924 59.026 65.924 58.764 Z" style="font-style:normal;font-variant:normal;font-weight:bold;font-stretch:normal;font-size:medium;line-height:125%;font-family:sans-serif;-inkscape-font-specification:'sans-serif Bold';letter-spacing:7.03102636px;word-spacing:0px;fill:#ffffff;fill-opacity:1;stroke:none;stroke-width:1px;stroke-linecap:butt;stroke-linejoin:miter;stroke-opacity:1" id="path4793"/>
  <path d="M 78.95 64.958 L 72.363 64.958 L 72.363 55.827 L 74.718 55.827 L 74.718 63.192 L 78.95 63.192 L 78.95 64.958 Z" style="font-style:normal;font-variant:normal;font-weight:bold;font-stretch:normal;font-size:medium;line-height:125%;font-family:sans-serif;-inkscape-font-specification:'sans-serif Bold';letter-spacing:7.03102636px;word-spacing:0px;fill:#ffffff;fill-opacity:1;stroke:none;stroke-width:1px;stroke-linecap:butt;stroke-linejoin:miter;stroke-opacity:1" id="path4795"/>
  <path d="M 91.461 64.958 L 89.026 64.958 L 88.247 63.113 L 83.615 63.113 L 82.791 64.958 L 80.417 64.958 L 84.584 55.827 L 87.295 55.827 Z M 87.543 61.438 L 85.909 58.164 L 84.289 61.438 Z" style="font-style:normal;font-variant:normal;font-weight:bold;font-stretch:normal;font-size:medium;line-height:125%;font-family:sans-serif;-inkscape-font-specification:'sans-serif Bold';letter-spacing:7.03102636px;word-spacing:0px;fill:#ffffff;fill-opacity:1;stroke:none;stroke-width:1px;stroke-linecap:butt;stroke-linejoin:miter;stroke-opacity:1" id="path4797"/>
  <path d="M 102.991 55.827 L 99.476 61.426 L 99.476 64.958 L 97.121 64.958 L 97.121 61.536 L 93.521 55.827 L 96.195 55.827 L 98.347 59.359 L 100.402 55.827 Z" style="font-style:normal;font-variant:normal;font-weight:bold;font-stretch:normal;font-size:medium;line-height:125%;font-family:sans-serif;-inkscape-font-specification:'sans-serif Bold';letter-spacing:7.03102636px;word-spacing:0px;fill:#ffffff;fill-opacity:1;stroke:none;stroke-width:1px;stroke-linecap:butt;stroke-linejoin:miter;stroke-opacity:1" id="path4799"/>
  <path d="M 119.724 61.923 C 119.724 62.822 119.341 63.554 118.577 64.118 C 117.817 64.678 116.782 64.958 115.474 64.958 C 114.717 64.958 114.057 64.893 113.493 64.762 C 112.933 64.627 112.407 64.458 111.917 64.253 L 112.673 62.489 C 112.969 62.658 113.475 62.844 113.806 62.959 C 114.411 63.168 114.991 63.272 115.547 63.272 C 115.691 63.272 115.878 63.259 116.112 63.235 C 116.345 63.21 116.535 63.17 116.682 63.113 C 116.862 63.039 117.009 62.947 117.124 62.836 C 117.242 62.726 117.301 62.562 117.301 62.346 C 117.301 62.146 117.215 61.974 117.044 61.831 C 116.876 61.684 116.629 61.571 116.302 61.493 C 115.958 61.412 115.594 61.336 115.21 61.266 C 114.83 61.193 114.472 61.101 114.137 60.991 C 113.368 60.741 112.814 60.404 112.475 59.979 C 112.14 59.549 111.972 59.018 111.972 58.384 C 111.972 57.534 112.352 56.841 113.113 56.305 C 113.877 55.765 114.859 55.496 116.056 55.496 C 116.657 55.496 117.25 55.555 117.835 55.673 C 118.424 55.788 118.933 55.933 119.362 56.109 L 118.369 57.741 C 118.178 57.645 117.974 57.556 117.755 57.477 C 117.223 57.276 116.68 57.176 116.124 57.176 C 115.927 57.176 115.731 57.19 115.535 57.219 C 115.343 57.243 115.157 57.293 114.977 57.366 C 114.818 57.428 114.681 57.522 114.566 57.648 C 114.452 57.771 114.394 57.912 114.394 58.071 C 114.394 58.312 114.486 58.499 114.67 58.629 C 114.854 58.756 115.202 58.873 115.713 58.979 C 116.048 59.048 116.369 59.116 116.676 59.181 C 116.987 59.247 117.32 59.337 117.675 59.451 C 118.375 59.68 118.89 59.993 119.221 60.389 C 119.556 60.782 119.724 61.293 119.724 61.923 Z" style="font-style:normal;font-variant:normal;font-weight:bold;font-stretch:normal;font-size:medium;line-height:125%;font-family:sans-serif;-inkscape-font-specification:'sans-serif Bold';letter-spacing:7.03102636px;word-spacing:0px;fill:#ffffff;fill-opacity:1;stroke:none;stroke-width:1px;stroke-linecap:butt;stroke-linejoin:miter;stroke-opacity:1" id="path4801"/>
  <path d="M 153.022 57.593 L 150.171 57.593 L 150.171 64.958 L 147.816 64.958 L 147.816 57.593 L 144.964 57.593 L 144.964 55.827 L 153.022 55.827 L 153.022 57.593 Z" style="font-style:normal;font-variant:normal;font-weight:bold;font-stretch:normal;font-size:medium;line-height:125%;font-family:sans-serif;-inkscape-font-specification:'sans-serif Bold';letter-spacing:7.03102636px;word-spacing:0px;fill:#ffffff;fill-opacity:1;stroke:none;stroke-width:1px;stroke-linecap:butt;stroke-linejoin:miter;stroke-opacity:1" id="path4803"/>
  <path d="M 163.034 64.958 L 156.01 64.958 L 156.01 55.827 L 163.034 55.827 L 163.034 57.593 L 158.353 57.593 L 158.353 59.169 L 162.727 59.169 L 162.727 60.935 L 158.353 60.935 L 158.353 63.192 L 163.034 63.192 Z" style="font-style:normal;font-variant:normal;font-weight:bold;font-stretch:normal;font-size:medium;line-height:125%;font-family:sans-serif;-inkscape-font-specification:'sans-serif Bold';letter-spacing:7.03102636px;word-spacing:0px;fill:#ffffff;fill-opacity:1;stroke:none;stroke-width:1px;stroke-linecap:butt;stroke-linejoin:miter;stroke-opacity:1" id="path4805"/>
  <path d="M 178.74 64.958 L 176.272 64.958 L 176.062 60.557 L 173.513 64.956 L 171.888 64.956 L 169.339 60.557 L 169.13 64.958 L 166.784 64.958 L 167.119 55.827 L 169.414 55.827 L 172.765 62.137 L 176.11 55.827 L 178.405 55.827 Z" style="font-style:normal;font-variant:normal;font-weight:bold;font-stretch:normal;font-size:medium;line-height:125%;font-family:sans-serif;-inkscape-font-specification:'sans-serif Bold';letter-spacing:7.03102636px;word-spacing:0px;fill:#ffffff;fill-opacity:1;stroke:none;stroke-width:1px;stroke-linecap:butt;stroke-linejoin:miter;stroke-opacity:1" id="path4807"/>
  <path id="path4809" style="font-style:normal;font-variant:normal;font-weight:bold;font-stretch:normal;font-size:medium;line-height:125%;font-family:sans-serif;-inkscape-font-specification:'sans-serif Bold';letter-spacing:7.03102636px;word-spacing:0px;fill:#ffffff;fill-opacity:1;stroke:none;stroke-width:1px;stroke-linecap:butt;stroke-linejoin:miter;stroke-opacity:1" d="M 131.885 55.827 L 128.371 61.426 L 128.371 64.958 L 126.015 64.958 L 126.015 61.536 L 122.416 55.827 L 125.09 55.827 L 127.242 59.359 L 129.297 55.827 Z"/>
  <path id="path4811" style="font-style:normal;font-variant:normal;font-weight:bold;font-stretch:normal;font-size:medium;line-height:125%;font-family:sans-serif;-inkscape-font-specification:'sans-serif Bold';letter-spacing:7.03102636px;word-spacing:0px;fill:#ffffff;fill-opacity:1;stroke:none;stroke-width:1px;stroke-linecap:butt;stroke-linejoin:miter;stroke-opacity:1" d="M 141.918 61.923 C 141.918 62.822 141.536 63.554 140.771 64.118 C 140.011 64.678 138.976 64.958 137.668 64.958 C 136.912 64.958 136.252 64.893 135.687 64.762 C 135.127 64.627 134.602 64.458 134.111 64.253 L 134.868 62.489 C 135.164 62.658 135.67 62.844 136 62.959 C 136.605 63.168 137.186 63.272 137.742 63.272 C 137.885 63.272 138.073 63.259 138.306 63.235 C 138.539 63.21 138.729 63.17 138.877 63.113 C 139.056 63.039 139.203 62.947 139.318 62.836 C 139.437 62.726 139.496 62.562 139.496 62.346 C 139.496 62.146 139.41 61.974 139.238 61.831 C 139.071 61.684 138.823 61.571 138.496 61.493 C 138.153 61.412 137.789 61.336 137.405 61.266 C 137.024 61.193 136.667 61.101 136.331 60.991 C 135.563 60.741 135.009 60.404 134.67 59.979 C 134.334 59.549 134.166 59.018 134.166 58.384 C 134.166 57.534 134.547 56.841 135.307 56.305 C 136.072 55.765 137.053 55.496 138.251 55.496 C 138.852 55.496 139.445 55.555 140.029 55.673 C 140.618 55.788 141.127 55.933 141.556 56.109 L 140.564 57.741 C 140.373 57.645 140.168 57.556 139.95 57.477 C 139.418 57.276 138.875 57.176 138.318 57.176 C 138.122 57.176 137.926 57.19 137.73 57.219 C 137.538 57.243 137.351 57.293 137.172 57.366 C 137.012 57.428 136.875 57.522 136.761 57.648 C 136.646 57.771 136.589 57.912 136.589 58.071 C 136.589 58.312 136.681 58.499 136.865 58.629 C 137.049 58.756 137.396 58.873 137.907 58.979 C 138.243 59.048 138.564 59.116 138.87 59.181 C 139.181 59.247 139.514 59.337 139.87 59.451 C 140.569 59.68 141.084 59.993 141.415 60.389 C 141.751 60.782 141.918 61.293 141.918 61.923 Z"/>
  <path style="color: rgb(0, 0, 0); clip-rule: nonzero; display: inline; overflow: visible; visibility: visible; opacity: 1; isolation: auto; mix-blend-mode: normal; color-interpolation: sRGB; color-interpolation-filters: linearRGB; fill-opacity: 1; fill-rule: evenodd; stroke: none; stroke-width: 1px; stroke-linecap: butt; stroke-linejoin: miter; stroke-miterlimit: 4; stroke-dasharray: none; stroke-dashoffset: 0; stroke-opacity: 1; color-rendering: auto; image-rendering: auto; shape-rendering: auto; text-rendering: auto; fill: rgb(255, 255, 255);" d="M 186.75 55.85 L 186.75 56.336 L 186.763 56.336 C 186.803 56.336 188.621 56.369 188.621 57.132 L 188.621 63.697 C 188.621 64.137 187.792 64.492 186.763 64.492 L 186.75 64.492 L 186.75 64.978 L 189.209 64.978 L 189.867 64.978 L 192.326 64.978 L 192.326 64.492 L 192.314 64.492 C 191.284 64.492 190.455 64.137 190.455 63.697 L 190.455 57.132 C 190.455 56.369 192.273 56.336 192.314 56.336 L 192.326 56.336 L 192.326 55.85 L 189.867 55.85 L 189.209 55.85 L 186.75 55.85 Z" id="path4783"/>
  <path style="clip-rule: evenodd; fill-opacity: 1; fill-rule: evenodd; fill: rgb(20, 20, 20);" d="M 44.754 11.347 L 32.786 23.989 L 24.881 18.569 C 24.881 18.569 27.482 16.087 25.109 14.28 C 23.259 12.87 18.069 15.86 18.294 21.731 C 18.558 28.504 22.743 32.341 27.365 32.341 C 31.659 32.341 32.786 28.88 32.786 28.88 L 42.405 28.88 L 42.405 36.86 L 55.926 1.186 L 71.394 1.186 L 83.813 33.249 C 83.813 33.249 84.716 34.939 85.618 35.391 C 85.618 35.391 85.67 14.359 85.67 13.768 C 85.67 13.179 85.592 12.528 85.224 12.106 C 84.618 11.408 83.586 11.119 83.586 11.119 L 83.586 1.186 C 83.586 1.186 97.919 1.186 105.26 1.186 C 116.502 1.186 119.386 4.234 122.646 10.106 C 127.146 4.046 133.342 0.056 142.177 0.056 C 151.265 0.056 157.697 3.407 161.37 8.974 C 166.5 2.842 174.757 0 182.312 0 C 191.597 0 199.352 4.5 203.365 11.459 L 203.365 1.186 L 224.248 1.186 L 226.448 6.772 L 228.088 1.186 L 249.65 1.186 L 249.65 10.893 C 249.65 10.893 248.406 11.234 248.063 11.794 C 247.728 12.347 247.787 14.113 247.787 14.113 L 250.795 33.3 C 250.921 33.924 251.143 34.576 251.681 35.053 C 252.305 35.611 253.148 35.507 253.148 35.507 L 253.148 46.567 L 231.474 46.567 L 231.474 38.212 L 219.057 38.212 L 219.057 46.589 L 198.68 46.589 L 198.68 41.144 C 198.68 41.144 191.232 47.694 181.634 47.694 C 169.35 47.694 161.143 38.664 161.143 38.664 L 161.143 46.565 C 161.143 46.565 160.241 46.565 146.696 46.565 C 133.836 46.565 122.797 39.529 119.714 26.697 C 118.252 28.095 111.807 32.696 104.077 34.43 C 103.476 34.565 103.176 34.79 103.176 35.442 C 103.176 36.63 105.716 37.054 105.716 37.054 L 105.716 46.564 C 105.716 46.564 38.885 46.564 26.469 46.564 C 11.791 46.567 0 36.52 0 23.764 C 0 11.007 9.193 0.168 24.432 0.168 C 38.996 0.168 44.755 11.347 44.755 11.347 L 44.755 11.347 Z" id="path4815"/>
  <path style="clip-rule: evenodd; fill-opacity: 1; fill-rule: evenodd; fill: rgb(255, 255, 255);" d="M 39.051 11.545 L 32.675 18.23 C 32.675 18.23 32.337 18.401 32.055 18.401 C 31.772 18.401 31.375 18.117 31.375 18.117 L 30.586 17.443 C 30.586 17.443 30.359 17.388 30.359 17.16 C 30.359 16.937 30.981 16.369 30.981 15.296 C 30.981 14.223 30.756 9.764 23.87 9.764 C 16.985 9.764 13.936 16.199 13.936 21.506 C 13.936 26.812 17.208 36.52 27.936 36.52 C 34.175 36.52 35.496 33.017 35.496 33.017 L 37.64 33.017 L 37.64 42.164 L 25.901 42.164 C 11.904 42.164 4.113 31.211 4.113 23.31 C 4.113 11.194 14.648 4.471 24.208 4.471 C 33.465 4.472 39.051 11.545 39.051 11.545 L 39.051 11.545 Z" id="path4817"/>
  <path style="clip-rule: evenodd; fill-opacity: 1; fill-rule: evenodd; fill: rgb(255, 255, 255);" d="M 58.81 5.477 L 68.461 5.477 L 80.203 36.183 C 80.539 37.027 81.104 37.822 81.668 38.496 C 82.23 39.174 83.586 39.628 83.586 39.628 L 83.586 42.277 L 69.422 42.277 L 69.422 39.568 C 69.422 39.568 70.323 39.684 70.776 38.892 C 71.227 38.101 71.227 37.481 70.89 36.692 C 70.551 35.9 68.175 29.636 68.175 29.636 L 56.606 29.636 C 56.606 29.636 54.238 35.957 54.009 36.521 C 53.783 37.085 53.783 37.99 54.009 38.552 C 54.385 39.491 55.704 39.629 55.704 39.629 L 55.704 42.278 L 44.357 42.278 L 44.357 39.629 C 44.357 39.629 45.389 39.274 46.163 38.497 C 47.009 37.651 47.291 36.746 47.291 36.746 L 58.81 5.477 L 58.81 5.477 Z M 58.525 23.877 L 65.978 23.877 L 62.14 13.153 L 58.525 23.877 L 58.525 23.877 Z" id="path4819"/>
  <path style="clip-rule: evenodd; fill-opacity: 1; fill-rule: evenodd; fill: rgb(255, 255, 255);" d="M 88.102 5.477 C 88.102 5.477 99.503 5.477 106.165 5.477 C 112.826 5.477 119.484 7.845 119.484 15.521 C 119.484 23.198 114.63 25.909 110.455 27.829 C 105.633 30.044 99.279 31.781 99.279 31.781 L 99.279 37.649 C 99.279 37.649 99.336 38.045 99.899 38.718 C 100.465 39.396 101.086 39.567 101.086 39.567 L 101.086 42.276 L 87.99 42.276 L 87.99 39.627 C 87.99 39.627 88.779 39.455 89.347 38.891 C 89.909 38.326 90.024 37.649 90.024 37.649 L 90.024 11.12 C 90.024 11.12 90.076 9.99 89.628 9.541 C 89.177 9.085 88.103 8.467 88.103 8.467 L 88.103 5.477 L 88.102 5.477 L 88.102 5.477 Z M 99.391 11.007 L 99.391 26.698 C 99.391 26.698 110.002 22.297 110.002 16.087 C 110.002 8.411 99.391 11.007 99.391 11.007 L 99.391 11.007 Z" id="path4821"/>
  <path style="clip-rule: evenodd; fill-opacity: 1; fill-rule: evenodd; fill: rgb(255, 255, 255);" d="M 158.603 11.61 L 152.225 18.295 C 152.225 18.295 151.886 18.465 151.603 18.465 C 151.323 18.465 150.928 18.182 150.928 18.182 L 150.136 17.503 C 150.136 17.503 149.911 17.45 149.911 17.225 C 149.911 16.998 150.53 16.43 150.53 15.362 C 150.53 14.288 150.307 9.829 143.419 9.829 C 136.531 9.829 133.484 16.262 133.484 21.569 C 133.484 26.872 136.758 36.583 147.485 36.583 C 153.724 36.583 155.047 33.082 155.047 33.082 L 157.193 33.082 L 157.193 42.226 L 145.449 42.226 C 131.453 42.226 123.661 31.277 123.661 23.374 C 123.661 11.26 134.195 4.534 143.756 4.534 C 153.014 4.534 158.603 11.61 158.603 11.61 L 158.603 11.61 Z" id="path4823"/>
  <path style="clip-rule: evenodd; fill-opacity: 1; fill-rule: evenodd; fill: rgb(255, 255, 255);" d="M 181.464 43.336 C 169.27 43.336 160.506 34.432 160.506 23.597 C 160.506 12.755 169.497 4.358 181.464 4.358 C 193.427 4.358 202.418 12.755 202.418 23.597 C 202.418 34.431 193.653 43.336 181.464 43.336 L 181.464 43.336 Z M 170.624 23.764 C 170.624 34.602 176.156 37.311 181.464 37.311 C 186.766 37.311 192.414 33.924 192.414 23.764 C 192.414 13.605 186.092 10.217 181.464 10.217 C 176.835 10.217 170.624 12.924 170.624 23.764 L 170.624 23.764 Z" id="path4825"/>
  <path style="clip-rule: evenodd; fill-opacity: 1; fill-rule: evenodd; fill: rgb(255, 255, 255);" d="M 207.877 5.5 L 221.313 5.5 L 226.167 20.491 L 231.358 5.477 L 245.411 5.477 L 245.411 7.676 C 245.411 7.676 244.477 8.072 244.061 8.58 C 243.553 9.202 243.553 9.652 243.665 10.558 C 243.778 11.459 247.389 35.957 247.503 36.861 C 247.618 37.765 247.728 38.272 247.954 38.894 C 248.178 39.509 249.253 40.02 249.253 40.02 L 249.253 42.297 L 235.761 42.297 L 235.761 39.852 C 235.761 39.852 236.946 39.683 237.344 39.116 C 237.739 38.551 237.906 38.212 237.794 37.311 C 237.681 36.408 234.466 15.862 234.466 15.862 L 228.595 34.037 L 221.483 34.037 L 215.667 16.988 L 212.733 37.084 C 212.733 37.084 212.619 38.29 213.072 38.948 C 213.692 39.852 214.825 39.852 214.825 39.852 L 214.825 42.277 L 203.136 42.277 L 203.136 39.684 C 203.136 39.684 204.067 39.541 204.744 38.749 C 205.42 37.961 205.535 36.942 205.535 36.942 L 209.798 10.442 C 209.798 10.442 210.054 9.452 209.77 9.003 C 209.472 8.527 207.878 8.128 207.878 8.128 L 207.878 5.5 L 207.877 5.5 Z" id="path4827"/>
</svg>