<?xml version="1.0" encoding="utf-8"?>
<svg version="1.1" id="svg2" x="0px" y="0px" enable-background="new 0.25 0 567.927 113.032" xmlns="http://www.w3.org/2000/svg" xmlns:bx="https://boxy-svg.com">
  <g transform="matrix(3, 0, 0, 3, 0, 0)" bx:origin="0 0">
    <path d="M 22.869 39.465 L 177.131 39.465 C 181.292 39.465 184.664 42.837 184.664 46.998 L 184.664 48.168 C 184.664 52.327 181.292 55.7 177.131 55.7 L 22.869 55.7 C 18.708 55.7 15.336 52.327 15.336 48.168 L 15.336 46.998 C 15.336 42.837 18.708 39.465 22.869 39.465 Z" style="color: rgb(0, 0, 0); clip-rule: nonzero; display: inline; overflow: visible; visibility: visible; opacity: 1; isolation: auto; mix-blend-mode: normal; color-interpolation: sRGB; color-interpolation-filters: linearRGB; fill-opacity: 1; fill-rule: evenodd; stroke: none; stroke-width: 1px; stroke-linecap: butt; stroke-linejoin: miter; stroke-miterlimit: 4; stroke-dasharray: none; stroke-dashoffset: 0; stroke-opacity: 1; color-rendering: auto; image-rendering: auto; shape-rendering: auto; text-rendering: auto; fill: rgb(20, 20, 20);" id="rect4789"/>
    <path d="M 54.007 46.383 C 54.007 46.706 53.95 47.023 53.837 47.333 C 53.724 47.64 53.563 47.898 53.353 48.108 C 53.065 48.392 52.744 48.607 52.389 48.753 C 52.037 48.898 51.597 48.971 51.071 48.971 L 49.913 48.971 L 49.913 51.32 L 48.053 51.32 L 48.053 44.106 L 51.115 44.106 C 51.573 44.106 51.959 44.147 52.272 44.227 C 52.589 44.305 52.869 44.422 53.11 44.581 C 53.401 44.771 53.622 45.016 53.774 45.313 C 53.93 45.61 54.007 45.967 54.007 46.383 Z M 52.083 46.427 C 52.083 46.224 52.028 46.049 51.919 45.904 C 51.809 45.755 51.681 45.652 51.536 45.593 C 51.342 45.516 51.153 45.474 50.969 45.467 C 50.785 45.458 50.54 45.453 50.233 45.453 L 49.913 45.453 L 49.913 47.614 L 50.446 47.614 C 50.762 47.614 51.022 47.594 51.226 47.556 C 51.432 47.517 51.605 47.439 51.744 47.323 C 51.864 47.22 51.949 47.097 52.001 46.955 C 52.056 46.81 52.083 46.634 52.083 46.427 Z" style="font-style:normal;font-variant:normal;font-weight:bold;font-stretch:normal;font-size:medium;line-height:125%;font-family:sans-serif;-inkscape-font-specification:'sans-serif Bold';letter-spacing:7.03102636px;word-spacing:0px;fill:#ffffff;fill-opacity:1;stroke:none;stroke-width:1px;stroke-linecap:butt;stroke-linejoin:miter;stroke-opacity:1" id="path4793"/>
    <path d="M 62.375 51.32 L 57.171 51.32 L 57.171 44.106 L 59.031 44.106 L 59.031 49.925 L 62.375 49.925 L 62.375 51.32 Z" style="font-style:normal;font-variant:normal;font-weight:bold;font-stretch:normal;font-size:medium;line-height:125%;font-family:sans-serif;-inkscape-font-specification:'sans-serif Bold';letter-spacing:7.03102636px;word-spacing:0px;fill:#ffffff;fill-opacity:1;stroke:none;stroke-width:1px;stroke-linecap:butt;stroke-linejoin:miter;stroke-opacity:1" id="path4795"/>
    <path d="M 72.259 51.32 L 70.335 51.32 L 69.72 49.863 L 66.06 49.863 L 65.409 51.32 L 63.534 51.32 L 66.826 44.106 L 68.968 44.106 Z M 69.163 48.539 L 67.873 45.953 L 66.593 48.539 Z" style="font-style:normal;font-variant:normal;font-weight:bold;font-stretch:normal;font-size:medium;line-height:125%;font-family:sans-serif;-inkscape-font-specification:'sans-serif Bold';letter-spacing:7.03102636px;word-spacing:0px;fill:#ffffff;fill-opacity:1;stroke:none;stroke-width:1px;stroke-linecap:butt;stroke-linejoin:miter;stroke-opacity:1" id="path4797"/>
    <path d="M 81.368 44.106 L 78.591 48.53 L 78.591 51.32 L 76.731 51.32 L 76.731 48.617 L 73.886 44.106 L 75.999 44.106 L 77.699 46.897 L 79.323 44.106 Z" style="font-style:normal;font-variant:normal;font-weight:bold;font-stretch:normal;font-size:medium;line-height:125%;font-family:sans-serif;-inkscape-font-specification:'sans-serif Bold';letter-spacing:7.03102636px;word-spacing:0px;fill:#ffffff;fill-opacity:1;stroke:none;stroke-width:1px;stroke-linecap:butt;stroke-linejoin:miter;stroke-opacity:1" id="path4799"/>
    <path d="M 94.588 48.922 C 94.588 49.633 94.286 50.211 93.682 50.657 C 93.082 51.099 92.264 51.32 91.23 51.32 C 90.632 51.32 90.111 51.269 89.665 51.165 C 89.223 51.059 88.807 50.925 88.42 50.763 L 89.017 49.37 C 89.251 49.503 89.651 49.65 89.913 49.741 C 90.391 49.906 90.849 49.988 91.288 49.988 C 91.402 49.988 91.55 49.978 91.734 49.959 C 91.919 49.939 92.069 49.908 92.185 49.863 C 92.327 49.804 92.443 49.731 92.534 49.644 C 92.627 49.557 92.674 49.427 92.674 49.257 C 92.674 49.099 92.606 48.963 92.471 48.85 C 92.338 48.734 92.143 48.644 91.885 48.583 C 91.613 48.519 91.325 48.459 91.022 48.403 C 90.722 48.346 90.439 48.273 90.174 48.186 C 89.567 47.989 89.129 47.722 88.861 47.387 C 88.596 47.047 88.464 46.627 88.464 46.126 C 88.464 45.455 88.764 44.907 89.365 44.484 C 89.969 44.057 90.745 43.845 91.69 43.845 C 92.165 43.845 92.634 43.891 93.096 43.985 C 93.561 44.075 93.963 44.19 94.302 44.329 L 93.518 45.618 C 93.367 45.543 93.206 45.472 93.033 45.41 C 92.612 45.251 92.183 45.172 91.744 45.172 C 91.588 45.172 91.433 45.183 91.279 45.206 C 91.127 45.225 90.98 45.264 90.838 45.322 C 90.712 45.371 90.604 45.445 90.513 45.545 C 90.423 45.642 90.377 45.753 90.377 45.879 C 90.377 46.069 90.45 46.217 90.595 46.32 C 90.741 46.42 91.016 46.513 91.419 46.596 C 91.684 46.651 91.938 46.705 92.18 46.756 C 92.426 46.808 92.689 46.879 92.969 46.969 C 93.522 47.15 93.929 47.398 94.191 47.71 C 94.455 48.021 94.588 48.425 94.588 48.922 Z" style="font-style:normal;font-variant:normal;font-weight:bold;font-stretch:normal;font-size:medium;line-height:125%;font-family:sans-serif;-inkscape-font-specification:'sans-serif Bold';letter-spacing:7.03102636px;word-spacing:0px;fill:#ffffff;fill-opacity:1;stroke:none;stroke-width:1px;stroke-linecap:butt;stroke-linejoin:miter;stroke-opacity:1" id="path4801"/>
    <path d="M 120.895 45.501 L 118.643 45.501 L 118.643 51.32 L 116.782 51.32 L 116.782 45.501 L 114.529 45.501 L 114.529 44.106 L 120.895 44.106 L 120.895 45.501 Z" style="font-style:normal;font-variant:normal;font-weight:bold;font-stretch:normal;font-size:medium;line-height:125%;font-family:sans-serif;-inkscape-font-specification:'sans-serif Bold';letter-spacing:7.03102636px;word-spacing:0px;fill:#ffffff;fill-opacity:1;stroke:none;stroke-width:1px;stroke-linecap:butt;stroke-linejoin:miter;stroke-opacity:1" id="path4803"/>
    <path d="M 128.805 51.32 L 123.256 51.32 L 123.256 44.106 L 128.805 44.106 L 128.805 45.501 L 125.107 45.501 L 125.107 46.747 L 128.563 46.747 L 128.563 48.142 L 125.107 48.142 L 125.107 49.925 L 128.805 49.925 Z" style="font-style:normal;font-variant:normal;font-weight:bold;font-stretch:normal;font-size:medium;line-height:125%;font-family:sans-serif;-inkscape-font-specification:'sans-serif Bold';letter-spacing:7.03102636px;word-spacing:0px;fill:#ffffff;fill-opacity:1;stroke:none;stroke-width:1px;stroke-linecap:butt;stroke-linejoin:miter;stroke-opacity:1" id="path4805"/>
    <path d="M 141.214 51.32 L 139.264 51.32 L 139.098 47.843 L 137.084 51.319 L 135.8 51.319 L 133.787 47.843 L 133.621 51.32 L 131.768 51.32 L 132.033 44.106 L 133.846 44.106 L 136.493 49.091 L 139.136 44.106 L 140.949 44.106 Z" style="font-style:normal;font-variant:normal;font-weight:bold;font-stretch:normal;font-size:medium;line-height:125%;font-family:sans-serif;-inkscape-font-specification:'sans-serif Bold';letter-spacing:7.03102636px;word-spacing:0px;fill:#ffffff;fill-opacity:1;stroke:none;stroke-width:1px;stroke-linecap:butt;stroke-linejoin:miter;stroke-opacity:1" id="path4807"/>
    <path id="path4809" style="font-style:normal;font-variant:normal;font-weight:bold;font-stretch:normal;font-size:medium;line-height:125%;font-family:sans-serif;-inkscape-font-specification:'sans-serif Bold';letter-spacing:7.03102636px;word-spacing:0px;fill:#ffffff;fill-opacity:1;stroke:none;stroke-width:1px;stroke-linecap:butt;stroke-linejoin:miter;stroke-opacity:1" d="M 104.196 44.106 L 101.42 48.53 L 101.42 51.32 L 99.558 51.32 L 99.558 48.617 L 96.715 44.106 L 98.828 44.106 L 100.528 46.897 L 102.151 44.106 Z"/>
    <path id="path4811" style="font-style:normal;font-variant:normal;font-weight:bold;font-stretch:normal;font-size:medium;line-height:125%;font-family:sans-serif;-inkscape-font-specification:'sans-serif Bold';letter-spacing:7.03102636px;word-spacing:0px;fill:#ffffff;fill-opacity:1;stroke:none;stroke-width:1px;stroke-linecap:butt;stroke-linejoin:miter;stroke-opacity:1" d="M 112.123 48.922 C 112.123 49.633 111.821 50.211 111.216 50.657 C 110.616 51.099 109.798 51.32 108.765 51.32 C 108.168 51.32 107.646 51.269 107.2 51.165 C 106.757 51.059 106.343 50.925 105.955 50.763 L 106.553 49.37 C 106.787 49.503 107.186 49.65 107.447 49.741 C 107.925 49.906 108.384 49.988 108.823 49.988 C 108.936 49.988 109.085 49.978 109.269 49.959 C 109.453 49.939 109.603 49.908 109.72 49.863 C 109.861 49.804 109.978 49.731 110.068 49.644 C 110.162 49.557 110.209 49.427 110.209 49.257 C 110.209 49.099 110.141 48.963 110.005 48.85 C 109.873 48.734 109.677 48.644 109.419 48.583 C 109.148 48.519 108.86 48.459 108.557 48.403 C 108.256 48.346 107.974 48.273 107.709 48.186 C 107.102 47.989 106.664 47.722 106.396 47.387 C 106.131 47.047 105.998 46.627 105.998 46.126 C 105.998 45.455 106.299 44.907 106.9 44.484 C 107.504 44.057 108.279 43.845 109.225 43.845 C 109.7 43.845 110.169 43.891 110.63 43.985 C 111.095 44.075 111.498 44.19 111.837 44.329 L 111.053 45.618 C 110.902 45.543 110.74 45.472 110.568 45.41 C 110.147 45.251 109.718 45.172 109.278 45.172 C 109.124 45.172 108.969 45.183 108.814 45.206 C 108.662 45.225 108.514 45.264 108.373 45.322 C 108.247 45.371 108.138 45.445 108.048 45.545 C 107.957 45.642 107.912 45.753 107.912 45.879 C 107.912 46.069 107.985 46.217 108.13 46.32 C 108.276 46.42 108.55 46.513 108.954 46.596 C 109.219 46.651 109.473 46.705 109.714 46.756 C 109.96 46.808 110.223 46.879 110.505 46.969 C 111.057 47.15 111.464 47.398 111.725 47.71 C 111.991 48.021 112.123 48.425 112.123 48.922 Z"/>
    <path style="color: rgb(0, 0, 0); clip-rule: nonzero; display: inline; overflow: visible; visibility: visible; opacity: 1; isolation: auto; mix-blend-mode: normal; color-interpolation: sRGB; color-interpolation-filters: linearRGB; fill-opacity: 1; fill-rule: evenodd; stroke: none; stroke-width: 1px; stroke-linecap: butt; stroke-linejoin: miter; stroke-miterlimit: 4; stroke-dasharray: none; stroke-dashoffset: 0; stroke-opacity: 1; color-rendering: auto; image-rendering: auto; shape-rendering: auto; text-rendering: auto; fill: rgb(255, 255, 255);" d="M 147.542 44.124 L 147.542 44.508 L 147.552 44.508 C 147.584 44.508 149.02 44.534 149.02 45.137 L 149.02 50.324 C 149.02 50.672 148.365 50.952 147.552 50.952 L 147.542 50.952 L 147.542 51.336 L 149.485 51.336 L 150.005 51.336 L 151.947 51.336 L 151.947 50.952 L 151.938 50.952 C 151.124 50.952 150.469 50.672 150.469 50.324 L 150.469 45.137 C 150.469 44.534 151.906 44.508 151.938 44.508 L 151.947 44.508 L 151.947 44.124 L 150.005 44.124 L 149.485 44.124 L 147.542 44.124 Z" id="path4783"/>
    <path style="clip-rule: evenodd; fill-opacity: 1; fill-rule: evenodd; fill: rgb(20, 20, 20);" d="M 35.358 8.965 L 25.903 18.953 L 19.657 14.67 C 19.657 14.67 21.712 12.71 19.837 11.282 C 18.376 10.168 14.275 12.53 14.453 17.169 C 14.662 22.52 17.968 25.551 21.62 25.551 C 25.012 25.551 25.903 22.817 25.903 22.817 L 33.502 22.817 L 33.502 29.121 L 44.184 0.937 L 56.405 0.937 L 66.217 26.268 C 66.217 26.268 66.93 27.604 67.643 27.961 C 67.643 27.961 67.684 11.344 67.684 10.877 C 67.684 10.412 67.622 9.898 67.331 9.564 C 66.853 9.013 66.037 8.785 66.037 8.785 L 66.037 0.937 C 66.037 0.937 77.361 0.937 83.161 0.937 C 92.043 0.937 94.321 3.345 96.897 7.984 C 100.452 3.197 105.347 0.044 112.327 0.044 C 119.507 0.044 124.589 2.692 127.491 7.09 C 131.544 2.245 138.067 0 144.036 0 C 151.372 0 157.498 3.555 160.669 9.053 L 160.669 0.937 L 177.167 0.937 L 178.906 5.35 L 180.201 0.937 L 197.236 0.937 L 197.236 8.606 C 197.236 8.606 196.254 8.875 195.983 9.318 C 195.718 9.755 195.765 11.15 195.765 11.15 L 198.141 26.309 C 198.241 26.802 198.416 27.317 198.841 27.694 C 199.334 28.135 200 28.052 200 28.052 L 200 36.79 L 182.876 36.79 L 182.876 30.189 L 173.066 30.189 L 173.066 36.808 L 156.967 36.808 L 156.967 32.506 C 156.967 32.506 151.083 37.681 143.5 37.681 C 133.795 37.681 127.311 30.547 127.311 30.547 L 127.311 36.789 C 127.311 36.789 126.599 36.789 115.897 36.789 C 105.737 36.789 97.016 31.23 94.58 21.092 C 93.425 22.197 88.333 25.832 82.226 27.201 C 81.751 27.308 81.514 27.486 81.514 28.001 C 81.514 28.94 83.521 29.275 83.521 29.275 L 83.521 36.788 C 83.521 36.788 30.721 36.788 20.912 36.788 C 9.315 36.79 0 28.853 0 18.775 C 0 8.696 7.263 0.133 19.303 0.133 C 30.809 0.133 35.359 8.965 35.359 8.965 L 35.359 8.965 Z" id="path4815"/>
    <path style="clip-rule: evenodd; fill-opacity: 1; fill-rule: evenodd; fill: rgb(255, 255, 255);" d="M 30.852 9.121 L 25.815 14.403 C 25.815 14.403 25.548 14.538 25.325 14.538 C 25.102 14.538 24.788 14.313 24.788 14.313 L 24.165 13.781 C 24.165 13.781 23.985 13.737 23.985 13.557 C 23.985 13.381 24.477 12.932 24.477 12.085 C 24.477 11.237 24.299 7.714 18.859 7.714 C 13.419 7.714 11.01 12.798 11.01 16.991 C 11.01 21.183 13.595 28.853 22.071 28.853 C 27 28.853 28.044 26.085 28.044 26.085 L 29.738 26.085 L 29.738 33.312 L 20.463 33.312 C 9.405 33.312 3.249 24.658 3.249 18.416 C 3.249 8.844 11.573 3.532 19.126 3.532 C 26.439 3.533 30.852 9.121 30.852 9.121 L 30.852 9.121 Z" id="path4817"/>
    <path style="clip-rule: evenodd; fill-opacity: 1; fill-rule: evenodd; fill: rgb(255, 255, 255);" d="M 46.463 4.327 L 54.088 4.327 L 63.365 28.586 C 63.63 29.253 64.076 29.881 64.522 30.414 C 64.966 30.949 66.037 31.308 66.037 31.308 L 66.037 33.401 L 54.847 33.401 L 54.847 31.261 C 54.847 31.261 55.559 31.352 55.917 30.727 C 56.273 30.102 56.273 29.612 56.007 28.989 C 55.739 28.363 53.862 23.414 53.862 23.414 L 44.722 23.414 C 44.722 23.414 42.851 28.408 42.67 28.853 C 42.491 29.299 42.491 30.014 42.67 30.458 C 42.967 31.2 44.009 31.309 44.009 31.309 L 44.009 33.402 L 35.044 33.402 L 35.044 31.309 C 35.044 31.309 35.86 31.028 36.471 30.415 C 37.14 29.746 37.362 29.031 37.362 29.031 L 46.463 4.327 L 46.463 4.327 Z M 46.238 18.864 L 52.126 18.864 L 49.094 10.392 L 46.238 18.864 L 46.238 18.864 Z" id="path4819"/>
    <path style="clip-rule: evenodd; fill-opacity: 1; fill-rule: evenodd; fill: rgb(255, 255, 255);" d="M 69.605 4.327 C 69.605 4.327 78.613 4.327 83.876 4.327 C 89.138 4.327 94.399 6.198 94.399 12.262 C 94.399 18.328 90.564 20.469 87.265 21.986 C 83.456 23.736 78.436 25.109 78.436 25.109 L 78.436 29.745 C 78.436 29.745 78.481 30.058 78.925 30.589 C 79.373 31.125 79.863 31.26 79.863 31.26 L 79.863 33.4 L 69.517 33.4 L 69.517 31.307 C 69.517 31.307 70.14 31.171 70.589 30.726 C 71.033 30.28 71.124 29.745 71.124 29.745 L 71.124 8.785 C 71.124 8.785 71.165 7.893 70.811 7.538 C 70.454 7.178 69.606 6.689 69.606 6.689 L 69.606 4.327 L 69.605 4.327 L 69.605 4.327 Z M 78.524 8.696 L 78.524 21.093 C 78.524 21.093 86.907 17.616 86.907 12.71 C 86.907 6.645 78.524 8.696 78.524 8.696 L 78.524 8.696 Z" id="path4821"/>
    <path style="clip-rule: evenodd; fill-opacity: 1; fill-rule: evenodd; fill: rgb(255, 255, 255);" d="M 125.305 9.172 L 120.266 14.454 C 120.266 14.454 119.998 14.588 119.774 14.588 C 119.553 14.588 119.241 14.365 119.241 14.365 L 118.615 13.828 C 118.615 13.828 118.437 13.786 118.437 13.609 C 118.437 13.429 118.926 12.981 118.926 12.137 C 118.926 11.288 118.75 7.765 113.308 7.765 C 107.867 7.765 105.459 12.848 105.459 17.041 C 105.459 21.23 108.046 28.902 116.521 28.902 C 121.45 28.902 122.495 26.136 122.495 26.136 L 124.191 26.136 L 124.191 33.361 L 114.912 33.361 C 103.855 33.361 97.699 24.71 97.699 18.467 C 97.699 8.896 106.021 3.582 113.575 3.582 C 120.889 3.582 125.305 9.172 125.305 9.172 L 125.305 9.172 Z" id="path4823"/>
    <path style="clip-rule: evenodd; fill-opacity: 1; fill-rule: evenodd; fill: rgb(255, 255, 255);" d="M 143.366 34.238 C 133.732 34.238 126.808 27.203 126.808 18.643 C 126.808 10.077 133.911 3.443 143.366 3.443 C 152.817 3.443 159.921 10.077 159.921 18.643 C 159.921 27.202 152.996 34.238 143.366 34.238 L 143.366 34.238 Z M 134.802 18.775 C 134.802 27.337 139.172 29.478 143.366 29.478 C 147.555 29.478 152.017 26.802 152.017 18.775 C 152.017 10.749 147.022 8.072 143.366 8.072 C 139.709 8.072 134.802 10.211 134.802 18.775 L 134.802 18.775 Z" id="path4825"/>
    <path style="clip-rule: evenodd; fill-opacity: 1; fill-rule: evenodd; fill: rgb(255, 255, 255);" d="M 164.234 4.345 L 174.849 4.345 L 178.684 16.189 L 182.785 4.327 L 193.887 4.327 L 193.887 6.064 C 193.887 6.064 193.149 6.377 192.821 6.779 C 192.419 7.27 192.419 7.626 192.508 8.341 C 192.597 9.053 195.45 28.408 195.54 29.122 C 195.631 29.836 195.718 30.237 195.896 30.728 C 196.073 31.214 196.923 31.618 196.923 31.618 L 196.923 33.417 L 186.263 33.417 L 186.263 31.485 C 186.263 31.485 187.2 31.352 187.514 30.904 C 187.826 30.457 187.958 30.189 187.87 29.478 C 187.78 28.764 185.24 12.532 185.24 12.532 L 180.602 26.891 L 174.983 26.891 L 170.388 13.421 L 168.07 29.298 C 168.07 29.298 167.98 30.251 168.338 30.771 C 168.828 31.485 169.723 31.485 169.723 31.485 L 169.723 33.401 L 160.488 33.401 L 160.488 31.352 C 160.488 31.352 161.223 31.239 161.758 30.614 C 162.292 29.991 162.383 29.186 162.383 29.186 L 165.751 8.25 C 165.751 8.25 165.954 7.468 165.729 7.113 C 165.494 6.737 164.234 6.422 164.234 6.422 L 164.234 4.345 L 164.234 4.345 Z" id="path4827"/>
  </g>
</svg>