<?xml version="1.0" encoding="utf-8"?>
<svg version="1.1" id="Layer_4" x="0px" y="0px" enable-background="new 0 0 598.189 350.26" preserveAspectRatio="none" xmlns="http://www.w3.org/2000/svg">
  <path d="M 365.304 241.574 C 364.792 241.574 364.379 241.16 364.379 240.649 L 364.379 240.649 L 364.379 230.136 C 364.379 229.624 364.793 229.21 365.304 229.21 L 365.304 229.21 L 375.817 229.21 C 376.328 229.21 376.742 229.624 376.742 230.136 L 376.742 230.136 L 376.742 240.648 C 376.742 241.16 376.328 241.573 375.817 241.573 L 375.817 241.573 L 365.304 241.573 L 365.304 241.574 Z M 365.301 230.136 L 365.301 240.648 L 365.304 240.651 L 375.816 240.651 L 375.819 240.648 L 375.818 240.648 L 375.819 230.136 L 375.816 230.133 L 365.304 230.133 L 365.301 230.136 L 365.301 230.136 Z" style="fill: rgb(30, 30, 30);" transform="matrix(0.965926, -0.258819, 0.258819, 0.965926, -48.297381, 103.928883)"/>
  <path d="M 377.685 238.257 C 377.174 238.257 376.76 237.843 376.759 237.331 L 376.759 237.331 L 376.759 226.818 C 376.76 226.307 377.173 225.893 377.685 225.893 L 377.685 225.893 L 388.198 225.893 C 388.709 225.894 389.123 226.307 389.124 226.818 L 389.124 226.818 L 389.124 237.331 C 389.124 237.843 388.71 238.256 388.198 238.256 L 388.198 238.256 L 377.685 238.256 L 377.685 238.257 Z M 377.683 226.818 L 377.683 237.331 L 377.685 237.334 L 388.198 237.334 L 388.201 237.331 L 388.2 237.331 L 388.201 226.818 L 388.198 226.815 L 377.685 226.815 L 377.683 226.818 L 377.683 226.818 Z" style="fill: rgb(30, 30, 30);" transform="matrix(0.965926, -0.258819, 0.258819, 0.965926, -47.017016, 107.020302)"/>
  <path d="M 390.066 234.939 C 389.555 234.939 389.141 234.525 389.141 234.013 L 389.141 234.013 L 389.141 223.501 C 389.141 222.989 389.555 222.575 390.066 222.575 L 390.066 222.575 L 400.58 222.575 C 401.09 222.575 401.504 222.989 401.505 223.501 L 401.505 223.501 L 401.505 234.013 L 401.504 234.013 C 401.504 234.525 401.091 234.938 400.58 234.938 L 400.58 234.938 L 390.066 234.938 L 390.066 234.939 Z M 390.065 223.501 L 390.064 234.013 L 390.066 234.016 L 400.58 234.016 L 400.581 234.013 L 400.581 223.501 L 400.58 223.498 L 390.066 223.498 C 390.066 223.498 390.064 223.501 390.065 223.501 L 390.065 223.501 Z" style="fill: rgb(30, 30, 30);" transform="matrix(0.965926, -0.258819, 0.258819, 0.965926, -45.736356, 110.111809)"/>
  <path d="M 402.449 231.621 C 401.937 231.621 401.523 231.208 401.523 230.696 L 401.523 230.696 L 401.523 220.183 C 401.523 219.672 401.937 219.258 402.449 219.258 L 402.449 219.258 L 412.961 219.258 C 413.472 219.258 413.886 219.672 413.886 220.183 L 413.886 220.183 L 413.886 230.696 C 413.886 231.207 413.473 231.621 412.961 231.621 L 412.961 231.621 L 402.449 231.621 L 402.449 231.621 Z M 402.445 220.183 L 402.445 230.696 L 402.448 230.699 L 412.961 230.699 L 412.963 230.696 L 412.962 230.696 L 412.963 220.183 L 412.961 220.18 L 402.448 220.18 L 402.445 220.183 L 402.445 220.183 Z" style="fill: rgb(30, 30, 30);" transform="matrix(0.965926, -0.258819, 0.258819, 0.965926, -44.455836, 113.203335)"/>
  <path d="M 414.83 228.304 C 414.318 228.304 413.904 227.89 413.903 227.378 L 413.903 227.378 L 413.903 216.865 C 413.903 216.354 414.318 215.94 414.83 215.94 L 414.83 215.94 L 425.342 215.94 C 425.854 215.94 426.268 216.354 426.268 216.865 L 426.268 216.865 L 426.268 227.378 C 426.267 227.89 425.854 228.303 425.342 228.303 L 425.342 228.303 L 414.83 228.303 L 414.83 228.304 Z M 414.827 216.865 L 414.827 227.378 L 414.83 227.381 L 425.342 227.381 L 425.344 227.378 L 425.344 216.865 L 425.342 216.862 L 414.83 216.862 L 414.827 216.865 L 414.827 216.865 Z" style="fill: rgb(30, 30, 30);" transform="matrix(0.965926, -0.258819, 0.258819, 0.965926, -43.175332, 116.294736)"/>
  <path d="M 427.21 224.986 C 426.699 224.986 426.286 224.573 426.285 224.061 L 426.285 224.061 L 426.285 213.548 C 426.285 213.037 426.699 212.623 427.21 212.623 L 427.21 212.623 L 437.723 212.623 C 438.234 212.624 438.648 213.037 438.649 213.548 L 438.649 213.548 L 438.649 224.06 C 438.649 224.572 438.235 224.986 437.723 224.986 L 437.723 224.986 L 427.21 224.986 L 427.21 224.986 Z M 427.209 213.548 L 427.209 224.06 L 427.21 224.063 L 437.723 224.063 L 437.726 224.06 L 437.726 213.548 L 437.723 213.545 L 427.21 213.545 L 427.209 213.548 L 427.209 213.548 Z" style="fill: rgb(30, 30, 30);" transform="matrix(0.965926, -0.258819, 0.258819, 0.965926, -41.894813, 119.386254)"/>
  <path d="M 439.593 221.668 C 439.081 221.668 438.667 221.255 438.667 220.743 L 438.667 220.743 L 438.667 210.23 C 438.667 209.719 439.081 209.305 439.593 209.305 L 439.593 209.305 L 450.106 209.305 C 450.617 209.305 451.031 209.719 451.031 210.23 L 451.031 210.23 L 451.03 220.743 C 451.029 221.255 450.617 221.668 450.106 221.668 L 450.106 221.668 L 439.593 221.668 L 439.593 221.668 Z M 450.106 220.746 L 450.108 220.743 L 450.108 210.23 L 450.106 210.228 L 439.592 210.228 L 439.589 210.23 L 439.589 220.743 C 439.589 220.743 439.592 220.746 439.592 220.745 L 439.592 220.745 L 450.106 220.746 L 450.106 220.746 Z" style="fill: rgb(30, 30, 30);" transform="matrix(0.965926, -0.258819, 0.258819, 0.965926, -40.614142, 122.477901)"/>
  <path d="M 451.974 218.351 C 451.462 218.351 451.048 217.936 451.048 217.426 L 451.048 217.426 L 451.048 206.913 C 451.048 206.402 451.463 205.988 451.974 205.988 L 451.974 205.988 L 462.487 205.988 C 462.998 205.988 463.411 206.402 463.411 206.913 L 463.411 206.913 L 463.411 217.426 C 463.411 217.936 462.998 218.351 462.487 218.351 L 462.487 218.351 L 451.974 218.351 L 451.974 218.351 Z M 451.971 206.913 L 451.971 217.426 L 451.974 217.428 L 462.487 217.428 L 462.489 217.426 L 462.489 206.913 L 462.487 206.91 L 451.974 206.91 L 451.971 206.913 L 451.971 206.913 Z" style="fill: rgb(30, 30, 30);" transform="matrix(0.965926, -0.258819, 0.258819, 0.965926, -39.333787, 125.569188)"/>
  <path d="M 464.355 215.033 C 463.844 215.033 463.429 214.62 463.428 214.108 L 463.428 214.108 L 463.429 203.595 C 463.429 203.084 463.844 202.67 464.355 202.67 L 464.355 202.67 L 474.868 202.67 C 475.379 202.671 475.792 203.084 475.793 203.595 L 475.793 203.595 L 475.793 214.108 C 475.792 214.619 475.379 215.033 474.868 215.033 L 474.868 215.033 L 464.355 215.033 L 464.355 215.033 Z M 464.353 203.595 L 464.353 214.108 L 464.355 214.11 L 474.868 214.11 L 474.871 214.108 L 474.871 203.595 L 474.868 203.592 L 464.355 203.592 L 464.353 203.595 L 464.353 203.595 Z" style="fill: rgb(30, 30, 30);" transform="matrix(0.965926, -0.258819, 0.258819, 0.965926, -38.053166, 128.660637)"/>
  <path d="M 476.736 211.716 C 476.225 211.716 475.811 211.302 475.811 210.791 L 475.811 210.791 L 475.811 200.277 C 475.811 199.766 476.225 199.352 476.736 199.352 L 476.736 199.352 L 487.249 199.352 C 487.76 199.352 488.175 199.766 488.175 200.277 L 488.175 200.277 L 488.175 210.79 L 488.175 210.79 C 488.175 211.302 487.761 211.715 487.249 211.715 L 487.249 211.715 L 476.736 211.715 L 476.736 211.716 Z M 476.734 200.277 L 476.733 210.79 L 476.736 210.792 L 487.249 210.792 L 487.252 210.79 L 487.251 210.79 L 487.252 200.277 C 487.252 200.277 487.249 200.275 487.249 200.276 L 487.249 200.276 L 476.736 200.275 C 476.736 200.275 476.733 200.277 476.734 200.277 L 476.734 200.277 Z" style="fill: rgb(30, 30, 30);" transform="matrix(0.965926, -0.258819, 0.258819, 0.965926, -36.772567, 131.752119)"/>
  <path d="M 489.119 208.397 C 488.607 208.397 488.192 207.984 488.192 207.472 L 488.192 207.472 L 488.192 196.96 C 488.192 196.448 488.607 196.035 489.119 196.034 L 489.119 196.034 L 499.631 196.035 C 500.142 196.035 500.555 196.448 500.557 196.96 L 500.557 196.96 L 500.557 207.473 L 500.556 207.473 C 500.556 207.984 500.142 208.398 499.631 208.399 L 499.631 208.399 L 489.119 208.397 L 489.119 208.397 Z M 489.116 196.96 L 489.115 207.473 L 489.119 207.475 L 499.631 207.475 L 499.633 207.473 L 499.633 196.96 L 499.631 196.957 L 489.119 196.957 C 489.119 196.957 489.115 196.96 489.116 196.96 L 489.116 196.96 Z" style="fill: rgb(30, 30, 30);" transform="matrix(0.965926, -0.258819, 0.258819, 0.965926, -35.492071, 134.843869)"/>
  <path d="M 501.5 205.081 C 500.987 205.081 500.574 204.667 500.573 204.155 L 500.573 204.155 L 500.574 193.643 C 500.575 193.131 500.987 192.718 501.5 192.717 L 501.5 192.717 L 512.012 192.718 C 512.523 192.718 512.937 193.131 512.938 193.643 L 512.938 193.643 L 512.938 204.155 L 512.937 204.155 C 512.937 204.667 512.523 205.081 512.012 205.081 L 512.012 205.081 L 501.5 205.081 L 501.5 205.081 Z M 501.496 193.643 L 501.496 204.155 L 501.5 204.158 L 512.012 204.158 L 512.015 204.155 L 512.015 193.643 L 512.012 193.64 L 501.5 193.64 L 501.496 193.643 L 501.496 193.643 Z" style="fill: rgb(30, 30, 30);" transform="matrix(0.965926, -0.258819, 0.258819, 0.965926, -34.211567, 137.935271)"/>
  <path d="M 387.494 248.872 C 386.982 248.872 386.567 248.458 386.567 247.946 L 386.567 247.946 L 386.567 237.433 C 386.567 236.923 386.982 236.508 387.494 236.508 L 387.494 236.508 L 398.007 236.508 C 398.518 236.508 398.932 236.922 398.932 237.433 L 398.932 237.433 L 398.932 247.946 C 398.932 248.458 398.518 248.872 398.007 248.872 L 398.007 248.872 L 387.494 248.872 L 387.494 248.872 Z M 387.491 237.433 L 387.491 247.945 L 387.494 247.948 L 398.007 247.948 L 398.009 247.945 L 398.009 237.433 C 398.009 237.433 398.007 237.43 398.007 237.431 L 398.007 237.431 L 387.494 237.43 L 387.491 237.433 L 387.491 237.433 Z" style="fill: rgb(30, 30, 30);" transform="matrix(0.965926, -0.258819, 0.258819, 0.965926, -49.430171, 109.920499)"/>
  <path d="M 399.874 245.554 C 399.364 245.554 398.949 245.141 398.949 244.628 L 398.949 244.628 L 398.949 234.116 C 398.949 233.605 399.363 233.19 399.874 233.19 L 399.874 233.19 L 410.388 233.19 C 410.899 233.191 411.313 233.605 411.314 234.116 L 411.314 234.116 L 411.314 244.628 C 411.313 245.141 410.899 245.553 410.388 245.554 L 410.388 245.554 L 399.874 245.554 L 399.874 245.554 Z M 399.872 234.115 L 399.872 244.628 L 399.874 244.631 L 410.388 244.631 L 410.391 244.628 L 410.39 244.628 L 410.391 234.115 C 410.391 234.115 410.388 234.113 410.388 234.114 L 410.388 234.114 L 399.874 234.113 L 399.872 234.115 L 399.872 234.115 Z" style="fill: rgb(30, 30, 30);" transform="matrix(0.965926, -0.258819, 0.258819, 0.965926, -48.14951, 113.012132)"/>
  <path d="M 412.256 242.236 C 411.746 242.236 411.331 241.823 411.331 241.311 L 411.331 241.311 L 411.331 230.798 C 411.331 230.287 411.746 229.872 412.256 229.872 L 412.256 229.872 L 422.769 229.872 C 423.28 229.872 423.695 230.287 423.695 230.798 L 423.695 230.798 L 423.695 241.311 C 423.695 241.823 423.28 242.236 422.769 242.236 L 422.769 242.236 L 412.256 242.236 L 412.256 242.236 Z M 412.254 230.798 L 412.254 241.31 L 412.257 241.313 L 422.77 241.313 L 422.772 241.31 L 422.772 230.798 C 422.772 230.798 422.77 230.795 422.77 230.796 L 422.77 230.796 L 412.257 230.795 L 412.254 230.798 L 412.254 230.798 Z" style="fill: rgb(30, 30, 30);" transform="matrix(0.965926, -0.258819, 0.258819, 0.965926, -46.86885, 116.103639)"/>
  <path d="M 424.638 238.919 C 424.127 238.919 423.713 238.505 423.712 237.993 L 423.712 237.993 L 423.713 227.481 C 423.713 226.97 424.126 226.555 424.638 226.555 L 424.638 226.555 L 435.151 226.555 C 435.662 226.555 436.076 226.969 436.076 227.481 L 436.076 227.481 L 436.076 237.993 C 436.076 238.505 435.663 238.919 435.151 238.919 L 435.151 238.919 L 424.638 238.919 L 424.638 238.919 Z M 424.635 227.48 L 424.635 237.993 L 424.637 237.996 L 435.151 237.996 L 435.153 237.993 L 435.153 227.48 C 435.153 227.48 435.151 227.477 435.151 227.478 L 435.151 227.478 L 424.637 227.477 L 424.635 227.48 L 424.635 227.48 Z" style="fill: rgb(30, 30, 30);" transform="matrix(0.965926, -0.258819, 0.258819, 0.965926, -45.588479, 119.19505)"/>
  <path d="M 437.019 235.601 C 436.509 235.601 436.094 235.188 436.094 234.675 L 436.094 234.675 L 436.094 224.163 C 436.094 223.652 436.509 223.237 437.019 223.237 L 437.019 223.237 L 447.532 223.237 C 448.043 223.237 448.458 223.652 448.458 224.163 L 448.458 224.163 L 448.458 234.675 C 448.458 235.188 448.044 235.601 447.532 235.601 L 447.532 235.601 L 437.019 235.601 L 437.019 235.601 Z M 437.016 224.162 L 437.016 234.675 L 437.019 234.678 L 447.532 234.678 L 447.535 234.675 L 447.535 224.162 C 447.535 224.162 447.532 224.16 447.532 224.161 L 447.532 224.161 L 437.019 224.16 L 437.016 224.162 L 437.016 224.162 Z" style="fill: rgb(30, 30, 30);" transform="matrix(0.965926, -0.258819, 0.258819, 0.965926, -44.307817, 122.286698)"/>
  <path d="M 449.4 232.283 C 448.889 232.283 448.475 231.87 448.475 231.358 L 448.475 231.358 L 448.475 220.845 C 448.475 220.334 448.889 219.92 449.4 219.919 L 449.4 219.919 L 459.913 219.92 C 460.424 219.92 460.838 220.333 460.839 220.845 L 460.839 220.845 L 460.839 231.358 L 460.838 231.358 C 460.838 231.869 460.425 232.283 459.913 232.284 L 459.913 232.284 L 449.4 232.283 L 449.4 232.283 Z M 449.398 220.845 L 449.398 231.358 L 449.4 231.36 L 459.913 231.36 L 459.916 231.358 L 459.915 231.358 L 459.916 220.845 C 459.916 220.845 459.913 220.842 459.913 220.843 L 459.913 220.843 L 449.4 220.842 L 449.398 220.845 L 449.398 220.845 Z" style="fill: rgb(30, 30, 30);" transform="matrix(0.965926, -0.258819, 0.258819, 0.965926, -43.027307, 125.378083)"/>
  <path d="M 461.782 228.966 C 461.271 228.966 460.857 228.552 460.857 228.04 L 460.857 228.04 L 460.857 217.527 C 460.857 217.016 461.271 216.602 461.782 216.602 L 461.782 216.602 L 472.295 216.602 C 472.807 216.602 473.22 217.016 473.221 217.527 L 473.221 217.527 L 473.221 228.04 L 473.22 228.04 C 473.22 228.551 472.806 228.966 472.295 228.966 L 472.295 228.966 L 461.782 228.966 L 461.782 228.966 Z M 472.295 228.043 L 472.298 228.04 L 472.298 217.527 C 472.298 217.527 472.295 217.524 472.295 217.525 L 472.295 217.525 L 461.782 217.524 L 461.78 217.527 L 461.78 228.04 C 461.78 228.04 461.782 228.043 461.782 228.042 L 461.782 228.042 L 472.295 228.043 L 472.295 228.043 Z" style="fill: rgb(30, 30, 30);" transform="matrix(0.965926, -0.258819, 0.258819, 0.965926, -41.746768, 128.469748)"/>
  <path d="M 474.164 225.649 C 473.652 225.649 473.239 225.235 473.238 224.723 L 473.238 224.723 L 473.239 214.21 C 473.239 213.699 473.652 213.285 474.164 213.285 L 474.164 213.285 L 484.676 213.285 C 485.187 213.286 485.601 213.699 485.602 214.21 L 485.602 214.21 L 485.602 224.723 L 485.601 224.723 C 485.601 225.235 485.188 225.648 484.676 225.649 L 484.676 225.649 L 474.164 225.649 L 474.164 225.649 Z M 474.161 214.209 L 474.161 224.723 L 474.164 224.725 L 484.676 224.725 L 484.678 224.723 L 484.678 214.209 L 484.676 214.208 L 474.164 214.208 L 474.161 214.209 L 474.161 214.209 Z" style="fill: rgb(30, 30, 30);" transform="matrix(0.965926, -0.258819, 0.258819, 0.965926, -40.466384, 131.561068)"/>
  <path d="M 486.545 222.33 C 486.034 222.33 485.619 221.917 485.618 221.405 L 485.618 221.405 L 485.619 210.892 C 485.619 210.381 486.033 209.966 486.545 209.966 L 486.545 209.966 L 497.058 209.966 C 497.568 209.966 497.983 210.38 497.984 210.892 L 497.984 210.892 L 497.984 221.405 L 497.983 221.405 C 497.983 221.917 497.569 222.33 497.058 222.331 L 497.058 222.331 L 486.545 222.33 L 486.545 222.33 Z M 497.058 221.408 L 497.061 221.405 L 497.061 210.893 L 497.058 210.89 L 486.545 210.89 C 486.545 210.89 486.542 210.893 486.543 210.893 L 486.543 210.893 L 486.542 221.405 C 486.542 221.405 486.545 221.408 486.545 221.407 L 486.545 221.407 L 497.058 221.408 L 497.058 221.408 Z" style="fill: rgb(30, 30, 30);" transform="matrix(0.965926, -0.258819, 0.258819, 0.965926, -39.185629, 134.652533)"/>
  <path d="M 498.926 219.013 C 498.415 219.013 498.001 218.6 498.001 218.088 L 498.001 218.088 L 498.001 207.576 C 498.001 207.064 498.415 206.65 498.926 206.65 L 498.926 206.65 L 509.439 206.65 C 509.951 206.65 510.364 207.064 510.365 207.576 L 510.365 207.576 L 510.365 218.088 L 510.364 218.088 C 510.364 218.6 509.951 219.013 509.439 219.013 L 509.439 219.013 L 498.926 219.013 L 498.926 219.013 Z M 498.924 207.575 L 498.924 218.087 L 498.926 218.089 L 509.439 218.089 L 509.442 218.087 L 509.441 218.087 L 509.442 207.575 L 509.439 207.572 L 498.926 207.572 L 498.924 207.575 L 498.924 207.575 Z" style="fill: rgb(30, 30, 30);" transform="matrix(0.965926, -0.258819, 0.258819, 0.965926, -37.905224, 137.744199)"/>
  <path d="M 511.308 215.696 C 510.796 215.695 510.383 215.281 510.381 214.77 L 510.381 214.77 L 510.382 204.257 C 510.383 203.746 510.796 203.333 511.308 203.331 L 511.308 203.331 L 521.82 203.332 C 522.331 203.333 522.744 203.746 522.746 204.257 L 522.746 204.257 L 522.746 214.77 L 522.745 214.77 C 522.744 215.281 522.331 215.695 521.82 215.697 L 521.82 215.697 L 511.308 215.696 L 511.308 215.696 Z M 511.305 204.257 L 511.305 214.77 L 511.308 214.773 L 521.82 214.773 L 521.823 214.77 L 521.822 214.77 L 521.823 204.257 L 521.82 204.254 L 511.308 204.254 C 511.308 204.254 511.305 204.257 511.305 204.257 L 511.305 204.257 Z" style="fill: rgb(30, 30, 30);" transform="matrix(0.965926, -0.258819, 0.258819, 0.965926, -36.624738, 140.835461)"/>
  <path d="M 523.689 212.378 C 523.178 212.378 522.763 211.964 522.762 211.453 L 522.762 211.453 L 522.763 200.94 C 522.763 200.428 523.178 200.015 523.689 200.015 L 523.689 200.015 L 534.202 200.015 C 534.713 200.015 535.127 200.428 535.129 200.94 L 535.129 200.94 L 535.129 211.453 L 535.127 211.453 C 535.127 211.964 534.713 212.378 534.202 212.379 L 534.202 212.379 L 523.689 212.378 L 523.689 212.378 Z M 523.686 200.939 L 523.686 211.452 L 523.689 211.454 L 534.202 211.454 L 534.205 211.452 L 534.205 200.939 L 534.202 200.937 L 523.689 200.937 L 523.686 200.939 L 523.686 200.939 Z" style="fill: rgb(30, 30, 30);" transform="matrix(0.965926, -0.258819, 0.258819, 0.965926, -35.344321, 143.927158)"/>
  <path d="M 393.874 260.405 C 393.364 260.405 392.949 259.991 392.948 259.48 L 392.948 259.48 L 392.949 248.966 C 392.949 248.456 393.364 248.042 393.874 248.042 L 393.874 248.042 L 404.388 248.041 C 404.899 248.041 405.313 248.456 405.313 248.966 L 405.313 248.966 L 405.313 259.48 C 405.313 259.991 404.899 260.405 404.388 260.405 L 404.388 260.405 L 393.874 260.405 L 393.874 260.405 Z M 404.388 259.482 L 404.39 259.48 L 404.39 248.966 C 404.39 248.966 404.388 248.963 404.388 248.964 L 404.388 248.964 L 393.874 248.963 L 393.871 248.966 L 393.871 259.48 C 393.871 259.48 393.874 259.482 393.874 259.481 L 393.874 259.481 L 404.388 259.482 L 404.388 259.482 Z" style="fill: rgb(30, 30, 30);" transform="matrix(0.965926, -0.258818, 0.258818, 0.965926, -52.197618, 111.964723)"/>
  <path d="M 406.255 257.087 C 405.745 257.087 405.331 256.673 405.331 256.162 L 405.331 256.162 L 405.331 245.648 C 405.331 245.138 405.745 244.724 406.255 244.724 L 406.255 244.724 L 416.769 244.724 C 417.28 244.724 417.695 245.138 417.695 245.648 L 417.695 245.648 L 417.695 256.162 C 417.695 256.673 417.28 257.087 416.769 257.087 L 416.769 257.087 L 406.255 257.087 L 406.255 257.087 Z M 416.768 256.164 L 416.771 256.162 L 416.771 245.648 C 416.771 245.648 416.768 245.646 416.768 245.647 L 416.768 245.647 L 406.255 245.646 L 406.253 245.648 L 406.253 256.162 C 406.253 256.162 406.255 256.164 406.255 256.163 L 406.255 256.163 L 416.768 256.164 L 416.768 256.164 Z" style="fill: rgb(30, 30, 30);" transform="matrix(0.965926, -0.258819, 0.258819, 0.965926, -50.917148, 115.05678)"/>
  <path d="M 418.637 253.77 C 418.125 253.77 417.712 253.356 417.711 252.845 L 417.711 252.845 L 417.712 242.331 C 417.712 241.82 418.125 241.406 418.636 241.406 L 418.636 241.406 L 429.15 241.406 C 429.661 241.406 430.075 241.82 430.075 242.331 L 430.075 242.331 L 430.075 252.845 C 430.075 253.356 429.661 253.77 429.15 253.77 L 429.15 253.77 L 418.637 253.77 L 418.637 253.77 Z M 429.15 252.847 L 429.152 252.845 L 429.152 242.331 C 429.152 242.331 429.15 242.328 429.15 242.329 L 429.15 242.329 L 418.637 242.328 C 418.637 242.328 418.634 242.331 418.635 242.331 L 418.635 242.331 L 418.634 252.845 C 418.634 252.845 418.637 252.847 418.637 252.846 L 418.637 252.846 L 429.15 252.847 L 429.15 252.847 Z" style="fill: rgb(30, 30, 30);" transform="matrix(0.965926, -0.258819, 0.258819, 0.965926, -49.636686, 118.147919)"/>
  <path d="M 431.019 250.452 C 430.507 250.452 430.093 250.038 430.093 249.527 L 430.093 249.527 L 430.093 239.013 C 430.093 238.503 430.507 238.088 431.019 238.088 L 431.019 238.088 L 441.533 238.088 C 442.044 238.088 442.457 238.503 442.458 239.013 L 442.458 239.013 L 442.458 249.527 L 442.457 249.527 C 442.457 250.038 442.044 250.452 441.533 250.452 L 441.533 250.452 L 431.019 250.452 L 431.019 250.452 Z M 441.533 249.529 L 441.535 249.527 L 441.534 249.527 L 441.535 239.013 C 441.535 239.013 441.533 239.01 441.533 239.011 L 441.533 239.011 L 431.019 239.01 L 431.016 239.013 L 431.016 249.527 C 431.016 249.527 431.019 249.529 431.019 249.528 L 431.019 249.528 L 441.533 249.529 L 441.533 249.529 Z" style="fill: rgb(30, 30, 30);" transform="matrix(0.965926, -0.258819, 0.258819, 0.965926, -48.355992, 121.23969)"/>
  <path d="M 443.4 247.135 C 442.889 247.135 442.475 246.721 442.474 246.21 L 442.474 246.21 L 442.475 235.696 C 442.475 235.185 442.889 234.771 443.4 234.771 L 443.4 234.771 L 453.913 234.771 C 454.425 234.771 454.839 235.185 454.839 235.696 L 454.839 235.696 L 454.839 246.21 C 454.839 246.721 454.425 247.135 453.913 247.135 L 453.913 247.135 L 443.4 247.135 L 443.4 247.135 Z M 453.913 246.212 L 453.915 246.209 L 453.915 235.695 C 453.915 235.695 453.913 235.693 453.913 235.694 L 453.913 235.694 L 443.4 235.693 L 443.397 235.695 L 443.397 246.209 C 443.397 246.209 443.4 246.212 443.4 246.211 L 443.4 246.211 L 453.913 246.212 L 453.913 246.212 Z" style="fill: rgb(30, 30, 30);" transform="matrix(0.965926, -0.258819, 0.258819, 0.965926, -47.075621, 124.3311)"/>
  <path d="M 455.78 243.817 C 455.27 243.817 454.856 243.403 454.856 242.892 L 454.856 242.892 L 454.856 232.378 C 454.856 231.867 455.27 231.453 455.78 231.453 L 455.78 231.453 L 466.294 231.453 C 466.805 231.453 467.22 231.867 467.22 232.378 L 467.22 232.378 L 467.22 242.892 C 467.22 243.403 466.805 243.817 466.294 243.817 L 466.294 243.817 L 455.78 243.817 L 455.78 243.817 Z M 466.294 242.894 L 466.297 242.892 L 466.297 232.378 C 466.297 232.378 466.294 232.375 466.294 232.376 L 466.294 232.376 L 455.78 232.375 L 455.779 232.378 L 455.779 242.892 C 455.779 242.892 455.78 242.894 455.78 242.893 L 455.78 242.893 L 466.294 242.894 L 466.294 242.894 Z" style="fill: rgb(30, 30, 30);" transform="matrix(0.965926, -0.258819, 0.258819, 0.965926, -45.794928, 127.422389)"/>
  <path d="M 468.163 240.499 C 467.651 240.499 467.237 240.085 467.237 239.574 L 467.237 239.574 L 467.237 229.061 C 467.237 228.55 467.651 228.135 468.163 228.135 L 468.163 228.135 L 478.676 228.135 C 479.187 228.135 479.601 228.55 479.601 229.061 L 479.601 229.061 L 479.601 239.574 C 479.601 240.085 479.187 240.499 478.676 240.5 L 478.676 240.5 L 468.163 240.499 L 468.163 240.499 Z M 468.161 229.061 L 468.161 239.574 L 468.163 239.576 L 478.676 239.576 L 478.678 239.574 L 478.678 229.061 L 478.676 229.059 L 468.163 229.059 L 468.161 229.061 L 468.161 229.061 Z" style="fill: rgb(30, 30, 30);" transform="matrix(0.965926, -0.258819, 0.258819, 0.965926, -44.514481, 130.514092)"/>
  <path d="M 480.545 237.182 C 480.034 237.181 479.62 236.768 479.619 236.256 L 479.619 236.256 L 479.619 225.743 C 479.62 225.232 480.034 224.819 480.545 224.818 L 480.545 224.818 L 491.057 224.818 C 491.569 224.818 491.982 225.232 491.983 225.743 L 491.983 225.743 L 491.983 236.256 L 491.982 236.256 C 491.982 236.767 491.569 237.182 491.057 237.182 L 491.057 237.182 L 480.545 237.182 L 480.545 237.182 Z M 491.057 236.259 L 491.059 236.256 L 491.059 225.743 L 491.057 225.741 L 480.545 225.741 L 480.542 225.743 L 480.542 236.256 C 480.542 236.256 480.545 236.259 480.545 236.258 L 480.545 236.258 L 491.057 236.259 L 491.057 236.259 Z" style="fill: rgb(30, 30, 30);" transform="matrix(0.965926, -0.258819, 0.258819, 0.965926, -43.233928, 133.605659)"/>
  <path d="M 492.926 233.864 C 492.415 233.864 492 233.45 492 232.939 L 492 232.939 L 492 222.426 C 492 221.914 492.414 221.501 492.926 221.501 L 492.926 221.501 L 503.438 221.501 C 503.948 221.502 504.362 221.915 504.364 222.426 L 504.364 222.426 L 504.364 232.939 L 504.363 232.939 C 504.362 233.45 503.949 233.864 503.438 233.865 L 503.438 233.865 L 492.926 233.864 L 492.926 233.864 Z M 492.923 222.426 L 492.923 232.939 L 492.926 232.94 L 503.438 232.94 L 503.441 232.939 L 503.441 222.426 L 503.438 222.423 L 492.926 222.423 L 492.923 222.426 L 492.923 222.426 Z" style="fill: rgb(30, 30, 30);" transform="matrix(0.965926, -0.258819, 0.258819, 0.965926, -41.953556, 136.697078)"/>
  <path d="M 505.307 230.547 C 504.795 230.547 504.382 230.132 504.382 229.621 L 504.382 229.621 L 504.382 219.108 C 504.382 218.597 504.795 218.183 505.307 218.182 L 505.307 218.182 L 515.82 218.183 C 516.331 218.183 516.745 218.596 516.745 219.108 L 516.745 219.108 L 516.745 229.621 C 516.745 230.133 516.331 230.546 515.82 230.547 L 515.82 230.547 L 505.307 230.547 L 505.307 230.547 Z M 505.305 219.108 L 505.305 229.621 L 505.307 229.623 L 515.82 229.623 L 515.822 229.621 L 515.822 219.108 C 515.822 219.108 515.82 219.105 515.82 219.106 L 515.82 219.106 L 505.307 219.105 L 505.305 219.108 L 505.305 219.108 Z" style="fill: rgb(30, 30, 30);" transform="matrix(0.965926, -0.258819, 0.258819, 0.965926, -40.672772, 139.788568)"/>
  <path d="M 517.688 227.229 C 517.177 227.228 516.763 226.814 516.762 226.304 L 516.762 226.304 L 516.763 215.791 C 516.763 215.28 517.177 214.866 517.688 214.865 L 517.688 214.865 L 528.201 214.865 C 528.712 214.865 529.126 215.28 529.126 215.791 L 529.126 215.791 L 529.126 226.304 C 529.126 226.815 528.712 227.229 528.201 227.229 L 528.201 227.229 L 517.688 227.229 L 517.688 227.229 Z M 528.201 226.306 L 528.204 226.304 L 528.203 226.304 L 528.204 215.791 L 528.201 215.788 L 517.688 215.788 L 517.686 215.791 L 517.686 226.304 C 517.686 226.304 517.688 226.306 517.688 226.305 L 517.688 226.305 L 528.201 226.306 L 528.201 226.306 Z" style="fill: rgb(30, 30, 30);" transform="matrix(0.965926, -0.258819, 0.258819, 0.965926, -39.392286, 142.87983)"/>
  <path d="M 528.283 223.05 C 527.772 223.05 527.357 222.636 527.357 222.124 L 527.357 222.124 L 527.357 211.611 C 527.357 211.1 527.772 210.686 528.283 210.686 L 528.283 210.686 C 530.07 210.686 535.671 210.686 536.446 210.686 L 536.446 210.686 C 536.761 210.664 536.741 210.654 536.829 210.527 L 536.829 210.527 C 536.917 210.377 536.993 209.95 536.991 209.254 L 536.991 209.254 L 536.99 209.254 L 536.991 198.74 C 536.991 198.229 537.405 197.815 537.917 197.814 L 537.917 197.814 L 548.43 197.815 C 548.682 197.805 548.956 197.947 549.086 198.146 L 549.086 198.146 C 549.221 198.343 549.255 198.548 549.257 198.74 L 549.257 198.74 L 549.256 222.125 C 549.256 222.636 548.842 223.051 548.331 223.051 L 548.331 223.051 L 528.283 223.051 L 528.283 223.05 Z M 528.28 211.611 L 528.28 222.124 L 528.283 222.126 L 548.331 222.126 C 548.331 222.126 548.333 222.124 548.333 222.124 L 548.333 222.124 L 548.333 198.739 C 548.333 198.739 548.333 198.738 548.333 198.738 L 548.333 198.738 L 537.917 198.738 L 537.914 198.739 L 537.914 209.254 L 537.452 209.254 L 537.914 209.255 C 537.905 210 537.865 210.52 537.646 210.956 L 537.646 210.956 C 537.426 211.416 536.906 211.632 536.445 211.608 L 536.445 211.608 C 535.67 211.608 530.07 211.608 528.283 211.608 L 528.283 211.608 L 528.28 211.611 L 528.28 211.611 Z" style="fill: rgb(30, 30, 30);" transform="matrix(0.965926, -0.258818, 0.258818, 0.965926, -36.121528, 146.494045)"/>
  <path d="M 403.324 271.115 C 402.813 271.115 402.399 270.701 402.399 270.19 L 402.399 270.19 L 402.399 259.677 C 402.399 259.165 402.814 258.751 403.324 258.75 L 403.324 258.75 L 413.838 258.751 C 414.349 258.751 414.763 259.165 414.763 259.677 L 414.763 259.677 L 414.763 270.19 C 414.763 270.701 414.349 271.115 413.838 271.116 L 413.838 271.116 L 403.324 271.115 L 403.324 271.115 Z M 413.838 270.193 L 413.84 270.19 L 413.84 259.677 L 413.838 259.674 L 403.324 259.674 L 403.322 259.677 L 403.322 270.19 C 403.322 270.19 403.324 270.193 403.324 270.192 L 403.324 270.192 L 413.838 270.193 L 413.838 270.193 Z" style="fill: rgb(30, 30, 30);" transform="matrix(0.965926, -0.258819, 0.258819, 0.965926, -54.647632, 114.775899)"/>
  <path d="M 374.96 276.544 C 374.448 276.544 374.035 276.13 374.034 275.619 L 374.034 275.619 L 374.034 265.106 C 374.034 264.594 374.448 264.18 374.96 264.18 L 374.96 264.18 L 401.681 264.18 C 402.192 264.18 402.607 264.594 402.607 265.106 L 402.607 265.106 L 402.607 275.619 C 402.606 276.13 402.192 276.544 401.681 276.545 L 401.681 276.545 L 374.96 276.544 L 374.96 276.544 Z M 401.681 275.622 L 401.683 275.619 L 401.683 265.106 C 401.683 265.106 401.681 265.103 401.681 265.104 L 401.681 265.104 L 374.96 265.103 L 374.958 265.106 L 374.958 275.619 C 374.958 275.619 374.96 275.622 374.96 275.621 L 374.96 275.621 L 401.681 275.622 L 401.681 275.622 Z" style="fill: rgb(30, 30, 30);" transform="matrix(0.965926, -0.258818, 0.258818, 0.965926, -56.743156, 109.716838)"/>
  <path d="M 415.706 267.797 C 415.194 267.797 414.781 267.383 414.781 266.872 L 414.781 266.872 L 414.781 256.359 C 414.781 255.847 415.194 255.433 415.706 255.432 L 415.706 255.432 L 426.218 255.433 C 426.73 255.433 427.144 255.847 427.145 256.359 L 427.145 256.359 L 427.145 266.872 L 427.144 266.872 C 427.144 267.383 426.73 267.797 426.218 267.798 L 426.218 267.798 L 415.706 267.797 L 415.706 267.797 Z M 426.218 266.875 L 426.221 266.872 L 426.221 256.359 L 426.218 256.356 L 415.706 256.356 C 415.706 256.356 415.703 256.359 415.704 256.359 L 415.704 256.359 L 415.703 266.872 C 415.703 266.872 415.706 266.875 415.706 266.874 L 415.706 266.874 L 426.218 266.875 L 426.218 266.875 Z" style="fill: rgb(30, 30, 30);" transform="matrix(0.965926, -0.258819, 0.258819, 0.965926, -53.36697, 117.86754)"/>
  <path d="M 428.088 264.479 C 427.576 264.479 427.163 264.066 427.162 263.555 L 427.162 263.555 L 427.163 253.042 C 427.163 252.53 427.576 252.116 428.088 252.115 L 428.088 252.115 L 438.601 252.116 C 439.112 252.116 439.526 252.53 439.526 253.042 L 439.526 253.042 L 439.526 263.555 C 439.526 264.066 439.113 264.479 438.601 264.481 L 438.601 264.481 L 428.088 264.479 L 428.088 264.479 Z M 438.601 263.558 L 438.602 263.555 L 438.602 253.042 L 438.601 253.039 L 428.088 253.039 L 428.085 253.042 L 428.085 263.555 C 428.085 263.555 428.088 263.558 428.088 263.557 L 428.088 263.557 L 438.601 263.558 L 438.601 263.558 Z" style="fill: rgb(30, 30, 30);" transform="matrix(0.965926, -0.258819, 0.258819, 0.965926, -52.086599, 120.958951)"/>
  <path d="M 440.469 261.162 C 439.957 261.162 439.544 260.749 439.543 260.238 L 439.543 260.238 L 439.543 249.725 C 439.543 249.213 439.957 248.799 440.469 248.798 L 440.469 248.798 L 450.982 248.799 C 451.493 248.799 451.907 249.212 451.907 249.725 L 451.907 249.725 L 451.907 260.238 C 451.906 260.749 451.494 261.162 450.982 261.164 L 450.982 261.164 L 440.469 261.162 L 440.469 261.162 Z M 450.982 260.24 L 450.984 260.238 L 450.984 249.725 L 450.982 249.722 L 440.469 249.722 L 440.466 249.725 L 440.466 260.238 C 440.466 260.238 440.469 260.24 440.469 260.239 L 440.469 260.239 L 450.982 260.24 L 450.982 260.24 Z" style="fill: rgb(30, 30, 30);" transform="matrix(0.965926, -0.258819, 0.258819, 0.965926, -50.806199, 124.050289)"/>
  <path d="M 452.849 257.844 C 452.339 257.844 451.925 257.431 451.924 256.92 L 451.924 256.92 L 451.924 246.407 C 451.925 245.895 452.339 245.482 452.849 245.48 L 452.849 245.48 L 463.363 245.481 C 463.874 245.482 464.288 245.894 464.289 246.407 L 464.289 246.407 L 464.289 256.92 C 464.288 257.431 463.875 257.844 463.363 257.846 L 463.363 257.846 L 452.849 257.844 L 452.849 257.844 Z M 463.363 256.922 L 463.365 256.92 L 463.365 246.407 L 463.363 246.404 L 452.849 246.404 L 452.848 246.407 L 452.848 256.92 C 452.848 256.92 452.849 256.922 452.849 256.921 L 452.849 256.921 L 463.363 256.922 L 463.363 256.922 Z" style="fill: rgb(30, 30, 30);" transform="matrix(0.965926, -0.258819, 0.258819, 0.965926, -49.525547, 127.141795)"/>
  <path d="M 465.231 254.527 C 464.72 254.527 464.307 254.113 464.306 253.602 L 464.306 253.602 L 464.306 243.089 C 464.306 242.577 464.719 242.163 465.231 242.162 L 465.231 242.162 L 475.744 242.163 C 476.256 242.163 476.67 242.577 476.67 243.089 L 476.67 243.089 L 476.67 253.602 C 476.669 254.113 476.256 254.527 475.744 254.528 L 475.744 254.528 L 465.231 254.527 L 465.231 254.527 Z M 475.744 253.605 L 475.746 253.602 L 475.746 243.089 L 475.744 243.086 L 465.231 243.086 L 465.229 243.089 L 465.229 253.602 C 465.229 253.602 465.231 253.605 465.231 253.604 L 465.231 253.604 L 475.744 253.605 L 475.744 253.605 Z" style="fill: rgb(30, 30, 30);" transform="matrix(0.965926, -0.258819, 0.258819, 0.965926, -48.244923, 130.233385)"/>
  <path d="M 477.613 251.209 C 477.101 251.209 476.687 250.796 476.687 250.285 L 476.687 250.285 L 476.687 239.771 C 476.687 239.26 477.101 238.846 477.613 238.845 L 477.613 238.845 L 488.127 238.846 C 488.637 238.847 489.05 239.26 489.051 239.771 L 489.051 239.771 L 489.051 250.285 C 489.051 250.796 488.638 251.209 488.127 251.211 L 488.127 251.211 L 477.613 251.209 L 477.613 251.209 Z M 488.127 250.287 L 488.129 250.285 L 488.128 250.285 L 488.129 239.771 L 488.127 239.768 L 477.613 239.768 C 477.613 239.768 477.61 239.771 477.611 239.771 L 477.611 239.771 L 477.61 250.285 C 477.61 250.285 477.613 250.287 477.613 250.286 L 477.613 250.286 L 488.127 250.287 L 488.127 250.287 Z" style="fill: rgb(30, 30, 30);" transform="matrix(0.965926, -0.258819, 0.258819, 0.965926, -46.964525, 133.324718)"/>
  <path d="M 489.994 247.892 C 489.482 247.892 489.069 247.477 489.069 246.967 L 489.069 246.967 L 489.069 236.454 C 489.07 235.942 489.483 235.527 489.994 235.527 L 489.994 235.527 L 500.508 235.527 C 501.019 235.527 501.431 235.942 501.433 236.454 L 501.433 236.454 L 501.433 246.967 L 501.432 246.967 C 501.432 247.477 501.019 247.892 500.508 247.892 L 500.508 247.892 L 489.994 247.892 L 489.994 247.892 Z M 489.992 236.454 L 489.992 246.967 L 489.994 246.969 L 500.508 246.969 L 500.51 246.967 L 500.509 246.967 L 500.51 236.454 L 500.508 236.451 L 489.994 236.451 L 489.992 236.454 L 489.992 236.454 Z" style="fill: rgb(30, 30, 30);" transform="matrix(0.965926, -0.258818, 0.258818, 0.965926, -45.683688, 136.416097)"/>
  <path d="M 502.376 244.574 C 501.864 244.574 501.45 244.16 501.449 243.65 L 501.449 243.65 L 501.45 233.137 C 501.45 232.625 501.864 232.21 502.376 232.21 L 502.376 232.21 L 512.889 232.21 C 513.4 232.21 513.812 232.625 513.814 233.137 L 513.814 233.137 L 513.814 243.65 L 513.813 243.65 C 513.813 244.159 513.401 244.574 512.889 244.575 L 512.889 244.575 L 502.376 244.574 L 502.376 244.574 Z M 502.373 233.137 L 502.373 243.65 L 502.376 243.652 L 512.889 243.652 L 512.891 243.65 L 512.891 233.137 L 512.889 233.134 L 502.376 233.134 L 502.373 233.137 L 502.373 233.137 Z" style="fill: rgb(30, 30, 30);" transform="matrix(0.965926, -0.258819, 0.258819, 0.965926, -44.403387, 139.507712)"/>
  <path d="M 514.756 241.257 C 514.244 241.256 513.831 240.844 513.83 240.332 L 513.83 240.332 L 513.83 229.819 C 513.83 229.308 514.245 228.893 514.756 228.893 L 514.756 228.893 L 525.27 228.893 C 525.78 228.893 526.194 229.308 526.195 229.819 L 526.195 229.819 L 526.195 240.332 L 526.194 240.332 C 526.194 240.843 525.781 241.256 525.27 241.257 L 525.27 241.257 L 514.756 241.257 L 514.756 241.257 Z M 525.27 240.335 L 525.272 240.332 L 525.272 229.819 C 525.272 229.819 525.27 229.816 525.27 229.816 L 525.27 229.816 L 514.756 229.816 L 514.754 229.819 L 514.754 240.332 C 514.754 240.332 514.756 240.335 514.756 240.334 L 514.756 240.334 L 525.27 240.335 L 525.27 240.335 Z" style="fill: rgb(30, 30, 30);" transform="matrix(0.965926, -0.258819, 0.258819, 0.965926, -43.122893, 142.599099)"/>
  <path d="M 526.871 235.903 C 526.359 235.903 525.946 235.49 525.944 234.979 L 525.944 234.979 L 525.946 224.466 C 525.946 223.954 526.359 223.54 526.871 223.538 L 526.871 223.538 L 553.115 223.538 C 553.626 223.538 554.04 223.953 554.041 224.466 L 554.041 224.466 L 554.041 234.979 L 554.04 234.979 C 554.04 235.489 553.626 235.902 553.115 235.903 L 553.115 235.903 L 526.871 235.903 L 526.871 235.903 Z M 526.868 224.466 L 526.867 234.979 L 526.871 234.982 L 553.115 234.982 L 553.117 234.979 L 553.117 224.466 L 553.115 224.463 L 526.871 224.463 C 526.871 224.463 526.867 224.466 526.868 224.466 L 526.868 224.466 Z" style="fill: rgb(30, 30, 30);" transform="matrix(0.965926, -0.258819, 0.258819, 0.965926, -41.056238, 147.587849)"/>
  <path d="M 545.422 193.311 C 544.911 193.311 544.496 192.897 544.496 192.387 L 544.496 192.387 L 544.496 181.873 C 544.496 181.362 544.91 180.948 545.423 180.947 L 545.423 180.947 L 555.935 180.947 C 556.446 180.948 556.86 181.362 556.861 181.873 L 556.861 181.873 L 556.861 192.386 L 556.86 192.386 C 556.86 192.897 556.447 193.311 555.935 193.311 L 555.935 193.311 L 545.422 193.311 L 545.422 193.311 Z M 545.42 181.873 L 545.42 192.386 L 545.423 192.388 L 555.935 192.388 L 555.939 192.386 L 555.937 192.386 L 555.939 181.873 L 555.935 181.87 L 545.423 181.87 L 545.42 181.873 L 545.42 181.873 Z" style="fill: rgb(30, 30, 30);" transform="matrix(0.965926, -0.258819, 0.258819, 0.965926, -29.668646, 148.90249)"/>
  <path d="M 557.471 190.083 C 556.959 190.083 556.546 189.669 556.545 189.158 L 556.545 189.158 L 556.546 178.645 C 556.547 178.133 556.959 177.72 557.471 177.719 L 557.471 177.719 L 567.984 177.72 C 568.494 177.72 568.909 178.134 568.91 178.645 L 568.91 178.645 L 568.91 189.158 L 568.909 189.158 C 568.909 189.669 568.495 190.083 567.984 190.083 L 567.984 190.083 L 557.471 190.083 L 557.471 190.083 Z M 567.984 189.161 L 567.987 189.158 L 567.986 189.158 L 567.987 178.645 C 567.987 178.645 567.984 178.642 567.984 178.643 L 567.984 178.643 L 557.471 178.642 C 557.471 178.642 557.468 178.645 557.469 178.645 L 557.469 178.645 L 557.468 189.158 C 557.468 189.158 557.471 189.161 557.471 189.16 L 557.471 189.16 L 567.984 189.161 L 567.984 189.161 Z" style="fill: rgb(30, 30, 30);" transform="matrix(0.965926, -0.258819, 0.258819, 0.965926, -28.422617, 151.911008)"/>
  <path d="M 569.597 186.833 C 569.085 186.833 568.671 186.42 568.67 185.908 L 568.67 185.908 L 568.671 175.395 C 568.671 174.884 569.085 174.471 569.597 174.47 L 569.597 174.47 L 580.11 174.471 C 580.62 174.471 581.035 174.884 581.036 175.395 L 581.036 175.395 L 581.036 185.908 L 581.035 185.908 C 581.035 186.42 580.621 186.833 580.11 186.834 L 580.11 186.834 L 569.597 186.833 L 569.597 186.833 Z M 569.594 175.395 L 569.593 185.908 L 569.597 185.911 L 580.11 185.911 L 580.113 185.908 L 580.112 185.908 L 580.113 175.395 C 580.113 175.395 580.11 175.393 580.11 175.394 L 580.11 175.394 L 569.598 175.393 C 569.597 175.393 569.593 175.395 569.594 175.395 L 569.594 175.395 Z" style="fill: rgb(30, 30, 30);" transform="matrix(0.965926, -0.258819, 0.258819, 0.965926, -27.168532, 154.938269)"/>
  <path d="M 548.733 205.668 C 548.222 205.667 547.807 205.254 547.807 204.742 L 547.807 204.742 L 547.807 194.229 C 547.807 193.718 548.221 193.304 548.733 193.304 L 548.733 193.304 L 559.246 193.304 C 559.757 193.304 560.171 193.718 560.172 194.229 L 560.172 194.229 L 560.172 204.742 L 560.171 204.742 C 560.171 205.254 559.757 205.667 559.246 205.668 L 559.246 205.668 L 548.733 205.668 L 548.733 205.668 Z M 548.731 194.228 L 548.731 204.741 L 548.733 204.744 L 559.246 204.744 L 559.249 204.741 L 559.248 204.741 L 559.249 194.228 L 559.246 194.227 L 548.733 194.227 L 548.731 194.228 L 548.731 194.228 Z" style="fill: rgb(30, 30, 30);" transform="matrix(0.965926, -0.258818, 0.258818, 0.965926, -32.754009, 150.179979)"/>
  <path d="M 560.781 202.439 C 560.27 202.439 559.857 202.025 559.855 201.513 L 559.855 201.513 L 559.856 191.001 C 559.857 190.49 560.27 190.077 560.781 190.074 L 560.781 190.074 L 571.295 190.075 C 571.804 190.075 572.219 190.489 572.22 191 L 572.22 191 L 572.22 201.513 L 572.219 201.513 C 572.219 202.024 571.805 202.438 571.295 202.439 L 571.295 202.439 L 560.781 202.439 L 560.781 202.439 Z M 571.295 201.516 L 571.298 201.513 L 571.297 201.513 L 571.297 191.001 C 571.297 191.001 571.295 190.998 571.295 190.999 L 571.295 190.999 L 560.781 190.998 C 560.781 190.998 560.779 191.001 560.78 191.001 L 560.78 191.001 L 560.779 201.513 C 560.779 201.513 560.781 201.516 560.781 201.515 L 560.781 201.515 L 571.295 201.516 L 571.295 201.516 Z" style="fill: rgb(30, 30, 30);" transform="matrix(0.965926, -0.258819, 0.258819, 0.965926, -31.507645, 153.18835)"/>
  <path d="M 572.908 199.19 C 572.396 199.19 571.981 198.776 571.981 198.265 L 571.981 198.265 L 571.981 187.753 C 571.981 187.241 572.395 186.826 572.908 186.826 L 572.908 186.826 L 583.42 186.826 C 583.931 186.826 584.346 187.241 584.346 187.753 L 584.346 187.753 L 584.346 198.265 L 584.346 198.265 C 584.346 198.776 583.932 199.19 583.421 199.19 L 583.421 199.19 L 572.908 199.19 L 572.908 199.19 Z M 572.905 187.752 L 572.904 198.265 L 572.908 198.267 L 583.421 198.267 L 583.423 198.265 L 583.423 198.265 L 583.424 187.752 L 583.421 187.749 L 572.909 187.749 C 572.908 187.749 572.904 187.752 572.905 187.752 L 572.905 187.752 Z" style="fill: rgb(30, 30, 30);" transform="matrix(0.965926, -0.258819, 0.258819, 0.965926, -30.253691, 156.216104)"/>
  <path d="M 552.044 218.023 C 551.532 218.023 551.118 217.609 551.118 217.099 L 551.118 217.099 L 551.118 206.585 C 551.118 206.074 551.532 205.659 552.044 205.659 L 552.044 205.659 L 562.557 205.659 C 563.067 205.659 563.482 206.074 563.483 206.585 L 563.483 206.585 L 563.483 217.099 L 563.482 217.099 C 563.482 217.609 563.068 218.023 562.557 218.023 L 562.557 218.023 L 552.044 218.023 L 552.044 218.023 Z M 552.041 206.585 L 552.041 217.098 L 552.044 217.1 L 562.557 217.1 L 562.56 217.098 L 562.559 217.098 L 562.56 206.585 L 562.557 206.582 L 552.044 206.582 L 552.041 206.585 L 552.041 206.585 Z" style="fill: rgb(30, 30, 30);" transform="matrix(0.965926, -0.258819, 0.258819, 0.965926, -35.838933, 151.458256)"/>
  <path d="M 564.092 214.795 C 563.581 214.794 563.168 214.38 563.166 213.869 L 563.166 213.869 L 563.167 203.356 C 563.168 202.846 563.581 202.432 564.092 202.431 L 564.092 202.431 L 574.606 202.431 C 575.115 202.431 575.531 202.844 575.531 203.356 L 575.531 203.356 L 575.531 213.869 L 575.531 213.869 C 575.531 214.38 575.116 214.795 574.606 214.795 L 574.606 214.795 L 564.092 214.795 L 564.092 214.795 Z M 564.091 203.356 L 564.09 213.869 L 564.092 213.872 L 574.606 213.872 L 574.609 213.869 L 574.608 213.869 L 574.609 203.356 C 574.609 203.356 574.606 203.353 574.606 203.354 L 574.606 203.354 L 564.092 203.353 C 564.092 203.353 564.09 203.356 564.091 203.356 L 564.091 203.356 Z" style="fill: rgb(30, 30, 30);" transform="matrix(0.965926, -0.258819, 0.258819, 0.965926, -34.592942, 154.466523)"/>
  <path d="M 576.219 211.546 C 575.707 211.546 575.292 211.132 575.292 210.621 L 575.292 210.621 L 575.292 200.108 C 575.292 199.597 575.706 199.183 576.219 199.183 L 576.219 199.183 L 586.732 199.183 C 587.242 199.183 587.656 199.597 587.657 200.108 L 587.657 200.108 L 587.657 210.621 L 587.657 210.621 C 587.657 211.132 587.243 211.546 586.732 211.546 L 586.732 211.546 L 576.219 211.546 L 576.219 211.546 Z M 576.216 200.107 L 576.215 210.621 L 576.219 210.622 L 586.732 210.622 L 586.734 210.621 L 586.734 210.621 L 586.735 200.107 L 586.732 200.106 L 576.219 200.106 C 576.219 200.106 576.215 200.107 576.216 200.107 L 576.216 200.107 Z" style="fill: rgb(30, 30, 30);" transform="matrix(0.965926, -0.258819, 0.258819, 0.965926, -33.338982, 157.49428)"/>
  <path d="M 555.355 230.378 C 554.843 230.378 554.429 229.965 554.428 229.453 L 554.428 229.453 L 554.428 218.94 C 554.428 218.429 554.842 218.015 555.355 218.014 L 555.355 218.014 L 565.868 218.014 C 566.378 218.015 566.792 218.429 566.793 218.94 L 566.793 218.94 L 566.793 229.453 L 566.792 229.453 C 566.792 229.965 566.379 230.378 565.868 230.379 L 565.868 230.379 L 555.355 230.378 L 555.355 230.378 Z M 565.868 229.456 L 565.871 229.453 L 565.87 229.453 L 565.871 218.94 L 565.868 218.938 L 555.355 218.938 L 555.352 218.94 L 555.352 229.453 C 555.352 229.453 555.355 229.456 555.355 229.455 L 555.355 229.455 L 565.868 229.456 L 565.868 229.456 Z" style="fill: rgb(30, 30, 30);" transform="matrix(0.965926, -0.258819, 0.258819, 0.965926, -38.923983, 152.735952)"/>
  <path d="M 567.403 227.15 C 566.891 227.15 566.478 226.736 566.477 226.226 L 566.477 226.226 L 566.478 215.712 C 566.479 215.201 566.892 214.787 567.403 214.786 L 567.403 214.786 L 577.916 214.787 C 578.426 214.787 578.841 215.201 578.842 215.712 L 578.842 215.712 L 578.842 226.226 L 578.841 226.226 C 578.841 226.736 578.427 227.15 577.916 227.151 L 577.916 227.151 L 567.403 227.15 L 567.403 227.15 Z M 577.916 226.228 L 577.919 226.226 L 577.918 226.226 L 577.919 215.712 C 577.919 215.712 577.916 215.709 577.916 215.71 L 577.916 215.71 L 567.403 215.709 C 567.403 215.709 567.4 215.712 567.401 215.712 L 567.401 215.712 L 567.4 226.226 C 567.4 226.226 567.403 226.228 567.403 226.227 L 567.403 226.227 L 577.916 226.228 L 577.916 226.228 Z" style="fill: rgb(30, 30, 30);" transform="matrix(0.965926, -0.258819, 0.258819, 0.965926, -37.677958, 155.744482)"/>
  <path d="M 579.529 223.901 C 579.017 223.901 578.603 223.487 578.602 222.977 L 578.602 222.977 L 578.603 212.463 C 578.603 211.951 579.017 211.537 579.529 211.537 L 579.529 211.537 L 590.042 211.537 C 590.552 211.537 590.967 211.951 590.968 212.463 L 590.968 212.463 L 590.968 222.977 L 590.967 222.977 C 590.967 223.487 590.553 223.901 590.043 223.902 L 590.043 223.902 L 579.529 223.901 L 579.529 223.901 Z M 590.043 222.979 L 590.046 222.977 L 590.045 222.977 L 590.046 212.463 L 590.043 212.46 L 579.53 212.46 C 579.53 212.46 579.526 212.463 579.527 212.463 L 579.527 212.463 L 579.526 222.977 C 579.526 222.977 579.53 222.979 579.53 222.978 L 579.53 222.978 L 590.043 222.979 L 590.043 222.979 Z" style="fill: rgb(30, 30, 30);" transform="matrix(0.965926, -0.258818, 0.258818, 0.965926, -36.423828, 158.77153)"/>
  <path d="M 558.665 242.734 C 558.154 242.734 557.739 242.321 557.739 241.81 L 557.739 241.81 L 557.739 231.297 C 557.74 230.785 558.153 230.371 558.665 230.371 L 558.665 230.371 L 569.178 230.371 C 569.689 230.371 570.103 230.785 570.104 231.297 L 570.104 231.297 L 570.104 241.81 L 570.103 241.81 C 570.103 242.321 569.689 242.734 569.178 242.734 L 569.178 242.734 L 558.665 242.734 L 558.665 242.734 Z M 558.662 231.297 L 558.662 241.81 L 558.665 241.812 L 569.178 241.812 L 569.182 241.81 L 569.18 241.81 L 569.182 231.297 L 569.178 231.294 L 558.665 231.294 L 558.662 231.297 L 558.662 231.297 Z" style="fill: rgb(30, 30, 30);" transform="matrix(0.965926, -0.258819, 0.258819, 0.965926, -42.009124, 154.013928)"/>
  <path d="M 570.714 239.506 C 570.203 239.505 569.789 239.092 569.788 238.581 L 569.788 238.581 L 569.789 228.068 C 569.789 227.557 570.202 227.143 570.714 227.143 L 570.714 227.143 L 581.227 227.143 C 581.738 227.143 582.152 227.556 582.153 228.068 L 582.153 228.068 L 582.153 238.581 L 582.152 238.581 C 582.152 239.092 581.737 239.506 581.227 239.507 L 581.227 239.507 L 570.714 239.506 L 570.714 239.506 Z M 581.227 238.584 L 581.23 238.581 L 581.229 238.581 L 581.23 228.068 L 581.227 228.065 L 570.714 228.065 C 570.714 228.065 570.711 228.068 570.712 228.068 L 570.712 228.068 L 570.711 238.581 C 570.711 238.581 570.714 238.584 570.714 238.583 L 570.714 238.583 L 581.227 238.584 L 581.227 238.584 Z" style="fill: rgb(30, 30, 30);" transform="matrix(0.965926, -0.258819, 0.258819, 0.965926, -40.763237, 157.022477)"/>
  <path d="M 582.84 236.257 C 582.328 236.257 581.913 235.844 581.913 235.333 L 581.913 235.333 L 581.913 224.82 C 581.913 224.308 582.328 223.894 582.84 223.893 L 582.84 223.893 L 593.353 223.894 C 593.863 223.894 594.277 224.308 594.278 224.82 L 594.278 224.82 L 594.278 235.333 L 594.278 235.333 C 594.278 235.844 593.864 236.257 593.353 236.257 L 593.353 236.257 L 582.84 236.257 L 582.84 236.257 Z M 593.353 235.335 L 593.356 235.333 L 593.355 235.333 L 593.356 224.82 C 593.356 224.82 593.353 224.816 593.353 224.818 L 593.353 224.818 L 582.84 224.816 C 582.84 224.816 582.836 224.82 582.837 224.82 L 582.837 224.82 L 582.836 235.333 C 582.836 235.333 582.84 235.335 582.84 235.334 L 582.84 235.334 L 593.353 235.335 L 593.353 235.335 Z" style="fill: rgb(30, 30, 30);" transform="matrix(0.965926, -0.258819, 0.258819, 0.965926, -39.508926, 160.049904)"/>
  <path d="M 513.88 201.763 C 513.37 201.763 512.955 201.349 512.955 200.837 L 512.955 200.837 L 512.955 190.325 C 512.955 189.813 513.37 189.4 513.88 189.399 L 513.88 189.399 L 524.393 189.4 C 524.905 189.4 525.318 189.814 525.32 190.325 L 525.32 190.325 L 525.32 200.837 L 525.319 200.837 C 525.319 201.349 524.906 201.763 524.393 201.763 L 524.393 201.763 L 513.88 201.763 L 513.88 201.763 Z M 513.878 190.325 L 513.878 200.837 L 513.88 200.84 L 524.393 200.84 L 524.396 200.837 L 524.395 200.837 L 524.396 190.325 L 524.393 190.323 L 513.88 190.323 L 513.878 190.325 L 513.878 190.325 Z" style="fill: rgb(30, 30, 30);" transform="matrix(0.965926, -0.258819, 0.258819, 0.965926, -32.930884, 141.026754)"/>
  <path d="M 526.591 197.527 C 526.081 197.526 525.665 197.113 525.665 196.602 L 525.665 196.602 L 525.665 186.089 C 525.665 185.577 526.08 185.163 526.591 185.163 L 526.591 185.163 L 543.302 185.163 C 543.812 185.164 544.226 185.577 544.227 186.089 L 544.227 186.089 L 544.227 196.602 L 544.227 196.602 C 544.227 197.112 543.813 197.527 543.302 197.527 L 543.302 197.527 L 526.591 197.527 L 526.591 197.527 Z M 526.589 186.089 L 526.588 196.602 L 526.591 196.604 L 543.302 196.604 L 543.304 196.602 L 543.304 186.089 C 543.304 186.089 543.302 186.086 543.302 186.087 L 543.302 186.087 L 526.591 186.086 C 526.591 186.086 526.588 186.089 526.589 186.089 L 526.589 186.089 Z" style="fill: rgb(30, 30, 30);" transform="matrix(0.965926, -0.258819, 0.258819, 0.965926, -31.295872, 144.97394)"/>
  <path d="M 536.554 247.382 C 536.042 247.382 535.628 246.969 535.627 246.458 L 535.627 246.458 L 535.628 235.944 C 535.628 235.433 536.042 235.019 536.554 235.018 L 536.554 235.018 L 556.602 235.019 C 557.113 235.019 557.526 235.433 557.527 235.944 L 557.527 235.944 L 557.527 246.458 L 557.526 246.458 C 557.526 246.968 557.112 247.381 556.602 247.383 L 556.602 247.383 L 536.554 247.382 L 536.554 247.382 Z M 556.602 246.46 L 556.604 246.458 L 556.604 235.944 C 556.604 235.944 556.602 235.941 556.602 235.942 L 556.602 235.942 L 536.554 235.941 L 536.551 235.944 L 536.551 246.458 C 536.551 246.458 536.554 246.46 536.554 246.459 L 536.554 246.459 L 556.602 246.46 L 556.602 246.46 Z" style="fill: rgb(30, 30, 30);" transform="matrix(0.965926, -0.258819, 0.258819, 0.965926, -43.803117, 149.683227)"/>
  <path d="M 378.401 289.887 C 377.89 289.887 377.475 289.473 377.475 288.963 L 377.475 288.963 L 377.475 278.449 C 377.475 277.938 377.889 277.523 378.401 277.523 L 378.401 277.523 L 397.495 277.523 C 398.006 277.523 398.42 277.938 398.42 278.449 L 398.42 278.449 L 398.42 288.963 C 398.42 289.474 398.005 289.887 397.495 289.888 L 397.495 289.888 L 378.401 289.887 L 378.401 289.887 Z M 397.495 288.965 L 397.497 288.963 L 397.497 278.449 C 397.497 278.449 397.495 278.446 397.495 278.447 L 397.495 278.447 L 378.401 278.446 L 378.398 278.449 L 378.398 288.963 C 378.398 288.963 378.401 288.965 378.401 288.964 L 378.401 288.964 L 397.495 288.965 L 397.495 288.965 Z" style="fill: rgb(30, 30, 30);" transform="matrix(0.965926, -0.258819, 0.258819, 0.965926, -60.209389, 110.075213)"/>
  <path d="M 371.763 265.052 C 371.252 265.052 370.837 264.638 370.837 264.127 L 370.837 264.127 L 370.837 253.613 C 370.837 253.103 371.251 252.689 371.763 252.689 L 371.763 252.689 L 391.811 252.689 C 392.323 252.689 392.737 253.103 392.737 253.613 L 392.737 253.613 L 392.737 264.127 C 392.737 264.638 392.323 265.052 391.811 265.052 L 391.811 265.052 L 371.763 265.052 L 371.763 265.052 Z M 391.81 264.129 L 391.813 264.127 L 391.813 253.613 C 391.813 253.613 391.81 253.611 391.81 253.611 L 391.81 253.611 L 371.763 253.611 L 371.761 253.613 L 371.761 264.127 C 371.761 264.127 371.763 264.129 371.763 264.128 L 371.763 264.128 L 391.81 264.129 L 391.81 264.129 Z" style="fill: rgb(30, 30, 30);" transform="matrix(0.965926, -0.258819, 0.258819, 0.965926, -53.991532, 107.634521)"/>
  <path d="M 368.501 253.067 C 367.99 253.067 367.575 252.653 367.575 252.142 L 367.575 252.142 L 367.575 241.628 C 367.575 241.118 367.989 240.703 368.501 240.703 L 368.501 240.703 L 385.687 240.703 C 386.199 240.703 386.613 241.117 386.613 241.628 L 386.613 241.628 L 386.613 252.142 C 386.613 252.653 386.199 253.067 385.687 253.067 L 385.687 253.067 L 368.501 253.067 L 368.501 253.067 Z M 368.499 241.628 L 368.498 252.141 L 368.501 252.143 L 385.687 252.143 L 385.69 252.141 L 385.69 241.628 C 385.69 241.628 385.687 241.625 385.687 241.626 L 385.687 241.626 L 368.501 241.625 C 368.501 241.625 368.498 241.628 368.499 241.628 L 368.499 241.628 Z" style="fill: rgb(30, 30, 30);" transform="matrix(0.965926, -0.258818, 0.258818, 0.965926, -51.049288, 106.011238)"/>
  <path d="M 517.408 252.831 C 516.897 252.831 516.483 252.418 516.482 251.907 L 516.482 251.907 L 516.483 241.393 C 516.483 240.882 516.897 240.468 517.408 240.468 L 517.408 240.468 L 535.072 240.468 C 535.584 240.468 535.997 240.882 535.998 241.393 L 535.998 241.393 L 535.998 251.907 L 535.997 251.907 C 535.997 252.417 535.584 252.83 535.072 252.832 L 535.072 252.832 L 517.408 252.831 L 517.408 252.831 Z M 517.406 241.393 L 517.405 251.907 L 517.408 251.909 L 535.072 251.909 L 535.075 251.907 L 535.074 251.907 L 535.075 241.393 L 535.072 241.391 L 517.408 241.391 C 517.408 241.391 517.405 241.393 517.406 241.393 L 517.406 241.393 Z" style="fill: rgb(30, 30, 30);" transform="matrix(0.965926, -0.258819, 0.258819, 0.965926, -45.906515, 144.60531)"/>
  <path d="M 399.206 284.375 C 398.695 284.375 398.281 283.963 398.28 283.451 L 398.28 283.451 L 398.281 272.938 C 398.281 272.426 398.695 272.012 399.206 272.012 L 399.206 272.012 L 417.823 272.012 C 418.335 272.012 418.749 272.426 418.749 272.938 L 418.749 272.938 L 418.749 283.451 L 418.749 283.451 C 418.749 283.962 418.335 284.375 417.823 284.376 L 417.823 284.376 L 399.206 284.375 L 399.206 284.375 Z M 417.823 283.454 L 417.825 283.451 L 417.825 272.938 C 417.825 272.938 417.823 272.935 417.823 272.936 L 417.823 272.936 L 399.206 272.935 L 399.204 272.938 L 399.204 283.451 C 399.204 283.451 399.206 283.454 399.206 283.452 L 399.206 283.452 L 417.823 283.454 L 417.823 283.454 Z" style="fill: rgb(30, 30, 30);" transform="matrix(0.965926, -0.258819, 0.258819, 0.965926, -58.082105, 115.210546)"/>
  <path d="M 418.095 268.522 C 417.583 268.522 417.168 268.108 417.168 267.597 L 417.168 267.597 L 417.168 257.084 C 417.168 256.572 417.582 256.158 418.095 256.157 L 418.095 256.157 L 517.275 256.158 C 517.785 256.158 518.2 256.572 518.2 257.084 L 518.2 257.084 L 518.2 267.597 C 518.2 268.108 517.786 268.522 517.275 268.522 L 517.275 268.522 L 418.095 268.522 L 418.095 268.522 Z M 418.092 257.084 L 418.092 267.597 L 418.095 267.599 L 517.275 267.599 L 517.278 267.597 L 517.277 267.597 L 517.278 257.084 L 517.275 257.081 L 418.095 257.081 L 418.092 257.084 L 418.092 257.084 Z" style="fill: rgb(30, 30, 30);" transform="matrix(0.965926, -0.258819, 0.258819, 0.965926, -51.962509, 129.98451)"/>
  <path d="M 364.265 267.257 L 364.265 197.806 L 594.365 197.806 L 594.365 266.794 L 594.365 267.257 L 364.265 267.257 L 364.265 267.257 Z M 593.904 266.795 L 593.904 266.334 L 593.904 266.795 L 593.904 266.795 Z M 365.188 266.334 L 593.442 266.334 L 593.442 198.73 L 365.188 198.73 L 365.188 266.334 L 365.188 266.334 Z" style="fill: rgb(30, 30, 30);" transform="matrix(0.965926, -0.258819, 0.258819, 0.965926, -43.851297, 131.979062)"/>
  <path d="M 360.157 311.136 L 360.157 310.675 L 360.619 310.66 L 360.157 310.675 L 360.157 311.136 L 359.71 311.136 L 355.628 181.741 L 609.713 181.741 L 605.632 311.136 L 360.157 311.136 L 360.157 311.136 Z M 604.737 310.213 L 608.76 182.663 L 356.581 182.663 L 360.604 310.213 L 604.737 310.213 L 604.737 310.213 Z" style="fill: rgb(30, 30, 30);" transform="matrix(0.965926, -0.258819, 0.258819, 0.965926, -47.336372, 133.321492)"/>
  <path d="M 347.387 321.563 L 347.387 163.087 L 615.506 163.087 L 615.506 321.102 L 615.506 321.563 L 347.387 321.563 L 347.387 321.563 Z M 615.044 321.102 L 615.044 320.639 L 615.044 321.102 L 615.044 321.102 Z M 348.31 320.639 L 614.581 320.639 L 614.581 164.01 L 348.31 164.01 L 348.31 320.639 L 348.31 320.639 Z" style="fill: rgb(30, 30, 30);" transform="matrix(0.965926, -0.258819, 0.258819, 0.965926, -46.313432, 132.864519)"/>
  <polygon points="381.822 350.27 381.822 340.021 382.745 340.021 382.745 350.27 381.822 350.27" style="fill: rgb(30, 30, 30);" transform="matrix(0.965926, -0.258819, 0.258819, 0.965926, -76.304228, 110.702779)"/>
  <polygon points="455.941 330.289 455.941 320.158 456.864 320.158 456.864 330.289 455.941 330.289" style="fill: rgb(30, 30, 30);" transform="matrix(0.965926, -0.258819, 0.258819, 0.965926, -68.622525, 129.207443)"/>
  <polygon points="544.366 306.716 544.366 296.467 545.29 296.467 545.29 306.716 544.366 306.716" style="fill: rgb(30, 30, 30);" transform="matrix(0.965926, -0.258819, 0.258819, 0.965926, -59.493049, 151.288323)"/>
  <polygon points="618.486 286.734 618.486 276.605 619.409 276.605 619.409 286.734 618.486 286.734" style="fill: rgb(30, 30, 30);" transform="matrix(0.965926, -0.258818, 0.258818, 0.965926, -51.811232, 169.792628)"/>
  <polygon points="348.161 215.922 348.161 203.989 347.495 203.989 347.495 215.922 346.573 215.922 346.573 203.067 349.084 203.067 349.084 215.922 348.161 215.922" style="fill: rgb(30, 30, 30);" transform="matrix(0.965926, -0.258819, 0.258819, 0.965926, -42.369195, 97.162972)"/>
  <polygon points="356.193 213.77 356.193 201.837 355.527 201.837 355.527 213.77 354.604 213.77 354.604 200.915 357.116 200.915 357.116 213.77 356.193 213.77" style="fill: rgb(30, 30, 30);" transform="matrix(0.965926, -0.258819, 0.258819, 0.965926, -41.538549, 99.168351)"/>
  <polygon points="364.224 211.618 364.224 199.685 363.559 199.685 363.559 211.618 362.636 211.618 362.636 198.763 365.148 198.763 365.148 211.618 364.224 211.618" style="fill: rgb(30, 30, 30);" transform="matrix(0.965926, -0.258819, 0.258819, 0.965926, -40.707885, 101.173862)"/>
  <polygon points="372.257 209.466 372.257 197.533 371.59 197.533 371.59 209.466 370.667 209.466 370.667 196.611 373.179 196.611 373.179 209.466 372.257 209.466" style="fill: rgb(30, 30, 30);" transform="matrix(0.965926, -0.258819, 0.258819, 0.965926, -39.877258, 103.179102)"/>
  <polygon points="380.288 207.314 380.288 195.381 379.622 195.381 379.622 207.314 378.699 207.314 378.699 194.458 381.21 194.458 381.211 207.314 380.288 207.314" style="fill: rgb(30, 30, 30);" transform="matrix(0.965926, -0.258819, 0.258819, 0.965926, -39.046461, 105.184603)"/>
  <polygon points="388.319 205.162 388.319 193.229 387.654 193.229 387.654 205.162 386.731 205.162 386.731 192.306 389.242 192.306 389.242 205.162 388.319 205.162" style="fill: rgb(30, 30, 30);" transform="matrix(0.965926, -0.258819, 0.258819, 0.965926, -38.215824, 107.189976)"/>
  <polygon points="396.351 203.01 396.351 191.077 395.685 191.077 395.685 203.01 394.763 203.01 394.763 190.154 397.274 190.154 397.275 203.01 396.351 203.01" style="fill: rgb(30, 30, 30);" transform="matrix(0.965926, -0.258819, 0.258819, 0.965926, -37.385132, 109.195534)"/>
  <polygon points="404.383 200.858 404.382 188.925 403.717 188.925 403.717 200.858 403.717 200.858 402.794 200.858 402.794 188.003 405.306 188.003 405.306 200.858 404.383 200.858" style="fill: rgb(30, 30, 30);" transform="matrix(0.965926, -0.258819, 0.258819, 0.965926, -36.554648, 111.200876)"/>
  <polygon points="412.415 198.706 412.414 186.773 411.749 186.773 411.749 198.706 410.826 198.706 410.826 185.851 413.337 185.851 413.337 198.706 412.415 198.706" style="fill: rgb(30, 30, 30);" transform="matrix(0.965926, -0.258819, 0.258819, 0.965926, -35.723999, 113.206247)"/>
  <polygon points="420.446 196.554 420.446 184.62 419.78 184.62 419.78 196.554 418.857 196.554 418.857 183.698 421.369 183.698 421.37 196.554 420.446 196.554" style="fill: rgb(30, 30, 30);" transform="matrix(0.965926, -0.258819, 0.258819, 0.965926, -34.893207, 115.211741)"/>
  <polygon points="428.478 194.401 428.478 182.468 427.812 182.468 427.812 194.401 426.889 194.401 426.889 181.546 429.4 181.546 429.402 194.401 428.478 194.401" style="fill: rgb(30, 30, 30);" transform="matrix(0.965926, -0.258819, 0.258819, 0.965926, -34.062437, 117.217373)"/>
  <polygon points="436.509 192.25 436.509 180.317 435.844 180.317 435.844 192.25 434.92 192.25 434.92 179.394 437.432 179.394 437.432 192.25 436.509 192.25" style="fill: rgb(30, 30, 30);" transform="matrix(0.965926, -0.258819, 0.258819, 0.965926, -33.231948, 119.222514)"/>
  <polygon points="444.541 190.097 444.541 178.164 443.876 178.164 443.876 190.097 442.953 190.097 442.953 177.241 445.464 177.241 445.464 190.097 444.541 190.097" style="fill: rgb(30, 30, 30);" transform="matrix(0.965926, -0.258819, 0.258819, 0.965926, -32.400997, 121.227969)"/>
  <polygon points="452.573 187.946 452.573 176.013 451.907 176.013 451.907 187.946 450.984 187.946 450.984 175.09 453.495 175.09 453.496 187.946 452.573 187.946" style="fill: rgb(30, 30, 30);" transform="matrix(0.965926, -0.258819, 0.258819, 0.965926, -31.570594, 123.233238)"/>
  <polygon points="460.604 185.793 460.604 173.86 459.939 173.86 459.939 185.793 459.015 185.793 459.015 172.937 461.528 172.937 461.528 185.793 460.604 185.793" style="fill: rgb(30, 30, 30);" transform="matrix(0.965926, -0.258819, 0.258819, 0.965926, -30.739692, 125.238656)"/>
  <polygon points="468.636 183.642 468.635 171.708 467.97 171.708 467.97 183.642 467.048 183.642 467.048 170.786 469.559 170.786 469.559 183.642 468.636 183.642" style="fill: rgb(30, 30, 30);" transform="matrix(0.965926, -0.258819, 0.258819, 0.965926, -29.909299, 127.244264)"/>
  <polygon points="476.668 181.489 476.668 169.556 476.001 169.556 476.001 181.489 476.002 181.489 475.078 181.489 475.078 168.634 477.59 168.634 477.591 181.489 476.668 181.489" style="fill: rgb(30, 30, 30);" transform="matrix(0.965926, -0.258819, 0.258819, 0.965926, -29.078549, 129.249575)"/>
  <polygon points="484.699 179.337 484.699 167.404 484.033 167.404 484.033 179.337 484.034 179.337 483.111 179.337 483.111 166.481 485.622 166.481 485.623 179.337 484.699 179.337" style="fill: rgb(30, 30, 30);" transform="matrix(0.965926, -0.258819, 0.258819, 0.965926, -28.247715, 131.254879)"/>
  <polygon points="492.731 177.185 492.731 165.251 492.065 165.251 492.065 177.185 491.142 177.185 491.142 164.329 493.654 164.329 493.654 177.185 492.731 177.185" style="fill: rgb(30, 30, 30);" transform="matrix(0.965926, -0.258819, 0.258819, 0.965926, -27.4171, 133.260278)"/>
  <polygon points="500.763 175.033 500.763 163.099 500.096 163.099 500.096 175.033 500.097 175.033 499.173 175.033 499.173 162.177 501.686 162.177 501.686 175.033 500.763 175.033" style="fill: rgb(30, 30, 30);" transform="matrix(0.965926, -0.258819, 0.258819, 0.965926, -26.586463, 135.265748)"/>
  <polygon points="508.795 172.881 508.795 160.948 508.128 160.948 508.128 172.881 508.129 172.881 507.206 172.881 507.206 160.025 509.717 160.025 509.717 172.881 508.795 172.881" style="fill: rgb(30, 30, 30);" transform="matrix(0.965926, -0.258819, 0.258819, 0.965926, -25.755793, 137.271084)"/>
  <polygon points="516.826 170.729 516.826 158.796 516.16 158.796 516.16 170.729 515.237 170.729 515.237 157.873 517.749 157.873 517.749 170.729 516.826 170.729" style="fill: rgb(30, 30, 30);" transform="matrix(0.965926, -0.258819, 0.258819, 0.965926, -24.925154, 139.27663)"/>
  <polygon points="524.858 168.577 524.858 156.644 524.191 156.644 524.191 168.577 524.192 168.577 523.269 168.577 523.269 155.721 525.78 155.721 525.781 168.577 524.858 168.577" style="fill: rgb(30, 30, 30);" transform="matrix(0.965926, -0.258819, 0.258819, 0.965926, -24.094481, 141.281978)"/>
  <polygon points="532.89 166.425 532.889 154.492 532.224 154.492 532.224 166.425 531.3 166.425 531.3 153.569 533.812 153.569 533.813 166.425 532.89 166.425" style="fill: rgb(30, 30, 30);" transform="matrix(0.965926, -0.258819, 0.258819, 0.965926, -23.26385, 143.287514)"/>
  <polygon points="540.922 164.273 540.921 152.339 540.255 152.339 540.255 164.273 540.255 164.273 539.333 164.273 539.333 151.417 541.844 151.417 541.845 164.273 540.922 164.273" style="fill: rgb(30, 30, 30);" transform="matrix(0.965926, -0.258819, 0.258819, 0.965926, -22.433162, 145.29298)"/>
  <polygon points="548.953 162.121 548.953 150.186 548.286 150.186 548.286 162.121 548.287 162.121 547.364 162.121 547.364 149.264 549.875 149.264 549.876 162.121 548.953 162.121" style="fill: rgb(30, 30, 30);" transform="matrix(0.965926, -0.258819, 0.258819, 0.965926, -21.60241, 147.298379)"/>
  <polygon points="556.985 159.969 556.985 148.035 556.318 148.035 556.318 159.969 555.395 159.969 555.395 147.113 557.907 147.113 557.908 159.969 556.985 159.969" style="fill: rgb(30, 30, 30);" transform="matrix(0.965926, -0.258819, 0.258819, 0.965926, -20.771896, 149.303767)"/>
  <polygon points="565.017 157.817 565.016 145.883 564.35 145.883 564.35 157.817 564.35 157.817 563.427 157.817 563.427 144.961 565.94 144.961 565.94 157.817 565.017 157.817" style="fill: rgb(30, 30, 30);" transform="matrix(0.965926, -0.258819, 0.258819, 0.965926, -19.941235, 151.309263)"/>
  <polygon points="573.048 155.664 573.048 143.73 572.382 143.73 572.382 155.664 571.459 155.664 571.459 142.808 573.97 142.808 573.971 155.664 573.048 155.664" style="fill: rgb(30, 30, 30);" transform="matrix(0.965926, -0.258819, 0.258819, 0.965926, -19.110328, 153.314616)"/>
  <polygon points="581.079 153.512 581.079 141.578 580.413 141.578 580.413 153.512 580.414 153.512 579.49 153.512 579.49 140.657 582.002 140.657 582.003 153.512 581.079 153.512" style="fill: rgb(30, 30, 30);" transform="matrix(0.965926, -0.258819, 0.258819, 0.965926, -18.279815, 155.320005)"/>
  <path d="M 337.831 232.135 C 337.83 230.125 338.716 228.32 340.117 227.093 L 340.117 227.093 L 340.725 227.788 C 339.516 228.848 338.754 230.4 338.754 232.135 L 338.754 232.135 C 338.754 233.838 339.49 235.366 340.664 236.425 L 340.664 236.425 L 340.046 237.111 C 338.686 235.887 337.83 234.108 337.831 232.135 L 337.831 232.135 Z" style="fill: rgb(30, 30, 30);" transform="matrix(0.965926, -0.258819, 0.258819, 0.965926, -48.511791, 95.72028)"/>
  <path d="M 364.071 330.06 C 364.07 328.051 364.956 326.246 366.357 325.02 L 366.357 325.02 L 366.965 325.714 C 365.755 326.774 364.993 328.326 364.993 330.06 L 364.993 330.06 C 364.993 331.764 365.729 333.292 366.904 334.351 L 366.904 334.351 L 366.904 334.352 L 366.285 335.037 C 364.926 333.812 364.07 332.034 364.071 330.06 L 364.071 330.06 Z" style="fill: rgb(30, 30, 30);" transform="matrix(0.965926, -0.258818, 0.258818, 0.965926, -72.962795, 105.848193)"/>
  <path d="M 597.977 166.736 C 599.151 165.678 599.887 164.149 599.887 162.445 L 599.887 162.445 C 599.887 160.711 599.125 159.159 597.916 158.099 L 597.916 158.099 L 598.523 157.405 C 599.924 158.631 600.81 160.437 600.809 162.445 L 600.809 162.445 C 600.81 164.419 599.954 166.198 598.594 167.421 L 598.594 167.421 L 598.594 167.422 L 597.977 166.736 L 597.977 166.736 Z" style="fill: rgb(30, 30, 30);" transform="matrix(0.965926, -0.258819, 0.258819, 0.965926, -21.612921, 160.660527)"/>
  <path d="M 624.216 264.661 C 625.389 263.602 626.126 262.074 626.126 260.371 L 626.126 260.371 C 626.126 258.636 625.365 257.085 624.155 256.024 L 624.155 256.024 L 624.762 255.329 C 626.163 256.556 627.049 258.362 627.049 260.371 L 627.049 260.371 C 627.049 262.344 626.193 264.122 624.833 265.347 L 624.833 265.347 L 624.216 264.661 L 624.216 264.661 Z" style="fill: rgb(30, 30, 30);" transform="matrix(0.965926, -0.258819, 0.258819, 0.965926, -46.06355, 170.788492)"/>
</svg>