<?xml version="1.0" encoding="utf-8"?>
<svg version="1.1" id="Layer_4" x="0px" y="0px" viewBox="0 0 1280 720" enable-background="new 0 0 598.189 350.26" preserveAspectRatio="none" xmlns="http://www.w3.org/2000/svg">
  <path d="M 401.115 358.429 C 400.06 358.429 399.21 357.578 399.21 356.525 L 399.21 356.525 L 399.21 334.893 C 399.21 333.841 400.062 332.989 401.115 332.989 L 401.115 332.989 L 422.746 332.989 C 423.798 332.989 424.65 333.841 424.65 334.893 L 424.65 334.893 L 424.65 356.524 C 424.65 357.577 423.798 358.428 422.746 358.428 L 422.746 358.428 L 401.115 358.428 L 401.115 358.429 Z M 401.108 334.893 L 401.108 356.524 L 401.114 356.53 L 422.745 356.53 L 422.751 356.524 L 422.749 356.524 L 422.751 334.893 L 422.745 334.887 L 401.115 334.887 L 401.108 334.893 L 401.108 334.893 Z" style="fill: rgb(30, 30, 30);" transform="matrix(0.965926, -0.258819, 0.258819, 0.965926, -75.439911, 118.395105)"/>
  <path d="M 426.589 351.603 C 425.538 351.603 424.687 350.752 424.685 349.699 L 424.685 349.699 L 424.685 328.067 C 424.687 327.015 425.537 326.163 426.589 326.163 L 426.589 326.163 L 448.222 326.163 C 449.274 326.165 450.125 327.015 450.127 328.067 L 450.127 328.067 L 450.127 349.698 C 450.127 350.751 449.275 351.602 448.222 351.602 L 448.222 351.602 L 426.589 351.602 L 426.589 351.603 Z M 426.585 328.067 L 426.585 349.698 L 426.589 349.704 L 448.222 349.704 L 448.228 349.698 L 448.226 349.698 L 448.228 328.067 L 448.222 328.061 L 426.589 328.061 L 426.585 328.067 L 426.585 328.067 Z" style="fill: rgb(30, 30, 30);" transform="matrix(0.965926, -0.258819, 0.258819, 0.965926, -72.805125, 124.756165)"/>
  <path d="M 452.066 344.776 C 451.015 344.776 450.162 343.925 450.162 342.872 L 450.162 342.872 L 450.162 321.24 C 450.162 320.188 451.014 319.336 452.066 319.336 L 452.066 319.336 L 473.7 319.336 C 474.75 319.336 475.602 320.188 475.604 321.24 L 475.604 321.24 L 475.604 342.871 L 475.602 342.871 C 475.602 343.924 474.751 344.775 473.7 344.775 L 473.7 344.775 L 452.066 344.775 L 452.066 344.776 Z M 452.063 321.24 L 452.061 342.871 L 452.066 342.877 L 473.7 342.877 L 473.703 342.871 L 473.703 321.24 L 473.7 321.234 L 452.066 321.234 C 452.066 321.234 452.061 321.24 452.063 321.24 L 452.063 321.24 Z" style="fill: rgb(30, 30, 30);" transform="matrix(0.965926, -0.258819, 0.258819, 0.965926, -70.170074, 131.117504)"/>
  <path d="M 477.545 337.95 C 476.493 337.95 475.64 337.099 475.64 336.046 L 475.64 336.046 L 475.64 314.414 C 475.64 313.362 476.493 312.51 477.545 312.51 L 477.545 312.51 L 499.176 312.51 C 500.227 312.51 501.08 313.362 501.08 314.414 L 501.08 314.414 L 501.08 336.045 C 501.08 337.098 500.229 337.949 499.176 337.949 L 499.176 337.949 L 477.545 337.949 L 477.545 337.95 Z M 477.538 314.414 L 477.538 336.045 L 477.544 336.051 L 499.175 336.051 L 499.181 336.045 L 499.179 336.045 L 499.181 314.414 L 499.175 314.408 L 477.544 314.408 L 477.538 314.414 L 477.538 314.414 Z" style="fill: rgb(30, 30, 30);" transform="matrix(0.965926, -0.258819, 0.258819, 0.965926, -67.535258, 137.478802)"/>
  <path d="M 503.021 331.123 C 501.968 331.123 501.117 330.272 501.115 329.219 L 501.115 329.219 L 501.115 307.587 C 501.115 306.535 501.969 305.683 503.021 305.683 L 503.021 305.683 L 524.652 305.683 C 525.705 305.683 526.557 306.535 526.557 307.587 L 526.557 307.587 L 526.557 329.218 C 526.555 330.271 525.705 331.122 524.652 331.122 L 524.652 331.122 L 503.021 331.122 L 503.021 331.123 Z M 503.015 307.587 L 503.015 329.218 L 503.021 329.224 L 524.652 329.224 L 524.656 329.218 L 524.656 307.587 L 524.652 307.581 L 503.021 307.581 L 503.015 307.587 L 503.015 307.587 Z" style="fill: rgb(30, 30, 30);" transform="matrix(0.965926, -0.258819, 0.258819, 0.965926, -64.90025, 143.839945)"/>
  <path d="M 528.496 324.297 C 527.444 324.297 526.594 323.446 526.592 322.393 L 526.592 322.393 L 526.592 300.761 C 526.592 299.709 527.444 298.857 528.496 298.857 L 528.496 298.857 L 550.128 298.857 C 551.18 298.859 552.032 299.709 552.034 300.761 L 552.034 300.761 L 552.034 322.392 C 552.034 323.445 551.182 324.296 550.128 324.296 L 550.128 324.296 L 528.496 324.296 L 528.496 324.297 Z M 528.493 300.761 L 528.493 322.392 L 528.496 322.398 L 550.128 322.398 L 550.134 322.392 L 550.134 300.761 L 550.128 300.755 L 528.496 300.755 L 528.493 300.761 L 528.493 300.761 Z" style="fill: rgb(30, 30, 30);" transform="matrix(0.965926, -0.258819, 0.258819, 0.965926, -62.265416, 150.201197)"/>
  <path d="M 553.975 317.47 C 552.922 317.47 552.071 316.619 552.07 315.566 L 552.07 315.566 L 552.071 293.934 C 552.071 292.882 552.923 292.03 553.975 292.03 L 553.975 292.03 L 575.608 292.03 C 576.659 292.03 577.511 292.882 577.511 293.934 L 577.511 293.934 L 577.51 315.566 C 577.508 316.619 576.659 317.47 575.607 317.47 L 575.607 317.47 L 553.975 317.47 L 553.975 317.47 Z M 575.607 315.572 L 575.611 315.566 L 575.611 293.934 L 575.607 293.93 L 553.974 293.93 L 553.968 293.934 L 553.968 315.566 C 553.968 315.566 553.974 315.572 553.974 315.57 L 553.974 315.57 L 575.607 315.572 L 575.607 315.572 Z" style="fill: rgb(30, 30, 30);" transform="matrix(0.965926, -0.258819, 0.258819, 0.965926, -59.630354, 156.562729)"/>
  <path d="M 579.451 310.643 C 578.398 310.643 577.547 309.791 577.547 308.741 L 577.547 308.741 L 577.547 287.109 C 577.547 286.057 578.4 285.205 579.451 285.205 L 579.451 285.205 L 601.083 285.205 C 602.135 285.205 602.986 286.057 602.986 287.109 L 602.986 287.109 L 602.986 308.741 C 602.986 309.791 602.135 310.643 601.083 310.645 L 601.083 310.645 L 579.451 310.643 L 579.451 310.643 Z M 579.445 287.109 L 579.445 308.741 L 579.451 308.745 L 601.083 308.745 L 601.087 308.741 L 601.087 287.109 L 601.083 287.103 L 579.451 287.103 L 579.445 287.109 L 579.445 287.109 Z" style="fill: rgb(30, 30, 30);" transform="matrix(0.965926, -0.258819, 0.258819, 0.965926, -56.995819, 162.923755)"/>
  <path d="M 604.927 303.817 C 603.875 303.817 603.023 302.966 603.021 301.914 L 603.021 301.914 L 603.023 280.282 C 603.023 279.229 603.875 278.377 604.927 278.377 L 604.927 278.377 L 626.559 278.377 C 627.611 278.379 628.462 279.229 628.464 280.282 L 628.464 280.282 L 628.464 301.914 C 628.462 302.964 627.612 303.816 626.559 303.817 L 626.559 303.817 L 604.927 303.817 L 604.927 303.817 Z M 604.923 280.282 L 604.923 301.914 L 604.927 301.918 L 626.559 301.918 L 626.565 301.914 L 626.565 280.282 L 626.559 280.276 L 604.927 280.276 L 604.923 280.282 L 604.923 280.282 Z" style="fill: rgb(30, 30, 30);" transform="matrix(0.965926, -0.258819, 0.258819, 0.965926, -54.360526, 169.284766)"/>
  <path d="M 630.403 296.991 C 629.351 296.991 628.499 296.139 628.499 295.088 L 628.499 295.088 L 628.499 273.455 C 628.499 272.402 629.352 271.551 630.403 271.551 L 630.403 271.551 L 652.035 271.551 C 653.086 271.551 653.94 272.402 653.941 273.455 L 653.941 273.455 L 653.941 295.087 L 653.94 295.087 C 653.94 296.14 653.089 296.99 652.035 296.99 L 652.035 296.99 L 630.403 296.99 L 630.403 296.991 Z M 630.399 273.455 L 630.397 295.087 L 630.403 295.091 L 652.035 295.091 L 652.042 295.087 L 652.04 295.087 L 652.042 273.455 C 652.042 273.455 652.035 273.449 652.035 273.451 L 652.035 273.451 L 630.403 273.449 C 630.403 273.449 630.397 273.455 630.399 273.455 L 630.399 273.455 Z" style="fill: rgb(30, 30, 30);" transform="matrix(0.965926, -0.258819, 0.258819, 0.965926, -51.725678, 175.646046)"/>
  <path d="M 655.883 290.163 C 654.829 290.163 653.976 289.312 653.976 288.259 L 653.976 288.259 L 653.976 266.629 C 653.976 265.576 654.83 264.725 655.883 264.723 L 655.883 264.723 L 677.514 264.725 C 678.564 264.726 679.414 265.576 679.418 266.629 L 679.418 266.629 L 679.418 288.26 L 679.416 288.26 C 679.416 289.313 678.566 290.164 677.514 290.166 L 677.514 290.166 L 655.883 290.163 L 655.883 290.163 Z M 655.877 266.629 L 655.875 288.26 L 655.883 288.266 L 677.514 288.266 L 677.517 288.26 L 677.517 266.629 L 677.514 266.623 L 655.883 266.623 C 655.883 266.622 655.875 266.629 655.877 266.629 L 655.877 266.629 Z" style="fill: rgb(30, 30, 30);" transform="matrix(0.965926, -0.258819, 0.258819, 0.965926, -49.090741, 182.007387)"/>
  <path d="M 681.359 283.338 C 680.304 283.338 679.453 282.486 679.451 281.433 L 679.451 281.433 L 679.453 259.803 C 679.455 258.75 680.304 257.9 681.359 257.897 L 681.359 257.897 L 702.989 257.899 C 704.04 257.899 704.893 258.75 704.895 259.803 L 704.895 259.803 L 704.895 281.433 L 704.893 281.433 C 704.893 282.486 704.041 283.338 702.989 283.338 L 702.989 283.338 L 681.359 283.338 L 681.359 283.338 Z M 681.352 259.803 L 681.352 281.433 L 681.359 281.439 L 702.989 281.439 L 702.995 281.433 L 702.995 259.803 L 702.989 259.797 L 681.359 259.797 L 681.352 259.803 L 681.352 259.803 Z" style="fill: rgb(30, 30, 30);" transform="matrix(0.965926, -0.258819, 0.258819, 0.965926, -46.455737, 188.368608)"/>
  <path d="M 446.773 373.445 C 445.721 373.445 444.867 372.594 444.867 371.54 L 444.867 371.54 L 444.867 349.909 C 444.867 348.858 445.721 348.004 446.773 348.004 L 446.773 348.004 L 468.406 348.004 C 469.457 348.004 470.309 348.857 470.309 349.909 L 470.309 349.909 L 470.309 371.54 C 470.309 372.594 469.458 373.445 468.406 373.445 L 468.406 373.445 L 446.773 373.445 L 446.773 373.445 Z M 446.767 349.908 L 446.767 371.539 L 446.773 371.545 L 468.406 371.545 L 468.41 371.539 L 468.41 349.908 C 468.41 349.908 468.406 349.902 468.406 349.904 L 468.406 349.904 L 446.773 349.902 L 446.767 349.908 L 446.767 349.908 Z" style="fill: rgb(30, 30, 30);" transform="matrix(0.965926, -0.258819, 0.258819, 0.965926, -77.77043, 130.723871)"/>
  <path d="M 472.248 366.619 C 471.197 366.619 470.345 365.768 470.345 364.714 L 470.345 364.714 L 470.345 343.083 C 470.345 342.032 471.196 341.178 472.248 341.178 L 472.248 341.178 L 493.881 341.178 C 494.933 341.18 495.785 342.031 495.786 343.083 L 495.786 343.083 L 495.786 364.714 C 495.785 365.768 494.934 366.617 493.881 366.619 L 493.881 366.619 L 472.248 366.619 L 472.248 366.619 Z M 472.244 343.082 L 472.244 364.713 L 472.248 364.719 L 493.881 364.719 L 493.887 364.713 L 493.885 364.713 L 493.887 343.082 C 493.887 343.082 493.881 343.076 493.881 343.078 L 493.881 343.078 L 472.248 343.076 L 472.244 343.082 L 472.244 343.082 Z" style="fill: rgb(30, 30, 30);" transform="matrix(0.965926, -0.258819, 0.258819, 0.965926, -75.13561, 137.085349)"/>
  <path d="M 497.726 359.792 C 496.675 359.792 495.821 358.941 495.821 357.887 L 495.821 357.887 L 495.821 336.256 C 495.821 335.205 496.675 334.351 497.726 334.351 L 497.726 334.351 L 519.358 334.351 C 520.409 334.351 521.263 335.204 521.263 336.256 L 521.263 336.256 L 521.263 357.887 C 521.263 358.941 520.41 359.792 519.358 359.792 L 519.358 359.792 L 497.726 359.792 L 497.726 359.792 Z M 497.722 336.255 L 497.722 357.886 L 497.727 357.892 L 519.359 357.892 L 519.364 357.886 L 519.364 336.255 C 519.364 336.255 519.359 336.249 519.359 336.251 L 519.359 336.251 L 497.727 336.249 L 497.722 336.255 L 497.722 336.255 Z" style="fill: rgb(30, 30, 30);" transform="matrix(0.965926, -0.258819, 0.258819, 0.965926, -72.500562, 143.446523)"/>
  <path d="M 523.203 352.966 C 522.151 352.966 521.299 352.115 521.297 351.061 L 521.297 351.061 L 521.299 329.43 C 521.299 328.379 522.15 327.525 523.203 327.525 L 523.203 327.525 L 544.836 327.525 C 545.887 327.525 546.739 328.378 546.739 329.43 L 546.739 329.43 L 546.739 351.061 C 546.739 352.115 545.888 352.966 544.836 352.966 L 544.836 352.966 L 523.203 352.966 L 523.203 352.966 Z M 523.198 329.429 L 523.198 351.06 L 523.202 351.066 L 544.835 351.066 L 544.839 351.06 L 544.839 329.429 C 544.839 329.429 544.835 329.423 544.835 329.425 L 544.835 329.425 L 523.202 329.423 L 523.198 329.429 L 523.198 329.429 Z" style="fill: rgb(30, 30, 30);" transform="matrix(0.965926, -0.258819, 0.258819, 0.965926, -69.865786, 149.807602)"/>
  <path d="M 548.68 346.139 C 547.629 346.139 546.775 345.288 546.775 344.234 L 546.775 344.234 L 546.775 322.603 C 546.775 321.552 547.629 320.698 548.68 320.698 L 548.68 320.698 L 570.311 320.698 C 571.363 320.698 572.217 321.551 572.217 322.603 L 572.217 322.603 L 572.217 344.234 C 572.217 345.288 571.364 346.139 570.311 346.139 L 570.311 346.139 L 548.68 346.139 L 548.68 346.139 Z M 548.674 322.602 L 548.674 344.233 L 548.68 344.239 L 570.311 344.239 L 570.317 344.233 L 570.317 322.602 C 570.317 322.602 570.311 322.596 570.311 322.598 L 570.311 322.598 L 548.68 322.596 L 548.674 322.602 L 548.674 322.602 Z" style="fill: rgb(30, 30, 30);" transform="matrix(0.965926, -0.258819, 0.258819, 0.965926, -67.230725, 156.169264)"/>
  <path d="M 574.155 339.312 C 573.104 339.312 572.252 338.461 572.252 337.408 L 572.252 337.408 L 572.252 315.775 C 572.252 314.724 573.104 313.872 574.155 313.87 L 574.155 313.87 L 595.788 313.872 C 596.839 313.872 597.691 314.723 597.693 315.775 L 597.693 315.775 L 597.693 337.408 L 597.691 337.408 C 597.691 338.46 596.84 339.312 595.788 339.314 L 595.788 339.314 L 574.155 339.312 L 574.155 339.312 Z M 574.152 315.775 L 574.152 337.408 L 574.155 337.412 L 595.788 337.412 L 595.793 337.408 L 595.792 337.408 L 595.793 315.775 C 595.793 315.775 595.788 315.769 595.788 315.771 L 595.788 315.771 L 574.155 315.769 L 574.152 315.775 L 574.152 315.775 Z" style="fill: rgb(30, 30, 30);" transform="matrix(0.965926, -0.258819, 0.258819, 0.965926, -64.595764, 162.530378)"/>
  <path d="M 599.633 332.486 C 598.581 332.486 597.729 331.634 597.729 330.581 L 597.729 330.581 L 597.729 308.949 C 597.729 307.898 598.581 307.045 599.633 307.045 L 599.633 307.045 L 621.265 307.045 C 622.318 307.045 623.168 307.897 623.17 308.949 L 623.17 308.949 L 623.17 330.581 L 623.168 330.581 C 623.168 331.633 622.317 332.486 621.265 332.486 L 621.265 332.486 L 599.633 332.486 L 599.633 332.486 Z M 621.265 330.587 L 621.271 330.581 L 621.271 308.949 C 621.271 308.949 621.265 308.943 621.265 308.945 L 621.265 308.945 L 599.633 308.943 L 599.629 308.949 L 599.629 330.581 C 599.629 330.581 599.633 330.587 599.633 330.585 L 599.633 330.585 L 621.265 330.587 L 621.265 330.587 Z" style="fill: rgb(30, 30, 30);" transform="matrix(0.965926, -0.258819, 0.258819, 0.965926, -61.960843, 168.891684)"/>
  <path d="M 625.111 325.661 C 624.058 325.661 623.207 324.808 623.205 323.756 L 623.205 323.756 L 623.207 302.123 C 623.207 301.072 624.058 300.219 625.111 300.219 L 625.111 300.219 L 646.742 300.219 C 647.793 300.221 648.645 301.072 648.647 302.123 L 648.647 302.123 L 648.647 323.756 L 648.645 323.756 C 648.645 324.808 647.794 325.659 646.742 325.661 L 646.742 325.661 L 625.111 325.661 L 625.111 325.661 Z M 625.105 302.122 L 625.105 323.755 L 625.111 323.759 L 646.742 323.759 L 646.746 323.755 L 646.746 302.122 L 646.742 302.118 L 625.111 302.118 L 625.105 302.122 L 625.105 302.122 Z" style="fill: rgb(30, 30, 30);" transform="matrix(0.965926, -0.258819, 0.258819, 0.965926, -59.326194, 175.253035)"/>
  <path d="M 650.586 318.832 C 649.535 318.832 648.682 317.981 648.68 316.928 L 648.68 316.928 L 648.682 295.296 C 648.682 294.244 649.534 293.391 650.586 293.391 L 650.586 293.391 L 672.219 293.391 C 673.269 293.391 674.122 294.243 674.125 295.296 L 674.125 295.296 L 674.125 316.928 L 674.122 316.928 C 674.122 317.981 673.27 318.832 672.219 318.834 L 672.219 318.834 L 650.586 318.832 L 650.586 318.832 Z M 672.22 316.935 L 672.225 316.929 L 672.225 295.297 L 672.22 295.291 L 650.586 295.291 C 650.586 295.291 650.581 295.297 650.583 295.297 L 650.583 295.297 L 650.581 316.929 C 650.581 316.929 650.586 316.935 650.586 316.933 L 650.586 316.933 L 672.22 316.935 L 672.22 316.935 Z" style="fill: rgb(30, 30, 30);" transform="matrix(0.965926, -0.258819, 0.258819, 0.965926, -56.691019, 181.614181)"/>
  <path d="M 676.062 312.007 C 675.012 312.007 674.159 311.156 674.159 310.103 L 674.159 310.103 L 674.159 288.472 C 674.159 287.42 675.012 286.567 676.062 286.567 L 676.062 286.567 L 697.696 286.567 C 698.748 286.567 699.599 287.42 699.601 288.472 L 699.601 288.472 L 699.601 310.103 L 699.599 310.103 C 699.599 311.156 698.748 312.007 697.696 312.007 L 697.696 312.007 L 676.062 312.007 L 676.062 312.007 Z M 676.058 288.471 L 676.058 310.102 L 676.062 310.106 L 697.696 310.106 L 697.702 310.102 L 697.7 310.102 L 697.702 288.471 L 697.696 288.465 L 676.062 288.465 L 676.058 288.471 L 676.058 288.471 Z" style="fill: rgb(30, 30, 30);" transform="matrix(0.965926, -0.258819, 0.258819, 0.965926, -54.056272, 187.975377)"/>
  <path d="M 701.54 305.18 C 700.488 305.178 699.638 304.328 699.634 303.275 L 699.634 303.275 L 699.636 281.644 C 699.638 280.592 700.487 279.742 701.54 279.738 L 701.54 279.738 L 723.171 279.74 C 724.222 279.742 725.073 280.592 725.077 281.644 L 725.077 281.644 L 725.077 303.275 L 725.075 303.275 C 725.073 304.327 724.223 305.178 723.171 305.182 L 723.171 305.182 L 701.54 305.18 L 701.54 305.18 Z M 701.535 281.644 L 701.534 303.275 L 701.54 303.281 L 723.171 303.281 L 723.177 303.275 L 723.175 303.275 L 723.177 281.644 L 723.171 281.638 L 701.54 281.638 C 701.54 281.638 701.534 281.644 701.535 281.644 L 701.535 281.644 Z" style="fill: rgb(30, 30, 30);" transform="matrix(0.965926, -0.258819, 0.258819, 0.965926, -51.421301, 194.336493)"/>
  <path d="M 727.017 298.353 C 725.966 298.353 725.112 297.502 725.11 296.45 L 725.11 296.45 L 725.112 274.818 C 725.112 273.765 725.965 272.914 727.017 272.914 L 727.017 272.914 L 748.649 272.914 C 749.7 272.914 750.553 273.765 750.556 274.818 L 750.556 274.818 L 750.556 296.45 L 750.553 296.45 C 750.553 297.502 749.701 298.353 748.649 298.355 L 748.649 298.355 L 727.017 298.353 L 727.017 298.353 Z M 727.011 274.817 L 727.011 296.449 L 727.017 296.453 L 748.649 296.453 L 748.655 296.449 L 748.655 274.817 L 748.649 274.811 L 727.017 274.811 L 727.011 274.817 L 727.011 274.817 Z" style="fill: rgb(30, 30, 30);" transform="matrix(0.965926, -0.258819, 0.258819, 0.965926, -48.786601, 200.697987)"/>
  <path d="M 459.902 397.177 C 458.851 397.177 457.999 396.325 457.997 395.274 L 457.997 395.274 L 457.999 373.64 C 457.999 372.589 458.851 371.737 459.902 371.737 L 459.902 371.737 L 481.536 371.737 C 482.587 371.737 483.439 372.589 483.439 373.64 L 483.439 373.64 L 483.439 395.274 C 483.439 396.325 482.587 397.177 481.536 397.177 L 481.536 397.177 L 459.902 397.177 L 459.902 397.177 Z M 481.535 395.278 L 481.539 395.273 L 481.539 373.639 C 481.539 373.639 481.535 373.634 481.535 373.636 L 481.535 373.636 L 459.902 373.634 L 459.896 373.639 L 459.896 395.273 C 459.896 395.273 459.902 395.278 459.902 395.276 L 459.902 395.276 L 481.535 395.278 L 481.535 395.278 Z" style="fill: rgb(30, 30, 30);" transform="matrix(0.965926, -0.258819, 0.258819, 0.965926, -83.465461, 134.930842)"/>
  <path d="M 485.378 390.35 C 484.327 390.35 483.475 389.498 483.475 388.447 L 483.475 388.447 L 483.475 366.813 C 483.475 365.762 484.327 364.91 485.378 364.91 L 485.378 364.91 L 507.011 364.91 C 508.063 364.91 508.916 365.762 508.916 366.813 L 508.916 366.813 L 508.916 388.447 C 508.916 389.498 508.063 390.35 507.011 390.35 L 507.011 390.35 L 485.378 390.35 L 485.378 390.35 Z M 507.01 388.451 L 507.016 388.446 L 507.016 366.812 C 507.016 366.812 507.01 366.807 507.01 366.809 L 507.01 366.809 L 485.377 366.807 L 485.373 366.812 L 485.373 388.446 C 485.373 388.446 485.377 388.451 485.377 388.449 L 485.377 388.449 L 507.01 388.451 L 507.01 388.451 Z" style="fill: rgb(30, 30, 30);" transform="matrix(0.965926, -0.258819, 0.258819, 0.965926, -80.830386, 141.292272)"/>
  <path d="M 510.855 383.524 C 509.802 383.524 508.952 382.672 508.949 381.621 L 508.949 381.621 L 508.951 359.987 C 508.951 358.936 509.801 358.084 510.854 358.084 L 510.854 358.084 L 532.487 358.084 C 533.538 358.084 534.39 358.936 534.39 359.987 L 534.39 359.987 L 534.39 381.621 C 534.39 382.672 533.538 383.524 532.487 383.524 L 532.487 383.524 L 510.855 383.524 L 510.855 383.524 Z M 532.488 381.625 L 532.491 381.62 L 532.491 359.986 C 532.491 359.986 532.488 359.981 532.488 359.983 L 532.488 359.983 L 510.855 359.981 C 510.855 359.981 510.85 359.986 510.851 359.986 L 510.851 359.986 L 510.85 381.62 C 510.85 381.62 510.855 381.625 510.855 381.623 L 510.855 381.623 L 532.488 381.625 L 532.488 381.625 Z" style="fill: rgb(30, 30, 30);" transform="matrix(0.965926, -0.258819, 0.258819, 0.965926, -78.195717, 147.652927)"/>
  <path d="M 536.334 376.697 C 535.28 376.697 534.428 375.845 534.428 374.794 L 534.428 374.794 L 534.428 353.16 C 534.428 352.109 535.28 351.257 536.334 351.257 L 536.334 351.257 L 557.967 351.257 C 559.018 351.257 559.868 352.109 559.87 353.16 L 559.87 353.16 L 559.87 374.794 L 559.868 374.794 C 559.868 375.845 559.018 376.697 557.967 376.697 L 557.967 376.697 L 536.334 376.697 L 536.334 376.697 Z M 557.967 374.798 L 557.971 374.793 L 557.969 374.793 L 557.971 353.159 C 557.971 353.159 557.967 353.154 557.967 353.156 L 557.967 353.156 L 536.334 353.154 L 536.328 353.159 L 536.328 374.793 C 536.328 374.793 536.334 374.798 536.334 374.796 L 536.334 374.796 L 557.967 374.798 L 557.967 374.798 Z" style="fill: rgb(30, 30, 30);" transform="matrix(0.965926, -0.258819, 0.258819, 0.965926, -75.560527, 154.014795)"/>
  <path d="M 561.809 369.871 C 560.758 369.871 559.906 369.019 559.904 367.968 L 559.904 367.968 L 559.906 346.334 C 559.906 345.283 560.758 344.431 561.809 344.431 L 561.809 344.431 L 583.442 344.431 C 584.494 344.431 585.346 345.283 585.346 346.334 L 585.346 346.334 L 585.346 367.968 C 585.346 369.019 584.494 369.871 583.442 369.871 L 583.442 369.871 L 561.809 369.871 L 561.809 369.871 Z M 583.442 367.972 L 583.446 367.967 L 583.446 346.333 C 583.446 346.333 583.442 346.328 583.442 346.33 L 583.442 346.33 L 561.809 346.328 L 561.803 346.333 L 561.803 367.967 C 561.803 367.967 561.809 367.972 561.809 367.97 L 561.809 367.97 L 583.442 367.972 L 583.442 367.972 Z" style="fill: rgb(30, 30, 30);" transform="matrix(0.965926, -0.258819, 0.258819, 0.965926, -72.925787, 160.375967)"/>
  <path d="M 587.284 363.044 C 586.233 363.044 585.381 362.192 585.381 361.141 L 585.381 361.141 L 585.381 339.507 C 585.381 338.456 586.233 337.604 587.284 337.604 L 587.284 337.604 L 608.918 337.604 C 609.969 337.604 610.823 338.456 610.823 339.507 L 610.823 339.507 L 610.823 361.141 C 610.823 362.192 609.969 363.044 608.918 363.044 L 608.918 363.044 L 587.284 363.044 L 587.284 363.044 Z M 608.918 361.145 L 608.923 361.14 L 608.923 339.506 C 608.923 339.506 608.918 339.501 608.918 339.503 L 608.918 339.503 L 587.284 339.501 L 587.281 339.506 L 587.281 361.14 C 587.281 361.14 587.284 361.145 587.284 361.143 L 587.284 361.143 L 608.918 361.145 L 608.918 361.145 Z" style="fill: rgb(30, 30, 30);" transform="matrix(0.965926, -0.258819, 0.258819, 0.965926, -70.29072, 166.737272)"/>
  <path d="M 612.762 356.217 C 611.709 356.217 610.858 355.366 610.858 354.314 L 610.858 354.314 L 610.858 332.682 C 610.858 331.63 611.709 330.777 612.762 330.777 L 612.762 330.777 L 634.395 330.777 C 635.447 330.777 636.298 331.63 636.298 332.682 L 636.298 332.682 L 636.298 354.314 C 636.298 355.366 635.447 356.217 634.395 356.219 L 634.395 356.219 L 612.762 356.217 L 612.762 356.217 Z M 612.758 332.682 L 612.758 354.314 L 612.762 354.319 L 634.395 354.319 L 634.399 354.314 L 634.399 332.682 L 634.395 332.677 L 612.762 332.677 L 612.758 332.682 L 612.758 332.682 Z" style="fill: rgb(30, 30, 30);" transform="matrix(0.965926, -0.258819, 0.258819, 0.965926, -67.655872, 173.098088)"/>
  <path d="M 638.241 349.391 C 637.19 349.389 636.337 348.539 636.335 347.487 L 636.335 347.487 L 636.335 325.855 C 636.337 324.803 637.189 323.953 638.241 323.951 L 638.241 323.951 L 659.872 323.951 C 660.924 323.951 661.775 324.803 661.777 325.855 L 661.777 325.855 L 661.777 347.487 L 661.775 347.487 C 661.775 348.537 660.924 349.391 659.872 349.391 L 659.872 349.391 L 638.241 349.391 L 638.241 349.391 Z M 659.872 347.492 L 659.876 347.487 L 659.876 325.855 L 659.872 325.85 L 638.241 325.85 L 638.234 325.855 L 638.234 347.487 C 638.234 347.487 638.241 347.492 638.241 347.49 L 638.241 347.49 L 659.872 347.492 L 659.872 347.492 Z" style="fill: rgb(30, 30, 30);" transform="matrix(0.965926, -0.258819, 0.258819, 0.965926, -65.020817, 179.459842)"/>
  <path d="M 663.716 342.564 C 662.665 342.564 661.811 341.713 661.811 340.662 L 661.811 340.662 L 661.811 319.029 C 661.811 317.976 662.664 317.125 663.716 317.125 L 663.716 317.125 L 685.347 317.125 C 686.397 317.127 687.249 317.978 687.253 319.029 L 687.253 319.029 L 687.253 340.662 L 687.251 340.662 C 687.249 341.713 686.398 342.564 685.347 342.567 L 685.347 342.567 L 663.716 342.564 L 663.716 342.564 Z M 663.711 319.028 L 663.711 340.661 L 663.716 340.664 L 685.347 340.664 L 685.353 340.661 L 685.353 319.028 L 685.347 319.023 L 663.716 319.023 L 663.711 319.028 L 663.711 319.028 Z" style="fill: rgb(30, 30, 30);" transform="matrix(0.965926, -0.258819, 0.258819, 0.965926, -62.386306, 185.820942)"/>
  <path d="M 689.192 335.739 C 688.14 335.739 687.289 334.885 687.289 333.834 L 687.289 333.834 L 687.289 312.201 C 687.289 311.15 688.14 310.298 689.192 310.296 L 689.192 310.296 L 710.825 310.298 C 711.876 310.298 712.729 311.148 712.729 312.201 L 712.729 312.201 L 712.729 333.834 C 712.729 334.887 711.877 335.737 710.825 335.739 L 710.825 335.739 L 689.192 335.739 L 689.192 335.739 Z M 689.188 312.201 L 689.188 333.834 L 689.192 333.839 L 710.825 333.839 L 710.83 333.834 L 710.83 312.201 C 710.83 312.201 710.825 312.196 710.825 312.198 L 710.825 312.198 L 689.192 312.196 L 689.188 312.201 L 689.188 312.201 Z" style="fill: rgb(30, 30, 30);" transform="matrix(0.965926, -0.258819, 0.258819, 0.965926, -59.750854, 192.182221)"/>
  <path d="M 714.669 328.912 C 713.618 328.91 712.766 328.059 712.764 327.009 L 712.764 327.009 L 712.766 305.377 C 712.766 304.325 713.617 303.474 714.669 303.472 L 714.669 303.472 L 736.302 303.472 C 737.352 303.472 738.205 304.325 738.205 305.377 L 738.205 305.377 L 738.205 327.009 C 738.205 328.061 737.353 328.912 736.302 328.912 L 736.302 328.912 L 714.669 328.912 L 714.669 328.912 Z M 736.302 327.013 L 736.307 327.008 L 736.305 327.008 L 736.307 305.376 L 736.302 305.371 L 714.669 305.371 L 714.664 305.376 L 714.664 327.008 C 714.664 327.008 714.669 327.013 714.669 327.011 L 714.669 327.011 L 736.302 327.013 L 736.302 327.013 Z" style="fill: rgb(30, 30, 30);" transform="matrix(0.965926, -0.258819, 0.258819, 0.965926, -57.116225, 198.543176)"/>
  <path d="M 736.47 320.313 C 735.419 320.313 734.564 319.461 734.564 318.408 L 734.564 318.408 L 734.564 296.776 C 734.564 295.724 735.418 294.872 736.47 294.872 L 736.47 294.872 C 740.146 294.872 751.671 294.872 753.266 294.872 L 753.266 294.872 C 753.914 294.826 753.873 294.806 754.054 294.545 L 754.054 294.545 C 754.235 294.237 754.391 293.357 754.388 291.926 L 754.388 291.926 L 754.386 291.926 L 754.388 270.291 C 754.388 269.24 755.24 268.388 756.294 268.386 L 756.294 268.386 L 777.926 268.388 C 778.445 268.368 779.007 268.659 779.276 269.069 L 779.276 269.069 C 779.554 269.474 779.623 269.897 779.628 270.291 L 779.628 270.291 L 779.625 318.409 C 779.625 319.46 778.774 320.314 777.721 320.314 L 777.721 320.314 L 736.47 320.314 L 736.47 320.313 Z M 736.464 296.776 L 736.464 318.408 L 736.47 318.412 L 777.721 318.412 C 777.721 318.412 777.726 318.408 777.725 318.408 L 777.725 318.408 L 777.726 270.29 C 777.726 270.29 777.726 270.288 777.726 270.287 L 777.726 270.287 L 756.293 270.287 L 756.286 270.29 L 756.286 291.925 L 755.337 291.925 L 756.286 291.927 C 756.268 293.461 756.187 294.53 755.735 295.428 L 755.735 295.428 C 755.283 296.373 754.212 296.818 753.265 296.77 L 753.265 296.77 C 751.67 296.77 740.146 296.77 736.469 296.77 L 736.469 296.77 L 736.464 296.776 L 736.464 296.776 Z" style="fill: rgb(30, 30, 30);" transform="matrix(0.965926, -0.258819, 0.258819, 0.965926, -50.38597, 205.980703)"/>
  <path d="M 479.347 419.214 C 478.295 419.214 477.443 418.363 477.443 417.312 L 477.443 417.312 L 477.443 395.679 C 477.443 394.626 478.296 393.774 479.347 393.772 L 479.347 393.772 L 500.981 393.774 C 502.032 393.774 502.883 394.625 502.883 395.679 L 502.883 395.679 L 502.883 417.312 C 502.883 418.363 502.032 419.214 500.981 419.217 L 500.981 419.217 L 479.347 419.214 L 479.347 419.214 Z M 500.981 417.317 L 500.985 417.312 L 500.985 395.679 L 500.981 395.673 L 479.347 395.673 L 479.342 395.679 L 479.342 417.312 C 479.342 417.312 479.347 417.317 479.347 417.315 L 479.347 417.315 L 500.981 417.317 L 500.981 417.317 Z" style="fill: rgb(30, 30, 30);" transform="matrix(0.965926, -0.258819, 0.258819, 0.965926, -88.50657, 140.714365)"/>
  <path d="M 420.982 430.385 C 419.929 430.385 419.079 429.534 419.077 428.483 L 419.077 428.483 L 419.077 406.85 C 419.077 405.797 419.93 404.945 420.982 404.945 L 420.982 404.945 L 475.966 404.945 C 477.017 404.945 477.87 405.796 477.87 406.85 L 477.87 406.85 L 477.87 428.483 C 477.869 429.534 477.018 430.385 475.966 430.388 L 475.966 430.388 L 420.982 430.385 L 420.982 430.385 Z M 475.966 428.488 L 475.97 428.483 L 475.97 406.85 C 475.97 406.85 475.966 406.844 475.966 406.846 L 475.966 406.846 L 420.982 406.844 L 420.978 406.85 L 420.978 428.483 C 420.978 428.483 420.982 428.488 420.982 428.486 L 420.982 428.486 L 475.966 428.488 L 475.966 428.488 Z" style="fill: rgb(30, 30, 30);" transform="matrix(0.965926, -0.258819, 0.258819, 0.965926, -92.818678, 130.305124)"/>
  <path d="M 504.824 412.387 C 503.771 412.387 502.92 411.536 502.92 410.485 L 502.92 410.485 L 502.92 388.852 C 502.92 387.799 503.771 386.947 504.824 386.945 L 504.824 386.945 L 526.455 386.947 C 527.508 386.947 528.359 387.798 528.361 388.852 L 528.361 388.852 L 528.361 410.485 L 528.359 410.485 C 528.359 411.536 527.508 412.387 526.455 412.39 L 526.455 412.39 L 504.824 412.387 L 504.824 412.387 Z M 526.455 410.49 L 526.461 410.485 L 526.461 388.852 L 526.455 388.846 L 504.824 388.846 C 504.824 388.846 504.818 388.852 504.82 388.852 L 504.82 388.852 L 504.818 410.485 C 504.818 410.485 504.824 410.49 504.824 410.488 L 504.824 410.488 L 526.455 410.49 L 526.455 410.49 Z" style="fill: rgb(30, 30, 30);" transform="matrix(0.965926, -0.258819, 0.258819, 0.965926, -85.871471, 147.075762)"/>
  <path d="M 530.302 405.561 C 529.249 405.561 528.398 404.71 528.396 403.659 L 528.396 403.659 L 528.398 382.026 C 528.398 380.973 529.249 380.121 530.302 380.119 L 530.302 380.119 L 551.934 380.121 C 552.986 380.121 553.838 380.972 553.838 382.026 L 553.838 382.026 L 553.838 403.659 C 553.838 404.71 552.987 405.561 551.934 405.564 L 551.934 405.564 L 530.302 405.561 L 530.302 405.561 Z M 551.934 403.664 L 551.937 403.659 L 551.937 382.026 L 551.934 382.02 L 530.302 382.02 L 530.296 382.026 L 530.296 403.659 C 530.296 403.659 530.302 403.664 530.302 403.662 L 530.302 403.662 L 551.934 403.664 L 551.934 403.664 Z" style="fill: rgb(30, 30, 30);" transform="matrix(0.965926, -0.258819, 0.258819, 0.965926, -83.236682, 153.436963)"/>
  <path d="M 555.778 398.735 C 554.725 398.735 553.874 397.884 553.872 396.833 L 553.872 396.833 L 553.872 375.2 C 553.872 374.147 554.725 373.295 555.778 373.293 L 555.778 373.293 L 577.41 373.295 C 578.462 373.295 579.314 374.146 579.314 375.2 L 579.314 375.2 L 579.314 396.833 C 579.312 397.884 578.463 398.735 577.41 398.738 L 577.41 398.738 L 555.778 398.735 L 555.778 398.735 Z M 577.41 396.838 L 577.414 396.833 L 577.414 375.2 L 577.41 375.194 L 555.778 375.194 L 555.773 375.2 L 555.773 396.833 C 555.773 396.833 555.778 396.838 555.778 396.836 L 555.778 396.836 L 577.41 396.838 L 577.41 396.838 Z" style="fill: rgb(30, 30, 30);" transform="matrix(0.965926, -0.258819, 0.258819, 0.965926, -80.602035, 159.798394)"/>
  <path d="M 581.253 391.908 C 580.203 391.908 579.351 391.057 579.349 390.006 L 579.349 390.006 L 579.349 368.373 C 579.351 367.32 580.202 366.47 581.253 366.466 L 581.253 366.466 L 602.887 366.468 C 603.938 366.47 604.79 367.319 604.791 368.373 L 604.791 368.373 L 604.791 390.006 C 604.79 391.057 603.939 391.908 602.887 391.911 L 602.887 391.911 L 581.253 391.908 L 581.253 391.908 Z M 602.887 390.011 L 602.891 390.006 L 602.891 368.373 L 602.887 368.367 L 581.253 368.367 L 581.249 368.373 L 581.249 390.006 C 581.249 390.006 581.253 390.011 581.253 390.009 L 581.253 390.009 L 602.887 390.011 L 602.887 390.011 Z" style="fill: rgb(30, 30, 30);" transform="matrix(0.965926, -0.258819, 0.258819, 0.965926, -77.966911, 166.159524)"/>
  <path d="M 606.73 385.081 C 605.678 385.081 604.828 384.23 604.826 383.179 L 604.826 383.179 L 604.826 361.546 C 604.826 360.493 605.677 359.641 606.73 359.639 L 606.73 359.639 L 628.362 359.641 C 629.415 359.641 630.268 360.492 630.268 361.546 L 630.268 361.546 L 630.268 383.179 C 630.266 384.23 629.415 385.081 628.362 385.084 L 628.362 385.084 L 606.73 385.081 L 606.73 385.081 Z M 628.362 383.184 L 628.367 383.179 L 628.367 361.546 L 628.362 361.54 L 606.73 361.54 L 606.726 361.546 L 606.726 383.179 C 606.726 383.179 606.73 383.184 606.73 383.182 L 606.73 383.182 L 628.362 383.184 L 628.362 383.184 Z" style="fill: rgb(30, 30, 30);" transform="matrix(0.965926, -0.258819, 0.258819, 0.965926, -75.331846, 172.520826)"/>
  <path d="M 632.208 378.255 C 631.155 378.255 630.303 377.404 630.303 376.353 L 630.303 376.353 L 630.303 354.72 C 630.303 353.667 631.154 352.815 632.208 352.813 L 632.208 352.813 L 653.842 352.815 C 654.892 352.817 655.741 353.668 655.744 354.72 L 655.744 354.72 L 655.744 376.353 C 655.744 377.404 654.893 378.255 653.842 378.258 L 653.842 378.258 L 632.208 378.255 L 632.208 378.255 Z M 653.842 376.358 L 653.846 376.353 L 653.844 376.353 L 653.846 354.72 L 653.842 354.714 L 632.208 354.714 C 632.208 354.714 632.202 354.72 632.204 354.72 L 632.204 354.72 L 632.202 376.353 C 632.202 376.353 632.208 376.358 632.208 376.356 L 632.208 376.356 L 653.842 376.358 L 653.842 376.358 Z" style="fill: rgb(30, 30, 30);" transform="matrix(0.965926, -0.258819, 0.258819, 0.965926, -72.697052, 178.882047)"/>
  <path d="M 657.684 371.429 C 656.63 371.429 655.78 370.576 655.78 369.526 L 655.78 369.526 L 655.78 347.893 C 655.782 346.841 656.632 345.987 657.684 345.987 L 657.684 345.987 L 679.318 345.987 C 680.37 345.987 681.218 346.841 681.222 347.893 L 681.222 347.893 L 681.222 369.526 L 681.22 369.526 C 681.22 370.575 680.37 371.429 679.318 371.429 L 679.318 371.429 L 657.684 371.429 L 657.684 371.429 Z M 657.679 347.894 L 657.679 369.527 L 657.684 369.531 L 679.318 369.531 L 679.322 369.527 L 679.32 369.527 L 679.322 347.894 L 679.318 347.888 L 657.684 347.888 L 657.679 347.894 L 657.679 347.894 Z" style="fill: rgb(30, 30, 30);" transform="matrix(0.965926, -0.258819, 0.258819, 0.965926, -70.061843, 185.243459)"/>
  <path d="M 683.161 364.602 C 682.108 364.602 681.257 363.751 681.255 362.7 L 681.255 362.7 L 681.257 341.068 C 681.257 340.014 682.109 339.161 683.161 339.161 L 683.161 339.161 L 704.794 339.161 C 705.845 339.161 706.694 340.015 706.698 341.068 L 706.698 341.068 L 706.698 362.7 L 706.696 362.7 C 706.696 363.748 705.847 364.602 704.794 364.604 L 704.794 364.604 L 683.161 364.602 L 683.161 364.602 Z M 683.156 341.068 L 683.156 362.7 L 683.161 362.704 L 704.794 362.704 L 704.798 362.7 L 704.798 341.068 L 704.794 341.062 L 683.161 341.062 L 683.156 341.068 L 683.156 341.068 Z" style="fill: rgb(30, 30, 30);" transform="matrix(0.965926, -0.258819, 0.258819, 0.965926, -67.427242, 191.604537)"/>
  <path d="M 708.636 357.777 C 707.583 357.775 706.733 356.926 706.731 355.874 L 706.731 355.874 L 706.731 334.242 C 706.731 333.189 707.584 332.335 708.636 332.335 L 708.636 332.335 L 730.27 332.335 C 731.32 332.335 732.172 333.189 732.174 334.242 L 732.174 334.242 L 732.174 355.874 L 732.172 355.874 C 732.172 356.925 731.321 357.775 730.27 357.777 L 730.27 357.777 L 708.636 357.777 L 708.636 357.777 Z M 730.27 355.879 L 730.274 355.874 L 730.274 334.242 C 730.274 334.242 730.27 334.234 730.27 334.236 L 730.27 334.236 L 708.636 334.234 L 708.632 334.242 L 708.632 355.874 C 708.632 355.874 708.636 355.879 708.636 355.877 L 708.636 355.877 L 730.27 355.879 L 730.27 355.879 Z" style="fill: rgb(30, 30, 30);" transform="matrix(0.965926, -0.258819, 0.258819, 0.965926, -64.792335, 197.965617)"/>
  <path d="M 733.564 346.761 C 732.51 346.761 731.66 345.91 731.657 344.858 L 731.657 344.858 L 731.66 323.226 C 731.66 322.173 732.511 321.321 733.564 321.318 L 733.564 321.318 L 787.566 321.318 C 788.616 321.318 789.468 322.172 789.471 323.226 L 789.471 323.226 L 789.471 344.858 L 789.468 344.858 C 789.468 345.909 788.617 346.759 787.566 346.761 L 787.566 346.761 L 733.564 346.761 L 733.564 346.761 Z M 733.558 323.227 L 733.556 344.859 L 733.564 344.864 L 787.566 344.864 L 787.569 344.859 L 787.569 323.227 L 787.566 323.221 L 733.564 323.221 C 733.564 323.22 733.556 323.227 733.558 323.227 L 733.558 323.227 Z" style="fill: rgb(30, 30, 30);" transform="matrix(0.965926, -0.258819, 0.258819, 0.965926, -60.540194, 208.230556)"/>
  <path d="M 771.737 259.121 C 770.684 259.121 769.831 258.269 769.831 257.218 L 769.831 257.218 L 769.831 235.585 C 769.831 234.533 770.683 233.682 771.737 233.68 L 771.737 233.68 L 793.369 233.68 C 794.419 233.682 795.272 234.533 795.274 235.585 L 795.274 235.585 L 795.274 257.217 L 795.272 257.217 C 795.272 258.268 794.421 259.12 793.369 259.12 L 793.369 259.12 L 771.737 259.12 L 771.737 259.121 Z M 771.731 235.585 L 771.731 257.217 L 771.737 257.221 L 793.369 257.221 L 793.376 257.217 L 793.373 257.217 L 793.376 235.585 L 793.369 235.579 L 771.737 235.579 L 771.731 235.585 L 771.731 235.585 Z" style="fill: rgb(30, 30, 30);" transform="matrix(0.965926, -0.258819, 0.258819, 0.965926, -37.108311, 210.935368)"/>
  <path d="M 796.528 252.477 C 795.475 252.477 794.625 251.626 794.623 250.574 L 794.623 250.574 L 794.625 228.942 C 794.627 227.89 795.476 227.04 796.528 227.037 L 796.528 227.037 L 818.161 227.039 C 819.21 227.039 820.064 227.89 820.066 228.942 L 820.066 228.942 L 820.066 250.574 L 820.064 250.574 C 820.064 251.626 819.213 252.477 818.161 252.479 L 818.161 252.479 L 796.528 252.477 L 796.528 252.477 Z M 818.161 250.58 L 818.167 250.574 L 818.165 250.574 L 818.167 228.942 C 818.167 228.942 818.161 228.936 818.161 228.938 L 818.161 228.938 L 796.528 228.936 C 796.528 228.936 796.523 228.942 796.525 228.942 L 796.525 228.942 L 796.523 250.574 C 796.523 250.574 796.528 250.58 796.528 250.578 L 796.528 250.578 L 818.161 250.58 L 818.161 250.58 Z" style="fill: rgb(30, 30, 30);" transform="matrix(0.965926, -0.258819, 0.258819, 0.965926, -34.544342, 217.125671)"/>
  <path d="M 821.48 245.791 C 820.427 245.791 819.574 244.941 819.573 243.888 L 819.573 243.888 L 819.574 222.256 C 819.574 221.203 820.426 220.353 821.48 220.351 L 821.48 220.351 L 843.112 220.353 C 844.162 220.353 845.015 221.204 845.017 222.256 L 845.017 222.256 L 845.017 243.888 L 845.016 243.888 C 845.016 244.941 844.164 245.791 843.113 245.793 L 843.113 245.793 L 821.48 245.791 L 821.48 245.791 Z M 821.474 222.256 L 821.472 243.888 L 821.48 243.894 L 843.112 243.894 L 843.118 243.888 L 843.117 243.888 L 843.119 222.256 C 843.119 222.256 843.113 222.25 843.113 222.252 L 843.113 222.252 L 821.481 222.25 C 821.48 222.25 821.472 222.256 821.474 222.256 L 821.474 222.256 Z" style="fill: rgb(30, 30, 30);" transform="matrix(0.965926, -0.258819, 0.258819, 0.965926, -31.963702, 223.355542)"/>
  <path d="M 778.549 284.547 C 777.497 284.545 776.643 283.694 776.643 282.641 L 776.643 282.641 L 776.643 261.009 C 776.643 259.957 777.495 259.106 778.549 259.106 L 778.549 259.106 L 800.182 259.106 C 801.232 259.106 802.084 259.957 802.086 261.009 L 802.086 261.009 L 802.086 282.641 L 802.084 282.641 C 802.084 283.694 801.232 284.545 800.182 284.547 L 800.182 284.547 L 778.549 284.547 L 778.549 284.547 Z M 778.544 261.008 L 778.544 282.64 L 778.549 282.646 L 800.182 282.646 L 800.188 282.64 L 800.185 282.64 L 800.188 261.008 L 800.182 261.004 L 778.549 261.004 L 778.544 261.008 L 778.544 261.008 Z" style="fill: rgb(30, 30, 30);" transform="matrix(0.965926, -0.258819, 0.258819, 0.965926, -43.456925, 213.564829)"/>
  <path d="M 803.34 277.902 C 802.289 277.902 801.439 277.051 801.435 275.998 L 801.435 275.998 L 801.437 254.366 C 801.439 253.316 802.288 252.465 803.34 252.46 L 803.34 252.46 L 824.973 252.462 C 826.022 252.462 826.876 253.313 826.878 254.365 L 826.878 254.365 L 826.878 275.997 L 826.876 275.997 C 826.876 277.049 826.023 277.901 824.973 277.903 L 824.973 277.903 L 803.34 277.902 L 803.34 277.902 Z M 824.973 276.004 L 824.979 275.998 L 824.977 275.998 L 824.979 254.366 C 824.979 254.366 824.973 254.36 824.973 254.362 L 824.973 254.362 L 803.34 254.36 C 803.34 254.36 803.335 254.366 803.337 254.366 L 803.337 254.366 L 803.335 275.998 C 803.335 275.998 803.34 276.004 803.34 276.002 L 803.34 276.002 L 824.973 276.004 L 824.973 276.004 Z" style="fill: rgb(30, 30, 30);" transform="matrix(0.965926, -0.258819, 0.258819, 0.965926, -40.892319, 219.755034)"/>
  <path d="M 828.292 271.218 C 827.24 271.218 826.386 270.366 826.385 269.314 L 826.385 269.314 L 826.386 247.683 C 826.386 246.63 827.238 245.777 828.292 245.777 L 828.292 245.777 L 849.924 245.777 C 850.974 245.777 851.828 246.629 851.829 247.683 L 851.829 247.683 L 851.829 269.314 L 851.828 269.314 C 851.828 270.366 850.977 271.218 849.925 271.218 L 849.925 271.218 L 828.292 271.218 L 828.292 271.218 Z M 828.286 247.682 L 828.284 269.313 L 828.292 269.317 L 849.924 269.317 L 849.93 269.313 L 849.93 269.313 L 849.932 247.682 L 849.925 247.676 L 828.294 247.676 C 828.292 247.676 828.284 247.682 828.286 247.682 L 828.286 247.682 Z" style="fill: rgb(30, 30, 30);" transform="matrix(0.965926, -0.258819, 0.258819, 0.965926, -38.312204, 225.985083)"/>
  <path d="M 785.362 309.97 C 784.309 309.97 783.456 309.117 783.456 308.067 L 783.456 308.067 L 783.456 286.434 C 783.456 285.382 784.308 284.529 785.362 284.529 L 785.362 284.529 L 806.994 284.529 C 808.044 284.529 808.897 285.382 808.899 286.434 L 808.899 286.434 L 808.899 308.067 L 808.897 308.067 C 808.897 309.117 808.045 309.97 806.994 309.97 L 806.994 309.97 L 785.362 309.97 L 785.362 309.97 Z M 785.356 286.433 L 785.356 308.066 L 785.362 308.069 L 806.994 308.069 L 807.001 308.066 L 806.998 308.066 L 807.001 286.433 L 806.994 286.428 L 785.362 286.428 L 785.356 286.433 L 785.356 286.433 Z" style="fill: rgb(30, 30, 30);" transform="matrix(0.965926, -0.258819, 0.258819, 0.965926, -49.804743, 216.194416)"/>
  <path d="M 810.153 303.328 C 809.102 303.326 808.252 302.474 808.248 301.422 L 808.248 301.422 L 808.25 279.789 C 808.252 278.74 809.101 277.888 810.153 277.886 L 810.153 277.886 L 831.786 277.886 C 832.835 277.886 833.689 278.737 833.691 279.789 L 833.691 279.789 L 833.691 301.422 L 833.689 301.422 C 833.689 302.474 832.836 303.328 831.786 303.328 L 831.786 303.328 L 810.153 303.328 L 810.153 303.328 Z M 810.15 279.789 L 810.148 301.422 L 810.153 301.427 L 831.786 301.427 L 831.792 301.422 L 831.79 301.422 L 831.792 279.789 C 831.792 279.789 831.786 279.784 831.786 279.786 L 831.786 279.786 L 810.153 279.784 C 810.153 279.784 810.148 279.789 810.15 279.789 L 810.15 279.789 Z" style="fill: rgb(30, 30, 30);" transform="matrix(0.965926, -0.258819, 0.258819, 0.965926, -47.240749, 222.384488)"/>
  <path d="M 835.105 296.642 C 834.052 296.642 833.199 295.79 833.198 294.739 L 833.198 294.739 L 833.199 273.105 C 833.199 272.054 834.051 271.202 835.105 271.202 L 835.105 271.202 L 856.737 271.202 C 857.787 271.202 858.64 272.054 858.642 273.105 L 858.642 273.105 L 858.642 294.739 L 858.641 294.739 C 858.641 295.79 857.789 296.642 856.738 296.642 L 856.738 296.642 L 835.105 296.642 L 835.105 296.642 Z M 835.099 273.104 L 835.097 294.738 L 835.105 294.741 L 856.737 294.741 L 856.743 294.738 L 856.742 294.738 L 856.744 273.104 L 856.738 273.101 L 835.106 273.101 C 835.105 273.101 835.097 273.104 835.099 273.104 L 835.099 273.104 Z" style="fill: rgb(30, 30, 30);" transform="matrix(0.965926, -0.258819, 0.258819, 0.965926, -44.660397, 228.614749)"/>
  <path d="M 792.174 335.392 C 791.121 335.392 790.27 334.541 790.268 333.489 L 790.268 333.489 L 790.268 311.857 C 790.268 310.804 791.12 309.953 792.174 309.951 L 792.174 309.951 L 813.806 309.951 C 814.856 309.953 815.709 310.804 815.711 311.857 L 815.711 311.857 L 815.711 333.489 L 815.709 333.489 C 815.709 334.541 814.858 335.392 813.806 335.394 L 813.806 335.394 L 792.174 335.392 L 792.174 335.392 Z M 813.806 333.495 L 813.813 333.489 L 813.81 333.489 L 813.813 311.857 L 813.806 311.851 L 792.174 311.851 L 792.168 311.857 L 792.168 333.489 C 792.168 333.489 792.174 333.495 792.174 333.493 L 792.174 333.493 L 813.806 333.495 L 813.806 333.495 Z" style="fill: rgb(30, 30, 30);" transform="matrix(0.965926, -0.258819, 0.258819, 0.965926, -56.152577, 218.823773)"/>
  <path d="M 816.965 328.749 C 815.912 328.749 815.062 327.898 815.06 326.848 L 815.06 326.848 L 815.062 305.214 C 815.064 304.162 815.913 303.31 816.965 303.308 L 816.965 303.308 L 838.598 303.31 C 839.647 303.31 840.501 304.162 840.503 305.214 L 840.503 305.214 L 840.503 326.848 L 840.501 326.848 C 840.501 327.897 839.65 328.749 838.598 328.751 L 838.598 328.751 L 816.965 328.749 L 816.965 328.749 Z M 838.598 326.852 L 838.604 326.848 L 838.602 326.848 L 838.604 305.214 C 838.604 305.214 838.598 305.208 838.598 305.21 L 838.598 305.21 L 816.965 305.208 C 816.965 305.208 816.96 305.214 816.962 305.214 L 816.962 305.214 L 816.96 326.848 C 816.96 326.848 816.965 326.852 816.965 326.85 L 816.965 326.85 L 838.598 326.852 L 838.598 326.852 Z" style="fill: rgb(30, 30, 30);" transform="matrix(0.965926, -0.258819, 0.258819, 0.965926, -53.588489, 225.014046)"/>
  <path d="M 841.917 322.064 C 840.864 322.064 840.011 321.213 840.01 320.163 L 840.01 320.163 L 840.011 298.529 C 840.011 297.475 840.863 296.623 841.917 296.623 L 841.917 296.623 L 863.549 296.623 C 864.599 296.623 865.452 297.475 865.454 298.529 L 865.454 298.529 L 865.454 320.163 L 865.453 320.163 C 865.453 321.213 864.601 322.064 863.55 322.066 L 863.55 322.066 L 841.917 322.064 L 841.917 322.064 Z M 863.55 320.167 L 863.556 320.163 L 863.554 320.163 L 863.556 298.529 L 863.55 298.523 L 841.918 298.523 C 841.918 298.523 841.91 298.529 841.912 298.529 L 841.912 298.529 L 841.91 320.163 C 841.91 320.163 841.918 320.167 841.918 320.165 L 841.918 320.165 L 863.55 320.167 L 863.55 320.167 Z" style="fill: rgb(30, 30, 30);" transform="matrix(0.965926, -0.258819, 0.258819, 0.965926, -51.008106, 231.243936)"/>
  <path d="M 798.986 360.817 C 797.935 360.817 797.08 359.966 797.08 358.914 L 797.08 358.914 L 797.08 337.282 C 797.082 336.229 797.932 335.378 798.986 335.377 L 798.986 335.377 L 820.618 335.377 C 821.67 335.378 822.521 336.229 822.523 337.282 L 822.523 337.282 L 822.523 358.914 L 822.521 358.914 C 822.521 359.966 821.669 360.817 820.618 360.817 L 820.618 360.817 L 798.986 360.817 L 798.986 360.817 Z M 798.98 337.282 L 798.98 358.914 L 798.986 358.918 L 820.618 358.918 L 820.625 358.914 L 820.622 358.914 L 820.625 337.282 L 820.618 337.276 L 798.986 337.276 L 798.98 337.282 L 798.98 337.282 Z" style="fill: rgb(30, 30, 30);" transform="matrix(0.965926, -0.258819, 0.258819, 0.965926, -62.50081, 221.453169)"/>
  <path d="M 823.778 354.173 C 822.727 354.171 821.875 353.322 821.873 352.271 L 821.873 352.271 L 821.875 330.638 C 821.875 329.586 822.725 328.734 823.778 328.734 L 823.778 328.734 L 845.411 328.734 C 846.462 328.734 847.314 329.585 847.316 330.638 L 847.316 330.638 L 847.316 352.271 L 847.314 352.271 C 847.314 353.323 846.461 354.173 845.411 354.175 L 845.411 354.175 L 823.778 354.173 L 823.778 354.173 Z M 845.411 352.276 L 845.417 352.271 L 845.415 352.271 L 845.417 330.638 L 845.411 330.633 L 823.778 330.633 C 823.778 330.633 823.773 330.638 823.775 330.638 L 823.775 330.638 L 823.773 352.271 C 823.773 352.271 823.778 352.276 823.778 352.274 L 823.778 352.274 L 845.411 352.276 L 845.411 352.276 Z" style="fill: rgb(30, 30, 30);" transform="matrix(0.965926, -0.258819, 0.258819, 0.965926, -59.936809, 227.643714)"/>
  <path d="M 848.729 347.489 C 847.676 347.489 846.823 346.638 846.822 345.587 L 846.822 345.587 L 846.823 323.954 C 846.823 322.901 847.675 322.05 848.729 322.048 L 848.729 322.048 L 870.361 322.05 C 871.411 322.05 872.264 322.901 872.266 323.954 L 872.266 323.954 L 872.266 345.587 L 872.265 345.587 C 872.265 346.638 871.413 347.489 870.362 347.489 L 870.362 347.489 L 848.729 347.489 L 848.729 347.489 Z M 870.362 345.592 L 870.368 345.587 L 870.366 345.587 L 870.368 323.954 C 870.368 323.954 870.362 323.947 870.362 323.95 L 870.362 323.95 L 848.73 323.947 C 848.73 323.947 848.722 323.954 848.724 323.954 L 848.724 323.954 L 848.722 345.587 C 848.722 345.587 848.73 345.592 848.73 345.589 L 848.73 345.589 L 870.362 345.592 L 870.362 345.592 Z" style="fill: rgb(30, 30, 30);" transform="matrix(0.965926, -0.258819, 0.258819, 0.965926, -57.356211, 233.873316)"/>
  <path d="M 706.834 276.511 C 705.784 276.511 704.929 275.66 704.929 274.606 L 704.929 274.606 L 704.929 252.975 C 704.929 251.923 705.783 251.072 706.834 251.07 L 706.834 251.07 L 728.466 251.072 C 729.518 251.073 730.368 251.925 730.372 252.975 L 730.372 252.975 L 730.372 274.607 L 730.37 274.607 C 730.37 275.659 729.52 276.512 728.466 276.512 L 728.466 276.512 L 706.834 276.512 L 706.834 276.511 Z M 706.828 252.975 L 706.828 274.607 L 706.834 274.613 L 728.466 274.613 L 728.472 274.607 L 728.47 274.607 L 728.472 252.975 L 728.466 252.971 L 706.834 252.971 L 706.828 252.975 L 706.828 252.975 Z" style="fill: rgb(30, 30, 30);" transform="matrix(0.965926, -0.258819, 0.258819, 0.965926, -43.820789, 194.730069)"/>
  <path d="M 732.988 267.796 C 731.938 267.794 731.083 266.944 731.083 265.892 L 731.083 265.892 L 731.083 244.259 C 731.083 243.207 731.937 242.354 732.988 242.354 L 732.988 242.354 L 767.374 242.354 C 768.424 242.356 769.274 243.207 769.278 244.259 L 769.278 244.259 L 769.278 265.891 L 769.276 265.891 C 769.276 266.942 768.426 267.795 767.374 267.795 L 767.374 267.795 L 732.988 267.795 L 732.988 267.796 Z M 732.984 244.259 L 732.982 265.891 L 732.988 265.895 L 767.374 265.895 L 767.378 265.891 L 767.378 244.259 C 767.378 244.259 767.374 244.253 767.374 244.255 L 767.374 244.255 L 732.988 244.253 C 732.988 244.253 732.982 244.259 732.984 244.259 L 732.984 244.259 Z" style="fill: rgb(30, 30, 30);" transform="matrix(0.965926, -0.258819, 0.258819, 0.965926, -40.456493, 202.852585)"/>
  <path d="M 753.489 370.379 C 752.435 370.379 751.583 369.53 751.582 368.478 L 751.582 368.478 L 751.583 346.844 C 751.583 345.792 752.434 344.941 753.489 344.939 L 753.489 344.939 L 794.74 344.941 C 795.792 344.941 796.642 345.792 796.644 346.844 L 796.644 346.844 L 796.644 368.478 L 796.642 368.478 C 796.642 369.528 795.791 370.378 794.74 370.381 L 794.74 370.381 L 753.489 370.379 L 753.489 370.379 Z M 794.74 368.483 L 794.744 368.478 L 794.744 346.844 C 794.744 346.844 794.74 346.838 794.74 346.84 L 794.74 346.84 L 753.489 346.838 L 753.482 346.844 L 753.482 368.478 C 753.482 368.478 753.489 368.483 753.489 368.48 L 753.489 368.48 L 794.74 368.483 L 794.74 368.483 Z" style="fill: rgb(30, 30, 30);" transform="matrix(0.965926, -0.258819, 0.258819, 0.965926, -66.191959, 212.542147)"/>
  <path d="M 428.064 457.84 C 427.011 457.84 426.158 456.989 426.158 455.939 L 426.158 455.939 L 426.158 434.306 C 426.158 433.253 427.01 432.401 428.064 432.401 L 428.064 432.401 L 467.352 432.401 C 468.404 432.401 469.256 433.253 469.256 434.306 L 469.256 434.306 L 469.256 455.939 C 469.256 456.991 468.402 457.84 467.352 457.842 L 467.352 457.842 L 428.064 457.84 L 428.064 457.84 Z M 467.352 455.944 L 467.357 455.939 L 467.357 434.306 C 467.357 434.306 467.352 434.299 467.352 434.302 L 467.352 434.302 L 428.064 434.299 L 428.058 434.306 L 428.058 455.939 C 428.058 455.939 428.064 455.944 428.064 455.941 L 428.064 455.941 L 467.352 455.944 L 467.352 455.944 Z" style="fill: rgb(30, 30, 30);" transform="matrix(0.965926, -0.258819, 0.258819, 0.965926, -99.950684, 131.042247)"/>
  <path d="M 414.405 406.739 C 413.353 406.739 412.5 405.887 412.5 404.836 L 412.5 404.836 L 412.5 383.202 C 412.5 382.151 413.352 381.299 414.405 381.299 L 414.405 381.299 L 455.656 381.299 C 456.709 381.299 457.561 382.151 457.561 383.202 L 457.561 383.202 L 457.561 404.836 C 457.561 405.887 456.709 406.739 455.656 406.739 L 455.656 406.739 L 414.405 406.739 L 414.405 406.739 Z M 455.655 404.84 L 455.661 404.835 L 455.661 383.201 C 455.661 383.201 455.655 383.196 455.655 383.198 L 455.655 383.198 L 414.404 383.196 L 414.4 383.201 L 414.4 404.835 C 414.4 404.835 414.404 404.84 414.404 404.838 L 414.404 404.838 L 455.655 404.84 L 455.655 404.84 Z" style="fill: rgb(30, 30, 30);" transform="matrix(0.965926, -0.258819, 0.258819, 0.965926, -87.15639, 126.020195)"/>
  <path d="M 407.692 382.077 C 406.64 382.077 405.786 381.226 405.786 380.174 L 405.786 380.174 L 405.786 358.541 C 405.786 357.49 406.639 356.636 407.692 356.636 L 407.692 356.636 L 443.056 356.636 C 444.108 356.636 444.961 357.489 444.961 358.541 L 444.961 358.541 L 444.961 380.174 C 444.961 381.226 444.109 382.077 443.056 382.077 L 443.056 382.077 L 407.692 382.077 L 407.692 382.077 Z M 407.688 358.54 L 407.686 380.173 L 407.692 380.177 L 443.056 380.177 L 443.062 380.173 L 443.062 358.54 C 443.062 358.54 443.056 358.534 443.056 358.536 L 443.056 358.536 L 407.692 358.534 C 407.692 358.534 407.686 358.54 407.688 358.54 L 407.688 358.54 Z" style="fill: rgb(30, 30, 30);" transform="matrix(0.965926, -0.258819, 0.258819, 0.965926, -81.10226, 122.680317)"/>
  <path d="M 714.092 381.592 C 713.042 381.592 712.189 380.742 712.187 379.69 L 712.187 379.69 L 712.189 358.056 C 712.189 357.005 713.041 356.153 714.092 356.153 L 714.092 356.153 L 750.44 356.153 C 751.493 356.153 752.342 357.005 752.344 358.056 L 752.344 358.056 L 752.344 379.69 L 752.342 379.69 C 752.342 380.741 751.492 381.591 750.44 381.594 L 750.44 381.594 L 714.092 381.592 L 714.092 381.592 Z M 714.089 358.056 L 714.087 379.69 L 714.092 379.695 L 750.44 379.695 L 750.445 379.69 L 750.443 379.69 L 750.445 358.056 L 750.44 358.052 L 714.092 358.052 C 714.092 358.052 714.087 358.056 714.089 358.056 L 714.089 358.056 Z" style="fill: rgb(30, 30, 30);" transform="matrix(0.965926, -0.258819, 0.258819, 0.965926, -70.520165, 202.093428)"/>
  <path d="M 470.873 446.5 C 469.821 446.5 468.969 445.651 468.967 444.599 L 468.967 444.599 L 468.969 422.966 C 468.969 421.913 469.821 421.061 470.873 421.061 L 470.873 421.061 L 509.181 421.061 C 510.234 421.061 511.085 421.913 511.086 422.966 L 511.086 422.966 L 511.086 444.599 L 511.085 444.599 C 511.085 445.649 510.233 446.5 509.181 446.502 L 509.181 446.502 L 470.873 446.5 L 470.873 446.5 Z M 509.181 444.604 L 509.185 444.599 L 509.185 422.966 C 509.185 422.966 509.181 422.959 509.181 422.962 L 509.181 422.962 L 470.873 422.959 L 470.868 422.966 L 470.868 444.599 C 470.868 444.599 470.873 444.604 470.873 444.601 L 470.873 444.601 L 509.181 444.604 L 509.181 444.604 Z" style="fill: rgb(30, 30, 30);" transform="matrix(0.965926, -0.258819, 0.258819, 0.965926, -95.573542, 141.608699)"/>
  <path d="M 509.739 413.879 C 508.687 413.879 507.832 413.028 507.832 411.975 L 507.832 411.975 L 507.832 390.343 C 507.832 389.29 508.685 388.439 509.739 388.437 L 509.739 388.437 L 713.819 388.439 C 714.869 388.439 715.723 389.29 715.723 390.343 L 715.723 390.343 L 715.723 411.975 C 715.723 413.028 714.87 413.879 713.819 413.879 L 713.819 413.879 L 509.739 413.879 L 509.739 413.879 Z M 509.733 390.343 L 509.733 411.975 L 509.739 411.979 L 713.819 411.979 L 713.825 411.975 L 713.823 411.975 L 713.825 390.343 L 713.819 390.337 L 509.739 390.337 L 509.733 390.343 L 509.733 390.343 Z" style="fill: rgb(30, 30, 30);" transform="matrix(0.965926, -0.258819, 0.258819, 0.965926, -82.981462, 172.008612)"/>
  <path d="M 398.977 411.277 L 398.977 268.37 L 872.445 268.37 L 872.445 410.324 L 872.445 411.276 L 398.977 411.276 L 398.977 411.277 Z M 871.496 410.325 L 871.496 409.376 L 871.496 410.325 L 871.496 410.325 Z M 400.876 409.376 L 870.544 409.376 L 870.544 270.271 L 400.876 270.271 L 400.876 409.376 L 400.876 409.376 Z" style="fill: rgb(30, 30, 30);" transform="matrix(0.965926, -0.258819, 0.258819, 0.965926, -66.291463, 176.113318)"/>
  <path d="M 390.524 501.565 L 390.524 500.616 L 391.473 500.585 L 390.524 500.616 L 390.524 501.565 L 389.604 501.565 L 381.205 235.312 L 904.026 235.312 L 895.627 501.565 L 390.524 501.565 L 390.524 501.565 Z M 893.787 499.664 L 902.065 237.211 L 383.165 237.211 L 391.443 499.664 L 893.787 499.664 L 893.787 499.664 Z" style="fill: rgb(30, 30, 30);" transform="matrix(0.965926, -0.258819, 0.258819, 0.965926, -73.462305, 178.875351)"/>
  <path d="M 364.246 523.019 L 364.246 196.929 L 915.945 196.929 L 915.945 522.07 L 915.945 523.019 L 364.246 523.019 L 364.246 523.019 Z M 914.994 522.07 L 914.994 521.118 L 914.994 522.07 L 914.994 522.07 Z M 366.146 521.118 L 914.042 521.118 L 914.042 198.829 L 366.146 198.829 L 366.146 521.118 L 366.146 521.118 Z" style="fill: rgb(30, 30, 30);" transform="matrix(0.965926, -0.258819, 0.258819, 0.965926, -71.357398, 177.934703)"/>
  <polygon points="435.102 582.088 435.102 560.999 437.002 560.999 437.002 582.088 435.102 582.088" style="fill: rgb(30, 30, 30);" transform="matrix(0.965926, -0.258819, 0.258819, 0.965926, -133.068234, 132.333438)"/>
  <polygon points="587.615 540.974 587.615 520.129 589.514 520.129 589.514 540.974 587.615 540.974" style="fill: rgb(30, 30, 30);" transform="matrix(0.965926, -0.258819, 0.258819, 0.965926, -117.26199, 170.409794)"/>
  <polygon points="769.563 492.469 769.563 471.38 771.464 471.38 771.464 492.469 769.563 492.469" style="fill: rgb(30, 30, 30);" transform="matrix(0.965926, -0.258819, 0.258819, 0.965926, -98.476666, 215.84486)"/>
  <polygon points="922.076 451.354 922.076 430.511 923.976 430.511 923.976 451.354 922.076 451.354" style="fill: rgb(30, 30, 30);" transform="matrix(0.965926, -0.258819, 0.258819, 0.965926, -82.670409, 253.921249)"/>
  <polygon points="365.839 305.646 365.839 281.092 364.469 281.092 364.469 305.646 362.571 305.646 362.571 279.194 367.739 279.194 367.739 305.646 365.839 305.646" style="fill: rgb(30, 30, 30);" transform="matrix(0.965926, -0.258819, 0.258819, 0.965926, -63.241504, 104.473038)"/>
  <polygon points="382.367 301.218 382.367 276.664 380.996 276.664 380.996 301.218 379.097 301.218 379.097 274.766 384.265 274.766 384.265 301.218 382.367 301.218" style="fill: rgb(30, 30, 30);" transform="matrix(0.965926, -0.258819, 0.258819, 0.965926, -61.532347, 108.599398)"/>
  <polygon points="398.892 296.79 398.892 272.236 397.523 272.236 397.523 296.79 395.624 296.79 395.624 270.338 400.793 270.338 400.793 296.79 398.892 296.79" style="fill: rgb(30, 30, 30);" transform="matrix(0.965926, -0.258819, 0.258819, 0.965926, -59.823158, 112.726182)"/>
  <polygon points="415.42 292.362 415.42 267.808 414.049 267.808 414.049 292.362 412.15 292.362 412.15 265.91 417.318 265.91 417.318 292.362 415.42 292.362" style="fill: rgb(30, 30, 30);" transform="matrix(0.965926, -0.258819, 0.258819, 0.965926, -58.113949, 116.852254)"/>
  <polygon points="431.946 287.933 431.946 263.379 430.575 263.379 430.575 287.933 428.677 287.933 428.677 261.481 433.844 261.481 433.846 287.933 431.946 287.933" style="fill: rgb(30, 30, 30);" transform="matrix(0.965926, -0.258819, 0.258819, 0.965926, -56.40452, 120.979102)"/>
  <polygon points="448.472 283.505 448.472 258.951 447.103 258.951 447.103 283.505 445.203 283.505 445.203 257.053 450.371 257.053 450.371 283.505 448.472 283.505" style="fill: rgb(30, 30, 30);" transform="matrix(0.965926, -0.258819, 0.258819, 0.965926, -54.69538, 125.105335)"/>
  <polygon points="464.999 279.077 464.999 254.523 463.628 254.523 463.628 279.077 461.73 279.077 461.73 252.625 466.897 252.625 466.899 279.077 464.999 279.077" style="fill: rgb(30, 30, 30);" transform="matrix(0.965926, -0.258819, 0.258819, 0.965926, -52.986144, 129.231992)"/>
  <polygon points="481.526 274.649 481.524 250.095 480.154 250.095 480.154 274.649 480.156 274.649 478.256 274.649 478.256 248.197 483.424 248.197 483.424 274.649 481.526 274.649" style="fill: rgb(30, 30, 30);" transform="matrix(0.965926, -0.258819, 0.258819, 0.965926, -51.277032, 133.358361)"/>
  <polygon points="498.052 270.221 498.05 245.667 496.682 245.667 496.682 270.221 494.782 270.221 494.782 243.769 499.95 243.769 499.95 270.221 498.052 270.221" style="fill: rgb(30, 30, 30);" transform="matrix(0.965926, -0.258819, 0.258819, 0.965926, -49.567868, 137.484721)"/>
  <polygon points="514.578 265.793 514.578 241.238 513.208 241.238 513.208 265.793 511.308 265.793 511.308 239.34 516.476 239.34 516.478 265.793 514.578 265.793" style="fill: rgb(30, 30, 30);" transform="matrix(0.965926, -0.258819, 0.258819, 0.965926, -47.858541, 141.611281)"/>
  <polygon points="531.104 261.363 531.104 236.81 529.735 236.81 529.735 261.363 527.835 261.363 527.835 234.911 533.002 234.911 533.005 261.363 531.104 261.363" style="fill: rgb(30, 30, 30);" transform="matrix(0.965926, -0.258819, 0.258819, 0.965926, -46.14893, 145.737721)"/>
  <polygon points="547.63 256.937 547.63 232.382 546.261 232.382 546.261 256.937 544.361 256.937 544.361 230.484 549.53 230.484 549.53 256.937 547.63 256.937" style="fill: rgb(30, 30, 30);" transform="matrix(0.965926, -0.258819, 0.258819, 0.965926, -44.4402, 149.864156)"/>
  <polygon points="564.157 252.507 564.157 227.953 562.788 227.953 562.788 252.507 560.889 252.507 560.889 226.054 566.056 226.054 566.056 252.507 564.157 252.507" style="fill: rgb(30, 30, 30);" transform="matrix(0.965926, -0.258819, 0.258819, 0.965926, -42.730503, 153.990789)"/>
  <polygon points="580.685 248.08 580.685 223.526 579.314 223.526 579.314 248.08 577.415 248.08 577.415 221.627 582.582 221.627 582.584 248.08 580.685 248.08" style="fill: rgb(30, 30, 30);" transform="matrix(0.965926, -0.258819, 0.258819, 0.965926, -41.021556, 158.117352)"/>
  <polygon points="597.21 243.65 597.21 219.097 595.841 219.097 595.841 243.65 593.94 243.65 593.94 217.197 599.11 217.197 599.11 243.65 597.21 243.65" style="fill: rgb(30, 30, 30);" transform="matrix(0.965926, -0.258819, 0.258819, 0.965926, -39.311891, 162.243515)"/>
  <polygon points="613.737 239.224 613.735 214.669 612.366 214.669 612.366 239.224 610.468 239.224 610.468 212.771 615.635 212.771 615.636 239.224 613.737 239.224" style="fill: rgb(30, 30, 30);" transform="matrix(0.965926, -0.258819, 0.258819, 0.965926, -37.603209, 166.370133)"/>
  <polygon points="630.263 234.795 630.263 210.241 628.89 210.241 628.89 234.795 628.893 234.795 626.992 234.795 626.992 208.343 632.161 208.343 632.163 234.795 630.263 234.795" style="fill: rgb(30, 30, 30);" transform="matrix(0.965926, -0.258819, 0.258819, 0.965926, -35.893949, 170.496522)"/>
  <polygon points="646.789 230.366 646.789 205.813 645.419 205.813 645.419 230.366 645.421 230.366 643.52 230.366 643.52 203.913 648.688 203.913 648.69 230.366 646.789 230.366" style="fill: rgb(30, 30, 30);" transform="matrix(0.965926, -0.258819, 0.258819, 0.965926, -34.184344, 174.623119)"/>
  <polygon points="663.315 225.939 663.315 201.383 661.945 201.383 661.945 225.939 660.046 225.939 660.046 199.485 665.214 199.485 665.214 225.939 663.315 225.939" style="fill: rgb(30, 30, 30);" transform="matrix(0.965926, -0.258819, 0.258819, 0.965926, -32.47534, 178.749057)"/>
  <polygon points="679.843 221.511 679.842 196.955 678.47 196.955 678.47 221.511 678.472 221.511 676.572 221.511 676.572 195.058 681.741 195.058 681.742 221.511 679.843 221.511" style="fill: rgb(30, 30, 30);" transform="matrix(0.965926, -0.258819, 0.258819, 0.965926, -30.766279, 182.875685)"/>
  <polygon points="696.369 217.081 696.369 192.527 694.998 192.527 694.998 217.081 695 217.081 693.1 217.081 693.1 190.628 698.268 190.628 698.268 217.081 696.369 217.081" style="fill: rgb(30, 30, 30);" transform="matrix(0.965926, -0.258819, 0.258819, 0.965926, -29.056573, 187.002522)"/>
  <polygon points="712.896 212.653 712.896 188.099 711.524 188.099 711.524 212.653 709.625 212.653 709.625 186.2 714.794 186.2 714.795 212.653 712.896 212.653" style="fill: rgb(30, 30, 30);" transform="matrix(0.965926, -0.258819, 0.258819, 0.965926, -27.347412, 191.128793)"/>
  <polygon points="729.422 208.225 729.422 183.672 728.05 183.672 728.05 208.225 728.052 208.225 726.153 208.225 726.153 181.773 731.319 181.773 731.321 208.225 729.422 208.225" style="fill: rgb(30, 30, 30);" transform="matrix(0.965926, -0.258819, 0.258819, 0.965926, -25.63834, 195.255439)"/>
  <polygon points="745.949 203.798 745.947 179.243 744.579 179.243 744.579 203.798 742.678 203.798 742.678 177.344 747.847 177.344 747.849 203.798 745.949 203.798" style="fill: rgb(30, 30, 30);" transform="matrix(0.965926, -0.258819, 0.258819, 0.965926, -23.929166, 199.381926)"/>
  <polygon points="762.476 199.369 762.474 174.814 761.104 174.814 761.104 199.369 761.105 199.369 759.206 199.369 759.206 172.916 764.374 172.916 764.375 199.369 762.476 199.369" style="fill: rgb(30, 30, 30);" transform="matrix(0.965926, -0.258819, 0.258819, 0.965926, -22.219839, 203.508538)"/>
  <polygon points="779.001 194.941 779.001 170.384 777.63 170.384 777.63 194.941 777.632 194.941 775.732 194.941 775.732 168.487 780.898 168.487 780.9 194.941 779.001 194.941" style="fill: rgb(30, 30, 30);" transform="matrix(0.965926, -0.258819, 0.258819, 0.965926, -20.510559, 207.63488)"/>
  <polygon points="795.528 190.513 795.528 165.957 794.157 165.957 794.157 190.513 792.256 190.513 792.256 164.06 797.426 164.06 797.428 190.513 795.528 190.513" style="fill: rgb(30, 30, 30);" transform="matrix(0.965926, -0.258819, 0.258819, 0.965926, -18.801539, 211.76113)"/>
  <polygon points="812.056 186.085 812.053 161.529 810.683 161.529 810.683 186.085 810.684 186.085 808.784 186.085 808.784 159.632 813.954 159.632 813.955 186.085 812.056 186.085" style="fill: rgb(30, 30, 30);" transform="matrix(0.965926, -0.258819, 0.258819, 0.965926, -17.092323, 215.888005)"/>
  <polygon points="828.581 181.656 828.581 157.1 827.21 157.1 827.21 181.656 825.312 181.656 825.312 155.202 830.479 155.202 830.481 181.656 828.581 181.656" style="fill: rgb(30, 30, 30);" transform="matrix(0.965926, -0.258819, 0.258819, 0.965926, -15.382745, 220.014451)"/>
  <polygon points="845.107 177.227 845.107 152.672 843.736 152.672 843.736 177.227 843.738 177.227 841.837 177.227 841.837 150.775 847.006 150.775 847.008 177.227 845.107 177.227" style="fill: rgb(30, 30, 30);" transform="matrix(0.965926, -0.258819, 0.258819, 0.965926, -13.673585, 224.14081)"/>
  <path d="M 344.584 339.006 C 344.582 334.871 346.405 331.157 349.288 328.633 L 349.288 328.633 L 350.539 330.062 C 348.052 332.243 346.483 335.437 346.483 339.006 L 346.483 339.006 C 346.483 342.512 347.998 345.656 350.414 347.835 L 350.414 347.835 L 349.141 349.245 C 346.343 346.727 344.582 343.066 344.584 339.006 L 344.584 339.006 Z" style="fill: rgb(30, 30, 30);" transform="matrix(0.965926, -0.258819, 0.258819, 0.965926, -75.881014, 101.504632)"/>
  <path d="M 398.576 540.504 C 398.574 536.369 400.399 532.655 403.28 530.132 L 403.28 530.132 L 404.532 531.561 C 402.043 533.742 400.475 536.935 400.475 540.504 L 400.475 540.504 C 400.475 544.009 401.989 547.154 404.406 549.332 L 404.406 549.332 L 404.406 549.334 L 403.133 550.744 C 400.336 548.224 398.574 544.565 398.576 540.504 L 398.576 540.504 Z" style="fill: rgb(30, 30, 30);" transform="matrix(0.965926, -0.258819, 0.258819, 0.965926, -126.19305, 122.344841)"/>
  <path d="M 879.877 204.438 C 882.291 202.261 883.807 199.115 883.807 195.609 L 883.807 195.609 C 883.807 192.041 882.238 188.847 879.751 186.665 L 879.751 186.665 L 881 185.237 C 883.883 187.76 885.706 191.476 885.704 195.609 L 885.704 195.609 C 885.706 199.67 883.944 203.33 881.147 205.848 L 881.147 205.848 L 881.147 205.85 L 879.877 204.438 L 879.877 204.438 Z" style="fill: rgb(30, 30, 30);" transform="matrix(0.965926, -0.258819, 0.258819, 0.965926, -20.532167, 235.129798)"/>
  <path d="M 933.868 405.934 C 936.282 403.755 937.798 400.612 937.798 397.106 L 937.798 397.106 C 937.798 393.536 936.231 390.345 933.742 388.163 L 933.742 388.163 L 934.991 386.733 C 937.874 389.257 939.697 392.972 939.697 397.106 L 939.697 397.106 C 939.697 401.166 937.936 404.826 935.138 407.346 L 935.138 407.346 L 933.868 405.934 L 933.868 405.934 Z" style="fill: rgb(30, 30, 30);" transform="matrix(0.965926, -0.258819, 0.258819, 0.965926, -70.843457, 255.969759)"/>
</svg>