<?xml version="1.0" encoding="utf-8"?>
<svg xmlns="http://www.w3.org/2000/svg">
  <path d="M 144.165 189.801 L 0 189.801 L 91.171 100.339 Z M 29.815 177.617 L 122.786 177.617 L 88.61 119.924 Z M 419.087 0 L 376.979 44.053 L 428.145 44.053 L 352.988 177.617 L 304.774 177.617 L 202.61 0 L 56.346 0 L 166.521 189.801 L 490.827 189.801 L 600 0 Z M 173.537 177.617 L 77.507 12.185 L 195.561 12.185 L 290.717 177.617 Z M 483.778 177.617 L 366.97 177.617 L 448.983 31.868 L 405.481 31.868 L 424.296 12.185 L 578.935 12.185 Z" style="fill: rgb(255, 255, 255);"/>
  <path d="M 274.123 85.498 L 226.175 0 L 358.465 0 Z M 246.979 12.185 L 276.826 65.407 L 329.329 12.185 Z" style="fill: rgb(255, 255, 255);"/>
</svg>