<?xml version="1.0" encoding="utf-8"?>
<svg xmlns="http://www.w3.org/2000/svg">
  <path id="path3" d="M 318.065 101.402 C 276.807 101.402 240.702 115.754 226.076 123.182 C 218.501 127.03 207.653 134.338 199.106 144.892 C 190.558 155.445 184.316 169.272 186.063 186.053 C 188.308 207.593 198.211 225.126 208.755 237.511 C 214.027 243.702 219.457 248.603 224.183 252.082 C 228.908 255.562 232.901 257.635 235.444 258.127 C 239.092 258.833 243.621 258.884 248.025 257.257 C 252.429 255.632 256.684 252.304 259.736 246.318 C 265.77 234.481 269.197 222.852 281.278 216.698 C 293.413 210.516 309.142 209.349 312.51 209.349 L 327.489 209.349 C 330.859 209.349 346.587 210.517 358.722 216.698 L 358.807 216.743 C 370.817 222.909 374.245 234.514 380.265 246.321 C 383.317 252.307 387.572 255.635 391.975 257.261 C 396.38 258.886 400.909 258.836 404.556 258.13 C 407.1 257.638 411.093 255.565 415.818 252.085 C 420.543 248.605 425.974 243.705 431.245 237.513 C 441.79 225.131 451.693 207.598 453.937 186.055 C 455.685 169.274 449.441 155.448 440.894 144.893 C 432.349 134.34 421.502 127.033 413.93 123.184 C 399.304 115.758 363.199 101.404 321.942 101.404 L 318.071 101.404 L 318.065 101.402 Z M 318.065 102.299 L 321.935 102.299 C 362.985 102.299 399.01 116.613 413.516 123.981 C 420.99 127.778 431.764 135.029 440.205 145.453 C 448.646 155.877 454.759 169.444 453.039 185.956 C 450.818 207.277 441.01 224.661 430.555 236.935 C 425.33 243.073 419.949 247.931 415.285 251.365 C 410.619 254.802 406.631 256.808 404.387 257.242 C 400.867 257.924 396.492 257.969 392.284 256.414 C 388.074 254.861 384.023 251.716 381.064 245.911 C 375.075 234.165 371.554 222.228 359.129 215.898 C 346.757 209.596 331.057 208.45 327.489 208.45 L 312.51 208.45 C 308.944 208.45 293.254 209.589 280.884 215.883 L 280.871 215.897 C 268.444 222.227 264.924 234.165 258.936 245.91 C 255.976 251.716 251.926 254.86 247.716 256.414 C 243.508 257.968 239.133 257.922 235.613 257.242 C 233.374 256.805 229.387 254.802 224.722 251.367 C 220.056 247.929 214.675 243.074 209.448 236.934 C 198.996 224.659 189.188 207.274 186.967 185.956 C 185.247 169.441 191.359 155.874 199.8 145.451 C 208.239 135.028 219.014 127.776 226.488 123.979 C 240.998 116.61 277.017 102.298 318.068 102.298 L 318.065 102.299 Z" style="fill: rgb(30, 30, 30);" transform="matrix(0.965926, -0.258819, 0.258819, 0.965926, -35.68358, 88.955387)"/>
  <path id="circle5" d="M 248.196 147.096 C 225.224 147.096 206.597 165.722 206.597 188.694 C 206.597 211.665 225.223 230.305 248.196 230.305 C 271.167 230.305 289.807 211.666 289.807 188.694 C 289.807 165.722 271.167 147.096 248.196 147.096 Z M 248.196 147.994 C 270.682 147.994 288.91 166.207 288.91 188.694 C 288.91 211.18 270.682 229.408 248.196 229.408 C 225.709 229.408 207.495 211.18 207.495 188.694 C 207.495 166.207 225.709 147.994 248.196 147.994 Z" style="fill: rgb(30, 30, 30);" transform="matrix(0.965926, -0.258819, 0.258819, 0.965926, -40.382014, 70.669235)"/>
  <path id="circle7" d="M 248.196 155.889 C 230.076 155.889 215.392 170.574 215.392 188.694 C 215.392 206.813 230.076 221.511 248.196 221.511 C 266.314 221.511 281.013 206.812 281.013 188.694 C 281.013 170.574 266.314 155.889 248.196 155.889 Z M 248.196 156.787 C 265.83 156.787 280.116 171.059 280.116 188.694 C 280.116 206.328 265.83 220.614 248.196 220.614 C 230.561 220.614 216.29 206.328 216.29 188.694 C 216.29 171.059 230.561 156.787 248.196 156.787 Z" style="fill: rgb(30, 30, 30);" transform="matrix(0.965926, -0.258819, 0.258819, 0.965926, -40.381847, 70.669297)"/>
  <path id="circle9" d="M 248.196 164.094 C 234.609 164.094 223.596 175.107 223.596 188.693 C 223.596 202.279 234.609 213.306 248.196 213.306 C 261.781 213.306 272.809 202.279 272.809 188.693 C 272.809 175.107 261.781 164.094 248.196 164.094 Z M 248.196 164.992 C 261.297 164.992 271.911 175.592 271.911 188.693 C 271.911 201.794 261.297 212.409 248.196 212.409 C 235.094 212.409 224.494 201.794 224.494 188.693 C 224.494 175.592 235.095 164.992 248.196 164.992 Z" style="fill: rgb(30, 30, 30);" transform="matrix(0.965926, -0.258819, 0.258819, 0.965926, -40.381866, 70.669342)"/>
  <path id="path11" d="M 243.735 165.945 C 242.918 165.945 242.248 166.615 242.248 167.432 L 242.248 179.942 C 242.248 180.892 241.969 181.56 241.491 182.018 C 241.013 182.475 240.294 182.747 239.317 182.747 L 226.933 182.747 C 226.116 182.747 225.446 183.416 225.446 184.234 L 225.446 193.167 C 225.446 193.985 226.116 194.655 226.933 194.655 L 239.317 194.655 C 240.224 194.655 240.949 194.936 241.449 195.426 C 241.948 195.915 242.248 196.633 242.248 197.586 L 242.248 209.97 C 242.248 210.787 242.918 211.457 243.735 211.457 L 252.668 211.457 C 253.486 211.457 254.155 210.788 254.155 209.97 L 254.155 197.629 C 254.155 196.68 254.392 195.946 254.842 195.455 C 255.292 194.964 255.999 194.656 257.129 194.656 L 269.47 194.656 C 270.288 194.656 270.958 193.986 270.958 193.168 L 270.958 184.235 C 270.958 183.418 270.288 182.748 269.47 182.748 L 257.142 182.748 C 255.965 182.748 255.254 182.447 254.814 181.99 C 254.375 181.534 254.155 180.865 254.155 179.943 L 254.155 167.432 C 254.155 166.616 253.486 165.946 252.668 165.946 L 243.735 165.946 L 243.735 165.945 Z M 243.735 166.843 L 252.668 166.843 C 253 166.843 253.258 167.099 253.258 167.432 L 253.258 179.942 C 253.258 181.004 253.52 181.947 254.17 182.621 C 254.819 183.295 255.815 183.645 257.142 183.645 L 269.47 183.645 C 269.803 183.645 270.059 183.902 270.059 184.234 L 270.059 193.168 C 270.059 193.499 269.803 193.757 269.47 193.757 L 257.129 193.757 C 255.83 193.757 254.818 194.145 254.17 194.851 C 253.521 195.557 253.258 196.534 253.258 197.628 L 253.258 209.97 C 253.258 210.303 253.001 210.559 252.668 210.559 L 243.735 210.559 C 243.403 210.559 243.146 210.303 243.146 209.97 L 243.146 197.586 C 243.146 196.438 242.752 195.468 242.066 194.795 C 241.38 194.122 240.415 193.757 239.317 193.757 L 226.933 193.757 C 226.602 193.757 226.344 193.5 226.344 193.167 L 226.344 184.234 C 226.344 183.902 226.601 183.645 226.933 183.645 L 239.317 183.645 C 240.459 183.645 241.43 183.312 242.108 182.663 C 242.786 182.014 243.146 181.073 243.146 179.942 L 243.146 167.431 C 243.146 167.099 243.403 166.842 243.735 166.843 L 243.735 166.843 Z" style="fill: rgb(30, 30, 30);" transform="matrix(0.965926, -0.25882, 0.25882, 0.965926, -40.382244, 70.669502)"/>
  <path id="path13" d="M 250.181 170.478 C 250.181 176.112 255.02 181.305 261.023 181.305 L 261.023 180.408 C 255.542 180.408 251.079 175.596 251.079 170.478 L 250.181 170.478 L 250.181 170.478 Z" style="fill: rgb(30, 30, 30);" transform="matrix(0.965926, -0.258819, 0.258819, 0.965926, -36.814633, 72.147999)"/>
  <path id="polygon15" d="M 259.717 169.541 L 259.213 169.751 L 255.285 171.421 L 254.963 171.547 L 255.215 171.785 L 257.53 173.959 L 257.767 174.183 L 257.894 173.889 L 259.507 170.046 L 259.717 169.541 L 259.717 169.541 Z M 258.89 170.383 L 257.6 173.412 L 255.777 171.687 L 258.89 170.383 Z" style="fill: rgb(30, 30, 30);" transform="matrix(0.965926, -0.258819, 0.258819, 0.965926, -35.712501, 72.46052)"/>
  <path id="circle17" d="M 248.196 183.363 C 245.25 183.363 242.866 185.747 242.866 188.692 C 242.866 191.638 245.25 194.036 248.196 194.036 C 251.141 194.036 253.539 191.638 253.539 188.692 C 253.539 185.747 251.141 183.363 248.196 183.363 Z M 248.196 184.26 C 250.656 184.26 252.641 186.232 252.641 188.692 C 252.641 191.153 250.656 193.138 248.196 193.138 C 245.735 193.138 243.764 191.153 243.764 188.692 C 243.764 186.232 245.735 184.26 248.196 184.26 Z" style="fill: rgb(30, 30, 30);" transform="matrix(0.965926, -0.258819, 0.258819, 0.965926, -40.381716, 70.66929)"/>
  <path id="path19" d="M 239.911 175.879 C 239.911 181.36 235.098 185.823 229.981 185.823 L 229.981 186.72 C 235.615 186.72 240.808 181.881 240.808 175.879 L 239.911 175.879 Z" style="fill: rgb(30, 30, 30);" transform="matrix(0.965926, -0.258819, 0.258819, 0.965926, -38.902879, 67.102187)"/>
  <path id="polygon21" d="M 229.046 177.185 L 229.257 177.69 L 230.926 181.617 L 231.052 181.94 L 231.29 181.687 L 233.464 179.373 L 233.688 179.135 L 233.394 179.008 L 229.551 177.395 L 229.046 177.185 L 229.046 177.185 Z M 229.888 178.012 L 232.917 179.302 L 231.192 181.126 L 229.888 178.012 Z" style="fill: rgb(30, 30, 30);" transform="matrix(0.965926, -0.258819, 0.258819, 0.965926, -38.590541, 66.000601)"/>
  <path id="path23" d="M 235.385 196.094 L 235.385 196.992 C 240.865 196.992 245.328 201.803 245.328 206.921 L 246.225 206.921 C 246.225 201.287 241.387 196.094 235.385 196.094 Z" style="fill: rgb(30, 30, 30);" transform="matrix(0.965926, -0.258819, 0.258819, 0.965926, -43.948739, 69.191094)"/>
  <path id="polygon25" d="M 238.639 203.216 L 238.512 203.511 L 236.899 207.353 L 236.688 207.858 L 237.195 207.647 L 241.12 205.979 L 241.443 205.852 L 241.191 205.615 L 238.877 203.44 L 238.639 203.216 L 238.639 203.216 Z M 238.807 203.988 L 240.631 205.699 L 237.516 207.018 L 238.807 203.988 Z" style="fill: rgb(30, 30, 30);" transform="matrix(0.965926, -0.258819, 0.258819, 0.965926, -45.050925, 68.878189)"/>
  <path id="path27" d="M 266.424 190.68 C 260.79 190.68 255.598 195.519 255.598 201.522 L 256.495 201.522 C 256.495 196.042 261.308 191.578 266.424 191.578 L 266.424 190.68 Z" style="fill: rgb(30, 30, 30);" transform="matrix(0.965926, -0.258818, 0.258818, 0.965926, -41.860808, 74.236282)"/>
  <path id="polygon29" d="M 265.356 195.459 L 265.118 195.712 L 262.944 198.026 L 262.72 198.264 L 263.014 198.391 L 266.857 200.003 L 267.361 200.214 L 267.151 199.709 L 265.482 195.782 L 265.356 195.459 L 265.356 195.459 Z M 265.201 196.273 L 266.52 199.387 L 263.491 198.096 L 265.201 196.273 Z" style="fill: rgb(30, 30, 30);" transform="matrix(0.965926, -0.258819, 0.258819, 0.965926, -42.172809, 75.338614)"/>
  <path id="path31" d="M 407.174 119.665 C 405.348 119.699 403.405 119.799 401.382 119.973 C 393.287 120.67 383.879 122.605 375.184 126.719 C 368.694 129.79 361.319 134.429 354.989 139.272 C 348.658 144.114 343.379 149.143 341.076 153.114 C 338.764 157.101 338.471 162.319 339.351 167.264 C 340.231 172.211 342.277 176.89 344.821 179.831 C 349.864 185.663 358.551 188.953 369.63 185.988 C 375.163 184.508 378.705 182.304 382.379 179.733 C 386.051 177.162 389.861 174.215 396.067 171.15 C 408.501 165.009 419.077 162.722 424.832 160.855 C 427.74 159.912 430.762 158.279 433.065 155.302 C 435.368 152.324 436.942 148.019 437.02 141.782 C 437.098 135.49 434.481 130.618 431.003 127.14 C 427.525 123.661 423.199 121.556 419.727 120.688 C 417.114 120.034 412.653 119.561 407.174 119.665 L 407.174 119.665 Z M 407.202 120.576 C 412.63 120.478 417.028 120.939 419.501 121.558 C 422.811 122.385 427.028 124.429 430.371 127.771 C 433.712 131.113 436.196 135.728 436.121 141.768 C 436.045 147.861 434.53 151.953 432.363 154.755 C 430.195 157.558 427.36 159.094 424.565 160.001 C 418.925 161.829 408.248 164.145 395.744 170.308 L 395.674 170.35 C 389.395 173.452 385.508 176.437 381.86 178.99 C 378.211 181.544 374.818 183.671 369.406 185.118 C 358.598 188.011 350.328 184.816 345.507 179.242 C 343.119 176.48 341.089 171.914 340.234 167.111 C 339.381 162.308 339.69 157.282 341.848 153.563 C 344.014 149.827 349.253 144.793 355.535 139.987 C 361.817 135.181 369.151 130.567 375.562 127.533 C 384.13 123.478 393.454 121.561 401.466 120.871 C 403.469 120.699 405.394 120.609 407.202 120.576 L 407.202 120.576 Z" style="fill: rgb(30, 30, 30);" transform="matrix(0.965926, -0.258819, 0.258819, 0.965926, -26.476816, 105.636853)"/>
  <path id="path33" d="M 413.864 125.236 C 410.063 125.121 406.019 125.873 402.097 127.395 C 391.768 131.403 378.837 136.486 372.769 139.597 C 367.945 142.072 361.539 144.692 356.095 148.167 C 350.651 151.64 346.13 155.998 345.254 161.967 C 343.517 173.813 353.98 182.563 365.044 180.508 C 370.517 179.491 374.227 177.287 378.058 174.617 C 381.889 171.948 385.862 168.823 391.985 165.838 C 398.114 162.85 404.634 160.697 410.33 158.965 C 416.023 157.234 420.871 155.923 423.723 154.576 C 426.632 153.201 429.277 150.189 430.567 146.399 C 431.856 142.61 431.774 138.037 429.165 133.609 C 426.554 129.179 422.369 126.588 417.566 125.643 C 416.365 125.406 415.13 125.274 413.864 125.236 L 413.864 125.236 Z M 413.835 126.133 C 415.056 126.17 416.247 126.299 417.398 126.526 C 421.996 127.43 425.916 129.855 428.393 134.057 C 430.87 138.26 430.941 142.548 429.725 146.118 C 428.509 149.689 425.982 152.53 423.344 153.776 C 420.648 155.049 415.788 156.359 410.077 158.095 C 404.366 159.831 397.794 162 391.592 165.024 C 385.383 168.05 381.336 171.24 377.538 173.887 C 373.74 176.535 370.191 178.636 364.874 179.623 C 354.358 181.576 344.484 173.38 346.138 162.107 C 346.957 156.515 351.225 152.336 356.572 148.923 C 361.919 145.511 368.295 142.9 373.177 140.396 C 379.133 137.341 392.107 132.244 402.432 128.237 C 406.256 126.753 410.172 126.024 413.835 126.133 L 413.835 126.133 Z" style="fill: rgb(30, 30, 30);" transform="matrix(0.965926, -0.258819, 0.258819, 0.965926, -26.37516, 105.693361)"/>
  <path id="circle35" d="M 365.695 156.461 C 358.112 156.461 351.951 162.621 351.951 170.205 C 351.951 177.789 358.112 183.95 365.695 183.95 C 373.279 183.95 379.439 177.789 379.439 170.205 C 379.439 162.621 373.28 156.461 365.695 156.461 Z M 365.695 157.359 C 372.795 157.359 378.542 163.106 378.542 170.205 C 378.542 177.304 372.795 183.052 365.695 183.052 C 358.596 183.052 352.848 177.304 352.848 170.205 C 352.848 163.106 358.596 157.359 365.695 157.359 Z" style="fill: rgb(30, 30, 30);" transform="matrix(0.965926, -0.258819, 0.258819, 0.965926, -31.591666, 100.448407)"/>
  <path id="circle37" d="M 365.696 158.999 C 359.516 158.999 354.503 164.025 354.503 170.205 C 354.503 176.385 359.516 181.411 365.696 181.411 C 371.876 181.411 376.902 176.386 376.902 170.205 C 376.902 164.025 371.877 158.999 365.696 158.999 Z M 365.696 159.897 C 371.391 159.897 376.004 164.51 376.004 170.205 C 376.004 175.9 371.392 180.514 365.696 180.514 C 360.001 180.514 355.401 175.901 355.401 170.205 C 355.402 164.51 360.001 159.897 365.696 159.897 Z" style="fill: rgb(30, 30, 30);" transform="matrix(0.965926, -0.258819, 0.258819, 0.965926, -31.591274, 100.450335)"/>
  <path id="circle39" d="M 386.862 137.159 C 379.277 137.159 373.117 143.305 373.117 150.889 C 373.117 158.474 379.277 164.634 386.862 164.634 C 394.444 164.634 400.591 158.473 400.591 150.889 C 400.591 143.305 394.446 137.159 386.862 137.159 Z M 386.862 138.057 C 393.96 138.057 399.694 143.789 399.694 150.889 C 399.694 157.989 393.961 163.736 386.862 163.736 C 379.762 163.736 374.014 157.988 374.014 150.889 C 374.014 143.79 379.762 138.057 386.862 138.057 Z" style="fill: rgb(30, 30, 30);" transform="matrix(0.965926, -0.258819, 0.258819, 0.965926, -25.873153, 105.266818)"/>
  <path id="circle41" d="M 386.861 139.695 C 380.68 139.695 375.654 144.707 375.654 150.887 C 375.654 157.068 380.68 162.093 386.861 162.093 C 393.04 162.093 398.053 157.068 398.053 150.887 C 398.053 144.707 393.04 139.695 386.861 139.695 Z M 386.861 140.593 C 392.555 140.593 397.155 145.191 397.155 150.887 C 397.155 156.582 392.555 161.196 386.861 161.196 C 381.165 161.196 376.551 156.583 376.551 150.887 C 376.551 145.192 381.164 140.593 386.861 140.593 Z" style="fill: rgb(30, 30, 30);" transform="matrix(0.965926, -0.258819, 0.258819, 0.965926, -25.872526, 105.266609)"/>
  <path id="circle43" d="M 410.357 120.798 C 402.772 120.798 396.613 126.958 396.613 134.543 C 396.613 142.128 402.772 148.287 410.357 148.287 C 417.941 148.287 424.101 142.128 424.101 134.543 C 424.101 126.958 417.941 120.798 410.357 120.798 Z M 410.357 121.696 C 417.456 121.696 423.204 127.443 423.204 134.543 C 423.204 141.643 417.456 147.39 410.357 147.39 C 403.257 147.39 397.51 141.643 397.51 134.543 C 397.51 127.443 403.257 121.696 410.357 121.696 Z" style="fill: rgb(30, 30, 30);" transform="matrix(0.965926, -0.258819, 0.258819, 0.965926, -20.839581, 110.792595)"/>
  <path id="circle45" d="M 410.357 123.336 C 404.177 123.336 399.164 128.362 399.164 134.542 C 399.164 140.723 404.177 145.748 410.357 145.748 C 416.537 145.748 421.563 140.723 421.563 134.542 C 421.563 128.362 416.537 123.336 410.357 123.336 Z M 410.357 124.234 C 416.052 124.234 420.665 128.847 420.665 134.542 C 420.665 140.237 416.053 144.851 410.357 144.851 C 404.662 144.851 400.062 140.237 400.062 134.542 C 400.062 128.847 404.661 124.234 410.357 124.234 Z" style="fill: rgb(30, 30, 30);" transform="matrix(0.965926, -0.258819, 0.258819, 0.965926, -20.839231, 110.794261)"/>
  <path id="path47" d="M 370.68 111.369 C 369.838 111.311 368.975 111.428 368.128 111.72 L 349.682 118.059 C 346.295 119.226 344.49 122.93 345.657 126.319 C 346.825 129.708 350.529 131.526 353.917 130.358 L 372.363 124.005 C 375.752 122.838 377.555 119.134 376.389 115.745 C 375.512 113.204 373.207 111.543 370.68 111.369 L 370.68 111.369 Z M 370.624 112.267 C 372.803 112.414 374.777 113.842 375.533 116.039 C 376.544 118.97 375 122.141 372.069 123.15 L 353.628 129.503 C 350.698 130.513 347.527 128.969 346.518 126.039 C 345.509 123.109 347.051 119.923 349.982 118.914 L 368.423 112.561 C 369.155 112.309 369.899 112.217 370.624 112.267 L 370.624 112.267 Z" style="fill: rgb(30, 30, 30);" transform="matrix(0.965926, -0.258819, 0.258819, 0.965926, -19.024171, 97.56367)"/>
  <path id="path49" d="M 370.201 114.287 C 369.724 114.253 369.222 114.303 368.742 114.469 L 350.889 120.626 C 348.971 121.287 347.957 123.39 348.617 125.31 C 349.279 127.23 351.382 128.258 353.302 127.596 L 371.141 121.439 C 373.061 120.778 374.088 118.675 373.428 116.755 C 372.932 115.315 371.635 114.386 370.202 114.287 L 370.201 114.287 Z M 370.131 115.17 C 371.215 115.243 372.207 115.953 372.586 117.049 C 373.088 118.51 372.322 120.094 370.86 120.597 L 353.007 126.74 C 351.547 127.244 349.962 126.477 349.459 125.015 C 348.956 123.554 349.724 121.97 351.184 121.467 L 369.042 115.324 C 369.408 115.198 369.775 115.146 370.136 115.17 L 370.131 115.17 L 370.131 115.17 Z" style="fill: rgb(30, 30, 30);" transform="matrix(0.965926, -0.258819, 0.258819, 0.965926, -19.025145, 97.563514)"/>
</svg>