<?xml version="1.0" encoding="utf-8"?>
<svg version="1.2" baseProfile="tiny" id="Layer_3" x="0px" y="0px" preserveAspectRatio="none" xmlns="http://www.w3.org/2000/svg">
  <path id="path5" d="M 476.616 181.882 C 456.34 181.882 434.648 183.333 415.798 187.869 C 396.95 192.404 380.928 200.01 372.054 212.39 C 362.629 225.539 357.483 238.979 357.223 251.383 C 356.963 263.787 361.604 275.15 371.681 284.059 C 382.015 293.198 390.256 296.822 396.848 298.933 C 403.44 301.044 408.321 301.664 412.095 304.704 L 412.683 303.988 C 408.658 300.744 403.637 300.142 397.122 298.057 C 390.608 295.971 382.544 292.429 372.3 283.369 C 362.408 274.626 357.888 263.564 358.144 251.398 C 358.399 239.237 363.458 225.974 372.802 212.936 C 381.474 200.839 397.279 193.283 416.018 188.774 C 434.753 184.266 456.386 182.802 476.62 182.802 L 481.071 182.802 C 501.302 182.802 522.935 184.266 541.673 188.774 C 560.408 193.283 576.229 200.839 584.901 212.937 C 594.245 225.972 599.303 239.236 599.559 251.399 C 599.814 263.562 595.294 274.626 585.403 283.372 C 575.149 292.431 567.072 295.974 560.558 298.059 C 554.043 300.145 549.036 300.747 545.011 303.99 L 545.586 304.708 C 549.359 301.668 554.254 301.048 560.847 298.937 C 567.439 296.825 575.665 293.202 586 284.064 C 596.076 275.153 600.732 263.791 600.471 251.387 C 600.211 238.984 595.065 225.542 585.641 212.394 C 576.767 200.014 560.729 192.408 541.881 187.873 C 523.033 183.337 501.343 181.886 481.064 181.886 L 476.613 181.886 L 476.616 181.882 Z" style="fill: rgb(30, 30, 30);" transform="matrix(0.965926, -0.258818, 0.258818, 0.965926, -46.652995, 132.22447)"/>
  <path id="path7" d="M 435.728 169.347 C 430.602 169.225 423.092 169.923 414.881 172.19 C 403.934 175.213 391.782 181.043 382.607 191.529 C 364.344 212.4 345.236 247.922 344.144 273.695 L 344.144 273.71 C 343.06 299.376 352.257 311.622 362.262 317.009 C 369.704 321.017 379.109 320.282 387.832 317.713 C 396.555 315.144 404.61 310.72 409.425 307.218 C 418.953 300.285 446.21 280.669 473.499 280.669 L 484.884 280.669 C 512.175 280.669 539.417 300.284 548.945 307.214 C 553.759 310.716 561.815 315.139 570.537 317.709 C 579.26 320.278 588.679 321.013 596.122 317.006 C 606.129 311.617 615.314 299.367 614.225 273.692 C 613.132 247.923 594.034 212.401 575.777 191.53 C 566.598 181.044 554.433 175.214 543.485 172.191 C 532.541 169.169 522.839 168.927 518.378 169.707 C 509.603 171.243 497.341 176.642 480.761 176.642 L 477.602 176.642 C 461.022 176.642 448.777 171.243 440.002 169.707 C 438.886 169.512 437.431 169.39 435.723 169.349 L 435.728 169.347 Z M 435.728 170.266 C 437.395 170.304 438.797 170.427 439.848 170.611 C 448.403 172.107 460.827 177.559 477.606 177.559 L 480.765 177.559 C 497.543 177.559 509.983 172.108 518.538 170.611 C 522.741 169.875 532.423 170.078 543.245 173.066 C 554.069 176.055 566.068 181.822 575.089 192.132 C 593.218 212.852 612.232 248.369 613.307 273.72 C 614.386 299.166 605.382 310.962 595.677 316.187 C 588.563 320.018 579.407 319.351 570.81 316.819 C 562.215 314.288 554.207 309.913 549.491 306.482 C 539.958 299.548 512.616 279.749 484.889 279.749 L 473.504 279.749 C 445.773 279.749 418.433 299.548 408.9 306.482 C 404.184 309.913 396.176 314.287 387.58 316.819 C 378.984 319.351 369.815 320.019 362.701 316.187 C 352.993 310.959 343.989 299.166 345.068 273.719 C 346.143 248.368 365.17 212.851 383.3 192.127 C 392.32 181.817 404.306 176.05 415.13 173.061 C 423.247 170.82 430.727 170.147 435.73 170.261 L 435.728 170.266 Z" style="fill: rgb(30, 30, 30);" transform="matrix(0.965926, -0.258819, 0.258819, 0.965926, -46.973613, 132.356122)"/>
  <path id="path11" d="M 452.028 193.329 C 451.071 193.329 449.857 193.432 448.668 194.018 C 447.48 194.605 446.334 195.689 445.538 197.508 C 443.983 201.061 441.834 208.936 441.834 208.936 L 442.724 209.179 C 442.724 209.179 444.907 201.244 446.385 197.866 C 447.106 196.219 448.079 195.348 449.085 194.851 C 450.09 194.355 451.143 194.248 452.028 194.248 L 465.351 194.248 L 469.802 194.248 L 483.124 194.248 C 484.009 194.248 485.077 194.355 486.082 194.851 C 487.087 195.348 488.046 196.219 488.767 197.866 C 490.246 201.245 492.428 209.179 492.428 209.179 L 493.319 208.936 C 493.319 208.936 491.169 201.061 489.614 197.508 C 488.819 195.689 487.672 194.606 486.484 194.018 C 485.296 193.432 484.082 193.329 483.124 193.329 L 469.802 193.329 L 465.351 193.329 L 452.028 193.329 L 452.028 193.329 Z" style="fill: rgb(30, 30, 30);" transform="matrix(0.965926, -0.258819, 0.258819, 0.965926, -36.156092, 127.875336)"/>
  <path id="ellipse13" d="M 433.915 223.915 C 419.129 213.526 396.875 219.894 384.174 237.971 C 371.473 256.048 373.025 279.143 387.81 289.531 C 402.596 299.92 424.861 293.561 437.565 275.483 C 450.266 257.406 448.703 234.304 433.917 223.914 L 433.915 223.915 Z M 433.387 224.666 C 447.672 234.704 449.281 257.208 436.811 274.954 C 424.341 292.701 402.623 298.816 388.338 288.778 C 374.057 278.744 372.459 256.247 384.929 238.5 C 397.397 220.755 419.105 214.632 433.388 224.669 L 433.387 224.666 Z" style="fill: rgb(30, 30, 30);" transform="matrix(0.965926, -0.258819, 0.258819, 0.965926, -52.445062, 115.087661)"/>
  <path id="circle15" d="M 411.599 228.962 C 396.037 228.962 383.402 241.583 383.402 257.144 C 383.402 272.706 396.037 285.341 411.599 285.341 C 427.161 285.341 439.781 272.706 439.781 257.144 C 439.781 241.583 427.161 228.962 411.599 228.962 Z M 411.599 229.881 C 426.664 229.881 438.862 242.08 438.862 257.144 C 438.862 272.209 426.664 284.422 411.599 284.422 C 396.534 284.422 384.321 272.209 384.321 257.144 C 384.321 242.08 396.534 229.881 411.599 229.881 Z" style="fill: rgb(30, 30, 30);" transform="matrix(0.965926, -0.258819, 0.258819, 0.965926, -52.530992, 115.289718)"/>
  <path id="path17" d="M 410.519 232.809 C 409.552 232.85 408.6 232.957 407.661 233.11 C 407.657 233.11 407.652 233.109 407.647 233.11 L 407.647 233.124 C 407.366 233.166 407.057 233.29 406.872 233.54 C 406.683 233.796 406.614 234.114 406.585 234.488 L 405.981 242.198 C 405.783 244.772 404.965 246.621 403.598 247.797 C 402.232 248.974 400.268 249.52 397.669 249.319 L 390.124 248.731 C 389.745 248.702 389.441 248.687 389.133 248.803 C 388.826 248.919 388.585 249.192 388.459 249.492 L 388.459 249.521 L 388.459 249.535 C 387.861 251.358 387.465 253.281 387.31 255.278 C 387.163 257.185 387.232 259.049 387.511 260.863 L 387.511 260.877 C 387.636 261.556 388.287 262.114 389.191 262.184 L 396.685 262.758 C 399.194 262.952 401.031 263.802 402.212 265.227 C 403.394 266.652 403.94 268.699 403.734 271.358 L 403.189 278.479 C 403.154 278.933 403.159 279.293 403.289 279.613 C 403.42 279.933 403.696 280.158 403.978 280.288 L 404.007 280.302 L 404.022 280.317 C 405.829 280.906 407.743 281.284 409.721 281.437 C 411.655 281.585 413.554 281.51 415.392 281.221 L 415.407 281.221 L 415.421 281.207 C 415.735 281.138 416.053 280.967 416.268 280.676 C 416.483 280.385 416.591 280.015 416.627 279.556 L 417.172 272.463 C 417.374 269.857 418.251 267.908 419.627 266.649 C 421.004 265.388 422.907 264.784 425.299 264.969 L 432.966 265.558 C 433.384 265.59 433.73 265.598 434.071 265.443 C 434.412 265.287 434.641 264.973 434.789 264.595 L 434.803 264.581 L 434.803 264.567 C 435.365 262.805 435.732 260.948 435.88 259.026 C 436.029 257.094 435.952 255.204 435.665 253.369 L 435.665 253.34 L 435.65 253.311 C 435.579 253.048 435.464 252.765 435.219 252.536 C 434.976 252.306 434.628 252.165 434.214 252.134 L 426.303 251.53 C 423.939 251.348 422.146 250.496 420.977 249.118 C 419.808 247.741 419.236 245.808 419.426 243.347 L 420.001 235.781 C 420.028 235.424 420.078 235.134 420.001 234.805 C 419.922 234.475 419.629 234.161 419.268 234.029 L 419.254 234.015 C 417.419 233.409 415.48 233.022 413.468 232.867 C 412.474 232.79 411.497 232.767 410.525 232.809 L 410.519 232.809 Z M 410.548 233.728 C 411.483 233.688 412.433 233.711 413.39 233.785 C 415.324 233.935 417.185 234.31 418.947 234.89 C 418.951 234.892 418.957 234.889 418.961 234.89 C 419.101 234.94 419.085 234.923 419.105 235.005 C 419.126 235.093 419.118 235.346 419.09 235.709 L 418.502 243.275 C 418.298 245.916 418.918 248.116 420.268 249.707 C 421.618 251.297 423.677 252.237 426.226 252.435 L 434.142 253.05 C 434.412 253.071 434.517 253.128 434.587 253.194 C 434.649 253.252 434.714 253.363 434.759 253.51 C 434.76 253.515 434.758 253.519 434.759 253.524 C 435.034 255.286 435.104 257.096 434.96 258.951 C 434.818 260.792 434.476 262.577 433.941 264.263 C 433.938 264.272 433.93 264.282 433.926 264.292 C 433.836 264.509 433.773 264.573 433.697 264.608 C 433.615 264.646 433.409 264.68 433.036 264.651 L 425.369 264.048 C 422.785 263.848 420.578 264.522 418.995 265.972 C 417.412 267.421 416.467 269.614 416.253 272.389 L 415.715 279.483 C 415.688 279.834 415.605 280.027 415.529 280.128 C 415.453 280.232 415.383 280.281 415.227 280.315 C 413.468 280.589 411.654 280.659 409.801 280.516 C 407.916 280.371 406.096 280.011 404.374 279.454 C 404.217 279.381 404.183 279.363 404.144 279.267 C 404.105 279.171 404.085 278.941 404.115 278.549 L 404.661 271.428 C 404.879 268.606 404.291 266.3 402.924 264.651 C 401.557 263.003 399.434 262.045 396.75 261.838 L 389.27 261.263 C 388.677 261.218 388.489 260.976 388.437 260.732 C 388.17 258.988 388.094 257.186 388.236 255.348 C 388.384 253.436 388.743 251.595 389.313 249.85 C 389.319 249.835 389.323 249.848 389.327 249.836 C 389.329 249.831 389.326 249.826 389.327 249.821 C 389.377 249.71 389.404 249.683 389.457 249.663 C 389.517 249.64 389.718 249.623 390.06 249.649 L 397.612 250.223 C 400.375 250.436 402.624 249.87 404.216 248.5 C 405.807 247.13 406.703 245.005 406.915 242.27 L 407.503 234.551 C 407.524 234.278 407.592 234.146 407.632 234.092 C 407.672 234.038 407.683 234.02 407.79 234.006 L 407.804 234.006 C 408.711 233.857 409.626 233.758 410.561 233.719 L 410.548 233.728 Z" style="fill: rgb(30, 30, 30);" transform="matrix(0.965926, -0.258819, 0.258819, 0.965926, -52.530409, 115.29043)"/>
  <path id="circle19" d="M 411.599 251.533 C 408.5 251.533 405.971 254.047 405.971 257.147 C 405.971 260.246 408.5 262.775 411.599 262.775 C 414.699 262.775 417.213 260.246 417.213 257.147 C 417.213 254.047 414.699 251.533 411.599 251.533 Z M 411.599 252.452 C 414.203 252.452 416.294 254.543 416.294 257.147 C 416.294 259.75 414.203 261.856 411.599 261.856 C 408.996 261.856 406.89 259.75 406.89 257.147 C 406.89 254.543 408.996 252.452 411.599 252.452 Z" style="fill: rgb(30, 30, 30);" transform="matrix(0.965926, -0.258819, 0.258819, 0.965926, -52.531626, 115.289936)"/>
  <path id="polygon21" d="M 393.2 243.689 L 393.315 244.149 L 394.148 247.293 L 394.248 247.638 L 394.521 247.408 L 396.66 245.57 L 396.933 245.341 L 396.607 245.18 L 393.635 243.888 L 393.204 243.686 L 393.2 243.689 Z" style="fill: rgb(30, 30, 30);" transform="matrix(0.965926, -0.258819, 0.258819, 0.965926, -50.120376, 110.621257)"/>
  <path id="polygon23" d="M 399.776 271.806 L 399.632 272.137 L 398.325 275.109 L 398.124 275.54 L 398.584 275.425 L 401.728 274.592 L 402.072 274.492 L 401.843 274.219 L 400.005 272.08 L 399.776 271.806 L 399.776 271.806 Z" style="fill: rgb(30, 30, 30);" transform="matrix(0.965926, -0.258819, 0.258819, 0.965926, -57.198724, 112.87802)"/>
  <path id="polygon25" d="M 428.932 266.668 L 428.659 266.897 L 426.52 268.735 L 426.247 268.964 L 426.577 269.108 L 429.55 270.415 L 429.981 270.616 L 429.866 270.142 L 429.033 267.013 L 428.932 266.668 L 428.932 266.668 Z" style="fill: rgb(30, 30, 30);" transform="matrix(0.965926, -0.258819, 0.258819, 0.965926, -54.94205, 119.957876)"/>
  <path id="polygon27" d="M 425.056 238.762 L 424.597 238.877 L 421.453 239.71 L 421.108 239.81 L 421.338 240.083 L 423.176 242.222 L 423.405 242.494 L 423.564 242.164 L 424.855 239.192 L 425.056 238.762 L 425.056 238.762 Z" style="fill: rgb(30, 30, 30);" transform="matrix(0.965926, -0.258819, 0.258819, 0.965926, -47.862949, 117.700937)"/>
  <path id="circle29" d="M 514.356 212.632 C 508.844 212.632 504.364 217.111 504.364 222.624 C 504.364 228.136 508.844 232.616 514.356 232.616 C 519.869 232.616 524.349 228.136 524.349 222.624 C 524.349 217.111 519.869 212.632 514.356 212.632 Z M 514.356 213.55 C 519.372 213.55 523.43 217.608 523.43 222.624 C 523.43 227.64 519.372 231.698 514.356 231.698 C 509.34 231.698 505.283 227.64 505.283 222.624 C 505.283 217.608 509.34 213.55 514.356 213.55 Z" style="fill: rgb(30, 30, 30);" transform="matrix(0.965926, -0.258818, 0.258818, 0.965926, -40.093005, 140.710636)"/>
  <path id="circle31" d="M 531.267 193.147 C 525.754 193.147 521.274 197.627 521.274 203.14 C 521.274 208.652 525.754 213.132 531.267 213.132 C 536.779 213.132 541.259 208.652 541.259 203.14 C 541.259 197.627 536.779 193.147 531.267 193.147 Z M 531.267 194.066 C 536.282 194.066 540.34 198.123 540.34 203.14 C 540.34 208.156 536.282 212.213 531.267 212.213 C 526.251 212.213 522.193 208.156 522.193 203.14 C 522.193 198.123 526.251 194.066 531.267 194.066 Z" style="fill: rgb(30, 30, 30);" transform="matrix(0.965926, -0.258818, 0.258818, 0.965926, -34.473869, 144.423338)"/>
  <path id="circle33" d="M 550.758 179.408 C 545.245 179.408 540.765 183.888 540.765 189.4 C 540.765 194.913 545.245 199.393 550.758 199.393 C 556.269 199.393 560.75 194.913 560.75 189.4 C 560.75 183.888 556.269 179.408 550.758 179.408 Z M 550.758 180.327 C 555.773 180.327 559.831 184.385 559.831 189.4 C 559.831 194.416 555.773 198.474 550.758 198.474 C 545.742 198.474 541.684 194.416 541.684 189.4 C 541.684 184.385 545.742 180.327 550.758 180.327 Z" style="fill: rgb(30, 30, 30);" transform="matrix(0.965926, -0.258819, 0.258819, 0.965926, -30.253853, 149.000172)"/>
  <path id="circle35" d="M 531.397 236.62 C 523.732 236.62 517.514 242.837 517.514 250.503 C 517.514 258.169 523.732 264.4 531.397 264.4 C 539.064 264.4 545.295 258.169 545.295 250.503 C 545.295 242.837 539.064 236.62 531.397 236.62 Z M 531.397 237.538 C 538.567 237.538 544.376 243.334 544.376 250.503 C 544.376 257.672 538.567 263.481 531.397 263.481 C 524.229 263.481 518.433 257.672 518.433 250.503 C 518.434 243.334 524.229 237.538 531.397 237.538 Z" style="fill: rgb(30, 30, 30);" transform="matrix(0.965926, -0.258819, 0.258819, 0.965926, -46.729582, 146.073498)"/>
  <path id="circle37" d="M 551.825 213.505 C 544.158 213.505 537.927 219.722 537.927 227.388 C 537.927 235.054 544.158 241.285 551.825 241.285 C 559.491 241.285 565.708 235.054 565.708 227.388 C 565.708 219.722 559.491 213.505 551.825 213.505 Z M 551.825 214.423 C 558.994 214.423 564.789 220.219 564.789 227.388 C 564.789 234.557 558.994 240.366 551.825 240.366 C 544.655 240.366 538.846 234.556 538.846 227.388 C 538.846 220.219 544.656 214.423 551.825 214.423 Z" style="fill: rgb(30, 30, 30);" transform="matrix(0.965926, -0.258819, 0.258819, 0.965926, -40.051432, 150.569156)"/>
  <path id="circle39" d="M 576.112 195.924 C 568.447 195.924 562.215 202.156 562.215 209.822 C 562.215 217.487 568.447 223.704 576.112 223.704 C 583.778 223.704 589.996 217.487 589.996 209.822 C 589.996 202.156 583.778 195.924 576.112 195.924 Z M 576.112 196.843 C 583.281 196.843 589.077 202.653 589.077 209.822 C 589.077 216.99 583.282 222.785 576.112 222.785 C 568.944 222.785 563.134 216.991 563.134 209.822 C 563.134 202.653 568.944 196.843 576.112 196.843 Z" style="fill: rgb(30, 30, 30);" transform="matrix(0.965926, -0.258819, 0.258819, 0.965926, -34.673535, 156.25628)"/>
  <path id="ellipse41" d="M 483.34 251.467 C 478.574 251.467 474.259 252.392 471.093 253.908 C 467.927 255.424 465.838 257.584 465.838 260.096 C 465.838 262.608 467.927 264.754 471.093 266.27 C 474.259 267.786 478.574 268.711 483.34 268.711 C 488.104 268.711 492.42 267.786 495.586 266.27 C 498.752 264.754 500.84 262.608 500.84 260.096 C 500.84 257.584 498.751 255.424 495.586 253.908 C 492.42 252.392 488.104 251.467 483.34 251.467 Z M 483.34 252.386 C 487.986 252.386 492.196 253.303 495.198 254.741 C 498.2 256.178 499.921 258.101 499.921 260.096 C 499.921 262.089 498.199 264.013 495.198 265.451 C 492.197 266.888 487.986 267.791 483.34 267.791 C 478.693 267.791 474.497 266.888 471.495 265.451 C 468.493 264.013 466.758 262.089 466.758 260.096 C 466.758 258.102 468.493 256.178 471.495 254.741 C 474.497 253.303 478.694 252.386 483.34 252.386 Z" style="fill: rgb(30, 30, 30);" transform="matrix(0.965926, -0.258819, 0.258819, 0.965926, -50.846566, 133.959478)"/>
  <path id="ellipse43" d="M 483.341 254.654 C 480.137 254.654 477.244 255.211 475.101 256.147 C 474.029 256.616 473.137 257.171 472.502 257.826 C 471.867 258.483 471.483 259.265 471.483 260.095 C 471.483 260.925 471.866 261.693 472.502 262.349 C 473.137 263.005 474.029 263.561 475.101 264.028 C 477.244 264.965 480.137 265.536 483.341 265.536 C 486.546 265.536 489.454 264.965 491.597 264.028 C 492.668 263.56 493.545 263.005 494.181 262.349 C 494.816 261.693 495.215 260.925 495.215 260.095 C 495.215 259.265 494.816 258.483 494.181 257.826 C 493.545 257.17 492.668 256.615 491.597 256.147 C 489.454 255.211 486.546 254.654 483.341 254.654 Z M 483.341 255.573 C 486.437 255.573 489.237 256.127 491.223 256.994 C 492.216 257.428 493.001 257.937 493.52 258.473 C 494.04 259.009 494.296 259.55 494.296 260.095 C 494.296 260.641 494.039 261.181 493.52 261.717 C 493.001 262.253 492.216 262.762 491.223 263.196 C 489.237 264.064 486.437 264.618 483.341 264.618 C 480.246 264.618 477.446 264.064 475.46 263.196 C 474.467 262.763 473.682 262.253 473.162 261.717 C 472.644 261.181 472.402 260.641 472.402 260.095 C 472.402 259.549 472.644 259.009 473.162 258.473 C 473.682 257.937 474.466 257.428 475.46 256.994 C 477.446 256.127 480.246 255.573 483.341 255.573 Z" style="fill: rgb(30, 30, 30);" transform="matrix(0.965926, -0.258819, 0.258819, 0.965926, -50.847859, 133.962593)"/>
</svg>