<?xml version="1.0" encoding="utf-8"?>
<svg version="1.2" baseProfile="tiny" id="Layer_3" x="0px" y="0px" viewBox="0 0 1280 720" preserveAspectRatio="none" xmlns="http://www.w3.org/2000/svg">
  <path id="path5" d="M 634.678 230.087 C 592.663 230.087 547.716 233.094 508.657 242.492 C 469.602 251.89 436.402 267.65 418.013 293.303 C 398.484 320.548 387.822 348.399 387.282 374.101 C 386.743 399.802 396.36 423.348 417.24 441.809 C 438.655 460.745 455.73 468.254 469.389 472.629 C 483.048 477.004 493.162 478.288 500.982 484.588 L 502.201 483.103 C 493.862 476.381 483.458 475.135 469.958 470.813 C 456.459 466.491 439.75 459.151 418.523 440.378 C 398.026 422.262 388.661 399.34 389.19 374.132 C 389.72 348.933 400.203 321.45 419.564 294.435 C 437.534 269.367 470.283 253.711 509.112 244.369 C 547.933 235.028 592.759 231.994 634.685 231.994 L 643.908 231.994 C 685.83 231.994 730.655 235.028 769.481 244.369 C 808.302 253.711 841.085 269.368 859.054 294.436 C 878.416 321.447 888.898 348.931 889.427 374.134 C 889.957 399.337 880.591 422.262 860.095 440.385 C 838.848 459.157 822.112 466.497 808.613 470.818 C 795.114 475.14 784.738 476.387 776.399 483.108 L 777.589 484.596 C 785.408 478.297 795.551 477.012 809.212 472.637 C 822.872 468.262 839.917 460.753 861.331 441.818 C 882.211 423.355 891.859 399.811 891.318 374.11 C 890.778 348.409 880.116 320.556 860.589 293.312 C 842.201 267.659 808.969 251.899 769.914 242.501 C 730.859 233.102 685.914 230.096 643.894 230.096 L 634.672 230.096 L 634.678 230.087 Z" style="fill: rgb(30, 30, 30);" transform="matrix(0.965926, -0.258819, 0.258819, 0.965926, -70.703142, 177.639053)"/>
  <path id="path7" d="M 549.952 204.114 C 539.332 203.86 523.77 205.307 506.756 210.005 C 484.072 216.269 458.893 228.349 439.88 250.077 C 402.037 293.324 362.444 366.929 360.181 420.334 L 360.181 420.364 C 357.935 473.546 376.992 498.922 397.725 510.085 C 413.145 518.39 432.632 516.866 450.707 511.543 C 468.782 506.22 485.473 497.052 495.45 489.796 C 515.193 475.431 571.673 434.783 628.219 434.783 L 651.81 434.783 C 708.36 434.783 764.807 475.428 784.55 489.787 C 794.526 497.044 811.218 506.21 829.292 511.534 C 847.367 516.858 866.884 518.38 882.305 510.077 C 903.042 498.911 922.074 473.528 919.818 420.326 C 917.552 366.93 877.979 293.325 840.149 250.078 C 821.13 228.351 795.921 216.27 773.236 210.007 C 750.56 203.744 730.455 203.243 721.212 204.86 C 703.029 208.043 677.622 219.229 643.265 219.229 L 636.72 219.229 C 602.364 219.229 576.991 208.042 558.809 204.86 C 556.497 204.456 553.482 204.202 549.943 204.117 L 549.952 204.114 Z M 549.952 206.018 C 553.408 206.097 556.313 206.351 558.49 206.732 C 576.216 209.833 601.96 221.13 636.729 221.13 L 643.274 221.13 C 678.041 221.13 703.816 209.834 721.543 206.732 C 730.252 205.208 750.315 205.627 772.74 211.819 C 795.168 218.012 820.031 229.963 838.723 251.326 C 876.288 294.261 915.688 367.854 917.914 420.384 C 920.15 473.112 901.494 497.553 881.383 508.381 C 866.642 516.32 847.67 514.937 829.858 509.69 C 812.047 504.445 795.454 495.38 785.682 488.271 C 765.928 473.904 709.273 432.878 651.819 432.878 L 628.228 432.878 C 570.768 432.878 514.117 473.904 494.363 488.271 C 484.59 495.38 467.998 504.444 450.186 509.69 C 432.374 514.937 413.375 516.321 398.633 508.381 C 378.517 497.548 359.861 473.112 362.096 420.383 C 364.323 367.853 403.75 294.259 441.316 251.315 C 460.007 229.953 484.844 218.002 507.272 211.809 C 524.092 207.165 539.59 205.772 549.957 206.007 L 549.952 206.018 Z" style="fill: rgb(30, 30, 30);" transform="matrix(0.965926, -0.258819, 0.258819, 0.965926, -71.367318, 177.911075)"/>
  <path id="path11" d="M 583.729 253.807 C 581.746 253.807 579.229 254.021 576.767 255.235 C 574.305 256.451 571.93 258.697 570.281 262.465 C 567.059 269.828 562.605 286.145 562.605 286.145 L 564.45 286.65 C 564.45 286.65 568.973 270.208 572.036 263.208 C 573.53 259.795 575.546 257.99 577.629 256.961 C 579.712 255.932 581.895 255.711 583.728 255.711 L 611.335 255.711 L 620.557 255.711 L 648.163 255.711 C 649.997 255.711 652.209 255.932 654.292 256.961 C 656.375 257.99 658.362 259.795 659.855 263.208 C 662.919 270.209 667.442 286.65 667.442 286.65 L 669.287 286.145 C 669.287 286.145 664.833 269.829 661.611 262.465 C 659.963 258.697 657.587 256.452 655.125 255.235 C 652.664 254.021 650.147 253.807 648.163 253.807 L 620.557 253.807 L 611.335 253.807 L 583.729 253.807 L 583.729 253.807 Z" style="fill: rgb(30, 30, 30);" transform="matrix(0.965926, -0.258819, 0.258819, 0.965926, -48.952433, 168.626362)"/>
  <path id="ellipse13" d="M 546.196 317.183 C 515.558 295.656 469.446 308.851 443.128 346.309 C 416.809 383.767 420.025 431.622 450.662 453.147 C 481.3 474.674 527.435 461.497 553.759 424.038 C 580.078 386.581 576.838 338.71 546.201 317.181 L 546.196 317.183 Z M 545.102 318.741 C 574.702 339.54 578.036 386.171 552.197 422.942 C 526.357 459.716 481.355 472.386 451.756 451.587 C 422.164 430.796 418.854 384.179 444.693 347.406 C 470.528 310.635 515.508 297.948 545.105 318.747 L 545.102 318.741 Z" style="fill: rgb(30, 30, 30);" transform="matrix(0.965926, -0.258819, 0.258819, 0.965926, -82.70474, 142.129595)"/>
  <path id="circle15" d="M 499.955 327.642 C 467.709 327.642 441.528 353.793 441.528 386.038 C 441.528 418.283 467.709 444.464 499.955 444.464 C 532.201 444.464 558.351 418.283 558.351 386.038 C 558.352 353.793 532.201 327.642 499.955 327.642 Z M 499.955 329.546 C 531.172 329.546 556.447 354.823 556.447 386.038 C 556.447 417.255 531.171 442.561 499.955 442.561 C 468.738 442.561 443.432 417.255 443.432 386.038 C 443.433 354.823 468.738 329.546 499.955 329.546 Z" style="fill: rgb(30, 30, 30);" transform="matrix(0.965926, -0.258819, 0.258819, 0.965926, -82.882837, 142.548303)"/>
  <path id="path17" d="M 497.717 335.613 C 495.713 335.698 493.74 335.92 491.796 336.237 C 491.787 336.238 491.776 336.235 491.767 336.237 L 491.767 336.267 C 491.183 336.353 490.544 336.61 490.16 337.129 C 489.768 337.659 489.625 338.317 489.565 339.093 L 488.315 355.068 C 487.903 360.401 486.208 364.233 483.376 366.671 C 480.545 369.108 476.477 370.24 471.09 369.824 L 455.457 368.606 C 454.672 368.546 454.042 368.515 453.404 368.754 C 452.767 368.994 452.267 369.56 452.006 370.182 L 452.006 370.242 L 452.006 370.272 C 450.768 374.048 449.946 378.033 449.626 382.171 C 449.321 386.123 449.465 389.985 450.043 393.744 L 450.043 393.773 C 450.301 395.18 451.65 396.336 453.523 396.481 L 469.052 397.67 C 474.25 398.072 478.057 399.833 480.505 402.787 C 482.954 405.74 484.084 409.981 483.659 415.49 L 482.528 430.246 C 482.456 431.187 482.467 431.932 482.736 432.596 C 483.007 433.26 483.579 433.725 484.164 433.995 L 484.224 434.024 L 484.254 434.054 C 488 435.275 491.965 436.058 496.064 436.375 C 500.072 436.683 504.006 436.526 507.815 435.928 L 507.845 435.928 L 507.874 435.899 C 508.525 435.756 509.184 435.401 509.629 434.798 C 510.075 434.195 510.3 433.429 510.373 432.477 L 511.504 417.781 C 511.921 412.38 513.739 408.343 516.591 405.733 C 519.443 403.121 523.386 401.869 528.342 402.252 L 544.229 403.472 C 545.097 403.538 545.813 403.556 546.519 403.234 C 547.226 402.911 547.7 402.26 548.007 401.478 L 548.037 401.449 L 548.037 401.419 C 549.2 397.768 549.961 393.921 550.268 389.937 C 550.577 385.935 550.417 382.018 549.822 378.216 L 549.822 378.156 L 549.792 378.096 C 549.644 377.55 549.405 376.965 548.899 376.489 C 548.394 376.013 547.674 375.722 546.816 375.656 L 530.424 374.406 C 525.524 374.028 521.809 372.262 519.387 369.408 C 516.965 366.555 515.78 362.549 516.174 357.45 L 517.364 341.772 C 517.421 341.031 517.525 340.432 517.364 339.749 C 517.202 339.066 516.594 338.415 515.847 338.142 L 515.817 338.113 C 512.015 336.856 507.998 336.055 503.828 335.733 C 501.768 335.574 499.743 335.527 497.73 335.614 L 497.717 335.613 Z M 497.777 337.517 C 499.715 337.434 501.683 337.482 503.667 337.636 C 507.673 337.946 511.531 338.723 515.18 339.926 C 515.19 339.929 515.201 339.923 515.21 339.926 C 515.5 340.03 515.467 339.993 515.508 340.164 C 515.551 340.347 515.536 340.87 515.478 341.622 L 514.259 357.299 C 513.836 362.772 515.121 367.332 517.918 370.627 C 520.715 373.922 524.983 375.871 530.264 376.28 L 546.666 377.555 C 547.226 377.598 547.443 377.716 547.588 377.853 C 547.717 377.974 547.852 378.204 547.945 378.508 C 547.948 378.519 547.942 378.527 547.945 378.538 C 548.514 382.187 548.659 385.938 548.362 389.782 C 548.068 393.597 547.359 397.295 546.25 400.789 C 546.243 400.809 546.227 400.828 546.22 400.849 C 546.033 401.299 545.902 401.431 545.744 401.504 C 545.574 401.582 545.148 401.653 544.375 401.594 L 528.489 400.344 C 523.133 399.929 518.56 401.327 515.28 404.33 C 512.001 407.333 510.043 411.878 509.598 417.628 L 508.484 432.326 C 508.427 433.054 508.255 433.453 508.098 433.664 C 507.941 433.878 507.796 433.98 507.473 434.051 C 503.827 434.619 500.069 434.764 496.229 434.468 C 492.323 434.167 488.553 433.421 484.984 432.266 C 484.658 432.116 484.589 432.078 484.508 431.879 C 484.427 431.68 484.386 431.204 484.448 430.391 L 485.579 415.636 C 486.031 409.788 484.812 405.01 481.98 401.594 C 479.148 398.179 474.749 396.194 469.187 395.764 L 453.688 394.574 C 452.459 394.479 452.069 393.979 451.962 393.473 C 451.407 389.858 451.251 386.124 451.545 382.317 C 451.852 378.355 452.595 374.539 453.777 370.923 C 453.789 370.893 453.796 370.919 453.806 370.894 C 453.809 370.884 453.803 370.874 453.806 370.864 C 453.909 370.633 453.964 370.578 454.074 370.537 C 454.2 370.489 454.616 370.453 455.324 370.507 L 470.972 371.697 C 476.697 372.139 481.359 370.966 484.657 368.127 C 487.954 365.288 489.811 360.885 490.249 355.217 L 491.468 339.224 C 491.512 338.657 491.653 338.384 491.735 338.272 C 491.818 338.159 491.841 338.122 492.063 338.093 L 492.092 338.093 C 493.971 337.785 495.867 337.58 497.804 337.498 L 497.777 337.517 Z" style="fill: rgb(30, 30, 30);" transform="matrix(0.965926, -0.258819, 0.258819, 0.965926, -82.881743, 142.549716)"/>
  <path id="circle19" d="M 499.956 374.411 C 493.533 374.411 488.294 379.62 488.294 386.043 C 488.294 392.466 493.533 397.705 499.956 397.705 C 506.379 397.705 511.588 392.466 511.588 386.043 C 511.588 379.62 506.379 374.411 499.956 374.411 Z M 499.956 376.315 C 505.35 376.315 509.684 380.649 509.684 386.043 C 509.684 391.437 505.35 395.801 499.956 395.801 C 494.562 395.801 490.198 391.437 490.198 386.043 C 490.198 380.649 494.562 376.315 499.956 376.315 Z" style="fill: rgb(30, 30, 30);" transform="matrix(0.965926, -0.258819, 0.258819, 0.965926, -82.884078, 142.548856)"/>
  <path id="polygon21" d="M 461.831 358.158 L 462.069 359.11 L 463.794 365.626 L 464.003 366.34 L 464.568 365.864 L 469.001 362.056 L 469.566 361.58 L 468.89 361.247 L 462.732 358.569 L 461.839 358.152 L 461.831 358.158 Z" style="fill: rgb(30, 30, 30);" transform="matrix(0.965926, -0.258819, 0.258819, 0.965926, -77.887887, 132.874899)"/>
  <path id="polygon23" d="M 475.456 416.42 L 475.158 417.105 L 472.451 423.263 L 472.034 424.156 L 472.986 423.918 L 479.501 422.192 L 480.215 421.984 L 479.739 421.418 L 475.931 416.986 L 475.456 416.42 L 475.456 416.42 Z" style="fill: rgb(30, 30, 30);" transform="matrix(0.965926, -0.258819, 0.258819, 0.965926, -92.555, 137.551053)"/>
  <path id="polygon25" d="M 535.871 405.772 L 535.306 406.248 L 530.873 410.055 L 530.308 410.531 L 530.992 410.829 L 537.151 413.537 L 538.044 413.954 L 537.806 412.972 L 536.08 406.487 L 535.871 405.772 L 535.871 405.772 Z" style="fill: rgb(30, 30, 30);" transform="matrix(0.965926, -0.258819, 0.258819, 0.965926, -87.878739, 152.22067)"/>
  <path id="polygon27" d="M 527.84 347.948 L 526.888 348.186 L 520.373 349.912 L 519.659 350.12 L 520.135 350.685 L 523.943 355.117 L 524.419 355.682 L 524.747 354.998 L 527.424 348.84 L 527.84 347.948 L 527.84 347.948 Z" style="fill: rgb(30, 30, 30);" transform="matrix(0.965926, -0.258819, 0.258819, 0.965926, -73.210087, 147.544147)"/>
  <path id="circle29" d="M 712.879 293.804 C 701.456 293.804 692.174 303.086 692.174 314.509 C 692.174 325.931 701.456 335.214 712.879 335.214 C 724.301 335.214 733.584 325.931 733.584 314.509 C 733.584 303.086 724.301 293.804 712.879 293.804 Z M 712.879 295.707 C 723.272 295.707 731.68 304.115 731.68 314.509 C 731.68 324.902 723.271 333.31 712.879 333.31 C 702.485 333.31 694.078 324.902 694.078 314.509 C 694.078 304.115 702.485 295.707 712.879 295.707 Z" style="fill: rgb(30, 30, 30);" transform="matrix(0.965926, -0.258819, 0.258819, 0.965926, -57.110163, 195.223398)"/>
  <path id="circle31" d="M 747.919 253.43 C 736.496 253.43 727.214 262.712 727.214 274.135 C 727.214 285.558 736.497 294.84 747.919 294.84 C 759.341 294.84 768.624 285.558 768.624 274.135 C 768.624 262.712 759.341 253.43 747.919 253.43 Z M 747.919 255.334 C 758.312 255.334 766.72 263.741 766.72 274.135 C 766.72 284.529 758.312 292.936 747.919 292.936 C 737.525 292.936 729.118 284.529 729.118 274.135 C 729.118 263.741 737.525 255.334 747.919 255.334 Z" style="fill: rgb(30, 30, 30);" transform="matrix(0.965926, -0.258819, 0.258819, 0.965926, -45.466637, 202.916604)"/>
  <path id="circle33" d="M 788.306 224.961 C 776.884 224.961 767.6 234.244 767.6 245.666 C 767.6 257.088 776.884 266.371 788.306 266.371 C 799.727 266.371 809.011 257.089 809.011 245.666 C 809.011 234.243 799.727 224.961 788.306 224.961 Z M 788.306 226.865 C 798.698 226.865 807.107 235.273 807.107 245.666 C 807.107 256.059 798.698 264.467 788.306 264.467 C 777.913 264.467 769.504 256.059 769.504 245.666 C 769.504 235.273 777.913 226.865 788.306 226.865 Z" style="fill: rgb(30, 30, 30);" transform="matrix(0.965926, -0.258819, 0.258819, 0.965926, -36.722184, 212.399331)"/>
  <path id="circle35" d="M 748.19 343.51 C 732.306 343.51 719.423 356.392 719.423 372.277 C 719.423 388.162 732.306 401.073 748.19 401.073 C 764.076 401.073 776.987 388.162 776.987 372.277 C 776.987 356.392 764.076 343.51 748.19 343.51 Z M 748.19 345.413 C 763.046 345.413 775.083 357.421 775.083 372.277 C 775.083 387.131 763.046 399.169 748.19 399.169 C 733.336 399.169 721.327 387.131 721.327 372.277 C 721.328 357.421 733.336 345.413 748.19 345.413 Z" style="fill: rgb(30, 30, 30);" transform="matrix(0.965926, -0.258819, 0.258819, 0.965926, -70.861688, 206.335321)"/>
  <path id="circle37" d="M 790.517 295.613 C 774.632 295.613 761.72 308.496 761.72 324.38 C 761.72 340.265 774.632 353.176 790.517 353.176 C 806.402 353.176 819.284 340.265 819.284 324.38 C 819.284 308.496 806.402 295.613 790.517 295.613 Z M 790.517 297.516 C 805.372 297.516 817.381 309.525 817.381 324.38 C 817.381 339.235 805.372 351.272 790.517 351.272 C 775.662 351.272 763.624 339.234 763.624 324.38 C 763.624 309.525 775.663 297.516 790.517 297.516 Z" style="fill: rgb(30, 30, 30);" transform="matrix(0.965926, -0.258819, 0.258819, 0.965926, -57.02377, 215.650433)"/>
  <path id="circle39" d="M 840.844 259.184 C 824.961 259.184 812.047 272.097 812.047 287.981 C 812.047 303.864 824.961 316.747 840.844 316.747 C 856.728 316.747 869.612 303.865 869.612 287.981 C 869.612 272.097 856.728 259.184 840.844 259.184 Z M 840.844 261.088 C 855.699 261.088 867.708 273.126 867.708 287.981 C 867.708 302.835 855.7 314.843 840.844 314.843 C 825.99 314.843 813.951 302.836 813.951 287.981 C 813.951 273.126 825.99 261.088 840.844 261.088 Z" style="fill: rgb(30, 30, 30);" transform="matrix(0.965926, -0.258819, 0.258819, 0.965926, -45.880391, 227.434852)"/>
  <path id="ellipse41" d="M 648.609 374.275 C 638.735 374.275 629.793 376.191 623.233 379.333 C 616.673 382.474 612.345 386.949 612.345 392.155 C 612.345 397.361 616.673 401.807 623.233 404.947 C 629.793 408.09 638.735 410.005 648.609 410.005 C 658.482 410.005 667.425 408.09 673.984 404.947 C 680.545 401.807 684.872 397.361 684.872 392.155 C 684.872 386.949 680.544 382.474 673.984 379.333 C 667.425 376.191 658.482 374.275 648.609 374.275 Z M 648.609 376.179 C 658.236 376.179 666.961 378.079 673.181 381.058 C 679.401 384.036 682.968 388.022 682.968 392.154 C 682.968 396.285 679.4 400.271 673.181 403.25 C 666.962 406.228 658.237 408.099 648.609 408.099 C 638.981 408.099 630.287 406.228 624.066 403.25 C 617.846 400.271 614.25 396.285 614.25 392.154 C 614.25 388.022 617.846 384.036 624.066 381.058 C 630.287 378.079 638.982 376.179 648.609 376.179 Z" style="fill: rgb(30, 30, 30);" transform="matrix(0.965926, -0.258819, 0.258819, 0.965926, -79.39245, 181.23388)"/>
  <path id="ellipse43" d="M 648.613 380.878 C 641.972 380.878 635.978 382.032 631.537 383.972 C 629.316 384.943 627.469 386.093 626.152 387.452 C 624.836 388.812 624.04 390.433 624.04 392.153 C 624.04 393.873 624.835 395.465 626.152 396.823 C 627.469 398.183 629.317 399.334 631.537 400.303 C 635.978 402.243 641.972 403.427 648.613 403.427 C 655.253 403.427 661.278 402.243 665.719 400.303 C 667.939 399.333 669.756 398.182 671.074 396.823 C 672.39 395.464 673.216 393.872 673.216 392.153 C 673.216 390.433 672.39 388.812 671.074 387.452 C 669.756 386.092 667.939 384.942 665.719 383.972 C 661.278 382.032 655.254 380.878 648.613 380.878 Z M 648.613 382.782 C 655.028 382.782 660.83 383.931 664.944 385.727 C 667.002 386.626 668.628 387.681 669.704 388.791 C 670.781 389.903 671.311 391.023 671.311 392.153 C 671.311 393.284 670.78 394.404 669.704 395.514 C 668.628 396.625 667.002 397.68 664.944 398.578 C 660.83 400.377 655.027 401.524 648.613 401.524 C 642.198 401.524 636.396 400.377 632.281 398.578 C 630.224 397.681 628.597 396.625 627.521 395.514 C 626.446 394.404 625.945 393.284 625.945 392.153 C 625.945 391.022 626.446 389.902 627.521 388.791 C 628.597 387.681 630.223 386.627 632.281 385.727 C 636.396 383.931 642.198 382.782 648.613 382.782 Z" style="fill: rgb(30, 30, 30);" transform="matrix(0.965926, -0.258819, 0.258819, 0.965926, -79.395013, 181.239357)"/>
</svg>