<?xml version="1.0" encoding="utf-8"?>
<svg version="1.2" baseProfile="tiny" id="Layer_3" x="0px" y="0px" viewBox="0 0 1280 720" preserveAspectRatio="none" xmlns="http://www.w3.org/2000/svg">
  <path id="path5" d="M 479.392 242.862 C 413.73 242.862 360.473 296.09 360.473 361.753 C 360.473 427.417 413.73 480.672 479.392 480.672 C 505.313 480.672 529.288 472.387 548.828 458.304 L 548.857 458.276 L 551.304 456.404 L 551.304 456.375 L 551.332 456.375 C 555.266 453.235 560.238 451.368 565.668 451.368 L 609.54 451.368 L 671.405 451.368 L 715.277 451.368 C 720.709 451.368 725.68 453.235 729.613 456.375 L 729.642 456.375 L 729.642 456.404 L 732.089 458.276 L 732.118 458.304 C 751.657 472.387 775.633 480.672 801.553 480.672 C 867.218 480.672 920.473 427.415 920.473 361.753 C 920.473 296.089 867.215 242.862 801.553 242.862 L 672.299 242.862 L 648.376 242.862 L 647.456 242.862 L 647.456 243.783 L 647.456 244.992 L 633.753 244.992 L 633.753 243.783 L 633.753 242.862 L 632.832 242.862 L 608.651 242.862 L 479.395 242.862 L 479.392 242.862 Z M 479.392 244.705 L 608.647 244.705 L 631.907 244.705 L 631.907 245.915 L 631.907 246.835 L 632.828 246.835 L 648.372 246.835 L 649.294 246.835 L 649.294 245.915 L 649.294 244.705 L 672.295 244.705 L 801.549 244.705 C 866.219 244.705 918.625 297.088 918.625 361.753 C 918.625 426.422 866.215 478.829 801.549 478.829 C 776.031 478.829 752.442 470.663 733.206 456.805 L 733.178 456.805 L 730.76 454.935 C 726.512 451.544 721.128 449.524 715.272 449.524 L 671.4 449.524 L 609.537 449.524 L 565.664 449.524 C 559.808 449.524 554.425 451.544 550.177 454.935 L 547.759 456.805 L 547.73 456.805 C 528.504 470.67 504.922 478.833 479.395 478.833 C 414.729 478.833 362.319 426.425 362.319 361.757 C 362.319 297.09 414.73 244.708 479.395 244.708 L 479.392 244.705 Z" style="fill: rgb(30, 30, 30);" transform="matrix(0.965926, -0.258819, 0.258819, 0.965926, -71.808574, 178.093426)"/>
  <path id="circle9" d="M 485.341 339.079 C 450.087 339.079 421.491 367.678 421.491 402.931 C 421.491 438.183 450.088 466.782 485.341 466.782 C 520.595 466.782 549.221 438.183 549.221 402.931 C 549.221 367.677 520.596 339.079 485.341 339.079 Z M 485.341 340.922 C 519.599 340.922 547.38 368.673 547.38 402.93 C 547.38 437.186 519.599 464.938 485.341 464.938 C 451.083 464.938 423.332 437.186 423.332 402.93 C 423.333 368.672 451.085 340.922 485.341 340.922 Z" style="fill: rgb(30, 30, 30);" transform="matrix(0.965926, -0.258819, 0.258819, 0.965926, -87.747992, 139.348925)"/>
  <path id="path13" d="M 472.673 353.329 C 469.706 353.329 467.29 355.745 467.29 358.714 L 467.29 383.816 C 467.29 384.306 467.219 384.415 467.29 384.336 C 467.361 384.253 467.29 384.363 466.686 384.363 L 441.641 384.363 C 438.674 384.363 436.229 386.807 436.229 389.776 L 436.229 416.086 C 436.229 419.055 438.674 421.498 441.641 421.498 L 466.6 421.498 C 467.037 421.498 467.181 421.592 467.205 421.613 C 467.229 421.636 467.292 421.693 467.292 422.074 L 467.292 447.147 C 467.292 450.118 469.707 452.531 472.675 452.531 L 498.038 452.531 C 501.005 452.531 503.421 450.118 503.421 447.147 L 503.421 422.017 C 503.421 421.735 503.467 421.652 503.507 421.615 C 503.548 421.576 503.682 421.498 504.055 421.498 L 529.07 421.498 C 532.037 421.498 534.482 419.055 534.482 416.087 L 534.482 389.776 C 534.482 386.808 532.037 384.363 529.07 384.363 L 504.023 384.363 C 503.719 384.363 503.591 384.303 503.534 384.248 C 503.478 384.191 503.419 384.099 503.419 383.816 L 503.419 358.714 C 503.419 355.746 501.004 353.329 498.036 353.329 L 472.673 353.329 L 472.673 353.329 Z M 472.673 355.172 L 498.036 355.172 C 500.008 355.172 501.577 356.741 501.577 358.713 L 501.577 383.816 C 501.577 384.464 501.779 385.118 502.24 385.571 C 502.699 386.022 503.367 386.204 504.025 386.204 L 529.07 386.204 C 531.042 386.204 532.639 387.803 532.639 389.774 L 532.639 416.084 C 532.639 418.057 531.042 419.654 529.07 419.654 L 504.055 419.654 C 503.37 419.654 502.711 419.834 502.241 420.287 C 501.771 420.743 501.579 421.397 501.579 422.014 L 501.579 447.146 C 501.579 449.118 500.01 450.686 498.038 450.686 L 472.676 450.686 C 470.704 450.686 469.135 449.118 469.135 447.146 L 469.135 422.071 C 469.135 421.399 468.951 420.694 468.444 420.23 C 467.938 419.764 467.283 419.654 466.601 419.654 L 441.642 419.654 C 439.67 419.654 438.073 418.057 438.073 416.084 L 438.073 389.774 C 438.073 387.802 439.67 386.204 441.642 386.204 L 466.688 386.204 C 467.479 386.204 468.188 386.1 468.673 385.542 C 469.158 384.984 469.133 384.381 469.133 383.815 L 469.133 358.712 C 469.133 356.74 470.702 355.17 472.673 355.172 L 472.673 355.172 Z" style="fill: rgb(30, 30, 30);" transform="matrix(0.965926, -0.258819, 0.258819, 0.965926, -87.74783, 139.348675)"/>
  <path id="path25" d="M 608.297 372.256 C 606.14 372.065 603.893 372.716 602.107 374.214 L 578.013 394.422 C 574.442 397.416 573.954 402.771 576.947 406.341 C 579.94 409.912 585.295 410.37 588.866 407.378 L 612.991 387.167 C 616.561 384.175 617.019 378.82 614.028 375.248 C 612.531 373.463 610.457 372.445 608.299 372.255 L 608.297 372.255 Z M 608.124 374.099 C 609.809 374.247 611.439 375.026 612.616 376.43 C 614.969 379.237 614.617 383.404 611.809 385.757 L 587.685 405.966 C 584.877 408.318 580.711 407.968 578.357 405.161 C 576.004 402.352 576.384 398.185 579.192 395.834 L 603.318 375.622 C 604.723 374.445 606.442 373.948 608.126 374.096 L 608.124 374.099 Z" style="fill: rgb(30, 30, 30);" transform="matrix(0.965926, -0.258819, 0.258819, 0.965926, -80.852418, 167.44059)"/>
  <path id="path27" d="M 606.194 367.731 C 603.7 367.989 601.26 368.968 599.198 370.697 L 575.071 390.934 C 569.572 395.546 568.851 403.747 573.459 409.244 C 578.068 414.743 586.298 415.465 591.796 410.856 L 615.922 390.648 C 621.42 386.038 622.142 377.838 617.534 372.339 C 614.653 368.902 610.348 367.303 606.192 367.733 L 606.194 367.731 Z M 608.526 369.546 C 611.371 369.796 614.141 371.15 616.125 373.519 C 620.095 378.254 619.449 385.267 614.715 389.235 L 590.619 409.444 C 585.883 413.413 578.841 412.799 574.872 408.063 C 570.903 403.327 571.517 396.314 576.253 392.346 L 600.378 372.136 C 602.747 370.153 605.681 369.295 608.526 369.546 L 608.526 369.546 Z" style="fill: rgb(30, 30, 30);" transform="matrix(0.965926, -0.258819, 0.258819, 0.965926, -80.849665, 167.441249)"/>
  <path id="path29" d="M 666.526 356.653 C 664.367 356.462 662.151 357.113 660.365 358.611 L 636.24 378.819 C 632.676 381.806 632.201 387.137 635.175 390.707 L 635.175 390.737 C 638.167 394.308 643.523 394.766 647.094 391.772 L 671.219 371.564 C 674.788 368.571 675.247 363.217 672.254 359.645 C 670.758 357.862 668.684 356.843 666.526 356.653 L 666.526 356.653 Z M 666.353 358.496 C 668.037 358.644 669.668 359.423 670.844 360.827 C 673.197 363.634 672.846 367.801 670.037 370.154 L 645.913 390.363 C 643.107 392.715 638.94 392.365 636.586 389.558 C 634.232 386.749 634.613 382.582 637.421 380.231 L 661.545 360.021 C 662.95 358.844 664.67 358.347 666.354 358.496 L 666.353 358.496 Z" style="fill: rgb(30, 30, 30);" transform="matrix(0.965926, -0.258819, 0.258819, 0.965926, -74.829695, 181.980723)"/>
  <path id="path31" d="M 664.424 352.129 C 661.93 352.387 659.49 353.366 657.428 355.095 L 633.302 375.332 C 627.803 379.944 627.08 388.145 631.69 393.642 C 636.297 399.141 644.529 399.863 650.027 395.254 L 674.144 375.043 C 679.643 370.434 680.364 362.233 675.757 356.735 C 672.876 353.298 668.57 351.699 664.414 352.129 L 664.424 352.129 Z M 666.756 353.944 C 669.6 354.194 672.371 355.548 674.355 357.917 C 678.323 362.652 677.68 369.665 672.943 373.633 L 648.848 393.842 C 644.112 397.811 637.069 397.196 633.101 392.461 C 629.133 387.725 629.747 380.712 634.483 376.744 L 658.608 356.534 C 660.977 354.551 663.912 353.693 666.756 353.944 L 666.756 353.944 Z" style="fill: rgb(30, 30, 30);" transform="matrix(0.965926, -0.258819, 0.258819, 0.965926, -74.827296, 181.979668)"/>
  <path id="path33" d="M 796.509 213.943 C 738.114 213.943 690.746 261.315 690.746 319.705 C 690.746 378.1 738.116 425.442 796.509 425.442 C 829.661 425.442 859.25 410.2 878.64 386.32 L 878.725 386.205 L 878.784 386.091 L 878.986 385.601 L 879.446 384.507 L 878.266 384.333 C 877.604 384.242 877.086 383.704 877.086 383.009 C 877.086 382.247 877.679 381.656 878.439 381.656 C 879.074 381.656 879.608 382.065 879.764 382.634 L 880.31 384.678 L 881.433 382.894 L 881.951 382.031 L 881.98 381.973 C 894.728 364.504 902.247 342.981 902.247 319.705 C 902.247 261.311 854.904 213.941 796.51 213.941 L 796.51 213.943 Z M 796.509 215.785 C 853.908 215.785 900.402 262.312 900.402 319.705 C 900.402 342.525 893.034 363.596 880.567 380.736 C 879.993 380.195 879.282 379.814 878.436 379.814 C 876.681 379.814 875.241 381.257 875.241 383.01 C 875.241 384.144 875.953 384.976 876.853 385.543 C 857.795 408.765 828.895 423.601 796.507 423.601 C 739.108 423.601 692.584 377.106 692.584 319.707 C 692.584 262.309 739.111 215.786 796.507 215.786 L 796.509 215.785 Z" style="fill: rgb(30, 30, 30);" transform="matrix(0.965926, -0.258819, 0.258819, 0.965926, -55.602305, 217.041829)"/>
  <path id="circle35" d="M 744.727 312.653 C 732.705 312.653 722.935 322.424 722.935 334.445 C 722.935 346.467 732.705 356.238 744.727 356.238 C 756.749 356.238 766.52 346.467 766.52 334.445 C 766.52 322.424 756.749 312.653 744.727 312.653 Z M 744.727 314.494 C 755.754 314.494 764.678 323.419 764.678 334.445 C 764.678 345.471 755.754 354.395 744.727 354.395 C 733.702 354.395 724.778 345.471 724.778 334.445 C 724.778 323.419 733.702 314.494 744.727 314.494 L 744.727 314.494 Z" style="fill: rgb(30, 30, 30);" transform="matrix(0.965926, -0.258819, 0.258819, 0.965926, -61.184871, 204.14552)"/>
  <path id="circle37" d="M 785.169 259.135 C 773.146 259.135 763.405 268.903 763.405 280.928 C 763.405 292.948 773.147 302.719 785.169 302.719 C 797.19 302.719 806.961 292.948 806.961 280.928 C 806.961 268.903 797.19 259.135 785.169 259.135 Z M 785.169 260.976 C 796.194 260.976 805.118 269.901 805.118 280.927 C 805.118 291.953 796.194 300.875 785.169 300.875 C 774.143 300.875 765.247 291.953 765.247 280.927 C 765.248 269.901 774.142 260.976 785.169 260.976 Z" style="fill: rgb(30, 30, 30);" transform="matrix(0.965926, -0.258819, 0.258819, 0.965926, -45.954797, 212.792691)"/>
  <path id="path39" d="M 789.47 259.294 C 784.182 259.652 778.959 261.525 774.463 265.024 L 721.551 306.248 C 709.577 315.574 707.417 332.879 716.743 344.851 C 726.069 356.825 743.374 358.955 755.348 349.631 L 808.262 308.424 C 820.238 299.102 822.393 281.8 813.07 269.825 C 807.239 262.341 798.276 258.693 789.469 259.288 L 789.47 259.294 Z M 789.613 261.107 C 797.831 260.55 806.162 263.96 811.607 270.954 C 820.322 282.144 818.306 298.255 807.117 306.968 L 754.205 348.191 C 743.017 356.905 726.905 354.889 718.192 343.7 C 709.477 332.511 711.494 316.402 722.682 307.687 L 775.594 266.491 C 779.789 263.223 784.684 261.442 789.613 261.107 L 789.613 261.107 Z" style="fill: rgb(30, 30, 30);" transform="matrix(0.965926, -0.258819, 0.258819, 0.965926, -53.479602, 208.444217)"/>
  <path id="circle41" d="M 807.942 337.384 C 795.92 337.384 786.15 347.154 786.15 359.177 C 786.15 371.199 795.92 380.941 807.942 380.941 C 819.965 380.941 829.705 371.198 829.705 359.177 C 829.705 347.155 819.965 337.384 807.942 337.384 Z M 807.942 339.227 C 818.969 339.227 827.863 348.151 827.863 359.177 C 827.863 370.204 818.969 379.098 807.942 379.098 C 796.916 379.098 787.993 370.204 787.993 359.177 C 787.994 348.151 796.917 339.227 807.942 339.227 Z" style="fill: rgb(30, 30, 30);" transform="matrix(0.965926, -0.258819, 0.258819, 0.965926, -65.428642, 221.345202)"/>
  <path id="circle43" d="M 848.388 283.865 C 836.367 283.865 826.595 293.636 826.595 305.658 C 826.595 317.68 836.367 327.45 848.388 327.45 C 860.41 327.45 870.18 317.68 870.18 305.658 C 870.18 293.636 860.41 283.865 848.388 283.865 Z M 848.388 285.708 C 859.414 285.708 868.338 294.632 868.338 305.657 C 868.338 316.684 859.414 325.606 848.388 325.606 C 837.362 325.606 828.438 316.683 828.438 305.657 C 828.438 294.632 837.362 285.708 848.388 285.708 Z" style="fill: rgb(30, 30, 30);" transform="matrix(0.965926, -0.258819, 0.258819, 0.965926, -50.201883, 229.993881)"/>
  <path id="path45" d="M 852.69 284.027 C 847.404 284.384 842.153 286.26 837.663 289.756 L 784.75 330.979 C 772.776 340.306 770.617 357.609 779.943 369.583 C 789.268 381.556 806.573 383.686 818.549 374.362 L 871.46 333.165 C 883.434 323.841 885.594 306.535 876.267 294.561 C 870.439 287.079 861.5 283.432 852.69 284.027 L 852.69 284.027 Z M 852.805 285.84 C 861.021 285.282 869.354 288.692 874.798 295.686 C 883.513 306.876 881.524 322.985 870.336 331.701 L 817.424 372.923 C 806.234 381.638 790.123 379.621 781.411 368.433 C 772.697 357.243 774.685 341.134 785.873 332.42 L 838.814 291.225 C 843.009 287.954 847.874 286.175 852.805 285.84 L 852.805 285.84 Z" style="fill: rgb(30, 30, 30);" transform="matrix(0.965926, -0.258819, 0.258819, 0.965926, -57.728081, 225.644463)"/>
</svg>