<?xml version="1.0" encoding="utf-8"?>
<svg version="1.1" xmlns="http://www.w3.org/2000/svg">
  <path d="M 167.164 45.119 C 165.755 45.588 164.197 45.902 162.633 46.215 C 159.659 46.841 156.207 47.782 152.609 48.722 C 148.853 49.66 144.783 50.758 140.717 51.854 C 138.838 52.48 137.125 53.097 135.243 53.566 C 121.784 57.636 108.947 62.184 102.685 64.844 C 101.276 65.47 100.335 66.097 99.709 66.41 C 98.457 67.349 96.733 70.002 96.733 70.002 L 95.167 73.135 C 95.167 73.135 98.615 71.254 102.685 69.533 C 107.379 67.498 112.856 65.63 114.42 67.194 C 116.611 69.228 111.132 92.227 113.167 111.634 C 113.793 109.6 114.42 110.079 114.42 110.079 L 116.926 115.081 L 118.179 112.888 L 121.312 119.31 L 121.468 115.551 L 122.408 116.335 C 121.272 105.107 122.207 67.416 126.284 63.006 C 127.536 61.754 130.985 60.185 135.212 58.775 C 136.934 58.149 138.804 57.522 140.685 57.052 C 144.912 55.8 149.293 54.703 152.577 53.92 L 158.842 52.364 C 158.842 52.364 159.784 49.857 162.602 48.605 C 163.071 48.449 163.385 48.292 163.698 48.292 C 163.698 48.292 162.594 46.568 167.133 45.159 L 167.164 45.119 Z M 162.633 54.976 C 159.972 55.133 156.365 55.76 152.609 56.699 C 148.382 57.638 144.001 58.893 140.717 59.988 C 139.621 60.302 138.523 60.772 137.741 60.928 C 141.497 62.493 140.56 64.53 140.56 64.53 L 140.717 64.687 L 143.067 66.253 C 143.067 66.253 145.261 65.627 147.297 65.47 C 148.392 77.365 146.67 90.51 146.67 90.51 L 140.729 91.92 L 140.719 91.92 L 140.103 92.077 L 140.719 92.996 L 140.719 93.016 L 144.321 97.233 L 143.851 99.27 L 145.104 99.113 C 145.104 99.113 144.475 104.275 140.72 111.005 L 140.72 111.026 C 139.94 112.584 139.001 114.147 137.755 115.861 C 138.535 116.173 139.627 116.015 140.72 115.704 C 140.723 115.703 140.727 115.705 140.73 115.704 C 142.761 115.078 144.636 113.981 144.636 113.981 L 151.517 111.632 L 151.517 113.355 L 152.613 112.728 L 154.179 111.789 C 154.179 111.789 158.095 103.031 158.095 93.485 C 158.095 93.485 160.29 92.857 162.636 91.448 C 163.732 90.979 164.82 90.195 165.915 89.256 C 174.212 98.645 180.002 107.884 180.002 107.884 L 182.978 107.571 L 183.761 105.534 L 186.581 105.848 L 187.207 104.595 L 187.521 105.064 L 190.34 107.257 L 191.906 105.378 L 194.089 105.847 C 194.089 105.847 191.59 103.182 187.52 98.8 C 183.764 94.731 178.441 89.097 172.65 83.303 C 175.155 81.112 178.134 78.451 178.444 71.411 C 178.601 63.742 173.907 55.914 164.671 54.975 L 162.633 54.976 Z M 159.646 62.788 C 160.708 62.771 161.709 62.917 162.633 63.123 C 165.92 64.061 167.949 66.561 167.949 70.002 C 167.636 74.54 165.295 77.835 162.633 80.027 C 161.381 81.122 159.969 82.053 158.874 82.523 C 158.874 82.523 158.403 70.948 157.934 62.965 C 158.365 62.887 158.776 62.833 159.187 62.808 C 159.341 62.799 159.495 62.79 159.647 62.788 L 159.646 62.788 Z M 93.453 64.99 C 92.671 65.304 91.887 65.46 91.104 65.774 L 91.104 65.784 C 85.627 67.506 80.461 69.219 76.234 70.786 C 69.819 73.291 65.595 75.17 65.595 75.17 L 66.055 72.194 C 66.055 72.194 61.992 74.857 58.076 75.484 C 56.639 75.644 55.202 75.644 54.133 75.019 C 48.018 77.211 22.978 92.695 17.979 100.38 C 17.196 103.511 14.063 108.68 14.063 108.68 L 11.87 115.56 L 13.436 115.403 L 11.714 118.848 L 13.124 118.379 L 13.124 120.415 C 13.124 120.415 20.792 110.083 27.836 104.136 C 26.897 109.612 26.896 115.089 26.896 115.089 L 24.547 117.595 L 22.208 122.45 L 24.077 122.45 L 23.92 124.33 L 25.486 123.546 L 24.86 125.729 L 26.113 125.729 C 26.113 125.729 26.427 133.407 27.366 137.788 L 32.378 139.5 L 33.162 138.571 L 35.981 140.753 L 38.163 139.03 C 38.163 139.03 37.38 124.168 37.694 117.749 C 40.198 115.088 48.971 110.084 48.971 110.084 L 49.754 107.264 L 48.501 104.132 L 51.779 99.277 C 45.518 102.564 37.849 107.266 37.849 107.266 C 37.849 107.266 38.633 96.938 39.729 95.06 C 40.824 93.181 48.025 88.634 58.043 82.843 C 63.52 79.713 69.628 76.585 76.2 73.143 C 81.052 70.796 86.06 68.452 91.069 66.107 L 91.069 66.096 C 91.852 65.783 92.636 65.313 93.419 65 L 93.453 64.99 Z M 143.541 67.966 L 127.576 72.664 L 126.636 108.183 L 135.25 105.678 L 140.095 104.111 L 140.095 94.568 L 133.372 95.508 L 133.529 90.495 L 135.252 90.025 L 139.626 88.616 L 139.469 86.736 L 140.879 81.577 L 135.252 82.977 L 133.529 83.446 L 133.999 78.287 L 135.252 77.974 L 137.006 77.462 L 141.507 76.251 L 143.074 74.215 L 141.507 73.588 L 143.541 67.966 Z M 108.456 75.795 C 108.456 75.795 106.889 79.24 105.324 76.735 C 104.854 78.456 103.6 79.085 102.661 79.241 C 102.034 79.241 101.564 79.241 101.564 79.241 L 101.095 90.665 L 97.493 92.231 L 98.589 79.711 L 96.866 81.278 L 95.456 79.711 L 92.961 83.46 L 92.177 82.05 L 91.081 82.99 L 90.298 83.773 C 90.298 83.773 87.636 106.629 88.575 116.646 C 89.671 115.394 90.142 117.586 90.142 117.586 L 91.081 116.333 L 91.394 115.863 L 94.057 122.128 L 95.143 118.369 L 96.866 119.152 L 96.866 101.306 L 100.939 100.053 L 101.096 115.55 L 102.662 116.334 L 104.366 117.102 L 104.7 115.064 L 108.911 119.608 C 108.911 119.608 107.19 93.625 109.85 76.404 C 108.911 77.343 108.451 75.777 108.451 75.777 L 108.456 75.795 Z M 86.704 82.665 C 86.704 82.665 81.541 83.764 76.218 86.738 C 70.742 89.868 64.951 95.349 64.483 104.114 C 63.544 118.358 74.34 117.102 76.218 116.948 C 76.375 116.948 76.688 116.791 76.688 116.791 L 76.688 123.838 L 77.315 122.116 L 78.568 122.899 L 80.437 121.802 L 82.629 123.525 L 82.964 122.155 L 84.373 122.469 L 85 103.997 L 87.819 102.901 L 87.193 96.95 L 76.239 101.648 L 73.89 102.588 L 76.239 106.504 L 76.396 106.66 L 77.649 106.347 L 77.649 109.166 C 77.649 109.166 77.022 109.323 76.239 109.323 C 74.674 109.01 72.009 108.066 72.324 103.215 C 72.48 99.773 74.204 97.428 76.239 95.707 C 79.527 93.046 83.905 91.791 85.783 90.224 L 84.373 89.597 L 86.409 88.657 L 86.704 82.665 Z M 60.253 90.183 C 59.627 92.061 58.843 93.473 58.06 94.413 C 56.495 96.918 54.771 97.692 54.771 97.692 C 54.771 97.692 51.326 112.408 52.578 128.684 L 53.831 128.057 L 55.085 129.153 L 56.338 128.684 C 56.338 128.684 57.121 130.407 58.06 131.503 C 58.999 132.442 60.097 132.912 61.193 132.286 C 61.975 131.817 60.099 109.127 63.856 94.562 C 63.856 94.562 61.818 96.28 60.253 90.178 L 60.253 90.183 Z" stroke-miterlimit="4" stroke-dasharray="none" stroke-width="1.87399995" style="fill: rgb(255, 255, 255);"/>
  <path d="M 177.857 0 C 177.094 0.007 176.344 0.024 175.591 0.073 C 162.756 0.856 149.758 2.894 137.231 5.556 C 122.676 8.53 108.749 12.44 96.867 16.195 C 91.544 17.917 86.378 19.644 81.841 21.208 C 75.111 23.712 69.327 25.899 65.261 27.777 C 61.191 29.342 58.838 30.596 58.371 30.909 C 58.371 30.909 57.27 35.758 51.634 39.828 L 54.61 39.368 L 47.573 45.78 C 47.573 45.78 60.879 38.586 65.263 37.333 C 65.732 37.177 66.192 37.177 66.506 37.177 C 67.444 38.272 66.515 43.278 65.263 49.226 C 63.698 57.208 61.504 67.065 62.6 72.074 L 65.263 69.568 L 65.576 69.411 C 69.72 70.364 70.655 66.929 70.655 66.929 L 72.378 67.555 L 72.848 66.616 L 75.354 66.616 C 75.354 66.616 75.2 37.031 79.584 32.032 C 79.74 31.719 80.671 31.248 81.923 30.465 C 85.053 29.057 90.377 26.87 96.949 24.368 C 108.845 19.984 124.493 14.664 137.314 11.065 C 142.008 9.657 146.402 8.559 150.001 7.776 C 151.879 7.463 151.557 9.344 152.183 11.065 C 152.653 12.63 151.097 14.504 150.784 17.006 C 150.627 19.198 149.688 40.48 149.688 40.48 L 151.4 39.853 L 153.592 40.01 L 154.376 37.671 L 156.099 38.767 L 156.882 37.514 L 157.978 38.454 L 159.545 37.984 C 159.545 37.984 159.078 9.185 163.618 6.211 C 166.122 4.333 173.635 4.018 178.487 4.174 C 186.783 4.644 195.224 5.274 194.756 9.658 C 194.287 14.042 189.283 15.913 189.283 15.913 L 190.379 17.323 L 188.969 17.479 L 188.969 19.672 L 186.307 20.455 L 187.042 21.22 L 181.873 23.256 L 183.752 23.726 L 179.536 25.752 C 179.536 25.752 197.686 24.03 199.878 11.664 C 201.345 4.474 189.326 -0.09 177.888 0.01 Z M 72.769 10.726 C 70.109 11.509 67.61 12.126 65.261 12.752 C 34.426 21.048 22.691 31.062 22.691 41.394 C 22.691 52.508 34.116 56.263 34.584 58.141 C 38.196 72.693 0 79.586 0 79.586 L 2.193 81.623 L 2.349 83.335 L 5.482 86.937 L 8.917 87.564 L 10.013 89.756 L 16.121 88.973 L 15.651 91.322 C 21.128 92.261 46.479 82.24 52.273 71.284 C 56.5 63.301 54.153 57.511 54.153 57.511 C 51.346 47.944 39.618 47.483 39.618 39.033 C 39.305 31.521 53.244 24.474 65.293 19.622 C 72.805 16.492 80.483 14.156 82.675 13.531 C 82.107 13.461 76.627 13.855 74.388 13.982 L 74.388 12.886 L 72.039 12.886 Z M 147.116 10.726 L 129.897 15.257 L 129.427 20.583 L 128.644 22.933 L 127.078 45.624 L 145.081 41.24 L 145.551 33.732 L 137.251 36.123 L 137.251 36.081 L 135.225 36.708 L 135.852 30.757 L 143.831 28.251 L 144.771 21.995 L 136.324 23.875 L 136.637 19.177 L 137.253 19.177 L 137.253 19.02 L 146.338 16.514 Z M 126.132 16.206 L 110.634 21.218 L 110.477 26.691 L 109.538 29.197 L 108.911 44.848 L 104.223 40.464 C 104.223 40.464 105.633 38.122 105.633 33.742 C 105.633 29.204 101.87 25.451 98.115 25.451 C 97.802 25.451 97.331 25.598 96.862 25.598 C 92.949 26.537 84.809 30.299 81.835 31.863 L 81.721 31.926 C 81.094 32.238 80.624 32.395 80.624 32.395 L 81.407 33.022 L 81.721 33.961 L 81.992 34.212 L 83.089 34.995 L 83.402 37.188 L 86.221 36.248 C 86.221 36.248 84.969 42.507 85.438 45.634 L 81.846 47.044 L 81.836 47.044 L 80.907 47.514 L 81.836 47.827 L 81.846 47.827 L 82.306 47.984 L 82.306 49.863 L 82.932 50.646 L 82.932 52.056 L 84.342 51.586 L 83.872 62.072 L 84.812 60.975 L 86.221 60.349 L 88.257 60.506 L 88.257 59.096 L 90.45 59.409 L 90.92 58.156 L 93.113 58.156 L 93.426 49.866 C 93.426 49.866 94.983 49.552 96.861 48.613 C 97.956 47.987 99.054 47.046 99.993 45.637 L 107.197 53.313 L 109.85 52.529 L 110.006 50.65 L 111.886 51.589 L 115.161 51.422 L 114.693 50.637 L 123.781 47.975 L 124.878 39.371 L 115.492 42.337 L 115.962 36.553 L 123.784 33.733 L 124.097 27.625 L 116.118 29.974 L 116.588 24.972 L 125.817 21.683 Z M 96.864 31.703 C 98.429 31.86 100.153 32.332 99.684 34.679 C 99.371 36.401 98.116 37.969 96.864 38.909 C 95.299 40.318 93.585 40.935 93.585 40.935 C 93.585 36.24 94.828 31.86 94.828 31.86 C 94.828 31.86 95.768 31.703 96.864 31.703 Z" stroke-miterlimit="4" stroke-dasharray="none" stroke-width="1.87399995" style="fill: rgb(254, 254, 254);"/>
</svg>