<?xml version="1.0" encoding="utf-8"?>
<svg version="1.1" xmlns="http://www.w3.org/2000/svg">
  <path d="M 500.28 135.03 C 496.064 136.435 491.402 137.374 486.72 138.311 C 477.82 140.185 467.49 143.001 456.72 145.811 C 445.48 148.621 433.3 151.907 421.13 155.186 C 415.509 157.06 410.38 158.906 404.75 160.311 C 364.47 172.491 326.05 186.101 307.31 194.061 C 303.094 195.935 300.278 197.812 298.404 198.749 C 294.657 201.559 289.498 209.499 289.498 209.499 L 284.81 218.874 C 284.81 218.874 295.13 213.245 307.31 208.094 C 321.36 202.005 337.75 196.414 342.43 201.094 C 348.988 207.183 332.591 276.014 338.68 334.094 C 340.553 328.005 342.43 329.438 342.43 329.438 L 349.93 344.408 L 353.68 337.846 L 363.055 357.066 L 363.524 345.816 L 366.336 348.16 C 362.936 314.56 365.736 201.76 377.936 188.56 C 381.684 184.813 392.006 180.119 404.656 175.9 C 409.809 174.026 415.406 172.149 421.036 170.744 C 433.686 166.997 446.796 163.711 456.626 161.369 L 475.376 156.713 C 475.376 156.713 478.195 149.21 486.626 145.463 C 488.031 144.995 488.97 144.525 489.907 144.525 C 489.907 144.525 486.604 139.366 500.187 135.15 L 500.28 135.03 Z M 486.72 164.53 C 478.757 164.998 467.96 166.876 456.72 169.686 C 444.07 172.496 430.96 176.251 421.13 179.53 C 417.851 180.467 414.566 181.874 412.224 182.342 C 423.464 187.026 420.662 193.122 420.662 193.122 L 421.131 193.591 L 428.162 198.279 C 428.162 198.279 434.729 196.404 440.822 195.935 C 444.101 231.535 438.947 270.875 438.947 270.875 L 421.167 275.094 L 421.136 275.094 L 419.292 275.563 L 421.136 278.313 L 421.136 278.375 L 431.916 290.995 L 430.51 297.089 L 434.26 296.62 C 434.26 296.62 432.377 312.07 421.14 332.21 L 421.14 332.273 C 418.804 336.937 415.996 341.612 412.265 346.743 C 414.6 347.677 417.87 347.205 421.14 346.274 C 421.15 346.271 421.161 346.277 421.171 346.274 C 427.249 344.399 432.861 341.118 432.861 341.118 L 453.451 334.087 L 453.451 339.243 L 456.732 337.368 L 461.42 334.556 C 461.42 334.556 473.14 308.346 473.14 279.776 C 473.14 279.776 479.708 277.898 486.73 273.682 C 490.009 272.277 493.264 269.93 496.542 267.12 C 521.372 295.22 538.702 322.87 538.702 322.87 L 547.608 321.932 L 549.952 315.838 L 558.39 316.776 L 560.265 313.026 L 561.202 314.432 L 569.64 320.994 L 574.328 315.369 L 580.859 316.775 C 580.859 316.775 573.381 308.797 561.199 295.685 C 549.959 283.505 534.029 266.645 516.699 249.305 C 524.194 242.747 533.109 234.785 534.039 213.715 C 534.508 190.765 520.459 167.335 492.819 164.525 L 486.72 164.53 Z M 477.782 187.91 C 480.958 187.859 483.953 188.295 486.72 188.91 C 496.557 191.72 502.63 199.2 502.63 209.5 C 501.693 223.08 494.687 232.94 486.72 239.5 C 482.973 242.779 478.748 245.564 475.47 246.969 C 475.47 246.969 474.062 212.329 472.658 188.439 C 473.946 188.205 475.178 188.043 476.408 187.97 C 476.869 187.943 477.329 187.915 477.783 187.908 L 477.782 187.91 Z M 279.682 194.5 C 277.34 195.437 274.993 195.907 272.651 196.844 L 272.651 196.875 C 256.261 202.027 240.801 207.155 228.151 211.845 C 208.951 219.34 196.311 224.965 196.311 224.965 L 197.686 216.059 C 197.686 216.059 185.526 224.029 173.806 225.903 C 169.506 226.383 165.206 226.383 162.006 224.513 C 143.706 231.073 68.766 277.413 53.806 300.413 C 51.464 309.781 42.086 325.253 42.086 325.253 L 35.524 345.843 L 40.212 345.374 L 35.056 355.684 L 39.275 354.278 L 39.275 360.372 C 39.275 360.372 62.225 329.452 83.305 311.652 C 80.495 328.042 80.493 344.432 80.493 344.432 L 73.462 351.932 L 66.462 366.462 L 72.056 366.462 L 71.587 372.087 L 76.275 369.743 L 74.4 376.274 L 78.15 376.274 C 78.15 376.274 79.09 399.254 81.9 412.364 L 96.9 417.489 L 99.244 414.708 L 107.682 421.239 L 114.213 416.083 C 114.213 416.083 111.87 371.603 112.807 352.393 C 120.302 344.43 146.557 329.453 146.557 329.453 L 148.901 321.015 L 145.151 311.64 L 154.963 297.11 C 136.223 306.947 113.273 321.02 113.273 321.02 C 113.273 321.02 115.619 290.11 118.898 284.49 C 122.177 278.869 143.728 265.26 173.708 247.93 C 190.098 238.562 208.378 229.2 228.048 218.9 C 242.568 211.874 257.558 204.86 272.548 197.84 L 272.548 197.809 C 274.89 196.872 277.237 195.465 279.579 194.528 L 279.682 194.5 Z M 429.582 203.406 L 381.802 217.466 L 378.99 323.766 L 404.77 316.266 L 419.27 311.578 L 419.27 283.018 L 399.15 285.83 L 399.619 270.83 L 404.775 269.424 L 417.865 265.205 L 417.396 259.58 L 421.615 244.14 L 404.775 248.328 L 399.619 249.734 L 401.025 234.294 L 404.775 233.357 L 410.025 231.826 L 423.495 228.201 L 428.183 222.107 L 423.495 220.232 L 429.582 203.406 Z M 324.582 226.836 C 324.582 226.836 319.891 237.146 315.207 229.648 C 313.802 234.801 310.048 236.68 307.238 237.148 C 305.364 237.148 303.957 237.148 303.957 237.148 L 302.551 271.338 L 291.771 276.026 L 295.052 238.556 L 289.896 243.244 L 285.677 238.556 L 278.208 249.776 L 275.864 245.557 L 272.583 248.369 L 270.239 250.713 C 270.239 250.713 262.272 319.113 265.083 349.093 C 268.362 345.346 269.771 351.905 269.771 351.905 L 272.583 348.155 L 273.521 346.749 L 281.49 365.499 L 284.74 354.249 L 289.896 356.593 L 289.896 303.183 L 302.086 299.433 L 302.554 345.813 L 307.242 348.157 L 312.342 350.457 L 313.342 344.357 L 325.942 357.957 C 325.942 357.957 320.792 280.197 328.754 228.657 C 325.944 231.467 324.566 226.782 324.566 226.782 L 324.582 226.836 Z M 259.482 247.396 C 259.482 247.396 244.032 250.684 228.102 259.586 C 211.712 268.954 194.382 285.356 192.982 311.586 C 190.172 354.216 222.482 350.456 228.102 349.996 C 228.57 349.996 229.508 349.527 229.508 349.527 L 229.508 370.617 L 231.383 365.461 L 235.133 367.805 L 240.727 364.524 L 247.289 369.68 L 248.289 365.58 L 252.508 366.518 L 254.383 311.238 L 262.821 307.957 L 260.946 290.147 L 228.166 304.207 L 221.135 307.019 L 228.166 318.739 L 228.635 319.208 L 232.385 318.27 L 232.385 326.708 C 232.385 326.708 230.508 327.177 228.166 327.177 C 223.482 326.24 215.506 323.416 216.446 308.897 C 216.914 298.597 222.075 291.577 228.166 286.427 C 238.003 278.464 251.106 274.707 256.726 270.017 L 252.507 268.142 L 258.601 265.33 L 259.482 247.396 Z M 180.322 269.896 C 178.448 275.517 176.102 279.742 173.76 282.556 C 169.076 290.051 163.916 292.368 163.916 292.368 C 163.916 292.368 153.606 336.408 157.354 385.118 L 161.104 383.243 L 164.854 386.524 L 168.604 385.118 C 168.604 385.118 170.95 390.277 173.76 393.556 C 176.57 396.366 179.856 397.773 183.135 395.9 C 185.477 394.495 179.862 326.59 191.104 283 C 191.104 283 185.007 288.143 180.324 269.88 L 180.322 269.896 Z" stroke-miterlimit="4" stroke-dasharray="none" stroke-width="1.87399995" style="fill: rgb(255, 255, 255);"/>
  <path d="M 532.28 0 C 529.998 0.02 527.753 0.072 525.499 0.219 C 487.089 2.561 448.189 8.662 410.699 16.629 C 367.139 25.529 325.459 37.229 289.899 48.469 C 273.969 53.621 258.509 58.789 244.929 63.469 C 224.789 70.963 207.479 77.509 195.309 83.129 C 183.129 87.813 176.089 91.567 174.689 92.504 C 174.689 92.504 171.395 107.014 154.529 119.194 L 163.435 117.819 L 142.375 137.009 C 142.375 137.009 182.195 115.479 195.315 111.729 C 196.72 111.26 198.097 111.26 199.034 111.26 C 201.844 114.539 199.063 129.52 195.315 147.32 C 190.631 171.21 184.065 200.71 187.346 215.7 L 195.315 208.2 L 196.253 207.731 C 208.653 210.581 211.453 200.301 211.453 200.301 L 216.609 202.176 L 218.015 199.364 L 225.515 199.364 C 225.515 199.364 225.055 110.824 238.175 95.864 C 238.643 94.927 241.428 93.519 245.175 91.176 C 254.543 86.96 270.475 80.416 290.145 72.926 C 325.745 59.806 372.575 43.886 410.945 33.116 C 424.995 28.9 438.145 25.614 448.915 23.272 C 454.536 22.335 453.573 27.963 455.446 33.116 C 456.852 37.8 452.195 43.406 451.258 50.896 C 450.789 57.454 447.977 121.146 447.977 121.146 L 453.102 119.271 L 459.664 119.74 L 462.008 112.74 L 467.164 116.021 L 469.508 112.271 L 472.789 115.083 L 477.477 113.677 C 477.477 113.677 476.081 27.487 489.667 18.587 C 497.161 12.966 519.647 12.025 534.167 12.493 C 558.996 13.898 584.257 15.784 582.857 28.903 C 581.452 42.023 566.477 47.623 566.477 47.623 L 569.758 51.842 L 565.538 52.311 L 565.538 58.873 L 557.569 61.217 L 559.77 63.507 L 544.3 69.601 L 549.925 71.007 L 537.305 77.069 C 537.305 77.069 591.625 71.917 598.185 34.909 C 602.576 13.389 566.605 -0.271 532.374 0.029 Z M 217.78 32.1 C 209.817 34.442 202.34 36.289 195.31 38.162 C 103.03 62.992 67.91 92.962 67.91 123.882 C 67.91 157.142 102.1 168.382 103.5 174.002 C 114.31 217.552 0 238.182 0 238.182 L 6.562 244.276 L 7.031 249.401 L 16.406 260.181 L 26.686 262.056 L 29.967 268.618 L 48.247 266.274 L 46.841 273.305 C 63.231 276.115 139.101 246.125 156.441 213.335 C 169.091 189.445 162.066 172.115 162.066 172.115 C 153.666 143.485 118.566 142.105 118.566 116.815 C 117.629 94.335 159.346 73.245 195.406 58.725 C 217.886 49.357 240.866 42.365 247.426 40.495 C 245.726 40.285 229.326 41.465 222.626 41.845 L 222.626 38.564 L 215.595 38.564 Z M 440.28 32.1 L 388.75 45.66 L 387.344 61.6 L 385 68.631 L 380.312 136.541 L 434.192 123.421 L 435.598 100.951 L 410.758 108.107 L 410.758 107.982 L 404.696 109.857 L 406.571 92.047 L 430.451 84.547 L 433.263 65.827 L 407.983 71.452 L 408.921 57.392 L 410.764 57.392 L 410.764 56.923 L 437.954 49.423 Z M 377.48 48.5 L 331.1 63.5 L 330.631 79.88 L 327.819 87.38 L 325.944 134.22 L 311.914 121.1 C 311.914 121.1 316.133 114.09 316.133 100.98 C 316.133 87.4 304.873 76.17 293.633 76.17 C 292.697 76.17 291.288 76.607 289.883 76.607 C 278.173 79.417 253.813 90.677 244.913 95.357 L 244.569 95.545 C 242.695 96.482 241.288 96.951 241.288 96.951 L 243.632 98.826 L 244.57 101.638 L 245.382 102.388 L 248.663 104.732 L 249.601 111.294 L 258.039 108.482 C 258.039 108.482 254.29 127.212 255.695 136.572 L 244.945 140.791 L 244.914 140.791 L 242.133 142.197 L 244.914 143.134 L 244.945 143.134 L 246.32 143.603 L 246.32 149.228 L 248.195 151.572 L 248.195 155.791 L 252.414 154.385 L 251.008 185.765 L 253.82 182.484 L 258.039 180.609 L 264.133 181.078 L 264.133 176.859 L 270.695 177.797 L 272.101 174.047 L 278.663 174.047 L 279.6 149.237 C 279.6 149.237 284.26 148.297 289.88 145.487 C 293.159 143.613 296.445 140.796 299.255 136.581 L 320.815 159.551 L 328.753 157.207 L 329.222 151.582 L 334.847 154.394 L 344.647 153.894 L 343.247 151.544 L 370.447 143.578 L 373.728 117.828 L 345.638 126.703 L 347.044 109.393 L 370.454 100.955 L 371.392 82.675 L 347.512 89.706 L 348.918 74.736 L 376.538 64.892 Z M 289.89 94.88 C 294.574 95.348 299.733 96.76 298.328 103.786 C 297.392 108.938 293.637 113.632 289.89 116.446 C 285.206 120.662 280.078 122.508 280.078 122.508 C 280.078 108.458 283.797 95.348 283.797 95.348 C 283.797 95.348 286.611 94.879 289.891 94.879 Z" stroke-miterlimit="4" stroke-dasharray="none" stroke-width="1.87399995" style="fill: rgb(254, 254, 254);"/>
</svg>