<?xml version="1.0" encoding="utf-8"?>
<svg style="shape-rendering:geometricPrecision; text-rendering:geometricPrecision; image-rendering:optimizeQuality; fill-rule:evenodd; clip-rule:evenodd" xmlns="http://www.w3.org/2000/svg">
  <defs>
    <style type="text/css">
   
    .str0 {stroke:#014898;stroke-width:0.899998}
    .fil0 {fill:none}
    .fil1 {fill:#014898}
    .fil2 {fill:#014898;fill-rule:nonzero}
   
  </style>
  </defs>
  <path id="_48001888" class="fil1" d="M 54.95 0.002 L 28.455 0.002 C 3.957 4.521 33.855 43.394 24.556 43.938 L 0 43.975 L 0.002 57.936 L 34.633 57.902 C 58.218 54.649 26.974 15.502 38.911 14.956 C 49.469 15.202 54.95 14.977 54.95 14.977 L 54.95 0.002 Z" style="fill: rgb(255, 255, 255);"/>
  <path id="_47451944" class="fil1" d="M 72.956 0.008 L 57.957 0.002 L 57.945 46.859 C 57.904 54.466 66.367 58.451 78.497 58.479 C 92.631 58.417 99.903 55.572 99.908 46.933 L 99.936 0.002 L 85.947 0.002 L 85.896 38.883 C 85.883 41.025 84.792 41.94 82.92 41.925 L 76.906 41.927 C 74.136 41.937 72.905 40.86 72.912 38.908 L 72.956 0.008 Z" style="fill: rgb(255, 255, 255);"/>
  <path id="_48536336" class="fil1" d="M 209.705 0.002 L 183.209 0.002 C 158.712 4.521 188.609 43.394 179.311 43.938 L 154.754 43.975 L 154.757 57.936 L 189.388 57.902 C 212.973 54.649 181.728 15.502 193.666 14.956 C 204.224 15.202 209.705 14.977 209.705 14.977 L 209.705 0.002 Z" style="fill: rgb(255, 255, 255);"/>
  <path id="_47587320" class="fil1" d="M 118.928 0.002 L 104.933 0 L 104.933 57.968 L 118.922 57.958 L 118.922 31.984 C 118.917 23.585 127.917 57.902 136.916 57.962 L 150.905 57.962 L 150.898 0.004 L 136.914 0.005 L 136.897 25.988 C 136.884 34.898 126.167 -0.049 118.928 0.002 Z" style="fill: rgb(255, 255, 255);"/>
  <path id="_4167544" class="fil1" d="M 221.236 0.067 L 245.423 0.067 C 250.596 0.067 254.825 3.086 254.825 6.776 L 254.825 51.243 C 254.825 54.933 250.596 57.952 245.423 57.952 L 221.236 57.952 C 216.063 57.952 211.833 54.933 211.833 51.243 L 211.833 6.776 C 211.833 3.086 216.063 0.067 221.236 0.067 Z M 230.301 15.29 L 235.385 15.29 C 237.84 15.29 239.847 17.496 239.847 20.196 L 239.847 38.838 C 239.847 41.538 237.84 43.743 235.385 43.743 L 230.301 43.743 C 227.847 43.743 225.84 41.538 225.84 38.838 L 225.84 20.196 C 225.84 17.496 227.847 15.29 230.301 15.29 Z" style="fill: rgb(255, 255, 255);"/>
  <path id="_48324760" class="fil1" d="M 257.829 11.995 C 257.835 5.642 262.905 0.002 270.827 0.005 L 286.817 0.002 L 286.817 15.984 L 272.824 15.987 L 272.822 24.989 L 286.817 24.987 L 286.817 39.974 L 272.824 39.977 L 272.824 57.967 L 257.835 57.967 L 257.829 11.995 Z" style="fill: rgb(255, 255, 255);"/>
  <polygon id="_49004288" class="fil1" points="291.814 0.003 291.802 13.983 301.798 13.983 301.806 57.966 316.797 57.966 316.797 13.991 326.791 13.995 326.791 0.003" style="fill: rgb(255, 255, 255);"/>
</svg>