<?xml version="1.0" encoding="utf-8"?>
<svg style="shape-rendering:geometricPrecision; text-rendering:geometricPrecision; image-rendering:optimizeQuality; fill-rule:evenodd; clip-rule:evenodd" xmlns="http://www.w3.org/2000/svg">
  <defs>
    <style type="text/css">
   
    .str0 {stroke:#014898;stroke-width:0.899998}
    .fil0 {fill:none}
    .fil1 {fill:#014898}
    .fil2 {fill:#014898;fill-rule:nonzero}
   
  </style>
  </defs>
  <path id="_48001888" class="fil1" d="M 33.63 0.001 L 17.415 0.001 C 2.422 2.767 20.72 26.558 15.029 26.891 L 0 26.913 L 0.001 35.458 L 21.196 35.437 C 35.63 33.446 16.508 9.487 23.814 9.153 C 30.276 9.304 33.63 9.166 33.63 9.166 L 33.63 0.001 Z" style="fill: rgb(255, 255, 255);"/>
  <path id="_47451944" class="fil1" d="M 44.65 0.005 L 35.47 0.001 L 35.463 28.678 C 35.438 33.334 40.617 35.773 48.041 35.79 C 56.691 35.752 61.142 34.011 61.145 28.724 L 61.162 0.001 L 52.601 0.001 L 52.569 23.797 C 52.561 25.108 51.894 25.668 50.748 25.659 L 47.067 25.66 C 45.372 25.666 44.619 25.007 44.623 23.812 L 44.65 0.005 Z" style="fill: rgb(255, 255, 255);"/>
  <path id="_48536336" class="fil1" d="M 128.342 0.001 L 112.126 0.001 C 97.134 2.767 115.431 26.558 109.74 26.891 L 94.711 26.913 L 94.713 35.458 L 115.908 35.437 C 130.342 33.446 111.22 9.487 118.526 9.153 C 124.988 9.304 128.342 9.166 128.342 9.166 L 128.342 0.001 Z" style="fill: rgb(255, 255, 255);"/>
  <path id="_47587320" class="fil1" d="M 72.785 0.001 L 64.22 0 L 64.22 35.477 L 72.782 35.471 L 72.782 19.575 C 72.779 14.434 78.287 35.437 83.794 35.473 L 92.356 35.473 L 92.351 0.002 L 83.793 0.003 L 83.783 15.905 C 83.775 21.358 77.216 -0.03 72.785 0.001 Z" style="fill: rgb(255, 255, 255);"/>
  <path id="_4167544" class="fil1" d="M 135.399 0.041 L 150.202 0.041 C 153.368 0.041 155.956 1.889 155.956 4.147 L 155.956 31.361 C 155.956 33.62 153.368 35.467 150.202 35.467 L 135.399 35.467 C 132.233 35.467 129.644 33.62 129.644 31.361 L 129.644 4.147 C 129.644 1.889 132.233 0.041 135.399 0.041 Z M 140.947 9.358 L 144.058 9.358 C 145.561 9.358 146.789 10.708 146.789 12.36 L 146.789 23.769 C 146.789 25.422 145.561 26.771 144.058 26.771 L 140.947 26.771 C 139.445 26.771 138.217 25.422 138.217 23.769 L 138.217 12.36 C 138.217 10.708 139.445 9.358 140.947 9.358 Z" style="fill: rgb(255, 255, 255);"/>
  <path id="_48324760" class="fil1" d="M 157.794 7.341 C 157.798 3.453 160.901 0.001 165.749 0.003 L 175.535 0.001 L 175.535 9.782 L 166.972 9.784 L 166.97 15.294 L 175.535 15.292 L 175.535 24.465 L 166.972 24.466 L 166.972 35.476 L 157.798 35.476 L 157.794 7.341 Z" style="fill: rgb(255, 255, 255);"/>
  <polygon id="_49004288" class="fil1" points="178.594 0.002 178.586 8.558 184.704 8.558 184.709 35.476 193.884 35.476 193.884 8.563 200 8.565 200 0.002" style="fill: rgb(255, 255, 255);"/>
</svg>