<?xml version="1.0" encoding="utf-8"?>
<svg version="1.1" id="Layer_1" x="0px" y="0px" enable-background="new 0 0 476.5 89.097" xmlns="http://www.w3.org/2000/svg">
  <path fill-rule="evenodd" clip-rule="evenodd" d="M 0 57.685 C 10.768 58.903 21.535 60.123 27.064 58.459 C 32.592 56.797 32.881 52.25 33.17 47.705 C 34.225 44.41 35.781 41.111 38.154 37.806 C 38.95 36.669 39.871 35.62 40.897 34.685 C 41.925 33.748 43.058 32.927 44.266 32.241 C 45.476 31.553 46.764 30.999 48.095 30.593 L 48.095 30.593 L 53.192 29.614 L 58.333 28.897 L 58.333 28.897 C 60.513 28.594 62.734 27.92 64.88 26.802 C 65.901 26.269 66.878 25.654 67.988 24.766 C 69.1 23.875 70.344 22.714 71.45 21.436 C 72.558 20.156 73.527 18.758 74.344 17.278 C 75.16 15.796 75.823 14.232 76.319 12.616 C 77.614 9.031 78.825 5.433 79.955 1.823 C 70.592 -0.524 59.574 -0.54 53.79 1.401 C 48.006 3.34 47.453 7.233 46.922 9.884 C 46.389 12.535 45.88 13.944 45.299 15.325 C 44.72 16.706 44.07 18.061 43.389 19.263 C 42.708 20.464 41.995 21.517 41.175 22.48 C 40.355 23.443 39.429 24.318 38.422 25.086 C 37.367 25.801 36.311 26.515 35.219 27.044 C 33.053 28.114 30.746 28.523 28.486 29.168 C 25.291 29.764 22.031 30.159 18.827 31.095 C 17.241 31.553 15.709 32.202 14.277 33.024 C 12.846 33.843 11.516 34.838 10.324 35.974 C 9.132 37.112 8.081 38.393 7.197 39.78 C 6.678 40.583 6.16 41.386 5.515 42.658 C 4.869 43.931 4.095 45.673 3.323 47.414 C 2.038 50.812 0.933 54.237 0 57.685 L 0 57.685 Z" style="fill: rgb(255, 255, 255);"/>
  <path fill-rule="evenodd" clip-rule="evenodd" d="M 20.146 85.513 C 30.913 86.73 41.682 87.95 47.21 86.287 C 52.738 84.624 53.026 80.08 53.316 75.533 C 54.371 72.238 55.929 68.937 58.301 65.633 C 59.096 64.496 60.017 63.446 61.046 62.512 C 62.072 61.577 63.205 60.756 64.415 60.068 C 65.625 59.38 66.911 58.827 68.244 58.421 L 68.244 58.421 L 73.339 57.442 L 78.48 56.723 L 78.48 56.723 C 80.66 56.423 82.882 55.749 85.027 54.631 C 86.049 54.097 87.025 53.483 88.135 52.592 C 89.246 51.704 90.491 50.541 91.599 49.262 C 92.705 47.984 93.676 46.584 94.491 45.104 C 95.308 43.624 95.97 42.06 96.467 40.445 C 97.761 36.859 98.972 33.261 100.102 29.651 C 90.739 27.303 79.722 27.289 73.936 29.229 C 68.152 31.168 67.599 35.061 67.068 37.712 C 66.535 40.362 66.025 41.771 65.446 43.152 C 64.866 44.533 64.217 45.887 63.535 47.09 C 62.854 48.292 62.14 49.342 61.321 50.307 C 60.502 51.268 59.575 52.144 58.569 52.913 C 57.513 53.629 56.457 54.342 55.366 54.87 C 53.199 55.942 50.893 56.35 48.632 56.995 C 45.436 57.59 42.178 57.986 38.972 58.921 C 37.386 59.381 35.854 60.029 34.423 60.849 C 32.992 61.67 31.661 62.663 30.47 63.802 C 27.781 66.33 26.015 69.623 24.583 72.609 C 22.687 76.878 21.332 81.175 20.146 85.513 L 20.146 85.513 Z" style="fill: rgb(255, 255, 255);"/>
  <polygon fill-rule="evenodd" clip-rule="evenodd" points="110.736 72.071 125.539 72.078 137.012 42.564 144.614 72.071 161.976 72.071 154.539 42.485 181.116 17.151 163.355 17.151 138.142 39.985 146.273 17.156 131.25 17.151 110.736 72.071" style="fill: rgb(255, 255, 255);"/>
  <path fill-rule="evenodd" clip-rule="evenodd" d="M 222.467 26.457 C 221.948 24.991 221.181 23.608 220.221 22.374 C 219.26 21.14 218.106 20.054 216.81 19.176 C 215.515 18.3 214.079 17.631 212.436 17.103 C 209.09 16.043 205.143 15.557 201.434 15.633 C 199.55 15.673 197.67 15.855 195.448 16.28 C 193.225 16.704 190.661 17.373 188.254 18.413 C 185.848 19.453 183.596 20.867 181.616 22.579 C 179.637 24.29 177.927 26.302 176.666 28.052 C 175.407 29.801 174.596 31.287 173.819 32.787 C 173.044 34.287 172.3 35.8 171.62 37.341 C 170.311 40.39 169.097 43.343 168.15 46.204 C 167.7 47.623 167.349 49.074 167.094 50.541 C 166.84 52.008 166.684 53.491 166.608 54.604 C 166.532 55.718 166.535 56.459 166.575 57.2 C 166.613 57.94 166.686 58.679 166.783 59.415 C 166.877 60.155 166.995 60.893 167.41 62.078 C 167.824 63.264 168.533 64.893 169.529 66.34 C 170.525 67.787 171.807 69.045 173.269 70.036 C 174.732 71.027 176.373 71.752 178.242 72.278 C 182.029 73.329 186.481 73.64 190.653 73.392 C 192.764 73.264 194.867 72.981 197.168 72.394 C 199.47 71.806 201.967 70.909 204.267 69.647 C 206.568 68.385 208.67 66.759 210.462 64.854 C 212.256 62.951 213.74 60.767 215.041 58.375 C 216.343 55.98 217.462 53.378 218.527 50.758 C 219.591 48.137 220.601 45.5 221.303 43.54 C 222.005 41.581 222.4 40.301 222.699 38.999 C 222.999 37.695 223.206 36.371 223.327 35.038 C 223.573 32.407 223.492 29.421 222.467 26.457 L 222.467 26.457 L 222.467 26.457 L 222.467 26.457 Z M 207.974 34.616 C 207.171 37.606 206.368 40.595 205.395 43.531 C 204.422 46.467 203.281 49.345 202.14 52.225 C 201.307 54.199 200.161 56.21 198.684 58.063 C 197.703 59.291 196.687 60.146 195.568 60.778 C 194.286 61.507 192.945 61.905 191.635 62.069 C 189.641 62.318 187.598 62.02 185.991 61.288 C 185.115 60.882 184.217 60.269 183.493 59.487 C 182.393 58.272 182.043 57.003 181.971 55.79 C 181.906 54.412 182.069 53.038 182.416 51.706 C 184.055 45.241 186.484 38.809 189.872 32.474 C 190.334 31.555 190.928 30.701 191.63 29.948 C 192.332 29.194 193.146 28.54 194.034 28.021 C 195.857 26.979 197.693 26.515 199.245 26.405 C 201.57 26.285 204.04 26.488 206.027 28.164 C 206.626 28.682 207.124 29.314 207.49 30.015 C 207.855 30.716 208.088 31.486 208.169 32.271 C 208.253 33.056 208.184 33.854 207.974 34.616 L 207.974 34.616 L 207.974 34.616 L 207.974 34.616 Z" style="fill: rgb(255, 255, 255);"/>
  <polygon fill-rule="evenodd" clip-rule="evenodd" points="230.568 72.078 245.192 31.054 246.525 72.078 267.861 72.078 288.36 17.151 274.4 17.152 259.925 57.094 258.784 17.151 236.662 17.151 216.553 72.078 230.568 72.078" style="fill: rgb(255, 255, 255);"/>
  <path fill-rule="evenodd" clip-rule="evenodd" d="M 311.375 61.165 L 311.067 72.086 L 325.436 72.086 L 326.415 17.148 L 307.091 17.148 L 271.016 72.081 L 285.93 72.081 L 293.381 61.199 L 311.375 61.165 L 311.375 61.165 Z M 312.777 30.122 L 312.037 50.105 L 300.686 50.134 L 312.777 30.122 L 312.777 30.122 Z" style="fill: rgb(255, 255, 255);"/>
  <polygon fill-rule="evenodd" clip-rule="evenodd" points="373.09 17.162 348.539 17.162 328.022 72.076 342.009 72.076 357.2 31.343 354.04 72.086 368.838 72.086 394.902 31.918 379.708 72.081 394.129 72.081 414.744 17.167 389.914 17.167 368.268 52.611 373.09 17.162" style="fill: rgb(255, 255, 255);"/>
  <polygon fill-rule="evenodd" clip-rule="evenodd" points="424.391 17.163 403.814 72.083 418.041 72.083 438.82 17.163 424.391 17.163" style="fill: rgb(255, 255, 255);"/>
</svg>