<?xml version="1.0" encoding="utf-8"?>
<svg version="1.1" id="Layer_1" x="0px" y="0px" enable-background="new 0 0 476.5 89.097" xmlns="http://www.w3.org/2000/svg">
  <path fill-rule="evenodd" clip-rule="evenodd" d="M 0 26.291 C 4.908 26.846 9.815 27.402 12.335 26.644 C 14.854 25.886 14.986 23.814 15.118 21.742 C 15.599 20.241 16.308 18.737 17.389 17.231 C 17.752 16.712 18.172 16.234 18.64 15.808 C 19.108 15.381 19.624 15.007 20.175 14.694 C 20.726 14.381 21.314 14.128 21.92 13.943 L 21.92 13.943 L 24.243 13.497 L 26.586 13.17 L 26.586 13.17 C 27.58 13.032 28.592 12.725 29.57 12.215 C 30.036 11.972 30.481 11.692 30.987 11.287 C 31.494 10.881 32.061 10.352 32.565 9.77 C 33.07 9.186 33.511 8.549 33.884 7.875 C 34.256 7.199 34.558 6.486 34.784 5.75 C 35.374 4.116 35.926 2.476 36.441 0.831 C 32.174 -0.239 27.152 -0.246 24.516 0.638 C 21.88 1.522 21.628 3.296 21.386 4.505 C 21.143 5.713 20.911 6.355 20.646 6.985 C 20.382 7.614 20.086 8.232 19.775 8.779 C 19.465 9.327 19.14 9.807 18.766 10.246 C 18.393 10.684 17.97 11.083 17.512 11.433 C 17.031 11.759 16.549 12.085 16.052 12.326 C 15.064 12.813 14.013 13 12.983 13.294 C 11.527 13.565 10.041 13.745 8.581 14.172 C 7.858 14.381 7.16 14.677 6.507 15.051 C 5.855 15.424 5.249 15.878 4.705 16.396 C 4.162 16.914 3.683 17.498 3.28 18.13 C 3.044 18.496 2.808 18.862 2.514 19.442 C 2.219 20.022 1.866 20.816 1.515 21.61 C 0.929 23.158 0.425 24.719 0 26.291 L 0 26.291 Z" style="fill: rgb(255, 255, 255);"/>
  <path fill-rule="evenodd" clip-rule="evenodd" d="M 9.182 38.974 C 14.089 39.529 18.997 40.085 21.517 39.327 C 24.036 38.569 24.168 36.498 24.3 34.425 C 24.781 32.924 25.491 31.419 26.572 29.913 C 26.934 29.395 27.354 28.917 27.823 28.491 C 28.29 28.065 28.807 27.691 29.358 27.377 C 29.91 27.063 30.496 26.811 31.103 26.626 L 31.103 26.626 L 33.426 26.18 L 35.769 25.852 L 35.769 25.852 C 36.762 25.716 37.775 25.408 38.753 24.899 C 39.218 24.656 39.663 24.376 40.169 23.97 C 40.675 23.565 41.243 23.035 41.748 22.452 C 42.252 21.869 42.694 21.231 43.066 20.557 C 43.438 19.882 43.74 19.169 43.967 18.433 C 44.556 16.799 45.108 15.159 45.623 13.514 C 41.356 12.444 36.335 12.437 33.698 13.322 C 31.061 14.205 30.809 15.98 30.567 17.188 C 30.325 18.396 30.092 19.038 29.828 19.667 C 29.564 20.297 29.268 20.914 28.957 21.462 C 28.647 22.01 28.321 22.488 27.948 22.928 C 27.575 23.366 27.152 23.765 26.694 24.116 C 26.213 24.442 25.731 24.767 25.234 25.008 C 24.246 25.496 23.195 25.682 22.165 25.976 C 20.708 26.248 19.223 26.428 17.762 26.854 C 17.039 27.064 16.341 27.359 15.689 27.733 C 15.037 28.107 14.43 28.56 13.887 29.079 C 12.662 30.231 11.857 31.732 11.204 33.093 C 10.34 35.038 9.722 36.997 9.182 38.974 L 9.182 38.974 Z" style="fill: rgb(255, 255, 255);"/>
  <polygon fill-rule="evenodd" clip-rule="evenodd" points="50.47 32.848 57.217 32.851 62.446 19.399 65.91 32.848 73.823 32.848 70.434 19.363 82.547 7.817 74.452 7.817 62.961 18.224 66.667 7.819 59.82 7.817 50.47 32.848" style="fill: rgb(255, 255, 255);"/>
  <path fill-rule="evenodd" clip-rule="evenodd" d="M 101.393 12.058 C 101.157 11.39 100.807 10.76 100.37 10.197 C 99.932 9.635 99.406 9.14 98.815 8.74 C 98.225 8.34 97.57 8.036 96.821 7.795 C 95.296 7.312 93.498 7.09 91.807 7.125 C 90.948 7.143 90.092 7.226 89.079 7.42 C 88.066 7.613 86.897 7.918 85.8 8.392 C 84.704 8.866 83.677 9.51 82.775 10.291 C 81.873 11.07 81.093 11.987 80.519 12.785 C 79.945 13.582 79.575 14.259 79.221 14.943 C 78.868 15.627 78.529 16.316 78.219 17.019 C 77.622 18.408 77.069 19.754 76.637 21.058 C 76.432 21.705 76.272 22.366 76.156 23.035 C 76.04 23.703 75.969 24.379 75.935 24.887 C 75.9 25.394 75.901 25.732 75.92 26.07 C 75.937 26.407 75.97 26.744 76.014 27.079 C 76.057 27.417 76.111 27.753 76.3 28.293 C 76.489 28.834 76.812 29.576 77.266 30.236 C 77.72 30.895 78.304 31.468 78.97 31.92 C 79.637 32.372 80.385 32.702 81.237 32.942 C 82.963 33.421 84.992 33.563 86.893 33.45 C 87.856 33.391 88.814 33.262 89.863 32.995 C 90.912 32.727 92.05 32.318 93.098 31.743 C 94.147 31.168 95.105 30.426 95.922 29.558 C 96.739 28.691 97.416 27.696 98.009 26.605 C 98.602 25.514 99.112 24.328 99.598 23.134 C 100.082 21.939 100.543 20.737 100.863 19.844 C 101.183 18.951 101.363 18.368 101.499 17.774 C 101.636 17.18 101.73 16.577 101.785 15.969 C 101.897 14.77 101.86 13.409 101.393 12.058 L 101.393 12.058 L 101.393 12.058 L 101.393 12.058 Z M 94.788 15.777 C 94.422 17.139 94.056 18.502 93.612 19.84 C 93.169 21.178 92.649 22.49 92.129 23.802 C 91.749 24.702 91.227 25.619 90.554 26.463 C 90.107 27.023 89.644 27.412 89.134 27.701 C 88.549 28.033 87.938 28.214 87.341 28.289 C 86.432 28.402 85.501 28.267 84.769 27.933 C 84.369 27.748 83.96 27.469 83.63 27.112 C 83.129 26.558 82.969 25.98 82.937 25.427 C 82.907 24.799 82.981 24.173 83.139 23.566 C 83.886 20.619 84.993 17.688 86.538 14.8 C 86.748 14.382 87.019 13.992 87.339 13.649 C 87.659 13.306 88.03 13.008 88.434 12.771 C 89.265 12.296 90.102 12.085 90.809 12.034 C 91.869 11.98 92.995 12.072 93.9 12.836 C 94.173 13.072 94.4 13.36 94.567 13.68 C 94.734 13.999 94.84 14.35 94.877 14.708 C 94.915 15.066 94.884 15.429 94.788 15.777 L 94.788 15.777 L 94.788 15.777 L 94.788 15.777 Z" style="fill: rgb(255, 255, 255);"/>
  <polygon fill-rule="evenodd" clip-rule="evenodd" points="105.085 32.851 111.751 14.153 112.358 32.851 122.082 32.851 131.425 7.817 125.063 7.817 118.465 26.021 117.945 7.817 107.863 7.817 98.698 32.851 105.085 32.851" style="fill: rgb(255, 255, 255);"/>
  <path fill-rule="evenodd" clip-rule="evenodd" d="M 141.915 27.877 L 141.774 32.854 L 148.323 32.854 L 148.769 7.815 L 139.962 7.815 L 123.52 32.852 L 130.318 32.852 L 133.714 27.892 L 141.915 27.877 L 141.915 27.877 Z M 142.554 13.729 L 142.216 22.836 L 137.043 22.849 L 142.554 13.729 L 142.554 13.729 Z" style="fill: rgb(255, 255, 255);"/>
  <polygon fill-rule="evenodd" clip-rule="evenodd" points="170.042 7.822 158.853 7.822 149.502 32.85 155.877 32.85 162.8 14.285 161.36 32.854 168.104 32.854 179.984 14.547 173.059 32.852 179.631 32.852 189.027 7.824 177.71 7.824 167.845 23.978 170.042 7.822" style="fill: rgb(255, 255, 255);"/>
  <polygon fill-rule="evenodd" clip-rule="evenodd" points="193.424 7.822 184.045 32.853 190.53 32.853 200 7.822 193.424 7.822" style="fill: rgb(255, 255, 255);"/>
</svg>