<?xml version="1.0" encoding="utf-8"?>
<svg xmlns="http://www.w3.org/2000/svg">
  <path d="M 262.227 138.832 C 262.227 134.328 265.877 130.677 270.38 130.677 L 270.38 130.677 C 274.884 130.677 278.535 134.327 278.535 138.832 L 278.535 138.832 L 278.536 138.832 C 278.535 143.336 274.884 146.986 270.38 146.986 L 270.38 146.986 C 265.877 146.987 262.227 143.336 262.227 138.832 L 262.227 138.832 Z M 263.556 138.832 C 263.563 142.6 266.611 145.649 270.38 145.655 L 270.38 145.655 C 274.15 145.649 277.199 142.6 277.206 138.832 L 277.206 138.832 C 277.199 135.062 274.15 132.014 270.38 132.007 L 270.38 132.007 C 266.611 132.014 263.563 135.062 263.556 138.832 L 263.556 138.832 Z" style="fill: rgb(30, 30, 30);" transform="matrix(0.965926, -0.258819, 0.258819, 0.965926, -26.719202, 74.710414)"/>
  <path d="M 241.347 136.156 C 241.347 131.65 244.999 128 249.502 127.999 L 249.502 127.999 C 254.007 128 257.657 131.65 257.657 136.156 L 257.657 136.156 C 257.657 140.659 254.007 144.309 249.502 144.31 L 249.502 144.31 C 244.999 144.309 241.347 140.659 241.347 136.156 L 241.347 136.156 Z M 242.678 136.156 C 242.684 139.924 245.733 142.972 249.503 142.98 L 249.503 142.98 C 253.272 142.972 256.32 139.924 256.327 136.156 L 256.327 136.156 C 256.32 132.386 253.272 129.337 249.503 129.331 L 249.503 129.331 C 245.734 129.337 242.684 132.386 242.678 136.156 L 242.678 136.156 Z" style="fill: rgb(30, 30, 30);" transform="matrix(0.965926, -0.258819, 0.258819, 0.965926, -26.737795, 69.215204)"/>
  <path d="M 209.969 148.628 C 208.912 148.628 208.056 147.771 208.055 146.715 L 208.055 146.715 L 208.055 138.448 C 208.057 138.261 208.038 138.131 208.018 138.072 L 208.018 138.072 C 208.013 138.022 208.005 138.033 208.005 138.03 L 208.005 138.03 C 208.005 138.031 208 138.025 207.959 138.012 L 207.959 138.012 C 207.903 137.994 207.785 137.974 207.608 137.975 L 207.608 137.975 L 199.318 137.975 C 198.26 137.974 197.404 137.118 197.404 136.062 L 197.404 136.062 L 197.404 127.74 C 197.404 126.682 198.26 125.827 199.318 125.827 L 199.318 125.827 L 207.618 125.827 C 207.918 125.825 207.983 125.761 207.983 125.758 L 207.983 125.758 C 207.988 125.758 208.056 125.675 208.056 125.363 L 208.056 125.363 L 208.056 117.087 C 208.057 116.03 208.913 115.174 209.969 115.173 L 209.969 115.173 L 218.291 115.174 C 219.347 115.174 220.204 116.029 220.204 117.087 L 220.204 117.087 L 220.204 125.393 C 220.207 125.723 220.264 125.762 220.265 125.762 L 220.265 125.762 C 220.265 125.76 220.287 125.776 220.349 125.794 L 220.349 125.794 C 220.409 125.81 220.511 125.827 220.673 125.827 L 220.673 125.827 L 228.944 125.827 C 230 125.827 230.856 126.682 230.857 127.739 L 230.857 127.739 L 230.857 136.062 C 230.855 137.119 229.999 137.974 228.944 137.975 L 228.944 137.975 L 220.664 137.975 C 220.345 137.977 220.282 138.041 220.282 138.043 L 220.282 138.043 C 220.279 138.043 220.204 138.133 220.204 138.48 L 220.204 138.48 L 220.204 146.715 C 220.204 147.771 219.347 148.628 218.291 148.628 L 218.291 148.628 L 209.969 148.628 L 209.969 148.628 Z M 198.733 127.74 L 198.733 136.062 C 198.733 136.383 198.995 136.645 199.317 136.645 L 199.317 136.645 L 207.607 136.645 C 208.119 136.645 208.623 136.742 208.989 137.136 L 208.989 137.136 C 209.338 137.538 209.382 138.002 209.386 138.449 L 209.386 138.449 L 209.386 146.716 C 209.386 147.036 209.645 147.298 209.968 147.298 L 209.968 147.298 L 218.29 147.298 C 218.612 147.298 218.872 147.036 218.873 146.716 L 218.873 146.716 L 218.873 138.48 C 218.873 137.983 218.965 137.493 219.327 137.115 L 219.327 137.115 C 219.695 136.742 220.188 136.645 220.662 136.645 L 220.662 136.645 L 228.942 136.645 C 229.262 136.645 229.524 136.383 229.524 136.062 L 229.524 136.062 L 229.524 127.74 C 229.524 127.42 229.262 127.157 228.942 127.157 L 228.942 127.157 L 220.672 127.157 C 220.216 127.155 219.746 127.088 219.361 126.739 L 219.361 126.739 C 218.98 126.383 218.871 125.884 218.874 125.394 L 218.874 125.394 L 218.874 117.087 C 218.872 116.766 218.612 116.504 218.29 116.504 L 218.29 116.504 L 209.969 116.504 C 209.646 116.504 209.386 116.765 209.386 117.087 L 209.386 117.087 L 209.386 125.362 C 209.386 125.839 209.288 126.32 208.934 126.687 L 208.934 126.687 C 208.573 127.051 208.088 127.158 207.618 127.155 L 207.618 127.155 L 199.317 127.155 C 198.994 127.155 198.733 127.419 198.733 127.74 L 198.733 127.74 Z" style="fill: rgb(30, 30, 30);" transform="matrix(0.965926, -0.258819, 0.258819, 0.965926, -26.842023, 59.915382)"/>
  <path d="M 200.915 128.621 C 202.139 126.181 204.124 124.19 206.562 122.96 L 206.562 122.96 L 207.161 124.149 C 204.979 125.249 203.2 127.034 202.103 129.218 L 202.103 129.218 L 202.104 129.219 L 200.915 128.621 L 200.915 128.621 Z" style="fill: rgb(30, 30, 30);" transform="matrix(0.965926, -0.258819, 0.258819, 0.965926, -25.681928, 57.105297)"/>
  <path d="M 205.202 139.485 L 206.387 138.882 C 207.491 141.06 209.277 142.838 211.462 143.931 L 211.462 143.931 L 210.867 145.121 C 208.425 143.9 206.434 141.917 205.202 139.485 L 205.202 139.485 Z" style="fill: rgb(30, 30, 30);" transform="matrix(0.965926, -0.258819, 0.258819, 0.965926, -29.653943, 58.758854)"/>
  <path d="M 221.115 139.646 C 223.281 138.549 225.051 136.777 226.145 134.61 L 226.145 134.61 L 227.334 135.21 C 226.11 137.632 224.136 139.607 221.716 140.833 L 221.716 140.833 L 221.115 139.646 L 221.115 139.646 Z" style="fill: rgb(30, 30, 30);" transform="matrix(0.965926, -0.258819, 0.258819, 0.965926, -28.004673, 62.726289)"/>
  <path d="M 216.856 119.888 L 217.456 118.7 C 219.887 119.931 221.865 121.916 223.087 124.35 L 223.087 124.35 L 221.898 124.947 C 220.804 122.77 219.029 120.987 216.856 119.888 L 216.856 119.888 Z" style="fill: rgb(30, 30, 30);" transform="matrix(0.965926, -0.258819, 0.258819, 0.965926, -24.034878, 61.083781)"/>
  <path d="M 210.031 131.903 C 210.032 129.638 211.865 127.804 214.13 127.803 L 214.13 127.803 C 216.393 127.804 218.227 129.637 218.228 131.903 L 218.228 131.903 C 218.227 134.165 216.394 135.999 214.13 136 L 214.13 136 C 211.866 135.998 210.032 134.165 210.031 131.903 L 210.031 131.903 Z M 211.362 131.903 C 211.364 133.429 212.601 134.666 214.131 134.67 L 214.131 134.67 C 215.658 134.667 216.895 133.43 216.898 131.903 L 216.898 131.903 C 216.895 130.373 215.659 129.136 214.131 129.134 L 214.131 129.134 C 212.601 129.136 211.364 130.373 211.362 131.903 L 211.362 131.903 Z" style="fill: rgb(30, 30, 30);" transform="matrix(0.965926, -0.258819, 0.258819, 0.965926, -26.842329, 59.915205)"/>
  <path d="M 212.487 307.918 C 205.244 307.713 194.345 302.84 192.873 284.562 L 192.873 284.562 C 192.614 278.697 192.492 273.197 192.492 268.012 L 192.492 268.012 C 192.485 227.674 199.99 206.457 210.399 181.665 L 210.399 181.665 C 211.882 178.129 212.522 174.649 212.522 171.015 L 212.522 171.015 C 212.527 163.162 209.495 154.545 205.395 143.454 L 205.395 143.454 L 205.396 143.455 L 206.643 142.994 C 210.737 154.092 213.848 162.811 213.853 171.015 L 213.853 171.015 C 213.854 174.807 213.178 178.481 211.626 182.18 L 211.626 182.18 C 201.24 206.944 193.83 227.83 193.822 268.012 L 193.822 268.012 C 193.822 273.174 193.945 278.653 194.2 284.477 L 194.2 284.477 C 195.724 302.176 205.797 306.291 212.534 306.586 L 212.534 306.586 C 212.652 306.59 212.774 306.591 212.904 306.591 L 212.904 306.591 C 219.643 306.595 232.172 300.268 234.071 284.452 L 234.071 284.452 C 236.07 267.966 242.553 210.342 244.314 201.268 L 244.314 201.268 C 246.045 192.192 250.748 182.781 262.635 181.758 L 262.635 181.758 C 266.476 181.423 269.213 181.312 271.161 181.31 L 271.161 181.31 C 275.062 181.323 275.794 181.726 276.044 181.867 L 276.044 181.867 L 275.305 182.973 L 275.296 182.981 C 275.215 182.953 275.045 182.904 274.748 182.854 L 274.748 182.854 C 274.154 182.75 273.06 182.64 271.161 182.642 L 271.161 182.642 C 269.264 182.641 266.563 182.751 262.748 183.083 L 262.748 183.083 C 251.667 184.056 247.382 192.622 245.618 201.522 L 245.618 201.522 C 243.885 210.425 237.385 268.144 235.391 284.611 L 235.391 284.611 C 233.367 301.142 220.326 307.919 212.902 307.921 L 212.902 307.921 C 212.766 307.921 212.628 307.921 212.487 307.918 L 212.487 307.918 Z" style="fill: rgb(30, 30, 30);" transform="matrix(0.965926, -0.258819, 0.258819, 0.965926, -50.370192, 68.315276)"/>
  <path d="M 325.564 121.861 C 325.564 117.355 329.214 113.706 333.719 113.705 L 333.719 113.705 C 338.223 113.706 341.874 117.355 341.875 121.861 L 341.875 121.861 C 341.874 126.364 338.223 130.014 333.719 130.014 L 333.719 130.014 C 329.214 130.016 325.564 126.364 325.564 121.861 L 325.564 121.861 Z M 333.719 128.686 C 337.488 128.678 340.537 125.63 340.545 121.862 L 340.545 121.862 C 340.537 118.093 337.488 115.044 333.719 115.036 L 333.719 115.036 C 329.95 115.044 326.901 118.093 326.895 121.862 L 326.895 121.862 C 326.901 125.629 329.95 128.678 333.719 128.686 L 333.719 128.686 Z" style="fill: rgb(30, 30, 30);" transform="matrix(0.965926, -0.258819, 0.258819, 0.965926, -20.168342, 90.525192)"/>
  <path d="M 342.305 109.103 C 342.306 104.598 345.957 100.948 350.461 100.947 L 350.461 100.947 C 354.966 100.948 358.617 104.6 358.617 109.103 L 358.617 109.103 C 358.617 113.607 354.966 117.258 350.461 117.258 L 350.461 117.258 C 345.957 117.258 342.306 113.608 342.305 109.103 L 342.305 109.103 Z M 350.46 115.926 C 354.229 115.921 357.279 112.872 357.285 109.103 L 357.285 109.103 C 357.279 105.334 354.229 102.284 350.46 102.278 L 350.46 102.278 C 346.693 102.286 343.643 105.335 343.635 109.103 L 343.635 109.103 C 343.643 112.872 346.692 115.921 350.46 115.926 L 350.46 115.926 Z" style="fill: rgb(30, 30, 30);" transform="matrix(0.965926, -0.258819, 0.258819, 0.965926, -16.296133, 94.423529)"/>
  <path d="M 374.808 104.459 C 373.75 104.458 372.894 103.602 372.894 102.546 L 372.894 102.546 L 372.894 94.311 C 372.894 93.965 372.823 93.875 372.818 93.875 L 372.818 93.875 C 372.818 93.875 372.752 93.807 372.437 93.806 L 372.437 93.806 L 364.155 93.806 C 363.099 93.806 362.243 92.95 362.242 91.894 L 362.242 91.894 L 362.242 83.572 C 362.243 82.516 363.099 81.659 364.155 81.658 L 364.155 81.658 L 372.427 81.658 C 372.749 81.659 372.834 81.598 372.834 81.594 L 372.834 81.594 C 372.829 81.589 372.892 81.555 372.895 81.224 L 372.895 81.224 L 372.895 72.919 C 372.895 71.861 373.751 71.005 374.81 71.005 L 374.81 71.005 L 383.132 71.005 C 384.188 71.005 385.043 71.861 385.043 72.919 L 385.043 72.919 L 385.043 81.193 C 385.045 81.505 385.112 81.589 385.118 81.589 L 385.118 81.589 C 385.118 81.592 385.183 81.656 385.482 81.657 L 385.482 81.657 L 393.783 81.657 C 394.84 81.659 395.695 82.515 395.697 83.571 L 395.697 83.571 L 395.695 91.894 C 395.695 92.95 394.84 93.806 393.783 93.807 L 393.783 93.807 L 385.492 93.806 C 385.224 93.805 385.12 93.846 385.097 93.86 L 385.097 93.86 C 385.096 93.861 385.083 93.879 385.073 93.926 L 385.073 93.926 C 385.056 93.993 385.041 94.114 385.043 94.279 L 385.043 94.279 L 385.043 102.545 C 385.041 103.602 384.186 104.457 383.13 104.459 L 383.13 104.459 L 374.808 104.459 L 374.808 104.459 Z M 374.225 94.311 L 374.225 102.545 C 374.225 102.867 374.486 103.127 374.808 103.127 L 374.808 103.127 L 383.131 103.127 C 383.451 103.127 383.712 102.867 383.712 102.545 L 383.712 102.545 L 383.714 94.279 C 383.717 93.832 383.759 93.37 384.11 92.967 L 384.11 92.967 C 384.475 92.571 384.981 92.475 385.493 92.476 L 385.493 92.476 L 393.783 92.476 C 394.105 92.476 394.365 92.216 394.365 91.894 L 394.365 91.894 L 394.365 83.572 C 394.365 83.25 394.103 82.989 393.783 82.989 L 393.783 82.989 L 385.482 82.988 C 385.012 82.99 384.525 82.885 384.166 82.519 L 384.166 82.519 C 383.812 82.152 383.712 81.67 383.714 81.193 L 383.714 81.193 L 383.712 72.919 C 383.712 72.597 383.451 72.336 383.131 72.336 L 383.131 72.336 L 374.808 72.335 C 374.486 72.336 374.226 72.597 374.224 72.919 L 374.224 72.919 L 374.224 81.222 C 374.227 81.715 374.118 82.213 373.737 82.569 L 373.737 82.569 C 373.352 82.917 372.882 82.985 372.426 82.988 L 372.426 82.988 L 364.154 82.986 C 363.835 82.988 363.572 83.25 363.572 83.57 L 363.572 83.57 L 363.572 91.893 C 363.572 92.214 363.834 92.476 364.154 92.476 L 364.154 92.476 L 372.436 92.476 C 372.908 92.475 373.4 92.572 373.769 92.945 L 373.769 92.945 C 374.132 93.323 374.224 93.813 374.225 94.311 L 374.225 94.311 L 374.225 94.311 L 374.225 94.311 Z" style="fill: rgb(30, 30, 30);" transform="matrix(0.965926, -0.258819, 0.258819, 0.965926, -9.793641, 101.07388)"/>
  <path d="M 381.68 75.712 L 382.279 74.524 C 384.716 75.756 386.7 77.743 387.926 80.186 L 387.926 80.186 L 387.927 80.186 L 386.737 80.782 C 385.642 78.599 383.861 76.813 381.68 75.712 L 381.68 75.712 Z" style="fill: rgb(30, 30, 30);" transform="matrix(0.965926, -0.258819, 0.258819, 0.965926, -6.986217, 102.240405)"/>
  <path d="M 385.91 95.511 C 388.094 94.419 389.88 92.64 390.984 90.463 L 390.984 90.463 L 392.17 91.064 C 390.937 93.499 388.945 95.481 386.504 96.7 L 386.504 96.7 L 386.504 96.701 L 385.91 95.511 L 385.91 95.511 Z" style="fill: rgb(30, 30, 30);" transform="matrix(0.965926, -0.258819, 0.258819, 0.965926, -10.964587, 103.879662)"/>
  <path d="M 370.027 95.309 L 370.028 95.309 L 371.215 94.709 C 372.31 96.876 374.08 98.649 376.246 99.745 L 376.246 99.745 L 375.645 100.933 C 373.225 99.705 371.251 97.73 370.027 95.309 L 370.027 95.309 Z" style="fill: rgb(30, 30, 30);" transform="matrix(0.965926, -0.258819, 0.258819, 0.965926, -12.60362, 99.907967)"/>
  <path d="M 365.755 84.452 C 366.977 82.019 368.956 80.033 371.385 78.803 L 371.385 78.803 L 371.986 79.99 C 369.811 81.09 368.037 82.872 366.944 85.049 L 366.944 85.049 L 365.755 84.452 L 365.755 84.452 Z" style="fill: rgb(30, 30, 30);" transform="matrix(0.965926, -0.258819, 0.258819, 0.965926, -8.635055, 98.262231)"/>
  <path d="M 374.869 87.735 C 374.871 85.47 376.705 83.637 378.967 83.635 L 378.967 83.635 C 381.23 83.637 383.065 85.47 383.066 87.735 L 383.066 87.735 C 383.065 89.997 381.23 91.832 378.967 91.832 L 378.967 91.832 C 376.704 91.831 374.871 89.996 374.869 87.735 L 374.869 87.735 Z M 378.968 90.5 C 380.498 90.497 381.733 89.26 381.736 87.733 L 381.736 87.733 C 381.733 86.204 380.498 84.968 378.968 84.964 L 378.968 84.964 C 377.44 84.968 376.204 86.204 376.201 87.733 L 376.201 87.733 C 376.203 89.26 377.44 90.497 378.968 90.5 L 378.968 90.5 Z" style="fill: rgb(30, 30, 30);" transform="matrix(0.965926, -0.258819, 0.258819, 0.965926, -9.7941, 101.07342)"/>
  <g transform="matrix(0.642548, -0.17217, 0.17217, 0.642548, 93.130249, 119.889214)">
    <path d="M240.05,135.564l-0.047-0.008l-85.933-20.442l0.23-0.974l0.298-0.955l-0.298,0.955l-0.23,0.974&#10;&#9;&#9;l-0.039-0.011l-0.027-0.009c-21.646-6.732-37.356-26.919-37.359-50.778l0,0c0-29.362,23.806-53.166,53.17-53.168l0,0&#10;&#9;&#9;c5.151,0,10.135,0.734,14.789,2.087l0,0c0.785,0.191,2.231,0.853,4.596,1.973l0,0c2.33,1.111,5.43,2.652,9.068,4.497l0,0&#10;&#9;&#9;c7.273,3.692,16.695,8.602,26.357,13.726l0,0c19.335,10.258,39.567,21.333,45.583,25.287l0,0&#10;&#9;&#9;c11.246,7.595,18.64,20.466,18.642,35.062l0,0c-0.002,23.354-18.932,42.283-42.285,42.283l0,0&#10;&#9;&#9;C244.35,136.063,242.174,135.894,240.05,135.564L240.05,135.564z M246.565,134.064c11.127-0.002,21.192-4.507,28.485-11.799l0,0&#10;&#9;&#9;c7.292-7.293,11.799-17.358,11.799-28.485l0,0c0-13.909-7.043-26.164-17.751-33.397l0,0c-10.212-6.725-64.609-35.664-80.761-43.37&#10;&#9;&#9;l0,0c-2.271-1.093-3.904-1.781-4.23-1.841l0,0c-4.534-1.317-9.329-2.021-14.291-2.021l0,0c-14.135,0-26.919,5.726-36.183,14.985&#10;&#9;&#9;l0,0c-9.26,9.264-14.985,22.048-14.985,36.181l0,0c-0.002,22.957,15.12,42.383,35.94,48.865l0,0l85.794,20.41&#10;&#9;&#9;C242.397,133.903,244.461,134.064,246.565,134.064L246.565,134.064z" style="fill: rgb(30, 30, 30);"/>
    <path d="M309.737,93.778c0-14.592,7.396-27.467,18.65-35.069l0,0c10.476-6.881,64.696-35.716,80.997-43.501l0,0&#10;&#9;&#9;c2.365-1.119,3.813-1.781,4.535-1.958l0,0c4.713-1.367,9.697-2.101,14.853-2.101l0,0c29.362,0,53.166,23.803,53.168,53.169l0,0&#10;&#9;&#9;c-0.002,23.857-15.713,44.046-37.358,50.776l0,0l-0.025,0.007l-85.985,20.455l-0.036,0.006c-2.122,0.33-4.299,0.5-6.513,0.5l0,0&#10;&#9;&#9;C328.668,136.063,309.737,117.134,309.737,93.778L309.737,93.778z M414.418,15.188c-0.264,0.042-1.897,0.732-4.171,1.826l0,0&#10;&#9;&#9;c-2.305,1.102-5.396,2.637-9.023,4.477l0,0c-7.259,3.682-16.674,8.59-26.325,13.709l0,0&#10;&#9;&#9;c-19.293,10.233-39.594,21.353-45.398,25.176l0,0c-10.719,7.243-17.764,19.497-17.762,33.403l0,0&#10;&#9;&#9;c0,11.129,4.507,21.193,11.798,28.486l0,0c7.293,7.291,17.357,11.797,28.486,11.8l0,0c2.096,0,4.153-0.162,6.164-0.47l0,0&#10;&#9;&#9;l85.84-20.42c20.808-6.491,35.916-25.91,35.912-48.856l0,0c0-14.134-5.726-26.92-14.984-36.184l0,0&#10;&#9;&#9;c-9.264-9.259-22.049-14.985-36.181-14.985l0,0C423.81,13.149,419.015,13.854,414.418,15.188L414.418,15.188z" style="fill: rgb(30, 30, 30);"/>
  </g>
  <path d="M 407.184 237.98 C 405.189 221.511 398.689 163.792 396.955 154.889 L 396.955 154.889 C 395.19 145.989 390.907 137.423 379.824 136.451 L 379.824 136.451 C 376.01 136.118 373.308 136.009 371.411 136.009 L 371.411 136.009 C 368.567 136.007 367.52 136.263 367.278 136.349 L 367.278 136.349 L 367.269 136.341 L 366.53 135.235 C 366.779 135.092 367.51 134.692 371.411 134.677 L 371.411 134.677 C 373.361 134.679 376.096 134.791 379.939 135.125 L 379.939 135.125 C 391.827 136.15 396.53 145.56 398.261 154.636 L 398.261 154.636 C 400.023 163.708 406.505 221.334 408.504 237.82 L 408.504 237.82 C 410.401 253.636 422.931 259.964 429.671 259.96 L 429.671 259.96 C 429.798 259.96 429.921 259.959 430.039 259.955 L 430.039 259.955 C 436.778 259.658 446.85 255.544 448.374 237.872 L 448.374 237.872 C 448.627 232.022 448.75 226.542 448.75 221.379 L 448.75 221.379 C 448.743 181.197 441.334 160.311 430.947 135.548 L 430.947 135.548 C 429.392 131.849 428.719 128.175 428.719 124.384 L 428.719 124.384 C 428.726 116.181 431.836 107.461 435.93 96.361 L 435.93 96.361 L 435.931 96.361 L 437.178 96.822 C 433.078 107.913 430.042 116.53 430.05 124.383 L 430.05 124.383 C 430.05 128.019 430.689 131.495 432.173 135.032 L 432.173 135.032 C 442.583 159.823 450.088 181.042 450.08 221.38 L 450.08 221.38 C 450.078 226.563 449.954 232.065 449.7 237.956 L 449.7 237.956 C 448.23 256.208 437.329 261.081 430.086 261.285 L 430.086 261.285 C 429.945 261.291 429.806 261.292 429.671 261.292 L 429.671 261.292 C 422.247 261.287 409.204 254.51 407.184 237.98 L 407.184 237.98 Z" style="fill: rgb(30, 30, 30);" transform="matrix(0.965926, -0.258819, 0.258819, 0.965926, -32.371043, 111.770436)"/>
  <path d="M 270.733 204.798 C 268.02 204.797 265.823 202.599 265.823 199.889 L 265.823 199.889 L 265.823 151.953 L 267.153 151.953 L 267.152 199.889 C 267.155 201.866 268.755 203.463 270.732 203.467 L 270.732 203.467 L 359.107 203.467 C 361.085 203.463 362.682 201.866 362.686 199.889 L 362.686 199.889 L 362.686 151.953 L 364.017 151.953 L 364.016 199.889 C 364.016 202.599 361.818 204.797 359.107 204.798 L 359.107 204.798 L 270.733 204.798 L 270.733 204.798 Z" style="fill: rgb(30, 30, 30);" transform="matrix(0.965926, -0.258819, 0.258819, 0.965926, -35.436318, 87.585204)"/>
  <polygon points="261.262 100.212 261.262 98.883 326.424 98.883 326.424 100.212" style="fill: rgb(30, 30, 30);" transform="matrix(0.965926, -0.258819, 0.258819, 0.965926, -15.75233, 79.444144)"/>
  <polygon points="270.339 104.608 270.339 103.277 319.273 103.277 319.273 104.608" style="fill: rgb(30, 30, 30);" transform="matrix(0.965926, -0.258819, 0.258819, 0.965926, -16.857026, 79.843133)"/>
  <path d="M 290.869 113.772 C 290.395 113.772 289.953 113.607 289.643 113.36 L 289.643 113.36 L 282.927 108.751 L 282.888 108.714 C 282.5 108.345 282.255 107.817 282.255 107.239 L 282.255 107.239 C 282.257 106.113 283.169 105.201 284.294 105.201 L 284.294 105.201 L 308.626 105.201 C 309.751 105.201 310.664 106.114 310.664 107.239 L 310.664 107.239 C 310.666 107.817 310.421 108.345 310.032 108.716 L 310.032 108.716 L 309.992 108.751 L 303.313 113.334 C 302.968 113.607 302.524 113.772 302.052 113.772 L 302.052 113.772 L 302.052 113.107 L 302.052 112.441 C 302.22 112.441 302.368 112.386 302.526 112.263 L 302.526 112.263 L 309.147 107.72 C 309.264 107.592 309.334 107.427 309.334 107.24 L 309.334 107.24 C 309.334 106.85 309.016 106.533 308.626 106.533 L 308.626 106.533 L 284.294 106.533 C 283.903 106.533 283.588 106.85 283.586 107.24 L 283.586 107.24 C 283.586 107.427 283.657 107.592 283.774 107.719 L 283.774 107.719 L 290.432 112.289 C 290.554 112.386 290.7 112.441 290.869 112.441 L 290.869 112.441 L 302.052 112.441 L 302.052 113.107 L 302.052 113.772 L 290.869 113.772 L 290.869 113.772 Z" style="fill: rgb(30, 30, 30);" transform="matrix(0.965926, -0.258819, 0.258819, 0.965926, -18.235577, 80.459999)"/>
  <path d="M 293.642 112.321 C 293.642 112.735 293.307 113.07 292.893 113.07 L 292.706 113.07 C 292.292 113.07 291.957 112.735 291.957 112.321 L 291.957 108.139 C 291.957 107.725 292.292 107.389 292.706 107.389 L 292.893 107.389 C 293.307 107.389 293.642 107.725 293.642 108.139 L 293.642 112.321 Z" style="fill: rgb(30, 30, 30);" transform="matrix(0.965926, -0.258819, 0.258819, 0.965926, -18.552589, 79.538043)"/>
  <path d="M 297.245 111.356 C 297.245 111.77 296.908 112.105 296.495 112.105 L 296.309 112.105 C 295.895 112.105 295.559 111.77 295.559 111.356 L 295.559 107.174 C 295.559 106.76 295.895 106.424 296.309 106.424 L 296.495 106.424 C 296.908 106.424 297.245 106.76 297.245 107.174 L 297.245 111.356 Z" style="fill: rgb(30, 30, 30);" transform="matrix(0.965926, -0.258819, 0.258819, 0.965926, -18.180078, 80.437548)"/>
  <path d="M 300.846 110.391 C 300.846 110.805 300.511 111.14 300.097 111.14 L 299.91 111.14 C 299.497 111.14 299.161 110.805 299.161 110.391 L 299.161 106.209 C 299.161 105.795 299.497 105.459 299.91 105.459 L 300.097 105.459 C 300.511 105.459 300.846 105.795 300.846 106.209 L 300.846 110.391 Z" style="fill: rgb(30, 30, 30);" transform="matrix(0.965926, -0.258819, 0.258819, 0.965926, -17.807598, 81.336813)"/>
  <path d="M 275.251 183.521 C 271.436 183.521 268.344 180.428 268.344 176.614 L 268.344 176.614 L 268.344 167.293 L 269.674 167.293 L 269.674 176.614 C 269.68 179.694 272.17 182.184 275.252 182.19 L 275.252 182.19 L 352.314 182.19 C 355.391 182.183 357.884 179.692 357.89 176.614 L 357.89 176.614 L 357.89 167.293 L 357.891 167.293 L 359.219 167.293 L 359.221 176.614 C 359.219 180.428 356.128 183.521 352.314 183.521 L 352.314 183.521 L 275.251 183.521 L 275.251 183.521 Z" style="fill: rgb(30, 30, 30);" transform="matrix(0.965926, -0.258819, 0.258819, 0.965926, -34.706787, 87.189703)"/>
  <g transform="matrix(0.642548, -0.17217, 0.17217, 0.642548, 93.130249, 119.889214)">
    <path d="M148.631,64.521c0-3.027,0.602-5.918,1.692-8.554l0,0l1.847,0.762c-0.991,2.399-1.54,5.029-1.54,7.792l0,0&#10;&#9;&#9;c0,2.759,0.546,5.384,1.538,7.781l0,0l-1.849,0.764C149.231,70.433,148.631,67.543,148.631,64.521L148.631,64.521z" style="fill: rgb(30, 30, 30);"/>
    <path d="M162.591,85.271l0.753-1.854c2.371,0.963,4.96,1.494,7.681,1.494l0,0c2.739,0,5.349-0.538,7.734-1.517l0,0&#10;&#9;&#9;l0.759,1.85c-2.619,1.075-5.491,1.667-8.493,1.667l0,0C168.043,86.912,165.194,86.328,162.591,85.271L162.591,85.271z" style="fill: rgb(30, 30, 30);"/>
    <path d="M189.888,72.279c0.985-2.392,1.528-5.01,1.53-7.761l0,0c-0.002-2.72-0.532-5.313-1.5-7.684l0,0h0.002&#10;&#9;&#9;l1.851-0.754c1.061,2.604,1.646,5.455,1.646,8.438l0,0c0,3.015-0.597,5.896-1.68,8.525l0,0L189.888,72.279L189.888,72.279z" style="fill: rgb(30, 30, 30);"/>
    <path d="M162.446,43.828c2.644-1.097,5.542-1.701,8.579-1.701l0,0c3.018,0,5.903,0.598,8.536,1.685l0,0&#10;&#9;&#9;l-0.765,1.849c-2.396-0.987-5.019-1.534-7.771-1.534l0,0c-2.771,0-5.406,0.551-7.81,1.55l0,0L162.446,43.828L162.446,43.828z" style="fill: rgb(30, 30, 30);"/>
  </g>
  <g transform="matrix(0.642548, -0.17217, 0.17217, 0.642548, 93.130249, 119.889214)">
    <path d="M405.168,64.521c0-3.027,0.603-5.918,1.694-8.555l0,0l1.85,0.765c-0.995,2.399-1.543,5.028-1.543,7.79l0,0&#10;&#9;&#9;c0,2.758,0.548,5.384,1.538,7.781l0,0h0.002l-1.851,0.765C405.771,70.432,405.168,67.542,405.168,64.521L405.168,64.521z" style="fill: rgb(30, 30, 30);"/>
    <path d="M419.13,85.271l0.753-1.853c2.37,0.964,4.961,1.495,7.681,1.495l0,0c2.739,0,5.351-0.54,7.733-1.518l0,0&#10;&#9;&#9;v0.002l0.759,1.849c-2.619,1.075-5.49,1.667-8.492,1.667l0,0C424.582,86.912,421.731,86.329,419.13,85.271L419.13,85.271z" style="fill: rgb(30, 30, 30);"/>
    <path d="M446.426,72.28c0.985-2.391,1.529-5.011,1.529-7.762l0,0c0-2.721-0.532-5.313-1.497-7.684l0,0l1.852-0.754&#10;&#9;&#9;c1.063,2.606,1.646,5.458,1.646,8.438l0,0c0.002,3.015-0.599,5.897-1.678,8.524l0,0L446.426,72.28L446.426,72.28z" style="fill: rgb(30, 30, 30);"/>
    <path d="M418.985,43.829c2.641-1.096,5.542-1.702,8.576-1.702l0,0c3.021,0,5.903,0.6,8.537,1.686l0,0l-0.766,1.849&#10;&#9;&#9;c-2.395-0.989-5.018-1.533-7.771-1.533l0,0c-2.77,0-5.404,0.55-7.81,1.547l0,0L418.985,43.829L418.985,43.829z" style="fill: rgb(30, 30, 30);"/>
  </g>
</svg>