<?xml version="1.0" encoding="utf-8"?>
<svg version="1.1" id="allgames" x="0px" y="0px" viewBox="0 0 200 40" xmlns="http://www.w3.org/2000/svg">
  <path d="M 71.533 29.375 L 65.263 29.375 L 63.883 23.795 L 62.653 23.795 L 61.693 29.375 L 55.993 29.375 L 59.293 10.625 L 68.293 10.625 C 71.713 10.625 73.423 12.155 73.423 15.215 C 73.423 16.475 73.233 17.675 72.853 18.815 C 72.153 20.975 71.053 22.415 69.553 23.135 L 71.533 29.375 Z M 64.123 15.425 L 63.463 19.175 L 64.783 19.175 C 65.463 19.175 65.978 19.1 66.328 18.95 C 66.678 18.8 66.918 18.37 67.048 17.66 C 67.178 16.95 67.243 16.515 67.243 16.355 C 67.243 15.955 67.088 15.7 66.778 15.59 C 66.468 15.48 65.963 15.425 65.263 15.425 L 64.123 15.425 Z M 78.22 29.375 L 72.22 29.375 L 80.11 10.625 L 88.93 10.625 L 90.25 29.375 L 84.22 29.375 L 84.1 26.405 L 79.39 26.405 L 78.22 29.375 Z M 83.35 16.385 L 81.25 21.635 L 83.65 21.635 L 83.65 16.385 L 83.35 16.385 Z M 102.694 29.375 L 99.634 22.715 C 99.554 22.575 99.514 22.38 99.514 22.13 C 99.514 21.88 99.534 21.595 99.574 21.275 L 99.334 21.275 L 97.924 29.375 L 92.224 29.375 L 95.524 10.625 L 100.894 10.625 L 103.954 17.285 C 104.014 17.425 104.044 17.62 104.044 17.87 C 104.044 18.12 104.024 18.405 103.984 18.725 L 104.224 18.725 L 105.664 10.625 L 111.364 10.625 L 108.064 29.375 L 102.694 29.375 Z M 111.88 29.375 L 115.18 10.625 L 123.16 10.625 C 125.74 10.625 127.575 11.08 128.665 11.99 C 129.755 12.9 130.3 14.375 130.3 16.415 C 130.3 17.455 130.18 18.655 129.94 20.015 C 129.34 23.375 128.315 25.775 126.865 27.215 C 125.415 28.655 123.08 29.375 119.86 29.375 L 111.88 29.375 Z M 122.38 15.425 L 120.01 15.425 L 118.42 24.575 L 120.79 24.575 C 121.57 24.575 122.15 24.48 122.53 24.29 C 122.91 24.1 123.16 23.665 123.28 22.985 L 124.33 17.015 C 124.35 16.895 124.36 16.735 124.36 16.535 C 124.36 16.075 124.2 15.775 123.88 15.635 C 123.56 15.495 123.06 15.425 122.38 15.425 Z M 138.699 16.895 L 137.319 24.695 L 139.689 24.695 C 140.469 24.695 141.049 24.6 141.429 24.41 C 141.809 24.22 142.059 23.785 142.179 23.105 L 143.559 15.305 L 141.159 15.305 C 140.399 15.305 139.829 15.4 139.449 15.59 C 139.069 15.78 138.819 16.215 138.699 16.895 Z M 142.149 10.175 C 144.689 10.175 146.499 10.67 147.579 11.66 C 148.659 12.65 149.199 14.175 149.199 16.235 C 149.199 18.295 148.874 20.45 148.224 22.7 C 147.574 24.95 146.544 26.7 145.134 27.95 C 143.724 29.2 141.664 29.825 138.954 29.825 C 136.244 29.825 134.349 29.33 133.269 28.34 C 132.189 27.35 131.649 25.825 131.649 23.765 C 131.649 22.785 131.789 21.49 132.069 19.88 C 132.349 18.27 132.719 16.88 133.179 15.71 C 133.639 14.54 134.259 13.525 135.039 12.665 C 136.539 11.005 138.909 10.175 142.149 10.175 Z M 155.527 29.375 L 149.587 29.375 L 153.967 10.625 L 161.407 10.625 L 161.947 20.165 L 162.157 20.165 L 166.057 10.625 L 173.497 10.625 L 171.277 29.375 L 165.307 29.375 L 166.567 20.285 L 166.357 20.285 L 162.607 29.375 L 158.257 29.375 L 157.627 20.285 L 157.477 20.285 L 155.527 29.375 Z" style="fill: rgb(255, 255, 255);"/>
  <path d="M 37.011 10.845 C 35.882 9.718 34.051 9.718 32.922 10.845 L 27.35 16.411 C 26.221 17.537 26.221 19.366 27.35 20.492 L 32.922 26.058 C 34.051 27.185 35.882 27.185 37.011 26.058 L 42.583 20.492 C 43.711 19.366 43.711 17.537 42.583 16.411 L 37.011 10.845 Z M 34.003 18.452 C 34.003 17.711 34.806 17.247 35.447 17.618 C 35.747 17.79 35.93 18.107 35.93 18.452 C 35.93 19.192 35.128 19.656 34.486 19.285 C 34.186 19.113 34.003 18.796 34.003 18.452 Z M 29.826 17.489 C 30.568 17.489 31.032 18.292 30.661 18.932 C 30.49 19.231 30.171 19.414 29.826 19.414 C 29.086 19.414 28.621 18.612 28.992 17.971 C 29.164 17.672 29.482 17.489 29.826 17.489 Z M 34.966 24.547 C 34.224 24.547 33.761 23.745 34.132 23.103 C 34.304 22.805 34.622 22.622 34.966 22.622 C 35.708 22.622 36.172 23.424 35.801 24.066 C 35.629 24.363 35.311 24.547 34.966 24.547 Z M 40.106 17.489 C 40.847 17.489 41.311 18.292 40.941 18.932 C 40.769 19.231 40.451 19.414 40.106 19.414 C 39.364 19.414 38.901 18.612 39.271 17.971 C 39.443 17.672 39.761 17.489 40.106 17.489 Z M 34.966 14.282 C 34.224 14.282 33.761 13.479 34.132 12.838 C 34.304 12.54 34.622 12.357 34.966 12.357 C 35.708 12.357 36.172 13.158 35.801 13.8 C 35.629 14.098 35.311 14.282 34.966 14.282 Z M 38.821 27.433 C 38.821 28.849 39.973 30 41.391 30 L 49.101 30 C 50.517 30 51.67 28.849 51.67 27.433 L 51.67 19.735 C 51.67 18.319 50.517 17.168 49.101 17.168 L 44.511 17.168 C 44.976 18.612 44.635 20.256 43.491 21.399 L 38.821 26.062 L 38.821 27.433 Z M 45.246 22.622 C 45.987 22.622 46.451 23.424 46.08 24.066 C 45.907 24.363 45.59 24.547 45.246 24.547 C 44.503 24.547 44.041 23.745 44.411 23.103 C 44.583 22.805 44.901 22.622 45.246 22.622 Z" style="fill: rgb(255, 255, 255);"/>
</svg>