<?xml version="1.0" encoding="utf-8"?>
<svg id="svg2" version="1.0" viewBox="0 0 1280 720" xmlns="http://www.w3.org/2000/svg">
  <path style="fill: none; fill-rule: evenodd; stroke-width: 6; stroke-linecap: butt; stroke-linejoin: miter; stroke-miterlimit: 4; stroke-dasharray: none; stroke-opacity: 1; stroke: rgb(30, 30, 30);" d="M 411.749 491.655 C 362.875 421.219 360 408.281 360 408.281 L 362.875 386.719 C 362.875 386.719 423.249 313.407 509.498 250.158 C 578.989 199.198 639.148 175.3 687.721 169.44 C 699.434 168.027 710.474 167.663 720.808 168.222 C 773.995 171.097 841.557 188.346 880.369 224.284 C 919.181 260.221 922.056 294.72 919.181 320.595 C 916.306 346.469 880.369 395.344 880.369 395.344 C 880.369 395.344 566.997 552.029 555.498 552.029 C 543.998 552.029 513.811 541.967 513.811 541.967 C 513.811 541.967 483.624 533.342 463.499 527.592 C 443.374 521.842 413.187 494.53 411.749 491.655 Z" id="path3199"/>
  <path style="fill: none; fill-rule: evenodd; stroke-width: 4; stroke-linecap: butt; stroke-linejoin: miter; stroke-miterlimit: 4; stroke-dasharray: none; stroke-opacity: 1; stroke: rgb(30, 30, 30);" d="M 360 405.406 C 398.812 451.406 413.187 475.843 423.249 484.468 C 433.312 493.093 472.124 498.843 497.998 510.342 C 523.873 521.842 536.81 527.592 546.873 527.592 C 556.935 527.592 602.935 497.405 641.747 468.655 C 680.559 439.906 739.495 398.219 772.557 383.844 C 805.619 369.469 815.682 362.282 838.682 362.282 C 861.681 362.282 877.494 376.657 877.494 376.657 L 906.243 352.755 L 913.503 339.72" id="path4172"/>
  <path style="fill: none; fill-rule: evenodd; stroke-width: 4; stroke-linecap: butt; stroke-linejoin: miter; stroke-miterlimit: 4; stroke-dasharray: none; stroke-opacity: 1; stroke: rgb(30, 30, 30);" d="M 722.246 409.719 C 722.246 391.031 717.933 382.407 709.308 373.782 C 700.683 365.157 600.025 295.65 601.463 294.212 C 602.9 292.775 607.247 281.783 610.122 274.595 C 612.997 267.408 610.122 265.97 601.497 265.97 C 592.872 265.97 574.185 277.47 574.185 277.47 C 574.185 277.47 552.623 264.533 538.248 258.783 C 523.873 253.033 516.686 250.158 516.686 250.158 L 509.498 248.721" id="path4174"/>
  <path style="fill: none; fill-rule: evenodd; stroke-width: 4; stroke-linecap: butt; stroke-linejoin: miter; stroke-miterlimit: 4; stroke-dasharray: none; stroke-opacity: 1; stroke: rgb(30, 30, 30);" d="M 479.077 359.065 C 459.643 381.916 431.874 422.656 431.874 431.281 C 431.874 439.906 433.312 441.343 443.374 441.343 C 453.436 441.343 490.811 414.031 522.436 388.156 C 554.06 362.282 598.234 303.191 601.109 294.566 C 603.984 285.941 611.559 270.283 607.247 265.97 C 602.935 261.658 574.503 274.462 549.748 293.283 C 517.718 317.634 500.366 335.865 479.077 359.065 Z" id="path4176"/>
  <path style="fill: none; fill-rule: evenodd; stroke-width: 4; stroke-linecap: butt; stroke-linejoin: miter; stroke-miterlimit: 4; stroke-dasharray: none; stroke-opacity: 1; stroke: rgb(30, 30, 30);" d="M 436.187 435.593 C 430.437 442.781 424.687 454.281 424.687 454.281 L 424.687 483.03 L 424.687 483.03" id="path4180"/>
  <path style="fill: none; fill-rule: evenodd; stroke-width: 1px; stroke-linecap: butt; stroke-linejoin: miter; stroke-opacity: 1; stroke: rgb(30, 30, 30);" d="M 365.75 386.719 C 365.75 386.719 375.812 396.781 387.312 411.156 C 398.812 425.531 426.124 457.156 426.124 457.156 C 426.124 457.156 446.249 464.343 472.124 474.405 C 497.998 484.468 535.373 504.592 542.56 506.03 C 549.748 507.467 555.498 503.155 566.997 495.968 C 578.497 488.78 707.871 393.906 743.808 375.219 C 779.745 356.532 801.307 343.595 815.682 340.72 C 830.057 337.845 834.369 337.845 834.369 337.845" id="path8058"/>
</svg>