<?xml version="1.0" encoding="utf-8"?>
<svg version="1.0" preserveAspectRatio="xMidYMid meet" xmlns="http://www.w3.org/2000/svg">
  <g id="layer2" fill="#888888" stroke="none">
    <path d="M 2475 1121 C 2316 1076 2177 953 2121 811 C 2048 628 2091 426 2232 286 C 2281.375 237.296 2337.587 199.323 2397.583 172.126 C 2606.127 77.591 2860.375 113.258 3032 281 C 3064 312 3090 342 3090 346 C 3090 351 2970 416 2824 490 C 2678 564 2557 628 2554 631 C 2552 634 2676 690 2830 756 C 2994 825 3110 880 3110 887 C 3110 894 3077 933 3038 974 C 2960 1052 2881 1098 2780 1125 C 2705 1145 2550 1143 2475 1121 Z M 2832 1013 C 2892 985 2980 914 2980 894 C 2980 884 2644 740 2622 740 C 2584 740 2631 767 2770 826 C 2855 862 2929 896 2934 900 C 2946 911 2855 976 2795 999 C 2767 1009 2719 1021 2687 1025 C 2605 1035 2614 1054 2699 1048 C 2747 1044 2788 1034 2832 1013 Z M 2791 439 C 2880 394 2949 352 2947 346 C 2941 330 2936 332 2765 421 C 2626 493 2587 520 2621 520 C 2627 520 2704 483 2791 439 Z" style="fill: rgb(255, 255, 255);"/>
    <path d="M 197 1104 C 193 1100 190 888 190 633 L 190 169 L 508 172 L 824.159 175.841 L 875 202 C 986 261 1044 356 1045 480 C 1045 542 1040 565 1017 612 C 961 726 869 781 723 788 L 630 792 L 628 949 L 625 1105 L 414 1108 C 299 1109 201 1107 197 1104 Z M 542 883 L 545 735 L 680 730 C 791 725 822 720 855 703 C 906 677 947 636 971 588 C 991 548 997 490 980 490 C 975 490 970 498 970 508 C 970 544 919 628 882 653 C 821 695 791 702 653 708 L 520 713 L 520 856 L 520 999 L 413 1002 C 339 1004 305 1009 302 1018 C 299 1027 327 1030 419 1030 L 539 1030 L 542 883 Z M 775 636 C 810 621 840 577 840 540 C 840 508 817 521 808 558 C 796 604 766 620 693 620 C 644 620 630 623 630 635 C 630 655 727 656 775 636 Z M 694 504 C 713 485 714 479 697 456 C 676 427 636 439 632 474 C 627 517 664 535 694 504 Z" style="fill: rgb(255, 255, 255);"/>
    <path d="M922 1101 c14 -41 565 -978 571 -972 17 17 564 970 559 976 -10 9 -1134 6 -1130 -4z m953 -168 c-50 -91 -75 -122 -75 -93 0 7 18 46 41 86 l40 74 -100 0 c-91 0 -121 7 -104 24 3 3 61 6 129 6 l122 0 -53 -97z m-304 -78 c32 -17 69 -69 69 -97 0 -24 -17 -23 -25 1 -12 38 -47 71 -86 81 -21 6 -39 15 -39 20 0 15 48 12 81 -5z m-33 -112 c20 -28 15 -80 -10 -97 -30 -21 -50 -20 -82 5 -35 28 -35 70 1 99 30 24 69 20 91 -7z" style="fill: rgb(255, 255, 255);"/>
    <path d="M4170 620 c0 -269 4 -490 8 -490 5 0 112 107 238 238 126 130 231 238 235 240 3 1 108 -105 235 -237 126 -131 232 -239 237 -240 4 -1 7 220 7 489 l0 490 -480 0 -480 0 0 -490z m880 310 c0 -60 -4 -100 -10 -100 -6 0 -10 35 -10 85 l0 85 -115 0 c-96 0 -115 3 -115 15 0 13 21 15 125 15 l125 0 0 -100z" style="fill: rgb(255, 255, 255);"/>
    <path d="M5277 1103 c-4 -3 -7 -27 -7 -53 0 -42 21 -83 251 -481 138 -239 254 -437 258 -441 6 -7 571 959 571 976 0 8 -1065 8 -1073 -1z m891 -173 c-29 -55 -59 -100 -65 -100 -19 0 -16 8 27 88 22 40 40 75 40 78 0 2 -45 4 -100 4 -82 0 -100 3 -100 15 0 13 21 15 125 15 l126 0 -53 -100z m-297 -83 c40 -26 77 -93 61 -109 -7 -7 -15 0 -25 23 -17 41 -46 68 -83 78 -15 4 -29 12 -32 19 -6 20 43 14 79 -11z m-38 -109 c24 -28 21 -55 -8 -83 -37 -38 -87 -28 -105 21 -28 72 62 121 113 62z" style="fill: rgb(255, 255, 255);"/>
    <path d="M6427 1103 c-8 -8 -9 -957 -1 -965 3 -3 107 103 232 235 l227 241 3 -222 2 -222 210 0 210 0 -2 468 -3 467 -436 3 c-239 1 -439 -1 -442 -5z m811 -170 c-2 -66 -7 -98 -15 -101 -10 -3 -13 18 -13 82 l0 86 -115 0 c-96 0 -115 3 -115 15 0 13 21 15 130 15 l131 0 -3 -97z" style="fill: rgb(255, 255, 255);"/>
    <path d="M3384 707 c-3 -8 -4 -54 -2 -103 l3 -89 228 -3 228 -2 -3 102 -3 103 -223 3 c-179 2 -223 0 -228 -11z" style="fill: rgb(255, 255, 255);"/>
  </g>
</svg>