<?xml version="1.0" encoding="utf-8"?>
<svg version="1.2" baseProfile="tiny" id="Layer_3" x="0px" y="0px" xmlns="http://www.w3.org/2000/svg">
  <path id="path3" d="M 30.926 4.913 C 29.585 4.913 28.333 4.882 27.311 5.269 C 26.8 5.463 26.349 5.787 26.038 6.263 C 25.728 6.739 25.573 7.34 25.573 8.079 L 25.573 186.495 C 25.573 187.233 25.725 187.822 26.054 188.265 C 26.383 188.707 26.861 188.964 27.373 189.088 C 28.397 189.333 29.615 189.18 30.927 189.18 L 320.188 189.18 C 321.5 189.18 322.718 189.333 323.742 189.088 C 324.255 188.964 324.733 188.707 325.062 188.265 C 325.307 187.933 325.423 187.49 325.48 186.992 L 325.542 186.992 L 325.542 186.496 L 325.542 8.079 C 325.542 7.34 325.403 6.739 325.092 6.263 C 324.782 5.787 324.316 5.463 323.804 5.269 C 322.781 4.885 321.529 4.915 320.188 4.915 L 30.927 4.915 L 30.926 4.913 Z M 30.926 5.905 L 320.187 5.905 C 321.53 5.905 322.709 5.921 323.447 6.2 C 323.816 6.339 324.073 6.528 324.254 6.806 C 324.438 7.082 324.552 7.474 324.552 8.078 L 324.552 185.998 L 324.552 186.495 C 324.552 187.099 324.436 187.455 324.273 187.674 C 324.109 187.894 323.88 188.021 323.512 188.108 C 322.776 188.285 321.564 188.186 320.191 188.186 L 30.93 188.186 C 29.557 188.186 28.344 188.286 27.608 188.108 C 27.241 188.019 27.012 187.89 26.849 187.671 C 26.685 187.453 26.569 187.095 26.569 186.489 L 26.569 8.079 C 26.569 7.474 26.683 7.083 26.864 6.806 C 27.045 6.528 27.302 6.34 27.671 6.201 C 28.409 5.921 29.587 5.906 30.93 5.906 L 30.926 5.906 Z" style="fill: rgb(30, 30, 30);" transform="matrix(0.965926, -0.258819, 0.258819, 0.965926, -19.141536, 48.745197)"/>
  <path id="path5" d="M 30.228 56.433 C 25.765 56.433 21.848 58.742 19.597 62.237 L 20.42 62.78 C 22.494 59.559 26.109 57.426 30.228 57.426 L 300.553 57.426 C 304.727 57.426 308.379 59.612 310.439 62.903 L 311.278 62.378 C 309.042 58.805 305.076 56.433 300.553 56.433 L 30.229 56.433 L 30.228 56.433 Z" style="fill: rgb(30, 30, 30);" transform="matrix(0.965926, -0.258819, 0.258819, 0.965926, -9.806067, 44.851515)"/>
  <path id="path7" d="M 25.57 61.611 C 23.69 61.611 21.978 62.349 20.712 63.55 L 21.395 64.28 C 22.483 63.247 23.949 62.604 25.57 62.604 L 307.069 62.604 C 308.861 62.604 310.459 63.389 311.569 64.621 L 312.314 63.953 C 311.023 62.52 309.147 61.61 307.069 61.61 L 25.57 61.611 L 25.57 61.611 Z" style="fill: rgb(30, 30, 30);" transform="matrix(0.965926, -0.258819, 0.258819, 0.965926, -10.661702, 45.247353)"/>
  <path id="path9" d="M 39.532 109.188 C 38.592 109.188 37.825 109.955 37.825 110.895 L 37.825 120.735 C 37.825 121.674 38.592 122.458 39.532 122.458 L 55.331 122.458 C 56.27 122.458 57.054 121.674 57.054 120.735 L 57.054 120.238 L 57.038 120.238 L 57.038 110.895 C 57.038 109.955 56.271 109.188 55.331 109.188 L 39.532 109.188 L 39.532 109.188 Z M 39.532 110.181 L 55.331 110.181 C 55.733 110.181 56.045 110.492 56.045 110.895 L 56.045 120.735 L 56.045 120.766 C 56.026 121.151 55.721 121.464 55.331 121.464 L 39.532 121.464 C 39.129 121.464 38.818 121.138 38.818 120.735 L 38.818 110.895 C 38.818 110.493 39.129 110.181 39.532 110.181 L 39.532 110.181 Z" style="fill: rgb(30, 30, 30);" transform="matrix(0.965926, -0.258819, 0.258819, 0.965926, -28.360733, 16.224818)"/>
  <path id="path11" d="M 64.866 102.402 C 63.927 102.402 63.159 103.169 63.159 104.109 L 63.159 113.949 C 63.159 114.888 63.927 115.672 64.866 115.672 L 80.665 115.672 C 81.605 115.672 82.372 114.888 82.372 113.949 L 82.372 113.452 L 82.372 104.109 C 82.372 103.17 81.605 102.402 80.665 102.402 L 64.866 102.402 Z M 64.866 103.395 L 80.665 103.395 C 81.068 103.395 81.379 103.706 81.379 104.109 L 81.379 113.949 C 81.379 114.352 81.068 114.678 80.665 114.678 L 64.866 114.678 C 64.464 114.678 64.152 114.352 64.152 113.949 L 64.152 104.109 C 64.153 103.707 64.465 103.395 64.866 103.395 Z" style="fill: rgb(30, 30, 30);" transform="matrix(0.965926, -0.258819, 0.258819, 0.965926, -25.741426, 22.548441)"/>
  <path id="path13" d="M 90.202 95.614 C 89.263 95.614 88.495 96.381 88.495 97.321 L 88.495 107.161 C 88.495 108.1 89.263 108.884 90.202 108.884 L 106.001 108.884 C 106.94 108.884 107.708 108.1 107.708 107.161 L 107.708 97.321 C 107.708 96.381 106.94 95.614 106.001 95.614 L 90.202 95.614 Z M 90.202 96.607 L 106.001 96.607 C 106.403 96.607 106.715 96.918 106.715 97.321 L 106.715 107.161 C 106.715 107.564 106.403 107.89 106.001 107.89 L 90.202 107.89 C 89.799 107.89 89.488 107.564 89.488 107.161 L 89.488 97.321 C 89.488 96.919 89.799 96.607 90.202 96.607 Z" style="fill: rgb(30, 30, 30);" transform="matrix(0.965926, -0.258819, 0.258819, 0.965926, -23.12126, 28.874583)"/>
  <path id="path15" d="M 115.536 88.827 C 114.596 88.827 113.813 89.594 113.813 90.534 L 113.813 100.374 C 113.813 101.313 114.596 102.097 115.536 102.097 L 131.334 102.097 C 132.274 102.097 133.041 101.313 133.041 100.374 L 133.041 90.534 C 133.041 89.595 132.274 88.827 131.334 88.827 L 115.536 88.827 Z M 115.536 89.82 L 131.334 89.82 C 131.737 89.82 132.049 90.131 132.049 90.534 L 132.049 100.374 C 132.049 100.777 131.738 101.103 131.334 101.103 L 115.536 101.103 C 115.132 101.103 114.806 100.777 114.806 100.374 L 114.806 90.534 C 114.806 90.132 115.133 89.82 115.536 89.82 Z" style="fill: rgb(30, 30, 30);" transform="matrix(0.965926, -0.258819, 0.258819, 0.965926, -20.501711, 35.198046)"/>
  <path id="path17" d="M 140.874 82.038 C 139.935 82.038 139.151 82.805 139.151 83.745 L 139.151 93.585 C 139.151 94.524 139.934 95.308 140.874 95.308 L 156.673 95.308 C 157.612 95.308 158.38 94.524 158.38 93.585 L 158.38 83.745 C 158.38 82.805 157.612 82.038 156.673 82.038 L 140.874 82.038 Z M 140.874 83.031 L 156.673 83.031 C 157.075 83.031 157.387 83.342 157.387 83.745 L 157.387 93.585 C 157.387 93.988 157.075 94.314 156.673 94.314 L 140.874 94.314 C 140.471 94.314 140.144 93.988 140.144 93.585 L 140.144 83.745 C 140.144 83.343 140.471 83.031 140.874 83.031 Z" style="fill: rgb(30, 30, 30);" transform="matrix(0.965926, -0.258819, 0.258819, 0.965926, -17.881203, 41.52481)"/>
  <path id="path19" d="M 166.193 75.25 C 165.254 75.25 164.486 76.017 164.486 76.957 L 164.486 86.797 C 164.486 87.736 165.254 88.52 166.193 88.52 L 181.992 88.52 C 182.931 88.52 183.715 87.736 183.715 86.797 L 183.715 76.957 C 183.715 76.018 182.932 75.25 181.992 75.25 L 166.193 75.25 Z M 166.193 76.243 L 181.992 76.243 C 182.395 76.243 182.722 76.554 182.722 76.957 L 182.722 86.797 C 182.722 87.2 182.394 87.526 181.992 87.526 L 166.193 87.526 C 165.791 87.526 165.479 87.2 165.479 86.797 L 165.479 76.957 C 165.479 76.555 165.791 76.243 166.193 76.243 Z" style="fill: rgb(30, 30, 30);" transform="matrix(0.965926, -0.258819, 0.258819, 0.965926, -15.261068, 47.850697)"/>
  <path id="path21" d="M 191.527 68.461 C 190.587 68.461 189.82 69.228 189.82 70.168 L 189.82 80.008 C 189.82 80.947 190.587 81.731 191.527 81.731 L 207.325 81.731 C 208.265 81.731 209.048 80.947 209.048 80.008 L 209.048 70.168 C 209.048 69.229 208.266 68.461 207.325 68.461 L 191.527 68.461 Z M 191.527 69.454 L 207.325 69.454 C 207.728 69.454 208.055 69.765 208.055 70.168 L 208.055 80.008 C 208.055 80.411 207.728 80.737 207.325 80.737 L 191.527 80.737 C 191.123 80.737 190.812 80.411 190.812 80.008 L 190.812 70.168 C 190.812 69.766 191.124 69.454 191.527 69.454 Z" style="fill: rgb(30, 30, 30);" transform="matrix(0.965926, -0.258819, 0.258819, 0.965926, -12.640726, 54.176147)"/>
  <path id="path23" d="M 216.861 61.675 C 215.921 61.675 215.154 62.442 215.154 63.382 L 215.154 73.222 C 215.154 74.161 215.921 74.945 216.861 74.945 L 232.66 74.945 C 233.599 74.945 234.367 74.161 234.367 73.222 L 234.367 63.382 C 234.367 62.443 233.6 61.675 232.66 61.675 L 216.861 61.675 Z M 216.861 62.668 L 232.66 62.668 C 233.063 62.668 233.374 62.979 233.374 63.382 L 233.374 73.222 C 233.374 73.625 233.063 73.951 232.66 73.951 L 216.861 73.951 C 216.458 73.951 216.147 73.625 216.147 73.222 L 216.147 63.382 C 216.147 62.98 216.459 62.668 216.861 62.668 Z" style="fill: rgb(30, 30, 30);" transform="matrix(0.965926, -0.258819, 0.258819, 0.965926, -10.0214, 60.499917)"/>
  <path id="path25" d="M 242.194 54.887 C 241.254 54.887 240.487 55.654 240.487 56.594 L 240.487 66.434 C 240.487 67.373 241.254 68.157 242.194 68.157 L 257.992 68.157 C 258.933 68.157 259.699 67.373 259.699 66.434 L 259.699 56.594 C 259.699 55.655 258.933 54.887 257.992 54.887 L 242.194 54.887 Z M 242.194 55.88 L 257.992 55.88 C 258.396 55.88 258.707 56.191 258.707 56.594 L 258.707 66.434 C 258.707 66.837 258.396 67.163 257.992 67.163 L 242.194 67.163 C 241.791 67.163 241.48 66.837 241.48 66.434 L 241.48 56.594 C 241.481 56.192 241.792 55.88 242.194 55.88 Z" style="fill: rgb(30, 30, 30);" transform="matrix(0.965926, -0.258819, 0.258819, 0.965926, -7.401353, 66.825135)"/>
  <path id="path27" d="M 267.532 48.1 C 266.593 48.1 265.81 48.867 265.81 49.807 L 265.81 59.647 C 265.81 60.586 266.593 61.37 267.532 61.37 L 283.331 61.37 C 284.271 61.37 285.038 60.586 285.038 59.647 L 285.038 49.807 C 285.038 48.868 284.271 48.1 283.331 48.1 L 267.532 48.1 Z M 267.532 49.093 L 283.331 49.093 C 283.734 49.093 284.045 49.404 284.045 49.807 L 284.045 59.647 C 284.045 60.05 283.734 60.376 283.331 60.376 L 267.532 60.376 C 267.13 60.376 266.803 60.05 266.803 59.647 L 266.803 49.807 C 266.803 49.405 267.13 49.093 267.532 49.093 Z" style="fill: rgb(30, 30, 30);" transform="matrix(0.965926, -0.258819, 0.258819, 0.965926, -4.781614, 73.150036)"/>
  <path id="path29" d="M 59.554 130.367 C 58.614 130.367 57.847 131.134 57.847 132.074 L 57.847 141.929 C 57.847 142.868 58.614 143.636 59.554 143.636 L 75.353 143.636 C 76.293 143.636 77.06 142.868 77.06 141.929 L 77.06 132.074 C 77.06 131.134 76.293 130.367 75.353 130.367 L 59.554 130.367 Z M 59.554 131.36 L 75.353 131.36 C 75.756 131.36 76.066 131.671 76.066 132.074 L 76.066 141.929 C 76.066 142.33 75.756 142.643 75.353 142.643 L 59.554 142.643 C 59.152 142.643 58.84 142.33 58.84 141.929 L 58.84 132.074 C 58.84 131.67 59.152 131.36 59.554 131.36 Z" style="fill: rgb(30, 30, 30);" transform="matrix(0.965926, -0.258819, 0.258819, 0.965926, -33.16017, 22.126461)"/>
  <path id="path31" d="M 84.888 123.581 C 83.948 123.581 83.165 124.348 83.165 125.288 L 83.165 135.143 C 83.165 136.082 83.948 136.85 84.888 136.85 L 100.687 136.85 C 101.626 136.85 102.394 136.082 102.394 135.143 L 102.394 125.288 C 102.394 124.348 101.627 123.581 100.687 123.581 L 84.888 123.581 Z M 84.888 124.574 L 100.687 124.574 C 101.089 124.574 101.401 124.884 101.401 125.288 L 101.401 135.143 C 101.401 135.545 101.09 135.857 100.687 135.857 L 84.888 135.857 C 84.485 135.857 84.158 135.544 84.158 135.143 L 84.158 125.288 C 84.158 124.884 84.485 124.574 84.888 124.574 Z" style="fill: rgb(30, 30, 30);" transform="matrix(0.965926, -0.258819, 0.258819, 0.965926, -30.540867, 28.450086)"/>
  <path id="path33" d="M 110.227 116.791 C 109.287 116.791 108.504 117.558 108.504 118.498 L 108.504 128.353 C 108.504 129.292 109.286 130.06 110.227 130.06 L 126.025 130.06 C 126.965 130.06 127.732 129.292 127.732 128.353 L 127.732 118.498 C 127.732 117.558 126.966 116.791 126.025 116.791 L 110.227 116.791 Z M 110.227 117.784 L 126.025 117.784 C 126.428 117.784 126.739 118.095 126.739 118.498 L 126.739 128.353 C 126.739 128.754 126.429 129.067 126.025 129.067 L 110.227 129.067 C 109.824 129.067 109.497 128.754 109.497 128.353 L 109.497 118.498 C 109.497 118.094 109.824 117.784 110.227 117.784 Z" style="fill: rgb(30, 30, 30);" transform="matrix(0.965926, -0.258819, 0.258819, 0.965926, -27.920095, 34.776811)"/>
  <path id="path35" d="M 135.544 110.003 C 134.605 110.003 133.837 110.77 133.837 111.71 L 133.837 121.565 C 133.837 122.504 134.604 123.272 135.544 123.272 L 151.343 123.272 C 152.282 123.272 153.066 122.504 153.066 121.565 L 153.066 111.71 C 153.066 110.77 152.284 110.003 151.343 110.003 L 135.544 110.003 Z M 135.544 110.996 L 151.343 110.996 C 151.746 110.996 152.073 111.306 152.073 111.71 L 152.073 121.565 C 152.073 121.966 151.746 122.279 151.343 122.279 L 135.544 122.279 C 135.142 122.279 134.83 121.966 134.83 121.565 L 134.83 111.71 C 134.831 111.306 135.142 110.996 135.544 110.996 Z" style="fill: rgb(30, 30, 30);" transform="matrix(0.965926, -0.258819, 0.258819, 0.965926, -25.300015, 41.102307)"/>
  <path id="path37" d="M 160.878 103.215 C 159.939 103.215 159.171 103.982 159.171 104.922 L 159.171 114.777 C 159.171 115.716 159.938 116.484 160.878 116.484 L 176.677 116.484 C 177.617 116.484 178.4 115.716 178.4 114.777 L 178.4 104.922 C 178.4 103.982 177.617 103.215 176.677 103.215 L 160.878 103.215 Z M 160.878 104.208 L 176.677 104.208 C 177.08 104.208 177.407 104.518 177.407 104.922 L 177.407 114.777 C 177.407 115.179 177.08 115.491 176.677 115.491 L 160.878 115.491 C 160.475 115.491 160.164 115.178 160.164 114.777 L 160.164 104.922 C 160.164 104.518 160.475 104.208 160.878 104.208 Z" style="fill: rgb(30, 30, 30);" transform="matrix(0.965926, -0.258819, 0.258819, 0.965926, -22.679919, 47.427931)"/>
  <path id="path39" d="M 186.213 96.427 C 185.273 96.427 184.505 97.193 184.505 98.134 L 184.505 107.989 C 184.505 108.928 185.272 109.696 186.213 109.696 L 202.011 109.696 C 202.951 109.696 203.734 108.928 203.734 107.989 L 203.734 98.134 C 203.734 97.194 202.951 96.427 202.011 96.427 L 186.213 96.427 Z M 186.213 97.42 L 202.011 97.42 C 202.413 97.42 202.741 97.731 202.741 98.134 L 202.741 107.989 C 202.741 108.39 202.413 108.703 202.011 108.703 L 186.213 108.703 C 185.81 108.703 185.498 108.39 185.498 107.989 L 185.498 98.134 C 185.498 97.731 185.81 97.42 186.213 97.42 Z" style="fill: rgb(30, 30, 30);" transform="matrix(0.965926, -0.258819, 0.258819, 0.965926, -20.059817, 53.753555)"/>
  <path id="path41" d="M 211.551 89.639 C 210.611 89.639 209.844 90.406 209.844 91.346 L 209.844 101.201 C 209.844 102.14 210.611 102.908 211.551 102.908 L 227.35 102.908 C 228.289 102.908 229.057 102.14 229.057 101.201 L 229.057 91.346 C 229.057 90.406 228.29 89.639 227.35 89.639 L 211.551 89.639 Z M 211.551 90.632 L 227.35 90.632 C 227.752 90.632 228.064 90.942 228.064 91.346 L 228.064 101.201 C 228.064 101.602 227.752 101.915 227.35 101.915 L 211.551 101.915 C 211.148 101.915 210.837 101.602 210.837 101.201 L 210.837 91.346 C 210.837 90.942 211.148 90.632 211.551 90.632 Z" style="fill: rgb(30, 30, 30);" transform="matrix(0.965926, -0.258819, 0.258819, 0.965926, -17.43982, 60.0784)"/>
  <path id="path43" d="M 236.884 82.851 C 235.944 82.851 235.177 83.618 235.177 84.558 L 235.177 94.413 C 235.177 95.351 235.943 96.12 236.884 96.12 L 252.683 96.12 C 253.623 96.12 254.39 95.352 254.39 94.413 L 254.39 84.558 C 254.39 83.618 253.623 82.851 252.683 82.851 L 236.884 82.851 Z M 236.884 83.844 L 252.683 83.844 C 253.086 83.844 253.397 84.155 253.397 84.558 L 253.397 94.413 C 253.397 94.814 253.085 95.127 252.683 95.127 L 236.884 95.127 C 236.481 95.127 236.171 94.815 236.171 94.413 L 236.171 84.558 C 236.171 84.154 236.481 83.844 236.884 83.844 Z" style="fill: rgb(30, 30, 30);" transform="matrix(0.965926, -0.258819, 0.258819, 0.965926, -14.819757, 66.403773)"/>
  <path id="path45" d="M 262.218 76.065 C 261.279 76.065 260.495 76.831 260.495 77.772 L 260.495 87.627 C 260.495 88.566 261.278 89.334 262.218 89.334 L 278.017 89.334 C 278.957 89.334 279.724 88.566 279.724 87.627 L 279.724 77.772 C 279.724 76.832 278.957 76.065 278.017 76.065 L 262.218 76.065 Z M 262.218 77.058 L 278.017 77.058 C 278.42 77.058 278.731 77.368 278.731 77.772 L 278.731 87.627 C 278.731 88.028 278.42 88.341 278.017 88.341 L 262.218 88.341 C 261.817 88.341 261.489 88.028 261.489 87.627 L 261.489 77.772 C 261.489 77.369 261.817 77.058 262.218 77.058 Z" style="fill: rgb(30, 30, 30);" transform="matrix(0.965926, -0.258819, 0.258819, 0.965926, -12.200449, 72.727415)"/>
  <path id="path47" d="M 287.552 69.277 C 286.613 69.277 285.829 70.044 285.829 70.984 L 285.829 80.839 C 285.829 81.778 286.612 82.546 287.552 82.546 L 303.351 82.546 C 304.291 82.546 305.058 81.778 305.058 80.839 L 305.058 70.984 C 305.058 70.044 304.291 69.277 303.351 69.277 L 287.552 69.277 Z M 287.552 70.27 L 303.351 70.27 C 303.753 70.27 304.065 70.58 304.065 70.984 L 304.065 80.839 C 304.065 81.241 303.754 81.553 303.351 81.553 L 287.552 81.553 C 287.149 81.553 286.823 81.24 286.823 80.839 L 286.823 70.984 C 286.822 70.58 287.149 70.27 287.552 70.27 Z" style="fill: rgb(30, 30, 30);" transform="matrix(0.965926, -0.258819, 0.258819, 0.965926, -9.580348, 79.053023)"/>
  <path id="path49" d="M 72.652 153.405 C 71.712 153.405 70.929 154.188 70.929 155.128 L 70.929 164.967 C 70.929 165.906 71.712 166.674 72.652 166.674 L 88.451 166.674 C 89.39 166.674 90.158 165.907 90.158 164.967 L 90.158 164.471 L 90.158 155.128 C 90.158 154.189 89.391 153.405 88.451 153.405 L 72.652 153.405 Z M 72.652 154.398 L 88.451 154.398 C 88.854 154.398 89.165 154.725 89.165 155.127 L 89.165 164.967 C 89.165 165.37 88.854 165.681 88.451 165.681 L 72.652 165.681 C 72.25 165.681 71.922 165.37 71.922 164.967 L 71.922 155.127 C 71.923 154.724 72.25 154.398 72.652 154.398 Z" style="fill: rgb(30, 30, 30);" transform="matrix(0.965926, -0.258819, 0.258819, 0.965926, -38.676814, 26.299405)"/>
  <path id="path51" d="M 97.97 146.617 C 97.031 146.617 96.263 147.4 96.263 148.34 L 96.263 158.179 C 96.263 159.118 97.031 159.886 97.97 159.886 L 113.77 159.886 C 114.709 159.886 115.492 159.118 115.492 158.179 L 115.492 148.34 C 115.492 147.401 114.709 146.617 113.77 146.617 L 97.97 146.617 Z M 97.97 147.61 L 113.77 147.61 C 114.172 147.61 114.499 147.937 114.499 148.339 L 114.499 158.179 C 114.499 158.582 114.173 158.893 113.77 158.893 L 97.97 158.893 C 97.567 158.893 97.257 158.582 97.257 158.179 L 97.257 148.339 C 97.257 147.936 97.567 147.61 97.97 147.61 Z" style="fill: rgb(30, 30, 30);" transform="matrix(0.965926, -0.258819, 0.258819, 0.965926, -36.056717, 32.625029)"/>
  <path id="path53" d="M 123.304 139.829 C 122.364 139.829 121.597 140.612 121.597 141.552 L 121.597 151.391 C 121.597 152.33 122.364 153.098 123.304 153.098 L 139.103 153.098 C 140.043 153.098 140.825 152.331 140.825 151.391 L 140.825 141.552 C 140.825 140.612 140.043 139.829 139.103 139.829 L 123.304 139.829 Z M 123.304 140.822 L 139.103 140.822 C 139.505 140.822 139.832 141.149 139.832 141.551 L 139.832 151.391 C 139.832 151.794 139.506 152.105 139.103 152.105 L 123.304 152.105 C 122.901 152.105 122.59 151.794 122.59 151.391 L 122.59 141.551 C 122.59 141.148 122.902 140.822 123.304 140.822 Z" style="fill: rgb(30, 30, 30);" transform="matrix(0.965926, -0.258819, 0.258819, 0.965926, -33.436638, 38.950527)"/>
  <path id="path55" d="M 148.643 133.039 C 147.704 133.039 146.936 133.822 146.936 134.762 L 146.936 144.601 C 146.936 145.54 147.704 146.308 148.643 146.308 L 164.442 146.308 C 165.381 146.308 166.165 145.541 166.165 144.601 L 166.165 134.762 C 166.165 133.822 165.382 133.039 164.442 133.039 L 148.643 133.039 Z M 148.643 134.032 L 164.442 134.032 C 164.845 134.032 165.172 134.359 165.172 134.761 L 165.172 144.601 C 165.172 145.004 164.845 145.315 164.442 145.315 L 148.643 145.315 C 148.241 145.315 147.929 145.004 147.929 144.601 L 147.929 134.761 C 147.929 134.358 148.241 134.032 148.643 134.032 Z" style="fill: rgb(30, 30, 30);" transform="matrix(0.965926, -0.258819, 0.258819, 0.965926, -30.815829, 45.277508)"/>
  <path id="path57" d="M 173.977 126.253 C 173.038 126.253 172.27 127.036 172.27 127.976 L 172.27 137.815 C 172.27 138.754 173.037 139.522 173.977 139.522 L 189.776 139.522 C 190.715 139.522 191.483 138.755 191.483 137.815 L 191.483 127.976 C 191.483 127.037 190.716 126.253 189.776 126.253 L 173.977 126.253 Z M 173.977 127.246 L 189.776 127.246 C 190.178 127.246 190.49 127.573 190.49 127.975 L 190.49 137.815 C 190.49 138.218 190.179 138.529 189.776 138.529 L 173.977 138.529 C 173.574 138.529 173.263 138.218 173.263 137.815 L 173.263 127.975 C 173.263 127.572 173.574 127.246 173.977 127.246 Z" style="fill: rgb(30, 30, 30);" transform="matrix(0.965926, -0.258819, 0.258819, 0.965926, -28.196522, 51.601127)"/>
  <path id="path59" d="M 199.31 119.465 C 198.37 119.465 197.603 120.248 197.603 121.188 L 197.603 131.027 C 197.603 131.966 198.37 132.734 199.31 132.734 L 215.109 132.734 C 216.048 132.734 216.816 131.967 216.816 131.027 L 216.816 121.188 C 216.816 120.249 216.049 119.465 215.109 119.465 L 199.31 119.465 Z M 199.31 120.458 L 215.109 120.458 C 215.512 120.458 215.823 120.785 215.823 121.187 L 215.823 131.027 C 215.823 131.43 215.512 131.741 215.109 131.741 L 199.31 131.741 C 198.907 131.741 198.596 131.43 198.596 131.027 L 198.596 121.187 C 198.596 120.784 198.908 120.458 199.31 120.458 Z" style="fill: rgb(30, 30, 30);" transform="matrix(0.965926, -0.258819, 0.258819, 0.965926, -25.576458, 57.926505)"/>
  <path id="path61" d="M 224.645 112.679 C 223.705 112.679 222.922 113.462 222.922 114.402 L 222.922 124.241 C 222.922 125.18 223.705 125.948 224.645 125.948 L 240.443 125.948 C 241.383 125.948 242.15 125.181 242.15 124.241 L 242.15 114.402 C 242.15 113.463 241.384 112.679 240.443 112.679 L 224.645 112.679 Z M 224.645 113.672 L 240.443 113.672 C 240.846 113.672 241.157 113.999 241.157 114.401 L 241.157 124.241 C 241.157 124.644 240.847 124.955 240.443 124.955 L 224.645 124.955 C 224.242 124.955 223.915 124.644 223.915 124.241 L 223.915 114.401 C 223.915 113.998 224.242 113.672 224.645 113.672 Z" style="fill: rgb(30, 30, 30);" transform="matrix(0.965926, -0.258819, 0.258819, 0.965926, -22.957133, 64.25026)"/>
  <path id="path63" d="M 249.983 105.889 C 249.043 105.889 248.26 106.672 248.26 107.612 L 248.26 117.451 C 248.26 118.39 249.043 119.158 249.983 119.158 L 265.782 119.158 C 266.721 119.158 267.489 118.391 267.489 117.451 L 267.489 107.612 C 267.489 106.673 266.722 105.889 265.782 105.889 L 249.983 105.889 Z M 249.983 106.882 L 265.782 106.882 C 266.185 106.882 266.496 107.209 266.496 107.611 L 266.496 117.451 C 266.496 117.854 266.185 118.165 265.782 118.165 L 249.983 118.165 C 249.58 118.165 249.254 117.854 249.254 117.451 L 249.254 107.611 C 249.254 107.208 249.58 106.882 249.983 106.882 Z" style="fill: rgb(30, 30, 30);" transform="matrix(0.965926, -0.258819, 0.258819, 0.965926, -20.336362, 70.576973)"/>
  <path id="path65" d="M 275.302 99.101 C 274.362 99.101 273.595 99.884 273.595 100.824 L 273.595 110.663 C 273.595 111.602 274.361 112.37 275.302 112.37 L 291.1 112.37 C 292.04 112.37 292.823 111.602 292.823 110.663 L 292.823 100.824 C 292.823 99.885 292.041 99.101 291.1 99.101 L 275.302 99.101 Z M 275.302 100.094 L 291.1 100.094 C 291.504 100.094 291.83 100.42 291.83 100.823 L 291.83 110.663 C 291.83 111.066 291.503 111.377 291.1 111.377 L 275.302 111.377 C 274.898 111.377 274.588 111.066 274.588 110.663 L 274.588 100.823 C 274.588 100.42 274.898 100.094 275.302 100.094 Z" style="fill: rgb(30, 30, 30);" transform="matrix(0.965926, -0.258819, 0.258819, 0.965926, -17.71625, 76.902735)"/>
  <path id="path67" d="M 91.238 174.981 C 90.3 174.981 89.515 175.748 89.515 176.688 L 89.515 186.528 C 89.515 187.467 90.298 188.25 91.238 188.25 L 107.037 188.25 C 107.977 188.25 108.744 187.467 108.744 186.528 L 108.744 176.688 C 108.744 175.748 107.977 174.981 107.037 174.981 L 91.238 174.981 Z M 91.238 175.974 L 107.037 175.974 C 107.44 175.974 107.751 176.285 107.751 176.688 L 107.751 186.528 C 107.751 186.931 107.44 187.257 107.037 187.257 L 91.238 187.257 C 90.836 187.257 90.509 186.93 90.509 186.528 L 90.509 176.688 C 90.509 176.284 90.835 175.974 91.238 175.974 Z" style="fill: rgb(30, 30, 30);" transform="matrix(0.965926, -0.258819, 0.258819, 0.965926, -43.627793, 31.845001)"/>
  <path id="path69" d="M 59.693 182.811 C 58.754 182.811 57.986 183.578 57.986 184.518 L 57.986 194.358 C 57.986 195.297 58.753 196.08 59.693 196.08 L 80.117 196.08 C 81.056 196.08 81.824 195.298 81.824 194.358 L 81.824 193.861 L 81.824 184.518 C 81.824 183.578 81.056 182.811 80.117 182.811 L 59.693 182.811 Z M 59.693 183.804 L 80.117 183.804 C 80.52 183.804 80.831 184.115 80.831 184.518 L 80.831 194.358 C 80.831 194.761 80.52 195.087 80.117 195.087 L 59.693 195.087 C 59.291 195.087 58.979 194.76 58.979 194.358 L 58.979 184.518 C 58.979 184.114 59.29 183.804 59.693 183.804 Z" style="fill: rgb(30, 30, 30);" transform="matrix(0.965926, -0.258819, 0.258819, 0.965926, -46.650165, 24.547957)"/>
  <path id="path71" d="M 116.575 168.192 C 115.636 168.192 114.852 168.959 114.852 169.899 L 114.852 179.739 C 114.852 180.677 115.635 181.461 116.575 181.461 L 132.374 181.461 C 133.313 181.461 134.081 180.679 134.081 179.739 L 134.081 169.899 C 134.081 168.959 133.314 168.192 132.374 168.192 L 116.575 168.192 Z M 116.575 169.185 L 132.374 169.185 C 132.775 169.185 133.088 169.496 133.088 169.899 L 133.088 179.739 C 133.088 180.142 132.775 180.468 132.374 180.468 L 116.575 180.468 C 116.172 180.468 115.845 180.141 115.845 179.739 L 115.845 169.899 C 115.845 169.495 116.172 169.185 116.575 169.185 Z" style="fill: rgb(30, 30, 30);" transform="matrix(0.965926, -0.258819, 0.258819, 0.965926, -41.007338, 38.171367)"/>
  <path id="path73" d="M 141.893 161.404 C 140.954 161.404 140.186 162.171 140.186 163.111 L 140.186 172.951 C 140.186 173.89 140.953 174.673 141.893 174.673 L 157.692 174.673 C 158.632 174.673 159.415 173.891 159.415 172.951 L 159.415 163.111 C 159.415 162.171 158.632 161.404 157.692 161.404 L 141.893 161.404 Z M 141.893 162.397 L 157.692 162.397 C 158.095 162.397 158.421 162.708 158.421 163.111 L 158.421 172.951 C 158.421 173.354 158.095 173.68 157.692 173.68 L 141.893 173.68 C 141.491 173.68 141.179 173.353 141.179 172.951 L 141.179 163.111 C 141.179 162.707 141.49 162.397 141.893 162.397 Z" style="fill: rgb(30, 30, 30);" transform="matrix(0.965926, -0.258819, 0.258819, 0.965926, -38.387237, 44.496998)"/>
  <path id="path75" d="M 167.226 154.615 C 166.287 154.615 165.519 155.382 165.519 156.322 L 165.519 166.162 C 165.519 167.1 166.287 167.884 167.226 167.884 L 183.025 167.884 C 183.964 167.884 184.748 167.102 184.748 166.162 L 184.748 156.322 C 184.748 155.382 183.965 154.615 183.025 154.615 L 167.226 154.615 Z M 167.226 155.608 L 183.025 155.608 C 183.428 155.608 183.755 155.919 183.755 156.322 L 183.755 166.162 C 183.755 166.565 183.428 166.891 183.025 166.891 L 167.226 166.891 C 166.824 166.891 166.512 166.564 166.512 166.162 L 166.512 156.322 C 166.512 155.918 166.823 155.608 167.226 155.608 Z" style="fill: rgb(30, 30, 30);" transform="matrix(0.965926, -0.258819, 0.258819, 0.965926, -35.766912, 50.822322)"/>
  <path id="path77" d="M 192.561 147.829 C 191.621 147.829 190.854 148.596 190.854 149.536 L 190.854 159.376 C 190.854 160.314 191.621 161.098 192.561 161.098 L 208.36 161.098 C 209.299 161.098 210.067 160.315 210.067 159.376 L 210.067 149.536 C 210.067 148.596 209.299 147.829 208.36 147.829 L 192.561 147.829 Z M 192.561 148.822 L 208.36 148.822 C 208.763 148.822 209.073 149.132 209.073 149.536 L 209.073 159.376 C 209.073 159.779 208.764 160.105 208.36 160.105 L 192.561 160.105 C 192.157 160.105 191.847 159.778 191.847 159.376 L 191.847 149.536 C 191.847 149.132 192.157 148.822 192.561 148.822 Z" style="fill: rgb(30, 30, 30);" transform="matrix(0.965926, -0.258819, 0.258819, 0.965926, -33.147566, 57.146207)"/>
  <path id="path79" d="M 217.899 141.04 C 216.96 141.04 216.192 141.807 216.192 142.747 L 216.192 152.587 C 216.192 153.525 216.959 154.309 217.899 154.309 L 233.698 154.309 C 234.638 154.309 235.405 153.527 235.405 152.587 L 235.405 142.747 C 235.405 141.807 234.638 141.04 233.698 141.04 L 217.899 141.04 Z M 217.899 142.033 L 233.698 142.033 C 234.102 142.033 234.412 142.344 234.412 142.747 L 234.412 152.587 C 234.412 152.99 234.101 153.316 233.698 153.316 L 217.899 153.316 C 217.496 153.316 217.185 152.989 217.185 152.587 L 217.185 142.747 C 217.185 142.343 217.497 142.033 217.899 142.033 Z" style="fill: rgb(30, 30, 30);" transform="matrix(0.965926, -0.258819, 0.258819, 0.965926, -30.527076, 63.472838)"/>
  <path id="path81" d="M 243.233 134.252 C 242.294 134.252 241.526 135.019 241.526 135.959 L 241.526 145.799 C 241.526 146.737 242.293 147.521 243.233 147.521 L 259.032 147.521 C 259.971 147.521 260.739 146.739 260.739 145.799 L 260.739 135.959 C 260.739 135.019 259.971 134.252 259.032 134.252 L 243.233 134.252 Z M 243.233 135.245 L 259.032 135.245 C 259.436 135.245 259.746 135.556 259.746 135.959 L 259.746 145.799 C 259.746 146.202 259.436 146.528 259.032 146.528 L 243.233 146.528 C 242.829 146.528 242.519 146.201 242.519 145.799 L 242.519 135.959 C 242.519 135.555 242.829 135.245 243.233 135.245 Z" style="fill: rgb(30, 30, 30);" transform="matrix(0.965926, -0.258819, 0.258819, 0.965926, -27.906985, 69.798501)"/>
  <path id="path83" d="M 268.567 127.466 C 267.628 127.466 266.844 128.233 266.844 129.173 L 266.844 139.013 C 266.844 139.951 267.627 140.735 268.567 140.735 L 284.366 140.735 C 285.305 140.735 286.073 139.953 286.073 139.013 L 286.073 129.173 C 286.073 128.233 285.306 127.466 284.366 127.466 L 268.567 127.466 Z M 268.567 128.459 L 284.366 128.459 C 284.769 128.459 285.08 128.77 285.08 129.173 L 285.08 139.013 C 285.08 139.416 284.769 139.742 284.366 139.742 L 268.567 139.742 C 268.164 139.742 267.838 139.415 267.838 139.013 L 267.838 129.173 C 267.838 128.769 268.165 128.459 268.567 128.459 Z" style="fill: rgb(30, 30, 30);" transform="matrix(0.965926, -0.258819, 0.258819, 0.965926, -25.287665, 76.122079)"/>
  <path id="path85" d="M 294.305 119.035 C 293.367 119.035 292.598 119.802 292.598 120.742 L 292.598 130.582 C 292.598 131.52 293.365 132.304 294.305 132.304 L 321.543 132.304 C 322.482 132.304 323.249 131.522 323.249 130.582 L 323.249 120.742 C 323.249 119.802 322.482 119.035 321.543 119.035 L 294.305 119.035 Z M 294.305 120.028 L 321.543 120.028 C 321.946 120.028 322.257 120.339 322.257 120.742 L 322.257 130.582 C 322.257 130.985 321.945 131.311 321.543 131.311 L 294.305 131.311 C 293.902 131.311 293.591 130.984 293.591 130.582 L 293.591 120.742 C 293.591 120.338 293.902 120.028 294.305 120.028 Z" style="fill: rgb(30, 30, 30);" transform="matrix(0.965926, -0.258819, 0.258819, 0.965926, -22.033419, 83.978526)"/>
  <path id="path87" d="M 300.636 92.313 C 299.696 92.313 298.929 93.096 298.929 94.036 L 298.929 103.875 C 298.929 104.814 299.696 105.582 300.636 105.582 L 316.435 105.582 C 317.374 105.582 318.158 104.815 318.158 103.875 L 318.158 94.036 C 318.158 93.097 317.375 92.313 316.435 92.313 L 300.636 92.313 Z M 300.636 93.306 L 316.435 93.306 C 316.838 93.306 317.164 93.633 317.164 94.035 L 317.164 103.875 C 317.164 104.278 316.838 104.589 316.435 104.589 L 300.636 104.589 C 300.233 104.589 299.922 104.278 299.922 103.875 L 299.922 94.035 C 299.922 93.632 300.233 93.306 300.636 93.306 Z" style="fill: rgb(30, 30, 30);" transform="matrix(0.965926, -0.258819, 0.258819, 0.965926, -15.096133, 83.228486)"/>
  <path id="path89" stroke="#F4F4F4" stroke-width="1.8096" d="M 300.409 158.322" style="fill: rgb(30, 30, 30);" transform="matrix(0.965926, -0.258819, 0.258819, 0.965926, -30.740563, 83.146262)"/>
  <path id="line91" d="M 306.142 133.62 L 298.118 152.368 L 299.034 152.755 L 307.042 134.008 L 306.142 133.62 L 306.142 133.62 Z" style="fill: rgb(30, 30, 30);" transform="matrix(0.965926, -0.258819, 0.258819, 0.965926, -26.749499, 83.192513)"/>
  <path id="line93" d="M 309.338 105.856 L 303.657 119.141 L 304.574 119.529 L 310.254 106.244 L 309.338 105.856 Z" style="fill: rgb(30, 30, 30);" transform="matrix(0.965926, -0.258819, 0.258819, 0.965926, -18.707713, 83.28584)"/>
  <path id="line95" d="M 321.954 47.278 L 303.548 90.315 L 304.464 90.703 L 322.87 47.666 L 321.954 47.278 Z" style="fill: rgb(30, 30, 30);" transform="matrix(0.965926, -0.258819, 0.258819, 0.965926, -7.183718, 83.415268)"/>
  <path id="path97" stroke="#F4F4F4" stroke-width="1.8096" d="M 304.248 157.294" style="fill: rgb(30, 30, 30);" transform="matrix(0.965926, -0.258819, 0.258819, 0.965926, -30.343685, 84.104828)"/>
  <path id="line99" d="M 309.944 132.637 L 301.967 151.275 L 302.883 151.679 L 310.86 133.025 L 309.944 132.637 L 309.944 132.637 Z" style="fill: rgb(30, 30, 30);" transform="matrix(0.965926, -0.258819, 0.258819, 0.965926, -26.352402, 84.149552)"/>
  <path id="line101" d="M 313.151 104.875 L 307.502 118.098 L 308.402 118.486 L 314.068 105.26 L 313.155 104.873 L 313.151 104.875 Z" style="fill: rgb(30, 30, 30);" transform="matrix(0.965926, -0.258819, 0.258819, 0.965926, -18.315043, 84.242492)"/>
  <path id="line103" d="M 323.129 55.766 L 308.603 89.739 L 309.518 90.126 L 324.045 56.154 L 323.129 55.766 Z" style="fill: rgb(30, 30, 30);" transform="matrix(0.965926, -0.258819, 0.258819, 0.965926, -8.101336, 84.356233)"/>
  <path id="path105" stroke="#F4F4F4" stroke-width="1.8096" d="M 308.079 156.267" style="fill: rgb(30, 30, 30);" transform="matrix(0.965926, -0.258819, 0.258819, 0.965926, -29.94734, 85.061386)"/>
  <path id="line107" d="M 313.832 131.558 L 305.715 150.554 L 306.63 150.941 L 314.747 131.946 L 313.832 131.558 Z" style="fill: rgb(30, 30, 30);" transform="matrix(0.965926, -0.258819, 0.258819, 0.965926, -25.98719, 85.106639)"/>
  <path id="line109" d="M 316.997 103.783 L 311.316 117.083 L 312.232 117.471 L 317.913 104.171 L 316.997 103.783 Z" style="fill: rgb(30, 30, 30);" transform="matrix(0.965926, -0.258819, 0.258819, 0.965926, -17.912146, 85.197756)"/>
  <path id="line111" d="M 324.803 64.766 L 312.449 93.634 L 313.365 94.022 L 325.718 65.155 L 324.803 64.766 Z" style="fill: rgb(30, 30, 30);" transform="matrix(0.965926, -0.258819, 0.258819, 0.965926, -9.676172, 85.2902)"/>
  <path id="path113" stroke="#F4F4F4" stroke-width="1.8096" d="M 311.917 155.238" style="fill: rgb(30, 30, 30);" transform="matrix(0.965926, -0.258819, 0.258819, 0.965926, -29.550236, 86.019643)"/>
  <path id="line115" d="M 317.605 130.704 L 309.596 149.467 L 310.512 149.855 L 318.52 131.091 L 317.606 130.704 L 317.605 130.704 Z" style="fill: rgb(30, 30, 30);" transform="matrix(0.965926, -0.258819, 0.258819, 0.965926, -25.605737, 86.064074)"/>
  <path id="line117" d="M 328.962 73.758 L 311.316 115.056 L 312.216 115.46 L 329.878 74.145 L 328.962 73.758 L 328.962 73.758 Z" style="fill: rgb(30, 30, 30);" transform="matrix(0.965926, -0.258819, 0.258819, 0.965926, -13.562537, 86.200352)"/>
  <path id="path119" stroke="#F4F4F4" stroke-width="1.8096" d="M 315.751 154.211" style="fill: rgb(30, 30, 30);" transform="matrix(0.965926, -0.258819, 0.258819, 0.965926, -29.153791, 86.976992)"/>
  <path id="line121" d="M 321.477 129.494 L 313.452 148.257 L 314.365 148.659 L 322.391 129.881 L 321.476 129.493 L 321.477 129.494 Z" style="fill: rgb(30, 30, 30);" transform="matrix(0.965926, -0.258819, 0.258819, 0.965926, -25.162602, 87.023043)"/>
  <path id="line123" d="M 330.274 82.482 L 316.025 115.803 L 316.942 116.191 L 331.189 82.869 L 330.274 82.482 Z" style="fill: rgb(30, 30, 30);" transform="matrix(0.965926, -0.258819, 0.258819, 0.965926, -14.683539, 87.140489)"/>
  <path id="line147" d="M 48.52 180.483 L 48.52 181.476 L 347.525 181.476 L 347.525 180.483 L 48.52 180.483 Z" style="fill: rgb(30, 30, 30);" transform="matrix(0.965926, -0.258819, 0.258819, 0.965926, -40.093484, 57.418717)"/>
</svg>