<?xml version="1.0" encoding="utf-8"?>
<svg version="1.2" baseProfile="tiny" id="Layer_3" x="0px" y="0px" preserveAspectRatio="none" xmlns="http://www.w3.org/2000/svg">
  <path id="path3" d="M 526.474 126.874 C 524.132 126.874 522.212 128.793 522.212 131.137 L 522.212 399.853 C 522.212 402.197 524.131 404.096 526.474 404.096 L 633.31 404.096 C 635.653 404.096 637.572 402.197 637.572 399.853 L 637.572 131.137 C 637.572 128.793 635.653 126.874 633.31 126.874 L 526.474 126.874 Z M 526.474 128.143 L 633.31 128.143 C 634.968 128.143 636.303 129.479 636.303 131.137 L 636.303 399.855 C 636.303 401.513 634.968 402.829 633.31 402.829 L 526.474 402.829 C 524.816 402.829 523.48 401.513 523.48 399.855 L 523.481 131.137 C 523.481 129.479 524.817 128.143 526.474 128.143 Z" style="fill: rgb(30, 30, 30);" transform="matrix(0.965926, -0.258819, 0.258819, 0.965926, -48.953258, 159.133356)"/>
  <g id="g5" transform="matrix(0.799006, -0.214093, 0.214093, 0.799006, 303.084167, 189.800262)">
    <path id="circle7" d="M299.563,84.906c-29.611,0-53.636,24.024-53.636,53.636c0,29.611,24.024,53.636,53.636,53.636&#10;&#9;&#9;c29.61,0,53.612-24.024,53.612-53.636C353.175,108.931,329.173,84.906,299.563,84.906z M299.563,86.44&#10;&#9;&#9;c28.782,0,52.077,23.319,52.077,52.102c0,28.782-23.295,52.102-52.077,52.102c-28.782,0-52.103-23.319-52.103-52.102&#10;&#9;&#9;C247.46,109.76,270.78,86.44,299.563,86.44z" style="fill: rgb(30, 30, 30);"/>
    <path id="circle9" d="M299.563,109.876c-15.829,0-28.687,12.834-28.687,28.663s12.858,28.688,28.687,28.688&#10;&#9;&#9;c15.829,0,28.663-12.858,28.663-28.688S315.392,109.876,299.563,109.876z M299.563,111.41c15,0,27.129,12.129,27.129,27.129&#10;&#9;&#9;s-12.13,27.154-27.129,27.154c-15,0-27.153-12.154-27.153-27.154S284.563,111.41,299.563,111.41z" style="fill: rgb(30, 30, 30);"/>
    <path id="path11" d="M299.563,94.516c-1.584,0-2.9,1.292-2.9,2.876v7.597c0,1.583,1.316,2.876,2.9,2.876&#10;&#9;&#9;s2.875-1.293,2.875-2.876v-7.597C302.438,95.808,301.146,94.516,299.563,94.516z M299.563,96.049c0.752,0,1.341,0.587,1.341,1.342&#10;&#9;&#9;v7.597c0,0.755-0.587,1.342-1.341,1.342s-1.366-0.588-1.366-1.342v-7.597C298.197,96.637,298.808,96.049,299.563,96.049z" style="fill: rgb(30, 30, 30);"/>
    <path id="circle13" d="M299.563,91.517c-25.966,0-47.045,21.055-47.045,47.021s21.079,47.045,47.045,47.045&#10;&#9;&#9;c25.965,0,47.02-21.08,47.02-47.045C346.583,112.57,325.532,91.518,299.563,91.517L299.563,91.517z M299.563,93.051&#10;&#9;&#9;c25.136,0,45.487,20.351,45.487,45.487s-20.351,45.511-45.487,45.511c-25.137,0-45.511-20.375-45.511-45.511&#10;&#9;&#9;c0.001-25.132,20.376-45.485,45.512-45.485L299.563,93.051z" style="fill: rgb(30, 30, 30);"/>
    <path id="path15" d="M270.444,106.563c-0.74,0-1.477,0.279-2.037,0.839c-1.12,1.119-1.12,2.955,0,4.074l5.368,5.368&#10;&#9;&#9;c1.12,1.12,2.955,1.12,4.074,0c1.12-1.119,1.12-2.954,0-4.074l-5.369-5.369c-0.56-0.552-1.297-0.836-2.037-0.836L270.444,106.563z&#10;&#9;&#9; M270.444,108.073c0.343,0,0.692,0.141,0.958,0.407l5.369,5.369c0.533,0.534,0.533,1.384,0,1.917&#10;&#9;&#9;c-0.521,0.52-1.334,0.517-1.87,0.024l-0.048-0.024l-5.369-5.368c-0.534-0.534-0.533-1.384,0-1.917&#10;&#9;&#9;C269.752,108.214,270.101,108.073,270.444,108.073z" style="fill: rgb(30, 30, 30);"/>
    <path id="path17" d="M258.389,135.66c-1.584,0-2.876,1.292-2.876,2.875c0,1.583,1.292,2.9,2.876,2.9h7.597&#10;&#9;&#9;c1.583,0,2.876-1.317,2.876-2.9c0.001-1.583-1.293-2.875-2.876-2.875H258.389z M258.389,137.194h7.597&#10;&#9;&#9;c0.754,0,1.342,0.588,1.342,1.342c0,0.755-0.588,1.366-1.342,1.366h-7.597c-0.754,0-1.342-0.612-1.342-1.366&#10;&#9;&#9;S257.634,137.194,258.389,137.194z" style="fill: rgb(30, 30, 30);"/>
    <path id="path19" d="M275.813,159.412c-0.739-0.001-1.477,0.278-2.037,0.838l-5.368,5.369&#10;&#9;&#9;c-1.12,1.118-1.12,2.954,0,4.074c1.12,1.119,2.954,1.119,4.074,0l5.369-5.368c1.12-1.119,1.12-2.954,0-4.074&#10;&#9;&#9;C277.29,159.69,276.552,159.412,275.813,159.412L275.813,159.412z M275.813,160.921c0.344,0,0.692,0.141,0.959,0.408&#10;&#9;&#9;c0.533,0.533,0.533,1.36,0,1.894l-5.369,5.368c-0.534,0.533-1.384,0.533-1.917,0c-0.534-0.534-0.533-1.36,0-1.893l5.369-5.369&#10;&#9;&#9;C275.121,161.061,275.469,160.921,275.813,160.921z" style="fill: rgb(30, 30, 30);"/>
    <path id="path21" d="M299.563,169.235c-1.583,0-2.9,1.293-2.9,2.876v7.597c0,1.584,1.317,2.876,2.9,2.876&#10;&#9;&#9;c1.583,0,2.875-1.292,2.875-2.876v-7.597C302.438,170.527,301.146,169.235,299.563,169.235z M299.563,170.769&#10;&#9;&#9;c0.752,0,1.341,0.588,1.341,1.342v7.597c0,0.754-0.587,1.343-1.341,1.343c-0.753,0-1.366-0.588-1.366-1.343v-7.597&#10;&#9;&#9;C298.197,171.357,298.809,170.769,299.563,170.769z" style="fill: rgb(30, 30, 30);"/>
    <path id="path23" d="M323.291,159.412c-0.739-0.001-1.478,0.278-2.037,0.838c-1.119,1.119-1.12,2.954,0,4.074&#10;&#9;&#9;l5.368,5.368c1.119,1.119,2.954,1.119,4.074,0c1.119-1.12,1.119-2.955,0-4.074l-5.369-5.369&#10;&#9;&#9;C324.769,159.69,324.03,159.412,323.291,159.412L323.291,159.412z M323.291,160.921c0.343,0,0.692,0.14,0.958,0.408l5.369,5.369&#10;&#9;&#9;c0.533,0.533,0.533,1.359,0,1.893c-0.534,0.533-1.384,0.533-1.918,0l-5.368-5.368c-0.534-0.534-0.532-1.36,0-1.894&#10;&#9;&#9;C322.6,161.061,322.947,160.921,323.291,160.921z" style="fill: rgb(30, 30, 30);"/>
    <path id="path25" d="M333.114,135.66c-1.584,0-2.876,1.293-2.876,2.875c0,1.307,0.909,2.384,2.109,2.732v0.167&#10;&#9;&#9;h0.767h7.598c1.583,0,2.875-1.317,2.875-2.9c0-1.583-1.292-2.875-2.875-2.875H333.114L333.114,135.66z M333.114,137.194h7.598&#10;&#9;&#9;c0.754,0,1.342,0.588,1.342,1.342c0,0.753-0.587,1.366-1.342,1.366h-6.83h-0.768c-0.754,0-1.342-0.614-1.342-1.366&#10;&#9;&#9;C331.772,137.781,332.358,137.194,333.114,137.194z" style="fill: rgb(30, 30, 30);"/>
    <path id="path27" d="M328.659,106.563c-0.739,0-1.478,0.28-2.037,0.839l-5.368,5.369c-1.12,1.12-1.12,2.954,0,4.074&#10;&#9;&#9;c1.118,1.12,2.954,1.12,4.073,0l5.369-5.368c1.118-1.119,1.119-2.955,0-4.074C330.137,106.843,329.398,106.563,328.659,106.563&#10;&#9;&#9;L328.659,106.563z M328.659,108.073c0.344,0,0.691,0.141,0.959,0.407c0.533,0.534,0.532,1.385,0,1.917l-5.369,5.368&#10;&#9;&#9;c-0.532,0.533-1.385,0.533-1.917,0c-0.534-0.534-0.534-1.383,0-1.917l5.32-5.32l0.048-0.048&#10;&#9;&#9;C327.967,108.214,328.315,108.073,328.659,108.073z" style="fill: rgb(30, 30, 30);"/>
    <path id="circle29" d="M299.563,121.572c-9.361,0-16.968,7.607-16.968,16.968c0,9.361,7.607,16.968,16.968,16.968&#10;&#9;&#9;c9.361,0,16.967-7.606,16.967-16.968C316.53,129.179,308.924,121.572,299.563,121.572z M299.563,123.105&#10;&#9;&#9;c8.532,0,15.433,6.902,15.433,15.434c0,8.532-6.901,15.434-15.433,15.434c-8.532,0-15.434-6.902-15.434-15.434&#10;&#9;&#9;C284.129,130.008,291.03,123.105,299.563,123.105z" style="fill: rgb(30, 30, 30);"/>
    <path id="circle31" d="M299.563,115.291c-12.828,0-23.247,10.42-23.247,23.247c0,12.827,10.42,23.246,23.247,23.246&#10;&#9;&#9;s23.222-10.419,23.222-23.246c0-12.823-10.392-23.245-23.222-23.245L299.563,115.291z M299.563,116.825&#10;&#9;&#9;c11.999,0,21.689,9.715,21.689,21.713c0,11.998-9.69,21.712-21.689,21.712s-21.713-9.715-21.713-21.712&#10;&#9;&#9;c0-11.995,9.715-21.711,21.713-21.711L299.563,116.825z" style="fill: rgb(30, 30, 30);"/>
  </g>
  <path id="rect33" d="M 496.997 136.203 L 496.997 136.836 L 496.997 167.505 L 496.997 168.139 L 497.631 168.139 L 600.979 168.139 L 601.613 168.139 L 601.613 167.505 L 601.613 136.838 L 601.613 136.203 L 600.979 136.203 L 497.63 136.203 L 496.997 136.203 Z M 498.265 137.471 L 600.344 137.471 L 600.344 166.871 L 498.265 166.871 L 498.265 137.471 Z" style="fill: rgb(30, 30, 30);" transform="matrix(0.965926, -0.258819, 0.258819, 0.965926, -20.667639, 147.355634)"/>
  <path id="path35" d="M 499.733 142.858 C 496.79 142.858 494.38 145.248 494.38 148.191 L 494.38 215.81 C 494.38 218.314 496.11 220.41 498.444 220.985 L 498.741 219.754 C 496.965 219.315 495.648 217.729 495.648 215.807 L 495.648 148.188 C 495.648 145.931 497.474 144.123 499.732 144.123 L 504.549 144.123 C 505.705 144.123 506.742 144.604 507.483 145.373 L 508.396 144.48 C 507.426 143.474 506.056 142.855 504.549 142.855 L 499.733 142.855 L 499.733 142.858 Z" style="fill: rgb(30, 30, 30);" transform="matrix(0.965926, -0.258819, 0.258819, 0.965926, -29.999964, 135.967356)"/>
  <path id="path37" d="M 602.988 114.787 C 601.481 114.787 600.113 115.405 599.142 116.413 L 600.055 117.304 C 600.797 116.535 601.831 116.055 602.985 116.055 L 607.823 116.055 C 610.082 116.055 611.888 117.861 611.888 120.119 L 611.888 187.738 C 611.888 189.657 610.571 191.245 608.795 191.683 L 609.113 192.913 C 611.446 192.336 613.157 190.24 613.157 187.738 L 613.157 120.119 C 613.145 117.174 610.759 114.784 607.816 114.784 L 602.978 114.784 L 602.988 114.787 Z" style="fill: rgb(30, 30, 30);" transform="matrix(0.965926, -0.258819, 0.258819, 0.965926, -19.164878, 162.125244)"/>
</svg>