<?xml version="1.0" encoding="utf-8"?>
<svg version="1.2" baseProfile="tiny" id="Layer_3" x="0px" y="0px" viewBox="0 0 1280 720" preserveAspectRatio="none" xmlns="http://www.w3.org/2000/svg">
  <path id="path3" d="M 553.04 134.832 C 549.214 134.832 546.08 137.966 546.08 141.793 L 546.079 580.613 C 546.079 584.44 549.213 587.542 553.039 587.542 L 727.505 587.542 C 731.33 587.542 734.464 584.44 734.464 580.613 L 734.464 141.793 C 734.464 137.966 731.33 134.832 727.505 134.832 L 553.04 134.832 Z M 553.04 136.905 L 727.505 136.905 C 730.212 136.905 732.392 139.086 732.392 141.793 L 732.392 580.615 C 732.392 583.324 730.212 585.472 727.505 585.472 L 553.039 585.472 C 550.332 585.472 548.15 583.324 548.15 580.615 L 548.151 141.793 C 548.151 139.086 550.333 136.905 553.04 136.905 Z" style="fill: rgb(30, 30, 30);" transform="matrix(0.965926, -0.258819, 0.258819, 0.965926, -71.665378, 178.021699)"/>
  <g id="g5" transform="matrix(1.304794, -0.349618, 0.349618, 1.304794, 188.239166, 237.592255)">
    <path id="circle7" d="M299.563,84.906c-29.611,0-53.636,24.024-53.636,53.636c0,29.611,24.024,53.636,53.636,53.636&#10;&#9;&#9;c29.61,0,53.612-24.024,53.612-53.636C353.175,108.931,329.173,84.906,299.563,84.906z M299.563,86.44&#10;&#9;&#9;c28.782,0,52.077,23.319,52.077,52.102c0,28.782-23.295,52.102-52.077,52.102c-28.782,0-52.103-23.319-52.103-52.102&#10;&#9;&#9;C247.46,109.76,270.78,86.44,299.563,86.44z" style="fill: rgb(30, 30, 30);"/>
    <path id="circle9" d="M299.563,109.876c-15.829,0-28.687,12.834-28.687,28.663s12.858,28.688,28.687,28.688&#10;&#9;&#9;c15.829,0,28.663-12.858,28.663-28.688S315.392,109.876,299.563,109.876z M299.563,111.41c15,0,27.129,12.129,27.129,27.129&#10;&#9;&#9;s-12.13,27.154-27.129,27.154c-15,0-27.153-12.154-27.153-27.154S284.563,111.41,299.563,111.41z" style="fill: rgb(30, 30, 30);"/>
    <path id="path11" d="M299.563,94.516c-1.584,0-2.9,1.292-2.9,2.876v7.597c0,1.583,1.316,2.876,2.9,2.876&#10;&#9;&#9;s2.875-1.293,2.875-2.876v-7.597C302.438,95.808,301.146,94.516,299.563,94.516z M299.563,96.049c0.752,0,1.341,0.587,1.341,1.342&#10;&#9;&#9;v7.597c0,0.755-0.587,1.342-1.341,1.342s-1.366-0.588-1.366-1.342v-7.597C298.197,96.637,298.808,96.049,299.563,96.049z" style="fill: rgb(30, 30, 30);"/>
    <path id="circle13" d="M299.563,91.517c-25.966,0-47.045,21.055-47.045,47.021s21.079,47.045,47.045,47.045&#10;&#9;&#9;c25.965,0,47.02-21.08,47.02-47.045C346.583,112.57,325.532,91.518,299.563,91.517L299.563,91.517z M299.563,93.051&#10;&#9;&#9;c25.136,0,45.487,20.351,45.487,45.487s-20.351,45.511-45.487,45.511c-25.137,0-45.511-20.375-45.511-45.511&#10;&#9;&#9;c0.001-25.132,20.376-45.485,45.512-45.485L299.563,93.051z" style="fill: rgb(30, 30, 30);"/>
    <path id="path15" d="M270.444,106.563c-0.74,0-1.477,0.279-2.037,0.839c-1.12,1.119-1.12,2.955,0,4.074l5.368,5.368&#10;&#9;&#9;c1.12,1.12,2.955,1.12,4.074,0c1.12-1.119,1.12-2.954,0-4.074l-5.369-5.369c-0.56-0.552-1.297-0.836-2.037-0.836L270.444,106.563z&#10;&#9;&#9; M270.444,108.073c0.343,0,0.692,0.141,0.958,0.407l5.369,5.369c0.533,0.534,0.533,1.384,0,1.917&#10;&#9;&#9;c-0.521,0.52-1.334,0.517-1.87,0.024l-0.048-0.024l-5.369-5.368c-0.534-0.534-0.533-1.384,0-1.917&#10;&#9;&#9;C269.752,108.214,270.101,108.073,270.444,108.073z" style="fill: rgb(30, 30, 30);"/>
    <path id="path17" d="M258.389,135.66c-1.584,0-2.876,1.292-2.876,2.875c0,1.583,1.292,2.9,2.876,2.9h7.597&#10;&#9;&#9;c1.583,0,2.876-1.317,2.876-2.9c0.001-1.583-1.293-2.875-2.876-2.875H258.389z M258.389,137.194h7.597&#10;&#9;&#9;c0.754,0,1.342,0.588,1.342,1.342c0,0.755-0.588,1.366-1.342,1.366h-7.597c-0.754,0-1.342-0.612-1.342-1.366&#10;&#9;&#9;S257.634,137.194,258.389,137.194z" style="fill: rgb(30, 30, 30);"/>
    <path id="path19" d="M275.813,159.412c-0.739-0.001-1.477,0.278-2.037,0.838l-5.368,5.369&#10;&#9;&#9;c-1.12,1.118-1.12,2.954,0,4.074c1.12,1.119,2.954,1.119,4.074,0l5.369-5.368c1.12-1.119,1.12-2.954,0-4.074&#10;&#9;&#9;C277.29,159.69,276.552,159.412,275.813,159.412L275.813,159.412z M275.813,160.921c0.344,0,0.692,0.141,0.959,0.408&#10;&#9;&#9;c0.533,0.533,0.533,1.36,0,1.894l-5.369,5.368c-0.534,0.533-1.384,0.533-1.917,0c-0.534-0.534-0.533-1.36,0-1.893l5.369-5.369&#10;&#9;&#9;C275.121,161.061,275.469,160.921,275.813,160.921z" style="fill: rgb(30, 30, 30);"/>
    <path id="path21" d="M299.563,169.235c-1.583,0-2.9,1.293-2.9,2.876v7.597c0,1.584,1.317,2.876,2.9,2.876&#10;&#9;&#9;c1.583,0,2.875-1.292,2.875-2.876v-7.597C302.438,170.527,301.146,169.235,299.563,169.235z M299.563,170.769&#10;&#9;&#9;c0.752,0,1.341,0.588,1.341,1.342v7.597c0,0.754-0.587,1.343-1.341,1.343c-0.753,0-1.366-0.588-1.366-1.343v-7.597&#10;&#9;&#9;C298.197,171.357,298.809,170.769,299.563,170.769z" style="fill: rgb(30, 30, 30);"/>
    <path id="path23" d="M323.291,159.412c-0.739-0.001-1.478,0.278-2.037,0.838c-1.119,1.119-1.12,2.954,0,4.074&#10;&#9;&#9;l5.368,5.368c1.119,1.119,2.954,1.119,4.074,0c1.119-1.12,1.119-2.955,0-4.074l-5.369-5.369&#10;&#9;&#9;C324.769,159.69,324.03,159.412,323.291,159.412L323.291,159.412z M323.291,160.921c0.343,0,0.692,0.14,0.958,0.408l5.369,5.369&#10;&#9;&#9;c0.533,0.533,0.533,1.359,0,1.893c-0.534,0.533-1.384,0.533-1.918,0l-5.368-5.368c-0.534-0.534-0.532-1.36,0-1.894&#10;&#9;&#9;C322.6,161.061,322.947,160.921,323.291,160.921z" style="fill: rgb(30, 30, 30);"/>
    <path id="path25" d="M333.114,135.66c-1.584,0-2.876,1.293-2.876,2.875c0,1.307,0.909,2.384,2.109,2.732v0.167&#10;&#9;&#9;h0.767h7.598c1.583,0,2.875-1.317,2.875-2.9c0-1.583-1.292-2.875-2.875-2.875H333.114L333.114,135.66z M333.114,137.194h7.598&#10;&#9;&#9;c0.754,0,1.342,0.588,1.342,1.342c0,0.753-0.587,1.366-1.342,1.366h-6.83h-0.768c-0.754,0-1.342-0.614-1.342-1.366&#10;&#9;&#9;C331.772,137.781,332.358,137.194,333.114,137.194z" style="fill: rgb(30, 30, 30);"/>
    <path id="path27" d="M328.659,106.563c-0.739,0-1.478,0.28-2.037,0.839l-5.368,5.369c-1.12,1.12-1.12,2.954,0,4.074&#10;&#9;&#9;c1.118,1.12,2.954,1.12,4.073,0l5.369-5.368c1.118-1.119,1.119-2.955,0-4.074C330.137,106.843,329.398,106.563,328.659,106.563&#10;&#9;&#9;L328.659,106.563z M328.659,108.073c0.344,0,0.691,0.141,0.959,0.407c0.533,0.534,0.532,1.385,0,1.917l-5.369,5.368&#10;&#9;&#9;c-0.532,0.533-1.385,0.533-1.917,0c-0.534-0.534-0.534-1.383,0-1.917l5.32-5.32l0.048-0.048&#10;&#9;&#9;C327.967,108.214,328.315,108.073,328.659,108.073z" style="fill: rgb(30, 30, 30);"/>
    <path id="circle29" d="M299.563,121.572c-9.361,0-16.968,7.607-16.968,16.968c0,9.361,7.607,16.968,16.968,16.968&#10;&#9;&#9;c9.361,0,16.967-7.606,16.967-16.968C316.53,129.179,308.924,121.572,299.563,121.572z M299.563,123.105&#10;&#9;&#9;c8.532,0,15.433,6.902,15.433,15.434c0,8.532-6.901,15.434-15.433,15.434c-8.532,0-15.434-6.902-15.434-15.434&#10;&#9;&#9;C284.129,130.008,291.03,123.105,299.563,123.105z" style="fill: rgb(30, 30, 30);"/>
    <path id="circle31" d="M299.563,115.291c-12.828,0-23.247,10.42-23.247,23.247c0,12.827,10.42,23.246,23.247,23.246&#10;&#9;&#9;s23.222-10.419,23.222-23.246c0-12.823-10.392-23.245-23.222-23.245L299.563,115.291z M299.563,116.825&#10;&#9;&#9;c11.999,0,21.689,9.715,21.689,21.713c0,11.998-9.69,21.712-21.689,21.712s-21.713-9.715-21.713-21.712&#10;&#9;&#9;c0-11.995,9.715-21.711,21.713-21.711L299.563,116.825z" style="fill: rgb(30, 30, 30);"/>
  </g>
  <path id="rect33" d="M 504.902 150.066 L 504.902 151.101 L 504.902 201.183 L 504.902 202.219 L 505.938 202.219 L 674.707 202.219 L 675.743 202.219 L 675.743 201.183 L 675.743 151.103 L 675.743 150.067 L 674.707 150.067 L 505.937 150.067 L 504.902 150.067 Z M 506.973 152.137 L 673.67 152.137 L 673.67 200.149 L 506.973 200.149 L 506.973 152.137 Z" style="fill: rgb(30, 30, 30);" transform="matrix(0.965926, -0.258819, 0.258819, 0.965926, -25.474278, 158.788619)"/>
  <path id="path35" d="M 509.37 160.935 C 504.564 160.935 500.629 164.838 500.629 169.643 L 500.629 280.066 C 500.629 284.155 503.455 287.578 507.266 288.517 L 507.751 286.508 C 504.85 285.791 502.7 283.2 502.7 280.061 L 502.7 169.639 C 502.7 165.953 505.682 163.001 509.369 163.001 L 517.236 163.001 C 519.123 163.001 520.817 163.786 522.027 165.041 L 523.517 163.583 C 521.933 161.94 519.696 160.929 517.236 160.929 L 509.37 160.929 L 509.37 160.935 Z" style="fill: rgb(30, 30, 30);" transform="matrix(0.965926, -0.258819, 0.258819, 0.965926, -40.714128, 140.191483)"/>
  <path id="path37" d="M 677.988 115.094 C 675.527 115.094 673.294 116.104 671.708 117.749 L 673.198 119.204 C 674.411 117.949 676.099 117.164 677.984 117.164 L 685.884 117.164 C 689.573 117.164 692.522 120.114 692.522 123.802 L 692.522 234.225 C 692.522 237.359 690.371 239.952 687.471 240.667 L 687.99 242.676 C 691.801 241.734 694.594 238.31 694.594 234.225 L 694.594 123.802 C 694.574 118.992 690.679 115.09 685.872 115.09 L 677.972 115.09 L 677.988 115.094 Z" style="fill: rgb(30, 30, 30);" transform="matrix(0.965926, -0.258819, 0.258819, 0.965926, -23.02052, 182.907676)"/>
</svg>