<?xml version="1.0" encoding="utf-8"?>
<svg version="1.2" baseProfile="tiny" id="Layer_3" x="0px" y="0px" preserveAspectRatio="none" xmlns="http://www.w3.org/2000/svg">
  <g id="g3" transform="matrix(0.51637, -0.138361, 0.138361, 0.51637, 299.679657, 189.619553)">
    <path id="polyline5" d="M82.189,26.116v83.276h-3.15v1.708h4.005h0.854v-0.854V26.116H82.189z" style="fill: rgb(30, 30, 30);"/>
    <path id="rect7" d="M47.081,25.262v0.854v84.129v0.854h0.854h27.768h0.854v-0.854V26.116v-0.854h-0.854H47.935&#10;&#9;&#9;H47.081z M48.789,26.971h26.058v82.42H48.789V26.971z" style="fill: rgb(30, 30, 30);"/>
    <path id="rect9" d="M269.116,25.262v0.854v84.129v0.854h0.854h280.184h0.854v-0.854V26.116v-0.854h-0.854H269.97&#10;&#9;&#9;H269.116z M270.824,26.971H549.3v82.42H270.824V26.971z" style="fill: rgb(30, 30, 30);"/>
    <path id="polyline11" d="M89.532,26.116v83.276h-3.15v1.708h4.004h0.854v-0.854V26.116H89.532z" style="fill: rgb(30, 30, 30);"/>
    <path id="polyline13" d="M96.874,26.116v83.276h-3.15v1.708h4.005h0.854v-0.854V26.116H96.874z" style="fill: rgb(30, 30, 30);"/>
    <path id="polyline15" d="M104.243,26.116v83.276h-3.177v1.708h4.032h0.854v-0.854V26.116H104.243z" style="fill: rgb(30, 30, 30);"/>
    <path id="polyline17" d="M111.585,26.116v83.276h-3.177v1.708h4.032h0.854v-0.854V26.116H111.585z" style="fill: rgb(30, 30, 30);"/>
    <path id="polyline19" d="M118.928,26.116v83.276h-3.177v1.708h4.032h0.854v-0.854V26.116H118.928z" style="fill: rgb(30, 30, 30);"/>
    <path id="polyline21" d="M126.271,26.116v83.276h-3.177v1.708h4.031h0.855v-0.854V26.116H126.271z" style="fill: rgb(30, 30, 30);"/>
    <path id="polyline23" d="M133.611,26.116v83.276h-3.177v1.708h4.032h0.854v-0.854V26.116H133.611z" style="fill: rgb(30, 30, 30);"/>
    <path id="polyline25" d="M140.959,26.116v83.276h-3.177v1.708h4.032h0.854v-0.854V26.116H140.959z" style="fill: rgb(30, 30, 30);"/>
    <path id="polyline27" d="M148.298,26.116v83.276h-3.177v1.708h4.031h0.854v-0.854V26.116H148.298z" style="fill: rgb(30, 30, 30);"/>
    <path id="polyline29" d="M155.638,26.116v83.276h-3.177v1.708h4.032h0.854v-0.854V26.116H155.638z" style="fill: rgb(30, 30, 30);"/>
    <path id="polyline31" d="M162.985,26.116v83.276h-3.177v1.708h4.032h0.854v-0.854V26.116H162.985z" style="fill: rgb(30, 30, 30);"/>
    <path id="polyline33" d="M170.324,26.116v83.276h-3.178v1.708h4.032h0.854v-0.854V26.116H170.324z" style="fill: rgb(30, 30, 30);"/>
    <path id="polyline35" d="M177.663,26.116v83.276h-3.177v1.708h4.032h0.854v-0.854V26.116H177.663z" style="fill: rgb(30, 30, 30);"/>
    <path id="polyline37" d="M185.011,26.116v83.276h-3.177v1.708h4.032h0.854v-0.854V26.116H185.011z" style="fill: rgb(30, 30, 30);"/>
    <path id="polyline39" d="M192.35,26.116v83.276h-3.178v1.708h4.032h0.854v-0.854V26.116H192.35z" style="fill: rgb(30, 30, 30);"/>
    <path id="polyline41" d="M199.689,26.116v83.276h-3.177v1.708h4.032h0.854v-0.854V26.116H199.689z" style="fill: rgb(30, 30, 30);"/>
    <path id="polyline43" d="M207.037,26.116v83.276h-3.177v1.708h4.032h0.854v-0.854V26.116H207.037z" style="fill: rgb(30, 30, 30);"/>
    <path id="polyline45" d="M214.376,26.116v83.276h-3.178v1.708h4.032h0.855v-0.854V26.116H214.376z" style="fill: rgb(30, 30, 30);"/>
    <path id="polyline47" d="M221.724,26.116v83.276h-3.178v1.708h4.032h0.854v-0.854V26.116H221.724z" style="fill: rgb(30, 30, 30);"/>
    <path id="polyline49" d="M229.063,26.116v83.276h-3.177v1.708h4.032h0.854v-0.854V26.116H229.063z" style="fill: rgb(30, 30, 30);"/>
    <path id="polyline51" d="M236.402,26.116v83.276h-3.178v1.708h4.032h0.855v-0.854V26.116H236.402z" style="fill: rgb(30, 30, 30);"/>
    <path id="polyline53" d="M243.749,26.116v83.276h-3.177v1.708h4.032h0.854v-0.854V26.116H243.749z" style="fill: rgb(30, 30, 30);"/>
    <path id="polyline55" d="M251.088,26.116v83.276h-3.177v1.708h4.032h0.854v-0.854V26.116H251.088z" style="fill: rgb(30, 30, 30);"/>
    <path id="polyline57" d="M258.436,26.116v83.276h-3.177v1.708h4.032h0.854v-0.854V26.116H258.436z" style="fill: rgb(30, 30, 30);"/>
    <path id="polyline59" d="M265.775,26.116v83.276h-3.178v1.708h4.032h0.854v-0.854V26.116H265.775z" style="fill: rgb(30, 30, 30);"/>
    <path id="path61" d="M341.737,35.461c-0.906,0-1.656,0.749-1.656,1.655v32.893c0,0.905,0.75,1.656,1.656,1.656&#10;&#9;&#9;H538.62c0.906,0,1.655-0.75,1.655-1.656V37.116c0-0.905-0.749-1.655-1.655-1.655H341.737z M341.791,37.169h196.772v32.787H341.791&#10;&#9;&#9;V37.169z" style="fill: rgb(30, 30, 30);"/>
    <path id="path63" d="M347.53,40.24c-1.128,0-2.082,0.928-2.082,2.056V64.83c0,1.128,0.954,2.056,2.082,2.056&#10;&#9;&#9;h148.261c0.799,0,1.368-0.527,1.708-1.201h0.348V64.83V42.296c0-1.128-0.926-2.056-2.056-2.056H347.53L347.53,40.24z&#10;&#9;&#9; M347.53,41.949h148.261c0.205,0,0.347,0.142,0.347,0.347v21.68v0.854c0,0.205-0.142,0.347-0.347,0.347H347.53&#10;&#9;&#9;c-0.204,0-0.373-0.143-0.373-0.347V42.296C347.157,42.091,347.326,41.949,347.53,41.949z" style="fill: rgb(30, 30, 30);"/>
    <path id="path65" d="M349.794,43.043c-0.684,0-1.255,0.568-1.255,1.255v18.529c0,0.687,0.571,1.255,1.255,1.255&#10;&#9;&#9;h143.988c0.686,0,1.256-0.571,1.256-1.255V44.298c0-0.685-0.57-1.255-1.256-1.255H349.794L349.794,43.043z M350.248,44.752H493.33&#10;&#9;&#9;v17.622H350.248V44.752z" style="fill: rgb(30, 30, 30);"/>
    <path id="circle67" d="M520.482,41.842c-6.465,0-11.721,5.257-11.721,11.722c0,6.464,5.255,11.721,11.721,11.721&#10;&#9;&#9;c6.465,0,11.722-5.257,11.722-11.721C532.204,47.099,526.947,41.842,520.482,41.842z M520.482,43.551&#10;&#9;&#9;c5.54,0,10.013,4.471,10.013,10.013c0,5.541-4.473,10.012-10.013,10.012c-5.541,0-10.012-4.471-10.012-10.012&#10;&#9;&#9;C510.471,48.022,514.941,43.551,520.482,43.551z" style="fill: rgb(30, 30, 30);"/>
  </g>
  <path id="path69" d="M 352.65 205.325 C 352.167 205.325 351.752 205.725 351.752 206.21 L 351.752 317.681 C 351.752 318.166 352.165 318.567 352.65 318.567 L 616.471 318.568 C 616.956 318.568 617.357 318.166 617.357 317.682 L 617.357 206.211 C 617.357 205.727 616.955 205.326 616.471 205.326 L 352.65 205.326 Z M 352.664 206.239 L 616.445 206.24 L 616.445 317.656 L 352.664 317.655 L 352.664 206.239 Z" style="fill: rgb(30, 30, 30);" transform="matrix(0.965926, -0.258819, 0.258819, 0.965926, -51.285957, 134.337567)"/>
  <path id="path71" d="M 325.165 156.862 C 324.681 156.862 324.266 157.262 324.266 157.747 L 324.266 161.872 L 325.178 161.872 L 325.178 157.775 L 588.959 157.775 L 588.959 161.757 L 589.872 161.757 L 589.872 157.747 C 589.872 157.262 589.47 156.861 588.985 156.861 L 325.16 156.861 L 325.165 156.862 Z" style="fill: rgb(30, 30, 30);" transform="matrix(0.965926, -0.258819, 0.258819, 0.965926, -25.672828, 123.728386)"/>
  <path id="path73" d="M 363.12 264.148 C 362.16 264.148 361.365 264.943 361.365 265.903 L 361.365 274.454 C 361.365 275.413 362.16 276.209 363.12 276.209 L 371.669 276.209 C 372.631 276.209 373.412 275.414 373.412 274.454 L 373.412 273.997 L 373.412 265.903 C 373.412 264.944 372.631 264.148 371.669 264.148 L 363.12 264.148 Z M 363.12 265.061 L 371.669 265.061 C 372.137 265.061 372.498 265.437 372.498 265.903 L 372.498 274.454 C 372.498 274.919 372.136 275.296 371.669 275.296 L 363.12 275.296 C 362.654 275.296 362.278 274.919 362.278 274.454 L 362.278 265.903 C 362.278 265.436 362.653 265.061 363.12 265.061 Z" style="fill: rgb(30, 30, 30);" transform="matrix(0.965926, -0.258819, 0.258819, 0.965926, -57.408866, 104.293194)"/>
  <path id="path75" d="M 375.447 260.843 C 374.486 260.843 373.691 261.639 373.691 262.599 L 373.691 271.15 C 373.691 272.109 374.485 272.905 375.447 272.905 L 383.996 272.905 C 384.956 272.905 385.751 272.11 385.751 271.15 L 385.751 262.599 C 385.751 261.639 384.954 260.843 383.996 260.843 L 375.447 260.843 Z M 375.447 261.756 L 383.996 261.756 C 384.463 261.756 384.837 262.133 384.837 262.599 L 384.837 271.15 C 384.837 271.615 384.463 271.991 383.996 271.991 L 375.447 271.991 C 374.979 271.991 374.603 271.614 374.603 271.15 L 374.603 262.599 C 374.603 262.132 374.979 261.756 375.447 261.756 Z" style="fill: rgb(30, 30, 30);" transform="matrix(0.965926, -0.258819, 0.258819, 0.965926, -56.133372, 107.372484)"/>
  <path id="path77" d="M 387.771 257.541 C 386.813 257.541 386.015 258.336 386.015 259.296 L 386.015 267.847 C 386.015 268.806 386.81 269.603 387.771 269.603 L 396.32 269.603 C 397.28 269.603 398.076 268.807 398.076 267.847 L 398.076 259.296 C 398.076 258.337 397.281 257.541 396.32 257.541 L 387.771 257.541 Z M 387.771 258.454 L 396.32 258.454 C 396.786 258.454 397.163 258.83 397.163 259.296 L 397.163 267.847 C 397.163 268.312 396.786 268.689 396.32 268.689 L 387.771 268.689 C 387.304 268.689 386.929 268.312 386.929 267.847 L 386.929 259.296 C 386.929 258.83 387.305 258.454 387.771 258.454 Z" style="fill: rgb(30, 30, 30);" transform="matrix(0.965926, -0.258819, 0.258819, 0.965926, -54.858803, 110.449782)"/>
  <path id="path79" d="M 400.098 254.236 C 399.138 254.236 398.357 255.031 398.357 255.992 L 398.357 264.542 C 398.357 265.502 399.138 266.298 400.098 266.298 L 408.647 266.298 C 409.608 266.298 410.403 265.503 410.403 264.542 L 410.403 255.992 C 410.403 255.032 409.608 254.236 408.647 254.236 L 400.098 254.236 Z M 400.098 255.149 L 408.647 255.149 C 409.115 255.149 409.49 255.525 409.49 255.992 L 409.49 264.542 C 409.49 265.008 409.114 265.384 408.647 265.384 L 400.098 265.384 C 399.632 265.384 399.27 265.007 399.27 264.542 L 399.27 255.992 C 399.27 255.525 399.63 255.149 400.098 255.149 Z" style="fill: rgb(30, 30, 30);" transform="matrix(0.965926, -0.258819, 0.258819, 0.965926, -53.58315, 113.529642)"/>
  <path id="path81" d="M 412.42 250.935 C 411.461 250.935 410.678 251.73 410.678 252.69 L 410.678 261.241 C 410.678 262.2 411.46 262.996 412.42 262.996 L 420.984 262.996 C 421.944 262.996 422.725 262.201 422.725 261.241 L 422.725 252.69 C 422.725 251.731 421.944 250.935 420.984 250.935 L 412.42 250.935 Z M 412.42 251.848 L 420.984 251.848 C 421.45 251.848 421.811 252.224 421.811 252.69 L 421.811 261.241 C 421.811 261.706 421.45 262.083 420.984 262.083 L 412.42 262.083 C 411.953 262.083 411.592 261.706 411.592 261.241 L 411.592 252.69 C 411.592 252.223 411.953 251.848 412.42 251.848 Z" style="fill: rgb(30, 30, 30);" transform="matrix(0.965926, -0.258819, 0.258819, 0.965926, -52.30879, 116.606115)"/>
  <path id="path83" d="M 424.746 247.632 C 423.786 247.632 423.005 248.427 423.005 249.387 L 423.005 257.938 C 423.005 258.897 423.786 259.693 424.746 259.693 L 433.31 259.693 C 434.27 259.693 435.051 258.898 435.051 257.938 L 435.051 249.387 C 435.051 248.428 434.269 247.632 433.31 247.632 L 424.746 247.632 Z M 424.746 248.545 L 433.31 248.545 C 433.777 248.545 434.138 248.921 434.138 249.387 L 434.138 257.938 C 434.138 258.403 433.777 258.78 433.31 258.78 L 424.746 258.78 C 424.279 258.78 423.918 258.402 423.918 257.938 L 423.918 249.387 C 423.918 248.92 424.279 248.545 424.746 248.545 Z" style="fill: rgb(30, 30, 30);" transform="matrix(0.965926, -0.258819, 0.258819, 0.965926, -51.033897, 119.683899)"/>
  <path id="path85" d="M 437.087 244.329 C 436.128 244.329 435.331 245.124 435.331 246.084 L 435.331 254.635 C 435.331 255.594 436.126 256.39 437.087 256.39 L 445.636 256.39 C 446.597 256.39 447.377 255.595 447.377 254.635 L 447.377 246.084 C 447.377 245.125 446.596 244.329 445.636 244.329 L 437.087 244.329 Z M 437.087 245.242 L 445.636 245.242 C 446.102 245.242 446.464 245.618 446.464 246.084 L 446.464 254.635 C 446.464 255.1 446.102 255.477 445.636 255.477 L 437.087 255.477 C 436.621 255.477 436.246 255.1 436.246 254.635 L 436.246 246.084 C 436.245 245.618 436.621 245.242 437.087 245.242 Z" style="fill: rgb(30, 30, 30);" transform="matrix(0.965926, -0.258819, 0.258819, 0.965926, -49.759013, 122.76155)"/>
  <path id="path87" d="M 449.413 241.024 C 448.454 241.024 447.657 241.819 447.657 242.78 L 447.657 251.33 C 447.657 252.29 448.453 253.086 449.413 253.086 L 457.963 253.086 C 458.922 253.086 459.718 252.291 459.718 251.33 L 459.718 242.78 C 459.718 241.82 458.922 241.024 457.963 241.024 L 449.413 241.024 Z M 449.413 241.937 L 457.963 241.937 C 458.428 241.937 458.804 242.313 458.804 242.78 L 458.804 251.33 C 458.804 251.796 458.428 252.172 457.963 252.172 L 449.413 252.172 C 448.947 252.172 448.571 251.795 448.571 251.33 L 448.571 242.78 C 448.571 242.313 448.947 241.937 449.413 241.937 Z" style="fill: rgb(30, 30, 30);" transform="matrix(0.965926, -0.258819, 0.258819, 0.965926, -48.483514, 125.84117)"/>
  <path id="path89" d="M 461.734 237.72 C 460.775 237.72 459.994 238.516 459.994 239.476 L 459.994 248.027 C 459.994 248.986 460.774 249.782 461.734 249.782 L 470.284 249.782 C 471.245 249.782 472.04 248.987 472.04 248.027 L 472.04 239.476 C 472.04 238.517 471.244 237.72 470.284 237.72 L 461.734 237.72 Z M 461.734 238.633 L 470.284 238.633 C 470.752 238.633 471.126 239.01 471.126 239.476 L 471.126 248.027 C 471.126 248.492 470.75 248.868 470.284 248.868 L 461.734 248.868 C 461.268 248.868 460.908 248.491 460.908 248.027 L 460.908 239.476 C 460.906 239.009 461.268 238.633 461.734 238.633 Z" style="fill: rgb(30, 30, 30);" transform="matrix(0.965926, -0.258819, 0.258819, 0.965926, -47.20826, 128.919712)"/>
  <path id="path91" d="M 474.06 234.418 C 473.102 234.418 472.32 235.213 472.32 236.173 L 472.32 244.724 C 472.32 245.683 473.1 246.48 474.06 246.48 L 482.611 246.48 C 483.571 246.48 484.366 245.684 484.366 244.724 L 484.366 236.173 C 484.366 235.214 483.571 234.418 482.611 234.418 L 474.06 234.418 Z M 474.06 235.331 L 482.611 235.331 C 483.076 235.331 483.452 235.707 483.452 236.173 L 483.452 244.724 C 483.452 245.189 483.076 245.566 482.611 245.566 L 474.06 245.566 C 473.594 245.566 473.233 245.189 473.233 244.724 L 473.233 236.173 C 473.233 235.707 473.594 235.331 474.06 235.331 Z" style="fill: rgb(30, 30, 30);" transform="matrix(0.965926, -0.258819, 0.258819, 0.965926, -45.933638, 131.997407)"/>
  <path id="path93" d="M 554.279 193.922 C 553.319 193.922 552.524 194.703 552.524 195.662 L 552.524 204.227 C 552.524 205.186 553.319 205.967 554.279 205.967 L 562.828 205.967 C 563.787 205.967 564.584 205.186 564.584 204.227 L 564.584 195.662 C 564.584 194.703 563.789 193.922 562.828 193.922 L 554.279 193.922 Z M 554.279 194.835 L 562.828 194.835 C 563.294 194.835 563.671 195.197 563.671 195.662 L 563.671 204.227 C 563.671 204.693 563.294 205.054 562.828 205.054 L 554.279 205.054 C 553.811 205.054 553.437 204.693 553.437 204.227 L 553.437 195.662 C 553.437 195.196 553.813 194.835 554.279 194.835 Z" style="fill: rgb(30, 30, 30);" transform="matrix(0.965926, -0.258819, 0.258819, 0.965926, -32.717175, 151.377264)"/>
  <path id="path95" d="M 566.6 190.619 C 565.64 190.619 564.858 191.4 564.858 192.359 L 564.858 200.923 C 564.858 201.883 565.64 202.663 566.6 202.663 L 575.15 202.663 C 576.11 202.663 576.905 201.883 576.905 200.923 L 576.905 192.359 C 576.905 191.4 576.112 190.619 575.15 190.619 L 566.6 190.619 Z M 566.6 191.532 L 575.15 191.532 C 575.618 191.532 575.992 191.892 575.992 192.359 L 575.992 200.923 C 575.992 201.39 575.618 201.751 575.15 201.751 L 566.6 201.751 C 566.134 201.751 565.772 201.39 565.772 200.923 L 565.772 192.359 C 565.772 191.892 566.136 191.532 566.6 191.532 Z" style="fill: rgb(30, 30, 30);" transform="matrix(0.965926, -0.258819, 0.258819, 0.965926, -31.442115, 154.455294)"/>
  <path id="path97" d="M 578.927 187.316 C 577.968 187.316 577.186 188.096 577.186 189.056 L 577.186 197.62 C 577.186 198.579 577.968 199.36 578.927 199.36 L 587.49 199.36 C 588.449 199.36 589.234 198.58 589.234 197.62 L 589.234 189.056 C 589.234 188.096 588.45 187.316 587.49 187.316 L 578.927 187.316 Z M 578.927 188.228 L 587.49 188.228 C 587.956 188.228 588.318 188.59 588.318 189.056 L 588.318 197.62 C 588.318 198.087 587.956 198.447 587.49 198.447 L 578.927 198.447 C 578.461 198.447 578.099 198.087 578.099 197.62 L 578.099 189.056 C 578.099 188.589 578.461 188.228 578.927 188.228 Z" style="fill: rgb(30, 30, 30);" transform="matrix(0.965926, -0.258819, 0.258819, 0.965926, -30.167153, 157.533605)"/>
  <path id="path99" d="M 486.387 231.115 C 485.427 231.115 484.646 231.91 484.646 232.87 L 484.646 241.421 C 484.646 242.38 485.426 243.177 486.387 243.177 L 494.951 243.177 C 495.91 243.177 496.692 242.381 496.692 241.421 L 496.692 232.87 C 496.692 231.911 495.91 231.115 494.951 231.115 L 486.387 231.115 Z M 486.387 232.028 L 494.951 232.028 C 495.418 232.028 495.779 232.404 495.779 232.87 L 495.779 241.421 C 495.779 241.886 495.416 242.263 494.951 242.263 L 486.387 242.263 C 485.921 242.263 485.559 241.886 485.559 241.421 L 485.559 232.87 C 485.559 232.404 485.921 232.028 486.387 232.028 Z" style="fill: rgb(30, 30, 30);" transform="matrix(0.965926, -0.258819, 0.258819, 0.965926, -44.658746, 135.074967)"/>
  <path id="path101" d="M 498.714 227.812 C 497.754 227.812 496.972 228.607 496.972 229.567 L 496.972 238.118 C 496.972 239.078 497.753 239.874 498.714 239.874 L 507.277 239.874 C 508.238 239.874 509.019 239.078 509.019 238.118 L 509.019 229.567 C 509.019 228.608 508.238 227.812 507.277 227.812 L 498.714 227.812 Z M 498.714 228.725 L 507.277 228.725 C 507.744 228.725 508.106 229.101 508.106 229.567 L 508.106 238.118 C 508.106 238.583 507.744 238.96 507.277 238.96 L 498.714 238.96 C 498.247 238.96 497.886 238.583 497.886 238.118 L 497.886 229.567 C 497.886 229.101 498.247 228.725 498.714 228.725 Z" style="fill: rgb(30, 30, 30);" transform="matrix(0.965926, -0.258819, 0.258819, 0.965926, -43.383852, 138.15275)"/>
  <path id="path103" d="M 511.054 224.509 C 510.095 224.509 509.298 225.304 509.298 226.264 L 509.298 234.815 C 509.298 235.775 510.093 236.571 511.054 236.571 L 519.603 236.571 C 520.564 236.571 521.345 235.775 521.345 234.815 L 521.345 226.264 C 521.345 225.305 520.562 224.509 519.603 224.509 L 511.054 224.509 Z M 511.054 225.422 L 519.603 225.422 C 520.071 225.422 520.431 225.798 520.431 226.264 L 520.431 234.815 C 520.431 235.28 520.07 235.657 519.603 235.657 L 511.054 235.657 C 510.588 235.657 510.211 235.28 510.211 234.815 L 510.211 226.264 C 510.211 225.798 510.586 225.422 511.054 225.422 Z" style="fill: rgb(30, 30, 30);" transform="matrix(0.965926, -0.258819, 0.258819, 0.965926, -42.108978, 141.230394)"/>
  <path id="path105" d="M 523.375 221.206 C 522.416 221.206 521.62 222.001 521.62 222.961 L 521.62 231.512 C 521.62 232.471 522.416 233.267 523.375 233.267 L 531.924 233.267 C 532.885 233.267 533.681 232.472 533.681 231.512 L 533.681 222.961 C 533.681 222.002 532.885 221.206 531.924 221.206 L 523.375 221.206 Z M 523.375 222.119 L 531.924 222.119 C 532.391 222.119 532.767 222.495 532.767 222.961 L 532.767 231.512 C 532.767 231.977 532.39 232.354 531.924 232.354 L 523.375 232.354 C 522.909 232.354 522.533 231.977 522.533 231.512 L 522.533 222.961 C 522.533 222.494 522.908 222.119 523.375 222.119 Z" style="fill: rgb(30, 30, 30);" transform="matrix(0.965926, -0.258819, 0.258819, 0.965926, -40.833865, 144.308827)"/>
  <path id="path107" d="M 535.702 217.901 C 534.741 217.901 533.96 218.696 533.96 219.657 L 533.96 228.207 C 533.96 229.167 534.741 229.963 535.702 229.963 L 544.252 229.963 C 545.211 229.963 546.006 229.168 546.006 228.207 L 546.006 219.657 C 546.006 218.697 545.211 217.901 544.252 217.901 L 535.702 217.901 Z M 535.702 218.814 L 544.252 218.814 C 544.717 218.814 545.093 219.191 545.093 219.657 L 545.093 228.207 C 545.093 228.672 544.716 229.049 544.252 229.049 L 535.702 229.049 C 535.235 229.049 534.874 228.672 534.874 228.207 L 534.874 219.657 C 534.874 219.191 535.235 218.814 535.702 218.814 Z" style="fill: rgb(30, 30, 30);" transform="matrix(0.965926, -0.258819, 0.258819, 0.965926, -39.55838, 147.38811)"/>
  <path id="path109" d="M 375.984 286.776 C 375.024 286.776 374.228 287.558 374.228 288.517 L 374.228 297.066 C 374.228 298.027 375.024 298.822 375.984 298.822 L 387.332 298.822 C 388.291 298.822 389.087 298.027 389.087 297.066 L 389.087 296.61 L 389.087 288.517 C 389.087 287.558 388.292 286.776 387.332 286.776 L 375.984 286.776 Z M 375.984 287.69 L 387.332 287.69 C 387.799 287.69 388.174 288.052 388.174 288.517 L 388.174 297.066 C 388.174 297.534 387.799 297.909 387.332 297.909 L 375.984 297.909 C 375.517 297.909 375.142 297.534 375.142 297.066 L 375.142 288.517 C 375.142 288.051 375.519 287.69 375.984 287.69 Z" style="fill: rgb(30, 30, 30);" transform="matrix(0.965926, -0.258819, 0.258819, 0.965926, -62.777271, 108.757059)"/>
  <path id="path111" d="M 391.059 283.109 C 390.1 283.109 389.319 283.89 389.319 284.851 L 389.319 293.399 C 389.319 294.36 390.099 295.155 391.059 295.155 L 399.608 295.155 C 400.569 295.155 401.365 294.36 401.365 293.399 L 401.365 284.851 C 401.365 283.89 400.57 283.109 399.608 283.109 L 391.059 283.109 Z M 391.059 284.023 L 399.608 284.023 C 400.077 284.023 400.452 284.384 400.452 284.851 L 400.452 293.399 C 400.452 293.867 400.077 294.242 399.608 294.242 L 391.059 294.242 C 390.593 294.242 390.232 293.866 390.232 293.399 L 390.232 284.851 C 390.232 284.382 390.593 284.023 391.059 284.023 Z" style="fill: rgb(30, 30, 30);" transform="matrix(0.965926, -0.258819, 0.258819, 0.965926, -61.361926, 112.173979)"/>
  <path id="path113" d="M 403.387 279.806 C 402.427 279.806 401.645 280.587 401.645 281.548 L 401.645 290.096 C 401.645 291.057 402.426 291.852 403.387 291.852 L 411.951 291.852 C 412.911 291.852 413.692 291.057 413.692 290.096 L 413.692 281.548 C 413.692 280.588 412.911 279.806 411.951 279.806 L 403.387 279.806 Z M 403.387 280.72 L 411.951 280.72 C 412.417 280.72 412.778 281.081 412.778 281.548 L 412.778 290.096 C 412.778 290.564 412.417 290.939 411.951 290.939 L 403.387 290.939 C 402.92 290.939 402.559 290.563 402.559 290.096 L 402.559 281.548 C 402.559 281.08 402.92 280.72 403.387 280.72 Z" style="fill: rgb(30, 30, 30);" transform="matrix(0.965926, -0.258818, 0.258818, 0.965926, -60.086921, 115.25149)"/>
  <path id="path115" d="M 415.709 276.504 C 414.749 276.504 413.968 277.285 413.968 278.246 L 413.968 286.795 C 413.968 287.755 414.749 288.551 415.709 288.551 L 424.272 288.551 C 425.233 288.551 426.015 287.755 426.015 286.795 L 426.015 278.246 C 426.015 277.285 425.233 276.504 424.272 276.504 L 415.709 276.504 Z M 415.709 277.418 L 424.272 277.418 C 424.74 277.418 425.1 277.779 425.1 278.246 L 425.1 286.795 C 425.1 287.262 424.74 287.637 424.272 287.637 L 415.709 287.637 C 415.242 287.637 414.881 287.261 414.881 286.795 L 414.881 278.246 C 414.881 277.778 415.242 277.418 415.709 277.418 Z" style="fill: rgb(30, 30, 30);" transform="matrix(0.965926, -0.258819, 0.258819, 0.965926, -58.812635, 118.328709)"/>
  <path id="path117" d="M 428.048 273.202 C 427.09 273.202 426.294 273.983 426.294 274.943 L 426.294 283.492 C 426.294 284.452 427.09 285.248 428.048 285.248 L 436.599 285.248 C 437.559 285.248 438.34 284.453 438.34 283.492 L 438.34 274.943 C 438.34 273.984 437.559 273.202 436.599 273.202 L 428.048 273.202 Z M 428.048 274.116 L 436.599 274.116 C 437.066 274.116 437.427 274.477 437.427 274.943 L 437.427 283.492 C 437.427 283.96 437.064 284.335 436.599 284.335 L 428.048 284.335 C 427.582 284.335 427.207 283.959 427.207 283.492 L 427.207 274.943 C 427.207 274.475 427.582 274.116 428.048 274.116 Z" style="fill: rgb(30, 30, 30);" transform="matrix(0.965926, -0.258819, 0.258819, 0.965926, -57.537873, 121.406175)"/>
  <path id="path119" d="M 440.375 269.897 C 439.415 269.897 438.619 270.678 438.619 271.639 L 438.619 280.188 C 438.619 281.148 439.415 281.943 440.375 281.943 L 448.925 281.943 C 449.885 281.943 450.68 281.148 450.68 280.188 L 450.68 271.639 C 450.68 270.678 449.886 269.897 448.925 269.897 L 440.375 269.897 Z M 440.375 270.811 L 448.925 270.811 C 449.391 270.811 449.767 271.172 449.767 271.639 L 449.767 280.188 C 449.767 280.655 449.391 281.03 448.925 281.03 L 440.375 281.03 C 439.908 281.03 439.533 280.654 439.533 280.188 L 439.533 271.639 C 439.533 271.171 439.908 270.811 440.375 270.811 Z" style="fill: rgb(30, 30, 30);" transform="matrix(0.965926, -0.258819, 0.258819, 0.965926, -56.262265, 124.485434)"/>
  <path id="path121" d="M 452.702 266.594 C 451.742 266.594 450.946 267.375 450.946 268.336 L 450.946 276.885 C 450.946 277.845 451.742 278.641 452.702 278.641 L 461.251 278.641 C 462.211 278.641 463.006 277.845 463.006 276.885 L 463.006 268.336 C 463.006 267.375 462.211 266.594 461.251 266.594 L 452.702 266.594 Z M 452.702 267.508 L 461.251 267.508 C 461.718 267.508 462.092 267.869 462.092 268.336 L 462.092 276.885 C 462.092 277.352 461.718 277.727 461.251 277.727 L 452.702 277.727 C 452.236 277.727 451.859 277.351 451.859 276.885 L 451.859 268.336 C 451.859 267.868 452.236 267.508 452.702 267.508 Z" style="fill: rgb(30, 30, 30);" transform="matrix(0.965926, -0.258819, 0.258819, 0.965926, -54.987502, 127.563251)"/>
  <path id="path123" d="M 465.024 263.29 C 464.064 263.29 463.283 264.071 463.283 265.032 L 463.283 273.581 C 463.283 274.541 464.064 275.337 465.024 275.337 L 473.573 275.337 C 474.532 275.337 475.329 274.541 475.329 273.581 L 475.329 265.032 C 475.329 264.071 474.532 263.29 473.573 263.29 L 465.024 263.29 Z M 465.024 264.204 L 473.573 264.204 C 474.039 264.204 474.416 264.565 474.416 265.032 L 474.416 273.581 C 474.416 274.048 474.039 274.424 473.573 274.424 L 465.024 274.424 C 464.558 274.424 464.195 274.047 464.195 273.581 L 464.195 265.032 C 464.195 264.564 464.557 264.204 465.024 264.204 Z" style="fill: rgb(30, 30, 30);" transform="matrix(0.965926, -0.258819, 0.258819, 0.965926, -53.712257, 130.641984)"/>
  <path id="path125" d="M 477.349 259.988 C 476.391 259.988 475.608 260.769 475.608 261.729 L 475.608 270.278 C 475.608 271.238 476.389 272.034 477.349 272.034 L 485.914 272.034 C 486.874 272.034 487.655 271.239 487.655 270.278 L 487.655 261.729 C 487.655 260.77 486.874 259.988 485.914 259.988 L 477.349 259.988 Z M 477.349 260.902 L 485.914 260.902 C 486.382 260.902 486.741 261.263 486.741 261.729 L 486.741 270.278 C 486.741 270.746 486.381 271.121 485.914 271.121 L 477.349 271.121 C 476.884 271.121 476.522 270.745 476.522 270.278 L 476.522 261.729 C 476.522 261.261 476.884 260.902 477.349 260.902 Z" style="fill: rgb(30, 30, 30);" transform="matrix(0.965926, -0.258819, 0.258819, 0.965926, -52.437521, 133.719523)"/>
  <path id="path127" d="M 489.676 256.685 C 488.716 256.685 487.935 257.466 487.935 258.426 L 487.935 266.975 C 487.935 267.936 488.716 268.731 489.676 268.731 L 498.24 268.731 C 499.2 268.731 499.98 267.936 499.98 266.975 L 499.98 258.426 C 499.98 257.467 499.2 256.685 498.24 256.685 L 489.676 256.685 Z M 489.676 257.599 L 498.24 257.599 C 498.708 257.599 499.068 257.96 499.068 258.426 L 499.068 266.975 C 499.068 267.443 498.706 267.818 498.24 267.818 L 489.676 267.818 C 489.21 267.818 488.848 267.442 488.848 266.975 L 488.848 258.426 C 488.848 257.958 489.21 257.599 489.676 257.599 Z" style="fill: rgb(30, 30, 30);" transform="matrix(0.965926, -0.258819, 0.258819, 0.965926, -51.162623, 136.797096)"/>
  <path id="path129" d="M 502.016 253.382 C 501.056 253.382 500.261 254.163 500.261 255.124 L 500.261 263.672 C 500.261 264.633 501.056 265.429 502.016 265.429 L 510.566 265.429 C 511.526 265.428 512.307 264.633 512.307 263.672 L 512.307 255.124 C 512.307 254.163 511.526 253.382 510.566 253.382 L 502.016 253.382 Z M 502.016 254.296 L 510.566 254.296 C 511.033 254.296 511.394 254.657 511.394 255.124 L 511.394 263.672 C 511.394 264.139 511.031 264.515 510.566 264.515 L 502.016 264.515 C 501.55 264.515 501.174 264.139 501.174 263.672 L 501.174 255.124 C 501.174 254.656 501.55 254.296 502.016 254.296 Z" style="fill: rgb(30, 30, 30);" transform="matrix(0.965926, -0.258819, 0.258819, 0.965926, -49.887854, 139.874896)"/>
  <path id="path131" d="M 514.342 250.078 C 513.383 250.078 512.586 250.859 512.586 251.819 L 512.586 260.368 C 512.586 261.328 513.383 262.124 514.342 262.124 L 522.891 262.124 C 523.851 262.124 524.648 261.329 524.648 260.368 L 524.648 251.819 C 524.648 250.86 523.851 250.078 522.891 250.078 L 514.342 250.078 Z M 514.342 250.992 L 522.891 250.992 C 523.359 250.992 523.734 251.353 523.734 251.819 L 523.734 260.368 C 523.734 260.836 523.359 261.211 522.891 261.211 L 514.342 261.211 C 513.875 261.211 513.501 260.835 513.501 260.368 L 513.501 251.819 C 513.501 251.351 513.875 250.992 514.342 250.992 Z" style="fill: rgb(30, 30, 30);" transform="matrix(0.965926, -0.258819, 0.258819, 0.965926, -48.612358, 142.95432)"/>
  <path id="path133" d="M 526.665 246.774 C 525.705 246.774 524.923 247.555 524.923 248.515 L 524.923 257.064 C 524.923 258.025 525.705 258.82 526.665 258.82 L 535.213 258.82 C 536.174 258.82 536.97 258.025 536.97 257.064 L 536.97 248.515 C 536.97 247.556 536.174 246.774 535.213 246.774 L 526.665 246.774 Z M 526.665 247.688 L 535.213 247.688 C 535.681 247.688 536.057 248.049 536.057 248.515 L 536.057 257.064 C 536.057 257.532 535.681 257.907 535.213 257.907 L 526.665 257.907 C 526.198 257.907 525.836 257.531 525.836 257.064 L 525.836 248.515 C 525.836 248.047 526.197 247.688 526.665 247.688 Z" style="fill: rgb(30, 30, 30);" transform="matrix(0.965926, -0.258819, 0.258819, 0.965926, -47.337101, 146.032828)"/>
  <path id="path135" d="M 538.99 243.471 C 538.032 243.471 537.249 244.252 537.249 245.213 L 537.249 253.762 C 537.249 254.722 538.031 255.518 538.99 255.518 L 547.554 255.518 C 548.515 255.518 549.296 254.722 549.296 253.762 L 549.296 245.213 C 549.296 244.254 548.515 243.471 547.554 243.471 L 538.99 243.471 Z M 538.99 244.385 L 547.554 244.385 C 548.021 244.385 548.382 244.746 548.382 245.213 L 548.382 253.762 C 548.382 254.229 548.021 254.605 547.554 254.605 L 538.99 254.605 C 538.523 254.605 538.162 254.228 538.162 253.762 L 538.162 245.213 C 538.162 244.745 538.523 244.385 538.99 244.385 Z" style="fill: rgb(30, 30, 30);" transform="matrix(0.965926, -0.258819, 0.258819, 0.965926, -46.062354, 149.110521)"/>
  <path id="path137" d="M 381.937 297.96 C 380.976 297.96 380.181 298.756 380.181 299.716 L 380.181 308.265 C 380.181 309.225 380.976 310.021 381.937 310.021 L 396.509 310.021 C 397.468 310.021 398.264 309.226 398.264 308.265 L 398.264 299.716 C 398.264 298.756 397.469 297.96 396.509 297.96 L 381.937 297.96 Z M 381.937 298.873 L 396.509 298.873 C 396.976 298.873 397.352 299.25 397.352 299.716 L 397.352 308.265 C 397.352 308.732 396.976 309.108 396.509 309.108 L 381.937 309.108 C 381.469 309.108 381.093 308.732 381.093 308.265 L 381.093 299.716 C 381.093 299.25 381.47 298.873 381.937 298.873 Z" style="fill: rgb(30, 30, 30);" transform="matrix(0.965926, -0.258819, 0.258819, 0.965926, -65.416063, 111.096365)"/>
  <path id="path139" d="M 400.182 293.877 C 399.222 293.877 398.44 294.672 398.44 295.632 L 398.44 304.181 C 398.44 305.141 399.222 305.937 400.182 305.937 L 408.746 305.937 C 409.706 305.937 410.487 305.142 410.487 304.181 L 410.487 295.632 C 410.487 294.672 409.706 293.877 408.746 293.877 L 400.182 293.877 Z M 400.182 294.789 L 408.746 294.789 C 409.212 294.789 409.573 295.166 409.573 295.632 L 409.573 304.181 C 409.573 304.648 409.212 305.024 408.746 305.024 L 400.182 305.024 C 399.716 305.024 399.354 304.648 399.354 304.181 L 399.354 295.632 C 399.354 295.166 399.716 294.789 400.182 294.789 Z" style="fill: rgb(30, 30, 30);" transform="matrix(0.965926, -0.258819, 0.258819, 0.965926, -63.83986, 114.901882)"/>
  <path id="path141" d="M 412.506 290.574 C 411.546 290.574 410.765 291.369 410.765 292.33 L 410.765 300.879 C 410.765 301.839 411.546 302.634 412.506 302.634 L 421.069 302.634 C 422.03 302.634 422.812 301.84 422.812 300.879 L 422.812 292.33 C 422.812 291.369 422.03 290.574 421.069 290.574 L 412.506 290.574 Z M 412.506 291.487 L 421.069 291.487 C 421.537 291.487 421.897 291.864 421.897 292.33 L 421.897 300.879 C 421.897 301.346 421.537 301.722 421.069 301.722 L 412.506 301.722 C 412.039 301.722 411.678 301.346 411.678 300.879 L 411.678 292.33 C 411.678 291.864 412.04 291.487 412.506 291.487 Z" style="fill: rgb(30, 30, 30);" transform="matrix(0.965926, -0.258819, 0.258819, 0.965926, -62.565018, 117.979278)"/>
  <path id="path143" d="M 424.847 287.271 C 423.885 287.271 423.091 288.067 423.091 289.027 L 423.091 297.576 C 423.091 298.536 423.885 299.331 424.847 299.331 L 433.396 299.331 C 434.356 299.331 435.137 298.537 435.137 297.576 L 435.137 289.027 C 435.137 288.066 434.356 287.271 433.396 287.271 L 424.847 287.271 Z M 424.847 288.184 L 433.396 288.184 C 433.862 288.184 434.224 288.56 434.224 289.027 L 434.224 297.576 C 434.224 298.043 433.863 298.419 433.396 298.419 L 424.847 298.419 C 424.379 298.419 424.004 298.043 424.004 297.576 L 424.004 289.027 C 424.004 288.56 424.379 288.184 424.847 288.184 Z" style="fill: rgb(30, 30, 30);" transform="matrix(0.965926, -0.258819, 0.258819, 0.965926, -61.290186, 121.056885)"/>
  <path id="path145" d="M 437.172 283.967 C 436.212 283.967 435.417 284.763 435.417 285.723 L 435.417 294.272 C 435.417 295.231 436.212 296.027 437.172 296.027 L 445.722 296.027 C 446.683 296.027 447.478 295.232 447.478 294.272 L 447.478 285.723 C 447.478 284.762 446.684 283.967 445.722 283.967 L 437.172 283.967 Z M 437.172 284.88 L 445.722 284.88 C 446.189 284.88 446.564 285.256 446.564 285.723 L 446.564 294.272 C 446.564 294.738 446.189 295.115 445.722 295.115 L 437.172 295.115 C 436.707 295.115 436.331 294.738 436.331 294.272 L 436.331 285.723 C 436.33 285.256 436.706 284.88 437.172 284.88 Z" style="fill: rgb(30, 30, 30);" transform="matrix(0.965926, -0.258819, 0.258819, 0.965926, -60.014771, 124.13637)"/>
  <path id="path147" d="M 449.499 280.664 C 448.538 280.664 447.744 281.46 447.744 282.42 L 447.744 290.969 C 447.744 291.928 448.538 292.724 449.499 292.724 L 458.049 292.724 C 459.008 292.724 459.804 291.929 459.804 290.969 L 459.804 282.42 C 459.804 281.459 459.008 280.664 458.049 280.664 L 449.499 280.664 Z M 449.499 281.576 L 458.049 281.576 C 458.516 281.576 458.891 281.953 458.891 282.42 L 458.891 290.969 C 458.891 291.435 458.516 291.811 458.049 291.811 L 449.499 291.811 C 449.032 291.811 448.657 291.435 448.657 290.969 L 448.657 282.42 C 448.657 281.953 449.032 281.576 449.499 281.576 Z" style="fill: rgb(30, 30, 30);" transform="matrix(0.965926, -0.258819, 0.258819, 0.965926, -58.739896, 127.214228)"/>
  <path id="path149" d="M 461.821 277.361 C 460.861 277.361 460.079 278.156 460.079 279.116 L 460.079 287.665 C 460.079 288.625 460.86 289.421 461.821 289.421 L 470.371 289.421 C 471.33 289.421 472.126 288.626 472.126 287.665 L 472.126 279.116 C 472.126 278.157 471.331 277.361 470.371 277.361 L 461.821 277.361 Z M 461.821 278.273 L 470.371 278.273 C 470.836 278.273 471.214 278.65 471.214 279.116 L 471.214 287.665 C 471.214 288.132 470.836 288.508 470.371 288.508 L 461.821 288.508 C 461.353 288.508 460.993 288.132 460.993 287.665 L 460.993 279.116 C 460.993 278.65 461.354 278.273 461.821 278.273 Z" style="fill: rgb(30, 30, 30);" transform="matrix(0.965926, -0.258819, 0.258819, 0.965926, -57.464908, 130.292456)"/>
  <path id="path151" d="M 474.146 274.058 C 473.188 274.058 472.406 274.853 472.406 275.814 L 472.406 284.362 C 472.406 285.323 473.187 286.118 474.146 286.118 L 482.711 286.118 C 483.671 286.118 484.451 285.323 484.451 284.362 L 484.451 275.814 C 484.451 274.854 483.671 274.058 482.711 274.058 L 474.146 274.058 Z M 474.146 274.97 L 482.711 274.97 C 483.178 274.97 483.538 275.347 483.538 275.814 L 483.538 284.362 C 483.538 284.829 483.178 285.205 482.711 285.205 L 474.146 285.205 C 473.681 285.205 473.319 284.829 473.319 284.362 L 473.319 275.814 C 473.319 275.347 473.681 274.97 474.146 274.97 Z" style="fill: rgb(30, 30, 30);" transform="matrix(0.965926, -0.258819, 0.258819, 0.965926, -56.190017, 133.370015)"/>
  <path id="path153" d="M 486.487 270.755 C 485.528 270.755 484.731 271.55 484.731 272.511 L 484.731 281.06 C 484.731 282.02 485.526 282.815 486.487 282.815 L 495.036 282.815 C 495.997 282.815 496.778 282.02 496.778 281.06 L 496.778 272.511 C 496.778 271.551 495.997 270.755 495.036 270.755 L 486.487 270.755 Z M 486.487 271.668 L 495.036 271.668 C 495.503 271.668 495.864 272.044 495.864 272.511 L 495.864 281.06 C 495.864 281.526 495.503 281.903 495.036 281.903 L 486.487 281.903 C 486.021 281.903 485.646 281.526 485.646 281.06 L 485.646 272.511 C 485.646 272.044 486.021 271.668 486.487 271.668 Z" style="fill: rgb(30, 30, 30);" transform="matrix(0.965926, -0.258819, 0.258819, 0.965926, -54.915179, 136.447847)"/>
  <path id="path155" d="M 498.813 267.452 C 497.853 267.452 497.059 268.247 497.059 269.207 L 497.059 277.756 C 497.059 278.717 497.853 279.512 498.813 279.512 L 507.364 279.512 C 508.323 279.512 509.105 278.717 509.105 277.756 L 509.105 269.207 C 509.105 268.248 508.324 267.452 507.364 267.452 L 498.813 267.452 Z M 498.813 268.364 L 507.364 268.364 C 507.829 268.364 508.191 268.741 508.191 269.207 L 508.191 277.756 C 508.191 278.223 507.829 278.599 507.364 278.599 L 498.813 278.599 C 498.347 278.599 497.971 278.223 497.971 277.756 L 497.971 269.207 C 497.971 268.741 498.347 268.364 498.813 268.364 Z" style="fill: rgb(30, 30, 30);" transform="matrix(0.965926, -0.258819, 0.258819, 0.965926, -53.640272, 139.525986)"/>
  <path id="path157" d="M 511.136 264.149 C 510.177 264.149 509.379 264.944 509.379 265.905 L 509.379 274.454 C 509.379 275.413 510.177 276.209 511.136 276.209 L 519.685 276.209 C 520.645 276.209 521.441 275.414 521.441 274.454 L 521.441 273.998 L 521.441 265.904 C 521.441 264.944 520.645 264.148 519.685 264.148 L 511.136 264.148 Z M 511.136 265.061 L 519.685 265.061 C 520.151 265.061 520.527 265.438 520.527 265.905 L 520.527 274.454 C 520.527 274.92 520.151 275.296 519.685 275.296 L 511.136 275.296 C 510.669 275.296 510.293 274.92 510.293 274.454 L 510.293 265.905 C 510.293 265.438 510.67 265.061 511.136 265.061 Z" style="fill: rgb(30, 30, 30);" transform="matrix(0.965926, -0.258819, 0.258819, 0.965926, -52.36516, 142.603961)"/>
  <path id="path159" d="M 523.462 260.844 C 522.502 260.844 521.72 261.639 521.72 262.6 L 521.72 271.149 C 521.72 272.109 522.502 272.904 523.462 272.904 L 532.012 272.904 C 532.97 272.904 533.767 272.109 533.767 271.149 L 533.767 262.6 C 533.767 261.64 532.972 260.844 532.012 260.844 L 523.462 260.844 Z M 523.462 261.757 L 532.012 261.757 C 532.478 261.757 532.854 262.133 532.854 262.6 L 532.854 271.149 C 532.854 271.615 532.478 271.992 532.012 271.992 L 523.462 271.992 C 522.994 271.992 522.633 271.615 522.633 271.149 L 522.633 262.6 C 522.633 262.133 522.996 261.757 523.462 261.757 Z" style="fill: rgb(30, 30, 30);" transform="matrix(0.965926, -0.258819, 0.258819, 0.965926, -51.089633, 145.683507)"/>
  <path id="path161" d="M 535.671 256.649 C 534.711 256.649 533.93 257.444 533.93 258.405 L 533.93 266.954 C 533.93 267.914 534.711 268.709 535.671 268.709 L 551.115 268.709 C 552.074 268.709 552.869 267.915 552.869 266.954 L 552.869 258.405 C 552.869 257.445 552.076 256.649 551.115 256.649 L 535.671 256.649 Z M 535.671 257.562 L 551.115 257.562 C 551.58 257.562 551.956 257.938 551.956 258.405 L 551.956 266.954 C 551.956 267.421 551.58 267.797 551.115 267.797 L 535.671 267.797 C 535.204 267.797 534.842 267.421 534.842 266.954 L 534.842 258.405 C 534.842 257.938 535.205 257.562 535.671 257.562 Z" style="fill: rgb(30, 30, 30);" transform="matrix(0.965926, -0.258819, 0.258819, 0.965926, -49.470467, 149.592836)"/>
  <path id="path163" d="M 403.501 306.215 C 402.54 306.215 401.745 306.996 401.745 307.956 L 401.745 316.519 C 401.745 317.48 402.54 318.262 403.501 318.262 L 412.05 318.262 C 413.01 318.262 413.806 317.48 413.806 316.519 L 413.806 316.063 L 413.806 307.956 C 413.806 306.997 413.01 306.215 412.05 306.215 L 403.501 306.215 Z M 403.501 307.128 L 412.05 307.128 C 412.516 307.128 412.892 307.49 412.892 307.956 L 412.892 316.519 C 412.892 316.987 412.516 317.348 412.05 317.348 L 403.501 317.348 C 403.034 317.348 402.659 316.986 402.659 316.519 L 402.659 307.956 C 402.659 307.49 403.034 307.128 403.501 307.128 Z" style="fill: rgb(30, 30, 30);" transform="matrix(0.965926, -0.258819, 0.258819, 0.965926, -66.918631, 116.17928)"/>
  <path id="path165" d="M 415.824 302.912 C 414.865 302.912 414.068 303.693 414.068 304.654 L 414.068 313.217 C 414.068 314.178 414.865 314.96 415.824 314.96 L 424.374 314.96 C 425.334 314.96 426.13 314.178 426.13 313.217 L 426.13 304.654 C 426.13 303.693 425.334 302.912 424.374 302.912 L 415.824 302.912 Z M 415.824 303.826 L 424.374 303.826 C 424.841 303.826 425.215 304.188 425.215 304.654 L 425.215 313.217 C 425.215 313.685 424.84 314.046 424.374 314.046 L 415.824 314.046 C 415.358 314.046 414.982 313.684 414.982 313.217 L 414.982 304.654 C 414.982 304.188 415.358 303.826 415.824 303.826 Z" style="fill: rgb(30, 30, 30);" transform="matrix(0.965926, -0.258819, 0.258819, 0.965926, -65.643965, 119.256297)"/>
  <path id="path167" d="M 426.6 287.827 C 425.639 287.827 424.858 288.608 424.858 289.569 L 424.858 298.132 C 424.858 299.093 425.639 299.874 426.6 299.874 L 526.182 299.874 C 527.142 299.874 527.938 299.093 527.938 298.132 L 527.938 289.569 C 527.938 288.609 527.143 287.827 526.182 287.827 L 426.6 287.827 Z M 426.6 288.741 L 526.182 288.741 C 526.648 288.741 527.024 289.103 527.024 289.569 L 527.024 298.132 C 527.024 298.6 526.648 298.96 526.182 298.96 L 426.6 298.96 C 426.134 298.96 425.772 298.599 425.772 298.132 L 425.772 289.569 C 425.772 289.103 426.134 288.741 426.6 288.741 Z" style="fill: rgb(30, 30, 30);" transform="matrix(0.965926, -0.258819, 0.258819, 0.965926, -59.821213, 133.31352)"/>
  <path id="path169" d="M 369.073 275.344 C 368.113 275.344 367.317 276.125 367.317 277.086 L 367.317 285.65 C 367.317 286.61 368.113 287.391 369.073 287.391 L 380.847 287.391 C 381.645 287.391 382.295 286.84 382.503 286.107 L 382.603 286.107 L 382.603 285.651 L 382.603 277.087 C 382.603 276.126 381.808 275.345 380.847 275.345 L 369.073 275.345 L 369.073 275.344 Z M 369.073 276.258 L 380.847 276.258 C 381.315 276.258 381.69 276.62 381.69 277.086 L 381.69 285.193 L 381.69 285.65 C 381.69 286.116 381.315 286.477 380.847 286.477 L 369.073 286.477 C 368.607 286.477 368.231 286.115 368.231 285.65 L 368.231 277.085 C 368.231 276.619 368.607 276.258 369.073 276.258 Z" style="fill: rgb(30, 30, 30);" transform="matrix(0.965926, -0.258819, 0.258819, 0.965926, -60.046821, 106.634168)"/>
  <path id="path171" d="M 384.569 271.624 C 383.608 271.624 382.814 272.405 382.814 273.366 L 382.814 281.93 C 382.814 282.89 383.608 283.671 384.569 283.671 L 393.119 283.671 C 394.078 283.671 394.874 282.89 394.874 281.93 L 394.874 273.366 C 394.874 272.406 394.08 271.624 393.119 271.624 L 384.569 271.624 Z M 384.569 272.537 L 393.119 272.537 C 393.585 272.537 393.961 272.9 393.961 273.366 L 393.961 281.93 C 393.961 282.396 393.585 282.758 393.119 282.758 L 384.569 282.758 C 384.101 282.758 383.727 282.396 383.727 281.93 L 383.727 273.366 C 383.727 272.899 384.102 272.537 384.569 272.537 Z" style="fill: rgb(30, 30, 30);" transform="matrix(0.965926, -0.258819, 0.258819, 0.965926, -58.610925, 110.100854)"/>
  <path id="path173" d="M 396.895 268.319 C 395.935 268.319 395.154 269.1 395.154 270.061 L 395.154 278.625 C 395.154 279.585 395.935 280.366 396.895 280.366 L 405.444 280.366 C 406.404 280.366 407.2 279.585 407.2 278.625 L 407.2 270.061 C 407.2 269.101 406.405 268.319 405.444 268.319 L 396.895 268.319 Z M 396.895 269.233 L 405.444 269.233 C 405.911 269.233 406.286 269.595 406.286 270.061 L 406.286 278.625 C 406.286 279.091 405.911 279.453 405.444 279.453 L 396.895 279.453 C 396.428 279.453 396.067 279.091 396.067 278.625 L 396.067 270.061 C 396.067 269.594 396.429 269.233 396.895 269.233 Z" style="fill: rgb(30, 30, 30);" transform="matrix(0.965926, -0.258819, 0.258819, 0.965926, -57.335271, 113.180188)"/>
  <path id="path175" d="M 409.217 265.017 C 408.257 265.017 407.476 265.799 407.476 266.76 L 407.476 275.323 C 407.476 276.283 408.257 277.065 409.217 277.065 L 417.781 277.065 C 418.741 277.065 419.522 276.284 419.522 275.323 L 419.522 266.76 C 419.522 265.799 418.741 265.017 417.781 265.017 L 409.217 265.017 Z M 409.217 265.931 L 417.781 265.931 C 418.248 265.931 418.609 266.293 418.609 266.76 L 418.609 275.323 C 418.609 275.79 418.248 276.152 417.781 276.152 L 409.217 276.152 C 408.751 276.152 408.39 275.79 408.39 275.323 L 408.39 266.76 C 408.39 266.293 408.751 265.931 409.217 265.931 Z" style="fill: rgb(30, 30, 30);" transform="matrix(0.965926, -0.258819, 0.258819, 0.965926, -56.060918, 116.25686)"/>
  <path id="path177" d="M 421.543 261.715 C 420.583 261.715 419.802 262.496 419.802 263.457 L 419.802 272.02 C 419.802 272.981 420.582 273.762 421.543 273.762 L 430.108 273.762 C 431.068 273.762 431.849 272.981 431.849 272.02 L 431.849 263.457 C 431.849 262.496 431.068 261.715 430.108 261.715 L 421.543 261.715 Z M 421.543 262.628 L 430.108 262.628 C 430.575 262.628 430.935 262.99 430.935 263.457 L 430.935 272.02 C 430.935 272.487 430.574 272.849 430.108 272.849 L 421.543 272.849 C 421.077 272.849 420.716 272.487 420.716 272.02 L 420.716 263.457 C 420.716 262.99 421.077 262.628 421.543 262.628 Z" style="fill: rgb(30, 30, 30);" transform="matrix(0.965926, -0.258819, 0.258819, 0.965926, -54.786173, 119.334737)"/>
  <path id="path179" d="M 433.884 258.412 C 432.924 258.412 432.129 259.193 432.129 260.154 L 432.129 268.717 C 432.129 269.678 432.923 270.459 433.884 270.459 L 442.433 270.459 C 443.394 270.459 444.175 269.678 444.175 268.717 L 444.175 260.154 C 444.175 259.193 443.394 258.412 442.433 258.412 L 433.884 258.412 Z M 433.884 259.325 L 442.433 259.325 C 442.9 259.325 443.261 259.688 443.261 260.154 L 443.261 268.717 C 443.261 269.184 442.9 269.546 442.433 269.546 L 433.884 269.546 C 433.417 269.546 433.042 269.184 433.042 268.717 L 433.042 260.154 C 433.042 259.687 433.417 259.325 433.884 259.325 Z" style="fill: rgb(30, 30, 30);" transform="matrix(0.965926, -0.258819, 0.258819, 0.965926, -53.51128, 122.412514)"/>
  <path id="path181" d="M 446.21 255.107 C 445.25 255.107 444.454 255.889 444.454 256.85 L 444.454 265.413 C 444.454 266.374 445.25 267.154 446.21 267.154 L 454.76 267.154 C 455.719 267.154 456.516 266.374 456.516 265.413 L 456.516 256.85 C 456.516 255.889 455.72 255.107 454.76 255.107 L 446.21 255.107 Z M 446.21 256.021 L 454.76 256.021 C 455.226 256.021 455.602 256.383 455.602 256.85 L 455.602 265.413 C 455.602 265.88 455.226 266.241 454.76 266.241 L 446.21 266.241 C 445.743 266.241 445.367 265.88 445.367 265.413 L 445.367 256.85 C 445.367 256.383 445.744 256.021 446.21 256.021 Z" style="fill: rgb(30, 30, 30);" transform="matrix(0.965926, -0.258819, 0.258819, 0.965926, -52.235622, 125.491841)"/>
  <path id="path183" d="M 458.536 251.802 C 457.577 251.802 456.795 252.584 456.795 253.545 L 456.795 262.108 C 456.795 263.069 457.577 263.85 458.536 263.85 L 467.086 263.85 C 468.046 263.85 468.841 263.069 468.841 262.108 L 468.841 253.545 C 468.841 252.584 468.047 251.802 467.086 251.802 L 458.536 251.802 Z M 458.536 252.716 L 467.086 252.716 C 467.552 252.716 467.927 253.078 467.927 253.545 L 467.927 262.108 C 467.927 262.575 467.552 262.936 467.086 262.936 L 458.536 262.936 C 458.07 262.936 457.709 262.574 457.709 262.108 L 457.709 253.545 C 457.708 253.078 458.07 252.716 458.536 252.716 Z" style="fill: rgb(30, 30, 30);" transform="matrix(0.965926, -0.258819, 0.258819, 0.965926, -50.960121, 128.571248)"/>
  <path id="path185" d="M 470.858 248.501 C 469.898 248.501 469.116 249.282 469.116 250.243 L 469.116 258.807 C 469.116 259.767 469.898 260.548 470.858 260.548 L 479.408 260.548 C 480.368 260.548 481.163 259.767 481.163 258.807 L 481.163 250.243 C 481.163 249.283 480.369 248.501 479.408 248.501 L 470.858 248.501 Z M 470.858 249.414 L 479.408 249.414 C 479.874 249.414 480.25 249.776 480.25 250.243 L 480.25 258.807 C 480.25 259.273 479.874 259.635 479.408 259.635 L 470.858 259.635 C 470.391 259.635 470.03 259.273 470.03 258.807 L 470.03 250.243 C 470.03 249.776 470.392 249.414 470.858 249.414 Z" style="fill: rgb(30, 30, 30);" transform="matrix(0.965926, -0.258819, 0.258819, 0.965926, -49.685804, 131.64788)"/>
  <path id="path187" d="M 483.185 245.198 C 482.224 245.198 481.442 245.979 481.442 246.94 L 481.442 255.504 C 481.442 256.464 482.224 257.245 483.185 257.245 L 491.749 257.245 C 492.708 257.245 493.49 256.464 493.49 255.504 L 493.49 246.94 C 493.49 245.98 492.708 245.198 491.749 245.198 L 483.185 245.198 Z M 483.185 246.111 L 491.749 246.111 C 492.215 246.111 492.576 246.473 492.576 246.94 L 492.576 255.504 C 492.576 255.97 492.214 256.332 491.749 256.332 L 483.185 256.332 C 482.719 256.332 482.357 255.969 482.357 255.504 L 482.357 246.94 C 482.357 246.473 482.719 246.111 483.185 246.111 Z" style="fill: rgb(30, 30, 30);" transform="matrix(0.965926, -0.258819, 0.258819, 0.965926, -48.41091, 134.725665)"/>
  <path id="path189" d="M 495.511 241.895 C 494.551 241.895 493.77 242.676 493.77 243.637 L 493.77 252.201 C 493.77 253.161 494.551 253.942 495.511 253.942 L 504.076 253.942 C 505.035 253.942 505.817 253.161 505.817 252.201 L 505.817 243.637 C 505.817 242.677 505.035 241.895 504.076 241.895 L 495.511 241.895 Z M 495.511 242.809 L 504.076 242.809 C 504.542 242.809 504.903 243.17 504.903 243.637 L 504.903 252.201 C 504.903 252.667 504.542 253.029 504.076 253.029 L 495.511 253.029 C 495.044 253.029 494.683 252.667 494.683 252.201 L 494.683 243.637 C 494.683 243.17 495.044 242.809 495.511 242.809 Z" style="fill: rgb(30, 30, 30);" transform="matrix(0.965926, -0.258819, 0.258819, 0.965926, -47.135963, 137.803626)"/>
  <path id="path191" d="M 507.852 238.593 C 506.892 238.593 506.095 239.374 506.095 240.335 L 506.095 248.898 C 506.095 249.859 506.889 250.64 507.852 250.64 L 516.401 250.64 C 517.36 250.64 518.143 249.859 518.143 248.898 L 518.143 240.335 C 518.143 239.374 517.361 238.593 516.401 238.593 L 507.852 238.593 Z M 507.852 239.506 L 516.401 239.506 C 516.868 239.506 517.228 239.868 517.228 240.335 L 517.228 248.898 C 517.228 249.365 516.867 249.727 516.401 249.727 L 507.852 249.727 C 507.384 249.727 507.01 249.364 507.01 248.898 L 507.01 240.335 C 507.01 239.868 507.385 239.506 507.852 239.506 Z" style="fill: rgb(30, 30, 30);" transform="matrix(0.965926, -0.258819, 0.258819, 0.965926, -45.861359, 140.881195)"/>
  <path id="path193" d="M 520.173 235.289 C 519.214 235.289 518.419 236.07 518.419 237.031 L 518.419 245.594 C 518.419 246.555 519.213 247.336 520.173 247.336 L 528.724 247.336 C 529.683 247.336 530.479 246.555 530.479 245.594 L 530.479 237.031 C 530.479 236.07 529.683 235.289 528.724 235.289 L 520.173 235.289 Z M 520.173 236.202 L 528.724 236.202 C 529.19 236.202 529.565 236.564 529.565 237.031 L 529.565 245.594 C 529.565 246.061 529.188 246.423 528.724 246.423 L 520.173 246.423 C 519.706 246.423 519.331 246.061 519.331 245.594 L 519.331 237.031 C 519.329 236.564 519.707 236.202 520.173 236.202 Z" style="fill: rgb(30, 30, 30);" transform="matrix(0.965926, -0.258819, 0.258819, 0.965926, -44.586093, 143.959829)"/>
  <path id="path195" d="M 532.386 231.122 C 531.426 231.122 530.644 231.903 530.644 232.864 L 530.644 241.427 C 530.644 242.388 531.425 243.169 532.386 243.169 L 547.615 243.169 C 548.575 243.169 549.356 242.388 549.356 241.427 L 549.356 232.864 C 549.356 231.903 548.576 231.122 547.615 231.122 L 532.386 231.122 Z M 532.386 232.035 L 547.615 232.035 C 548.082 232.035 548.443 232.397 548.443 232.864 L 548.443 241.427 C 548.443 241.894 548.081 242.256 547.615 242.256 L 532.386 242.256 C 531.919 242.256 531.557 241.894 531.557 241.427 L 531.557 232.864 C 531.557 232.397 531.919 232.035 532.386 232.035 Z" style="fill: rgb(30, 30, 30);" transform="matrix(0.965926, -0.258819, 0.258819, 0.965926, -42.977709, 147.842754)"/>
  <path id="path197" d="M 369.229 242.385 C 368.27 242.385 367.488 243.166 367.488 244.127 L 367.488 252.69 C 367.488 253.651 368.27 254.431 369.229 254.431 L 382.961 254.431 C 383.919 254.431 384.701 253.651 384.701 252.69 L 384.701 244.127 C 384.701 243.166 383.92 242.385 382.961 242.385 L 369.229 242.385 Z M 369.229 243.3 L 382.961 243.3 C 383.426 243.3 383.788 243.66 383.788 244.127 L 383.788 252.691 C 383.788 253.158 383.426 253.52 382.961 253.52 L 369.229 253.52 C 368.762 253.52 368.401 253.158 368.401 252.691 L 368.401 244.127 C 368.401 243.66 368.763 243.3 369.229 243.3 Z" style="fill: rgb(30, 30, 30);" transform="matrix(0.965926, -0.258819, 0.258819, 0.965926, -51.477611, 105.804727)"/>
  <path id="path199" d="M 387.386 237.522 C 386.426 237.522 385.632 238.302 385.632 239.263 L 385.632 247.826 C 385.632 248.787 386.426 249.568 387.386 249.568 L 401.103 249.568 C 402.063 249.568 402.859 248.787 402.859 247.826 L 402.859 239.263 C 402.859 238.302 402.063 237.522 401.103 237.522 L 387.386 237.522 Z M 387.386 238.436 L 401.103 238.436 C 401.569 238.436 401.944 238.797 401.944 239.263 L 401.944 247.827 C 401.944 248.294 401.569 248.656 401.103 248.656 L 387.386 248.656 C 386.92 248.656 386.544 248.294 386.544 247.827 L 386.544 239.263 C 386.544 238.797 386.92 238.436 387.386 238.436 Z" style="fill: rgb(30, 30, 30);" transform="matrix(0.965926, -0.258819, 0.258819, 0.965926, -49.600498, 110.33685)"/>
  <path id="path201" d="M 405.531 232.658 C 404.571 232.658 403.791 233.439 403.791 234.4 L 403.791 242.963 C 403.791 243.923 404.571 244.704 405.531 244.704 L 419.261 244.704 C 420.222 244.704 421.003 243.924 421.003 242.963 L 421.003 234.4 C 421.003 233.439 420.222 232.658 419.261 232.658 L 405.531 232.658 Z M 405.531 233.573 L 419.261 233.573 C 419.728 233.573 420.089 233.933 420.089 234.4 L 420.089 242.964 C 420.089 243.431 419.727 243.793 419.261 243.793 L 405.531 243.793 C 405.064 243.793 404.704 243.431 404.704 242.964 L 404.704 234.4 C 404.704 233.932 405.065 233.573 405.531 233.573 Z" style="fill: rgb(30, 30, 30);" transform="matrix(0.965926, -0.258819, 0.258819, 0.965926, -47.723085, 114.868989)"/>
  <path id="path203" d="M 423.686 227.795 C 422.725 227.795 421.93 228.577 421.93 229.537 L 421.93 238.1 C 421.93 239.061 422.725 239.842 423.686 239.842 L 437.401 239.842 C 438.362 239.842 439.158 239.061 439.158 238.1 L 439.158 237.644 L 439.158 229.537 C 439.158 228.576 438.362 227.795 437.401 227.795 L 423.686 227.795 Z M 423.686 228.71 L 437.401 228.71 C 437.868 228.71 438.244 229.07 438.244 229.537 L 438.244 238.101 C 438.244 238.568 437.868 238.93 437.401 238.93 L 423.686 238.93 C 423.219 238.93 422.844 238.568 422.844 238.101 L 422.844 229.537 C 422.844 229.07 423.22 228.71 423.686 228.71 Z" style="fill: rgb(30, 30, 30);" transform="matrix(0.965926, -0.258819, 0.258819, 0.965926, -45.846232, 119.400103)"/>
  <path id="path205" d="M 441.832 222.932 C 440.871 222.932 440.089 223.712 440.089 224.673 L 440.089 233.236 C 440.089 234.197 440.871 234.978 441.832 234.978 L 455.562 234.978 C 456.521 234.978 457.303 234.197 457.303 233.236 L 457.303 224.673 C 457.303 223.713 456.522 222.932 455.562 222.932 L 441.832 222.932 Z M 441.832 223.846 L 455.562 223.846 C 456.028 223.846 456.39 224.206 456.39 224.673 L 456.39 233.237 C 456.39 233.704 456.028 234.066 455.562 234.066 L 441.832 234.066 C 441.365 234.066 441.004 233.704 441.004 233.237 L 441.004 224.673 C 441.002 224.206 441.365 223.846 441.832 223.846 Z" style="fill: rgb(30, 30, 30);" transform="matrix(0.965926, -0.258819, 0.258819, 0.965926, -43.968956, 123.932455)"/>
  <path id="path207" d="M 506.147 205.702 C 505.187 205.702 504.391 206.483 504.391 207.444 L 504.391 216.007 C 504.391 216.968 505.187 217.748 506.147 217.748 L 519.862 217.748 C 520.823 217.748 521.604 216.968 521.604 216.007 L 521.604 207.444 C 521.604 206.483 520.823 205.702 519.862 205.702 L 506.147 205.702 Z M 506.147 206.617 L 519.862 206.617 C 520.33 206.617 520.69 206.977 520.69 207.444 L 520.69 216.008 C 520.69 216.474 520.33 216.837 519.862 216.837 L 506.147 216.837 C 505.681 216.837 505.304 216.474 505.304 216.008 L 505.304 207.444 C 505.304 206.977 505.681 206.617 506.147 206.617 Z" style="fill: rgb(30, 30, 30);" transform="matrix(0.965926, -0.258819, 0.258819, 0.965926, -37.318494, 139.9878)"/>
  <path id="path209" d="M 524.287 200.838 C 523.328 200.838 522.546 201.618 522.546 202.579 L 522.546 211.142 C 522.546 212.103 523.328 212.884 524.287 212.884 L 538.017 212.884 C 538.977 212.884 539.759 212.103 539.759 211.142 L 539.759 202.579 C 539.759 201.62 538.978 200.838 538.017 200.838 L 524.287 200.838 Z M 524.287 201.752 L 538.017 201.752 C 538.483 201.752 538.845 202.112 538.845 202.579 L 538.845 211.143 C 538.845 211.61 538.483 211.972 538.017 211.972 L 524.287 211.972 C 523.821 211.972 523.459 211.61 523.459 211.143 L 523.459 202.579 C 523.459 202.112 523.821 201.752 524.287 201.752 Z" style="fill: rgb(30, 30, 30);" transform="matrix(0.965926, -0.258819, 0.258819, 0.965926, -35.440994, 144.521107)"/>
  <path id="path211" d="M 581.952 216.88 C 580.015 216.88 578.075 217.619 576.599 219.09 L 563.409 232.281 C 560.461 235.228 560.461 240.023 563.409 242.972 L 576.397 255.946 C 579.345 258.895 584.14 258.893 587.087 255.946 L 600.276 242.757 C 603.22 239.814 603.224 235.031 600.29 232.081 L 600.276 232.067 L 587.288 219.093 C 585.813 217.618 583.884 216.881 581.948 216.881 L 581.952 216.88 Z M 581.952 217.78 C 583.652 217.78 585.35 218.435 586.647 219.734 L 599.637 232.723 C 602.236 235.321 602.236 239.515 599.637 242.115 L 586.448 255.302 C 583.849 257.901 579.655 257.902 577.057 255.302 L 564.069 242.314 C 561.469 239.715 561.471 235.52 564.069 232.923 L 577.256 219.734 C 578.556 218.435 580.251 217.78 581.952 217.78 Z" style="fill: rgb(30, 30, 30);" transform="matrix(0.965926, -0.258819, 0.258819, 0.965926, -41.648491, 158.685132)"/>
  <g id="g213" transform="matrix(0.51637, -0.138361, 0.138361, 0.51637, 299.679657, 189.619553)">
    <path id="path215" d="M486.657,185.882c-3.104,0-6.207,1.187-8.569,3.551l-12.202,12.201l-0.16,0.16l-0.454,0.427&#10;&#9;&#9;l0.026,0.027l-0.16,0.133l-12.201,12.201c-4.728,4.729-4.728,12.413,0,17.142l12.201,12.201l0.16,0.134l-0.026,0.026l0.454,0.427&#10;&#9;&#9;l0.16,0.16l12.202,12.201c4.727,4.729,12.413,4.729,17.141,0l12.199-12.201l0.16-0.16l0.428-0.427l0.16-0.16l12.202-12.201&#10;&#9;&#9;c4.728-4.728,4.728-12.412,0-17.14l-12.202-12.202l-0.16-0.16l-0.428-0.427l-0.16-0.161l-12.199-12.199&#10;&#9;&#9;c-2.364-2.364-5.467-3.551-8.571-3.551V185.882z M486.657,187.591c2.664,0,5.332,1.007,7.369,3.044l11.586,11.585l-18.957,18.958&#10;&#9;&#9;L467.7,202.22l11.586-11.585c2.038-2.037,4.705-3.044,7.369-3.044H486.657z M465.726,204.198l18.957,18.956l-18.957,18.957&#10;&#9;&#9;l-11.588-11.587c-4.073-4.075-4.073-10.662,0-14.738l11.586-11.594L465.726,204.198z M507.59,204.198l11.586,11.587&#10;&#9;&#9;c4.075,4.074,4.075,10.662,0,14.738l-11.584,11.593l-18.96-18.959l18.96-18.957L507.59,204.198z M486.657,225.104l18.957,18.983&#10;&#9;&#9;l-11.588,11.586c-4.073,4.077-10.662,4.077-14.738,0l-11.594-11.61l18.96-18.959H486.657z" style="fill: rgb(30, 30, 30);"/>
  </g>
  <path id="path217" d="M 563.125 215.749 C 561.452 215.749 560.085 217.117 560.085 218.789 L 560.085 256.243 C 560.085 257.915 561.452 259.283 563.125 259.283 L 600.578 259.283 C 602.252 259.283 603.618 257.915 603.618 256.243 L 603.618 218.789 C 603.618 217.117 602.252 215.749 600.578 215.749 L 563.125 215.749 Z M 563.125 216.662 L 600.578 216.662 C 601.757 216.662 602.705 217.609 602.705 218.789 L 602.705 256.242 C 602.705 257.421 601.758 258.369 600.578 258.369 L 563.125 258.369 C 561.947 258.369 560.998 257.421 560.998 256.242 L 560.998 218.789 C 560.998 217.609 561.947 216.662 563.125 216.662 L 563.125 216.662 Z" style="fill: rgb(30, 30, 30);" transform="matrix(0.965926, -0.258819, 0.258819, 0.965926, -41.64754, 158.687326)"/>
  <path id="path219" d="M 359.236 249.249 C 358.75 249.249 358.351 249.651 358.351 250.135 L 358.351 253.86 C 358.351 254.344 358.751 254.759 359.236 254.759 L 364.117 254.759 C 364.602 254.759 365.002 254.344 365.002 253.86 L 365.002 250.135 C 365.002 249.651 364.602 249.249 364.117 249.249 L 359.236 249.249 Z M 359.264 250.164 L 364.088 250.164 L 364.088 253.846 L 359.264 253.846 L 359.264 250.164 Z" style="fill: rgb(30, 30, 30);" transform="matrix(0.965926, -0.258819, 0.258819, 0.965926, -52.899612, 102.195608)"/>
  <path id="path221" d="M 366.005 294.572 C 365.521 294.572 365.12 294.987 365.12 295.471 L 365.12 296.899 C 365.12 297.383 365.521 297.784 366.005 297.784 L 370.173 297.784 C 370.657 297.784 371.058 297.384 371.058 296.899 L 371.058 295.471 C 371.058 294.987 370.657 294.572 370.173 294.572 L 366.005 294.572 Z" style="fill: rgb(30, 30, 30);" transform="matrix(0.965926, -0.258819, 0.258819, 0.965926, -64.114178, 105.360472)"/>
  <path id="path223" d="M 553.795 244.256 C 553.311 244.256 552.908 244.672 552.908 245.156 L 552.908 246.583 C 552.908 247.067 553.311 247.468 553.795 247.468 L 557.948 247.468 C 558.431 247.468 558.833 247.069 558.833 246.583 L 558.833 245.156 C 558.833 244.672 558.433 244.256 557.948 244.256 L 553.795 244.256 Z" style="fill: rgb(30, 30, 30);" transform="matrix(0.965926, -0.258819, 0.258819, 0.965926, -44.692927, 152.247335)"/>
  <path id="line233" d="M 342.013 239.405 L 342.013 241.802 L 342.928 241.802 L 342.928 239.405 L 342.013 239.405 Z" style="fill: rgb(30, 30, 30);" transform="matrix(0.965926, -0.258819, 0.258819, 0.965926, -50.603374, 96.836269)"/>
  <path id="line235" d="M 596.123 171.171 L 596.123 173.682 L 597.035 173.682 L 597.035 171.171 L 596.123 171.171 Z" style="fill: rgb(30, 30, 30);" transform="matrix(0.965926, -0.258819, 0.258819, 0.965926, -24.299327, 160.281219)"/>
  <path id="path237" d="M 497.84 161.435 C 497.356 161.435 496.955 161.849 496.955 162.333 L 496.955 169.912 C 496.955 170.397 497.356 170.798 497.84 170.798 L 498.112 170.798 C 498.596 170.798 498.996 170.396 498.996 169.912 L 498.996 162.333 C 498.996 161.849 498.596 161.435 498.112 161.435 L 497.84 161.435 Z M 497.87 162.347 L 498.083 162.347 L 498.083 169.884 L 497.87 169.884 L 497.87 162.347 Z" style="fill: rgb(30, 30, 30);" transform="matrix(0.965926, -0.258819, 0.258819, 0.965926, -26.026005, 134.545754)"/>
  <path id="path239" d="M 551.994 146.924 C 551.51 146.924 551.109 147.339 551.109 147.822 L 551.109 155.402 C 551.109 155.886 551.51 156.287 551.994 156.287 L 552.266 156.287 C 552.75 156.287 553.15 155.886 553.15 155.402 L 553.15 147.822 C 553.15 147.339 552.75 146.924 552.266 146.924 L 551.994 146.924 Z M 552.023 147.837 L 552.236 147.837 L 552.236 155.373 L 552.023 155.373 L 552.023 147.837 Z" style="fill: rgb(30, 30, 30);" transform="matrix(0.965926, -0.258819, 0.258819, 0.965926, -20.425031, 148.067397)"/>
</svg>