<?xml version="1.0" encoding="utf-8"?>
<svg version="1.2" baseProfile="tiny" id="Layer_3" x="0px" y="0px" viewBox="0 0 1280 720" preserveAspectRatio="none" xmlns="http://www.w3.org/2000/svg">
  <g id="g3" transform="matrix(1.073406, -0.287618, 0.287618, 1.073406, 269.68335, 261.944366)">
    <path id="polyline5" d="M82.189,26.116v83.276h-3.15v1.708h4.005h0.854v-0.854V26.116H82.189z" style="fill: rgb(30, 30, 30);"/>
    <path id="rect7" d="M47.081,25.262v0.854v84.129v0.854h0.854h27.768h0.854v-0.854V26.116v-0.854h-0.854H47.935&#10;&#9;&#9;H47.081z M48.789,26.971h26.058v82.42H48.789V26.971z" style="fill: rgb(30, 30, 30);"/>
    <path id="rect9" d="M269.116,25.262v0.854v84.129v0.854h0.854h280.184h0.854v-0.854V26.116v-0.854h-0.854H269.97&#10;&#9;&#9;H269.116z M270.824,26.971H549.3v82.42H270.824V26.971z" style="fill: rgb(30, 30, 30);"/>
    <path id="polyline11" d="M89.532,26.116v83.276h-3.15v1.708h4.004h0.854v-0.854V26.116H89.532z" style="fill: rgb(30, 30, 30);"/>
    <path id="polyline13" d="M96.874,26.116v83.276h-3.15v1.708h4.005h0.854v-0.854V26.116H96.874z" style="fill: rgb(30, 30, 30);"/>
    <path id="polyline15" d="M104.243,26.116v83.276h-3.177v1.708h4.032h0.854v-0.854V26.116H104.243z" style="fill: rgb(30, 30, 30);"/>
    <path id="polyline17" d="M111.585,26.116v83.276h-3.177v1.708h4.032h0.854v-0.854V26.116H111.585z" style="fill: rgb(30, 30, 30);"/>
    <path id="polyline19" d="M118.928,26.116v83.276h-3.177v1.708h4.032h0.854v-0.854V26.116H118.928z" style="fill: rgb(30, 30, 30);"/>
    <path id="polyline21" d="M126.271,26.116v83.276h-3.177v1.708h4.031h0.855v-0.854V26.116H126.271z" style="fill: rgb(30, 30, 30);"/>
    <path id="polyline23" d="M133.611,26.116v83.276h-3.177v1.708h4.032h0.854v-0.854V26.116H133.611z" style="fill: rgb(30, 30, 30);"/>
    <path id="polyline25" d="M140.959,26.116v83.276h-3.177v1.708h4.032h0.854v-0.854V26.116H140.959z" style="fill: rgb(30, 30, 30);"/>
    <path id="polyline27" d="M148.298,26.116v83.276h-3.177v1.708h4.031h0.854v-0.854V26.116H148.298z" style="fill: rgb(30, 30, 30);"/>
    <path id="polyline29" d="M155.638,26.116v83.276h-3.177v1.708h4.032h0.854v-0.854V26.116H155.638z" style="fill: rgb(30, 30, 30);"/>
    <path id="polyline31" d="M162.985,26.116v83.276h-3.177v1.708h4.032h0.854v-0.854V26.116H162.985z" style="fill: rgb(30, 30, 30);"/>
    <path id="polyline33" d="M170.324,26.116v83.276h-3.178v1.708h4.032h0.854v-0.854V26.116H170.324z" style="fill: rgb(30, 30, 30);"/>
    <path id="polyline35" d="M177.663,26.116v83.276h-3.177v1.708h4.032h0.854v-0.854V26.116H177.663z" style="fill: rgb(30, 30, 30);"/>
    <path id="polyline37" d="M185.011,26.116v83.276h-3.177v1.708h4.032h0.854v-0.854V26.116H185.011z" style="fill: rgb(30, 30, 30);"/>
    <path id="polyline39" d="M192.35,26.116v83.276h-3.178v1.708h4.032h0.854v-0.854V26.116H192.35z" style="fill: rgb(30, 30, 30);"/>
    <path id="polyline41" d="M199.689,26.116v83.276h-3.177v1.708h4.032h0.854v-0.854V26.116H199.689z" style="fill: rgb(30, 30, 30);"/>
    <path id="polyline43" d="M207.037,26.116v83.276h-3.177v1.708h4.032h0.854v-0.854V26.116H207.037z" style="fill: rgb(30, 30, 30);"/>
    <path id="polyline45" d="M214.376,26.116v83.276h-3.178v1.708h4.032h0.855v-0.854V26.116H214.376z" style="fill: rgb(30, 30, 30);"/>
    <path id="polyline47" d="M221.724,26.116v83.276h-3.178v1.708h4.032h0.854v-0.854V26.116H221.724z" style="fill: rgb(30, 30, 30);"/>
    <path id="polyline49" d="M229.063,26.116v83.276h-3.177v1.708h4.032h0.854v-0.854V26.116H229.063z" style="fill: rgb(30, 30, 30);"/>
    <path id="polyline51" d="M236.402,26.116v83.276h-3.178v1.708h4.032h0.855v-0.854V26.116H236.402z" style="fill: rgb(30, 30, 30);"/>
    <path id="polyline53" d="M243.749,26.116v83.276h-3.177v1.708h4.032h0.854v-0.854V26.116H243.749z" style="fill: rgb(30, 30, 30);"/>
    <path id="polyline55" d="M251.088,26.116v83.276h-3.177v1.708h4.032h0.854v-0.854V26.116H251.088z" style="fill: rgb(30, 30, 30);"/>
    <path id="polyline57" d="M258.436,26.116v83.276h-3.177v1.708h4.032h0.854v-0.854V26.116H258.436z" style="fill: rgb(30, 30, 30);"/>
    <path id="polyline59" d="M265.775,26.116v83.276h-3.178v1.708h4.032h0.854v-0.854V26.116H265.775z" style="fill: rgb(30, 30, 30);"/>
    <path id="path61" d="M341.737,35.461c-0.906,0-1.656,0.749-1.656,1.655v32.893c0,0.905,0.75,1.656,1.656,1.656&#10;&#9;&#9;H538.62c0.906,0,1.655-0.75,1.655-1.656V37.116c0-0.905-0.749-1.655-1.655-1.655H341.737z M341.791,37.169h196.772v32.787H341.791&#10;&#9;&#9;V37.169z" style="fill: rgb(30, 30, 30);"/>
    <path id="path63" d="M347.53,40.24c-1.128,0-2.082,0.928-2.082,2.056V64.83c0,1.128,0.954,2.056,2.082,2.056&#10;&#9;&#9;h148.261c0.799,0,1.368-0.527,1.708-1.201h0.348V64.83V42.296c0-1.128-0.926-2.056-2.056-2.056H347.53L347.53,40.24z&#10;&#9;&#9; M347.53,41.949h148.261c0.205,0,0.347,0.142,0.347,0.347v21.68v0.854c0,0.205-0.142,0.347-0.347,0.347H347.53&#10;&#9;&#9;c-0.204,0-0.373-0.143-0.373-0.347V42.296C347.157,42.091,347.326,41.949,347.53,41.949z" style="fill: rgb(30, 30, 30);"/>
    <path id="path65" d="M349.794,43.043c-0.684,0-1.255,0.568-1.255,1.255v18.529c0,0.687,0.571,1.255,1.255,1.255&#10;&#9;&#9;h143.988c0.686,0,1.256-0.571,1.256-1.255V44.298c0-0.685-0.57-1.255-1.256-1.255H349.794L349.794,43.043z M350.248,44.752H493.33&#10;&#9;&#9;v17.622H350.248V44.752z" style="fill: rgb(30, 30, 30);"/>
    <path id="circle67" d="M520.482,41.842c-6.465,0-11.721,5.257-11.721,11.722c0,6.464,5.255,11.721,11.721,11.721&#10;&#9;&#9;c6.465,0,11.722-5.257,11.722-11.721C532.204,47.099,526.947,41.842,520.482,41.842z M520.482,43.551&#10;&#9;&#9;c5.54,0,10.013,4.471,10.013,10.013c0,5.541-4.473,10.012-10.013,10.012c-5.541,0-10.012-4.471-10.012-10.012&#10;&#9;&#9;C510.471,48.022,514.941,43.551,520.482,43.551z" style="fill: rgb(30, 30, 30);"/>
  </g>
  <path id="path69" d="M 379.796 294.592 C 378.791 294.592 377.928 295.424 377.928 296.432 L 377.928 528.153 C 377.928 529.16 378.788 529.994 379.796 529.994 L 928.214 529.995 C 929.222 529.995 930.055 529.16 930.055 528.154 L 930.055 296.433 C 930.055 295.427 929.219 294.594 928.214 294.594 L 379.796 294.593 Z M 379.825 296.492 L 928.159 296.493 L 928.159 528.099 L 379.825 528.098 L 379.825 296.492 Z" style="fill: rgb(30, 30, 30);" transform="matrix(0.965926, -0.258819, 0.258819, 0.965926, -84.425281, 183.314273)"/>
  <path id="path71" d="M 322.66 193.85 C 321.654 193.85 320.792 194.681 320.792 195.689 L 320.792 204.264 L 322.689 204.264 L 322.689 195.747 L 871.023 195.747 L 871.023 204.026 L 872.922 204.026 L 872.922 195.689 C 872.922 194.681 872.086 193.848 871.078 193.848 L 322.651 193.848 L 322.66 193.85 Z" style="fill: rgb(30, 30, 30);" transform="matrix(0.965926, -0.258819, 0.258819, 0.965926, -31.182073, 161.260619)"/>
  <path id="path73" d="M 401.56 416.87 C 399.564 416.87 397.912 418.523 397.912 420.519 L 397.912 438.294 C 397.912 440.288 399.564 441.943 401.56 441.943 L 419.331 441.943 C 421.33 441.943 422.954 440.29 422.954 438.294 L 422.954 437.344 L 422.954 420.519 C 422.954 418.525 421.33 416.87 419.331 416.87 L 401.56 416.87 Z M 401.56 418.768 L 419.331 418.768 C 420.305 418.768 421.055 419.55 421.055 420.519 L 421.055 438.294 C 421.055 439.261 420.301 440.044 419.331 440.044 L 401.56 440.044 C 400.592 440.044 399.809 439.26 399.809 438.294 L 399.809 420.519 C 399.809 419.549 400.59 418.768 401.56 418.768 Z" style="fill: rgb(30, 30, 30);" transform="matrix(0.965926, -0.258819, 0.258819, 0.965926, -97.153335, 120.85941)"/>
  <path id="path75" d="M 427.184 410.001 C 425.188 410.001 423.534 411.654 423.534 413.65 L 423.534 431.425 C 423.534 433.419 425.185 435.074 427.184 435.074 L 444.956 435.074 C 446.951 435.074 448.604 433.421 448.604 431.425 L 448.604 413.65 C 448.604 411.656 446.948 410.001 444.956 410.001 L 427.184 410.001 Z M 427.184 411.899 L 444.956 411.899 C 445.927 411.899 446.704 412.681 446.704 413.65 L 446.704 431.425 C 446.704 432.392 445.926 433.175 444.956 433.175 L 427.184 433.175 C 426.211 433.175 425.431 432.391 425.431 431.425 L 425.431 413.65 C 425.431 412.68 426.211 411.899 427.184 411.899 Z" style="fill: rgb(30, 30, 30);" transform="matrix(0.965926, -0.258819, 0.258819, 0.965926, -94.501981, 127.260433)"/>
  <path id="path77" d="M 452.803 403.136 C 450.811 403.136 449.153 404.789 449.153 406.785 L 449.153 424.56 C 449.153 426.554 450.806 428.209 452.803 428.209 L 470.575 428.209 C 472.57 428.209 474.225 426.556 474.225 424.56 L 474.225 406.785 C 474.225 404.791 472.573 403.136 470.575 403.136 L 452.803 403.136 Z M 452.803 405.034 L 470.575 405.034 C 471.544 405.034 472.326 405.816 472.326 406.785 L 472.326 424.56 C 472.326 425.527 471.544 426.31 470.575 426.31 L 452.803 426.31 C 451.833 426.31 451.053 425.526 451.053 424.56 L 451.053 406.785 C 451.053 405.815 451.834 405.034 452.803 405.034 Z" style="fill: rgb(30, 30, 30);" transform="matrix(0.965926, -0.258819, 0.258819, 0.965926, -91.852352, 133.657736)"/>
  <path id="path79" d="M 478.428 396.266 C 476.433 396.266 474.808 397.919 474.808 399.915 L 474.808 417.69 C 474.808 419.684 476.432 421.339 478.428 421.339 L 496.2 421.339 C 498.197 421.339 499.849 419.686 499.849 417.69 L 499.849 399.915 C 499.849 397.921 498.197 396.266 496.2 396.266 L 478.428 396.266 Z M 478.428 398.164 L 496.2 398.164 C 497.173 398.164 497.952 398.946 497.952 399.915 L 497.952 417.69 C 497.952 418.657 497.171 419.44 496.2 419.44 L 478.428 419.44 C 477.459 419.44 476.706 418.656 476.706 417.69 L 476.706 399.915 C 476.706 398.945 477.456 398.164 478.428 398.164 Z" style="fill: rgb(30, 30, 30);" transform="matrix(0.965926, -0.258819, 0.258819, 0.965926, -89.200635, 140.059674)"/>
  <path id="path81" d="M 504.043 389.403 C 502.048 389.403 500.421 391.056 500.421 393.052 L 500.421 410.827 C 500.421 412.821 502.046 414.476 504.043 414.476 L 521.845 414.476 C 523.84 414.476 525.463 412.823 525.463 410.827 L 525.463 393.052 C 525.463 391.058 523.84 389.403 521.845 389.403 L 504.043 389.403 Z M 504.043 391.301 L 521.845 391.301 C 522.814 391.301 523.564 392.083 523.564 393.052 L 523.564 410.827 C 523.564 411.794 522.814 412.577 521.845 412.577 L 504.043 412.577 C 503.072 412.577 502.322 411.793 502.322 410.827 L 502.322 393.052 C 502.322 392.082 503.072 391.301 504.043 391.301 Z" style="fill: rgb(30, 30, 30);" transform="matrix(0.965926, -0.258819, 0.258819, 0.965926, -86.551588, 146.455054)"/>
  <path id="path83" d="M 529.665 382.537 C 527.67 382.537 526.045 384.19 526.045 386.186 L 526.045 403.961 C 526.045 405.955 527.67 407.61 529.665 407.61 L 547.467 407.61 C 549.464 407.61 551.087 405.957 551.087 403.961 L 551.087 386.186 C 551.087 384.192 549.462 382.537 547.467 382.537 L 529.665 382.537 Z M 529.665 384.435 L 547.467 384.435 C 548.439 384.435 549.189 385.217 549.189 386.186 L 549.189 403.961 C 549.189 404.928 548.438 405.711 547.467 405.711 L 529.665 405.711 C 528.694 405.711 527.944 404.927 527.944 403.961 L 527.944 386.186 C 527.944 385.216 528.694 384.435 529.665 384.435 Z" style="fill: rgb(30, 30, 30);" transform="matrix(0.965926, -0.258819, 0.258819, 0.965926, -83.901284, 152.852766)"/>
  <path id="path85" d="M 555.319 375.671 C 553.325 375.671 551.669 377.324 551.669 379.32 L 551.669 397.095 C 551.669 399.089 553.322 400.744 555.319 400.744 L 573.091 400.744 C 575.087 400.744 576.71 399.091 576.71 397.095 L 576.71 379.32 C 576.71 377.326 575.085 375.671 573.091 375.671 L 555.319 375.671 Z M 555.319 377.569 L 573.091 377.569 C 574.059 377.569 574.812 378.351 574.812 379.32 L 574.812 397.095 C 574.812 398.062 574.059 398.845 573.091 398.845 L 555.319 398.845 C 554.351 398.845 553.57 398.061 553.57 397.095 L 553.57 379.32 C 553.569 378.35 554.351 377.569 555.319 377.569 Z" style="fill: rgb(30, 30, 30);" transform="matrix(0.965926, -0.258819, 0.258819, 0.965926, -81.251284, 159.251073)"/>
  <path id="path87" d="M 580.941 368.802 C 578.948 368.802 577.292 370.455 577.292 372.451 L 577.292 390.226 C 577.292 392.22 578.946 393.875 580.941 393.875 L 598.714 393.875 C 600.709 393.875 602.363 392.222 602.363 390.226 L 602.363 372.451 C 602.363 370.457 600.709 368.802 598.714 368.802 L 580.941 368.802 Z M 580.941 370.7 L 598.714 370.7 C 599.682 370.7 600.464 371.482 600.464 372.451 L 600.464 390.226 C 600.464 391.193 599.682 391.976 598.714 391.976 L 580.941 391.976 C 579.972 391.976 579.191 391.192 579.191 390.226 L 579.191 372.451 C 579.191 371.481 579.972 370.7 580.941 370.7 Z" style="fill: rgb(30, 30, 30);" transform="matrix(0.965926, -0.258819, 0.258819, 0.965926, -78.599722, 165.652205)"/>
  <path id="path89" d="M 606.555 361.934 C 604.56 361.934 602.937 363.587 602.937 365.583 L 602.937 383.358 C 602.937 385.352 604.558 387.007 606.555 387.007 L 624.328 387.007 C 626.326 387.007 627.977 385.354 627.977 383.358 L 627.977 365.583 C 627.977 363.589 626.323 361.934 624.328 361.934 L 606.555 361.934 Z M 606.555 363.832 L 624.328 363.832 C 625.3 363.832 626.078 364.614 626.078 365.583 L 626.078 383.358 C 626.078 384.325 625.297 385.108 624.328 385.108 L 606.555 385.108 C 605.586 385.108 604.836 384.324 604.836 383.358 L 604.836 365.583 C 604.833 364.613 605.586 363.832 606.555 363.832 Z" style="fill: rgb(30, 30, 30);" transform="matrix(0.965926, -0.258819, 0.258819, 0.965926, -75.94893, 172.051851)"/>
  <path id="path91" d="M 632.177 355.069 C 630.185 355.069 628.559 356.722 628.559 358.718 L 628.559 376.493 C 628.559 378.487 630.182 380.142 632.177 380.142 L 649.953 380.142 C 651.948 380.142 653.601 378.489 653.601 376.493 L 653.601 358.718 C 653.601 356.724 651.948 355.069 649.953 355.069 L 632.177 355.069 Z M 632.177 356.967 L 649.953 356.967 C 650.919 356.967 651.701 357.749 651.701 358.718 L 651.701 376.493 C 651.701 377.46 650.919 378.243 649.953 378.243 L 632.177 378.243 C 631.208 378.243 630.458 377.459 630.458 376.493 L 630.458 358.718 C 630.458 357.748 631.208 356.967 632.177 356.967 Z" style="fill: rgb(30, 30, 30);" transform="matrix(0.965926, -0.258819, 0.258819, 0.965926, -73.299053, 178.449653)"/>
  <path id="path93" d="M 798.932 270.889 C 796.937 270.889 795.283 272.512 795.283 274.506 L 795.283 292.309 C 795.283 294.303 796.937 295.926 798.932 295.926 L 816.703 295.926 C 818.697 295.926 820.354 294.304 820.354 292.309 L 820.354 274.506 C 820.354 272.512 818.7 270.889 816.703 270.889 L 798.932 270.889 Z M 798.932 272.786 L 816.703 272.786 C 817.671 272.786 818.455 273.539 818.455 274.506 L 818.455 292.309 C 818.455 293.279 817.671 294.029 816.703 294.029 L 798.932 294.029 C 797.96 294.029 797.181 293.279 797.181 292.309 L 797.181 274.506 C 797.181 273.536 797.963 272.786 798.932 272.786 Z" style="fill: rgb(30, 30, 30);" transform="matrix(0.965926, -0.258819, 0.258819, 0.965926, -45.82551, 218.735664)"/>
  <path id="path95" d="M 824.545 264.022 C 822.549 264.022 820.924 265.645 820.924 267.639 L 820.924 285.442 C 820.924 287.436 822.549 289.059 824.545 289.059 L 842.317 289.059 C 844.314 289.059 845.965 287.436 845.965 285.442 L 845.965 267.639 C 845.965 265.645 844.317 264.022 842.317 264.022 L 824.545 264.022 Z M 824.545 265.919 L 842.317 265.919 C 843.29 265.919 844.069 266.669 844.069 267.639 L 844.069 285.442 C 844.069 286.412 843.29 287.162 842.317 287.162 L 824.545 287.162 C 823.575 287.162 822.824 286.412 822.824 285.442 L 822.824 267.639 C 822.824 266.669 823.579 265.919 824.545 265.919 Z" style="fill: rgb(30, 30, 30);" transform="matrix(0.965926, -0.258819, 0.258819, 0.965926, -43.17501, 225.134191)"/>
  <path id="path97" d="M 850.169 257.155 C 848.175 257.155 846.549 258.778 846.549 260.772 L 846.549 278.575 C 846.549 280.569 848.175 282.192 850.169 282.192 L 867.969 282.192 C 869.964 282.192 871.594 280.57 871.594 278.575 L 871.594 260.772 C 871.594 258.778 869.966 257.155 867.969 257.155 L 850.169 257.155 Z M 850.169 259.052 L 867.969 259.052 C 868.938 259.052 869.69 259.805 869.69 260.772 L 869.69 278.575 C 869.69 279.545 868.938 280.295 867.969 280.295 L 850.169 280.295 C 849.201 280.295 848.448 279.545 848.448 278.575 L 848.448 260.772 C 848.448 259.802 849.201 259.052 850.169 259.052 Z" style="fill: rgb(30, 30, 30);" transform="matrix(0.965926, -0.258819, 0.258819, 0.965926, -40.524479, 231.532961)"/>
  <path id="path99" d="M 657.802 348.203 C 655.806 348.203 654.182 349.856 654.182 351.852 L 654.182 369.627 C 654.182 371.621 655.804 373.276 657.802 373.276 L 675.604 373.276 C 677.598 373.276 679.223 371.623 679.223 369.627 L 679.223 351.852 C 679.223 349.858 677.598 348.203 675.604 348.203 L 657.802 348.203 Z M 657.802 350.101 L 675.604 350.101 C 676.575 350.101 677.325 350.883 677.325 351.852 L 677.325 369.627 C 677.325 370.593 676.57 371.377 675.604 371.377 L 657.802 371.377 C 656.833 371.377 656.08 370.593 656.08 369.627 L 656.08 351.852 C 656.08 350.883 656.833 350.101 657.802 350.101 Z" style="fill: rgb(30, 30, 30);" transform="matrix(0.965926, -0.258819, 0.258819, 0.965926, -70.648912, 184.847201)"/>
  <path id="path101" d="M 683.426 341.337 C 681.431 341.337 679.804 342.99 679.804 344.986 L 679.804 362.761 C 679.804 364.755 681.428 366.41 683.426 366.41 L 701.226 366.41 C 703.225 366.41 704.848 364.757 704.848 362.761 L 704.848 344.986 C 704.848 342.992 703.225 341.337 701.226 341.337 L 683.426 341.337 Z M 683.426 343.235 L 701.226 343.235 C 702.197 343.235 702.95 344.017 702.95 344.986 L 702.95 362.761 C 702.95 363.728 702.197 364.511 701.226 364.511 L 683.426 364.511 C 682.455 364.511 681.705 363.727 681.705 362.761 L 681.705 344.986 C 681.705 344.016 682.455 343.235 683.426 343.235 Z" style="fill: rgb(30, 30, 30);" transform="matrix(0.965926, -0.258819, 0.258819, 0.965926, -67.998784, 191.245204)"/>
  <path id="path103" d="M 709.077 334.471 C 707.084 334.471 705.428 336.124 705.428 338.12 L 705.428 355.895 C 705.428 357.889 707.08 359.544 709.077 359.544 L 726.85 359.544 C 728.847 359.544 730.47 357.891 730.47 355.895 L 730.47 338.12 C 730.47 336.126 728.843 334.471 726.85 334.471 L 709.077 334.471 Z M 709.077 336.369 L 726.85 336.369 C 727.822 336.369 728.571 337.151 728.571 338.12 L 728.571 355.895 C 728.571 356.862 727.819 357.645 726.85 357.645 L 709.077 357.645 C 708.11 357.645 707.325 356.861 707.325 355.895 L 707.325 338.12 C 707.325 337.151 708.106 336.369 709.077 336.369 Z" style="fill: rgb(30, 30, 30);" transform="matrix(0.965926, -0.258819, 0.258819, 0.965926, -65.348633, 197.642853)"/>
  <path id="path105" d="M 734.691 327.604 C 732.697 327.604 731.042 329.257 731.042 331.253 L 731.042 349.028 C 731.042 351.022 732.696 352.677 734.691 352.677 L 752.462 352.677 C 754.459 352.677 756.113 351.024 756.113 349.028 L 756.113 331.253 C 756.113 329.259 754.459 327.604 752.462 327.604 L 734.691 327.604 Z M 734.691 329.502 L 752.462 329.502 C 753.433 329.502 754.214 330.284 754.214 331.253 L 754.214 349.028 C 754.214 349.995 753.431 350.778 752.462 350.778 L 734.691 350.778 C 733.722 350.778 732.939 349.994 732.939 349.028 L 732.939 331.253 C 732.939 330.283 733.72 329.502 734.691 329.502 Z" style="fill: rgb(30, 30, 30);" transform="matrix(0.965926, -0.258819, 0.258819, 0.965926, -62.69805, 204.042015)"/>
  <path id="path107" d="M 760.315 320.735 C 758.318 320.735 756.694 322.388 756.694 324.384 L 756.694 342.159 C 756.694 344.153 758.318 345.808 760.315 345.808 L 778.089 345.808 C 780.081 345.808 781.735 344.155 781.735 342.159 L 781.735 324.384 C 781.735 322.39 780.081 320.735 778.089 320.735 L 760.315 320.735 Z M 760.315 322.633 L 778.089 322.633 C 779.056 322.633 779.837 323.415 779.837 324.384 L 779.837 342.159 C 779.837 343.125 779.053 343.909 778.089 343.909 L 760.315 343.909 C 759.345 343.909 758.594 343.125 758.594 342.159 L 758.594 324.384 C 758.594 323.415 759.345 322.633 760.315 322.633 Z" style="fill: rgb(30, 30, 30);" transform="matrix(0.965926, -0.258819, 0.258819, 0.965926, -60.046659, 210.443294)"/>
  <path id="path109" d="M 428.301 463.908 C 426.305 463.908 424.651 465.534 424.651 467.528 L 424.651 485.299 C 424.651 487.296 426.305 488.949 428.301 488.949 L 451.89 488.949 C 453.885 488.949 455.539 487.296 455.539 485.299 L 455.539 484.35 L 455.539 467.528 C 455.539 465.534 453.887 463.908 451.89 463.908 L 428.301 463.908 Z M 428.301 465.808 L 451.89 465.808 C 452.861 465.808 453.641 466.561 453.641 467.528 L 453.641 485.299 C 453.641 486.272 452.861 487.051 451.89 487.051 L 428.301 487.051 C 427.331 487.051 426.551 486.272 426.551 485.299 L 426.551 467.528 C 426.551 466.558 427.334 465.808 428.301 465.808 Z" style="fill: rgb(30, 30, 30);" transform="matrix(0.965926, -0.258819, 0.258819, 0.965926, -108.312998, 130.139033)"/>
  <path id="path111" d="M 459.639 456.286 C 457.645 456.286 456.021 457.909 456.021 459.906 L 456.021 477.677 C 456.021 479.674 457.642 481.327 459.639 481.327 L 477.41 481.327 C 479.408 481.327 481.062 479.674 481.062 477.677 L 481.062 459.906 C 481.062 457.909 479.409 456.286 477.41 456.286 L 459.639 456.286 Z M 459.639 458.186 L 477.41 458.186 C 478.384 458.186 479.164 458.936 479.164 459.906 L 479.164 477.677 C 479.164 478.649 478.384 479.429 477.41 479.429 L 459.639 479.429 C 458.669 479.429 457.918 478.647 457.918 477.677 L 457.918 459.906 C 457.918 458.933 458.669 458.186 459.639 458.186 Z" style="fill: rgb(30, 30, 30);" transform="matrix(0.965926, -0.258819, 0.258819, 0.965926, -105.370807, 137.241505)"/>
  <path id="path113" d="M 485.264 449.42 C 483.269 449.42 481.644 451.043 481.644 453.04 L 481.644 470.811 C 481.644 472.807 483.267 474.461 485.264 474.461 L 503.067 474.461 C 505.062 474.461 506.686 472.808 506.686 470.811 L 506.686 453.04 C 506.686 451.046 505.063 449.42 503.067 449.42 L 485.264 449.42 Z M 485.264 451.32 L 503.067 451.32 C 504.036 451.32 504.787 452.07 504.787 453.04 L 504.787 470.811 C 504.787 471.783 504.036 472.563 503.067 472.563 L 485.264 472.563 C 484.294 472.563 483.544 471.781 483.544 470.811 L 483.544 453.04 C 483.544 452.067 484.295 451.32 485.264 451.32 Z" style="fill: rgb(30, 30, 30);" transform="matrix(0.965926, -0.258819, 0.258819, 0.965926, -102.720669, 143.639438)"/>
  <path id="path115" d="M 510.88 442.556 C 508.884 442.556 507.261 444.179 507.261 446.176 L 507.261 463.947 C 507.261 465.944 508.883 467.597 510.88 467.597 L 528.68 467.597 C 530.678 467.597 532.303 465.944 532.303 463.947 L 532.303 446.176 C 532.303 444.179 530.678 442.556 528.68 442.556 L 510.88 442.556 Z M 510.88 444.456 L 528.68 444.456 C 529.652 444.456 530.402 445.206 530.402 446.176 L 530.402 463.947 C 530.402 464.919 529.652 465.699 528.68 465.699 L 510.88 465.699 C 509.909 465.699 509.159 464.917 509.159 463.947 L 509.159 446.176 C 509.159 445.203 509.909 444.456 510.88 444.456 Z" style="fill: rgb(30, 30, 30);" transform="matrix(0.965926, -0.258819, 0.258819, 0.965926, -100.071433, 150.036056)"/>
  <path id="path117" d="M 536.53 435.691 C 534.538 435.691 532.884 437.314 532.884 439.311 L 532.884 457.082 C 532.884 459.078 534.537 460.732 536.53 460.732 L 554.304 460.732 C 556.3 460.732 557.923 459.079 557.923 457.082 L 557.923 439.311 C 557.923 437.317 556.3 435.691 554.304 435.691 L 536.53 435.691 Z M 536.53 437.591 L 554.304 437.591 C 555.275 437.591 556.025 438.341 556.025 439.311 L 556.025 457.082 C 556.025 458.054 555.272 458.834 554.304 458.834 L 536.53 458.834 C 535.561 458.834 534.78 458.052 534.78 457.082 L 534.78 439.311 C 534.78 438.338 535.561 437.591 536.53 437.591 Z" style="fill: rgb(30, 30, 30);" transform="matrix(0.965926, -0.258819, 0.258819, 0.965926, -97.421565, 156.433386)"/>
  <path id="path119" d="M 562.154 428.822 C 560.159 428.822 558.503 430.445 558.503 432.442 L 558.503 450.213 C 558.503 452.21 560.159 453.863 562.154 453.863 L 579.927 453.863 C 581.922 453.863 583.576 452.21 583.576 450.213 L 583.576 432.442 C 583.576 430.445 581.924 428.822 579.927 428.822 L 562.154 428.822 Z M 562.154 430.722 L 579.927 430.722 C 580.896 430.722 581.677 431.472 581.677 432.442 L 581.677 450.213 C 581.677 451.185 580.896 451.965 579.927 451.965 L 562.154 451.965 C 561.184 451.965 560.404 451.183 560.404 450.213 L 560.404 432.442 C 560.404 431.469 561.184 430.722 562.154 430.722 Z" style="fill: rgb(30, 30, 30);" transform="matrix(0.965926, -0.258819, 0.258819, 0.965926, -94.770076, 162.834094)"/>
  <path id="path121" d="M 587.778 421.956 C 585.783 421.956 584.129 423.579 584.129 425.576 L 584.129 443.347 C 584.129 445.344 585.783 446.997 587.778 446.997 L 605.549 446.997 C 607.546 446.997 609.198 445.344 609.198 443.347 L 609.198 425.576 C 609.198 423.579 607.546 421.956 605.549 421.956 L 587.778 421.956 Z M 587.778 423.856 L 605.549 423.856 C 606.521 423.856 607.299 424.606 607.299 425.576 L 607.299 443.347 C 607.299 444.319 606.52 445.099 605.549 445.099 L 587.778 445.099 C 586.809 445.099 586.026 444.317 586.026 443.347 L 586.026 425.576 C 586.026 424.603 586.809 423.856 587.778 423.856 Z" style="fill: rgb(30, 30, 30);" transform="matrix(0.965926, -0.258819, 0.258819, 0.965926, -92.119899, 169.232122)"/>
  <path id="path123" d="M 613.392 415.088 C 611.398 415.088 609.773 416.711 609.773 418.708 L 609.773 436.479 C 609.773 438.476 611.397 440.129 613.392 440.129 L 631.165 440.129 C 633.158 440.129 634.814 438.476 634.814 436.479 L 634.814 418.708 C 634.814 416.711 633.158 415.088 631.165 415.088 L 613.392 415.088 Z M 613.392 416.988 L 631.165 416.988 C 632.132 416.988 632.916 417.738 632.916 418.708 L 632.916 436.479 C 632.916 437.451 632.132 438.231 631.165 438.231 L 613.392 438.231 C 612.424 438.231 611.669 437.449 611.669 436.479 L 611.669 418.708 C 611.669 417.735 612.423 416.988 613.392 416.988 Z" style="fill: rgb(30, 30, 30);" transform="matrix(0.965926, -0.258819, 0.258819, 0.965926, -89.46902, 175.631623)"/>
  <path id="path125" d="M 639.014 408.223 C 637.022 408.223 635.395 409.846 635.395 411.843 L 635.395 429.614 C 635.395 431.61 637.019 433.264 639.014 433.264 L 656.819 433.264 C 658.814 433.264 660.437 431.611 660.437 429.614 L 660.437 411.843 C 660.437 409.849 658.814 408.223 656.819 408.223 L 639.014 408.223 Z M 639.014 410.123 L 656.819 410.123 C 657.79 410.123 658.538 410.873 658.538 411.843 L 658.538 429.614 C 658.538 430.586 657.788 431.366 656.819 431.366 L 639.014 431.366 C 638.046 431.366 637.295 430.584 637.295 429.614 L 637.295 411.843 C 637.295 410.87 638.046 410.123 639.014 410.123 Z" style="fill: rgb(30, 30, 30);" transform="matrix(0.965926, -0.258819, 0.258819, 0.965926, -86.819164, 182.029295)"/>
  <path id="path127" d="M 664.639 401.357 C 662.642 401.357 661.019 402.98 661.019 404.977 L 661.019 422.748 C 661.019 424.744 662.642 426.398 664.639 426.398 L 682.441 426.398 C 684.436 426.398 686.058 424.745 686.058 422.748 L 686.058 404.977 C 686.058 402.983 684.436 401.357 682.441 401.357 L 664.639 401.357 Z M 664.639 403.257 L 682.441 403.257 C 683.413 403.257 684.162 404.007 684.162 404.977 L 684.162 422.748 C 684.162 423.72 683.41 424.5 682.441 424.5 L 664.639 424.5 C 663.67 424.5 662.918 423.718 662.918 422.748 L 662.918 404.977 C 662.918 404.004 663.67 403.257 664.639 403.257 Z" style="fill: rgb(30, 30, 30);" transform="matrix(0.965926, -0.258819, 0.258819, 0.965926, -84.169055, 188.426906)"/>
  <path id="path129" d="M 690.29 394.491 C 688.295 394.491 686.641 396.115 686.641 398.111 L 686.641 415.882 C 686.641 417.879 688.295 419.533 690.29 419.533 L 708.063 419.533 C 710.06 419.532 711.683 417.879 711.683 415.882 L 711.683 398.111 C 711.683 396.115 710.06 394.491 708.063 394.491 L 690.29 394.491 Z M 690.29 396.391 L 708.063 396.391 C 709.034 396.391 709.785 397.141 709.785 398.111 L 709.785 415.882 C 709.785 416.852 709.03 417.634 708.063 417.634 L 690.29 417.634 C 689.321 417.634 688.54 416.852 688.54 415.882 L 688.54 398.111 C 688.54 397.138 689.321 396.391 690.29 396.391 Z" style="fill: rgb(30, 30, 30);" transform="matrix(0.965926, -0.258819, 0.258819, 0.965926, -81.519084, 194.825013)"/>
  <path id="path131" d="M 715.914 387.622 C 713.919 387.622 712.263 389.245 712.263 391.242 L 712.263 409.013 C 712.263 411.009 713.919 412.663 715.914 412.663 L 733.685 412.663 C 735.68 412.663 737.336 411.01 737.336 409.013 L 737.336 391.242 C 737.336 389.248 735.68 387.622 733.685 387.622 L 715.914 387.622 Z M 715.914 389.522 L 733.685 389.522 C 734.657 389.522 735.436 390.272 735.436 391.242 L 735.436 409.013 C 735.436 409.985 734.657 410.765 733.685 410.765 L 715.914 410.765 C 714.943 410.765 714.164 409.983 714.164 409.013 L 714.164 391.242 C 714.164 390.269 714.943 389.522 715.914 389.522 Z" style="fill: rgb(30, 30, 30);" transform="matrix(0.965926, -0.258819, 0.258819, 0.965926, -78.867636, 201.226737)"/>
  <path id="path133" d="M 741.529 380.754 C 739.534 380.754 737.909 382.377 737.909 384.374 L 737.909 402.145 C 737.909 404.142 739.534 405.795 741.529 405.795 L 759.299 405.795 C 761.297 405.795 762.951 404.142 762.951 402.145 L 762.951 384.374 C 762.951 382.38 761.297 380.754 759.299 380.754 L 741.529 380.754 Z M 741.529 382.654 L 759.299 382.654 C 760.271 382.654 761.052 383.404 761.052 384.374 L 761.052 402.145 C 761.052 403.117 760.271 403.897 759.299 403.897 L 741.529 403.897 C 740.558 403.897 739.807 403.115 739.807 402.145 L 739.807 384.374 C 739.807 383.401 740.557 382.654 741.529 382.654 Z" style="fill: rgb(30, 30, 30);" transform="matrix(0.965926, -0.258819, 0.258819, 0.965926, -76.216671, 207.626177)"/>
  <path id="path135" d="M 767.151 373.889 C 765.158 373.889 763.531 375.512 763.531 377.509 L 763.531 395.28 C 763.531 397.276 765.156 398.93 767.151 398.93 L 784.953 398.93 C 786.95 398.93 788.573 397.277 788.573 395.28 L 788.573 377.509 C 788.573 375.515 786.95 373.889 784.953 373.889 L 767.151 373.889 Z M 767.151 375.789 L 784.953 375.789 C 785.924 375.789 786.674 376.539 786.674 377.509 L 786.674 395.28 C 786.674 396.252 785.924 397.032 784.953 397.032 L 767.151 397.032 C 766.18 397.032 765.429 396.25 765.429 395.28 L 765.429 377.509 C 765.429 376.536 766.18 375.789 767.151 375.789 Z" style="fill: rgb(30, 30, 30);" transform="matrix(0.965926, -0.258819, 0.258819, 0.965926, -73.566797, 214.023607)"/>
  <path id="path137" d="M 440.676 487.158 C 438.678 487.158 437.025 488.811 437.025 490.808 L 437.025 508.579 C 437.025 510.574 438.678 512.228 440.676 512.228 L 470.968 512.228 C 472.962 512.228 474.616 510.576 474.616 508.579 L 474.616 490.808 C 474.616 488.811 472.964 487.158 470.968 487.158 L 440.676 487.158 Z M 440.676 489.055 L 470.968 489.055 C 471.938 489.055 472.719 489.838 472.719 490.808 L 472.719 508.579 C 472.719 509.549 471.938 510.331 470.968 510.331 L 440.676 510.331 C 439.703 510.331 438.922 509.549 438.922 508.579 L 438.922 490.808 C 438.922 489.838 439.706 489.055 440.676 489.055 Z" style="fill: rgb(30, 30, 30);" transform="matrix(0.965926, -0.258819, 0.258819, 0.965926, -113.798468, 135.001824)"/>
  <path id="path139" d="M 478.602 478.669 C 476.607 478.669 474.982 480.322 474.982 482.319 L 474.982 500.09 C 474.982 502.085 476.606 503.739 478.602 503.739 L 496.404 503.739 C 498.4 503.739 500.024 502.087 500.024 500.09 L 500.024 482.319 C 500.024 480.322 498.401 478.669 496.404 478.669 L 478.602 478.669 Z M 478.602 480.566 L 496.404 480.566 C 497.374 480.566 498.124 481.349 498.124 482.319 L 498.124 500.09 C 498.124 501.06 497.374 501.842 496.404 501.842 L 478.602 501.842 C 477.633 501.842 476.882 501.06 476.882 500.09 L 476.882 482.319 C 476.882 481.349 477.634 480.566 478.602 480.566 Z" style="fill: rgb(30, 30, 30);" transform="matrix(0.965926, -0.258819, 0.258819, 0.965926, -110.521567, 142.912231)"/>
  <path id="path141" d="M 504.221 471.804 C 502.226 471.804 500.603 473.457 500.603 475.454 L 500.603 493.225 C 500.603 495.22 502.225 496.874 504.221 496.874 L 522.022 496.874 C 524.019 496.874 525.644 495.222 525.644 493.225 L 525.644 475.454 C 525.644 473.457 524.02 471.804 522.022 471.804 L 504.221 471.804 Z M 504.221 473.701 L 522.022 473.701 C 522.994 473.701 523.743 474.484 523.743 475.454 L 523.743 493.225 C 523.743 494.195 522.994 494.977 522.022 494.977 L 504.221 494.977 C 503.25 494.977 502.5 494.195 502.5 493.225 L 502.5 475.454 C 502.5 474.484 503.253 473.701 504.221 473.701 Z" style="fill: rgb(30, 30, 30);" transform="matrix(0.965926, -0.258819, 0.258819, 0.965926, -107.871974, 149.309716)"/>
  <path id="path143" d="M 529.874 464.938 C 527.876 464.938 526.225 466.593 526.225 468.588 L 526.225 486.359 C 526.225 488.354 527.876 490.008 529.874 490.008 L 547.646 490.008 C 549.642 490.008 551.266 488.356 551.266 486.359 L 551.266 468.588 C 551.266 466.591 549.642 464.938 547.646 464.938 L 529.874 464.938 Z M 529.874 466.835 L 547.646 466.835 C 548.615 466.835 549.368 467.618 549.368 468.588 L 549.368 486.359 C 549.368 487.329 548.618 488.111 547.646 488.111 L 529.874 488.111 C 528.902 488.111 528.123 487.329 528.123 486.359 L 528.123 468.588 C 528.123 467.617 528.902 466.835 529.874 466.835 Z" style="fill: rgb(30, 30, 30);" transform="matrix(0.965926, -0.258819, 0.258819, 0.965926, -105.221753, 155.707007)"/>
  <path id="path145" d="M 555.496 458.069 C 553.501 458.069 551.847 459.724 551.847 461.719 L 551.847 479.49 C 551.847 481.485 553.5 483.139 555.496 483.139 L 573.269 483.139 C 575.266 483.139 576.92 481.487 576.92 479.49 L 576.92 461.719 C 576.92 459.722 575.268 458.069 573.269 458.069 L 555.496 458.069 Z M 555.496 459.966 L 573.269 459.966 C 574.24 459.966 575.019 460.749 575.019 461.719 L 575.019 479.49 C 575.019 480.46 574.24 481.242 573.269 481.242 L 555.496 481.242 C 554.529 481.242 553.748 480.46 553.748 479.49 L 553.748 461.719 C 553.745 460.748 554.527 459.966 555.496 459.966 Z" style="fill: rgb(30, 30, 30);" transform="matrix(0.965926, -0.258819, 0.258819, 0.965926, -102.570486, 162.108876)"/>
  <path id="path147" d="M 581.12 451.203 C 579.123 451.203 577.472 452.858 577.472 454.853 L 577.472 472.624 C 577.472 474.619 579.123 476.273 581.12 476.273 L 598.893 476.273 C 600.888 476.273 602.542 474.621 602.542 472.624 L 602.542 454.853 C 602.542 452.856 600.888 451.203 598.893 451.203 L 581.12 451.203 Z M 581.12 453.1 L 598.893 453.1 C 599.864 453.1 600.643 453.883 600.643 454.853 L 600.643 472.624 C 600.643 473.594 599.864 474.376 598.893 474.376 L 581.12 474.376 C 580.149 474.376 579.37 473.594 579.37 472.624 L 579.37 454.853 C 579.37 453.882 580.149 453.1 581.12 453.1 Z" style="fill: rgb(30, 30, 30);" transform="matrix(0.965926, -0.258819, 0.258819, 0.965926, -99.920182, 168.506438)"/>
  <path id="path149" d="M 606.734 444.336 C 604.739 444.336 603.114 445.989 603.114 447.986 L 603.114 465.757 C 603.114 467.752 604.737 469.406 606.734 469.406 L 624.508 469.406 C 626.502 469.406 628.156 467.754 628.156 465.757 L 628.156 447.986 C 628.156 445.991 626.503 444.336 624.508 444.336 L 606.734 444.336 Z M 606.734 446.233 L 624.508 446.233 C 625.474 446.233 626.26 447.016 626.26 447.986 L 626.26 465.757 C 626.26 466.727 625.474 467.509 624.508 467.509 L 606.734 467.509 C 605.763 467.509 605.013 466.727 605.013 465.757 L 605.013 447.986 C 605.013 447.016 605.765 446.233 606.734 446.233 Z" style="fill: rgb(30, 30, 30);" transform="matrix(0.965926, -0.258819, 0.258819, 0.965926, -97.269727, 174.905739)"/>
  <path id="path151" d="M 632.356 437.47 C 630.364 437.47 628.739 439.123 628.739 441.12 L 628.739 458.891 C 628.739 460.888 630.361 462.54 632.356 462.54 L 650.159 462.54 C 652.156 462.54 653.778 460.888 653.778 458.891 L 653.778 441.12 C 653.778 439.125 652.156 437.47 650.159 437.47 L 632.356 437.47 Z M 632.356 439.367 L 650.159 439.367 C 651.13 439.367 651.88 440.15 651.88 441.12 L 651.88 458.891 C 651.88 459.861 651.13 460.643 650.159 460.643 L 632.356 460.643 C 631.388 460.643 630.637 459.861 630.637 458.891 L 630.637 441.12 C 630.637 440.15 631.388 439.367 632.356 439.367 Z" style="fill: rgb(30, 30, 30);" transform="matrix(0.965926, -0.258819, 0.258819, 0.965926, -94.619575, 181.303645)"/>
  <path id="path153" d="M 658.01 430.605 C 656.015 430.605 654.358 432.258 654.358 434.255 L 654.358 452.026 C 654.358 454.021 656.012 455.675 658.01 455.675 L 675.781 455.675 C 677.778 455.675 679.402 454.023 679.402 452.026 L 679.402 434.255 C 679.402 432.26 677.778 430.605 675.781 430.605 L 658.01 430.605 Z M 658.01 432.502 L 675.781 432.502 C 676.752 432.502 677.502 433.285 677.502 434.255 L 677.502 452.026 C 677.502 452.996 676.752 453.778 675.781 453.778 L 658.01 453.778 C 657.041 453.778 656.26 452.996 656.26 452.026 L 656.26 434.255 C 656.26 433.285 657.041 432.502 658.01 432.502 Z" style="fill: rgb(30, 30, 30);" transform="matrix(0.965926, -0.258819, 0.258819, 0.965926, -91.969621, 187.700663)"/>
  <path id="path155" d="M 683.632 423.738 C 681.637 423.738 679.985 425.391 679.985 427.388 L 679.985 445.159 C 679.985 447.156 681.637 448.808 683.632 448.808 L 701.407 448.808 C 703.4 448.808 705.027 447.156 705.027 445.159 L 705.027 427.388 C 705.027 425.393 703.403 423.738 701.407 423.738 L 683.632 423.738 Z M 683.632 425.635 L 701.407 425.635 C 702.374 425.635 703.127 426.418 703.127 427.388 L 703.127 445.159 C 703.127 446.129 702.374 446.911 701.407 446.911 L 683.632 446.911 C 682.663 446.911 681.882 446.129 681.882 445.159 L 681.882 427.388 C 681.882 426.418 682.663 425.635 683.632 425.635 Z" style="fill: rgb(30, 30, 30);" transform="matrix(0.965926, -0.258819, 0.258819, 0.965926, -89.319133, 194.099172)"/>
  <path id="path157" d="M 709.248 416.872 C 707.254 416.872 705.597 418.525 705.597 420.522 L 705.597 438.293 C 705.597 440.288 707.254 441.942 709.248 441.942 L 727.019 441.942 C 729.016 441.942 730.67 440.29 730.67 438.293 L 730.67 437.345 L 730.67 420.52 C 730.67 418.525 729.016 416.87 727.019 416.87 L 709.248 416.87 Z M 709.248 418.769 L 727.019 418.769 C 727.988 418.769 728.771 419.552 728.771 420.522 L 728.771 438.293 C 728.771 439.263 727.988 440.045 727.019 440.045 L 709.248 440.045 C 708.277 440.045 707.496 439.263 707.496 438.293 L 707.496 420.522 C 707.496 419.552 708.279 418.769 709.248 418.769 Z" style="fill: rgb(30, 30, 30);" transform="matrix(0.965926, -0.258819, 0.258819, 0.965926, -86.668697, 200.498462)"/>
  <path id="path159" d="M 734.871 410.002 C 732.875 410.002 731.251 411.655 731.251 413.652 L 731.251 431.423 C 731.251 433.42 732.875 435.072 734.871 435.072 L 752.644 435.072 C 754.636 435.072 756.292 433.42 756.292 431.423 L 756.292 413.652 C 756.292 411.657 754.641 410.002 752.644 410.002 L 734.871 410.002 Z M 734.871 411.899 L 752.644 411.899 C 753.613 411.899 754.394 412.682 754.394 413.652 L 754.394 431.423 C 754.394 432.393 753.613 433.175 752.644 433.175 L 734.871 433.175 C 733.899 433.175 733.149 432.393 733.149 431.423 L 733.149 413.652 C 733.149 412.682 733.902 411.899 734.871 411.899 Z" style="fill: rgb(30, 30, 30);" transform="matrix(0.965926, -0.258819, 0.258819, 0.965926, -84.017268, 206.900017)"/>
  <path id="path161" d="M 760.251 401.282 C 758.254 401.282 756.631 402.935 756.631 404.932 L 756.631 422.703 C 756.631 424.698 758.254 426.352 760.251 426.352 L 792.355 426.352 C 794.348 426.352 796.001 424.7 796.001 422.703 L 796.001 404.932 C 796.001 402.937 794.352 401.282 792.355 401.282 L 760.251 401.282 Z M 760.251 403.179 L 792.355 403.179 C 793.322 403.179 794.103 403.962 794.103 404.932 L 794.103 422.703 C 794.103 423.673 793.322 424.455 792.355 424.455 L 760.251 424.455 C 759.28 424.455 758.527 423.673 758.527 422.703 L 758.527 404.932 C 758.527 403.962 759.282 403.179 760.251 403.179 Z" style="fill: rgb(30, 30, 30);" transform="matrix(0.965926, -0.258819, 0.258819, 0.965926, -80.651449, 215.026026)"/>
  <path id="path163" d="M 485.502 504.317 C 483.505 504.317 481.851 505.94 481.851 507.937 L 481.851 525.737 C 481.851 527.734 483.505 529.359 485.502 529.359 L 503.273 529.359 C 505.269 529.359 506.923 527.734 506.923 525.737 L 506.923 524.789 L 506.923 507.937 C 506.923 505.942 505.27 504.317 503.273 504.317 L 485.502 504.317 Z M 485.502 506.216 L 503.273 506.216 C 504.243 506.216 505.023 506.968 505.023 507.937 L 505.023 525.737 C 505.023 526.71 504.243 527.46 503.273 527.46 L 485.502 527.46 C 484.532 527.46 483.751 526.708 483.751 525.737 L 483.751 507.937 C 483.751 506.968 484.532 506.216 485.502 506.216 Z" style="fill: rgb(30, 30, 30);" transform="matrix(0.965926, -0.258819, 0.258819, 0.965926, -116.921809, 145.567794)"/>
  <path id="path165" d="M 511.118 497.452 C 509.124 497.452 507.469 499.075 507.469 501.072 L 507.469 518.873 C 507.469 520.87 509.124 522.495 511.118 522.495 L 528.891 522.495 C 530.888 522.495 532.542 520.87 532.542 518.873 L 532.542 501.072 C 532.542 499.075 530.888 497.452 528.891 497.452 L 511.118 497.452 Z M 511.118 499.351 L 528.891 499.351 C 529.862 499.351 530.641 500.103 530.641 501.072 L 530.641 518.873 C 530.641 519.845 529.86 520.595 528.891 520.595 L 511.118 520.595 C 510.149 520.595 509.368 519.843 509.368 518.873 L 509.368 501.072 C 509.368 500.103 510.149 499.351 511.118 499.351 Z" style="fill: rgb(30, 30, 30);" transform="matrix(0.965926, -0.258819, 0.258819, 0.965926, -114.272181, 151.9644)"/>
  <path id="path167" d="M 533.519 466.094 C 531.521 466.094 529.898 467.717 529.898 469.714 L 529.898 487.515 C 529.898 489.512 531.521 491.137 533.519 491.137 L 740.526 491.137 C 742.521 491.137 744.175 489.512 744.175 487.515 L 744.175 469.714 C 744.175 467.719 742.523 466.094 740.526 466.094 L 533.519 466.094 Z M 533.519 467.993 L 740.526 467.993 C 741.495 467.993 742.276 468.745 742.276 469.714 L 742.276 487.515 C 742.276 488.487 741.495 489.237 740.526 489.237 L 533.519 489.237 C 532.55 489.237 531.797 488.485 531.797 487.515 L 531.797 469.714 C 531.797 468.745 532.55 467.993 533.519 467.993 Z" style="fill: rgb(30, 30, 30);" transform="matrix(0.965926, -0.258819, 0.258819, 0.965926, -102.168227, 181.185409)"/>
  <path id="path169" d="M 413.935 440.144 C 411.94 440.144 410.284 441.768 410.284 443.766 L 410.284 461.567 C 410.284 463.564 411.94 465.187 413.935 465.187 L 438.41 465.187 C 440.068 465.187 441.421 464.042 441.853 462.518 L 442.06 462.518 L 442.06 461.569 L 442.06 443.767 C 442.06 441.769 440.408 440.146 438.41 440.146 L 413.935 440.146 L 413.935 440.144 Z M 413.935 442.043 L 438.41 442.043 C 439.382 442.043 440.162 442.796 440.162 443.766 L 440.162 460.618 L 440.162 461.567 C 440.162 462.537 439.382 463.287 438.41 463.287 L 413.935 463.287 C 412.966 463.287 412.185 462.534 412.185 461.567 L 412.185 443.764 C 412.185 442.795 412.966 442.043 413.935 442.043 Z" style="fill: rgb(30, 30, 30);" transform="matrix(0.965926, -0.258819, 0.258819, 0.965926, -102.637083, 125.725757)"/>
  <path id="path171" d="M 446.146 432.411 C 444.15 432.411 442.498 434.035 442.498 436.033 L 442.498 453.834 C 442.498 455.831 444.15 457.454 446.146 457.454 L 463.92 457.454 C 465.914 457.454 467.568 455.831 467.568 453.834 L 467.568 436.033 C 467.568 434.036 465.917 432.411 463.92 432.411 L 446.146 432.411 Z M 446.146 434.31 L 463.92 434.31 C 464.89 434.31 465.67 435.063 465.67 436.033 L 465.67 453.834 C 465.67 454.804 464.89 455.556 463.92 455.556 L 446.146 455.556 C 445.175 455.556 444.396 454.804 444.396 453.834 L 444.396 436.033 C 444.396 435.062 445.177 434.31 446.146 434.31 Z" style="fill: rgb(30, 30, 30);" transform="matrix(0.965926, -0.258819, 0.258819, 0.965926, -99.652023, 132.931726)"/>
  <path id="path173" d="M 471.77 425.541 C 469.774 425.541 468.15 427.165 468.15 429.163 L 468.15 446.964 C 468.15 448.961 469.774 450.584 471.77 450.584 L 489.542 450.584 C 491.537 450.584 493.192 448.961 493.192 446.964 L 493.192 429.163 C 493.192 427.166 491.538 425.541 489.542 425.541 L 471.77 425.541 Z M 471.77 427.44 L 489.542 427.44 C 490.512 427.44 491.292 428.193 491.292 429.163 L 491.292 446.964 C 491.292 447.934 490.512 448.686 489.542 448.686 L 471.77 448.686 C 470.798 448.686 470.048 447.934 470.048 446.964 L 470.048 429.163 C 470.048 428.192 470.801 427.44 471.77 427.44 Z" style="fill: rgb(30, 30, 30);" transform="matrix(0.965926, -0.258819, 0.258819, 0.965926, -97.000386, 139.333312)"/>
  <path id="path175" d="M 497.385 418.678 C 495.389 418.678 493.764 420.303 493.764 422.3 L 493.764 440.101 C 493.764 442.097 495.389 443.721 497.385 443.721 L 515.187 443.721 C 517.182 443.721 518.805 442.098 518.805 440.101 L 518.805 422.3 C 518.805 420.303 517.182 418.678 515.187 418.678 L 497.385 418.678 Z M 497.385 420.577 L 515.187 420.577 C 516.158 420.577 516.908 421.33 516.908 422.3 L 516.908 440.101 C 516.908 441.071 516.158 441.823 515.187 441.823 L 497.385 441.823 C 496.415 441.823 495.664 441.071 495.664 440.101 L 495.664 422.3 C 495.664 421.329 496.415 420.577 497.385 420.577 Z" style="fill: rgb(30, 30, 30);" transform="matrix(0.965926, -0.258819, 0.258819, 0.965926, -94.351364, 145.728707)"/>
  <path id="path177" d="M 523.007 411.812 C 521.012 411.812 519.388 413.436 519.388 415.434 L 519.388 433.235 C 519.388 435.232 521.01 436.855 523.007 436.855 L 540.811 436.855 C 542.807 436.855 544.431 435.232 544.431 433.235 L 544.431 415.434 C 544.431 413.437 542.807 411.812 540.811 411.812 L 523.007 411.812 Z M 523.007 413.711 L 540.811 413.711 C 541.783 413.711 542.531 414.463 542.531 415.434 L 542.531 433.235 C 542.531 434.205 541.781 434.957 540.811 434.957 L 523.007 434.957 C 522.038 434.957 521.288 434.205 521.288 433.235 L 521.288 415.434 C 521.288 414.463 522.038 413.711 523.007 413.711 Z" style="fill: rgb(30, 30, 30);" transform="matrix(0.965926, -0.258819, 0.258819, 0.965926, -91.701269, 152.127278)"/>
  <path id="path179" d="M 548.66 404.946 C 546.665 404.946 545.012 406.571 545.012 408.568 L 545.012 426.369 C 545.012 428.365 546.663 429.989 548.66 429.989 L 566.433 429.989 C 568.429 429.989 570.053 428.366 570.053 426.369 L 570.053 408.568 C 570.053 406.571 568.429 404.946 566.433 404.946 L 548.66 404.946 Z M 548.66 406.845 L 566.433 406.845 C 567.402 406.845 568.153 407.598 568.153 408.568 L 568.153 426.369 C 568.153 427.339 567.402 428.091 566.433 428.091 L 548.66 428.091 C 547.689 428.091 546.91 427.339 546.91 426.369 L 546.91 408.568 C 546.91 407.597 547.689 406.845 548.66 406.845 Z" style="fill: rgb(30, 30, 30);" transform="matrix(0.965926, -0.258819, 0.258819, 0.965926, -89.05115, 158.525038)"/>
  <path id="path181" d="M 574.284 398.077 C 572.287 398.077 570.633 399.701 570.633 401.699 L 570.633 419.5 C 570.633 421.497 572.287 423.12 574.284 423.12 L 592.057 423.12 C 594.05 423.12 595.706 421.497 595.706 419.5 L 595.706 401.699 C 595.706 399.702 594.052 398.077 592.057 398.077 L 574.284 398.077 Z M 574.284 399.976 L 592.057 399.976 C 593.026 399.976 593.807 400.728 593.807 401.699 L 593.807 419.5 C 593.807 420.47 593.026 421.222 592.057 421.222 L 574.284 421.222 C 573.312 421.222 572.532 420.47 572.532 419.5 L 572.532 401.699 C 572.532 400.728 573.315 399.976 574.284 399.976 Z" style="fill: rgb(30, 30, 30);" transform="matrix(0.965926, -0.258819, 0.258819, 0.965926, -86.399692, 164.926168)"/>
  <path id="path183" d="M 599.906 391.207 C 597.912 391.207 596.286 392.831 596.286 394.829 L 596.286 412.63 C 596.286 414.627 597.912 416.25 599.906 416.25 L 617.679 416.25 C 619.674 416.25 621.328 414.627 621.328 412.63 L 621.328 394.829 C 621.328 392.832 619.677 391.207 617.679 391.207 L 599.906 391.207 Z M 599.906 393.106 L 617.679 393.106 C 618.648 393.106 619.427 393.859 619.427 394.829 L 619.427 412.63 C 619.427 413.6 618.648 414.352 617.679 414.352 L 599.906 414.352 C 598.937 414.352 598.187 413.598 598.187 412.63 L 598.187 394.829 C 598.185 393.858 598.937 393.106 599.906 393.106 Z" style="fill: rgb(30, 30, 30);" transform="matrix(0.965926, -0.258819, 0.258819, 0.965926, -83.748027, 171.327548)"/>
  <path id="path185" d="M 625.52 384.344 C 623.525 384.344 621.9 385.968 621.9 387.966 L 621.9 405.767 C 621.9 407.764 623.525 409.387 625.52 409.387 L 643.293 409.387 C 645.289 409.387 646.942 407.764 646.942 405.767 L 646.942 387.966 C 646.942 385.969 645.291 384.344 643.293 384.344 L 625.52 384.344 Z M 625.52 386.243 L 643.293 386.243 C 644.263 386.243 645.044 386.995 645.044 387.966 L 645.044 405.767 C 645.044 406.737 644.262 407.489 643.293 407.489 L 625.52 407.489 C 624.549 407.489 623.799 406.737 623.799 405.767 L 623.799 387.966 C 623.799 386.995 624.551 386.243 625.52 386.243 Z" style="fill: rgb(30, 30, 30);" transform="matrix(0.965926, -0.258819, 0.258819, 0.965926, -81.099, 177.72319)"/>
  <path id="path187" d="M 651.145 377.478 C 649.148 377.478 647.523 379.102 647.523 381.1 L 647.523 398.901 C 647.523 400.898 649.148 402.521 651.145 402.521 L 668.947 402.521 C 670.941 402.521 672.567 400.898 672.567 398.901 L 672.567 381.1 C 672.567 379.103 670.941 377.478 668.947 377.478 L 651.145 377.478 Z M 651.145 379.377 L 668.947 379.377 C 669.916 379.377 670.666 380.129 670.666 381.1 L 670.666 398.901 C 670.666 399.871 669.915 400.623 668.947 400.623 L 651.145 400.623 C 650.176 400.623 649.424 399.869 649.424 398.901 L 649.424 381.1 C 649.424 380.129 650.176 379.377 651.145 379.377 Z" style="fill: rgb(30, 30, 30);" transform="matrix(0.965926, -0.258819, 0.258819, 0.965926, -78.44881, 184.12113)"/>
  <path id="path189" d="M 676.768 370.612 C 674.773 370.612 673.148 372.236 673.148 374.234 L 673.148 392.035 C 673.148 394.032 674.773 395.655 676.768 395.655 L 694.572 395.655 C 696.567 395.655 698.192 394.032 698.192 392.035 L 698.192 374.234 C 698.192 372.237 696.567 370.612 694.572 370.612 L 676.768 370.612 Z M 676.768 372.511 L 694.572 372.511 C 695.541 372.511 696.292 373.263 696.292 374.234 L 696.292 392.035 C 696.292 393.005 695.541 393.757 694.572 393.757 L 676.768 393.757 C 675.797 393.757 675.047 393.005 675.047 392.035 L 675.047 374.234 C 675.047 373.263 675.797 372.511 676.768 372.511 Z" style="fill: rgb(30, 30, 30);" transform="matrix(0.965926, -0.258819, 0.258819, 0.965926, -75.798624, 190.519509)"/>
  <path id="path191" d="M 702.421 363.747 C 700.426 363.747 698.77 365.371 698.77 367.369 L 698.77 385.17 C 698.77 387.167 700.421 388.79 702.421 388.79 L 720.192 388.79 C 722.187 388.79 723.814 387.167 723.814 385.17 L 723.814 367.369 C 723.814 365.372 722.189 363.747 720.192 363.747 L 702.421 363.747 Z M 702.421 365.646 L 720.192 365.646 C 721.163 365.646 721.913 366.398 721.913 367.369 L 721.913 385.17 C 721.913 386.14 721.161 386.892 720.192 386.892 L 702.421 386.892 C 701.45 386.892 700.671 386.138 700.671 385.17 L 700.671 367.369 C 700.671 366.398 701.452 365.646 702.421 365.646 Z" style="fill: rgb(30, 30, 30);" transform="matrix(0.965926, -0.258819, 0.258819, 0.965926, -73.148765, 196.916937)"/>
  <path id="path193" d="M 728.035 356.879 C 726.041 356.879 724.387 358.503 724.387 360.501 L 724.387 378.302 C 724.387 380.299 726.038 381.922 728.035 381.922 L 745.809 381.922 C 747.803 381.922 749.457 380.299 749.457 378.302 L 749.457 360.501 C 749.457 358.504 747.803 356.879 745.809 356.879 L 728.035 356.879 Z M 728.035 358.778 L 745.809 358.778 C 746.778 358.778 747.557 359.531 747.557 360.501 L 747.557 378.302 C 747.557 379.272 746.775 380.024 745.809 380.024 L 728.035 380.024 C 727.064 380.024 726.283 379.272 726.283 378.302 L 726.283 360.501 C 726.28 359.53 727.066 358.778 728.035 358.778 Z" style="fill: rgb(30, 30, 30);" transform="matrix(0.965926, -0.258819, 0.258819, 0.965926, -70.497898, 203.316551)"/>
  <path id="path195" d="M 753.423 348.217 C 751.426 348.217 749.801 349.841 749.801 351.839 L 749.801 369.64 C 749.801 371.637 751.425 373.26 753.423 373.26 L 785.079 373.26 C 787.074 373.26 788.699 371.637 788.699 369.64 L 788.699 351.839 C 788.699 349.842 787.076 348.217 785.079 348.217 L 753.423 348.217 Z M 753.423 350.116 L 785.079 350.116 C 786.05 350.116 786.8 350.868 786.8 351.839 L 786.8 369.64 C 786.8 370.61 786.048 371.362 785.079 371.362 L 753.423 371.362 C 752.452 371.362 751.699 370.61 751.699 369.64 L 751.699 351.839 C 751.699 350.868 752.452 350.116 753.423 350.116 Z" style="fill: rgb(30, 30, 30);" transform="matrix(0.965926, -0.258819, 0.258819, 0.965926, -67.154443, 211.388401)"/>
  <path id="path197" d="M 414.26 371.631 C 412.265 371.631 410.641 373.254 410.641 375.251 L 410.641 393.052 C 410.641 395.049 412.265 396.672 414.26 396.672 L 442.804 396.672 C 444.796 396.672 446.421 395.049 446.421 393.052 L 446.421 375.251 C 446.421 373.254 444.798 371.631 442.804 371.631 L 414.26 371.631 Z M 414.26 373.532 L 442.804 373.532 C 443.772 373.532 444.524 374.281 444.524 375.251 L 444.524 393.054 C 444.524 394.024 443.772 394.777 442.804 394.777 L 414.26 394.777 C 413.288 394.777 412.538 394.024 412.538 393.054 L 412.538 375.251 C 412.538 374.281 413.29 373.532 414.26 373.532 Z" style="fill: rgb(30, 30, 30);" transform="matrix(0.965926, -0.258819, 0.258819, 0.965926, -84.823897, 124.001654)"/>
  <path id="path199" d="M 452.003 361.521 C 450.008 361.521 448.356 363.144 448.356 365.141 L 448.356 382.942 C 448.356 384.938 450.008 386.562 452.003 386.562 L 480.517 386.562 C 482.513 386.562 484.167 384.939 484.167 382.942 L 484.167 365.141 C 484.167 363.144 482.513 361.521 480.517 361.521 L 452.003 361.521 Z M 452.003 363.422 L 480.517 363.422 C 481.485 363.422 482.266 364.171 482.266 365.141 L 482.266 382.944 C 482.266 383.914 481.485 384.667 480.517 384.667 L 452.003 384.667 C 451.034 384.667 450.253 383.914 450.253 382.944 L 450.253 365.141 C 450.253 364.171 451.034 363.422 452.003 363.422 Z" style="fill: rgb(30, 30, 30);" transform="matrix(0.965926, -0.258819, 0.258819, 0.965926, -80.921583, 133.4225)"/>
  <path id="path201" d="M 489.722 351.411 C 487.727 351.411 486.104 353.035 486.104 355.031 L 486.104 372.832 C 486.104 374.828 487.726 376.452 489.722 376.452 L 518.263 376.452 C 520.26 376.452 521.885 374.829 521.885 372.832 L 521.885 355.031 C 521.885 353.034 520.26 351.411 518.263 351.411 L 489.722 351.411 Z M 489.722 353.312 L 518.263 353.312 C 519.234 353.312 519.984 354.061 519.984 355.031 L 519.984 372.834 C 519.984 373.804 519.232 374.557 518.263 374.557 L 489.722 374.557 C 488.752 374.557 488.002 373.804 488.002 372.834 L 488.002 355.031 C 488.003 354.059 488.753 353.312 489.722 353.312 Z" style="fill: rgb(30, 30, 30);" transform="matrix(0.965926, -0.258819, 0.258819, 0.965926, -77.019209, 142.844029)"/>
  <path id="path203" d="M 527.461 341.302 C 525.464 341.302 523.812 342.927 523.812 344.923 L 523.812 362.724 C 523.812 364.72 525.463 366.344 527.461 366.344 L 555.972 366.344 C 557.969 366.344 559.625 364.72 559.625 362.724 L 559.625 361.776 L 559.625 344.923 C 559.625 342.926 557.969 341.302 555.972 341.302 L 527.461 341.302 Z M 527.461 343.203 L 555.972 343.203 C 556.942 343.203 557.724 343.953 557.724 344.923 L 557.724 362.725 C 557.724 363.695 556.943 364.448 555.972 364.448 L 527.461 364.448 C 526.49 364.448 525.711 363.695 525.711 362.725 L 525.711 344.923 C 525.711 343.951 526.492 343.203 527.461 343.203 Z" style="fill: rgb(30, 30, 30);" transform="matrix(0.965926, -0.258819, 0.258819, 0.965926, -73.117518, 152.263288)"/>
  <path id="path205" d="M 565.182 331.192 C 563.185 331.192 561.56 332.815 561.56 334.812 L 561.56 352.613 C 561.56 354.609 563.184 356.233 565.182 356.233 L 593.724 356.233 C 595.718 356.233 597.343 354.61 597.343 352.613 L 597.343 334.812 C 597.343 332.816 595.719 331.192 593.724 331.192 L 565.182 331.192 Z M 565.182 333.093 L 593.724 333.093 C 594.692 333.093 595.445 333.842 595.445 334.812 L 595.445 352.615 C 595.445 353.585 594.692 354.338 593.724 354.338 L 565.182 354.338 C 564.211 354.338 563.461 353.585 563.461 352.615 L 563.461 334.812 C 563.458 333.842 564.211 333.093 565.182 333.093 Z" style="fill: rgb(30, 30, 30);" transform="matrix(0.965926, -0.258819, 0.258819, 0.965926, -69.215003, 161.684799)"/>
  <path id="path207" d="M 698.878 295.376 C 696.881 295.376 695.227 296.999 695.227 298.996 L 695.227 316.797 C 695.227 318.794 696.881 320.417 698.878 320.417 L 727.388 320.417 C 729.386 320.417 731.009 318.794 731.009 316.797 L 731.009 298.996 C 731.009 297 729.386 295.376 727.388 295.376 L 698.878 295.376 Z M 698.878 297.277 L 727.388 297.277 C 728.36 297.277 729.108 298.026 729.108 298.996 L 729.108 316.799 C 729.108 317.769 728.36 318.522 727.388 318.522 L 698.878 318.522 C 697.909 318.522 697.126 317.769 697.126 316.799 L 697.126 298.996 C 697.126 298.026 697.909 297.277 698.878 297.277 Z" style="fill: rgb(30, 30, 30);" transform="matrix(0.965926, -0.258819, 0.258819, 0.965926, -55.390565, 195.059823)"/>
  <path id="path209" d="M 736.586 285.264 C 734.592 285.264 732.967 286.887 732.967 288.884 L 732.967 306.685 C 732.967 308.682 734.592 310.305 736.586 310.305 L 765.128 310.305 C 767.123 310.305 768.748 308.682 768.748 306.685 L 768.748 288.884 C 768.748 286.891 767.126 285.264 765.128 285.264 L 736.586 285.264 Z M 736.586 287.165 L 765.128 287.165 C 766.097 287.165 766.849 287.914 766.849 288.884 L 766.849 306.687 C 766.849 307.657 766.097 308.41 765.128 308.41 L 736.586 308.41 C 735.618 308.41 734.865 307.657 734.865 306.687 L 734.865 288.884 C 734.865 287.914 735.618 287.165 736.586 287.165 Z" style="fill: rgb(30, 30, 30);" transform="matrix(0.965926, -0.258819, 0.258819, 0.965926, -51.487445, 204.482957)"/>
  <path id="path211" d="M 856.458 318.611 C 852.43 318.611 848.398 320.149 845.33 323.207 L 817.911 350.626 C 811.783 356.753 811.783 366.721 817.911 372.85 L 844.909 399.821 C 851.039 405.951 861.005 405.947 867.132 399.821 L 894.549 372.404 C 900.669 366.285 900.677 356.344 894.578 350.21 L 894.549 350.181 L 867.549 323.213 C 864.484 320.147 860.474 318.613 856.45 318.613 L 856.458 318.611 Z M 856.458 320.482 C 859.992 320.482 863.52 321.845 866.218 324.544 L 893.221 351.545 C 898.622 356.947 898.622 365.665 893.221 371.069 L 865.804 398.482 C 860.401 403.884 851.682 403.886 846.281 398.482 L 819.283 371.483 C 813.879 366.08 813.882 357.36 819.283 351.962 L 846.695 324.544 C 849.398 321.844 852.922 320.482 856.458 320.482 Z" style="fill: rgb(30, 30, 30);" transform="matrix(0.965926, -0.258819, 0.258819, 0.965926, -64.391373, 233.927114)"/>
  <g id="g213" transform="matrix(1.073406, -0.287618, 0.287618, 1.073406, 269.68335, 261.944366)">
    <path id="path215" d="M486.657,185.882c-3.104,0-6.207,1.187-8.569,3.551l-12.202,12.201l-0.16,0.16l-0.454,0.427&#10;&#9;&#9;l0.026,0.027l-0.16,0.133l-12.201,12.201c-4.728,4.729-4.728,12.413,0,17.142l12.201,12.201l0.16,0.134l-0.026,0.026l0.454,0.427&#10;&#9;&#9;l0.16,0.16l12.202,12.201c4.727,4.729,12.413,4.729,17.141,0l12.199-12.201l0.16-0.16l0.428-0.427l0.16-0.16l12.202-12.201&#10;&#9;&#9;c4.728-4.728,4.728-12.412,0-17.14l-12.202-12.202l-0.16-0.16l-0.428-0.427l-0.16-0.161l-12.199-12.199&#10;&#9;&#9;c-2.364-2.364-5.467-3.551-8.571-3.551V185.882z M486.657,187.591c2.664,0,5.332,1.007,7.369,3.044l11.586,11.585l-18.957,18.958&#10;&#9;&#9;L467.7,202.22l11.586-11.585c2.038-2.037,4.705-3.044,7.369-3.044H486.657z M465.726,204.198l18.957,18.956l-18.957,18.957&#10;&#9;&#9;l-11.588-11.587c-4.073-4.075-4.073-10.662,0-14.738l11.586-11.594L465.726,204.198z M507.59,204.198l11.586,11.587&#10;&#9;&#9;c4.075,4.074,4.075,10.662,0,14.738l-11.584,11.593l-18.96-18.959l18.96-18.957L507.59,204.198z M486.657,225.104l18.957,18.983&#10;&#9;&#9;l-11.588,11.586c-4.073,4.077-10.662,4.077-14.738,0l-11.594-11.61l18.96-18.959H486.657z" style="fill: rgb(30, 30, 30);"/>
  </g>
  <path id="path217" d="M 817.321 316.261 C 813.842 316.261 811.001 319.104 811.001 322.58 L 811.001 400.438 C 811.001 403.914 813.842 406.757 817.321 406.757 L 895.176 406.757 C 898.655 406.757 901.496 403.914 901.496 400.438 L 901.496 322.58 C 901.496 319.104 898.655 316.261 895.176 316.261 L 817.321 316.261 Z M 817.321 318.158 L 895.176 318.158 C 897.628 318.158 899.598 320.128 899.598 322.58 L 899.598 400.436 C 899.598 402.887 897.629 404.858 895.176 404.858 L 817.321 404.858 C 814.871 404.858 812.899 402.887 812.899 400.436 L 812.899 322.58 C 812.899 320.128 814.871 318.158 817.321 318.158 L 817.321 318.158 Z" style="fill: rgb(30, 30, 30);" transform="matrix(0.965926, -0.258819, 0.258819, 0.965926, -64.389442, 233.931515)"/>
  <path id="path219" d="M 393.485 385.9 C 392.476 385.9 391.647 386.734 391.647 387.742 L 391.647 395.484 C 391.647 396.491 392.477 397.353 393.485 397.353 L 403.632 397.353 C 404.64 397.353 405.472 396.491 405.472 395.484 L 405.472 387.742 C 405.472 386.734 404.64 385.9 403.632 385.9 L 393.485 385.9 Z M 393.544 387.801 L 403.572 387.801 L 403.572 395.455 L 393.544 395.455 L 393.544 387.801 Z" style="fill: rgb(30, 30, 30);" transform="matrix(0.965926, -0.258819, 0.258819, 0.965926, -87.779757, 116.49904)"/>
  <path id="path221" d="M 407.558 480.114 C 406.551 480.114 405.718 480.978 405.718 481.984 L 405.718 484.951 C 405.718 485.958 406.551 486.791 407.558 486.791 L 416.222 486.791 C 417.227 486.791 418.061 485.961 418.061 484.951 L 418.061 481.984 C 418.061 480.978 417.228 480.114 416.222 480.114 L 407.558 480.114 Z" style="fill: rgb(30, 30, 30);" transform="matrix(0.965926, -0.258819, 0.258819, 0.965926, -111.091828, 123.07795)"/>
  <path id="path223" d="M 797.925 375.52 C 796.919 375.52 796.083 376.384 796.083 377.39 L 796.083 380.357 C 796.083 381.364 796.919 382.197 797.925 382.197 L 806.558 382.197 C 807.563 382.197 808.398 381.367 808.398 380.357 L 808.398 377.39 C 808.398 376.384 807.568 375.52 806.558 375.52 L 797.925 375.52 Z" style="fill: rgb(30, 30, 30);" transform="matrix(0.965926, -0.258819, 0.258819, 0.965926, -70.72011, 220.544389)"/>
  <path id="line233" d="M 357.684 365.435 L 357.684 370.419 L 359.585 370.419 L 359.585 365.435 L 357.684 365.435 Z" style="fill: rgb(30, 30, 30);" transform="matrix(0.965926, -0.258819, 0.258819, 0.965926, -83.006354, 105.358264)"/>
  <path id="line235" d="M 885.915 223.594 L 885.915 228.815 L 887.812 228.815 L 887.812 223.594 L 885.915 223.594 Z" style="fill: rgb(30, 30, 30);" transform="matrix(0.965926, -0.258819, 0.258819, 0.965926, -28.326894, 237.244875)"/>
  <path id="path237" d="M 681.609 203.355 C 680.603 203.355 679.77 204.216 679.77 205.222 L 679.77 220.978 C 679.77 221.985 680.603 222.818 681.609 222.818 L 682.174 222.818 C 683.181 222.818 684.012 221.984 684.012 220.978 L 684.012 205.222 C 684.012 204.217 683.181 203.355 682.174 203.355 L 681.609 203.355 Z M 681.671 205.252 L 682.114 205.252 L 682.114 220.919 L 681.671 220.919 L 681.671 205.252 Z" style="fill: rgb(30, 30, 30);" transform="matrix(0.965926, -0.258819, 0.258819, 0.965926, -31.91597, 183.747111)"/>
  <path id="path239" d="M 794.182 173.191 C 793.176 173.191 792.343 174.053 792.343 175.058 L 792.343 190.814 C 792.343 191.82 793.176 192.654 794.182 192.654 L 794.747 192.654 C 795.753 192.654 796.585 191.821 796.585 190.814 L 796.585 175.058 C 796.585 174.053 795.753 173.191 794.747 173.191 L 794.182 173.191 Z M 794.242 175.088 L 794.685 175.088 L 794.685 190.755 L 794.242 190.755 L 794.242 175.088 Z" style="fill: rgb(30, 30, 30);" transform="matrix(0.965926, -0.258819, 0.258819, 0.965926, -20.27312, 211.855438)"/>
</svg>