<?xml version="1.0" encoding="utf-8"?>
<svg version="1.1" id="svg2" x="0px" y="0px" enable-background="new -27.464 0 566.929 234.744" xmlns="http://www.w3.org/2000/svg" xmlns:bx="https://boxy-svg.com">
  <path id="path2830" d="M 0 169.511 L 43.064 0 L 82.996 0 L 103.745 73.991 L 125.276 0 L 162.859 0 L 198.092 124.883 L 284.056 124.721 C 293.08 124.633 293.634 105.972 283.388 105.977 L 233.325 105.309 C 211.828 105.516 189.158 82.259 190.262 51.284 C 190.491 22.872 215.266 0.498 246.96 0.506 L 374.65 0.392 L 407.144 44.63 L 438.854 0.001 L 491.704 0.393 L 433.766 81.821 L 496.403 170.114 L 443.83 169.952 L 407.374 119.29 L 372.693 169.952 L 319.06 169.905 L 380.132 82.604 L 353.51 43.847 L 242.511 44.009 C 230.397 44.12 230.842 63.178 242.606 62.821 L 289.374 63.537 C 309.141 63.664 336.978 84.205 336.285 116.273 C 336.587 153.553 303.01 170.585 286.844 169.675 L 164.425 169.838 L 144.068 93.566 L 123.711 169.675 L 85.067 169.675 L 63.812 93.957 L 45.135 169.79 L 0 169.511 Z" style="fill: rgb(255, 255, 255);" bx:origin="0 0"/>
</svg>