<?xml version="1.0" encoding="utf-8"?>
<svg version="1.1" id="svg2" x="0px" y="0px" enable-background="new -27.464 0 566.929 234.744" xmlns="http://www.w3.org/2000/svg" xmlns:bx="https://boxy-svg.com">
  <path id="path2830" d="M 0 68.296 L 17.35 0 L 33.439 0 L 41.799 29.811 L 50.474 0 L 65.616 0 L 79.811 50.315 L 114.446 50.25 C 118.081 50.214 118.305 42.696 114.177 42.698 L 94.006 42.429 C 85.345 42.512 76.211 33.142 76.656 20.662 C 76.749 9.215 86.73 0.201 99.5 0.204 L 150.946 0.158 L 164.038 17.981 L 176.814 0 L 198.107 0.158 L 174.764 32.966 L 200 68.539 L 178.818 68.473 L 164.13 48.062 L 150.157 68.473 L 128.549 68.454 L 153.155 33.281 L 142.429 17.666 L 97.707 17.731 C 92.827 17.776 93.006 25.454 97.746 25.31 L 116.588 25.599 C 124.552 25.65 135.768 33.926 135.489 46.846 C 135.61 61.866 122.082 68.728 115.569 68.362 L 66.247 68.427 L 58.045 37.698 L 49.843 68.362 L 34.273 68.362 L 25.71 37.855 L 18.185 68.408 L 0 68.296 Z" style="fill: rgb(255, 255, 255);" bx:origin="0 0"/>
</svg>