<?xml version="1.0" encoding="utf-8"?>
<svg xmlns="http://www.w3.org/2000/svg">
  <path id="circle3" d="M 228.854 126.51 C 202.32 126.51 180.8 148.029 180.8 174.564 C 180.8 201.098 202.319 222.618 228.854 222.618 C 255.388 222.618 276.909 201.1 276.909 174.564 C 276.905 148.031 255.388 126.51 228.854 126.51 Z M 228.854 127.442 C 254.885 127.442 275.977 148.532 275.977 174.564 C 275.977 200.594 254.887 221.686 228.854 221.686 C 202.824 221.686 181.732 200.594 181.732 174.564 C 181.732 148.534 202.824 127.442 228.854 127.442 Z" style="fill: rgb(30, 30, 30);" transform="matrix(0.965926, -0.258819, 0.258819, 0.965926, -37.382435, 65.179965)"/>
  <path id="path5" d="M 215.33 112.259 C 207.509 112.259 200.432 114.317 194.805 117.339 C 193.785 117.888 193.146 119.162 192.577 120.775 C 192.009 122.389 191.558 124.376 191.195 126.379 C 190.468 130.385 190.056 134.544 189.798 135.74 L 190.714 135.944 C 191.02 134.528 191.394 130.493 192.111 126.539 C 192.47 124.562 192.911 122.626 193.45 121.095 C 193.99 119.564 194.672 118.467 195.256 118.154 C 200.75 115.203 207.673 113.19 215.329 113.19 C 223.043 113.19 230.16 114.999 235.505 118.212 C 236.394 118.747 237.167 120.004 237.747 121.662 C 238.327 123.321 238.721 125.358 238.998 127.354 C 239.276 129.35 239.435 131.308 239.537 132.857 C 239.588 133.631 239.62 134.3 239.653 134.822 C 239.687 135.343 239.707 135.686 239.755 135.928 L 240.673 135.74 C 240.656 135.656 240.618 135.279 240.585 134.764 C 240.552 134.249 240.52 133.578 240.469 132.799 C 240.365 131.241 240.197 129.255 239.916 127.223 C 239.633 125.193 239.234 123.112 238.62 121.357 C 238.006 119.602 237.203 118.144 235.985 117.412 C 230.46 114.091 223.189 112.26 215.33 112.26 L 215.33 112.259 Z" style="fill: rgb(30, 30, 30);" transform="matrix(0.965926, -0.258819, 0.258819, 0.965926, -24.785859, 59.93569)"/>
  <path id="circle9" d="M 389.586 83.443 C 363.052 83.443 341.531 104.961 341.531 131.496 C 341.531 158.03 363.051 179.55 389.586 179.55 C 416.12 179.55 437.64 158.032 437.64 131.496 C 437.635 104.963 416.119 83.443 389.586 83.443 Z M 389.586 84.374 C 415.616 84.374 436.708 105.464 436.708 131.496 C 436.708 157.526 415.618 178.618 389.586 178.618 C 363.555 178.618 342.464 157.528 342.464 131.496 C 342.464 105.466 363.554 84.374 389.586 84.374 Z" style="fill: rgb(30, 30, 30);" transform="matrix(0.965926, -0.258819, 0.258819, 0.965926, -20.758991, 105.312751)"/>
  <path id="path11" d="M 191.81 145.501 C 191.289 153.534 190.03 174.133 188.899 193.304 C 188.333 202.89 187.791 212.123 187.4 219.246 C 187.008 226.373 186.759 231.353 186.759 232.582 C 186.759 249.803 200.734 263.778 217.954 263.778 C 223.827 263.778 228.096 262.147 231.507 259.308 C 234.918 256.47 237.473 252.457 240.037 247.677 C 244.894 238.626 250.52 227.76 255.453 218.418 C 260.386 209.076 264.65 201.22 266.691 198.286 C 268.755 195.318 270.577 193.573 272.805 192.507 C 275.032 191.44 277.704 191.05 281.466 190.919 C 289.003 190.66 306.889 190.919 312.909 190.919 L 333.187 190.919 C 339.206 190.919 357.094 190.66 364.63 190.92 C 368.392 191.05 371.064 191.44 373.292 192.507 C 375.519 193.574 377.356 195.319 379.42 198.286 C 381.461 201.22 385.709 209.076 390.643 218.418 C 395.577 227.761 401.216 238.627 406.074 247.677 C 408.638 252.457 411.179 256.47 414.589 259.309 C 418 262.148 422.27 263.778 428.142 263.778 C 445.363 263.778 459.338 249.804 459.338 232.583 C 459.338 231.352 459.09 226.374 458.697 219.249 C 458.306 212.124 457.779 202.893 457.213 193.308 C 456.081 174.136 454.809 153.535 454.287 145.504 L 453.355 145.577 C 453.877 153.604 455.15 174.198 456.281 193.366 C 456.846 202.952 457.374 212.183 457.766 219.307 C 458.157 226.43 458.406 231.486 458.406 232.583 C 458.406 249.3 444.86 262.847 428.142 262.847 C 422.44 262.847 418.44 261.303 415.187 258.596 C 411.934 255.89 409.435 251.972 406.89 247.228 C 402.038 238.186 396.41 227.345 391.474 217.997 C 386.538 208.65 382.314 200.834 380.178 197.762 C 378.064 194.724 376.108 192.816 373.701 191.663 C 371.292 190.51 368.471 190.121 364.66 189.989 C 357.053 189.726 339.181 189.988 333.188 189.988 L 312.911 189.988 C 306.918 189.988 289.047 189.726 281.439 189.988 C 277.628 190.12 274.807 190.509 272.399 191.663 C 269.991 192.816 268.035 194.723 265.921 197.762 C 263.784 200.834 259.561 208.649 254.625 217.997 C 249.689 227.343 244.06 238.186 239.209 247.228 C 236.664 251.972 234.165 255.89 230.912 258.596 C 227.659 261.303 223.659 262.846 217.956 262.846 C 201.245 262.846 187.699 249.3 187.699 232.582 C 187.699 231.484 187.947 226.429 188.339 219.306 C 188.731 212.183 189.258 202.951 189.824 193.365 C 190.955 174.195 192.228 153.601 192.75 145.576 L 191.818 145.503 L 191.81 145.501 Z" style="fill: rgb(30, 30, 30);" transform="matrix(0.965926, -0.258819, 0.258819, 0.965926, -41.956983, 90.584005)"/>
  <path id="path13" d="M 376.055 69.143 C 368.196 69.143 360.939 70.975 355.414 74.296 C 354.194 75.028 353.378 76.486 352.764 78.241 C 352.15 79.996 351.751 82.076 351.468 84.107 C 351.186 86.139 351.018 88.125 350.915 89.683 C 350.863 90.462 350.832 91.133 350.798 91.648 C 350.765 92.163 350.728 92.54 350.711 92.624 L 351.629 92.812 C 351.677 92.57 351.697 92.227 351.731 91.707 C 351.765 91.185 351.796 90.515 351.848 89.741 C 351.95 88.193 352.109 86.234 352.385 84.238 C 352.663 82.243 353.058 80.206 353.638 78.547 C 354.217 76.888 354.99 75.631 355.88 75.097 C 361.225 71.883 368.341 70.075 376.056 70.075 C 383.711 70.075 390.648 72.087 396.144 75.039 C 396.726 75.352 397.396 76.448 397.934 77.979 C 398.473 79.51 398.915 81.446 399.274 83.424 C 399.99 87.377 400.364 91.412 400.671 92.828 L 401.583 92.623 C 401.325 91.428 400.913 87.269 400.187 83.263 C 399.823 81.26 399.386 79.272 398.818 77.659 C 398.25 76.045 397.597 74.771 396.576 74.223 C 390.949 71.201 383.873 69.143 376.052 69.143 L 376.055 69.143 Z" style="fill: rgb(30, 30, 30);" transform="matrix(0.965926, -0.258819, 0.258819, 0.965926, -8.143695, 100.113489)"/>
  <path id="line17" d="M 250.556 119.56 L 250.556 120.493 L 350.434 120.493 L 350.434 119.561 L 250.556 119.56 Z" style="fill: rgb(30, 30, 30);" transform="matrix(0.965926, -0.258819, 0.258819, 0.965926, -20.826022, 81.863607)"/>
  <path id="path19" d="M 216.711 136.783 C 215.594 136.783 214.673 137.704 214.673 138.821 L 214.673 159.462 L 214.6 159.549 L 193.944 159.549 C 192.828 159.549 191.921 160.456 191.921 161.573 L 191.921 185.257 C 191.921 186.375 192.828 187.28 193.944 187.28 L 214.645 187.28 L 214.674 187.31 L 214.674 208.01 C 214.674 209.128 215.595 210.047 216.712 210.047 L 240.381 210.047 C 241.498 210.047 242.419 209.128 242.419 208.01 L 242.419 187.339 L 242.463 187.281 L 263.148 187.281 C 264.265 187.281 265.186 186.375 265.186 185.257 L 265.186 161.574 C 265.186 160.457 264.265 159.55 263.148 159.55 L 242.477 159.55 L 242.419 159.477 L 242.419 138.821 C 242.419 137.704 241.498 136.783 240.381 136.783 L 216.711 136.783 L 216.711 136.783 Z M 216.711 137.714 L 240.38 137.714 C 240.994 137.714 241.487 138.208 241.487 138.821 L 241.487 159.638 L 241.487 159.798 L 241.589 159.929 L 241.866 160.293 L 242.012 160.482 L 242.245 160.482 L 263.149 160.482 C 263.762 160.482 264.255 160.96 264.255 161.573 L 264.255 185.257 C 264.255 185.871 263.762 186.349 263.149 186.349 L 242.215 186.349 L 241.968 186.349 L 241.837 186.553 L 241.575 186.917 L 241.487 187.033 L 241.487 187.193 L 241.487 208.01 C 241.487 208.623 240.994 209.115 240.381 209.115 L 216.712 209.115 C 216.099 209.115 215.606 208.623 215.606 208.01 L 215.606 187.12 L 215.606 186.931 L 215.475 186.8 L 215.176 186.502 L 215.045 186.358 L 214.856 186.358 L 193.951 186.358 C 193.339 186.358 192.86 185.88 192.86 185.266 L 192.86 161.582 C 192.86 160.969 193.339 160.49 193.951 160.49 L 214.855 160.49 L 215.073 160.49 L 215.219 160.3 L 215.525 159.907 L 215.613 159.791 L 215.613 159.63 L 215.613 138.83 C 215.613 138.217 216.106 137.724 216.719 137.724 L 216.711 137.714 Z" style="fill: rgb(30, 30, 30);" transform="matrix(0.965926, -0.258819, 0.258819, 0.965926, -37.095342, 65.062988)"/>
  <path id="path21" d="M 378.334 92.125 C 377.198 92.125 376.267 93.055 376.267 94.191 L 376.267 115.298 L 376.194 115.386 L 355.087 115.386 C 353.95 115.386 353.019 116.318 353.019 117.453 L 353.019 141.632 C 353.019 142.768 353.951 143.7 355.087 143.7 L 376.224 143.7 L 376.267 143.728 L 376.267 164.894 C 376.267 166.03 377.199 166.961 378.334 166.961 L 402.528 166.961 C 403.665 166.961 404.596 166.03 404.596 164.894 L 404.596 143.758 L 404.639 143.7 L 425.776 143.7 C 426.912 143.7 427.843 142.769 427.843 141.633 L 427.843 117.455 C 427.843 116.318 426.912 115.387 425.776 115.387 L 404.654 115.387 L 404.596 115.315 L 404.596 94.191 C 404.596 93.055 403.664 92.123 402.529 92.123 L 378.334 92.125 L 378.334 92.125 Z M 378.334 93.056 L 402.528 93.056 C 403.16 93.056 403.663 93.559 403.663 94.191 L 403.663 115.473 L 403.663 115.633 L 403.766 115.749 L 404.043 116.128 L 404.189 116.318 L 404.421 116.318 L 425.777 116.318 C 426.409 116.318 426.912 116.82 426.912 117.453 L 426.912 141.632 C 426.912 142.264 426.409 142.767 425.777 142.767 L 404.392 142.767 L 404.159 142.767 L 404.013 142.971 L 403.751 143.35 L 403.664 143.466 L 403.664 143.612 L 403.664 164.894 C 403.664 165.525 403.161 166.029 402.529 166.029 L 378.334 166.029 C 377.703 166.029 377.199 165.525 377.199 164.894 L 377.199 143.553 L 377.199 143.35 L 377.068 143.219 L 376.762 142.912 L 376.616 142.767 L 376.427 142.767 L 355.086 142.767 C 354.455 142.767 353.951 142.264 353.951 141.631 L 353.951 117.452 C 353.951 116.82 354.455 116.317 355.086 116.317 L 376.427 116.317 L 376.66 116.317 L 376.791 116.128 L 377.111 115.735 L 377.198 115.604 L 377.198 115.444 L 377.198 94.192 C 377.199 93.56 377.702 93.056 378.334 93.056 L 378.334 93.056 Z" style="fill: rgb(30, 30, 30);" transform="matrix(0.965926, -0.258819, 0.258819, 0.965926, -20.22432, 105.464978)"/>
  <path id="path23" d="M 218.278 148.085 C 216.297 148.085 214.684 149.712 214.684 151.696 L 214.684 159.526 C 214.684 160.165 214.842 160.767 215.135 161.288 L 215.164 161.332 L 215.208 161.376 L 221.409 167.926 L 221.424 167.955 L 221.438 167.941 C 222.193 168.873 223.334 169.484 224.626 169.484 C 225.946 169.484 227.119 168.838 227.872 167.868 L 227.887 167.882 L 227.916 167.839 L 234.117 161.273 L 234.161 161.23 L 234.19 161.157 C 234.443 160.665 234.583 160.115 234.583 159.526 L 234.583 151.695 C 234.583 149.712 232.97 148.084 230.988 148.084 L 218.28 148.084 L 218.278 148.085 Z M 218.278 149.017 L 230.985 149.017 C 232.464 149.017 233.649 150.216 233.649 151.696 L 233.649 159.526 C 233.649 159.955 233.55 160.349 233.373 160.706 L 227.201 167.241 L 227.186 167.256 L 227.171 167.285 C 226.588 168.054 225.666 168.552 224.624 168.552 C 223.61 168.552 222.72 168.078 222.135 167.344 L 222.12 167.329 L 222.105 167.314 L 215.934 160.807 C 215.725 160.427 215.613 159.991 215.613 159.526 L 215.609 151.696 C 215.609 150.217 216.795 149.018 218.273 149.018 L 218.278 149.017 Z" style="fill: rgb(30, 30, 30);" transform="matrix(0.965926, -0.258819, 0.258819, 0.965926, -33.442116, 63.549849)"/>
  <path id="polygon25" d="M 220.569 141.21 L 220.249 141.545 L 216.508 145.271 L 215.722 146.072 L 216.842 146.072 L 224.311 146.072 L 225.432 146.072 L 224.631 145.271 L 220.904 141.545 L 220.569 141.21 L 220.569 141.21 Z M 220.583 142.535 L 223.189 145.14 L 217.963 145.14 L 220.585 142.535 L 220.583 142.535 Z" style="fill: rgb(30, 30, 30);" transform="matrix(0.965926, -0.258819, 0.258819, 0.965926, -29.661047, 61.983963)"/>
  <path id="path27" d="M 206.834 167.389 C 204.852 167.389 203.224 169.002 203.224 170.985 L 203.224 183.693 C 203.224 185.675 204.852 187.289 206.834 187.289 L 214.666 187.289 C 215.304 187.289 215.906 187.117 216.427 186.823 L 216.471 186.809 L 216.514 186.764 L 223.065 180.563 C 223.076 180.554 223.083 180.543 223.094 180.534 C 224.023 179.778 224.608 178.621 224.608 177.331 C 224.608 176.012 223.976 174.854 223.007 174.1 L 223.026 174.077 L 222.982 174.047 L 216.416 167.846 L 216.358 167.802 L 216.3 167.773 C 215.809 167.522 215.259 167.38 214.67 167.38 L 206.838 167.38 L 206.834 167.389 Z M 206.834 168.321 L 214.666 168.321 C 215.1 168.321 215.499 168.43 215.86 168.612 C 215.863 168.615 215.87 168.61 215.874 168.612 L 222.381 174.755 L 222.396 174.784 L 222.424 174.799 C 223.194 175.381 223.677 176.29 223.677 177.332 C 223.677 178.347 223.218 179.25 222.483 179.836 L 222.469 179.85 L 222.454 179.865 L 215.933 186.037 C 215.553 186.245 215.131 186.357 214.666 186.357 L 206.834 186.357 C 205.356 186.357 204.156 185.172 204.156 183.693 L 204.156 170.985 C 204.156 169.506 205.355 168.321 206.834 168.321 L 206.834 168.321 Z" style="fill: rgb(30, 30, 30);" transform="matrix(0.965926, -0.258819, 0.258819, 0.965926, -38.608538, 61.408066)"/>
  <path id="polygon29" d="M 201.196 176.539 L 200.41 177.326 L 196.669 181.066 L 196.349 181.387 L 196.669 181.722 L 200.41 185.448 L 201.196 186.249 L 201.196 185.128 L 201.196 177.66 L 201.196 176.539 L 201.196 176.539 Z M 200.265 178.795 L 200.265 183.992 L 198.46 180.615 L 201.051 178.011 L 200.265 178.795 Z" style="fill: rgb(30, 30, 30);" transform="matrix(0.965926, -0.258818, 0.258818, 0.965926, -40.175093, 57.626733)"/>
  <path id="path31" d="M 232.465 177.345 C 231.145 177.345 229.973 177.977 229.219 178.946 C 229.211 178.957 229.198 178.965 229.19 178.975 L 222.989 185.555 L 222.946 185.599 L 222.916 185.657 C 222.663 186.149 222.523 186.713 222.523 187.302 L 222.523 195.133 C 222.523 197.116 224.136 198.73 226.119 198.73 L 238.827 198.73 C 240.809 198.73 242.422 197.116 242.422 195.133 L 242.422 187.302 C 242.422 186.664 242.25 186.062 241.957 185.541 L 241.928 185.483 L 241.899 185.453 L 235.697 178.903 C 235.689 178.892 235.677 178.884 235.669 178.874 C 234.913 177.944 233.755 177.346 232.465 177.345 L 232.465 177.345 Z M 232.465 178.277 C 233.48 178.277 234.385 178.751 234.969 179.485 L 234.983 179.5 L 234.998 179.514 L 241.17 186.05 C 241.37 186.424 241.491 186.846 241.491 187.302 L 241.491 195.132 C 241.491 196.612 240.306 197.796 238.827 197.796 L 226.119 197.796 C 224.64 197.796 223.455 196.612 223.455 195.132 L 223.455 187.302 C 223.455 186.873 223.554 186.465 223.732 186.108 L 229.89 179.586 L 229.904 179.558 L 229.923 179.543 C 230.505 178.774 231.429 178.277 232.471 178.277 L 232.465 178.277 Z" style="fill: rgb(30, 30, 30);" transform="matrix(0.965926, -0.258819, 0.258819, 0.965926, -40.746369, 66.575513)"/>
  <path id="polygon33" d="M 231.676 200.76 L 232.462 201.56 L 236.203 205.287 L 236.523 205.621 L 236.858 205.287 L 240.584 201.56 L 241.385 200.76 L 240.264 200.76 L 232.797 200.76 L 231.676 200.76 L 231.676 200.76 Z M 233.918 201.69 L 239.144 201.69 L 236.538 204.312 L 233.918 201.69 L 233.918 201.69 Z" style="fill: rgb(30, 30, 30);" transform="matrix(0.965926, -0.258819, 0.258819, 0.965926, -44.529982, 68.14213)"/>
  <path id="path35" d="M 242.444 159.549 C 241.805 159.549 241.204 159.707 240.683 160 L 240.625 160.029 L 240.581 160.073 L 234.045 166.274 L 234.016 166.303 C 233.087 167.058 232.487 168.202 232.487 169.491 C 232.487 170.815 233.115 171.997 234.089 172.751 L 234.118 172.766 L 240.698 178.982 L 240.742 179.026 L 240.8 179.054 C 241.292 179.307 241.855 179.448 242.445 179.448 L 250.276 179.448 C 252.258 179.448 253.871 177.835 253.871 175.852 L 253.871 163.144 C 253.871 161.162 252.259 159.548 250.276 159.548 L 242.444 159.549 L 242.444 159.549 Z M 242.444 160.481 L 250.275 160.481 C 251.754 160.481 252.939 161.666 252.939 163.144 L 252.939 175.852 C 252.939 177.332 251.754 178.516 250.275 178.516 L 242.444 178.516 C 242.026 178.516 241.63 178.41 241.279 178.24 L 234.729 172.067 L 234.7 172.052 L 234.686 172.038 C 233.916 171.455 233.419 170.532 233.419 169.491 C 233.419 168.476 233.894 167.586 234.627 167.001 L 234.642 166.986 L 234.657 166.972 L 241.134 160.814 L 241.149 160.814 C 241.533 160.601 241.972 160.48 242.444 160.481 L 242.444 160.481 Z" style="fill: rgb(30, 30, 30);" transform="matrix(0.965926, -0.258819, 0.258819, 0.965926, -35.583177, 68.714824)"/>
  <path id="polygon37" d="M 255.898 160.581 L 255.898 161.702 L 255.898 169.169 L 255.898 170.29 L 256.698 169.489 L 260.425 165.763 L 260.76 165.428 L 260.425 165.108 L 256.698 161.367 L 255.898 160.581 L 255.898 160.581 Z M 256.829 162.823 L 259.449 165.443 L 256.829 168.048 L 256.829 162.823 L 256.829 162.823 Z" style="fill: rgb(30, 30, 30);" transform="matrix(0.965926, -0.258819, 0.258819, 0.965926, -34.015504, 72.497532)"/>
  <path id="path39" d="M 291.759 168.8 C 290.498 168.8 289.474 169.838 289.474 171.099 L 289.474 177.708 C 289.474 178.97 290.498 180.007 291.759 180.007 L 302.91 180.007 C 304.007 180.007 304.885 179.206 305.108 178.173 L 305.196 178.173 L 305.196 177.708 L 305.196 171.098 C 305.196 169.838 304.172 168.799 302.91 168.799 L 291.759 168.799 L 291.759 168.8 Z M 291.759 169.731 L 302.91 169.731 C 303.668 169.731 304.264 170.343 304.264 171.099 L 304.264 177.243 L 304.264 177.708 C 304.264 178.467 303.668 179.077 302.91 179.077 L 291.759 179.077 C 291.001 179.077 290.405 178.467 290.405 177.708 L 290.405 171.099 C 290.405 170.343 291.001 169.731 291.759 169.731 Z" style="fill: rgb(30, 30, 30);" transform="matrix(0.965926, -0.258819, 0.258819, 0.965926, -35.007366, 82.898575)"/>
  <path id="path41" d="M 326.952 159.269 C 325.763 159.269 324.784 160.249 324.784 161.438 L 324.784 168.396 C 324.784 169.586 325.765 170.565 326.952 170.565 C 327.261 170.565 327.547 170.477 327.812 170.362 L 327.812 170.376 L 327.885 170.347 L 339.807 166.693 L 339.851 166.679 L 339.88 166.65 C 340.565 166.287 341.03 165.568 341.03 164.743 C 341.03 163.935 340.586 163.221 339.923 162.851 L 339.88 162.822 L 339.822 162.808 L 327.696 159.401 C 327.682 159.396 327.666 159.391 327.652 159.387 C 327.431 159.311 327.196 159.269 326.952 159.269 L 326.952 159.269 Z M 326.952 160.201 C 327.102 160.201 327.243 160.226 327.374 160.274 L 327.389 160.288 L 327.403 160.288 L 339.5 163.68 C 339.862 163.894 340.098 164.288 340.098 164.743 C 340.098 165.203 339.84 165.593 339.471 165.805 L 327.535 169.488 L 327.505 169.488 L 327.477 169.502 C 327.315 169.58 327.144 169.634 326.952 169.634 C 326.267 169.634 325.715 169.083 325.715 168.396 L 325.715 161.438 C 325.716 160.752 326.268 160.201 326.952 160.201 L 326.952 160.201 Z" style="fill: rgb(30, 30, 30);" transform="matrix(0.965926, -0.258819, 0.258819, 0.965926, -31.340119, 91.78205)"/>
  <path id="circle43" d="M 367.92 123.424 C 361.215 123.424 355.765 128.874 355.765 135.58 C 355.765 142.285 361.215 147.72 367.92 147.72 C 374.625 147.72 380.075 142.285 380.075 135.58 C 380.075 128.875 374.625 123.424 367.92 123.424 Z M 367.92 124.356 C 374.122 124.356 379.143 129.377 379.143 135.579 C 379.143 141.781 374.123 146.788 367.92 146.788 C 361.718 146.788 356.696 141.781 356.696 135.579 C 356.697 129.377 361.718 124.356 367.92 124.356 Z" style="fill: rgb(30, 30, 30);" transform="matrix(0.965926, -0.258819, 0.258819, 0.965926, -22.552042, 99.844173)"/>
  <path id="circle45" d="M 396.466 139.908 C 389.761 139.908 384.311 145.358 384.311 152.063 C 384.311 158.769 389.761 164.218 396.466 164.218 C 403.171 164.218 408.621 158.769 408.621 152.063 C 408.621 145.358 403.171 139.908 396.466 139.908 Z M 396.466 140.839 C 402.667 140.839 407.69 145.861 407.69 152.063 C 407.69 158.264 402.668 163.287 396.466 163.287 C 390.264 163.287 385.242 158.264 385.242 152.063 C 385.242 145.861 390.264 140.839 396.466 140.839 Z" style="fill: rgb(30, 30, 30);" transform="matrix(0.965926, -0.258819, 0.258819, 0.965926, -25.847548, 107.794337)"/>
  <path id="circle47" d="M 412.942 111.358 C 406.239 111.358 400.802 116.809 400.802 123.517 C 400.802 130.222 406.238 135.657 412.943 135.657 C 419.648 135.657 425.098 130.222 425.098 123.517 C 425.098 116.812 419.648 111.362 412.943 111.362 L 412.942 111.358 Z M 412.942 112.29 C 419.143 112.29 424.165 117.311 424.165 123.514 C 424.165 129.716 419.144 134.722 412.942 134.722 C 406.74 134.722 401.733 129.716 401.733 123.514 C 401.733 117.312 406.741 112.29 412.942 112.29 Z" style="fill: rgb(30, 30, 30);" transform="matrix(0.965926, -0.258819, 0.258819, 0.965926, -17.895161, 111.087708)"/>
  <path id="circle49" d="M 384.398 94.869 C 377.693 94.869 372.243 100.318 372.243 107.024 C 372.243 113.729 377.693 119.179 384.398 119.179 C 391.103 119.179 396.553 113.729 396.553 107.024 C 396.553 100.318 391.103 94.869 384.398 94.869 Z M 384.398 95.801 C 390.6 95.801 395.622 100.822 395.622 107.024 C 395.622 113.226 390.6 118.247 384.398 118.247 C 378.196 118.247 373.174 113.226 373.174 107.024 C 373.174 100.822 378.196 95.801 384.398 95.801 Z" style="fill: rgb(30, 30, 30);" transform="matrix(0.965926, -0.258819, 0.258819, 0.965926, -14.601806, 103.13625)"/>
</svg>