<?xml version="1.0" encoding="utf-8"?>
<svg version="1.1" id="Layer_1" x="0px" y="0px" enable-background="new -1 -1 568.929 116.145" xmlns="http://www.w3.org/2000/svg">
  <g id="g3" transform="matrix(0.396318, 0, 0, 0.396318, -11.71596, -3.694082)">
    <path id="path16" d="M309.46,13.469l-7.131,21.726h3.521l7.146-20.979c0.26-0.959,1.043-1.659,1.963-1.659   c0.931,0,1.713,0.7,1.974,1.659l6.041,17.746h-9.479v3.232H327.6l-7.132-21.726c-0.684-2.396-2.893-4.146-5.51-4.146   C312.351,9.321,310.146,11.071,309.46,13.469z M313.638,26.961l1.248-3.706l1.301,3.706H313.638z M313.121,16.323l-6.387,18.872   h4.117l2.643-7.822v3.697h8.295l-4.926-14.747c-0.25-0.821-0.996-3.182-1.873-3.182C314.109,13.141,313.363,15.501,313.121,16.323   L313.121,16.323z M290.572,13.438h12.344v-3.53h-12.639c-3.408,0-6.172,2.771-6.172,6.18v12.936c0,3.409,2.764,6.172,6.172,6.172   h12.639V18.726h-9.992v3.234h6.461v9.702h-8.813c-1.627,0-2.936-1.315-2.936-2.938v-12.35   C287.634,14.755,288.945,13.438,290.572,13.438z M292.923,22.844v3.531h2.055v0.882h-2.055c-0.486,0-0.883-0.396-0.883-0.882   v-7.648c0-0.486,0.396-0.883,0.883-0.883h9.992V14.32h-11.461c-1.627,0-2.945,1.316-2.945,2.938v10.585   c0,1.622,1.318,2.938,2.945,2.938h7.055v-7.938L292.923,22.844L292.923,22.844z M270.292,13.438h12.344v-3.53h-12.641   c-3.408,0-6.17,2.771-6.17,6.18v12.792c0,3.408,2.762,6.179,6.17,6.179h12.641v-3.531h-12.344c-1.621,0-2.938-1.314-2.938-2.938   V16.376C267.354,14.755,268.671,13.438,270.292,13.438L270.292,13.438z M279.987,21.961v-3.234h-8.227   c0-0.486,0.395-0.883,0.883-0.883h9.992V14.32h-11.461c-1.621,0-2.936,1.316-2.936,2.938v4.703H279.987L279.987,21.961z    M279.987,23.14v3.234h-8.227c0,0.485,0.395,0.882,0.883,0.882h9.992v3.522h-11.461c-1.621,0-2.936-1.314-2.936-2.938v-4.703   L279.987,23.14L279.987,23.14z M249.784,27.547h-7.412v3.233h11.314h0.145c2.123-0.076,3.82-1.827,3.82-3.966   c0-2.189-1.773-3.972-3.965-3.972h-4.459c-1.803-0.686-3.334-2.474-3.334-4.559c0-2.679,2.467-4.848,5.145-4.848h11.027V9.907   h-11.469c-4.541,0-8.225,3.69-8.225,8.233c0,4.55,3.979,8.234,8.521,8.234v-0.038l0.023,0.038h2.625   c0.32,0,0.586,0.259,0.586,0.586c0,0.326-0.268,0.586-0.586,0.586H249.784L249.784,27.547z M254.646,17.554h7.42V14.32H250.75   h-0.152c-2.123,0.076-3.818,1.827-3.818,3.966c0,2.198,1.779,3.973,3.973,3.973h4.459c1.803,0.692,3.326,2.473,3.326,4.558   c0,2.68-2.465,4.849-5.146,4.849h-11.018v3.53h11.459c4.545,0,8.234-3.683,8.234-8.232c0-4.543-3.979-8.234-8.523-8.234v0.046   l-0.029-0.045h-2.619c-0.328,0-0.586-0.259-0.586-0.586c0-0.319,0.258-0.586,0.586-0.586L254.646,17.554L254.646,17.554z" style="fill-opacity: 1; fill: rgb(255, 255, 255);"/>
    <g id="g18" style="fill:#ffffff;fill-opacity:1">
      <polygon id="polygon37" points="260.669,47.433 260.669,99.606 243.101,99.606 243.101,80.333     209.429,61.171 209.429,99.606 191.86,99.606 191.86,47.433 210.161,47.433 243.101,66.173 243.101,47.433   " style="fill-opacity: 1;"/>
    </g>
    <g id="g48" style="fill:#ffffff;fill-opacity:1">
      <rect id="rect58" x="433.251" y="47.179" width="18.262" height="52.509" style="fill-opacity: 1;"/>
    </g>
    <g id="g78" style="fill:#ffffff;fill-opacity:1">
      <polygon id="polygon79" points="320.921,57.68 290.917,57.68 290.917,68.182 326.921,68.182     309.669,78.684 290.917,78.684 290.917,89.186 339.673,89.186 322.421,99.688 272.915,99.688 272.915,59.182 290.917,47.179     338.173,47.179   " style="fill-opacity: 1;"/>
    </g>
    <g id="g108" style="fill:#ffffff;fill-opacity:1">
      <polygon id="polygon100" points="161.399,57.878 131.563,57.878 131.563,68.317 167.366,68.317     150.21,78.762 131.563,78.762 131.563,89.204 180.047,89.204 162.89,99.647 113.66,99.647 113.66,59.368 131.563,47.433     178.555,47.433   " style="fill-opacity: 1;"/>
    </g>
    <g id="g138" style="fill:#ffffff;fill-opacity:1">
      <polygon id="polygon121" points="29.562,59.372 47.47,47.433 101.942,47.433 84.779,57.882     47.47,57.882 47.47,89.219 81.048,89.219 81.048,76.534 60.155,76.534 77.317,66.089 98.958,66.089 98.958,87.727 81.048,99.667     29.562,99.667   " style="fill-opacity: 1;"/>
    </g>
    <g id="g168" style="fill:#ffffff;fill-opacity:1">
      <polygon points="422.089,89.034 404.587,99.688 350.558,99.688 368.06,89.034 402.304,89.034 402.304,78.382     350.558,78.382 350.558,57.835 368.06,47.179 422.851,47.179 405.349,57.835 369.582,57.835 369.582,67.725 422.089,67.725   " id="polygon170" style="fill-opacity: 1;"/>
      <polygon id="polygon142" points="402.304,89.034 402.304,78.382 350.558,78.382 350.558,57.835     368.06,47.179 422.851,47.179 405.349,57.835 369.582,57.835 369.582,67.725 422.089,67.725 422.089,89.034 404.587,99.688     350.558,99.688 368.06,89.034   " style="fill-opacity: 1;"/>
    </g>
    <g id="g200" style="fill:#ffffff;fill-opacity:1">
      <polygon points="533.447,89.034 515.945,99.688 461.914,99.688 479.417,89.034 513.662,89.034 513.662,78.382     461.914,78.382 461.914,57.835 479.417,47.179 534.207,47.179 516.705,57.835 480.939,57.835 480.939,67.725 533.447,67.725   " id="polygon202" style="fill-opacity: 1;"/>
      <polygon id="polygon163" points="513.662,89.034 513.662,78.382 461.914,78.382 461.914,57.835     479.417,47.179 534.207,47.179 516.705,57.835 480.939,57.835 480.939,67.725 533.447,67.725 533.447,89.034 515.945,99.688     461.914,99.688 479.417,89.034   " style="fill-opacity: 1;"/>
    </g>
  </g>
</svg>