<?xml version="1.0" encoding="utf-8"?>
<svg version="1.2" baseProfile="tiny" id="Layer_3" x="0px" y="0px" preserveAspectRatio="none" xmlns="http://www.w3.org/2000/svg">
  <path d="M 408.312 218.214 L 408.956 216.862 C 423.872 231.905 443.31 241.074 465.657 243.03 L 465.657 243.03 L 465.522 244.569 C 442.8 242.58 422.398 232.482 407.238 217.191 L 408.312 218.214 Z" style="fill: rgb(30, 30, 30);" transform="matrix(0.965926, -0.258819, 0.258819, 0.965926, -44.841955, 120.822268)"/>
  <path d="M 477.077 221.825 C 508.383 218.82 534.958 200.498 549.195 174.095 L 549.195 174.095 L 549.197 174.095 L 550.72 174.486 C 536.246 201.328 509.062 220.306 477.225 223.364 L 477.225 223.364 L 477.077 221.825 L 477.077 221.825 Z" style="fill: rgb(30, 30, 30);" transform="matrix(0.965926, -0.258819, 0.258819, 0.965926, -33.924308, 139.778238)"/>
  <path d="M 541.28 139.901 C 542.771 133.319 543.42 127.17 543.42 120.136 L 543.42 120.136 C 543.42 119.432 543.486 119.486 543.469 118.784 L 543.469 118.784 L 543.471 118.784 L 544.94 117.994 C 544.956 118.705 544.964 119.42 544.964 120.136 L 544.964 120.136 C 544.965 127.285 544.164 134.248 542.648 140.941 L 542.648 140.941 L 541.28 139.901 L 541.28 139.901 Z" style="fill: rgb(30, 30, 30);" transform="matrix(0.965926, -0.258819, 0.258819, 0.965926, -15.00222, 144.981789)"/>
  <path d="M 436.902 53.129 C 400.389 53.129 368.9 74.039 353.967 104.823 L 353.967 104.823 L 353.967 104.825 L 352.515 104.464 C 367.697 73.164 399.78 51.584 436.902 51.584 L 436.902 51.584 C 481.225 51.585 518.363 82.346 528.128 123.69 L 528.128 123.69 L 526.306 123.044 C 516.702 82.387 480.493 53.127 436.902 53.129 L 436.902 53.129 Z" style="fill: rgb(30, 30, 30);" transform="matrix(0.965926, -0.258819, 0.258819, 0.965926, -7.678537, 116.949723)"/>
  <path d="M 370.075 185.589 L 371.572 185.658 C 372.603 190.62 373.511 194.093 375.305 198.727 L 375.305 198.727 L 374.403 200.242 C 372.578 195.531 371.124 190.633 370.075 185.589 L 370.075 185.589 Z" style="fill: rgb(30, 30, 30);" transform="matrix(0.965926, -0.258819, 0.258819, 0.965926, -37.231096, 103.03268)"/>
  <path d="M 401.791 140.564 C 401.791 123.825 401.791 63.568 401.791 63.568 L 401.791 63.568 L 403.336 63.568 C 403.336 63.568 403.336 78.633 403.336 95.789 L 403.336 95.789 C 403.336 112.945 403.336 132.195 403.336 140.564 L 403.336 140.564 C 403.336 152.514 408.178 163.323 416.007 171.155 L 416.007 171.155 C 423.839 178.984 434.65 183.825 446.598 183.825 L 446.598 183.825 C 458.546 183.825 469.357 178.983 477.189 171.155 L 477.189 171.155 C 485.02 163.323 489.86 152.512 489.86 140.564 L 489.86 140.564 C 489.86 122.667 489.86 63.183 489.86 63.183 L 489.86 63.183 L 491.406 63.183 C 491.405 63.193 491.405 66.899 491.406 72.756 L 491.406 72.756 C 491.405 78.612 491.405 86.607 491.406 95.161 L 491.406 95.161 C 491.405 112.269 491.405 131.614 491.406 140.563 L 491.406 140.563 C 491.405 165.311 471.343 185.37 446.598 185.37 L 446.598 185.37 C 421.851 185.37 401.791 165.312 401.791 140.564 L 401.791 140.564 Z" style="fill: rgb(30, 30, 30);" transform="matrix(0.965926, -0.258819, 0.258819, 0.965926, -16.947648, 119.822795)"/>
  <path d="M 422.329 150.991 C 420.195 150.991 418.466 149.262 418.466 147.128 L 418.466 147.128 L 418.466 103.352 C 418.466 101.217 420.195 99.489 422.329 99.489 L 422.329 99.489 L 471.384 99.489 C 473.519 99.489 475.246 101.217 475.248 103.352 L 475.248 103.352 L 475.248 147.128 L 475.246 147.128 C 475.246 149.262 473.519 150.991 471.384 150.991 L 471.384 150.991 L 422.329 150.991 L 422.329 150.991 Z M 420.012 103.352 L 420.012 147.128 C 420.013 148.407 421.05 149.444 422.329 149.445 L 422.329 149.445 L 471.384 149.445 C 472.664 149.444 473.699 148.407 473.703 147.128 L 473.703 147.128 L 473.701 147.128 L 473.703 103.352 C 473.699 102.071 472.664 101.036 471.384 101.033 L 471.384 101.033 L 422.329 101.033 C 421.049 101.036 420.013 102.072 420.012 103.352 L 420.012 103.352 Z" style="fill: rgb(30, 30, 30);" transform="matrix(0.965926, -0.258819, 0.258819, 0.965926, -17.188214, 119.92252)"/>
  <path d="M 420.297 154.038 C 418.497 153.405 417.402 152.973 416.779 152.471 L 416.779 152.471 C 415.523 151.215 414.742 149.472 414.742 147.556 L 414.742 147.556 L 414.742 102.522 C 414.742 100.604 415.523 98.861 416.824 97.565 L 416.824 97.565 C 417.403 97.105 418.498 96.671 420.298 96.037 L 420.298 96.037 C 422.074 95.429 424.439 94.729 427.184 94.064 L 427.184 94.064 C 432.676 92.735 439.68 91.546 446.466 91.546 L 446.466 91.546 C 455.424 91.549 466.198 93.753 471.832 95.319 L 471.832 95.319 C 473.728 95.854 474.976 96.265 475.62 96.64 L 475.62 96.64 C 477.567 97.871 478.86 100.046 478.863 102.521 L 478.863 102.521 L 478.863 147.554 C 478.86 150.028 477.565 152.205 475.606 153.442 L 475.606 153.442 C 474.976 153.81 473.727 154.221 471.83 154.757 L 471.83 154.757 C 469.952 155.279 467.502 155.871 464.739 156.43 L 464.739 156.43 C 459.212 157.545 452.435 158.528 446.463 158.53 L 446.463 158.53 C 436.287 158.528 425.616 155.859 420.297 154.038 L 420.297 154.038 Z M 420.799 97.5 C 419.106 98.064 417.902 98.639 417.872 98.698 L 417.872 98.698 C 416.892 99.68 416.289 101.027 416.288 102.522 L 416.288 102.522 L 416.288 147.555 C 416.289 149.05 416.893 150.395 417.828 151.336 L 417.828 151.336 C 417.903 151.436 419.106 152.013 420.8 152.578 L 420.8 152.578 C 422.52 153.167 424.846 153.856 427.548 154.51 L 427.548 154.51 C 432.95 155.818 439.86 156.986 446.466 156.986 L 446.466 156.986 C 455.177 156.99 465.909 154.805 471.418 153.269 L 471.418 153.269 C 473.237 152.771 474.552 152.29 474.794 152.129 L 474.794 152.129 C 476.312 151.168 477.318 149.481 477.318 147.555 L 477.318 147.555 L 477.318 102.522 C 477.318 100.594 476.312 98.907 474.808 97.954 L 474.808 97.954 C 474.552 97.785 473.237 97.304 471.418 96.807 L 471.418 96.807 C 469.582 96.296 467.164 95.712 464.437 95.16 L 464.437 95.16 C 458.98 94.057 452.273 93.089 446.467 93.091 L 446.467 93.091 C 446.457 93.091 446.448 93.091 446.439 93.091 L 446.439 93.091 C 436.538 93.091 425.959 95.727 420.799 97.5 L 420.799 97.5 Z" style="fill: rgb(30, 30, 30);" transform="matrix(0.965926, -0.258819, 0.258819, 0.965926, -17.137788, 119.901526)"/>
  <path d="M 520.179 112.289 C 520.18 106.582 524.806 101.956 530.513 101.956 L 530.513 101.956 C 536.22 101.956 540.844 106.582 540.846 112.289 L 540.846 112.289 C 540.844 117.995 536.22 122.621 530.513 122.621 L 530.513 122.621 C 524.806 122.621 520.18 117.995 520.179 112.289 L 520.179 112.289 Z M 521.726 112.289 C 521.735 117.142 525.661 121.066 530.513 121.076 L 530.513 121.076 C 535.365 121.067 539.29 117.142 539.3 112.289 L 539.3 112.289 C 539.29 107.436 535.365 103.51 530.513 103.502 L 530.513 103.502 C 525.659 103.511 521.732 107.437 521.726 112.289 L 521.726 112.289 Z" style="fill: rgb(30, 30, 30);" transform="matrix(0.965926, -0.258819, 0.258819, 0.965926, -10.985629, 141.132846)"/>
  <path d="M 531.026 152.772 C 531.027 147.064 535.653 142.439 541.36 142.439 L 541.36 142.439 C 547.067 142.439 551.691 147.064 551.693 152.772 L 551.693 152.772 C 551.691 158.477 547.067 163.103 541.36 163.104 L 541.36 163.104 C 535.653 163.103 531.027 158.477 531.026 152.772 L 531.026 152.772 Z M 532.573 152.772 C 532.582 157.622 536.508 161.55 541.36 161.558 L 541.36 161.558 C 546.211 161.55 550.138 157.622 550.147 152.772 L 550.147 152.772 C 550.138 147.919 546.212 143.993 541.36 143.984 L 541.36 143.984 C 536.506 143.993 532.579 147.919 532.573 152.772 L 532.573 152.772 Z" style="fill: rgb(30, 30, 30);" transform="matrix(0.965926, -0.258819, 0.258819, 0.965926, -21.093796, 145.319673)"/>
  <path d="M 504.21 137.763 C 504.212 132.054 508.838 127.43 514.545 127.428 L 514.545 127.428 C 520.251 127.43 524.876 132.056 524.877 137.763 L 524.877 137.763 C 524.876 143.468 520.251 148.094 514.545 148.095 L 514.545 148.095 C 508.836 148.094 504.212 143.469 504.21 137.763 L 504.21 137.763 Z M 505.757 137.763 C 505.766 142.615 509.692 146.54 514.545 146.548 L 514.545 146.548 C 519.395 146.541 523.322 142.615 523.331 137.763 L 523.331 137.763 C 523.322 132.909 519.397 128.983 514.545 128.975 L 514.545 128.975 C 509.691 128.984 505.764 132.91 505.757 137.763 L 505.757 137.763 Z" style="fill: rgb(30, 30, 30);" transform="matrix(0.965926, -0.258819, 0.258819, 0.965926, -18.122657, 137.867733)"/>
  <path d="M 545.252 126.765 C 545.252 121.057 549.88 116.433 555.585 116.431 L 555.585 116.431 C 561.293 116.433 565.917 121.057 565.919 126.765 L 565.919 126.765 C 565.917 132.471 561.293 137.097 555.585 137.098 L 555.585 137.098 C 549.878 137.097 545.252 132.472 545.252 126.765 L 545.252 126.765 Z M 546.798 126.765 C 546.806 131.617 550.734 135.543 555.585 135.552 L 555.585 135.552 C 560.438 135.542 564.364 131.617 564.372 126.765 L 564.372 126.765 C 564.364 121.911 560.438 117.985 555.585 117.977 L 555.585 117.977 C 550.732 117.986 546.806 121.911 546.798 126.765 L 546.798 126.765 Z" style="fill: rgb(30, 30, 30);" transform="matrix(0.965926, -0.258819, 0.258819, 0.965926, -13.877958, 148.115279)"/>
  <g transform="matrix(0.746209, -0.199946, 0.199946, 0.746209, 202.101028, 105.108597)">
    <path d="M192.721,338.768c-2.901-0.075-5.144-2.524-6.707-4.33l0,0c-13.808-16.521-25.661-42.856-30.04-61.243l0,0&#10;&#9;&#9;c-3.166-13.334-16.86-66.77-16.86-132.398l0,0c0-18.782,3.224-34.483,6.684-45.828l0,0c3.439-11.247,7.036-18.132,8.122-19.737l0,0&#10;&#9;&#9;c0.627-1.135,1.617-2.036,2.818-2.55l0,0c0.727-0.348,2.667-1.014,5.65-1.958l0,0c3.015-0.95,6.999-2.136,11.411-3.34l0,0&#10;&#9;&#9;c8.83-2.411,19.353-4.901,27.293-5.748l0,0h0.002l0.209,1.989c-11.597,1.229-29.36,6.18-38.314,9.006l0,0&#10;&#9;&#9;c-2.96,0.93-5.058,1.679-5.383,1.854l0,0l-0.04,0.019l-0.025,0.011c-0.806,0.34-1.473,0.95-1.886,1.716l0,0l-0.027,0.05&#10;&#9;&#9;l-0.034,0.048c-0.797,1.123-4.489,8.062-7.882,19.223l0,0c-3.411,11.186-6.596,26.693-6.596,45.245l0,0&#10;&#9;&#9;c0,65.371,13.638,118.603,16.806,131.935l0,0c4.271,18.033,16.104,44.277,29.626,60.423l0,0c1.408,1.741,3.613,3.69,5.173,3.614&#10;&#9;&#9;l0,0c0.657-0.012,1.278-0.23,2.035-1.049l0,0c0.743-0.818,1.54-2.27,2.236-4.551l0,0c3.147-10.256,8.152-32.625,14.01-49.861l0,0&#10;&#9;&#9;c5.886-17.318,21.102-43.045,23.045-47.11l0,0l1.802,0.866c-2.056,4.268-17.175,29.872-22.955,46.889l0,0&#10;&#9;&#9;c-5.809,17.098-10.802,39.396-13.991,49.805l0,0c-0.753,2.451-1.63,4.154-2.664,5.305l0,0c-1.013,1.139-2.262,1.707-3.479,1.707&#10;&#9;&#9;l0,0C192.748,338.768,192.734,338.768,192.721,338.768L192.721,338.768z" style="fill: rgb(30, 30, 30);"/>
    <path d="M402.321,337.061c-1.036-1.149-1.911-2.854-2.664-5.306l0,0c-3.186-10.408-8.178-32.707-13.989-49.805l0,0&#10;&#9;&#9;c-5.777-17.016-20.897-42.619-22.955-46.888l0,0l1.803-0.866c1.942,4.064,17.158,29.792,23.046,47.11l0,0&#10;&#9;&#9;c5.856,17.237,10.864,39.604,14.01,49.864l0,0c0.695,2.279,1.49,3.729,2.233,4.547l0,0c0.755,0.818,1.378,1.039,2.036,1.05l0,0&#10;&#9;&#9;c1.563,0.075,3.768-1.873,5.174-3.614l0,0c13.525-16.146,25.354-42.39,29.627-60.423l0,0&#10;&#9;&#9;c3.168-13.332,16.807-66.565,16.807-131.935l0,0c0.002-18.552-3.186-34.059-6.596-45.245l0,0&#10;&#9;&#9;c-3.394-11.161-7.084-18.1-7.883-19.223l0,0l-0.035-0.05l-0.025-0.048c-0.411-0.766-1.08-1.376-1.948-1.746l0,0&#10;&#9;&#9;c-0.327-0.176-2.424-0.925-5.386-1.854l0,0c-2.987-0.942-6.95-2.121-11.337-3.319l0,0c-8.77-2.396-19.252-4.867-26.979-5.687l0,0&#10;&#9;&#9;l0.212-1.989c11.901,1.271,29.655,6.239,38.706,9.088l0,0c3.039,0.963,4.999,1.636,5.626,1.949l0,0&#10;&#9;&#9;c1.212,0.513,2.212,1.418,2.841,2.561l0,0c1.087,1.606,4.686,8.491,8.121,19.736l0,0c3.459,11.345,6.685,27.046,6.685,45.828l0,0&#10;&#9;&#9;c0,65.628-13.695,119.064-16.86,132.398l0,0c-4.377,18.387-16.23,44.723-30.04,61.243l0,0c-1.563,1.806-3.806,4.255-6.707,4.33l0,0&#10;&#9;&#9;c-0.013,0-0.025,0-0.04,0l0,0C404.582,338.768,403.334,338.2,402.321,337.061L402.321,337.061z" style="fill: rgb(30, 30, 30);"/>
  </g>
  <path d="M 482.585 254.016 C 455.877 254.016 431.472 258.042 412.852 264.664 L 412.852 264.664 L 412.852 264.666 L 412.334 263.208 C 431.167 256.511 455.721 252.473 482.585 252.473 L 482.585 252.473 C 509.475 252.473 534.051 256.521 552.893 263.229 L 552.893 263.229 L 552.374 264.684 C 533.745 258.051 509.319 254.016 482.585 254.016 L 482.585 254.016 Z" style="fill: rgb(30, 30, 30);" transform="matrix(0.965926, -0.258819, 0.258819, 0.965926, -50.480414, 133.720554)"/>
  <path d="M 489.653 229.145 L 489.656 229.145 L 490.927 228.271 C 493.67 232.27 495.518 237.429 496.076 243.16 L 496.076 243.16 L 494.539 243.308 C 494.007 237.819 492.231 232.898 489.653 229.145 L 489.653 229.145 Z" style="fill: rgb(30, 30, 30);" transform="matrix(0.965926, -0.258819, 0.258819, 0.965926, -44.232888, 135.597201)"/>
  <path d="M 459.077 251.371 C 459.633 245.642 461.479 240.482 464.217 236.483 L 464.217 236.483 L 465.492 237.354 C 462.919 241.109 461.146 246.03 460.615 251.52 L 460.615 251.52 L 460.615 251.521 L 459.077 251.371 L 459.077 251.371 Z" style="fill: rgb(30, 30, 30);" transform="matrix(0.965926, -0.258819, 0.258819, 0.965926, -47.400359, 127.961991)"/>
  <path d="M 475.609 244.452 C 469.757 244.441 465.251 243.803 464.434 243.58 L 464.434 243.58 C 463.6 243.318 462.996 242.546 462.977 241.63 L 462.977 241.63 C 462.977 241.623 462.977 241.615 462.977 241.609 L 462.977 241.609 C 462.977 241.587 462.977 241.587 462.977 241.587 L 462.977 241.587 C 462.977 241.356 463.016 241.13 463.08 240.948 L 463.08 240.948 C 463.279 240.324 465.101 235.803 467.829 231.017 L 467.829 231.017 C 469.603 227.918 471.982 224.483 473.27 222.782 L 473.27 222.782 C 473.727 222.194 473.948 221.887 474.198 221.676 L 474.198 221.676 C 474.545 221.361 475.005 221.16 475.505 221.139 L 475.505 221.139 C 475.556 221.133 475.591 221.134 475.613 221.136 L 475.613 221.136 C 475.613 221.136 475.614 221.136 475.615 221.136 L 475.615 221.136 C 476.134 221.142 476.614 221.342 476.985 221.676 L 476.985 221.676 C 477.315 221.997 478.263 223.174 479.542 224.885 L 479.542 224.885 C 480.797 226.576 482.29 228.711 483.462 230.714 L 483.462 230.714 C 484.632 232.712 485.767 235.004 486.633 236.891 L 486.633 236.891 C 487.45 238.688 488.001 240.004 488.176 240.615 L 488.176 240.615 C 488.299 240.881 488.371 241.179 488.37 241.492 L 488.37 241.492 L 488.37 242.264 L 488.224 242.264 C 487.939 242.986 487.263 243.507 486.454 243.57 L 486.454 243.57 L 486.454 243.57 C 485.964 243.608 481.063 244.452 475.623 244.452 L 475.623 244.452 C 475.62 244.452 475.615 244.452 475.609 244.452 L 475.609 244.452 Z M 464.522 241.597 C 464.522 241.837 464.681 242.036 464.881 242.099 L 464.881 242.099 C 465.284 242.228 469.943 242.915 475.609 242.905 L 475.609 242.905 C 480.952 242.903 485.632 242.091 486.329 242.029 L 486.329 242.029 L 486.393 242.8 L 486.336 242.029 C 486.606 242.011 486.827 241.779 486.827 241.499 L 486.827 241.499 C 486.826 241.487 486.825 241.474 486.826 241.452 L 486.826 241.452 C 486.821 241.379 486.801 241.311 486.768 241.248 L 486.768 241.248 L 486.72 241.153 L 486.697 241.047 C 486.681 240.91 486.074 239.353 485.233 237.532 L 485.233 237.532 C 484.382 235.68 483.263 233.42 482.132 231.492 L 482.132 231.492 C 481.005 229.566 479.539 227.463 478.304 225.804 L 478.304 225.804 C 477.091 224.162 476.021 222.872 475.947 222.81 L 475.947 222.81 C 475.857 222.733 475.75 222.685 475.626 222.677 L 475.626 222.677 L 475.592 222.677 C 475.46 222.679 475.342 222.726 475.206 222.84 L 475.206 222.84 L 475.206 222.841 C 475.206 222.841 475.206 222.841 475.2 222.848 L 475.2 222.848 C 475.193 222.856 475.183 222.867 475.168 222.882 L 475.168 222.882 C 475.131 222.922 475.077 222.985 475.012 223.062 L 475.012 223.062 C 474.883 223.219 474.708 223.44 474.501 223.712 L 474.501 223.712 C 474.088 224.257 473.548 225.002 472.949 225.862 L 472.949 225.862 C 471.752 227.584 470.317 229.774 469.17 231.781 L 469.17 231.781 C 466.517 236.412 464.667 241.022 464.548 241.424 L 464.548 241.424 C 464.533 241.465 464.525 241.505 464.521 241.551 L 464.521 241.551 L 464.522 241.597 L 464.522 241.597 Z" style="fill: rgb(30, 30, 30);" transform="matrix(0.965926, -0.258819, 0.258819, 0.965926, -44.043098, 131.045393)"/>
  <path d="M 390.293 231.61 C 387.107 231.61 384.063 230.979 381.287 229.833 L 381.287 229.833 L 380.901 229.673 L 380.822 229.264 L 380.763 228.963 L 380.765 217.533 L 369.321 217.533 L 368.642 217.489 L 368.457 217.045 C 367.303 214.26 366.666 211.203 366.666 208.006 L 366.666 208.006 C 366.666 204.821 367.297 201.781 368.441 199.008 L 368.441 199.008 L 368.538 198.769 L 368.761 198.637 L 369.027 198.479 L 380.765 198.479 L 380.765 186.744 L 380.91 186.542 L 381.166 186.189 L 381.369 186.105 C 384.161 184.941 387.09 184.356 390.293 184.358 L 390.293 184.358 C 393.478 184.358 396.519 184.989 399.293 186.133 L 399.293 186.133 L 399.635 186.274 L 399.741 186.628 L 399.821 186.896 L 399.821 198.478 L 411.612 198.478 L 411.84 198.719 L 412.078 198.967 L 412.134 199.102 C 413.302 201.895 413.921 204.79 413.919 208.007 L 413.919 208.007 C 413.919 211.181 413.291 214.214 412.153 216.984 L 412.153 216.984 L 412.088 217.146 L 411.953 217.265 L 411.654 217.533 L 399.821 217.532 L 399.821 229.168 L 399.708 229.352 L 399.481 229.729 L 399.248 229.826 C 396.458 230.991 393.514 231.61 390.304 231.61 L 390.304 231.61 C 390.302 231.61 390.298 231.61 390.293 231.61 L 390.293 231.61 Z M 390.293 230.066 C 393.167 230.066 395.774 229.546 398.276 228.555 L 398.276 228.555 L 398.276 217.246 C 398.266 216.908 398.391 216.488 398.716 216.237 L 398.716 216.237 C 399.034 215.996 399.336 215.992 399.511 215.988 L 399.511 215.988 L 410.888 215.988 C 411.848 213.513 412.375 210.822 412.375 208.006 L 412.375 208.006 C 412.373 205.11 411.85 202.542 410.842 200.023 L 410.842 200.023 L 399.548 200.023 L 399.548 199.25 L 399.548 198.821 L 399.548 199.25 L 399.548 200.023 C 399.235 200.033 398.799 199.913 398.543 199.573 L 398.543 199.573 C 398.298 199.241 398.281 198.924 398.277 198.669 L 398.277 198.669 L 398.277 187.391 C 395.8 186.431 393.111 185.903 390.294 185.903 L 390.294 185.903 C 387.41 185.903 384.814 186.399 382.31 187.39 L 382.31 187.39 L 382.31 198.658 C 382.305 198.915 382.294 199.225 382.053 199.563 L 382.053 199.563 C 381.799 199.91 381.354 200.035 381.043 200.023 L 381.043 200.023 L 369.698 200.023 C 368.739 202.499 368.212 205.189 368.212 208.007 L 368.212 208.007 C 368.212 210.824 368.738 213.513 369.699 215.989 L 369.699 215.989 L 381.054 215.989 C 381.433 215.972 381.89 216.159 382.102 216.495 L 382.102 216.495 C 382.313 216.818 382.305 217.095 382.31 217.234 L 382.31 217.234 L 382.31 228.578 C 384.785 229.539 387.475 230.066 390.293 230.066 L 390.293 230.066 Z M 399.548 198.593 L 399.548 198.48 L 399.548 198.593 L 399.548 198.593 Z" style="fill: rgb(30, 30, 30);" transform="matrix(0.965926, -0.258819, 0.258819, 0.965926, -40.53129, 108.101842)"/>
  <path d="M 383.822 207.984 C 383.823 204.41 386.719 201.515 390.293 201.513 L 390.293 201.513 C 393.866 201.515 396.762 204.41 396.763 207.984 L 396.763 207.984 C 396.762 211.558 393.867 214.453 390.293 214.455 L 390.293 214.455 C 386.72 214.453 383.823 211.558 383.822 207.984 L 383.822 207.984 Z M 385.369 207.984 C 385.373 210.703 387.573 212.904 390.293 212.908 L 390.293 212.908 C 393.014 212.904 395.214 210.703 395.219 207.984 L 395.219 207.984 C 395.214 205.264 393.014 203.065 390.293 203.06 L 390.293 203.06 C 387.573 203.065 385.373 205.264 385.369 207.984 L 385.369 207.984 Z" style="fill: rgb(30, 30, 30);" transform="matrix(0.965926, -0.258819, 0.258819, 0.965926, -40.53129, 108.101842)"/>
  <path d="M 331.723 156.884 C 331.723 141.177 344.455 128.445 360.162 128.445 L 360.162 128.445 C 375.869 128.445 388.6 141.177 388.6 156.884 L 388.6 156.884 C 388.6 172.591 375.869 185.323 360.162 185.323 L 360.162 185.323 C 344.455 185.323 331.723 172.59 331.723 156.884 L 331.723 156.884 Z M 341.145 137.869 C 336.276 142.737 333.268 149.457 333.268 156.885 L 333.268 156.885 C 333.268 164.313 336.276 171.032 341.145 175.903 L 341.145 175.903 C 346.014 180.77 352.733 183.778 360.161 183.778 L 360.161 183.778 C 367.59 183.778 374.309 180.77 379.177 175.903 L 379.177 175.903 C 384.046 171.032 387.055 164.314 387.055 156.885 L 387.055 156.885 C 387.055 149.456 384.046 142.737 379.177 137.869 L 379.177 137.869 C 374.308 133 367.589 129.991 360.161 129.991 L 360.161 129.991 C 352.733 129.99 346.014 132.999 341.145 137.869 L 341.145 137.869 Z" style="fill: rgb(30, 30, 30);" transform="matrix(0.965926, -0.258819, 0.258819, 0.965926, -28.332351, 98.562268)"/>
  <path d="M 340.317 156.884 C 340.317 145.923 349.201 137.041 360.162 137.039 L 360.162 137.039 C 371.121 137.041 380.005 145.923 380.005 156.884 L 380.005 156.884 C 380.005 167.844 371.121 176.728 360.162 176.729 L 360.162 176.729 C 349.201 176.728 340.317 167.844 340.317 156.884 L 340.317 156.884 Z M 341.861 156.884 C 341.878 166.99 350.054 175.165 360.162 175.183 L 360.162 175.183 C 370.268 175.166 378.442 166.991 378.461 156.884 L 378.461 156.884 C 378.442 146.778 370.268 138.603 360.162 138.585 L 360.162 138.585 C 350.054 138.604 341.879 146.779 341.861 156.884 L 341.861 156.884 Z" style="fill: rgb(30, 30, 30);" transform="matrix(0.965926, -0.258819, 0.258819, 0.965926, -28.332377, 98.562195)"/>
</svg>