<?xml version="1.0" encoding="utf-8"?>
<svg version="1.2" baseProfile="tiny" id="Layer_3" x="0px" y="0px" viewBox="0 0 1280 720" preserveAspectRatio="none" xmlns="http://www.w3.org/2000/svg">
  <path d="M 522.073 455.798 L 523.529 452.739 C 557.284 486.779 601.268 507.529 651.837 511.954 L 651.837 511.954 L 651.533 515.436 C 600.114 510.936 553.947 488.085 519.641 453.483 L 522.073 455.798 Z" style="fill: rgb(30, 30, 30);" transform="matrix(0.965926, -0.258819, 0.258819, 0.965926, -105.332554, 168.09542)"/>
  <path d="M 677.679 463.969 C 748.521 457.17 808.658 415.709 840.876 355.962 L 840.876 355.962 L 840.88 355.962 L 844.327 356.847 C 811.572 417.588 750.058 460.533 678.014 467.453 L 678.014 467.453 L 677.679 463.969 L 677.679 463.969 Z" style="fill: rgb(30, 30, 30);" transform="matrix(0.965926, -0.258819, 0.258819, 0.965926, -80.627241, 210.99084)"/>
  <path d="M 822.964 278.584 C 826.339 263.69 827.808 249.776 827.808 233.859 L 827.808 233.859 C 827.808 232.265 827.956 232.387 827.918 230.8 L 827.918 230.8 L 827.923 230.8 L 831.246 229.012 C 831.283 230.62 831.301 232.239 831.301 233.858 L 831.301 233.858 C 831.304 250.035 829.491 265.793 826.06 280.937 L 826.06 280.937 L 822.964 278.584 L 822.964 278.584 Z" style="fill: rgb(30, 30, 30);" transform="matrix(0.965926, -0.258819, 0.258819, 0.965926, -37.808394, 222.765555)"/>
  <path d="M 586.769 82.229 C 504.144 82.229 432.887 129.545 399.095 199.207 L 399.095 199.207 L 399.095 199.211 L 395.81 198.394 C 430.164 127.566 502.765 78.733 586.769 78.733 L 586.769 78.733 C 687.066 78.736 771.105 148.343 793.202 241.901 L 793.202 241.901 L 789.08 240.438 C 767.348 148.437 685.41 82.224 586.769 82.229 L 586.769 82.229 Z" style="fill: rgb(30, 30, 30);" transform="matrix(0.965926, -0.258819, 0.258819, 0.965926, -21.235796, 159.332116)"/>
  <path d="M 435.547 381.971 L 438.933 382.128 C 441.267 393.355 443.322 401.215 447.382 411.702 L 447.382 411.702 L 445.34 415.13 C 441.211 404.468 437.921 393.386 435.547 381.971 L 435.547 381.971 Z" style="fill: rgb(30, 30, 30);" transform="matrix(0.965926, -0.258819, 0.258819, 0.965926, -88.109982, 127.839795)"/>
  <path d="M 507.317 280.085 C 507.317 242.206 507.317 105.852 507.317 105.852 L 507.317 105.852 L 510.813 105.852 C 510.813 105.852 510.813 139.941 510.813 178.765 L 510.813 178.765 C 510.813 217.585 510.813 261.147 510.813 280.085 L 510.813 280.085 C 510.813 307.126 521.769 331.586 539.486 349.309 L 539.486 349.309 C 557.209 367.026 581.673 377.979 608.71 377.979 L 608.71 377.979 C 635.747 377.979 660.211 367.023 677.934 349.309 L 677.934 349.309 C 695.653 331.586 706.607 307.122 706.607 280.085 L 706.607 280.085 C 706.607 239.586 706.607 104.979 706.607 104.979 L 706.607 104.979 L 710.105 104.979 C 710.102 105.002 710.102 113.39 710.105 126.642 L 710.105 126.642 C 710.102 139.895 710.102 157.985 710.105 177.342 L 710.105 177.342 C 710.102 216.057 710.102 259.833 710.105 280.083 L 710.105 280.083 C 710.102 336.084 664.705 381.477 608.71 381.477 L 608.71 381.477 C 552.71 381.477 507.317 336.088 507.317 280.085 L 507.317 280.085 Z" style="fill: rgb(30, 30, 30);" transform="matrix(0.965926, -0.258819, 0.258819, 0.965926, -42.210707, 165.833771)"/>
  <path d="M 553.792 303.68 C 548.962 303.68 545.049 299.768 545.049 294.938 L 545.049 294.938 L 545.049 195.878 C 545.049 191.048 548.962 187.136 553.792 187.136 L 553.792 187.136 L 664.798 187.136 C 669.628 187.136 673.537 191.048 673.541 195.878 L 673.541 195.878 L 673.541 294.938 L 673.537 294.938 C 673.537 299.768 669.628 303.68 664.798 303.68 L 664.798 303.68 L 553.792 303.68 L 553.792 303.68 Z M 548.547 195.878 L 548.547 294.938 C 548.551 297.832 550.897 300.18 553.792 300.182 L 553.792 300.182 L 664.798 300.182 C 667.693 300.179 670.036 297.832 670.044 294.938 L 670.044 294.938 L 670.041 294.938 L 670.044 195.878 C 670.036 192.98 667.693 190.637 664.798 190.63 L 664.798 190.63 L 553.792 190.63 C 550.895 190.637 548.551 192.981 548.547 195.878 L 548.547 195.878 Z" style="fill: rgb(30, 30, 30);" transform="matrix(0.965926, -0.258819, 0.258819, 0.965926, -42.755031, 166.059205)"/>
  <path d="M 549.194 310.576 C 545.121 309.143 542.642 308.164 541.232 307.029 L 541.232 307.029 C 538.389 304.187 536.623 300.243 536.623 295.906 L 536.623 295.906 L 536.623 194 C 536.623 189.659 538.389 185.716 541.333 182.782 L 541.333 182.782 C 542.644 181.742 545.121 180.76 549.196 179.326 L 549.196 179.326 C 553.214 177.95 558.565 176.365 564.778 174.861 L 564.778 174.861 C 577.205 171.853 593.054 169.162 608.41 169.162 L 608.41 169.162 C 628.681 169.169 653.061 174.157 665.811 177.7 L 665.811 177.7 C 670.102 178.91 672.926 179.842 674.382 180.69 L 674.382 180.69 C 678.789 183.474 681.715 188.397 681.721 193.998 L 681.721 193.998 L 681.721 295.902 C 681.715 301.5 678.785 306.428 674.352 309.226 L 674.352 309.226 C 672.926 310.06 670.099 310.989 665.807 312.202 L 665.807 312.202 C 661.556 313.384 656.012 314.723 649.761 315.987 L 649.761 315.987 C 637.253 318.511 621.918 320.736 608.403 320.74 L 608.403 320.74 C 585.376 320.735 561.229 314.696 549.194 310.576 L 549.194 310.576 Z M 550.329 182.635 C 546.497 183.913 543.773 185.214 543.705 185.347 L 543.705 185.347 C 541.487 187.569 540.123 190.616 540.12 194 L 540.12 194 L 540.12 295.904 C 540.123 299.288 541.489 302.332 543.606 304.461 L 543.606 304.461 C 543.775 304.688 546.499 305.992 550.331 307.27 L 550.331 307.27 C 554.224 308.604 559.486 310.164 565.601 311.644 L 565.601 311.644 C 577.826 314.602 593.461 317.247 608.41 317.247 L 608.41 317.247 C 628.122 317.254 652.409 312.31 664.875 308.835 L 664.875 308.835 C 668.991 307.707 671.966 306.62 672.513 306.255 L 672.513 306.255 C 675.948 304.08 678.226 300.264 678.226 295.904 L 678.226 295.904 L 678.226 194 C 678.226 189.637 675.948 185.819 672.545 183.663 L 672.545 183.663 C 671.966 183.28 668.991 182.193 664.875 181.067 L 664.875 181.067 C 660.72 179.912 655.248 178.59 649.076 177.34 L 649.076 177.34 C 636.728 174.844 621.551 172.655 608.412 172.659 L 608.412 172.659 C 608.391 172.659 608.371 172.659 608.35 172.659 L 608.35 172.659 C 585.944 172.659 562.005 178.623 550.329 182.635 L 550.329 182.635 Z" style="fill: rgb(30, 30, 30);" transform="matrix(0.965926, -0.258819, 0.258819, 0.965926, -42.640963, 166.011942)"/>
  <path d="M 775.215 216.101 C 775.218 203.187 785.685 192.719 798.6 192.719 L 798.6 192.719 C 811.514 192.719 821.978 203.187 821.982 216.101 L 821.982 216.101 C 821.978 229.013 811.514 239.481 798.6 239.482 L 798.6 239.482 C 785.685 239.481 775.218 229.014 775.215 216.101 L 775.215 216.101 Z M 778.715 216.101 C 778.736 227.083 787.62 235.963 798.6 235.986 L 798.6 235.986 C 809.58 235.965 818.461 227.084 818.484 216.101 L 818.484 216.101 C 818.461 205.119 809.58 196.235 798.6 196.217 L 798.6 196.217 C 787.616 196.238 778.73 205.122 778.715 216.101 L 778.715 216.101 Z" style="fill: rgb(30, 30, 30);" transform="matrix(0.965926, -0.258819, 0.258819, 0.965926, -28.719344, 214.055904)"/>
  <path d="M 799.761 307.709 C 799.764 294.794 810.232 284.327 823.146 284.327 L 823.146 284.327 C 836.06 284.327 846.524 294.794 846.529 307.709 L 846.529 307.709 C 846.524 320.619 836.06 331.087 823.146 331.091 L 823.146 331.091 C 810.232 331.087 799.764 320.619 799.761 307.709 L 799.761 307.709 Z M 803.261 307.709 C 803.282 318.686 812.167 327.573 823.146 327.591 L 823.146 327.591 C 834.123 327.573 843.008 318.686 843.03 307.709 L 843.03 307.709 C 843.008 296.727 834.126 287.843 823.146 287.824 L 823.146 287.824 C 812.162 287.843 803.276 296.729 803.261 307.709 L 803.261 307.709 Z" style="fill: rgb(30, 30, 30);" transform="matrix(0.965926, -0.258819, 0.258819, 0.965926, -51.59299, 223.530803)"/>
  <path d="M 739.08 273.746 C 739.084 260.828 749.552 250.364 762.465 250.36 L 762.465 250.36 C 775.379 250.364 785.843 260.832 785.847 273.746 L 785.847 273.746 C 785.843 286.656 775.379 297.124 762.465 297.127 L 762.465 297.127 C 749.548 297.124 739.084 286.658 739.08 273.746 L 739.08 273.746 Z M 742.58 273.746 C 742.601 284.726 751.485 293.608 762.465 293.627 L 762.465 293.627 C 773.442 293.61 782.328 284.726 782.347 273.746 L 782.347 273.746 C 782.328 262.762 773.446 253.878 762.465 253.86 L 762.465 253.86 C 751.482 253.88 742.596 262.764 742.58 273.746 L 742.58 273.746 Z" style="fill: rgb(30, 30, 30);" transform="matrix(0.965926, -0.258819, 0.258819, 0.965926, -44.869715, 206.66762)"/>
  <path d="M 831.953 248.859 C 831.953 235.943 842.424 225.479 855.336 225.475 L 855.336 225.475 C 868.252 225.479 878.716 235.943 878.72 248.859 L 878.72 248.859 C 878.716 261.771 868.252 272.239 855.336 272.242 L 855.336 272.242 C 842.421 272.239 831.953 261.773 831.953 248.859 L 831.953 248.859 Z M 835.451 248.859 C 835.47 259.839 844.358 268.723 855.336 268.744 L 855.336 268.744 C 866.317 268.721 875.201 259.839 875.218 248.859 L 875.218 248.859 C 875.201 237.875 866.317 228.991 855.336 228.974 L 855.336 228.974 C 844.354 228.993 835.469 237.875 835.451 248.859 L 835.451 248.859 Z" style="fill: rgb(30, 30, 30);" transform="matrix(0.965926, -0.258819, 0.258819, 0.965926, -35.264435, 229.856884)"/>
  <g transform="matrix(1.688591, -0.452457, 0.452457, 1.688591, 55.43932, 199.853226)">
    <path d="M192.721,338.768c-2.901-0.075-5.144-2.524-6.707-4.33l0,0c-13.808-16.521-25.661-42.856-30.04-61.243l0,0&#10;&#9;&#9;c-3.166-13.334-16.86-66.77-16.86-132.398l0,0c0-18.782,3.224-34.483,6.684-45.828l0,0c3.439-11.247,7.036-18.132,8.122-19.737l0,0&#10;&#9;&#9;c0.627-1.135,1.617-2.036,2.818-2.55l0,0c0.727-0.348,2.667-1.014,5.65-1.958l0,0c3.015-0.95,6.999-2.136,11.411-3.34l0,0&#10;&#9;&#9;c8.83-2.411,19.353-4.901,27.293-5.748l0,0h0.002l0.209,1.989c-11.597,1.229-29.36,6.18-38.314,9.006l0,0&#10;&#9;&#9;c-2.96,0.93-5.058,1.679-5.383,1.854l0,0l-0.04,0.019l-0.025,0.011c-0.806,0.34-1.473,0.95-1.886,1.716l0,0l-0.027,0.05&#10;&#9;&#9;l-0.034,0.048c-0.797,1.123-4.489,8.062-7.882,19.223l0,0c-3.411,11.186-6.596,26.693-6.596,45.245l0,0&#10;&#9;&#9;c0,65.371,13.638,118.603,16.806,131.935l0,0c4.271,18.033,16.104,44.277,29.626,60.423l0,0c1.408,1.741,3.613,3.69,5.173,3.614&#10;&#9;&#9;l0,0c0.657-0.012,1.278-0.23,2.035-1.049l0,0c0.743-0.818,1.54-2.27,2.236-4.551l0,0c3.147-10.256,8.152-32.625,14.01-49.861l0,0&#10;&#9;&#9;c5.886-17.318,21.102-43.045,23.045-47.11l0,0l1.802,0.866c-2.056,4.268-17.175,29.872-22.955,46.889l0,0&#10;&#9;&#9;c-5.809,17.098-10.802,39.396-13.991,49.805l0,0c-0.753,2.451-1.63,4.154-2.664,5.305l0,0c-1.013,1.139-2.262,1.707-3.479,1.707&#10;&#9;&#9;l0,0C192.748,338.768,192.734,338.768,192.721,338.768L192.721,338.768z" style="fill: rgb(30, 30, 30);"/>
    <path d="M402.321,337.061c-1.036-1.149-1.911-2.854-2.664-5.306l0,0c-3.186-10.408-8.178-32.707-13.989-49.805l0,0&#10;&#9;&#9;c-5.777-17.016-20.897-42.619-22.955-46.888l0,0l1.803-0.866c1.942,4.064,17.158,29.792,23.046,47.11l0,0&#10;&#9;&#9;c5.856,17.237,10.864,39.604,14.01,49.864l0,0c0.695,2.279,1.49,3.729,2.233,4.547l0,0c0.755,0.818,1.378,1.039,2.036,1.05l0,0&#10;&#9;&#9;c1.563,0.075,3.768-1.873,5.174-3.614l0,0c13.525-16.146,25.354-42.39,29.627-60.423l0,0&#10;&#9;&#9;c3.168-13.332,16.807-66.565,16.807-131.935l0,0c0.002-18.552-3.186-34.059-6.596-45.245l0,0&#10;&#9;&#9;c-3.394-11.161-7.084-18.1-7.883-19.223l0,0l-0.035-0.05l-0.025-0.048c-0.411-0.766-1.08-1.376-1.948-1.746l0,0&#10;&#9;&#9;c-0.327-0.176-2.424-0.925-5.386-1.854l0,0c-2.987-0.942-6.95-2.121-11.337-3.319l0,0c-8.77-2.396-19.252-4.867-26.979-5.687l0,0&#10;&#9;&#9;l0.212-1.989c11.901,1.271,29.655,6.239,38.706,9.088l0,0c3.039,0.963,4.999,1.636,5.626,1.949l0,0&#10;&#9;&#9;c1.212,0.513,2.212,1.418,2.841,2.561l0,0c1.087,1.606,4.686,8.491,8.121,19.736l0,0c3.459,11.345,6.685,27.046,6.685,45.828l0,0&#10;&#9;&#9;c0,65.628-13.695,119.064-16.86,132.398l0,0c-4.377,18.387-16.23,44.723-30.04,61.243l0,0c-1.563,1.806-3.806,4.255-6.707,4.33l0,0&#10;&#9;&#9;c-0.013,0-0.025,0-0.04,0l0,0C404.582,338.768,403.334,338.2,402.321,337.061L402.321,337.061z" style="fill: rgb(30, 30, 30);"/>
  </g>
  <path d="M 690.143 536.815 C 629.706 536.815 574.48 545.924 532.346 560.91 L 532.346 560.91 L 532.346 560.913 L 531.174 557.614 C 573.791 542.461 629.353 533.322 690.143 533.322 L 690.143 533.322 C 750.993 533.322 806.607 542.482 849.243 557.663 L 849.243 557.663 L 848.068 560.955 C 805.913 545.944 750.64 536.815 690.143 536.815 L 690.143 536.815 Z" style="fill: rgb(30, 30, 30);" transform="matrix(0.965926, -0.258819, 0.258819, 0.965926, -118.091655, 197.282548)"/>
  <path d="M 706.139 480.534 L 706.144 480.534 L 709.022 478.557 C 715.228 487.606 719.409 499.28 720.673 512.248 L 720.673 512.248 L 717.194 512.583 C 715.99 500.163 711.971 489.027 706.139 480.534 L 706.139 480.534 Z" style="fill: rgb(30, 30, 30);" transform="matrix(0.965926, -0.258819, 0.258819, 0.965926, -103.954152, 201.528974)"/>
  <path d="M 636.948 530.828 C 638.207 517.864 642.383 506.188 648.58 497.138 L 648.58 497.138 L 651.465 499.11 C 645.642 507.608 641.63 518.742 640.428 531.166 L 640.428 531.166 L 640.428 531.169 L 636.948 530.828 L 636.948 530.828 Z" style="fill: rgb(30, 30, 30);" transform="matrix(0.965926, -0.258819, 0.258819, 0.965926, -111.121978, 184.252418)"/>
  <path d="M 674.359 515.172 C 661.115 515.147 650.92 513.703 649.071 513.198 L 649.071 513.198 C 647.184 512.607 645.816 510.859 645.774 508.787 L 645.774 508.787 C 645.774 508.77 645.774 508.752 645.774 508.74 L 645.774 508.74 C 645.774 508.69 645.774 508.69 645.774 508.69 L 645.774 508.69 C 645.774 508.167 645.861 507.655 646.006 507.242 L 646.006 507.242 C 646.457 505.831 650.579 495.601 656.752 484.771 L 656.752 484.771 C 660.766 477.758 666.15 469.984 669.066 466.136 L 669.066 466.136 C 670.099 464.804 670.599 464.11 671.164 463.633 L 671.164 463.633 C 671.95 462.919 672.992 462.465 674.122 462.418 L 674.122 462.418 C 674.237 462.404 674.318 462.407 674.366 462.411 L 674.366 462.411 C 674.368 462.411 674.37 462.411 674.372 462.411 L 674.372 462.411 C 675.546 462.425 676.632 462.877 677.471 463.633 L 677.471 463.633 C 678.219 464.36 680.364 467.022 683.258 470.894 L 683.258 470.894 C 686.097 474.721 689.476 479.553 692.129 484.084 L 692.129 484.084 C 694.776 488.607 697.344 493.792 699.304 498.062 L 699.304 498.062 C 701.153 502.13 702.4 505.106 702.795 506.489 L 702.795 506.489 C 703.075 507.092 703.237 507.765 703.234 508.475 L 703.234 508.475 L 703.234 510.221 L 702.905 510.221 C 702.26 511.854 700.73 513.034 698.9 513.177 L 698.9 513.177 L 698.9 513.177 C 697.79 513.263 686.7 515.172 674.389 515.172 L 674.389 515.172 C 674.384 515.172 674.372 515.172 674.359 515.172 L 674.359 515.172 Z M 649.27 508.711 C 649.27 509.254 649.63 509.705 650.081 509.847 L 650.081 509.847 C 650.994 510.139 661.537 511.695 674.359 511.672 L 674.359 511.672 C 686.448 511.668 697.038 509.829 698.617 509.69 L 698.617 509.69 L 698.762 511.434 L 698.631 509.69 C 699.244 509.648 699.743 509.123 699.744 508.489 L 699.744 508.489 C 699.741 508.462 699.739 508.433 699.741 508.384 L 699.741 508.384 C 699.729 508.219 699.685 508.065 699.61 507.922 L 699.61 507.922 L 699.5 507.707 L 699.449 507.468 C 699.412 507.158 698.038 503.634 696.135 499.512 L 696.135 499.512 C 694.21 495.323 691.677 490.208 689.119 485.845 L 689.119 485.845 C 686.569 481.488 683.251 476.728 680.457 472.973 L 680.457 472.973 C 677.712 469.258 675.291 466.339 675.123 466.199 L 675.123 466.199 C 674.919 466.024 674.678 465.916 674.396 465.898 L 674.396 465.898 L 674.319 465.898 C 674.02 465.902 673.753 466.008 673.445 466.267 L 673.445 466.267 L 673.445 466.27 C 673.445 466.27 673.447 466.27 673.433 466.284 L 673.433 466.284 C 673.417 466.302 673.393 466.328 673.361 466.361 L 673.361 466.361 C 673.277 466.452 673.153 466.594 673.008 466.769 L 673.008 466.769 C 672.714 467.124 672.318 467.625 671.851 468.241 L 671.851 468.241 C 670.917 469.473 669.695 471.16 668.339 473.106 L 668.339 473.106 C 665.631 477.002 662.383 481.958 659.787 486.5 L 659.787 486.5 C 653.784 496.979 649.597 507.41 649.328 508.321 L 649.328 508.321 C 649.294 508.413 649.277 508.503 649.268 508.607 L 649.268 508.607 L 649.27 508.711 L 649.27 508.711 Z" style="fill: rgb(30, 30, 30);" transform="matrix(0.965926, -0.258819, 0.258819, 0.965926, -103.524868, 191.229378)"/>
  <path d="M 481.298 486.113 C 474.087 486.113 467.199 484.685 460.917 482.091 L 460.917 482.091 L 460.044 481.729 L 459.866 480.804 L 459.733 480.121 L 459.737 454.257 L 433.841 454.257 L 432.304 454.157 L 431.885 453.153 C 429.273 446.851 427.831 439.932 427.831 432.698 L 427.831 432.698 C 427.831 425.491 429.259 418.612 431.848 412.337 L 431.848 412.337 L 432.068 411.796 L 432.572 411.498 L 433.175 411.14 L 459.737 411.14 L 459.737 384.585 L 460.065 384.129 L 460.644 383.33 L 461.104 383.138 C 467.421 380.505 474.05 379.182 481.297 379.185 L 481.297 379.185 C 488.504 379.185 495.387 380.614 501.663 383.203 L 501.663 383.203 L 502.437 383.521 L 502.677 384.323 L 502.858 384.928 L 502.858 411.138 L 529.539 411.138 L 530.056 411.684 L 530.595 412.245 L 530.721 412.549 C 533.364 418.869 534.764 425.421 534.761 432.7 L 534.761 432.7 C 534.761 439.883 533.339 446.746 530.764 453.015 L 530.764 453.015 L 530.616 453.381 L 530.311 453.65 L 529.635 454.258 L 502.857 454.255 L 502.857 480.587 L 502.603 481.003 L 502.089 481.856 L 501.561 482.075 C 495.249 484.711 488.585 486.111 481.323 486.111 L 481.323 486.111 C 481.318 486.113 481.309 486.113 481.298 486.113 L 481.298 486.113 Z M 481.298 482.617 C 487.8 482.617 493.7 481.442 499.362 479.199 L 499.362 479.199 L 499.362 453.608 C 499.339 452.844 499.623 451.893 500.357 451.325 L 500.357 451.325 C 501.077 450.778 501.761 450.771 502.157 450.76 L 502.157 450.76 L 527.902 450.76 C 530.074 445.161 531.266 439.07 531.266 432.698 L 531.266 432.698 C 531.262 426.146 530.079 420.335 527.798 414.633 L 527.798 414.633 L 502.241 414.633 L 502.241 412.885 L 502.241 411.913 L 502.241 412.885 L 502.241 414.633 C 501.533 414.657 500.546 414.385 499.967 413.615 L 499.967 413.615 C 499.411 412.865 499.374 412.147 499.364 411.57 L 499.364 411.57 L 499.364 386.049 C 493.759 383.876 487.674 382.683 481.3 382.683 L 481.3 382.683 C 474.774 382.683 468.9 383.804 463.233 386.047 L 463.233 386.047 L 463.233 411.544 C 463.222 412.126 463.196 412.829 462.651 413.594 L 462.651 413.594 C 462.076 414.379 461.07 414.661 460.366 414.633 L 460.366 414.633 L 434.694 414.633 C 432.523 420.236 431.331 426.324 431.331 432.702 L 431.331 432.702 C 431.331 439.076 432.521 445.161 434.696 450.764 L 434.696 450.764 L 460.39 450.764 C 461.249 450.725 462.282 451.147 462.763 451.909 L 462.763 451.909 C 463.24 452.64 463.222 453.265 463.233 453.58 L 463.233 453.58 L 463.233 479.25 C 468.834 481.425 474.921 482.617 481.298 482.617 L 481.298 482.617 Z M 502.241 411.397 L 502.241 411.142 L 502.241 411.397 L 502.241 411.397 Z" style="fill: rgb(30, 30, 30);" transform="matrix(0.965926, -0.258819, 0.258819, 0.965926, -95.578093, 139.310841)"/>
  <path d="M 466.654 432.648 C 466.657 424.562 473.21 418.01 481.297 418.007 L 481.297 418.007 C 489.382 418.01 495.936 424.562 495.939 432.648 L 495.939 432.648 C 495.936 440.736 489.384 447.288 481.297 447.292 L 481.297 447.292 C 473.211 447.288 466.657 440.736 466.654 432.648 L 466.654 432.648 Z M 470.154 432.648 C 470.164 438.803 475.141 443.782 481.298 443.792 L 481.298 443.792 C 487.455 443.782 492.432 438.803 492.443 432.648 L 492.443 432.648 C 492.432 426.494 487.455 421.517 481.298 421.507 L 481.298 421.507 C 475.141 421.517 470.164 426.494 470.154 432.648 L 470.154 432.648 Z" style="fill: rgb(30, 30, 30);" transform="matrix(0.965926, -0.258819, 0.258819, 0.965926, -95.578065, 139.310713)"/>
  <path d="M 348.759 317.015 C 348.759 281.472 377.57 252.66 413.114 252.66 L 413.114 252.66 C 448.658 252.66 477.467 281.472 477.467 317.015 L 477.467 317.015 C 477.467 352.559 448.658 381.37 413.114 381.37 L 413.114 381.37 C 377.57 381.369 348.759 352.557 348.759 317.015 L 348.759 317.015 Z M 370.08 273.986 C 359.063 285.003 352.255 300.209 352.255 317.017 L 352.255 317.017 C 352.255 333.827 359.063 349.031 370.08 360.053 L 370.08 360.053 C 381.098 371.067 396.302 377.874 413.112 377.874 L 413.112 377.874 C 429.922 377.874 445.126 371.067 456.143 360.053 L 456.143 360.053 C 467.162 349.031 473.969 333.829 473.969 317.017 L 473.969 317.017 C 473.969 300.207 467.162 285.003 456.143 273.986 L 456.143 273.986 C 445.124 262.968 429.921 256.16 413.112 256.16 L 413.112 256.16 C 396.302 256.158 381.098 262.966 370.08 273.986 L 370.08 273.986 Z" style="fill: rgb(30, 30, 30);" transform="matrix(0.965926, -0.258819, 0.258819, 0.965926, -67.973019, 117.723492)"/>
  <path d="M 368.207 317.015 C 368.207 292.212 388.311 272.112 413.114 272.109 L 413.114 272.109 C 437.913 272.112 458.017 292.212 458.017 317.015 L 458.017 317.015 C 458.017 341.816 437.913 361.92 413.114 361.922 L 413.114 361.922 C 388.311 361.92 368.207 341.816 368.207 317.015 L 368.207 317.015 Z M 371.702 317.015 C 371.74 339.885 390.241 358.384 413.114 358.424 L 413.114 358.424 C 435.983 358.385 454.479 339.886 454.523 317.015 L 454.523 317.015 C 454.479 294.146 435.983 275.647 413.114 275.607 L 413.114 275.607 C 390.241 275.649 371.742 294.148 371.702 317.015 L 371.702 317.015 Z" style="fill: rgb(30, 30, 30);" transform="matrix(0.965926, -0.258819, 0.258819, 0.965926, -67.973238, 117.723388)"/>
</svg>