<?xml version="1.0" encoding="utf-8"?>
<svg id="logo" version="1.1" y="0px" x="0px" xmlns="http://www.w3.org/2000/svg">
  <style id="style3" type="text/css">
	.st0{fill:#0097E0;}
	.st1{fill:#0096DF;}
</style>
  <path id="S" d="M 0.13 14.882 C 0.13 23.107 5.613 29.765 12.402 29.765 L 46.474 29.765 C 47.258 29.765 48.041 30.548 48.041 31.592 C 48.041 32.636 47.388 33.42 46.474 33.42 L 0 33.42 L 0 46.605 L 51.957 46.605 C 58.746 46.605 64.228 39.817 64.228 31.593 C 64.228 23.368 58.746 16.58 51.957 16.58 L 18.015 16.58 C 17.232 16.58 16.449 15.796 16.449 14.752 C 16.449 13.708 17.101 12.924 18.015 12.924 L 64.098 12.924 L 64.098 0 L 12.404 0 C 5.616 0 0.133 6.658 0.133 14.882 Z" class="st0" style="fill: rgb(255, 255, 255);"/>
  <polygon id="N" class="st0" points="67.885 0 67.885 46.345 84.204 46.345 84.204 17.232 115.274 46.345 132.246 46.345 132.246 0 115.927 0 115.927 28.982 84.856 0" style="fill: rgb(255, 255, 255);"/>
  <polygon id="K" class="st0" points="152.35 20.366 152.35 0 135.77 0 135.77 46.345 152.35 46.345 152.35 25.849 178.72 46.345 200 46.345 169.974 23.238 200 0 178.72 0" style="fill: rgb(255, 255, 255);"/>
</svg>