<?xml version="1.0" encoding="utf-8"?>
<svg id="logo" viewBox="0 0 364.7699890136719 85" height="85" width="400" version="1.1" y="0px" x="0px" xmlns="http://www.w3.org/2000/svg">
  <style id="style3" type="text/css">
	.st0{fill:#0097E0;}
	.st1{fill:#0096DF;}
</style>
  <path id="S" d="M 0.238 27.143 C 0.238 42.143 10.238 54.286 22.619 54.286 L 84.762 54.286 C 86.191 54.286 87.619 55.715 87.619 57.619 C 87.619 59.524 86.429 60.953 84.762 60.953 L 0 60.953 L 0 85.001 L 94.762 85.001 C 107.143 85.001 117.143 72.62 117.143 57.62 C 117.143 42.62 107.143 30.239 94.762 30.239 L 32.857 30.239 C 31.428 30.239 30 28.81 30 26.905 C 30 25.001 31.19 23.572 32.857 23.572 L 116.905 23.572 L 116.905 0 L 22.623 0 C 10.242 0 0.242 12.143 0.242 27.143 Z" class="st0" style="fill: rgb(255, 255, 255);"/>
  <polygon id="N" class="st0" points="123.812 0 123.812 84.526 153.575 84.526 153.575 31.429 210.243 84.526 241.196 84.526 241.196 0 211.433 0 211.433 52.858 154.765 0" style="fill: rgb(255, 255, 255);"/>
  <polygon id="K" class="st0" points="277.863 37.144 277.863 0 247.624 0 247.624 84.526 277.863 84.526 277.863 47.144 325.959 84.526 364.77 84.526 310.007 42.382 364.77 0 325.959 0" style="fill: rgb(255, 255, 255);"/>
</svg>