<?xml version="1.0" encoding="utf-8"?>
<svg version="1.1" id="svg11519" xmlns="http://www.w3.org/2000/svg">
  <path id="path11521" d="M 174.662 36.364 C 171.246 37.152 162.224 37.59 162.224 37.59 L 161.114 41.152 C 161.114 41.152 165.582 40.773 168.852 41.094 C 168.852 41.094 169.903 41.006 170.02 42.262 C 170.078 43.547 169.932 44.89 169.932 44.89 C 169.932 44.89 169.845 45.678 168.764 45.883 C 167.509 46.087 159.041 46.467 159.041 46.467 L 157.669 51.08 C 157.669 51.08 157.172 52.131 158.311 51.839 C 159.362 51.547 168.239 49.854 169.407 50.087 C 170.633 50.379 172.034 52.073 171.626 53.591 C 171.158 55.43 162.282 61.095 156.91 60.715 C 156.91 60.715 154.077 60.891 151.712 57.066 C 149.435 53.416 152.501 46.554 152.501 46.554 C 152.501 46.554 151.128 43.342 152.15 42.174 C 152.15 42.174 152.734 41.678 154.486 41.532 L 156.676 37.036 C 156.676 37.036 154.194 37.182 152.734 35.371 C 151.391 33.619 151.274 32.86 152.326 32.393 C 153.435 31.809 163.713 29.97 170.779 30.203 C 170.779 30.203 173.261 29.911 175.451 34.203 C 175.451 34.203 176.443 35.955 174.691 36.364 M 148.033 53.649 C 147.157 55.781 144.734 58.029 141.814 56.657 C 138.836 55.255 134.135 45.678 134.135 45.678 C 134.135 45.678 132.383 42.116 132.033 42.233 C 132.033 42.233 131.653 41.532 131.449 45.445 C 131.157 49.328 131.507 56.89 129.901 58.087 C 128.441 59.255 126.689 58.759 125.697 57.387 C 124.879 56.014 124.529 52.715 124.996 46.963 C 125.521 41.211 126.835 35.079 128.5 33.181 C 130.252 31.254 131.653 32.656 132.179 33.181 C 132.179 33.181 134.427 35.225 138.223 41.269 L 138.865 42.379 C 138.865 42.379 142.31 48.131 142.661 48.102 C 142.661 48.102 142.953 48.394 143.186 48.16 C 143.537 48.072 143.42 46.204 143.42 46.204 C 143.42 46.204 142.778 39.985 139.566 29.473 C 139.566 29.473 139.099 28.13 139.42 26.845 C 139.712 25.677 140.967 26.261 140.967 26.261 C 140.967 26.261 145.814 28.597 148.179 36.481 C 150.515 44.364 148.939 51.518 148.063 53.649 M 124.266 33.415 C 123.799 34.232 123.594 35.371 121.58 35.692 C 121.58 35.692 102.017 37.065 101.053 38.437 C 101.053 38.437 100.411 39.255 101.462 39.459 C 102.572 39.693 107.01 40.277 109.112 40.393 C 111.389 40.393 119.039 40.452 121.842 43.897 C 121.842 43.897 123.448 45.532 123.39 49.24 C 123.332 53.036 122.66 54.379 121.171 55.752 C 119.623 57.036 106.367 62.993 97.812 53.883 C 97.812 53.883 93.9 49.503 99.185 46.175 C 99.185 46.175 102.98 43.839 112.703 46.554 C 112.703 46.554 115.623 47.605 115.506 48.686 C 115.331 49.854 113.083 51.022 109.813 50.963 C 106.659 50.876 104.323 49.357 104.791 49.62 C 105.229 49.766 101.374 47.751 100.177 49.124 C 99.009 50.408 99.301 51.168 100.469 51.956 C 103.389 53.649 114.864 53.036 118.28 49.211 C 118.28 49.211 119.653 47.664 117.579 46.408 C 115.536 45.24 109.579 44.51 107.272 44.423 C 105.083 44.306 96.878 44.423 95.652 42.291 C 95.652 42.291 94.484 40.773 95.768 36.627 C 97.111 32.247 106.659 30.553 110.806 30.203 C 110.806 30.203 122.193 29.736 124.324 32.072 C 124.324 32.072 124.616 32.597 124.266 33.386 M 91.973 59.08 C 90.6 60.102 87.68 59.664 86.834 58.496 C 86.016 57.474 85.724 53.445 85.87 47.109 C 86.075 40.627 86.162 32.685 87.622 31.4 C 89.082 30.145 89.958 31.254 90.542 32.101 C 91.126 32.977 91.885 33.94 92.002 35.955 C 92.177 37.999 92.673 48.51 92.673 48.51 C 92.673 48.51 93.316 58.087 92.002 59.08 M 94.892 24.918 C 90.863 26.291 88.118 25.853 85.783 24.831 C 84.761 26.67 84.147 27.225 83.388 27.342 C 82.22 27.458 81.198 25.59 81.052 25.006 C 80.819 24.568 80.264 23.779 80.936 21.998 C 78.658 19.955 78.483 17.21 78.892 15.37 C 79.417 13.21 83.272 5.093 94.951 4.129 C 94.951 4.129 100.674 3.72 101.666 6.757 L 101.842 6.757 C 101.842 6.757 107.389 6.757 107.272 11.721 C 107.272 16.684 101.141 22.874 94.892 25.006 M 100.09 10.786 C 96.411 11.37 90.746 16.276 88.031 20.334 C 92.206 21.093 99.506 20.801 102.776 14.202 C 102.776 14.202 104.323 10.056 100.09 10.786 M 83.943 13.998 C 82.775 15.896 82.717 17.035 83.272 17.794 C 84.644 15.75 87.067 12.538 90.717 10.027 C 87.914 10.319 85.549 11.487 83.943 13.998 M 183.422 58.876 C 180.735 65.475 178.458 72.161 177.144 82.176 C 177.144 82.176 176.852 84.132 175.246 83.49 C 173.64 82.906 171.012 80.278 170.428 76.57 C 169.845 71.723 172.005 63.548 176.414 54.146 C 175.129 52.102 174.224 49.065 174.954 44.802 C 174.954 44.802 176.122 36.919 184.006 29.794 C 184.006 29.794 184.94 29.006 185.466 29.269 C 186.108 29.561 185.845 32.072 185.32 33.357 C 184.852 34.583 181.349 40.656 181.349 40.656 C 181.349 40.656 179.159 44.802 179.772 48.043 C 183.918 41.678 193.349 28.772 199.189 32.86 C 202.897 35.488 202.897 43.956 200.123 48.861 C 197.933 52.744 191.743 60.774 183.48 58.905 M 195.627 39.05 C 193.466 41.386 189.612 45.824 186.575 51.839 C 189.787 51.489 192.911 49.708 193.875 48.802 C 195.422 47.43 198.984 43.722 198.43 38.817 C 198.43 38.817 198.079 36.247 195.627 39.05 M 64.818 62.321 C 54.482 65.475 44.73 64.015 39.416 62.613 C 39.27 64.774 39.036 65.679 38.686 66.029 C 38.277 66.497 34.89 68.424 33.021 65.679 C 32.204 64.365 31.795 62 31.561 59.839 C 19.59 54.409 14.042 46.408 13.867 46.116 C 13.575 45.824 10.86 42.992 13.575 39.488 C 16.115 36.335 24.525 33.152 32.058 31.897 C 32.35 25.473 33.05 20.509 33.956 18.319 C 35.036 15.692 36.408 18.027 37.635 19.779 C 38.627 21.093 39.24 26.729 39.299 31.225 C 44.204 30.991 47.182 31.342 52.642 32.393 C 59.825 33.619 64.614 37.298 64.234 41.444 C 63.884 45.532 60.146 47.226 58.686 47.343 C 57.227 47.459 54.891 46.379 54.891 46.379 C 53.256 45.62 54.745 44.919 56.643 44.102 C 58.745 43.08 58.278 42.058 58.278 42.058 C 57.519 39.722 48.204 38.174 38.948 38.174 C 38.948 43.284 39.153 51.751 39.299 56.686 C 45.781 57.912 50.628 57.65 50.628 57.65 C 50.628 57.65 74.278 56.978 74.95 41.882 C 75.68 26.758 51.299 12.275 33.342 7.72 C 15.415 3.019 5.254 6.348 4.378 6.786 C 3.414 7.253 4.29 7.428 4.29 7.428 C 4.29 7.428 5.254 7.574 7.006 8.158 C 8.757 8.742 7.356 9.618 7.356 9.618 C 4.29 10.669 0.874 10.056 0.202 8.655 C -0.469 7.282 0.64 6.027 1.954 4.187 C 3.181 2.29 4.582 2.348 4.582 2.348 C 26.773 -5.39 53.869 8.48 53.869 8.48 C 79.213 21.268 83.534 36.306 83.067 42.145 C 82.658 47.897 80.439 57.62 64.818 62.35 M 16.057 41.444 C 13.546 42.612 15.298 44.481 15.298 44.481 C 20.028 49.532 25.809 52.715 31.357 54.701 C 31.999 45.941 31.941 42.817 31.941 38.408 C 23.357 38.992 18.393 40.393 16.057 41.444" style="fill: rgb(255, 255, 255);"/>
</svg>