<?xml version="1.0" encoding="utf-8"?>
<svg version="1.1" id="svg11519" xmlns="http://www.w3.org/2000/svg">
  <path id="path11521" d="M 172.848 35.986 C 169.467 36.766 160.539 37.2 160.539 37.2 L 159.44 40.725 C 159.44 40.725 163.862 40.349 167.098 40.667 C 167.098 40.667 168.138 40.58 168.254 41.823 C 168.311 43.095 168.167 44.424 168.167 44.424 C 168.167 44.424 168.081 45.204 167.011 45.406 C 165.769 45.608 157.389 45.984 157.389 45.984 L 156.031 50.549 C 156.031 50.549 155.539 51.59 156.667 51.301 C 157.707 51.012 166.491 49.336 167.647 49.567 C 168.861 49.856 170.247 51.532 169.843 53.034 C 169.38 54.854 160.596 60.46 155.28 60.084 C 155.28 60.084 152.477 60.259 150.136 56.473 C 147.883 52.861 150.917 46.07 150.917 46.07 C 150.917 46.07 149.558 42.892 150.57 41.736 C 150.57 41.736 151.148 41.245 152.881 41.101 L 155.049 36.651 C 155.049 36.651 152.592 36.796 151.148 35.004 C 149.818 33.27 149.703 32.519 150.744 32.057 C 151.841 31.479 162.012 29.659 169.005 29.889 C 169.005 29.889 171.461 29.6 173.629 33.848 C 173.629 33.848 174.61 35.582 172.876 35.986 M 146.495 53.092 C 145.628 55.202 143.231 57.426 140.341 56.069 C 137.394 54.681 132.742 45.204 132.742 45.204 C 132.742 45.204 131.008 41.679 130.662 41.794 C 130.662 41.794 130.285 41.101 130.084 44.973 C 129.795 48.816 130.141 56.299 128.552 57.484 C 127.107 58.64 125.373 58.149 124.391 56.791 C 123.582 55.432 123.235 52.167 123.698 46.475 C 124.217 40.783 125.518 34.715 127.165 32.836 C 128.899 30.929 130.285 32.317 130.806 32.836 C 130.806 32.836 133.031 34.859 136.787 40.84 L 137.423 41.939 C 137.423 41.939 140.832 47.631 141.179 47.602 C 141.179 47.602 141.468 47.891 141.699 47.66 C 142.046 47.573 141.93 45.724 141.93 45.724 C 141.93 45.724 141.295 39.57 138.116 29.167 C 138.116 29.167 137.654 27.838 137.972 26.566 C 138.261 25.41 139.503 25.988 139.503 25.988 C 139.503 25.988 144.299 28.3 146.64 36.102 C 148.952 43.903 147.392 50.983 146.525 53.092 M 122.975 33.068 C 122.513 33.876 122.31 35.004 120.317 35.321 C 120.317 35.321 100.957 36.68 100.003 38.038 C 100.003 38.038 99.368 38.847 100.408 39.049 C 101.507 39.281 105.898 39.859 107.979 39.973 C 110.232 39.973 117.803 40.032 120.576 43.441 C 120.576 43.441 122.166 45.059 122.108 48.729 C 122.051 52.485 121.386 53.814 119.912 55.173 C 118.38 56.444 105.262 62.339 96.796 53.323 C 96.796 53.323 92.925 48.989 98.155 45.695 C 98.155 45.695 101.91 43.384 111.532 46.07 C 111.532 46.07 114.422 47.111 114.306 48.18 C 114.133 49.336 111.908 50.492 108.672 50.434 C 105.551 50.348 103.239 48.844 103.703 49.105 C 104.136 49.249 100.321 47.255 99.136 48.614 C 97.981 49.884 98.27 50.637 99.425 51.416 C 102.315 53.092 113.671 52.485 117.051 48.7 C 117.051 48.7 118.41 47.169 116.358 45.926 C 114.336 44.77 108.441 44.048 106.158 43.962 C 103.991 43.846 95.872 43.962 94.658 41.852 C 94.658 41.852 93.503 40.349 94.773 36.247 C 96.102 31.912 105.551 30.236 109.655 29.889 C 109.655 29.889 120.924 29.427 123.033 31.739 C 123.033 31.739 123.322 32.258 122.975 33.039 M 91.018 58.466 C 89.659 59.478 86.769 59.044 85.932 57.888 C 85.123 56.877 84.834 52.89 84.978 46.62 C 85.181 40.205 85.267 32.346 86.712 31.074 C 88.157 29.832 89.024 30.929 89.602 31.768 C 90.179 32.634 90.931 33.587 91.046 35.582 C 91.22 37.604 91.71 48.006 91.71 48.006 C 91.71 48.006 92.347 57.484 91.046 58.466 M 93.906 24.659 C 89.919 26.018 87.203 25.584 84.892 24.573 C 83.881 26.393 83.273 26.942 82.522 27.058 C 81.366 27.173 80.355 25.324 80.21 24.746 C 79.98 24.313 79.43 23.532 80.095 21.77 C 77.841 19.748 77.668 17.031 78.073 15.21 C 78.592 13.073 82.407 5.04 93.965 4.086 C 93.965 4.086 99.628 3.681 100.61 6.687 L 100.784 6.687 C 100.784 6.687 106.274 6.687 106.158 11.599 C 106.158 16.511 100.09 22.636 93.906 24.746 M 99.05 10.674 C 95.41 11.252 89.803 16.107 87.117 20.123 C 91.248 20.874 98.472 20.585 101.708 14.054 C 101.708 14.054 103.239 9.952 99.05 10.674 M 83.071 13.853 C 81.915 15.731 81.858 16.858 82.407 17.609 C 83.765 15.586 86.163 12.408 89.775 9.923 C 87.001 10.212 84.66 11.368 83.071 13.853 M 181.517 58.264 C 178.858 64.795 176.604 71.411 175.304 81.322 C 175.304 81.322 175.015 83.258 173.426 82.623 C 171.836 82.045 169.236 79.444 168.658 75.775 C 168.081 70.978 170.218 62.888 174.582 53.584 C 173.31 51.561 172.414 48.555 173.137 44.337 C 173.137 44.337 174.293 36.536 182.095 29.485 C 182.095 29.485 183.019 28.705 183.54 28.965 C 184.175 29.254 183.915 31.739 183.395 33.011 C 182.932 34.224 179.465 40.234 179.465 40.234 C 179.465 40.234 177.298 44.337 177.905 47.544 C 182.008 41.245 191.341 28.473 197.12 32.519 C 200.789 35.119 200.789 43.499 198.044 48.353 C 195.877 52.196 189.751 60.143 181.574 58.293 M 193.595 38.644 C 191.456 40.956 187.642 45.348 184.637 51.301 C 187.816 50.954 190.907 49.192 191.861 48.295 C 193.392 46.937 196.917 43.268 196.369 38.414 C 196.369 38.414 196.022 35.871 193.595 38.644 M 64.145 61.674 C 53.916 64.795 44.265 63.35 39.007 61.963 C 38.862 64.101 38.631 64.997 38.284 65.343 C 37.879 65.806 34.528 67.713 32.678 64.997 C 31.869 63.696 31.465 61.356 31.233 59.217 C 19.387 53.844 13.896 45.926 13.723 45.637 C 13.434 45.348 10.747 42.545 13.434 39.078 C 15.948 35.958 24.27 32.808 31.725 31.566 C 32.014 25.208 32.707 20.296 33.603 18.129 C 34.672 15.529 36.03 17.84 37.244 19.574 C 38.226 20.874 38.832 26.451 38.891 30.901 C 43.745 30.669 46.692 31.016 52.095 32.057 C 59.204 33.27 63.943 36.911 63.567 41.014 C 63.22 45.059 59.521 46.735 58.076 46.851 C 56.633 46.966 54.321 45.897 54.321 45.897 C 52.703 45.146 54.176 44.452 56.055 43.644 C 58.135 42.633 57.673 41.621 57.673 41.621 C 56.922 39.309 47.703 37.777 38.543 37.777 C 38.543 42.834 38.746 51.213 38.891 56.097 C 45.305 57.31 50.102 57.051 50.102 57.051 C 50.102 57.051 73.506 56.386 74.171 41.447 C 74.894 26.48 50.766 12.148 32.996 7.64 C 15.255 2.988 5.199 6.282 4.333 6.716 C 3.379 7.178 4.245 7.351 4.245 7.351 C 4.245 7.351 5.199 7.495 6.933 8.073 C 8.666 8.651 7.28 9.518 7.28 9.518 C 4.245 10.558 0.865 9.952 0.2 8.565 C -0.464 7.206 0.633 5.964 1.934 4.144 C 3.148 2.266 4.534 2.324 4.534 2.324 C 26.495 -5.334 53.309 8.392 53.309 8.392 C 78.39 21.047 82.666 35.929 82.204 41.707 C 81.799 47.399 79.603 57.021 64.145 61.702 M 15.89 41.014 C 13.405 42.169 15.139 44.019 15.139 44.019 C 19.82 49.018 25.541 52.167 31.031 54.133 C 31.667 45.464 31.609 42.372 31.609 38.009 C 23.114 38.587 18.202 39.973 15.89 41.014" style="fill: rgb(255, 255, 255);"/>
</svg>