<?xml version="1.0" encoding="utf-8"?>
<svg version="1.0" preserveAspectRatio="xMidYMid meet" xmlns="http://www.w3.org/2000/svg">
  <g id="layer1" fill="#131313" stroke="none"/>
  <g id="layer2" fill="#a1a1a1" stroke="none">
    <path d="M 6 1671 C 11 1666 61 1644 118 1621 C 244 1571 339 1523 448 1457 C 586 1373 614 1333 937 756 C 1194 297 1221 243 1216 212 C 1213 193 1204 170 1195 160 C 1187 151 1183 140 1187 135 C 1192 131 1190 130 1184 133 C 1178 137 1165 131 1155 120 C 1145 109 1111 81 1079 58 C 1046 34 1020 12 1020 8 C 1020 3 1218 0 1460 0 C 1872 0 1900 1 1900 18 C 1900 66 1929 343 1935 348 C 1938 351 1973 322 2013 284 C 2053 245 2140 165 2206 107 L 2327 0 L 4281 0 C 6432 0 6338 -3 6479 61 C 6652 139 6760 332 6760 560 C 6760 716 6726 824 6650 906 C 6628 930 6610 958 6610 967 C 6611 990 6823 1266 6903 1348 C 6981 1428 7140 1540 7175 1540 C 7179 1540 7150 1505 7111 1463 C 7058 1406 7028 1361 6992 1286 C 6936 1172 6922 1119 6880 865 C 6864 766 6841 638 6830 580 C 6798 411 6806 315 6862 207 C 6900 137 6958 82 7042 38 L 7105 5 L 8405 5 L 9705 5 L 9780 28 C 9911 69 10065 155 10146 232 C 10239 320 10291 397 10435 660 C 10500 778 10574 913 10600 960 C 10650 1051 10710 1180 10731 1245 C 10738 1267 10744 1330 10744 1385 C 10745 1469 10741 1492 10723 1525 C 10693 1581 10645 1625 10579 1654 L 10523 1680 L 9334 1678 L 8145 1675 L 8235 1626 C 8372 1550 8460 1457 8460 1387 C 8460 1347 8116 349 8076 274 C 8033 191 8002 168 7898 141 C 7800 114 7799 114 7846 148 C 7961 232 8017 345 8140 740 C 8247 1083 8260 1137 8260 1245 C 8260 1460 8147 1619 7960 1669 C 7926 1678 7641 1680 6815 1678 C 5854 1675 4540 1679 4540 1679 L 4015 1679 L 4085 1642 C 4331 1509 4385 1468 4418 1393 C 4431 1362 4446 1283 4459 1170 C 4471 1074 4485 961 4490 920 C 4505 804 4540 480 4540 453 C 4540 429 4539 429 4453 432 L 4365 435 L 4320 502 C 4295 539 4244 621 4205 684 C 4167 747 4134 797 4132 795 C 4130 793 4136 729 4145 652 C 4154 575 4160 504 4158 494 C 4156 484 4138 550 4116 640 C 4095 731 4075 809 4071 813 C 4067 817 4053 765 4040 698 C 4028 630 4010 546 4001 510 L 3985 445 L 3753 442 L 3521 440 L 3510 482 C 3504 506 3497 533 3494 543 C 3489 559 3505 560 3734 560 C 3932 560 3980 563 3980 573 C 3980 581 3962 672 3940 776 C 3918 880 3900 968 3900 973 C 3900 977 3781 980 3636 980 L 3373 980 L 3357 1038 C 3348 1069 3338 1114 3334 1138 L 3327 1180 L 3562 1180 L 3797 1180 L 3926 1022 C 3997 934 4056 869 4058 876 C 4060 884 4048 976 4031 1082 C 4014 1188 3989 1352 3975 1445 C 3961 1539 3947 1630 3944 1648 L 3938 1680 L 2661 1680 C 1427 1680 1386 1679 1415 1662 C 1432 1652 1495 1615 1555 1579 C 1631 1535 1687 1493 1734 1445 C 1795 1384 1812 1357 1870 1235 C 1907 1158 1940 1085 1944 1072 C 1948 1060 1969 1011 1991 964 C 2013 916 2030 874 2028 869 C 2026 865 1978 907 1920 963 C 1831 1050 1760 1115 1565 1292 L 1535 1320 L 1528 1272 C 1524 1246 1516 1153 1510 1065 C 1496 852 1490 799 1478 806 C 1473 809 1471 814 1474 817 C 1476 820 1416 947 1340 1100 C 1264 1252 1196 1396 1190 1419 C 1173 1482 1191 1523 1273 1608 L 1343 1680 L 670 1680 C 274 1680 0 1676 6 1671 Z M 5442 1541 C 5490 1512 5538 1478 5549 1464 C 5593 1408 5594 1394 5586 827 C 5578 216 5580 229 5498 170 L 5455 138 L 5448 177 C 5444 198 5441 260 5440 315 C 5439 435 5415 798 5408 806 C 5402 812 5338 649 5296 524 C 5265 430 5266 430 5144 430 L 5064 430 L 5052 623 C 5045 728 5033 912 5025 1030 C 5017 1148 5010 1284 5010 1332 C 5010 1420 5010 1420 5048 1462 C 5085 1503 5150 1550 5245 1602 C 5294 1629 5295 1629 5325 1611 C 5341 1601 5394 1570 5442 1541 Z M 6400 1584 C 6400 1581 6385 1555 6367 1527 C 6349 1498 6319 1450 6300 1420 C 6282 1390 6240 1322 6208 1270 C 6177 1218 6141 1164 6129 1150 L 6109 1125 L 6115 1240 C 6122 1382 6132 1420 6172 1466 C 6213 1512 6400 1609 6400 1584 Z M 2583 1483 C 2641 1426 2670 1389 2690 1345 C 2715 1291 2829 943 2985 445 C 3045 255 3049 208 3013 168 C 2984 136 2926 153 2862 214 C 2816 256 2799 293 2720 514 C 2640 736 2538 1017 2451 1248 C 2417 1337 2390 1426 2390 1444 C 2390 1471 2399 1486 2435 1519 C 2459 1541 2485 1560 2491 1560 C 2497 1560 2538 1525 2583 1483 Z M 9350 1432 C 9350 1394 9335 1350 9267 1195 C 9111 836 9020 626 8973 515 C 8873 278 8833 220 8745 186 C 8708 171 8701 171 8650 187 C 8579 210 8578 223 8628 360 C 8693 533 8864 975 8930 1135 C 8964 1218 8998 1303 9007 1325 C 9029 1380 9113 1464 9187 1506 C 9222 1526 9253 1546 9256 1552 C 9260 1559 9281 1545 9307 1517 C 9342 1479 9350 1464 9350 1432 Z M 10084 1100 C 10090 1063 10083 1047 10008 907 C 9963 824 9907 720 9884 676 C 9845 602 9837 594 9749 534 C 9655 470 9655 470 9583 470 C 9544 470 9508 475 9505 480 C 9502 486 9504 490 9509 490 C 9515 490 9520 494 9520 498 C 9520 503 9590 649 9675 823 L 9830 1140 L 9954 1140 L 10077 1140 L 10084 1100 Z M 7658 1104 C 7670 1096 7680 1081 7680 1072 C 7680 1051 7554 578 7538 536 C 7530 516 7510 500 7467 479 C 7410 452 7407 452 7374 468 C 7355 476 7340 488 7340 493 C 7340 498 7353 561 7370 633 C 7386 706 7414 830 7432 909 L 7465 1053 L 7525 1086 C 7591 1123 7624 1128 7658 1104 Z M 6267 640 L 6289 585 L 6255 525 L 6222 465 L 6145 462 L 6069 459 L 6075 557 C 6085 712 6078 701 6168 698 L 6245 695 L 6267 640 Z M 9530 550 C 9530 545 9528 540 9526 540 C 9523 540 9518 545 9515 550 C 9512 556 9514 560 9519 560 C 9525 560 9530 556 9530 550 Z" style="fill: rgb(255, 255, 255);"/>
  </g>
</svg>