<?xml version="1.0" encoding="utf-8"?>
<svg version="1.0" preserveAspectRatio="xMidYMid meet" xmlns="http://www.w3.org/2000/svg">
  <g id="layer2" fill="#a1a1a1" stroke="none" transform="matrix(1, 0, 0, 1, 0, 3)"/>
  <path d="M 0.003 60.316 C 0.183 60.135 1.988 59.341 4.045 58.511 C 8.593 56.706 12.022 54.974 15.957 52.591 C 20.938 49.559 21.949 48.116 33.607 27.289 C 42.883 10.721 43.858 8.772 43.678 7.653 C 43.57 6.967 43.244 6.137 42.92 5.776 C 42.631 5.451 42.487 5.054 42.631 4.874 C 42.812 4.729 42.739 4.693 42.522 4.801 C 42.306 4.946 41.837 4.729 41.476 4.332 C 41.115 3.935 39.888 2.925 38.733 2.094 C 37.542 1.228 36.603 0.434 36.603 0.29 C 36.603 0.109 43.75 0.001 52.485 0.001 C 67.356 0.001 68.367 0.037 68.367 0.65 C 68.367 2.383 69.414 12.381 69.63 12.562 C 69.739 12.67 71.002 11.623 72.446 10.252 C 73.889 8.844 77.03 5.957 79.412 3.863 L 83.78 0.001 L 154.309 0.001 C 231.951 0.001 228.557 -0.107 233.646 2.203 C 239.891 5.018 243.788 11.984 243.788 20.214 C 243.788 25.845 242.563 29.743 239.82 32.703 C 239.024 33.569 238.376 34.58 238.376 34.905 C 238.41 35.735 246.063 45.697 248.951 48.657 C 251.766 51.545 257.506 55.587 258.769 55.587 C 258.912 55.587 257.866 54.324 256.459 52.808 C 254.546 50.75 253.464 49.126 252.163 46.419 C 250.141 42.304 249.636 40.391 248.12 31.223 C 247.544 27.65 246.714 23.029 246.315 20.936 C 245.16 14.836 245.451 11.371 247.47 7.473 C 248.842 4.946 250.936 2.96 253.968 1.373 L 256.241 0.181 L 303.166 0.181 L 350.089 0.181 L 352.796 1.011 C 357.524 2.491 363.084 5.595 366.007 8.375 C 369.364 11.551 371.241 14.331 376.438 23.823 C 378.784 28.083 381.456 32.955 382.395 34.652 C 384.2 37.937 386.365 42.593 387.124 44.939 C 387.375 45.733 387.593 48.007 387.593 49.993 C 387.628 53.025 387.483 53.855 386.835 55.046 C 385.752 57.067 384.019 58.655 381.636 59.702 L 379.615 60.641 L 336.698 60.568 L 293.78 60.46 L 297.029 58.692 C 301.974 55.948 305.15 52.591 305.15 50.065 C 305.15 48.621 292.733 12.598 291.291 9.891 C 289.739 6.895 288.619 6.065 284.865 5.09 C 281.328 4.116 281.292 4.116 282.989 5.343 C 287.14 8.375 289.16 12.454 293.601 26.711 C 297.463 39.092 297.931 41.041 297.931 44.939 C 297.931 52.7 293.853 58.439 287.103 60.244 C 285.877 60.568 275.589 60.641 245.774 60.568 C 211.087 60.46 163.658 60.605 163.658 60.605 L 144.707 60.605 L 147.235 59.269 C 156.115 54.468 158.063 52.988 159.255 50.281 C 159.725 49.163 160.266 46.311 160.735 42.232 C 161.169 38.767 161.673 34.688 161.854 33.208 C 162.395 29.021 163.658 17.326 163.658 16.352 C 163.658 15.486 163.621 15.486 160.518 15.594 L 157.34 15.702 L 155.716 18.121 C 154.814 19.456 152.975 22.416 151.565 24.69 C 150.195 26.964 149.005 28.769 148.932 28.696 C 148.858 28.624 149.076 26.314 149.4 23.535 C 149.725 20.755 149.941 18.193 149.869 17.832 C 149.798 17.471 149.147 19.853 148.354 23.102 C 147.595 26.386 146.873 29.202 146.729 29.346 C 146.585 29.49 146.079 27.614 145.61 25.195 C 145.176 22.741 144.529 19.709 144.202 18.409 L 143.626 16.063 L 135.251 15.955 L 126.877 15.883 L 126.48 17.399 C 126.263 18.265 126.01 19.239 125.903 19.601 C 125.722 20.178 126.299 20.214 134.564 20.214 C 141.712 20.214 143.445 20.322 143.445 20.683 C 143.445 20.972 142.796 24.257 142.001 28.011 C 141.206 31.765 140.559 34.941 140.559 35.121 C 140.559 35.266 136.261 35.374 131.029 35.374 L 121.535 35.374 L 120.958 37.468 C 120.633 38.586 120.272 40.211 120.128 41.077 L 119.875 42.593 L 128.356 42.593 L 136.839 42.593 L 141.495 36.89 C 144.059 33.714 146.188 31.368 146.259 31.62 C 146.332 31.909 145.898 35.23 145.285 39.056 C 144.673 42.882 143.77 48.801 143.264 52.158 C 142.758 55.551 142.255 58.836 142.145 59.485 L 141.928 60.641 L 95.835 60.641 C 51.294 60.641 49.813 60.605 50.861 59.991 C 51.475 59.63 53.748 58.295 55.914 56.995 C 58.658 55.407 60.679 53.891 62.375 52.158 C 64.577 49.956 65.191 48.982 67.285 44.578 C 68.62 41.799 69.811 39.164 69.955 38.695 C 70.1 38.262 70.857 36.493 71.652 34.797 C 72.446 33.064 73.059 31.548 72.987 31.368 C 72.915 31.223 71.182 32.739 69.089 34.76 C 65.876 37.901 63.314 40.247 56.275 46.636 L 55.192 47.647 L 54.94 45.914 C 54.795 44.975 54.506 41.618 54.29 38.442 C 53.784 30.754 53.568 28.841 53.135 29.093 C 52.954 29.202 52.881 29.382 52.991 29.49 C 53.062 29.599 50.896 34.183 48.154 39.705 C 45.41 45.192 42.956 50.39 42.739 51.22 C 42.126 53.494 42.776 54.974 45.735 58.042 L 48.262 60.641 L 23.97 60.641 C 9.676 60.641 -0.214 60.496 0.003 60.316 Z M 196.215 55.623 C 197.949 54.577 199.682 53.349 200.077 52.844 C 201.667 50.823 201.701 50.317 201.413 29.852 C 201.126 7.797 201.197 8.267 198.238 6.137 L 196.686 4.982 L 196.434 6.39 C 196.287 7.148 196.179 9.386 196.145 11.371 C 196.107 15.702 195.242 28.805 194.99 29.093 C 194.771 29.31 192.462 23.426 190.947 18.915 C 189.826 15.522 189.863 15.522 185.46 15.522 L 182.572 15.522 L 182.139 22.488 C 181.885 26.278 181.452 32.92 181.164 37.179 C 180.876 41.438 180.622 46.347 180.622 48.08 C 180.622 51.256 180.622 51.256 181.994 52.772 C 183.329 54.252 185.675 55.948 189.104 57.825 C 190.873 58.8 190.91 58.8 191.992 58.15 C 192.57 57.789 194.482 56.67 196.215 55.623 Z M 230.796 57.176 C 230.796 57.067 230.255 56.129 229.604 55.118 C 228.954 54.071 227.871 52.339 227.186 51.256 C 226.535 50.173 225.02 47.718 223.865 45.842 C 222.745 43.965 221.447 42.016 221.014 41.51 L 220.292 40.608 L 220.507 44.759 C 220.76 49.884 221.121 51.256 222.564 52.916 C 224.046 54.577 230.796 58.078 230.796 57.176 Z M 93.021 53.53 C 95.114 51.472 96.16 50.137 96.882 48.549 C 97.785 46.6 101.899 34.038 107.53 16.063 C 109.696 9.205 109.84 7.508 108.541 6.065 C 107.494 4.91 105.4 5.524 103.09 7.725 C 101.43 9.241 100.817 10.576 97.965 18.554 C 95.077 26.567 91.396 36.71 88.255 45.048 C 87.028 48.26 86.054 51.472 86.054 52.122 C 86.054 53.097 86.378 53.638 87.678 54.83 C 88.544 55.623 89.483 56.309 89.699 56.309 C 89.916 56.309 91.396 55.046 93.021 53.53 Z M 337.275 51.689 C 337.275 50.317 336.735 48.729 334.279 43.134 C 328.649 30.176 325.365 22.596 323.667 18.59 C 320.058 10.035 318.615 7.942 315.438 6.714 C 314.102 6.173 313.849 6.173 312.008 6.751 C 309.447 7.581 309.409 8.05 311.214 12.995 C 313.56 19.239 319.733 35.194 322.115 40.969 C 323.343 43.965 324.571 47.033 324.895 47.827 C 325.689 49.812 328.722 52.844 331.391 54.36 C 332.655 55.082 333.774 55.804 333.882 56.02 C 334.026 56.273 334.785 55.768 335.723 54.757 C 336.986 53.385 337.275 52.844 337.275 51.689 Z M 363.77 39.705 C 363.986 38.37 363.733 37.792 361.026 32.739 C 359.401 29.743 357.381 25.989 356.55 24.401 C 355.142 21.73 354.853 21.441 351.677 19.275 C 348.284 16.966 348.284 16.966 345.685 16.966 C 344.279 16.966 342.978 17.146 342.87 17.326 C 342.762 17.543 342.835 17.688 343.015 17.688 C 343.231 17.688 343.412 17.832 343.412 17.976 C 343.412 18.157 345.938 23.426 349.007 29.707 L 354.602 41.149 L 359.077 41.149 L 363.516 41.149 L 363.77 39.705 Z M 276.202 39.85 C 276.636 39.561 276.996 39.02 276.996 38.695 C 276.996 37.937 272.448 20.864 271.87 19.348 C 271.582 18.626 270.861 18.048 269.309 17.29 C 267.25 16.316 267.142 16.316 265.951 16.893 C 265.266 17.182 264.724 17.615 264.724 17.796 C 264.724 17.976 265.193 20.25 265.808 22.849 C 266.384 25.484 267.395 29.96 268.046 32.811 L 269.236 38.009 L 271.401 39.2 C 273.783 40.536 274.976 40.716 276.202 39.85 Z M 225.993 23.102 L 226.788 21.117 L 225.561 18.951 L 224.369 16.785 L 221.59 16.677 L 218.848 16.569 L 219.063 20.106 C 219.424 25.701 219.173 25.304 222.421 25.195 L 225.201 25.087 L 225.993 23.102 Z M 343.772 19.853 C 343.772 19.673 343.701 19.492 343.628 19.492 C 343.52 19.492 343.339 19.673 343.231 19.853 C 343.123 20.07 343.196 20.214 343.375 20.214 C 343.593 20.214 343.772 20.07 343.772 19.853 Z" style="fill: rgb(255, 255, 255);"/>
</svg>