<?xml version="1.0" encoding="utf-8"?>
<svg version="1.0" preserveAspectRatio="xMidYMid meet" xmlns="http://www.w3.org/2000/svg">
  <g id="layer2" fill="#a1a1a1" stroke="none" transform="matrix(0.515998, 0, 0, 0.515998, -0.000244, 1.548096)"/>
  <path d="M 0.001 31.123 C 0.094 31.03 1.026 30.62 2.087 30.192 C 4.434 29.26 6.203 28.367 8.234 27.137 C 10.804 25.572 11.325 24.828 17.341 14.081 C 22.127 5.532 22.63 4.526 22.538 3.949 C 22.482 3.595 22.314 3.167 22.146 2.981 C 21.997 2.813 21.923 2.608 21.997 2.515 C 22.091 2.44 22.053 2.422 21.941 2.477 C 21.83 2.552 21.588 2.44 21.401 2.235 C 21.215 2.031 20.582 1.509 19.986 1.081 C 19.371 0.634 18.887 0.224 18.887 0.15 C 18.887 0.056 22.575 0.001 27.082 0.001 C 34.755 0.001 35.277 0.019 35.277 0.336 C 35.277 1.23 35.817 6.389 35.929 6.482 C 35.985 6.538 36.637 5.998 37.382 5.29 C 38.126 4.564 39.747 3.074 40.976 1.993 L 43.23 0.001 L 79.623 0.001 C 119.686 0.001 117.935 -0.055 120.561 1.137 C 123.783 2.589 125.794 6.184 125.794 10.43 C 125.794 13.336 125.162 15.347 123.746 16.875 C 123.336 17.322 123.001 17.843 123.001 18.011 C 123.019 18.439 126.968 23.58 128.458 25.107 C 129.911 26.597 132.872 28.683 133.524 28.683 C 133.598 28.683 133.058 28.031 132.332 27.249 C 131.345 26.187 130.787 25.349 130.115 23.952 C 129.072 21.829 128.811 20.842 128.029 16.111 C 127.732 14.267 127.304 11.883 127.098 10.803 C 126.502 7.655 126.652 5.868 127.694 3.856 C 128.402 2.552 129.482 1.527 131.047 0.709 L 132.22 0.093 L 156.433 0.093 L 180.645 0.093 L 182.042 0.522 C 184.481 1.285 187.35 2.887 188.859 4.322 C 190.591 5.96 191.559 7.395 194.241 12.293 C 195.452 14.491 196.83 17.005 197.315 17.88 C 198.246 19.576 199.363 21.978 199.755 23.189 C 199.884 23.598 199.997 24.772 199.997 25.796 C 200.015 27.361 199.94 27.789 199.606 28.404 C 199.047 29.447 198.153 30.266 196.923 30.806 L 195.88 31.291 L 173.735 31.253 L 151.59 31.197 L 153.266 30.285 C 155.818 28.869 157.457 27.137 157.457 25.834 C 157.457 25.088 151.049 6.501 150.305 5.104 C 149.505 3.558 148.927 3.13 146.99 2.627 C 145.164 2.124 145.146 2.124 146.022 2.757 C 148.163 4.322 149.206 6.426 151.497 13.783 C 153.49 20.171 153.732 21.177 153.732 23.189 C 153.732 27.193 151.627 30.155 148.144 31.086 C 147.512 31.253 142.203 31.291 126.819 31.253 C 108.92 31.197 84.447 31.272 84.447 31.272 L 74.668 31.272 L 75.973 30.583 C 80.555 28.105 81.56 27.342 82.175 25.945 C 82.418 25.368 82.697 23.896 82.939 21.792 C 83.163 20.004 83.423 17.899 83.516 17.135 C 83.795 14.975 84.447 8.94 84.447 8.438 C 84.447 7.991 84.428 7.991 82.827 8.047 L 81.187 8.102 L 80.349 9.351 C 79.883 10.039 78.935 11.567 78.207 12.74 C 77.5 13.913 76.886 14.845 76.848 14.807 C 76.81 14.77 76.923 13.578 77.09 12.144 C 77.258 10.71 77.369 9.388 77.332 9.201 C 77.295 9.015 76.959 10.244 76.55 11.921 C 76.158 13.615 75.786 15.068 75.712 15.143 C 75.637 15.217 75.376 14.249 75.134 13.001 C 74.91 11.734 74.576 10.17 74.408 9.499 L 74.11 8.289 L 69.789 8.233 L 65.468 8.196 L 65.263 8.978 C 65.151 9.425 65.021 9.927 64.965 10.114 C 64.872 10.412 65.17 10.43 69.435 10.43 C 73.123 10.43 74.017 10.486 74.017 10.672 C 74.017 10.822 73.682 12.517 73.272 14.454 C 72.862 16.391 72.528 18.03 72.528 18.122 C 72.528 18.197 70.31 18.253 67.61 18.253 L 62.712 18.253 L 62.414 19.334 C 62.246 19.91 62.06 20.749 61.986 21.196 L 61.855 21.978 L 66.231 21.978 L 70.608 21.978 L 73.011 19.035 C 74.334 17.396 75.432 16.186 75.469 16.316 C 75.507 16.465 75.283 18.179 74.967 20.153 C 74.651 22.127 74.185 25.181 73.924 26.914 C 73.663 28.664 73.403 30.359 73.346 30.694 L 73.234 31.291 L 49.45 31.291 C 26.467 31.291 25.703 31.272 26.244 30.955 C 26.561 30.769 27.734 30.08 28.851 29.409 C 30.267 28.59 31.31 27.808 32.185 26.914 C 33.321 25.777 33.638 25.275 34.719 23.002 C 35.408 21.568 36.022 20.209 36.096 19.967 C 36.171 19.743 36.562 18.83 36.972 17.955 C 37.382 17.061 37.698 16.279 37.661 16.186 C 37.624 16.111 36.73 16.893 35.65 17.936 C 33.992 19.557 32.67 20.767 29.038 24.064 L 28.479 24.586 L 28.349 23.692 C 28.274 23.207 28.125 21.475 28.013 19.836 C 27.752 15.869 27.641 14.882 27.417 15.012 C 27.324 15.068 27.286 15.161 27.343 15.217 C 27.38 15.273 26.262 17.638 24.847 20.488 C 23.431 23.319 22.165 26.001 22.053 26.43 C 21.737 27.603 22.072 28.367 23.599 29.95 L 24.903 31.291 L 12.368 31.291 C 4.993 31.291 -0.111 31.216 0.001 31.123 Z M 101.246 28.701 C 102.141 28.162 103.035 27.528 103.239 27.268 C 104.06 26.225 104.077 25.964 103.928 15.404 C 103.78 4.023 103.817 4.266 102.29 3.167 L 101.489 2.571 L 101.359 3.297 C 101.283 3.688 101.228 4.843 101.21 5.868 C 101.191 8.102 100.744 14.863 100.614 15.012 C 100.501 15.124 99.31 12.088 98.528 9.76 C 97.95 8.009 97.969 8.009 95.697 8.009 L 94.207 8.009 L 93.983 11.604 C 93.852 13.559 93.629 16.987 93.48 19.184 C 93.331 21.382 93.2 23.915 93.2 24.809 C 93.2 26.448 93.2 26.448 93.908 27.23 C 94.597 27.994 95.808 28.869 97.577 29.838 C 98.49 30.341 98.509 30.341 99.067 30.005 C 99.365 29.819 100.352 29.242 101.246 28.701 Z M 119.09 29.503 C 119.09 29.447 118.811 28.963 118.475 28.441 C 118.14 27.901 117.581 27.007 117.227 26.448 C 116.891 25.889 116.11 24.622 115.514 23.654 C 114.936 22.686 114.266 21.68 114.043 21.419 L 113.67 20.954 L 113.781 23.096 C 113.911 25.74 114.098 26.448 114.842 27.305 C 115.607 28.162 119.09 29.968 119.09 29.503 Z M 47.998 27.621 C 49.078 26.56 49.618 25.871 49.991 25.051 C 50.457 24.046 52.579 17.564 55.485 8.289 C 56.603 4.75 56.677 3.874 56.007 3.13 C 55.466 2.534 54.386 2.85 53.194 3.986 C 52.337 4.768 52.021 5.457 50.549 9.574 C 49.059 13.709 47.16 18.942 45.539 23.245 C 44.906 24.902 44.403 26.56 44.403 26.895 C 44.403 27.398 44.571 27.677 45.241 28.292 C 45.688 28.701 46.173 29.055 46.284 29.055 C 46.396 29.055 47.16 28.404 47.998 27.621 Z M 174.033 26.672 C 174.033 25.964 173.754 25.144 172.487 22.257 C 169.582 15.571 167.887 11.66 167.011 9.593 C 165.149 5.178 164.404 4.098 162.765 3.465 C 162.076 3.185 161.945 3.185 160.995 3.484 C 159.674 3.912 159.654 4.154 160.586 6.705 C 161.796 9.927 164.981 18.16 166.21 21.14 C 166.844 22.686 167.478 24.269 167.645 24.679 C 168.055 25.703 169.62 27.268 170.997 28.05 C 171.649 28.422 172.226 28.795 172.282 28.906 C 172.357 29.037 172.748 28.776 173.232 28.255 C 173.884 27.547 174.033 27.268 174.033 26.672 Z M 187.704 20.488 C 187.816 19.799 187.685 19.501 186.288 16.893 C 185.45 15.347 184.408 13.41 183.979 12.591 C 183.252 11.213 183.103 11.064 181.464 9.946 C 179.714 8.755 179.714 8.755 178.373 8.755 C 177.647 8.755 176.976 8.847 176.92 8.94 C 176.864 9.052 176.902 9.127 176.995 9.127 C 177.106 9.127 177.2 9.201 177.2 9.276 C 177.2 9.369 178.503 12.088 180.087 15.329 L 182.974 21.233 L 185.283 21.233 L 187.573 21.233 L 187.704 20.488 Z M 142.519 20.563 C 142.743 20.413 142.929 20.134 142.929 19.967 C 142.929 19.576 140.582 10.766 140.284 9.984 C 140.136 9.611 139.763 9.313 138.963 8.922 C 137.9 8.419 137.844 8.419 137.23 8.717 C 136.876 8.866 136.597 9.089 136.597 9.183 C 136.597 9.276 136.839 10.449 137.156 11.79 C 137.453 13.15 137.975 15.459 138.311 16.931 L 138.925 19.613 L 140.042 20.227 C 141.271 20.917 141.887 21.009 142.519 20.563 Z M 116.612 11.921 L 117.022 10.896 L 116.389 9.779 L 115.774 8.661 L 114.34 8.605 L 112.925 8.55 L 113.036 10.375 C 113.222 13.262 113.093 13.057 114.769 13.001 L 116.203 12.945 L 116.612 11.921 Z M 177.385 10.244 C 177.385 10.151 177.349 10.058 177.311 10.058 C 177.255 10.058 177.162 10.151 177.106 10.244 C 177.051 10.356 177.088 10.43 177.181 10.43 C 177.293 10.43 177.385 10.356 177.385 10.244 Z" style="fill: rgb(255, 255, 255);"/>
</svg>