<?xml version="1.0" encoding="utf-8"?>
<svg version="1.1" id="Nintendo" x="0px" y="0px" style="enable-background:new 0 0 7530.2 1855.1;" xmlns="http://www.w3.org/2000/svg">
  <style type="text/css">.logo{fill:#939598}</style>
  <polygon class="logo" points="747 489.403 1019.1 489.403 1395.5 1098.403 1395.3 489.403 1665.3 489.403 1665.3 1362.703 1395.7 1362.703 1017.3 753.703 1017.3 1362.703 746.9 1362.703" style="fill: rgb(255, 255, 255);"/>
  <polygon class="logo" points="3133.1 579.203 3395.9 579.203 3395.9 696.703 3538.1 696.703 3538.1 783.103 3395.9 783.103 3396.1 1362.703 3133.1 1362.703 3133.2 783.103 2990.4 783.103 2990.4 696.903 3133.3 696.803" style="fill: rgb(255, 255, 255);"/>
  <polygon class="logo" points="1815.6 781.903 2078.2 782.003 2078.2 1362.703 1815.6 1362.703" style="fill: rgb(255, 255, 255);"/>
  <polygon class="logo" points="1815 489.203 2078.2 489.203 2078.2 667.703 1815 667.703" style="fill: rgb(255, 255, 255);"/>
  <path class="logo" d="M 6523.2 1067.703 C 6523.2 1067.703 6523.1 1155.503 6523.1 1190.703 C 6523.1 1283.303 6468.4 1321.503 6415.8 1321.503 C 6363.1 1321.503 6308.2 1283.303 6308.2 1190.703 C 6308.2 1155.503 6308.3 1065.503 6308.3 1065.503 C 6308.3 1065.503 6308.5 979.603 6308.5 944.403 C 6308.5 852.203 6363.5 814.302 6415.8 814.302 C 6468.2 814.302 6523.1 852.203 6523.1 944.403 C 6523.1 979.603 6523 1044.703 6523.3 1068.003 L 6523.2 1067.703 L 6523.2 1067.703 Z M 6417.7 742.303 C 6205.7 742.303 6033.9 888.302 6033.9 1068.403 C 6033.9 1248.503 6205.8 1394.503 6417.7 1394.503 C 6629.7 1394.503 6801.5 1248.503 6801.5 1068.403 C 6801.5 888.302 6629.7 742.303 6417.7 742.303 L 6417.7 742.303 Z" style="fill: rgb(255, 255, 255);"/>
  <path class="logo" d="M 5689.2 489.403 L 5948.4 489.403 L 5948.4 1362.703 L 5688.8 1362.703 C 5688.8 1362.703 5688.7 1334.503 5688.7 1329.103 C 5588.2 1392.203 5474.8 1392.103 5386.5 1350.903 C 5362.8 1339.903 5206.9 1265.103 5206.9 1063.003 C 5206.9 909.703 5351.5 742.303 5540.8 758.903 C 5603.1 764.403 5647.4 787.103 5689.4 810.703 C 5689.2 676.303 5689.2 489.403 5689.2 489.403 L 5689.2 489.403 Z M 5691.1 1069.403 C 5691.1 1069.403 5691.1 996.603 5691.1 965.603 C 5691.1 875.802 5629.1 852.903 5588.3 852.903 C 5546.5 852.903 5485.3 875.802 5485.3 965.603 C 5485.3 995.403 5485.4 1069.103 5485.4 1069.103 C 5485.4 1069.103 5485.3 1141.503 5485.3 1172.403 C 5485.3 1262.103 5546.5 1285.603 5588.2 1285.603 C 5629.1 1285.603 5691.2 1262.103 5691.2 1172.403 C 5691.2 1135.103 5691.1 1069.403 5691.1 1069.403 L 5691.1 1069.403 Z" style="fill: rgb(255, 255, 255);"/>
  <path class="logo" d="M 2693 755.103 C 2791.2 752.303 2990.4 816.603 2989 1046.503 C 2988.8 1087.303 2988.9 1362.503 2988.9 1362.503 L 2728 1362.503 C 2728 1362.503 2728 1017.403 2728 981.103 C 2728 930.503 2679.6 874.203 2608 874.203 C 2536.5 874.203 2483.3 930.503 2483.3 981.103 C 2483.3 1005.903 2483.6 1362.503 2483.6 1362.503 L 2222.9 1362.503 L 2222.8 781.803 L 2483.7 781.603 C 2483.7 781.603 2483.4 828.302 2483.7 842.703 C 2533.9 794.803 2606.2 757.603 2693 755.103 L 2693 755.103 Z" style="fill: rgb(255, 255, 255);"/>
  <path class="logo" d="M 4827.2 755.103 C 4925.4 752.303 5124.6 816.603 5123.2 1046.503 C 5123 1087.303 5123.1 1362.503 5123.1 1362.503 L 4862.2 1362.503 C 4862.2 1362.503 4862.2 1017.403 4862.2 981.103 C 4862.2 930.503 4813.8 874.203 4742.2 874.203 C 4670.7 874.203 4617.5 930.503 4617.5 981.103 C 4617.5 1005.903 4617.8 1362.503 4617.8 1362.503 L 4357.1 1362.503 L 4357.3 781.803 L 4617.9 781.603 C 4617.9 781.603 4617.6 828.302 4617.9 842.703 C 4668.1 794.803 4740.5 757.603 4827.2 755.103 L 4827.2 755.103 Z" style="fill: rgb(255, 255, 255);"/>
  <path class="logo" d="M 3782.7 984.403 C 3782.3 933.503 3783.4 899.503 3800.1 870.503 C 3820.6 834.703 3858.3 817.703 3892.5 817.503 L 3892.4 817.503 C 3926.6 817.703 3964.3 834.703 3984.8 870.503 C 4001.5 899.603 4002.2 933.603 4001.8 984.503 L 3782.7 984.403 L 3782.7 984.403 Z M 4000.9 1159.503 C 4000.9 1159.503 4001.1 1162.103 4001.1 1194.703 C 4001.1 1300.903 3931.2 1324.503 3892.4 1324.503 C 3853.6 1324.503 3782.5 1300.903 3782.5 1194.703 C 3782.5 1162.903 3782.7 1074.803 3782.7 1074.803 C 3782.7 1074.803 4277.4 1075.003 4277.4 1074.703 C 4277.4 894.603 4103.5 745.403 3889.9 745.403 C 3676.3 745.403 3503.2 891.403 3503.2 1071.503 C 3503.2 1251.603 3676.3 1397.503 3889.9 1397.503 C 4067.1 1397.503 4216.8 1296.403 4262.5 1159.303 L 4000.9 1159.503 L 4000.9 1159.503 Z" style="fill: rgb(255, 255, 255);"/>
  <path class="logo" d="M 984.9 1855.103 C 394.5 1854.903 0 1436.503 0 929.203 L 0 929.203 C 0 421.903 395.4 -1.297 984 0.003 L 6546.2 0.003 C 7134.8 -1.297 7530.2 421.903 7530.2 929.203 L 7530.2 929.203 C 7530.2 1436.503 7135.7 1854.903 6545.3 1855.103 L 984.9 1855.103 L 984.9 1855.103 Z M 986.7 228.203 C 519.3 229.103 232.4 541.503 232.4 928.003 L 232.4 928.003 C 232.4 1314.403 517.5 1629.403 986.7 1627.703 L 6543.5 1627.703 C 7012.7 1629.303 7297.9 1314.403 7297.9 928.003 L 7297.9 928.003 C 7297.9 541.603 7011 229.203 6543.6 228.303 L 986.7 228.203 L 986.7 228.203 Z" style="fill: rgb(255, 255, 255);"/>
</svg>