<?xml version="1.0" encoding="utf-8"?>
<svg version="1.1" id="Nintendo" x="0px" y="0px" style="enable-background:new 0 0 7530.2 1855.1;" xmlns="http://www.w3.org/2000/svg">
  <style type="text/css">.logo{fill:#939598}</style>
  <polygon class="logo" points="19.84 12.998 27.067 12.998 37.064 29.173 37.059 12.998 44.23 12.998 44.23 36.193 37.069 36.193 27.019 20.018 27.019 36.193 19.837 36.193" style="fill: rgb(255, 255, 255);"/>
  <polygon class="logo" points="83.214 15.383 90.194 15.383 90.194 18.504 93.971 18.504 93.971 20.799 90.194 20.799 90.199 36.193 83.214 36.193 83.217 20.799 79.424 20.799 79.424 18.51 83.22 18.507" style="fill: rgb(255, 255, 255);"/>
  <polygon class="logo" points="48.222 20.767 55.196 20.77 55.196 36.193 48.222 36.193" style="fill: rgb(255, 255, 255);"/>
  <polygon class="logo" points="48.206 12.993 55.196 12.993 55.196 17.734 48.206 17.734" style="fill: rgb(255, 255, 255);"/>
  <path class="logo" d="M 173.254 28.358 C 173.254 28.358 173.252 30.69 173.252 31.625 C 173.252 34.084 171.799 35.099 170.402 35.099 C 169.002 35.099 167.544 34.084 167.544 31.625 C 167.544 30.69 167.547 28.299 167.547 28.299 C 167.547 28.299 167.552 26.018 167.552 25.083 C 167.552 22.634 169.013 21.628 170.402 21.628 C 171.794 21.628 173.252 22.634 173.252 25.083 C 173.252 26.018 173.249 27.747 173.257 28.366 L 173.254 28.358 L 173.254 28.358 Z M 170.452 19.715 C 164.822 19.715 160.259 23.593 160.259 28.376 C 160.259 33.16 164.824 37.038 170.452 37.038 C 176.083 37.038 180.646 33.16 180.646 28.376 C 180.646 23.593 176.083 19.715 170.452 19.715 L 170.452 19.715 Z" style="fill: rgb(255, 255, 255);"/>
  <path class="logo" d="M 151.104 12.998 L 157.988 12.998 L 157.988 36.193 L 151.093 36.193 C 151.093 36.193 151.09 35.444 151.09 35.301 C 148.421 36.977 145.409 36.974 143.064 35.88 C 142.434 35.587 138.294 33.601 138.294 28.233 C 138.294 24.161 142.134 19.715 147.162 20.156 C 148.817 20.302 149.993 20.905 151.109 21.532 C 151.104 17.962 151.104 12.998 151.104 12.998 L 151.104 12.998 Z M 151.154 28.403 C 151.154 28.403 151.154 26.47 151.154 25.646 C 151.154 23.261 149.507 22.653 148.424 22.653 C 147.313 22.653 145.688 23.261 145.688 25.646 C 145.688 26.438 145.691 28.395 145.691 28.395 C 145.691 28.395 145.688 30.318 145.688 31.139 C 145.688 33.521 147.313 34.145 148.421 34.145 C 149.507 34.145 151.157 33.521 151.157 31.139 C 151.157 30.148 151.154 28.403 151.154 28.403 L 151.154 28.403 Z" style="fill: rgb(255, 255, 255);"/>
  <path class="logo" d="M 71.525 20.055 C 74.133 19.981 79.424 21.689 79.387 27.795 C 79.382 28.878 79.384 36.188 79.384 36.188 L 72.455 36.188 C 72.455 36.188 72.455 27.022 72.455 26.058 C 72.455 24.714 71.169 23.219 69.268 23.219 C 67.369 23.219 65.956 24.714 65.956 26.058 C 65.956 26.717 65.964 36.188 65.964 36.188 L 59.04 36.188 L 59.037 20.764 L 65.966 20.759 C 65.966 20.759 65.958 21.999 65.966 22.382 C 67.3 21.11 69.22 20.122 71.525 20.055 L 71.525 20.055 Z" style="fill: rgb(255, 255, 255);"/>
  <path class="logo" d="M 128.209 20.055 C 130.817 19.981 136.108 21.689 136.071 27.795 C 136.065 28.878 136.068 36.188 136.068 36.188 L 129.139 36.188 C 129.139 36.188 129.139 27.022 129.139 26.058 C 129.139 24.714 127.853 23.219 125.951 23.219 C 124.052 23.219 122.639 24.714 122.639 26.058 C 122.639 26.717 122.647 36.188 122.647 36.188 L 115.723 36.188 L 115.729 20.764 L 122.65 20.759 C 122.65 20.759 122.642 21.999 122.65 22.382 C 123.983 21.11 125.906 20.122 128.209 20.055 L 128.209 20.055 Z" style="fill: rgb(255, 255, 255);"/>
  <path class="logo" d="M 100.467 26.145 C 100.457 24.794 100.486 23.891 100.93 23.12 C 101.474 22.169 102.475 21.718 103.384 21.713 L 103.381 21.713 C 104.289 21.718 105.291 22.169 105.835 23.12 C 106.279 23.893 106.297 24.796 106.287 26.148 L 100.467 26.145 L 100.467 26.145 Z M 106.263 30.796 C 106.263 30.796 106.268 30.865 106.268 31.731 C 106.268 34.552 104.412 35.178 103.381 35.178 C 102.351 35.178 100.462 34.552 100.462 31.731 C 100.462 30.886 100.467 28.546 100.467 28.546 C 100.467 28.546 113.607 28.552 113.607 28.544 C 113.607 23.76 108.988 19.798 103.315 19.798 C 97.641 19.798 93.044 23.675 93.044 28.459 C 93.044 33.242 97.641 37.117 103.315 37.117 C 108.021 37.117 111.997 34.432 113.211 30.791 L 106.263 30.796 L 106.263 30.796 Z" style="fill: rgb(255, 255, 255);"/>
  <path class="logo" d="M 26.159 49.271 C 10.478 49.266 0 38.153 0 24.679 L 0 24.679 C 0 11.206 10.502 -0.034 26.135 0 L 173.865 0 C 189.498 -0.034 200 11.206 200 24.679 L 200 24.679 C 200 38.153 189.522 49.266 173.841 49.271 L 26.159 49.271 L 26.159 49.271 Z M 26.206 6.061 C 13.792 6.085 6.172 14.382 6.172 24.648 L 6.172 24.648 C 6.172 34.91 13.745 43.276 26.206 43.231 L 173.794 43.231 C 186.255 43.274 193.83 34.91 193.83 24.648 L 193.83 24.648 C 193.83 14.385 186.21 6.088 173.796 6.064 L 26.206 6.061 L 26.206 6.061 Z" style="fill: rgb(255, 255, 255);"/>
</svg>