<?xml version="1.0" encoding="utf-8"?>
<svg version="1.1" id="Ebene_2" x="0px" y="0px" enable-background="new 0 0 566.929 92.934" xmlns="http://www.w3.org/2000/svg" xmlns:bx="https://boxy-svg.com">
  <g id="g3" transform="matrix(1.058334, 0, 0, 1.058334, 0, 0.549275)" bx:origin="0 0">
    <path d="M 162.729 4.833 C 166.303 0.26 173.697 -0.519 178.081 3.313 C 179.873 4.823 181.129 6.908 181.77 9.15 C 189.885 37.074 198.037 64.984 206.142 92.91 C 201.351 92.913 196.56 92.904 191.771 92.913 C 189.513 85.219 187.308 77.503 185.078 69.799 C 175.818 69.772 166.559 69.791 157.301 69.788 C 155.032 77.489 152.796 85.199 150.568 92.918 C 145.805 92.899 141.043 92.91 136.278 92.907 C 143.988 66.271 151.706 39.635 159.453 13.006 C 160.374 10.221 160.718 7.107 162.729 4.833 M 171.183 21.943 C 167.787 33.511 164.46 45.103 161.085 56.677 C 167.815 56.707 174.543 56.688 181.271 56.688 C 177.903 45.107 174.551 33.525 171.183 21.943 Z" id="path7" style="fill-opacity: 1; fill: rgb(255, 255, 255);"/>
    <path d="M 263.614 5.434 C 266.109 1.814 270.934 0.055 275.181 1.173 C 279.071 2.07 282.046 5.421 283.074 9.194 C 291.18 37.099 299.315 64.99 307.42 92.888 C 302.626 92.931 297.831 92.888 293.036 92.909 C 290.808 85.205 288.601 77.488 286.355 69.787 C 277.11 69.79 267.866 69.767 258.622 69.793 C 256.412 77.506 254.135 85.198 251.924 92.906 C 247.165 92.909 242.407 92.906 237.65 92.909 C 245.354 66.129 253.151 39.37 260.918 12.606 C 261.733 10.187 262.046 7.523 263.614 5.434 M 262.448 56.688 C 269.15 56.697 275.849 56.691 282.55 56.691 C 279.218 45.087 275.831 33.498 272.505 21.891 C 269.158 33.491 265.777 45.083 262.448 56.688 Z" id="path9" style="fill-opacity: 1; fill: rgb(255, 255, 255);"/>
    <path d="M 195.418 1.034 C 212.743 1.034 230.068 1.034 247.388 1.034 C 247.388 5.709 247.388 10.378 247.388 15.052 C 241.01 15.057 234.633 15.045 228.257 15.057 C 228.257 41.009 228.261 66.959 228.254 92.911 C 223.688 92.911 219.115 92.911 214.548 92.911 C 214.548 66.96 214.544 41.01 214.552 15.057 C 208.173 15.045 201.797 15.057 195.419 15.052 C 195.418 10.379 195.415 5.708 195.418 1.034 Z" id="path11" style="fill-opacity: 1; fill: rgb(255, 255, 255);"/>
    <path d="M 322.652 1.604 C 323.968 1.149 325.373 0.994 326.763 1.027 C 332.225 1.048 337.686 1.03 343.151 1.034 C 352.349 1.202 361.13 6.914 365.112 15.193 C 367.868 20.57 368.153 26.824 367.457 32.723 C 366.981 38.899 364.388 45.072 359.643 49.163 C 357.135 51.401 354.011 52.755 351.329 54.741 C 349.855 55.867 349.785 58.043 350.544 59.602 C 357.794 70.796 365.333 81.809 372.732 92.909 C 367.32 92.92 361.907 92.895 356.494 92.92 C 349.406 82.275 342.393 71.576 335.334 60.92 C 333.259 57.889 332.697 53.869 333.938 50.404 C 334.907 47.75 337.23 45.805 339.814 44.805 C 344.749 42.923 349.612 39.963 352.347 35.307 C 354.424 31.804 354.32 27.489 353.386 23.658 C 352.288 18.686 347.443 14.77 342.325 14.944 C 338.783 14.968 335.246 14.923 331.711 14.96 C 330.111 14.923 328.605 16.313 328.625 17.939 C 328.607 42.929 328.634 67.924 328.619 92.918 C 324.016 92.91 319.416 92.918 314.812 92.91 C 314.802 66.008 314.819 39.096 314.802 12.193 C 314.825 7.475 318.18 3.037 322.652 1.604 Z" id="path13" style="fill-opacity: 1; fill: rgb(255, 255, 255);"/>
    <path d="M 379.969 1.034 C 384.811 1.034 389.651 1.034 394.497 1.034 C 394.492 31.664 394.501 62.285 394.488 92.91 C 389.65 92.899 384.81 92.91 379.968 92.907 C 379.969 62.282 379.969 31.661 379.969 1.034 Z" id="path15" style="fill-opacity: 1; fill: rgb(255, 255, 255);"/>
    <path d="M 40.963 0.865 C 43.289 0.858 45.614 0.865 47.944 0.861 C 47.952 6.331 47.944 11.803 47.947 17.271 C 47.969 21.838 47.841 26.402 47.652 30.965 C 47.34 37.551 46.927 44.153 45.838 50.661 C 45.088 55.149 43.533 59.482 41.609 63.593 C 38.467 70.215 33.528 75.819 27.977 80.531 C 23.013 84.903 17.085 88.086 10.851 90.234 C 7.324 91.455 3.694 92.386 0 92.91 C 0.003 88.322 0.003 83.731 0 79.145 C 4.449 78.475 8.726 76.896 12.696 74.808 C 17.408 72.316 21.65 68.967 25.222 65.014 C 28.91 60.937 31.848 56.213 34.078 51.2 C 36.705 45.437 38.111 39.206 39.067 32.971 C 40.265 25.044 40.764 17.02 40.949 9.013 C 40.979 6.299 40.956 3.583 40.963 0.865 Z" id="path19" style="fill-opacity: 1; fill: rgb(255, 255, 255);"/>
    <path d="M 50.75 0.875 C 55.033 0.847 59.315 0.872 63.6 0.865 C 63.601 31.545 63.601 62.229 63.6 92.907 C 59.326 92.918 55.053 92.888 50.78 92.928 C 50.728 83.147 50.773 73.357 50.758 63.577 C 50.752 42.678 50.766 21.778 50.75 0.875 Z" id="path21" style="fill-opacity: 1; fill: rgb(255, 255, 255);"/>
    <path d="M 66.458 0.865 C 68.773 0.861 71.085 0.858 73.397 0.865 C 73.321 10.22 73.641 19.595 74.755 28.886 C 75.668 36.106 76.956 43.38 79.831 50.104 C 82.556 56.609 86.485 62.657 91.605 67.535 C 96.497 72.198 102.419 75.783 108.857 77.844 C 110.653 78.415 112.489 78.865 114.358 79.143 C 114.357 83.729 114.354 88.314 114.358 92.9 C 110.689 92.401 107.091 91.454 103.589 90.264 C 99.42 88.815 95.387 86.935 91.682 84.522 C 88.978 82.789 86.519 80.706 84.158 78.535 C 80.264 74.942 76.781 70.865 74.162 66.241 C 72.116 62.643 70.622 58.755 69.451 54.793 C 68.378 50.81 67.923 46.686 67.506 42.592 C 66.701 33.736 66.4 24.839 66.456 15.952 C 66.458 10.923 66.456 5.895 66.458 0.865 Z" id="path23" style="fill-opacity: 1; fill: rgb(255, 255, 255);"/>
    <path d="M 50.75 0.875 C 50.765 21.777 50.753 42.678 50.758 63.575 C 50.772 73.355 50.726 83.142 50.78 92.927 C 55.053 92.888 59.327 92.917 63.6 92.906 C 63.601 62.228 63.601 31.545 63.6 0.861 C 59.317 0.872 55.034 0.848 50.75 0.875" id="path25" style="fill-opacity: 1; fill: rgb(255, 255, 255);"/>
    <path d="M 66.458 0.865 C 66.456 5.893 66.458 10.923 66.458 15.95 C 66.401 24.834 66.703 33.733 67.508 42.59 C 67.925 46.684 68.38 50.808 69.453 54.791 C 70.622 58.753 72.118 62.642 74.164 66.239 C 76.782 70.863 80.266 74.94 84.16 78.533 C 86.523 80.707 88.98 82.787 91.684 84.52 C 95.389 86.933 99.422 88.81 103.591 90.262 C 107.092 91.451 110.691 92.396 114.36 92.898 C 114.356 88.312 114.359 83.727 114.36 79.141 C 112.493 78.867 110.654 78.413 108.859 77.842 C 102.421 75.781 96.498 72.196 91.607 67.533 C 86.487 62.661 82.558 56.609 79.833 50.102 C 76.958 43.378 75.67 36.104 74.757 28.884 C 73.642 19.593 73.323 10.218 73.399 0.863 C 71.084 0.858 68.771 0.861 66.458 0.865" id="path27" style="fill-opacity: 1; fill: rgb(255, 255, 255);"/>
    <path d="M 432.911 59.248 L 434.584 60.562 C 440.437 65.1 447.484 68.804 455.01 68.804 C 458.235 68.804 463.371 67.491 463.371 63.427 C 463.371 59.366 459.07 59.009 456.085 58.411 L 449.514 57.218 C 436.734 54.948 425.983 47.421 425.983 33.325 C 425.982 11.945 445.454 0 465.044 0 C 475.316 0 484.752 2.508 493.592 7.884 L 484.752 30.938 C 479.139 27.117 472.809 24.13 465.761 24.13 C 462.894 24.13 458.712 25.203 458.712 28.906 C 458.712 32.252 462.775 32.729 465.281 33.325 L 472.688 35 C 486.543 38.104 496.578 45.511 496.578 60.801 C 496.578 82.301 476.988 92.934 457.518 92.934 C 446.168 92.934 433.03 89.827 422.876 84.691 L 432.911 59.248 Z" id="path31" style="fill-opacity: 1; fill: rgb(255, 255, 255);"/>
    <path d="M 498.126 1.433 L 566.929 1.433 L 566.929 26.7 L 548.893 26.751 L 548.893 91.5 L 516.164 91.5 L 516.164 26.75 L 498.126 26.7 L 498.126 1.433 Z" id="path33" style="fill-opacity: 1; fill: rgb(255, 255, 255);"/>
  </g>
</svg>