<?xml version="1.0" encoding="utf-8"?>
<svg version="1.2" baseProfile="tiny" id="Layer_3" x="0px" y="0px" viewBox="0 0 1280 720" preserveAspectRatio="none" xmlns="http://www.w3.org/2000/svg">
  <path id="path3" d="M 384.685 260.975 C 379.643 260.975 375.548 265.07 375.548 270.112 L 375.548 301.782 L 375.548 448.384 C 375.548 453.426 379.644 457.55 384.685 457.55 L 893.041 457.55 C 898.084 457.55 902.179 453.425 902.179 448.384 L 902.179 352.1 C 902.179 347.058 898.084 342.962 893.041 342.962 L 589.712 342.962 C 586.469 342.962 584.536 342.149 583.355 340.863 C 582.177 339.575 581.654 337.664 581.653 335.187 L 581.653 270.116 C 581.653 265.074 577.558 260.979 572.516 260.979 L 531.312 260.979 C 526.27 260.979 522.145 265.074 522.145 270.116 L 522.145 287.256 C 522.145 288.745 521.912 290.039 521.351 290.86 C 520.79 291.682 519.92 292.195 518.058 292.195 L 438.914 292.195 C 437.585 292.195 436.711 291.942 436.104 291.287 C 435.498 290.631 435.054 289.412 435.054 287.257 L 435.054 270.117 C 435.047 265.063 430.924 260.967 425.88 260.967 L 384.677 260.967 L 384.685 260.975 Z M 384.685 262.791 L 425.89 262.791 C 429.95 262.791 433.239 266.052 433.239 270.113 L 433.239 287.254 C 433.239 289.653 433.724 291.37 434.772 292.503 C 435.819 293.637 437.315 294.007 438.915 294.007 L 518.059 294.007 C 520.32 294.007 521.953 293.199 522.855 291.88 C 523.758 290.559 523.963 288.909 523.963 287.254 L 523.963 270.112 C 523.963 266.051 527.252 262.79 531.313 262.79 L 572.517 262.79 C 576.577 262.79 579.838 266.051 579.838 270.112 L 579.838 335.181 C 579.839 337.91 580.42 340.328 582.023 342.078 C 583.626 343.826 586.161 344.774 589.713 344.774 L 893.039 344.774 C 897.102 344.774 900.362 348.036 900.362 352.095 L 900.362 448.38 C 900.362 452.441 897.102 455.728 893.039 455.728 L 384.686 455.728 C 380.625 455.728 377.364 452.44 377.364 448.38 L 377.364 301.778 L 377.364 270.109 C 377.364 266.049 380.625 262.788 384.686 262.788 L 384.685 262.791 Z" style="fill: rgb(30, 30, 30);" transform="matrix(0.965926, -0.258819, 0.258819, 0.965926, -71.214206, 177.591545)"/>
  <path id="path5" stroke="#F4F4F4" stroke-width="1.55" d="M 525.602 383.992" style="fill: rgb(30, 30, 30);" transform="matrix(0.965926, -0.258819, 0.258819, 0.965926, -81.475008, 149.120058)"/>
  <path id="path7" d="M 576.58 268 C 571.536 268 567.442 272.096 567.442 277.137 L 567.442 334.403 C 567.442 339.445 571.538 343.539 576.58 343.539 L 671.366 343.539 C 676.409 343.539 680.504 339.445 680.504 334.403 L 680.504 277.137 C 680.504 272.092 676.409 267.997 671.368 267.997 L 576.582 267.997 L 576.58 268 Z M 576.58 269.816 L 671.366 269.816 C 675.427 269.816 678.688 273.077 678.688 277.137 L 678.688 334.403 C 678.688 338.465 675.427 341.725 671.366 341.725 L 576.58 341.725 C 572.518 341.725 569.257 338.465 569.257 334.403 L 569.257 277.137 C 569.259 273.077 572.518 269.816 576.58 269.816 Z" style="fill: rgb(30, 30, 30);" transform="matrix(0.965926, -0.258819, 0.258819, 0.965926, -57.877211, 171.914847)"/>
  <path id="circle9" d="M 573.021 286.335 C 569.896 286.335 567.346 288.913 567.346 292.039 C 567.346 295.165 569.896 297.715 573.021 297.715 C 576.147 297.715 578.725 295.165 578.725 292.039 C 578.725 288.913 576.147 286.335 573.021 286.335 Z M 573.021 288.151 C 575.166 288.151 576.909 289.894 576.909 292.039 C 576.909 294.183 575.165 295.897 573.021 295.897 C 570.878 295.897 569.162 294.183 569.162 292.039 C 569.162 289.894 570.878 288.151 573.021 288.151 Z" style="fill: rgb(30, 30, 30);" transform="matrix(0.965926, -0.258819, 0.258819, 0.965926, -56.055872, 158.262805)"/>
  <path id="circle11" d="M 594.398 280.612 C 591.273 280.612 588.722 283.19 588.722 286.316 C 588.722 289.442 591.273 291.992 594.398 291.992 C 597.523 291.992 600.073 289.442 600.073 286.316 C 600.073 283.19 597.524 280.612 594.398 280.612 Z M 594.398 282.428 C 596.543 282.428 598.257 284.171 598.257 286.316 C 598.257 288.46 596.541 290.174 594.398 290.174 C 592.254 290.174 590.54 288.46 590.54 286.316 C 590.54 284.171 592.254 282.428 594.398 282.428 Z" style="fill: rgb(30, 30, 30);" transform="matrix(0.965926, -0.258819, 0.258819, 0.965926, -53.846816, 163.596942)"/>
  <path id="circle13" d="M 615.756 274.885 C 612.631 274.885 610.081 277.463 610.081 280.589 C 610.081 283.715 612.631 286.265 615.756 286.265 C 618.881 286.265 621.46 283.715 621.46 280.589 C 621.46 277.463 618.881 274.885 615.756 274.885 Z M 615.756 276.701 C 617.9 276.701 619.644 278.444 619.644 280.589 C 619.644 282.733 617.9 284.447 615.756 284.447 C 613.612 284.447 611.898 282.733 611.898 280.589 C 611.898 278.444 613.612 276.701 615.756 276.701 Z" style="fill: rgb(30, 30, 30);" transform="matrix(0.965926, -0.258819, 0.258819, 0.965926, -51.636277, 168.93345)"/>
  <path id="circle15" d="M 637.131 269.161 C 634.005 269.161 631.456 271.739 631.456 274.865 C 631.456 277.991 634.005 280.541 637.131 280.541 C 640.258 280.541 642.806 277.991 642.806 274.865 C 642.806 271.739 640.258 269.161 637.131 269.161 Z M 637.131 270.977 C 639.274 270.977 640.99 272.72 640.99 274.865 C 640.99 277.009 639.274 278.723 637.131 278.723 C 634.989 278.723 633.272 277.009 633.272 274.865 C 633.272 272.72 634.989 270.977 637.131 270.977 Z" style="fill: rgb(30, 30, 30);" transform="matrix(0.965926, -0.258819, 0.258819, 0.965926, -49.42696, 174.266904)"/>
  <path id="circle17" d="M 586.779 295.699 C 583.654 295.699 581.075 298.249 581.075 301.375 C 581.075 304.5 583.653 307.05 586.779 307.05 C 589.905 307.05 592.455 304.5 592.455 301.375 C 592.453 298.249 589.904 295.699 586.779 295.699 Z M 586.779 297.515 C 588.924 297.515 590.638 299.23 590.638 301.375 C 590.638 303.519 588.924 305.234 586.779 305.234 C 584.635 305.234 582.892 303.519 582.892 301.375 C 582.891 299.231 584.635 297.515 586.779 297.515 Z" style="fill: rgb(30, 30, 30);" transform="matrix(0.965926, -0.258819, 0.258819, 0.965926, -58.007941, 162.135098)"/>
  <path id="circle19" d="M 608.127 289.974 C 605.002 289.974 602.453 292.524 602.453 295.65 C 602.453 298.775 605.002 301.325 608.127 301.325 C 611.252 301.325 613.803 298.775 613.803 295.65 C 613.804 292.524 611.254 289.974 608.127 289.974 Z M 608.127 291.79 C 610.272 291.79 611.986 293.505 611.986 295.65 C 611.986 297.794 610.272 299.509 608.127 299.509 C 605.983 299.509 604.269 297.794 604.269 295.65 C 604.269 293.506 605.983 291.79 608.127 291.79 Z" style="fill: rgb(30, 30, 30);" transform="matrix(0.965926, -0.258819, 0.258819, 0.965926, -55.79826, 167.469071)"/>
  <path id="circle21" d="M 629.513 284.248 C 626.387 284.248 623.809 286.798 623.809 289.924 C 623.809 293.049 626.387 295.599 629.513 295.599 C 632.639 295.599 635.19 293.049 635.19 289.924 C 635.19 286.798 632.639 284.248 629.513 284.248 Z M 629.513 286.064 C 631.657 286.064 633.374 287.779 633.374 289.924 C 633.374 292.068 631.657 293.783 629.513 293.783 C 627.369 293.783 625.625 292.068 625.625 289.924 C 625.625 287.78 627.369 286.064 629.513 286.064 Z" style="fill: rgb(30, 30, 30);" transform="matrix(0.965926, -0.258819, 0.258819, 0.965926, -53.588058, 172.805415)"/>
  <path id="circle23" d="M 650.862 278.524 C 647.735 278.524 645.186 281.074 645.186 284.2 C 645.186 287.325 647.735 289.875 650.862 289.875 C 653.988 289.875 656.537 287.325 656.537 284.2 C 656.537 281.074 653.988 278.524 650.862 278.524 Z M 650.862 280.34 C 653.006 280.34 654.721 282.055 654.721 284.2 C 654.721 286.344 653.006 288.059 650.862 288.059 C 648.717 288.059 647.003 286.344 647.003 284.2 C 647.003 282.056 648.717 280.34 650.862 280.34 Z" style="fill: rgb(30, 30, 30);" transform="matrix(0.965926, -0.258819, 0.258819, 0.965926, -51.378666, 178.139158)"/>
  <path id="circle25" d="M 593.286 319.985 C 590.161 319.985 587.582 322.535 587.582 325.661 C 587.582 328.787 590.16 331.337 593.286 331.337 C 596.412 331.337 598.962 328.787 598.962 325.661 C 598.961 322.535 596.411 319.985 593.286 319.985 Z M 593.286 321.801 C 595.431 321.801 597.146 323.516 597.146 325.66 C 597.146 327.804 595.431 329.518 593.286 329.518 C 591.142 329.518 589.399 327.804 589.399 325.66 C 589.399 323.516 591.142 321.801 593.286 321.801 Z" style="fill: rgb(30, 30, 30);" transform="matrix(0.965926, -0.258819, 0.258819, 0.965926, -64.07201, 164.64668)"/>
  <path id="circle27" d="M 614.635 314.261 C 611.51 314.261 608.961 316.811 608.961 319.937 C 608.961 323.063 611.51 325.613 614.635 325.613 C 617.76 325.613 620.311 323.063 620.311 319.937 C 620.312 316.811 617.762 314.261 614.635 314.261 Z M 614.635 316.077 C 616.78 316.077 618.494 317.792 618.494 319.936 C 618.494 322.08 616.78 323.794 614.635 323.794 C 612.491 323.794 610.777 322.08 610.777 319.936 C 610.777 317.792 612.491 316.077 614.635 316.077 Z" style="fill: rgb(30, 30, 30);" transform="matrix(0.965926, -0.258819, 0.258819, 0.965926, -61.862589, 169.981135)"/>
  <path id="circle29" d="M 636.021 308.534 C 632.895 308.534 630.317 311.084 630.317 314.21 C 630.317 317.336 632.895 319.886 636.021 319.886 C 639.147 319.886 641.698 317.336 641.698 314.21 C 641.698 311.084 639.147 308.534 636.021 308.534 Z M 636.021 310.35 C 638.165 310.35 639.882 312.065 639.882 314.209 C 639.882 316.353 638.165 318.067 636.021 318.067 C 633.877 318.067 632.133 316.353 632.133 314.209 C 632.133 312.065 633.877 310.35 636.021 310.35 Z" style="fill: rgb(30, 30, 30);" transform="matrix(0.965926, -0.258819, 0.258819, 0.965926, -59.65211, 175.31735)"/>
  <path id="circle31" d="M 657.37 302.81 C 654.243 302.81 651.694 305.36 651.694 308.486 C 651.694 311.612 654.243 314.162 657.37 314.162 C 660.496 314.162 663.045 311.612 663.045 308.486 C 663.045 305.36 660.496 302.81 657.37 302.81 Z M 657.37 304.626 C 659.514 304.626 661.229 306.341 661.229 308.485 C 661.229 310.629 659.514 312.343 657.37 312.343 C 655.225 312.343 653.511 310.629 653.511 308.485 C 653.511 306.341 655.225 304.626 657.37 304.626 Z" style="fill: rgb(30, 30, 30);" transform="matrix(0.965926, -0.258819, 0.258819, 0.965926, -57.44272, 180.651106)"/>
  <path id="circle33" d="M 658.49 263.434 C 655.363 263.434 652.814 266.012 652.814 269.138 C 652.814 272.264 655.363 274.814 658.49 274.814 C 661.615 274.814 664.194 272.264 664.194 269.138 C 664.195 266.012 661.615 263.434 658.49 263.434 Z M 658.49 265.25 C 660.635 265.25 662.378 266.993 662.378 269.138 C 662.378 271.282 660.635 272.996 658.49 272.996 C 656.345 272.996 654.631 271.282 654.631 269.138 C 654.631 266.993 656.345 265.25 658.49 265.25 Z" style="fill: rgb(30, 30, 30);" transform="matrix(0.965926, -0.258819, 0.258819, 0.965926, -47.216442, 179.60362)"/>
  <path id="circle35" d="M 579.448 310.319 C 576.323 310.319 573.773 312.897 573.773 316.023 C 573.773 319.148 576.323 321.699 579.448 321.699 C 582.574 321.699 585.152 319.149 585.152 316.023 C 585.152 312.897 582.574 310.319 579.448 310.319 Z M 579.448 312.134 C 581.593 312.134 583.336 313.877 583.336 316.022 C 583.336 318.166 581.592 319.881 579.448 319.881 C 577.305 319.881 575.589 318.166 575.589 316.022 C 575.588 313.879 577.305 312.134 579.448 312.134 Z" style="fill: rgb(30, 30, 30);" transform="matrix(0.965926, -0.258819, 0.258819, 0.965926, -62.04443, 160.743646)"/>
  <path id="circle37" d="M 600.824 304.596 C 597.699 304.596 595.148 307.174 595.148 310.3 C 595.148 313.425 597.699 315.976 600.824 315.976 C 603.949 315.976 606.499 313.426 606.499 310.3 C 606.499 307.174 603.95 304.596 600.824 304.596 Z M 600.824 306.411 C 602.969 306.411 604.683 308.154 604.683 310.299 C 604.683 312.443 602.967 314.158 600.824 314.158 C 598.68 314.158 596.966 312.443 596.966 310.299 C 596.966 308.156 598.68 306.411 600.824 306.411 Z" style="fill: rgb(30, 30, 30);" transform="matrix(0.965926, -0.258819, 0.258819, 0.965926, -59.835375, 166.077358)"/>
  <path id="circle39" d="M 622.182 298.869 C 619.057 298.869 616.507 301.447 616.507 304.573 C 616.507 307.698 619.057 310.249 622.182 310.249 C 625.307 310.249 627.886 307.699 627.886 304.573 C 627.886 301.447 625.307 298.869 622.182 298.869 Z M 622.182 300.684 C 624.326 300.684 626.07 302.427 626.07 304.572 C 626.07 306.716 624.326 308.431 622.182 308.431 C 620.038 308.431 618.324 306.716 618.324 304.572 C 618.322 302.429 620.038 300.684 622.182 300.684 Z" style="fill: rgb(30, 30, 30);" transform="matrix(0.965926, -0.258819, 0.258819, 0.965926, -57.624826, 171.413863)"/>
  <path id="circle41" d="M 643.558 293.145 C 640.432 293.145 637.883 295.723 637.883 298.849 C 637.883 301.974 640.432 304.525 643.558 304.525 C 646.685 304.525 649.233 301.975 649.233 298.849 C 649.233 295.723 646.685 293.145 643.558 293.145 Z M 643.558 294.96 C 645.701 294.96 647.417 296.703 647.417 298.848 C 647.417 300.992 645.701 302.707 643.558 302.707 C 641.416 302.707 639.699 300.992 639.699 298.848 C 639.699 296.705 641.416 294.96 643.558 294.96 Z" style="fill: rgb(30, 30, 30);" transform="matrix(0.965926, -0.258819, 0.258819, 0.965926, -55.415475, 176.747575)"/>
  <path id="circle43" d="M 664.917 287.418 C 661.79 287.418 659.241 289.996 659.241 293.122 C 659.241 296.247 661.79 298.798 664.917 298.798 C 668.042 298.798 670.621 296.248 670.621 293.122 C 670.622 289.996 668.042 287.418 664.917 287.418 Z M 664.917 289.233 C 667.062 289.233 668.805 290.976 668.805 293.121 C 668.805 295.265 667.062 296.98 664.917 296.98 C 662.772 296.98 661.058 295.265 661.058 293.121 C 661.058 290.978 662.772 289.233 664.917 289.233 Z" style="fill: rgb(30, 30, 30);" transform="matrix(0.965926, -0.258819, 0.258819, 0.965926, -53.20494, 182.084087)"/>
  <path id="circle45" d="M 585.878 334.331 C 582.753 334.331 580.203 336.881 580.203 340.007 C 580.203 343.132 582.753 345.682 585.878 345.682 C 589.004 345.682 591.582 343.132 591.582 340.007 C 591.582 336.881 589.004 334.331 585.878 334.331 Z M 585.878 336.147 C 588.023 336.147 589.766 337.863 589.766 340.007 C 589.766 342.151 588.022 343.866 585.878 343.866 C 583.735 343.866 582.019 342.15 582.019 340.007 C 582.018 337.863 583.735 336.147 585.878 336.147 Z" style="fill: rgb(30, 30, 30);" transform="matrix(0.965926, -0.258819, 0.258819, 0.965926, -68.036366, 163.22562)"/>
  <path id="circle47" d="M 607.254 328.607 C 604.129 328.607 601.578 331.157 601.578 334.283 C 601.578 337.408 604.129 339.958 607.254 339.958 C 610.379 339.958 612.929 337.408 612.929 334.283 C 612.929 331.157 610.38 328.607 607.254 328.607 Z M 607.254 330.423 C 609.399 330.423 611.113 332.139 611.113 334.283 C 611.113 336.427 609.397 338.142 607.254 338.142 C 605.11 338.142 603.396 336.426 603.396 334.283 C 603.396 332.139 605.11 330.423 607.254 330.423 Z" style="fill: rgb(30, 30, 30);" transform="matrix(0.965926, -0.258819, 0.258819, 0.965926, -65.827027, 168.559234)"/>
  <path id="circle49" d="M 628.612 322.88 C 625.487 322.88 622.937 325.43 622.937 328.556 C 622.937 331.681 625.487 334.231 628.612 334.231 C 631.737 334.231 634.316 331.681 634.316 328.556 C 634.316 325.43 631.737 322.88 628.612 322.88 Z M 628.612 324.696 C 630.756 324.696 632.5 326.412 632.5 328.556 C 632.5 330.7 630.756 332.415 628.612 332.415 C 626.468 332.415 624.754 330.699 624.754 328.556 C 624.752 326.412 626.468 324.696 628.612 324.696 Z" style="fill: rgb(30, 30, 30);" transform="matrix(0.965926, -0.258819, 0.258819, 0.965926, -63.616478, 173.895709)"/>
  <path id="circle51" d="M 649.988 317.157 C 646.862 317.157 644.313 319.707 644.313 322.833 C 644.313 325.958 646.862 328.508 649.988 328.508 C 653.115 328.508 655.663 325.958 655.663 322.833 C 655.663 319.707 653.115 317.157 649.988 317.157 Z M 649.988 318.973 C 652.13 318.973 653.846 320.689 653.846 322.833 C 653.846 324.977 652.13 326.692 649.988 326.692 C 647.846 326.692 646.129 324.976 646.129 322.833 C 646.129 320.689 647.846 318.973 649.988 318.973 Z" style="fill: rgb(30, 30, 30);" transform="matrix(0.965926, -0.258819, 0.258819, 0.965926, -61.40739, 179.229485)"/>
  <path id="circle53" d="M 671.347 311.43 C 668.22 311.43 665.671 313.98 665.671 317.106 C 665.671 320.231 668.22 322.781 671.347 322.781 C 674.472 322.781 677.051 320.231 677.051 317.106 C 677.052 313.98 674.472 311.43 671.347 311.43 Z M 671.347 313.246 C 673.492 313.246 675.235 314.962 675.235 317.106 C 675.235 319.25 673.492 320.965 671.347 320.965 C 669.202 320.965 667.488 319.249 667.488 317.106 C 667.488 314.962 669.202 313.246 671.347 313.246 Z" style="fill: rgb(30, 30, 30);" transform="matrix(0.965926, -0.258819, 0.258819, 0.965926, -59.19688, 184.56619)"/>
  <path id="path55" d="M 427.284 318.301 C 425.356 318.301 423.765 319.892 423.765 321.82 L 423.765 329.396 C 423.765 331.325 425.356 332.915 427.284 332.915 L 500.81 332.915 C 502.738 332.915 504.3 331.325 504.3 329.396 L 504.3 321.82 C 504.3 319.891 502.738 318.301 500.81 318.301 L 427.284 318.301 Z M 427.284 320.117 L 500.81 320.117 C 501.758 320.117 502.484 320.873 502.484 321.82 L 502.484 329.396 C 502.484 330.343 501.757 331.099 500.81 331.099 L 427.284 331.099 C 426.337 331.099 425.581 330.342 425.581 329.396 L 425.581 321.82 C 425.582 320.873 426.338 320.117 427.284 320.117 Z" style="fill: rgb(30, 30, 30);" transform="matrix(0.965926, -0.258819, 0.258819, 0.965926, -68.462046, 131.195308)"/>
  <path id="path57" d="M 438.47 321.337 C 436.542 321.337 434.951 322.928 434.951 324.856 L 434.951 332.007 C 434.951 333.936 436.542 335.526 438.47 335.526 L 466.876 335.526 C 468.805 335.526 470.395 333.936 470.395 332.007 L 470.395 324.856 C 470.395 322.927 468.804 321.337 466.876 321.337 L 438.47 321.337 Z M 438.47 323.153 L 466.876 323.153 C 467.823 323.153 468.58 323.909 468.58 324.856 L 468.58 332.007 C 468.58 332.954 467.823 333.709 466.876 333.709 L 438.47 333.709 C 437.523 333.709 436.767 332.954 436.767 332.007 L 436.767 324.856 C 436.767 323.909 437.523 323.153 438.47 323.153 Z" style="fill: rgb(30, 30, 30);" transform="matrix(0.965926, -0.258819, 0.258819, 0.965926, -69.579875, 128.351418)"/>
  <path id="circle59" d="M 765.43 344.342 C 747.512 344.342 732.966 358.888 732.966 376.806 C 732.966 394.724 747.512 409.27 765.43 409.27 C 783.348 409.27 797.893 394.724 797.893 376.806 C 797.893 358.888 783.348 344.342 765.43 344.342 Z M 765.43 346.158 C 782.367 346.158 796.077 359.87 796.077 376.806 C 796.077 393.742 782.367 407.454 765.43 407.454 C 748.494 407.454 734.782 393.742 734.782 376.806 C 734.782 359.87 748.492 346.158 765.43 346.158 Z" style="fill: rgb(30, 30, 30);" transform="matrix(0.965926, -0.258819, 0.258819, 0.965926, -71.443181, 210.947027)"/>
  <path id="circle61" d="M 765.432 350.326 C 750.809 350.326 738.926 362.177 738.926 376.803 C 738.926 391.426 750.809 403.308 765.432 403.308 C 780.056 403.308 791.938 391.426 791.938 376.803 C 791.938 362.177 780.056 350.326 765.432 350.326 Z M 765.432 352.142 C 779.077 352.142 790.121 363.16 790.121 376.803 C 790.121 390.446 779.075 401.492 765.432 401.492 C 751.788 401.492 740.743 390.445 740.743 376.803 C 740.743 363.16 751.788 352.142 765.432 352.142 Z" style="fill: rgb(30, 30, 30);" transform="matrix(0.965926, -0.258819, 0.258819, 0.965926, -71.445974, 210.948171)"/>
  <path id="circle63" d="M 837.715 324.973 C 819.798 324.973 805.251 339.519 805.251 357.437 C 805.251 375.355 819.798 389.901 837.715 389.901 C 855.633 389.901 870.179 375.355 870.179 357.437 C 870.179 339.519 855.633 324.973 837.715 324.973 Z M 837.715 326.789 C 854.652 326.789 868.363 340.501 868.363 357.437 C 868.363 374.373 854.652 388.085 837.715 388.085 C 820.779 388.085 807.067 374.373 807.067 357.437 C 807.067 340.501 820.779 326.789 837.715 326.789 Z" style="fill: rgb(30, 30, 30);" transform="matrix(0.965926, -0.258819, 0.258819, 0.965926, -63.967069, 228.996023)"/>
  <path id="circle65" d="M 837.718 330.961 C 823.095 330.961 811.213 342.812 811.213 357.438 C 811.213 372.061 823.095 383.943 837.718 383.943 C 852.342 383.943 864.194 372.061 864.194 357.438 C 864.193 342.812 852.342 330.961 837.718 330.961 Z M 837.718 332.777 C 851.363 332.777 862.378 343.795 862.378 357.438 C 862.378 371.081 851.36 382.127 837.718 382.127 C 824.075 382.127 813.029 371.08 813.029 357.438 C 813.029 343.795 824.075 332.777 837.718 332.777 Z" style="fill: rgb(30, 30, 30);" transform="matrix(0.965926, -0.258819, 0.258819, 0.965926, -63.971342, 228.993572)"/>
  <path id="path67" d="M 444.619 371.301 C 440.295 371.301 436.757 374.81 436.757 379.134 L 436.757 401.637 C 436.757 403.103 436.609 403.776 436.53 403.879 C 436.491 403.93 436.482 403.966 436.247 404.021 C 436.011 404.076 435.58 404.107 434.999 404.107 L 411.785 404.107 C 407.462 404.107 403.954 407.644 403.954 411.968 L 403.954 448.12 C 403.954 452.443 407.462 455.952 411.785 455.952 L 434.771 455.952 C 435.512 455.952 436.057 455.97 436.388 456.01 C 436.72 456.05 436.801 456.133 436.756 456.093 C 436.714 456.057 436.733 455.978 436.756 456.178 C 436.781 456.381 436.756 456.767 436.756 457.286 L 436.756 480.923 C 436.756 485.247 440.294 488.784 444.617 488.784 L 480.77 488.784 C 485.094 488.784 488.602 485.247 488.602 480.923 L 488.602 457.37 C 488.602 456.96 488.625 456.623 488.658 456.433 C 488.692 456.244 488.718 456.232 488.744 456.207 C 488.795 456.154 489.233 455.93 490.502 455.951 L 490.531 455.951 L 513.574 455.951 C 517.898 455.951 521.434 452.443 521.434 448.118 L 521.434 411.966 C 521.434 407.643 517.898 404.106 513.574 404.106 L 490.448 404.106 C 489.892 404.106 489.496 404.082 489.256 404.02 C 489.015 403.958 488.945 403.895 488.888 403.822 C 488.771 403.677 488.603 403.039 488.603 401.694 L 488.603 379.131 C 488.603 374.809 485.095 371.298 480.771 371.298 L 444.619 371.301 L 444.619 371.301 Z M 444.619 373.116 L 480.771 373.116 C 484.113 373.116 486.787 375.791 486.787 379.132 L 486.787 401.693 C 486.787 403.121 486.803 404.132 487.468 404.956 C 487.8 405.369 488.304 405.651 488.802 405.779 C 489.299 405.908 489.822 405.922 490.448 405.922 L 513.576 405.922 C 516.918 405.922 519.621 408.624 519.621 411.967 L 519.621 448.119 C 519.621 451.461 516.918 454.135 513.576 454.135 L 490.533 454.135 C 489.109 454.11 488.124 454.233 487.439 454.931 C 487.097 455.277 486.945 455.712 486.871 456.122 C 486.797 456.53 486.787 456.938 486.787 457.37 L 486.787 480.924 C 486.787 484.267 484.113 486.969 480.771 486.969 L 444.619 486.969 C 441.276 486.969 438.574 484.266 438.574 480.924 L 438.574 457.286 C 438.574 456.781 438.595 456.392 438.545 455.98 C 438.496 455.569 438.34 455.075 437.949 454.733 C 437.558 454.39 437.108 454.283 436.616 454.222 C 436.125 454.162 435.531 454.136 434.771 454.136 L 411.787 454.136 C 408.444 454.136 405.771 451.463 405.771 448.12 L 405.771 411.968 C 405.771 408.625 408.444 405.923 411.787 405.923 L 434.999 405.923 C 435.633 405.923 436.15 405.926 436.645 405.809 C 437.138 405.694 437.653 405.413 437.978 404.987 C 438.63 404.136 438.575 403.154 438.575 401.638 L 438.575 379.135 C 438.575 375.793 441.277 373.119 444.62 373.119 L 444.619 373.116 Z" style="fill: rgb(30, 30, 30);" transform="matrix(0.965926, -0.258819, 0.258819, 0.965926, -95.536804, 134.407168)"/>
  <path id="path69" d="M 444.475 376.717 C 443.291 376.717 442.317 377.691 442.317 378.874 L 442.317 409.267 C 442.317 409.467 442.278 409.521 442.204 409.521 L 411.668 409.521 C 410.486 409.521 409.513 410.523 409.513 411.706 L 409.513 448.145 C 409.513 449.327 410.486 450.301 411.668 450.301 L 442.145 450.301 L 442.175 450.301 C 442.285 450.31 442.359 450.34 442.344 450.329 C 442.328 450.315 442.316 450.267 442.316 450.357 L 442.316 481.402 C 442.316 482.585 443.29 483.558 444.473 483.558 L 480.939 483.558 C 482.121 483.558 483.095 482.585 483.095 481.402 L 483.095 450.357 C 483.095 450.322 483.004 450.299 483.266 450.299 L 513.772 450.299 C 514.956 450.299 515.929 449.326 515.929 448.143 L 515.929 411.705 C 515.929 410.523 514.956 409.52 513.772 409.52 L 483.238 409.52 C 483.175 409.52 483.096 409.47 483.096 409.293 L 483.096 378.873 C 483.096 377.69 482.122 376.716 480.94 376.716 L 444.475 376.716 L 444.475 376.717 Z M 444.475 378.533 L 480.94 378.533 C 481.14 378.533 481.281 378.673 481.281 378.874 L 481.281 409.295 C 481.281 410.346 482.1 411.338 483.239 411.338 L 513.773 411.338 C 513.976 411.338 514.114 411.505 514.114 411.706 L 514.114 448.145 C 514.114 448.345 513.976 448.484 513.773 448.484 L 483.267 448.484 C 482.169 448.484 481.281 449.398 481.281 450.358 L 481.281 481.403 C 481.281 481.606 481.14 481.743 480.94 481.743 L 444.475 481.743 C 444.274 481.743 444.134 481.606 444.134 481.403 L 444.134 450.357 C 444.134 449.845 443.926 449.307 443.537 448.966 C 443.149 448.624 442.665 448.483 442.176 448.483 L 411.67 448.483 C 411.467 448.483 411.329 448.344 411.329 448.143 L 411.329 411.705 C 411.329 411.502 411.467 411.337 411.67 411.337 L 442.205 411.337 C 443.359 411.337 444.135 410.291 444.135 409.265 L 444.135 378.873 C 444.134 378.673 444.274 378.532 444.475 378.533 L 444.475 378.533 Z" style="fill: rgb(30, 30, 30);" transform="matrix(0.965926, -0.258819, 0.258819, 0.965926, -95.560714, 134.417389)"/>
  <path id="path73" stroke="#F4F4F4" stroke-width="1.55" d="M 441.346 433.202" style="fill: rgb(30, 30, 30);" transform="matrix(0.965926, -0.258819, 0.258819, 0.965926, -97.082325, 128.98957)"/>
  <path id="path83" d="M 379.24 242.317 C 368.615 242.317 360 251.182 360 262.068 L 360 457.933 C 360 468.82 368.615 477.683 379.24 477.683 L 900.788 477.683 C 911.414 477.683 920 468.82 920 457.933 L 920 262.068 C 920 251.182 911.409 242.317 900.786 242.317 L 379.236 242.317 L 379.24 242.317 Z M 379.24 244.133 L 900.788 244.133 C 910.405 244.133 918.185 252.137 918.185 262.068 L 918.185 457.933 C 918.185 467.865 910.405 475.868 900.788 475.868 L 379.24 475.868 C 369.622 475.868 361.814 467.867 361.814 457.933 L 361.814 262.068 C 361.814 252.136 369.622 244.133 379.24 244.133 L 379.24 244.133 Z" style="fill: rgb(30, 30, 30);" transform="matrix(0.965926, -0.258819, 0.258819, 0.965926, -71.367403, 177.91094)"/>
  <path id="path85" d="M 640.725 355.644 C 634.515 355.644 629.46 360.7 629.46 366.911 L 629.46 367.818 L 630.369 367.818 L 651.084 367.818 L 651.992 367.818 L 651.992 366.911 C 651.992 360.7 646.936 355.644 640.725 355.644 Z M 640.725 357.461 C 645.633 357.461 649.532 361.223 650.006 366.003 L 631.447 366.003 C 631.921 361.223 635.817 357.461 640.725 357.461 Z" style="fill: rgb(30, 30, 30);" transform="matrix(0.965926, -0.258819, 0.258819, 0.965926, -71.790655, 178.157728)"/>
  <path id="path87" d="M 640.192 352.505 C 632.217 352.505 625.749 359.001 625.749 366.978 L 627.565 366.978 C 627.565 359.983 633.2 354.321 640.192 354.321 C 647.189 354.321 652.85 359.984 652.85 366.978 L 654.666 366.978 C 654.665 359.001 648.17 352.505 640.192 352.505 Z" style="fill: rgb(30, 30, 30);" transform="matrix(0.965926, -0.258819, 0.258819, 0.965926, -71.293429, 177.955847)"/>
</svg>