<?xml version="1.0" encoding="utf-8"?>
<svg version="1.2" id="Layer_2" x="0px" y="0px" xmlns="http://www.w3.org/2000/svg">
  <g id="g5" style="fill:#ffffff;fill-opacity:1" transform="matrix(0.352602, 0, 0, 0.352602, -5.411736, -41.260834)">
    <path d="M176.916,152.213c1.66,1.15,2.906,2.396,3.737,3.736c0.894,1.598,1.437,3.386,1.629,5.365v44.169   c0,2.684-0.495,4.775-1.485,6.277c-0.99,1.5-2.093,2.697-3.306,3.592c-1.405,1.021-3.002,1.725-4.79,2.107h-29.798v-67.165h26.923   C172.893,150.425,175.256,151.063,176.916,152.213z M179.024,161.123c-0.191-1.404-0.606-2.682-1.245-3.832   c-0.512-0.958-1.31-1.836-2.396-2.635s-2.556-1.134-4.407-1.007l-25.008,0.096v60.649h25.391c1.341-0.254,2.555-0.701,3.641-1.34   c0.895-0.512,1.757-1.277,2.587-2.301c0.83-1.021,1.31-2.426,1.438-4.215V161.123z M164.94,165.004   c0.574,0.543,1.021,1.134,1.341,1.772c0.319,0.703,0.511,1.501,0.575,2.395v27.786c0.063,1.598-0.08,2.828-0.432,3.689   c-0.352,0.863-0.782,1.484-1.293,1.867c-0.575,0.512-1.214,0.799-1.916,0.863h-5.749l-0.191-39.379h5.174   C163.535,164.126,164.365,164.461,164.94,165.004z M163.79,169.171c-0.128-0.51-0.319-0.925-0.574-1.245   c-0.575-0.702-1.565-0.894-2.971-0.575v32.959c0.574,0.191,1.117,0.256,1.629,0.191c0.447-0.063,0.846-0.254,1.197-0.574   c0.352-0.318,0.591-0.926,0.719-1.82V169.171z" id="path7" style="fill-opacity: 1;"/>
    <path d="M205.086,150.584v66.685h-18.588v-66.685H205.086z M201.828,154.416h-12.264v59.212h12.264V154.416z" id="path9" style="fill-opacity: 1;"/>
    <path d="M229.519,172.429v-2.778c0.063-1.277-0.224-2.044-0.862-2.3c-0.256-0.127-0.607-0.127-1.054,0   c-0.512,0-0.879,0.112-1.103,0.336s-0.367,0.495-0.431,0.814c-0.129,0.319-0.129,0.702,0,1.149v3.641l14.755,9.582   c1.852,1.021,3.273,2.107,4.264,3.258s1.677,2.236,2.06,3.258c0.447,1.15,0.671,2.363,0.671,3.641v14.658   c-0.128,2.109-0.671,3.818-1.629,5.127c-0.958,1.311-2.044,2.316-3.258,3.018c-1.405,0.83-2.97,1.438-4.694,1.82h-19.354   c-2.428-0.064-4.328-0.67-5.701-1.82c-1.373-1.148-2.379-2.363-3.018-3.641c-0.767-1.533-1.246-3.258-1.438-5.174v-21.846   l17.438,10.637v3.736c0,0.574,0.079,1.006,0.239,1.293c0.159,0.287,0.367,0.496,0.623,0.623c0.255,0.191,0.574,0.287,0.958,0.287   c0.958-0.064,1.501-0.447,1.629-1.15c0.063-0.254,0.031-0.605-0.096-1.053v-4.408l-12.743-7.664   c-2.236-1.213-3.913-2.508-5.03-3.881c-1.118-1.373-1.933-2.604-2.443-3.689c-0.575-1.277-0.862-2.555-0.862-3.832v-15.713   c0.127-2.427,0.702-4.311,1.725-5.652c1.021-1.342,2.172-2.332,3.449-2.971c1.469-0.702,3.098-1.117,4.887-1.245h17.15   c2.938,0.128,5.205,0.671,6.803,1.629c1.597,0.958,2.811,2.044,3.641,3.257c0.895,1.406,1.469,2.971,1.725,4.695v24.432   L229.519,172.429z M227.985,164.094c1.021,0.128,1.805,0.367,2.348,0.719s0.974,0.75,1.293,1.197   c0.319,0.512,0.543,1.086,0.671,1.725v2.778l12.456,7.473l-0.192-16.383c0.063-1.66-0.304-3.018-1.102-4.072   c-0.799-1.054-1.677-1.868-2.635-2.443c-1.15-0.702-2.46-1.149-3.929-1.342h-18.587c-1.47,0.129-2.62,0.528-3.45,1.198   c-0.83,0.671-1.469,1.357-1.916,2.06c-0.512,0.895-0.862,1.854-1.054,2.875v15.521c-0.064,1.278,0.191,2.395,0.767,3.354   c0.574,0.957,1.213,1.787,1.916,2.49c0.767,0.83,1.693,1.564,2.779,2.203l15.713,10.156v6.229c0,1.213-0.256,2.156-0.767,2.826   c-0.512,0.672-1.086,1.166-1.725,1.484c-0.703,0.385-1.533,0.641-2.491,0.768c-1.214-0.127-2.14-0.398-2.778-0.814   c-0.639-0.414-1.118-0.877-1.438-1.389c-0.384-0.574-0.64-1.246-0.767-2.014v-3.064l-11.21-6.707l-0.191,15.713   c0.063,1.852,0.463,3.273,1.197,4.264s1.549,1.74,2.443,2.252c1.021,0.574,2.203,0.926,3.545,1.053h18.684   c1.852-0.063,3.241-0.479,4.168-1.244c0.926-0.768,1.612-1.598,2.06-2.492c0.511-1.086,0.767-2.299,0.767-3.641V192.55   c0.063-0.768-0.128-1.533-0.575-2.301c-0.447-0.766-0.958-1.436-1.532-2.012c-0.703-0.703-1.47-1.373-2.3-2.012l-17.055-11.019   v-7.09c0.063-1.086,0.367-1.884,0.91-2.395s1.102-0.895,1.677-1.15C226.389,164.317,227.155,164.158,227.985,164.094z" id="path11" style="fill-opacity: 1;"/>
    <path d="M288.923,175.687l-6.898,7.951l6.898,8.432v25.199h-17.726v-18.588l-2.491-2.299v21.078h-17.917v-66.972   h17.917v21.078l2.491-2.97v-18.108h17.726V175.687z M285.856,154.32h-11.114l-0.096,16.001l-9.007,9.198l-0.383-25.582h-11.21   v59.595h11.114v-24.721l8.719,8.24v16.576h11.785v-21.174l-7.569-8.816l7.761-9.005V154.32z" id="path13" style="fill-opacity: 1;"/>
    <path d="M340.949,172.429v-2.778c0.064-1.277-0.223-2.044-0.861-2.3c-0.256-0.127-0.607-0.127-1.055,0   c-0.512,0-0.879,0.112-1.102,0.336c-0.225,0.224-0.367,0.495-0.432,0.814c-0.129,0.319-0.129,0.702,0,1.149v3.641l14.756,9.582   c1.852,1.021,3.273,2.107,4.264,3.258s1.676,2.236,2.059,3.258c0.447,1.15,0.672,2.363,0.672,3.641v14.658   c-0.129,2.109-0.672,3.818-1.629,5.127c-0.959,1.311-2.045,2.316-3.258,3.018c-1.406,0.83-2.971,1.438-4.695,1.82h-19.354   c-2.428-0.064-4.328-0.67-5.701-1.82c-1.373-1.148-2.379-2.363-3.018-3.641c-0.768-1.533-1.246-3.258-1.438-5.174v-21.846   l17.438,10.637v3.736c0,0.574,0.08,1.006,0.24,1.293c0.158,0.287,0.367,0.496,0.623,0.623c0.254,0.191,0.574,0.287,0.957,0.287   c0.959-0.064,1.502-0.447,1.629-1.15c0.064-0.254,0.031-0.605-0.096-1.053v-4.408l-12.742-7.664   c-2.236-1.213-3.914-2.508-5.031-3.881s-1.932-2.604-2.443-3.689c-0.574-1.277-0.861-2.555-0.861-3.832v-15.713   c0.127-2.427,0.701-4.311,1.725-5.652c1.021-1.342,2.172-2.332,3.449-2.971c1.469-0.702,3.098-1.117,4.887-1.245h17.15   c2.938,0.128,5.205,0.671,6.803,1.629c1.596,0.958,2.811,2.044,3.641,3.257c0.895,1.406,1.469,2.971,1.725,4.695v24.432   L340.949,172.429z M339.416,164.094c1.021,0.128,1.805,0.367,2.348,0.719s0.975,0.75,1.293,1.197   c0.32,0.512,0.543,1.086,0.672,1.725v2.778l12.455,7.473l-0.191-16.383c0.063-1.66-0.305-3.018-1.102-4.072   c-0.799-1.054-1.678-1.868-2.635-2.443c-1.15-0.702-2.461-1.149-3.93-1.342H329.74c-1.471,0.129-2.621,0.528-3.451,1.198   c-0.83,0.671-1.469,1.357-1.916,2.06c-0.512,0.895-0.861,1.854-1.053,2.875v15.521c-0.064,1.278,0.191,2.395,0.766,3.354   c0.574,0.957,1.213,1.787,1.916,2.49c0.768,0.83,1.693,1.564,2.779,2.203l15.713,10.156v6.229c0,1.213-0.256,2.156-0.766,2.826   c-0.512,0.672-1.086,1.166-1.725,1.484c-0.703,0.385-1.533,0.641-2.492,0.768c-1.213-0.127-2.139-0.398-2.777-0.814   c-0.639-0.414-1.119-0.877-1.438-1.389c-0.385-0.574-0.641-1.246-0.768-2.014v-3.064l-11.209-6.707l-0.191,15.713   c0.063,1.852,0.463,3.273,1.197,4.264s1.549,1.74,2.443,2.252c1.021,0.574,2.203,0.926,3.545,1.053h18.684   c1.852-0.063,3.24-0.479,4.168-1.244c0.926-0.768,1.611-1.598,2.059-2.492c0.512-1.086,0.768-2.299,0.768-3.641V192.55   c0.063-0.768-0.129-1.533-0.576-2.301c-0.447-0.766-0.957-1.436-1.531-2.012c-0.703-0.703-1.471-1.373-2.301-2.012l-17.055-11.019   v-7.09c0.064-1.086,0.367-1.884,0.91-2.395s1.102-0.895,1.678-1.15C337.82,164.317,338.586,164.158,339.416,164.094z" id="path15" style="fill-opacity: 1;"/>
    <path d="M402.461,150.68v56.912c-0.064,2.236-0.527,4.01-1.389,5.318c-0.863,1.311-1.836,2.316-2.922,3.018   c-1.215,0.768-2.619,1.311-4.217,1.629H365.67v-16.287h18.012v-3.162h-12.264c-2.363-0.127-4.152-0.703-5.365-1.725   c-1.215-1.021-2.076-2.172-2.588-3.449c-0.639-1.469-0.957-3.098-0.957-4.887V150.68h18.396v30.564h3.162V150.68H402.461z    M399.299,154.225h-11.592v26.158c-0.064,0.83-0.289,1.564-0.672,2.203c-0.32,0.574-0.814,1.086-1.484,1.533   c-0.672,0.447-1.645,0.703-2.922,0.766c-0.959,0.064-1.789-0.031-2.492-0.287c-0.639-0.256-1.213-0.703-1.725-1.342   s-0.799-1.66-0.861-3.066v-25.964H366.34v34.013c0.064,1.277,0.352,2.428,0.863,3.449c0.447,0.895,1.133,1.709,2.059,2.443   s2.283,1.102,4.072,1.102h14.277v4.982c-0.129,0.83-0.416,1.564-0.863,2.203c-0.383,0.512-0.959,0.99-1.725,1.438   c-0.768,0.447-1.789,0.672-3.066,0.672h-12.838v9.484h24.432c1.086-0.127,2.045-0.445,2.875-0.957   c0.701-0.447,1.355-1.117,1.963-2.012s0.91-2.109,0.91-3.643V154.225z" id="path17" style="fill-opacity: 1;"/>
    <path d="M426.799,172.429v-2.778c0.063-1.277-0.225-2.044-0.863-2.3c-0.256-0.127-0.607-0.127-1.053,0   c-0.512,0-0.879,0.112-1.104,0.336c-0.223,0.224-0.367,0.495-0.43,0.814c-0.129,0.319-0.129,0.702,0,1.149v3.641l14.754,9.582   c1.852,1.021,3.273,2.107,4.264,3.258s1.678,2.236,2.061,3.258c0.447,1.15,0.67,2.363,0.67,3.641v14.658   c-0.127,2.109-0.67,3.818-1.629,5.127c-0.957,1.311-2.043,2.316-3.258,3.018c-1.404,0.83-2.969,1.438-4.693,1.82h-19.355   c-2.428-0.064-4.328-0.67-5.701-1.82c-1.373-1.148-2.379-2.363-3.018-3.641c-0.766-1.533-1.246-3.258-1.438-5.174v-21.846   l17.439,10.637v3.736c0,0.574,0.078,1.006,0.238,1.293s0.367,0.496,0.623,0.623c0.256,0.191,0.574,0.287,0.959,0.287   c0.957-0.064,1.5-0.447,1.629-1.15c0.063-0.254,0.031-0.605-0.096-1.053v-4.408l-12.744-7.664   c-2.236-1.213-3.912-2.508-5.029-3.881c-1.119-1.373-1.934-2.604-2.443-3.689c-0.576-1.277-0.863-2.555-0.863-3.832v-15.713   c0.127-2.427,0.703-4.311,1.725-5.652s2.172-2.332,3.449-2.971c1.469-0.702,3.098-1.117,4.887-1.245h17.15   c2.938,0.128,5.205,0.671,6.803,1.629s2.811,2.044,3.641,3.257c0.895,1.406,1.469,2.971,1.725,4.695v24.432L426.799,172.429z    M425.266,164.094c1.021,0.128,1.805,0.367,2.348,0.719s0.973,0.75,1.293,1.197c0.318,0.512,0.543,1.086,0.67,1.725v2.778   l12.457,7.473l-0.193-16.383c0.064-1.66-0.303-3.018-1.102-4.072c-0.799-1.054-1.676-1.868-2.635-2.443   c-1.15-0.702-2.459-1.149-3.928-1.342h-18.588c-1.469,0.129-2.619,0.528-3.449,1.198c-0.83,0.671-1.469,1.357-1.916,2.06   c-0.512,0.895-0.863,1.854-1.055,2.875v15.521c-0.064,1.278,0.191,2.395,0.768,3.354c0.574,0.957,1.213,1.787,1.916,2.49   c0.766,0.83,1.693,1.564,2.779,2.203l15.713,10.156v6.229c0,1.213-0.256,2.156-0.768,2.826c-0.512,0.672-1.086,1.166-1.725,1.484   c-0.703,0.385-1.533,0.641-2.49,0.768c-1.215-0.127-2.141-0.398-2.779-0.814c-0.639-0.414-1.117-0.877-1.438-1.389   c-0.383-0.574-0.639-1.246-0.766-2.014v-3.064l-11.211-6.707l-0.191,15.713c0.064,1.852,0.463,3.273,1.197,4.264   s1.549,1.74,2.443,2.252c1.021,0.574,2.203,0.926,3.545,1.053h18.684c1.852-0.063,3.242-0.479,4.168-1.244   c0.926-0.768,1.613-1.598,2.061-2.492c0.51-1.086,0.766-2.299,0.766-3.641V192.55c0.064-0.768-0.127-1.533-0.574-2.301   c-0.447-0.766-0.959-1.436-1.533-2.012c-0.703-0.703-1.469-1.373-2.299-2.012l-17.055-11.019v-7.09   c0.063-1.086,0.367-1.884,0.91-2.395s1.102-0.895,1.676-1.15C423.668,164.317,424.436,164.158,425.266,164.094z" id="path19" style="fill-opacity: 1;"/>
    <path d="M483.424,150.871v17.438h-8.24v49.152H455.83v-49.152h-7.857v-17.82L483.424,150.871z M479.688,154.32   h-28.266v10.156h8.049v49.535h11.689v-49.248h8.527V154.32z" id="path21" style="fill-opacity: 1;"/>
    <path d="M505.27,168.117v7.761h12.264v17.438h-12.646v7.377h12.646v17.055l-31.139-0.191v-67.068h31.521v17.629   H505.27z M501.533,179.423v-14.851h12.646v-10.156h-24.24v60.554h24.24v-10.635h-12.838v-14.564h13.029v-10.348H501.533z" id="path23" style="fill-opacity: 1;"/>
    <path d="M578.949,152.932c1.277,1.054,2.172,2.155,2.684,3.305c0.639,1.342,0.926,2.812,0.861,4.407v57.2h-18.205   v-48.097c-0.064-0.702-0.318-1.149-0.766-1.341c-0.256-0.064-0.512-0.097-0.768-0.097c-0.383,0-0.686,0.097-0.91,0.288   c-0.223,0.191-0.398,0.383-0.525,0.574c-0.193,0.256-0.289,0.512-0.289,0.767v47.714H543.02v-47.619   c0-0.702-0.256-1.245-0.766-1.628c-0.256-0.191-0.512-0.319-0.768-0.384c-0.447,0-0.799,0.097-1.055,0.288s-0.447,0.415-0.574,0.67   c-0.191,0.256-0.287,0.575-0.287,0.958v47.427h-17.438v-66.781h22.324c1.404-0.128,2.635-0.017,3.688,0.335   c1.055,0.352,1.965,0.783,2.732,1.294c0.83,0.575,1.596,1.246,2.299,2.012c0.383-0.702,0.861-1.261,1.438-1.677   c0.574-0.415,1.148-0.75,1.725-1.006c0.639-0.256,1.309-0.479,2.012-0.671h15.043C575.818,151.191,577.672,151.878,578.949,152.932   z M579.141,160.165c-0.064-1.086-0.318-2.044-0.766-2.874c-0.385-0.703-1.039-1.357-1.965-1.965   c-0.926-0.606-2.221-0.91-3.881-0.91h-13.125c-1.023,0.064-1.98,0.319-2.875,0.767c-0.768,0.384-1.549,0.959-2.348,1.725   c-0.799,0.767-1.422,1.789-1.869,3.066c-0.512-1.213-1.117-2.268-1.82-3.162c-0.703-0.766-1.564-1.469-2.586-2.107   c-1.023-0.639-2.365-0.927-4.025-0.862l-17.916,0.191v59.978H536.6v-44.457c-0.064-0.895,0.096-1.692,0.479-2.396   c0.32-0.639,0.848-1.213,1.582-1.725c0.734-0.511,1.836-0.767,3.305-0.767c0.768,0,1.502,0.192,2.205,0.575   c0.51,0.319,1.006,0.878,1.484,1.677s0.719,1.964,0.719,3.497v43.594h11.307v-44.457c0-0.766,0.191-1.501,0.574-2.204   c0.318-0.574,0.83-1.102,1.533-1.58c0.701-0.479,1.756-0.719,3.162-0.719c0.766-0.063,1.5,0.032,2.203,0.287   c0.574,0.256,1.102,0.703,1.58,1.342s0.719,1.661,0.719,3.065v44.265h11.689V160.165z" id="path25" style="fill-opacity: 1;"/>
  </g>
  <polygon points="45.046 0 49.183 0 49.183 1.442 46.495 1.442 46.495 3.191 49.183 3.191 49.183 4.679 46.495 4.679 46.495 7.788 45.046 7.788" id="polygon27" style="fill-opacity: 1; fill: rgb(255, 255, 255);"/>
  <path d="M 53.888 7.788 L 52.478 7.788 L 52.478 6.575 L 49.748 6.575 L 48.939 7.788 L 47.28 7.788 L 52.74 0 L 53.888 0 L 53.888 7.788 Z M 52.478 5.104 L 52.478 2.831 L 50.811 5.104 L 52.478 5.104 Z" id="path29" style="fill-opacity: 1; fill: rgb(255, 255, 255);"/>
  <polygon points="54.44 0 56.075 0 58.38 5.235 60.701 0 62.352 0 62.352 7.788 60.897 7.788 60.897 3.861 59.099 7.788 57.628 7.788 55.895 3.861 55.895 7.788 54.44 7.788" id="polygon31" style="fill-opacity: 1; fill: rgb(255, 255, 255);"/>
  <polygon points="89.48 0 91.115 0 93.42 5.235 95.741 0 97.393 0 97.393 7.788 95.938 7.788 95.938 3.861 94.139 7.788 92.668 7.788 90.935 3.861 90.935 7.788 89.48 7.788" id="polygon33" style="fill-opacity: 1; fill: rgb(255, 255, 255);"/>
  <rect x="62.811" width="1.506" height="7.788" id="rect35" style="fill-opacity: 1; fill: rgb(255, 255, 255);"/>
  <polygon points="64.731 0 66.237 0 66.237 6.368 68.199 6.368 68.199 7.788 64.731 7.788" id="polygon37" style="fill-opacity: 1; fill: rgb(255, 255, 255);"/>
  <polygon points="66.526 0 68.199 0 69.781 3.191 71.317 0 72.975 0 70.481 4.953 70.481 7.788 69.021 7.788 69.021 4.953" id="polygon39" style="fill-opacity: 1; fill: rgb(255, 255, 255);"/>
  <path stroke="#231F20" stroke-width="0.3451" d="M 81.181 5.777" id="path41" style="fill-opacity: 1; fill: rgb(255, 255, 255);"/>
  <path d="M 81.16 2.148 C 80.498 0.888 79.178 0.028 77.656 0.028 C 75.472 0.028 73.701 1.799 73.701 3.983 C 73.701 6.167 75.471 7.937 77.656 7.937 C 79.188 7.937 80.517 7.066 81.174 5.791 L 79.382 5.806 C 78.94 6.213 78.35 6.462 77.701 6.462 C 76.332 6.462 75.222 5.352 75.222 3.983 C 75.222 2.613 76.332 1.503 77.701 1.503 C 78.341 1.503 78.923 1.745 79.363 2.143 L 81.16 2.148 Z" id="path43" style="fill-opacity: 1; fill: rgb(255, 255, 255);"/>
  <path d="M 85.073 7.958 C 82.877 7.958 81.098 6.178 81.098 3.983 C 81.098 1.788 82.878 0.008 85.073 0.008 C 87.269 0.008 89.048 1.788 89.048 3.983 C 89.049 6.179 87.269 7.958 85.073 7.958 Z M 87.604 3.983 C 87.604 2.594 86.477 1.468 85.088 1.468 C 83.699 1.468 82.573 2.594 82.573 3.983 C 82.573 5.372 83.699 6.498 85.088 6.498 C 86.477 6.498 87.604 5.372 87.604 3.983 Z" id="path45" style="fill-opacity: 1; fill: rgb(255, 255, 255);"/>
  <path d="M 100.494 0.001 C 101.812 0.107 102.848 1.21 102.848 2.555 C 102.848 3.9 101.812 5.003 100.494 5.109 L 99.355 5.104 L 99.355 7.788 L 97.895 7.788 L 97.895 0 L 99.355 0 L 100.494 0.001 Z M 99.356 1.499 L 99.356 3.611 L 100.494 3.61 C 100.992 3.517 101.369 3.08 101.369 2.555 C 101.369 2.03 100.992 1.593 100.494 1.5 L 99.356 1.499 Z" id="path47" style="fill-opacity: 1; fill: rgb(255, 255, 255);"/>
  <path d="M 118.891 7.889 L 117.445 7.889 L 117.445 0.067 L 119.453 0.064 L 120.591 0.065 C 121.909 0.171 122.946 1.274 122.946 2.619 C 122.946 3.718 122.254 4.655 121.282 5.019 L 122.967 7.888 L 121.385 7.888 L 119.024 3.854 L 118.891 3.854 L 118.891 7.889 Z M 117.993 7.852 M 119.454 7.852 M 120.592 3.674 C 121.09 3.581 121.467 3.144 121.467 2.619 C 121.467 2.094 121.09 1.657 120.592 1.564 L 118.891 1.564 L 118.891 3.676 L 120.592 3.674 Z" id="path49" style="fill-opacity: 1; fill: rgb(255, 255, 255);"/>
  <path d="M 106.867 3.039 M 106.867 3.039 M 104.756 3.039 M 104.751 4.5 M 104.751 4.5 L 104.752 5.638 C 104.846 6.137 105.282 6.513 105.807 6.513 C 106.332 6.513 106.769 6.136 106.863 5.638 L 106.864 4.5 L 106.867 0.067 L 108.363 0.067 L 108.363 4.5 L 108.361 5.638 C 108.255 6.956 107.152 7.992 105.807 7.992 C 104.462 7.992 103.359 6.956 103.253 5.638 L 103.259 4.5 L 103.256 0.067 L 104.757 0.067 L 104.751 4.5 Z" id="path51" style="fill-opacity: 1; fill: rgb(255, 255, 255);"/>
  <polygon points="109.856 7.889 111.331 7.889 111.331 1.541 112.654 1.541 112.654 0.067 108.578 0.067 108.578 1.541 109.856 1.541" id="polygon53" style="fill-opacity: 1; fill: rgb(255, 255, 255);"/>
  <polygon points="117.065 7.889 113.012 7.889 113.012 0.067 117.065 0.067 117.065 1.499 114.465 1.499 114.465 3.356 117.065 3.356 117.065 4.817 114.465 4.817 114.465 6.444 117.065 6.444" id="polygon55" style="fill-opacity: 1; fill: rgb(255, 255, 255);"/>
  <path stroke="#231F20" stroke-width="0.3451" d="M 118.891 3.861" id="path57" style="fill-opacity: 1; fill: rgb(255, 255, 255);"/>
  <g id="g59" style="fill:#ffffff;fill-opacity:1" transform="matrix(0.352602, 0, 0, 0.352602, -5.411736, -41.260834)">
    <g id="g61" style="fill:#ffffff;fill-opacity:1">
      <path d="M18.335,206.369c0.005-4.535,2.627-8.455,6.445-10.319l0,0c0-1.921,0-3.964,0-6.157l0,0    c-5.626-3.145-9.43-9.164-9.432-16.067l0,0c0.002-6.903,3.806-12.923,9.432-16.066l0,0c0-13.82,0-25.576,0-27.795l0,0    c0.003-7.034,5.701-12.733,12.734-12.734l0,0h68.333c7.034,0.001,12.733,5.701,12.734,12.734l0,0c0,2.219,0,13.977,0,27.795l0,0    c5.626,3.143,9.43,9.163,9.432,16.066l0,0c-0.002,6.903-3.805,12.923-9.432,16.067l0,0c0,2.193,0,4.236,0,6.157l0,0    c3.819,1.864,6.442,5.784,6.445,10.319l0,0c-0.001,6.338-5.136,11.473-11.476,11.475l0,0H80.696v-2.516    c-0.009-4.947-4.013-8.951-8.96-8.961l0,0v-2.516v-2.516c6.869,0.002,12.58,4.951,13.765,11.479l0,0h28.052    c3.558-0.008,6.439-2.889,6.444-6.445l0,0c0.005-2.928-1.956-5.398-4.62-6.186l0,0l-1.042-0.307l-0.783-1.545v-0.602    c-0.001-2.812-0.001-5.879-0.001-9.314l0,0v-0.56l0.679-1.45l0.854-0.381c4.657-2.092,7.903-6.764,7.901-12.2l0,0    c0.002-5.41-3.213-10.062-7.833-12.169l0,0l-0.183-0.083l-1.418-0.937v-1.352c0-14.47,0-27.019,0-29.32l0,0    c-0.008-4.254-3.449-7.695-7.703-7.704l0,0H37.515c-4.254,0.008-7.695,3.45-7.703,7.704l0,0c0,2.301,0,14.851,0,29.32l0,0v1.352    l-1.129,0.746l-0.291,0.192l-0.18,0.082c-4.621,2.108-7.835,6.76-7.833,12.169l0,0c-0.003,5.437,3.244,10.108,7.901,12.2l0,0    l0.852,0.381l0.679,1.45v0.56c0,3.436,0,6.503,0,9.314l0,0v0.602l-0.784,1.545l-1.042,0.307c-2.665,0.787-4.625,3.258-4.62,6.186    l0,0c0.005,3.557,2.886,6.438,6.445,6.445l0,0h28.051c1.187-6.527,6.897-11.477,13.767-11.479l0,0h0.105v2.516v2.516H71.63    c-4.949,0.01-8.952,4.014-8.961,8.961l0,0v2.516H29.813C23.474,217.841,18.337,212.707,18.335,206.369L18.335,206.369z" id="path65" style="fill-opacity: 1;"/>
    </g>
    <path d="M27.297,208.673" id="path67" style="fill-opacity: 1;"/>
    <path d="M31.96,155.326c0.001-10.448,8.47-18.916,18.918-18.917l0,0c10.448,0.001,18.917,8.469,18.917,18.917l0,0   c-0.001,10.448-8.47,18.916-18.917,18.916l0,0C40.431,174.242,31.962,165.774,31.96,155.326L31.96,155.326z M35.105,155.326   c0.015,8.712,7.062,15.757,15.773,15.772l0,0c8.711-0.015,15.758-7.061,15.773-15.772l0,0c-0.016-8.71-7.063-15.757-15.773-15.773   l0,0C42.167,139.569,35.12,146.616,35.105,155.326L35.105,155.326z" id="path69" style="fill-opacity: 1;"/>
    <circle cx="63.089" cy="155.38" r="4.402" id="circle71" style="fill-opacity: 1;"/>
    <path d="M73.569,155.326L73.569,155.326c0-10.448,8.469-18.916,18.917-18.917l0,0c10.447,0.001,18.916,8.469,18.917,18.917l0,0   c-0.001,10.448-8.47,18.916-18.917,18.916l0,0C82.038,174.242,73.569,165.774,73.569,155.326L73.569,155.326z M92.486,171.099   c8.71-0.015,15.757-7.061,15.772-15.772l0,0c-0.016-8.71-7.062-15.757-15.772-15.773l0,0c-8.71,0.016-15.759,7.063-15.774,15.773   l0,0C76.728,164.038,83.776,171.083,92.486,171.099L92.486,171.099z" id="path73" style="fill-opacity: 1;"/>
    <circle cx="80.276" cy="155.38" r="4.402" id="circle75" style="fill-opacity: 1;"/>
  </g>
</svg>