<?xml version="1.0" encoding="utf-8"?>
<svg version="1.2" baseProfile="tiny" id="Layer_3" x="0px" y="0px" preserveAspectRatio="none" xmlns="http://www.w3.org/2000/svg">
  <g transform="matrix(0.535536, -0.143497, 0.143497, 0.535536, 285.529907, 175.032288)">
    <path d="M143.577,201.482c-0.644,0-1.169-0.522-1.169-1.168l0,0v-22.213c0.002-0.646,0.523-1.165,1.169-1.168l0,0&#10;&#9;&#9;h22.212c0.648,0.002,1.167,0.522,1.169,1.168l0,0v22.213c-0.002,0.645-0.525,1.168-1.169,1.169l0,0L143.577,201.482&#10;&#9;&#9;L143.577,201.482z M165.348,199.873v-21.328H144.02v21.326L165.348,199.873L165.348,199.873z" style="fill: rgb(30, 30, 30);"/>
    <path d="M150.967,197.539c-2.85-0.001-5.156-2.311-5.159-5.156l0,0v-6.348c0.001-2.85,2.309-5.156,5.159-5.156l0,0&#10;&#9;&#9;h7.434c2.848,0,5.157,2.307,5.157,5.156l0,0v6.348c0,2.847-2.309,5.155-5.157,5.156l0,0H150.967L150.967,197.539z M147.42,186.035&#10;&#9;&#9;v6.348c0.003,1.956,1.588,3.542,3.546,3.544l0,0h7.434c1.957-0.002,3.542-1.588,3.545-3.544l0,0h0.001l-0.001-6.348&#10;&#9;&#9;c-0.003-1.96-1.586-3.544-3.545-3.546l0,0h-7.434C149.007,182.491,147.424,184.076,147.42,186.035L147.42,186.035z" style="fill: rgb(30, 30, 30);"/>
  </g>
  <g transform="matrix(0.535536, -0.143497, 0.143497, 0.535536, 285.529907, 175.032288)">
    <path d="M167.574,201.483c-0.646-0.002-1.168-0.524-1.169-1.17l0,0l0.001-22.211c0-0.646,0.52-1.168,1.168-1.168&#10;&#9;&#9;l0,0h22.213c0.646,0,1.167,0.522,1.167,1.168l0,0v22.211c-0.001,0.646-0.523,1.168-1.167,1.17l0,0H167.574L167.574,201.483z&#10;&#9;&#9; M189.343,199.872v-21.328h-21.327v21.328H189.343L189.343,199.872z" style="fill: rgb(30, 30, 30);"/>
    <path d="M174.962,197.538c-2.85,0-5.157-2.308-5.157-5.154l0,0l-0.002-6.348c0.002-2.85,2.309-5.156,5.159-5.156&#10;&#9;&#9;l0,0h7.435c2.848,0,5.156,2.307,5.156,5.156l0,0v6.348c0,2.847-2.309,5.154-5.156,5.155l0,0L174.962,197.538L174.962,197.538z&#10;&#9;&#9; M171.416,186.035v6.348c0.003,1.956,1.588,3.542,3.546,3.544l0,0h7.435c1.958-0.002,3.542-1.588,3.544-3.544l0,0h0.002&#10;&#9;&#9;l-0.002-6.348c-0.003-1.96-1.587-3.544-3.544-3.546l0,0h-7.435C173.004,182.491,171.419,184.076,171.416,186.035L171.416,186.035z" style="fill: rgb(30, 30, 30);"/>
  </g>
  <g transform="matrix(0.535536, -0.143497, 0.143497, 0.535536, 285.529907, 175.032288)">
    <path d="M191.569,201.482c-0.644,0-1.167-0.522-1.169-1.168l0,0l0.002-22.213c0-0.646,0.521-1.165,1.167-1.168l0,0&#10;&#9;&#9;h22.214c0.645,0.002,1.166,0.522,1.167,1.168l0,0v22.213c0,0.646-0.523,1.168-1.167,1.169l0,0L191.569,201.482L191.569,201.482z&#10;&#9;&#9; M213.338,199.873v-21.328h-21.327v21.326L213.338,199.873L213.338,199.873z" style="fill: rgb(30, 30, 30);"/>
    <path d="M198.958,197.538c-2.848,0-5.156-2.308-5.156-5.154l0,0v-6.348c0-2.85,2.309-5.156,5.156-5.156l0,0h7.434&#10;&#9;&#9;c2.849,0,5.158,2.307,5.158,5.156l0,0v6.348c0,2.845-2.309,5.154-5.158,5.155l0,0L198.958,197.538L198.958,197.538z&#10;&#9;&#9; M195.411,186.035v6.348c0.003,1.956,1.588,3.542,3.546,3.544l0,0h7.434c1.958-0.002,3.542-1.588,3.547-3.544l0,0v-6.348&#10;&#9;&#9;c-0.005-1.96-1.588-3.544-3.547-3.546l0,0h-7.434C197,182.491,195.414,184.076,195.411,186.035L195.411,186.035z" style="fill: rgb(30, 30, 30);"/>
  </g>
  <g transform="matrix(0.535536, -0.143497, 0.143497, 0.535536, 285.529907, 175.032288)">
    <path d="M215.565,201.483c-0.644-0.002-1.167-0.524-1.169-1.17l0,0l0.002-22.211c0-0.644,0.52-1.168,1.167-1.168&#10;&#9;&#9;l0,0h22.213c0.646,0,1.166,0.522,1.168,1.168l0,0v22.211c-0.002,0.646-0.523,1.168-1.168,1.17l0,0H215.565L215.565,201.483z&#10;&#9;&#9; M237.335,199.872v-21.328h-21.326l-0.001,21.328H237.335L237.335,199.872z" style="fill: rgb(30, 30, 30);"/>
    <path d="M222.954,197.539c-2.849-0.001-5.157-2.31-5.157-5.156l0,0v-6.348c0-2.85,2.309-5.156,5.157-5.156l0,0&#10;&#9;&#9;h7.434c2.848,0,5.156,2.307,5.156,5.156l0,0v6.348c0,2.847-2.308,5.155-5.156,5.156l0,0H222.954L222.954,197.539z M219.407,186.035&#10;&#9;&#9;v6.348c0.004,1.956,1.588,3.542,3.547,3.544l0,0h7.433c1.959-0.002,3.544-1.588,3.547-3.544l0,0v-6.348&#10;&#9;&#9;c-0.003-1.96-1.588-3.544-3.547-3.546l0,0h-7.433C220.996,182.491,219.412,184.076,219.407,186.035L219.407,186.035z" style="fill: rgb(30, 30, 30);"/>
  </g>
  <g transform="matrix(0.535536, -0.143497, 0.143497, 0.535536, 285.529907, 175.032288)">
    <path d="M239.561,201.482c-0.644,0-1.167-0.524-1.167-1.168l0,0v-22.213c0-0.644,0.521-1.165,1.167-1.168l0,0&#10;&#9;&#9;h22.213c0.646,0.002,1.168,0.524,1.168,1.168l0,0v22.213c-0.001,0.644-0.522,1.168-1.168,1.169l0,0L239.561,201.482&#10;&#9;&#9;L239.561,201.482z M261.33,199.873v-21.328h-21.326v21.326L261.33,199.873L261.33,199.873z" style="fill: rgb(30, 30, 30);"/>
    <path d="M246.949,197.539c-2.848-0.001-5.157-2.31-5.157-5.156l0,0v-6.348c0-2.85,2.309-5.156,5.157-5.156l0,0&#10;&#9;&#9;h7.434c2.85,0,5.157,2.307,5.157,5.156l0,0v6.348h0.001c-0.001,2.846-2.309,5.155-5.159,5.156l0,0H246.949L246.949,197.539z&#10;&#9;&#9; M243.402,186.035v6.348c0.005,1.956,1.59,3.542,3.547,3.544l0,0h7.434c1.959-0.002,3.543-1.588,3.547-3.544l0,0v-6.348&#10;&#9;&#9;c-0.003-1.96-1.587-3.544-3.547-3.546l0,0h-7.434C244.991,182.491,243.407,184.076,243.402,186.035L243.402,186.035z" style="fill: rgb(30, 30, 30);"/>
  </g>
  <g transform="matrix(0.535536, -0.143497, 0.143497, 0.535536, 285.529907, 175.032288)">
    <path d="M263.558,201.482c-0.645,0-1.168-0.524-1.169-1.168l0,0l0.001-22.213c0-0.644,0.521-1.165,1.168-1.168l0,0&#10;&#9;&#9;h22.213c0.646,0.002,1.167,0.524,1.167,1.168l0,0v22.213c0,0.644-0.522,1.168-1.167,1.169l0,0L263.558,201.482L263.558,201.482z&#10;&#9;&#9; M285.327,199.873v-21.328H264v21.326L285.327,199.873L285.327,199.873z" style="fill: rgb(30, 30, 30);"/>
    <path d="M270.946,197.538c-2.85,0-5.159-2.308-5.159-5.154l0,0v-6.348c0-2.85,2.309-5.156,5.159-5.156l0,0h7.434&#10;&#9;&#9;c2.848,0,5.157,2.307,5.157,5.156l0,0v6.348c-0.001,2.845-2.309,5.154-5.157,5.155l0,0L270.946,197.538L270.946,197.538z&#10;&#9;&#9; M267.398,186.035l0.002,6.348c0.003,1.956,1.589,3.542,3.547,3.544l0,0h7.434c1.958-0.002,3.542-1.588,3.544-3.544l0,0h0.002&#10;&#9;&#9;l-0.002-6.348c-0.002-1.96-1.586-3.544-3.544-3.546l0,0h-7.435C268.986,182.491,267.403,184.076,267.398,186.035L267.398,186.035z" style="fill: rgb(30, 30, 30);"/>
  </g>
  <g transform="matrix(0.535536, -0.143497, 0.143497, 0.535536, 285.529907, 175.032288)">
    <path d="M287.553,201.482c-0.645,0-1.168-0.524-1.168-1.168l0,0v-22.213c0-0.644,0.521-1.165,1.168-1.168l0,0&#10;&#9;&#9;h22.212c0.648,0.002,1.166,0.522,1.167,1.168l0,0v22.213c0,0.646-0.521,1.168-1.167,1.169l0,0L287.553,201.482L287.553,201.482z&#10;&#9;&#9; M309.321,199.873l0.002-21.328h-21.328l-0.001,21.326L309.321,199.873L309.321,199.873z" style="fill: rgb(30, 30, 30);"/>
    <path d="M294.942,197.538c-2.851,0-5.157-2.308-5.159-5.154l0,0v-6.348c0.001-2.85,2.311-5.156,5.159-5.156l0,0&#10;&#9;&#9;h7.434c2.848,0,5.156,2.307,5.156,5.156l0,0v6.348c0,2.847-2.309,5.154-5.156,5.155l0,0L294.942,197.538L294.942,197.538z&#10;&#9;&#9; M291.395,186.035v6.348c0.003,1.956,1.588,3.542,3.547,3.544l0,0h7.434c1.957-0.002,3.542-1.588,3.545-3.544l0,0h0.002&#10;&#9;&#9;l-0.002-6.348c-0.003-1.96-1.586-3.544-3.545-3.546l0,0h-7.434C292.983,182.491,291.398,184.076,291.395,186.035L291.395,186.035z" style="fill: rgb(30, 30, 30);"/>
  </g>
  <g transform="matrix(0.535536, -0.143497, 0.143497, 0.535536, 285.529907, 175.032288)">
    <path d="M311.549,201.483c-0.645-0.002-1.167-0.524-1.169-1.17l0,0l0.002-22.212c0-0.644,0.521-1.166,1.167-1.168&#10;&#9;&#9;l0,0h22.213c0.646,0.002,1.166,0.521,1.168,1.168l0,0v22.212h-0.002c0,0.646-0.522,1.168-1.166,1.17l0,0H311.549L311.549,201.483z&#10;&#9;&#9; M333.319,199.873v-21.329h-21.327v21.327L333.319,199.873L333.319,199.873z" style="fill: rgb(30, 30, 30);"/>
    <path d="M318.938,197.538c-2.85,0-5.159-2.309-5.159-5.155l0,0v-6.347c0-2.85,2.31-5.157,5.159-5.157l0,0h7.435&#10;&#9;&#9;c2.846,0,5.153,2.308,5.153,5.157l0,0v6.347h0.002c-0.002,2.847-2.31,5.155-5.155,5.155l0,0H318.938L318.938,197.538z&#10;&#9;&#9; M315.39,186.036l0.002,6.347c0.003,1.956,1.588,3.541,3.547,3.544l0,0h7.435c1.955-0.003,3.541-1.588,3.544-3.544l0,0v-6.347&#10;&#9;&#9;c-0.003-1.961-1.589-3.544-3.544-3.547l0,0l-7.435-0.001C316.979,182.492,315.395,184.076,315.39,186.036L315.39,186.036z" style="fill: rgb(30, 30, 30);"/>
  </g>
  <g transform="matrix(0.535536, -0.143497, 0.143497, 0.535536, 285.529907, 175.032288)">
    <path d="M335.544,201.483c-0.646-0.002-1.168-0.524-1.17-1.169l0,0l0.002-22.213c0-0.645,0.521-1.167,1.168-1.169&#10;&#9;&#9;l0,0h22.213c0.646,0.002,1.166,0.523,1.169,1.169l0,0v22.213h-0.003c0,0.645-0.521,1.167-1.166,1.169l0,0H335.544L335.544,201.483z&#10;&#9;&#9; M357.313,199.872l0.002-21.328h-21.329l-0.001,21.328H357.313L357.313,199.872z" style="fill: rgb(30, 30, 30);"/>
    <path d="M342.933,197.538c-2.849,0-5.155-2.309-5.155-5.154l0,0l-0.002-6.348c0.002-2.85,2.309-5.156,5.157-5.158&#10;&#9;&#9;l0,0l7.434,0.002c2.849,0,5.157,2.307,5.157,5.156l0,0v6.348h0.002c-0.002,2.846-2.311,5.154-5.159,5.155l0,0L342.933,197.538&#10;&#9;&#9;L342.933,197.538z M339.386,186.035l0.002,6.348c0.003,1.956,1.587,3.541,3.545,3.544l0,0h7.434&#10;&#9;&#9;c1.958-0.003,3.543-1.588,3.547-3.544l0,0h0.002l-0.002-6.348c-0.004-1.959-1.591-3.543-3.547-3.546l0,0l-7.434-0.001&#10;&#9;&#9;C340.975,182.492,339.391,184.076,339.386,186.035L339.386,186.035z" style="fill: rgb(30, 30, 30);"/>
  </g>
  <g transform="matrix(0.535536, -0.143497, 0.143497, 0.535536, 285.529907, 175.032288)">
    <path d="M359.539,201.482c-0.645,0-1.167-0.522-1.168-1.168l0,0l0.001-22.212c0.002-0.647,0.521-1.166,1.167-1.17&#10;&#9;&#9;l0,0l22.213,0.002c0.647,0,1.167,0.524,1.169,1.168l0,0v22.212h-0.002c0,0.644-0.522,1.168-1.167,1.169l0,0L359.539,201.482&#10;&#9;&#9;L359.539,201.482z M381.311,199.872v-21.327h-21.327l-0.002,21.327H381.311L381.311,199.872z" style="fill: rgb(30, 30, 30);"/>
    <path d="M366.929,197.538c-2.85,0-5.157-2.309-5.157-5.156l0,0v-6.347c0-2.849,2.311-5.156,5.157-5.156l0,0h7.434&#10;&#9;&#9;c2.849,0,5.157,2.308,5.157,5.156l0,0v6.347h0.002c-0.002,2.848-2.311,5.156-5.159,5.156l0,0H366.929L366.929,197.538z&#10;&#9;&#9; M363.382,186.035v6.347c0.005,1.957,1.591,3.542,3.547,3.545l0,0h7.434c1.958-0.003,3.544-1.588,3.547-3.545l0,0v-6.347&#10;&#9;&#9;c-0.003-1.96-1.589-3.543-3.547-3.546l0,0l-7.434-0.001C364.969,182.492,363.387,184.076,363.382,186.035L363.382,186.035z" style="fill: rgb(30, 30, 30);"/>
  </g>
  <g transform="matrix(0.535536, -0.143497, 0.143497, 0.535536, 285.529907, 175.032288)">
    <path d="M383.535,201.483c-0.645-0.002-1.165-0.524-1.168-1.169l0,0v-22.213c0-0.644,0.521-1.166,1.168-1.168l0,0&#10;&#9;&#9;h22.213c0.648,0.004,1.166,0.522,1.169,1.168l0,0v22.213h-0.002c0,0.646-0.522,1.169-1.167,1.169l0,0H383.535L383.535,201.483z&#10;&#9;&#9; M405.307,199.872v-21.328h-21.327v21.328H405.307L405.307,199.872z" style="fill: rgb(30, 30, 30);"/>
    <path d="M390.925,197.538c-2.849,0-5.156-2.309-5.156-5.156l0,0l-0.002-6.347c0.002-2.849,2.31-5.156,5.158-5.157&#10;&#9;&#9;l0,0l7.434,0.001c2.85,0,5.158,2.308,5.158,5.156l0,0v6.347h0.001c-0.001,2.848-2.31,5.156-5.159,5.156l0,0H390.925&#10;&#9;&#9;L390.925,197.538z M387.379,186.035v6.347c0.002,1.957,1.588,3.543,3.546,3.544l0,0l7.434,0.002&#10;&#9;&#9;c1.96-0.003,3.544-1.589,3.547-3.546l0,0v-6.347c-0.003-1.96-1.588-3.543-3.547-3.546l0,0l-7.434-0.001&#10;&#9;&#9;C388.966,182.492,387.381,184.076,387.379,186.035L387.379,186.035z" style="fill: rgb(30, 30, 30);"/>
  </g>
  <g transform="matrix(0.535536, -0.143497, 0.143497, 0.535536, 285.529907, 175.032288)">
    <path d="M407.531,201.483c-0.645-0.002-1.165-0.525-1.168-1.168l0,0l0.003-22.213c0-0.646,0.519-1.168,1.165-1.17&#10;&#9;&#9;l0,0l22.213,0.002c0.646,0,1.167,0.522,1.168,1.168l0,0v22.213h-0.001c0,0.643-0.521,1.166-1.167,1.168l0,0H407.531&#10;&#9;&#9;L407.531,201.483z M429.3,199.873v-21.329h-21.324l-0.002,21.327L429.3,199.873L429.3,199.873z" style="fill: rgb(30, 30, 30);"/>
    <path d="M414.921,197.538c-2.848,0-5.157-2.309-5.157-5.154l0,0v-6.348c0-2.848,2.31-5.156,5.157-5.158l0,0h7.434&#10;&#9;&#9;c2.849,0,5.156,2.311,5.156,5.158l0,0v6.348h0.002c-0.002,2.846-2.31,5.154-5.158,5.155l0,0L414.921,197.538L414.921,197.538z&#10;&#9;&#9; M411.374,186.036v6.347c0.003,1.956,1.587,3.542,3.545,3.544l0,0h7.435c1.96-0.002,3.543-1.588,3.547-3.544l0,0h0.001&#10;&#9;&#9;l-0.001-6.347c-0.004-1.961-1.589-3.545-3.547-3.547l0,0h-7.435C412.961,182.491,411.377,184.076,411.374,186.036L411.374,186.036z&#10;&#9;&#9;" style="fill: rgb(30, 30, 30);"/>
  </g>
  <g transform="matrix(0.535536, -0.143497, 0.143497, 0.535536, 285.529907, 175.032288)">
    <path d="M431.526,201.482c-0.646,0-1.166-0.523-1.167-1.169l0,0l0.001-22.212c0-0.644,0.52-1.167,1.168-1.169l0,0&#10;&#9;&#9;l22.213,0.002c0.645,0,1.166,0.522,1.168,1.167l0,0v22.212h-0.002c0,0.646-0.521,1.169-1.166,1.17l0,0L431.526,201.482&#10;&#9;&#9;L431.526,201.482z M453.297,199.873l0.001-21.328l-21.327-0.001l-0.001,21.327L453.297,199.873L453.297,199.873z" style="fill: rgb(30, 30, 30);"/>
    <path d="M438.917,197.538c-2.85,0-5.155-2.308-5.155-5.155l0,0l-0.002-6.347c0.002-2.848,2.31-5.156,5.157-5.157&#10;&#9;&#9;l0,0h7.434c2.849,0.001,5.156,2.31,5.156,5.157l0,0v6.347h0.001c-0.001,2.848-2.309,5.155-5.157,5.156l0,0L438.917,197.538&#10;&#9;&#9;L438.917,197.538z M435.37,186.035v6.347c0.004,1.958,1.587,3.543,3.547,3.545l0,0h7.433c1.957-0.002,3.544-1.588,3.547-3.545l0,0&#10;&#9;&#9;v-6.347c-0.003-1.96-1.588-3.543-3.547-3.546l0,0l-7.433-0.001C436.957,182.492,435.374,184.076,435.37,186.035L435.37,186.035z" style="fill: rgb(30, 30, 30);"/>
  </g>
  <g transform="matrix(0.535536, -0.143497, 0.143497, 0.535536, 285.529907, 175.032288)">
    <path d="M131.248,225.698c-0.646,0-1.169-0.521-1.169-1.166l0,0v-22.213c0-0.646,0.523-1.167,1.169-1.169l0,0&#10;&#9;&#9;l22.212,0.002c0.645,0,1.167,0.521,1.168,1.167l0,0v22.213h-0.001c0,0.646-0.523,1.166-1.167,1.168l0,0L131.248,225.698&#10;&#9;&#9;L131.248,225.698z M153.016,224.089v-21.327h-21.327v21.327H153.016L153.016,224.089z" style="fill: rgb(30, 30, 30);"/>
    <path d="M138.636,221.755c-2.849,0-5.157-2.307-5.157-5.155l0,0v-6.348c0-2.848,2.309-5.157,5.157-5.157l0,0h7.435&#10;&#9;&#9;c2.85,0,5.156,2.31,5.157,5.157l0,0v6.348c-0.001,2.849-2.309,5.155-5.157,5.157l0,0L138.636,221.755L138.636,221.755z&#10;&#9;&#9; M135.089,210.252v6.348c0.003,1.96,1.587,3.543,3.547,3.545l0,0h7.435c1.96-0.002,3.542-1.586,3.545-3.545l0,0l0.002-6.348&#10;&#9;&#9;c-0.005-1.959-1.59-3.542-3.547-3.547l0,0h-7.435C136.678,206.708,135.092,208.295,135.089,210.252L135.089,210.252z" style="fill: rgb(30, 30, 30);"/>
  </g>
  <g transform="matrix(0.535536, -0.143497, 0.143497, 0.535536, 285.529907, 175.032288)">
    <path d="M155.243,225.698c-0.645,0-1.168-0.522-1.168-1.166l0,0v-22.213c0-0.643,0.523-1.167,1.168-1.169l0,0&#10;&#9;&#9;l22.211,0.002c0.645,0,1.168,0.521,1.168,1.167l0,0v22.213c0,0.646-0.523,1.166-1.168,1.168l0,0L155.243,225.698L155.243,225.698z&#10;&#9;&#9; M177.013,224.089v-21.327h-21.327v21.327H177.013L177.013,224.089z" style="fill: rgb(30, 30, 30);"/>
    <path d="M162.631,221.755c-2.849,0-5.155-2.307-5.157-5.155l0,0l0.001-6.348c0-2.848,2.307-5.157,5.155-5.157l0,0&#10;&#9;&#9;h7.435c2.849,0,5.158,2.31,5.158,5.157l0,0v6.348c0,2.849-2.309,5.155-5.158,5.157l0,0L162.631,221.755L162.631,221.755z&#10;&#9;&#9; M159.086,210.252v6.348c0.004,1.96,1.587,3.543,3.545,3.545l0,0l7.435,0.002c1.959-0.004,3.543-1.588,3.547-3.547l0,0v-6.348&#10;&#9;&#9;c-0.004-1.959-1.587-3.542-3.547-3.547l0,0h-7.435C160.673,206.708,159.09,208.293,159.086,210.252L159.086,210.252z" style="fill: rgb(30, 30, 30);"/>
  </g>
  <g transform="matrix(0.535536, -0.143497, 0.143497, 0.535536, 285.529907, 175.032288)">
    <path d="M179.238,225.699c-0.643-0.001-1.168-0.521-1.168-1.165l0,0V202.32c0.001-0.646,0.523-1.167,1.168-1.169&#10;&#9;&#9;l0,0h22.213c0.645,0.002,1.167,0.523,1.168,1.169l0,0v22.214c0,0.643-0.523,1.165-1.168,1.165l0,0H179.238L179.238,225.699z&#10;&#9;&#9; M201.008,224.089l0.001-21.328h-21.329v21.328H201.008L201.008,224.089z" style="fill: rgb(30, 30, 30);"/>
    <path d="M186.627,221.757c-2.849-0.002-5.157-2.309-5.157-5.157l0,0v-6.348c0-2.848,2.309-5.157,5.157-5.157l0,0&#10;&#9;&#9;h7.435c2.849,0,5.156,2.31,5.156,5.157l0,0v6.348c0,2.849-2.307,5.155-5.156,5.157l0,0H186.627L186.627,221.757z M183.082,210.252&#10;&#9;&#9;v6.348c0.003,1.96,1.587,3.543,3.546,3.545l0,0h7.435c1.957-0.002,3.541-1.586,3.545-3.545l0,0l0.001-6.348&#10;&#9;&#9;c-0.004-1.959-1.59-3.542-3.546-3.547l0,0h-7.435C184.669,206.708,183.084,208.293,183.082,210.252L183.082,210.252z" style="fill: rgb(30, 30, 30);"/>
  </g>
  <g transform="matrix(0.535536, -0.143497, 0.143497, 0.535536, 285.529907, 175.032288)">
    <path d="M203.234,225.698c-0.645,0-1.168-0.521-1.168-1.166l0,0v-22.213c0.001-0.646,0.523-1.167,1.168-1.169l0,0&#10;&#9;&#9;l22.214,0.002c0.644,0,1.167,0.52,1.167,1.167l0,0v22.213c0,0.647-0.524,1.166-1.167,1.168l0,0L203.234,225.698L203.234,225.698z&#10;&#9;&#9; M225.005,224.089v-21.327h-21.328v21.327H225.005L225.005,224.089z" style="fill: rgb(30, 30, 30);"/>
    <path d="M210.623,221.755c-2.848,0-5.156-2.307-5.157-5.155l0,0l0.001-6.348c0-2.848,2.308-5.157,5.156-5.157l0,0&#10;&#9;&#9;h7.435c2.849,0,5.157,2.31,5.157,5.157l0,0v6.348c0,2.849-2.309,5.155-5.157,5.157l0,0L210.623,221.755L210.623,221.755z&#10;&#9;&#9; M207.076,210.252v6.348c0.005,1.96,1.589,3.543,3.546,3.545l0,0h7.435c1.959-0.002,3.543-1.586,3.546-3.545l0,0v-6.348&#10;&#9;&#9;c-0.003-1.959-1.588-3.542-3.546-3.547l0,0h-7.435C208.666,206.708,207.081,208.293,207.076,210.252L207.076,210.252z" style="fill: rgb(30, 30, 30);"/>
  </g>
  <g transform="matrix(0.535536, -0.143497, 0.143497, 0.535536, 285.529907, 175.032288)">
    <path d="M227.23,225.698c-0.643,0-1.167-0.521-1.168-1.166l0,0l0.001-22.213c0-0.646,0.521-1.167,1.167-1.169l0,0&#10;&#9;&#9;l22.212,0.002c0.646,0,1.167,0.524,1.169,1.167l0,0v22.213c-0.002,0.644-0.525,1.166-1.169,1.168l0,0L227.23,225.698&#10;&#9;&#9;L227.23,225.698z M249,224.089l0.002-21.327h-21.327v21.327H249L249,224.089z" style="fill: rgb(30, 30, 30);"/>
    <path d="M234.62,221.755c-2.849,0-5.158-2.307-5.158-5.155l0,0v-6.348c0-2.848,2.309-5.157,5.158-5.157l0,0h7.435&#10;&#9;&#9;c2.849,0,5.155,2.31,5.155,5.157l0,0v6.348c0,2.849-2.309,5.155-5.155,5.157l0,0L234.62,221.755L234.62,221.755z M231.073,210.252&#10;&#9;&#9;v6.348c0.003,1.96,1.588,3.543,3.547,3.545l0,0l7.435,0.002c1.958-0.004,3.542-1.588,3.545-3.547l0,0v-6.348&#10;&#9;&#9;c-0.003-1.959-1.587-3.542-3.545-3.547l0,0h-7.435C232.66,206.708,231.077,208.293,231.073,210.252L231.073,210.252z" style="fill: rgb(30, 30, 30);"/>
  </g>
  <g transform="matrix(0.535536, -0.143497, 0.143497, 0.535536, 285.529907, 175.032288)">
    <path d="M251.227,225.698c-0.644,0-1.169-0.521-1.169-1.166l0,0v-22.213c0.002-0.646,0.525-1.167,1.169-1.169l0,0&#10;&#9;&#9;l22.212,0.002c0.646,0,1.167,0.524,1.169,1.167l0,0v22.213c-0.002,0.644-0.523,1.166-1.169,1.168l0,0L251.227,225.698&#10;&#9;&#9;L251.227,225.698z M272.995,224.089v-21.327h-21.326l-0.001,21.327H272.995L272.995,224.089z" style="fill: rgb(30, 30, 30);"/>
    <path d="M258.615,221.755c-2.848,0-5.156-2.307-5.157-5.155l0,0l0.001-6.348c0-2.848,2.308-5.157,5.156-5.157l0,0&#10;&#9;&#9;h7.435c2.849,0,5.158,2.31,5.158,5.157l0,0v6.348c0,2.849-2.309,5.155-5.158,5.157l0,0L258.615,221.755L258.615,221.755z&#10;&#9;&#9; M255.069,210.252v6.348c0.003,1.96,1.587,3.543,3.546,3.545l0,0l7.435,0.002c1.959-0.004,3.543-1.588,3.547-3.547l0,0v-6.348&#10;&#9;&#9;c-0.003-1.957-1.587-3.542-3.547-3.547l0,0h-7.435C256.657,206.708,255.072,208.293,255.069,210.252L255.069,210.252z" style="fill: rgb(30, 30, 30);"/>
  </g>
  <g transform="matrix(0.535536, -0.143497, 0.143497, 0.535536, 285.529907, 175.032288)">
    <path d="M275.223,225.698c-0.644,0-1.168-0.52-1.168-1.166l0,0v-22.213c0.001-0.647,0.525-1.167,1.168-1.169l0,0&#10;&#9;&#9;l22.213,0.002c0.645,0,1.167,0.524,1.168,1.167l0,0v22.213h-0.001c0,0.644-0.522,1.166-1.167,1.168l0,0L275.223,225.698&#10;&#9;&#9;L275.223,225.698z M296.99,224.089l0.001-21.327h-21.327v21.327H296.99L296.99,224.089z" style="fill: rgb(30, 30, 30);"/>
    <path d="M282.611,221.757c-2.848-0.002-5.157-2.309-5.157-5.157l0,0v-6.348c0-2.848,2.309-5.157,5.157-5.157l0,0&#10;&#9;&#9;h7.433c2.849,0,5.158,2.31,5.158,5.157l0,0v6.348c0,2.849-2.309,5.155-5.158,5.157l0,0H282.611L282.611,221.757z M279.066,210.252&#10;&#9;&#9;v6.348c0.002,1.96,1.587,3.543,3.546,3.545l0,0l7.433,0.002c1.959-0.004,3.543-1.588,3.547-3.547l0,0v-6.348&#10;&#9;&#9;c-0.003-1.957-1.588-3.542-3.547-3.547l0,0h-7.433C280.655,206.708,279.068,208.295,279.066,210.252L279.066,210.252z" style="fill: rgb(30, 30, 30);"/>
  </g>
  <g transform="matrix(0.535536, -0.143497, 0.143497, 0.535536, 285.529907, 175.032288)">
    <path d="M299.218,225.698c-0.645,0-1.167-0.52-1.168-1.166l0,0v-22.213c0-0.647,0.523-1.167,1.168-1.169l0,0&#10;&#9;&#9;l22.211,0.002c0.646,0,1.167,0.524,1.169,1.167l0,0v22.213h-0.002c0,0.644-0.521,1.166-1.167,1.168l0,0L299.218,225.698&#10;&#9;&#9;L299.218,225.698z M320.986,224.089l0.001-21.327h-21.326v21.327H320.986L320.986,224.089z" style="fill: rgb(30, 30, 30);"/>
    <path d="M306.606,221.755c-2.848,0-5.157-2.307-5.157-5.155l0,0v-6.348c0-2.848,2.31-5.157,5.157-5.157l0,0h7.436&#10;&#9;&#9;c2.849,0,5.155,2.31,5.157,5.157l0,0v6.348c-0.002,2.849-2.311,5.155-5.157,5.157l0,0L306.606,221.755L306.606,221.755z&#10;&#9;&#9; M303.06,210.252v6.348c0.004,1.96,1.588,3.543,3.547,3.545l0,0l7.434,0.002c1.958-0.004,3.544-1.588,3.547-3.547l0,0v-6.348&#10;&#9;&#9;c-0.003-1.957-1.589-3.542-3.547-3.547l0,0h-7.434C304.649,206.708,303.063,208.295,303.06,210.252L303.06,210.252z" style="fill: rgb(30, 30, 30);"/>
  </g>
  <g transform="matrix(0.535536, -0.143497, 0.143497, 0.535536, 285.529907, 175.032288)">
    <path d="M323.214,225.699c-0.646-0.001-1.166-0.523-1.168-1.167l0,0V202.32c0.002-0.644,0.522-1.167,1.168-1.169&#10;&#9;&#9;l0,0h22.212c0.645,0.002,1.167,0.525,1.169,1.169l0,0v22.212h-0.002c0,0.644-0.522,1.166-1.167,1.167l0,0H323.214L323.214,225.699z&#10;&#9;&#9; M344.982,224.089v-21.326l-21.325-0.002l-0.002,21.327L344.982,224.089L344.982,224.089z" style="fill: rgb(30, 30, 30);"/>
    <path d="M330.603,221.755c-2.849,0-5.155-2.307-5.157-5.156l0,0l0.002-6.347c0-2.847,2.307-5.156,5.155-5.156l0,0&#10;&#9;&#9;h7.436c2.847,0,5.154,2.308,5.155,5.156l0,0v6.347c-0.001,2.85-2.31,5.156-5.155,5.158l0,0L330.603,221.755L330.603,221.755z&#10;&#9;&#9; M327.056,210.252v6.347c0.004,1.96,1.587,3.542,3.547,3.546l0,0h7.434c1.958-0.004,3.543-1.587,3.545-3.546l0,0l0.002-6.347&#10;&#9;&#9;c-0.004-1.957-1.589-3.541-3.547-3.546l0,0h-7.434C328.643,206.71,327.06,208.293,327.056,210.252L327.056,210.252z" style="fill: rgb(30, 30, 30);"/>
  </g>
  <g transform="matrix(0.535536, -0.143497, 0.143497, 0.535536, 285.529907, 175.032288)">
    <path d="M347.211,225.699c-0.646-0.001-1.167-0.523-1.168-1.166l0,0v-22.214c0.001-0.645,0.522-1.166,1.168-1.168&#10;&#9;&#9;l0,0h22.211c0.645,0.002,1.167,0.523,1.169,1.168l0,0v22.214h-0.002c0,0.643-0.522,1.165-1.167,1.166l0,0H347.211L347.211,225.699z&#10;&#9;&#9; M368.979,224.089l0.002-21.327h-21.327v21.327H368.979L368.979,224.089z" style="fill: rgb(30, 30, 30);"/>
    <path d="M354.6,221.754c-2.848,0-5.158-2.307-5.158-5.154l0,0v-6.346c0-2.85,2.308-5.159,5.158-5.159l0,0h7.433&#10;&#9;&#9;c2.85,0,5.156,2.31,5.158,5.159l0,0v6.346c-0.002,2.848-2.311,5.154-5.158,5.157l0,0L354.6,221.754L354.6,221.754z&#10;&#9;&#9; M351.053,210.254v6.346c0.004,1.961,1.587,3.541,3.547,3.546l0,0h7.433c1.959-0.005,3.542-1.586,3.546-3.546l0,0v-6.346&#10;&#9;&#9;c-0.004-1.96-1.589-3.543-3.546-3.548l0,0l-7.433-0.002C352.641,206.71,351.057,208.294,351.053,210.254L351.053,210.254z" style="fill: rgb(30, 30, 30);"/>
  </g>
  <g transform="matrix(0.535536, -0.143497, 0.143497, 0.535536, 285.529907, 175.032288)">
    <path d="M371.207,225.699c-0.645-0.001-1.168-0.522-1.17-1.167l0,0l0.002-22.213c0-0.643,0.523-1.167,1.168-1.169&#10;&#9;&#9;l0,0l22.213,0.002c0.644,0,1.165,0.524,1.166,1.167l0,0v22.213h-0.001c0,0.645-0.521,1.166-1.165,1.167l0,0H371.207&#10;&#9;&#9;L371.207,225.699z M392.976,224.089v-21.327h-21.326v21.326L392.976,224.089L392.976,224.089z" style="fill: rgb(30, 30, 30);"/>
    <path d="M378.596,221.757c-2.851,0-5.158-2.31-5.159-5.157l0,0l0.001-6.348c0-2.848,2.308-5.157,5.158-5.157l0,0&#10;&#9;&#9;h7.433c2.849,0,5.156,2.31,5.156,5.157l0,0v6.348c0,2.848-2.308,5.157-5.157,5.157l0,0H378.596L378.596,221.757z M375.049,210.252&#10;&#9;&#9;v6.348c0.002,1.959,1.587,3.542,3.547,3.545l0,0h7.433c1.961-0.003,3.542-1.587,3.546-3.545l0,0v-6.348&#10;&#9;&#9;c-0.004-1.958-1.587-3.542-3.546-3.547l0,0h-7.433C376.638,206.708,375.051,208.294,375.049,210.252L375.049,210.252z" style="fill: rgb(30, 30, 30);"/>
  </g>
  <g transform="matrix(0.535536, -0.143497, 0.143497, 0.535536, 285.529907, 175.032288)">
    <path d="M395.202,225.698c-0.646,0-1.168-0.522-1.169-1.166l0,0l0.001-22.213c0-0.645,0.522-1.166,1.168-1.168l0,0&#10;&#9;&#9;h22.214c0.645,0.002,1.165,0.525,1.167,1.168l0,0v22.213h-0.002c0,0.644-0.521,1.166-1.165,1.168l0,0L395.202,225.698&#10;&#9;&#9;L395.202,225.698z M416.971,224.089l0.001-21.328h-21.327v21.328H416.971L416.971,224.089z" style="fill: rgb(30, 30, 30);"/>
    <path d="M402.589,221.757c-2.848-0.002-5.157-2.309-5.157-5.157l0,0v-6.347c0-2.849,2.31-5.158,5.157-5.158l0,0&#10;&#9;&#9;h7.437c2.846,0,5.155,2.31,5.155,5.158l0,0v6.347c0,2.849-2.31,5.155-5.155,5.157l0,0H402.589L402.589,221.757z M399.044,210.253&#10;&#9;&#9;v6.347c0.004,1.959,1.588,3.542,3.545,3.546l0,0h7.437c1.958-0.004,3.543-1.588,3.545-3.546l0,0l0.002-6.347&#10;&#9;&#9;c-0.004-1.958-1.591-3.542-3.547-3.548l0,0h-7.437C400.632,206.71,399.048,208.295,399.044,210.253L399.044,210.253z" style="fill: rgb(30, 30, 30);"/>
  </g>
  <g transform="matrix(0.535536, -0.143497, 0.143497, 0.535536, 285.529907, 175.032288)">
    <path d="M419.196,225.699c-0.645-0.002-1.166-0.522-1.167-1.167l0,0v-22.214c0.001-0.642,0.522-1.166,1.167-1.168&#10;&#9;&#9;l0,0l22.213,0.002c0.643,0,1.168,0.52,1.17,1.166l0,0v22.214h-0.002c0,0.646-0.525,1.165-1.168,1.167l0,0H419.196L419.196,225.699z&#10;&#9;&#9; M440.967,224.089l0.002-21.326l-21.327-0.002l-0.002,21.327L440.967,224.089L440.967,224.089z" style="fill: rgb(30, 30, 30);"/>
    <path d="M426.586,221.757c-2.849-0.002-5.156-2.309-5.156-5.157l0,0v-6.347c0-2.85,2.308-5.157,5.156-5.159l0,0&#10;&#9;&#9;h7.435c2.848,0.002,5.155,2.31,5.156,5.159l0,0v6.347c-0.001,2.849-2.309,5.155-5.156,5.157l0,0H426.586L426.586,221.757z&#10;&#9;&#9; M423.04,210.253v6.347c0.004,1.96,1.587,3.541,3.546,3.545l0,0h7.435c1.957-0.004,3.541-1.586,3.546-3.545l0,0v-6.347&#10;&#9;&#9;c-0.005-1.959-1.589-3.542-3.546-3.547l0,0h-7.435C424.629,206.71,423.044,208.294,423.04,210.253L423.04,210.253z" style="fill: rgb(30, 30, 30);"/>
  </g>
  <g transform="matrix(0.535536, -0.143497, 0.143497, 0.535536, 285.529907, 175.032288)">
    <path d="M444.099,225.698c-0.646,0-1.166-0.52-1.169-1.165l0,0v-22.215c0-0.646,0.523-1.167,1.169-1.167l0,0h22.214&#10;&#9;&#9;c0.644,0.002,1.167,0.523,1.169,1.167l0,0v22.215h-0.002c0,0.643-0.523,1.165-1.167,1.167l0,0L444.099,225.698L444.099,225.698z&#10;&#9;&#9; M465.868,224.089v-21.326l-21.326-0.002l-0.001,21.328H465.868L465.868,224.089z" style="fill: rgb(30, 30, 30);"/>
    <path d="M451.487,221.755c-2.848,0-5.155-2.308-5.155-5.155l0,0v-6.347c0-2.85,2.308-5.157,5.155-5.159l0,0h7.437&#10;&#9;&#9;c2.848,0.002,5.155,2.31,5.155,5.159l0,0v6.347c0,2.848-2.308,5.155-5.155,5.157l0,0L451.487,221.755L451.487,221.755z&#10;&#9;&#9; M447.942,210.253v6.347c0.004,1.961,1.587,3.541,3.545,3.545l0,0h7.437c1.957-0.004,3.541-1.585,3.545-3.545l0,0l0.001-6.347&#10;&#9;&#9;c-0.005-1.959-1.589-3.543-3.546-3.548l0,0h-7.437C449.531,206.708,447.946,208.294,447.942,210.253L447.942,210.253z" style="fill: rgb(30, 30, 30);"/>
  </g>
  <g transform="matrix(0.535536, -0.143497, 0.143497, 0.535536, 285.529907, 175.032288)">
    <path d="M137.533,249.917c-0.647,0-1.168-0.521-1.169-1.167l0,0v-22.212c0.001-0.644,0.525-1.167,1.169-1.169l0,0&#10;&#9;&#9;h22.212c0.644,0.002,1.168,0.525,1.169,1.169l0,0v22.212h-0.001c0,0.646-0.521,1.166-1.168,1.168l0,0L137.533,249.917&#10;&#9;&#9;L137.533,249.917z M159.304,248.308v-21.328h-21.329v21.326L159.304,248.308L159.304,248.308z" style="fill: rgb(30, 30, 30);"/>
    <path d="M144.923,245.974c-2.849,0-5.158-2.309-5.158-5.157l0,0v-6.347c0-2.849,2.309-5.155,5.158-5.157l0,0&#10;&#9;&#9;l7.433,0.002c2.85,0,5.157,2.307,5.158,5.155l0,0v6.347c-0.001,2.848-2.309,5.157-5.158,5.158l0,0L144.923,245.974L144.923,245.974&#10;&#9;&#9;z M141.375,234.47v6.347c0.003,1.959,1.588,3.543,3.547,3.547l0,0h7.434c1.957-0.004,3.542-1.589,3.547-3.547l0,0l-0.002-6.347&#10;&#9;&#9;c-0.003-1.958-1.588-3.542-3.545-3.546l0,0h-7.434C142.964,230.927,141.378,232.512,141.375,234.47L141.375,234.47z" style="fill: rgb(30, 30, 30);"/>
  </g>
  <g transform="matrix(0.535536, -0.143497, 0.143497, 0.535536, 285.529907, 175.032288)">
    <path d="M161.529,249.918c-0.647-0.002-1.167-0.521-1.169-1.168l0,0v-22.211c0-0.647,0.525-1.169,1.169-1.169l0,0&#10;&#9;&#9;h22.213c0.645,0,1.167,0.522,1.168,1.169l0,0v22.211h-0.001c0,0.647-0.521,1.166-1.167,1.168l0,0H161.529L161.529,249.918z&#10;&#9;&#9; M183.299,248.308v-21.328h-21.328v21.328H183.299L183.299,248.308z" style="fill: rgb(30, 30, 30);"/>
    <path d="M168.918,245.974c-2.849,0-5.159-2.31-5.159-5.157l0,0v-6.347c0-2.849,2.31-5.155,5.159-5.157l0,0&#10;&#9;&#9;l7.433,0.002c2.849,0,5.156,2.307,5.158,5.155l0,0v6.347c-0.002,2.848-2.309,5.157-5.158,5.158l0,0L168.918,245.974&#10;&#9;&#9;L168.918,245.974z M165.371,234.47v6.347c0.005,1.959,1.588,3.543,3.548,3.547l0,0h7.433c1.958-0.004,3.543-1.589,3.547-3.547l0,0&#10;&#9;&#9;l-0.001-6.347c-0.003-1.958-1.588-3.542-3.546-3.546l0,0h-7.433C166.959,230.927,165.375,232.512,165.371,234.47L165.371,234.47z" style="fill: rgb(30, 30, 30);"/>
  </g>
  <g transform="matrix(0.535536, -0.143497, 0.143497, 0.535536, 285.529907, 175.032288)">
    <path d="M185.525,249.917c-0.647,0-1.168-0.521-1.169-1.167l0,0l0.001-22.212c0-0.644,0.522-1.167,1.168-1.169l0,0&#10;&#9;&#9;h22.213c0.644,0.002,1.167,0.522,1.167,1.169l0,0v22.212c-0.001,0.647-0.522,1.164-1.167,1.168l0,0L185.525,249.917&#10;&#9;&#9;L185.525,249.917z M207.294,248.308v-21.328h-21.328v21.326L207.294,248.308L207.294,248.308z" style="fill: rgb(30, 30, 30);"/>
    <path d="M192.914,245.975c-2.85-0.001-5.158-2.31-5.158-5.158l0,0v-6.347c0-2.849,2.309-5.155,5.158-5.157l0,0&#10;&#9;&#9;h7.434c2.848,0.002,5.157,2.309,5.157,5.157l0,0v6.347c0,2.849-2.309,5.157-5.157,5.158l0,0H192.914L192.914,245.975z&#10;&#9;&#9; M189.366,234.47v6.347c0.005,1.959,1.59,3.543,3.548,3.547l0,0h7.434c1.957-0.004,3.541-1.589,3.547-3.547l0,0v-6.347&#10;&#9;&#9;c-0.005-1.958-1.59-3.542-3.547-3.546l0,0h-7.434C190.956,230.927,189.371,232.512,189.366,234.47L189.366,234.47z" style="fill: rgb(30, 30, 30);"/>
  </g>
  <g transform="matrix(0.535536, -0.143497, 0.143497, 0.535536, 285.529907, 175.032288)">
    <path d="M209.522,249.917c-0.648-0.002-1.167-0.52-1.169-1.167l0,0v-22.212c0-0.646,0.523-1.167,1.169-1.169l0,0&#10;&#9;&#9;h22.211c0.644,0.002,1.168,0.525,1.168,1.169l0,0v22.212c0,0.646-0.522,1.166-1.168,1.168l0,0L209.522,249.917L209.522,249.917z&#10;&#9;&#9; M231.29,248.308l0.001-21.328h-21.328v21.326L231.29,248.308L231.29,248.308z" style="fill: rgb(30, 30, 30);"/>
    <path d="M216.91,245.974c-2.85,0-5.157-2.31-5.158-5.157l0,0v-6.347c0.001-2.849,2.309-5.155,5.158-5.157l0,0&#10;&#9;&#9;l7.435,0.002c2.848,0,5.155,2.309,5.156,5.155l0,0v6.347c-0.001,2.848-2.309,5.157-5.156,5.158l0,0L216.91,245.974L216.91,245.974z&#10;&#9;&#9; M213.363,234.47v6.347c0.004,1.959,1.589,3.543,3.547,3.547l0,0h7.435c1.958-0.004,3.542-1.589,3.544-3.547l0,0v-6.347&#10;&#9;&#9;c-0.003-1.958-1.586-3.542-3.544-3.546l0,0h-7.435C214.952,230.927,213.367,232.512,213.363,234.47L213.363,234.47z" style="fill: rgb(30, 30, 30);"/>
  </g>
  <g transform="matrix(0.535536, -0.143497, 0.143497, 0.535536, 285.529907, 175.032288)">
    <path d="M233.516,249.918c-0.646-0.002-1.166-0.521-1.167-1.168l0,0v-22.211c0.001-0.646,0.523-1.169,1.167-1.169&#10;&#9;&#9;l0,0h22.213c0.646,0,1.167,0.522,1.167,1.169l0,0v22.211c-0.001,0.647-0.52,1.166-1.167,1.168l0,0H233.516L233.516,249.918z&#10;&#9;&#9; M255.285,248.308l0.002-21.328h-21.329v21.328H255.285L255.285,248.308z" style="fill: rgb(30, 30, 30);"/>
    <path d="M240.906,245.975c-2.85-0.001-5.156-2.311-5.159-5.158l0,0v-6.347c0.002-2.849,2.309-5.155,5.159-5.157l0,0&#10;&#9;&#9;l7.435,0.002c2.847,0,5.156,2.307,5.156,5.155l0,0v6.347c0,2.848-2.309,5.157-5.156,5.158l0,0H240.906L240.906,245.975z&#10;&#9;&#9; M237.358,234.47v6.347c0.005,1.959,1.59,3.543,3.548,3.547l0,0h7.435c1.958-0.004,3.541-1.589,3.546-3.547l0,0l-0.001-6.347&#10;&#9;&#9;c-0.003-1.958-1.586-3.542-3.544-3.546l0,0h-7.435C238.946,230.927,237.363,232.512,237.358,234.47L237.358,234.47z" style="fill: rgb(30, 30, 30);"/>
  </g>
  <g transform="matrix(0.535536, -0.143497, 0.143497, 0.535536, 285.529907, 175.032288)">
    <path d="M257.513,249.917c-0.647,0-1.167-0.521-1.169-1.167l0,0l0.002-22.212c0-0.644,0.521-1.167,1.167-1.169l0,0&#10;&#9;&#9;h22.212c0.644,0.002,1.167,0.525,1.167,1.169l0,0v22.212c0,0.646-0.52,1.166-1.167,1.168l0,0L257.513,249.917L257.513,249.917z&#10;&#9;&#9; M279.281,248.308l0.001-21.328h-21.328v21.326L279.281,248.308L279.281,248.308z" style="fill: rgb(30, 30, 30);"/>
    <path d="M264.902,245.975c-2.849-0.001-5.156-2.311-5.156-5.158l0,0l-0.001-6.347&#10;&#9;&#9;c0.001-2.847,2.309-5.155,5.159-5.157l0,0l7.435,0.002c2.848,0,5.155,2.309,5.155,5.155l0,0v6.347c0,2.848-2.309,5.157-5.155,5.158&#10;&#9;&#9;l0,0H264.902L264.902,245.975z M261.355,234.47v6.347c0.003,1.959,1.586,3.543,3.546,3.547l0,0h7.436&#10;&#9;&#9;c1.958-0.004,3.541-1.589,3.545-3.547l0,0l-0.001-6.347c-0.003-1.958-1.586-3.542-3.544-3.546l0,0h-7.436&#10;&#9;&#9;C262.942,230.927,261.359,232.512,261.355,234.47L261.355,234.47z" style="fill: rgb(30, 30, 30);"/>
  </g>
  <g transform="matrix(0.535536, -0.143497, 0.143497, 0.535536, 285.529907, 175.032288)">
    <path d="M281.508,249.917c-0.646,0-1.166-0.521-1.167-1.167l0,0v-22.212c0.001-0.644,0.523-1.167,1.167-1.169l0,0&#10;&#9;&#9;h22.214c0.646,0.002,1.164,0.525,1.166,1.169l0,0v22.212c-0.002,0.644-0.52,1.164-1.166,1.168l0,0L281.508,249.917L281.508,249.917&#10;&#9;&#9;z M303.277,248.308v-21.328h-21.326v21.326L303.277,248.308L303.277,248.308z" style="fill: rgb(30, 30, 30);"/>
    <path d="M288.897,245.975c-2.847-0.001-5.156-2.31-5.156-5.158l0,0l-0.001-6.347&#10;&#9;&#9;c0.001-2.849,2.311-5.155,5.158-5.157l0,0h7.434c2.849,0.002,5.158,2.309,5.158,5.157l0,0v6.347c0,2.849-2.309,5.157-5.158,5.158&#10;&#9;&#9;l0,0H288.897L288.897,245.975z M285.351,234.47v6.347c0.003,1.959,1.589,3.543,3.546,3.547l0,0h7.433&#10;&#9;&#9;c1.958-0.004,3.544-1.589,3.547-3.547l0,0v-6.347c-0.003-1.958-1.589-3.542-3.547-3.546l0,0h-7.433&#10;&#9;&#9;C286.939,230.927,285.354,232.512,285.351,234.47L285.351,234.47z" style="fill: rgb(30, 30, 30);"/>
  </g>
  <g transform="matrix(0.535536, -0.143497, 0.143497, 0.535536, 285.529907, 175.032288)">
    <path d="M305.505,249.917c-0.648,0-1.168-0.521-1.17-1.167l0,0l0.002-22.212c0-0.644,0.521-1.167,1.168-1.169l0,0&#10;&#9;&#9;h22.213c0.645,0,1.166,0.522,1.167,1.169l0,0v22.212h-0.001c-0.002,0.647-0.521,1.164-1.166,1.168l0,0L305.505,249.917&#10;&#9;&#9;L305.505,249.917z M327.274,248.308v-21.328h-21.328v21.326L327.274,248.308L327.274,248.308z" style="fill: rgb(30, 30, 30);"/>
    <path d="M312.892,245.974c-2.848,0-5.154-2.31-5.154-5.157l0,0l-0.003-6.347c0.003-2.847,2.31-5.155,5.157-5.157&#10;&#9;&#9;l0,0l7.436,0.002c2.847,0,5.156,2.307,5.156,5.155l0,0v6.347c0,2.849-2.31,5.157-5.156,5.158l0,0L312.892,245.974L312.892,245.974z&#10;&#9;&#9; M309.347,234.47v6.347c0.004,1.959,1.589,3.543,3.545,3.547l0,0h7.436c1.956-0.004,3.542-1.589,3.545-3.547l0,0v-6.347&#10;&#9;&#9;c-0.003-1.958-1.59-3.542-3.545-3.546l0,0h-7.436C310.936,230.927,309.351,232.512,309.347,234.47L309.347,234.47z" style="fill: rgb(30, 30, 30);"/>
  </g>
  <g transform="matrix(0.535536, -0.143497, 0.143497, 0.535536, 285.529907, 175.032288)">
    <path d="M329.501,249.917c-0.646,0-1.17-0.52-1.171-1.167l0,0l0.001-22.212c0-0.646,0.524-1.167,1.17-1.169l0,0&#10;&#9;&#9;h22.211c0.646,0.002,1.166,0.525,1.168,1.169l0,0v22.212c0,0.646-0.521,1.166-1.168,1.168l0,0L329.501,249.917L329.501,249.917z&#10;&#9;&#9; M351.27,248.308v-21.328h-21.327l-0.002,21.326L351.27,248.308L351.27,248.308z" style="fill: rgb(30, 30, 30);"/>
    <path d="M336.888,245.975c-2.849-0.001-5.155-2.31-5.155-5.158l0,0l-0.002-6.347&#10;&#9;&#9;c0.002-2.849,2.309-5.155,5.157-5.157l0,0h7.434c2.849,0.002,5.157,2.311,5.157,5.157l0,0v6.347c0,2.848-2.309,5.157-5.157,5.158&#10;&#9;&#9;l0,0H336.888L336.888,245.975z M333.341,234.47v6.347c0.006,1.959,1.591,3.543,3.547,3.547l0,0h7.434&#10;&#9;&#9;c1.96-0.004,3.544-1.589,3.547-3.547l0,0l-0.002-6.347c-0.001-1.958-1.587-3.542-3.545-3.546l0,0h-7.434&#10;&#9;&#9;C334.932,230.927,333.347,232.512,333.341,234.47L333.341,234.47z" style="fill: rgb(30, 30, 30);"/>
  </g>
  <g transform="matrix(0.535536, -0.143497, 0.143497, 0.535536, 285.529907, 175.032288)">
    <path d="M353.495,249.917c-0.646,0-1.167-0.521-1.169-1.167l0,0l0.002-22.212c0-0.643,0.523-1.167,1.167-1.17l0,0&#10;&#9;&#9;h22.212c0.644,0.003,1.169,0.527,1.171,1.17l0,0v22.212h-0.002c0,0.645-0.522,1.166-1.169,1.168l0,0L353.495,249.917&#10;&#9;&#9;L353.495,249.917z M375.266,248.308l0.001-21.327l-21.326-0.002l-0.002,21.327L375.266,248.308L375.266,248.308z" style="fill: rgb(30, 30, 30);"/>
    <path d="M360.886,245.975c-2.85,0-5.155-2.311-5.155-5.157l0,0l-0.004-6.347c0.004-2.85,2.31-5.156,5.159-5.158l0,0&#10;&#9;&#9;l7.434,0.002c2.848,0,5.156,2.307,5.156,5.156l0,0v6.347c0,2.847-2.309,5.157-5.156,5.157l0,0H360.886L360.886,245.975z&#10;&#9;&#9; M357.339,234.471v6.347c0.003,1.958,1.587,3.542,3.547,3.545l0,0l7.434,0.002c1.957-0.005,3.54-1.59,3.544-3.547l0,0v-6.347&#10;&#9;&#9;c-0.004-1.959-1.587-3.544-3.544-3.546l0,0h-7.434C358.926,230.927,357.342,232.512,357.339,234.471L357.339,234.471z" style="fill: rgb(30, 30, 30);"/>
  </g>
  <g transform="matrix(0.535536, -0.143497, 0.143497, 0.535536, 285.529907, 175.032288)">
    <path d="M377.49,249.918c-0.647-0.002-1.165-0.521-1.168-1.168l0,0l0.002-22.212c0-0.646,0.521-1.169,1.166-1.169&#10;&#9;&#9;l0,0h22.213c0.646,0.002,1.169,0.524,1.169,1.169l0,0v22.212c0,0.646-0.522,1.165-1.169,1.167l0,0L377.49,249.918L377.49,249.918z&#10;&#9;&#9; M399.261,248.308l0.002-21.327h-21.33v21.327H399.261L399.261,248.308z" style="fill: rgb(30, 30, 30);"/>
    <path d="M384.881,245.975c-2.851,0-5.157-2.31-5.157-5.158l0,0v-6.347c0-2.848,2.307-5.155,5.157-5.157l0,0&#10;&#9;&#9;l7.435,0.002c2.847,0,5.156,2.308,5.156,5.155l0,0v6.347c0,2.849-2.31,5.158-5.156,5.158l0,0H384.881L384.881,245.975z&#10;&#9;&#9; M381.334,234.47v6.347c0.003,1.959,1.589,3.544,3.547,3.547l0,0h7.435c1.957-0.003,3.542-1.589,3.547-3.547l0,0l-0.001-6.347&#10;&#9;&#9;c-0.004-1.957-1.591-3.542-3.546-3.545l0,0l-7.435-0.002C382.923,230.927,381.337,232.513,381.334,234.47L381.334,234.47z" style="fill: rgb(30, 30, 30);"/>
  </g>
  <g transform="matrix(0.535536, -0.143497, 0.143497, 0.535536, 285.529907, 175.032288)">
    <path d="M401.487,249.917c-0.647,0-1.169-0.521-1.169-1.167l0,0v-22.212c0.003-0.643,0.523-1.167,1.169-1.169l0,0&#10;&#9;&#9;h36.719c0.646,0,1.167,0.522,1.169,1.169l0,0v22.212h-0.002c-0.001,0.647-0.521,1.165-1.167,1.169l0,0L401.487,249.917&#10;&#9;&#9;L401.487,249.917z M437.763,248.308V226.98l-35.834-0.002v21.327L437.763,248.308L437.763,248.308z" style="fill: rgb(30, 30, 30);"/>
    <path d="M408.876,245.975c-2.848,0-5.157-2.311-5.157-5.157l0,0v-6.347c0-2.849,2.31-5.156,5.157-5.156l0,0h21.943&#10;&#9;&#9;c2.846,0,5.155,2.308,5.155,5.156l0,0v6.347c0,2.848-2.31,5.157-5.155,5.157l0,0H408.876L408.876,245.975z M405.329,234.471v6.347&#10;&#9;&#9;c0.005,1.958,1.589,3.542,3.549,3.546l0,0h21.941c1.956-0.004,3.54-1.589,3.543-3.546l0,0v-6.347&#10;&#9;&#9;c-0.003-1.958-1.589-3.544-3.543-3.547l0,0h-21.941C406.917,230.927,405.334,232.511,405.329,234.471L405.329,234.471z" style="fill: rgb(30, 30, 30);"/>
  </g>
  <g transform="matrix(0.535536, -0.143497, 0.143497, 0.535536, 285.529907, 175.032288)">
    <path d="M439.99,249.918c-0.646-0.002-1.168-0.522-1.168-1.168l0,0v-22.212c0-0.646,0.522-1.167,1.168-1.169l0,0&#10;&#9;&#9;h22.213c0.645,0.002,1.166,0.523,1.166,1.169l0,0v22.212c0,0.646-0.52,1.166-1.166,1.168l0,0H439.99L439.99,249.918z&#10;&#9;&#9; M461.759,248.308l0.002-21.328h-21.327l-0.001,21.326L461.759,248.308L461.759,248.308z" style="fill: rgb(30, 30, 30);"/>
    <path d="M447.38,245.975c-2.851,0-5.158-2.31-5.158-5.156l0,0l-0.002-6.348c0.002-2.849,2.31-5.157,5.16-5.157l0,0&#10;&#9;&#9;h7.434c2.847,0,5.156,2.309,5.156,5.157l0,0v6.348c0,2.847-2.31,5.156-5.156,5.156l0,0H447.38L447.38,245.975z M443.831,234.471&#10;&#9;&#9;v6.348c0.005,1.956,1.59,3.542,3.549,3.545l0,0h7.434c1.957-0.003,3.542-1.59,3.546-3.545l0,0l-0.003-6.348&#10;&#9;&#9;c-0.001-1.959-1.586-3.543-3.542-3.546l0,0l-7.435-0.002C445.421,230.927,443.836,232.512,443.831,234.471L443.831,234.471z" style="fill: rgb(30, 30, 30);"/>
  </g>
  <g transform="matrix(0.535536, -0.143497, 0.143497, 0.535536, 285.529907, 175.032288)">
    <path d="M137.472,274.136c-0.644,0-1.168-0.523-1.168-1.17l0,0v-22.212c0.002-0.645,0.521-1.167,1.168-1.167l0,0&#10;&#9;&#9;h34.905c0.646,0,1.169,0.522,1.169,1.167l0,0v22.212c0,0.646-0.524,1.168-1.169,1.17l0,0H137.472L137.472,274.136z&#10;&#9;&#9; M171.936,272.525v-21.329h-34.02l-0.002,21.329H171.936L171.936,272.525z" style="fill: rgb(30, 30, 30);"/>
    <path d="M144.861,270.19c-2.849,0-5.156-2.309-5.156-5.155l0,0v-6.347c0-2.85,2.307-5.158,5.156-5.158l0,0h20.128&#10;&#9;&#9;c2.849,0,5.156,2.309,5.156,5.158l0,0v6.347c0,2.847-2.307,5.155-5.156,5.155l0,0H144.861L144.861,270.19z M141.316,258.688v6.347&#10;&#9;&#9;c0.003,1.956,1.587,3.542,3.545,3.544l0,0h20.128c1.958-0.002,3.542-1.589,3.546-3.544l0,0h0.001v-6.347&#10;&#9;&#9;c-0.005-1.96-1.589-3.544-3.547-3.547l0,0h-20.128C142.902,255.145,141.319,256.729,141.316,258.688L141.316,258.688z" style="fill: rgb(30, 30, 30);"/>
  </g>
  <g transform="matrix(0.535536, -0.143497, 0.143497, 0.535536, 285.529907, 175.032288)">
    <path d="M203.114,298.132c-0.646-0.002-1.168-0.526-1.17-1.169l0,0l0.002-22.213c0-0.645,0.521-1.166,1.168-1.168&#10;&#9;&#9;l0,0h194.837c0.643,0.002,1.167,0.523,1.169,1.168l0,0v22.213c-0.002,0.643-0.526,1.167-1.169,1.169l0,0H203.114L203.114,298.132z&#10;&#9;&#9; M397.508,296.521v-21.327H203.557l-0.001,21.327H397.508L397.508,296.521z" style="fill: rgb(30, 30, 30);"/>
    <path d="M210.502,294.187c-2.848,0-5.157-2.309-5.157-5.156l0,0v-6.346c0-2.849,2.309-5.158,5.157-5.158l0,0h180.06&#10;&#9;&#9;c2.849,0,5.156,2.31,5.157,5.158l0,0v6.346h-0.001c0,2.848-2.308,5.157-5.156,5.157l0,0L210.502,294.187L210.502,294.187z&#10;&#9;&#9; M206.957,282.685v6.346c0.003,1.957,1.589,3.542,3.546,3.546l0,0h180.059c1.96-0.004,3.544-1.588,3.547-3.546l0,0v-6.346&#10;&#9;&#9;c-0.003-1.961-1.589-3.545-3.547-3.548l0,0h-180.06C208.543,279.14,206.958,280.724,206.957,282.685L206.957,282.685z" style="fill: rgb(30, 30, 30);"/>
  </g>
  <g transform="matrix(0.535536, -0.143497, 0.143497, 0.535536, 285.529907, 175.032288)">
    <path d="M174.162,274.136c-0.644,0-1.168-0.523-1.168-1.17l0,0v-22.212c0.002-0.645,0.521-1.167,1.168-1.167l0,0&#10;&#9;&#9;h22.212c0.647,0,1.167,0.522,1.168,1.167l0,0v22.212c0,0.646-0.523,1.17-1.168,1.17l0,0H174.162L174.162,274.136z M195.931,272.525&#10;&#9;&#9;l0.001-21.329h-21.328v21.329H195.931L195.931,272.525z" style="fill: rgb(30, 30, 30);"/>
    <path d="M181.551,270.19c-2.848-0.001-5.157-2.307-5.157-5.156l0,0v-6.347c0-2.848,2.308-5.157,5.157-5.158l0,0&#10;&#9;&#9;l7.435,0.001c2.848,0,5.157,2.31,5.157,5.157l0,0v6.347c0,2.85-2.309,5.155-5.157,5.156l0,0H181.551L181.551,270.19z&#10;&#9;&#9; M178.003,258.688l0.002,6.347c0.003,1.958,1.587,3.542,3.546,3.544l0,0l7.435,0.002c1.959-0.004,3.543-1.589,3.546-3.546l0,0&#10;&#9;&#9;v-6.347c-0.003-1.959-1.587-3.544-3.546-3.546l0,0h-7.435C179.592,255.144,178.008,256.729,178.003,258.688L178.003,258.688z" style="fill: rgb(30, 30, 30);"/>
  </g>
  <g transform="matrix(0.535536, -0.143497, 0.143497, 0.535536, 285.529907, 175.032288)">
    <path d="M198.158,274.135c-0.646,0-1.168-0.521-1.168-1.167l0,0v-22.214c0.001-0.646,0.521-1.166,1.168-1.169l0,0&#10;&#9;&#9;h22.212c0.646,0.003,1.167,0.522,1.168,1.169l0,0v22.214c0,0.646-0.523,1.167-1.168,1.168l0,0L198.158,274.135L198.158,274.135z&#10;&#9;&#9; M219.927,272.524v-21.327l-21.328-0.001v21.328H219.927L219.927,272.524z" style="fill: rgb(30, 30, 30);"/>
    <path d="M205.546,270.19c-2.849-0.001-5.157-2.31-5.157-5.156l0,0v-6.347c0-2.848,2.308-5.157,5.157-5.158l0,0&#10;&#9;&#9;h7.435c2.849,0.001,5.156,2.311,5.156,5.158l0,0v6.347c0,2.847-2.307,5.155-5.156,5.156l0,0H205.546L205.546,270.19z M202,258.688&#10;&#9;&#9;v6.347c0.003,1.958,1.587,3.542,3.546,3.544l0,0h7.435c1.958-0.002,3.542-1.587,3.545-3.544l0,0v-6.347&#10;&#9;&#9;c-0.003-1.959-1.587-3.544-3.545-3.546l0,0h-7.435C203.587,255.144,202.003,256.729,202,258.688L202,258.688z" style="fill: rgb(30, 30, 30);"/>
  </g>
  <g transform="matrix(0.535536, -0.143497, 0.143497, 0.535536, 285.529907, 175.032288)">
    <path d="M222.154,274.136c-0.646-0.002-1.167-0.524-1.169-1.17l0,0v-22.212c0.001-0.645,0.522-1.167,1.169-1.167&#10;&#9;&#9;l0,0h22.213c0.647,0,1.166,0.522,1.167,1.167l0,0v22.212c0,0.646-0.524,1.17-1.167,1.17l0,0H222.154L222.154,274.136z&#10;&#9;&#9; M243.924,272.525v-21.329h-21.327l-0.001,21.329H243.924L243.924,272.525z" style="fill: rgb(30, 30, 30);"/>
    <path d="M229.542,270.19c-2.848-0.001-5.156-2.307-5.156-5.156l0,0v-6.347c0-2.849,2.309-5.157,5.156-5.158l0,0&#10;&#9;&#9;l7.435,0.001c2.85,0,5.157,2.31,5.157,5.157l0,0v6.347c0,2.85-2.307,5.155-5.157,5.156l0,0H229.542L229.542,270.19z&#10;&#9;&#9; M225.995,258.688l0.002,6.347c0.003,1.958,1.587,3.542,3.545,3.544l0,0l7.435,0.002c1.958-0.004,3.542-1.589,3.546-3.546l0,0&#10;&#9;&#9;h0.001v-6.347c-0.005-1.959-1.589-3.544-3.547-3.546l0,0h-7.435C227.584,255.144,226,256.729,225.995,258.688L225.995,258.688z" style="fill: rgb(30, 30, 30);"/>
  </g>
  <g transform="matrix(0.535536, -0.143497, 0.143497, 0.535536, 285.529907, 175.032288)">
    <path d="M246.149,274.136c-0.645-0.002-1.168-0.523-1.168-1.17l0,0v-22.212c0-0.645,0.522-1.167,1.168-1.167l0,0&#10;&#9;&#9;h22.212c0.648,0.002,1.167,0.523,1.169,1.167l0,0v22.212h-0.002c0,0.646-0.521,1.17-1.167,1.17l0,0H246.149L246.149,274.136z&#10;&#9;&#9; M267.919,272.525v-21.329h-21.328v21.329H267.919L267.919,272.525z" style="fill: rgb(30, 30, 30);"/>
    <path d="M253.539,270.189c-2.849,0-5.158-2.306-5.158-5.155l0,0v-6.347c0-2.849,2.309-5.157,5.158-5.158l0,0&#10;&#9;&#9;l7.434,0.001c2.849,0,5.156,2.309,5.156,5.157l0,0v6.347h0.001c-0.001,2.85-2.309,5.155-5.158,5.156l0,0L253.539,270.189&#10;&#9;&#9;L253.539,270.189z M249.992,258.688v6.347c0.003,1.958,1.589,3.542,3.547,3.544l0,0l7.434,0.002&#10;&#9;&#9;c1.958-0.004,3.542-1.589,3.547-3.546l0,0v-6.347c-0.005-1.959-1.59-3.544-3.547-3.546l0,0l-7.434-0.001&#10;&#9;&#9;C251.581,255.144,249.995,256.729,249.992,258.688L249.992,258.688z" style="fill: rgb(30, 30, 30);"/>
  </g>
  <g transform="matrix(0.535536, -0.143497, 0.143497, 0.535536, 285.529907, 175.032288)">
    <path d="M270.145,274.135c-0.644,0-1.167-0.522-1.168-1.167l0,0v-22.214c0-0.645,0.522-1.166,1.168-1.169l0,0&#10;&#9;&#9;h22.211c0.647,0,1.169,0.524,1.169,1.169l0,0v22.214c0,0.645-0.526,1.167-1.169,1.168l0,0L270.145,274.135L270.145,274.135z&#10;&#9;&#9; M291.916,272.524v-21.327l-21.327-0.001l-0.002,21.328H291.916L291.916,272.524z" style="fill: rgb(30, 30, 30);"/>
    <path d="M277.535,270.189c-2.849,0-5.157-2.306-5.158-5.155l0,0v-6.347c0.001-2.849,2.309-5.157,5.158-5.158l0,0&#10;&#9;&#9;l7.433,0.001c2.85,0,5.157,2.31,5.157,5.157l0,0v6.347c0,2.847-2.307,5.155-5.157,5.156l0,0L277.535,270.189L277.535,270.189z&#10;&#9;&#9; M273.987,258.688v6.347c0.004,1.958,1.589,3.542,3.548,3.544l0,0l7.433,0.002c1.958-0.004,3.543-1.589,3.546-3.546l0,0h0v-6.347&#10;&#9;&#9;c-0.004-1.959-1.589-3.544-3.547-3.546l0,0l-7.433-0.001C275.577,255.144,273.991,256.729,273.987,258.688L273.987,258.688z" style="fill: rgb(30, 30, 30);"/>
  </g>
  <g transform="matrix(0.535536, -0.143497, 0.143497, 0.535536, 285.529907, 175.032288)">
    <path d="M294.14,274.135c-0.645,0-1.167-0.521-1.168-1.167l0,0l0.002-22.214c0.001-0.646,0.521-1.166,1.167-1.169&#10;&#9;&#9;l0,0h22.213c0.646,0.003,1.167,0.524,1.169,1.169l0,0v22.214h-0.002c0,0.645-0.522,1.167-1.167,1.168l0,0L294.14,274.135&#10;&#9;&#9;L294.14,274.135z M315.91,272.524v-21.327l-21.327-0.001v21.328H315.91L315.91,272.524z" style="fill: rgb(30, 30, 30);"/>
    <path d="M301.53,270.189c-2.85,0-5.158-2.306-5.158-5.155l0,0v-6.347c0-2.849,2.309-5.157,5.158-5.158l0,0h7.436&#10;&#9;&#9;c2.848,0.001,5.154,2.31,5.154,5.158l0,0v6.347h0.002c-0.002,2.85-2.309,5.155-5.156,5.156l0,0L301.53,270.189L301.53,270.189z&#10;&#9;&#9; M297.982,258.688l0.002,6.347c0.003,1.958,1.588,3.542,3.546,3.544l0,0h7.436c1.955-0.002,3.541-1.587,3.544-3.544l0,0h0.001&#10;&#9;&#9;v-6.347c-0.004-1.959-1.59-3.544-3.545-3.546l0,0l-7.436-0.001C299.571,255.144,297.987,256.729,297.982,258.688L297.982,258.688z" style="fill: rgb(30, 30, 30);"/>
  </g>
  <g transform="matrix(0.535536, -0.143497, 0.143497, 0.535536, 285.529907, 175.032288)">
    <path d="M318.137,274.135c-0.646,0-1.166-0.522-1.17-1.167l0,0v-22.214c0-0.645,0.521-1.166,1.17-1.169l0,0h22.213&#10;&#9;&#9;c0.646,0.003,1.168,0.524,1.168,1.169l0,0v22.214c0,0.645-0.522,1.167-1.168,1.168l0,0L318.137,274.135L318.137,274.135z&#10;&#9;&#9; M339.907,272.524v-21.327l-21.328-0.001l-0.001,21.328H339.907L339.907,272.524z" style="fill: rgb(30, 30, 30);"/>
    <path d="M325.527,270.19c-2.851-0.001-5.159-2.31-5.159-5.156l0,0v-6.347c0-2.848,2.309-5.157,5.159-5.158l0,0&#10;&#9;&#9;l7.432,0.001c2.851,0,5.157,2.31,5.157,5.157l0,0v6.347c0,2.847-2.307,5.155-5.157,5.156l0,0H325.527L325.527,270.19z&#10;&#9;&#9; M321.979,258.688v6.347c0.004,1.958,1.589,3.542,3.549,3.544l0,0l7.432,0.002c1.958-0.004,3.543-1.589,3.545-3.546l0,0h0.004&#10;&#9;&#9;v-6.347c-0.006-1.959-1.591-3.544-3.549-3.546l0,0h-7.432C323.565,255.144,321.982,256.729,321.979,258.688L321.979,258.688z" style="fill: rgb(30, 30, 30);"/>
  </g>
  <g transform="matrix(0.535536, -0.143497, 0.143497, 0.535536, 285.529907, 175.032288)">
    <path d="M342.132,274.135c-0.644,0-1.165-0.522-1.167-1.167l0,0v-22.214c0-0.645,0.521-1.169,1.167-1.169l0,0&#10;&#9;&#9;h22.215c0.646,0.003,1.165,0.522,1.167,1.169l0,0v22.214c-0.002,0.646-0.524,1.167-1.167,1.168l0,0L342.132,274.135&#10;&#9;&#9;L342.132,274.135z M363.903,272.524v-21.327l-21.327-0.001v21.328H363.903L363.903,272.524z" style="fill: rgb(30, 30, 30);"/>
    <path d="M349.522,270.189c-2.85,0-5.157-2.306-5.157-5.155l0,0v-6.347c0-2.849,2.308-5.157,5.157-5.158l0,0&#10;&#9;&#9;l7.435,0.001c2.847,0,5.155,2.309,5.155,5.157l0,0v6.347c0,2.85-2.309,5.155-5.155,5.156l0,0L349.522,270.189L349.522,270.189z&#10;&#9;&#9; M345.975,258.688v6.347c0.003,1.958,1.589,3.542,3.548,3.544l0,0l7.435,0.002c1.956-0.004,3.542-1.589,3.545-3.546l0,0v-6.347&#10;&#9;&#9;c-0.003-1.959-1.59-3.544-3.545-3.546l0,0l-7.435-0.001C347.563,255.144,345.978,256.729,345.975,258.688L345.975,258.688z" style="fill: rgb(30, 30, 30);"/>
  </g>
  <g transform="matrix(0.535536, -0.143497, 0.143497, 0.535536, 285.529907, 175.032288)">
    <path d="M366.13,274.135c-0.646,0-1.168-0.522-1.168-1.167l0,0v-22.214c0-0.645,0.52-1.166,1.168-1.169l0,0h22.211&#10;&#9;&#9;c0.646,0.003,1.167,0.524,1.169,1.169l0,0v22.214h-0.002c0,0.645-0.522,1.167-1.167,1.168l0,0L366.13,274.135L366.13,274.135z&#10;&#9;&#9; M387.897,272.524v-21.327l-21.325-0.001v21.328H387.897L387.897,272.524z" style="fill: rgb(30, 30, 30);"/>
    <path d="M373.518,270.19c-2.85,0-5.156-2.309-5.156-5.156l0,0v-6.347c0-2.849,2.307-5.157,5.156-5.158l0,0h7.434&#10;&#9;&#9;c2.849,0.001,5.156,2.311,5.156,5.158l0,0v6.347h0.002c-0.002,2.848-2.31,5.156-5.158,5.156l0,0H373.518L373.518,270.19z&#10;&#9;&#9; M369.97,258.688l0.001,6.347c0.003,1.957,1.589,3.542,3.547,3.544l0,0h7.433c1.961-0.002,3.543-1.587,3.547-3.544l0,0h0.001&#10;&#9;&#9;v-6.347c-0.005-1.959-1.588-3.543-3.548-3.546l0,0h-7.433C371.56,255.145,369.974,256.729,369.97,258.688L369.97,258.688z" style="fill: rgb(30, 30, 30);"/>
  </g>
  <g transform="matrix(0.535536, -0.143497, 0.143497, 0.535536, 285.529907, 175.032288)">
    <path d="M390.124,274.135c-0.645,0-1.166-0.522-1.168-1.167l0,0v-22.214c0-0.645,0.52-1.166,1.168-1.168l0,0h22.213&#10;&#9;&#9;c0.646,0.002,1.166,0.521,1.167,1.168l0,0v22.214c0,0.646-0.522,1.167-1.167,1.168l0,0L390.124,274.135L390.124,274.135z&#10;&#9;&#9; M411.894,272.525l0.001-21.329h-21.328v21.327L411.894,272.525L411.894,272.525z" style="fill: rgb(30, 30, 30);"/>
    <path d="M397.514,270.189c-2.848,0-5.157-2.307-5.157-5.154l0,0v-6.348c0-2.849,2.31-5.157,5.157-5.158l0,0&#10;&#9;&#9;l7.435,0.001c2.848,0,5.155,2.309,5.155,5.157l0,0v6.348h0.002c-0.002,2.848-2.31,5.154-5.157,5.155l0,0L397.514,270.189&#10;&#9;&#9;L397.514,270.189z M393.965,258.688l0.002,6.348c0.003,1.956,1.587,3.542,3.547,3.544l0,0h7.433&#10;&#9;&#9;c1.958-0.002,3.543-1.589,3.547-3.544l0,0v-6.348c-0.004-1.959-1.589-3.543-3.547-3.546l0,0h-7.433&#10;&#9;&#9;C395.554,255.145,393.97,256.729,393.965,258.688L393.965,258.688z" style="fill: rgb(30, 30, 30);"/>
  </g>
  <g transform="matrix(0.535536, -0.143497, 0.143497, 0.535536, 285.529907, 175.032288)">
    <path d="M414.12,274.136c-0.645,0-1.167-0.521-1.169-1.169l0,0v-22.213c0.002-0.647,0.521-1.166,1.169-1.168l0,0&#10;&#9;&#9;h36.719c0.647,0.002,1.168,0.523,1.17,1.168l0,0v22.213h-0.002c0,0.645-0.521,1.169-1.168,1.169l0,0H414.12L414.12,274.136z&#10;&#9;&#9; M450.396,272.525v-21.328l-35.833-0.001v21.329H450.396L450.396,272.525z" style="fill: rgb(30, 30, 30);"/>
    <path d="M421.509,270.189c-2.849,0-5.158-2.308-5.158-5.155l0,0v-6.347c0-2.849,2.31-5.157,5.158-5.157l0,0h21.941&#10;&#9;&#9;c2.849,0,5.154,2.309,5.154,5.157l0,0v6.347h0.003c-0.003,2.848-2.309,5.155-5.157,5.157l0,0L421.509,270.189L421.509,270.189z&#10;&#9;&#9; M417.961,258.688v6.347c0.006,1.957,1.591,3.542,3.548,3.544l0,0l21.941,0.002c1.958-0.004,3.541-1.589,3.544-3.546l0,0h0.003&#10;&#9;&#9;v-6.347c-0.006-1.959-1.591-3.543-3.547-3.546l0,0h-21.941C419.552,255.145,417.967,256.729,417.961,258.688L417.961,258.688z" style="fill: rgb(30, 30, 30);"/>
  </g>
  <path d="M 380.164 293.519 L 380.164 222.948 C 380.165 221.368 381.445 220.089 383.024 220.089 L 383.024 220.089 L 576.943 220.089 C 578.523 220.089 579.802 221.369 579.803 222.948 L 579.803 222.948 L 579.803 293.519 L 579.802 293.519 C 579.802 295.098 578.522 296.377 576.943 296.377 L 576.943 296.377 L 383.023 296.379 C 381.444 296.377 380.165 295.098 380.164 293.519 L 380.164 293.519 Z M 381.058 222.948 L 381.058 293.519 C 381.059 294.604 381.938 295.483 383.023 295.485 L 383.023 295.485 L 576.943 295.485 C 578.029 295.483 578.907 294.604 578.909 293.519 L 578.909 293.519 L 578.909 222.948 C 578.907 221.862 578.029 220.984 576.943 220.982 L 576.943 220.982 L 383.023 220.982 C 381.938 220.984 381.059 221.862 381.058 222.948 L 381.058 222.948 Z" style="fill: rgb(30, 30, 30);" transform="matrix(0.965926, -0.258819, 0.258819, 0.965926, -50.480882, 133.028146)"/>
  <path d="M 351.882 301.514 C 350.636 301.514 349.625 300.505 349.625 299.259 L 349.625 299.259 L 349.625 216.625 C 349.625 215.378 350.636 214.368 351.882 214.368 L 351.882 214.368 L 607.929 214.369 C 609.174 214.369 610.184 215.379 610.184 216.625 L 610.184 216.625 L 610.184 299.26 C 610.184 300.506 609.174 301.516 607.929 301.516 L 607.929 301.516 L 351.882 301.514 L 351.882 301.514 Z M 350.519 216.625 L 350.518 299.259 C 350.519 300.012 351.129 300.62 351.882 300.622 L 351.882 300.622 L 607.929 300.623 C 608.681 300.621 609.291 300.012 609.292 299.26 L 609.292 299.26 L 609.291 299.26 L 609.292 216.625 C 609.291 215.872 608.681 215.263 607.929 215.263 L 607.929 215.263 L 351.882 215.261 C 351.129 215.263 350.52 215.871 350.519 216.625 L 350.519 216.625 Z" style="fill: rgb(30, 30, 30);" transform="matrix(0.965926, -0.258819, 0.258819, 0.965926, -50.407966, 132.99767)"/>
  <path d="M 341.988 314.362 C 340.743 314.36 339.732 313.351 339.732 312.106 L 339.732 312.106 L 339.732 142.313 C 339.732 141.066 340.743 140.056 341.988 140.055 L 341.988 140.055 L 601.353 140.055 C 602.599 140.056 603.609 141.066 603.61 142.313 L 603.61 142.313 L 603.61 312.106 L 603.609 312.106 C 603.609 313.351 602.599 314.36 601.353 314.362 L 601.353 314.362 L 341.988 314.362 L 341.988 314.362 Z M 340.625 142.313 L 340.625 312.106 C 340.626 312.859 341.236 313.466 341.988 313.468 L 341.988 313.468 L 601.353 313.468 C 602.106 313.466 602.714 312.859 602.716 312.106 L 602.716 312.106 L 602.716 142.313 C 602.714 141.559 602.106 140.95 601.353 140.949 L 601.353 140.949 L 341.988 140.949 C 341.236 140.95 340.626 141.559 340.625 142.313 L 340.625 142.313 Z" style="fill: rgb(30, 30, 30);" transform="matrix(0.965926, -0.258819, 0.258819, 0.965926, -42.734122, 129.819533)"/>
  <path d="M 418.224 192.316 C 417.866 192.316 417.577 192.027 417.576 191.669 L 417.576 191.669 L 417.576 184.129 C 417.576 183.771 417.865 183.481 418.223 183.481 L 418.223 183.481 L 502.974 183.481 C 503.332 183.481 503.62 183.771 503.621 184.129 L 503.621 184.129 L 503.621 191.669 L 503.62 191.669 C 503.62 192.027 503.331 192.316 502.974 192.316 L 502.974 192.316 L 418.224 192.316 L 418.224 192.316 Z M 502.728 191.424 L 502.729 184.375 L 418.47 184.375 L 418.47 191.424 L 502.728 191.424 L 502.728 191.424 Z" style="fill: rgb(30, 30, 30);" transform="matrix(0.965926, -0.258819, 0.258819, 0.965926, -32.937195, 125.614165)"/>
  <path d="M 326.173 176.429 C 324.816 176.429 323.717 175.33 323.717 173.973 L 323.717 173.973 L 323.717 149.645 C 323.717 148.288 324.816 147.188 326.173 147.188 L 326.173 147.188 L 582.12 147.188 C 583.477 147.188 584.577 148.287 584.577 149.645 L 584.577 149.645 L 584.577 173.973 L 584.578 173.973 C 584.577 175.33 583.478 176.429 582.12 176.429 L 582.12 176.429 L 326.173 176.429 L 326.173 176.429 Z M 324.609 149.645 L 324.61 173.973 C 324.61 174.836 325.31 175.536 326.173 175.536 L 326.173 175.536 L 582.12 175.536 C 582.984 175.536 583.682 174.836 583.683 173.973 L 583.683 173.973 L 583.685 173.973 L 583.683 149.645 C 583.682 148.781 582.984 148.082 582.12 148.081 L 582.12 148.081 L 326.173 148.081 C 325.31 148.083 324.61 148.782 324.609 149.645 L 324.609 149.645 Z" style="fill: rgb(30, 30, 30);" transform="matrix(0.965926, -0.258819, 0.258819, 0.965926, -26.404409, 123.055379)"/>
  <g transform="matrix(0.535536, -0.143497, 0.143497, 0.535536, 285.529907, 175.032288)">
    <path d="M101.258,39.396c-0.845,0-1.53-0.685-1.53-1.529l0,0v-2.721c0-0.846,0.686-1.529,1.53-1.53l0,0h190.033&#10;&#9;&#9;c0.846,0.001,1.529,0.685,1.529,1.53l0,0v2.721c0,0.845-0.684,1.529-1.529,1.529l0,0H101.258L101.258,39.396z M291.21,37.787v-2.56&#10;&#9;&#9;H101.337v2.56H291.21L291.21,37.787z" style="fill: rgb(30, 30, 30);"/>
    <g>
      <polygon points="158.386,38.502 158.386,34.513 159.997,34.513 159.997,38.502 &#9;&#9;" style="fill: rgb(30, 30, 30);"/>
      <polygon points="160.834,38.502 160.834,34.511 162.445,34.511 162.445,38.502 &#9;&#9;" style="fill: rgb(30, 30, 30);"/>
    </g>
    <g>
      <polygon points="191.116,38.502 191.116,34.513 192.729,34.513 192.729,38.502 &#9;&#9;" style="fill: rgb(30, 30, 30);"/>
      <polygon points="193.565,38.502 193.565,34.513 195.176,34.513 195.176,38.502 &#9;&#9;" style="fill: rgb(30, 30, 30);"/>
    </g>
    <g>
      <polygon points="240.439,38.502 240.439,34.512 242.05,34.512 242.05,38.502 &#9;&#9;" style="fill: rgb(30, 30, 30);"/>
      <polygon points="242.887,38.502 242.887,34.513 244.498,34.513 244.498,38.502 &#9;&#9;" style="fill: rgb(30, 30, 30);"/>
    </g>
    <polygon points="155.303,38.591 155.303,34.33 156.914,34.33 156.914,38.591 &#9;" style="fill: rgb(30, 30, 30);"/>
    <polygon points="104.079,38.592 104.079,34.33 105.69,34.33 105.69,38.592 &#9;" style="fill: rgb(30, 30, 30);"/>
    <g>
      <path d="M101.258,46.832c-0.845,0-1.53-0.686-1.53-1.531l0,0v-2.72c0-0.846,0.686-1.529,1.53-1.53l0,0h190.033&#10;&#9;&#9;&#9;c0.846,0.001,1.529,0.685,1.529,1.53l0,0v2.72c0,0.846-0.684,1.531-1.529,1.531l0,0H101.258L101.258,46.832z M291.21,45.222v-2.56&#10;&#9;&#9;&#9;L101.337,42.66v2.562H291.21L291.21,45.222z" style="fill: rgb(30, 30, 30);"/>
      <g>
        <polygon points="158.387,45.936 158.387,41.947 159.998,41.947 159.998,45.936 &#9;&#9;&#9;" style="fill: rgb(30, 30, 30);"/>
        <polygon points="160.834,45.936 160.834,41.946 162.445,41.946 162.445,45.936 &#9;&#9;&#9;" style="fill: rgb(30, 30, 30);"/>
      </g>
      <g>
        <polygon points="191.116,45.936 191.116,41.946 192.729,41.946 192.729,45.936 &#9;&#9;&#9;" style="fill: rgb(30, 30, 30);"/>
        <polygon points="193.565,45.935 193.565,41.945 195.176,41.945 195.176,45.935 &#9;&#9;&#9;" style="fill: rgb(30, 30, 30);"/>
      </g>
      <g>
        <polygon points="240.439,45.936 240.439,41.946 242.05,41.946 242.05,45.936 &#9;&#9;&#9;" style="fill: rgb(30, 30, 30);"/>
        <polygon points="242.887,45.936 242.887,41.946 244.498,41.946 244.498,45.936 &#9;&#9;&#9;" style="fill: rgb(30, 30, 30);"/>
      </g>
      <polygon points="155.305,46.026 155.305,41.767 156.916,41.767 156.916,46.026 &#9;&#9;" style="fill: rgb(30, 30, 30);"/>
      <polygon points="104.079,46.026 104.079,41.767 105.69,41.767 105.69,46.026 &#9;&#9;" style="fill: rgb(30, 30, 30);"/>
    </g>
    <g>
      <path d="M101.258,54.266c-0.845,0-1.53-0.685-1.53-1.531l0,0v-2.719c0-0.847,0.686-1.53,1.53-1.532l0,0h190.033&#10;&#9;&#9;&#9;c0.846,0.001,1.529,0.686,1.529,1.532l0,0v2.719c0,0.846-0.684,1.531-1.529,1.531l0,0H101.258L101.258,54.266z M291.21,52.655&#10;&#9;&#9;&#9;v-2.56H101.337v2.56H291.21L291.21,52.655z" style="fill: rgb(30, 30, 30);"/>
      <g>
        <polygon points="158.387,53.371 158.387,49.38 159.998,49.38 159.998,53.371 &#9;&#9;&#9;" style="fill: rgb(30, 30, 30);"/>
        <polygon points="160.835,53.371 160.835,49.38 162.446,49.38 162.446,53.371 &#9;&#9;&#9;" style="fill: rgb(30, 30, 30);"/>
      </g>
      <g>
        <polygon points="191.116,53.37 191.116,49.381 192.729,49.381 192.729,53.37 &#9;&#9;&#9;" style="fill: rgb(30, 30, 30);"/>
        <polygon points="193.565,53.37 193.565,49.381 195.176,49.381 195.176,53.37 &#9;&#9;&#9;" style="fill: rgb(30, 30, 30);"/>
      </g>
      <g>
        <polygon points="240.439,53.371 240.439,49.381 242.05,49.381 242.05,53.371 &#9;&#9;&#9;" style="fill: rgb(30, 30, 30);"/>
        <polygon points="242.887,53.371 242.887,49.381 244.498,49.381 244.498,53.371 &#9;&#9;&#9;" style="fill: rgb(30, 30, 30);"/>
      </g>
      <polygon points="155.305,53.461 155.305,49.2 156.916,49.2 156.916,53.461 &#9;&#9;" style="fill: rgb(30, 30, 30);"/>
      <polygon points="104.079,53.461 104.079,49.2 105.69,49.2 105.69,53.461 &#9;&#9;" style="fill: rgb(30, 30, 30);"/>
    </g>
    <g>
      <path d="M101.258,61.7c-0.845,0-1.53-0.685-1.53-1.53l0,0v-2.721c0-0.845,0.686-1.527,1.53-1.53l0,0h190.033&#10;&#9;&#9;&#9;c0.846,0.002,1.529,0.685,1.529,1.53l0,0v2.721c0,0.846-0.684,1.53-1.529,1.53l0,0H101.258L101.258,61.7z M291.21,60.091V57.53&#10;&#9;&#9;&#9;l-189.873,0v2.56L291.21,60.091L291.21,60.091z" style="fill: rgb(30, 30, 30);"/>
      <g>
        <polygon points="158.386,60.804 158.386,56.814 159.997,56.814 159.997,60.804 &#9;&#9;&#9;" style="fill: rgb(30, 30, 30);"/>
        <polygon points="160.835,60.804 160.835,56.814 162.446,56.814 162.446,60.804 &#9;&#9;&#9;" style="fill: rgb(30, 30, 30);"/>
      </g>
      <g>
        <polygon points="191.116,60.804 191.116,56.814 192.729,56.814 192.729,60.804 &#9;&#9;&#9;" style="fill: rgb(30, 30, 30);"/>
        <polygon points="193.565,60.804 193.565,56.814 195.176,56.814 195.176,60.804 &#9;&#9;&#9;" style="fill: rgb(30, 30, 30);"/>
      </g>
      <g>
        <polygon points="240.439,60.804 240.439,56.815 242.05,56.815 242.05,60.804 &#9;&#9;&#9;" style="fill: rgb(30, 30, 30);"/>
        <polygon points="242.887,60.804 242.887,56.814 244.498,56.814 244.498,60.804 &#9;&#9;&#9;" style="fill: rgb(30, 30, 30);"/>
      </g>
      <polygon points="155.303,60.895 155.303,56.635 156.915,56.635 156.915,60.895 &#9;&#9;" style="fill: rgb(30, 30, 30);"/>
      <polygon points="104.079,60.895 104.079,56.635 105.69,56.635 105.69,60.895 &#9;&#9;" style="fill: rgb(30, 30, 30);"/>
    </g>
    <g>
      <path d="M101.258,69.135c-0.845,0-1.53-0.686-1.53-1.531l0,0v-2.718c0-0.847,0.686-1.531,1.53-1.533l0,0h190.033&#10;&#9;&#9;&#9;c0.846,0.001,1.529,0.686,1.529,1.533l0,0v2.718c0,0.845-0.684,1.531-1.529,1.531l0,0H101.258L101.258,69.135z M291.21,67.525&#10;&#9;&#9;&#9;v-2.56H101.337v2.56H291.21L291.21,67.525z" style="fill: rgb(30, 30, 30);"/>
      <g>
        <polygon points="158.387,68.239 158.387,64.25 159.997,64.25 159.997,68.239 &#9;&#9;&#9;" style="fill: rgb(30, 30, 30);"/>
        <polygon points="160.835,68.239 160.835,64.25 162.446,64.25 162.446,68.239 &#9;&#9;&#9;" style="fill: rgb(30, 30, 30);"/>
      </g>
      <g>
        <polygon points="191.116,68.241 191.116,64.251 192.729,64.251 192.729,68.241 &#9;&#9;&#9;" style="fill: rgb(30, 30, 30);"/>
        <polygon points="193.565,68.24 193.565,64.25 195.176,64.25 195.176,68.24 &#9;&#9;&#9;" style="fill: rgb(30, 30, 30);"/>
      </g>
      <g>
        <polygon points="240.439,68.239 240.439,64.251 242.05,64.251 242.05,68.239 &#9;&#9;&#9;" style="fill: rgb(30, 30, 30);"/>
        <polygon points="242.887,68.24 242.887,64.249 244.498,64.249 244.498,68.24 &#9;&#9;&#9;" style="fill: rgb(30, 30, 30);"/>
      </g>
      <polygon points="155.304,68.331 155.304,64.069 156.915,64.069 156.915,68.331 &#9;&#9;" style="fill: rgb(30, 30, 30);"/>
      <polygon points="104.079,68.331 104.079,64.069 105.689,64.069 105.689,68.331 &#9;&#9;" style="fill: rgb(30, 30, 30);"/>
    </g>
    <g>
      <path d="M101.258,76.57c-0.845,0-1.53-0.685-1.53-1.53l0,0v-2.721c0-0.845,0.686-1.528,1.53-1.53l0,0h190.033&#10;&#9;&#9;&#9;c0.846,0.002,1.529,0.685,1.529,1.53l0,0v2.721c0,0.846-0.684,1.53-1.529,1.53l0,0H101.258L101.258,76.57z M291.21,74.959V72.4&#10;&#9;&#9;&#9;H101.337v2.56H291.21L291.21,74.959z" style="fill: rgb(30, 30, 30);"/>
      <g>
        <polygon points="158.386,75.674 158.386,71.685 159.997,71.685 159.997,75.674 &#9;&#9;&#9;" style="fill: rgb(30, 30, 30);"/>
        <polygon points="160.835,75.674 160.835,71.685 162.446,71.685 162.446,75.674 &#9;&#9;&#9;" style="fill: rgb(30, 30, 30);"/>
      </g>
      <g>
        <polygon points="191.116,75.674 191.116,71.685 192.729,71.685 192.729,75.674 &#9;&#9;&#9;" style="fill: rgb(30, 30, 30);"/>
        <polygon points="193.565,75.674 193.565,71.685 195.176,71.685 195.176,75.674 &#9;&#9;&#9;" style="fill: rgb(30, 30, 30);"/>
      </g>
      <g>
        <polygon points="240.439,75.673 240.439,71.686 242.05,71.686 242.05,75.673 &#9;&#9;&#9;" style="fill: rgb(30, 30, 30);"/>
        <polygon points="242.887,75.673 242.887,71.686 244.498,71.686 244.498,75.673 &#9;&#9;&#9;" style="fill: rgb(30, 30, 30);"/>
      </g>
      <polygon points="155.304,75.765 155.304,71.503 156.916,71.503 156.916,75.765 &#9;&#9;" style="fill: rgb(30, 30, 30);"/>
      <polygon points="104.079,75.765 104.079,71.503 105.689,71.503 105.689,75.765 &#9;&#9;" style="fill: rgb(30, 30, 30);"/>
    </g>
    <g>
      <path d="M308.517,39.396c-0.846,0-1.529-0.684-1.529-1.53l0,0v-2.719c0-0.847,0.685-1.531,1.529-1.531l0,0h190.032&#10;&#9;&#9;&#9;c0.846,0,1.53,0.687,1.53,1.531l0,0v2.719c-0.001,0.845-0.685,1.53-1.53,1.53l0,0H308.517L308.517,39.396z M498.469,37.788v-2.56&#10;&#9;&#9;&#9;l-189.874-0.001v2.56L498.469,37.788L498.469,37.788z" style="fill: rgb(30, 30, 30);"/>
      <g>
        <g>
          <polygon points="351.834,38.472 351.834,34.36 353.446,34.36 353.446,38.472 &#9;&#9;&#9;&#9;" style="fill: rgb(30, 30, 30);"/>
          <polygon points="354.372,38.471 354.372,34.361 355.984,34.361 355.984,38.471 &#9;&#9;&#9;&#9;" style="fill: rgb(30, 30, 30);"/>
        </g>
        <g>
          <polygon points="401.457,38.472 401.457,34.362 403.069,34.362 403.069,38.472 &#9;&#9;&#9;&#9;" style="fill: rgb(30, 30, 30);"/>
          <polygon points="403.997,38.471 403.997,34.361 405.607,34.361 405.607,38.471 &#9;&#9;&#9;&#9;" style="fill: rgb(30, 30, 30);"/>
        </g>
        <g>
          <polygon points="451.082,38.471 451.082,34.361 452.691,34.361 452.691,38.471 &#9;&#9;&#9;&#9;" style="fill: rgb(30, 30, 30);"/>
          <polygon points="453.622,38.471 453.622,34.361 455.231,34.361 455.231,38.471 &#9;&#9;&#9;&#9;" style="fill: rgb(30, 30, 30);"/>
        </g>
      </g>
    </g>
    <g>
      <path d="M308.517,46.836c-0.846-0.001-1.529-0.686-1.529-1.531l0,0v-2.719c0-0.846,0.685-1.53,1.529-1.532l0,0&#10;&#9;&#9;&#9;l190.032,0.002c0.846,0,1.529,0.686,1.53,1.53l0,0v2.719c-0.001,0.846-0.685,1.531-1.53,1.531l0,0H308.517L308.517,46.836z&#10;&#9;&#9;&#9; M498.469,45.225v-2.56H308.595v2.56H498.469L498.469,45.225z" style="fill: rgb(30, 30, 30);"/>
      <g>
        <g>
          <polygon points="351.834,45.909 351.834,41.8 353.446,41.8 353.446,45.909 &#9;&#9;&#9;&#9;" style="fill: rgb(30, 30, 30);"/>
          <polygon points="354.372,45.909 354.372,41.8 355.984,41.8 355.984,45.909 &#9;&#9;&#9;&#9;" style="fill: rgb(30, 30, 30);"/>
        </g>
        <g>
          <polygon points="401.457,45.909 401.457,41.799 403.069,41.799 403.069,45.909 &#9;&#9;&#9;&#9;" style="fill: rgb(30, 30, 30);"/>
          <polygon points="403.997,45.909 403.997,41.8 405.607,41.8 405.607,45.909 &#9;&#9;&#9;&#9;" style="fill: rgb(30, 30, 30);"/>
        </g>
        <g>
          <polygon points="451.082,45.911 451.082,41.799 452.691,41.799 452.691,45.911 &#9;&#9;&#9;&#9;" style="fill: rgb(30, 30, 30);"/>
          <polygon points="453.622,45.911 453.622,41.801 455.231,41.801 455.231,45.911 &#9;&#9;&#9;&#9;" style="fill: rgb(30, 30, 30);"/>
        </g>
      </g>
    </g>
    <g>
      <path d="M308.517,54.275c-0.846,0-1.529-0.685-1.529-1.53l0,0v-2.72c0-0.846,0.685-1.53,1.529-1.531l0,0h190.032&#10;&#9;&#9;&#9;c0.846,0,1.53,0.687,1.53,1.531l0,0v2.72c-0.001,0.843-0.685,1.53-1.53,1.531l0,0L308.517,54.275L308.517,54.275z M498.469,52.665&#10;&#9;&#9;&#9;v-2.561H308.595v2.561H498.469L498.469,52.665z" style="fill: rgb(30, 30, 30);"/>
      <g>
        <g>
          <polygon points="351.834,53.349 351.834,49.24 353.446,49.24 353.446,53.349 &#9;&#9;&#9;&#9;" style="fill: rgb(30, 30, 30);"/>
          <polygon points="354.372,53.35 354.372,49.239 355.984,49.239 355.984,53.35 &#9;&#9;&#9;&#9;" style="fill: rgb(30, 30, 30);"/>
        </g>
        <g>
          <polygon points="401.457,53.349 401.457,49.239 403.069,49.239 403.069,53.349 &#9;&#9;&#9;&#9;" style="fill: rgb(30, 30, 30);"/>
          <polygon points="403.997,53.349 403.997,49.239 405.607,49.239 405.607,53.349 &#9;&#9;&#9;&#9;" style="fill: rgb(30, 30, 30);"/>
        </g>
        <g>
          <polygon points="451.082,53.35 451.082,49.241 452.691,49.241 452.691,53.35 &#9;&#9;&#9;&#9;" style="fill: rgb(30, 30, 30);"/>
          <polygon points="453.622,53.349 453.622,49.239 455.231,49.239 455.231,53.349 &#9;&#9;&#9;&#9;" style="fill: rgb(30, 30, 30);"/>
        </g>
      </g>
    </g>
    <g>
      <path d="M308.517,61.714c-0.846,0-1.529-0.685-1.529-1.529l0,0v-2.72c0-0.846,0.685-1.531,1.529-1.531l0,0h190.032&#10;&#9;&#9;&#9;c0.846,0,1.529,0.686,1.53,1.531l0,0v2.72c-0.001,0.845-0.685,1.528-1.53,1.529l0,0H308.517L308.517,61.714z M498.469,60.104&#10;&#9;&#9;&#9;v-2.56H308.595v2.558L498.469,60.104L498.469,60.104z" style="fill: rgb(30, 30, 30);"/>
      <g>
        <g>
          <polygon points="351.834,60.789 351.834,56.677 353.446,56.677 353.446,60.789 &#9;&#9;&#9;&#9;" style="fill: rgb(30, 30, 30);"/>
          <polygon points="354.372,60.789 354.372,56.677 355.984,56.677 355.984,60.789 &#9;&#9;&#9;&#9;" style="fill: rgb(30, 30, 30);"/>
        </g>
        <g>
          <polygon points="401.457,60.788 401.457,56.678 403.069,56.678 403.069,60.788 &#9;&#9;&#9;&#9;" style="fill: rgb(30, 30, 30);"/>
          <polygon points="403.997,60.789 403.997,56.677 405.607,56.677 405.607,60.789 &#9;&#9;&#9;&#9;" style="fill: rgb(30, 30, 30);"/>
        </g>
        <g>
          <polygon points="451.082,60.788 451.082,56.678 452.691,56.678 452.691,60.788 &#9;&#9;&#9;&#9;" style="fill: rgb(30, 30, 30);"/>
          <polygon points="453.622,60.788 453.622,56.678 455.231,56.678 455.231,60.788 &#9;&#9;&#9;&#9;" style="fill: rgb(30, 30, 30);"/>
        </g>
      </g>
    </g>
    <g>
      <path d="M308.517,69.153c-0.846,0-1.529-0.686-1.529-1.53l0,0v-2.721c0-0.845,0.685-1.529,1.529-1.531l0,0&#10;&#9;&#9;&#9;l190.032,0.001c0.846,0,1.53,0.686,1.53,1.529l0,0v2.72c-0.001,0.846-0.685,1.531-1.53,1.531l0,0H308.517L308.517,69.153z&#10;&#9;&#9;&#9; M498.469,67.542v-2.56H308.595v2.56H498.469L498.469,67.542z" style="fill: rgb(30, 30, 30);"/>
      <g>
        <g>
          <polygon points="351.834,68.229 351.834,64.117 353.446,64.117 353.446,68.229 &#9;&#9;&#9;&#9;" style="fill: rgb(30, 30, 30);"/>
          <polygon points="354.372,68.229 354.372,64.117 355.984,64.117 355.984,68.229 &#9;&#9;&#9;&#9;" style="fill: rgb(30, 30, 30);"/>
        </g>
        <g>
          <polygon points="401.457,68.228 401.457,64.118 403.069,64.118 403.069,68.228 &#9;&#9;&#9;&#9;" style="fill: rgb(30, 30, 30);"/>
          <polygon points="403.997,68.229 403.997,64.116 405.607,64.116 405.607,68.229 &#9;&#9;&#9;&#9;" style="fill: rgb(30, 30, 30);"/>
        </g>
        <g>
          <polygon points="451.082,68.227 451.082,64.117 452.691,64.117 452.691,68.227 &#9;&#9;&#9;&#9;" style="fill: rgb(30, 30, 30);"/>
          <polygon points="453.622,68.229 453.622,64.116 455.231,64.116 455.231,68.229 &#9;&#9;&#9;&#9;" style="fill: rgb(30, 30, 30);"/>
        </g>
      </g>
    </g>
    <g>
      <path d="M308.583,76.592c-0.844,0-1.528-0.685-1.528-1.53l0,0v-2.72c0-0.846,0.685-1.53,1.528-1.53l0,0h190.035&#10;&#9;&#9;&#9;c0.845,0.001,1.527,0.686,1.53,1.53l0,0v2.72c-0.003,0.845-0.687,1.528-1.53,1.53l0,0H308.583L308.583,76.592z M498.536,74.982&#10;&#9;&#9;&#9;v-2.56H308.663v2.558L498.536,74.982L498.536,74.982z" style="fill: rgb(30, 30, 30);"/>
      <g>
        <g>
          <polygon points="351.903,75.667 351.903,71.556 353.514,71.556 353.514,75.667 &#9;&#9;&#9;&#9;" style="fill: rgb(30, 30, 30);"/>
          <polygon points="354.441,75.666 354.441,71.556 356.051,71.556 356.051,75.666 &#9;&#9;&#9;&#9;" style="fill: rgb(30, 30, 30);"/>
        </g>
        <g>
          <polygon points="401.524,75.667 401.524,71.557 403.137,71.557 403.137,75.667 &#9;&#9;&#9;&#9;" style="fill: rgb(30, 30, 30);"/>
          <polygon points="404.064,75.666 404.064,71.557 405.676,71.557 405.676,75.666 &#9;&#9;&#9;&#9;" style="fill: rgb(30, 30, 30);"/>
        </g>
        <g>
          <polygon points="451.15,75.667 451.15,71.556 452.761,71.556 452.761,75.667 &#9;&#9;&#9;&#9;" style="fill: rgb(30, 30, 30);"/>
          <polygon points="453.688,75.666 453.688,71.556 455.299,71.556 455.299,75.666 &#9;&#9;&#9;&#9;" style="fill: rgb(30, 30, 30);"/>
        </g>
      </g>
    </g>
  </g>
</svg>