<?xml version="1.0" encoding="utf-8"?>
<svg version="1.1" id="Ebene_1" x="0px" y="0px" enable-background="new 0 0 566.929 87.964" xmlns="http://www.w3.org/2000/svg" xmlns:bx="https://boxy-svg.com">
  <g id="g4569" transform="matrix(1.432194, 0, 0, 1.432194, -0.808014, 0)" bx:origin="0 0">
    <path id="path3999-4" d="m 333.43068,86.023995 34.39609,0 51.67494,-86.0239913326731 -34.38444,0 L 333.43068,86.023995 Z" style="fill-opacity: 1; stroke-opacity: 1; fill: rgb(255, 255, 255);"/>
    <path id="path3912-8" d="m 134.99998,23.46875 0,46.875 28.125,0 c 8.74937,-1.435037 13.75295,-6.336474 15.65625,-14.0625 0.0175,-6.255304 0.003,-12.494669 0,-18.75 -1.9033,-7.726026 -6.90688,-12.627462 -15.65625,-14.0625 l -28.125,0 z m 11,9.40625 12.46875,0 c 3.9161,0.694632 7.63206,1.922577 9.40625,7.8125 l -0.0312,12.5 c -1.7896,5.881358 -5.4902,7.117868 -9.4063,7.8125 l -12.46875,0 0.0312,-28.125 z" style="fill-opacity: 1; stroke-width: 1.11043px; stroke-linecap: butt; stroke-linejoin: miter; stroke-opacity: 1; fill: rgb(255, 255, 255);"/>
    <path id="path3896" d="m 14.639798,70.353531 0,-35.925714 -14.07128834,0 -0.004331,-10.935179 43.77975934,0 -4.693319,10.935179 -10.943856,0.0043 0,35.921377 -14.066965,3.7e-5 z" style="fill-opacity: 1; stroke-width: 1.11043px; stroke-linecap: butt; stroke-linejoin: miter; stroke-opacity: 1; fill: rgb(255, 255, 255);"/>
    <path id="path3900" d="m 49.031233,23.5 -17.1875,46.84375 14.09375,0 5.4375,-17.15625 5.46875,7.8125 9.375,0 3.125,9.34375 14.1875,0 -17.3125,-46.84375 -17.1875,0 z m 8.53125,12.46875 5.53125,14.09375 -10.9375,0 5.40625,-14.09375 z" style="fill-opacity: 1; stroke-width: 1.11043px; stroke-linecap: butt; stroke-linejoin: miter; stroke-opacity: 1; fill: rgb(255, 255, 255);"/>
    <path id="path3908" d="m 84.95721,70.353531 0,-46.860893 17.22477,0 17.19456,34.380961 0,-34.380961 10.94367,0 -0.009,46.860893 -17.19202,0 -17.196758,-34.351152 -0.0044,34.351152 -10.960822,0 z" style="fill-opacity: 1; stroke-width: 1.11043px; stroke-linecap: butt; stroke-linejoin: miter; stroke-opacity: 1; fill: rgb(255, 255, 255);"/>
    <path id="path3991" d="m 191.27104,48.512593 -18.74565,-25.019955 14.05901,0 10.19528,15.597603 10.14621,-15.597603 15.60376,0 -18.80379,24.941709 0.0346,21.919184 -12.47726,0 -0.0122,-21.840938 z" style="fill-opacity: 1; stroke-width: 1.11043px; stroke-linecap: butt; stroke-linejoin: miter; stroke-opacity: 1; fill: rgb(255, 255, 255);"/>
    <path id="path3999-4-5" d="m 288.27612,86.023995 34.39609,0 L 374.34715,0 339.96271,0 288.27612,86.023995 Z" style="fill-opacity: 1; fill: rgb(255, 255, 255);"/>
    <path id="path3999-4-5-7" d="m 243.12157,86.024002 34.39609,0 L 329.1926,3.6673269e-6 l -34.38444,0 L 243.12157,86.024002 Z" style="fill-opacity: 1; stroke-opacity: 1; fill: rgb(255, 255, 255);"/>
  </g>
</svg>