<?xml version="1.0" encoding="utf-8"?>
<svg xmlns="http://www.w3.org/2000/svg">
  <g>
    <path d="M 374.451 61.609 L 376.826 61.609 C 379.045 61.609 382.838 62.065 384.4 62.98 C 385.963 63.89 386.994 64.911 387.49 66.04 C 387.989 67.169 388.241 69.658 388.241 73.504 L 388.241 88.602 C 388.241 93.158 383.426 95.479 381.107 95.983 C 378.778 96.485 376.515 96.737 374.31 96.737 C 367.953 96.737 362.467 95.084 357.841 91.774 C 353.22 88.463 349.873 83.287 347.794 76.228 C 345.722 69.179 344.688 60.982 344.688 51.621 C 344.688 43.9 345.634 36.369 347.53 29.032 C 349.429 21.693 352.658 15.976 357.218 11.871 C 361.778 7.771 367.494 5.719 374.356 5.719 C 381.538 5.719 385.742 7.538 391.027 13.032 C 396.434 18.649 401.621 25.031 404.649 34.399 L 409.071 34.399 L 409.071 0.002 L 406.555 0.002 C 405.648 2.757 404.657 4.628 403.575 5.616 C 402.487 6.607 401.311 7.1 400.05 7.1 C 399.236 7.1 396.6 6.205 392.154 4.414 C 387.708 2.621 384.488 1.533 382.501 1.148 C 378.845 0.385 376.003 0 371.445 0 C 356.721 0 344.499 5.06 334.785 15.179 C 325.073 25.306 320.219 37.702 320.219 52.377 C 320.219 60.577 321.795 67.987 324.959 74.605 C 327.443 79.738 330.887 84.349 335.29 88.454 C 339.695 92.554 344.781 95.865 350.534 98.387 C 356.296 100.902 363.535 102.161 372.251 102.161 C 379.075 102.161 385.652 101.456 392.002 100.047 C 398.35 98.634 404.454 96.542 410.339 93.769 L 410.339 73.48 C 410.339 69.925 410.54 67.689 410.945 66.78 C 411.667 65.047 412.691 63.811 414.024 63.063 C 415.352 62.315 418.982 61.829 422.364 61.584 L 422.364 58.263 L 374.435 58.263 L 374.435 61.584 L 374.451 61.609 Z" id="path9" style="fill-opacity: 1; stroke: rgb(255, 255, 255); stroke-opacity: 1; fill: rgb(255, 255, 255);"/>
    <path d="M 484.621 87.887 C 479.16 92.069 471.89 94.159 462.824 94.159 L 457.657 94.159 C 454.887 94.159 452.886 93.782 451.641 93.02 C 450.407 92.258 449.553 91.282 449.103 90.095 C 448.65 88.906 448.423 85.648 448.423 80.329 L 448.423 53.078 C 453.079 53.078 458.532 53.684 460.98 54.9 C 463.426 56.112 465.572 58.483 467.417 62.009 C 469.27 65.533 470.48 69.426 471.056 74.95 L 474.986 74.95 L 474.986 24.802 L 471.056 24.802 C 470.286 32.336 468.512 37.395 465.727 41.255 C 462.945 45.115 458.456 47.046 452.269 47.046 L 448.417 47.046 L 448.417 13.407 C 448.387 7.561 453.599 8.237 453.599 8.237 L 459.689 8.237 C 467.051 8.237 472.066 8.669 474.743 9.527 C 479.331 10.954 482.883 13.191 485.392 16.237 C 487.904 19.285 489.848 24.304 491.235 31.302 L 494.532 31.302 L 494.532 2.658 L 412.596 2.658 L 412.596 6.581 L 415.179 6.581 C 418.328 6.581 420.811 7.247 422.622 8.577 C 423.912 9.48 424.796 10.769 425.27 12.432 C 425.512 13.426 425.631 16.115 425.631 20.492 L 425.631 81.094 C 425.631 85.944 425.368 88.941 424.842 90.085 C 424.174 91.7 423.216 92.842 421.979 93.509 C 420.258 94.509 417.994 95.008 415.183 95.008 L 412.597 95.008 L 412.597 99.566 L 495.92 99.566 L 500.926 68.749 L 496.355 68.749 C 493.968 77.328 490.043 83.709 484.578 87.888" id="path11" style="fill-opacity: 1; stroke: rgb(255, 255, 255); stroke-opacity: 1; fill: rgb(255, 255, 255);"/>
    <path d="M 549.092 1.137 C 535.13 0.561 523.361 5.111 513.805 14.798 C 504.231 24.476 499.458 36.579 499.458 51.089 C 499.458 64.017 503.133 75.187 510.49 84.606 C 519.795 96.521 532.966 102.487 550.006 102.487 C 566.989 102.487 580.146 96.241 589.455 83.741 C 596.483 74.334 600 63.42 600 51.017 C 600 36.506 595.284 24.42 585.867 14.758 C 576.439 5.095 564.191 0.557 549.109 1.138 M 571.381 78.697 C 569.1 85.446 565.913 90.359 561.818 93.427 C 558.605 95.833 554.601 97.032 549.803 97.032 C 542.681 97.032 537.148 94.244 533.183 88.675 C 527.504 80.703 524.661 68.386 524.661 51.713 C 524.661 37.684 526.499 26.928 530.178 19.437 C 534.693 10.315 541.275 5.752 549.933 5.752 C 554.635 5.752 558.79 7.075 562.397 9.718 C 566.003 12.357 568.97 16.887 571.297 23.296 C 573.628 29.713 574.791 39.373 574.791 52.301 C 574.791 63.155 573.652 71.958 571.367 78.709" id="path13" style="fill-opacity: 1; stroke: rgb(255, 255, 255); stroke-opacity: 1; fill: rgb(255, 255, 255);"/>
    <path d="M 239.715 101.922 C 256.698 101.922 269.853 95.673 279.165 83.175 C 286.191 73.758 289.709 62.857 289.709 50.452 C 289.709 35.942 284.993 23.856 275.574 14.193 C 266.148 4.532 253.899 -0.005 238.818 0.574 C 224.855 -0.002 213.087 4.549 203.531 14.235 C 193.957 23.912 189.183 36.017 189.183 50.526 C 189.183 63.454 192.858 74.625 200.217 84.043 C 209.52 95.957 222.692 101.923 239.732 101.923 M 219.737 18.927 C 224.251 9.805 230.835 5.242 239.495 5.242 C 244.196 5.242 248.349 6.562 251.956 9.205 C 255.563 11.847 258.53 16.375 260.86 22.785 C 263.187 29.201 264.351 38.86 264.351 51.78 C 264.351 62.633 263.212 71.44 260.929 78.188 C 258.65 84.937 255.461 89.85 251.364 92.926 C 248.155 95.328 244.15 96.528 239.351 96.528 C 232.229 96.528 226.694 93.742 222.728 88.172 C 217.05 80.199 214.208 67.884 214.208 51.212 C 214.208 37.183 216.045 26.427 219.723 18.935" id="path15" style="fill-opacity: 1; stroke: rgb(255, 255, 255); stroke-opacity: 1; fill: rgb(255, 255, 255);"/>
    <path d="M 190.505 67.975 L 185.931 67.975 C 183.544 76.551 179.617 82.934 174.155 87.111 C 168.693 91.293 161.424 93.382 152.366 93.382 L 147.197 93.382 C 144.428 93.382 142.429 93.002 141.185 92.245 C 139.946 91.482 139.098 90.507 138.645 89.319 C 138.193 88.129 137.964 84.872 137.964 79.55 L 137.964 52.3 C 142.62 52.3 148.074 52.907 150.523 54.124 C 152.969 55.335 155.117 57.709 156.961 61.233 C 158.812 64.759 160.024 68.65 160.601 74.177 L 164.53 74.177 L 164.53 24.026 L 160.601 24.026 C 159.83 31.557 158.054 36.618 155.27 40.479 C 152.492 44.34 148 46.268 141.813 46.268 L 137.961 46.268 L 137.961 12.63 C 137.929 6.783 143.145 7.46 143.145 7.46 L 149.229 7.46 C 156.597 7.46 161.618 7.891 164.294 8.747 C 168.886 10.174 172.435 12.414 174.944 15.459 C 177.457 18.505 179.403 23.529 180.791 30.522 L 184.084 30.522 L 184.084 1.854 L 102.149 1.854 L 102.149 5.803 L 104.731 5.803 C 107.88 5.803 110.362 6.469 112.174 7.797 C 113.462 8.701 114.344 9.989 114.819 11.652 C 115.061 12.648 115.181 15.335 115.181 19.711 L 115.181 80.315 C 115.181 85.165 114.919 88.162 114.393 89.299 C 113.727 90.913 112.768 92.061 111.533 92.724 C 109.814 93.724 107.548 94.222 104.73 94.222 L 102.148 94.222 L 102.148 98.781 L 185.471 98.781 L 190.48 67.965 L 190.505 67.975 Z" id="path17" style="fill-opacity: 1; stroke: rgb(255, 255, 255); stroke-opacity: 1; fill: rgb(255, 255, 255);"/>
    <path d="M 33.245 94.171 L 31.035 94.171 C 27.862 94.171 25.043 93.197 22.578 91.247 C 20.119 89.298 18.888 85.548 18.888 79.986 L 18.888 21.455 L 82.29 100.494 L 86.4 100.499 L 86.4 19.886 C 86.4 15.303 86.781 13.972 87.537 12.086 C 88.293 10.199 89.351 8.838 90.701 8.002 C 92.054 7.168 94.705 6.488 98.649 5.962 L 98.649 1.861 L 67.197 1.861 L 67.197 5.962 C 72.381 5.868 76.085 7.202 78.278 9.973 C 79.886 12.026 80.689 14.06 80.689 19.888 L 80.689 62.104 L 31.332 1.861 L 1.3 1.861 L 1.3 5.114 C 4.155 5.209 4.257 6.165 5.777 6.972 L 13.822 15.07 L 13.81 79.979 C 13.81 85.113 12.796 88.746 10.772 90.882 C 8.745 93.021 5.153 94.113 0 94.16 L 0 98.084 L 33.231 98.084 L 33.231 94.16 L 33.245 94.171 Z" id="path19" style="fill-opacity: 1; stroke: rgb(255, 255, 255); stroke-opacity: 1; fill: rgb(255, 255, 255);"/>
    <path stroke="#000000" stroke-width="0.133" d="M 316.764 51.244 C 316.764 57.686 311.543 62.904 305.105 62.904 C 298.663 62.904 293.444 57.681 293.444 51.244 C 293.444 44.801 298.668 39.584 305.105 39.584 C 311.546 39.584 316.764 44.806 316.764 51.244 Z" id="path21" style="fill-opacity: 1; stroke: rgb(255, 255, 255); stroke-opacity: 1; fill: rgb(255, 255, 255);"/>
  </g>
</svg>