<?xml version="1.0" encoding="utf-8"?>
<svg version="1.1" id="Ebene_1" x="0px" y="0px" enable-background="new 0 0 566.929 96.834" xmlns="http://www.w3.org/2000/svg" xmlns:bx="https://boxy-svg.com">
  <g transform="matrix(1.058332, 0, 0, 1.058332, -723.023804, -376.945374)" id="g3" style="fill:#ffffff;fill-opacity:1" bx:origin="0 0">
    <path d="M 1036.985 414.388 L 1039.23 414.388 C 1041.326 414.388 1044.91 414.819 1046.386 415.684 C 1047.863 416.543 1048.837 417.508 1049.306 418.575 C 1049.777 419.642 1050.015 421.994 1050.015 425.628 L 1050.015 439.893 C 1050.015 444.198 1045.466 446.391 1043.275 446.868 C 1041.074 447.342 1038.936 447.58 1036.852 447.58 C 1030.846 447.58 1025.662 446.018 1021.291 442.891 C 1016.925 439.762 1013.762 434.871 1011.798 428.201 C 1009.84 421.541 1008.863 413.796 1008.863 404.951 C 1008.863 397.655 1009.757 390.539 1011.548 383.607 C 1013.343 376.672 1016.394 371.27 1020.702 367.392 C 1025.011 363.518 1030.412 361.579 1036.896 361.579 C 1043.682 361.579 1047.654 363.297 1052.648 368.489 C 1057.757 373.796 1062.658 379.826 1065.519 388.678 L 1069.697 388.678 L 1069.697 356.177 L 1067.32 356.177 C 1066.463 358.78 1065.527 360.548 1064.504 361.481 C 1063.476 362.418 1062.365 362.884 1061.174 362.884 C 1060.404 362.884 1057.914 362.038 1053.713 360.346 C 1049.512 358.651 1046.469 357.623 1044.592 357.26 C 1041.137 356.539 1038.452 356.175 1034.145 356.175 C 1020.233 356.175 1008.684 360.956 999.506 370.517 C 990.329 380.086 985.743 391.799 985.743 405.665 C 985.743 413.413 987.232 420.415 990.221 426.668 C 992.568 431.518 995.823 435.875 999.983 439.754 C 1004.145 443.628 1008.951 446.756 1014.387 449.139 C 1019.831 451.515 1026.671 452.705 1034.907 452.705 C 1041.355 452.705 1047.569 452.039 1053.569 450.708 C 1059.567 449.372 1065.335 447.396 1070.895 444.776 L 1070.895 425.605 C 1070.895 422.246 1071.085 420.133 1071.468 419.274 C 1072.15 417.637 1073.118 416.469 1074.377 415.762 C 1075.632 415.055 1079.062 414.596 1082.258 414.365 L 1082.258 411.227 L 1036.97 411.227 L 1036.97 414.365 L 1036.985 414.388 Z" id="path9" style="fill-opacity: 1; stroke: rgb(255, 255, 255); stroke-opacity: 1;"/>
    <path d="M 1141.083 439.218 C 1135.923 443.169 1129.054 445.144 1120.488 445.144 L 1115.605 445.144 C 1112.988 445.144 1111.097 444.788 1109.921 444.068 C 1108.755 443.348 1107.948 442.426 1107.523 441.304 C 1107.095 440.181 1106.88 437.102 1106.88 432.076 L 1106.88 406.327 C 1111.28 406.327 1116.432 406.9 1118.745 408.049 C 1121.056 409.194 1123.084 411.434 1124.827 414.766 C 1126.578 418.096 1127.722 421.774 1128.266 426.994 L 1131.979 426.994 L 1131.979 379.61 L 1128.266 379.61 C 1127.538 386.729 1125.862 391.509 1123.231 395.156 C 1120.602 398.803 1116.36 400.628 1110.514 400.628 L 1106.875 400.628 L 1106.875 368.843 C 1106.846 363.319 1111.771 363.958 1111.771 363.958 L 1117.525 363.958 C 1124.482 363.958 1129.22 364.366 1131.75 365.177 C 1136.085 366.525 1139.441 368.639 1141.812 371.517 C 1144.185 374.397 1146.022 379.139 1147.333 385.752 L 1150.448 385.752 L 1150.448 358.686 L 1073.028 358.686 L 1073.028 362.393 L 1075.469 362.393 C 1078.444 362.393 1080.79 363.022 1082.501 364.279 C 1083.72 365.132 1084.556 366.35 1085.003 367.922 C 1085.232 368.861 1085.345 371.402 1085.345 375.537 L 1085.345 432.799 C 1085.345 437.382 1085.096 440.214 1084.599 441.295 C 1083.968 442.821 1083.063 443.9 1081.894 444.53 C 1080.268 445.475 1078.128 445.946 1075.472 445.946 L 1073.029 445.946 L 1073.029 450.253 L 1151.759 450.253 L 1156.49 421.135 L 1152.17 421.135 C 1149.915 429.241 1146.206 435.27 1141.043 439.219" id="path11" style="fill-opacity: 1; stroke: rgb(255, 255, 255); stroke-opacity: 1;"/>
    <path d="M 1202.001 357.249 C 1188.808 356.705 1177.688 361.004 1168.659 370.157 C 1159.612 379.302 1155.102 390.738 1155.102 404.448 C 1155.102 416.663 1158.575 427.218 1165.526 436.118 C 1174.319 447.376 1186.764 453.013 1202.864 453.013 C 1218.911 453.013 1231.343 447.111 1240.139 435.3 C 1246.78 426.412 1250.103 416.099 1250.103 404.38 C 1250.103 390.669 1245.647 379.249 1236.749 370.119 C 1227.841 360.989 1216.268 356.701 1202.017 357.25 M 1223.061 430.534 C 1220.906 436.911 1217.895 441.554 1214.025 444.452 C 1210.989 446.726 1207.206 447.859 1202.673 447.859 C 1195.943 447.859 1190.715 445.224 1186.969 439.962 C 1181.603 432.43 1178.916 420.792 1178.916 405.038 C 1178.916 391.782 1180.653 381.619 1184.129 374.541 C 1188.395 365.921 1194.615 361.61 1202.795 361.61 C 1207.238 361.61 1211.164 362.86 1214.572 365.357 C 1217.98 367.851 1220.783 372.131 1222.982 378.187 C 1225.184 384.25 1226.283 393.378 1226.283 405.593 C 1226.283 415.849 1225.207 424.167 1223.048 430.546" id="path13" style="fill-opacity: 1; stroke: rgb(255, 255, 255); stroke-opacity: 1;"/>
    <path d="M 909.676 452.479 C 925.723 452.479 938.153 446.575 946.951 434.766 C 953.59 425.868 956.914 415.567 956.914 403.846 C 956.914 390.136 952.458 378.716 943.558 369.586 C 934.652 360.457 923.078 356.17 908.828 356.717 C 895.635 356.173 884.515 360.473 875.486 369.625 C 866.44 378.769 861.929 390.207 861.929 403.916 C 861.929 416.131 865.401 426.687 872.355 435.586 C 881.145 446.843 893.591 452.48 909.692 452.48 M 890.799 374.059 C 895.064 365.439 901.285 361.128 909.468 361.128 C 913.91 361.128 917.834 362.375 921.242 364.873 C 924.65 367.369 927.454 371.647 929.655 377.704 C 931.854 383.766 932.954 392.893 932.954 405.101 C 932.954 415.356 931.878 423.677 929.72 430.053 C 927.567 436.43 924.554 441.073 920.683 443.979 C 917.65 446.249 913.866 447.383 909.332 447.383 C 902.602 447.383 897.372 444.75 893.625 439.487 C 888.26 431.954 885.575 420.317 885.575 404.564 C 885.575 391.308 887.31 381.145 890.786 374.066" id="path15" style="fill-opacity: 1; stroke: rgb(255, 255, 255); stroke-opacity: 1;"/>
    <path d="M 863.178 420.403 L 858.856 420.403 C 856.601 428.507 852.89 434.538 847.729 438.485 C 842.568 442.436 835.7 444.41 827.141 444.41 L 822.257 444.41 C 819.641 444.41 817.752 444.051 816.576 443.336 C 815.406 442.615 814.604 441.693 814.176 440.571 C 813.749 439.446 813.533 436.369 813.533 431.34 L 813.533 405.592 C 817.932 405.592 823.086 406.166 825.4 407.316 C 827.711 408.46 829.74 410.703 831.483 414.033 C 833.232 417.365 834.377 421.041 834.922 426.263 L 838.635 426.263 L 838.635 378.877 L 834.922 378.877 C 834.194 385.993 832.516 390.775 829.885 394.423 C 827.26 398.071 823.016 399.893 817.17 399.893 L 813.53 399.893 L 813.53 368.109 C 813.5 362.584 818.428 363.224 818.428 363.224 L 824.177 363.224 C 831.139 363.224 835.883 363.631 838.412 364.44 C 842.751 365.788 846.104 367.905 848.475 370.782 C 850.849 373.66 852.688 378.407 853.999 385.015 L 857.111 385.015 L 857.111 357.927 L 779.692 357.927 L 779.692 361.658 L 782.132 361.658 C 785.107 361.658 787.452 362.287 789.164 363.542 C 790.381 364.396 791.215 365.613 791.664 367.185 C 791.892 368.126 792.006 370.665 792.006 374.799 L 792.006 432.063 C 792.006 436.646 791.758 439.478 791.261 440.552 C 790.632 442.077 789.726 443.162 788.559 443.788 C 786.934 444.733 784.793 445.204 782.131 445.204 L 779.691 445.204 L 779.691 449.511 L 858.421 449.511 L 863.154 420.394 L 863.178 420.403 Z" id="path17" style="fill-opacity: 1; stroke: rgb(255, 255, 255); stroke-opacity: 1;"/>
    <path d="M 714.586 445.155 L 712.497 445.155 C 709.499 445.155 706.836 444.235 704.507 442.393 C 702.183 440.551 701.02 437.008 701.02 431.752 L 701.02 376.447 L 760.927 451.13 L 764.811 451.135 L 764.811 374.965 C 764.811 370.634 765.171 369.377 765.885 367.595 C 766.6 365.812 767.599 364.526 768.875 363.736 C 770.153 362.948 772.658 362.305 776.385 361.808 L 776.385 357.933 L 746.666 357.933 L 746.666 361.808 C 751.565 361.719 755.064 362.98 757.137 365.598 C 758.656 367.538 759.415 369.46 759.415 374.967 L 759.415 414.856 L 712.778 357.933 L 684.401 357.933 L 684.401 361.007 C 687.099 361.097 687.195 362 688.632 362.763 L 696.233 370.414 L 696.222 431.746 C 696.222 436.597 695.264 440.029 693.351 442.048 C 691.436 444.069 688.042 445.101 683.173 445.145 L 683.173 448.853 L 714.572 448.853 L 714.572 445.145 L 714.586 445.155 Z" id="path19" style="fill-opacity: 1; stroke: rgb(255, 255, 255); stroke-opacity: 1;"/>
    <path stroke="#000000" stroke-width="0.133" d="M 982.478 404.594 C 982.478 410.681 977.545 415.612 971.462 415.612 C 965.375 415.612 960.443 410.677 960.443 404.594 C 960.443 398.507 965.379 393.577 971.462 393.577 C 977.548 393.577 982.478 398.511 982.478 404.594 Z" id="path21" style="fill-opacity: 1; stroke: rgb(255, 255, 255); stroke-opacity: 1;"/>
  </g>
</svg>