<?xml version="1.0" encoding="utf-8"?>
<svg id="svg3518" version="1.1" xmlns="http://www.w3.org/2000/svg">
  <ellipse style="fill-opacity: 1; stroke-width: 1.591; stroke-opacity: 1; fill: rgb(255, 255, 255);" id="path4402" cx="173.209" cy="42.646" rx="26.791" ry="24.01" transform="matrix(1.000001, 0, 0, 1, -0.000099, 0)"/>
  <path style="fill-rule: evenodd; stroke-width: 1.41487px; stroke-linecap: butt; stroke-linejoin: miter; stroke-opacity: 1; fill: rgb(255, 255, 255);" d="M 0 28.934 L 16.995 28.934 L 16.995 64.61 L 27.389 64.61 L 27.389 29.074 L 44.244 29.074 L 44.244 20.226 L 0 20.226 Z" id="path3537"/>
  <path style="fill-rule: evenodd; stroke-width: 1.41487px; stroke-linecap: butt; stroke-linejoin: miter; stroke-opacity: 1; fill: rgb(255, 255, 255);" d="M 102.041 28.934 L 119.036 28.934 L 119.036 64.61 L 129.43 64.61 L 129.43 29.074 L 146.285 29.074 L 146.285 20.226 L 102.041 20.226 Z" id="path3537-1"/>
  <rect style="stroke-width: 1.41487; fill: rgb(255, 255, 255);" id="rect3554" width="10.534" height="43.682" x="88.347" y="20.507"/>
  <ellipse style="fill-opacity: 1; stroke-width: 1.41487; stroke-opacity: 1; fill: rgb(255, 255, 255);" id="path3558" cx="94.985" cy="232.759" rx="8.217" ry="8.006" transform="matrix(1.000001, 0, 0, 1, -1.792935, -224.752987)"/>
  <path style="fill-opacity: 1; fill-rule: evenodd; stroke-width: 1.41487px; stroke-linecap: butt; stroke-linejoin: miter; stroke-opacity: 1; fill: rgb(255, 255, 255);" d="M 32.024 64.61 L 46.491 64.61 C 48.037 49.928 56.246 33.406 65.874 25.704 L 59.272 14.467 Z" id="path3560"/>
  <path style="fill-opacity: 1; fill-rule: evenodd; stroke-width: 1.41487px; stroke-linecap: butt; stroke-linejoin: miter; stroke-opacity: 1; fill: rgb(255, 255, 255);" d="M 58.008 64.329 C 57.49 50.92 61.203 36.667 68.262 29.777 L 87.083 64.329 Z" id="path3562"/>
  <path style="fill-opacity: 1; fill-rule: evenodd; stroke-width: 1.41487px; stroke-linecap: butt; stroke-linejoin: miter; stroke-opacity: 1; fill: rgb(255, 255, 255);" d="M 66.155 25.563 L 67.981 29.074 C 69.253 27.392 76.129 19.474 81.184 16.433 C 75.413 17.721 70.801 21.873 66.155 25.563 Z" id="path3564"/>
  <ellipse style="fill-opacity: 1; stroke-width: 1.46703; stroke-opacity: 1; fill: rgb(20, 20, 20);" id="path4404" cx="173.055" cy="42.849" rx="15.883" ry="15.834"/>
</svg>