<?xml version="1.0" encoding="utf-8"?>
<svg version="1.1" id="Layer_2" x="0px" y="0px" enable-background="new 0 0 765 228" xmlns="http://www.w3.org/2000/svg">
  <g transform="matrix(0.262949, 0, 0, 0.262949, 0, 0)">
    <g>
      <path d="M37.021,93.462l74.419,127.575h100.997L138.019,93.462H37.021z M52.969,101.436h77.076l63.558,108.971h-77.077&#10;&#9;&#9;&#9;L52.969,101.436z" style="fill: rgb(255, 255, 255);"/>
      <path d="M63.627,161.848L5.128,221.037h93.023L63.627,161.848z M60.499,178.512l21.706,34.552H26.391L60.499,178.512z" style="fill: rgb(255, 255, 255);"/>
      <path d="M183.299,152.606l58.499-59.18h-93.023L183.299,152.606z M186.427,135.951L164.721,101.4h55.814L186.427,135.951z" style="fill: rgb(255, 255, 255);"/>
    </g>
    <g>
      <path d="M257.842,176.527c-0.142-0.188-0.443,1.444-0.903,4.882c-0.46,3.438-0.718,5.997-0.762,7.663&#10;&#9;&#9;&#9;c0.479,3.562,1.692,3.589,3.659,5.387c1.64,1.01,3.039,0.726,6.981,1.169c3.942,0.452,27.411,0.46,31.38,0.018&#10;&#9;&#9;&#9;c3.96-0.434,7.274-0.975,9.436-2.399c4.217-2.649,7.079-6.46,8.576-16.753c1.072-5.556,1.542-6.983,1.417-9.604&#10;&#9;&#9;&#9;c-0.16-3.51-1.949-5.866-5.369-7.053c-3.419-1.188-8.407-0.611-13.953-0.611h-10.95c-11.775,0-18.906,0.052-22.432,2.488&#10;&#9;&#9;&#9;C260.908,164.398,259.313,167.969,257.842,176.527z M342.033,135.519h-16.673c0.558-4.015,0.407-6.698,0.293-9.152&#10;&#9;&#9;&#9;c-0.115-2.499-0.373-4.688-1.507-5.493c-2.374-2.046-12.048-1.861-22.343-1.861h-9.63c-10.241,0-16.23-0.062-19.34,2.242&#10;&#9;&#9;&#9;c-4.022,3.128-6.449,7.91-7.291,14.344l-2.712,11.063c0,0,1.807-2.709,5.865-3.144c7.124-0.771,18.986-0.054,23.442-0.054&#10;&#9;&#9;&#9;c10.861,0.187,19.836-0.451,25.675,0.505c5.838,0.966,12.19,2.224,15.229,5.521c2.685,2.754,4.155,6.981,4.421,12.676&#10;&#9;&#9;&#9;c0.177,3.757-0.567,9.898-2.224,18.402c-0.93,4.103-2.011,7.806-3.25,11.091c-1.232,3.297-2.934,6.353-5.113,9.171&#10;&#9;&#9;&#9;c-2.17,2.817-4.757,7.699-7.76,9.329c-4.74,2.418-10.817,2.259-16.311,2.905c-5.492,0.647-14.299,0-23.025,0&#10;&#9;&#9;&#9;c-7.788,0-15.69,0.178-21.36-0.496c-5.679-0.673-10.356-2.313-14.033-4.917c-4.492-3.269-7.017-8.674-7.557-16.204&#10;&#9;&#9;&#9;c-0.027-3.89,0.408-8.309,1.302-13.28l9.294-48.771c1.763-10.676,5.031-19.003,12.802-23.964&#10;&#9;&#9;&#9;c4.323-2.693,9.568-4.474,15.734-5.342c6.174-0.876,16.354-1.311,25.24-1.311h13.66c9.285,0,11.872,1.24,18.383,3.712&#10;&#9;&#9;&#9;c6.512,2.471,9.941,7.406,10.286,14.804C343.636,119.455,343.131,129.077,342.033,135.519z" style="fill: rgb(255, 255, 255);"/>
      <path d="M406.094,114.37c-10.957,0-20.934,0.497-24.61,1.488c-3.588,1.002-5.839,0.913-7.46,3.482&#10;&#9;&#9;&#9;c-1.613,2.569-2.64,5.264-3.083,8.088c-0.443,2.818-0.842,6.609-1.188,11.359c0.346,2.853,1.258,4.818,2.738,5.881&#10;&#9;&#9;&#9;c2.834,1.79,12.765,1.95,25.665,1.95c11.553,0,20.174-0.239,24.692-2.197c1.912-0.753,3.561-2.454,4.942-5.094&#10;&#9;&#9;&#9;c1.392-2.649,2.233-4.581,3.216-9.567c0.55-3.021,0.79-5.573,0.746-7.673c-0.063-2.668-0.887-4.44-2.474-5.325&#10;&#9;&#9;&#9;c-1.744-0.957-4.411-1.595-7.999-1.914C417.682,114.529,412.624,114.37,406.094,114.37z M434.063,153.936&#10;&#9;&#9;&#9;c6.866,2.817,6.866,9.444,7.044,17.072c0.027,1.073,0.283,6.875-0.07,8.887c-0.354,2.001-0.239,3.544-0.362,4.189&#10;&#9;&#9;&#9;c-1.517,6.999-2.012,10.083-4.378,14.219c-2.365,4.147-3.756,7.115-7.884,9.33c-3.598,2.038-8.16,3.455-13.68,4.244&#10;&#9;&#9;&#9;c-5.527,0.787-15.212,1.187-23.742,1.187h-11.021c-9.542,0-17.001-0.346-22.388-1.036c-5.378-0.692-8.549-3.172-11.713-6.068&#10;&#9;&#9;&#9;c-2.985-2.605-5.819-8.931-6.307-15.026c0.159-2.844,0.665-4.297,1.506-9.656c1.107-4.952,1.373-8.939,2.25-11.597&#10;&#9;&#9;&#9;c0.877-2.65,2.631-5.769,4.562-8.204c1.923-2.428,4.767-4.209,8.134-6.131c2.073-1.188,2.693-1.639,0.576-3.411&#10;&#9;&#9;&#9;c-2.33-1.939-2.951-3.757-3.606-6.131c-0.337-0.743-0.514-7.973-0.549-8.212c1.028-16.505,5.351-24.913,13.086-31.265&#10;&#9;&#9;&#9;c4.544-3.898,6.546-6.21,16.628-6.928c5.174-0.417,19.357-0.62,26.604-0.62c9.994,0,19.712,0.213,23.85,0.638&#10;&#9;&#9;&#9;c3.632,0.531,6.786,1.311,9.479,2.33c2.695,1.027,2.419,2.773,4.474,5.245c1.8,2.277,2.757,5.891,2.872,10.835&#10;&#9;&#9;&#9;c0.078,3.41-0.144,6.964-0.673,10.675c-0.523,3.704-1.49,7.273-2.898,10.721c-1.399,3.445-3.217,6.192-5.448,8.258&#10;&#9;&#9;&#9;c-2.801,3.048-2.409,5.182-6.114,6.396c-0.796,0.267-1.221,0.08-1.204-0.044C433.098,153.732,433.417,153.67,434.063,153.936z&#10;&#9;&#9;&#9; M394.915,161.298c-7.044,0-14.247-0.026-18.047,0.398c-3.801,0.426-6.911,1.241-9.347,2.437c-2.242,1.011-4.04,2.836-5.404,5.476&#10;&#9;&#9;&#9;c-1.374,2.648-2.578,6.334-3.632,11.057c-0.896,5.475-0.78,6.563-0.948,8.159c0.337,2.906,0.948,4.615,3.145,5.581&#10;&#9;&#9;&#9;c2.206,0.966,5.377,2.65,9.745,2.836c3.331,0.361,12.022,0.54,20.75,0.54c9.063,0,16.168,0.629,21.085-1.205&#10;&#9;&#9;&#9;c2.319-1.02,4.88-1.302,6.352-3.925c1.479-2.614,2.116-5.324,3.242-10.374c0.896-3.862,1.32-6.892,1.267-9.089&#10;&#9;&#9;&#9;c-0.061-2.499-0.761-7.063-2.118-8.365c-1.123-1.266-3.632-2.205-7.512-2.825C409.611,161.369,402.833,161.298,394.915,161.298z" style="fill: rgb(255, 255, 255);"/>
      <path d="M490.462,213.063c-9.938,0-20.481-0.63-26.321-1.887c-5.838-1.258-10.081-3.465-12.748-6.627&#10;&#9;&#9;&#9;c-3.294-3.704-2.685-8.993-3.146-16.23c0.195-5.794,0.922-11.597,1.852-17.055l6.018-31.609&#10;&#9;&#9;&#9;c1.257-6.777,3.038-12.909,5.349-18.401c2.305-5.484,5.555-10.056,9.737-13.706c2.393-2.312,5.537-4.137,9.427-5.493&#10;&#9;&#9;&#9;c3.881-1.347,8.311-2.232,13.271-2.649c4.952-0.416,11.047-0.629,18.268-0.629c5.458,0,10.365,0.186,14.715,0.558&#10;&#9;&#9;&#9;c4.36,0.372,8.177,1.046,11.465,2.029c3.287,0.983,6.078,2.455,8.362,4.403c4.147,3.766,6.317,9.693,6.504,17.78&#10;&#9;&#9;&#9;c0.08,3.261-0.417,8.859-1.479,16.798l-6.139,31.752c-3.322,18.048-7.293,29.892-17.215,35.545&#10;&#9;&#9;&#9;c-4.031,2.232-8.877,3.692-14.556,4.385C508.146,212.718,498.588,213.063,490.462,213.063z M509.288,115.142&#10;&#9;&#9;&#9;c-7.574,0-12.995,0.141-16.256,0.425c-3.26,0.274-6.068,0.877-8.426,1.808c-1.808,0.734-3.429,1.798-4.873,3.171&#10;&#9;&#9;&#9;c-1.436,1.383-2.87,3.695-4.297,6.929c-1.425,3.241-2.676,4.952-3.738,10.428l-6.804,36.102&#10;&#9;&#9;&#9;c-0.779,5.342-1.267,7.024-1.453,10.365c0.205,2.995,0.699,5.183,1.506,6.573c0.806,1.391,2.003,2.498,3.571,3.322&#10;&#9;&#9;&#9;c2.001,1.037,4.553,1.701,7.663,1.994c3.109,0.292,8.24,0.442,15.388,0.442c8.691,0,15.149-0.266,19.402-0.779&#10;&#9;&#9;&#9;c4.253-0.522,7.477-1.72,9.675-3.579c4.058-3.649,6.396-9.107,8.788-20.475l6.289-33.284c0.914-6.361,1.329-8.522,1.26-11.801&#10;&#9;&#9;&#9;c-0.106-4.545-0.266-6.921-2.24-8.318c-1.898-1.437-4.557-2.348-7.967-2.739C523.357,115.336,517.537,115.142,509.288,115.142z" style="fill: rgb(255, 255, 255);"/>
      <path d="M594.117,213.063c-9.939,0-20.482-0.63-26.322-1.887c-5.837-1.258-10.08-3.465-12.747-6.627&#10;&#9;&#9;&#9;c-3.295-3.704-2.685-8.993-3.146-16.23c0.196-5.794,0.922-11.597,1.853-17.055l6.017-31.609c1.257-6.777,3.038-12.909,5.35-18.401&#10;&#9;&#9;&#9;c2.304-5.484,5.555-10.056,9.737-13.706c2.392-2.312,5.537-4.137,9.426-5.493c3.881-1.347,8.311-2.232,13.271-2.649&#10;&#9;&#9;&#9;c4.953-0.416,11.047-0.629,18.268-0.629c5.458,0,10.366,0.186,14.716,0.558c4.359,0.372,8.176,1.046,11.465,2.029&#10;&#9;&#9;&#9;c3.286,0.983,6.077,2.455,8.361,4.403c4.148,3.766,6.318,9.693,6.505,17.78c0.08,3.261-0.418,8.859-1.48,16.798l-6.139,31.752&#10;&#9;&#9;&#9;c-3.322,18.048-7.292,29.892-17.214,35.545c-4.032,2.232-8.877,3.692-14.557,4.385&#10;&#9;&#9;&#9;C611.801,212.718,602.242,213.063,594.117,213.063z M612.943,115.142c-7.575,0-12.996,0.141-16.257,0.425&#10;&#9;&#9;&#9;c-3.26,0.274-6.068,0.877-8.426,1.808c-1.808,0.734-3.429,1.798-4.872,3.171c-1.436,1.383-2.87,3.695-4.298,6.929&#10;&#9;&#9;&#9;c-1.424,3.241-2.675,4.952-3.737,10.428l-6.805,36.102c-0.779,5.342-1.267,7.024-1.453,10.365&#10;&#9;&#9;&#9;c0.205,2.995,0.699,5.183,1.507,6.573c0.806,1.391,2.002,2.498,3.571,3.322c2,1.037,4.553,1.701,7.662,1.994&#10;&#9;&#9;&#9;c3.109,0.292,8.24,0.442,15.389,0.442c8.691,0,15.148-0.266,19.402-0.779c4.252-0.522,7.476-1.72,9.675-3.579&#10;&#9;&#9;&#9;c4.057-3.649,6.395-9.107,8.787-20.475l6.29-33.284c0.913-6.361,1.329-8.522,1.259-11.801c-0.106-4.545-0.266-6.921-2.24-8.318&#10;&#9;&#9;&#9;c-1.898-1.437-4.556-2.348-7.967-2.739C627.013,115.336,621.191,115.142,612.943,115.142z" style="fill: rgb(255, 255, 255);"/>
      <path d="M697.771,213.063c-9.939,0-20.482-0.63-26.321-1.887c-5.838-1.258-10.081-3.465-12.748-6.627&#10;&#9;&#9;&#9;c-3.295-3.704-2.685-8.993-3.146-16.23c0.195-5.794,0.922-11.597,1.852-17.055l6.017-31.609c1.258-6.777,3.038-12.909,5.35-18.401&#10;&#9;&#9;&#9;c2.305-5.484,5.555-10.056,9.737-13.706c2.393-2.312,5.537-4.137,9.427-5.493c3.881-1.347,8.311-2.232,13.271-2.649&#10;&#9;&#9;&#9;c4.952-0.416,11.046-0.629,18.268-0.629c5.458,0,10.365,0.186,14.715,0.558c4.36,0.372,8.177,1.046,11.465,2.029&#10;&#9;&#9;&#9;c3.286,0.983,6.077,2.455,8.362,4.403c4.147,3.766,6.317,9.693,6.504,17.78c0.08,3.261-0.417,8.859-1.479,16.798l-6.139,31.752&#10;&#9;&#9;&#9;c-3.322,18.048-7.293,29.892-17.215,35.545c-4.031,2.232-8.877,3.692-14.557,4.385&#10;&#9;&#9;&#9;C715.455,212.718,705.896,213.063,697.771,213.063z M716.598,115.142c-7.574,0-12.996,0.141-16.257,0.425&#10;&#9;&#9;&#9;c-3.26,0.274-6.067,0.877-8.425,1.808c-1.809,0.734-3.43,1.798-4.873,3.171c-1.436,1.383-2.87,3.695-4.298,6.929&#10;&#9;&#9;&#9;c-1.424,3.241-2.675,4.952-3.737,10.428l-6.805,36.102c-0.779,5.342-1.266,7.024-1.452,10.365&#10;&#9;&#9;&#9;c0.205,2.995,0.699,5.183,1.506,6.573c0.806,1.391,2.003,2.498,3.571,3.322c2.001,1.037,4.553,1.701,7.663,1.994&#10;&#9;&#9;&#9;c3.108,0.292,8.24,0.442,15.388,0.442c8.691,0,15.149-0.266,19.402-0.779c4.253-0.522,7.477-1.72,9.675-3.579&#10;&#9;&#9;&#9;c4.058-3.649,6.396-9.107,8.787-20.475l6.29-33.284c0.914-6.361,1.329-8.522,1.26-11.801c-0.107-4.545-0.266-6.921-2.241-8.318&#10;&#9;&#9;&#9;c-1.897-1.437-4.556-2.348-7.966-2.739C730.667,115.336,724.846,115.142,716.598,115.142z" style="fill: rgb(255, 255, 255);"/>
    </g>
  </g>
  <g transform="matrix(0.262949, 0, 0, 0.262949, 0, 0)"/>
  <g transform="matrix(0.262949, 0, 0, 0.262949, 0.308705, 0)">
    <polygon points="258.061 14.302 258.061 72.509 277.995 72.509 277.995 49.386 316.268 49.386 316.268 72.509 336.201 72.509 336.201 14.302 316.268 14.302 316.268 36.628 277.995 36.628 277.995 14.302" style="fill: rgb(255, 255, 255);"/>
    <path d="M 381.251 26.866 L 393.856 47.791 L 368.635 47.791 L 381.251 26.866 Z M 401.071 59.751 L 408.76 72.508 L 431.883 72.508 L 396.8 14.301 L 388.826 14.301 L 373.676 14.301 L 338.593 72.509 L 353.742 72.509 L 361.432 59.752 L 401.071 59.752 Z" style="fill: rgb(255, 255, 255);"/>
    <path d="M 517.996 14.302 L 517.996 72.509 L 537.132 72.509 L 537.132 51.432 C 543.448 52.717 550.643 53.372 558.262 53.372 C 583.581 53.372 595.125 44.265 595.338 33.039 C 595.585 19.573 580.392 11.91 555.072 11.91 C 548.498 11.91 546.194 12.184 537.132 12.707 C 528.07 13.23 517.996 14.302 517.996 14.302 Z M 537.132 23.507 C 537.132 23.507 541.801 22.958 546.01 22.683 C 550.208 22.417 551.325 22.47 554.371 22.47 C 566.12 22.47 573.127 26.209 573.012 33.119 C 572.915 38.877 567.555 43.555 555.807 43.555 C 552.273 43.555 546.948 43.059 543.359 42.555 C 539.771 42.058 537.132 40.916 537.132 40.916 L 537.132 23.507 Z" style="fill: rgb(255, 255, 255);"/>
    <path d="M 434.275 14.302 L 434.275 72.509 L 453.411 72.509 L 453.411 23.507 C 453.411 23.507 458.081 22.958 462.289 22.683 C 466.488 22.417 467.604 22.47 470.651 22.47 C 482.4 22.47 490.203 26.209 490.089 33.119 C 489.99 38.877 483.834 41.96 472.086 41.96 C 468.552 41.96 464.2 41.473 460.613 40.977 C 460.419 40.95 456.6 47.144 456.6 47.144 L 485.304 72.508 L 514.008 72.508 L 488.66 50.696 C 504.528 48.038 512.404 40.827 512.413 33.039 C 512.432 17.926 497.396 11.608 471.35 11.91 C 464.777 11.99 462.472 12.184 453.41 12.707 C 444.348 13.23 434.275 14.302 434.275 14.302 Z" style="fill: rgb(255, 255, 255);"/>
    <path d="M 245.304 31.844 C 245.304 31.844 251.984 19.582 251.683 19.086 C 251.382 18.591 238.199 11.609 211.816 11.91 C 170.93 12.371 171.152 29.452 171.152 29.452 C 171.152 29.452 167.067 45.327 198.847 48.588 C 218.346 50.582 232.237 53.841 232.158 58.581 C 232.078 63.331 223.892 63.046 220.224 62.746 C 188.322 60.159 176.92 51.22 176.92 51.22 L 170 65.554 C 170 65.554 185.397 75.193 217.398 74.9 C 249.434 74.608 253.819 67.006 254.403 56.774 C 255.129 44.034 237.331 39.02 237.331 39.02 C 237.331 39.02 227.568 36.876 217.414 35.424 C 205.747 33.749 193.591 31.881 195.106 27.273 C 195.106 27.114 198.553 20.514 223.013 25.103 C 234.904 27.326 245.304 31.844 245.304 31.844 Z" style="fill: rgb(255, 255, 255);"/>
  </g>
</svg>