<?xml version="1.0" encoding="utf-8"?>
<svg version="1.2" baseProfile="tiny" id="Layer_3" x="0px" y="0px" preserveAspectRatio="none" xmlns="http://www.w3.org/2000/svg">
  <path id="path3" d="M 405.464 220.155 C 404.583 220.133 403.268 220.156 400.871 220.199 C 396.098 220.282 372.404 220.372 371.861 220.372 C 371.478 220.372 371.018 220.52 370.629 220.908 C 370.24 221.296 369.89 221.895 369.499 222.85 C 369.371 223.161 369.159 223.858 368.832 225.024 C 368.506 226.189 368.073 227.768 367.586 229.689 C 366.612 233.531 365.387 238.723 364.182 244.571 C 361.772 256.267 359.458 270.606 359.458 282.147 L 359.458 285.03 C 359.458 296.573 361.772 310.91 364.182 322.605 C 365.388 328.454 366.612 333.63 367.587 337.472 C 368.076 339.394 368.507 340.988 368.834 342.153 C 369.16 343.318 369.374 344.016 369.5 344.327 C 369.891 345.281 370.242 345.881 370.631 346.269 C 371.018 346.658 371.479 346.804 371.862 346.804 C 372.407 346.804 396.1 346.895 400.873 346.979 C 403.27 347.02 404.585 347.029 405.466 347.007 C 406.348 346.986 406.802 346.92 407.365 346.79 C 407.691 346.714 408.643 346.446 409.958 346.066 C 411.275 345.685 412.935 345.206 414.552 344.733 C 417.787 343.783 420.884 342.863 420.884 342.863 L 420.624 341.965 C 420.624 341.965 417.526 342.885 414.291 343.834 C 412.675 344.308 411.026 344.802 409.712 345.182 C 408.398 345.562 407.382 345.84 407.162 345.892 C 406.631 346.014 406.295 346.074 405.451 346.095 C 404.609 346.115 403.284 346.093 400.887 346.051 L 400.873 346.051 C 396.042 345.963 372.496 345.87 371.863 345.87 C 371.657 345.87 371.526 345.852 371.284 345.609 C 371.041 345.366 370.723 344.866 370.357 343.972 C 370.294 343.82 370.057 343.041 369.733 341.885 C 369.41 340.73 368.974 339.162 368.487 337.248 C 367.515 333.419 366.298 328.241 365.097 322.409 C 362.692 310.746 360.387 296.442 360.387 285.025 L 360.387 282.142 C 360.387 270.724 362.693 256.419 365.097 244.756 C 366.298 238.924 367.515 233.746 368.487 229.917 C 368.973 228.003 369.409 226.421 369.734 225.266 C 370.058 224.11 370.295 223.346 370.357 223.193 C 370.723 222.298 371.041 221.798 371.284 221.556 C 371.526 221.314 371.657 221.295 371.864 221.295 C 372.496 221.295 396.043 221.206 400.874 221.122 L 400.888 221.122 C 403.286 221.079 404.611 221.057 405.455 221.077 C 406.298 221.097 406.634 221.158 407.166 221.28 L 407.263 221.309 C 407.534 221.375 408.45 221.626 409.711 221.989 C 411.026 222.369 412.674 222.848 414.291 223.322 C 417.524 224.272 420.623 225.192 420.623 225.192 L 420.884 224.307 C 420.884 224.307 417.787 223.388 414.552 222.438 C 412.934 221.964 411.274 221.485 409.958 221.104 C 408.646 220.724 407.696 220.456 407.366 220.38 C 406.805 220.251 406.351 220.17 405.469 220.149 L 405.464 220.155 Z" style="fill: rgb(30, 30, 30);" transform="matrix(0.965926, -0.258819, 0.258819, 0.965926, -60.101871, 110.646662)"/>
  <path id="path5" d="M 405.766 219.299 C 404.885 219.278 403.556 219.287 401.158 219.329 C 396.395 219.411 364.404 219.502 363.858 219.502 C 363.277 219.502 362.668 219.608 362.134 219.995 C 361.601 220.382 361.17 221.008 360.787 221.98 C 360.668 222.282 360.456 222.984 360.135 224.139 C 359.813 225.295 359.398 226.865 358.917 228.776 C 357.957 232.599 356.745 237.78 355.556 243.658 C 353.179 255.414 350.893 269.977 350.893 282.205 L 350.893 286.943 C 350.892 299.167 353.179 313.734 355.558 325.489 C 356.747 331.366 357.959 336.534 358.92 340.356 C 359.4 342.266 359.816 343.852 360.137 345.007 C 360.457 346.162 360.67 346.863 360.789 347.166 C 361.172 348.139 361.603 348.765 362.136 349.151 C 362.669 349.539 363.279 349.645 363.861 349.645 C 364.405 349.645 396.397 349.72 401.16 349.803 C 403.557 349.845 404.887 349.868 405.768 349.847 C 406.649 349.826 407.105 349.759 407.667 349.629 C 408.003 349.551 409.002 349.26 410.406 348.847 C 411.809 348.434 413.57 347.902 415.303 347.384 C 418.77 346.346 422.099 345.341 422.099 345.341 L 421.835 344.464 C 421.835 344.464 418.504 345.47 415.038 346.507 C 413.306 347.025 411.542 347.559 410.141 347.97 C 408.74 348.382 407.671 348.674 407.46 348.723 L 407.46 348.738 C 406.929 348.861 406.578 348.906 405.735 348.926 C 404.893 348.948 403.568 348.925 401.171 348.883 C 396.347 348.799 364.491 348.723 363.857 348.723 C 363.373 348.723 363.019 348.649 362.684 348.405 C 362.348 348.161 362.001 347.703 361.655 346.826 C 361.592 346.665 361.35 345.898 361.032 344.754 C 360.713 343.608 360.293 342.049 359.815 340.145 C 358.857 336.337 357.654 331.169 356.467 325.307 C 354.094 313.575 351.815 299.052 351.815 286.944 L 351.815 282.205 C 351.815 270.098 354.094 255.556 356.467 243.833 C 357.653 237.972 358.857 232.817 359.814 229.01 C 360.294 227.105 360.713 225.533 361.032 224.387 C 361.35 223.241 361.592 222.489 361.655 222.329 C 362 221.452 362.348 220.993 362.684 220.75 C 363.019 220.506 363.374 220.431 363.858 220.431 C 364.491 220.431 396.347 220.341 401.171 220.257 C 403.568 220.215 404.893 220.207 405.736 220.228 C 406.579 220.249 406.929 220.294 407.46 220.416 C 407.671 220.465 408.74 220.772 410.141 221.185 C 411.543 221.597 413.307 222.129 415.039 222.648 C 418.507 223.685 421.837 224.692 421.837 224.692 L 422.098 223.792 C 422.098 223.792 418.768 222.787 415.302 221.75 C 413.569 221.231 411.808 220.713 410.405 220.3 C 409.005 219.887 408.003 219.595 407.669 219.518 C 407.107 219.388 406.648 219.322 405.767 219.301 L 405.766 219.299 Z" style="fill: rgb(30, 30, 30);" transform="matrix(0.965926, -0.258819, 0.258819, 0.965926, -60.482911, 109.728866)"/>
  <path id="path7" d="M 433.254 314.704 L 432.457 315.181 C 433.339 316.65 434.342 317.384 435.442 317.384 L 464.482 317.384 L 536.963 317.384 L 566.017 317.384 C 567.116 317.384 568.106 316.65 568.988 315.181 L 568.191 314.703 C 567.389 316.034 566.707 316.456 566.016 316.456 L 536.96 316.456 L 464.478 316.456 L 435.439 316.456 C 434.745 316.456 434.051 316.035 433.251 314.702 L 433.254 314.704 Z" style="fill: rgb(30, 30, 30);" transform="matrix(0.965926, -0.258819, 0.258819, 0.965926, -64.736188, 140.365256)"/>
  <path id="path9" d="M 564.937 169.224 C 564.055 169.246 563.601 169.327 563.039 169.456 C 562.712 169.531 561.762 169.8 560.445 170.181 C 559.129 170.561 557.484 171.039 555.866 171.514 C 552.63 172.463 549.533 173.383 549.533 173.383 L 549.795 174.266 C 549.795 174.266 552.894 173.346 556.127 172.397 C 557.744 171.923 559.392 171.444 560.706 171.065 C 562.02 170.685 563.021 170.405 563.242 170.354 C 563.773 170.231 564.124 170.172 564.966 170.151 C 565.809 170.131 567.135 170.153 569.531 170.195 C 574.347 170.279 597.923 170.369 598.556 170.369 C 598.763 170.369 598.879 170.387 599.121 170.63 C 599.363 170.872 599.697 171.372 600.063 172.267 C 600.125 172.419 600.362 173.184 600.686 174.34 C 601.011 175.495 601.432 177.077 601.918 178.991 C 602.89 182.82 604.122 187.998 605.323 193.83 C 607.728 205.494 610.032 219.798 610.032 231.216 L 610.032 234.1 C 610.032 245.516 607.727 259.823 605.323 271.486 C 604.122 277.318 602.89 282.496 601.918 286.325 C 601.432 288.24 601.011 289.806 600.686 290.962 C 600.362 292.117 600.125 292.897 600.063 293.048 C 599.697 293.944 599.363 294.443 599.121 294.686 C 598.879 294.929 598.763 294.947 598.556 294.947 C 597.923 294.947 574.346 295.037 569.531 295.121 C 567.135 295.162 565.81 295.184 564.966 295.164 C 564.124 295.144 563.773 295.083 563.242 294.961 C 563.021 294.911 562.02 294.631 560.706 294.251 C 559.392 293.872 557.744 293.378 556.127 292.904 C 552.893 291.954 549.795 291.034 549.795 291.034 L 549.533 291.932 C 549.533 291.932 552.63 292.852 555.866 293.802 C 557.484 294.277 559.129 294.755 560.445 295.135 C 561.762 295.515 562.713 295.784 563.039 295.86 C 563.601 295.989 564.055 296.055 564.937 296.078 C 565.819 296.098 567.148 296.089 569.545 296.049 C 574.318 295.965 598.01 295.875 598.556 295.875 C 598.938 295.875 599.398 295.726 599.788 295.338 C 600.175 294.95 600.527 294.351 600.918 293.396 C 601.044 293.085 601.258 292.387 601.584 291.222 C 601.911 290.057 602.328 288.463 602.816 286.541 C 603.791 282.7 605.015 277.522 606.221 271.674 C 608.631 259.98 610.96 245.642 610.96 234.1 L 610.96 231.217 C 610.96 219.675 608.631 205.338 606.221 193.642 C 605.015 187.798 603.787 182.606 602.813 178.764 C 602.326 176.843 601.908 175.263 601.584 174.098 C 601.254 172.934 601.042 172.235 600.916 171.924 C 600.522 170.969 600.174 170.371 599.784 169.983 C 599.396 169.594 598.935 169.446 598.552 169.446 C 598.009 169.446 574.315 169.356 569.543 169.273 C 567.145 169.23 565.814 169.208 564.933 169.229 L 564.937 169.224 Z" style="fill: rgb(30, 30, 30);" transform="matrix(0.965926, -0.258819, 0.258819, 0.965926, -40.444047, 158.106542)"/>
  <path id="path11" d="M 564.65 166.401 C 563.769 166.423 563.299 166.489 562.737 166.619 C 562.402 166.696 561.402 166.988 559.999 167.402 C 558.596 167.815 556.834 168.332 555.101 168.851 C 551.633 169.888 548.304 170.894 548.304 170.894 L 548.579 171.793 C 548.579 171.793 551.896 170.786 555.361 169.75 C 557.094 169.231 558.857 168.698 560.258 168.286 C 561.659 167.874 562.742 167.567 562.954 167.518 C 563.485 167.395 563.82 167.35 564.664 167.329 C 565.507 167.309 566.831 167.317 569.228 167.358 C 574.052 167.443 605.924 167.532 606.556 167.532 C 607.041 167.532 607.395 167.607 607.73 167.851 C 608.065 168.095 608.412 168.553 608.758 169.431 C 608.821 169.591 609.049 170.343 609.367 171.488 C 609.686 172.634 610.106 174.206 610.585 176.111 C 611.542 179.92 612.76 185.073 613.946 190.935 C 616.319 202.657 618.598 217.198 618.598 229.306 L 618.598 234.045 C 618.598 246.153 616.319 260.679 613.946 272.402 C 612.76 278.263 611.542 283.432 610.585 287.24 C 610.106 289.144 609.685 290.703 609.367 291.849 C 609.049 292.994 608.822 293.761 608.758 293.921 C 608.413 294.798 608.065 295.257 607.73 295.5 C 607.395 295.744 607.041 295.819 606.556 295.819 C 605.923 295.819 574.052 295.893 569.228 295.978 C 566.831 296.021 565.506 296.042 564.664 296.022 C 563.821 296.001 563.484 295.956 562.953 295.834 L 562.953 295.819 C 562.742 295.77 561.659 295.478 560.258 295.065 C 558.857 294.653 557.092 294.121 555.361 293.602 C 551.896 292.566 548.579 291.56 548.579 291.56 L 548.303 292.443 C 548.303 292.443 551.633 293.449 555.099 294.486 C 556.833 295.005 558.593 295.536 559.997 295.95 C 561.4 296.362 562.4 296.654 562.735 296.732 C 563.298 296.862 563.767 296.928 564.648 296.949 C 565.53 296.971 566.844 296.948 569.242 296.906 C 574.005 296.822 606.011 296.746 606.556 296.746 C 607.138 296.746 607.733 296.642 608.266 296.254 C 608.8 295.866 609.231 295.242 609.614 294.269 C 609.733 293.967 609.944 293.265 610.266 292.11 C 610.587 290.954 611.002 289.368 611.483 287.458 C 612.444 283.636 613.655 278.468 614.845 272.592 C 617.224 260.836 619.525 246.27 619.525 234.046 L 619.525 229.308 C 619.525 217.083 617.224 202.517 614.845 190.763 C 613.655 184.884 612.444 179.702 611.483 175.88 C 611.002 173.969 610.587 172.398 610.266 171.243 C 609.944 170.088 609.733 169.386 609.614 169.084 C 609.23 168.111 608.799 167.486 608.266 167.099 C 607.733 166.712 607.138 166.606 606.556 166.606 C 606.011 166.606 574.005 166.516 569.243 166.432 C 566.84 166.385 565.523 166.376 564.643 166.397 L 564.65 166.401 Z" style="fill: rgb(30, 30, 30);" transform="matrix(0.965926, -0.258819, 0.258819, 0.965926, -40.064729, 159.022276)"/>
  <path id="path13" d="M 419.193 198.095 C 418.735 198.095 418.269 198.107 417.817 198.356 C 417.365 198.605 416.982 199.042 416.542 199.776 L 416.542 199.805 L 416.528 199.819 C 409.229 214.592 405.779 239.994 405.779 257.1 L 405.779 259.144 C 405.779 276.251 409.231 301.655 416.531 316.426 L 416.546 316.439 L 416.546 316.454 C 416.986 317.187 417.369 317.625 417.821 317.873 C 418.273 318.123 418.74 318.135 419.198 318.135 L 448.237 318.135 L 522.184 318.135 L 551.223 318.135 C 551.682 318.135 552.133 318.123 552.586 317.874 C 553.037 317.626 553.42 317.187 553.861 316.454 L 553.875 316.439 L 553.875 316.426 C 561.169 301.656 564.638 276.25 564.638 259.144 L 564.638 257.101 C 564.638 239.993 561.172 214.59 553.872 199.819 L 553.872 199.805 L 553.858 199.776 C 553.417 199.042 553.034 198.604 552.582 198.356 C 552.13 198.107 551.679 198.095 551.219 198.095 L 522.181 198.095 L 448.233 198.095 L 419.193 198.095 L 419.193 198.095 Z M 419.193 199.022 L 448.233 199.022 L 522.18 199.022 L 551.219 199.022 C 551.658 199.022 551.897 199.038 552.132 199.167 C 552.362 199.294 552.657 199.588 553.045 200.225 C 553.054 200.239 553.05 200.239 553.059 200.253 C 560.213 214.753 563.71 240.13 563.71 257.099 L 563.71 259.142 C 563.71 276.108 560.209 301.473 553.059 315.973 C 552.658 316.642 552.367 316.931 552.131 317.061 C 551.896 317.19 551.658 317.205 551.218 317.205 L 522.179 317.205 L 448.233 317.205 L 419.193 317.205 C 418.755 317.205 418.501 317.19 418.266 317.061 C 418.04 316.935 417.746 316.634 417.368 316.017 C 417.365 316.011 417.356 316.008 417.354 316.002 C 410.194 301.507 406.702 276.12 406.702 259.143 L 406.702 257.1 C 406.703 240.119 410.203 214.719 417.368 200.222 C 417.751 199.594 418.037 199.29 418.266 199.164 C 418.501 199.035 418.754 199.02 419.193 199.02 L 419.193 199.022 Z" style="fill: rgb(30, 30, 30);" transform="matrix(0.965926, -0.258819, 0.258819, 0.965926, -50.272009, 134.376332)"/>
  <path id="path15" d="M 404.402 198.85 C 403.302 198.85 402.298 199.597 401.417 201.067 L 402.214 201.545 C 403.015 200.212 403.708 199.777 404.402 199.777 L 433.441 199.777 L 505.923 199.777 L 534.976 199.777 C 535.67 199.777 536.35 200.212 537.15 201.545 L 537.948 201.067 C 537.062 199.597 536.074 198.85 534.975 198.85 L 505.922 198.85 L 433.441 198.85 L 404.401 198.85 L 404.402 198.85 Z" style="fill: rgb(30, 30, 30);" transform="matrix(0.965926, -0.258819, 0.258819, 0.965926, -35.810895, 128.384407)"/>
  <g id="g17" transform="matrix(0.533849, -0.143044, 0.143044, 0.533849, 301.545471, 203.885956)">
    <path id="path19" d="M453.166,177.22c-0.043-14.803-1.193-29.6-3.442-44.23c-0.111-0.727,0.445-1.419,1.247-1.547&#10;&#9;&#9;c0.804-0.127,1.548,0.366,1.66,1.099c2.28,14.808,3.438,29.789,3.476,44.771c0.001,0.558,0.001,0.836,0,1.393&#10;&#9;&#9;c-0.037,14.982-1.194,29.961-3.476,44.768c-0.113,0.736-0.856,1.227-1.66,1.1c-0.802-0.127-1.358-0.816-1.247-1.543&#10;&#9;&#9;c2.248-14.633,3.399-29.428,3.442-44.23v-1.578V177.22z" style="fill: rgb(30, 30, 30);"/>
  </g>
  <g id="g21" transform="matrix(0.533849, -0.143044, 0.143044, 0.533849, 301.545471, 203.885956)">
    <path id="path23" d="M459.777,177.294c-0.044-15.282-1.23-30.562-3.555-45.667c-0.115-0.75,0.462-1.465,1.29-1.595&#10;&#9;&#9;c0.829-0.131,1.597,0.375,1.714,1.133c2.354,15.288,3.552,30.759,3.588,46.227c0.002,0.576,0.002,0.862,0,1.437&#10;&#9;&#9;c-0.036,15.471-1.234,30.939-3.588,46.229c-0.117,0.758-0.885,1.266-1.714,1.133c-0.828-0.131-1.404-0.844-1.288-1.596&#10;&#9;&#9;c2.32-15.104,3.51-30.385,3.553-45.666c0.008-0.654,0.008-0.982,0.008-1.637L459.777,177.294z" style="fill: rgb(30, 30, 30);"/>
  </g>
  <g id="g25" transform="matrix(0.533849, -0.143044, 0.143044, 0.533849, 301.545471, 203.885956)">
    <path id="path27" d="M144.998,177.22c0.037-14.802,1.191-29.6,3.441-44.23c0.111-0.727-0.446-1.419-1.249-1.546&#10;&#9;&#9;c-0.802-0.126-1.547,0.365-1.661,1.098c-2.278,14.806-3.441,29.79-3.475,44.771c-0.001,0.558-0.001,0.836,0,1.393&#10;&#9;&#9;c0.035,14.982,1.194,29.961,3.475,44.768c0.114,0.736,0.857,1.229,1.661,1.102c0.803-0.125,1.36-0.818,1.249-1.545&#10;&#9;&#9;c-2.25-14.631-3.404-29.43-3.441-44.23v-1.578V177.22z" style="fill: rgb(30, 30, 30);"/>
  </g>
  <g id="g29" transform="matrix(0.533849, -0.143044, 0.143044, 0.533849, 301.545471, 203.885956)">
    <path id="path31" d="M138.386,177.294c0.043-15.282,1.232-30.56,3.552-45.667c0.115-0.75-0.459-1.464-1.288-1.595&#10;&#9;&#9;c-0.829-0.131-1.598,0.375-1.714,1.133c-2.35,15.29-3.554,30.758-3.586,46.227c-0.001,0.576-0.001,0.862,0,1.437&#10;&#9;&#9;c0.035,15.471,1.236,30.939,3.586,46.229c0.117,0.758,0.885,1.266,1.714,1.133c0.829-0.133,1.403-0.844,1.288-1.596&#10;&#9;&#9;c-2.322-15.105-3.51-30.385-3.552-45.666c-0.017-0.654-0.017-0.982-0.008-1.637L138.386,177.294z" style="fill: rgb(30, 30, 30);"/>
  </g>
  <g id="g33" transform="matrix(0.533849, -0.143044, 0.143044, 0.533849, 301.545471, 203.885956)">
    <path id="path35" d="M467.538,177.664c-0.047-15.872-1.4-31.745-4.057-47.394c-0.132-0.776,0.452-1.529,1.31-1.679&#10;&#9;&#9;c0.856-0.149,1.666,0.367,1.799,1.152c2.685,15.858,4.05,31.935,4.103,48.021c0.002,0.599,0.002,0.897,0,1.496&#10;&#9;&#9;c-0.053,16.087-1.418,32.161-4.103,48.021c-0.133,0.787-0.942,1.303-1.799,1.152c-0.857-0.148-1.443-0.902-1.312-1.68&#10;&#9;&#9;c2.656-15.643,4.011-31.521,4.059-47.393c0-0.672,0-1.015-0.009-1.693L467.538,177.664z" style="fill: rgb(30, 30, 30);"/>
  </g>
  <g id="g37" transform="matrix(0.533849, -0.143044, 0.143044, 0.533849, 301.545471, 203.885956)">
    <path id="path39" d="M476.33,177.53c-0.043-16.548-1.467-33.093-4.229-49.409c-0.138-0.81,0.473-1.593,1.366-1.749&#10;&#9;&#9;c0.896-0.157,1.735,0.382,1.873,1.2c2.801,16.531,4.235,33.295,4.275,50.063c0.002,0.622,0.002,0.934,0,1.559&#10;&#9;&#9;c-0.04,16.766-1.476,33.529-4.274,50.061c-0.139,0.822-0.979,1.357-1.874,1.201c-0.894-0.156-1.505-0.938-1.367-1.752&#10;&#9;&#9;c2.765-16.313,4.187-32.859,4.229-49.406c-0.008-0.705-0.008-1.057-0.008-1.763L476.33,177.53z" style="fill: rgb(30, 30, 30);"/>
  </g>
  <g id="g41" transform="matrix(0.533849, -0.143044, 0.143044, 0.533849, 301.545471, 203.885956)">
    <path id="path43" d="M487.565,177.697c-0.055-17.239-1.667-34.47-4.804-51.422&#10;&#9;&#9;c-0.156-0.843,0.464-1.667,1.393-1.845c0.928-0.177,1.811,0.37,1.969,1.223c3.187,17.186,4.811,34.67,4.863,52.154&#10;&#9;&#9;c0.002,0.648,0.002,0.975,0,1.625c-0.053,17.482-1.673,34.961-4.863,52.152c-0.157,0.852-1.041,1.4-1.969,1.223&#10;&#9;&#9;c-0.93-0.176-1.548-1.002-1.393-1.846c3.137-16.949,4.748-34.184,4.804-51.422c0.008-0.738,0.008-1.107,0-1.846V177.697z" style="fill: rgb(30, 30, 30);"/>
  </g>
  <g id="g45" transform="matrix(0.533849, -0.143044, 0.143044, 0.533849, 301.545471, 203.885956)">
    <path id="path47" d="M500.259,177.538c-0.053-18.236-1.766-36.464-5.081-54.396&#10;&#9;&#9;c-0.165-0.891,0.492-1.765,1.474-1.951c0.98-0.187,1.917,0.391,2.084,1.293c3.364,18.185,5.091,36.674,5.143,55.169&#10;&#9;&#9;c0.002,0.688,0.002,1.032,0,1.719c-0.052,18.494-1.777,36.98-5.144,55.168c-0.167,0.902-1.103,1.482-2.083,1.295&#10;&#9;&#9;c-0.981-0.189-1.639-1.061-1.474-1.953c3.32-17.93,5.027-36.162,5.081-54.395c0.009-0.771,0.009-1.167,0-1.947V177.538z" style="fill: rgb(30, 30, 30);"/>
  </g>
  <g id="g49" transform="matrix(0.533849, -0.143044, 0.143044, 0.533849, 301.545471, 203.885956)">
    <path id="path51" d="M514.287,177.128c-0.063-19.234-1.859-38.458-5.358-57.371&#10;&#9;&#9;c-0.174-0.941,0.435-1.844,1.365-2.021c0.932-0.177,1.833,0.447,2.01,1.397c3.546,19.156,5.36,38.634,5.417,58.12&#10;&#9;&#9;c0.001,0.724,0.001,1.085,0,1.808c-0.057,19.482-1.865,38.963-5.419,58.117c-0.176,0.951-1.075,1.578-2.008,1.4&#10;&#9;&#9;c-0.931-0.18-1.539-1.084-1.365-2.023c3.501-18.912,5.295-38.137,5.358-57.371c-0.008-0.839-0.008-1.25-0.008-2.063&#10;&#9;&#9;L514.287,177.128z" style="fill: rgb(30, 30, 30);"/>
  </g>
  <path id="path53" d="M 564.268 181.524 C 563.994 181.472 563.702 181.475 563.413 181.538 L 548.792 184.77 C 547.64 185.023 546.915 186.167 547.169 187.32 L 547.169 187.349 L 547.183 187.378 L 551.791 200.71 L 551.806 200.768 L 551.819 200.768 C 552.101 201.882 553.225 202.597 554.356 202.347 L 568.976 199.116 C 570.129 198.862 570.854 197.717 570.599 196.565 L 570.599 196.536 L 570.585 196.507 L 565.977 183.175 C 565.974 183.16 565.966 183.147 565.962 183.132 C 565.758 182.292 565.075 181.675 564.268 181.524 L 564.268 181.524 Z M 563.616 182.451 C 564.278 182.305 564.919 182.716 565.065 183.379 L 565.079 183.408 L 565.079 183.437 L 569.702 196.769 C 569.848 197.43 569.437 198.071 568.774 198.218 L 554.153 201.435 C 553.49 201.581 552.85 201.17 552.704 200.507 L 552.689 200.493 L 552.689 200.464 L 548.067 187.132 C 548.066 187.128 548.068 187.123 548.067 187.118 C 547.93 186.461 548.338 185.814 548.995 185.669 L 563.616 182.451 Z" style="fill: rgb(30, 30, 30);" transform="matrix(0.965926, -0.258819, 0.258819, 0.965926, -30.634796, 151.19014)"/>
  <path id="circle55" d="M 558.875 184.495 C 554.769 184.495 551.441 187.837 551.441 191.943 C 551.441 196.049 554.769 199.391 558.875 199.391 C 562.981 199.391 566.324 196.049 566.324 191.943 C 566.324 187.837 562.984 184.495 558.876 184.495 L 558.875 184.495 Z M 558.875 185.423 C 562.48 185.423 565.396 188.339 565.396 191.943 C 565.396 195.548 562.48 198.464 558.875 198.464 C 555.27 198.464 552.37 195.548 552.37 191.943 C 552.37 188.338 555.27 185.423 558.875 185.423 Z" style="fill: rgb(30, 30, 30);" transform="matrix(0.965926, -0.258819, 0.258819, 0.965926, -30.635033, 151.189542)"/>
  <path id="path57" d="M 582.56 172.152 C 582.287 172.101 581.994 172.103 581.705 172.167 L 567.085 175.384 C 565.933 175.637 565.208 176.781 565.461 177.934 L 565.461 177.963 L 565.476 177.992 L 570.084 191.324 L 570.099 191.382 L 570.113 191.382 C 570.394 192.496 571.519 193.21 572.649 192.961 L 587.27 189.744 C 588.421 189.49 589.146 188.331 588.893 187.179 L 588.893 187.15 L 588.879 187.135 L 584.271 173.79 C 584.267 173.774 584.259 173.762 584.256 173.746 C 584.051 172.906 583.368 172.303 582.56 172.152 L 582.56 172.152 Z M 581.907 173.065 C 582.57 172.919 583.21 173.329 583.356 173.992 L 583.37 174.021 L 583.37 174.05 L 587.992 187.382 C 588.138 188.044 587.727 188.685 587.065 188.83 L 572.444 192.047 C 571.782 192.194 571.142 191.783 570.995 191.12 L 570.981 191.106 L 570.981 191.077 L 566.359 177.745 C 566.358 177.741 566.359 177.736 566.359 177.731 C 566.222 177.074 566.629 176.427 567.286 176.282 L 581.911 173.066 L 581.907 173.065 Z" style="fill: rgb(30, 30, 30);" transform="matrix(0.965926, -0.258819, 0.258819, 0.965926, -27.584043, 155.60509)"/>
  <path id="circle59" d="M 577.186 175.122 C 573.081 175.122 569.738 178.45 569.738 182.556 C 569.738 186.662 573.081 190.004 577.186 190.004 C 581.293 190.004 584.62 186.661 584.62 182.556 C 584.62 178.45 581.292 175.122 577.186 175.122 Z M 577.186 176.05 C 580.791 176.05 583.692 178.951 583.692 182.556 C 583.692 186.161 580.791 189.076 577.186 189.076 C 573.582 189.076 570.666 186.161 570.666 182.556 C 570.666 178.951 573.582 176.05 577.186 176.05 Z" style="fill: rgb(30, 30, 30);" transform="matrix(0.965926, -0.258819, 0.258819, 0.965926, -27.583883, 155.60559)"/>
  <path id="path61" d="M 596.944 266.014 C 596.143 266.164 595.474 266.778 595.263 267.608 L 595.249 267.608 L 595.234 267.666 L 590.626 280.997 L 590.613 281.012 L 590.613 281.04 C 590.358 282.193 591.084 283.352 592.235 283.606 L 606.856 286.823 C 607.987 287.072 609.11 286.357 609.393 285.243 L 609.406 285.243 L 609.421 285.185 L 614.029 271.854 L 614.043 271.825 L 614.043 271.81 C 614.296 270.658 613.571 269.499 612.419 269.245 L 597.799 266.028 C 597.511 265.965 597.218 265.963 596.944 266.014 L 596.944 266.014 Z M 597.596 266.926 L 612.216 270.158 C 612.873 270.303 613.28 270.935 613.144 271.593 C 613.143 271.599 613.145 271.603 613.144 271.607 L 608.522 284.939 L 608.522 284.968 L 608.507 284.997 C 608.361 285.66 607.721 286.071 607.058 285.924 L 592.438 282.694 C 591.781 282.548 591.374 281.916 591.509 281.258 C 591.511 281.253 591.509 281.249 591.509 281.244 L 596.133 267.913 L 596.146 267.883 L 596.146 267.855 C 596.293 267.191 596.934 266.781 597.596 266.926 Z" style="fill: rgb(30, 30, 30);" transform="matrix(0.965926, -0.258819, 0.258819, 0.965926, -51.020278, 165.312641)"/>
  <path id="circle63" d="M 602.337 268.986 C 598.231 268.986 594.889 272.313 594.889 276.42 C 594.889 280.525 598.231 283.867 602.337 283.867 C 606.443 283.867 609.771 280.525 609.771 276.42 C 609.771 272.313 606.442 268.986 602.337 268.986 Z M 602.337 269.913 C 605.941 269.913 608.843 272.816 608.843 276.42 C 608.843 280.024 605.941 282.94 602.337 282.94 C 598.733 282.94 595.817 280.025 595.817 276.42 C 595.817 272.815 598.732 269.913 602.337 269.913 Z" style="fill: rgb(30, 30, 30);" transform="matrix(0.965926, -0.258819, 0.258819, 0.965926, -51.020584, 165.313656)"/>
  <path id="path65" d="M 576.41 267.033 C 575.609 267.182 574.94 267.796 574.729 268.626 L 574.715 268.626 L 574.701 268.684 L 570.092 282.015 L 570.079 282.045 L 570.079 282.059 C 569.824 283.211 570.55 284.371 571.702 284.624 L 586.323 287.841 C 587.46 288.09 588.599 287.386 588.873 286.261 C 588.876 286.246 588.885 286.233 588.887 286.218 L 593.495 272.872 L 593.509 272.858 L 593.509 272.829 C 593.764 271.677 593.039 270.518 591.886 270.264 L 577.265 267.047 C 576.978 266.983 576.685 266.981 576.41 267.033 L 576.41 267.033 Z M 577.063 267.945 L 591.684 271.177 C 592.341 271.322 592.748 271.955 592.611 272.612 C 592.61 272.616 592.612 272.621 592.611 272.625 L 587.989 285.956 L 587.989 285.986 L 587.974 286.015 C 587.829 286.677 587.188 287.088 586.525 286.943 L 571.905 283.715 C 571.247 283.57 570.841 282.938 570.977 282.28 C 570.978 282.276 570.976 282.271 570.977 282.266 L 575.6 268.935 L 575.6 268.906 L 575.614 268.877 C 575.76 268.214 576.401 267.804 577.063 267.949 L 577.063 267.945 Z" style="fill: rgb(30, 30, 30);" transform="matrix(0.965926, -0.258819, 0.258819, 0.965926, -51.98359, 160.033208)"/>
  <path id="circle67" d="M 581.786 270.005 C 577.679 270.005 574.352 273.347 574.352 277.454 C 574.352 281.56 577.68 284.887 581.786 284.887 C 585.892 284.887 589.234 281.559 589.234 277.454 C 589.234 273.347 585.892 270.005 581.786 270.005 Z M 581.786 270.932 C 585.39 270.932 588.306 273.848 588.306 277.454 C 588.306 281.058 585.391 283.959 581.786 283.959 C 578.18 283.959 575.28 281.058 575.28 277.454 C 575.28 273.848 578.181 270.932 581.786 270.932 Z" style="fill: rgb(30, 30, 30);" transform="matrix(0.965926, -0.258819, 0.258819, 0.965926, -51.984153, 160.032651)"/>
  <path id="path69" d="M 374.105 265.48 C 372.849 265.48 371.816 266.513 371.816 267.769 L 371.816 273.087 C 371.816 274.359 370.812 275.478 369.439 275.478 L 364.121 275.478 C 362.864 275.478 361.831 276.496 361.831 277.753 L 361.831 289.027 C 361.831 290.283 362.864 291.317 364.121 291.317 L 369.439 291.317 C 370.022 291.317 370.616 291.507 371.062 291.897 C 371.508 292.285 371.816 292.863 371.816 293.708 L 371.816 299.011 C 371.816 300.269 372.849 301.301 374.105 301.301 L 385.379 301.301 C 386.636 301.301 387.669 300.269 387.669 299.011 L 387.669 293.708 C 387.669 292.844 387.909 292.272 388.306 291.897 C 388.704 291.521 389.283 291.317 390.045 291.317 L 395.363 291.317 C 396.62 291.317 397.653 290.284 397.653 289.027 L 397.653 277.753 C 397.653 276.487 396.621 275.471 395.363 275.471 L 390.045 275.471 C 389.112 275.471 388.558 275.229 388.204 274.849 C 387.851 274.468 387.668 273.888 387.668 273.081 L 387.668 267.762 C 387.668 266.506 386.635 265.473 385.379 265.473 L 374.105 265.473 L 374.105 265.48 Z M 374.105 266.407 L 385.379 266.407 C 386.135 266.407 386.741 267.014 386.741 267.769 L 386.741 273.087 C 386.741 274.038 386.96 274.872 387.524 275.478 C 388.088 276.084 388.946 276.405 390.046 276.405 L 395.364 276.405 C 396.12 276.405 396.726 276.997 396.726 277.752 L 396.726 289.026 C 396.726 289.781 396.12 290.388 395.364 290.388 L 390.046 290.388 C 389.112 290.388 388.274 290.642 387.669 291.214 C 387.064 291.786 386.742 292.656 386.742 293.707 L 386.742 299.01 C 386.742 299.766 386.135 300.373 385.38 300.373 L 374.105 300.373 C 373.35 300.373 372.743 299.766 372.743 299.01 L 372.743 293.707 C 372.743 292.624 372.322 291.755 371.686 291.199 C 371.049 290.645 370.231 290.388 369.44 290.388 L 364.121 290.388 C 363.366 290.388 362.759 289.781 362.759 289.026 L 362.759 277.753 C 362.759 276.997 363.366 276.405 364.121 276.405 L 369.44 276.405 C 371.319 276.405 372.743 274.857 372.743 273.087 L 372.743 267.769 C 372.743 267.014 373.35 266.407 374.105 266.407 Z" style="fill: rgb(30, 30, 30);" transform="matrix(0.965926, -0.258819, 0.258819, 0.965926, -60.406611, 107.940771)"/>
  <g id="g71" transform="matrix(0.533849, -0.143044, 0.143044, 0.533849, 301.545471, 203.885956)">
    <path d="M214.576,253.787v-0.84v-0.84h171.275c6.782,0.034,13.987-5.523,15.46-12.22l0,0&#10;&#9;&#9;c4.438-21.566,6.657-42.906,6.657-64.246l0,0c0-21.331-2.219-42.662-6.653-64.204l0,0c-1.477-6.711-8.682-12.266-15.464-12.232l0,0&#10;&#9;&#9;c-38.064,0-76.124,0-114.184,0l0,0c-19.031,0-38.06,0-57.091,0l0,0c-6.784-0.034-13.985,5.521-15.458,12.218l0,0&#10;&#9;&#9;c-4.442,21.552-6.663,42.885-6.663,64.218l0,0c0,21.342,2.219,42.684,6.661,64.231l0,0c1.477,6.711,8.678,12.269,15.46,12.234l0,0&#10;&#9;&#9;v0.84V253.787c-7.649-0.033-15.352-5.961-17.1-13.56l0,0c-4.467-21.669-6.699-43.129-6.699-64.586l0,0&#10;&#9;&#9;c0-21.45,2.233-42.899,6.701-64.573l0,0c1.746-7.584,9.449-13.509,17.098-13.543l0,0c19.031,0.002,38.06,0,57.091,0l0,0&#10;&#9;&#9;c38.06,0,76.12,0,114.184,0l0,0c7.648,0.034,15.355,5.959,17.104,13.558l0,0c4.459,21.663,6.692,43.111,6.692,64.558l0,0&#10;&#9;&#9;c0,21.457-2.231,42.911-6.694,64.599l0,0c-1.746,7.586-9.453,13.514-17.102,13.547l0,0H214.576L214.576,253.787z" style="fill: rgb(30, 30, 30);"/>
  </g>
  <path id="path75" d="M 442.345 225.46 C 441.383 225.46 440.592 226.251 440.592 227.213 L 440.592 283.047 C 440.592 284.01 441.383 284.801 442.345 284.801 L 530.592 284.801 C 531.556 284.801 532.346 284.009 532.346 283.047 L 532.346 227.213 C 532.346 226.251 531.556 225.46 530.592 225.46 L 442.345 225.46 Z M 442.345 226.387 L 530.592 226.387 C 531.054 226.387 531.418 226.752 531.418 227.214 L 531.418 283.048 C 531.418 283.509 531.054 283.874 530.592 283.874 L 442.345 283.874 C 441.884 283.874 441.519 283.509 441.519 283.048 L 441.519 227.213 C 441.519 226.753 441.884 226.387 442.345 226.387 Z" style="fill: rgb(30, 30, 30);" transform="matrix(0.965926, -0.258819, 0.258819, 0.965926, -49.456638, 134.60096)"/>
  <path id="circle77" d="M 415.099 220.715 C 414.229 220.715 413.519 221.424 413.519 222.294 C 413.519 223.164 414.229 223.888 415.099 223.888 C 415.969 223.888 416.678 223.164 416.678 222.294 C 416.678 221.425 415.969 220.715 415.099 220.715 Z M 415.099 221.642 C 415.467 221.642 415.751 221.926 415.751 222.294 C 415.751 222.663 415.467 222.961 415.099 222.961 C 414.73 222.961 414.447 222.663 414.447 222.294 C 414.447 221.926 414.73 221.642 415.099 221.642 Z" style="fill: rgb(30, 30, 30);" transform="matrix(0.965926, -0.258819, 0.258819, 0.965926, -43.391753, 115.010275)"/>
  <path id="path79" d="M 379.768 266.482 C 375.895 266.482 372.741 269.623 372.741 273.496 C 372.741 274.659 372.487 275.335 372.045 275.742 C 371.603 276.15 370.881 276.365 369.785 276.365 C 365.912 276.365 362.771 279.505 362.771 283.379 C 362.771 287.252 365.912 290.406 369.785 290.406 C 371.635 290.406 372.741 291.712 372.741 293.464 C 372.741 297.337 375.896 300.477 379.769 300.477 C 383.642 300.477 386.796 297.337 386.796 293.464 C 386.796 292.341 387.078 291.603 387.564 291.131 C 388.051 290.658 388.791 290.406 389.81 290.406 C 393.683 290.406 396.824 287.251 396.824 283.378 C 396.824 279.504 393.683 276.365 389.81 276.365 C 388.786 276.365 388.03 276.213 387.564 275.842 C 387.099 275.472 386.796 274.822 386.796 273.495 C 386.796 269.622 383.641 266.482 379.768 266.482 L 379.768 266.482 Z M 379.768 267.409 C 383.14 267.409 385.869 270.123 385.869 273.495 C 385.869 274.972 386.243 275.977 386.984 276.568 C 387.726 277.157 388.711 277.292 389.81 277.292 C 393.182 277.292 395.897 280.006 395.897 283.379 C 395.897 286.751 393.182 289.479 389.81 289.479 C 388.636 289.479 387.63 289.78 386.926 290.464 C 386.223 291.148 385.869 292.177 385.869 293.464 C 385.869 296.837 383.14 299.55 379.768 299.55 C 376.395 299.55 373.667 296.837 373.667 293.464 C 373.667 291.29 372.096 289.479 369.784 289.479 C 366.411 289.479 363.697 286.751 363.697 283.379 C 363.697 280.006 366.411 277.292 369.784 277.292 C 370.994 277.292 371.99 277.06 372.682 276.423 C 373.373 275.786 373.667 274.799 373.667 273.496 C 373.668 270.123 376.396 267.409 379.768 267.409 Z" style="fill: rgb(30, 30, 30);" transform="matrix(0.965926, -0.258819, 0.258819, 0.965926, -60.428551, 107.958022)"/>
  <path id="path81" d="M 413.729 245.39 C 413.084 245.282 412.46 245.731 412.352 246.376 L 410.409 257.983 C 410.301 258.627 410.75 259.251 411.394 259.36 L 415.539 260.056 C 416.183 260.162 416.808 259.714 416.915 259.07 L 418.857 247.463 C 418.965 246.819 418.516 246.194 417.872 246.086 L 413.727 245.391 L 413.729 245.391 Z M 413.584 246.304 L 417.728 246.999 C 417.878 247.024 417.97 247.154 417.945 247.303 L 416.003 258.925 C 415.979 259.074 415.85 259.167 415.7 259.142 L 411.555 258.446 C 411.405 258.422 411.298 258.291 411.323 258.143 L 413.28 246.537 L 413.28 246.522 C 413.305 246.373 413.434 246.28 413.585 246.305 L 413.584 246.304 Z" style="fill: rgb(30, 30, 30);" transform="matrix(0.965926, -0.258819, 0.258819, 0.965926, -51.281198, 115.926298)"/>
  <path id="path83" d="M 425.107 283.062 L 420.962 283.757 C 420.319 283.866 419.883 284.475 419.991 285.12 L 421.932 296.741 C 422.04 297.386 422.65 297.819 423.294 297.711 L 427.453 297.016 C 428.098 296.908 428.532 296.299 428.424 295.654 L 426.481 284.034 C 426.373 283.389 425.749 282.953 425.104 283.062 L 425.107 283.062 Z M 425.266 283.975 C 425.414 283.95 425.545 284.041 425.57 284.193 L 427.512 295.8 C 427.536 295.949 427.443 296.079 427.295 296.104 L 423.15 296.8 C 423 296.824 422.87 296.731 422.846 296.582 L 420.904 284.975 C 420.879 284.825 420.97 284.696 421.122 284.671 L 425.266 283.975 Z" style="fill: rgb(30, 30, 30);" transform="matrix(0.965926, -0.258819, 0.258819, 0.965926, -60.702937, 119.687439)"/>
  <path id="path85" d="M 415.54 264.888 C 414.887 264.888 414.352 265.437 414.352 266.091 L 414.352 277.858 C 414.352 278.511 414.888 279.061 415.54 279.061 L 419.743 279.061 C 420.396 279.061 420.945 278.511 420.945 277.858 L 420.945 266.091 C 420.945 265.438 420.396 264.888 419.743 264.888 L 415.54 264.888 L 415.54 264.888 Z M 415.54 265.815 L 419.743 265.815 C 419.894 265.815 420.018 265.939 420.018 266.091 L 420.018 277.858 C 420.018 278.011 419.895 278.133 419.743 278.133 L 415.54 278.133 C 415.388 278.133 415.279 278.011 415.279 277.858 L 415.279 266.091 C 415.279 265.939 415.388 265.815 415.54 265.815 Z" style="fill: rgb(30, 30, 30);" transform="matrix(0.965926, -0.258819, 0.258819, 0.965926, -56.161082, 117.362481)"/>
  <path id="path87" d="M 413.006 243.419 C 412.547 243.343 412.103 243.465 411.731 243.68 C 411.359 243.895 411.026 244.212 410.948 244.68 L 408.528 259.128 C 408.45 259.596 408.666 260.007 408.948 260.331 C 409.23 260.656 409.605 260.921 410.064 260.998 L 416.266 262.027 C 416.726 262.104 417.169 261.981 417.541 261.766 C 417.913 261.551 418.246 261.234 418.324 260.766 L 420.744 246.319 C 420.823 245.852 420.606 245.455 420.324 245.131 C 420.042 244.807 419.667 244.542 419.208 244.464 L 413.006 243.421 L 413.006 243.419 Z M 412.861 244.332 L 419.049 245.376 C 419.221 245.405 419.467 245.553 419.629 245.738 C 419.79 245.924 419.838 246.134 419.831 246.173 L 417.412 260.62 C 417.405 260.659 417.291 260.83 417.078 260.954 C 416.866 261.076 416.599 261.141 416.426 261.113 L 410.224 260.07 C 410.052 260.041 409.806 259.908 409.645 259.722 C 409.484 259.537 409.435 259.326 409.442 259.287 L 411.863 244.826 C 411.869 244.787 411.983 244.616 412.196 244.493 C 412.409 244.37 412.69 244.305 412.863 244.333 L 412.861 244.332 Z" style="fill: rgb(30, 30, 30);" transform="matrix(0.965926, -0.258819, 0.258819, 0.965926, -51.281236, 115.92721)"/>
  <path id="path89" d="M 546.801 210.089 L 542.656 210.784 C 542.012 210.892 541.564 211.517 541.671 212.162 L 543.613 223.768 C 543.722 224.411 544.346 224.861 544.989 224.754 L 549.134 224.058 C 549.778 223.949 550.228 223.326 550.119 222.681 L 548.178 211.075 C 548.07 210.43 547.446 209.981 546.801 210.089 Z M 546.96 211.002 C 547.11 210.977 547.24 211.07 547.264 211.22 L 547.264 211.234 L 549.207 222.841 C 549.232 222.989 549.14 223.119 548.989 223.145 C 548.839 223.17 548.696 223.079 548.67 222.928 L 546.728 211.306 C 546.703 211.157 546.795 211.027 546.945 211.002 L 551.104 210.307 L 546.96 211.002 Z" style="fill: rgb(30, 30, 30);" transform="matrix(0.965926, -0.258819, 0.258819, 0.965926, -37.65535, 148.82189)"/>
  <path id="path91" d="M 555.555 247.625 C 554.91 247.515 554.287 247.952 554.178 248.595 L 552.237 260.217 C 552.13 260.86 552.578 261.471 553.221 261.579 L 557.366 262.274 C 558.01 262.382 558.635 261.948 558.743 261.304 L 560.684 249.682 C 560.794 249.038 560.342 248.429 559.7 248.32 L 555.555 247.625 Z M 555.396 248.538 L 559.54 249.234 C 559.69 249.259 559.797 249.388 559.772 249.538 L 557.815 261.145 C 557.79 261.294 557.66 261.387 557.511 261.363 L 553.367 260.666 C 553.218 260.642 553.125 260.512 553.149 260.362 L 555.091 248.756 C 555.117 248.604 555.247 248.512 555.396 248.538 L 555.396 248.538 Z" style="fill: rgb(30, 30, 30);" transform="matrix(0.965926, -0.258819, 0.258819, 0.965926, -47.024746, 152.709658)"/>
  <path id="path93" d="M 550.664 228.682 C 550.01 228.682 549.476 229.232 549.476 229.885 L 549.476 241.652 C 549.476 242.305 550.011 242.854 550.664 242.854 L 554.866 242.854 C 555.519 242.854 556.069 242.305 556.069 241.652 L 556.069 229.885 C 556.069 229.232 555.52 228.682 554.866 228.682 L 550.664 228.682 L 550.664 228.682 Z M 550.664 229.609 L 554.866 229.609 C 555.019 229.609 555.141 229.733 555.141 229.885 L 555.141 241.652 C 555.141 241.805 555.019 241.927 554.866 241.927 L 550.664 241.927 C 550.511 241.927 550.403 241.805 550.403 241.652 L 550.403 229.885 C 550.403 229.733 550.512 229.609 550.664 229.609 Z" style="fill: rgb(30, 30, 30);" transform="matrix(0.965926, -0.258819, 0.258819, 0.965926, -42.186007, 151.10181)"/>
</svg>