<?xml version="1.0" encoding="utf-8"?>
<svg version="1.2" baseProfile="tiny" id="Layer_3" x="0px" y="0px" viewBox="0 0 1280 720" preserveAspectRatio="none" xmlns="http://www.w3.org/2000/svg">
  <path id="path3" d="M 477.964 282.857 C 476.174 282.813 473.501 282.859 468.631 282.946 C 458.933 283.115 410.788 283.298 409.683 283.298 C 408.906 283.298 407.97 283.599 407.18 284.388 C 406.391 285.176 405.678 286.392 404.884 288.333 C 404.625 288.964 404.193 290.382 403.529 292.75 C 402.866 295.117 401.987 298.327 400.997 302.229 C 399.018 310.036 396.529 320.587 394.081 332.47 C 389.183 356.235 384.482 385.37 384.482 408.822 L 384.482 414.68 C 384.482 438.135 389.183 467.267 394.081 491.03 C 396.531 502.914 399.018 513.433 401 521.239 C 401.992 525.144 402.869 528.383 403.533 530.75 C 404.196 533.117 404.63 534.536 404.887 535.168 C 405.681 537.107 406.395 538.325 407.184 539.114 C 407.972 539.904 408.907 540.202 409.687 540.202 C 410.794 540.202 458.936 540.387 468.634 540.557 C 473.505 540.64 476.177 540.658 477.968 540.614 C 479.76 540.571 480.683 540.437 481.826 540.173 C 482.489 540.019 484.423 539.474 487.096 538.701 C 489.771 537.927 493.144 536.955 496.43 535.992 C 503.004 534.062 509.297 532.193 509.297 532.193 L 508.767 530.368 C 508.767 530.368 502.472 532.237 495.9 534.167 C 492.615 535.13 489.265 536.133 486.596 536.905 C 483.925 537.678 481.861 538.243 481.413 538.348 C 480.334 538.596 479.652 538.717 477.938 538.76 C 476.226 538.802 473.534 538.756 468.663 538.671 L 468.634 538.671 C 458.819 538.493 410.974 538.304 409.689 538.304 C 409.27 538.304 409.004 538.267 408.511 537.773 C 408.018 537.279 407.371 536.264 406.627 534.446 C 406.5 534.137 406.019 532.555 405.361 530.206 C 404.703 527.859 403.817 524.674 402.828 520.783 C 400.853 513.003 398.381 502.483 395.939 490.632 C 391.054 466.934 386.369 437.868 386.369 414.67 L 386.369 408.811 C 386.369 385.61 391.054 356.544 395.939 332.844 C 398.381 320.994 400.853 310.473 402.828 302.693 C 403.816 298.803 404.702 295.589 405.361 293.242 C 406.02 290.894 406.501 289.34 406.627 289.03 C 407.371 287.211 408.018 286.196 408.511 285.704 C 409.004 285.211 409.27 285.174 409.689 285.174 C 410.975 285.174 458.82 284.992 468.636 284.821 L 468.665 284.821 C 473.537 284.734 476.231 284.689 477.946 284.73 C 479.659 284.772 480.34 284.894 481.421 285.142 L 481.618 285.201 C 482.169 285.335 484.031 285.845 486.594 286.584 C 489.265 287.356 492.614 288.328 495.899 289.293 C 502.469 291.222 508.766 293.091 508.766 293.091 L 509.296 291.294 C 509.296 291.294 503.003 289.426 496.429 287.496 C 493.143 286.532 489.77 285.559 487.095 284.786 C 484.429 284.014 482.498 283.468 481.828 283.314 C 480.688 283.051 479.765 282.887 477.974 282.844 L 477.964 282.857 Z" style="fill: rgb(30, 30, 30);" transform="matrix(0.965926, -0.258819, 0.258819, 0.965926, -91.33849, 129.693268)"/>
  <path id="path5" d="M 478.578 281.118 C 476.788 281.075 474.086 281.093 469.214 281.178 C 459.536 281.346 394.531 281.53 393.423 281.53 C 392.242 281.53 391.004 281.745 389.919 282.532 C 388.837 283.318 387.961 284.59 387.182 286.566 C 386.941 287.179 386.51 288.606 385.857 290.953 C 385.204 293.301 384.359 296.492 383.383 300.375 C 381.431 308.142 378.97 318.671 376.552 330.614 C 371.724 354.501 367.077 384.092 367.077 408.939 L 367.077 418.567 C 367.076 443.406 371.723 473.004 376.557 496.89 C 378.973 508.833 381.435 519.334 383.388 527.099 C 384.364 530.981 385.209 534.203 385.861 536.55 C 386.512 538.897 386.944 540.322 387.186 540.937 C 387.964 542.913 388.84 544.185 389.924 544.97 C 391.006 545.758 392.245 545.973 393.428 545.973 C 394.534 545.973 459.54 546.127 469.218 546.296 C 474.088 546.381 476.79 546.427 478.582 546.385 C 480.372 546.342 481.297 546.206 482.439 545.942 C 483.122 545.784 485.152 545.192 488.005 544.352 C 490.856 543.514 494.435 542.432 497.956 541.38 C 505 539.27 511.765 537.228 511.765 537.228 L 511.228 535.447 C 511.228 535.447 504.459 537.491 497.418 539.597 C 493.898 540.651 490.313 541.735 487.467 542.571 C 484.62 543.408 482.448 544.002 482.019 544.101 L 482.019 544.132 C 480.94 544.38 480.228 544.472 478.515 544.513 C 476.803 544.557 474.11 544.511 469.24 544.426 C 459.439 544.255 394.708 544.101 393.421 544.101 C 392.437 544.101 391.718 543.95 391.036 543.454 C 390.354 542.959 389.648 542.028 388.946 540.246 C 388.817 539.919 388.327 538.361 387.679 536.035 C 387.032 533.708 386.179 530.54 385.206 526.671 C 383.261 518.932 380.815 508.431 378.404 496.52 C 373.582 472.682 368.951 443.172 368.952 418.569 L 368.952 408.94 C 368.952 384.339 373.583 354.789 378.404 330.97 C 380.814 319.06 383.26 308.586 385.206 300.849 C 386.18 296.979 387.031 293.784 387.68 291.456 C 388.327 289.128 388.818 287.6 388.945 287.275 C 389.647 285.493 390.353 284.56 391.036 284.065 C 391.717 283.57 392.438 283.417 393.422 283.417 C 394.708 283.417 459.439 283.235 469.241 283.065 C 474.111 282.979 476.803 282.963 478.516 283.005 C 480.229 283.048 480.941 283.139 482.02 283.388 C 482.449 283.487 484.621 284.111 487.467 284.949 C 490.315 285.787 493.901 286.869 497.419 287.923 C 504.467 290.029 511.233 292.075 511.233 292.075 L 511.763 290.248 C 511.763 290.248 504.997 288.206 497.954 286.097 C 494.432 285.043 490.854 283.991 488.003 283.152 C 485.158 282.312 483.122 281.72 482.444 281.562 C 481.303 281.299 480.37 281.164 478.579 281.121 L 478.578 281.118 Z" style="fill: rgb(30, 30, 30);" transform="matrix(0.965926, -0.258819, 0.258819, 0.965926, -92.113032, 127.828721)"/>
  <path id="path7" d="M 534.432 474.976 L 532.812 475.945 C 534.603 478.93 536.642 480.421 538.877 480.421 L 597.884 480.421 L 745.163 480.421 L 804.199 480.421 C 806.433 480.421 808.443 478.93 810.236 475.945 L 808.616 474.974 C 806.986 477.678 805.601 478.536 804.196 478.536 L 745.157 478.536 L 597.877 478.536 L 538.872 478.536 C 537.46 478.536 536.051 477.68 534.426 474.971 L 534.432 474.976 Z" style="fill: rgb(30, 30, 30);" transform="matrix(0.965926, -0.258819, 0.258819, 0.965926, -100.755245, 190.080458)"/>
  <path id="path9" d="M 802.005 179.369 C 800.213 179.413 799.289 179.577 798.147 179.84 C 797.483 179.992 795.552 180.539 792.877 181.312 C 790.202 182.084 786.86 183.056 783.573 184.021 C 776.998 185.95 770.705 187.819 770.705 187.819 L 771.236 189.614 C 771.236 189.614 777.533 187.744 784.103 185.816 C 787.389 184.852 790.737 183.878 793.407 183.108 C 796.077 182.336 798.112 181.768 798.56 181.664 C 799.64 181.415 800.352 181.294 802.064 181.252 C 803.777 181.211 806.47 181.256 811.339 181.341 C 821.124 181.512 869.031 181.694 870.317 181.694 C 870.736 181.694 870.973 181.731 871.464 182.224 C 871.957 182.717 872.635 183.732 873.378 185.551 C 873.505 185.86 873.987 187.414 874.645 189.763 C 875.304 192.11 876.161 195.324 877.148 199.214 C 879.123 206.995 881.626 217.515 884.067 229.366 C 888.953 253.066 893.636 282.132 893.636 305.332 L 893.636 311.192 C 893.636 334.39 888.951 363.46 884.067 387.16 C 881.626 399.009 879.123 409.531 877.148 417.311 C 876.161 421.202 875.304 424.385 874.645 426.734 C 873.987 429.081 873.505 430.665 873.378 430.973 C 872.635 432.792 871.957 433.807 871.464 434.301 C 870.973 434.794 870.737 434.83 870.317 434.83 C 869.031 434.83 821.124 435.014 811.339 435.185 C 806.47 435.268 803.778 435.312 802.064 435.272 C 800.352 435.231 799.64 435.108 798.56 434.86 C 798.112 434.757 796.077 434.189 793.407 433.417 C 790.737 432.647 787.389 431.643 784.103 430.679 C 777.532 428.749 771.236 426.88 771.236 426.88 L 770.705 428.705 C 770.705 428.705 776.998 430.574 783.573 432.504 C 786.86 433.469 790.202 434.441 792.877 435.213 C 795.552 435.984 797.486 436.531 798.147 436.685 C 799.289 436.948 800.213 437.083 802.005 437.129 C 803.796 437.17 806.497 437.152 811.368 437.069 C 821.066 436.899 869.208 436.717 870.316 436.717 C 871.093 436.717 872.028 436.413 872.819 435.626 C 873.607 434.837 874.321 433.619 875.115 431.68 C 875.373 431.048 875.806 429.629 876.47 427.262 C 877.133 424.895 877.982 421.656 878.973 417.751 C 880.954 409.945 883.441 399.423 885.892 387.542 C 890.789 363.779 895.52 334.645 895.52 311.193 L 895.52 305.334 C 895.52 281.882 890.789 252.749 885.892 228.985 C 883.44 217.109 880.945 206.56 878.966 198.752 C 877.977 194.85 877.128 191.638 876.469 189.272 C 875.799 186.906 875.367 185.486 875.112 184.855 C 874.311 182.914 873.605 181.698 872.812 180.91 C 872.024 180.12 871.087 179.82 870.309 179.82 C 869.204 179.82 821.06 179.636 811.363 179.467 C 806.491 179.381 803.787 179.335 801.996 179.378 L 802.005 179.369 Z" style="fill: rgb(30, 30, 30);" transform="matrix(0.965926, -0.258819, 0.258819, 0.965926, -51.394855, 226.128805)"/>
  <path id="path11" d="M 801.422 173.632 C 799.631 173.676 798.677 173.811 797.535 174.075 C 796.854 174.232 794.822 174.825 791.97 175.665 C 789.119 176.504 785.54 177.555 782.018 178.61 C 774.971 180.717 768.206 182.761 768.206 182.761 L 768.765 184.587 C 768.765 184.587 775.505 182.542 782.546 180.436 C 786.067 179.382 789.651 178.3 792.497 177.462 C 795.344 176.624 797.544 176.001 797.974 175.901 C 799.053 175.652 799.735 175.559 801.449 175.518 C 803.162 175.476 805.853 175.492 810.724 175.576 C 820.526 175.749 885.287 175.93 886.572 175.93 C 887.557 175.93 888.276 176.082 888.958 176.578 C 889.639 177.074 890.344 178.004 891.047 179.788 C 891.175 180.114 891.637 181.641 892.284 183.969 C 892.931 186.297 893.785 189.492 894.758 193.362 C 896.703 201.101 899.178 211.572 901.589 223.483 C 906.41 247.303 911.041 276.849 911.041 301.452 L 911.041 311.081 C 911.041 335.684 906.41 365.2 901.589 389.021 C 899.178 400.929 896.703 411.433 894.758 419.171 C 893.785 423.04 892.931 426.206 892.284 428.535 C 891.638 430.862 891.177 432.42 891.047 432.746 C 890.346 434.528 889.639 435.46 888.958 435.955 C 888.276 436.45 887.557 436.602 886.572 436.602 C 885.285 436.602 820.526 436.753 810.724 436.926 C 805.853 437.012 803.161 437.055 801.449 437.014 C 799.736 436.972 799.053 436.88 797.974 436.632 L 797.974 436.602 C 797.545 436.503 795.344 435.909 792.497 435.071 C 789.651 434.233 786.064 433.152 782.546 432.097 C 775.505 429.992 768.765 427.948 768.765 427.948 L 768.206 429.742 C 768.206 429.742 774.971 431.786 782.015 433.894 C 785.538 434.949 789.114 436.028 791.966 436.868 C 794.818 437.706 796.849 438.3 797.531 438.458 C 798.674 438.721 799.627 438.856 801.418 438.899 C 803.209 438.943 805.88 438.897 810.753 438.812 C 820.43 438.641 885.465 438.487 886.572 438.487 C 887.755 438.487 888.963 438.275 890.047 437.487 C 891.131 436.698 892.007 435.429 892.785 433.453 C 893.027 432.839 893.457 431.413 894.11 429.066 C 894.762 426.717 895.607 423.495 896.583 419.613 C 898.536 411.848 900.997 401.346 903.414 389.406 C 908.249 365.518 912.925 335.922 912.925 311.083 L 912.925 301.455 C 912.925 276.614 908.249 247.018 903.414 223.133 C 900.997 211.188 898.536 200.659 896.583 192.893 C 895.607 189.01 894.762 185.818 894.11 183.471 C 893.457 181.124 893.027 179.698 892.785 179.083 C 892.005 177.107 891.129 175.836 890.047 175.05 C 888.964 174.263 887.755 174.048 886.572 174.048 C 885.465 174.048 820.431 173.865 810.753 173.695 C 805.872 173.599 803.196 173.581 801.406 173.624 L 801.422 173.632 Z" style="fill: rgb(30, 30, 30);" transform="matrix(0.965926, -0.258819, 0.258819, 0.965926, -50.624078, 227.989844)"/>
  <path id="path13" d="M 505.861 238.032 C 504.93 238.032 503.983 238.057 503.064 238.562 C 502.146 239.068 501.367 239.957 500.473 241.447 L 500.473 241.507 L 500.444 241.536 C 485.613 271.553 478.603 323.169 478.603 357.928 L 478.603 362.081 C 478.603 396.841 485.617 448.461 500.452 478.474 L 500.481 478.502 L 500.481 478.532 C 501.375 480.021 502.154 480.911 503.073 481.415 C 503.99 481.922 504.939 481.947 505.87 481.947 L 564.876 481.947 L 715.133 481.947 L 774.139 481.947 C 775.071 481.947 775.988 481.923 776.908 481.416 C 777.824 480.912 778.603 480.021 779.498 478.532 L 779.528 478.502 L 779.528 478.474 C 794.348 448.463 801.397 396.84 801.397 362.081 L 801.397 357.929 C 801.397 323.166 794.354 271.55 779.521 241.536 L 779.521 241.507 L 779.492 241.447 C 778.597 239.957 777.818 239.067 776.9 238.562 C 775.982 238.057 775.064 238.032 774.131 238.032 L 715.126 238.032 L 564.867 238.032 L 505.861 238.032 L 505.861 238.032 Z M 505.861 239.916 L 564.868 239.916 L 715.124 239.916 L 774.13 239.916 C 775.023 239.916 775.507 239.948 775.986 240.211 C 776.453 240.468 777.052 241.065 777.84 242.36 C 777.858 242.389 777.851 242.389 777.869 242.418 C 792.406 271.881 799.511 323.445 799.511 357.925 L 799.511 362.076 C 799.511 396.55 792.398 448.091 777.869 477.555 C 777.054 478.913 776.462 479.5 775.984 479.764 C 775.506 480.027 775.022 480.058 774.129 480.058 L 715.122 480.058 L 564.868 480.058 L 505.861 480.058 C 504.971 480.058 504.455 480.028 503.977 479.764 C 503.517 479.509 502.92 478.898 502.152 477.643 C 502.146 477.631 502.128 477.625 502.123 477.614 C 487.575 448.161 480.48 396.575 480.48 362.079 L 480.48 357.928 C 480.48 323.423 487.593 271.812 502.151 242.354 C 502.929 241.078 503.512 240.46 503.976 240.205 C 504.453 239.942 504.969 239.911 505.86 239.911 L 505.861 239.916 Z" style="fill: rgb(30, 30, 30);" transform="matrix(0.965926, -0.258819, 0.258819, 0.965926, -71.364701, 177.910667)"/>
  <path id="path15" d="M 475.806 239.567 C 473.57 239.567 471.531 241.085 469.741 244.071 L 471.36 245.043 C 472.987 242.333 474.396 241.45 475.806 241.45 L 534.812 241.45 L 682.091 241.45 L 741.126 241.45 C 742.536 241.45 743.917 242.333 745.543 245.043 L 747.164 244.072 C 745.363 241.085 743.357 239.567 741.124 239.567 L 682.088 239.567 L 534.811 239.567 L 475.804 239.567 L 475.806 239.567 Z" style="fill: rgb(30, 30, 30);" transform="matrix(0.965926, -0.258819, 0.258819, 0.965926, -41.980646, 165.735564)"/>
  <g id="g17" transform="matrix(1.084753, -0.290659, 0.290659, 1.084753, 266.806366, 249.799225)">
    <path id="path19" d="M453.166,177.22c-0.043-14.803-1.193-29.6-3.442-44.23c-0.111-0.727,0.445-1.419,1.247-1.547&#10;&#9;&#9;c0.804-0.127,1.548,0.366,1.66,1.099c2.28,14.808,3.438,29.789,3.476,44.771c0.001,0.558,0.001,0.836,0,1.393&#10;&#9;&#9;c-0.037,14.982-1.194,29.961-3.476,44.768c-0.113,0.736-0.856,1.227-1.66,1.1c-0.802-0.127-1.358-0.816-1.247-1.543&#10;&#9;&#9;c2.248-14.633,3.399-29.428,3.442-44.23v-1.578V177.22z" style="fill: rgb(30, 30, 30);"/>
  </g>
  <g id="g21" transform="matrix(1.084753, -0.290659, 0.290659, 1.084753, 266.806366, 249.799225)">
    <path id="path23" d="M459.777,177.294c-0.044-15.282-1.23-30.562-3.555-45.667c-0.115-0.75,0.462-1.465,1.29-1.595&#10;&#9;&#9;c0.829-0.131,1.597,0.375,1.714,1.133c2.354,15.288,3.552,30.759,3.588,46.227c0.002,0.576,0.002,0.862,0,1.437&#10;&#9;&#9;c-0.036,15.471-1.234,30.939-3.588,46.229c-0.117,0.758-0.885,1.266-1.714,1.133c-0.828-0.131-1.404-0.844-1.288-1.596&#10;&#9;&#9;c2.32-15.104,3.51-30.385,3.553-45.666c0.008-0.654,0.008-0.982,0.008-1.637L459.777,177.294z" style="fill: rgb(30, 30, 30);"/>
  </g>
  <g id="g25" transform="matrix(1.084753, -0.290659, 0.290659, 1.084753, 266.806366, 249.799225)">
    <path id="path27" d="M144.998,177.22c0.037-14.802,1.191-29.6,3.441-44.23c0.111-0.727-0.446-1.419-1.249-1.546&#10;&#9;&#9;c-0.802-0.126-1.547,0.365-1.661,1.098c-2.278,14.806-3.441,29.79-3.475,44.771c-0.001,0.558-0.001,0.836,0,1.393&#10;&#9;&#9;c0.035,14.982,1.194,29.961,3.475,44.768c0.114,0.736,0.857,1.229,1.661,1.102c0.803-0.125,1.36-0.818,1.249-1.545&#10;&#9;&#9;c-2.25-14.631-3.404-29.43-3.441-44.23v-1.578V177.22z" style="fill: rgb(30, 30, 30);"/>
  </g>
  <g id="g29" transform="matrix(1.084753, -0.290659, 0.290659, 1.084753, 266.806366, 249.799225)">
    <path id="path31" d="M138.386,177.294c0.043-15.282,1.232-30.56,3.552-45.667c0.115-0.75-0.459-1.464-1.288-1.595&#10;&#9;&#9;c-0.829-0.131-1.598,0.375-1.714,1.133c-2.35,15.29-3.554,30.758-3.586,46.227c-0.001,0.576-0.001,0.862,0,1.437&#10;&#9;&#9;c0.035,15.471,1.236,30.939,3.586,46.229c0.117,0.758,0.885,1.266,1.714,1.133c0.829-0.133,1.403-0.844,1.288-1.596&#10;&#9;&#9;c-2.322-15.105-3.51-30.385-3.552-45.666c-0.017-0.654-0.017-0.982-0.008-1.637L138.386,177.294z" style="fill: rgb(30, 30, 30);"/>
  </g>
  <g id="g33" transform="matrix(1.084753, -0.290659, 0.290659, 1.084753, 266.806366, 249.799225)">
    <path id="path35" d="M467.538,177.664c-0.047-15.872-1.4-31.745-4.057-47.394c-0.132-0.776,0.452-1.529,1.31-1.679&#10;&#9;&#9;c0.856-0.149,1.666,0.367,1.799,1.152c2.685,15.858,4.05,31.935,4.103,48.021c0.002,0.599,0.002,0.897,0,1.496&#10;&#9;&#9;c-0.053,16.087-1.418,32.161-4.103,48.021c-0.133,0.787-0.942,1.303-1.799,1.152c-0.857-0.148-1.443-0.902-1.312-1.68&#10;&#9;&#9;c2.656-15.643,4.011-31.521,4.059-47.393c0-0.672,0-1.015-0.009-1.693L467.538,177.664z" style="fill: rgb(30, 30, 30);"/>
  </g>
  <g id="g37" transform="matrix(1.084753, -0.290659, 0.290659, 1.084753, 266.806366, 249.799225)">
    <path id="path39" d="M476.33,177.53c-0.043-16.548-1.467-33.093-4.229-49.409c-0.138-0.81,0.473-1.593,1.366-1.749&#10;&#9;&#9;c0.896-0.157,1.735,0.382,1.873,1.2c2.801,16.531,4.235,33.295,4.275,50.063c0.002,0.622,0.002,0.934,0,1.559&#10;&#9;&#9;c-0.04,16.766-1.476,33.529-4.274,50.061c-0.139,0.822-0.979,1.357-1.874,1.201c-0.894-0.156-1.505-0.938-1.367-1.752&#10;&#9;&#9;c2.765-16.313,4.187-32.859,4.229-49.406c-0.008-0.705-0.008-1.057-0.008-1.763L476.33,177.53z" style="fill: rgb(30, 30, 30);"/>
  </g>
  <g id="g41" transform="matrix(1.084753, -0.290659, 0.290659, 1.084753, 266.806366, 249.799225)">
    <path id="path43" d="M487.565,177.697c-0.055-17.239-1.667-34.47-4.804-51.422&#10;&#9;&#9;c-0.156-0.843,0.464-1.667,1.393-1.845c0.928-0.177,1.811,0.37,1.969,1.223c3.187,17.186,4.811,34.67,4.863,52.154&#10;&#9;&#9;c0.002,0.648,0.002,0.975,0,1.625c-0.053,17.482-1.673,34.961-4.863,52.152c-0.157,0.852-1.041,1.4-1.969,1.223&#10;&#9;&#9;c-0.93-0.176-1.548-1.002-1.393-1.846c3.137-16.949,4.748-34.184,4.804-51.422c0.008-0.738,0.008-1.107,0-1.846V177.697z" style="fill: rgb(30, 30, 30);"/>
  </g>
  <g id="g45" transform="matrix(1.084753, -0.290659, 0.290659, 1.084753, 266.806366, 249.799225)">
    <path id="path47" d="M500.259,177.538c-0.053-18.236-1.766-36.464-5.081-54.396&#10;&#9;&#9;c-0.165-0.891,0.492-1.765,1.474-1.951c0.98-0.187,1.917,0.391,2.084,1.293c3.364,18.185,5.091,36.674,5.143,55.169&#10;&#9;&#9;c0.002,0.688,0.002,1.032,0,1.719c-0.052,18.494-1.777,36.98-5.144,55.168c-0.167,0.902-1.103,1.482-2.083,1.295&#10;&#9;&#9;c-0.981-0.189-1.639-1.061-1.474-1.953c3.32-17.93,5.027-36.162,5.081-54.395c0.009-0.771,0.009-1.167,0-1.947V177.538z" style="fill: rgb(30, 30, 30);"/>
  </g>
  <g id="g49" transform="matrix(1.084753, -0.290659, 0.290659, 1.084753, 266.806366, 249.799225)">
    <path id="path51" d="M514.287,177.128c-0.063-19.234-1.859-38.458-5.358-57.371&#10;&#9;&#9;c-0.174-0.941,0.435-1.844,1.365-2.021c0.932-0.177,1.833,0.447,2.01,1.397c3.546,19.156,5.36,38.634,5.417,58.12&#10;&#9;&#9;c0.001,0.724,0.001,1.085,0,1.808c-0.057,19.482-1.865,38.963-5.419,58.117c-0.176,0.951-1.075,1.578-2.008,1.4&#10;&#9;&#9;c-0.931-0.18-1.539-1.084-1.365-2.023c3.501-18.912,5.295-38.137,5.358-57.371c-0.008-0.839-0.008-1.25-0.008-2.063&#10;&#9;&#9;L514.287,177.128z" style="fill: rgb(30, 30, 30);"/>
  </g>
  <path id="path53" d="M 800.644 204.361 C 800.088 204.256 799.494 204.261 798.907 204.39 L 769.198 210.956 C 766.858 211.471 765.385 213.796 765.9 216.139 L 765.9 216.197 L 765.929 216.256 L 775.293 243.345 L 775.322 243.463 L 775.35 243.463 C 775.923 245.728 778.206 247.18 780.504 246.673 L 810.212 240.107 C 812.554 239.591 814.027 237.265 813.51 234.924 L 813.51 234.865 L 813.481 234.806 L 804.117 207.716 C 804.112 207.685 804.096 207.659 804.088 207.628 C 803.673 205.922 802.285 204.667 800.644 204.361 L 800.644 204.361 Z M 799.32 206.245 C 800.665 205.948 801.967 206.783 802.265 208.13 L 802.293 208.189 L 802.293 208.248 L 811.686 235.337 C 811.983 236.682 811.148 237.984 809.801 238.282 L 780.092 244.819 C 778.745 245.116 777.444 244.281 777.147 242.934 L 777.118 242.905 L 777.118 242.846 L 767.726 215.757 C 767.724 215.747 767.727 215.737 767.726 215.728 C 767.448 214.392 768.276 213.078 769.611 212.784 L 799.32 206.245 Z" style="fill: rgb(30, 30, 30);" transform="matrix(0.965926, -0.258819, 0.258819, 0.965926, -31.463075, 212.075522)"/>
  <path id="circle55" d="M 789.687 210.398 C 781.343 210.398 774.582 217.188 774.582 225.532 C 774.582 233.875 781.344 240.666 789.687 240.666 C 798.03 240.666 804.822 233.875 804.822 225.532 C 804.822 217.188 798.037 210.398 789.689 210.398 L 789.687 210.398 Z M 789.687 212.283 C 797.011 212.283 802.936 218.208 802.936 225.532 C 802.936 232.856 797.012 238.781 789.687 238.781 C 782.361 238.781 776.468 232.856 776.468 225.532 C 776.468 218.206 782.362 212.283 789.687 212.283 Z" style="fill: rgb(30, 30, 30);" transform="matrix(0.965926, -0.258819, 0.258819, 0.965926, -31.463531, 212.074717)"/>
  <path id="path57" d="M 837.814 185.318 C 837.258 185.213 836.663 185.218 836.077 185.347 L 806.369 191.884 C 804.029 192.399 802.555 194.724 803.07 197.066 L 803.07 197.125 L 803.1 197.184 L 812.463 224.273 L 812.493 224.391 L 812.522 224.391 C 813.093 226.656 815.378 228.106 817.674 227.6 L 847.384 221.063 C 849.722 220.548 851.195 218.193 850.682 215.851 L 850.682 215.792 L 850.653 215.763 L 841.289 188.645 C 841.282 188.614 841.266 188.588 841.26 188.557 C 840.844 186.85 839.455 185.625 837.814 185.318 L 837.814 185.318 Z M 836.487 187.172 C 837.833 186.875 839.134 187.71 839.43 189.056 L 839.46 189.115 L 839.46 189.174 L 848.852 216.263 C 849.148 217.609 848.313 218.911 846.968 219.207 L 817.259 225.744 C 815.914 226.041 814.612 225.206 814.314 223.86 L 814.285 223.831 L 814.285 223.772 L 804.893 196.683 C 804.891 196.673 804.894 196.664 804.893 196.653 C 804.615 195.318 805.442 194.003 806.777 193.709 L 836.495 187.174 L 836.487 187.172 Z" style="fill: rgb(30, 30, 30);" transform="matrix(0.965926, -0.258819, 0.258819, 0.965926, -25.263922, 221.046515)"/>
  <path id="circle59" d="M 826.894 191.353 C 818.552 191.353 811.76 198.115 811.76 206.458 C 811.76 214.8 818.552 221.591 826.894 221.591 C 835.238 221.591 841.999 214.799 841.999 206.458 C 841.999 198.115 835.236 191.353 826.894 191.353 Z M 826.894 193.237 C 834.218 193.237 840.114 199.133 840.114 206.458 C 840.114 213.782 834.218 219.707 826.894 219.707 C 819.571 219.707 813.645 213.782 813.645 206.458 C 813.645 199.133 819.57 193.237 826.894 193.237 Z" style="fill: rgb(30, 30, 30);" transform="matrix(0.965926, -0.258819, 0.258819, 0.965926, -25.263651, 221.047589)"/>
  <path id="path61" d="M 867.041 376.041 C 865.414 376.345 864.053 377.592 863.626 379.279 L 863.597 379.279 L 863.567 379.397 L 854.204 406.485 L 854.176 406.515 L 854.176 406.573 C 853.658 408.915 855.133 411.271 857.473 411.787 L 887.182 418.323 C 889.479 418.829 891.762 417.377 892.336 415.112 L 892.364 415.112 L 892.393 414.995 L 901.756 387.907 L 901.785 387.847 L 901.785 387.817 C 902.299 385.477 900.827 383.121 898.486 382.605 L 868.778 376.069 C 868.193 375.94 867.597 375.936 867.041 376.041 L 867.041 376.041 Z M 868.365 377.894 L 898.073 384.461 C 899.407 384.756 900.235 386.04 899.959 387.377 C 899.956 387.388 899.96 387.397 899.959 387.405 L 890.566 414.495 L 890.566 414.553 L 890.537 414.612 C 890.24 415.959 888.939 416.794 887.592 416.497 L 857.884 409.932 C 856.55 409.637 855.722 408.353 855.998 407.016 C 856.002 407.005 855.997 406.996 855.998 406.986 L 865.392 379.898 L 865.42 379.838 L 865.42 379.781 C 865.718 378.432 867.021 377.599 868.365 377.894 Z" style="fill: rgb(30, 30, 30);" transform="matrix(0.965926, -0.258819, 0.258819, 0.965926, -72.885272, 240.772068)"/>
  <path id="circle63" d="M 877.999 382.079 C 869.656 382.079 862.865 388.84 862.865 397.184 C 862.865 405.526 869.656 412.317 877.999 412.317 C 886.343 412.317 893.104 405.526 893.104 397.184 C 893.104 388.84 886.341 382.079 877.999 382.079 Z M 877.999 383.963 C 885.323 383.963 891.219 389.861 891.219 397.184 C 891.219 404.507 885.323 410.433 877.999 410.433 C 870.676 410.433 864.75 404.509 864.75 397.184 C 864.75 389.86 870.674 383.963 877.999 383.963 Z" style="fill: rgb(30, 30, 30);" transform="matrix(0.965926, -0.258819, 0.258819, 0.965926, -72.885827, 240.773361)"/>
  <path id="path65" d="M 825.317 378.11 C 823.69 378.413 822.329 379.661 821.902 381.348 L 821.873 381.348 L 821.844 381.466 L 812.48 408.554 L 812.452 408.614 L 812.452 408.642 C 811.935 410.984 813.41 413.34 815.75 413.854 L 845.459 420.392 C 847.769 420.898 850.084 419.466 850.641 417.181 C 850.648 417.151 850.665 417.124 850.669 417.093 L 860.033 389.975 L 860.062 389.947 L 860.062 389.887 C 860.58 387.547 859.106 385.191 856.764 384.675 L 827.055 378.139 C 826.471 378.009 825.876 378.005 825.317 378.11 L 825.317 378.11 Z M 826.643 379.963 L 856.352 386.531 C 857.687 386.825 858.515 388.112 858.236 389.446 C 858.235 389.455 858.239 389.466 858.236 389.474 L 848.845 416.562 L 848.845 416.622 L 848.815 416.681 C 848.519 418.026 847.217 418.861 845.871 418.566 L 816.163 412.007 C 814.826 411.713 814.001 410.428 814.278 409.092 C 814.279 409.083 814.276 409.074 814.278 409.064 L 823.671 381.976 L 823.671 381.916 L 823.699 381.857 C 823.996 380.51 825.298 379.677 826.644 379.972 L 826.643 379.963 Z" style="fill: rgb(30, 30, 30);" transform="matrix(0.965926, -0.258819, 0.258819, 0.965926, -74.842594, 230.04409)"/>
  <path id="circle67" d="M 836.24 384.15 C 827.896 384.15 821.135 390.941 821.135 399.285 C 821.135 407.629 827.897 414.388 836.24 414.388 C 844.583 414.388 851.375 407.626 851.375 399.285 C 851.375 390.941 844.583 384.15 836.24 384.15 Z M 836.24 386.034 C 843.564 386.034 849.489 391.958 849.489 399.285 C 849.489 406.608 843.565 412.504 836.24 412.504 C 828.914 412.504 823.021 406.608 823.021 399.285 C 823.021 391.958 828.915 386.034 836.24 386.034 Z" style="fill: rgb(30, 30, 30);" transform="matrix(0.965926, -0.258819, 0.258819, 0.965926, -74.843766, 230.04377)"/>
  <path id="path69" d="M 414.244 374.954 C 411.692 374.954 409.592 377.053 409.592 379.607 L 409.592 390.413 C 409.592 392.996 407.552 395.271 404.763 395.271 L 393.956 395.271 C 391.402 395.271 389.303 397.339 389.303 399.894 L 389.303 422.802 C 389.303 425.354 391.402 427.454 393.956 427.454 L 404.763 427.454 C 405.947 427.454 407.155 427.841 408.061 428.632 C 408.967 429.422 409.592 430.595 409.592 432.312 L 409.592 443.089 C 409.592 445.644 411.691 447.742 414.244 447.742 L 437.152 447.742 C 439.705 447.742 441.804 445.645 441.804 443.089 L 441.804 432.312 C 441.804 430.557 442.293 429.395 443.1 428.632 C 443.908 427.868 445.085 427.454 446.633 427.454 L 457.439 427.454 C 459.993 427.454 462.092 425.355 462.092 422.802 L 462.092 399.893 C 462.092 397.32 459.994 395.257 457.439 395.257 L 446.632 395.257 C 444.737 395.257 443.612 394.764 442.893 393.992 C 442.174 393.219 441.803 392.04 441.803 390.399 L 441.803 379.592 C 441.803 377.039 439.704 374.94 437.151 374.94 L 414.244 374.94 L 414.244 374.954 Z M 414.244 376.838 L 437.152 376.838 C 438.687 376.838 439.92 378.071 439.92 379.606 L 439.92 390.412 C 439.92 392.345 440.364 394.039 441.51 395.27 C 442.657 396.502 444.4 397.154 446.634 397.154 L 457.44 397.154 C 458.976 397.154 460.208 398.356 460.208 399.892 L 460.208 422.799 C 460.208 424.333 458.976 425.566 457.44 425.566 L 446.634 425.566 C 444.738 425.566 443.034 426.082 441.805 427.245 C 440.576 428.408 439.921 430.175 439.921 432.31 L 439.921 443.087 C 439.921 444.622 438.688 445.855 437.153 445.855 L 414.244 445.855 C 412.709 445.855 411.477 444.622 411.477 443.087 L 411.477 432.31 C 411.477 430.11 410.621 428.345 409.328 427.215 C 408.034 426.088 406.371 425.566 404.764 425.566 L 393.957 425.566 C 392.422 425.566 391.19 424.333 391.19 422.799 L 391.19 399.893 C 391.19 398.356 392.423 397.155 393.957 397.155 L 404.764 397.155 C 408.582 397.155 411.477 394.009 411.477 390.413 L 411.477 379.607 C 411.476 378.071 412.709 376.838 414.244 376.838 Z" style="fill: rgb(30, 30, 30);" transform="matrix(0.965926, -0.258819, 0.258819, 0.965926, -91.957651, 124.194829)"/>
  <g id="g71" transform="matrix(1.084753, -0.290659, 0.290659, 1.084753, 266.806366, 249.799225)">
    <path d="M214.576,253.787v-0.84v-0.84h171.275c6.782,0.034,13.987-5.523,15.46-12.22l0,0&#10;&#9;&#9;c4.438-21.566,6.657-42.906,6.657-64.246l0,0c0-21.331-2.219-42.662-6.653-64.204l0,0c-1.477-6.711-8.682-12.266-15.464-12.232l0,0&#10;&#9;&#9;c-38.064,0-76.124,0-114.184,0l0,0c-19.031,0-38.06,0-57.091,0l0,0c-6.784-0.034-13.985,5.521-15.458,12.218l0,0&#10;&#9;&#9;c-4.442,21.552-6.663,42.885-6.663,64.218l0,0c0,21.342,2.219,42.684,6.661,64.231l0,0c1.477,6.711,8.678,12.269,15.46,12.234l0,0&#10;&#9;&#9;v0.84V253.787c-7.649-0.033-15.352-5.961-17.1-13.56l0,0c-4.467-21.669-6.699-43.129-6.699-64.586l0,0&#10;&#9;&#9;c0-21.45,2.233-42.899,6.701-64.573l0,0c1.746-7.584,9.449-13.509,17.098-13.543l0,0c19.031,0.002,38.06,0,57.091,0l0,0&#10;&#9;&#9;c38.06,0,76.12,0,114.184,0l0,0c7.648,0.034,15.355,5.959,17.104,13.558l0,0c4.459,21.663,6.692,43.111,6.692,64.558l0,0&#10;&#9;&#9;c0,21.457-2.231,42.911-6.694,64.599l0,0c-1.746,7.586-9.453,13.514-17.102,13.547l0,0H214.576L214.576,253.787z" style="fill: rgb(30, 30, 30);"/>
  </g>
  <path id="path75" d="M 552.904 293.636 C 550.948 293.636 549.342 295.243 549.342 297.198 L 549.342 410.651 C 549.342 412.608 550.949 414.214 552.904 414.214 L 732.217 414.214 C 734.175 414.214 735.781 412.605 735.781 410.651 L 735.781 297.198 C 735.781 295.243 734.175 293.636 732.217 293.636 L 552.904 293.636 Z M 552.904 295.521 L 732.217 295.521 C 733.156 295.521 733.896 296.262 733.896 297.2 L 733.896 410.653 C 733.896 411.589 733.156 412.33 732.217 412.33 L 552.904 412.33 C 551.968 412.33 551.225 411.589 551.225 410.653 L 551.225 297.198 C 551.225 296.263 551.967 295.521 552.904 295.521 Z" style="fill: rgb(30, 30, 30);" transform="matrix(0.965926, -0.258819, 0.258819, 0.965926, -69.707765, 178.366826)"/>
  <path id="circle77" d="M 497.541 283.994 C 495.773 283.994 494.331 285.436 494.331 287.204 C 494.331 288.972 495.773 290.443 497.541 290.443 C 499.308 290.443 500.75 288.971 500.75 287.204 C 500.75 285.438 499.308 283.994 497.541 283.994 Z M 497.541 285.879 C 498.29 285.879 498.866 286.455 498.866 287.204 C 498.866 287.953 498.29 288.558 497.541 288.558 C 496.792 288.558 496.216 287.953 496.216 287.204 C 496.216 286.455 496.792 285.879 497.541 285.879 Z" style="fill: rgb(30, 30, 30);" transform="matrix(0.965926, -0.258819, 0.258819, 0.965926, -57.384335, 138.559668)"/>
  <path id="path79" d="M 425.751 376.992 C 417.881 376.992 411.471 383.373 411.471 391.243 C 411.471 393.607 410.956 394.979 410.058 395.807 C 409.16 396.635 407.692 397.073 405.465 397.073 C 397.595 397.073 391.214 403.453 391.214 411.324 C 391.214 419.194 397.595 425.604 405.465 425.604 C 409.225 425.604 411.472 428.257 411.472 431.817 C 411.472 439.687 417.882 446.067 425.752 446.067 C 433.623 446.067 440.032 439.686 440.032 431.817 C 440.032 429.536 440.605 428.035 441.592 427.076 C 442.581 426.116 444.085 425.603 446.156 425.603 C 454.026 425.603 460.407 419.193 460.407 411.323 C 460.407 403.451 454.025 397.072 446.156 397.072 C 444.074 397.072 442.539 396.764 441.592 396.011 C 440.646 395.259 440.032 393.938 440.032 391.241 C 440.031 383.372 433.621 376.992 425.751 376.992 L 425.751 376.992 Z M 425.751 378.875 C 432.603 378.875 438.148 384.39 438.148 391.242 C 438.148 394.242 438.908 396.285 440.414 397.485 C 441.921 398.683 443.923 398.957 446.156 398.957 C 453.008 398.957 458.523 404.472 458.523 411.324 C 458.523 418.176 453.008 423.72 446.156 423.72 C 443.769 423.72 441.726 424.332 440.296 425.722 C 438.867 427.111 438.147 429.201 438.147 431.818 C 438.147 438.67 432.603 444.184 425.75 444.184 C 418.897 444.184 413.354 438.67 413.354 431.818 C 413.354 427.4 410.161 423.72 405.463 423.72 C 398.61 423.72 393.096 418.176 393.096 411.324 C 393.096 404.471 398.61 398.957 405.463 398.957 C 407.922 398.957 409.947 398.485 411.352 397.191 C 412.757 395.896 413.354 393.891 413.354 391.243 C 413.355 384.39 418.898 378.875 425.751 378.875 Z" style="fill: rgb(30, 30, 30);" transform="matrix(0.965926, -0.258819, 0.258819, 0.965926, -92.002577, 124.230493)"/>
  <path id="path81" d="M 494.757 334.134 C 493.447 333.914 492.178 334.826 491.959 336.137 L 488.011 359.721 C 487.793 361.03 488.705 362.297 490.013 362.519 L 498.435 363.933 C 499.744 364.15 501.013 363.239 501.232 361.93 L 505.177 338.346 C 505.396 337.036 504.484 335.767 503.175 335.548 L 494.753 334.136 L 494.757 334.136 Z M 494.462 335.99 L 502.883 337.402 C 503.188 337.453 503.376 337.717 503.325 338.021 L 499.379 361.635 C 499.329 361.939 499.067 362.128 498.762 362.077 L 490.34 360.663 C 490.036 360.613 489.818 360.348 489.868 360.046 L 493.845 336.464 L 493.845 336.434 C 493.896 336.13 494.159 335.942 494.464 335.993 L 494.462 335.99 Z" style="fill: rgb(30, 30, 30);" transform="matrix(0.965926, -0.258819, 0.258819, 0.965926, -73.415423, 140.421139)"/>
  <path id="path83" d="M 517.876 410.681 L 509.454 412.094 C 508.147 412.315 507.261 413.553 507.481 414.862 L 511.426 438.476 C 511.645 439.786 512.885 440.667 514.194 440.448 L 522.644 439.035 C 523.954 438.816 524.836 437.577 524.617 436.267 L 520.669 412.656 C 520.45 411.346 519.182 410.46 517.871 410.681 L 517.876 410.681 Z M 518.199 412.536 C 518.501 412.485 518.767 412.671 518.818 412.979 L 522.763 436.563 C 522.813 436.866 522.624 437.131 522.322 437.181 L 513.9 438.596 C 513.596 438.645 513.332 438.456 513.283 438.153 L 509.337 414.569 C 509.285 414.263 509.47 414.001 509.779 413.951 L 518.199 412.536 Z" style="fill: rgb(30, 30, 30);" transform="matrix(0.965926, -0.258819, 0.258819, 0.965926, -92.560116, 148.063875)"/>
  <path id="path85" d="M 498.438 373.752 C 497.111 373.752 496.024 374.868 496.024 376.196 L 496.024 400.106 C 496.024 401.433 497.112 402.55 498.438 402.55 L 506.978 402.55 C 508.304 402.55 509.421 401.433 509.421 400.106 L 509.421 376.197 C 509.421 374.869 508.305 373.753 506.978 373.753 L 498.438 373.753 L 498.438 373.752 Z M 498.438 375.636 L 506.978 375.636 C 507.285 375.636 507.537 375.888 507.537 376.196 L 507.537 400.106 C 507.537 400.417 507.286 400.665 506.978 400.665 L 498.438 400.665 C 498.129 400.665 497.908 400.417 497.908 400.106 L 497.908 376.196 C 497.908 375.888 498.129 375.636 498.438 375.636 Z" style="fill: rgb(30, 30, 30);" transform="matrix(0.965926, -0.258819, 0.258819, 0.965926, -83.331069, 143.340192)"/>
  <path id="path87" d="M 493.288 330.129 C 492.355 329.973 491.453 330.222 490.697 330.659 C 489.941 331.096 489.266 331.74 489.107 332.691 L 484.189 362.049 C 484.03 362.999 484.47 363.834 485.043 364.493 C 485.615 365.152 486.377 365.691 487.31 365.847 L 499.913 367.939 C 500.847 368.095 501.747 367.845 502.504 367.408 C 503.26 366.972 503.935 366.327 504.095 365.377 L 509.012 336.021 C 509.172 335.071 508.732 334.266 508.158 333.607 C 507.585 332.948 506.823 332.41 505.89 332.252 L 493.288 330.132 L 493.288 330.129 Z M 492.993 331.984 L 505.567 334.104 C 505.917 334.163 506.417 334.464 506.745 334.841 C 507.073 335.218 507.171 335.646 507.156 335.724 L 502.241 365.08 C 502.227 365.16 501.996 365.507 501.563 365.758 C 501.131 366.007 500.59 366.139 500.238 366.082 L 487.635 363.962 C 487.285 363.904 486.786 363.633 486.459 363.256 C 486.131 362.879 486.033 362.451 486.047 362.372 L 490.965 332.988 C 490.979 332.908 491.209 332.56 491.643 332.311 C 492.075 332.06 492.647 331.928 492.997 331.986 L 492.993 331.984 Z" style="fill: rgb(30, 30, 30);" transform="matrix(0.965926, -0.258819, 0.258819, 0.965926, -73.415363, 140.422734)"/>
  <path id="path89" d="M 765.152 262.404 L 756.731 263.816 C 755.421 264.035 754.511 265.305 754.73 266.615 L 758.675 290.199 C 758.896 291.505 760.164 292.419 761.472 292.201 L 769.894 290.788 C 771.202 290.566 772.117 289.301 771.895 287.99 L 767.95 264.406 C 767.732 263.096 766.463 262.184 765.152 262.404 Z M 765.476 264.259 C 765.781 264.208 766.044 264.397 766.094 264.701 L 766.094 264.729 L 770.041 288.315 C 770.092 288.616 769.905 288.88 769.598 288.932 C 769.293 288.983 769.003 288.798 768.95 288.491 L 765.005 264.876 C 764.953 264.573 765.141 264.31 765.446 264.259 L 773.897 262.846 L 765.476 264.259 Z" style="fill: rgb(30, 30, 30);" transform="matrix(0.965926, -0.258819, 0.258819, 0.965926, -45.728306, 207.263682)"/>
  <path id="path91" d="M 782.94 338.674 C 781.63 338.451 780.364 339.339 780.143 340.646 L 776.198 364.26 C 775.982 365.567 776.891 366.809 778.199 367.028 L 786.62 368.441 C 787.93 368.66 789.199 367.779 789.418 366.469 L 793.363 342.855 C 793.585 341.546 792.667 340.308 791.362 340.087 L 782.94 338.674 Z M 782.617 340.529 L 791.037 341.944 C 791.343 341.994 791.561 342.257 791.509 342.562 L 787.533 366.146 C 787.483 366.449 787.218 366.638 786.916 366.589 L 778.494 365.174 C 778.192 365.124 778.002 364.861 778.052 364.556 L 781.998 340.972 C 782.05 340.664 782.314 340.478 782.617 340.529 L 782.617 340.529 Z" style="fill: rgb(30, 30, 30);" transform="matrix(0.965926, -0.258819, 0.258819, 0.965926, -64.766528, 215.16344)"/>
  <path id="path93" d="M 773.002 300.183 C 771.674 300.183 770.588 301.3 770.588 302.627 L 770.588 326.537 C 770.588 327.864 771.675 328.981 773.002 328.981 L 781.541 328.981 C 782.868 328.981 783.986 327.864 783.986 326.537 L 783.986 302.628 C 783.986 301.301 782.87 300.184 781.541 300.184 L 773.002 300.184 L 773.002 300.183 Z M 773.002 302.067 L 781.541 302.067 C 781.851 302.067 782.1 302.319 782.1 302.627 L 782.1 326.537 C 782.1 326.848 781.852 327.096 781.541 327.096 L 773.002 327.096 C 772.692 327.096 772.472 326.848 772.472 326.537 L 772.472 302.627 C 772.472 302.319 772.693 302.067 773.002 302.067 Z" style="fill: rgb(30, 30, 30);" transform="matrix(0.965926, -0.258819, 0.258819, 0.965926, -54.934409, 211.895858)"/>
</svg>