<?xml version="1.0" encoding="utf-8"?>
<svg id="svg2" enable-background="new 0 0 566.929 104.51" version="1.1" y="0px" x="0px" xmlns="http://www.w3.org/2000/svg">
  <polygon id="polygon12" points="432.61 68.958 384.13 86.539 432.92 86.539 451.48 76.296" style="fill: rgb(255, 255, 255);"/>
  <polygon id="polygon14" points="387.34 18.221 444.93 18.221 521.62 57.097 491.54 57.097 470.4 47.377 457.36 52.681" style="fill: rgb(255, 255, 255);"/>
  <polygon id="polygon16" points="494.6 36.031 543.09 18.458 494.3 18.458 475.75 28.693" style="fill: rgb(255, 255, 255);"/>
  <polygon id="polygon18" points="539.89 86.768 482.29 86.768 405.6 47.892 435.68 47.892 456.82 57.613 469.86 52.308" style="fill: rgb(255, 255, 255);"/>
  <rect id="rect20" height="46.65" width="38.175" y="17.749" x="23.837" style="fill: rgb(255, 255, 255);"/>
  <rect id="rect22" height="14.281" width="97.824" y="70.11" x="23.837" style="fill: rgb(255, 255, 255);"/>
  <polygon id="polygon24" points="85.87 17.749 131.21 17.749 162.23 43.926 139.81 60.375" style="fill: rgb(255, 255, 255);"/>
  <polygon id="polygon26" points="143.14 62.967 143.14 84.392 178.93 84.392 178.93 62.967 248.12 17.749 214.72 17.749 145.53 62.967" style="fill: rgb(255, 255, 255);"/>
  <polygon id="polygon28" points="252.9 24.885 291.07 48.686 291.07 84.392 252.9 84.392" style="fill: rgb(255, 255, 255);"/>
  <polygon id="polygon30" points="257.67 17.749 355.5 84.392 376.97 84.392 376.97 17.742 358.36 17.742 358.36 64.613 288.69 17.749" style="fill: rgb(255, 255, 255);"/>
</svg>