<?xml version="1.0" encoding="utf-8"?>
<svg id="svg2" enable-background="new 0 0 566.929 104.51" version="1.1" y="0px" x="0px" xmlns="http://www.w3.org/2000/svg">
  <polygon id="polygon12" points="157.447 19.727 138.774 26.498 157.566 26.498 164.715 22.553" style="fill: rgb(255, 255, 255);"/>
  <polygon id="polygon14" points="140.01 0.184 162.192 0.184 191.73 15.158 180.145 15.158 172.002 11.414 166.979 13.457" style="fill: rgb(255, 255, 255);"/>
  <polygon id="polygon16" points="181.323 7.044 200 0.276 181.208 0.276 174.063 4.218" style="fill: rgb(255, 255, 255);"/>
  <polygon id="polygon18" points="198.767 26.587 176.582 26.587 147.043 11.613 158.629 11.613 166.771 15.357 171.794 13.314" style="fill: rgb(255, 255, 255);"/>
  <rect id="rect20" height="17.968" width="14.704" y="0.003" style="fill: rgb(255, 255, 255);"/>
  <rect id="rect22" height="5.501" width="37.679" y="20.171" style="fill: rgb(255, 255, 255);"/>
  <polygon id="polygon24" points="23.893 0.003 41.357 0.003 53.305 10.085 44.669 16.421" style="fill: rgb(255, 255, 255);"/>
  <polygon id="polygon26" points="45.952 17.419 45.952 25.671 59.737 25.671 59.737 17.419 86.387 0.003 73.522 0.003 46.872 17.419" style="fill: rgb(255, 255, 255);"/>
  <polygon id="polygon28" points="88.228 2.751 102.93 11.919 102.93 25.671 88.228 25.671" style="fill: rgb(255, 255, 255);"/>
  <polygon id="polygon30" points="90.065 0.003 127.746 25.671 136.016 25.671 136.016 0 128.848 0 128.848 18.053 102.013 0.003" style="fill: rgb(255, 255, 255);"/>
</svg>