<?xml version="1.0" encoding="utf-8"?>
<svg version="1.1" id="Ebene_2" x="0px" y="0px" enable-background="new 0 0 566.926 179.318" xmlns="http://www.w3.org/2000/svg">
  <path id="path788" d="M 50.795 46.474 L 50.795 58.606 L 52.689 58.606 L 52.689 47.639 L 54.443 47.639 C 54.443 47.639 55.715 47.633 56.152 48.205 C 56.521 48.69 56.588 49.566 56.588 50.159 C 56.588 50.795 56.55 51.773 56.335 52.133 C 56.013 52.68 55.485 52.789 54.998 52.789 L 53.841 52.789 L 53.841 53.864 L 55.503 53.864 C 55.503 53.864 57.004 53.93 57.652 53.273 C 58.443 52.465 58.643 51.386 58.643 49.94 C 58.643 48.622 58.167 47.296 57.191 46.849 C 56.384 46.474 54.928 46.474 54.928 46.474 L 50.795 46.474 L 50.795 46.474 Z" style="fill: rgb(255, 255, 255);"/>
  <polygon id="polygon790" points="60.13 58.606 62.028 58.606 62.028 46.474 60.13 46.474" style="fill: rgb(255, 255, 255);"/>
  <polygon id="polygon792" points="72.094 49.3 75.559 58.382 73.571 63.25 75.142 63.25 80.867 49.3 79.114 49.3 76.619 56.1 74.297 49.3" style="fill: rgb(255, 255, 255);"/>
  <path id="path794" d="M 82.294 58.527 L 82.294 57.383 C 82.294 57.383 84.296 57.461 84.712 57.461 C 85.637 57.461 86.097 57.263 86.443 56.894 C 86.649 56.673 86.835 55.681 86.835 55.33 C 86.835 54.974 86.769 54.214 86.631 53.905 C 86.489 53.599 86.167 53.314 85.681 53.275 C 85.338 53.243 84.802 53.177 84.181 53.147 C 83.307 53.107 82.729 52.648 82.449 52.323 C 82.175 51.992 81.804 51.504 81.804 49.984 C 81.804 48.472 82.196 47.626 82.587 47.23 C 82.982 46.835 83.558 46.662 83.998 46.585 C 84.503 46.496 85.335 46.49 85.335 46.49 L 87.987 46.569 L 87.987 47.714 C 87.987 47.714 86.052 47.639 85.637 47.639 C 84.712 47.639 84.435 47.834 84.088 48.205 C 83.886 48.429 83.726 49.039 83.726 49.393 C 83.726 49.742 83.767 50.452 83.904 50.758 C 84.043 51.067 84.367 51.349 84.85 51.393 C 85.193 51.418 85.73 51.488 86.351 51.519 C 87.229 51.562 87.806 52.015 88.082 52.345 C 88.359 52.675 88.73 53.368 88.73 54.881 C 88.73 56.394 88.336 57.475 87.944 57.865 C 87.552 58.264 86.977 58.438 86.536 58.514 C 86.028 58.606 85.196 58.606 85.196 58.606 L 82.294 58.527 L 82.294 58.527 Z" style="fill: rgb(255, 255, 255);"/>
  <path id="path796" d="M 92.622 47.639 L 90.73 47.639 L 90.73 56.539 C 90.73 56.539 90.776 57.351 90.821 57.634 C 90.869 57.921 91.285 58.604 92.369 58.604 L 94.331 58.562 L 94.331 57.42 C 94.331 57.42 93.797 57.46 93.478 57.46 C 93.153 57.46 92.758 57.436 92.691 56.885 C 92.621 56.341 92.621 55.683 92.621 55.683 L 92.621 50.442 L 94.758 50.442 L 94.758 49.3 L 92.621 49.3 L 92.622 47.639 L 92.622 47.639 Z" style="fill: rgb(255, 255, 255);"/>
  <polygon id="polygon798" points="110.887 58.606 112.781 58.606 112.781 49.3 110.887 49.3" style="fill: rgb(255, 255, 255);"/>
  <polygon id="polygon800" points="110.887 48.163 112.781 48.163 112.781 46.474 110.887 46.474" style="fill: rgb(255, 255, 255);"/>
  <path id="path802" d="M 118.763 49.223 C 120.051 49.223 121.05 49.513 121.587 49.947 C 122.128 50.383 122.793 51.298 122.793 53.952 C 122.793 56.607 122.128 57.52 121.587 57.961 C 121.05 58.395 120.051 58.684 118.763 58.684 C 117.472 58.684 116.476 58.395 115.937 57.961 C 115.398 57.52 114.733 56.607 114.733 53.952 C 114.733 51.299 115.398 50.384 115.937 49.947 C 116.476 49.514 117.472 49.223 118.763 49.223 Z M 117.468 51.008 C 117.206 51.327 116.89 52.004 116.89 53.952 C 116.89 55.906 117.206 56.577 117.468 56.896 C 117.725 57.214 118.202 57.43 118.822 57.43 C 119.444 57.43 119.919 57.215 120.183 56.896 C 120.441 56.578 120.76 55.906 120.76 53.952 C 120.76 52.004 120.442 51.328 120.183 51.008 C 119.919 50.69 119.443 50.478 118.822 50.478 C 118.202 50.478 117.724 50.69 117.468 51.008 Z" style="fill: rgb(255, 255, 255);"/>
  <path id="path804" d="M 126.716 50.611 L 128.57 50.531 C 129.058 50.531 129.627 50.663 129.903 51.012 C 130.163 51.344 130.325 51.737 130.325 52.373 L 130.325 58.591 L 132.22 58.591 L 132.22 52.218 C 132.22 51.012 131.85 50.314 131.293 49.874 C 130.498 49.243 129.078 49.299 129.078 49.299 L 124.834 49.38 L 124.834 58.59 L 126.716 58.59 L 126.716 50.611 L 126.716 50.611 Z" style="fill: rgb(255, 255, 255);"/>
  <path id="path806" d="M 107.124 47.639 L 105.228 47.639 L 105.228 56.539 C 105.228 56.539 105.273 57.351 105.32 57.634 C 105.366 57.921 105.779 58.604 106.865 58.604 L 108.829 58.562 L 108.829 57.42 C 108.829 57.42 108.296 57.46 107.974 57.46 C 107.654 57.46 107.258 57.436 107.189 56.885 C 107.123 56.341 107.123 55.683 107.123 55.683 L 107.123 50.442 L 109.254 50.442 L 109.254 49.3 L 107.123 49.3 L 107.123 47.639 L 107.124 47.639 Z" style="fill: rgb(255, 255, 255);"/>
  <path id="path808" d="M 69.208 52.374 C 69.208 51.738 69.045 51.345 68.786 51.013 C 68.509 50.664 67.937 50.533 67.451 50.533 L 64.954 50.612 L 64.954 49.382 L 67.961 49.301 C 67.961 49.301 69.382 49.245 70.177 49.876 C 70.73 50.315 71.102 51.014 71.102 52.22 L 71.102 58.504 L 67.473 58.582 C 67.473 58.582 65.828 58.59 65.003 58.252 C 64.195 57.924 63.755 57.023 63.755 55.775 C 63.755 54.57 64.126 53.866 64.68 53.426 C 65.476 52.797 66.894 52.858 66.894 52.858 L 68.054 52.858 L 68.054 53.933 L 67.403 53.933 C 66.918 53.933 66.417 54.023 66.141 54.369 C 65.879 54.702 65.741 54.986 65.741 55.622 C 65.741 56.455 65.903 56.829 66.295 57.113 C 66.641 57.365 67.262 57.42 67.957 57.42 L 69.208 57.342 L 69.208 52.374 L 69.208 52.374 Z" style="fill: rgb(255, 255, 255);"/>
  <path id="path810" d="M 101.127 52.374 C 101.127 51.738 100.968 51.345 100.708 51.013 C 100.429 50.664 99.859 50.533 99.374 50.533 L 96.879 50.612 L 96.879 49.382 L 99.88 49.301 C 99.88 49.301 101.302 49.245 102.097 49.876 C 102.651 50.315 103.019 51.014 103.019 52.22 L 103.019 58.504 L 99.395 58.582 C 99.395 58.582 97.75 58.59 96.921 58.252 C 96.117 57.924 95.675 57.023 95.675 55.775 C 95.675 54.57 96.048 53.866 96.599 53.426 C 97.395 52.797 98.817 52.858 98.817 52.858 L 99.973 52.858 L 99.973 53.933 L 99.323 53.933 C 98.841 53.933 98.335 54.023 98.06 54.369 C 97.801 54.702 97.66 54.986 97.66 55.622 C 97.66 56.455 97.826 56.829 98.214 57.113 C 98.56 57.365 99.184 57.42 99.877 57.42 L 101.127 57.342 L 101.127 52.374 L 101.127 52.374 Z" style="fill: rgb(255, 255, 255);"/>
  <path id="path816" d="M 149.201 48.043 C 149.225 49.441 149.157 50.177 148.687 50.876 C 148.273 51.491 147.453 52.051 145.641 52.051 L 143.393 51.985 C 143.037 51.991 142.12 52.095 141.685 52.56 C 141.313 52.962 141.284 53.263 141.246 54.333 L 141.246 57.472 L 148.887 57.472 L 148.887 59.009 L 140.534 59.009 L 140.133 59.006 C 139.565 59.006 139.007 58.621 139.007 57.85 L 139.007 55.509 C 139.047 52.774 139.243 52.382 139.837 51.665 C 140.249 51.169 141.217 50.614 142.391 50.555 C 142.622 50.545 143.056 50.515 143.666 50.532 C 144.11 50.552 144.554 50.564 144.749 50.568 C 145.79 50.578 146.169 50.386 146.454 50.014 C 146.779 49.594 146.954 49.098 146.954 48.286 C 146.954 47.526 146.798 46.809 146.508 46.476 C 146.157 46.091 145.821 45.833 144.844 45.833 C 142.372 45.827 139.488 45.892 139.488 45.892 L 139.488 44.44 C 139.488 44.44 142.307 44.32 145.182 44.278 C 146.972 44.247 147.959 44.723 148.461 45.378 C 148.991 46.06 149.177 46.705 149.201 48.043 L 149.201 48.043 Z" style="fill: rgb(255, 255, 255);"/>
  <polygon points="197.532 2.465 197.532 16.012 137.692 16.012 137.692 34.488 200 34.488 200 32.024 140.158 32.024 140.158 18.477 200 18.477 200 0 137.692 0 137.692 2.465" style="fill: rgb(255, 255, 255);"/>
  <polygon points="128.458 0 128.458 2.465 96.675 2.465 96.675 34.488 62.308 34.488 62.308 32.024 94.091 32.024 94.091 0" style="fill: rgb(255, 255, 255);"/>
  <polygon points="2.465 34.488 2.465 18.477 62.308 18.477 62.308 0 0 0 0 2.425 59.845 2.465 59.845 16.012 0 16.012 0 34.488" style="fill: rgb(255, 255, 255);"/>
</svg>