<?xml version="1.0" encoding="utf-8"?>
<svg version="1.1" id="Ebene_2" x="0px" y="0px" width="566.926px" height="179.318px" viewBox="0 0 566.926 179.318" enable-background="new 0 0 566.926 179.318" xmlns="http://www.w3.org/2000/svg">
  <g>
    <path id="path788" d="M 143.985 131.738 L 143.985 166.125 L 149.355 166.125 L 149.355 135.038 L 154.327 135.038 C 154.327 135.038 157.931 135.023 159.169 136.642 C 160.215 138.017 160.407 140.5 160.407 142.183 C 160.407 143.986 160.297 146.758 159.69 147.777 C 158.775 149.328 157.28 149.636 155.899 149.636 L 152.619 149.636 L 152.619 152.684 L 157.331 152.684 C 157.331 152.684 161.586 152.872 163.421 151.008 C 165.664 148.718 166.231 145.66 166.231 141.562 C 166.231 137.826 164.881 134.068 162.115 132.799 C 159.827 131.736 155.701 131.736 155.701 131.736 L 143.985 131.738 L 143.985 131.738 Z" style="fill: rgb(255, 255, 255);"/>
    <polygon id="polygon790" points="170.447 166.125 175.827 166.125 175.827 131.738 170.447 131.738" style="fill: rgb(255, 255, 255);"/>
    <polygon id="polygon792" points="204.361 139.748 214.182 165.491 208.546 179.291 213.001 179.291 229.229 139.748 224.258 139.748 217.187 159.022 210.604 139.748" style="fill: rgb(255, 255, 255);"/>
    <path id="path794" d="M 233.273 165.903 L 233.273 162.661 C 233.273 162.661 238.947 162.882 240.126 162.882 C 242.749 162.882 244.053 162.319 245.035 161.273 C 245.618 160.646 246.146 157.834 246.146 156.84 C 246.146 155.832 245.959 153.676 245.567 152.801 C 245.163 151.933 244.251 151.126 242.875 151.015 C 241.902 150.925 240.381 150.738 238.622 150.651 C 236.144 150.538 234.507 149.237 233.712 148.315 C 232.936 147.377 231.885 145.994 231.885 141.686 C 231.885 137.4 232.995 135.003 234.104 133.881 C 235.222 132.76 236.857 132.269 238.103 132.052 C 239.535 131.798 241.894 131.781 241.894 131.781 L 249.41 132.006 L 249.41 135.251 C 249.41 135.251 243.926 135.04 242.749 135.04 C 240.126 135.04 239.341 135.592 238.359 136.644 C 237.785 137.278 237.332 139.007 237.332 140.012 C 237.332 141 237.449 143.012 237.838 143.88 C 238.23 144.755 239.15 145.556 240.517 145.679 C 241.492 145.752 243.012 145.95 244.773 146.036 C 247.263 146.16 248.897 147.443 249.681 148.38 C 250.465 149.315 251.517 151.278 251.517 155.567 C 251.517 159.856 250.399 162.921 249.288 164.025 C 248.178 165.158 246.548 165.651 245.298 165.866 C 243.858 166.127 241.5 166.127 241.5 166.127 L 233.273 165.903 L 233.273 165.903 Z" style="fill: rgb(255, 255, 255);"/>
    <path id="path796" d="M 262.548 135.038 L 257.187 135.038 L 257.187 160.268 C 257.187 160.268 257.316 162.568 257.444 163.372 C 257.579 164.185 258.759 166.122 261.832 166.122 L 267.393 166.002 L 267.393 162.765 C 267.393 162.765 265.879 162.878 264.975 162.878 C 264.054 162.878 262.934 162.811 262.746 161.249 C 262.547 159.706 262.547 157.841 262.547 157.841 L 262.547 142.984 L 268.603 142.984 L 268.603 139.748 L 262.547 139.748 L 262.548 135.038 L 262.548 135.038 Z" style="fill: rgb(255, 255, 255);"/>
    <polygon id="polygon798" points="314.324 166.125 319.692 166.125 319.692 139.748 314.324 139.748" style="fill: rgb(255, 255, 255);"/>
    <polygon id="polygon800" points="314.324 136.524 319.692 136.524 319.692 131.738 314.324 131.738" style="fill: rgb(255, 255, 255);"/>
    <path id="path802" d="M 336.649 139.53 C 340.299 139.53 343.131 140.351 344.654 141.582 C 346.189 142.818 348.072 145.411 348.072 152.935 C 348.072 160.459 346.189 163.049 344.654 164.298 C 343.132 165.527 340.3 166.347 336.649 166.347 C 332.991 166.347 330.167 165.527 328.639 164.298 C 327.112 163.049 325.225 160.459 325.225 152.935 C 325.225 145.414 327.112 142.821 328.639 141.582 C 330.166 140.353 332.991 139.53 336.649 139.53 Z M 332.977 144.588 C 332.236 145.493 331.34 147.412 331.34 152.934 C 331.34 158.472 332.236 160.374 332.977 161.279 C 333.706 162.18 335.06 162.794 336.815 162.794 C 338.579 162.794 339.926 162.183 340.674 161.279 C 341.407 160.377 342.31 158.472 342.31 152.934 C 342.31 147.413 341.409 145.496 340.674 144.588 C 339.926 143.687 338.577 143.087 336.815 143.087 C 335.06 143.087 333.705 143.687 332.977 144.588 Z" style="fill: rgb(255, 255, 255);"/>
    <path id="path804" d="M 359.193 143.463 L 364.448 143.238 C 365.833 143.238 367.445 143.611 368.226 144.599 C 368.963 145.54 369.424 146.655 369.424 148.457 L 369.424 166.083 L 374.795 166.083 L 374.795 148.018 C 374.795 144.599 373.746 142.622 372.168 141.374 C 369.914 139.585 365.889 139.745 365.889 139.745 L 353.859 139.974 L 353.859 166.08 L 359.193 166.08 L 359.193 143.463 L 359.193 143.463 Z" style="fill: rgb(255, 255, 255);"/>
    <path id="path806" d="M 303.656 135.038 L 298.282 135.038 L 298.282 160.268 C 298.282 160.268 298.409 162.568 298.542 163.372 C 298.673 164.185 299.845 166.122 302.923 166.122 L 308.489 166.002 L 308.489 162.765 C 308.489 162.765 306.98 162.878 306.065 162.878 C 305.158 162.878 304.036 162.811 303.842 161.249 C 303.654 159.706 303.654 157.841 303.654 157.841 L 303.654 142.984 L 309.696 142.984 L 309.696 139.748 L 303.655 139.748 L 303.655 135.038 L 303.656 135.038 Z" style="fill: rgb(255, 255, 255);"/>
    <path id="path808" d="M 196.178 148.46 C 196.178 146.657 195.718 145.543 194.984 144.602 C 194.197 143.614 192.577 143.243 191.2 143.243 L 184.121 143.466 L 184.121 139.98 L 192.643 139.751 C 192.643 139.751 196.673 139.591 198.927 141.38 C 200.492 142.625 201.548 144.605 201.548 148.024 L 201.548 165.837 L 191.26 166.058 C 191.26 166.058 186.598 166.081 184.259 165.123 C 181.969 164.193 180.722 161.638 180.722 158.102 C 180.722 154.687 181.774 152.691 183.344 151.443 C 185.599 149.66 189.619 149.833 189.619 149.833 L 192.907 149.833 L 192.907 152.881 L 191.063 152.881 C 189.688 152.881 188.268 153.134 187.486 154.117 C 186.742 155.061 186.35 155.866 186.35 157.667 C 186.35 160.029 186.81 161.089 187.922 161.894 C 188.903 162.608 190.663 162.764 192.632 162.764 L 196.178 162.544 L 196.178 148.46 L 196.178 148.46 Z" style="fill: rgb(255, 255, 255);"/>
    <path id="path810" d="M 286.659 148.46 C 286.659 146.657 286.206 145.543 285.471 144.602 C 284.678 143.614 283.062 143.243 281.689 143.243 L 274.617 143.466 L 274.617 139.98 L 283.122 139.751 C 283.122 139.751 287.154 139.591 289.407 141.38 C 290.978 142.625 292.021 144.605 292.021 148.024 L 292.021 165.837 L 281.749 166.058 C 281.749 166.058 277.085 166.081 274.736 165.123 C 272.456 164.193 271.202 161.638 271.202 158.102 C 271.202 154.687 272.26 152.691 273.821 151.443 C 276.078 149.66 280.109 149.833 280.109 149.833 L 283.387 149.833 L 283.387 152.881 L 281.544 152.881 C 280.177 152.881 278.743 153.134 277.964 154.117 C 277.23 155.061 276.829 155.866 276.829 157.667 C 276.829 160.029 277.3 161.089 278.401 161.894 C 279.382 162.608 281.15 162.764 283.114 162.764 L 286.659 162.544 L 286.659 148.46 L 286.659 148.46 Z" style="fill: rgb(255, 255, 255);"/>
    <path id="path816" d="M 422.93 136.184 C 422.998 140.146 422.805 142.232 421.473 144.215 C 420.299 145.957 417.975 147.546 412.838 147.546 L 406.465 147.357 C 405.457 147.376 402.858 147.67 401.625 148.989 C 400.57 150.129 400.487 150.982 400.381 154.015 L 400.381 162.911 L 422.041 162.911 L 422.041 167.268 L 398.363 167.268 L 397.225 167.261 C 395.616 167.261 394.034 166.169 394.034 163.984 L 394.034 157.348 C 394.147 149.596 394.701 148.485 396.385 146.451 C 397.553 145.046 400.297 143.472 403.625 143.305 C 404.281 143.276 405.51 143.192 407.239 143.239 C 408.498 143.295 409.758 143.331 410.31 143.341 C 413.261 143.371 414.335 142.827 415.143 141.77 C 416.064 140.582 416.559 139.175 416.559 136.874 C 416.559 134.718 416.119 132.686 415.296 131.743 C 414.302 130.65 413.348 129.921 410.579 129.921 C 403.572 129.902 395.397 130.088 395.397 130.088 L 395.397 125.972 C 395.397 125.972 403.387 125.632 411.536 125.512 C 416.61 125.425 419.408 126.774 420.831 128.63 C 422.334 130.562 422.863 132.391 422.93 136.184 L 422.93 136.184 Z" style="fill: rgb(255, 255, 255);"/>
  </g>
  <g>
    <g>
      <polygon points="559.93 6.986 559.93 45.387 390.307 45.387 390.307 97.762 566.926 97.762 566.926 90.777 397.297 90.777 397.297 52.375 566.926 52.375 566.926 0 390.307 0 390.307 6.986" style="fill: rgb(255, 255, 255);"/>
      <polygon points="364.131 0 364.131 6.986 274.038 6.986 274.038 97.762 176.62 97.762 176.62 90.777 266.713 90.777 266.713 0" style="fill: rgb(255, 255, 255);"/>
      <polygon points="6.986 97.762 6.986 52.375 176.62 52.375 176.62 0 0 0 0 6.873 169.639 6.986 169.639 45.387 0 45.387 0 97.762" style="fill: rgb(255, 255, 255);"/>
    </g>
  </g>
</svg>