<?xml version="1.0" encoding="utf-8"?>
<svg version="1.1" id="Layer_4" x="0px" y="0px" enable-background="new 0 0 598.191 350.257" preserveAspectRatio="none" xmlns="http://www.w3.org/2000/svg">
  <g transform="matrix(0.62975, -0.168741, 0.168741, 0.62975, 275.278503, 246.999329)">
    <path d="M90.916,323.569c-4.157,0-7.526-3.37-7.528-7.525l0,0V186.645c0.002-4.158,3.372-7.528,7.528-7.528l0,0&#10;&#9;&#9;&#9;h268.12c4.159,0,7.528,3.37,7.528,7.528l0,0v129.398c0,4.155-3.369,7.525-7.528,7.525l0,0H90.916L90.916,323.569z M85.388,186.645&#10;&#9;&#9;&#9;v129.398c0.006,3.05,2.476,5.52,5.527,5.524l0,0h268.12c3.054-0.005,5.523-2.475,5.527-5.524l0,0V186.645&#10;&#9;&#9;&#9;c-0.004-3.054-2.474-5.523-5.527-5.527l0,0l-268.12-0.002C87.864,181.122,85.394,183.591,85.388,186.645L85.388,186.645z" style="fill: rgb(30, 30, 30);"/>
    <path d="M97.356,312.147c-2.096-0.002-3.795-1.699-3.798-3.796l0,0v-16.556c0.002-2.101,1.702-3.798,3.798-3.8l0,0&#10;&#9;&#9;&#9;h16.555c2.098,0.002,3.798,1.701,3.798,3.8l0,0v16.556c0,2.095-1.7,3.794-3.798,3.796l0,0H97.356L97.356,312.147z M95.561,291.795&#10;&#9;&#9;&#9;l-0.002,16.556c0.002,0.987,0.807,1.794,1.797,1.794l0,0h16.555c0.993,0,1.795-0.805,1.797-1.794l0,0v-16.556&#10;&#9;&#9;&#9;c-0.002-0.995-0.803-1.798-1.797-1.798l0,0H97.356C96.366,289.998,95.561,290.802,95.561,291.795L95.561,291.795z" style="fill: rgb(30, 30, 30);"/>
    <path d="M97.357,287.27c-2.097-0.002-3.797-1.702-3.797-3.799l0,0v-16.553c0-2.099,1.7-3.799,3.797-3.799l0,0&#10;&#9;&#9;&#9;h16.555c2.097,0,3.797,1.7,3.797,3.799l0,0v16.553c0,2.097-1.698,3.797-3.797,3.799l0,0H97.357L97.357,287.27z M95.561,266.918&#10;&#9;&#9;&#9;v16.553c0.002,0.992,0.807,1.797,1.796,1.797l0,0h16.555c0.992,0,1.796-0.805,1.796-1.797l0,0l0.002-16.553&#10;&#9;&#9;&#9;c-0.002-0.994-0.804-1.798-1.798-1.798l0,0H97.357C96.365,265.121,95.563,265.924,95.561,266.918L95.561,266.918z" style="fill: rgb(30, 30, 30);"/>
    <path d="M121.212,287.268c-2.099,0-3.799-1.698-3.799-3.797l0,0v-16.553c0-2.099,1.701-3.799,3.799-3.799l0,0&#10;&#9;&#9;&#9;h16.55c2.099,0,3.799,1.7,3.799,3.799l0,0v16.553c0,2.097-1.701,3.797-3.799,3.799l0,0L121.212,287.268L121.212,287.268z&#10;&#9;&#9;&#9; M119.413,266.918v16.553c0,0.992,0.807,1.797,1.799,1.797l0,0h16.55c0.994,0,1.799-0.805,1.799-1.797l0,0v-16.553&#10;&#9;&#9;&#9;c0-0.994-0.805-1.798-1.799-1.798l0,0h-16.55C120.218,265.121,119.413,265.924,119.413,266.918L119.413,266.918z" style="fill: rgb(30, 30, 30);"/>
    <path d="M144.917,287.268c-2.099,0-3.797-1.7-3.797-3.797l0,0v-16.553c0-2.099,1.701-3.799,3.797-3.799l0,0h16.555&#10;&#9;&#9;&#9;c2.097,0,3.797,1.698,3.797,3.799l0,0v16.553c0,2.099-1.701,3.797-3.797,3.799l0,0L144.917,287.268L144.917,287.268z&#10;&#9;&#9;&#9; M143.12,266.918v16.553c0,0.992,0.805,1.797,1.796,1.797l0,0h16.555c0.99,0,1.796-0.805,1.796-1.797l0,0l0.002-16.553&#10;&#9;&#9;&#9;c-0.002-0.994-0.809-1.798-1.799-1.798l0,0h-16.555C143.925,265.121,143.12,265.924,143.12,266.918L143.12,266.918z" style="fill: rgb(30, 30, 30);"/>
    <path d="M168.77,287.268c-2.099,0-3.797-1.7-3.797-3.797l0,0v-16.553c0-2.099,1.698-3.799,3.797-3.799l0,0h16.553&#10;&#9;&#9;&#9;c2.098,0,3.799,1.698,3.799,3.799l0,0v16.553c0,2.099-1.701,3.797-3.799,3.799l0,0L168.77,287.268L168.77,287.268z&#10;&#9;&#9;&#9; M166.971,266.918v16.553c0.002,0.992,0.807,1.797,1.799,1.797l0,0h16.553c0.992,0,1.796-0.805,1.798-1.797l0,0v-16.553&#10;&#9;&#9;&#9;c-0.002-0.994-0.807-1.798-1.798-1.798l0,0H168.77C167.777,265.121,166.973,265.924,166.971,266.918L166.971,266.918z" style="fill: rgb(30, 30, 30);"/>
    <path d="M192.476,287.27c-2.098-0.002-3.799-1.702-3.799-3.799l0,0v-16.553c0-2.099,1.701-3.799,3.799-3.799l0,0&#10;&#9;&#9;&#9;h16.553c2.097,0,3.797,1.7,3.797,3.799l0,0v16.553c0,2.097-1.698,3.797-3.797,3.799l0,0H192.476L192.476,287.27z M190.678,266.918&#10;&#9;&#9;&#9;v16.553c0.002,0.992,0.805,1.797,1.798,1.797l0,0h16.553c0.992,0,1.796-0.805,1.799-1.797l0,0v-16.553&#10;&#9;&#9;&#9;c-0.002-0.994-0.805-1.798-1.799-1.798l0,0h-16.553C191.482,265.121,190.68,265.924,190.678,266.918L190.678,266.918z" style="fill: rgb(30, 30, 30);"/>
    <path d="M216.329,287.27c-2.099-0.002-3.799-1.702-3.799-3.799l0,0v-16.553c0-2.099,1.701-3.799,3.799-3.799l0,0&#10;&#9;&#9;&#9;h16.553c2.096,0,3.797,1.7,3.797,3.799l0,0v16.553c0,2.097-1.698,3.797-3.797,3.799l0,0H216.329L216.329,287.27z M214.531,266.918&#10;&#9;&#9;&#9;v16.553c0,0.992,0.804,1.797,1.798,1.797l0,0h16.553c0.992,0,1.794-0.805,1.796-1.797l0,0v-16.553&#10;&#9;&#9;&#9;c-0.002-0.994-0.805-1.798-1.796-1.798l0,0h-16.553C215.335,265.121,214.531,265.924,214.531,266.918L214.531,266.918z" style="fill: rgb(30, 30, 30);"/>
    <path d="M240.034,287.27c-2.098-0.002-3.797-1.702-3.797-3.799l0,0v-16.553c0-2.099,1.701-3.799,3.797-3.799l0,0&#10;&#9;&#9;&#9;h16.555c2.096,0,3.797,1.7,3.797,3.799l0,0v16.553c0,2.099-1.701,3.797-3.797,3.799l0,0H240.034L240.034,287.27z M238.237,266.918&#10;&#9;&#9;&#9;v16.553c0,0.992,0.805,1.797,1.796,1.797l0,0l16.555,0.002c0.99-0.002,1.796-0.807,1.796-1.799l0,0v-16.553&#10;&#9;&#9;&#9;c0-0.994-0.805-1.798-1.796-1.798l0,0h-16.555C239.042,265.121,238.237,265.924,238.237,266.918L238.237,266.918z" style="fill: rgb(30, 30, 30);"/>
    <path d="M263.887,287.268c-2.099,0-3.797-1.7-3.797-3.797l0,0v-16.553c0-2.099,1.698-3.799,3.797-3.799l0,0h16.553&#10;&#9;&#9;&#9;c2.099,0,3.799,1.7,3.799,3.799l0,0v16.553c0,2.099-1.7,3.797-3.799,3.799l0,0L263.887,287.268L263.887,287.268z M262.09,266.918&#10;&#9;&#9;&#9;v16.553c0,0.992,0.804,1.797,1.796,1.797l0,0l16.553,0.002c0.992-0.002,1.796-0.807,1.798-1.799l0,0v-16.553&#10;&#9;&#9;&#9;c-0.002-0.994-0.804-1.798-1.798-1.798l0,0h-16.553C262.895,265.121,262.09,265.924,262.09,266.918L262.09,266.918z" style="fill: rgb(30, 30, 30);"/>
    <path d="M287.594,287.268c-2.099,0-3.797-1.698-3.799-3.797l0,0v-16.553c0.002-2.099,1.701-3.799,3.799-3.799l0,0&#10;&#9;&#9;&#9;h16.553c2.096,0,3.797,1.7,3.797,3.799l0,0v16.553c0,2.097-1.699,3.797-3.797,3.799l0,0L287.594,287.268L287.594,287.268z&#10;&#9;&#9;&#9; M285.795,266.918v16.553c0.002,0.992,0.807,1.797,1.799,1.797l0,0l16.553,0.002c0.991-0.002,1.796-0.807,1.796-1.799l0,0&#10;&#9;&#9;&#9;l0.002-16.553c-0.002-0.994-0.807-1.798-1.798-1.798l0,0h-16.553C286.602,265.121,285.797,265.924,285.795,266.918&#10;&#9;&#9;&#9;L285.795,266.918z" style="fill: rgb(30, 30, 30);"/>
    <path d="M311.444,287.27c-2.097-0.002-3.797-1.702-3.797-3.799l0,0v-16.553c0-2.099,1.7-3.799,3.797-3.799l0,0&#10;&#9;&#9;&#9;h16.553c2.099,0,3.799,1.7,3.799,3.799l0,0v16.553c0,2.097-1.7,3.797-3.799,3.799l0,0H311.444L311.444,287.27z M309.647,266.918&#10;&#9;&#9;&#9;v16.553c0.002,0.992,0.807,1.797,1.797,1.797l0,0l16.553,0.002c0.994-0.002,1.798-0.807,1.798-1.799l0,0l0.002-16.553&#10;&#9;&#9;&#9;c-0.002-0.994-0.806-1.798-1.8-1.798l0,0h-16.553C310.454,265.121,309.649,265.924,309.647,266.918L309.647,266.918z" style="fill: rgb(30, 30, 30);"/>
    <path d="M104.483,263.265c-2.099-0.002-3.798-1.695-3.798-3.794l0,0v-16.555c0-2.099,1.7-3.799,3.798-3.801l0,0&#10;&#9;&#9;&#9;h16.553c2.096,0.002,3.796,1.702,3.796,3.801l0,0v16.555h0.002c-0.002,2.099-1.702,3.794-3.798,3.794l0,0H104.483L104.483,263.265&#10;&#9;&#9;&#9;z M102.683,242.917v16.555c0.002,0.991,0.804,1.796,1.8,1.796l0,0h16.553c0.993-0.003,1.795-0.805,1.797-1.796l0,0v-16.555&#10;&#9;&#9;&#9;c-0.002-0.995-0.806-1.797-1.797-1.8l0,0h-16.553C103.49,241.12,102.686,241.921,102.683,242.917L102.683,242.917z" style="fill: rgb(30, 30, 30);"/>
    <path d="M128.335,263.265c-2.096-0.002-3.798-1.695-3.798-3.794l0,0v-16.555c0-2.099,1.7-3.799,3.798-3.801l0,0&#10;&#9;&#9;&#9;l16.553,0.002c2.099,0,3.796,1.7,3.798,3.799l0,0v16.555c0,2.099-1.702,3.794-3.798,3.794l0,0H128.335L128.335,263.265z&#10;&#9;&#9;&#9; M126.536,242.917v16.555c0.002,0.991,0.804,1.796,1.799,1.796l0,0h16.553c0.993-0.003,1.795-0.805,1.797-1.796l0,0v-16.555&#10;&#9;&#9;&#9;c-0.002-0.995-0.804-1.797-1.797-1.8l0,0h-16.553C127.342,241.12,126.538,241.921,126.536,242.917L126.536,242.917z" style="fill: rgb(30, 30, 30);"/>
    <path d="M152.04,263.265c-2.097,0-3.796-1.695-3.798-3.794l0,0v-16.555c0.002-2.101,1.702-3.799,3.798-3.801l0,0&#10;&#9;&#9;&#9;l16.555,0.002c2.097,0,3.796,1.7,3.796,3.799l0,0v16.555c0,2.099-1.702,3.794-3.796,3.794l0,0H152.04L152.04,263.265z&#10;&#9;&#9;&#9; M150.243,242.917v16.555c0.002,0.991,0.804,1.793,1.797,1.796l0,0h16.555c0.993-0.003,1.795-0.805,1.795-1.796l0,0h0.002&#10;&#9;&#9;&#9;l-0.002-16.555c0-0.995-0.804-1.797-1.795-1.8l0,0H152.04C151.049,241.12,150.245,241.923,150.243,242.917L150.243,242.917z" style="fill: rgb(30, 30, 30);"/>
    <path d="M175.893,263.265c-2.097,0-3.798-1.695-3.798-3.794l0,0v-16.555c0-2.101,1.7-3.799,3.798-3.801l0,0&#10;&#9;&#9;&#9;l16.555,0.002c2.097,0,3.796,1.698,3.796,3.799l0,0v16.555h0.002c-0.002,2.099-1.704,3.794-3.798,3.794l0,0H175.893&#10;&#9;&#9;&#9;L175.893,263.265z M174.093,242.917l0.002,16.555c0,0.991,0.804,1.793,1.797,1.796l0,0h16.555&#10;&#9;&#9;&#9;c0.993-0.003,1.795-0.805,1.797-1.796l0,0v-16.555c-0.002-0.993-0.806-1.797-1.797-1.8l0,0h-16.555&#10;&#9;&#9;&#9;C174.901,241.12,174.095,241.923,174.093,242.917L174.093,242.917z" style="fill: rgb(30, 30, 30);"/>
    <path d="M199.6,263.265c-2.097-0.002-3.799-1.695-3.799-3.794l0,0v-16.555c0-2.099,1.7-3.799,3.799-3.801l0,0&#10;&#9;&#9;&#9;h16.555c2.097,0.002,3.796,1.702,3.796,3.801l0,0v16.555c0,2.099-1.702,3.794-3.796,3.794l0,0H199.6L199.6,263.265z&#10;&#9;&#9;&#9; M197.802,242.917v16.555c0,0.991,0.802,1.796,1.798,1.796l0,0h16.555c0.991-0.003,1.795-0.805,1.795-1.796l0,0v-16.555&#10;&#9;&#9;&#9;c0-0.995-0.806-1.797-1.795-1.8l0,0H199.6C198.606,241.12,197.802,241.921,197.802,242.917L197.802,242.917z" style="fill: rgb(30, 30, 30);"/>
    <path d="M223.452,263.265c-2.097-0.002-3.798-1.695-3.798-3.794l0,0v-16.555c0-2.099,1.7-3.799,3.798-3.801l0,0&#10;&#9;&#9;&#9;h16.555c2.097,0.002,3.796,1.702,3.796,3.801l0,0v16.555c0,2.099-1.702,3.794-3.796,3.794l0,0H223.452L223.452,263.265z&#10;&#9;&#9;&#9; M221.654,242.917v16.555c0.002,0.991,0.802,1.796,1.797,1.796l0,0h16.555c0.991-0.003,1.795-0.805,1.795-1.796l0,0h0.002&#10;&#9;&#9;&#9;l-0.002-16.555c0-0.995-0.806-1.797-1.795-1.8l0,0h-16.555C222.458,241.12,221.656,241.921,221.654,242.917L221.654,242.917z" style="fill: rgb(30, 30, 30);"/>
    <path d="M247.159,263.265c-2.097,0-3.798-1.695-3.798-3.794l0,0l-0.002-16.555c0.002-2.101,1.702-3.799,3.8-3.801&#10;&#9;&#9;&#9;l0,0h16.553c2.097,0.002,3.796,1.702,3.796,3.801l0,0v16.555c0,2.099-1.7,3.794-3.796,3.794l0,0H247.159L247.159,263.265z&#10;&#9;&#9;&#9; M245.359,242.917v16.555c0.002,0.991,0.804,1.793,1.799,1.796l0,0h16.553c0.993-0.003,1.795-0.805,1.797-1.796l0,0v-16.555&#10;&#9;&#9;&#9;c-0.002-0.995-0.806-1.797-1.797-1.8l0,0h-16.553C246.166,241.12,245.361,241.923,245.359,242.917L245.359,242.917z" style="fill: rgb(30, 30, 30);"/>
    <path d="M271.01,263.267c-2.097,0-3.799-1.698-3.799-3.797l0,0v-16.555c0-2.099,1.7-3.799,3.799-3.799l0,0h16.555&#10;&#9;&#9;&#9;c2.097,0,3.794,1.7,3.796,3.799l0,0v16.555c0,2.099-1.702,3.797-3.796,3.797l0,0H271.01L271.01,263.267z M269.213,242.916v16.555&#10;&#9;&#9;&#9;c0,0.993,0.804,1.795,1.797,1.795l0,0h16.555c0.991,0,1.795-0.802,1.795-1.795l0,0v-16.555c0-0.993-0.807-1.798-1.795-1.8l0,0&#10;&#9;&#9;&#9;H271.01C270.019,241.118,269.213,241.922,269.213,242.916L269.213,242.916z" style="fill: rgb(30, 30, 30);"/>
    <path d="M294.718,263.265c-2.099-0.002-3.799-1.695-3.799-3.794l0,0l-0.002-16.555&#10;&#9;&#9;&#9;c0.002-2.099,1.702-3.799,3.801-3.801l0,0l16.552,0.002c2.099,0,3.796,1.7,3.796,3.799l0,0v16.555&#10;&#9;&#9;&#9;c0,2.097-1.699,3.794-3.796,3.794l0,0H294.718L294.718,263.265z M292.918,242.917v16.555c0.002,0.991,0.804,1.796,1.8,1.796l0,0&#10;&#9;&#9;&#9;h16.552c0.993-0.003,1.795-0.803,1.798-1.796l0,0v-16.555c-0.003-0.995-0.807-1.797-1.798-1.8l0,0h-16.552&#10;&#9;&#9;&#9;C293.723,241.12,292.921,241.921,292.918,242.917L292.918,242.917z" style="fill: rgb(30, 30, 30);"/>
    <path d="M318.57,263.265c-2.099-0.002-3.799-1.697-3.799-3.794l0,0l-0.002-16.555&#10;&#9;&#9;&#9;c0.002-2.099,1.7-3.799,3.801-3.801l0,0l16.553,0.002c2.097,0,3.796,1.7,3.796,3.799l0,0v16.555c0,2.097-1.701,3.794-3.796,3.794&#10;&#9;&#9;&#9;l0,0H318.57L318.57,263.265z M316.771,242.917v16.555c0.002,0.993,0.803,1.796,1.8,1.796l0,0h16.553&#10;&#9;&#9;&#9;c0.993-0.003,1.795-0.803,1.795-1.796l0,0h0.002l-0.002-16.555c0-0.995-0.804-1.797-1.795-1.8l0,0H318.57&#10;&#9;&#9;&#9;C317.575,241.12,316.772,241.921,316.771,242.917L316.771,242.917z" style="fill: rgb(30, 30, 30);"/>
    <path d="M342.277,263.265c-2.097,0-3.799-1.695-3.799-3.794l0,0l-0.002-16.555&#10;&#9;&#9;&#9;c0.002-2.101,1.702-3.799,3.801-3.801l0,0l16.553,0.002c2.097,0,3.796,1.7,3.796,3.799l0,0v16.555&#10;&#9;&#9;&#9;c0,2.097-1.701,3.794-3.796,3.794l0,0H342.277L342.277,263.265z M340.478,242.917v16.555c0.002,0.991,0.805,1.793,1.8,1.796l0,0&#10;&#9;&#9;&#9;h16.553c0.993-0.003,1.795-0.803,1.795-1.796l0,0h0.002l-0.002-16.555c0-0.995-0.804-1.797-1.795-1.8l0,0h-16.553&#10;&#9;&#9;&#9;C341.284,241.12,340.479,241.923,340.478,242.917L340.478,242.917z" style="fill: rgb(30, 30, 30);"/>
    <path d="M98.726,239.363c-2.099-0.002-3.798-1.7-3.798-3.8l0,0v-16.552c0-2.098,1.699-3.798,3.798-3.798l0,0&#10;&#9;&#9;&#9;h16.553c2.099,0,3.798,1.7,3.798,3.798l0,0v16.552c0,2.1-1.699,3.798-3.798,3.8l0,0H98.726L98.726,239.363z M96.928,219.011&#10;&#9;&#9;&#9;v16.552c0.002,0.995,0.804,1.797,1.798,1.799l0,0h16.553c0.992-0.002,1.796-0.804,1.798-1.799l0,0v-16.552&#10;&#9;&#9;&#9;c-0.002-0.993-0.806-1.797-1.798-1.799l0,0H98.726C97.732,217.214,96.93,218.018,96.928,219.011L96.928,219.011z" style="fill: rgb(30, 30, 30);"/>
    <path d="M122.578,239.363c-2.099-0.002-3.798-1.7-3.798-3.8l0,0v-16.552c0-2.098,1.699-3.798,3.798-3.798l0,0&#10;&#9;&#9;&#9;h16.555c2.097,0,3.796,1.7,3.796,3.798l0,0v16.552c0,2.1-1.699,3.798-3.796,3.8l0,0H122.578L122.578,239.363z M120.78,219.011&#10;&#9;&#9;&#9;v16.552c0.002,0.995,0.804,1.797,1.798,1.799l0,0h16.555c0.992-0.002,1.794-0.804,1.796-1.799l0,0v-16.552&#10;&#9;&#9;&#9;c-0.002-0.993-0.806-1.797-1.796-1.799l0,0h-16.555C121.585,217.214,120.782,218.018,120.78,219.011L120.78,219.011z" style="fill: rgb(30, 30, 30);"/>
    <path d="M146.285,239.363c-2.097-0.002-3.8-1.7-3.8-3.8l0,0v-16.552c0-2.1,1.701-3.798,3.8-3.798l0,0h16.552&#10;&#9;&#9;&#9;c2.097,0,3.798,1.698,3.798,3.798l0,0v16.552c0,2.1-1.701,3.798-3.798,3.8l0,0H146.285L146.285,239.363z M144.487,219.011&#10;&#9;&#9;&#9;l-0.002,16.552c0.002,0.993,0.806,1.797,1.801,1.799l0,0h16.552c0.993-0.002,1.796-0.804,1.798-1.799l0,0v-16.552&#10;&#9;&#9;&#9;c-0.002-0.993-0.806-1.797-1.798-1.799l0,0h-16.552C145.292,217.214,144.487,218.018,144.487,219.011L144.487,219.011z" style="fill: rgb(30, 30, 30);"/>
    <path d="M170.137,239.363c-2.097-0.002-3.798-1.7-3.798-3.8l0,0v-16.552c0-2.098,1.701-3.798,3.798-3.798l0,0&#10;&#9;&#9;&#9;h16.553c2.099,0,3.798,1.698,3.8,3.798l0,0v16.552h-0.002c0,2.1-1.699,3.798-3.798,3.8l0,0H170.137L170.137,239.363z&#10;&#9;&#9;&#9; M168.34,219.011l-0.002,16.552c0.002,0.995,0.806,1.797,1.798,1.799l0,0h16.553c0.993-0.002,1.796-0.804,1.798-1.799l0,0v-16.552&#10;&#9;&#9;&#9;c-0.002-0.993-0.806-1.797-1.798-1.799l0,0h-16.553C169.145,217.214,168.34,218.018,168.34,219.011L168.34,219.011z" style="fill: rgb(30, 30, 30);"/>
    <path d="M193.844,239.363c-2.099-0.002-3.798-1.7-3.8-3.8l0,0v-16.552c0.002-2.098,1.701-3.798,3.8-3.798l0,0&#10;&#9;&#9;&#9;h16.553c2.099,0,3.795,1.7,3.798,3.798l0,0v16.552c0,2.1-1.701,3.798-3.798,3.8l0,0H193.844L193.844,239.363z M192.045,219.011&#10;&#9;&#9;&#9;v16.552c0.002,0.995,0.804,1.797,1.798,1.799l0,0h16.553c0.992-0.002,1.796-0.804,1.798-1.799l0,0h-0.002v-16.552&#10;&#9;&#9;&#9;c0-0.993-0.804-1.797-1.796-1.799l0,0h-16.553C192.849,217.214,192.047,218.018,192.045,219.011L192.045,219.011z" style="fill: rgb(30, 30, 30);"/>
    <path d="M217.696,239.361c-2.097,0-3.798-1.698-3.798-3.798l0,0v-16.552c0-2.1,1.701-3.798,3.798-3.798l0,0h16.552&#10;&#9;&#9;&#9;c2.099,0,3.798,1.7,3.798,3.798l0,0v16.552c0,2.1-1.699,3.798-3.798,3.8l0,0L217.696,239.361L217.696,239.361z M215.897,219.011&#10;&#9;&#9;&#9;v16.552c0.002,0.995,0.806,1.797,1.798,1.799l0,0h16.552c0.993-0.002,1.796-0.804,1.799-1.799l0,0v-16.552&#10;&#9;&#9;&#9;c-0.002-0.993-0.806-1.797-1.799-1.799l0,0h-16.552C216.703,217.214,215.899,218.018,215.897,219.011L215.897,219.011z" style="fill: rgb(30, 30, 30);"/>
    <path d="M241.402,239.361c-2.099,0-3.797-1.698-3.797-3.798l0,0v-16.552c0-2.098,1.699-3.798,3.797-3.798l0,0&#10;&#9;&#9;&#9;h16.553c2.097,0,3.798,1.698,3.798,3.798l0,0v16.552c0,2.1-1.701,3.798-3.798,3.8l0,0L241.402,239.361L241.402,239.361z&#10;&#9;&#9;&#9; M239.604,219.011v16.552c0.002,0.995,0.804,1.797,1.798,1.799l0,0h16.553c0.993-0.002,1.796-0.804,1.798-1.799l0,0v-16.552&#10;&#9;&#9;&#9;c-0.002-0.993-0.806-1.797-1.798-1.799l0,0h-16.553C240.41,217.214,239.606,218.018,239.604,219.011L239.604,219.011z" style="fill: rgb(30, 30, 30);"/>
    <path d="M265.254,239.363c-2.097-0.002-3.798-1.7-3.798-3.8l0,0v-16.552c0-2.098,1.699-3.798,3.798-3.798l0,0&#10;&#9;&#9;&#9;h16.555c2.097,0,3.796,1.7,3.796,3.798l0,0v16.552c0,2.1-1.699,3.798-3.796,3.8l0,0H265.254L265.254,239.363z M263.456,219.011&#10;&#9;&#9;&#9;v16.552c0.002,0.995,0.804,1.797,1.798,1.799l0,0h16.555c0.99-0.002,1.794-0.804,1.796-1.799l0,0v-16.552&#10;&#9;&#9;&#9;c-0.002-0.993-0.806-1.797-1.796-1.799l0,0h-16.555C264.262,217.214,263.458,218.018,263.456,219.011L263.456,219.011z" style="fill: rgb(30, 30, 30);"/>
    <path d="M288.961,239.363c-2.099-0.002-3.8-1.7-3.8-3.8l0,0v-16.552c0-2.098,1.701-3.798,3.8-3.798l0,0h16.552&#10;&#9;&#9;&#9;c2.099,0,3.798,1.7,3.798,3.798l0,0v16.552c0,2.1-1.701,3.798-3.798,3.8l0,0H288.961L288.961,239.363z M287.163,219.011&#10;&#9;&#9;&#9;l-0.002,16.552c0.002,0.995,0.806,1.797,1.801,1.799l0,0h16.552c0.992-0.002,1.796-0.804,1.799-1.799l0,0v-16.552&#10;&#9;&#9;&#9;c-0.003-0.993-0.807-1.797-1.799-1.799l0,0h-16.552C287.967,217.214,287.163,218.018,287.163,219.011L287.163,219.011z" style="fill: rgb(30, 30, 30);"/>
    <path d="M312.813,239.361c-2.098,0-3.798-1.698-3.798-3.798l0,0v-16.552c0-2.098,1.698-3.798,3.798-3.798l0,0&#10;&#9;&#9;&#9;h16.554c2.098,0,3.796,1.7,3.796,3.798l0,0v16.552c0,2.1-1.698,3.798-3.796,3.8l0,0L312.813,239.361L312.813,239.361z&#10;&#9;&#9;&#9; M311.015,219.011v16.552c0.002,0.995,0.806,1.797,1.799,1.799l0,0h16.554c0.991-0.002,1.795-0.804,1.797-1.799l0,0h-0.002&#10;&#9;&#9;&#9;v-16.552c0-0.993-0.804-1.797-1.795-1.799l0,0h-16.554C311.82,217.214,311.017,218.018,311.015,219.011L311.015,219.011z" style="fill: rgb(30, 30, 30);"/>
    <path d="M336.52,239.363c-2.099-0.002-3.798-1.7-3.798-3.8l0,0v-16.552c0-2.098,1.699-3.798,3.798-3.798l0,0&#10;&#9;&#9;&#9;h16.555c2.097,0,3.796,1.7,3.798,3.798l0,0v16.552h-0.002c0,2.1-1.699,3.798-3.796,3.8l0,0H336.52L336.52,239.363z&#10;&#9;&#9;&#9; M334.722,219.011v16.552c0.002,0.995,0.806,1.797,1.798,1.799l0,0h16.555c0.99-0.002,1.795-0.804,1.797-1.799l0,0v-16.552&#10;&#9;&#9;&#9;c-0.002-0.993-0.807-1.797-1.797-1.799l0,0H336.52C335.527,217.214,334.724,218.018,334.722,219.011L334.722,219.011z" style="fill: rgb(30, 30, 30);"/>
    <path d="M91.115,215.262c-2.097-0.002-3.797-1.7-3.799-3.797l0,0l0.002-16.554c0-2.099,1.698-3.799,3.797-3.799&#10;&#9;&#9;&#9;l0,0h16.554c2.097,0,3.797,1.7,3.797,3.799l0,0v16.554c0,2.097-1.7,3.795-3.797,3.797l0,0H91.115L91.115,215.262z M89.318,194.912&#10;&#9;&#9;&#9;v16.554c0.002,0.99,0.804,1.793,1.797,1.796l0,0h16.554c0.994-0.003,1.795-0.806,1.797-1.796l0,0v-16.554&#10;&#9;&#9;&#9;c-0.002-0.993-0.806-1.797-1.797-1.799l0,0H91.115C90.122,193.115,89.32,193.918,89.318,194.912L89.318,194.912z" style="fill: rgb(30, 30, 30);"/>
    <path d="M114.968,215.262c-2.097-0.002-3.797-1.7-3.797-3.797l0,0v-16.554c0-2.099,1.698-3.799,3.797-3.799l0,0&#10;&#9;&#9;&#9;h16.554c2.097,0,3.797,1.7,3.797,3.799l0,0v16.554c0,2.097-1.7,3.795-3.797,3.797l0,0H114.968L114.968,215.262z M113.17,194.912&#10;&#9;&#9;&#9;v16.554c0.002,0.992,0.804,1.793,1.797,1.796l0,0h16.554c0.994-0.003,1.795-0.806,1.797-1.796l0,0v-16.554&#10;&#9;&#9;&#9;c-0.002-0.993-0.806-1.797-1.797-1.799l0,0h-16.554C113.974,193.115,113.172,193.918,113.17,194.912L113.17,194.912z" style="fill: rgb(30, 30, 30);"/>
    <path d="M138.674,215.26c-2.097,0-3.797-1.698-3.799-3.795l0,0l0.002-16.554c0-2.099,1.7-3.799,3.797-3.799l0,0&#10;&#9;&#9;&#9;h16.554c2.099,0,3.797,1.7,3.799,3.799l0,0v16.554c-0.002,2.097-1.702,3.795-3.799,3.797l0,0L138.674,215.26L138.674,215.26z&#10;&#9;&#9;&#9; M136.876,194.912l-0.002,16.554c0.002,0.99,0.806,1.793,1.8,1.796l0,0h16.554c0.994-0.003,1.797-0.806,1.799-1.796l0,0h-0.002&#10;&#9;&#9;&#9;l0.002-16.554c-0.002-0.993-0.808-1.797-1.799-1.799l0,0h-16.554C137.682,193.115,136.876,193.918,136.876,194.912&#10;&#9;&#9;&#9;L136.876,194.912z" style="fill: rgb(30, 30, 30);"/>
    <path d="M162.526,215.26c-2.097,0-3.797-1.698-3.797-3.795l0,0v-16.554c0-2.099,1.7-3.799,3.797-3.799l0,0h16.554&#10;&#9;&#9;&#9;c2.097,0,3.797,1.7,3.799,3.799l0,0v16.554h-0.002c0,2.097-1.7,3.795-3.797,3.797l0,0L162.526,215.26L162.526,215.26z&#10;&#9;&#9;&#9; M160.729,194.912v16.554c0.002,0.99,0.806,1.793,1.797,1.796l0,0h16.554c0.992-0.003,1.797-0.806,1.797-1.796l0,0v-16.554&#10;&#9;&#9;&#9;c0-0.993-0.806-1.797-1.797-1.799l0,0h-16.554C161.535,193.115,160.731,193.918,160.729,194.912L160.729,194.912z" style="fill: rgb(30, 30, 30);"/>
    <path d="M186.232,215.26c-2.097,0-3.797-1.698-3.797-3.795l0,0v-16.554c0-2.099,1.698-3.799,3.797-3.799l0,0&#10;&#9;&#9;&#9;h16.554c2.097,0,3.797,1.7,3.799,3.799l0,0v16.554h-0.002c0,2.097-1.7,3.795-3.797,3.797l0,0L186.232,215.26L186.232,215.26z&#10;&#9;&#9;&#9; M184.435,194.912v16.554c0.002,0.99,0.806,1.793,1.797,1.796l0,0h16.554c0.992-0.003,1.797-0.806,1.799-1.796l0,0h-0.002&#10;&#9;&#9;&#9;l0.002-16.554c-0.002-0.993-0.808-1.797-1.799-1.799l0,0h-16.554C185.24,193.115,184.437,193.918,184.435,194.912L184.435,194.912&#10;&#9;&#9;&#9;z" style="fill: rgb(30, 30, 30);"/>
    <path d="M210.084,215.262c-2.097-0.002-3.797-1.7-3.797-3.797l0,0v-16.554c0-2.099,1.7-3.799,3.797-3.799l0,0&#10;&#9;&#9;&#9;h16.554c2.097,0,3.797,1.7,3.797,3.799l0,0v16.554c0,2.097-1.7,3.795-3.797,3.797l0,0H210.084L210.084,215.262z M208.287,194.912&#10;&#9;&#9;&#9;v16.554c0.002,0.99,0.806,1.793,1.797,1.796l0,0h16.554c0.992-0.003,1.795-0.806,1.797-1.796l0,0v-16.554&#10;&#9;&#9;&#9;c-0.002-0.993-0.806-1.797-1.797-1.799l0,0h-16.554C209.093,193.115,208.289,193.918,208.287,194.912L208.287,194.912z" style="fill: rgb(30, 30, 30);"/>
    <path d="M233.791,215.26c-2.097,0-3.797-1.698-3.797-3.795l0,0v-16.554c0-2.099,1.7-3.799,3.797-3.799l0,0h16.554&#10;&#9;&#9;&#9;c2.099,0,3.797,1.7,3.797,3.799l0,0v16.554c0,2.097-1.698,3.795-3.797,3.797l0,0L233.791,215.26L233.791,215.26z M231.993,194.912&#10;&#9;&#9;&#9;v16.554c0.002,0.99,0.806,1.793,1.797,1.796l0,0h16.554c0.994-0.003,1.795-0.804,1.797-1.796l0,0v-16.554&#10;&#9;&#9;&#9;c-0.002-0.993-0.806-1.797-1.797-1.799l0,0h-16.554C232.799,193.115,231.995,193.918,231.993,194.912L231.993,194.912z" style="fill: rgb(30, 30, 30);"/>
    <path d="M257.643,215.26c-2.097,0-3.797-1.698-3.797-3.795l0,0v-16.554c0-2.099,1.7-3.799,3.797-3.799l0,0h16.554&#10;&#9;&#9;&#9;c2.099,0,3.797,1.7,3.797,3.799l0,0v16.554c0,2.097-1.698,3.795-3.797,3.797l0,0L257.643,215.26L257.643,215.26z M255.846,194.912&#10;&#9;&#9;&#9;v16.554c0.002,0.99,0.806,1.793,1.797,1.796l0,0h16.554c0.994-0.003,1.795-0.804,1.797-1.796l0,0v-16.554&#10;&#9;&#9;&#9;c-0.002-0.993-0.806-1.797-1.797-1.799l0,0h-16.554C256.651,193.115,255.848,193.918,255.846,194.912L255.846,194.912z" style="fill: rgb(30, 30, 30);"/>
    <path d="M281.351,215.262c-2.099-0.002-3.799-1.7-3.799-3.797l0,0v-16.554c0-2.099,1.7-3.799,3.799-3.799l0,0&#10;&#9;&#9;&#9;h16.552c2.099,0,3.797,1.7,3.799,3.799l0,0v16.554h-0.002c0,2.097-1.698,3.795-3.797,3.797l0,0H281.351L281.351,215.262z&#10;&#9;&#9;&#9; M279.553,194.912l-0.002,16.554c0.002,0.992,0.806,1.793,1.799,1.796l0,0h16.552c0.994-0.003,1.797-0.804,1.799-1.796l0,0h-0.002&#10;&#9;&#9;&#9;l0.002-16.554c-0.002-0.993-0.805-1.797-1.799-1.799l0,0h-16.552C280.357,193.115,279.553,193.918,279.553,194.912&#10;&#9;&#9;&#9;L279.553,194.912z" style="fill: rgb(30, 30, 30);"/>
    <path d="M305.203,215.262c-2.099-0.002-3.799-1.7-3.802-3.797l0,0l0.003-16.554c0-2.099,1.7-3.799,3.799-3.799l0,0&#10;&#9;&#9;&#9;h16.554c2.097,0,3.797,1.7,3.797,3.799l0,0v16.554c0,2.097-1.7,3.795-3.797,3.797l0,0H305.203L305.203,215.262z M303.403,194.912&#10;&#9;&#9;&#9;v16.554c0.002,0.99,0.806,1.793,1.8,1.796l0,0h16.554c0.991-0.003,1.795-0.806,1.797-1.796l0,0v-16.554&#10;&#9;&#9;&#9;c-0.002-0.993-0.806-1.797-1.797-1.799l0,0h-16.554C304.209,193.115,303.405,193.918,303.403,194.912L303.403,194.912z" style="fill: rgb(30, 30, 30);"/>
    <path d="M328.909,215.261c-2.097,0-3.797-1.698-3.8-3.795l0,0l0.003-16.556c0-2.098,1.7-3.798,3.797-3.798l0,0&#10;&#9;&#9;&#9;h16.554c2.097,0,3.798,1.7,3.798,3.798l0,0v16.556c0,2.097-1.701,3.795-3.798,3.795l0,0H328.909L328.909,215.261z M327.11,194.911&#10;&#9;&#9;&#9;v16.556c0.002,0.99,0.807,1.793,1.799,1.795l0,0h16.554c0.992-0.002,1.797-0.805,1.8-1.795l0,0h-0.003l0.003-16.556&#10;&#9;&#9;&#9;c-0.003-0.991-0.808-1.796-1.8-1.798l0,0h-16.554C327.917,193.115,327.112,193.919,327.11,194.911L327.11,194.911z" style="fill: rgb(30, 30, 30);"/>
    <path d="M334.859,287.268c-2.099,0-3.799-1.698-3.799-3.797l0,0v-16.553c0-2.101,1.7-3.799,3.799-3.799l0,0h24.359&#10;&#9;&#9;&#9;c2.096,0,3.794,1.7,3.797,3.799l0,0v16.553c-0.003,2.097-1.701,3.797-3.797,3.799l0,0L334.859,287.268L334.859,287.268z&#10;&#9;&#9;&#9; M333.061,266.918v16.553c0,0.992,0.805,1.797,1.799,1.797l0,0l24.359,0.002c0.989-0.002,1.794-0.807,1.796-1.799l0,0v-16.553&#10;&#9;&#9;&#9;c-0.002-0.994-0.805-1.798-1.796-1.798l0,0h-24.359C333.865,265.121,333.061,265.924,333.061,266.918L333.061,266.918z" style="fill: rgb(30, 30, 30);"/>
    <path d="M120.771,312.145c-2.097,0-3.796-1.697-3.798-3.794l0,0v-16.556c0-2.101,1.701-3.798,3.798-3.8l0,0&#10;&#9;&#9;&#9;l16.554,0.002c2.096,0,3.796,1.699,3.798,3.798l0,0v16.556h-0.002c0,2.095-1.697,3.794-3.796,3.796l0,0L120.771,312.145&#10;&#9;&#9;&#9;L120.771,312.145z M118.973,291.795v16.556c0.002,0.987,0.805,1.794,1.798,1.794l0,0l16.554,0.002&#10;&#9;&#9;&#9;c0.993-0.002,1.795-0.807,1.797-1.796l0,0v-16.556c-0.002-0.995-0.805-1.798-1.797-1.798l0,0l-16.554-0.002&#10;&#9;&#9;&#9;C119.778,289.998,118.976,290.802,118.973,291.795L118.973,291.795z" style="fill: rgb(30, 30, 30);"/>
    <path d="M327.446,312.147c-2.099-0.002-3.798-1.699-3.801-3.796l0,0v-16.556c0-2.101,1.702-3.798,3.801-3.8l0,0&#10;&#9;&#9;&#9;h16.552c2.097,0.002,3.796,1.701,3.798,3.8l0,0v16.556h-0.002c0,2.095-1.699,3.794-3.796,3.796l0,0H327.446L327.446,312.147z&#10;&#9;&#9;&#9; M325.646,291.795l-0.002,16.556c0.002,0.987,0.807,1.794,1.802,1.794l0,0h16.552c0.991,0,1.796-0.805,1.798-1.794l0,0h-0.002&#10;&#9;&#9;&#9;v-16.556c0-0.995-0.805-1.798-1.796-1.798l0,0h-16.552C326.451,289.998,325.646,290.802,325.646,291.795L325.646,291.795z" style="fill: rgb(30, 30, 30);"/>
    <path d="M144.478,312.145c-2.098,0-3.798-1.699-3.798-3.794l0,0v-16.556c0-2.099,1.7-3.798,3.798-3.8l0,0h175.579&#10;&#9;&#9;&#9;c2.095,0.002,3.796,1.701,3.796,3.8l0,0v16.556c-0.002,2.095-1.699,3.794-3.796,3.796l0,0L144.478,312.145L144.478,312.145z&#10;&#9;&#9;&#9; M142.68,291.795v16.556c0.002,0.989,0.805,1.794,1.797,1.794l0,0h175.579c0.989,0,1.794-0.805,1.796-1.794l0,0v-16.556&#10;&#9;&#9;&#9;c-0.002-0.995-0.805-1.798-1.796-1.798l0,0l-175.579-0.002C143.485,289.998,142.682,290.8,142.68,291.795L142.68,291.795z" style="fill: rgb(30, 30, 30);"/>
    <path d="M380.003,323.137c-3.57,0-6.462-2.896-6.464-6.467l0,0V143.013c0.002-3.568,2.894-6.462,6.464-6.462l0,0&#10;&#9;&#9;&#9;h124.486c3.57,0,6.464,2.891,6.466,6.462l0,0V316.67c-0.002,3.571-2.896,6.467-6.466,6.467l0,0H380.003L380.003,323.137z&#10;&#9;&#9;&#9; M375.541,143.013V316.67c0.004,2.466,1.997,4.463,4.462,4.467l0,0h124.486c2.465-0.004,4.46-2.001,4.465-4.467l0,0V143.013&#10;&#9;&#9;&#9;c-0.005-2.463-2-4.457-4.465-4.46l0,0H380.003C377.538,138.556,375.545,140.547,375.541,143.013L375.541,143.013z" style="fill: rgb(30, 30, 30);"/>
    <path d="M72.49,333.672c-3.571,0-6.463-2.893-6.463-6.463l0,0V18.136c0-3.57,2.893-6.463,6.463-6.465l0,0h447.221&#10;&#9;&#9;&#9;c3.568,0.002,6.461,2.895,6.463,6.465l0,0v309.073c-0.002,3.57-2.895,6.463-6.463,6.463l0,0H72.49L72.49,333.672z M68.025,18.136&#10;&#9;&#9;&#9;v309.073c0.006,2.463,1.999,4.458,4.464,4.464l0,0h447.221c2.462-0.006,4.458-2.001,4.462-4.464l0,0V18.136&#10;&#9;&#9;&#9;c-0.004-2.465-2-4.46-4.462-4.464l0,0H72.49C70.024,13.676,68.032,15.671,68.025,18.136L68.025,18.136z" style="fill: rgb(30, 30, 30);"/>
    <path d="M377.02,94.033c-1.926,0-3.488-1.561-3.488-3.488l0,0c0-1.926,1.561-3.488,3.488-3.488l0,0h130.845&#10;&#9;&#9;&#9;c1.925,0,3.483,1.563,3.485,3.488l0,0c-0.002,1.928-1.561,3.488-3.485,3.488l0,0H377.02L377.02,94.033z M375.532,90.545&#10;&#9;&#9;&#9;c0,0.822,0.665,1.487,1.487,1.489l0,0h130.845c0.817-0.002,1.482-0.667,1.484-1.489l0,0c-0.002-0.823-0.667-1.487-1.484-1.487l0,0&#10;&#9;&#9;&#9;H377.02C376.199,89.058,375.532,89.725,375.532,90.545L375.532,90.545z" style="fill: rgb(30, 30, 30);"/>
    <path d="M377.02,83.024c-1.926,0-3.488-1.561-3.488-3.488l0,0c0-1.926,1.563-3.486,3.488-3.489l0,0l130.845,0.002&#10;&#9;&#9;&#9;c1.925,0,3.483,1.561,3.485,3.486l0,0c-0.002,1.928-1.563,3.488-3.485,3.488l0,0H377.02L377.02,83.024z M375.532,79.536&#10;&#9;&#9;&#9;c0,0.822,0.665,1.487,1.487,1.487l0,0l130.845,0.002c0.817-0.002,1.482-0.667,1.484-1.489l0,0&#10;&#9;&#9;&#9;c-0.002-0.821-0.667-1.485-1.484-1.487l0,0H377.02C376.197,78.051,375.532,78.715,375.532,79.536L375.532,79.536z" style="fill: rgb(30, 30, 30);"/>
    <path d="M377.02,72.017c-1.928-0.002-3.488-1.563-3.488-3.49l0,0c0-1.926,1.563-3.486,3.488-3.489l0,0&#10;&#9;&#9;&#9;l130.845,0.002c1.925,0,3.483,1.561,3.485,3.486l0,0c-0.002,1.927-1.561,3.488-3.485,3.49l0,0H377.02L377.02,72.017z&#10;&#9;&#9;&#9; M375.532,68.526c0,0.822,0.667,1.487,1.487,1.489l0,0h130.845c0.817-0.002,1.482-0.667,1.484-1.489l0,0&#10;&#9;&#9;&#9;c-0.002-0.821-0.667-1.485-1.484-1.487l0,0H377.02C376.197,67.042,375.532,67.706,375.532,68.526L375.532,68.526z" style="fill: rgb(30, 30, 30);"/>
    <path d="M377.02,61.007c-1.928-0.002-3.488-1.563-3.488-3.49l0,0c0-1.926,1.561-3.486,3.488-3.486l0,0h130.845&#10;&#9;&#9;&#9;c1.925,0,3.483,1.561,3.485,3.486l0,0c-0.002,1.927-1.561,3.488-3.485,3.49l0,0H377.02L377.02,61.007z M375.532,57.517&#10;&#9;&#9;&#9;c0,0.822,0.667,1.487,1.487,1.489l0,0h130.845c0.817-0.002,1.482-0.667,1.484-1.489l0,0c-0.002-0.821-0.667-1.485-1.484-1.487l0,0&#10;&#9;&#9;&#9;H377.02C376.199,56.032,375.532,56.696,375.532,57.517L375.532,57.517z" style="fill: rgb(30, 30, 30);"/>
    <path d="M377.02,49.998c-1.926-0.002-3.488-1.561-3.488-3.488l0,0c0-1.928,1.561-3.488,3.488-3.488l0,0h130.845&#10;&#9;&#9;&#9;c1.925,0,3.483,1.561,3.485,3.488l0,0c-0.002,1.925-1.561,3.486-3.485,3.488l0,0H377.02L377.02,49.998z M375.532,46.51&#10;&#9;&#9;&#9;c0,0.82,0.665,1.485,1.487,1.487l0,0h130.845c0.817-0.002,1.482-0.667,1.484-1.487l0,0c-0.002-0.823-0.667-1.487-1.484-1.489l0,0&#10;&#9;&#9;&#9;H377.02C376.199,45.023,375.532,45.687,375.532,46.51L375.532,46.51z" style="fill: rgb(30, 30, 30);"/>
    <path d="M377.02,38.987c-1.926,0-3.488-1.559-3.488-3.486l0,0c0-1.928,1.561-3.489,3.488-3.489l0,0h130.845&#10;&#9;&#9;&#9;c1.925,0,3.483,1.561,3.485,3.489l0,0c-0.002,1.925-1.561,3.486-3.485,3.486l0,0H377.02L377.02,38.987z M375.532,35.5&#10;&#9;&#9;&#9;c0,0.82,0.665,1.484,1.487,1.487l0,0h130.845c0.817-0.002,1.482-0.667,1.484-1.487l0,0c-0.002-0.823-0.667-1.487-1.484-1.489l0,0&#10;&#9;&#9;&#9;H377.02C376.199,34.013,375.532,34.678,375.532,35.5L375.532,35.5z" style="fill: rgb(30, 30, 30);"/>
    <path d="M377.02,27.977c-1.926,0-3.488-1.559-3.488-3.486l0,0c0-1.928,1.563-3.489,3.488-3.489l0,0h130.845&#10;&#9;&#9;&#9;c1.925,0,3.483,1.561,3.485,3.489l0,0c-0.002,1.927-1.563,3.486-3.485,3.486l0,0H377.02L377.02,27.977z M375.532,24.491&#10;&#9;&#9;&#9;c0,0.82,0.665,1.484,1.487,1.487l0,0h130.845c0.817-0.002,1.482-0.665,1.484-1.487l0,0c-0.002-0.823-0.667-1.487-1.484-1.489l0,0&#10;&#9;&#9;&#9;H377.02C376.197,23.004,375.532,23.668,375.532,24.491L375.532,24.491z" style="fill: rgb(30, 30, 30);"/>
    <polygon points="67.183,117.156 67.183,115.156 524.988,115.156 524.988,117.156 67.183,117.156 &#9;&#9;" style="fill: rgb(30, 30, 30);"/>
    <polygon points="374.531,183.601 374.531,181.602 509.766,181.602 509.766,183.601 374.531,183.601 &#9;&#9;" style="fill: rgb(30, 30, 30);"/>
    <polygon points="67.184,157.259 67.184,155.259 374.823,155.259 374.823,157.259 67.184,157.259 &#9;&#9;" style="fill: rgb(30, 30, 30);"/>
    <path d="M391.319,312.989c-1.9,0-3.439-1.539-3.439-3.438l0,0v-6.83c0-1.9,1.539-3.438,3.439-3.439l0,0&#10;&#9;&#9;&#9;l101.854,0.002c1.899,0,3.438,1.537,3.44,3.438l0,0h-0.002l0.002,6.83c-0.002,1.899-1.541,3.438-3.44,3.438l0,0H391.319&#10;&#9;&#9;&#9;L391.319,312.989z M389.88,302.72v6.83c0.002,0.794,0.644,1.438,1.439,1.438l0,0h101.854c0.796,0,1.438-0.644,1.44-1.438l0,0&#10;&#9;&#9;&#9;v-6.83h-0.002c0-0.793-0.643-1.438-1.438-1.438l0,0l-101.854-0.002C390.523,301.283,389.882,301.927,389.88,302.72L389.88,302.72z&#10;&#9;&#9;&#9;" style="fill: rgb(30, 30, 30);"/>
  </g>
</svg>