<?xml version="1.0" encoding="utf-8"?>
<svg version="1.1" id="Layer_3" x="0px" y="0px" viewBox="0 0 1280 720" enable-background="new -5.404 -7.37 607 367" preserveAspectRatio="none" xmlns="http://www.w3.org/2000/svg">
  <path id="path3" d="M 635.963 196.049 C 549.901 196.049 474.587 225.988 444.078 241.482 C 428.277 249.508 405.651 264.752 387.823 286.768 C 369.992 308.781 356.969 337.624 360.615 372.627 C 365.296 417.56 385.954 454.132 407.948 479.966 C 418.945 492.881 430.272 503.103 440.129 510.362 C 449.986 517.621 458.315 521.944 463.62 522.971 C 471.228 524.443 480.677 524.549 489.862 521.156 C 499.049 517.766 507.924 510.825 514.291 498.338 C 526.878 473.647 534.026 449.389 559.226 436.552 C 584.539 423.657 617.349 421.223 624.376 421.223 L 655.62 421.223 C 662.65 421.223 695.458 423.658 720.771 436.552 L 720.948 436.646 C 746.001 449.507 753.151 473.714 765.708 498.344 C 772.076 510.83 780.951 517.772 790.136 521.163 C 799.323 524.554 808.772 524.45 816.379 522.977 C 821.685 521.95 830.015 517.627 839.87 510.368 C 849.727 503.109 861.055 492.887 872.05 479.971 C 894.047 454.142 914.705 417.57 919.385 372.632 C 923.031 337.628 910.007 308.787 892.177 286.769 C 874.354 264.757 851.728 249.514 835.933 241.487 C 805.423 225.995 730.11 196.055 644.049 196.055 L 635.975 196.055 L 635.963 196.049 Z M 635.963 197.921 L 644.036 197.921 C 729.664 197.921 804.81 227.779 835.068 243.149 C 850.659 251.068 873.133 266.195 890.74 287.938 C 908.349 309.681 921.099 337.982 917.511 372.426 C 912.878 416.899 892.419 453.161 870.612 478.764 C 859.712 491.568 848.487 501.702 838.758 508.866 C 829.025 516.034 820.708 520.22 816.026 521.125 C 808.683 522.547 799.557 522.641 790.78 519.398 C 781.999 516.158 773.548 509.598 767.375 497.488 C 754.883 472.988 747.539 448.087 721.62 434.883 C 695.813 421.737 663.063 419.347 655.621 419.347 L 624.376 419.347 C 616.937 419.347 584.208 421.722 558.406 434.852 L 558.378 434.881 C 532.456 448.085 525.114 472.986 512.622 497.487 C 506.448 509.598 497.999 516.156 489.219 519.397 C 480.44 522.638 471.315 522.544 463.971 521.124 C 459.301 520.214 450.984 516.034 441.253 508.87 C 431.521 501.699 420.297 491.57 409.393 478.763 C 387.59 453.159 367.132 416.893 362.499 372.425 C 358.91 337.975 371.66 309.675 389.267 287.934 C 406.872 266.192 429.348 251.065 444.938 243.145 C 475.204 227.774 550.339 197.918 635.969 197.918 L 635.963 197.921 Z" style="fill: rgb(30, 30, 30);" transform="matrix(0.965926, -0.258819, 0.258819, 0.965926, -71.367448, 177.910708)"/>
  <path id="circle5" d="M 490.219 291.365 C 442.301 291.365 403.448 330.218 403.448 378.136 C 403.448 426.054 442.301 464.935 490.219 464.935 C 538.136 464.935 577.018 426.054 577.018 378.136 C 577.018 330.218 538.136 291.365 490.219 291.365 Z M 490.219 293.238 C 537.125 293.238 575.146 331.23 575.146 378.136 C 575.146 425.042 537.125 463.063 490.219 463.063 C 443.313 463.063 405.321 425.042 405.321 378.136 C 405.321 331.23 443.313 293.238 490.219 293.238 Z" style="fill: rgb(30, 30, 30);" transform="matrix(0.965926, -0.258819, 0.258819, 0.965926, -81.168134, 139.766762)"/>
  <path id="circle7" d="M 490.219 309.708 C 452.422 309.708 421.791 340.339 421.791 378.136 C 421.791 415.932 452.422 446.592 490.219 446.592 C 528.013 446.592 558.675 415.929 558.675 378.136 C 558.675 340.34 528.013 309.708 490.219 309.708 Z M 490.219 311.581 C 527.003 311.581 556.802 341.351 556.802 378.136 C 556.802 414.92 527.003 444.72 490.219 444.72 C 453.434 444.72 423.664 414.92 423.664 378.136 C 423.664 341.351 453.434 311.581 490.219 311.581 Z" style="fill: rgb(30, 30, 30);" transform="matrix(0.965926, -0.258819, 0.258819, 0.965926, -81.168079, 139.76663)"/>
  <path id="circle9" d="M 490.219 326.822 C 461.878 326.822 438.905 349.795 438.905 378.135 C 438.905 406.475 461.878 429.476 490.219 429.476 C 518.558 429.476 541.56 406.475 541.56 378.135 C 541.56 349.795 518.558 326.822 490.219 326.822 Z M 490.219 328.695 C 517.547 328.695 539.688 350.807 539.688 378.135 C 539.688 405.463 517.547 427.604 490.219 427.604 C 462.89 427.604 440.778 405.463 440.778 378.135 C 440.778 350.807 462.891 328.695 490.219 328.695 Z" style="fill: rgb(30, 30, 30);" transform="matrix(0.965926, -0.258819, 0.258819, 0.965926, -81.167828, 139.76646)"/>
  <path id="path11" d="M 480.914 330.684 C 479.21 330.684 477.812 332.08 477.812 333.785 L 477.812 359.881 C 477.812 361.863 477.23 363.256 476.233 364.21 C 475.236 365.164 473.736 365.732 471.698 365.732 L 445.866 365.732 C 444.161 365.732 442.764 367.128 442.764 368.833 L 442.764 387.468 C 442.764 389.173 444.161 390.57 445.866 390.57 L 471.699 390.57 C 473.59 390.57 475.103 391.158 476.146 392.179 C 477.186 393.2 477.812 394.697 477.812 396.685 L 477.812 422.518 C 477.812 424.222 479.21 425.619 480.914 425.619 L 499.548 425.619 C 501.253 425.619 502.65 424.223 502.65 422.518 L 502.65 396.774 C 502.65 394.794 503.144 393.263 504.083 392.239 C 505.022 391.215 506.496 390.572 508.853 390.573 L 534.596 390.573 C 536.301 390.573 537.699 389.176 537.699 387.47 L 537.699 368.836 C 537.699 367.132 536.301 365.734 534.596 365.734 L 508.881 365.734 C 506.426 365.734 504.941 365.105 504.025 364.153 C 503.108 363.202 502.65 361.806 502.65 359.882 L 502.65 333.786 C 502.65 332.082 501.253 330.685 499.548 330.685 L 480.914 330.685 L 480.914 330.684 Z M 480.914 332.556 L 499.548 332.556 C 500.241 332.556 500.779 333.091 500.779 333.785 L 500.779 359.881 C 500.779 362.096 501.324 364.062 502.68 365.469 C 504.035 366.875 506.112 367.604 508.881 367.604 L 534.596 367.604 C 535.29 367.604 535.825 368.141 535.825 368.833 L 535.825 387.469 C 535.825 388.16 535.29 388.698 534.596 388.698 L 508.853 388.698 C 506.144 388.697 504.032 389.507 502.68 390.98 C 501.327 392.452 500.779 394.491 500.779 396.773 L 500.779 422.517 C 500.779 423.211 500.243 423.746 499.548 423.746 L 480.914 423.746 C 480.221 423.746 479.685 423.212 479.685 422.517 L 479.685 396.685 C 479.685 394.291 478.863 392.266 477.432 390.863 C 476.001 389.459 473.988 388.697 471.699 388.697 L 445.866 388.697 C 445.176 388.697 444.637 388.161 444.637 387.468 L 444.637 368.833 C 444.637 368.141 445.173 367.604 445.866 367.604 L 471.699 367.604 C 474.081 367.604 476.105 366.91 477.521 365.556 C 478.935 364.202 479.686 362.239 479.686 359.88 L 479.686 333.784 C 479.686 333.091 480.221 332.555 480.914 332.556 L 480.914 332.556 Z" style="fill: rgb(30, 30, 30);" transform="matrix(0.965926, -0.25882, 0.25882, 0.965926, -81.168755, 139.766877)"/>
  <path id="path13" d="M 494.361 340.139 C 494.361 351.892 504.454 362.724 516.975 362.724 L 516.975 360.852 C 505.543 360.852 496.234 350.814 496.234 340.139 L 494.361 340.139 L 494.361 340.139 Z" style="fill: rgb(30, 30, 30);" transform="matrix(0.965926, -0.258819, 0.258819, 0.965926, -73.726944, 142.851231)"/>
  <path id="polygon15" d="M 514.252 338.184 L 513.2 338.623 L 505.007 342.105 L 504.335 342.368 L 504.861 342.865 L 509.689 347.4 L 510.185 347.868 L 510.449 347.254 L 513.814 339.237 L 514.252 338.184 L 514.252 338.184 Z M 512.527 339.94 L 509.835 346.259 L 506.032 342.66 L 512.527 339.94 Z" style="fill: rgb(30, 30, 30);" transform="matrix(0.965926, -0.258819, 0.258819, 0.965926, -71.427956, 143.503331)"/>
  <path id="circle17" d="M 490.219 367.016 C 484.074 367.016 479.102 371.989 479.102 378.133 C 479.102 384.277 484.074 389.279 490.219 389.279 C 496.362 389.279 501.365 384.277 501.365 378.133 C 501.365 371.989 496.362 367.016 490.219 367.016 Z M 490.219 368.888 C 495.351 368.888 499.492 373.001 499.492 378.133 C 499.492 383.265 495.351 387.406 490.219 387.406 C 485.086 387.406 480.974 383.265 480.974 378.133 C 480.974 373.001 485.086 368.888 490.219 368.888 Z" style="fill: rgb(30, 30, 30);" transform="matrix(0.965926, -0.258819, 0.258819, 0.965926, -81.167523, 139.766963)"/>
  <path id="path19" d="M 472.937 351.405 C 472.937 362.838 462.898 372.147 452.223 372.147 L 452.223 374.019 C 463.977 374.019 474.808 363.926 474.808 351.405 L 472.937 351.405 Z" style="fill: rgb(30, 30, 30);" transform="matrix(0.965926, -0.258819, 0.258819, 0.965926, -78.082812, 132.325614)"/>
  <path id="polygon21" d="M 450.274 354.129 L 450.714 355.183 L 454.194 363.374 L 454.457 364.047 L 454.955 363.52 L 459.49 358.693 L 459.957 358.196 L 459.344 357.933 L 451.327 354.568 L 450.274 354.129 L 450.274 354.129 Z M 452.029 355.855 L 458.349 358.546 L 454.749 362.35 L 452.029 355.855 Z" style="fill: rgb(30, 30, 30);" transform="matrix(0.965926, -0.258819, 0.258819, 0.965926, -77.431123, 130.028171)"/>
  <path id="path23" d="M 463.496 393.573 L 463.496 395.446 C 474.927 395.446 484.237 405.482 484.237 416.158 L 486.109 416.158 C 486.109 404.405 476.016 393.573 463.496 393.573 Z" style="fill: rgb(30, 30, 30);" transform="matrix(0.965926, -0.258819, 0.258819, 0.965926, -88.608377, 136.683369)"/>
  <path id="polygon25" d="M 470.285 408.429 L 470.022 409.043 L 466.657 417.059 L 466.217 418.112 L 467.271 417.672 L 475.462 414.191 L 476.135 413.928 L 475.608 413.432 L 470.782 408.896 L 470.285 408.429 L 470.285 408.429 Z M 470.635 410.039 L 474.439 413.609 L 467.944 416.359 L 470.635 410.039 Z" style="fill: rgb(30, 30, 30);" transform="matrix(0.965926, -0.258819, 0.258819, 0.965926, -90.907418, 136.03132)"/>
  <path id="path27" d="M 528.245 382.279 C 516.492 382.279 505.661 392.373 505.661 404.894 L 507.533 404.894 C 507.533 393.463 517.572 384.152 528.245 384.152 L 528.245 382.279 Z" style="fill: rgb(30, 30, 30);" transform="matrix(0.965926, -0.258818, 0.258818, 0.965926, -84.252731, 147.207962)"/>
  <path id="polygon29" d="M 526.014 392.249 L 525.517 392.776 L 520.983 397.602 L 520.515 398.1 L 521.129 398.363 L 529.145 401.727 L 530.197 402.166 L 529.759 401.113 L 526.278 392.922 L 526.014 392.249 L 526.014 392.249 Z M 525.692 393.946 L 528.442 400.441 L 522.124 397.749 L 525.692 393.946 Z" style="fill: rgb(30, 30, 30);" transform="matrix(0.965926, -0.258819, 0.258819, 0.965926, -84.903788, 149.506648)"/>
  <path id="path31" d="M 821.84 234.145 C 818.031 234.217 813.978 234.425 809.758 234.789 C 792.873 236.243 773.248 240.278 755.111 248.86 C 741.572 255.266 726.188 264.942 712.984 275.044 C 699.779 285.145 688.767 295.635 683.963 303.918 C 679.14 312.235 678.528 323.119 680.365 333.435 C 682.199 343.753 686.468 353.515 691.774 359.648 C 702.294 371.814 720.414 378.676 743.525 372.493 C 755.067 369.404 762.455 364.808 770.119 359.445 C 777.779 354.081 785.726 347.934 798.671 341.541 C 824.607 328.731 846.669 323.961 858.673 320.067 C 864.739 318.098 871.043 314.693 875.846 308.482 C 880.65 302.271 883.934 293.291 884.096 280.28 C 884.26 267.156 878.801 256.994 871.546 249.738 C 864.291 242.482 855.267 238.091 848.024 236.28 C 842.575 234.916 833.268 233.928 821.84 234.145 L 821.84 234.145 Z M 821.898 236.046 C 833.221 235.841 842.395 236.803 847.554 238.094 C 854.458 239.82 863.254 244.083 870.228 251.055 C 877.197 258.026 882.379 267.652 882.221 280.251 C 882.064 292.962 878.903 301.496 874.382 307.342 C 869.861 313.188 863.947 316.392 858.116 318.284 C 846.351 322.098 824.08 326.929 797.997 339.785 L 797.851 339.873 C 784.754 346.342 776.645 352.569 769.036 357.894 C 761.425 363.222 754.346 367.66 743.057 370.678 C 720.512 376.712 703.262 370.048 693.206 358.42 C 688.225 352.658 683.99 343.134 682.206 333.115 C 680.426 323.097 681.072 312.613 685.572 304.855 C 690.09 297.062 701.02 286.561 714.123 276.536 C 727.228 266.511 742.525 256.887 755.899 250.557 C 773.772 242.1 793.221 238.101 809.934 236.661 C 814.112 236.302 818.127 236.115 821.898 236.046 L 821.898 236.046 Z" style="fill: rgb(30, 30, 30);" transform="matrix(0.965926, -0.258819, 0.258819, 0.965926, -52.162603, 212.707024)"/>
  <path id="path33" d="M 835.794 245.766 C 827.865 245.526 819.431 247.095 811.249 250.271 C 789.703 258.631 762.729 269.234 750.073 275.724 C 740.01 280.886 726.648 286.352 715.292 293.599 C 703.936 300.845 694.504 309.935 692.678 322.385 C 689.054 347.096 710.88 365.347 733.958 361.061 C 745.374 358.939 753.114 354.343 761.105 348.774 C 769.096 343.205 777.383 336.687 790.156 330.46 C 802.94 324.227 816.541 319.736 828.422 316.124 C 840.299 312.513 850.41 309.778 856.359 306.968 C 862.429 304.1 867.945 297.817 870.637 289.912 C 873.325 282.008 873.153 272.469 867.711 263.232 C 862.266 253.991 853.536 248.586 843.516 246.615 C 841.011 246.122 838.436 245.846 835.794 245.766 L 835.794 245.766 Z M 835.734 247.638 C 838.282 247.714 840.766 247.985 843.166 248.457 C 852.758 250.344 860.935 255.402 866.101 264.167 C 871.268 272.935 871.416 281.878 868.88 289.326 C 866.344 296.774 861.072 302.7 855.57 305.299 C 849.945 307.955 839.807 310.687 827.895 314.309 C 815.982 317.931 802.273 322.455 789.336 328.762 C 776.385 335.074 767.943 341.728 760.021 347.251 C 752.098 352.773 744.695 357.157 733.604 359.215 C 711.669 363.29 691.072 346.193 694.521 322.677 C 696.229 311.014 705.133 302.295 716.286 295.177 C 727.44 288.059 740.739 282.613 750.924 277.39 C 763.348 271.018 790.411 260.384 811.949 252.026 C 819.924 248.932 828.094 247.41 835.734 247.638 L 835.734 247.638 Z" style="fill: rgb(30, 30, 30);" transform="matrix(0.965926, -0.258819, 0.258819, 0.965926, -51.950521, 212.824786)"/>
  <path id="circle35" d="M 735.317 310.9 C 719.499 310.9 706.647 323.749 706.647 339.57 C 706.647 355.389 719.499 368.24 735.317 368.24 C 751.137 368.24 763.986 355.389 763.986 339.57 C 763.986 323.749 751.138 310.9 735.317 310.9 Z M 735.317 312.773 C 750.127 312.773 762.114 324.761 762.114 339.57 C 762.114 354.378 750.127 366.368 735.317 366.368 C 720.509 366.368 708.518 354.378 708.518 339.57 C 708.518 324.761 720.508 312.773 735.317 312.773 Z" style="fill: rgb(30, 30, 30);" transform="matrix(0.965926, -0.258819, 0.258819, 0.965926, -62.831913, 201.884675)"/>
  <path id="circle37" d="M 735.318 316.195 C 722.427 316.195 711.971 326.678 711.971 339.57 C 711.971 352.461 722.427 362.945 735.318 362.945 C 748.21 362.945 758.693 352.463 758.693 339.57 C 758.693 326.678 748.211 316.195 735.318 316.195 Z M 735.318 318.067 C 747.198 318.067 756.82 327.69 756.82 339.57 C 756.82 351.449 747.201 361.073 735.318 361.073 C 723.44 361.073 713.844 351.45 713.844 339.57 C 713.845 327.69 723.439 318.067 735.318 318.067 Z" style="fill: rgb(30, 30, 30);" transform="matrix(0.965926, -0.258819, 0.258819, 0.965926, -62.831383, 201.888697)"/>
  <path id="circle39" d="M 779.469 270.638 C 763.647 270.638 750.799 283.457 750.799 299.278 C 750.799 315.099 763.647 327.948 779.469 327.948 C 795.286 327.948 808.108 315.098 808.108 299.278 C 808.108 283.458 795.289 270.638 779.469 270.638 Z M 779.469 272.51 C 794.276 272.51 806.237 284.468 806.237 299.278 C 806.237 314.087 794.279 326.076 779.469 326.076 C 764.659 326.076 752.67 314.086 752.67 299.278 C 752.67 284.47 764.659 272.51 779.469 272.51 Z" style="fill: rgb(30, 30, 30);" transform="matrix(0.965926, -0.258819, 0.258819, 0.965926, -50.903474, 211.935355)"/>
  <path id="circle41" d="M 779.468 275.927 C 766.575 275.927 756.09 286.382 756.09 299.273 C 756.09 312.165 766.574 322.648 779.468 322.648 C 792.357 322.648 802.813 312.165 802.813 299.273 C 802.813 286.382 792.356 275.927 779.468 275.927 Z M 779.468 277.799 C 791.345 277.799 800.94 287.392 800.94 299.273 C 800.94 311.152 791.346 320.776 779.468 320.776 C 767.586 320.776 757.961 311.154 757.961 299.273 C 757.962 287.393 767.585 277.799 779.468 277.799 Z" style="fill: rgb(30, 30, 30);" transform="matrix(0.965926, -0.258819, 0.258819, 0.965926, -50.902164, 211.935074)"/>
  <path id="circle43" d="M 828.48 236.51 C 812.657 236.51 799.809 249.358 799.809 265.18 C 799.809 281.002 812.657 293.85 828.48 293.85 C 844.299 293.85 857.149 281.002 857.149 265.18 C 857.149 249.358 844.3 236.51 828.48 236.51 Z M 828.48 238.383 C 843.287 238.383 855.277 250.37 855.277 265.18 C 855.277 279.99 843.287 291.978 828.48 291.978 C 813.67 291.978 801.682 279.99 801.682 265.18 C 801.682 250.37 813.668 238.383 828.48 238.383 Z" style="fill: rgb(30, 30, 30);" transform="matrix(0.965926, -0.258819, 0.258819, 0.965926, -40.403888, 223.46172)"/>
  <path id="circle45" d="M 828.48 241.804 C 815.588 241.804 805.132 252.287 805.132 265.179 C 805.132 278.071 815.588 288.554 828.48 288.554 C 841.371 288.554 851.855 278.071 851.855 265.179 C 851.855 252.287 841.37 241.804 828.48 241.804 Z M 828.48 243.676 C 840.358 243.676 849.981 253.299 849.981 265.179 C 849.981 277.059 840.36 286.682 828.48 286.682 C 816.599 286.682 807.005 277.059 807.005 265.179 C 807.005 253.299 816.597 243.676 828.48 243.676 Z" style="fill: rgb(30, 30, 30);" transform="matrix(0.965926, -0.258819, 0.258819, 0.965926, -40.403114, 223.465206)"/>
  <path id="path47" d="M 745.716 216.841 C 743.959 216.72 742.159 216.963 740.392 217.572 L 701.915 230.795 C 694.849 233.229 691.084 240.957 693.519 248.026 C 695.955 255.095 703.68 258.887 710.748 256.451 L 749.226 243.199 C 756.295 240.764 760.056 233.037 757.623 225.968 C 755.795 220.668 750.986 217.204 745.716 216.841 L 745.716 216.841 Z M 745.599 218.713 C 750.144 219.021 754.261 221.999 755.839 226.582 C 757.946 232.695 754.727 239.31 748.612 241.415 L 710.146 254.667 C 704.034 256.773 697.42 253.554 695.314 247.441 C 693.21 241.329 696.427 234.684 702.539 232.579 L 741.007 219.327 C 742.534 218.801 744.085 218.61 745.599 218.713 L 745.599 218.713 Z" style="fill: rgb(30, 30, 30);" transform="matrix(0.965926, -0.258819, 0.258819, 0.965926, -36.616921, 195.867068)"/>
  <path id="path49" d="M 744.716 222.926 C 743.721 222.857 742.674 222.961 741.672 223.306 L 704.433 236.149 C 700.431 237.528 698.315 241.916 699.693 245.921 C 701.073 249.926 705.461 252.069 709.466 250.689 L 746.677 237.846 C 750.682 236.467 752.825 232.08 751.448 228.075 C 750.412 225.072 747.707 223.134 744.718 222.926 L 744.716 222.926 Z M 744.57 224.768 C 746.832 224.921 748.901 226.403 749.691 228.689 C 750.739 231.737 749.14 235.041 746.091 236.09 L 708.851 248.904 C 705.804 249.955 702.499 248.355 701.45 245.306 C 700.4 242.258 702.001 238.954 705.047 237.904 L 742.299 225.09 C 743.061 224.828 743.828 224.718 744.58 224.768 L 744.57 224.768 L 744.57 224.768 Z" style="fill: rgb(30, 30, 30);" transform="matrix(0.965926, -0.258819, 0.258819, 0.965926, -36.618742, 195.866992)"/>
</svg>