<?xml version="1.0" encoding="utf-8"?>
<svg version="1.0" preserveAspectRatio="xMidYMid meet" xmlns="http://www.w3.org/2000/svg">
  <g id="layer1" fill="#202020" stroke="none" transform="matrix(0.016672, 0, 0, 0.016672, 2.217406, 0.15005)">
    <path d="M2018 2571 c-79 -63 -139 -334 -119 -545 33 -346 185 -702 509 -1192 143 -218 138 -209 124 -200 -7 4 -96 109 -199 234 -463 560 -577 688 -817 911 -471 440 -857 735 -1021 780 -32 8 -44 8 -62 -4 -13 -9 -23 -22 -23 -30 0 -9 31 -46 68 -83 246 -243 570 -714 798 -1157 265 -516 348 -875 245 -1060 -63 -113 -210 -157 -410 -124 -336 54 -720 371 -919 758 -92 179 -116 260 -116 406 -1 107 2 125 22 165 48 92 107 130 199 130 98 -1 213 -69 335 -199 134 -141 217 -283 288 -486 60 -174 83 -300 77 -411 -5 -87 1 -114 25 -114 22 0 63 179 78 342 20 209 -13 397 -95 543 -92 166 -317 343 -504 399 -79 23 -207 21 -275 -5 -68 -25 -149 -97 -181 -160 -178 -350 242 -1074 780 -1346 193 -98 357 -132 537 -112 458 51 659 381 522 856 -107 374 -459 847 -959 1289 -80 70 -143 130 -140 132 10 11 248 -164 420 -307 221 -186 534 -499 754 -755 190 -222 543 -678 815 -1053 64 -89 126 -165 137 -168 23 -8 39 1 39 20 0 8 -74 218 -164 467 -340 939 -534 1506 -543 1592 -5 49 -1 43 102 -144 312 -566 535 -890 790 -1145 187 -187 376 -319 375 -262 0 20 -10 28 -115 106 -364 269 -742 810 -1105 1581 -51 107 -107 227 -125 265 -46 97 -96 126 -147 86z" style="fill: rgb(255, 255, 255);"/>
    <path d="M7355 2566 c-40 -17 -95 -72 -111 -113 -8 -19 -14 -69 -14 -123 0 -49 -2 -90 -5 -90 -3 0 -51 46 -107 103 -162 161 -277 227 -399 227 -192 0 -327 -193 -291 -419 7 -42 15 -91 18 -109 10 -54 -15 -32 -145 127 -301 370 -483 470 -639 354 -69 -51 -91 -141 -67 -275 19 -111 50 -195 141 -390 112 -239 106 -237 -95 31 -298 396 -451 554 -616 639 -64 32 -177 42 -221 19 -177 -91 -166 -341 32 -741 100 -202 95 -199 -107 61 -417 539 -560 678 -720 699 -92 13 -176 -36 -216 -124 -23 -50 -25 -63 -21 -161 6 -131 45 -256 149 -470 38 -79 67 -146 65 -148 -2 -2 -69 83 -149 190 -385 514 -566 691 -728 713 -83 11 -172 -33 -208 -104 -28 -57 -33 -118 -16 -214 19 -111 50 -195 142 -392 41 -87 72 -160 70 -162 -7 -7 -80 80 -185 218 -92 123 -114 144 -133 132 -25 -15 6 -65 178 -286 286 -366 301 -383 365 -399 32 -8 112 -13 198 -14 l145 0 -3 25 c-1 13 -82 162 -179 330 -208 357 -326 588 -350 682 -16 62 -16 69 -2 84 15 14 20 14 59 -6 123 -63 442 -430 861 -990 265 -356 303 -411 489 -730 306 -523 337 -575 356 -592 11 -9 37 -21 59 -27 58 -16 266 -25 285 -12 19 14 -10 70 -275 536 -674 1184 -947 1712 -933 1806 4 34 48 37 101 6 52 -31 180 -162 279 -287 463 -585 820 -1054 880 -1156 19 -33 135 -230 257 -439 123 -209 234 -394 247 -411 28 -38 79 -53 214 -61 110 -7 150 0 150 24 0 18 -40 92 -333 607 -573 1010 -820 1481 -872 1661 -26 89 -7 105 72 63 112 -61 247 -208 638 -698 161 -201 301 -372 311 -382 39 -33 208 -54 334 -40 62 7 65 8 62 32 -1 13 -82 162 -179 330 -332 572 -420 784 -323 772 62 -7 205 -144 469 -450 363 -423 502 -558 650 -636 103 -54 186 -78 271 -79 115 -2 169 21 258 108 l74 72 16 -28 c10 -15 25 -42 34 -59 26 -47 70 -60 200 -60 148 0 188 7 188 32 0 25 -17 58 -202 382 -291 511 -379 712 -319 731 77 24 315 -221 653 -673 170 -228 229 -297 317 -375 149 -132 325 -146 385 -31 45 85 19 288 -63 500 l-30 77 35 -34 c20 -19 95 -113 167 -209 271 -360 425 -472 571 -416 55 21 101 72 117 128 18 69 5 225 -30 362 -18 66 -30 123 -29 127 2 4 46 -48 99 -114 276 -348 444 -492 587 -504 67 -5 111 17 161 81 117 148 58 410 -174 771 -121 188 -156 267 -135 305 44 83 274 -124 555 -500 60 -80 218 -284 350 -455 133 -170 274 -353 313 -406 39 -53 78 -99 87 -103 33 -12 45 -6 45 23 0 21 -15 48 -52 92 -47 56 -52 67 -51 109 1 49 37 146 132 357 74 162 102 266 108 398 3 61 0 130 -5 154 l-10 43 30 -28 c16 -16 60 -65 96 -109 73 -87 82 -96 97 -92 28 9 10 47 -72 155 -261 343 -467 474 -694 442 -110 -16 -174 -46 -247 -114 -58 -54 -84 -107 -90 -183 -9 -120 39 -193 131 -201 65 -5 109 14 137 61 24 39 26 116 5 156 -16 32 -70 81 -88 81 -32 1 -39 17 -23 48 21 40 50 55 91 48 105 -20 276 -335 336 -616 39 -187 29 -502 -17 -517 -10 -3 -364 443 -569 717 -217 291 -358 436 -480 496 -67 33 -80 36 -139 32 -154 -10 -233 -139 -207 -339 21 -167 86 -318 236 -553 143 -224 161 -283 85 -279 -123 6 -420 363 -824 990 -78 121 -105 154 -130 163 -17 7 -106 14 -198 17 l-168 6 0 -23 c0 -22 67 -156 259 -518 181 -342 259 -544 227 -587 -57 -78 -325 221 -745 830 -207 301 -183 275 -266 285 -80 11 -259 13 -292 4 -13 -4 -23 -12 -23 -18 0 -7 77 -147 172 -312 269 -470 405 -748 383 -784 -34 -55 -166 78 -450 450 -189 247 -277 353 -387 461 -176 175 -333 249 -433 205z m-509 -81 c124 -62 262 -207 409 -430 99 -151 163 -262 210 -365 25 -54 30 -78 30 -144 l0 -78 -39 -34 c-116 -101 -242 4 -512 426 -196 306 -282 498 -260 585 17 67 78 82 162 40z" style="fill: rgb(255, 255, 255);"/>
    <path d="M3736 900 c-67 -21 -106 -83 -106 -167 0 -69 24 -125 71 -170 151 -143 352 -25 294 172 -34 118 -158 197 -259 165z" style="fill: rgb(255, 255, 255);"/>
    <path d="M6424 881 c-76 -35 -107 -120 -80 -216 40 -137 184 -213 290 -152 52 30 76 77 76 151 0 74 -27 133 -81 179 -66 57 -135 70 -205 38z" style="fill: rgb(255, 255, 255);"/>
  </g>
</svg>