<?xml version="1.0" encoding="utf-8"?>
<svg version="1.1" id="Layer_2" x="0px" y="0px" viewBox="0 0 1280 720" enable-background="new 0 0 598.189 350.26" preserveAspectRatio="none" xmlns="http://www.w3.org/2000/svg">
  <path d="M 392.782 396.534 L 392.782 380.922 L 421.438 380.922 L 421.438 395.501 L 421.438 396.534 L 392.782 396.534 L 392.782 396.534 Z M 420.407 395.5 L 420.407 394.469 L 420.407 395.5 L 420.407 395.5 Z M 394.845 394.469 L 419.375 394.469 L 419.375 382.985 L 394.845 382.985 L 394.845 394.469 L 394.845 394.469 Z" style="fill: rgb(30, 30, 30);" transform="matrix(0.965926, -0.258819, 0.258819, 0.965926, -86.738168, 118.613212)"/>
  <path d="M 429.641 386.658 L 429.641 371.046 L 458.298 371.046 L 458.298 385.625 L 458.298 386.658 L 429.641 386.658 L 429.641 386.658 Z M 457.266 385.624 L 457.266 384.593 L 457.266 385.624 L 457.266 385.624 Z M 431.705 384.593 L 456.235 384.593 L 456.235 373.107 L 431.705 373.107 L 431.705 384.593 L 431.705 384.593 Z" style="fill: rgb(30, 30, 30);" transform="matrix(0.965926, -0.258819, 0.258819, 0.965926, -82.926194, 127.816777)"/>
  <path d="M 466.501 376.781 L 466.501 361.169 L 495.156 361.169 L 495.156 375.748 L 495.156 376.781 L 466.501 376.781 L 466.501 376.781 Z M 494.125 375.747 L 494.125 374.716 L 494.125 375.747 L 494.125 375.747 Z M 468.565 374.716 L 493.093 374.716 L 493.093 363.23 L 468.565 363.23 L 468.565 374.716 L 468.565 374.716 Z" style="fill: rgb(30, 30, 30);" transform="matrix(0.965926, -0.258819, 0.258819, 0.965926, -79.113904, 137.020037)"/>
  <path d="M 503.362 366.904 L 503.362 351.292 L 532.018 351.292 L 532.018 365.871 L 532.018 366.904 L 503.362 366.904 L 503.362 366.904 Z M 530.987 365.87 L 530.987 364.839 L 530.987 365.87 L 530.987 365.87 Z M 505.425 364.839 L 529.954 364.839 L 529.952 353.353 L 505.425 353.353 L 505.425 364.839 L 505.425 364.839 Z" style="fill: rgb(30, 30, 30);" transform="matrix(0.965926, -0.258819, 0.258819, 0.965926, -75.301521, 146.223944)"/>
  <path d="M 540.221 357.028 L 540.221 341.416 L 568.877 341.416 L 568.877 355.995 L 568.877 357.028 L 540.221 357.028 L 540.221 357.028 Z M 567.846 355.994 L 567.846 354.963 L 567.846 355.994 L 567.846 355.994 Z M 542.284 354.963 L 566.815 354.963 L 566.815 343.477 L 542.284 343.477 L 542.284 354.963 L 542.284 354.963 Z" style="fill: rgb(30, 30, 30);" transform="matrix(0.965926, -0.258819, 0.258819, 0.965926, -71.48954, 155.427423)"/>
  <path d="M 577.083 347.151 L 577.083 331.539 L 605.737 331.539 L 605.737 346.118 L 605.737 347.151 L 577.083 347.151 L 577.083 347.151 Z M 604.706 346.117 L 604.706 345.086 L 604.706 346.117 L 604.706 346.117 Z M 579.146 345.086 L 603.674 345.086 L 603.674 333.6 L 579.146 333.6 L 579.146 345.086 L 579.146 345.086 Z" style="fill: rgb(30, 30, 30);" transform="matrix(0.965926, -0.258819, 0.258819, 0.965926, -67.677152, 164.631124)"/>
  <path d="M 613.942 337.275 L 613.942 321.663 L 642.598 321.663 L 642.598 336.241 L 642.598 337.273 L 613.942 337.273 L 613.942 337.275 Z M 641.566 336.241 L 641.566 335.21 L 641.566 336.241 L 641.566 336.241 Z M 616.004 335.21 L 640.534 335.21 L 640.534 323.725 L 616.004 323.725 L 616.004 335.21 L 616.004 335.21 Z" style="fill: rgb(30, 30, 30);" transform="matrix(0.965926, -0.258819, 0.258819, 0.965926, -63.865054, 173.834566)"/>
  <path d="M 650.801 327.398 L 650.801 311.786 L 679.458 311.786 L 679.458 326.364 L 679.458 327.398 L 650.801 327.398 L 650.801 327.398 Z M 678.425 326.364 L 678.425 325.333 L 678.425 326.364 L 678.425 326.364 Z M 652.864 325.333 L 677.393 325.333 L 677.392 313.848 L 652.864 313.848 L 652.864 325.333 L 652.864 325.333 Z" style="fill: rgb(30, 30, 30);" transform="matrix(0.965926, -0.258819, 0.258819, 0.965926, -60.052748, 183.037953)"/>
  <path d="M 687.66 317.52 L 687.66 301.91 L 716.317 301.91 L 716.317 316.489 L 716.317 317.52 L 687.66 317.52 L 687.66 317.52 Z M 715.285 316.489 L 715.285 315.457 L 715.285 316.489 L 715.285 316.489 Z M 689.723 315.457 L 714.253 315.457 L 714.253 303.973 L 689.723 303.973 L 689.723 315.457 L 689.723 315.457 Z" style="fill: rgb(30, 30, 30);" transform="matrix(0.965926, -0.258819, 0.258819, 0.965926, -56.24045, 192.241212)"/>
  <path d="M 724.521 307.643 L 724.521 292.033 L 753.175 292.033 L 753.175 306.612 L 753.175 307.645 L 724.521 307.645 L 724.521 307.643 Z M 752.144 306.612 L 752.144 305.58 L 752.144 306.612 L 752.144 306.612 Z M 726.582 305.58 L 751.112 305.58 L 751.112 294.096 L 726.582 294.096 L 726.582 305.58 L 726.582 305.58 Z" style="fill: rgb(30, 30, 30);" transform="matrix(0.965926, -0.258819, 0.258819, 0.965926, -52.428425, 201.444865)"/>
  <path d="M 761.382 297.765 L 761.382 282.154 L 790.037 282.154 L 790.037 296.734 L 790.037 297.766 L 761.382 297.766 L 761.382 297.765 Z M 789.005 296.734 L 789.005 295.703 L 789.005 296.734 L 789.005 296.734 Z M 763.446 295.703 L 787.974 295.703 L 787.972 284.218 L 763.446 284.218 L 763.446 295.703 L 763.446 295.703 Z" style="fill: rgb(30, 30, 30);" transform="matrix(0.965926, -0.258819, 0.258819, 0.965926, -48.615501, 210.648456)"/>
  <path d="M 798.242 287.889 L 798.242 272.28 L 826.896 272.28 L 826.896 286.858 L 826.896 287.889 L 798.242 287.889 L 798.242 287.889 Z M 825.864 286.858 L 825.864 285.827 L 825.864 286.858 L 825.864 286.858 Z M 800.305 285.827 L 824.833 285.827 L 824.833 274.342 L 800.305 274.342 L 800.305 285.827 L 800.305 285.827 Z" style="fill: rgb(30, 30, 30);" transform="matrix(0.965926, -0.258819, 0.258819, 0.965926, -44.803582, 219.851893)"/>
  <path d="M 835.1 278.013 L 835.1 262.403 L 863.757 262.403 L 863.757 276.981 L 863.757 278.013 L 835.1 278.013 L 835.1 278.013 Z M 862.725 276.981 L 862.725 275.95 L 862.725 276.981 L 862.725 276.981 Z M 837.165 275.95 L 861.692 275.95 L 861.692 264.466 L 837.165 264.466 L 837.165 275.95 L 837.165 275.95 Z" style="fill: rgb(30, 30, 30);" transform="matrix(0.965926, -0.258819, 0.258819, 0.965926, -40.99142, 229.0557)"/>
  <path d="M 385.559 437.427 L 385.559 421.817 L 414.216 421.817 L 414.216 436.394 L 414.216 437.427 L 385.559 437.427 L 385.559 437.427 Z M 413.183 436.394 L 413.183 435.362 L 413.183 436.394 L 413.183 436.394 Z M 387.622 435.362 L 412.151 435.362 L 412.151 423.878 L 387.622 423.878 L 387.622 435.362 L 387.622 435.362 Z" style="fill: rgb(30, 30, 30);" transform="matrix(0.965926, -0.258819, 0.258819, 0.965926, -97.568485, 118.137472)"/>
  <path d="M 422.418 427.551 L 422.418 411.941 L 451.075 411.941 L 451.075 426.518 L 451.075 427.551 L 422.418 427.551 L 422.418 427.551 Z M 450.043 426.518 L 450.043 425.486 L 450.043 426.518 L 450.043 426.518 Z M 424.482 425.486 L 449.012 425.486 L 449.012 414.002 L 424.482 414.002 L 424.482 425.486 L 424.482 425.486 Z" style="fill: rgb(30, 30, 30);" transform="matrix(0.965926, -0.258819, 0.258819, 0.965926, -93.756456, 127.340767)"/>
  <path d="M 459.28 417.674 L 459.28 402.064 L 487.934 402.064 L 487.934 416.641 L 487.934 417.674 L 459.28 417.674 L 459.28 417.674 Z M 486.902 416.641 L 486.902 415.609 L 486.902 416.641 L 486.902 416.641 Z M 461.342 415.609 L 485.871 415.609 L 485.871 404.125 L 461.342 404.125 L 461.342 415.609 L 461.342 415.609 Z" style="fill: rgb(30, 30, 30);" transform="matrix(0.965926, -0.258819, 0.258819, 0.965926, -89.944116, 136.544406)"/>
  <path d="M 496.139 407.797 L 496.139 392.187 L 524.795 392.187 L 524.795 406.764 L 524.795 407.797 L 496.139 407.797 L 496.139 407.797 Z M 523.762 406.764 L 523.762 405.732 L 523.762 406.764 L 523.762 406.764 Z M 498.202 405.732 L 522.731 405.732 L 522.731 394.248 L 498.202 394.248 L 498.202 405.732 L 498.202 405.732 Z" style="fill: rgb(30, 30, 30);" transform="matrix(0.965926, -0.258819, 0.258819, 0.965926, -86.131784, 145.747918)"/>
  <path d="M 532.999 397.921 L 532.999 382.311 L 561.655 382.311 L 561.655 396.888 L 561.655 397.921 L 532.999 397.921 L 532.999 397.921 Z M 560.622 396.888 L 560.622 395.856 L 560.622 396.888 L 560.622 396.888 Z M 535.062 395.856 L 559.593 395.856 L 559.593 384.372 L 535.062 384.372 L 535.062 395.856 L 535.062 395.856 Z" style="fill: rgb(30, 30, 30);" transform="matrix(0.965926, -0.258819, 0.258819, 0.965926, -82.319712, 154.95148)"/>
  <path d="M 569.859 388.044 L 569.859 372.434 L 598.515 372.434 L 598.515 387.011 L 598.515 388.044 L 569.859 388.044 L 569.859 388.044 Z M 597.483 387.011 L 597.483 385.979 L 597.483 387.011 L 597.483 387.011 Z M 571.922 385.979 L 596.453 385.979 L 596.453 374.495 L 571.922 374.495 L 571.922 385.979 L 571.922 385.979 Z" style="fill: rgb(30, 30, 30);" transform="matrix(0.965926, -0.258819, 0.258819, 0.965926, -78.507389, 164.154993)"/>
  <path d="M 606.719 378.168 L 606.719 362.558 L 635.374 362.558 L 635.374 377.135 L 635.374 378.168 L 606.719 378.168 L 606.719 378.168 Z M 634.344 377.135 L 634.344 376.103 L 634.344 377.135 L 634.344 377.135 Z M 608.78 376.103 L 633.311 376.103 L 633.311 364.619 L 608.78 364.619 L 608.78 376.103 L 608.78 376.103 Z" style="fill: rgb(30, 30, 30);" transform="matrix(0.965926, -0.258819, 0.258819, 0.965926, -74.695335, 173.358413)"/>
  <path d="M 643.579 368.289 L 643.579 352.679 L 672.231 352.679 L 672.231 367.258 L 672.231 368.289 L 643.579 368.289 L 643.579 368.289 Z M 671.203 367.258 L 671.203 366.226 L 671.203 367.258 L 671.203 367.258 Z M 645.642 366.226 L 670.17 366.226 L 670.168 354.741 L 645.642 354.741 L 645.642 366.226 L 645.642 366.226 Z" style="fill: rgb(30, 30, 30);" transform="matrix(0.965926, -0.258819, 0.258819, 0.965926, -70.88254, 182.561479)"/>
  <path d="M 680.436 358.413 L 680.436 342.804 L 709.094 342.804 L 709.094 357.382 L 709.094 358.413 L 680.436 358.413 L 680.436 358.413 Z M 708.062 357.382 L 708.062 356.35 L 708.062 357.382 L 708.062 357.382 Z M 682.501 356.35 L 707.029 356.35 L 707.029 344.866 L 682.501 344.866 L 682.501 356.35 L 682.501 356.35 Z" style="fill: rgb(30, 30, 30);" transform="matrix(0.965926, -0.258819, 0.258819, 0.965926, -67.070596, 191.765042)"/>
  <path d="M 717.296 348.536 L 717.296 332.926 L 745.954 332.926 L 745.954 347.504 L 745.954 348.536 L 717.296 348.536 L 717.296 348.536 Z M 744.922 347.504 L 744.922 346.473 L 744.922 347.504 L 744.922 347.504 Z M 719.36 346.473 L 743.89 346.473 L 743.89 334.989 L 719.36 334.989 L 719.36 346.473 L 719.36 346.473 Z" style="fill: rgb(30, 30, 30);" transform="matrix(0.965926, -0.258819, 0.258819, 0.965926, -63.258146, 200.968538)"/>
  <path d="M 754.158 338.661 L 754.158 323.049 L 782.815 323.049 L 782.815 337.628 L 782.815 338.661 L 754.158 338.661 L 754.158 338.661 Z M 781.783 337.628 L 781.783 336.596 L 781.783 337.628 L 781.783 337.628 Z M 756.221 336.596 L 780.75 336.596 L 780.75 325.114 L 756.221 325.114 L 756.221 336.596 L 756.221 336.596 Z" style="fill: rgb(30, 30, 30);" transform="matrix(0.965926, -0.258819, 0.258819, 0.965926, -59.446024, 210.172479)"/>
  <path d="M 791.018 328.783 L 791.018 313.174 L 819.674 313.174 L 819.674 327.751 L 819.674 328.783 L 791.018 328.783 L 791.018 328.783 Z M 818.644 327.751 L 818.644 326.72 L 818.644 327.751 L 818.644 327.751 Z M 793.079 326.72 L 817.609 326.72 L 817.609 315.236 L 793.079 315.236 L 793.079 326.72 L 793.079 326.72 Z" style="fill: rgb(30, 30, 30);" transform="matrix(0.965926, -0.258819, 0.258819, 0.965926, -55.63386, 219.376019)"/>
  <path d="M 827.877 318.908 L 827.877 303.297 L 856.534 303.297 L 856.534 317.875 L 856.534 318.908 L 827.877 318.908 L 827.877 318.908 Z M 855.503 317.875 L 855.503 316.843 L 855.503 317.875 L 855.503 317.875 Z M 829.941 316.843 L 854.469 316.843 L 854.469 305.359 L 829.941 305.359 L 829.941 316.843 L 829.941 316.843 Z" style="fill: rgb(30, 30, 30);" transform="matrix(0.965926, -0.258819, 0.258819, 0.965926, -51.821797, 228.579427)"/>
  <path d="M 862.773 309.558 L 862.773 293.948 L 891.429 293.948 L 891.429 308.525 L 891.429 309.558 L 862.773 309.558 L 862.773 309.558 Z M 890.397 308.525 L 890.397 307.493 L 890.397 308.525 L 890.397 308.525 Z M 864.836 307.493 L 889.366 307.493 L 889.366 296.011 L 864.836 296.011 L 864.836 307.493 L 864.836 307.493 Z" style="fill: rgb(30, 30, 30);" transform="matrix(0.965926, -0.258819, 0.258819, 0.965926, -48.212925, 237.292329)"/>
  <path d="M 405.961 470.916 L 405.961 455.305 L 434.615 455.305 L 434.615 469.883 L 434.615 470.916 L 405.961 470.916 L 405.961 470.916 Z M 433.585 469.883 L 433.585 468.851 L 433.585 469.883 L 433.585 469.883 Z M 408.024 468.851 L 432.553 468.851 L 432.553 457.367 L 408.024 457.367 L 408.024 468.851 L 408.024 468.851 Z" style="fill: rgb(30, 30, 30);" transform="matrix(0.965926, -0.258819, 0.258819, 0.965926, -105.540822, 124.558588)"/>
  <path d="M 442.819 461.039 L 442.819 445.428 L 471.476 445.428 L 471.476 460.007 L 471.476 461.039 L 442.819 461.039 L 442.819 461.039 Z M 470.443 460.007 L 470.443 458.974 L 470.443 460.007 L 470.443 460.007 Z M 444.882 458.974 L 469.411 458.974 L 469.411 447.491 L 444.882 447.491 L 444.882 458.974 L 444.882 458.974 Z" style="fill: rgb(30, 30, 30);" transform="matrix(0.965926, -0.258819, 0.258819, 0.965926, -101.728521, 133.761992)"/>
  <path d="M 479.68 451.163 L 479.68 435.552 L 508.335 435.552 L 508.335 450.13 L 508.335 451.163 L 479.68 451.163 L 479.68 451.163 Z M 507.304 450.13 L 507.304 449.098 L 507.304 450.13 L 507.304 450.13 Z M 481.743 449.098 L 506.272 449.098 L 506.272 437.616 L 481.743 437.616 L 481.743 449.098 L 481.743 449.098 Z" style="fill: rgb(30, 30, 30);" transform="matrix(0.965926, -0.258819, 0.258819, 0.965926, -97.916427, 142.965535)"/>
  <path d="M 516.539 441.286 L 516.539 425.675 L 545.196 425.675 L 545.196 440.253 L 545.196 441.286 L 516.539 441.286 L 516.539 441.286 Z M 544.164 440.253 L 544.164 439.221 L 544.164 440.253 L 544.164 440.253 Z M 518.602 439.221 L 543.131 439.221 L 543.131 427.737 L 518.602 427.737 L 518.602 439.221 L 518.602 439.221 Z" style="fill: rgb(30, 30, 30);" transform="matrix(0.965926, -0.258819, 0.258819, 0.965926, -94.104112, 152.169049)"/>
  <path d="M 553.4 431.41 L 553.4 415.799 L 582.054 415.799 L 582.054 430.377 L 582.054 431.41 L 553.4 431.41 L 553.4 431.41 Z M 581.024 430.377 L 581.024 429.345 L 581.024 430.377 L 581.024 430.377 Z M 555.462 429.345 L 579.991 429.345 L 579.991 417.861 L 555.462 417.861 L 555.462 429.345 L 555.462 429.345 Z" style="fill: rgb(30, 30, 30);" transform="matrix(0.965926, -0.258819, 0.258819, 0.965926, -90.292064, 161.372486)"/>
  <path d="M 590.259 421.533 L 590.259 405.922 L 618.915 405.922 L 618.915 420.5 L 618.915 421.533 L 590.259 421.533 L 590.259 421.533 Z M 617.883 420.5 L 617.883 419.468 L 617.883 420.5 L 617.883 420.5 Z M 592.321 419.468 L 616.851 419.468 L 616.851 407.986 L 592.321 407.986 L 592.321 419.468 L 592.321 419.468 Z" style="fill: rgb(30, 30, 30);" transform="matrix(0.965926, -0.258819, 0.258819, 0.965926, -86.479719, 170.57598)"/>
  <path d="M 627.12 411.657 L 627.12 396.046 L 655.774 396.046 L 655.774 410.624 L 655.774 411.657 L 627.12 411.657 L 627.12 411.657 Z M 654.745 410.624 L 654.745 409.592 L 654.745 410.624 L 654.745 410.624 Z M 629.183 409.592 L 653.712 409.592 L 653.71 398.11 L 629.183 398.11 L 629.183 409.592 L 629.183 409.592 Z" style="fill: rgb(30, 30, 30);" transform="matrix(0.965926, -0.258819, 0.258819, 0.965926, -82.667697, 179.779659)"/>
  <path d="M 663.979 401.78 L 663.979 386.169 L 692.637 386.169 L 692.637 400.747 L 692.637 401.78 L 663.979 401.78 L 663.979 401.78 Z M 691.603 400.747 L 691.603 399.715 L 691.603 400.747 L 691.603 400.747 Z M 666.042 399.715 L 690.571 399.715 L 690.571 388.233 L 666.042 388.233 L 666.042 399.715 L 666.042 399.715 Z" style="fill: rgb(30, 30, 30);" transform="matrix(0.965926, -0.258819, 0.258819, 0.965926, -78.855358, 188.983533)"/>
  <path d="M 700.84 391.902 L 700.84 376.293 L 729.496 376.293 L 729.496 390.871 L 729.496 391.902 L 700.84 391.902 L 700.84 391.902 Z M 728.464 390.871 L 728.464 389.838 L 728.464 390.871 L 728.464 390.871 Z M 702.901 389.838 L 727.432 389.838 L 727.43 378.354 L 702.901 378.354 L 702.901 389.838 L 702.901 389.838 Z" style="fill: rgb(30, 30, 30);" transform="matrix(0.965926, -0.258819, 0.258819, 0.965926, -75.042974, 198.186823)"/>
  <path d="M 737.697 382.027 L 737.697 366.417 L 766.353 366.417 L 766.353 380.994 L 766.353 382.027 L 737.697 382.027 L 737.697 382.027 Z M 765.324 380.994 L 765.324 379.962 L 765.324 380.994 L 765.324 380.994 Z M 739.762 379.962 L 764.291 379.962 L 764.289 368.48 L 739.762 368.48 L 739.762 379.962 L 739.762 379.962 Z" style="fill: rgb(30, 30, 30);" transform="matrix(0.965926, -0.258819, 0.258819, 0.965926, -71.23113, 207.389627)"/>
  <path d="M 774.561 372.15 L 774.561 356.54 L 803.216 356.54 L 803.216 371.117 L 803.216 372.15 L 774.561 372.15 L 774.561 372.15 Z M 802.184 371.117 L 802.184 370.085 L 802.184 371.117 L 802.184 371.117 Z M 776.623 370.085 L 801.151 370.085 L 801.151 358.603 L 776.623 358.603 L 776.623 370.085 L 776.623 370.085 Z" style="fill: rgb(30, 30, 30);" transform="matrix(0.965926, -0.258819, 0.258819, 0.965926, -67.418688, 216.594041)"/>
  <path d="M 811.419 362.273 L 811.419 346.664 L 840.075 346.664 L 840.075 361.242 L 840.075 362.273 L 811.419 362.273 L 811.419 362.273 Z M 839.043 361.242 L 839.043 360.211 L 839.043 361.242 L 839.043 361.242 Z M 813.483 360.211 L 838.01 360.211 L 838.01 348.727 L 813.483 348.727 L 813.483 360.211 L 813.483 360.211 Z" style="fill: rgb(30, 30, 30);" transform="matrix(0.965926, -0.258819, 0.258819, 0.965926, -63.606543, 225.797176)"/>
  <path d="M 847.706 348.047 L 847.706 332.437 L 909.981 332.437 L 909.981 347.014 L 909.981 348.047 L 847.706 348.047 L 847.706 348.047 Z M 908.947 347.014 L 908.947 345.982 L 908.947 347.014 L 908.947 347.014 Z M 849.77 345.982 L 907.915 345.982 L 907.915 334.5 L 849.77 334.5 L 849.77 345.982 L 849.77 345.982 Z" style="fill: rgb(30, 30, 30);" transform="matrix(0.965926, -0.258819, 0.258819, 0.965926, -58.115235, 239.054815)"/>
  <path d="M 434.601 502.2 L 434.601 486.59 L 463.257 486.59 L 463.257 501.169 L 463.257 502.2 L 434.601 502.2 L 434.601 502.2 Z M 462.226 501.169 L 462.226 500.136 L 462.226 501.169 L 462.226 501.169 Z M 436.665 500.136 L 461.194 500.136 L 461.194 488.652 L 436.665 488.652 L 436.665 500.136 L 436.665 500.136 Z" style="fill: rgb(30, 30, 30);" transform="matrix(0.965926, -0.258819, 0.258819, 0.965926, -112.661936, 133.03743)"/>
  <path d="M 471.461 492.324 L 471.461 476.714 L 500.116 476.714 L 500.116 491.293 L 500.116 492.324 L 471.461 492.324 L 471.461 492.324 Z M 499.085 491.293 L 499.085 490.26 L 499.085 491.293 L 499.085 491.293 Z M 473.525 490.26 L 498.053 490.26 L 498.053 478.776 L 473.525 478.776 L 473.525 490.26 L 473.525 490.26 Z" style="fill: rgb(30, 30, 30);" transform="matrix(0.965926, -0.258819, 0.258819, 0.965926, -108.849858, 142.240847)"/>
  <path d="M 508.321 482.447 L 508.321 466.837 L 536.976 466.837 L 536.976 481.416 L 536.976 482.447 L 508.321 482.447 L 508.321 482.447 Z M 535.945 481.416 L 535.945 480.383 L 535.945 481.416 L 535.945 481.416 Z M 510.383 480.383 L 534.912 480.383 L 534.912 468.899 L 510.383 468.899 L 510.383 480.383 L 510.383 480.383 Z" style="fill: rgb(30, 30, 30);" transform="matrix(0.965926, -0.258819, 0.258819, 0.965926, -105.037543, 151.444361)"/>
  <path d="M 545.182 472.57 L 545.182 456.96 L 573.836 456.96 L 573.836 471.539 L 573.836 472.57 L 545.182 472.57 L 545.182 472.57 Z M 572.804 471.539 L 572.804 470.506 L 572.804 471.539 L 572.804 471.539 Z M 547.245 470.506 L 571.773 470.506 L 571.773 459.022 L 547.245 459.022 L 547.245 470.506 L 547.245 470.506 Z" style="fill: rgb(30, 30, 30);" transform="matrix(0.965926, -0.258819, 0.258819, 0.965926, -101.225209, 160.648017)"/>
  <path d="M 582.039 462.694 L 582.039 447.084 L 610.697 447.084 L 610.697 461.663 L 610.697 462.694 L 582.039 462.694 L 582.039 462.694 Z M 609.663 461.663 L 609.663 460.63 L 609.663 461.663 L 609.663 461.663 Z M 584.103 460.63 L 608.634 460.63 L 608.632 449.146 L 584.103 449.146 L 584.103 460.63 L 584.103 460.63 Z" style="fill: rgb(30, 30, 30);" transform="matrix(0.965926, -0.258819, 0.258819, 0.965926, -97.413164, 169.85131)"/>
  <path d="M 618.9 452.818 L 618.9 437.208 L 647.555 437.208 L 647.555 451.786 L 647.555 452.818 L 618.9 452.818 L 618.9 452.818 Z M 646.524 451.786 L 646.524 450.754 L 646.524 451.786 L 646.524 451.786 Z M 620.964 450.754 L 645.492 450.754 L 645.492 439.27 L 620.964 439.27 L 620.964 450.754 L 620.964 450.754 Z" style="fill: rgb(30, 30, 30);" transform="matrix(0.965926, -0.258819, 0.258819, 0.965926, -93.601102, 179.054729)"/>
  <path d="M 655.761 442.941 L 655.761 427.331 L 684.417 427.331 L 684.417 441.91 L 684.417 442.941 L 655.761 442.941 L 655.761 442.941 Z M 683.386 441.91 L 683.386 440.877 L 683.386 441.91 L 683.386 441.91 Z M 657.824 440.877 L 682.352 440.877 L 682.352 429.393 L 657.824 429.393 L 657.824 440.877 L 657.824 440.877 Z" style="fill: rgb(30, 30, 30);" transform="matrix(0.965926, -0.25882, 0.25882, 0.965926, -89.788882, 188.25907)"/>
  <path d="M 692.62 433.064 L 692.62 417.454 L 721.277 417.454 L 721.277 432.033 L 721.277 433.064 L 692.62 433.064 L 692.62 433.064 Z M 720.244 432.033 L 720.244 431 L 720.244 432.033 L 720.244 432.033 Z M 694.683 431 L 719.211 431 L 719.211 419.516 L 694.683 419.516 L 694.683 431 L 694.683 431 Z" style="fill: rgb(30, 30, 30);" transform="matrix(0.965926, -0.25882, 0.25882, 0.965926, -85.976557, 197.462475)"/>
  <path d="M 729.479 423.188 L 729.479 407.577 L 758.136 407.577 L 758.136 422.157 L 758.136 423.188 L 729.479 423.188 L 729.479 423.188 Z M 757.105 422.157 L 757.105 421.124 L 757.105 422.157 L 757.105 422.157 Z M 731.542 421.124 L 756.073 421.124 L 756.07 409.64 L 731.542 409.64 L 731.542 421.124 L 731.542 421.124 Z" style="fill: rgb(30, 30, 30);" transform="matrix(0.965926, -0.258819, 0.258819, 0.965926, -82.164284, 206.665414)"/>
  <path d="M 766.34 413.311 L 766.34 397.7 L 794.995 397.7 L 794.995 412.281 L 794.995 413.311 L 766.34 413.311 L 766.34 413.311 Z M 793.963 412.281 L 793.963 411.248 L 793.963 412.281 L 793.963 412.281 Z M 768.404 411.248 L 792.932 411.248 L 792.932 399.764 L 768.404 399.764 L 768.404 411.248 L 768.404 411.248 Z" style="fill: rgb(30, 30, 30);" transform="matrix(0.965926, -0.258819, 0.258819, 0.965926, -78.351928, 215.868797)"/>
  <path d="M 803.199 403.434 L 803.199 387.823 L 831.857 387.823 L 831.857 402.404 L 831.857 403.434 L 803.199 403.434 L 803.199 403.434 Z M 830.824 402.404 L 830.824 401.371 L 830.824 402.404 L 830.824 402.404 Z M 805.262 401.371 L 829.792 401.371 L 829.792 389.886 L 805.262 389.886 L 805.262 401.371 L 805.262 401.371 Z" style="fill: rgb(30, 30, 30);" transform="matrix(0.965926, -0.258819, 0.258819, 0.965926, -74.53958, 225.072435)"/>
  <path d="M 840.059 393.559 L 840.059 377.947 L 868.716 377.947 L 868.716 392.527 L 868.716 393.559 L 840.059 393.559 L 840.059 393.559 Z M 867.682 392.527 L 867.682 391.494 L 867.682 392.527 L 867.682 392.527 Z M 842.122 391.494 L 866.651 391.494 L 866.651 380.01 L 842.122 380.01 L 842.122 391.494 L 842.122 391.494 Z" style="fill: rgb(30, 30, 30);" transform="matrix(0.965926, -0.258819, 0.258819, 0.965926, -70.727656, 234.275904)"/>
  <path d="M 515.099 519.59 L 515.099 503.979 L 543.753 503.979 L 543.753 518.558 L 543.753 519.59 L 515.099 519.59 L 515.099 519.59 Z M 542.723 518.558 L 542.723 517.527 L 542.723 518.558 L 542.723 518.558 Z M 517.16 517.527 L 541.691 517.527 L 541.689 506.042 L 517.16 506.042 L 517.16 517.527 L 517.16 517.527 Z" style="fill: rgb(30, 30, 30);" transform="matrix(0.965926, -0.258819, 0.258819, 0.965926, -114.419792, 154.464113)"/>
  <path d="M 551.96 509.713 L 551.96 494.102 L 580.614 494.102 L 580.614 508.681 L 580.614 509.713 L 551.96 509.713 L 551.96 509.713 Z M 579.584 508.681 L 579.584 507.65 L 579.584 508.681 L 579.584 508.681 Z M 554.021 507.65 L 578.55 507.65 L 578.55 496.165 L 554.021 496.165 L 554.021 507.65 L 554.021 507.65 Z" style="fill: rgb(30, 30, 30);" transform="matrix(0.965926, -0.258819, 0.258819, 0.965926, -110.607428, 163.667878)"/>
  <path d="M 586.216 480.065 L 586.216 464.454 L 767.651 464.454 L 767.651 479.033 L 767.651 480.065 L 586.216 480.065 L 586.216 480.065 Z M 766.62 479.033 L 766.62 478.002 L 766.62 479.033 L 766.62 479.033 Z M 588.28 478.002 L 765.589 478.002 L 765.589 466.517 L 588.28 466.517 L 588.28 478.002 L 588.28 478.002 Z" style="fill: rgb(30, 30, 30);" transform="matrix(0.965926, -0.258819, 0.258819, 0.965926, -99.163792, 191.295057)"/>
  <path d="M 773.009 450.482 L 773.009 434.871 L 801.666 434.871 L 801.666 449.45 L 801.666 450.482 L 773.009 450.482 L 773.009 450.482 Z M 800.635 449.45 L 800.635 448.419 L 800.635 449.45 L 800.635 449.45 Z M 775.073 448.419 L 799.602 448.419 L 799.602 436.932 L 775.073 436.932 L 775.073 448.419 L 775.073 448.419 Z" style="fill: rgb(30, 30, 30);" transform="matrix(0.965926, -0.258819, 0.258819, 0.965926, -87.745224, 218.861703)"/>
  <path d="M 809.871 440.605 L 809.871 424.994 L 838.527 424.994 L 838.527 439.573 L 838.527 440.605 L 809.871 440.605 L 809.871 440.605 Z M 837.495 439.573 L 837.495 438.54 L 837.495 439.573 L 837.495 439.573 Z M 811.932 438.54 L 836.462 438.54 L 836.462 427.055 L 811.932 427.055 L 811.932 438.54 L 811.932 438.54 Z" style="fill: rgb(30, 30, 30);" transform="matrix(0.965926, -0.258819, 0.258819, 0.965926, -83.932827, 228.065592)"/>
  <path d="M 332.876 295.393 C 331.59 295.376 330.554 295.322 329.705 294.521 L 329.705 294.521 C 328.906 293.671 328.849 292.638 328.834 291.352 L 328.834 291.352 L 328.834 197.526 C 328.834 194.46 331.316 191.979 334.38 191.977 L 334.38 191.977 L 883.285 191.977 C 886.351 191.979 888.832 194.461 888.834 197.526 L 888.834 197.526 L 888.834 291.352 C 888.816 292.638 888.76 293.672 887.96 294.521 L 887.96 294.521 C 887.113 295.32 886.078 295.376 884.791 295.393 L 884.791 295.393 L 332.876 295.393 L 332.876 295.393 Z M 884.791 293.33 C 885.998 293.345 886.468 293.143 886.501 293.063 L 886.501 293.063 C 886.585 293.03 886.786 292.559 886.768 291.352 L 886.768 291.352 L 886.771 197.526 C 886.766 195.602 885.211 194.045 883.285 194.041 L 883.285 194.041 L 334.38 194.041 C 332.457 194.045 330.9 195.602 330.898 197.526 L 330.898 197.526 L 330.898 291.352 C 330.88 292.559 331.083 293.03 331.165 293.063 L 331.165 293.063 C 331.198 293.145 331.669 293.345 332.876 293.33 L 332.876 293.33 L 884.791 293.33 L 884.791 293.33 Z" style="fill: rgb(30, 30, 30);" transform="matrix(0.965926, -0.258819, 0.258819, 0.965926, -42.324809, 165.881238)"/>
  <polygon points="380.807 360.033 382.868 359.976 388.556 575.056 386.494 575.111 380.807 360.033" style="fill: rgb(30, 30, 30);" transform="matrix(0.965926, -0.25882, 0.25882, 0.965926, -107.901657, 115.494345)"/>
  <polygon points="910.524 433.119 916.209 218.04 918.273 218.094 912.586 433.173 910.524 433.119" style="fill: rgb(30, 30, 30);" transform="matrix(0.965926, -0.258819, 0.258819, 0.965926, -53.115818, 247.758883)"/>
  <path d="M 411.176 526.712 C 408.111 526.712 405.628 524.23 405.628 521.165 L 405.628 521.165 L 405.628 503.439 C 405.628 502.07 405.902 500.874 406.751 500.018 L 406.751 500.018 C 407.609 499.168 408.805 498.893 410.173 498.893 L 410.173 498.893 L 951.886 498.896 C 953.253 498.893 954.449 499.168 955.307 500.018 L 955.307 500.018 C 956.157 500.874 956.43 502.07 956.43 503.439 L 956.43 503.439 L 956.43 521.165 C 956.428 524.23 953.945 526.712 950.882 526.712 L 950.882 526.712 L 411.176 526.712 L 411.176 526.712 Z M 408.209 501.476 C 407.927 501.75 407.692 502.312 407.69 503.437 L 407.69 503.437 L 407.69 521.165 C 407.694 523.09 409.251 524.644 411.175 524.65 L 411.175 524.65 L 950.881 524.65 C 952.806 524.644 954.362 523.09 954.364 521.165 L 954.364 521.165 L 954.364 503.437 C 954.364 502.311 954.13 501.749 953.845 501.476 L 953.845 501.476 C 953.572 501.191 953.011 500.957 951.885 500.957 L 951.885 500.957 L 410.173 500.957 C 409.046 500.957 408.485 501.191 408.209 501.476 L 408.209 501.476 Z" style="fill: rgb(30, 30, 30);" transform="matrix(0.965926, -0.258819, 0.258819, 0.965926, -109.517529, 193.736522)"/>
  <path d="M 756.729 180.059 C 753.944 180.059 751.683 177.801 751.683 175.014 L 751.683 175.014 L 751.683 157.453 C 751.683 154.666 753.943 152.409 756.729 152.407 L 756.729 152.407 L 835.503 152.409 C 838.289 152.409 840.547 154.666 840.549 157.453 L 840.549 157.453 L 840.549 175.014 C 840.547 177.801 838.29 180.059 835.503 180.059 L 835.503 180.059 L 756.729 180.059 L 756.729 180.059 Z M 753.747 157.453 L 753.747 175.014 C 753.749 176.661 755.082 177.995 756.729 177.997 L 756.729 177.997 L 835.503 177.997 C 837.148 177.995 838.484 176.661 838.486 175.014 L 838.486 175.014 L 838.486 157.453 C 838.484 155.806 837.148 154.472 835.503 154.47 L 835.503 154.47 L 756.729 154.47 C 755.082 154.472 753.749 155.806 753.747 157.453 L 753.747 157.453 Z" style="fill: rgb(30, 30, 30);" transform="matrix(0.965926, -0.258819, 0.258819, 0.965926, -15.897277, 211.714151)"/>
</svg>