<?xml version="1.0" encoding="utf-8"?>
<svg version="1.1" id="Layer_2" x="0px" y="0px" enable-background="new 0 0 598.189 350.26" preserveAspectRatio="none" xmlns="http://www.w3.org/2000/svg">
  <path d="M 357.497 253.258 L 357.497 245.772 L 371.238 245.772 L 371.238 252.763 L 371.238 253.258 L 357.497 253.258 L 357.497 253.258 Z M 370.743 252.763 L 370.743 252.268 L 370.743 252.763 L 370.743 252.763 Z M 358.486 252.268 L 370.248 252.268 L 370.248 246.762 L 358.486 246.762 L 358.486 252.268 L 358.486 252.268 Z" style="fill: rgb(30, 30, 30);" transform="matrix(0.965926, -0.258819, 0.258819, 0.965926, -52.163762, 102.807409)"/>
  <path d="M 375.171 248.523 L 375.171 241.037 L 388.912 241.037 L 388.912 248.028 L 388.912 248.523 L 375.171 248.523 L 375.171 248.523 Z M 388.417 248.027 L 388.417 247.533 L 388.417 248.027 L 388.417 248.027 Z M 376.161 247.533 L 387.923 247.533 L 387.923 242.025 L 376.161 242.025 L 376.161 247.533 L 376.161 247.533 Z" style="fill: rgb(30, 30, 30);" transform="matrix(0.965926, -0.258819, 0.258819, 0.965926, -50.335938, 107.220183)"/>
  <path d="M 392.845 243.787 L 392.845 236.301 L 406.585 236.301 L 406.585 243.292 L 406.585 243.787 L 392.845 243.787 L 392.845 243.787 Z M 406.091 243.291 L 406.091 242.797 L 406.091 243.291 L 406.091 243.291 Z M 393.835 242.797 L 405.596 242.797 L 405.596 237.289 L 393.835 237.289 L 393.835 242.797 L 393.835 242.797 Z" style="fill: rgb(30, 30, 30);" transform="matrix(0.965926, -0.258819, 0.258819, 0.965926, -48.507993, 111.63311)"/>
  <path d="M 410.52 239.051 L 410.52 231.565 L 424.261 231.565 L 424.261 238.556 L 424.261 239.051 L 410.52 239.051 L 410.52 239.051 Z M 423.766 238.555 L 423.766 238.061 L 423.766 238.555 L 423.766 238.555 Z M 411.509 238.061 L 423.271 238.061 L 423.27 232.553 L 411.509 232.553 L 411.509 238.061 L 411.509 238.061 Z" style="fill: rgb(30, 30, 30);" transform="matrix(0.965926, -0.258819, 0.258819, 0.965926, -46.679921, 116.046416)"/>
  <path d="M 428.194 234.315 L 428.194 226.83 L 441.934 226.83 L 441.934 233.82 L 441.934 234.315 L 428.194 234.315 L 428.194 234.315 Z M 441.44 233.82 L 441.44 233.325 L 441.44 233.82 L 441.44 233.82 Z M 429.183 233.325 L 440.946 233.325 L 440.946 227.818 L 429.183 227.818 L 429.183 233.325 L 429.183 233.325 Z" style="fill: rgb(30, 30, 30);" transform="matrix(0.965926, -0.258819, 0.258819, 0.965926, -44.852079, 120.459294)"/>
  <path d="M 445.869 229.579 L 445.869 222.093 L 459.609 222.093 L 459.609 229.084 L 459.609 229.579 L 445.869 229.579 L 445.869 229.579 Z M 459.114 229.084 L 459.114 228.589 L 459.114 229.084 L 459.114 229.084 Z M 446.858 228.589 L 458.619 228.589 L 458.619 223.082 L 446.858 223.082 L 446.858 228.589 L 446.858 228.589 Z" style="fill: rgb(30, 30, 30);" transform="matrix(0.965926, -0.258819, 0.258819, 0.965926, -43.023922, 124.872525)"/>
  <path d="M 463.543 224.844 L 463.543 217.358 L 477.283 217.358 L 477.283 224.348 L 477.283 224.843 L 463.543 224.843 L 463.543 224.844 Z M 476.789 224.348 L 476.789 223.854 L 476.789 224.348 L 476.789 224.348 Z M 464.532 223.854 L 476.294 223.854 L 476.294 218.347 L 464.532 218.347 L 464.532 223.854 L 464.532 223.854 Z" style="fill: rgb(30, 30, 30);" transform="matrix(0.965926, -0.258819, 0.258819, 0.965926, -41.196194, 129.285544)"/>
  <path d="M 481.217 220.108 L 481.217 212.622 L 494.958 212.622 L 494.958 219.612 L 494.958 220.108 L 481.217 220.108 L 481.217 220.108 Z M 494.462 219.612 L 494.462 219.118 L 494.462 219.612 L 494.462 219.612 Z M 482.206 219.118 L 493.968 219.118 L 493.967 213.611 L 482.206 213.611 L 482.206 219.118 L 482.206 219.118 Z" style="fill: rgb(30, 30, 30);" transform="matrix(0.965926, -0.258819, 0.258819, 0.965926, -39.368191, 133.698752)"/>
  <path d="M 498.891 215.371 L 498.891 207.886 L 512.632 207.886 L 512.632 214.877 L 512.632 215.371 L 498.891 215.371 L 498.891 215.371 Z M 512.137 214.877 L 512.137 214.382 L 512.137 214.877 L 512.137 214.877 Z M 499.88 214.382 L 511.642 214.382 L 511.642 208.876 L 499.88 208.876 L 499.88 214.382 L 499.88 214.382 Z" style="fill: rgb(30, 30, 30);" transform="matrix(0.965926, -0.258819, 0.258819, 0.965926, -37.540086, 138.111811)"/>
  <path d="M 516.565 210.635 L 516.565 203.15 L 530.305 203.15 L 530.305 210.141 L 530.305 210.636 L 516.565 210.636 L 516.565 210.635 Z M 529.811 210.141 L 529.811 209.646 L 529.811 210.141 L 529.811 210.141 Z M 517.554 209.646 L 529.316 209.646 L 529.316 204.14 L 517.554 204.14 L 517.554 209.646 L 517.554 209.646 Z" style="fill: rgb(30, 30, 30);" transform="matrix(0.965926, -0.258819, 0.258819, 0.965926, -35.71222, 142.524513)"/>
  <path d="M 534.24 205.899 L 534.24 198.413 L 547.98 198.413 L 547.98 205.404 L 547.98 205.899 L 534.24 205.899 L 534.24 205.899 Z M 547.485 205.404 L 547.485 204.91 L 547.485 205.404 L 547.485 205.404 Z M 535.23 204.91 L 546.991 204.91 L 546.99 199.403 L 535.23 199.403 L 535.23 204.91 L 535.23 204.91 Z" style="fill: rgb(30, 30, 30);" transform="matrix(0.965926, -0.258819, 0.258819, 0.965926, -33.883931, 146.937726)"/>
  <path d="M 551.914 201.163 L 551.914 193.679 L 565.654 193.679 L 565.654 200.669 L 565.654 201.163 L 551.914 201.163 L 551.914 201.163 Z M 565.159 200.669 L 565.159 200.175 L 565.159 200.669 L 565.159 200.669 Z M 552.904 200.175 L 564.665 200.175 L 564.665 194.668 L 552.904 194.668 L 552.904 200.175 L 552.904 200.175 Z" style="fill: rgb(30, 30, 30);" transform="matrix(0.965926, -0.258819, 0.258819, 0.965926, -32.056196, 151.350744)"/>
  <path d="M 569.588 196.428 L 569.588 188.943 L 583.329 188.943 L 583.329 195.933 L 583.329 196.428 L 569.588 196.428 L 569.588 196.428 Z M 582.834 195.933 L 582.834 195.439 L 582.834 195.933 L 582.834 195.933 Z M 570.578 195.439 L 582.339 195.439 L 582.339 189.932 L 570.578 189.932 L 570.578 195.439 L 570.578 195.439 Z" style="fill: rgb(30, 30, 30);" transform="matrix(0.965926, -0.258819, 0.258819, 0.965926, -30.228326, 155.764068)"/>
  <path d="M 354.034 272.867 L 354.034 265.382 L 367.775 265.382 L 367.775 272.371 L 367.775 272.867 L 354.034 272.867 L 354.034 272.867 Z M 367.279 272.371 L 367.279 271.876 L 367.279 272.371 L 367.279 272.371 Z M 355.023 271.876 L 366.785 271.876 L 366.785 266.37 L 355.023 266.37 L 355.023 271.876 L 355.023 271.876 Z" style="fill: rgb(30, 30, 30);" transform="matrix(0.965926, -0.258819, 0.258819, 0.965926, -57.356987, 102.579039)"/>
  <path d="M 371.708 268.131 L 371.708 260.646 L 385.449 260.646 L 385.449 267.636 L 385.449 268.131 L 371.708 268.131 L 371.708 268.131 Z M 384.954 267.636 L 384.954 267.141 L 384.954 267.636 L 384.954 267.636 Z M 372.697 267.141 L 384.459 267.141 L 384.459 261.634 L 372.697 261.634 L 372.697 267.141 L 372.697 267.141 Z" style="fill: rgb(30, 30, 30);" transform="matrix(0.965926, -0.258819, 0.258819, 0.965926, -55.528987, 106.992031)"/>
  <path d="M 389.383 263.395 L 389.383 255.91 L 403.122 255.91 L 403.122 262.9 L 403.122 263.395 L 389.383 263.395 L 389.383 263.395 Z M 402.628 262.9 L 402.628 262.405 L 402.628 262.9 L 402.628 262.9 Z M 390.372 262.405 L 402.133 262.405 L 402.133 256.898 L 390.372 256.898 L 390.372 262.405 L 390.372 262.405 Z" style="fill: rgb(30, 30, 30);" transform="matrix(0.965926, -0.258819, 0.258819, 0.965926, -53.700995, 111.405023)"/>
  <path d="M 407.057 258.659 L 407.057 251.174 L 420.797 251.174 L 420.797 258.164 L 420.797 258.659 L 407.057 258.659 L 407.057 258.659 Z M 420.302 258.164 L 420.302 257.669 L 420.302 258.164 L 420.302 258.164 Z M 408.046 257.669 L 419.807 257.669 L 419.807 252.162 L 408.046 252.162 L 408.046 257.669 L 408.046 257.669 Z" style="fill: rgb(30, 30, 30);" transform="matrix(0.965926, -0.258819, 0.258819, 0.965926, -51.873071, 115.81842)"/>
  <path d="M 424.731 253.923 L 424.731 246.439 L 438.471 246.439 L 438.471 253.428 L 438.471 253.923 L 424.731 253.923 L 424.731 253.923 Z M 437.976 253.428 L 437.976 252.933 L 437.976 253.428 L 437.976 253.428 Z M 425.72 252.933 L 437.483 252.933 L 437.483 247.427 L 425.72 247.427 L 425.72 252.933 L 425.72 252.933 Z" style="fill: rgb(30, 30, 30);" transform="matrix(0.965926, -0.258819, 0.258819, 0.965926, -50.045127, 120.231149)"/>
  <path d="M 442.405 249.187 L 442.405 241.702 L 456.146 241.703 L 456.146 248.692 L 456.146 249.187 L 442.405 249.187 L 442.405 249.187 Z M 455.651 248.692 L 455.651 248.197 L 455.651 248.692 L 455.651 248.692 Z M 443.394 248.197 L 455.157 248.197 L 455.157 242.691 L 443.394 242.691 L 443.394 248.197 L 443.394 248.197 Z" style="fill: rgb(30, 30, 30);" transform="matrix(0.965926, -0.25882, 0.25882, 0.965926, -48.21708, 124.644628)"/>
  <path d="M 460.08 244.452 L 460.08 236.967 L 473.82 236.967 L 473.82 243.957 L 473.82 244.452 L 460.08 244.452 L 460.08 244.452 Z M 473.326 243.957 L 473.326 243.462 L 473.326 243.957 L 473.326 243.957 Z M 461.068 243.462 L 472.83 243.462 L 472.83 237.955 L 461.068 237.955 L 461.068 243.462 L 461.068 243.462 Z" style="fill: rgb(30, 30, 30);" transform="matrix(0.965926, -0.258819, 0.258819, 0.965926, -46.38926, 129.057489)"/>
  <path d="M 477.754 239.715 L 477.754 232.23 L 491.492 232.23 L 491.492 239.221 L 491.492 239.715 L 477.754 239.715 L 477.754 239.715 Z M 491 239.221 L 491 238.726 L 491 239.221 L 491 239.221 Z M 478.743 238.726 L 490.504 238.726 L 490.503 233.219 L 478.743 233.219 L 478.743 238.726 L 478.743 238.726 Z" style="fill: rgb(30, 30, 30);" transform="matrix(0.965926, -0.258819, 0.258819, 0.965926, -44.561022, 133.470093)"/>
  <path d="M 495.427 234.979 L 495.427 227.495 L 509.168 227.495 L 509.168 234.485 L 509.168 234.979 L 495.427 234.979 L 495.427 234.979 Z M 508.673 234.485 L 508.673 233.99 L 508.673 234.485 L 508.673 234.485 Z M 496.417 233.99 L 508.178 233.99 L 508.178 228.484 L 496.417 228.484 L 496.417 233.99 L 496.417 233.99 Z" style="fill: rgb(30, 30, 30);" transform="matrix(0.965926, -0.258819, 0.258819, 0.965926, -42.733147, 137.883219)"/>
  <path d="M 513.101 230.243 L 513.101 222.758 L 526.842 222.758 L 526.842 229.749 L 526.842 230.243 L 513.101 230.243 L 513.101 230.243 Z M 526.348 229.749 L 526.348 229.254 L 526.348 229.749 L 526.348 229.749 Z M 514.091 229.254 L 525.853 229.254 L 525.853 223.748 L 514.091 223.748 L 514.091 229.254 L 514.091 229.254 Z" style="fill: rgb(30, 30, 30);" transform="matrix(0.965926, -0.258819, 0.258819, 0.965926, -40.905022, 142.296201)"/>
  <path d="M 530.776 225.508 L 530.776 218.022 L 544.517 218.023 L 544.517 225.013 L 544.517 225.508 L 530.776 225.508 L 530.776 225.508 Z M 544.022 225.013 L 544.022 224.518 L 544.022 225.013 L 544.022 225.013 Z M 531.765 224.518 L 543.527 224.518 L 543.527 219.013 L 531.765 219.013 L 531.765 224.518 L 531.765 224.518 Z" style="fill: rgb(30, 30, 30);" transform="matrix(0.965926, -0.258819, 0.258819, 0.965926, -39.077174, 146.709815)"/>
  <path d="M 548.451 220.772 L 548.451 213.288 L 562.191 213.288 L 562.191 220.277 L 562.191 220.772 L 548.451 220.772 L 548.451 220.772 Z M 561.697 220.277 L 561.697 219.783 L 561.697 220.277 L 561.697 220.277 Z M 549.439 219.783 L 561.201 219.783 L 561.201 214.276 L 549.439 214.276 L 549.439 219.783 L 549.439 219.783 Z" style="fill: rgb(30, 30, 30);" transform="matrix(0.965926, -0.25882, 0.25882, 0.965926, -37.249439, 151.123158)"/>
  <path d="M 566.124 216.037 L 566.124 208.551 L 579.865 208.551 L 579.865 215.542 L 579.865 216.037 L 566.124 216.037 L 566.124 216.037 Z M 579.371 215.542 L 579.371 215.047 L 579.371 215.542 L 579.371 215.542 Z M 567.114 215.047 L 578.875 215.047 L 578.875 209.54 L 567.114 209.54 L 567.114 215.047 L 567.114 215.047 Z" style="fill: rgb(30, 30, 30);" transform="matrix(0.965926, -0.258819, 0.258819, 0.965926, -35.421403, 155.535469)"/>
  <path d="M 582.857 211.554 L 582.857 204.069 L 596.597 204.069 L 596.597 211.058 L 596.597 211.554 L 582.857 211.554 L 582.857 211.554 Z M 596.103 211.058 L 596.103 210.563 L 596.103 211.058 L 596.103 211.058 Z M 583.846 210.563 L 595.608 210.563 L 595.608 205.058 L 583.846 205.058 L 583.846 210.563 L 583.846 210.563 Z" style="fill: rgb(30, 30, 30);" transform="matrix(0.965926, -0.258819, 0.258819, 0.965926, -33.691099, 159.713425)"/>
  <path d="M 363.816 288.924 L 363.816 281.439 L 377.556 281.439 L 377.556 288.429 L 377.556 288.924 L 363.816 288.924 L 363.816 288.924 Z M 377.062 288.429 L 377.062 287.934 L 377.062 288.429 L 377.062 288.429 Z M 364.806 287.934 L 376.567 287.934 L 376.567 282.428 L 364.806 282.428 L 364.806 287.934 L 364.806 287.934 Z" style="fill: rgb(30, 30, 30);" transform="matrix(0.965926, -0.258819, 0.258819, 0.965926, -61.179542, 105.657811)"/>
  <path d="M 381.49 284.188 L 381.49 276.703 L 395.231 276.703 L 395.231 283.694 L 395.231 284.188 L 381.49 284.188 L 381.49 284.188 Z M 394.735 283.694 L 394.735 283.198 L 394.735 283.694 L 394.735 283.694 Z M 382.479 283.198 L 394.241 283.198 L 394.241 277.692 L 382.479 277.692 L 382.479 283.198 L 382.479 283.198 Z" style="fill: rgb(30, 30, 30);" transform="matrix(0.965926, -0.258819, 0.258819, 0.965926, -59.35163, 110.071189)"/>
  <path d="M 399.165 279.453 L 399.165 271.967 L 412.905 271.967 L 412.905 278.958 L 412.905 279.453 L 399.165 279.453 L 399.165 279.453 Z M 412.41 278.958 L 412.41 278.463 L 412.41 278.958 L 412.41 278.958 Z M 400.154 278.463 L 411.915 278.463 L 411.915 272.957 L 400.154 272.957 L 400.154 278.463 L 400.154 278.463 Z" style="fill: rgb(30, 30, 30);" transform="matrix(0.965926, -0.258819, 0.258819, 0.965926, -57.523657, 114.484061)"/>
  <path d="M 416.838 274.717 L 416.838 267.231 L 430.579 267.231 L 430.579 274.222 L 430.579 274.717 L 416.838 274.717 L 416.838 274.717 Z M 430.085 274.222 L 430.085 273.727 L 430.085 274.222 L 430.085 274.222 Z M 417.828 273.727 L 429.589 273.727 L 429.589 268.22 L 417.828 268.22 L 417.828 273.727 L 417.828 273.727 Z" style="fill: rgb(30, 30, 30);" transform="matrix(0.965926, -0.258819, 0.258819, 0.965926, -55.695675, 118.896921)"/>
  <path d="M 434.513 269.981 L 434.513 262.496 L 448.253 262.496 L 448.253 269.486 L 448.253 269.981 L 434.513 269.981 L 434.513 269.981 Z M 447.759 269.486 L 447.759 268.991 L 447.759 269.486 L 447.759 269.486 Z M 435.502 268.991 L 447.263 268.991 L 447.263 263.485 L 435.502 263.485 L 435.502 268.991 L 435.502 268.991 Z" style="fill: rgb(30, 30, 30);" transform="matrix(0.965926, -0.258819, 0.258819, 0.965926, -53.867885, 123.310353)"/>
  <path d="M 452.187 265.245 L 452.187 257.76 L 465.927 257.76 L 465.927 264.75 L 465.927 265.245 L 452.187 265.245 L 452.187 265.245 Z M 465.433 264.75 L 465.433 264.255 L 465.433 264.75 L 465.433 264.75 Z M 453.176 264.255 L 464.938 264.255 L 464.938 258.75 L 453.176 258.75 L 453.176 264.255 L 453.176 264.255 Z" style="fill: rgb(30, 30, 30);" transform="matrix(0.965926, -0.258819, 0.258819, 0.965926, -52.039829, 127.723129)"/>
  <path d="M 469.862 260.51 L 469.862 253.024 L 483.601 253.024 L 483.601 260.015 L 483.601 260.51 L 469.862 260.51 L 469.862 260.51 Z M 483.108 260.015 L 483.108 259.52 L 483.108 260.015 L 483.108 260.015 Z M 470.851 259.52 L 482.613 259.52 L 482.612 254.014 L 470.851 254.014 L 470.851 259.52 L 470.851 259.52 Z" style="fill: rgb(30, 30, 30);" transform="matrix(0.965926, -0.258819, 0.258819, 0.965926, -50.211922, 132.136187)"/>
  <path d="M 487.536 255.774 L 487.536 248.289 L 501.277 248.289 L 501.277 255.279 L 501.277 255.774 L 487.536 255.774 L 487.536 255.774 Z M 500.781 255.279 L 500.781 254.784 L 500.781 255.279 L 500.781 255.279 Z M 488.525 254.784 L 500.286 254.784 L 500.286 249.278 L 488.525 249.278 L 488.525 254.784 L 488.525 254.784 Z" style="fill: rgb(30, 30, 30);" transform="matrix(0.965926, -0.258819, 0.258819, 0.965926, -48.3841, 136.549765)"/>
  <path d="M 505.21 251.037 L 505.21 243.553 L 518.951 243.553 L 518.951 250.543 L 518.951 251.037 L 505.21 251.037 L 505.21 251.037 Z M 518.456 250.543 L 518.456 250.048 L 518.456 250.543 L 518.456 250.543 Z M 506.199 250.048 L 517.961 250.048 L 517.96 244.541 L 506.199 244.541 L 506.199 250.048 L 506.199 250.048 Z" style="fill: rgb(30, 30, 30);" transform="matrix(0.965926, -0.258819, 0.258819, 0.965926, -46.555906, 140.96242)"/>
  <path d="M 522.883 246.302 L 522.883 238.817 L 536.624 238.817 L 536.624 245.807 L 536.624 246.302 L 522.883 246.302 L 522.883 246.302 Z M 536.13 245.807 L 536.13 245.312 L 536.13 245.807 L 536.13 245.807 Z M 523.873 245.312 L 535.635 245.312 L 535.634 239.807 L 523.873 239.807 L 523.873 245.312 L 523.873 245.312 Z" style="fill: rgb(30, 30, 30);" transform="matrix(0.965926, -0.258819, 0.258819, 0.965926, -44.72808, 145.375173)"/>
  <path d="M 540.559 241.566 L 540.559 234.081 L 554.299 234.081 L 554.299 241.071 L 554.299 241.566 L 540.559 241.566 L 540.559 241.566 Z M 553.805 241.071 L 553.805 240.576 L 553.805 241.071 L 553.805 241.071 Z M 541.548 240.576 L 553.309 240.576 L 553.309 235.071 L 541.548 235.071 L 541.548 240.576 L 541.548 240.576 Z" style="fill: rgb(30, 30, 30);" transform="matrix(0.965926, -0.258819, 0.258819, 0.965926, -42.90003, 149.788545)"/>
  <path d="M 558.233 236.83 L 558.233 229.346 L 571.973 229.346 L 571.973 236.336 L 571.973 236.83 L 558.233 236.83 L 558.233 236.83 Z M 571.478 236.336 L 571.478 235.842 L 571.478 236.336 L 571.478 236.336 Z M 559.222 235.842 L 570.983 235.842 L 570.983 230.335 L 559.222 230.335 L 559.222 235.842 L 559.222 235.842 Z" style="fill: rgb(30, 30, 30);" transform="matrix(0.965926, -0.258819, 0.258819, 0.965926, -41.072219, 154.201912)"/>
  <path d="M 575.632 230.009 L 575.632 222.524 L 605.493 222.524 L 605.493 229.514 L 605.493 230.009 L 575.632 230.009 L 575.632 230.009 Z M 604.997 229.514 L 604.997 229.019 L 604.997 229.514 L 604.997 229.514 Z M 576.622 229.019 L 604.502 229.019 L 604.502 223.513 L 576.622 223.513 L 576.622 229.019 L 576.622 229.019 Z" style="fill: rgb(30, 30, 30);" transform="matrix(0.965926, -0.258819, 0.258819, 0.965926, -38.439138, 160.558499)"/>
  <path d="M 377.549 303.925 L 377.549 296.44 L 391.29 296.44 L 391.29 303.431 L 391.29 303.925 L 377.549 303.925 L 377.549 303.925 Z M 390.795 303.431 L 390.795 302.935 L 390.795 303.431 L 390.795 303.431 Z M 378.539 302.935 L 390.301 302.935 L 390.301 297.429 L 378.539 297.429 L 378.539 302.935 L 378.539 302.935 Z" style="fill: rgb(30, 30, 30);" transform="matrix(0.965926, -0.258819, 0.258819, 0.965926, -64.594154, 109.723516)"/>
  <path d="M 395.224 299.19 L 395.224 291.705 L 408.964 291.705 L 408.964 298.695 L 408.964 299.19 L 395.224 299.19 L 395.224 299.19 Z M 408.469 298.695 L 408.469 298.2 L 408.469 298.695 L 408.469 298.695 Z M 396.213 298.2 L 407.974 298.2 L 407.974 292.693 L 396.213 292.693 L 396.213 298.2 L 396.213 298.2 Z" style="fill: rgb(30, 30, 30);" transform="matrix(0.965926, -0.258819, 0.258819, 0.965926, -62.766371, 114.136593)"/>
  <path d="M 412.898 294.454 L 412.898 286.969 L 426.638 286.969 L 426.638 293.959 L 426.638 294.454 L 412.898 294.454 L 412.898 294.454 Z M 426.144 293.959 L 426.144 293.464 L 426.144 293.959 L 426.144 293.959 Z M 413.887 293.464 L 425.648 293.464 L 425.648 287.957 L 413.887 287.957 L 413.887 293.464 L 413.887 293.464 Z" style="fill: rgb(30, 30, 30);" transform="matrix(0.965926, -0.258819, 0.258819, 0.965926, -60.938379, 118.549586)"/>
  <path d="M 430.573 289.718 L 430.573 282.233 L 444.312 282.233 L 444.312 289.223 L 444.312 289.718 L 430.573 289.718 L 430.573 289.718 Z M 443.817 289.223 L 443.817 288.728 L 443.817 289.223 L 443.817 289.223 Z M 431.562 288.728 L 443.323 288.728 L 443.323 283.221 L 431.562 283.221 L 431.562 288.728 L 431.562 288.728 Z" style="fill: rgb(30, 30, 30);" transform="matrix(0.965926, -0.258819, 0.258819, 0.965926, -59.110371, 122.962702)"/>
  <path d="M 448.246 284.982 L 448.246 277.497 L 461.987 277.497 L 461.987 284.488 L 461.987 284.982 L 448.246 284.982 L 448.246 284.982 Z M 461.491 284.488 L 461.491 283.992 L 461.491 284.488 L 461.491 284.488 Z M 449.235 283.992 L 460.998 283.992 L 460.997 278.486 L 449.235 278.486 L 449.235 283.992 L 449.235 283.992 Z" style="fill: rgb(30, 30, 30);" transform="matrix(0.965926, -0.258819, 0.258819, 0.965926, -57.282473, 127.375996)"/>
  <path d="M 465.92 280.246 L 465.92 272.762 L 479.66 272.762 L 479.66 279.752 L 479.66 280.246 L 465.92 280.246 L 465.92 280.246 Z M 479.166 279.752 L 479.166 279.257 L 479.166 279.752 L 479.166 279.752 Z M 466.91 279.257 L 478.671 279.257 L 478.671 273.75 L 466.91 273.75 L 466.91 279.257 L 466.91 279.257 Z" style="fill: rgb(30, 30, 30);" transform="matrix(0.965926, -0.258819, 0.258819, 0.965926, -55.454538, 131.788564)"/>
  <path d="M 483.595 275.51 L 483.595 268.025 L 497.336 268.025 L 497.336 275.016 L 497.336 275.51 L 483.595 275.51 L 483.595 275.51 Z M 496.841 275.016 L 496.841 274.521 L 496.841 275.016 L 496.841 275.016 Z M 484.584 274.521 L 496.346 274.521 L 496.346 269.014 L 484.584 269.014 L 484.584 274.521 L 484.584 274.521 Z" style="fill: rgb(30, 30, 30);" transform="matrix(0.965926, -0.25882, 0.25882, 0.965926, -53.626555, 136.20268)"/>
  <path d="M 501.269 270.774 L 501.269 263.289 L 515.01 263.289 L 515.01 270.28 L 515.01 270.774 L 501.269 270.774 L 501.269 270.774 Z M 514.515 270.28 L 514.515 269.785 L 514.515 270.28 L 514.515 270.28 Z M 502.258 269.785 L 514.019 269.785 L 514.019 264.278 L 502.258 264.278 L 502.258 269.785 L 502.258 269.785 Z" style="fill: rgb(30, 30, 30);" transform="matrix(0.965926, -0.25882, 0.25882, 0.965926, -51.798524, 140.615595)"/>
  <path d="M 518.943 266.039 L 518.943 258.554 L 532.684 258.554 L 532.684 265.545 L 532.684 266.039 L 518.943 266.039 L 518.943 266.039 Z M 532.189 265.545 L 532.189 265.049 L 532.189 265.545 L 532.189 265.545 Z M 519.932 265.049 L 531.694 265.049 L 531.693 259.543 L 519.932 259.543 L 519.932 265.049 L 519.932 265.049 Z" style="fill: rgb(30, 30, 30);" transform="matrix(0.965926, -0.258819, 0.258819, 0.965926, -49.970646, 145.027923)"/>
  <path d="M 536.617 261.303 L 536.617 253.817 L 550.358 253.818 L 550.358 260.809 L 550.358 261.303 L 536.617 261.303 L 536.617 261.303 Z M 549.863 260.809 L 549.863 260.314 L 549.863 260.809 L 549.863 260.809 Z M 537.607 260.314 L 549.368 260.314 L 549.368 254.807 L 537.607 254.807 L 537.607 260.314 L 537.607 260.314 Z" style="fill: rgb(30, 30, 30);" transform="matrix(0.965926, -0.258819, 0.258819, 0.965926, -48.142579, 149.441261)"/>
  <path d="M 554.291 256.567 L 554.291 249.081 L 568.033 249.081 L 568.033 256.073 L 568.033 256.567 L 554.291 256.567 L 554.291 256.567 Z M 567.537 256.073 L 567.537 255.578 L 567.537 256.073 L 567.537 256.073 Z M 555.281 255.578 L 567.043 255.578 L 567.043 250.071 L 555.281 250.071 L 555.281 255.578 L 555.281 255.578 Z" style="fill: rgb(30, 30, 30);" transform="matrix(0.965926, -0.258819, 0.258819, 0.965926, -46.314505, 153.854028)"/>
  <path d="M 571.966 251.832 L 571.966 244.346 L 585.707 244.346 L 585.707 251.337 L 585.707 251.832 L 571.966 251.832 L 571.966 251.832 Z M 585.211 251.337 L 585.211 250.842 L 585.211 251.337 L 585.211 251.337 Z M 572.955 250.842 L 584.716 250.842 L 584.716 245.335 L 572.955 245.335 L 572.955 250.842 L 572.955 250.842 Z" style="fill: rgb(30, 30, 30);" transform="matrix(0.965926, -0.258819, 0.258819, 0.965926, -44.486808, 158.267547)"/>
  <path d="M 416.148 312.264 L 416.148 304.778 L 429.887 304.778 L 429.887 311.769 L 429.887 312.264 L 416.148 312.264 L 416.148 312.264 Z M 429.394 311.769 L 429.394 311.274 L 429.394 311.769 L 429.394 311.769 Z M 417.136 311.274 L 428.899 311.274 L 428.898 305.767 L 417.136 305.767 L 417.136 311.274 L 417.136 311.274 Z" style="fill: rgb(30, 30, 30);" transform="matrix(0.965926, -0.258819, 0.258819, 0.965926, -65.437204, 119.997754)"/>
  <path d="M 433.823 307.528 L 433.823 300.042 L 447.562 300.042 L 447.562 307.033 L 447.562 307.528 L 433.823 307.528 L 433.823 307.528 Z M 447.068 307.033 L 447.068 306.538 L 447.068 307.033 L 447.068 307.033 Z M 434.811 306.538 L 446.573 306.538 L 446.573 301.031 L 434.811 301.031 L 434.811 306.538 L 434.811 306.538 Z" style="fill: rgb(30, 30, 30);" transform="matrix(0.965926, -0.258819, 0.258819, 0.965926, -63.609065, 124.410708)"/>
  <path d="M 450.248 293.311 L 450.248 285.826 L 537.246 285.826 L 537.246 292.817 L 537.246 293.311 L 450.248 293.311 L 450.248 293.311 Z M 536.752 292.817 L 536.752 292.322 L 536.752 292.817 L 536.752 292.817 Z M 451.238 292.322 L 536.257 292.322 L 536.257 286.815 L 451.238 286.815 L 451.238 292.322 L 451.238 292.322 Z" style="fill: rgb(30, 30, 30);" transform="matrix(0.965926, -0.258819, 0.258819, 0.965926, -58.121867, 137.658115)"/>
  <path d="M 539.815 279.126 L 539.815 271.641 L 553.556 271.641 L 553.556 278.632 L 553.556 279.126 L 539.815 279.126 L 539.815 279.126 Z M 553.062 278.632 L 553.062 278.137 L 553.062 278.632 L 553.062 278.632 Z M 540.805 278.137 L 552.567 278.137 L 552.567 272.629 L 540.805 272.629 L 540.805 278.137 L 540.805 278.137 Z" style="fill: rgb(30, 30, 30);" transform="matrix(0.965926, -0.258819, 0.258819, 0.965926, -52.646599, 150.875935)"/>
  <path d="M 557.491 274.39 L 557.491 266.905 L 571.231 266.905 L 571.231 273.896 L 571.231 274.39 L 557.491 274.39 L 557.491 274.39 Z M 570.736 273.896 L 570.736 273.4 L 570.736 273.896 L 570.736 273.896 Z M 558.479 273.4 L 570.241 273.4 L 570.241 267.893 L 558.479 267.893 L 558.479 273.4 L 558.479 273.4 Z" style="fill: rgb(30, 30, 30);" transform="matrix(0.965926, -0.258819, 0.258819, 0.965926, -50.818565, 155.289308)"/>
  <path d="M 328.772 204.762 C 328.156 204.753 327.659 204.727 327.252 204.343 L 327.252 204.343 C 326.869 203.936 326.841 203.441 326.834 202.824 L 326.834 202.824 L 326.834 157.835 C 326.834 156.364 328.024 155.175 329.493 155.174 L 329.493 155.174 L 592.692 155.174 C 594.163 155.175 595.352 156.365 595.353 157.834 L 595.353 157.834 L 595.353 202.824 C 595.344 203.441 595.318 203.936 594.934 204.343 L 594.934 204.343 C 594.528 204.727 594.032 204.753 593.415 204.762 L 593.415 204.762 L 328.772 204.762 L 328.772 204.762 Z M 593.415 203.772 C 593.993 203.78 594.219 203.683 594.234 203.644 L 594.234 203.644 C 594.275 203.628 594.371 203.403 594.362 202.824 L 594.362 202.824 L 594.364 157.834 C 594.362 156.912 593.616 156.165 592.692 156.163 L 592.692 156.163 L 329.493 156.163 C 328.571 156.165 327.825 156.912 327.824 157.835 L 327.824 157.835 L 327.824 202.824 C 327.815 203.403 327.913 203.628 327.952 203.644 L 327.952 203.644 C 327.968 203.684 328.194 203.78 328.772 203.772 L 328.772 203.772 L 593.415 203.772 L 593.415 203.772 Z" style="fill: rgb(30, 30, 30);" transform="matrix(0.965926, -0.258819, 0.258819, 0.965926, -30.867755, 125.47199)"/>
  <polygon points="351.755 235.756 352.744 235.729 355.471 338.859 354.482 338.886 351.755 235.756" style="fill: rgb(30, 30, 30);" transform="matrix(0.965926, -0.25882, 0.25882, 0.965926, -62.311755, 101.311938)"/>
  <polygon points="605.753 270.801 608.479 167.671 609.469 167.697 606.742 270.827 605.753 270.801" style="fill: rgb(30, 30, 30);" transform="matrix(0.965926, -0.258819, 0.258819, 0.965926, -36.041957, 164.731857)"/>
  <path d="M 366.317 315.679 C 364.847 315.679 363.657 314.488 363.657 313.019 L 363.657 313.019 L 363.657 304.519 C 363.657 303.863 363.788 303.289 364.195 302.879 L 364.195 302.879 C 364.607 302.471 365.18 302.339 365.836 302.339 L 365.836 302.339 L 625.586 302.341 C 626.242 302.339 626.815 302.471 627.227 302.879 L 627.227 302.879 C 627.634 303.289 627.765 303.863 627.765 304.519 L 627.765 304.519 L 627.765 313.019 C 627.764 314.488 626.574 315.678 625.105 315.678 L 625.105 315.678 L 366.317 315.679 L 366.317 315.679 Z M 364.894 303.578 C 364.759 303.709 364.646 303.979 364.645 304.518 L 364.645 304.518 L 364.645 313.019 C 364.647 313.942 365.394 314.687 366.317 314.69 L 366.317 314.69 L 625.105 314.69 C 626.028 314.687 626.774 313.942 626.775 313.019 L 626.775 313.019 L 626.775 304.518 C 626.775 303.978 626.662 303.709 626.526 303.578 L 626.526 303.578 C 626.395 303.441 626.126 303.329 625.586 303.329 L 625.586 303.329 L 365.836 303.329 C 365.296 303.329 365.027 303.441 364.894 303.578 L 364.894 303.578 Z" style="fill: rgb(30, 30, 30);" transform="matrix(0.965926, -0.258819, 0.258819, 0.965926, -63.086423, 138.828528)"/>
  <path d="M 532.009 149.459 C 530.674 149.459 529.589 148.376 529.589 147.04 L 529.589 147.04 L 529.589 138.62 C 529.589 137.283 530.673 136.201 532.009 136.2 L 532.009 136.2 L 569.781 136.201 C 571.117 136.201 572.2 137.283 572.201 138.62 L 572.201 138.62 L 572.201 147.04 C 572.2 148.376 571.117 149.459 569.781 149.459 L 569.781 149.459 L 532.009 149.459 L 532.009 149.459 Z M 530.579 138.62 L 530.579 147.04 C 530.58 147.83 531.219 148.469 532.009 148.47 L 532.009 148.47 L 569.781 148.47 C 570.57 148.469 571.21 147.83 571.211 147.04 L 571.211 147.04 L 571.211 138.62 C 571.21 137.83 570.57 137.19 569.781 137.189 L 569.781 137.189 L 532.009 137.189 C 531.219 137.19 530.58 137.83 530.579 138.62 L 530.579 138.62 Z" style="fill: rgb(30, 30, 30);" transform="matrix(0.965926, -0.258819, 0.258819, 0.965926, -18.195699, 147.448952)"/>
</svg>