<?xml version="1.0" encoding="utf-8"?>
<svg version="1.2" baseProfile="tiny" id="Layer_3" x="0px" y="0px" preserveAspectRatio="none" xmlns="http://www.w3.org/2000/svg">
  <path d="M 355.377 229.442" style="fill: rgb(30, 30, 30);" transform="matrix(0.965926, -0.258819, 0.258819, 0.965926, -47.274839, 99.796572)"/>
  <path id="path5" d="M 427.212 216.189 C 427.048 216.201 426.904 216.302 426.838 216.453 C 426.569 217.046 426.158 217.576 425.642 217.982 C 425.449 218.135 425.417 218.414 425.569 218.607 C 425.722 218.8 426.001 218.832 426.194 218.679 C 426.195 218.679 426.197 218.678 426.198 218.677 C 426.824 218.187 427.328 217.558 427.657 216.828 C 427.766 216.607 427.676 216.341 427.455 216.233 C 427.38 216.195 427.296 216.18 427.212 216.189 L 427.212 216.189 Z" style="fill: rgb(30, 30, 30);" transform="matrix(0.965926, -0.258819, 0.258819, 0.965926, -41.752592, 117.819577)"/>
  <path id="path7" d="M 355.311 220.965 C 353.262 220.965 351.587 222.627 351.587 224.675 C 351.587 226.724 353.262 228.4 355.311 228.4 L 423.97 228.4 C 426.018 228.4 427.695 226.724 427.695 224.675 C 427.695 222.627 426.02 220.965 423.97 220.965 L 355.311 220.965 Z M 355.311 221.855 L 423.97 221.855 C 425.539 221.855 426.806 223.108 426.806 224.676 C 426.806 226.244 425.539 227.511 423.97 227.511 L 355.311 227.511 C 353.743 227.511 352.475 226.244 352.475 224.676 C 352.475 223.107 353.743 221.855 355.311 221.855 Z" style="fill: rgb(30, 30, 30);" transform="matrix(0.965926, -0.258819, 0.258819, 0.965926, -44.875402, 108.502327)"/>
  <path id="polyline9" d="M 424.595 198.278 C 424.35 198.3 424.167 198.517 424.189 198.762 C 424.211 199.009 424.429 199.19 424.674 199.168 C 424.676 199.168 424.677 199.168 424.679 199.168 L 450.167 199.168 L 488.999 199.168 L 562.212 199.168 C 562.457 199.171 562.659 198.975 562.663 198.73 C 562.666 198.484 562.469 198.282 562.224 198.278 C 562.22 198.278 562.216 198.278 562.212 198.278 L 488.999 198.278 L 450.167 198.278 L 424.679 198.278 C 424.651 198.276 424.622 198.276 424.595 198.278 L 424.595 198.278 Z" style="fill: rgb(30, 30, 30);" transform="matrix(0.965926, -0.258819, 0.258819, 0.965926, -34.620279, 134.47908)"/>
  <path id="polyline11" d="M 424.697 197.362 C 424.451 197.373 424.26 197.581 424.271 197.827 C 424.282 198.072 424.49 198.263 424.736 198.251 C 424.737 198.251 424.737 198.251 424.738 198.251 L 449.921 198.251 L 488.752 198.251 L 561.664 198.251 C 561.909 198.254 562.11 198.058 562.115 197.813 C 562.118 197.568 561.921 197.365 561.676 197.361 C 561.672 197.361 561.667 197.361 561.664 197.361 L 488.752 197.361 L 449.921 197.361 L 424.738 197.361 C 424.725 197.361 424.711 197.361 424.697 197.362 Z" style="fill: rgb(30, 30, 30);" transform="matrix(0.965926, -0.258819, 0.258819, 0.965926, -34.390867, 134.387537)"/>
  <path id="polygon13" d="M 334.679 208.084 C 334.472 208.131 334.327 208.317 334.332 208.528 L 334.332 209.46 C 334.332 209.705 334.531 209.905 334.777 209.905 L 452.077 209.905 L 528.808 209.905 L 608.22 209.905 C 608.467 209.905 608.665 209.705 608.665 209.46 L 608.665 208.528 C 608.665 208.283 608.467 208.084 608.22 208.084 L 528.808 208.084 L 452.077 208.084 L 334.777 208.084 C 334.745 208.08 334.712 208.08 334.679 208.084 L 334.679 208.084 Z M 335.221 208.974 L 452.077 208.974 L 528.808 208.974 L 607.776 208.974 L 607.776 209.016 L 528.808 209.016 L 452.077 209.016 L 335.221 209.016 L 335.221 208.974 Z" style="fill: rgb(30, 30, 30);" transform="matrix(0.965926, -0.258819, 0.258819, 0.965926, -38.025435, 129.153969)"/>
  <path d="M 572.794 171.185" style="fill: rgb(30, 30, 30);" transform="matrix(0.965926, -0.258819, 0.258819, 0.965926, -24.788454, 154.082912)"/>
  <path id="polyline17" d="M 353.754 208.285 C 353.508 208.296 353.318 208.504 353.329 208.75 C 353.341 208.995 353.548 209.186 353.794 209.175 C 353.794 209.175 353.795 209.175 353.795 209.175 L 422.455 209.175 C 422.459 209.175 422.464 209.175 422.468 209.175 L 422.732 209.175 L 422.746 209.175 L 451.834 209.175 L 490.666 209.175 L 567.481 209.175 L 567.495 209.175 L 567.759 209.175 C 567.764 209.175 567.769 209.175 567.772 209.175 L 578.892 209.175 C 579.137 209.178 579.339 208.982 579.343 208.736 C 579.346 208.491 579.151 208.288 578.905 208.285 C 578.899 208.285 578.895 208.285 578.892 208.285 L 567.786 208.285 L 567.772 208.285 L 567.509 208.285 C 567.505 208.285 567.5 208.285 567.495 208.285 L 490.667 208.285 L 451.835 208.285 L 422.732 208.285 L 422.455 208.285 L 422.441 208.285 L 353.799 208.285 C 353.785 208.284 353.771 208.284 353.758 208.285 L 353.754 208.285 Z" style="fill: rgb(30, 30, 30);" transform="matrix(0.965926, -0.258819, 0.258819, 0.965926, -38.133243, 127.808824)"/>
  <path id="polyline19" d="M 423.699 199.917 C 423.454 199.938 423.272 200.154 423.293 200.401 C 423.315 200.646 423.532 200.828 423.778 200.807 C 423.78 200.807 423.781 200.807 423.783 200.806 L 450.606 200.806 L 489.438 200.806 L 563.984 200.806 C 564.231 200.81 564.432 200.613 564.435 200.367 C 564.439 200.122 564.242 199.92 563.998 199.917 C 563.993 199.917 563.988 199.917 563.985 199.917 L 489.438 199.917 L 450.606 199.917 L 423.783 199.917 C 423.755 199.914 423.727 199.914 423.699 199.917 Z" style="fill: rgb(30, 30, 30);" transform="matrix(0.965926, -0.258819, 0.258819, 0.965926, -35.029434, 134.648293)"/>
  <path id="path21" d="M 560.044 180.247 C 559.797 180.253 559.603 180.457 559.609 180.703 C 559.611 180.766 559.626 180.83 559.654 180.887 C 559.983 181.614 560.487 182.245 561.114 182.735 C 561.304 182.889 561.586 182.86 561.739 182.669 C 561.893 182.478 561.864 182.197 561.673 182.043 C 561.672 182.042 561.67 182.042 561.67 182.04 C 561.153 181.635 560.743 181.105 560.474 180.512 C 560.401 180.344 560.23 180.239 560.047 180.247 L 560.044 180.247 Z" style="fill: rgb(30, 30, 30);" transform="matrix(0.965926, -0.258819, 0.258819, 0.965926, -27.879869, 151.311653)"/>
  <path id="path23" d="M 424.499 195.787 L 424.457 195.801 C 424.221 195.85 424.067 196.078 424.11 196.315 C 424.148 196.533 424.165 196.752 424.165 196.982 C 424.165 197.243 424.144 197.501 424.095 197.747 C 424.027 197.983 424.164 198.231 424.4 198.299 C 424.636 198.368 424.883 198.231 424.952 197.995 C 424.959 197.969 424.964 197.941 424.968 197.915 C 425.028 197.612 425.051 197.302 425.051 196.983 C 425.051 196.877 425.03 196.781 425.023 196.677 L 449.721 196.677 L 488.551 196.677 L 560.972 196.677 C 560.966 196.78 560.944 196.877 560.944 196.983 C 560.944 197.302 560.98 197.625 561.042 197.928 C 561.057 198.173 561.269 198.36 561.515 198.344 C 561.759 198.328 561.945 198.117 561.93 197.872 C 561.927 197.828 561.918 197.787 561.904 197.747 C 561.855 197.502 561.832 197.243 561.832 196.982 C 561.832 196.753 561.85 196.533 561.887 196.315 C 561.93 196.077 561.774 195.848 561.536 195.802 L 561.496 195.788 C 561.463 195.784 561.431 195.784 561.399 195.788 L 488.546 195.788 L 449.715 195.788 L 424.587 195.788 C 424.555 195.784 424.522 195.784 424.489 195.788 L 424.499 195.788 Z" style="fill: rgb(30, 30, 30);" transform="matrix(0.965926, -0.258819, 0.258819, 0.965926, -34.205445, 134.313646)"/>
  <path id="path25" d="M 422.343 193.32 C 422.098 193.308 421.89 193.497 421.878 193.742 C 421.869 193.923 421.971 194.091 422.135 194.167 C 422.14 194.167 422.144 194.167 422.149 194.167 C 422.597 194.548 422.957 195.023 423.191 195.571 C 423.282 195.788 423.525 195.897 423.747 195.821 L 449.056 195.821 L 487.887 195.821 L 560.935 195.821 C 561.153 195.889 561.387 195.781 561.478 195.571 C 561.712 195.019 562.083 194.549 562.534 194.167 C 562.756 194.063 562.853 193.799 562.749 193.576 C 562.673 193.413 562.505 193.311 562.325 193.32 L 487.883 193.32 L 449.054 193.32 L 422.341 193.32 L 422.343 193.32 Z M 423.399 194.209 L 449.056 194.209 L 487.887 194.209 L 561.269 194.209 C 561.097 194.433 560.954 194.678 560.824 194.931 L 487.887 194.931 L 449.055 194.931 L 423.844 194.931 C 423.713 194.678 423.572 194.433 423.399 194.209 L 423.399 194.209 Z" style="fill: rgb(30, 30, 30);" transform="matrix(0.965926, -0.258819, 0.258819, 0.965926, -33.585698, 134.055458)"/>
  <path id="path27" d="M 333.185 198.474 C 332.961 198.502 332.795 198.693 332.796 198.918 L 332.796 199.85 C 332.796 200.095 332.995 200.294 333.241 200.294 L 348.765 200.294 C 348.595 200.515 348.463 200.768 348.334 201.017 L 333.241 201.017 C 332.995 201.017 332.796 201.217 332.796 201.462 L 332.796 202.408 C 332.796 202.653 332.995 202.852 333.241 202.852 L 347.82 202.852 C 347.813 202.956 347.791 203.053 347.791 203.157 C 347.791 203.295 347.822 203.427 347.834 203.561 L 333.241 203.561 C 332.995 203.561 332.797 203.76 332.796 204.006 L 332.796 204.951 C 332.796 205.196 332.995 205.395 333.241 205.395 L 348.376 205.395 C 348.529 205.681 348.698 205.952 348.904 206.201 L 333.241 206.201 C 332.995 206.201 332.795 206.4 332.795 206.645 C 332.795 206.651 332.795 206.656 332.795 206.66 L 332.823 207.619 C 332.831 207.86 333.027 208.05 333.268 208.05 L 352.559 208.05 C 352.805 208.054 353.006 207.857 353.01 207.612 C 353.013 207.366 352.817 207.164 352.571 207.16 C 352.567 207.16 352.563 207.16 352.559 207.16 L 333.7 207.16 L 333.7 207.091 L 349.96 207.091 L 349.988 207.091 C 350.143 207.087 350.285 207.004 350.363 206.869 C 350.481 206.674 350.433 206.423 350.252 206.284 C 350.247 206.281 350.243 206.275 350.238 206.271 C 349.731 205.876 349.314 205.374 349.043 204.797 C 349.039 204.788 349.033 204.778 349.029 204.769 C 349.028 204.765 349.03 204.759 349.029 204.756 C 349.025 204.751 349.021 204.746 349.016 204.742 C 349.012 204.727 349.007 204.713 349.002 204.699 L 348.988 204.687 C 348.878 204.515 348.666 204.442 348.474 204.506 L 333.685 204.506 L 333.685 204.45 L 348.21 204.45 C 348.349 204.49 348.499 204.459 348.612 204.367 L 348.626 204.353 C 348.769 204.235 348.824 204.042 348.765 203.867 C 348.761 203.862 348.756 203.857 348.752 203.853 C 348.71 203.629 348.681 203.395 348.681 203.158 C 348.681 202.925 348.698 202.698 348.738 202.477 C 348.776 202.234 348.61 202.006 348.367 201.968 C 348.347 201.965 348.327 201.964 348.307 201.963 L 348.21 201.963 L 333.685 201.963 L 333.685 201.907 L 348.487 201.907 L 348.585 201.907 C 348.759 201.906 348.916 201.803 348.987 201.643 C 349.229 201.083 349.608 200.594 350.071 200.211 C 350.261 200.055 350.286 199.775 350.13 199.586 C 350.065 199.507 349.976 199.454 349.877 199.433 L 349.836 199.419 C 349.803 199.411 349.77 199.406 349.738 199.405 L 333.685 199.405 L 333.685 199.364 L 351.879 199.364 L 421.649 199.364 L 450.543 199.364 L 489.375 199.364 L 565.993 199.364 L 578.211 199.364 L 606.243 199.364 L 606.243 199.405 L 580.364 199.405 C 580.331 199.406 580.299 199.412 580.267 199.419 L 580.211 199.433 C 579.972 199.489 579.823 199.727 579.878 199.967 C 579.9 200.063 579.953 200.149 580.03 200.211 C 580.495 200.594 580.859 201.083 581.1 201.643 C 581.173 201.807 581.338 201.911 581.517 201.907 C 581.522 201.907 581.527 201.907 581.53 201.907 L 581.572 201.907 L 606.242 201.907 L 606.242 201.963 L 581.878 201.963 L 581.795 201.963 C 581.549 201.968 581.354 202.169 581.359 202.416 C 581.359 202.437 581.361 202.457 581.363 202.477 L 581.349 202.477 C 581.389 202.699 581.42 202.925 581.42 203.158 C 581.42 203.395 581.39 203.629 581.349 203.853 C 581.348 203.863 581.338 203.872 581.336 203.88 C 581.336 203.886 581.336 203.891 581.336 203.895 C 581.289 204.062 581.344 204.24 581.475 204.353 L 581.489 204.367 C 581.606 204.463 581.761 204.495 581.906 204.45 L 606.242 204.45 L 606.242 204.506 L 581.613 204.506 C 581.426 204.448 581.222 204.522 581.115 204.687 L 581.101 204.7 C 581.09 204.714 581.082 204.727 581.073 204.742 C 581.068 204.752 581.062 204.761 581.059 204.771 C 580.787 205.358 580.379 205.87 579.863 206.271 C 579.859 206.275 579.854 206.28 579.849 206.285 C 579.652 206.43 579.607 206.708 579.753 206.907 C 579.757 206.913 579.761 206.918 579.766 206.924 C 579.85 207.03 579.978 207.091 580.113 207.091 L 580.169 207.091 L 606.228 207.091 L 606.228 207.161 L 577.541 207.161 C 577.296 207.158 577.094 207.353 577.09 207.6 C 577.087 207.845 577.284 208.047 577.529 208.05 C 577.534 208.05 577.537 208.05 577.541 208.05 L 606.657 208.05 C 606.898 208.05 607.095 207.86 607.103 207.62 L 607.13 206.661 C 607.138 206.415 606.945 206.21 606.7 206.202 C 606.695 206.202 606.69 206.202 606.686 206.202 L 581.197 206.202 C 581.403 205.953 581.572 205.682 581.726 205.396 L 606.687 205.396 C 606.932 205.396 607.131 205.197 607.131 204.951 L 607.131 204.006 C 607.131 203.761 606.932 203.561 606.687 203.561 L 582.267 203.561 C 582.278 203.428 582.309 203.295 582.309 203.158 C 582.309 203.054 582.287 202.956 582.281 202.853 L 606.686 202.853 C 606.931 202.853 607.13 202.653 607.13 202.408 L 607.13 201.463 C 607.13 201.217 606.931 201.018 606.686 201.018 L 581.767 201.018 C 581.638 200.768 581.505 200.516 581.336 200.295 L 606.686 200.295 C 606.932 200.295 607.13 200.096 607.13 199.85 L 607.13 198.918 C 607.13 198.673 606.932 198.475 606.686 198.475 L 578.209 198.475 L 565.993 198.475 L 489.374 198.475 L 450.542 198.475 L 421.648 198.475 L 351.878 198.475 L 333.241 198.475 C 333.222 198.472 333.203 198.472 333.185 198.474 L 333.185 198.474 Z" style="fill: rgb(30, 30, 30);" transform="matrix(0.965926, -0.258819, 0.258819, 0.965926, -36.594307, 128.561352)"/>
  <path id="path29" d="M 562.975 173.031 C 560.925 173.031 559.263 174.693 559.263 176.741 C 559.263 178.789 560.925 180.466 562.975 180.466 L 574.093 180.466 C 576.142 180.466 577.803 178.79 577.803 176.741 C 577.803 174.693 576.142 173.031 574.093 173.031 L 562.975 173.031 Z M 562.975 173.92 L 574.093 173.92 C 575.661 173.92 576.914 175.174 576.914 176.742 C 576.914 178.31 575.661 179.577 574.093 179.577 L 562.975 179.577 C 561.406 179.577 560.153 178.31 560.153 176.742 C 560.153 175.173 561.406 173.92 562.975 173.92 Z" style="fill: rgb(30, 30, 30);" transform="matrix(0.965926, -0.258819, 0.258819, 0.965926, -26.373585, 153.169644)"/>
  <path id="path31" d="M 332.362 189.895 C 331.273 189.895 330.389 190.78 330.389 191.868 L 330.389 197.984 C 330.389 198.23 330.587 198.429 330.833 198.429 L 604.362 198.429 C 604.607 198.429 604.806 198.23 604.806 197.984 L 604.806 191.868 C 604.806 190.78 603.92 189.895 602.833 189.895 L 332.359 189.895 L 332.362 189.895 Z M 332.362 190.784 L 602.835 190.784 C 603.441 190.784 603.919 191.261 603.919 191.868 L 603.919 197.539 L 331.28 197.539 L 331.28 191.868 C 331.28 191.261 331.757 190.784 332.365 190.784 L 332.362 190.784 Z" style="fill: rgb(30, 30, 30);" transform="matrix(0.965926, -0.258819, 0.258819, 0.965926, -34.319836, 127.639148)"/>
  <path id="path33" d="M 349.835 208.547 C 349.628 208.593 349.483 208.78 349.488 208.992 L 349.488 320.372 C 349.488 321.461 350.373 322.345 351.461 322.345 L 621.935 322.345 C 623.022 322.345 623.908 321.46 623.908 320.372 L 623.902 208.992 C 623.902 208.746 623.703 208.547 623.457 208.547 L 349.931 208.547 C 349.899 208.543 349.866 208.543 349.833 208.547 L 349.835 208.547 Z M 350.378 209.437 L 623.016 209.437 L 623.016 320.372 C 623.016 320.98 622.54 321.457 621.932 321.457 L 351.459 321.457 C 350.852 321.457 350.375 320.98 350.375 320.372 L 350.378 209.437 L 350.378 209.437 Z" style="fill: rgb(30, 30, 30);" transform="matrix(0.965926, -0.258819, 0.258819, 0.965926, -52.118253, 135.011427)"/>
  <path id="path35" d="M 360.061 266.079 C 359.239 266.079 358.574 266.758 358.574 267.58 L 358.574 276.823 C 358.574 277.645 359.239 278.323 360.061 278.323 L 369.303 278.323 C 370.125 278.323 370.803 277.645 370.803 276.823 L 370.803 267.58 C 370.803 266.758 370.125 266.079 369.303 266.079 L 360.061 266.079 Z M 360.061 266.969 L 369.303 266.969 C 369.644 266.969 369.914 267.239 369.914 267.581 L 369.914 276.823 C 369.914 277.164 369.643 277.434 369.303 277.434 L 360.061 277.434 C 359.719 277.434 359.462 277.163 359.462 276.823 L 359.462 267.581 C 359.463 267.239 359.719 266.969 360.061 266.969 Z" style="fill: rgb(30, 30, 30);" transform="matrix(0.965926, -0.258819, 0.258819, 0.965926, -58.02432, 103.663301)"/>
  <path id="path37" d="M 372.667 262.705 C 371.846 262.705 371.166 263.384 371.166 264.205 L 371.166 273.449 C 371.166 274.269 371.845 274.949 372.667 274.949 L 381.895 274.949 C 382.716 274.949 383.396 274.27 383.396 273.449 L 383.396 264.205 C 383.396 263.384 382.716 262.705 381.895 262.705 L 372.667 262.705 Z M 372.667 263.595 L 381.895 263.595 C 382.236 263.595 382.506 263.865 382.506 264.206 L 382.506 273.449 C 382.506 273.79 382.236 274.06 381.895 274.06 L 372.667 274.06 C 372.326 274.06 372.055 273.789 372.055 273.449 L 372.055 264.206 C 372.055 263.865 372.326 263.595 372.667 263.595 Z" style="fill: rgb(30, 30, 30);" transform="matrix(0.965926, -0.258819, 0.258819, 0.965926, -56.721988, 106.807514)"/>
  <path id="path39" d="M 385.259 259.329 C 384.437 259.329 383.757 260.008 383.757 260.83 L 383.757 270.073 C 383.757 270.895 384.436 271.573 385.259 271.573 L 394.501 271.573 C 395.253 271.573 395.846 270.994 395.946 270.267 C 395.951 270.257 395.955 270.249 395.96 270.239 C 395.96 270.234 395.96 270.23 395.96 270.226 C 395.965 270.212 395.97 270.198 395.973 270.184 C 395.981 270.157 395.985 270.129 395.988 270.101 C 395.993 270.09 395.998 270.082 396.002 270.073 L 396.002 260.83 C 396.002 260.008 395.322 259.329 394.501 259.329 L 385.259 259.329 L 385.259 259.329 Z M 385.259 260.219 L 394.501 260.219 C 394.842 260.219 395.113 260.489 395.113 260.831 L 395.113 269.989 C 395.112 270.008 395.112 270.027 395.113 270.044 C 395.107 270.055 395.102 270.063 395.099 270.073 C 395.099 270.413 394.842 270.684 394.502 270.684 L 385.259 270.684 C 384.918 270.684 384.647 270.413 384.647 270.073 L 384.647 260.83 C 384.647 260.489 384.917 260.219 385.259 260.219 L 385.259 260.219 Z" style="fill: rgb(30, 30, 30);" transform="matrix(0.965926, -0.258819, 0.258819, 0.965926, -55.418932, 109.953209)"/>
  <path id="path41" d="M 397.849 255.954 C 397.027 255.954 396.362 256.633 396.362 257.455 L 396.362 266.698 C 396.362 267.519 397.027 268.198 397.849 268.198 L 407.091 268.198 C 407.913 268.198 408.592 267.519 408.592 266.698 L 408.592 257.455 C 408.592 256.633 407.912 255.954 407.091 255.954 L 397.849 255.954 Z M 397.849 256.844 L 407.091 256.844 C 407.432 256.844 407.703 257.114 407.703 257.456 L 407.703 266.698 C 407.703 267.039 407.432 267.309 407.091 267.309 L 397.849 267.309 C 397.508 267.309 397.251 267.038 397.251 266.698 L 397.251 257.456 C 397.251 257.114 397.507 256.844 397.849 256.844 Z" style="fill: rgb(30, 30, 30);" transform="matrix(0.965926, -0.258819, 0.258819, 0.965926, -54.116167, 113.098673)"/>
  <path id="path43" d="M 410.458 252.579 C 409.635 252.579 408.956 253.258 408.956 254.08 L 408.956 263.323 C 408.956 264.145 409.635 264.824 410.458 264.824 L 419.686 264.824 C 420.507 264.824 421.186 264.145 421.186 263.323 L 421.186 254.08 C 421.186 253.258 420.507 252.579 419.686 252.579 L 410.458 252.579 Z M 410.458 253.469 L 419.686 253.469 C 420.026 253.469 420.297 253.739 420.297 254.081 L 420.297 263.323 C 420.297 263.664 420.026 263.935 419.686 263.935 L 410.458 263.935 C 410.117 263.935 409.846 263.664 409.846 263.323 L 409.846 254.081 C 409.846 253.739 410.116 253.469 410.458 253.469 Z" style="fill: rgb(30, 30, 30);" transform="matrix(0.965926, -0.258819, 0.258819, 0.965926, -52.81366, 116.243257)"/>
  <path id="path45" d="M 423.049 249.205 C 422.228 249.205 421.547 249.884 421.547 250.706 L 421.547 259.95 C 421.547 260.771 422.228 261.45 423.049 261.45 L 432.291 261.45 C 433.112 261.45 433.778 260.771 433.778 259.95 L 433.778 250.706 C 433.778 249.884 433.112 249.205 432.291 249.205 L 423.049 249.205 Z M 423.049 250.095 L 432.291 250.095 C 432.632 250.095 432.888 250.365 432.888 250.707 L 432.888 259.95 C 432.888 260.29 432.632 260.561 432.291 260.561 L 423.049 260.561 C 422.708 260.561 422.437 260.29 422.437 259.95 L 422.437 250.707 C 422.437 250.365 422.708 250.095 423.049 250.095 Z" style="fill: rgb(30, 30, 30);" transform="matrix(0.965926, -0.258819, 0.258819, 0.965926, -51.511361, 119.387214)"/>
  <path id="path47" d="M 435.639 245.828 C 434.817 245.828 434.152 246.507 434.152 247.328 L 434.152 256.572 C 434.152 257.393 434.817 258.072 435.639 258.072 L 444.882 258.072 C 445.702 258.072 446.382 257.393 446.382 256.572 L 446.382 247.328 C 446.382 246.507 445.702 245.828 444.882 245.828 L 435.639 245.828 Z M 435.639 246.718 L 444.882 246.718 C 445.222 246.718 445.493 246.988 445.493 247.329 L 445.493 256.572 C 445.493 256.913 445.222 257.183 444.882 257.183 L 435.639 257.183 C 435.298 257.183 435.042 256.912 435.042 256.572 L 435.042 247.329 C 435.042 246.988 435.298 246.718 435.639 246.718 Z" style="fill: rgb(30, 30, 30);" transform="matrix(0.965926, -0.258819, 0.258819, 0.965926, -50.207686, 122.53433)"/>
  <path id="path49" d="M 448.248 242.453 C 447.426 242.453 446.747 243.132 446.747 243.954 L 446.747 253.197 C 446.747 254.019 447.426 254.697 448.248 254.697 L 457.477 254.697 C 458.298 254.697 458.977 254.019 458.977 253.197 L 458.977 243.954 C 458.977 243.132 458.298 242.453 457.477 242.453 L 448.248 242.453 Z M 448.248 243.343 L 457.477 243.343 C 457.817 243.343 458.087 243.613 458.087 243.955 L 458.087 253.197 C 458.087 253.538 457.816 253.808 457.477 253.808 L 448.248 253.808 C 447.908 253.808 447.637 253.537 447.637 253.197 L 447.637 243.955 C 447.637 243.613 447.908 243.343 448.248 243.343 Z" style="fill: rgb(30, 30, 30);" transform="matrix(0.965926, -0.258819, 0.258819, 0.965926, -48.905013, 125.679158)"/>
  <path id="path51" d="M 460.84 239.079 C 460.017 239.079 459.338 239.758 459.338 240.58 L 459.338 249.823 C 459.338 250.645 460.017 251.324 460.84 251.324 L 470.082 251.324 C 470.903 251.324 471.569 250.645 471.569 249.823 L 471.569 240.58 C 471.569 239.758 470.903 239.079 470.082 239.079 L 460.84 239.079 Z M 460.84 239.969 L 470.082 239.969 C 470.423 239.969 470.68 240.239 470.68 240.581 L 470.68 249.823 C 470.68 250.164 470.422 250.435 470.082 250.435 L 460.84 250.435 C 460.498 250.435 460.227 250.164 460.227 249.823 L 460.227 240.581 C 460.227 240.239 460.498 239.969 460.84 239.969 Z" style="fill: rgb(30, 30, 30);" transform="matrix(0.965926, -0.258819, 0.258819, 0.965926, -47.602859, 128.823202)"/>
  <path id="path53" d="M 473.43 235.704 C 472.608 235.704 471.929 236.382 471.929 237.204 L 471.929 246.448 C 471.929 247.268 472.608 247.948 473.43 247.948 L 482.672 247.948 C 483.493 247.948 484.173 247.269 484.173 246.448 L 484.173 237.204 C 484.173 236.382 483.494 235.704 482.672 235.704 L 473.43 235.704 Z M 473.43 236.594 L 482.672 236.594 C 483.013 236.594 483.284 236.864 483.284 237.205 L 483.284 246.448 C 483.284 246.788 483.012 247.059 482.672 247.059 L 473.43 247.059 C 473.089 247.059 472.819 246.788 472.819 246.448 L 472.819 237.205 C 472.819 236.864 473.089 236.594 473.43 236.594 Z" style="fill: rgb(30, 30, 30);" transform="matrix(0.965926, -0.258819, 0.258819, 0.965926, -46.29997, 131.968651)"/>
  <path id="path55" d="M 486.039 232.327 C 485.216 232.327 484.537 233.006 484.537 233.828 L 484.537 243.071 C 484.537 243.891 485.216 244.571 486.039 244.571 L 495.267 244.571 C 496.089 244.571 496.768 243.893 496.768 243.071 L 496.768 233.828 C 496.768 233.006 496.089 232.327 495.267 232.327 L 486.039 232.327 Z M 486.039 233.217 L 495.267 233.217 C 495.608 233.217 495.878 233.487 495.878 233.829 L 495.878 243.071 C 495.878 243.411 495.607 243.682 495.267 243.682 L 486.039 243.682 C 485.697 243.682 485.427 243.411 485.427 243.071 L 485.427 233.829 C 485.427 233.487 485.698 233.217 486.039 233.217 Z" style="fill: rgb(30, 30, 30);" transform="matrix(0.965926, -0.258819, 0.258819, 0.965926, -44.99657, 135.115188)"/>
  <path id="path57" d="M 498.63 228.953 C 497.808 228.953 497.128 229.632 497.128 230.454 L 497.128 239.698 C 497.128 240.518 497.808 241.198 498.63 241.198 L 507.872 241.198 C 508.693 241.198 509.359 240.519 509.359 239.698 L 509.359 230.454 C 509.359 229.632 508.693 228.954 507.872 228.953 L 498.63 228.953 Z M 498.63 229.844 L 507.872 229.844 C 508.212 229.844 508.47 230.114 508.47 230.455 L 508.47 239.698 C 508.47 240.038 508.212 240.309 507.872 240.309 L 498.63 240.309 C 498.288 240.309 498.018 240.038 498.018 239.698 L 498.018 230.455 C 498.018 230.114 498.289 229.844 498.63 229.844 Z" style="fill: rgb(30, 30, 30);" transform="matrix(0.965926, -0.258819, 0.258819, 0.965926, -43.694366, 138.258771)"/>
  <path id="path59" d="M 511.22 225.576 C 510.399 225.576 509.734 226.255 509.734 227.077 L 509.734 236.32 C 509.734 237.141 510.399 237.82 511.22 237.82 L 520.463 237.82 C 521.284 237.82 521.963 237.142 521.963 236.32 L 521.963 227.077 C 521.963 226.255 521.284 225.576 520.463 225.576 L 511.22 225.576 Z M 511.22 226.466 L 520.463 226.466 C 520.804 226.466 521.074 226.736 521.074 227.078 L 521.074 236.32 C 521.074 236.66 520.803 236.931 520.463 236.931 L 511.22 236.931 C 510.879 236.931 510.622 236.66 510.622 236.32 L 510.622 227.078 C 510.622 226.736 510.879 226.466 511.22 226.466 Z" style="fill: rgb(30, 30, 30);" transform="matrix(0.965926, -0.258819, 0.258819, 0.965926, -42.390733, 141.406262)"/>
  <path id="path61" d="M 523.829 222.201 C 523.007 222.201 522.328 222.88 522.328 223.702 L 522.328 232.943 C 522.328 233.765 523.007 234.445 523.829 234.445 L 533.057 234.445 C 533.879 234.445 534.559 233.765 534.559 232.943 C 534.559 232.93 534.559 232.916 534.559 232.902 L 534.559 223.701 C 534.559 222.88 533.88 222.2 533.057 222.2 L 523.829 222.201 L 523.829 222.201 Z M 523.829 223.091 L 533.057 223.091 C 533.399 223.091 533.668 223.361 533.668 223.703 L 533.668 232.944 C 533.668 233.286 533.398 233.556 533.057 233.556 L 523.829 233.556 C 523.488 233.556 523.217 233.285 523.217 232.944 L 523.217 223.702 C 523.217 223.361 523.489 223.091 523.829 223.091 L 523.829 223.091 Z" style="fill: rgb(30, 30, 30);" transform="matrix(0.965926, -0.258819, 0.258819, 0.965926, -41.087929, 144.55106)"/>
  <path id="path63" d="M 382.608 273.392 C 381.786 273.392 381.107 274.071 381.107 274.893 L 381.107 284.133 C 381.107 284.956 381.786 285.621 382.608 285.621 L 391.85 285.621 C 392.602 285.621 393.193 285.054 393.296 284.329 C 393.301 284.319 393.305 284.311 393.309 284.301 C 393.31 284.296 393.308 284.291 393.309 284.287 C 393.315 284.274 393.319 284.261 393.324 284.247 C 393.331 284.22 393.335 284.192 393.338 284.162 C 393.342 284.154 393.347 284.146 393.351 284.136 L 393.351 274.894 C 393.351 274.073 392.671 273.393 391.85 273.393 L 382.608 273.393 L 382.608 273.392 Z M 382.608 274.281 L 391.85 274.281 C 392.191 274.281 392.461 274.553 392.461 274.893 L 392.461 284.051 C 392.461 284.065 392.461 284.078 392.461 284.092 C 392.456 284.107 392.452 284.122 392.448 284.137 C 392.448 284.477 392.191 284.735 391.85 284.735 L 382.608 284.735 C 382.267 284.735 381.997 284.477 381.997 284.139 L 381.997 274.897 C 381.997 274.556 382.267 274.285 382.608 274.285 L 382.608 274.281 Z" style="fill: rgb(30, 30, 30);" transform="matrix(0.965926, -0.258819, 0.258819, 0.965926, -59.147046, 109.746068)"/>
  <path id="path65" d="M 363.284 277.674 C 362.461 277.674 361.796 278.353 361.796 279.175 L 361.796 288.416 C 361.796 289.239 362.461 289.904 363.284 289.904 L 379.197 289.904 C 380.018 289.904 380.698 289.239 380.698 288.416 L 380.698 279.175 C 380.698 278.353 380.018 277.674 379.197 277.674 L 363.284 277.674 Z M 363.284 278.563 L 379.197 278.563 C 379.538 278.563 379.807 278.835 379.807 279.175 L 379.807 288.416 C 379.807 288.758 379.537 289.015 379.197 289.015 L 363.284 289.015 C 362.941 289.015 362.685 288.757 362.685 288.416 L 362.685 279.175 C 362.685 278.835 362.941 278.563 363.284 278.563 Z" style="fill: rgb(30, 30, 30);" transform="matrix(0.965926, -0.258819, 0.258819, 0.965926, -60.800016, 105.755553)"/>
  <path id="path67" d="M 395.201 270.017 C 394.38 270.017 393.7 270.697 393.7 271.519 L 393.7 280.759 C 393.7 281.582 394.38 282.247 395.201 282.247 L 404.443 282.247 C 405.265 282.247 405.944 281.582 405.944 280.759 L 405.944 271.519 C 405.944 270.697 405.265 270.017 404.443 270.017 L 395.201 270.017 Z M 395.201 270.906 L 404.443 270.906 C 404.785 270.906 405.055 271.178 405.055 271.519 L 405.055 280.759 C 405.055 281.101 404.785 281.358 404.443 281.358 L 395.201 281.358 C 394.86 281.358 394.589 281.101 394.589 280.759 L 394.589 271.519 C 394.589 271.178 394.859 270.906 395.201 270.906 Z" style="fill: rgb(30, 30, 30);" transform="matrix(0.965926, -0.258819, 0.258819, 0.965926, -57.844599, 112.890466)"/>
  <path id="path69" d="M 407.805 266.642 C 406.983 266.642 406.305 267.321 406.305 268.143 L 406.305 277.383 C 406.305 278.207 406.984 278.871 407.805 278.871 L 417.034 278.871 C 417.855 278.871 418.535 278.207 418.535 277.383 L 418.535 268.143 C 418.535 267.321 417.855 266.642 417.034 266.642 L 407.805 266.642 Z M 407.805 267.531 L 417.034 267.531 C 417.374 267.531 417.645 267.803 417.645 268.143 L 417.645 277.383 C 417.645 277.725 417.374 277.983 417.034 277.983 L 407.805 277.983 C 407.464 277.983 407.194 277.725 407.194 277.383 L 407.194 268.143 C 407.194 267.802 407.464 267.531 407.805 267.531 Z" style="fill: rgb(30, 30, 30);" transform="matrix(0.965926, -0.258819, 0.258819, 0.965926, -56.541778, 116.036315)"/>
  <path id="path71" d="M 420.396 263.268 C 419.575 263.268 418.896 263.947 418.896 264.769 L 418.896 274.01 C 418.896 274.833 419.575 275.498 420.396 275.498 L 429.638 275.498 C 430.46 275.498 431.126 274.833 431.126 274.01 L 431.126 264.769 C 431.126 263.947 430.46 263.268 429.638 263.268 L 420.396 263.268 Z M 420.396 264.157 L 429.638 264.157 C 429.98 264.157 430.237 264.429 430.237 264.769 L 430.237 274.01 C 430.237 274.352 429.98 274.609 429.638 274.609 L 420.396 274.609 C 420.056 274.609 419.785 274.351 419.785 274.01 L 419.785 264.769 C 419.785 264.429 420.056 264.157 420.396 264.157 Z" style="fill: rgb(30, 30, 30);" transform="matrix(0.965926, -0.258819, 0.258819, 0.965926, -55.239529, 119.179879)"/>
  <path id="path73" d="M 432.991 259.89 C 432.17 259.89 431.504 260.569 431.504 261.391 L 431.504 270.632 C 431.504 271.455 432.17 272.119 432.991 272.119 L 442.234 272.119 C 443.056 272.119 443.735 271.455 443.735 270.632 L 443.735 261.391 C 443.735 260.569 443.056 259.89 442.234 259.89 L 432.991 259.89 Z M 432.991 260.779 L 442.234 260.779 C 442.575 260.779 442.845 261.051 442.845 261.391 L 442.845 270.632 C 442.845 270.974 442.575 271.231 442.234 271.231 L 432.991 271.231 C 432.65 271.231 432.394 270.973 432.394 270.632 L 432.394 261.391 C 432.394 261.05 432.651 260.779 432.991 260.779 Z" style="fill: rgb(30, 30, 30);" transform="matrix(0.965926, -0.258819, 0.258819, 0.965926, -53.935495, 122.328087)"/>
  <path id="path75" d="M 445.595 256.516 C 444.774 256.516 444.094 257.195 444.094 258.017 L 444.094 267.258 C 444.094 268.081 444.774 268.746 445.595 268.746 L 454.825 268.746 C 455.646 268.746 456.325 268.081 456.325 267.258 L 456.325 258.017 C 456.325 257.195 455.646 256.516 454.825 256.516 L 445.595 256.516 Z M 445.595 257.405 L 454.825 257.405 C 455.165 257.405 455.435 257.677 455.435 258.017 L 455.435 267.258 C 455.435 267.6 455.164 267.857 454.825 267.857 L 445.595 267.857 C 445.255 267.857 444.983 267.599 444.983 267.258 L 444.983 258.017 C 444.983 257.677 445.255 257.405 445.595 257.405 Z" style="fill: rgb(30, 30, 30);" transform="matrix(0.965926, -0.258819, 0.258819, 0.965926, -52.633364, 125.471671)"/>
  <path id="path77" d="M 458.187 253.142 C 457.365 253.142 456.686 253.822 456.686 254.644 L 456.686 263.884 C 456.686 264.707 457.365 265.372 458.187 265.372 L 467.429 265.372 C 468.25 265.372 468.917 264.707 468.917 263.884 L 468.917 254.644 C 468.917 253.822 468.251 253.142 467.429 253.142 L 458.187 253.142 Z M 458.187 254.031 L 467.429 254.031 C 467.769 254.031 468.026 254.303 468.026 254.644 L 468.026 263.884 C 468.026 264.226 467.769 264.483 467.429 264.483 L 458.187 264.483 C 457.846 264.483 457.575 264.226 457.575 263.884 L 457.575 254.644 C 457.575 254.303 457.846 254.031 458.187 254.031 Z" style="fill: rgb(30, 30, 30);" transform="matrix(0.965926, -0.258819, 0.258819, 0.965926, -51.331037, 128.615664)"/>
  <path id="path79" d="M 470.778 249.767 C 469.957 249.767 469.276 250.446 469.276 251.268 L 469.276 260.508 C 469.276 261.332 469.957 261.996 470.778 261.996 L 480.021 261.996 C 480.841 261.996 481.521 261.332 481.521 260.508 L 481.521 251.268 C 481.521 250.446 480.842 249.767 480.021 249.767 L 470.778 249.767 Z M 470.778 250.656 L 480.021 250.656 C 480.362 250.656 480.632 250.928 480.632 251.268 L 480.632 260.508 C 480.632 260.85 480.362 261.108 480.021 261.108 L 470.778 261.108 C 470.436 261.108 470.166 260.85 470.166 260.508 L 470.166 251.268 C 470.166 250.927 470.436 250.656 470.778 250.656 Z" style="fill: rgb(30, 30, 30);" transform="matrix(0.965926, -0.258819, 0.258819, 0.965926, -50.028158, 131.760986)"/>
  <path id="path81" d="M 483.386 246.39 C 482.565 246.39 481.885 247.069 481.885 247.891 L 481.885 257.132 C 481.885 257.955 482.565 258.62 483.386 258.62 L 492.614 258.62 C 493.435 258.62 494.116 257.955 494.116 257.132 L 494.116 247.891 C 494.116 247.069 493.436 246.39 492.614 246.39 L 483.386 246.39 Z M 483.386 247.279 L 492.614 247.279 C 492.955 247.279 493.226 247.551 493.226 247.891 L 493.226 257.132 C 493.226 257.473 492.954 257.731 492.614 257.731 L 483.386 257.731 C 483.046 257.731 482.774 257.473 482.774 257.132 L 482.774 247.891 C 482.775 247.55 483.046 247.279 483.386 247.279 Z" style="fill: rgb(30, 30, 30);" transform="matrix(0.965926, -0.258819, 0.258819, 0.965926, -48.724861, 134.907562)"/>
  <path id="path83" d="M 495.978 243.016 C 495.156 243.016 494.476 243.695 494.476 244.517 L 494.476 253.758 C 494.476 254.581 495.155 255.246 495.978 255.246 L 505.22 255.246 C 506.041 255.246 506.707 254.581 506.707 253.758 L 506.707 244.517 C 506.707 243.695 506.042 243.016 505.22 243.016 L 495.978 243.016 Z M 495.978 243.905 L 505.22 243.905 C 505.561 243.905 505.817 244.177 505.817 244.517 L 505.817 253.758 C 505.817 254.1 505.56 254.357 505.22 254.357 L 495.978 254.357 C 495.637 254.357 495.367 254.099 495.367 253.758 L 495.367 244.517 C 495.367 244.177 495.637 243.905 495.978 243.905 Z" style="fill: rgb(30, 30, 30);" transform="matrix(0.965926, -0.258819, 0.258819, 0.965926, -47.422598, 138.051471)"/>
  <path id="path85" d="M 508.569 239.641 C 507.748 239.641 507.067 240.32 507.067 241.142 L 507.067 250.383 C 507.067 251.206 507.746 251.871 508.569 251.871 L 517.811 251.871 C 518.633 251.871 519.311 251.206 519.311 250.383 L 519.311 241.142 C 519.311 240.32 518.633 239.641 517.811 239.641 L 508.569 239.641 Z M 508.569 240.53 L 517.811 240.53 C 518.151 240.53 518.422 240.802 518.422 241.142 L 518.422 250.383 C 518.422 250.724 518.151 250.982 517.811 250.982 L 508.569 250.982 C 508.227 250.982 507.957 250.724 507.957 250.383 L 507.957 241.142 C 507.956 240.801 508.228 240.53 508.569 240.53 Z" style="fill: rgb(30, 30, 30);" transform="matrix(0.965926, -0.258819, 0.258819, 0.965926, -46.119833, 141.196936)"/>
  <path id="path87" d="M 521.177 236.264 C 520.356 236.264 519.676 236.944 519.676 237.765 L 519.676 247.006 C 519.676 247.829 520.355 248.494 521.177 248.494 L 530.406 248.494 C 531.227 248.494 531.906 247.829 531.906 247.006 L 531.906 237.765 C 531.906 236.944 531.228 236.264 530.406 236.264 L 521.177 236.264 Z M 521.177 237.153 L 530.406 237.153 C 530.746 237.153 531.017 237.425 531.017 237.765 L 531.017 247.006 C 531.017 247.348 530.746 247.605 530.406 247.605 L 521.177 247.605 C 520.835 247.605 520.566 247.348 520.566 247.006 L 520.566 237.765 C 520.565 237.425 520.835 237.153 521.177 237.153 Z" style="fill: rgb(30, 30, 30);" transform="matrix(0.965926, -0.258819, 0.258819, 0.965926, -44.816391, 144.343527)"/>
  <path id="path89" d="M 533.768 232.89 C 532.947 232.89 532.268 233.569 532.268 234.391 L 532.268 243.632 C 532.268 244.455 532.946 245.12 533.768 245.12 L 543.011 245.12 C 543.832 245.12 544.498 244.455 544.498 243.632 L 544.498 234.391 C 544.498 233.569 543.832 232.89 543.011 232.89 L 533.768 232.89 Z M 533.768 233.779 L 543.011 233.779 C 543.351 233.779 543.609 234.051 543.609 234.391 L 543.609 243.632 C 543.609 243.973 543.351 244.231 543.011 244.231 L 533.768 244.231 C 533.426 244.231 533.158 243.973 533.158 243.632 L 533.158 234.391 C 533.158 234.051 533.426 233.779 533.768 233.779 Z" style="fill: rgb(30, 30, 30);" transform="matrix(0.965926, -0.258819, 0.258819, 0.965926, -43.514077, 147.4876)"/>
  <path id="path91" d="M 578.183 219.978 C 577.362 219.978 576.682 220.657 576.682 221.479 L 576.682 230.72 C 576.682 231.543 577.362 232.208 578.183 232.208 L 594.958 232.208 C 595.779 232.208 596.46 231.543 596.46 230.72 L 596.46 221.479 C 596.46 220.657 595.78 219.978 594.958 219.978 L 578.183 219.978 Z M 578.183 220.867 L 594.958 220.867 C 595.299 220.867 595.57 221.139 595.57 221.479 L 595.57 230.72 C 595.57 231.062 595.298 231.319 594.958 231.319 L 578.183 231.319 C 577.842 231.319 577.572 231.062 577.572 230.72 L 577.572 221.479 C 577.572 221.139 577.842 220.867 578.183 220.867 Z" style="fill: rgb(30, 30, 30);" transform="matrix(0.965926, -0.258819, 0.258819, 0.965926, -38.530238, 159.519608)"/>
  <path id="path93" d="M 546.143 228.727 C 545.323 228.727 544.642 229.406 544.642 230.228 L 544.642 239.468 C 544.642 240.292 545.321 240.956 546.143 240.956 L 561.696 240.956 C 562.518 240.956 563.198 240.292 563.198 239.468 L 563.198 230.228 C 563.198 229.406 562.518 228.727 561.696 228.727 L 546.143 228.727 Z M 546.143 229.616 L 561.696 229.616 C 562.037 229.616 562.307 229.888 562.307 230.228 L 562.307 239.468 C 562.307 239.811 562.037 240.068 561.696 240.068 L 546.143 240.068 C 545.803 240.068 545.532 239.81 545.532 239.468 L 545.532 230.228 C 545.532 229.887 545.804 229.616 546.143 229.616 Z" style="fill: rgb(30, 30, 30);" transform="matrix(0.965926, -0.258819, 0.258819, 0.965926, -41.90707, 151.367014)"/>
  <path id="path95" d="M 536.421 218.827 C 535.598 218.827 534.919 219.506 534.919 220.328 L 534.919 229.572 C 534.919 230.392 535.598 231.072 536.421 231.072 L 545.662 231.072 C 546.484 231.072 547.15 230.394 547.15 229.572 L 547.15 220.328 C 547.15 219.506 546.484 218.827 545.662 218.827 L 536.421 218.827 Z M 536.421 219.717 L 545.662 219.717 C 546.004 219.717 546.26 219.988 546.26 220.329 L 546.26 229.572 C 546.26 229.912 546.003 230.183 545.662 230.183 L 536.421 230.183 C 536.079 230.183 535.809 229.912 535.809 229.572 L 535.809 220.329 C 535.809 219.988 536.08 219.717 536.421 219.717 Z" style="fill: rgb(30, 30, 30);" transform="matrix(0.965926, -0.258819, 0.258819, 0.965926, -39.785902, 147.694934)"/>
  <path id="path97" d="M 363.353 291.904 C 362.531 291.904 361.852 292.584 361.852 293.406 L 361.852 302.635 C 361.852 303.457 362.531 304.136 363.353 304.136 L 372.594 304.136 C 373.416 304.136 374.082 303.457 374.082 302.635 L 374.082 293.406 C 374.082 292.584 373.416 291.904 372.594 291.904 L 363.353 291.904 Z M 363.353 292.795 L 372.594 292.795 C 372.936 292.795 373.193 293.066 373.193 293.406 L 373.193 302.635 C 373.193 302.977 372.936 303.247 372.594 303.247 L 363.353 303.247 C 363.011 303.247 362.741 302.976 362.741 302.635 L 362.741 293.406 C 362.741 293.066 363.011 292.795 363.353 292.795 Z" style="fill: rgb(30, 30, 30);" transform="matrix(0.965926, -0.258819, 0.258819, 0.965926, -64.595054, 105.39159)"/>
  <path id="path99" d="M 375.945 288.528 C 375.123 288.528 374.444 289.208 374.444 290.03 L 374.444 299.259 C 374.444 300.081 375.123 300.76 375.945 300.76 L 385.186 300.76 C 386.009 300.76 386.687 300.081 386.687 299.259 L 386.687 290.03 C 386.687 289.208 386.008 288.528 385.186 288.528 L 375.945 288.528 Z M 375.945 289.419 L 385.186 289.419 C 385.528 289.419 385.799 289.69 385.799 290.03 L 385.799 299.259 C 385.799 299.601 385.528 299.871 385.186 299.871 L 375.945 299.871 C 375.603 299.871 375.333 299.6 375.333 299.259 L 375.333 290.03 C 375.333 289.69 375.603 289.419 375.945 289.419 Z" style="fill: rgb(30, 30, 30);" transform="matrix(0.965926, -0.258819, 0.258819, 0.965926, -63.292005, 108.537294)"/>
  <path id="path101" d="M 388.536 285.153 C 387.715 285.153 387.049 285.833 387.049 286.655 L 387.049 295.884 C 387.049 296.706 387.715 297.385 388.536 297.385 L 397.778 297.385 C 398.527 297.385 399.132 296.813 399.238 296.093 C 399.244 296.078 399.248 296.065 399.251 296.05 C 399.272 295.997 399.28 295.941 399.279 295.884 L 399.279 286.656 C 399.279 285.833 398.599 285.155 397.778 285.155 L 388.536 285.155 L 388.536 285.153 Z M 388.536 286.044 L 397.778 286.044 C 398.12 286.044 398.39 286.314 398.39 286.655 L 398.39 295.814 C 398.389 295.828 398.389 295.842 398.39 295.856 L 398.39 295.884 C 398.39 296.225 398.119 296.495 397.778 296.495 L 388.536 296.495 C 388.195 296.495 387.939 296.224 387.939 295.884 L 387.939 286.655 C 387.939 286.314 388.195 286.044 388.536 286.044 L 388.536 286.044 Z" style="fill: rgb(30, 30, 30);" transform="matrix(0.965926, -0.258819, 0.258819, 0.965926, -61.989175, 111.682965)"/>
  <path id="path103" d="M 401.143 281.779 C 400.321 281.779 399.643 282.458 399.643 283.281 L 399.643 292.51 C 399.643 293.331 400.321 294.011 401.143 294.011 L 410.385 294.011 C 411.207 294.011 411.871 293.331 411.871 292.51 L 411.871 283.281 C 411.871 282.458 411.206 281.779 410.385 281.779 L 401.143 281.779 L 401.143 281.779 Z M 401.143 282.67 L 410.385 282.67 C 410.726 282.67 410.983 282.94 410.983 283.281 L 410.983 292.51 C 410.983 292.851 410.726 293.121 410.385 293.121 L 401.143 293.121 C 400.802 293.121 400.531 292.85 400.531 292.51 L 400.531 283.281 C 400.531 282.94 400.801 282.67 401.143 282.67 L 401.143 282.67 Z" style="fill: rgb(30, 30, 30);" transform="matrix(0.965926, -0.258819, 0.258819, 0.965926, -60.686848, 114.827365)"/>
  <path id="path105" d="M 413.734 278.403 C 412.913 278.403 412.233 279.083 412.233 279.905 L 412.233 289.134 C 412.233 289.956 412.913 290.635 413.734 290.635 L 422.976 290.635 C 423.797 290.635 424.477 289.956 424.477 289.134 L 424.477 279.905 C 424.477 279.083 423.797 278.403 422.976 278.403 L 413.734 278.403 Z M 413.734 279.294 L 422.976 279.294 C 423.317 279.294 423.587 279.564 423.587 279.905 L 423.587 289.134 C 423.587 289.475 423.317 289.745 422.976 289.745 L 413.734 289.745 C 413.393 289.745 413.122 289.474 413.122 289.134 L 413.122 279.905 C 413.122 279.564 413.393 279.294 413.734 279.294 Z" style="fill: rgb(30, 30, 30);" transform="matrix(0.965926, -0.258819, 0.258819, 0.965926, -59.383817, 117.972929)"/>
  <path id="path107" d="M 426.329 275.026 C 425.507 275.026 424.841 275.706 424.841 276.528 L 424.841 285.757 C 424.841 286.579 425.507 287.258 426.329 287.258 L 435.571 287.258 C 436.393 287.258 437.073 286.579 437.073 285.757 L 437.073 276.528 C 437.073 275.706 436.393 275.026 435.571 275.026 L 426.329 275.026 Z M 426.329 275.917 L 435.571 275.917 C 435.913 275.917 436.182 276.188 436.182 276.528 L 436.182 285.757 C 436.182 286.099 435.911 286.369 435.571 286.369 L 426.329 286.369 C 425.988 286.369 425.731 286.098 425.731 285.757 L 425.731 276.528 C 425.731 276.188 425.988 275.917 426.329 275.917 Z" style="fill: rgb(30, 30, 30);" transform="matrix(0.965926, -0.258819, 0.258819, 0.965926, -58.080353, 121.119419)"/>
  <path id="path109" d="M 438.933 271.652 C 438.112 271.652 437.433 272.332 437.433 273.154 L 437.433 282.383 C 437.433 283.205 438.111 283.884 438.933 283.884 L 448.175 283.884 C 448.997 283.884 449.662 283.205 449.662 282.383 L 449.662 273.154 C 449.662 272.332 448.997 271.652 448.175 271.652 L 438.933 271.652 Z M 438.933 272.543 L 448.175 272.543 C 448.517 272.543 448.773 272.814 448.773 273.154 L 448.773 282.383 C 448.773 282.725 448.516 282.995 448.175 282.995 L 438.933 282.995 C 438.592 282.995 438.322 282.724 438.322 282.383 L 438.322 273.154 C 438.322 272.814 438.593 272.543 438.933 272.543 Z" style="fill: rgb(30, 30, 30);" transform="matrix(0.965926, -0.258819, 0.258819, 0.965926, -56.778115, 124.263189)"/>
  <path id="path111" d="M 451.525 268.277 C 450.703 268.277 450.023 268.956 450.023 269.779 L 450.023 279.008 C 450.023 279.83 450.702 280.509 451.525 280.509 L 460.767 280.509 C 461.588 280.509 462.267 279.83 462.267 279.008 L 462.267 269.779 C 462.267 268.956 461.588 268.277 460.767 268.277 L 451.525 268.277 Z M 451.525 269.168 L 460.767 269.168 C 461.108 269.168 461.378 269.438 461.378 269.779 L 461.378 279.008 C 461.378 279.349 461.108 279.619 460.767 279.619 L 451.525 279.619 C 451.182 279.619 450.912 279.348 450.912 279.008 L 450.912 269.779 C 450.912 269.438 451.182 269.168 451.525 269.168 Z" style="fill: rgb(30, 30, 30);" transform="matrix(0.965926, -0.258819, 0.258819, 0.965926, -55.475333, 127.408582)"/>
  <path id="path113" d="M 464.115 264.901 C 463.294 264.901 462.628 265.581 462.628 266.403 L 462.628 275.632 C 462.628 276.454 463.294 277.133 464.115 277.133 L 473.357 277.133 C 474.178 277.133 474.858 276.454 474.858 275.632 L 474.858 266.403 C 474.858 265.581 474.178 264.901 473.357 264.901 L 464.115 264.901 Z M 464.115 265.792 L 473.357 265.792 C 473.698 265.792 473.968 266.063 473.968 266.403 L 473.968 275.632 C 473.968 275.974 473.698 276.244 473.357 276.244 L 464.115 276.244 C 463.774 276.244 463.517 275.973 463.517 275.632 L 463.517 266.403 C 463.517 266.063 463.774 265.792 464.115 265.792 Z" style="fill: rgb(30, 30, 30);" transform="matrix(0.965926, -0.258819, 0.258819, 0.965926, -54.172333, 130.5543)"/>
  <path id="path115" d="M 476.724 261.527 C 475.902 261.527 475.223 262.206 475.223 263.029 L 475.223 272.258 C 475.223 273.079 475.902 273.759 476.724 273.759 L 485.966 273.759 C 486.787 273.759 487.452 273.079 487.452 272.258 L 487.452 263.029 C 487.452 262.207 486.787 261.527 485.966 261.527 L 476.724 261.527 Z M 476.724 262.418 L 485.966 262.418 C 486.307 262.418 486.564 262.688 486.564 263.029 L 486.564 272.258 C 486.564 272.599 486.306 272.869 485.966 272.869 L 476.724 272.869 C 476.382 272.869 476.113 272.598 476.113 272.258 L 476.113 263.029 C 476.113 262.688 476.382 262.418 476.724 262.418 Z" style="fill: rgb(30, 30, 30);" transform="matrix(0.965926, -0.258819, 0.258819, 0.965926, -52.869909, 133.698957)"/>
  <path id="path117" d="M 489.315 258.151 C 488.494 258.151 487.814 258.831 487.814 259.653 L 487.814 268.882 C 487.814 269.704 488.493 270.383 489.315 270.383 L 498.557 270.383 C 499.377 270.383 500.057 269.704 500.057 268.882 L 500.057 259.653 C 500.057 258.831 499.378 258.151 498.557 258.151 L 489.315 258.151 Z M 489.315 259.042 L 498.557 259.042 C 498.898 259.042 499.169 259.313 499.169 259.653 L 499.169 268.882 C 499.169 269.224 498.896 269.494 498.557 269.494 L 489.315 269.494 C 488.973 269.494 488.703 269.223 488.703 268.882 L 488.703 259.653 C 488.703 259.313 488.973 259.042 489.315 259.042 Z" style="fill: rgb(30, 30, 30);" transform="matrix(0.965926, -0.258819, 0.258819, 0.965926, -51.56687, 136.844528)"/>
  <path id="path119" d="M 501.905 254.775 C 501.085 254.775 500.419 255.455 500.419 256.277 L 500.419 265.506 C 500.419 266.328 501.085 267.007 501.905 267.007 L 511.148 267.007 C 511.969 267.007 512.65 266.328 512.65 265.506 L 512.65 256.277 C 512.65 255.455 511.969 254.775 511.148 254.775 L 501.905 254.775 Z M 501.905 255.666 L 511.148 255.666 C 511.489 255.666 511.759 255.937 511.759 256.277 L 511.759 265.506 C 511.759 265.848 511.488 266.118 511.148 266.118 L 501.905 266.118 C 501.564 266.118 501.308 265.847 501.308 265.506 L 501.308 256.277 C 501.308 255.937 501.565 255.666 501.905 255.666 Z" style="fill: rgb(30, 30, 30);" transform="matrix(0.965926, -0.258819, 0.258819, 0.965926, -50.263757, 139.990186)"/>
  <path id="path121" d="M 514.514 251.4 C 513.693 251.4 513.014 252.08 513.014 252.903 L 513.014 262.131 C 513.014 262.953 513.691 263.633 514.514 263.633 L 523.757 263.633 C 524.578 263.633 525.243 262.953 525.243 262.131 L 525.243 252.903 C 525.243 252.08 524.578 251.4 523.757 251.4 L 514.514 251.4 Z M 514.514 252.291 L 523.757 252.291 C 524.097 252.291 524.354 252.562 524.354 252.903 L 524.354 262.131 C 524.354 262.473 524.097 262.743 523.757 262.743 L 514.514 262.743 C 514.173 262.743 513.902 262.472 513.902 262.131 L 513.902 252.903 C 513.902 252.562 514.173 252.291 514.514 252.291 Z" style="fill: rgb(30, 30, 30);" transform="matrix(0.965926, -0.258819, 0.258819, 0.965926, -48.961247, 143.134749)"/>
  <path id="path123" d="M 527.105 248.025 C 526.285 248.025 525.604 248.705 525.604 249.527 L 525.604 258.756 C 525.604 259.578 526.283 260.257 527.105 260.257 L 536.347 260.257 C 537.168 260.257 537.848 259.578 537.848 258.756 L 537.848 249.527 C 537.848 248.705 537.168 248.025 536.347 248.025 L 527.105 248.025 Z M 527.105 248.916 L 536.347 248.916 C 536.688 248.916 536.958 249.186 536.958 249.527 L 536.958 258.756 C 536.958 259.097 536.688 259.367 536.347 259.367 L 527.105 259.367 C 526.763 259.367 526.493 259.096 526.493 258.756 L 526.493 249.527 C 526.493 249.186 526.764 248.916 527.105 248.916 Z" style="fill: rgb(30, 30, 30);" transform="matrix(0.965926, -0.258819, 0.258819, 0.965926, -47.658391, 146.280393)"/>
  <path id="path125" d="M 581.521 232.435 C 580.7 232.435 580.02 233.115 580.02 233.937 L 580.02 243.166 C 580.02 243.988 580.7 244.667 581.521 244.667 L 598.296 244.667 C 599.117 244.667 599.798 243.988 599.798 243.166 L 599.798 233.937 C 599.798 233.115 599.118 232.435 598.296 232.435 L 581.521 232.435 Z M 581.521 233.326 L 598.296 233.326 C 598.637 233.326 598.908 233.596 598.908 233.937 L 598.908 243.166 C 598.908 243.507 598.636 243.777 598.296 243.777 L 581.521 243.777 C 581.18 243.777 580.91 243.506 580.91 243.166 L 580.91 233.937 C 580.91 233.596 581.18 233.326 581.521 233.326 Z" style="fill: rgb(30, 30, 30);" transform="matrix(0.965926, -0.258819, 0.258819, 0.965926, -41.640866, 160.808038)"/>
  <path id="path127" d="M 539.832 242.948 C 539.011 242.948 538.332 243.628 538.332 244.45 L 538.332 253.679 C 538.332 254.501 539.01 255.18 539.832 255.18 L 561.527 255.18 C 562.348 255.18 563.014 254.501 563.014 253.679 L 563.014 244.45 C 563.014 243.628 562.348 242.948 561.527 242.948 L 539.832 242.948 Z M 539.832 243.839 L 561.527 243.839 C 561.868 243.839 562.125 244.11 562.125 244.45 L 562.125 253.679 C 562.125 254.021 561.868 254.291 561.527 254.291 L 539.832 254.291 C 539.491 254.291 539.221 254.02 539.221 253.679 L 539.221 244.45 C 539.221 244.11 539.492 243.839 539.832 243.839 Z" style="fill: rgb(30, 30, 30);" transform="matrix(0.965926, -0.258819, 0.258819, 0.965926, -45.698771, 151.011223)"/>
  <path id="path129" d="M 366.691 304.364 C 365.869 304.364 365.19 305.03 365.19 305.85 L 365.19 315.093 C 365.19 315.914 365.869 316.594 366.691 316.594 L 375.932 316.594 C 376.754 316.594 377.42 315.915 377.42 315.093 L 377.42 305.85 C 377.42 305.028 376.754 304.364 375.932 304.364 L 366.691 304.364 Z M 366.691 305.253 L 375.932 305.253 C 376.274 305.253 376.531 305.51 376.531 305.85 L 376.531 315.093 C 376.531 315.434 376.274 315.704 375.932 315.704 L 366.691 315.704 C 366.349 315.704 366.079 315.433 366.079 315.093 L 366.079 305.85 C 366.079 305.509 366.349 305.253 366.691 305.253 Z" style="fill: rgb(30, 30, 30);" transform="matrix(0.965926, -0.258819, 0.258819, 0.965926, -67.705944, 106.680062)"/>
  <path id="path131" d="M 379.176 300.171 C 378.354 300.171 377.675 300.837 377.675 301.657 L 377.675 310.9 C 377.675 311.721 378.354 312.401 379.176 312.401 L 394.728 312.401 C 395.475 312.401 396.081 311.829 396.187 311.109 C 396.187 311.104 396.187 311.099 396.187 311.095 C 396.188 311.085 396.199 311.077 396.201 311.067 C 396.217 311.022 396.226 310.975 396.229 310.928 C 396.229 310.918 396.229 310.91 396.229 310.9 L 396.229 301.657 C 396.229 300.835 395.549 300.171 394.728 300.171 L 379.176 300.171 L 379.176 300.171 Z M 379.176 301.06 L 394.728 301.06 C 395.069 301.06 395.34 301.317 395.34 301.657 L 395.34 310.872 L 395.34 310.9 C 395.34 311.241 395.069 311.511 394.728 311.511 L 379.176 311.511 C 378.834 311.511 378.564 311.241 378.564 310.9 L 378.564 301.657 C 378.564 301.317 378.834 301.06 379.176 301.06 L 379.176 301.06 Z" style="fill: rgb(30, 30, 30);" transform="matrix(0.965926, -0.258819, 0.258819, 0.965926, -66.087561, 110.586934)"/>
  <path id="path133" d="M 397.983 295.979 C 397.162 295.979 396.482 296.645 396.482 297.465 L 396.482 306.708 C 396.482 307.529 397.162 308.209 397.983 308.209 L 407.225 308.209 C 408.047 308.209 408.712 307.531 408.712 306.708 L 408.712 297.465 C 408.712 296.643 408.047 295.979 407.225 295.979 L 397.983 295.979 Z M 397.983 296.868 L 407.225 296.868 C 407.566 296.868 407.824 297.125 407.824 297.465 L 407.824 306.708 C 407.824 307.049 407.566 307.319 407.225 307.319 L 397.983 307.319 C 397.642 307.319 397.371 307.048 397.371 306.708 L 397.371 297.465 C 397.372 297.125 397.642 296.868 397.983 296.868 Z" style="fill: rgb(30, 30, 30);" transform="matrix(0.965926, -0.258819, 0.258819, 0.965926, -64.469495, 114.493312)"/>
  <path id="path135" d="M 410.576 292.603 C 409.755 292.603 409.075 293.269 409.075 294.089 L 409.075 303.332 C 409.075 304.153 409.755 304.833 410.576 304.833 L 419.818 304.833 C 420.64 304.833 421.32 304.154 421.32 303.332 L 421.32 294.089 C 421.32 293.267 420.64 292.603 419.818 292.603 L 410.576 292.603 Z M 410.576 293.492 L 419.818 293.492 C 420.16 293.492 420.43 293.749 420.43 294.089 L 420.43 303.332 C 420.43 303.673 420.16 303.943 419.818 303.943 L 410.576 303.943 C 410.235 303.943 409.964 303.672 409.964 303.332 L 409.964 294.089 C 409.964 293.748 410.235 293.492 410.576 293.492 Z" style="fill: rgb(30, 30, 30);" transform="matrix(0.965926, -0.258819, 0.258819, 0.965926, -63.166349, 117.639459)"/>
  <path id="path137" d="M 423.18 289.228 C 422.359 289.228 421.679 289.893 421.679 290.714 L 421.679 299.957 C 421.679 300.778 422.359 301.458 423.18 301.458 L 432.409 301.458 C 433.231 301.458 433.91 300.779 433.91 299.957 L 433.91 290.714 C 433.91 289.892 433.231 289.228 432.409 289.228 L 423.18 289.228 Z M 423.18 290.116 L 432.409 290.116 C 432.751 290.116 433.02 290.373 433.02 290.714 L 433.02 299.957 C 433.02 300.298 432.751 300.568 432.409 300.568 L 423.18 300.568 C 422.839 300.568 422.569 300.297 422.569 299.957 L 422.569 290.714 C 422.569 290.373 422.839 290.116 423.18 290.116 Z" style="fill: rgb(30, 30, 30);" transform="matrix(0.965926, -0.258819, 0.258819, 0.965926, -61.86363, 120.784868)"/>
  <path id="path139" d="M 402.685 293.885 C 401.865 293.885 401.184 294.563 401.184 295.385 L 401.184 304.627 C 401.184 305.449 401.864 306.129 402.685 306.129 L 517.704 306.129 C 518.526 306.129 519.205 305.449 519.205 304.627 L 519.205 295.385 C 519.205 294.563 518.526 293.885 517.704 293.885 L 402.685 293.885 Z M 402.685 294.774 L 517.704 294.774 C 518.045 294.774 518.315 295.045 518.315 295.385 L 518.315 304.627 C 518.315 304.968 518.044 305.239 517.704 305.239 L 402.685 305.239 C 402.345 305.239 402.074 304.969 402.074 304.627 L 402.074 295.385 C 402.074 295.044 402.344 294.774 402.685 294.774 Z" style="fill: rgb(30, 30, 30);" transform="matrix(0.965926, -0.258819, 0.258819, 0.965926, -61.966736, 129.329443)"/>
  <path id="path141" d="M 435.772 285.854 C 434.95 285.854 434.272 286.519 434.272 287.34 L 434.272 296.583 C 434.272 297.404 434.95 298.083 435.772 298.083 L 445.014 298.083 C 445.836 298.083 446.502 297.405 446.502 296.583 L 446.502 287.34 C 446.502 286.518 445.836 285.854 445.014 285.854 L 435.772 285.854 Z M 435.772 286.742 L 445.014 286.742 C 445.355 286.742 445.613 286.999 445.613 287.34 L 445.613 296.583 C 445.613 296.924 445.355 297.194 445.014 297.194 L 435.772 297.194 C 435.431 297.194 435.16 296.923 435.16 296.583 L 435.16 287.34 C 435.16 286.999 435.43 286.742 435.772 286.742 Z" style="fill: rgb(30, 30, 30);" transform="matrix(0.965926, -0.258819, 0.258819, 0.965926, -60.561165, 123.929071)"/>
  <path id="path143" d="M 448.367 282.477 C 447.545 282.477 446.866 283.143 446.866 283.963 L 446.866 293.206 C 446.866 294.027 447.545 294.707 448.367 294.707 L 457.609 294.707 C 458.431 294.707 459.111 294.029 459.111 293.206 L 459.111 283.963 C 459.111 283.142 458.431 282.477 457.609 282.477 L 448.367 282.477 Z M 448.367 283.366 L 457.609 283.366 C 457.951 283.366 458.221 283.623 458.221 283.963 L 458.221 293.206 C 458.221 293.548 457.951 293.818 457.609 293.818 L 448.367 293.818 C 448.026 293.818 447.755 293.547 447.755 293.206 L 447.755 283.963 C 447.755 283.623 448.026 283.366 448.367 283.366 Z" style="fill: rgb(30, 30, 30);" transform="matrix(0.965926, -0.25882, 0.25882, 0.965926, -59.257989, 127.075898)"/>
  <path id="path145" d="M 460.971 279.102 C 460.15 279.102 459.47 279.767 459.47 280.588 L 459.47 289.831 C 459.47 290.651 460.15 291.331 460.971 291.331 L 470.199 291.331 C 471.021 291.331 471.7 290.653 471.7 289.831 L 471.7 280.588 C 471.7 279.766 471.021 279.102 470.199 279.102 L 460.971 279.102 Z M 460.971 279.99 L 470.199 279.99 C 470.54 279.99 470.811 280.247 470.811 280.588 L 470.811 289.831 C 470.811 290.172 470.54 290.442 470.199 290.442 L 460.971 290.442 C 460.63 290.442 460.359 290.171 460.359 289.831 L 460.359 280.588 C 460.359 280.247 460.631 279.99 460.971 279.99 Z" style="fill: rgb(30, 30, 30);" transform="matrix(0.965926, -0.258819, 0.258819, 0.965926, -57.95502, 130.220716)"/>
  <path id="path147" d="M 473.563 275.728 C 472.741 275.728 472.061 276.394 472.061 277.214 L 472.061 286.457 C 472.061 287.278 472.741 287.958 473.563 287.958 L 482.804 287.958 C 483.626 287.958 484.292 287.279 484.292 286.457 L 484.292 277.214 C 484.292 276.392 483.626 275.728 482.804 275.728 L 473.563 275.728 Z M 473.563 276.617 L 482.804 276.617 C 483.145 276.617 483.402 276.873 483.402 277.214 L 483.402 286.457 C 483.402 286.798 483.145 287.068 482.804 287.068 L 473.563 287.068 C 473.222 287.068 472.951 286.797 472.951 286.457 L 472.951 277.214 C 472.951 276.873 473.221 276.617 473.563 276.617 Z" style="fill: rgb(30, 30, 30);" transform="matrix(0.965926, -0.258819, 0.258819, 0.965926, -56.652854, 133.364682)"/>
  <path id="path149" d="M 486.158 272.351 C 485.337 272.351 484.657 273.017 484.657 273.837 L 484.657 283.08 C 484.657 283.901 485.337 284.581 486.158 284.581 L 495.4 284.581 C 496.222 284.581 496.902 283.902 496.902 283.08 L 496.902 273.837 C 496.902 273.015 496.222 272.351 495.4 272.351 L 486.158 272.351 Z M 486.158 273.24 L 495.4 273.24 C 495.741 273.24 496.012 273.497 496.012 273.837 L 496.012 283.08 C 496.012 283.421 495.741 283.691 495.4 283.691 L 486.158 283.691 C 485.817 283.691 485.546 283.421 485.546 283.08 L 485.546 273.837 C 485.546 273.496 485.818 273.24 486.158 273.24 Z" style="fill: rgb(30, 30, 30);" transform="matrix(0.965926, -0.25882, 0.25882, 0.965926, -55.349486, 136.511929)"/>
  <path id="path151" d="M 498.762 268.975 C 497.941 268.975 497.261 269.639 497.261 270.461 L 497.261 279.704 C 497.261 280.525 497.941 281.205 498.762 281.205 L 507.99 281.205 C 508.813 281.205 509.492 280.527 509.492 279.704 L 509.492 270.461 C 509.492 269.639 508.813 268.975 507.99 268.975 L 498.762 268.975 Z M 498.762 269.864 L 507.99 269.864 C 508.332 269.864 508.602 270.121 508.602 270.461 L 508.602 279.704 C 508.602 280.046 508.331 280.316 507.99 280.316 L 498.762 280.316 C 498.421 280.316 498.151 280.045 498.151 279.704 L 498.151 270.461 C 498.151 270.121 498.421 269.864 498.762 269.864 Z" style="fill: rgb(30, 30, 30);" transform="matrix(0.965926, -0.258819, 0.258819, 0.965926, -54.046377, 139.656812)"/>
  <path id="path153" d="M 511.353 265.602 C 510.532 265.602 509.852 266.266 509.852 267.088 L 509.852 276.331 C 509.852 277.152 510.531 277.832 511.353 277.832 L 520.595 277.832 C 521.417 277.832 522.082 277.154 522.082 276.331 L 522.082 267.088 C 522.082 266.266 521.417 265.602 520.595 265.602 L 511.353 265.602 Z M 511.353 266.491 L 520.595 266.491 C 520.936 266.491 521.193 266.748 521.193 267.088 L 521.193 276.331 C 521.193 276.672 520.936 276.942 520.595 276.942 L 511.353 276.942 C 511.012 276.942 510.742 276.671 510.742 276.331 L 510.742 267.088 C 510.741 266.748 511.013 266.491 511.353 266.491 Z" style="fill: rgb(30, 30, 30);" transform="matrix(0.965926, -0.258819, 0.258819, 0.965926, -52.74436, 142.800546)"/>
  <path id="path155" d="M 523.828 261.342 C 523.007 261.342 522.326 262.006 522.326 262.827 L 522.326 272.071 C 522.326 272.891 523.005 273.571 523.828 273.571 L 539.908 273.571 C 540.729 273.571 541.409 272.893 541.409 272.071 L 541.409 262.827 C 541.409 262.006 540.729 261.342 539.908 261.342 L 523.828 261.342 Z M 523.828 262.23 L 539.908 262.23 C 540.249 262.23 540.519 262.487 540.519 262.827 L 540.519 272.071 C 540.519 272.412 540.248 272.682 539.908 272.682 L 523.828 272.682 C 523.487 272.682 523.217 272.411 523.217 272.071 L 523.217 262.827 C 523.216 262.487 523.487 262.23 523.828 262.23 Z" style="fill: rgb(30, 30, 30);" transform="matrix(0.965926, -0.258819, 0.258819, 0.965926, -51.09988, 146.770718)"/>
  <path id="path157" d="M 542.82 257.17 C 541.999 257.17 541.32 257.836 541.32 258.656 L 541.32 267.899 C 541.32 268.72 541.999 269.4 542.82 269.4 L 552.049 269.4 C 552.869 269.4 553.55 268.722 553.55 267.899 L 553.55 258.656 C 553.55 257.834 552.871 257.17 552.049 257.17 L 542.82 257.17 Z M 542.82 258.059 L 552.049 258.059 C 552.39 258.059 552.66 258.316 552.66 258.656 L 552.66 267.899 C 552.66 268.24 552.39 268.51 552.049 268.51 L 542.82 268.51 C 542.479 268.51 542.21 268.24 542.21 267.899 L 542.21 258.656 C 542.21 258.316 542.48 258.059 542.82 258.059 Z" style="fill: rgb(30, 30, 30);" transform="matrix(0.965926, -0.258819, 0.258819, 0.965926, -49.489764, 150.657753)"/>
  <path id="path159" d="M 584.86 244.895 C 584.039 244.895 583.359 245.56 583.359 246.381 L 583.359 255.624 C 583.359 256.445 584.038 257.124 584.86 257.124 L 601.634 257.124 C 602.456 257.124 603.136 256.446 603.136 255.624 L 603.136 246.381 C 603.136 245.559 602.456 244.895 601.634 244.895 L 584.86 244.895 Z M 584.86 245.783 L 601.634 245.783 C 601.976 245.783 602.247 246.041 602.247 246.381 L 602.247 255.624 C 602.247 255.965 601.975 256.235 601.634 256.235 L 584.86 256.235 C 584.518 256.235 584.249 255.964 584.249 255.624 L 584.249 246.381 C 584.248 246.04 584.518 245.783 584.86 245.783 Z" style="fill: rgb(30, 30, 30);" transform="matrix(0.965926, -0.258819, 0.258819, 0.965926, -44.751609, 162.096609)"/>
  <path id="path161" d="M 555.412 253.797 C 554.591 253.797 553.91 254.462 553.91 255.283 L 553.91 264.526 C 553.91 265.347 554.589 266.026 555.412 266.026 L 564.654 266.026 C 565.475 266.026 566.14 265.348 566.14 264.526 L 566.14 255.283 C 566.14 254.461 565.474 253.797 564.654 253.797 L 555.412 253.797 Z M 555.412 254.685 L 564.654 254.685 C 564.995 254.685 565.252 254.943 565.252 255.283 L 565.252 264.526 C 565.252 264.867 564.994 265.137 564.654 265.137 L 555.412 265.137 C 555.07 265.137 554.8 264.866 554.8 264.526 L 554.8 255.283 C 554.799 254.942 555.069 254.685 555.412 254.685 Z" style="fill: rgb(30, 30, 30);" transform="matrix(0.965926, -0.258819, 0.258819, 0.965926, -48.187641, 153.801331)"/>
  <path id="path163" d="M 549.011 215.452 C 548.19 215.452 547.51 216.13 547.51 216.952 L 547.51 226.196 C 547.51 227.017 548.189 227.696 549.011 227.696 L 558.253 227.696 C 559.074 227.696 559.755 227.017 559.755 226.196 L 559.755 216.952 C 559.755 216.13 559.074 215.452 558.253 215.452 L 549.011 215.452 Z M 549.011 216.342 L 558.253 216.342 C 558.596 216.342 558.865 216.612 558.865 216.953 L 558.865 226.196 C 558.865 226.536 558.594 226.807 558.253 226.807 L 549.011 226.807 C 548.67 226.807 548.4 226.536 548.4 226.196 L 548.4 216.953 C 548.4 216.612 548.67 216.342 549.011 216.342 Z" style="fill: rgb(30, 30, 30);" transform="matrix(0.965926, -0.258819, 0.258819, 0.965926, -38.482996, 150.840506)"/>
  <path id="path165" d="M 574.847 207.52 C 574.026 207.52 573.346 208.199 573.346 209.02 L 573.346 218.264 C 573.346 219.084 574.026 219.764 574.847 219.764 L 591.622 219.764 C 592.443 219.764 593.124 219.086 593.124 218.264 L 593.124 209.02 C 593.124 208.199 592.444 207.52 591.622 207.52 L 574.847 207.52 Z M 574.847 208.41 L 591.622 208.41 C 591.963 208.41 592.234 208.68 592.234 209.021 L 592.234 218.264 C 592.234 218.604 591.962 218.875 591.622 218.875 L 574.847 218.875 C 574.506 218.875 574.236 218.604 574.236 218.264 L 574.236 209.021 C 574.236 208.68 574.506 208.41 574.847 208.41 Z" style="fill: rgb(30, 30, 30);" transform="matrix(0.965926, -0.258819, 0.258819, 0.965926, -35.421342, 158.231717)"/>
  <path id="polygon167" d="M 360.918 238.866 C 360.688 238.887 360.514 239.081 360.515 239.311 L 360.515 264.66 L 357.457 264.66 C 357.211 264.66 357.012 264.86 357.012 265.106 L 357.012 292.637 C 357.012 292.883 357.21 293.081 357.457 293.081 L 392.453 293.081 L 392.453 305.27 C 392.453 305.516 392.652 305.716 392.897 305.716 L 513.074 305.716 C 513.32 305.716 513.52 305.516 513.52 305.27 L 513.52 292.915 L 567.111 292.915 C 567.357 292.915 567.555 292.716 567.555 292.471 L 567.555 267.122 L 570.96 267.122 C 571.207 267.122 571.405 266.922 571.405 266.676 L 571.405 239.311 C 571.405 239.066 571.207 238.867 570.96 238.867 L 360.959 238.867 C 360.945 238.865 360.931 238.865 360.918 238.866 L 360.918 238.866 Z M 361.404 239.756 L 570.516 239.756 L 570.516 266.232 L 567.11 266.232 C 566.866 266.232 566.666 266.43 566.666 266.676 L 566.666 292.025 L 513.074 292.025 C 512.829 292.025 512.631 292.225 512.631 292.471 L 512.631 304.826 L 393.342 304.826 L 393.342 292.637 C 393.342 292.392 393.143 292.193 392.897 292.193 L 357.902 292.193 L 357.902 265.551 L 360.96 265.551 C 361.205 265.551 361.405 265.351 361.405 265.106 L 361.404 239.756 L 361.404 239.756 Z" style="fill: rgb(30, 30, 30);" transform="matrix(0.965926, -0.258819, 0.258819, 0.965926, -54.656499, 129.424089)"/>
  <path id="rect169" d="M 577.547 205.68 C 577.324 205.708 577.157 205.899 577.158 206.124 L 577.158 258.755 C 577.158 259 577.358 259.2 577.603 259.2 L 598.825 259.2 C 599.071 259.2 599.271 259 599.271 258.755 L 599.271 206.124 C 599.271 205.879 599.071 205.68 598.825 205.68 L 577.603 205.68 C 577.584 205.678 577.565 205.678 577.547 205.68 Z M 578.048 206.569 L 598.38 206.569 L 598.38 258.31 L 578.048 258.31 L 578.048 206.569 Z" style="fill: rgb(30, 30, 30);" transform="matrix(0.965926, -0.258819, 0.258819, 0.965926, -40.116753, 160.161007)"/>
  <path id="path171" d="M 354.449 228.114 C 353.336 228.114 352.42 229.017 352.42 230.129 L 352.42 302.759 C 352.42 303.871 353.336 304.789 354.449 304.789 L 619.887 304.789 C 620.999 304.789 621.901 303.873 621.901 302.759 L 621.901 230.129 C 621.901 229.016 620.999 228.114 619.887 228.114 L 354.449 228.114 L 354.449 228.114 Z M 354.449 229.003 L 619.887 229.003 C 620.519 229.003 621.013 229.497 621.013 230.129 L 621.013 302.759 C 621.013 303.39 620.519 303.899 619.887 303.899 L 354.449 303.899 C 353.817 303.899 353.309 303.391 353.309 302.759 L 353.309 230.129 C 353.309 229.496 353.817 229.003 354.449 229.003 L 354.449 229.003 Z" style="fill: rgb(30, 30, 30);" transform="matrix(0.965926, -0.25882, 0.25882, 0.965926, -52.363212, 135.165866)"/>
  <path id="line173" d="M 603.371 173.71 C 603.126 173.71 602.927 173.908 602.927 174.154 C 602.927 174.159 602.927 174.164 602.927 174.168 L 602.927 175.711 C 602.923 175.957 603.119 176.158 603.366 176.162 C 603.61 176.165 603.813 175.969 603.816 175.724 C 603.816 175.719 603.816 175.715 603.816 175.711 L 603.816 174.168 C 603.824 173.923 603.631 173.718 603.386 173.71 C 603.381 173.71 603.377 173.71 603.371 173.71 Z" style="fill: rgb(30, 30, 30);" transform="matrix(0.965926, -0.258819, 0.258819, 0.965926, -24.717389, 162.124959)"/>
  <path id="line175" d="M 602.776 171.703 C 602.531 171.703 602.331 171.902 602.331 172.147 C 602.331 172.152 602.331 172.157 602.331 172.162 L 602.331 173.273 C 602.327 173.52 602.524 173.721 602.77 173.724 C 603.015 173.728 603.217 173.532 603.22 173.285 C 603.22 173.281 603.22 173.277 603.22 173.273 L 603.22 172.162 C 603.229 171.916 603.036 171.71 602.791 171.703 C 602.786 171.703 602.781 171.703 602.776 171.703 Z" style="fill: rgb(30, 30, 30);" transform="matrix(0.965926, -0.258819, 0.258819, 0.965926, -24.162469, 161.894803)"/>
  <path id="line177" d="M 602.11 169.113 C 601.887 169.142 601.721 169.333 601.722 169.558 L 601.722 171.296 C 601.719 171.542 601.915 171.743 602.161 171.747 C 602.406 171.75 602.608 171.554 602.612 171.308 C 602.612 171.305 602.612 171.3 602.612 171.296 L 602.612 169.558 C 602.614 169.313 602.417 169.112 602.171 169.11 C 602.15 169.11 602.131 169.111 602.11 169.113 Z" style="fill: rgb(30, 30, 30);" transform="matrix(0.965926, -0.258819, 0.258819, 0.965926, -23.591801, 161.659414)"/>
  <path id="line179" d="M 601.491 166.633 C 601.246 166.633 601.047 166.832 601.047 167.077 C 601.047 167.082 601.047 167.086 601.047 167.091 L 601.047 168.758 C 601.043 169.004 601.239 169.206 601.486 169.21 C 601.73 169.213 601.933 169.017 601.936 168.771 C 601.936 168.767 601.936 168.763 601.936 168.758 L 601.936 167.091 C 601.944 166.845 601.751 166.64 601.506 166.633 C 601.501 166.633 601.497 166.633 601.491 166.633 Z" style="fill: rgb(30, 30, 30);" transform="matrix(0.965926, -0.258819, 0.258819, 0.965926, -22.965953, 161.399187)"/>
  <path id="line181" d="M 600.793 164.284 C 600.565 164.313 600.396 164.512 600.405 164.743 L 600.405 166.299 C 600.402 166.544 600.598 166.747 600.844 166.751 C 601.089 166.754 601.291 166.557 601.295 166.312 C 601.295 166.308 601.295 166.303 601.295 166.299 L 601.295 164.743 C 601.305 164.498 601.113 164.291 600.868 164.281 C 600.843 164.28 600.818 164.281 600.793 164.284 Z" style="fill: rgb(30, 30, 30);" transform="matrix(0.965926, -0.258819, 0.258819, 0.965926, -22.365184, 161.151343)"/>
  <path id="line183" d="M 600.233 162.156 C 599.988 162.156 599.788 162.355 599.788 162.601 C 599.788 162.605 599.788 162.611 599.788 162.615 L 599.788 163.838 C 599.784 164.084 599.981 164.286 600.227 164.289 C 600.472 164.293 600.674 164.097 600.677 163.851 C 600.677 163.846 600.677 163.842 600.677 163.838 L 600.677 162.615 C 600.686 162.369 600.492 162.164 600.248 162.156 C 600.243 162.156 600.238 162.156 600.233 162.156 Z" style="fill: rgb(30, 30, 30);" transform="matrix(0.965926, -0.258819, 0.258819, 0.965926, -21.792667, 160.913423)"/>
  <path id="line185" d="M 336.858 232.713 C 336.634 232.741 336.467 232.932 336.469 233.157 L 336.469 234.408 C 336.465 234.654 336.662 234.856 336.907 234.86 C 337.152 234.863 337.355 234.667 337.359 234.421 C 337.359 234.417 337.359 234.412 337.359 234.408 L 337.359 233.157 C 337.359 232.911 337.162 232.712 336.917 232.71 C 336.897 232.708 336.877 232.711 336.858 232.713 Z" style="fill: rgb(30, 30, 30);" transform="matrix(0.965926, -0.258819, 0.258819, 0.965926, -49.027843, 95.16572)"/>
  <path id="line187" d="M 337.426 234.828 C 337.22 234.873 337.074 235.061 337.079 235.273 L 337.079 236.857 C 337.075 237.102 337.272 237.305 337.517 237.309 C 337.763 237.312 337.965 237.115 337.969 236.869 C 337.969 236.865 337.969 236.861 337.969 236.857 L 337.969 235.273 C 337.975 235.027 337.781 234.823 337.535 234.818 C 337.498 234.817 337.462 234.819 337.426 234.828 L 337.426 234.828 Z" style="fill: rgb(30, 30, 30);" transform="matrix(0.965926, -0.258819, 0.258819, 0.965926, -49.596832, 95.40125)"/>
  <path id="line189" d="M 338.095 237.394 C 337.889 237.44 337.743 237.627 337.748 237.839 L 337.748 239.285 C 337.744 239.531 337.941 239.732 338.186 239.736 C 338.432 239.74 338.634 239.543 338.638 239.297 C 338.638 239.293 338.638 239.289 338.638 239.286 L 338.638 237.839 C 338.644 237.594 338.45 237.391 338.204 237.385 C 338.167 237.383 338.131 237.387 338.095 237.394 L 338.095 237.394 Z" style="fill: rgb(30, 30, 30);" transform="matrix(0.965926, -0.258819, 0.258819, 0.965926, -50.220277, 95.659481)"/>
  <path id="line191" d="M 338.737 239.701 C 338.531 239.747 338.385 239.933 338.39 240.144 L 338.39 241.771 C 338.386 242.017 338.583 242.219 338.828 242.223 C 339.074 242.227 339.276 242.03 339.28 241.784 C 339.28 241.78 339.28 241.775 339.28 241.771 L 339.28 240.144 C 339.286 239.9 339.092 239.696 338.846 239.69 C 338.809 239.689 338.773 239.692 338.737 239.701 L 338.737 239.701 Z" style="fill: rgb(30, 30, 30);" transform="matrix(0.965926, -0.258819, 0.258819, 0.965926, -50.818552, 95.90724)"/>
  <path id="line193" d="M 339.37 242.313 C 339.164 242.36 339.018 242.546 339.023 242.758 L 339.023 243.885 C 339.019 244.13 339.216 244.332 339.462 244.335 C 339.707 244.339 339.909 244.142 339.913 243.897 C 339.913 243.893 339.913 243.888 339.913 243.885 L 339.913 242.758 C 339.919 242.513 339.725 242.308 339.479 242.303 C 339.442 242.302 339.406 242.306 339.37 242.313 L 339.37 242.313 Z" style="fill: rgb(30, 30, 30);" transform="matrix(0.965926, -0.258819, 0.258819, 0.965926, -51.40853, 96.151803)"/>
  <path id="line195" d="M 340 244.404 C 339.776 244.433 339.608 244.623 339.61 244.849 L 339.61 246.169 C 339.607 246.415 339.804 246.617 340.049 246.621 C 340.294 246.624 340.497 246.428 340.5 246.182 C 340.5 246.177 340.5 246.173 340.5 246.169 L 340.5 244.849 C 340.501 244.604 340.304 244.402 340.059 244.4 C 340.039 244.4 340.019 244.401 340 244.404 Z" style="fill: rgb(30, 30, 30);" transform="matrix(0.965926, -0.258819, 0.258819, 0.965926, -51.955687, 96.378225)"/>
  <path id="circle197" d="M 573.462 172.88 C 572.027 172.88 570.85 174.044 570.85 175.479 C 570.85 176.914 572.027 178.092 573.462 178.092 C 574.899 178.092 576.074 176.914 576.074 175.479 C 576.074 174.044 574.899 172.88 573.462 172.88 Z M 573.462 173.769 C 574.417 173.769 575.185 174.524 575.185 175.479 C 575.185 176.434 574.417 177.202 573.462 177.202 C 572.508 177.202 571.739 176.434 571.739 175.479 C 571.739 174.524 572.508 173.769 573.462 173.769 Z" style="fill: rgb(30, 30, 30);" transform="matrix(0.965926, -0.258819, 0.258819, 0.965926, -25.878873, 154.402344)"/>
</svg>