<?xml version="1.0" encoding="utf-8"?>
<svg version="1.2" baseProfile="tiny" id="Layer_3" x="0px" y="0px" viewBox="0 0 1280 720" preserveAspectRatio="none" xmlns="http://www.w3.org/2000/svg">
  <path d="M 377.66 307.387" style="fill: rgb(30, 30, 30);" transform="matrix(0.965926, -0.258819, 0.258819, 0.965926, -66.689132, 108.219514)"/>
  <path id="path5" d="M 524.238 280.344 C 523.902 280.368 523.609 280.575 523.474 280.883 C 522.926 282.093 522.087 283.175 521.034 284.003 C 520.641 284.314 520.574 284.884 520.885 285.279 C 521.197 285.671 521.767 285.737 522.161 285.426 C 522.163 285.425 522.166 285.422 522.168 285.421 C 523.446 284.421 524.473 283.137 525.146 281.649 C 525.367 281.198 525.184 280.655 524.734 280.434 C 524.58 280.357 524.408 280.326 524.238 280.344 L 524.238 280.344 Z" style="fill: rgb(30, 30, 30);" transform="matrix(0.965926, -0.258819, 0.258819, 0.965926, -55.42118, 144.995476)"/>
  <path id="path7" d="M 377.527 290.09 C 373.346 290.09 369.927 293.481 369.927 297.66 C 369.927 301.84 373.346 305.261 377.527 305.261 L 517.622 305.261 C 521.802 305.261 525.222 301.841 525.222 297.66 C 525.222 293.481 521.805 290.09 517.622 290.09 L 377.527 290.09 Z M 377.527 291.905 L 517.622 291.905 C 520.823 291.905 523.408 294.463 523.408 297.662 C 523.408 300.861 520.823 303.447 517.622 303.447 L 377.527 303.447 C 374.327 303.447 371.74 300.861 371.74 297.662 C 371.74 294.461 374.327 291.905 377.527 291.905 Z" style="fill: rgb(30, 30, 30);" transform="matrix(0.965926, -0.258819, 0.258819, 0.965926, -61.793387, 125.983947)"/>
  <path id="polyline9" d="M 518.897 243.798 C 518.397 243.842 518.025 244.285 518.069 244.786 C 518.114 245.289 518.558 245.659 519.058 245.614 C 519.062 245.614 519.065 245.614 519.069 245.613 L 571.077 245.613 L 650.311 245.613 L 799.699 245.613 C 800.199 245.62 800.612 245.22 800.62 244.719 C 800.626 244.219 800.224 243.806 799.723 243.798 C 799.716 243.798 799.707 243.798 799.699 243.798 L 650.311 243.798 L 571.077 243.798 L 519.069 243.798 C 519.012 243.793 518.953 243.793 518.897 243.798 L 518.897 243.798 Z" style="fill: rgb(30, 30, 30);" transform="matrix(0.965926, -0.258819, 0.258819, 0.965926, -40.868007, 178.988594)"/>
  <path id="polyline11" d="M 519.106 241.929 C 518.603 241.952 518.214 242.375 518.237 242.877 C 518.259 243.377 518.684 243.766 519.185 243.742 C 519.187 243.742 519.187 243.742 519.19 243.742 L 570.574 243.742 L 649.807 243.742 L 798.581 243.742 C 799.081 243.749 799.491 243.349 799.501 242.848 C 799.508 242.348 799.106 241.935 798.606 241.927 C 798.597 241.927 798.588 241.927 798.581 241.927 L 649.807 241.927 L 570.574 241.927 L 519.19 241.927 C 519.162 241.926 519.134 241.926 519.106 241.929 Z" style="fill: rgb(30, 30, 30);" transform="matrix(0.965926, -0.258819, 0.258819, 0.965926, -40.399844, 178.802086)"/>
  <path id="polygon13" d="M 335.428 263.807 C 335.005 263.902 334.709 264.281 334.72 264.713 L 334.72 266.613 C 334.72 267.114 335.125 267.522 335.628 267.522 L 574.974 267.522 L 731.539 267.522 L 893.577 267.522 C 894.08 267.522 894.485 267.114 894.485 266.613 L 894.485 264.713 C 894.485 264.212 894.08 263.807 893.577 263.807 L 731.539 263.807 L 574.974 263.807 L 335.628 263.807 C 335.562 263.799 335.494 263.799 335.428 263.807 L 335.428 263.807 Z M 336.534 265.622 L 574.974 265.622 L 731.539 265.622 L 892.671 265.622 L 892.671 265.708 L 731.539 265.708 L 574.974 265.708 L 336.534 265.708 L 336.534 265.622 Z" style="fill: rgb(30, 30, 30);" transform="matrix(0.965926, -0.258819, 0.258819, 0.965926, -47.816185, 168.122953)"/>
  <path d="M 821.292 188.516" style="fill: rgb(30, 30, 30);" transform="matrix(0.965926, -0.258819, 0.258819, 0.965926, -20.806677, 218.989803)"/>
  <path id="polyline17" d="M 374.349 264.217 C 373.847 264.239 373.459 264.663 373.483 265.165 C 373.506 265.666 373.93 266.054 374.431 266.032 C 374.431 266.032 374.432 266.032 374.433 266.032 L 514.53 266.032 C 514.538 266.032 514.549 266.032 514.558 266.032 L 515.097 266.032 L 515.125 266.032 L 574.478 266.032 L 653.712 266.032 L 810.451 266.032 L 810.479 266.032 L 811.017 266.032 C 811.028 266.032 811.039 266.032 811.045 266.032 L 833.734 266.032 C 834.234 266.038 834.647 265.639 834.654 265.136 C 834.661 264.636 834.262 264.223 833.76 264.217 C 833.749 264.217 833.741 264.217 833.735 264.217 L 811.073 264.217 L 811.045 264.217 L 810.507 264.217 C 810.5 264.217 810.489 264.217 810.479 264.217 L 653.714 264.217 L 574.479 264.217 L 515.097 264.217 L 514.53 264.217 L 514.502 264.217 L 374.441 264.217 C 374.413 264.215 374.385 264.215 374.357 264.217 L 374.349 264.217 Z" style="fill: rgb(30, 30, 30);" transform="matrix(0.965926, -0.258819, 0.258819, 0.965926, -48.036072, 165.378162)"/>
  <path id="polyline19" d="M 517.069 247.141 C 516.569 247.185 516.197 247.626 516.241 248.129 C 516.285 248.63 516.728 249 517.23 248.957 C 517.234 248.957 517.237 248.957 517.24 248.956 L 571.972 248.956 L 651.206 248.956 L 803.315 248.956 C 803.818 248.964 804.228 248.563 804.236 248.061 C 804.243 247.56 803.842 247.149 803.343 247.141 C 803.334 247.141 803.324 247.141 803.317 247.141 L 651.206 247.141 L 571.972 247.141 L 517.24 247.141 C 517.184 247.136 517.127 247.136 517.069 247.141 Z" style="fill: rgb(30, 30, 30);" transform="matrix(0.965926, -0.258819, 0.258819, 0.965926, -41.702733, 179.333894)"/>
  <path id="path21" d="M 795.275 207.007 C 794.772 207.018 794.376 207.434 794.388 207.936 C 794.391 208.066 794.422 208.195 794.48 208.311 C 795.152 209.796 796.18 211.082 797.459 212.083 C 797.847 212.398 798.421 212.337 798.735 211.948 C 799.049 211.559 798.99 210.986 798.6 210.671 C 798.597 210.669 798.594 210.668 798.593 210.665 C 797.538 209.839 796.701 208.757 796.153 207.546 C 796.003 207.204 795.655 206.99 795.282 207.007 L 795.275 207.007 Z" style="fill: rgb(30, 30, 30);" transform="matrix(0.965926, -0.258819, 0.258819, 0.965926, -27.114597, 213.334793)"/>
  <path id="path23" d="M 518.702 238.715 L 518.615 238.744 C 518.134 238.844 517.821 239.309 517.908 239.793 C 517.985 240.237 518.02 240.684 518.02 241.154 C 518.02 241.685 517.978 242.212 517.878 242.714 C 517.739 243.195 518.017 243.702 518.5 243.84 C 518.982 243.981 519.485 243.702 519.625 243.22 C 519.64 243.167 519.651 243.11 519.658 243.056 C 519.781 242.439 519.828 241.807 519.828 241.155 C 519.828 240.939 519.785 240.744 519.77 240.53 L 570.165 240.53 L 649.397 240.53 L 797.17 240.53 C 797.156 240.742 797.112 240.939 797.112 241.155 C 797.112 241.807 797.186 242.465 797.312 243.083 C 797.343 243.583 797.775 243.964 798.276 243.932 C 798.775 243.9 799.154 243.469 799.123 242.969 C 799.118 242.88 799.1 242.796 799.07 242.714 C 798.97 242.214 798.924 241.685 798.924 241.154 C 798.924 240.686 798.96 240.238 799.037 239.793 C 799.123 239.307 798.805 238.84 798.32 238.745 L 798.239 238.716 C 798.171 238.708 798.106 238.708 798.04 238.716 L 649.386 238.716 L 570.153 238.716 L 518.882 238.716 C 518.815 238.708 518.748 238.708 518.682 238.716 L 518.702 238.716 Z" style="fill: rgb(30, 30, 30);" transform="matrix(0.965926, -0.258819, 0.258819, 0.965926, -40.02143, 178.650888)"/>
  <path id="path25" d="M 514.303 233.681 C 513.802 233.657 513.377 234.043 513.353 234.543 C 513.335 234.911 513.543 235.254 513.878 235.409 C 513.888 235.409 513.897 235.409 513.906 235.409 C 514.821 236.187 515.556 237.155 516.033 238.275 C 516.218 238.716 516.715 238.94 517.168 238.785 L 568.809 238.785 L 648.042 238.785 L 797.094 238.785 C 797.538 238.923 798.016 238.703 798.201 238.275 C 798.68 237.148 799.435 236.189 800.356 235.409 C 800.81 235.198 801.007 234.659 800.795 234.204 C 800.64 233.87 800.297 233.663 799.929 233.681 L 648.035 233.681 L 568.804 233.681 L 514.298 233.681 L 514.303 233.681 Z M 516.457 235.495 L 568.809 235.495 L 648.043 235.495 L 797.775 235.495 C 797.424 235.952 797.133 236.452 796.868 236.969 L 648.042 236.969 L 568.808 236.969 L 517.364 236.969 C 517.098 236.452 516.811 235.952 516.457 235.495 L 516.457 235.495 Z" style="fill: rgb(30, 30, 30);" transform="matrix(0.965926, -0.258819, 0.258819, 0.965926, -38.757114, 178.124387)"/>
  <path id="path27" d="M 332.379 244.197 C 331.923 244.255 331.583 244.645 331.586 245.104 L 331.586 247.005 C 331.586 247.505 331.991 247.912 332.494 247.912 L 364.17 247.912 C 363.823 248.363 363.553 248.878 363.291 249.386 L 332.494 249.386 C 331.991 249.386 331.586 249.794 331.586 250.294 L 331.586 252.224 C 331.586 252.724 331.991 253.13 332.494 253.13 L 362.241 253.13 C 362.227 253.343 362.183 253.541 362.183 253.754 C 362.183 254.034 362.245 254.304 362.269 254.577 L 332.494 254.577 C 331.991 254.577 331.587 254.983 331.586 255.485 L 331.586 257.413 C 331.586 257.914 331.991 258.32 332.494 258.32 L 363.375 258.32 C 363.687 258.904 364.033 259.457 364.453 259.965 L 332.493 259.965 C 331.991 259.965 331.584 260.371 331.584 260.871 C 331.584 260.882 331.584 260.892 331.584 260.901 L 331.64 262.858 C 331.657 263.349 332.057 263.737 332.549 263.737 L 371.911 263.737 C 372.412 263.745 372.823 263.344 372.831 262.843 C 372.838 262.341 372.437 261.93 371.936 261.922 C 371.927 261.922 371.92 261.922 371.911 261.922 L 333.429 261.922 L 333.429 261.78 L 366.608 261.78 L 366.665 261.78 C 366.981 261.772 367.271 261.602 367.431 261.327 C 367.67 260.93 367.572 260.417 367.204 260.134 C 367.193 260.128 367.186 260.115 367.176 260.107 C 366.14 259.301 365.29 258.276 364.737 257.1 C 364.728 257.081 364.717 257.061 364.709 257.043 C 364.706 257.035 364.711 257.021 364.709 257.016 C 364.7 257.005 364.692 256.995 364.681 256.987 C 364.673 256.957 364.663 256.929 364.653 256.9 L 364.625 256.874 C 364.399 256.525 363.967 256.375 363.575 256.505 L 333.4 256.505 L 333.4 256.392 L 363.036 256.392 C 363.32 256.473 363.627 256.41 363.858 256.222 L 363.886 256.194 C 364.178 255.953 364.29 255.559 364.17 255.201 C 364.161 255.192 364.151 255.181 364.142 255.173 C 364.058 254.716 363.999 254.238 363.999 253.755 C 363.999 253.28 364.032 252.817 364.114 252.366 C 364.192 251.87 363.854 251.405 363.358 251.327 C 363.317 251.32 363.275 251.318 363.235 251.317 L 363.036 251.317 L 333.4 251.317 L 333.4 251.202 L 363.603 251.202 L 363.802 251.202 C 364.157 251.201 364.478 250.99 364.623 250.663 C 365.117 249.522 365.889 248.524 366.835 247.742 C 367.222 247.423 367.274 246.852 366.954 246.466 C 366.823 246.306 366.64 246.197 366.438 246.154 L 366.354 246.126 C 366.288 246.11 366.22 246.1 366.154 246.098 L 333.4 246.098 L 333.4 246.014 L 370.523 246.014 L 512.887 246.014 L 571.843 246.014 L 651.078 246.014 L 807.415 246.014 L 832.344 246.014 L 889.543 246.014 L 889.543 246.098 L 836.737 246.098 C 836.67 246.1 836.604 246.111 836.539 246.126 L 836.426 246.154 C 835.938 246.268 835.633 246.755 835.745 247.244 C 835.791 247.44 835.9 247.615 836.057 247.742 C 837.004 248.524 837.747 249.522 838.24 250.663 C 838.389 250.999 838.724 251.211 839.091 251.202 C 839.1 251.202 839.111 251.202 839.117 251.202 L 839.202 251.202 L 889.54 251.202 L 889.54 251.317 L 839.826 251.317 L 839.657 251.317 C 839.156 251.326 838.757 251.738 838.768 252.24 C 838.768 252.283 838.771 252.324 838.777 252.366 L 838.748 252.366 C 838.83 252.818 838.892 253.28 838.892 253.755 C 838.892 254.238 838.831 254.716 838.748 255.173 C 838.746 255.194 838.725 255.211 838.72 255.229 C 838.72 255.24 838.72 255.25 838.72 255.258 C 838.626 255.599 838.738 255.962 839.005 256.194 L 839.033 256.222 C 839.271 256.418 839.589 256.483 839.883 256.392 L 889.54 256.392 L 889.54 256.505 L 839.287 256.505 C 838.905 256.388 838.489 256.538 838.269 256.874 L 838.241 256.901 C 838.219 256.929 838.202 256.957 838.184 256.988 C 838.174 257.007 838.162 257.025 838.156 257.046 C 837.6 258.245 836.769 259.289 835.715 260.107 C 835.707 260.116 835.698 260.126 835.687 260.136 C 835.285 260.431 835.194 260.999 835.49 261.404 C 835.499 261.416 835.508 261.427 835.518 261.44 C 835.689 261.656 835.95 261.781 836.226 261.781 L 836.34 261.781 L 889.512 261.781 L 889.512 261.922 L 830.978 261.922 C 830.477 261.916 830.066 262.315 830.057 262.818 C 830.052 263.319 830.452 263.731 830.953 263.737 C 830.963 263.737 830.969 263.737 830.978 263.737 L 890.387 263.737 C 890.879 263.737 891.281 263.349 891.297 262.86 L 891.353 260.903 C 891.368 260.401 890.975 259.982 890.475 259.966 C 890.466 259.966 890.455 259.966 890.447 259.966 L 838.438 259.966 C 838.857 259.459 839.202 258.905 839.516 258.322 L 890.449 258.322 C 890.949 258.322 891.354 257.916 891.354 257.413 L 891.354 255.486 C 891.354 254.986 890.949 254.577 890.449 254.577 L 840.621 254.577 C 840.644 254.305 840.706 254.034 840.706 253.755 C 840.706 253.542 840.662 253.343 840.649 253.132 L 890.447 253.132 C 890.947 253.132 891.353 252.725 891.353 252.224 L 891.353 250.296 C 891.353 249.794 890.947 249.388 890.447 249.388 L 839.6 249.388 C 839.337 248.878 839.066 248.365 838.72 247.914 L 890.447 247.914 C 890.949 247.914 891.353 247.507 891.353 247.005 L 891.353 245.104 C 891.353 244.604 890.949 244.199 890.447 244.199 L 832.341 244.199 L 807.415 244.199 L 651.076 244.199 L 571.842 244.199 L 512.885 244.199 L 370.522 244.199 L 332.493 244.199 C 332.455 244.193 332.416 244.193 332.379 244.197 L 332.379 244.197 Z" style="fill: rgb(30, 30, 30);" transform="matrix(0.965926, -0.258819, 0.258819, 0.965926, -44.895845, 166.913468)"/>
  <path id="path29" d="M 801.256 192.282 C 797.073 192.282 793.682 195.673 793.682 199.852 C 793.682 204.032 797.073 207.453 801.256 207.453 L 823.941 207.453 C 828.123 207.453 831.513 204.033 831.513 199.852 C 831.513 195.673 828.122 192.282 823.941 192.282 L 801.256 192.282 Z M 801.256 194.097 L 823.941 194.097 C 827.141 194.097 829.699 196.655 829.699 199.854 C 829.699 203.053 827.141 205.639 823.941 205.639 L 801.256 205.639 C 798.055 205.639 795.498 203.053 795.498 199.854 C 795.498 196.653 798.055 194.097 801.256 194.097 Z" style="fill: rgb(30, 30, 30);" transform="matrix(0.965926, -0.258819, 0.258819, 0.965926, -24.04093, 217.125895)"/>
  <path id="path31" d="M 330.699 226.693 C 328.478 226.693 326.673 228.499 326.673 230.719 L 326.673 243.197 C 326.673 243.699 327.079 244.105 327.58 244.105 L 885.704 244.105 C 886.204 244.105 886.611 243.699 886.611 243.197 L 886.611 230.719 C 886.611 228.499 884.803 226.693 882.585 226.693 L 330.694 226.693 L 330.699 226.693 Z M 330.699 228.506 L 882.588 228.506 C 883.826 228.506 884.8 229.48 884.8 230.719 L 884.8 242.29 L 328.492 242.29 L 328.492 230.719 C 328.492 229.48 329.465 228.506 330.705 228.506 L 330.699 228.506 Z" style="fill: rgb(30, 30, 30);" transform="matrix(0.965926, -0.258819, 0.258819, 0.965926, -40.254917, 165.031494)"/>
  <path id="path33" d="M 366.353 264.752 C 365.931 264.846 365.635 265.227 365.645 265.659 L 365.645 492.926 C 365.645 495.148 367.451 496.952 369.671 496.952 L 921.561 496.952 C 923.779 496.952 925.587 495.145 925.587 492.926 L 925.575 265.659 C 925.575 265.158 925.169 264.752 924.668 264.752 L 366.548 264.752 C 366.483 264.744 366.415 264.744 366.349 264.752 L 366.353 264.752 Z M 367.46 266.568 L 923.767 266.568 L 923.767 492.926 C 923.767 494.166 922.796 495.14 921.555 495.14 L 369.667 495.14 C 368.427 495.14 367.455 494.166 367.455 492.926 L 367.46 266.568 L 367.46 266.568 Z" style="fill: rgb(30, 30, 30);" transform="matrix(0.965926, -0.258819, 0.258819, 0.965926, -76.572089, 180.074597)"/>
  <path id="path35" d="M 387.219 382.143 C 385.541 382.143 384.184 383.528 384.184 385.205 L 384.184 404.066 C 384.184 405.742 385.541 407.127 387.219 407.127 L 406.076 407.127 C 407.753 407.127 409.138 405.742 409.138 404.066 L 409.138 385.205 C 409.138 383.528 407.753 382.143 406.076 382.143 L 387.219 382.143 Z M 387.219 383.959 L 406.076 383.959 C 406.772 383.959 407.324 384.51 407.324 385.207 L 407.324 404.066 C 407.324 404.761 406.771 405.313 406.076 405.313 L 387.219 405.313 C 386.521 405.313 385.997 404.76 385.997 404.066 L 385.997 385.207 C 385.998 384.51 386.521 383.959 387.219 383.959 Z" style="fill: rgb(30, 30, 30);" transform="matrix(0.965926, -0.258819, 0.258819, 0.965926, -88.623196, 116.110344)"/>
  <path id="path37" d="M 412.941 375.258 C 411.265 375.258 409.878 376.643 409.878 378.32 L 409.878 397.181 C 409.878 398.855 411.264 400.242 412.941 400.242 L 431.77 400.242 C 433.446 400.242 434.833 398.857 434.833 397.181 L 434.833 378.32 C 434.833 376.643 433.444 375.258 431.77 375.258 L 412.941 375.258 Z M 412.941 377.074 L 431.77 377.074 C 432.466 377.074 433.017 377.625 433.017 378.322 L 433.017 397.181 C 433.017 397.876 432.466 398.428 431.77 398.428 L 412.941 398.428 C 412.244 398.428 411.692 397.875 411.692 397.181 L 411.692 378.322 C 411.692 377.625 412.245 377.074 412.941 377.074 Z" style="fill: rgb(30, 30, 30);" transform="matrix(0.965926, -0.258819, 0.258819, 0.965926, -85.965601, 122.525762)"/>
  <path id="path39" d="M 438.634 368.37 C 436.956 368.37 435.57 369.755 435.57 371.432 L 435.57 390.293 C 435.57 391.969 436.955 393.354 438.634 393.354 L 457.491 393.354 C 459.027 393.354 460.236 392.172 460.44 390.689 C 460.45 390.668 460.459 390.651 460.469 390.631 C 460.469 390.621 460.468 390.612 460.469 390.604 C 460.48 390.576 460.49 390.548 460.496 390.518 C 460.512 390.464 460.52 390.406 460.526 390.349 C 460.536 390.328 460.546 390.311 460.554 390.293 L 460.554 371.432 C 460.554 369.755 459.167 368.37 457.491 368.37 L 438.634 368.37 L 438.634 368.37 Z M 438.634 370.186 L 457.491 370.186 C 458.187 370.186 458.74 370.737 458.74 371.434 L 458.74 390.121 C 458.738 390.16 458.738 390.198 458.74 390.234 C 458.729 390.255 458.719 390.272 458.712 390.293 C 458.712 390.987 458.187 391.539 457.493 391.539 L 438.634 391.539 C 437.939 391.539 437.386 390.987 437.386 390.293 L 437.386 371.432 C 437.386 370.737 437.936 370.186 438.634 370.186 L 438.634 370.186 Z" style="fill: rgb(30, 30, 30);" transform="matrix(0.965926, -0.258819, 0.258819, 0.965926, -83.306917, 128.944366)"/>
  <path id="path41" d="M 464.323 361.483 C 462.646 361.483 461.289 362.868 461.289 364.545 L 461.289 383.406 C 461.289 385.082 462.646 386.467 464.323 386.467 L 483.182 386.467 C 484.858 386.467 486.243 385.082 486.243 383.406 L 486.243 364.545 C 486.243 362.868 484.857 361.483 483.182 361.483 L 464.323 361.483 Z M 464.323 363.299 L 483.182 363.299 C 483.878 363.299 484.429 363.85 484.429 364.547 L 484.429 383.406 C 484.429 384.101 483.878 384.653 483.182 384.653 L 464.323 384.653 C 463.628 384.653 463.103 384.1 463.103 383.406 L 463.103 364.547 C 463.103 363.85 463.626 363.299 464.323 363.299 Z" style="fill: rgb(30, 30, 30);" transform="matrix(0.965926, -0.258819, 0.258819, 0.965926, -80.648603, 135.362394)"/>
  <path id="path43" d="M 490.051 354.597 C 488.373 354.597 486.987 355.982 486.987 357.659 L 486.987 376.52 C 486.987 378.196 488.373 379.581 490.051 379.581 L 508.881 379.581 C 510.557 379.581 511.941 378.196 511.941 376.52 L 511.941 357.659 C 511.941 355.982 510.556 354.597 508.881 354.597 L 490.051 354.597 Z M 490.051 356.413 L 508.881 356.413 C 509.575 356.413 510.127 356.964 510.127 357.661 L 510.127 376.52 C 510.127 377.215 509.575 377.767 508.881 377.767 L 490.051 377.767 C 489.355 377.767 488.802 377.214 488.802 376.52 L 488.802 357.661 C 488.802 356.964 489.354 356.413 490.051 356.413 Z" style="fill: rgb(30, 30, 30);" transform="matrix(0.965926, -0.258819, 0.258819, 0.965926, -77.990843, 141.779155)"/>
  <path id="path45" d="M 515.743 347.713 C 514.067 347.713 512.678 349.098 512.678 350.775 L 512.678 369.636 C 512.678 371.312 514.067 372.697 515.743 372.697 L 534.6 372.697 C 536.276 372.697 537.635 371.312 537.635 369.636 L 537.635 350.775 C 537.635 349.098 536.276 347.713 534.6 347.713 L 515.743 347.713 Z M 515.743 349.529 L 534.6 349.529 C 535.296 349.529 535.818 350.08 535.818 350.777 L 535.818 369.636 C 535.818 370.331 535.296 370.883 534.6 370.883 L 515.743 370.883 C 515.047 370.883 514.494 370.33 514.494 369.636 L 514.494 350.777 C 514.494 350.08 515.047 349.529 515.743 349.529 Z" style="fill: rgb(30, 30, 30);" transform="matrix(0.965926, -0.258819, 0.258819, 0.965926, -75.333586, 148.194022)"/>
  <path id="path47" d="M 541.432 340.821 C 539.756 340.821 538.398 342.206 538.398 343.883 L 538.398 362.744 C 538.398 364.42 539.756 365.805 541.432 365.805 L 560.292 365.805 C 561.966 365.805 563.352 364.42 563.352 362.744 L 563.352 343.883 C 563.352 342.206 561.966 340.821 560.292 340.821 L 541.432 340.821 Z M 541.432 342.637 L 560.292 342.637 C 560.987 342.637 561.539 343.188 561.539 343.885 L 561.539 362.744 C 561.539 363.439 560.987 363.991 560.292 363.991 L 541.432 363.991 C 540.737 363.991 540.214 363.438 540.214 362.744 L 540.214 343.885 C 540.214 343.188 540.737 342.637 541.432 342.637 Z" style="fill: rgb(30, 30, 30);" transform="matrix(0.965926, -0.258819, 0.258819, 0.965926, -72.673558, 154.615912)"/>
  <path id="path49" d="M 567.161 333.935 C 565.484 333.935 564.097 335.32 564.097 336.997 L 564.097 355.858 C 564.097 357.534 565.484 358.919 567.161 358.919 L 585.991 358.919 C 587.667 358.919 589.052 357.534 589.052 355.858 L 589.052 336.997 C 589.052 335.32 587.667 333.935 585.991 333.935 L 567.161 333.935 Z M 567.161 335.751 L 585.991 335.751 C 586.686 335.751 587.237 336.302 587.237 336.999 L 587.237 355.858 C 587.237 356.553 586.684 357.105 585.991 357.105 L 567.161 357.105 C 566.466 357.105 565.913 356.552 565.913 355.858 L 565.913 336.999 C 565.913 336.302 566.466 335.751 567.161 335.751 Z" style="fill: rgb(30, 30, 30);" transform="matrix(0.965926, -0.258819, 0.258819, 0.965926, -70.015644, 161.03279)"/>
  <path id="path51" d="M 592.853 327.051 C 591.175 327.051 589.789 328.436 589.789 330.113 L 589.789 348.974 C 589.789 350.65 591.175 352.035 592.853 352.035 L 611.711 352.035 C 613.387 352.035 614.745 350.65 614.745 348.974 L 614.745 330.113 C 614.745 328.436 613.387 327.051 611.711 327.051 L 592.853 327.051 Z M 592.853 328.867 L 611.711 328.867 C 612.407 328.867 612.931 329.418 612.931 330.115 L 612.931 348.974 C 612.931 349.669 612.405 350.221 611.711 350.221 L 592.853 350.221 C 592.157 350.221 591.604 349.668 591.604 348.974 L 591.604 330.115 C 591.604 329.418 592.157 328.867 592.853 328.867 Z" style="fill: rgb(30, 30, 30);" transform="matrix(0.965926, -0.258819, 0.258819, 0.965926, -67.358439, 167.44778)"/>
  <path id="path53" d="M 618.544 320.163 C 616.867 320.163 615.481 321.548 615.481 323.225 L 615.481 342.086 C 615.481 343.76 616.865 345.147 618.544 345.147 L 637.401 345.147 C 639.077 345.147 640.464 343.762 640.464 342.086 L 640.464 323.225 C 640.464 321.548 639.078 320.163 637.401 320.163 L 618.544 320.163 Z M 618.544 321.979 L 637.401 321.979 C 638.097 321.979 638.649 322.53 638.649 323.227 L 638.649 342.086 C 638.649 342.781 638.095 343.333 637.401 343.333 L 618.544 343.333 C 617.847 343.333 617.297 342.78 617.297 342.086 L 617.297 323.227 C 617.297 322.53 617.847 321.979 618.544 321.979 Z" style="fill: rgb(30, 30, 30);" transform="matrix(0.965926, -0.258819, 0.258819, 0.965926, -64.699831, 173.866333)"/>
  <path id="path55" d="M 644.272 313.273 C 642.593 313.273 641.207 314.658 641.207 316.335 L 641.207 335.196 C 641.207 336.87 642.593 338.257 644.272 338.257 L 663.1 338.257 C 664.777 338.257 666.164 336.873 666.164 335.196 L 666.164 316.335 C 666.164 314.658 664.778 313.273 663.1 313.273 L 644.272 313.273 Z M 644.272 315.089 L 663.1 315.089 C 663.796 315.089 664.348 315.64 664.348 316.337 L 664.348 335.196 C 664.348 335.89 663.795 336.443 663.1 336.443 L 644.272 336.443 C 643.574 336.443 643.023 335.89 643.023 335.196 L 643.023 316.337 C 643.023 315.64 643.575 315.089 644.272 315.089 Z" style="fill: rgb(30, 30, 30);" transform="matrix(0.965926, -0.258819, 0.258819, 0.965926, -62.040393, 180.286396)"/>
  <path id="path57" d="M 669.962 306.389 C 668.285 306.389 666.898 307.775 666.898 309.452 L 666.898 328.313 C 666.898 329.987 668.285 331.374 669.962 331.374 L 688.82 331.374 C 690.496 331.374 691.854 329.988 691.854 328.313 L 691.854 309.452 C 691.854 307.775 690.496 306.39 688.82 306.389 L 669.962 306.389 Z M 669.962 308.206 L 688.82 308.206 C 689.514 308.206 690.04 308.757 690.04 309.453 L 690.04 328.313 C 690.04 329.008 689.514 329.56 688.82 329.56 L 669.962 329.56 C 669.266 329.56 668.714 329.007 668.714 328.313 L 668.714 309.453 C 668.714 308.757 669.268 308.206 669.962 308.206 Z" style="fill: rgb(30, 30, 30);" transform="matrix(0.965926, -0.258819, 0.258819, 0.965926, -59.383456, 186.701201)"/>
  <path id="path59" d="M 695.653 299.498 C 693.977 299.498 692.62 300.883 692.62 302.56 L 692.62 321.421 C 692.62 323.095 693.977 324.482 695.653 324.482 L 714.513 324.482 C 716.187 324.482 717.573 323.098 717.573 321.421 L 717.573 302.56 C 717.573 300.883 716.188 299.498 714.513 299.498 L 695.653 299.498 Z M 695.653 301.314 L 714.513 301.314 C 715.207 301.314 715.759 301.865 715.759 302.562 L 715.759 321.421 C 715.759 322.115 715.205 322.668 714.513 322.668 L 695.653 322.668 C 694.957 322.668 694.432 322.115 694.432 321.421 L 694.432 302.562 C 694.432 301.865 694.957 301.314 695.653 301.314 Z" style="fill: rgb(30, 30, 30);" transform="matrix(0.965926, -0.258819, 0.258819, 0.965926, -56.723392, 193.123352)"/>
  <path id="path61" d="M 721.381 292.612 C 719.704 292.612 718.317 293.997 718.317 295.674 L 718.317 314.531 C 718.317 316.208 719.704 317.595 721.381 317.595 L 740.209 317.595 C 741.887 317.595 743.274 316.208 743.274 314.531 C 743.274 314.504 743.274 314.475 743.274 314.446 L 743.274 295.673 C 743.274 293.996 741.888 292.61 740.209 292.61 L 721.381 292.612 L 721.381 292.612 Z M 721.381 294.428 L 740.209 294.428 C 740.908 294.428 741.457 294.979 741.457 295.676 L 741.457 314.532 C 741.457 315.229 740.906 315.781 740.209 315.781 L 721.381 315.781 C 720.685 315.781 720.132 315.228 720.132 314.532 L 720.132 295.674 C 720.132 294.978 720.686 294.427 721.381 294.428 L 721.381 294.428 Z" style="fill: rgb(30, 30, 30);" transform="matrix(0.965926, -0.258819, 0.258819, 0.965926, -54.065074, 199.539883)"/>
  <path id="path63" d="M 433.224 397.064 C 431.548 397.064 430.161 398.45 430.161 400.127 L 430.161 418.982 C 430.161 420.661 431.548 422.018 433.224 422.018 L 452.083 422.018 C 453.616 422.018 454.822 420.86 455.032 419.382 C 455.043 419.361 455.052 419.344 455.06 419.325 C 455.062 419.314 455.058 419.304 455.06 419.296 C 455.071 419.269 455.081 419.242 455.09 419.214 C 455.104 419.158 455.113 419.101 455.118 419.041 C 455.127 419.024 455.137 419.007 455.146 418.988 L 455.146 400.13 C 455.146 398.454 453.758 397.067 452.083 397.067 L 433.224 397.067 L 433.224 397.064 Z M 433.224 398.878 L 452.083 398.878 C 452.778 398.878 453.33 399.433 453.33 400.127 L 453.33 418.814 C 453.329 418.842 453.329 418.87 453.33 418.898 C 453.32 418.928 453.31 418.959 453.302 418.99 C 453.302 419.684 452.778 420.209 452.083 420.209 L 433.224 420.209 C 432.528 420.209 431.977 419.684 431.977 418.994 L 431.977 400.135 C 431.977 399.439 432.528 398.887 433.224 398.887 L 433.224 398.878 Z" style="fill: rgb(30, 30, 30);" transform="matrix(0.965926, -0.258819, 0.258819, 0.965926, -90.91388, 128.521778)"/>
  <path id="path65" d="M 393.794 405.802 C 392.116 405.802 390.759 407.188 390.759 408.865 L 390.759 427.72 C 390.759 429.4 392.116 430.756 393.794 430.756 L 426.264 430.756 C 427.939 430.756 429.327 429.4 429.327 427.72 L 429.327 408.865 C 429.327 407.188 427.941 405.802 426.264 405.802 L 393.794 405.802 Z M 393.794 407.616 L 426.264 407.616 C 426.96 407.616 427.51 408.171 427.51 408.865 L 427.51 427.72 C 427.51 428.418 426.958 428.943 426.264 428.943 L 393.794 428.943 C 393.096 428.943 392.572 428.417 392.572 427.72 L 392.572 408.865 C 392.573 408.17 393.096 407.616 393.794 407.616 Z" style="fill: rgb(30, 30, 30);" transform="matrix(0.965926, -0.258819, 0.258819, 0.965926, -94.286745, 120.379548)"/>
  <path id="path67" d="M 458.92 390.179 C 457.244 390.179 455.858 391.565 455.858 393.242 L 455.858 412.097 C 455.858 413.777 457.244 415.133 458.92 415.133 L 477.779 415.133 C 479.456 415.133 480.841 413.777 480.841 412.097 L 480.841 393.242 C 480.841 391.565 479.456 390.179 477.779 390.179 L 458.92 390.179 Z M 458.92 391.993 L 477.779 391.993 C 478.475 391.993 479.026 392.548 479.026 393.242 L 479.026 412.097 C 479.026 412.795 478.475 413.32 477.779 413.32 L 458.92 413.32 C 458.225 413.32 457.672 412.794 457.672 412.097 L 457.672 393.242 C 457.672 392.547 458.223 391.993 458.92 391.993 Z" style="fill: rgb(30, 30, 30);" transform="matrix(0.965926, -0.258819, 0.258819, 0.965926, -88.256347, 134.93778)"/>
  <path id="path69" d="M 484.638 383.291 C 482.961 383.291 481.577 384.677 481.577 386.354 L 481.577 405.209 C 481.577 406.889 482.963 408.245 484.638 408.245 L 503.47 408.245 C 505.145 408.245 506.533 406.889 506.533 405.209 L 506.533 386.354 C 506.533 384.677 505.145 383.291 503.47 383.291 L 484.638 383.291 Z M 484.638 385.105 L 503.47 385.105 C 504.164 385.105 504.716 385.66 504.716 386.354 L 504.716 405.209 C 504.716 405.907 504.164 406.432 503.47 406.432 L 484.638 406.432 C 483.943 406.432 483.392 405.906 483.392 405.209 L 483.392 386.354 C 483.392 385.659 483.943 385.105 484.638 385.105 Z" style="fill: rgb(30, 30, 30);" transform="matrix(0.965926, -0.258819, 0.258819, 0.965926, -85.597713, 141.356154)"/>
  <path id="path71" d="M 510.33 376.407 C 508.655 376.407 507.268 377.793 507.268 379.47 L 507.268 398.325 C 507.268 400.005 508.655 401.361 510.33 401.361 L 529.188 401.361 C 530.865 401.361 532.223 400.005 532.223 398.325 L 532.223 379.47 C 532.223 377.793 530.865 376.407 529.188 376.407 L 510.33 376.407 Z M 510.33 378.221 L 529.188 378.221 C 529.886 378.221 530.409 378.776 530.409 379.47 L 530.409 398.325 C 530.409 399.023 529.886 399.548 529.188 399.548 L 510.33 399.548 C 509.635 399.548 509.082 399.022 509.082 398.325 L 509.082 379.47 C 509.082 378.775 509.635 378.221 510.33 378.221 Z" style="fill: rgb(30, 30, 30);" transform="matrix(0.965926, -0.258819, 0.258819, 0.965926, -82.94073, 147.771045)"/>
  <path id="path73" d="M 536.029 369.514 C 534.353 369.514 532.994 370.9 532.994 372.577 L 532.994 391.432 C 532.994 393.112 534.353 394.468 536.029 394.468 L 554.889 394.468 C 556.566 394.468 557.952 393.112 557.952 391.432 L 557.952 372.577 C 557.952 370.9 556.566 369.514 554.889 369.514 L 536.029 369.514 Z M 536.029 371.328 L 554.889 371.328 C 555.584 371.328 556.136 371.883 556.136 372.577 L 556.136 391.432 C 556.136 392.13 555.584 392.655 554.889 392.655 L 536.029 392.655 C 535.333 392.655 534.811 392.129 534.811 391.432 L 534.811 372.577 C 534.811 371.882 535.335 371.328 536.029 371.328 Z" style="fill: rgb(30, 30, 30);" transform="matrix(0.965926, -0.258819, 0.258819, 0.965926, -80.28004, 154.194957)"/>
  <path id="path75" d="M 561.747 362.63 C 560.071 362.63 558.685 364.016 558.685 365.693 L 558.685 384.548 C 558.685 386.228 560.071 387.584 561.747 387.584 L 580.58 387.584 C 582.255 387.584 583.642 386.228 583.642 384.548 L 583.642 365.693 C 583.642 364.016 582.255 362.63 580.58 362.63 L 561.747 362.63 Z M 561.747 364.444 L 580.58 364.444 C 581.274 364.444 581.826 364.999 581.826 365.693 L 581.826 384.548 C 581.826 385.246 581.273 385.771 580.58 385.771 L 561.747 385.771 C 561.053 385.771 560.499 385.245 560.499 384.548 L 560.499 365.693 C 560.499 364.998 561.053 364.444 561.747 364.444 Z" style="fill: rgb(30, 30, 30);" transform="matrix(0.965926, -0.258819, 0.258819, 0.965926, -77.62295, 160.60958)"/>
  <path id="path77" d="M 587.441 355.746 C 585.763 355.746 584.378 357.132 584.378 358.809 L 584.378 377.664 C 584.378 379.344 585.763 380.7 587.441 380.7 L 606.299 380.7 C 607.974 380.7 609.334 379.344 609.334 377.664 L 609.334 358.809 C 609.334 357.132 607.975 355.746 606.299 355.746 L 587.441 355.746 Z M 587.441 357.56 L 606.299 357.56 C 606.993 357.56 607.517 358.115 607.517 358.809 L 607.517 377.664 C 607.517 378.362 606.993 378.887 606.299 378.887 L 587.441 378.887 C 586.745 378.887 586.192 378.361 586.192 377.664 L 586.192 358.809 C 586.192 358.114 586.745 357.56 587.441 357.56 Z" style="fill: rgb(30, 30, 30);" transform="matrix(0.965926, -0.258819, 0.258819, 0.965926, -74.965793, 167.024714)"/>
  <path id="path79" d="M 613.131 348.858 C 611.456 348.858 610.068 350.244 610.068 351.921 L 610.068 370.776 C 610.068 372.456 611.456 373.812 613.131 373.812 L 631.991 373.812 C 633.665 373.812 635.053 372.456 635.053 370.776 L 635.053 351.921 C 635.053 350.244 633.668 348.858 631.991 348.858 L 613.131 348.858 Z M 613.131 350.672 L 631.991 350.672 C 632.687 350.672 633.238 351.227 633.238 351.921 L 633.238 370.776 C 633.238 371.474 632.687 371.999 631.991 371.999 L 613.131 371.999 C 612.435 371.999 611.884 371.473 611.884 370.776 L 611.884 351.921 C 611.884 351.226 612.435 350.672 613.131 350.672 Z" style="fill: rgb(30, 30, 30);" transform="matrix(0.965926, -0.258819, 0.258819, 0.965926, -72.307187, 173.442837)"/>
  <path id="path81" d="M 638.858 341.968 C 637.182 341.968 635.795 343.354 635.795 345.031 L 635.795 363.886 C 635.795 365.566 637.182 366.922 638.858 366.922 L 657.687 366.922 C 659.363 366.922 660.752 365.566 660.752 363.886 L 660.752 345.031 C 660.752 343.354 659.365 341.968 657.687 341.968 L 638.858 341.968 Z M 638.858 343.782 L 657.687 343.782 C 658.383 343.782 658.936 344.337 658.936 345.031 L 658.936 363.886 C 658.936 364.583 658.382 365.109 657.687 365.109 L 638.858 365.109 C 638.164 365.109 637.61 364.583 637.61 363.886 L 637.61 345.031 C 637.612 344.336 638.164 343.782 638.858 343.782 Z" style="fill: rgb(30, 30, 30);" transform="matrix(0.965926, -0.258819, 0.258819, 0.965926, -69.647727, 179.862922)"/>
  <path id="path83" d="M 664.551 335.084 C 662.874 335.084 661.487 336.47 661.487 338.147 L 661.487 357.002 C 661.487 358.682 662.873 360.038 664.551 360.038 L 683.409 360.038 C 685.085 360.038 686.443 358.682 686.443 357.002 L 686.443 338.147 C 686.443 336.47 685.086 335.084 683.409 335.084 L 664.551 335.084 Z M 664.551 336.898 L 683.409 336.898 C 684.106 336.898 684.628 337.453 684.628 338.147 L 684.628 357.002 C 684.628 357.7 684.104 358.225 683.409 358.225 L 664.551 358.225 C 663.855 358.225 663.304 357.699 663.304 357.002 L 663.304 338.147 C 663.304 337.452 663.855 336.898 664.551 336.898 Z" style="fill: rgb(30, 30, 30);" transform="matrix(0.965926, -0.258819, 0.258819, 0.965926, -66.990601, 186.277788)"/>
  <path id="path85" d="M 690.242 328.197 C 688.568 328.197 687.178 329.583 687.178 331.26 L 687.178 350.115 C 687.178 351.795 688.564 353.151 690.242 353.151 L 709.101 353.151 C 710.778 353.151 712.162 351.795 712.162 350.115 L 712.162 331.26 C 712.162 329.583 710.778 328.197 709.101 328.197 L 690.242 328.197 Z M 690.242 330.011 L 709.101 330.011 C 709.795 330.011 710.348 330.566 710.348 331.26 L 710.348 350.115 C 710.348 350.812 709.794 351.338 709.101 351.338 L 690.242 351.338 C 689.546 351.338 688.994 350.812 688.994 350.115 L 688.994 331.26 C 688.993 330.565 689.547 330.011 690.242 330.011 Z" style="fill: rgb(30, 30, 30);" transform="matrix(0.965926, -0.258819, 0.258819, 0.965926, -64.332238, 192.696064)"/>
  <path id="path87" d="M 715.969 321.307 C 714.293 321.307 712.906 322.693 712.906 324.37 L 712.906 343.225 C 712.906 344.905 714.292 346.261 715.969 346.261 L 734.801 346.261 C 736.476 346.261 737.862 344.905 737.862 343.225 L 737.862 324.37 C 737.862 322.693 736.477 321.307 734.801 321.307 L 715.969 321.307 Z M 715.969 323.121 L 734.801 323.121 C 735.495 323.121 736.047 323.676 736.047 324.37 L 736.047 343.225 C 736.047 343.923 735.494 344.448 734.801 344.448 L 715.969 344.448 C 715.272 344.448 714.722 343.922 714.722 343.225 L 714.722 324.37 C 714.72 323.675 715.272 323.121 715.969 323.121 Z" style="fill: rgb(30, 30, 30);" transform="matrix(0.965926, -0.258819, 0.258819, 0.965926, -61.672816, 199.11677)"/>
  <path id="path89" d="M 741.66 314.422 C 739.985 314.422 738.599 315.808 738.599 317.485 L 738.599 336.34 C 738.599 338.02 739.984 339.376 741.66 339.376 L 760.52 339.376 C 762.195 339.376 763.554 338.02 763.554 336.34 L 763.554 317.485 C 763.554 315.808 762.195 314.422 760.52 314.422 L 741.66 314.422 Z M 741.66 316.236 L 760.52 316.236 C 761.214 316.236 761.74 316.791 761.74 317.485 L 761.74 336.34 C 761.74 337.037 761.214 337.563 760.52 337.563 L 741.66 337.563 C 740.963 337.563 740.416 337.037 740.416 336.34 L 740.416 317.485 C 740.415 316.79 740.963 316.236 741.66 316.236 Z" style="fill: rgb(30, 30, 30);" transform="matrix(0.965926, -0.258819, 0.258819, 0.965926, -59.015395, 205.531883)"/>
  <path id="path91" d="M 832.288 288.076 C 830.613 288.076 829.225 289.462 829.225 291.139 L 829.225 309.994 C 829.225 311.674 830.612 313.03 832.288 313.03 L 866.516 313.03 C 868.192 313.03 869.58 311.674 869.58 309.994 L 869.58 291.139 C 869.58 289.462 868.193 288.076 866.516 288.076 L 832.288 288.076 Z M 832.288 289.89 L 866.516 289.89 C 867.212 289.89 867.765 290.445 867.765 291.139 L 867.765 309.994 C 867.765 310.691 867.21 311.217 866.516 311.217 L 832.288 311.217 C 831.591 311.217 831.041 310.691 831.041 309.994 L 831.041 291.139 C 831.04 290.444 831.591 289.89 832.288 289.89 Z" style="fill: rgb(30, 30, 30);" transform="matrix(0.965926, -0.258819, 0.258819, 0.965926, -48.846143, 230.082603)"/>
  <path id="path93" d="M 766.912 305.927 C 765.238 305.927 763.848 307.313 763.848 308.99 L 763.848 327.845 C 763.848 329.525 765.234 330.881 766.912 330.881 L 798.646 330.881 C 800.323 330.881 801.711 329.525 801.711 327.845 L 801.711 308.99 C 801.711 307.313 800.324 305.927 798.646 305.927 L 766.912 305.927 Z M 766.912 307.741 L 798.646 307.741 C 799.342 307.741 799.893 308.296 799.893 308.99 L 799.893 327.845 C 799.893 328.543 799.342 329.068 798.646 329.068 L 766.912 329.068 C 766.217 329.068 765.664 328.542 765.664 327.845 L 765.664 308.99 C 765.664 308.295 766.22 307.741 766.912 307.741 Z" style="fill: rgb(30, 30, 30);" transform="matrix(0.965926, -0.258819, 0.258819, 0.965926, -55.736444, 213.447575)"/>
  <path id="path95" d="M 747.073 285.728 C 745.395 285.728 744.009 287.113 744.009 288.79 L 744.009 307.651 C 744.009 309.325 745.395 310.712 747.073 310.712 L 765.93 310.712 C 767.606 310.712 768.965 309.328 768.965 307.651 L 768.965 288.79 C 768.965 287.113 767.606 285.728 765.93 285.728 L 747.073 285.728 Z M 747.073 287.544 L 765.93 287.544 C 766.627 287.544 767.149 288.095 767.149 288.792 L 767.149 307.651 C 767.149 308.345 766.625 308.898 765.93 308.898 L 747.073 308.898 C 746.376 308.898 745.824 308.345 745.824 307.651 L 745.824 288.792 C 745.824 288.095 746.377 287.544 747.073 287.544 Z" style="fill: rgb(30, 30, 30);" transform="matrix(0.965926, -0.258819, 0.258819, 0.965926, -51.40834, 205.954814)"/>
  <path id="path97" d="M 393.935 434.838 C 392.258 434.838 390.873 436.225 390.873 437.903 L 390.873 456.734 C 390.873 458.411 392.258 459.797 393.935 459.797 L 412.792 459.797 C 414.469 459.797 415.827 458.411 415.827 456.734 L 415.827 437.903 C 415.827 436.225 414.469 434.838 412.792 434.838 L 393.935 434.838 Z M 393.935 436.656 L 412.792 436.656 C 413.489 436.656 414.013 437.208 414.013 437.903 L 414.013 456.734 C 414.013 457.431 413.489 457.982 412.792 457.982 L 393.935 457.982 C 393.238 457.982 392.686 457.429 392.686 456.734 L 392.686 437.903 C 392.687 437.208 393.238 436.656 393.935 436.656 Z" style="fill: rgb(30, 30, 30);" transform="matrix(0.965926, -0.258819, 0.258819, 0.965926, -102.030388, 119.636486)"/>
  <path id="path99" d="M 419.63 427.949 C 417.952 427.949 416.567 429.336 416.567 431.014 L 416.567 449.845 C 416.567 451.522 417.952 452.908 419.63 452.908 L 438.486 452.908 C 440.164 452.908 441.548 451.522 441.548 449.845 L 441.548 431.014 C 441.548 429.336 440.163 427.949 438.486 427.949 L 419.63 427.949 Z M 419.63 429.767 L 438.486 429.767 C 439.183 429.767 439.735 430.319 439.735 431.014 L 439.735 449.845 C 439.735 450.542 439.183 451.093 438.486 451.093 L 419.63 451.093 C 418.932 451.093 418.38 450.54 418.38 449.845 L 418.38 431.014 C 418.38 430.319 418.932 429.767 419.63 429.767 Z" style="fill: rgb(30, 30, 30);" transform="matrix(0.965926, -0.258819, 0.258819, 0.965926, -99.371549, 126.055563)"/>
  <path id="path101" d="M 445.321 421.062 C 443.645 421.062 442.286 422.449 442.286 424.127 L 442.286 442.958 C 442.286 444.635 443.645 446.021 445.321 446.021 L 464.179 446.021 C 465.707 446.021 466.941 444.854 467.157 443.384 C 467.169 443.355 467.178 443.328 467.185 443.298 C 467.226 443.19 467.244 443.074 467.241 442.958 L 467.241 424.129 C 467.241 422.45 465.854 421.066 464.178 421.066 L 445.321 421.066 L 445.321 421.062 Z M 445.321 422.88 L 464.179 422.88 C 464.876 422.88 465.428 423.432 465.428 424.127 L 465.428 442.815 C 465.426 442.845 465.426 442.873 465.428 442.902 L 465.428 442.958 C 465.428 443.655 464.875 444.206 464.179 444.206 L 445.321 444.206 C 444.625 444.206 444.103 443.653 444.103 442.958 L 444.103 424.127 C 444.103 423.432 444.625 422.88 445.321 422.88 L 445.321 422.88 Z" style="fill: rgb(30, 30, 30);" transform="matrix(0.965926, -0.258819, 0.258819, 0.965926, -96.713157, 132.474177)"/>
  <path id="path103" d="M 471.044 414.177 C 469.368 414.177 467.983 415.564 467.983 417.242 L 467.983 436.073 C 467.983 437.75 469.367 439.136 471.044 439.136 L 489.903 439.136 C 491.579 439.136 492.935 437.75 492.935 436.073 L 492.935 417.242 C 492.935 415.564 491.578 414.177 489.903 414.177 L 471.044 414.177 L 471.044 414.177 Z M 471.044 415.995 L 489.903 415.995 C 490.599 415.995 491.122 416.547 491.122 417.242 L 491.122 436.073 C 491.122 436.77 490.599 437.321 489.903 437.321 L 471.044 437.321 C 470.349 437.321 469.795 436.768 469.795 436.073 L 469.795 417.242 C 469.796 416.547 470.347 415.995 471.044 415.995 L 471.044 415.995 Z" style="fill: rgb(30, 30, 30);" transform="matrix(0.965926, -0.258819, 0.258819, 0.965926, -94.055641, 138.890014)"/>
  <path id="path105" d="M 496.736 407.289 C 495.06 407.289 493.673 408.676 493.673 410.354 L 493.673 429.185 C 493.673 430.862 495.06 432.248 496.736 432.248 L 515.593 432.248 C 517.269 432.248 518.656 430.862 518.656 429.185 L 518.656 410.354 C 518.656 408.676 517.269 407.289 515.593 407.289 L 496.736 407.289 Z M 496.736 409.107 L 515.593 409.107 C 516.289 409.107 516.84 409.659 516.84 410.354 L 516.84 429.185 C 516.84 429.882 516.289 430.433 515.593 430.433 L 496.736 430.433 C 496.04 430.433 495.488 429.88 495.488 429.185 L 495.488 410.354 C 495.488 409.659 496.04 409.107 496.736 409.107 Z" style="fill: rgb(30, 30, 30);" transform="matrix(0.965926, -0.258819, 0.258819, 0.965926, -91.397002, 145.308387)"/>
  <path id="path107" d="M 522.435 400.399 C 520.759 400.399 519.4 401.786 519.4 403.464 L 519.4 422.295 C 519.4 423.972 520.759 425.358 522.435 425.358 L 541.294 425.358 C 542.97 425.358 544.358 423.972 544.358 422.295 L 544.358 403.464 C 544.358 401.786 542.97 400.399 541.294 400.399 L 522.435 400.399 Z M 522.435 402.217 L 541.294 402.217 C 541.991 402.217 542.541 402.769 542.541 403.464 L 542.541 422.295 C 542.541 422.992 541.988 423.543 541.294 423.543 L 522.435 423.543 C 521.739 423.543 521.216 422.99 521.216 422.295 L 521.216 403.464 C 521.216 402.769 521.739 402.217 522.435 402.217 Z" style="fill: rgb(30, 30, 30);" transform="matrix(0.965926, -0.258819, 0.258819, 0.965926, -88.73753, 151.729039)"/>
  <path id="path109" d="M 548.153 393.515 C 546.479 393.515 545.092 394.902 545.092 396.58 L 545.092 415.411 C 545.092 417.088 546.477 418.474 548.153 418.474 L 567.012 418.474 C 568.689 418.474 570.046 417.088 570.046 415.411 L 570.046 396.58 C 570.046 394.902 568.689 393.515 567.012 393.515 L 548.153 393.515 Z M 548.153 395.333 L 567.012 395.333 C 567.709 395.333 568.232 395.885 568.232 396.58 L 568.232 415.411 C 568.232 416.108 567.707 416.659 567.012 416.659 L 548.153 416.659 C 547.457 416.659 546.906 416.106 546.906 415.411 L 546.906 396.58 C 546.906 395.885 547.459 395.333 548.153 395.333 Z" style="fill: rgb(30, 30, 30);" transform="matrix(0.965926, -0.258819, 0.258819, 0.965926, -86.080343, 158.143224)"/>
  <path id="path111" d="M 573.847 386.627 C 572.17 386.627 570.783 388.014 570.783 389.692 L 570.783 408.523 C 570.783 410.2 572.168 411.586 573.847 411.586 L 592.704 411.586 C 594.38 411.586 595.765 410.2 595.765 408.523 L 595.765 389.692 C 595.765 388.014 594.38 386.627 592.704 386.627 L 573.847 386.627 Z M 573.847 388.445 L 592.704 388.445 C 593.4 388.445 593.951 388.997 593.951 389.692 L 593.951 408.523 C 593.951 409.22 593.4 409.771 592.704 409.771 L 573.847 409.771 C 573.148 409.771 572.597 409.218 572.597 408.523 L 572.597 389.692 C 572.597 388.997 573.148 388.445 573.847 388.445 Z" style="fill: rgb(30, 30, 30);" transform="matrix(0.965926, -0.258819, 0.258819, 0.965926, -83.421834, 164.561784)"/>
  <path id="path113" d="M 599.537 379.74 C 597.861 379.74 596.502 381.127 596.502 382.805 L 596.502 401.636 C 596.502 403.313 597.861 404.699 599.537 404.699 L 618.394 404.699 C 620.07 404.699 621.457 403.313 621.457 401.636 L 621.457 382.805 C 621.457 381.127 620.07 379.74 618.394 379.74 L 599.537 379.74 Z M 599.537 381.558 L 618.394 381.558 C 619.09 381.558 619.641 382.11 619.641 382.805 L 619.641 401.636 C 619.641 402.333 619.09 402.884 618.394 402.884 L 599.537 402.884 C 598.841 402.884 598.317 402.331 598.317 401.636 L 598.317 382.805 C 598.317 382.11 598.841 381.558 599.537 381.558 Z" style="fill: rgb(30, 30, 30);" transform="matrix(0.965926, -0.258819, 0.258819, 0.965926, -80.763344, 170.979855)"/>
  <path id="path115" d="M 625.264 372.854 C 623.588 372.854 622.201 374.241 622.201 375.919 L 622.201 394.75 C 622.201 396.427 623.588 397.813 625.264 397.813 L 644.123 397.813 C 645.797 397.813 647.155 396.427 647.155 394.75 L 647.155 375.919 C 647.155 374.242 645.797 372.854 644.123 372.854 L 625.264 372.854 Z M 625.264 374.672 L 644.123 374.672 C 644.818 374.672 645.342 375.224 645.342 375.919 L 645.342 394.75 C 645.342 395.447 644.817 395.998 644.123 395.998 L 625.264 395.998 C 624.567 395.998 624.017 395.445 624.017 394.75 L 624.017 375.919 C 624.017 375.224 624.567 374.672 625.264 374.672 Z" style="fill: rgb(30, 30, 30);" transform="matrix(0.965926, -0.258819, 0.258819, 0.965926, -78.105463, 177.396472)"/>
  <path id="path117" d="M 650.955 365.966 C 649.281 365.966 647.893 367.353 647.893 369.031 L 647.893 387.862 C 647.893 389.539 649.279 390.925 650.955 390.925 L 669.813 390.925 C 671.487 390.925 672.875 389.539 672.875 387.862 L 672.875 369.031 C 672.875 367.353 671.49 365.966 669.813 365.966 L 650.955 365.966 Z M 650.955 367.784 L 669.813 367.784 C 670.51 367.784 671.062 368.336 671.062 369.031 L 671.062 387.862 C 671.062 388.559 670.505 389.11 669.813 389.11 L 650.955 389.11 C 650.258 389.11 649.708 388.557 649.708 387.862 L 649.708 369.031 C 649.708 368.336 650.258 367.784 650.955 367.784 Z" style="fill: rgb(30, 30, 30);" transform="matrix(0.965926, -0.258819, 0.258819, 0.965926, -75.446902, 183.815327)"/>
  <path id="path119" d="M 676.645 359.078 C 674.971 359.078 673.613 360.465 673.613 362.143 L 673.613 380.974 C 673.613 382.651 674.971 384.037 676.645 384.037 L 695.505 384.037 C 697.181 384.037 698.569 382.651 698.569 380.974 L 698.569 362.143 C 698.569 360.465 697.181 359.078 695.505 359.078 L 676.645 359.078 Z M 676.645 360.896 L 695.505 360.896 C 696.201 360.896 696.752 361.448 696.752 362.143 L 696.752 380.974 C 696.752 381.671 696.198 382.222 695.505 382.222 L 676.645 382.222 C 675.95 382.222 675.427 381.669 675.427 380.974 L 675.427 362.143 C 675.427 361.448 675.951 360.896 676.645 360.896 Z" style="fill: rgb(30, 30, 30);" transform="matrix(0.965926, -0.258819, 0.258819, 0.965926, -72.788118, 190.233706)"/>
  <path id="path121" d="M 702.374 352.192 C 700.698 352.192 699.312 353.579 699.312 355.257 L 699.312 374.088 C 699.312 375.765 700.695 377.151 702.374 377.151 L 721.234 377.151 C 722.908 377.151 724.266 375.765 724.266 374.088 L 724.266 355.257 C 724.266 353.579 722.908 352.192 721.234 352.192 L 702.374 352.192 Z M 702.374 354.01 L 721.234 354.01 C 721.928 354.01 722.452 354.562 722.452 355.257 L 722.452 374.088 C 722.452 374.785 721.928 375.336 721.234 375.336 L 702.374 375.336 C 701.678 375.336 701.125 374.783 701.125 374.088 L 701.125 355.257 C 701.125 354.562 701.678 354.01 702.374 354.01 Z" style="fill: rgb(30, 30, 30);" transform="matrix(0.965926, -0.258819, 0.258819, 0.965926, -70.130264, 196.650213)"/>
  <path id="path123" d="M 728.065 345.304 C 726.391 345.304 725.003 346.691 725.003 348.369 L 725.003 367.2 C 725.003 368.877 726.388 370.263 728.065 370.263 L 746.922 370.263 C 748.598 370.263 749.985 368.877 749.985 367.2 L 749.985 348.369 C 749.985 346.692 748.599 345.304 746.922 345.304 L 728.065 345.304 Z M 728.065 347.122 L 746.922 347.122 C 747.619 347.122 748.17 347.674 748.17 348.369 L 748.17 367.2 C 748.17 367.897 747.618 368.448 746.922 368.448 L 728.065 368.448 C 727.368 368.448 726.817 367.895 726.817 367.2 L 726.817 348.369 C 726.817 347.674 727.369 347.122 728.065 347.122 Z" style="fill: rgb(30, 30, 30);" transform="matrix(0.965926, -0.258819, 0.258819, 0.965926, -67.471714, 203.068824)"/>
  <path id="path125" d="M 839.099 313.493 C 837.424 313.493 836.036 314.88 836.036 316.558 L 836.036 335.389 C 836.036 337.066 837.423 338.452 839.099 338.452 L 873.327 338.452 C 875.003 338.452 876.391 337.066 876.391 335.389 L 876.391 316.558 C 876.391 314.88 875.004 313.493 873.327 313.493 L 839.099 313.493 Z M 839.099 315.311 L 873.327 315.311 C 874.023 315.311 874.576 315.863 874.576 316.558 L 874.576 335.389 C 874.576 336.086 874.021 336.637 873.327 336.637 L 839.099 336.637 C 838.402 336.637 837.852 336.084 837.852 335.389 L 837.852 316.558 C 837.851 315.863 838.402 315.311 839.099 315.311 Z" style="fill: rgb(30, 30, 30);" transform="matrix(0.965926, -0.258819, 0.258819, 0.965926, -55.193132, 232.711675)"/>
  <path id="path127" d="M 754.034 334.945 C 752.358 334.945 750.973 336.332 750.973 338.01 L 750.973 356.841 C 750.973 358.518 752.357 359.904 754.034 359.904 L 798.302 359.904 C 799.977 359.904 801.335 358.518 801.335 356.841 L 801.335 338.01 C 801.335 336.332 799.977 334.945 798.302 334.945 L 754.034 334.945 Z M 754.034 336.763 L 798.302 336.763 C 798.998 336.763 799.522 337.315 799.522 338.01 L 799.522 356.841 C 799.522 357.538 798.997 358.089 798.302 358.089 L 754.034 358.089 C 753.338 358.089 752.788 357.536 752.788 356.841 L 752.788 338.01 C 752.788 337.315 753.339 336.763 754.034 336.763 Z" style="fill: rgb(30, 30, 30);" transform="matrix(0.965926, -0.258819, 0.258819, 0.965926, -63.473246, 212.721524)"/>
  <path id="path129" d="M 400.746 460.262 C 399.069 460.262 397.684 461.62 397.684 463.294 L 397.684 482.154 C 397.684 483.829 399.069 485.216 400.746 485.216 L 419.603 485.216 C 421.28 485.216 422.638 483.832 422.638 482.154 L 422.638 463.294 C 422.638 461.617 421.28 460.262 419.603 460.262 L 400.746 460.262 Z M 400.746 462.075 L 419.603 462.075 C 420.3 462.075 420.824 462.6 420.824 463.294 L 420.824 482.154 C 420.824 482.85 420.3 483.401 419.603 483.401 L 400.746 483.401 C 400.049 483.401 399.497 482.848 399.497 482.154 L 399.497 463.294 C 399.498 462.599 400.049 462.075 400.746 462.075 Z" style="fill: rgb(30, 30, 30);" transform="matrix(0.965926, -0.258819, 0.258819, 0.965926, -108.377863, 122.265533)"/>
  <path id="path131" d="M 426.222 451.707 C 424.544 451.707 423.159 453.065 423.159 454.739 L 423.159 473.599 C 423.159 475.274 424.544 476.661 426.222 476.661 L 457.955 476.661 C 459.48 476.661 460.715 475.493 460.932 474.024 C 460.932 474.015 460.932 474.005 460.932 473.997 C 460.935 473.976 460.957 473.959 460.96 473.94 C 460.994 473.847 461.012 473.752 461.018 473.656 C 461.018 473.635 461.018 473.618 461.018 473.599 L 461.018 454.739 C 461.018 453.062 459.631 451.707 457.955 451.707 L 426.222 451.707 L 426.222 451.707 Z M 426.222 453.52 L 457.955 453.52 C 458.65 453.52 459.203 454.045 459.203 454.739 L 459.203 473.541 L 459.203 473.599 C 459.203 474.295 458.65 474.846 457.955 474.846 L 426.222 474.846 C 425.524 474.846 424.972 474.294 424.972 473.599 L 424.972 454.739 C 424.972 454.044 425.524 453.52 426.222 453.52 L 426.222 453.52 Z" style="fill: rgb(30, 30, 30);" transform="matrix(0.965926, -0.258819, 0.258819, 0.965926, -105.075753, 130.237428)"/>
  <path id="path133" d="M 464.597 443.153 C 462.921 443.153 461.535 444.511 461.535 446.185 L 461.535 465.045 C 461.535 466.72 462.921 468.107 464.597 468.107 L 483.455 468.107 C 485.133 468.107 486.489 466.723 486.489 465.045 L 486.489 446.185 C 486.489 444.508 485.133 443.153 483.455 443.153 L 464.597 443.153 Z M 464.597 444.966 L 483.455 444.966 C 484.151 444.966 484.676 445.491 484.676 446.185 L 484.676 465.045 C 484.676 465.741 484.151 466.292 483.455 466.292 L 464.597 466.292 C 463.901 466.292 463.349 465.739 463.349 465.045 L 463.349 446.185 C 463.35 445.49 463.901 444.966 464.597 444.966 Z" style="fill: rgb(30, 30, 30);" transform="matrix(0.965926, -0.258819, 0.258819, 0.965926, -101.774217, 138.208668)"/>
  <path id="path135" d="M 490.293 436.264 C 488.616 436.264 487.23 437.622 487.23 439.296 L 487.23 458.156 C 487.23 459.831 488.616 461.218 490.293 461.218 L 509.151 461.218 C 510.828 461.218 512.214 459.834 512.214 458.156 L 512.214 439.296 C 512.214 437.619 510.828 436.264 509.151 436.264 L 490.293 436.264 Z M 490.293 438.077 L 509.151 438.077 C 509.847 438.077 510.399 438.602 510.399 439.296 L 510.399 458.156 C 510.399 458.852 509.847 459.403 509.151 459.403 L 490.293 459.403 C 489.597 459.403 489.044 458.85 489.044 458.156 L 489.044 439.296 C 489.044 438.601 489.596 438.077 490.293 438.077 Z" style="fill: rgb(30, 30, 30);" transform="matrix(0.965926, -0.258819, 0.258819, 0.965926, -99.115023, 144.627877)"/>
  <path id="path137" d="M 516.011 429.377 C 514.335 429.377 512.948 430.735 512.948 432.409 L 512.948 451.269 C 512.948 452.944 514.335 454.331 516.011 454.331 L 534.841 454.331 C 536.518 454.331 537.905 452.947 537.905 451.269 L 537.905 432.409 C 537.905 430.732 536.518 429.377 534.841 429.377 L 516.011 429.377 Z M 516.011 431.19 L 534.841 431.19 C 535.539 431.19 536.089 431.714 536.089 432.409 L 536.089 451.269 C 536.089 451.965 535.539 452.516 534.841 452.516 L 516.011 452.516 C 515.315 452.516 514.763 451.963 514.763 451.269 L 514.763 432.409 C 514.763 431.714 515.315 431.19 516.011 431.19 Z" style="fill: rgb(30, 30, 30);" transform="matrix(0.965926, -0.258819, 0.258819, 0.965926, -96.456809, 151.046311)"/>
  <path id="path139" d="M 474.192 438.879 C 472.517 438.879 471.129 440.263 471.129 441.941 L 471.129 460.798 C 471.129 462.475 472.515 463.863 474.192 463.863 L 708.882 463.863 C 710.559 463.863 711.946 462.476 711.946 460.798 L 711.946 441.941 C 711.946 440.264 710.559 438.879 708.882 438.879 L 474.192 438.879 Z M 474.192 440.694 L 708.882 440.694 C 709.579 440.694 710.129 441.246 710.129 441.941 L 710.129 460.798 C 710.129 461.495 709.576 462.047 708.882 462.047 L 474.192 462.047 C 473.497 462.047 472.945 461.495 472.945 460.798 L 472.945 441.941 C 472.945 441.245 473.495 440.694 474.192 440.694 Z" style="fill: rgb(30, 30, 30);" transform="matrix(0.965926, -0.258819, 0.258819, 0.965926, -96.667313, 168.481391)"/>
  <path id="path141" d="M 541.704 422.492 C 540.027 422.492 538.642 423.85 538.642 425.524 L 538.642 444.384 C 538.642 446.059 540.026 447.446 541.704 447.446 L 560.561 447.446 C 562.238 447.446 563.597 446.062 563.597 444.384 L 563.597 425.524 C 563.597 423.847 562.238 422.492 560.561 422.492 L 541.704 422.492 Z M 541.704 424.305 L 560.561 424.305 C 561.258 424.305 561.783 424.83 561.783 425.524 L 561.783 444.384 C 561.783 445.08 561.258 445.631 560.561 445.631 L 541.704 445.631 C 541.008 445.631 540.455 445.079 540.455 444.384 L 540.455 425.524 C 540.455 424.829 541.006 424.305 541.704 424.305 Z" style="fill: rgb(30, 30, 30);" transform="matrix(0.965926, -0.258819, 0.258819, 0.965926, -93.79937, 157.461562)"/>
  <path id="path143" d="M 567.403 415.603 C 565.727 415.603 564.341 416.961 564.341 418.635 L 564.341 437.495 C 564.341 439.17 565.727 440.557 567.403 440.557 L 586.261 440.557 C 587.939 440.557 589.325 439.173 589.325 437.495 L 589.325 418.635 C 589.325 416.958 587.939 415.603 586.261 415.603 L 567.403 415.603 Z M 567.403 417.416 L 586.261 417.416 C 586.96 417.416 587.51 417.94 587.51 418.635 L 587.51 437.495 C 587.51 438.191 586.958 438.742 586.261 438.742 L 567.403 438.742 C 566.707 438.742 566.155 438.189 566.155 437.495 L 566.155 418.635 C 566.155 417.94 566.707 417.416 567.403 417.416 Z" style="fill: rgb(30, 30, 30);" transform="matrix(0.965926, -0.258819, 0.258819, 0.965926, -91.140209, 163.881976)"/>
  <path id="path145" d="M 593.122 408.715 C 591.446 408.715 590.059 410.073 590.059 411.747 L 590.059 430.607 C 590.059 432.282 591.445 433.669 593.122 433.669 L 611.951 433.669 C 613.628 433.669 615.013 432.285 615.013 430.607 L 615.013 411.747 C 615.013 410.07 613.628 408.715 611.951 408.715 L 593.122 408.715 Z M 593.122 410.528 L 611.951 410.528 C 612.647 410.528 613.2 411.053 613.2 411.747 L 613.2 430.607 C 613.2 431.303 612.647 431.854 611.951 431.854 L 593.122 431.854 C 592.425 431.854 591.873 431.302 591.873 430.607 L 591.873 411.747 C 591.873 411.052 592.427 410.528 593.122 410.528 Z" style="fill: rgb(30, 30, 30);" transform="matrix(0.965926, -0.258819, 0.258819, 0.965926, -88.481526, 170.299374)"/>
  <path id="path147" d="M 618.814 401.831 C 617.137 401.831 615.75 403.189 615.75 404.863 L 615.75 423.723 C 615.75 425.398 617.137 426.785 618.814 426.785 L 637.671 426.785 C 639.348 426.785 640.707 425.401 640.707 423.723 L 640.707 404.863 C 640.707 403.186 639.348 401.831 637.671 401.831 L 618.814 401.831 Z M 618.814 403.644 L 637.671 403.644 C 638.367 403.644 638.891 404.168 638.891 404.863 L 638.891 423.723 C 638.891 424.419 638.367 424.97 637.671 424.97 L 618.814 424.97 C 618.119 424.97 617.565 424.417 617.565 423.723 L 617.565 404.863 C 617.566 404.168 618.116 403.644 618.814 403.644 Z" style="fill: rgb(30, 30, 30);" transform="matrix(0.965926, -0.258819, 0.258819, 0.965926, -85.824472, 176.714842)"/>
  <path id="path149" d="M 644.514 394.941 C 642.839 394.941 641.451 396.299 641.451 397.973 L 641.451 416.833 C 641.451 418.508 642.838 419.895 644.514 419.895 L 663.372 419.895 C 665.049 419.895 666.436 418.511 666.436 416.833 L 666.436 397.973 C 666.436 396.296 665.049 394.941 663.372 394.941 L 644.514 394.941 Z M 644.514 396.754 L 663.372 396.754 C 664.068 396.754 664.62 397.279 664.62 397.973 L 664.62 416.833 C 664.62 417.529 664.067 418.08 663.372 418.08 L 644.514 418.08 C 643.818 418.08 643.266 417.528 643.266 416.833 L 643.266 397.973 C 643.266 397.278 643.82 396.754 644.514 396.754 Z" style="fill: rgb(30, 30, 30);" transform="matrix(0.965926, -0.258819, 0.258819, 0.965926, -83.164894, 183.135253)"/>
  <path id="path151" d="M 670.232 388.053 C 668.556 388.053 667.17 389.408 667.17 391.085 L 667.17 409.945 C 667.17 411.62 668.556 413.007 670.232 413.007 L 689.062 413.007 C 690.74 413.007 692.126 411.623 692.126 409.945 L 692.126 391.085 C 692.126 389.408 690.74 388.053 689.062 388.053 L 670.232 388.053 Z M 670.232 389.866 L 689.062 389.866 C 689.759 389.866 690.311 390.391 690.311 391.085 L 690.311 409.945 C 690.311 410.641 689.758 411.192 689.062 411.192 L 670.232 411.192 C 669.536 411.192 668.986 410.639 668.986 409.945 L 668.986 391.085 C 668.986 390.39 669.536 389.866 670.232 389.866 Z" style="fill: rgb(30, 30, 30);" transform="matrix(0.965926, -0.258819, 0.258819, 0.965926, -80.506296, 189.553352)"/>
  <path id="path153" d="M 695.924 381.17 C 694.248 381.17 692.861 382.525 692.861 384.202 L 692.861 403.062 C 692.861 404.737 694.247 406.124 695.924 406.124 L 714.782 406.124 C 716.459 406.124 717.815 404.74 717.815 403.062 L 717.815 384.202 C 717.815 382.525 716.459 381.17 714.782 381.17 L 695.924 381.17 Z M 695.924 382.983 L 714.782 382.983 C 715.478 382.983 716.002 383.508 716.002 384.202 L 716.002 403.062 C 716.002 403.758 715.477 404.309 714.782 404.309 L 695.924 404.309 C 695.227 404.309 694.677 403.756 694.677 403.062 L 694.677 384.202 C 694.675 383.507 695.229 382.983 695.924 382.983 Z" style="fill: rgb(30, 30, 30);" transform="matrix(0.965926, -0.258819, 0.258819, 0.965926, -77.849568, 195.968262)"/>
  <path id="path155" d="M 721.378 372.476 C 719.703 372.476 718.313 373.831 718.313 375.508 L 718.313 394.368 C 718.313 396.043 719.699 397.43 721.378 397.43 L 754.188 397.43 C 755.865 397.43 757.251 396.046 757.251 394.368 L 757.251 375.508 C 757.251 373.831 755.865 372.476 754.188 372.476 L 721.378 372.476 Z M 721.378 374.289 L 754.188 374.289 C 754.884 374.289 755.436 374.814 755.436 375.508 L 755.436 394.368 C 755.436 395.064 754.882 395.615 754.188 395.615 L 721.378 395.615 C 720.682 395.615 720.131 395.062 720.131 394.368 L 720.131 375.508 C 720.129 374.813 720.682 374.289 721.378 374.289 Z" style="fill: rgb(30, 30, 30);" transform="matrix(0.965926, -0.258819, 0.258819, 0.965926, -74.493895, 204.069136)"/>
  <path id="path157" d="M 760.131 363.965 C 758.456 363.965 757.069 365.323 757.069 366.997 L 757.069 385.857 C 757.069 387.532 758.456 388.919 760.131 388.919 L 778.961 388.919 C 780.636 388.919 782.025 387.535 782.025 385.857 L 782.025 366.997 C 782.025 365.32 780.639 363.965 778.961 363.965 L 760.131 363.965 Z M 760.131 365.778 L 778.961 365.778 C 779.658 365.778 780.209 366.302 780.209 366.997 L 780.209 385.857 C 780.209 386.553 779.657 387.104 778.961 387.104 L 760.131 387.104 C 759.435 387.104 758.885 386.552 758.885 385.857 L 758.885 366.997 C 758.885 366.302 759.437 365.778 760.131 365.778 Z" style="fill: rgb(30, 30, 30);" transform="matrix(0.965926, -0.258819, 0.258819, 0.965926, -71.208642, 212.000134)"/>
  <path id="path159" d="M 845.911 338.917 C 844.236 338.917 842.848 340.275 842.848 341.949 L 842.848 360.809 C 842.848 362.484 844.235 363.871 845.911 363.871 L 880.139 363.871 C 881.815 363.871 883.203 362.487 883.203 360.809 L 883.203 341.949 C 883.203 340.272 881.816 338.917 880.139 338.917 L 845.911 338.917 Z M 845.911 340.73 L 880.139 340.73 C 880.835 340.73 881.388 341.255 881.388 341.949 L 881.388 360.809 C 881.388 361.505 880.833 362.056 880.139 362.056 L 845.911 362.056 C 845.214 362.056 844.664 361.504 844.664 360.809 L 844.664 341.949 C 844.663 341.254 845.214 340.73 845.911 340.73 Z" style="fill: rgb(30, 30, 30);" transform="matrix(0.965926, -0.258819, 0.258819, 0.965926, -61.540582, 235.340977)"/>
  <path id="path161" d="M 785.824 357.081 C 784.148 357.081 782.759 358.439 782.759 360.113 L 782.759 378.973 C 782.759 380.648 784.145 382.035 785.824 382.035 L 804.682 382.035 C 806.357 382.035 807.715 380.651 807.715 378.973 L 807.715 360.113 C 807.715 358.436 806.355 357.081 804.682 357.081 L 785.824 357.081 Z M 785.824 358.894 L 804.682 358.894 C 805.378 358.894 805.902 359.419 805.902 360.113 L 805.902 378.973 C 805.902 379.669 805.375 380.22 804.682 380.22 L 785.824 380.22 C 785.127 380.22 784.575 379.668 784.575 378.973 L 784.575 360.113 C 784.573 359.418 785.125 358.894 785.824 358.894 Z" style="fill: rgb(30, 30, 30);" transform="matrix(0.965926, -0.258819, 0.258819, 0.965926, -68.551633, 218.415021)"/>
  <path id="path163" d="M 772.764 278.84 C 771.087 278.84 769.701 280.225 769.701 281.902 L 769.701 300.763 C 769.701 302.439 771.085 303.824 772.764 303.824 L 791.621 303.824 C 793.297 303.824 794.685 302.439 794.685 300.763 L 794.685 281.902 C 794.685 280.225 793.297 278.84 791.621 278.84 L 772.764 278.84 Z M 772.764 280.656 L 791.621 280.656 C 792.32 280.656 792.869 281.207 792.869 281.904 L 792.869 300.763 C 792.869 301.458 792.317 302.01 791.621 302.01 L 772.764 302.01 C 772.068 302.01 771.517 301.457 771.517 300.763 L 771.517 281.904 C 771.517 281.207 772.068 280.656 772.764 280.656 Z" style="fill: rgb(30, 30, 30);" transform="matrix(0.965926, -0.258819, 0.258819, 0.965926, -48.749679, 212.373202)"/>
  <path id="path165" d="M 825.481 262.655 C 823.806 262.655 822.418 264.04 822.418 265.717 L 822.418 284.578 C 822.418 286.252 823.805 287.639 825.481 287.639 L 859.709 287.639 C 861.385 287.639 862.773 286.255 862.773 284.578 L 862.773 265.717 C 862.773 264.04 861.386 262.655 859.709 262.655 L 825.481 262.655 Z M 825.481 264.471 L 859.709 264.471 C 860.405 264.471 860.958 265.022 860.958 265.719 L 860.958 284.578 C 860.958 285.272 860.403 285.825 859.709 285.825 L 825.481 285.825 C 824.784 285.825 824.234 285.272 824.234 284.578 L 824.234 265.719 C 824.233 265.022 824.784 264.471 825.481 264.471 Z" style="fill: rgb(30, 30, 30);" transform="matrix(0.965926, -0.258819, 0.258819, 0.965926, -42.502542, 227.455241)"/>
  <path id="polygon167" d="M 388.967 326.615 C 388.498 326.659 388.143 327.054 388.144 327.523 L 388.144 379.248 L 381.905 379.248 C 381.403 379.248 380.997 379.656 380.997 380.158 L 380.997 436.334 C 380.997 436.835 381.402 437.24 381.905 437.24 L 453.313 437.24 L 453.313 462.11 C 453.313 462.613 453.719 463.02 454.219 463.02 L 699.435 463.02 C 699.938 463.02 700.345 462.613 700.345 462.11 L 700.345 436.9 L 809.696 436.9 C 810.198 436.9 810.602 436.494 810.602 435.994 L 810.602 384.27 L 817.55 384.27 C 818.053 384.27 818.458 383.863 818.458 383.361 L 818.458 327.524 C 818.458 327.023 818.053 326.617 817.55 326.617 L 389.05 326.617 C 389.022 326.614 388.994 326.614 388.967 326.615 L 388.967 326.615 Z M 389.958 328.432 L 816.644 328.432 L 816.644 382.454 L 809.693 382.454 C 809.195 382.454 808.788 382.859 808.788 383.361 L 808.788 435.085 L 699.436 435.085 C 698.935 435.085 698.531 435.493 698.531 435.994 L 698.531 461.205 L 455.127 461.205 L 455.127 436.334 C 455.127 435.834 454.722 435.428 454.219 435.428 L 382.813 435.428 L 382.813 381.066 L 389.053 381.066 C 389.553 381.066 389.96 380.658 389.96 380.158 L 389.958 328.432 L 389.958 328.432 Z" style="fill: rgb(30, 30, 30);" transform="matrix(0.965926, -0.258819, 0.258819, 0.965926, -81.751031, 168.674103)"/>
  <path id="rect169" d="M 830.99 258.901 C 830.534 258.958 830.193 259.349 830.196 259.807 L 830.196 367.199 C 830.196 367.699 830.603 368.107 831.103 368.107 L 874.407 368.107 C 874.909 368.107 875.316 367.699 875.316 367.199 L 875.316 259.807 C 875.316 259.307 874.909 258.901 874.407 258.901 L 831.103 258.901 C 831.065 258.898 831.027 258.898 830.99 258.901 Z M 832.011 260.716 L 873.499 260.716 L 873.499 366.29 L 832.011 366.29 L 832.011 260.716 Z" style="fill: rgb(30, 30, 30);" transform="matrix(0.965926, -0.258819, 0.258819, 0.965926, -52.083545, 231.391692)"/>
  <path id="path171" d="M 375.767 304.678 C 373.497 304.678 371.627 306.519 371.627 308.789 L 371.627 456.988 C 371.627 459.257 373.496 461.13 375.767 461.13 L 917.383 461.129 C 919.652 461.129 921.493 459.259 921.493 456.987 L 921.493 308.788 C 921.493 306.518 919.652 304.677 917.383 304.677 L 375.767 304.678 L 375.767 304.678 Z M 375.767 306.492 L 917.383 306.491 C 918.672 306.491 919.68 307.499 919.68 308.788 L 919.68 456.987 C 919.68 458.275 918.672 459.312 917.383 459.312 L 375.767 459.313 C 374.477 459.313 373.441 458.276 373.441 456.988 L 373.441 308.789 C 373.441 307.498 374.477 306.492 375.767 306.492 L 375.767 306.492 Z" style="fill: rgb(30, 30, 30);" transform="matrix(0.965926, -0.258819, 0.258819, 0.965926, -77.071668, 180.388958)"/>
  <path id="line173" d="M 883.683 193.667 C 883.183 193.667 882.776 194.072 882.776 194.573 C 882.776 194.584 882.776 194.593 882.776 194.602 L 882.776 197.75 C 882.768 198.252 883.169 198.663 883.672 198.671 C 884.171 198.677 884.584 198.276 884.59 197.776 C 884.59 197.767 884.59 197.759 884.59 197.75 L 884.59 194.602 C 884.607 194.102 884.213 193.683 883.714 193.668 C 883.703 193.667 883.694 193.667 883.683 193.667 Z" style="fill: rgb(30, 30, 30);" transform="matrix(0.965926, -0.258819, 0.258819, 0.965926, -20.661505, 235.39843)"/>
  <path id="line175" d="M 882.468 189.572 C 881.968 189.572 881.561 189.978 881.561 190.478 C 881.561 190.488 881.561 190.499 881.561 190.508 L 881.561 192.776 C 881.553 193.279 881.954 193.689 882.457 193.697 C 882.956 193.705 883.369 193.304 883.375 192.801 C 883.375 192.793 883.375 192.784 883.375 192.776 L 883.375 190.508 C 883.392 190.007 882.998 189.587 882.499 189.572 C 882.488 189.572 882.479 189.572 882.468 189.572 Z" style="fill: rgb(30, 30, 30);" transform="matrix(0.965926, -0.258819, 0.258819, 0.965926, -19.529295, 234.929445)"/>
  <path id="line177" d="M 881.109 184.288 C 880.655 184.347 880.315 184.736 880.318 185.196 L 880.318 188.742 C 880.312 189.243 880.711 189.654 881.213 189.662 C 881.713 189.669 882.126 189.268 882.134 188.766 C 882.134 188.759 882.134 188.749 882.134 188.742 L 882.134 185.196 C 882.137 184.696 881.735 184.286 881.233 184.282 C 881.191 184.282 881.152 184.283 881.109 184.288 Z" style="fill: rgb(30, 30, 30);" transform="matrix(0.965926, -0.258819, 0.258819, 0.965926, -18.364867, 234.449259)"/>
  <path id="line179" d="M 879.847 179.227 C 879.347 179.227 878.94 179.633 878.94 180.133 C 878.94 180.143 878.94 180.152 878.94 180.162 L 878.94 183.564 C 878.932 184.065 879.333 184.478 879.836 184.485 C 880.335 184.492 880.748 184.091 880.754 183.59 C 880.754 183.582 880.754 183.573 880.754 183.564 L 880.754 180.162 C 880.771 179.66 880.377 179.241 879.878 179.227 C 879.867 179.227 879.858 179.227 879.847 179.227 Z" style="fill: rgb(30, 30, 30);" transform="matrix(0.965926, -0.258819, 0.258819, 0.965926, -17.087737, 233.917884)"/>
  <path id="line181" d="M 878.422 174.434 C 877.957 174.493 877.612 174.9 877.631 175.37 L 877.631 178.546 C 877.625 179.046 878.024 179.46 878.526 179.467 C 879.026 179.473 879.439 179.072 879.447 178.572 C 879.447 178.563 879.447 178.554 879.447 178.546 L 879.447 175.37 C 879.467 174.87 879.076 174.448 878.575 174.428 C 878.524 174.426 878.473 174.428 878.422 174.434 Z" style="fill: rgb(30, 30, 30);" transform="matrix(0.965926, -0.258819, 0.258819, 0.965926, -15.861781, 233.41223)"/>
  <path id="line183" d="M 877.279 170.093 C 876.779 170.093 876.372 170.498 876.372 171 C 876.372 171.009 876.372 171.02 876.372 171.028 L 876.372 173.524 C 876.364 174.026 876.765 174.438 877.268 174.444 C 877.767 174.453 878.18 174.052 878.186 173.55 C 878.186 173.541 878.186 173.533 878.186 173.524 L 878.186 171.028 C 878.203 170.526 877.809 170.108 877.31 170.093 C 877.299 170.093 877.29 170.093 877.279 170.093 Z" style="fill: rgb(30, 30, 30);" transform="matrix(0.965926, -0.258819, 0.258819, 0.965926, -14.693841, 232.926308)"/>
  <path id="line185" d="M 339.874 314.06 C 339.416 314.118 339.075 314.508 339.079 314.967 L 339.079 317.519 C 339.071 318.021 339.473 318.433 339.973 318.441 C 340.474 318.448 340.887 318.047 340.895 317.545 C 340.895 317.538 340.895 317.528 340.895 317.519 L 340.895 314.967 C 340.897 314.465 340.494 314.058 339.995 314.054 C 339.953 314.051 339.912 314.056 339.874 314.06 Z" style="fill: rgb(30, 30, 30);" transform="matrix(0.965926, -0.258819, 0.258819, 0.965926, -70.265983, 98.770934)"/>
  <path id="line187" d="M 341.033 318.376 C 340.612 318.469 340.315 318.851 340.325 319.284 L 340.325 322.516 C 340.317 323.017 340.719 323.43 341.219 323.438 C 341.72 323.445 342.133 323.043 342.141 322.542 C 342.141 322.533 342.141 322.525 342.141 322.516 L 342.141 319.284 C 342.153 318.782 341.757 318.366 341.255 318.355 C 341.18 318.353 341.106 318.359 341.033 318.376 L 341.033 318.376 Z" style="fill: rgb(30, 30, 30);" transform="matrix(0.965926, -0.258819, 0.258819, 0.965926, -71.426846, 99.251866)"/>
  <path id="line189" d="M 342.398 323.612 C 341.977 323.707 341.68 324.087 341.69 324.521 L 341.69 327.47 C 341.682 327.972 342.084 328.383 342.584 328.391 C 343.085 328.399 343.498 327.998 343.506 327.496 C 343.506 327.488 343.506 327.478 343.506 327.472 L 343.506 324.521 C 343.518 324.021 343.122 323.606 342.62 323.593 C 342.545 323.59 342.471 323.598 342.398 323.612 L 342.398 323.612 Z" style="fill: rgb(30, 30, 30);" transform="matrix(0.965926, -0.258819, 0.258819, 0.965926, -72.699124, 99.778773)"/>
  <path id="line191" d="M 343.708 328.319 C 343.287 328.414 342.99 328.793 343 329.224 L 343 332.543 C 342.992 333.046 343.394 333.458 343.894 333.465 C 344.395 333.473 344.808 333.072 344.816 332.569 C 344.816 332.561 344.816 332.552 344.816 332.543 L 344.816 329.224 C 344.828 328.725 344.432 328.309 343.93 328.297 C 343.855 328.296 343.781 328.302 343.708 328.319 L 343.708 328.319 Z" style="fill: rgb(30, 30, 30);" transform="matrix(0.965926, -0.258819, 0.258819, 0.965926, -73.919907, 100.284426)"/>
  <path id="line193" d="M 345 333.65 C 344.579 333.745 344.282 334.124 344.292 334.558 L 344.292 336.856 C 344.284 337.356 344.686 337.769 345.186 337.775 C 345.687 337.783 346.1 337.382 346.108 336.882 C 346.108 336.873 346.108 336.864 346.108 336.856 L 346.108 334.558 C 346.12 334.057 345.724 333.64 345.222 333.628 C 345.147 333.627 345.073 333.635 345 333.65 L 345 333.65 Z" style="fill: rgb(30, 30, 30);" transform="matrix(0.965926, -0.258819, 0.258819, 0.965926, -75.123472, 100.782974)"/>
  <path id="line195" d="M 346.285 337.916 C 345.827 337.974 345.486 338.362 345.49 338.823 L 345.49 341.518 C 345.482 342.02 345.884 342.431 346.384 342.439 C 346.885 342.446 347.298 342.046 347.306 341.543 C 347.306 341.534 347.306 341.525 347.306 341.518 L 347.306 338.823 C 347.308 338.323 346.905 337.912 346.406 337.908 C 346.364 337.908 346.323 337.91 346.285 337.916 Z" style="fill: rgb(30, 30, 30);" transform="matrix(0.965926, -0.258819, 0.258819, 0.965926, -76.240155, 101.245498)"/>
  <path id="circle197" d="M 822.654 191.975 C 819.727 191.975 817.325 194.349 817.325 197.277 C 817.325 200.206 819.727 202.608 822.654 202.608 C 825.586 202.608 827.985 200.206 827.985 197.277 C 827.985 194.349 825.586 191.975 822.654 191.975 Z M 822.654 193.789 C 824.603 193.789 826.17 195.329 826.17 197.277 C 826.17 199.225 824.603 200.793 822.654 200.793 C 820.707 200.793 819.138 199.225 819.138 197.277 C 819.138 195.329 820.707 193.789 822.654 193.789 Z" style="fill: rgb(30, 30, 30);" transform="matrix(0.965926, -0.258819, 0.258819, 0.965926, -23.031507, 219.641311)"/>
</svg>