<?xml version="1.0" encoding="utf-8"?>
<svg xmlns="http://www.w3.org/2000/svg">
  <path id="path3" d="M 285.017 213.789 C 283.67 213.789 282.565 214.894 282.565 216.241 L 282.565 224.945 C 282.565 224.975 282.567 224.944 282.565 224.962 L 273.846 224.962 C 272.498 224.962 271.393 226.067 271.393 227.413 L 271.393 236.782 C 271.393 238.13 272.498 239.235 273.846 239.235 L 282.565 239.235 C 282.568 239.259 282.565 239.226 282.565 239.268 L 282.565 247.955 C 282.565 249.303 283.67 250.408 285.017 250.408 L 294.386 250.408 C 295.732 250.408 296.839 249.303 296.839 247.955 L 296.839 239.268 C 296.839 239.208 296.836 239.255 296.839 239.235 L 305.558 239.235 C 306.906 239.235 308.011 238.13 308.011 236.782 L 308.011 227.413 C 308.011 226.067 306.906 224.962 305.558 224.962 L 296.855 224.962 C 296.83 224.962 296.855 224.964 296.838 224.962 L 296.838 216.242 C 296.838 214.895 295.732 213.79 294.386 213.79 L 285.017 213.79 L 285.017 213.789 Z M 285.017 214.828 L 294.386 214.828 C 295.171 214.828 295.799 215.456 295.799 216.241 L 295.799 224.993 C 295.799 225.297 295.926 225.625 296.172 225.806 C 296.419 225.985 296.664 226 296.855 226 L 305.558 226 C 306.344 226 306.971 226.628 306.971 227.413 L 306.971 236.782 C 306.971 237.569 306.344 238.195 305.558 238.195 L 296.839 238.195 C 296.565 238.194 296.238 238.252 296.027 238.503 C 295.815 238.754 295.799 239.031 295.799 239.267 L 295.799 247.954 C 295.799 248.74 295.171 249.366 294.386 249.366 L 285.017 249.366 C 284.232 249.366 283.604 248.739 283.604 247.954 L 283.604 239.267 C 283.604 239.071 283.627 238.833 283.442 238.568 C 283.258 238.303 282.915 238.194 282.615 238.194 L 273.846 238.194 C 273.06 238.194 272.433 237.567 272.433 236.782 L 272.433 227.412 C 272.433 226.627 273.06 226 273.846 226 L 282.614 226 C 282.844 226 283.123 225.953 283.344 225.724 C 283.566 225.495 283.605 225.21 283.605 224.944 L 283.605 216.241 C 283.605 215.455 284.233 214.828 285.017 214.828 L 285.017 214.828 Z" style="fill: rgb(30, 30, 30);" transform="matrix(0.965926, -0.258819, 0.258819, 0.965926, -50.200141, 82.888913)"/>
  <path id="path9" d="M 326.258 252.174 C 325.619 252.188 324.978 252.32 324.358 252.597 L 312.682 257.809 C 310.207 258.915 309.092 261.829 310.198 264.304 C 311.304 266.779 314.234 267.895 316.71 266.788 L 328.369 261.577 C 330.845 260.469 331.96 257.556 330.854 255.081 C 330.023 253.224 328.175 252.137 326.258 252.174 L 326.258 252.174 Z M 326.29 253.214 C 327.803 253.182 329.254 254.033 329.912 255.504 C 330.788 257.466 329.909 259.758 327.947 260.635 L 316.285 265.841 C 314.321 266.718 312.031 265.838 311.154 263.877 C 310.277 261.913 311.156 259.622 313.118 258.745 L 324.778 253.533 C 325.269 253.314 325.786 253.219 326.288 253.208 L 326.29 253.214 Z" style="fill: rgb(30, 30, 30);" transform="matrix(0.965926, -0.258819, 0.258819, 0.965926, -56.292199, 91.807078)"/>
  <path id="path13" d="M 350.102 245.785 C 349.462 245.799 348.821 245.932 348.201 246.208 L 336.525 251.42 C 334.049 252.526 332.935 255.44 334.041 257.915 C 335.147 260.39 338.061 261.506 340.537 260.399 L 352.211 255.188 C 354.687 254.08 355.802 251.167 354.696 248.692 C 353.866 246.835 352.017 245.748 350.102 245.785 L 350.102 245.785 Z M 350.118 246.825 C 351.629 246.793 353.08 247.644 353.738 249.115 C 354.616 251.077 353.752 253.369 351.788 254.246 L 340.112 259.453 C 338.151 260.329 335.874 259.449 334.998 257.488 C 334.12 255.524 334.982 253.233 336.947 252.356 L 348.622 247.144 C 349.114 246.925 349.612 246.83 350.117 246.819 L 350.118 246.825 Z" style="fill: rgb(30, 30, 30);" transform="matrix(0.965926, -0.258819, 0.258819, 0.965926, -53.826197, 97.76024)"/>
  <path id="path15" d="M 363.821 262.268 C 363.541 262.296 363.255 262.383 362.993 262.527 C 361.946 263.101 361.557 264.435 362.134 265.483 L 371.991 283.427 C 372.565 284.475 373.883 284.862 374.93 284.287 C 375.977 283.713 376.366 282.395 375.789 281.348 L 365.942 263.389 C 365.511 262.603 364.659 262.185 363.815 262.27 L 363.821 262.268 Z M 364.358 263.34 C 364.634 263.421 364.889 263.615 365.039 263.892 L 374.881 281.841 C 375.187 282.395 374.996 283.08 374.443 283.384 C 373.889 283.688 373.205 283.499 372.901 282.945 L 363.061 264.985 C 362.755 264.431 362.944 263.745 363.499 263.443 C 363.775 263.291 364.082 263.265 364.358 263.345 L 364.358 263.34 Z" style="fill: rgb(30, 30, 30);" transform="matrix(0.965926, -0.258819, 0.258819, 0.965926, -58.19067, 104.810312)"/>
  <path id="path17" d="M 369.656 256.692 C 369.375 256.719 369.089 256.808 368.828 256.952 C 367.779 257.525 367.392 258.86 367.967 259.907 L 377.808 277.851 C 378.383 278.899 379.717 279.303 380.765 278.727 C 381.813 278.154 382.2 276.82 381.625 275.773 L 371.784 257.812 C 371.353 257.026 370.498 256.607 369.656 256.692 L 369.656 256.692 Z M 370.193 257.763 C 370.469 257.844 370.723 258.038 370.873 258.316 L 380.715 276.276 C 381.02 276.831 380.815 277.499 380.261 277.804 C 379.705 278.108 379.021 277.919 378.718 277.365 L 368.877 259.404 C 368.572 258.851 368.777 258.165 369.331 257.862 C 369.609 257.708 369.914 257.682 370.193 257.763 L 370.193 257.763 Z" style="fill: rgb(30, 30, 30);" transform="matrix(0.965926, -0.258819, 0.258819, 0.965926, -56.550086, 106.130589)"/>
  <path id="path19" d="M 375.478 251.127 C 375.198 251.155 374.913 251.228 374.651 251.371 C 373.603 251.944 373.215 253.278 373.79 254.326 L 383.647 272.287 C 384.219 273.33 385.541 273.712 386.586 273.146 C 386.593 273.143 386.596 273.134 386.602 273.13 C 387.635 272.55 388.035 271.233 387.463 270.191 L 377.606 252.23 C 377.176 251.447 376.323 251.044 375.478 251.127 L 375.478 251.127 Z M 376.014 252.183 C 376.292 252.264 376.544 252.458 376.697 252.735 L 386.538 270.695 C 386.842 271.251 386.655 271.935 386.099 272.237 C 385.545 272.543 384.86 272.337 384.557 271.784 L 374.716 253.823 C 374.41 253.269 374.6 252.584 375.154 252.281 C 375.431 252.127 375.738 252.103 376.014 252.183 L 376.014 252.183 Z" style="fill: rgb(30, 30, 30);" transform="matrix(0.965926, -0.258819, 0.258819, 0.965926, -54.908915, 107.449147)"/>
  <path id="path21" d="M 381.31 245.547 C 381.03 245.576 380.745 245.647 380.483 245.791 C 379.435 246.364 379.047 247.699 379.622 248.746 L 389.463 266.707 C 390.037 267.753 391.372 268.142 392.42 267.567 C 393.469 266.994 393.855 265.659 393.281 264.611 L 383.433 246.663 C 383.001 245.876 382.149 245.458 381.305 245.542 L 381.31 245.547 Z M 381.847 246.619 C 382.124 246.701 382.377 246.878 382.53 247.155 L 392.37 265.115 C 392.676 265.67 392.471 266.354 391.916 266.657 C 391.361 266.961 390.678 266.757 390.373 266.202 L 380.537 248.244 C 380.232 247.689 380.437 247.022 380.991 246.718 C 381.269 246.565 381.573 246.538 381.852 246.619 L 381.847 246.619 Z" style="fill: rgb(30, 30, 30);" transform="matrix(0.965926, -0.258819, 0.258819, 0.965926, -53.266214, 108.767173)"/>
  <path id="path23" d="M 387.129 239.966 C 386.852 239.994 386.574 240.086 386.317 240.227 C 386.312 240.229 386.304 240.223 386.3 240.227 L 386.3 240.243 C 385.269 240.822 384.868 242.125 385.44 243.166 L 395.297 261.126 C 395.872 262.174 397.205 262.562 398.253 261.987 C 399.3 261.412 399.688 260.079 399.114 259.031 L 389.255 241.088 C 388.823 240.303 387.97 239.883 387.129 239.966 L 387.129 239.966 Z M 387.681 241.038 C 387.958 241.119 388.194 241.296 388.346 241.574 L 398.187 259.535 C 398.493 260.09 398.304 260.772 397.749 261.078 C 397.194 261.381 396.51 261.177 396.206 260.623 L 386.364 242.684 C 386.06 242.129 386.248 241.445 386.803 241.141 C 387.079 240.99 387.401 240.962 387.679 241.044 L 387.681 241.038 Z" style="fill: rgb(30, 30, 30);" transform="matrix(0.965926, -0.258819, 0.258819, 0.965926, -51.624015, 110.0854)"/>
  <path id="path25" d="M 392.965 234.388 C 392.685 234.415 392.399 234.503 392.137 234.647 C 391.09 235.221 390.701 236.556 391.277 237.603 L 401.119 255.547 C 401.692 256.594 403.026 256.982 404.074 256.407 C 405.121 255.834 405.511 254.499 404.934 253.45 L 395.086 235.509 C 394.656 234.721 393.803 234.303 392.96 234.388 L 392.965 234.388 Z M 393.501 235.459 C 393.778 235.54 394.031 235.734 394.182 236.012 L 404.025 253.96 C 404.33 254.514 404.125 255.199 403.571 255.503 C 403.015 255.807 402.331 255.603 402.028 255.048 L 392.191 237.104 C 391.886 236.551 392.091 235.866 392.645 235.562 C 392.923 235.41 393.228 235.384 393.507 235.464 L 393.501 235.459 Z" style="fill: rgb(30, 30, 30);" transform="matrix(0.965926, -0.258819, 0.258819, 0.965926, -49.981454, 111.403373)"/>
  <path id="path27" d="M 344.385 291.021 C 344.205 291.021 344.013 291.081 343.849 291.216 C 343.684 291.352 343.574 291.581 343.574 291.801 L 343.574 294.951 C 343.574 295.156 343.541 295.323 343.622 295.569 C 343.664 295.692 343.767 295.844 343.915 295.941 C 344.063 296.039 344.225 296.072 344.354 296.072 L 345.295 296.072 C 345.437 296.072 345.636 296.015 345.766 295.893 C 345.896 295.772 345.934 295.626 345.96 295.519 C 346.014 295.307 346.009 295.149 346.009 294.952 L 346.009 291.801 C 346.009 291.659 345.984 291.459 345.832 291.282 C 345.678 291.104 345.434 291.021 345.231 291.021 L 344.385 291.021 L 344.385 291.021 Z M 344.613 292.061 L 344.97 292.061 L 344.97 294.951 C 344.969 295.002 344.971 294.992 344.97 295.032 L 344.613 295.032 C 344.609 294.989 344.613 295.008 344.613 294.951 L 344.613 292.061 Z" style="fill: rgb(30, 30, 30);" transform="matrix(0.965926, -0.258819, 0.258819, 0.965926, -64.22704, 99.24008)"/>
  <path id="path29" d="M 347.476 290.186 C 347.031 290.186 346.681 290.528 346.681 290.966 L 346.681 294.117 C 346.681 294.346 346.674 294.518 346.745 294.735 C 346.781 294.843 346.844 294.97 346.972 295.074 C 347.102 295.181 347.282 295.238 347.411 295.238 L 348.449 295.238 C 348.616 295.238 348.817 295.136 348.921 295.01 C 349.026 294.883 349.063 294.764 349.083 294.669 C 349.123 294.479 349.115 294.321 349.115 294.117 L 349.115 290.966 C 349.115 290.78 349.048 290.581 348.905 290.431 C 348.762 290.28 348.553 290.188 348.353 290.188 L 347.476 290.186 L 347.476 290.186 Z M 347.719 291.227 L 348.076 291.227 L 348.076 294.117 C 348.076 294.161 348.077 294.161 348.076 294.197 L 347.719 294.197 C 347.717 294.157 347.719 294.171 347.719 294.117 L 347.719 291.227 Z" style="fill: rgb(30, 30, 30);" transform="matrix(0.965926, -0.258819, 0.258819, 0.965926, -63.905082, 100.01657)"/>
  <path id="path31" d="M 250.945 74.17 C 250.604 74.17 250.263 74.381 250.117 74.641 C 249.971 74.899 249.938 75.17 249.938 75.421 L 249.938 292.727 C 249.938 295.85 252.482 298.395 255.606 298.395 L 313.24 298.394 C 313.515 298.394 313.785 298.217 313.922 298.004 C 314.058 297.792 314.099 297.548 314.099 297.274 L 314.099 294.123 C 314.099 293.945 314.043 293.712 313.872 293.555 C 313.701 293.398 313.476 293.344 313.289 293.344 L 305.038 293.344 C 303.555 293.344 302.359 292.164 302.359 290.681 C 302.359 289.197 303.555 288.002 305.038 288.002 L 321.553 288.002 C 323.037 288.002 324.233 289.199 324.233 290.681 C 324.233 291.936 323.378 292.969 322.219 293.263 L 322.219 293.279 C 321.979 293.343 321.826 293.532 321.764 293.685 C 321.702 293.838 321.683 293.978 321.683 294.123 L 321.683 297.274 C 321.685 297.446 321.665 297.605 321.733 297.841 C 321.766 297.959 321.833 298.116 321.976 298.231 C 322.119 298.345 322.302 298.394 322.447 298.394 L 360.835 298.394 C 378.834 298.394 393.427 283.784 393.427 265.785 L 393.427 75.252 C 393.427 75 393.356 74.753 393.184 74.537 C 393.012 74.321 392.717 74.164 392.405 74.164 L 250.946 74.164 L 250.945 74.17 Z M 251.01 75.209 L 392.369 75.209 C 392.374 75.219 392.385 75.226 392.385 75.257 L 392.385 265.791 C 392.385 283.228 378.269 297.36 360.833 297.36 L 322.72 297.36 C 322.718 297.319 322.721 297.33 322.72 297.28 L 322.72 294.178 C 324.196 293.684 325.27 292.322 325.27 290.686 C 325.27 288.642 323.596 286.967 321.55 286.967 L 305.035 286.967 C 302.99 286.967 301.317 288.642 301.317 290.686 C 301.317 292.731 302.99 294.389 305.035 294.389 L 313.057 294.389 L 313.057 297.28 C 313.057 297.348 313.048 297.334 313.041 297.36 L 255.605 297.361 C 253.041 297.366 250.975 295.298 250.975 292.736 L 250.975 75.429 C 250.975 75.31 250.997 75.251 251.007 75.218 L 251.01 75.209 Z" style="fill: rgb(30, 30, 30);" transform="matrix(0.965926, -0.258819, 0.258819, 0.965926, -37.251609, 89.604844)"/>
  <path id="circle33" d="M 359.493 207.172 C 354.199 207.172 349.896 211.475 349.896 216.768 C 349.896 222.062 354.199 226.366 359.493 226.366 C 364.786 226.366 369.09 222.062 369.09 216.768 C 369.09 211.475 364.787 207.172 359.493 207.172 Z M 359.493 208.21 C 364.225 208.21 368.05 212.036 368.05 216.768 C 368.05 221.5 364.224 225.326 359.493 225.326 C 354.761 225.326 350.935 221.501 350.935 216.768 C 350.935 212.036 354.76 208.21 359.493 208.21 Z" style="fill: rgb(30, 30, 30);" transform="matrix(0.965926, -0.258819, 0.258819, 0.965926, -43.854508, 100.429821)"/>
  <path id="circle37" d="M 379.554 190.567 C 374.26 190.567 369.957 194.871 369.957 200.164 C 369.957 205.459 374.26 209.762 379.554 209.762 C 384.848 209.762 389.151 205.459 389.151 200.164 C 389.151 194.871 384.848 190.567 379.554 190.567 Z M 379.554 191.607 C 384.287 191.607 388.112 195.433 388.112 200.164 C 388.112 204.896 384.286 208.722 379.554 208.722 C 374.822 208.722 370.997 204.896 370.997 200.164 C 370.997 195.434 374.822 191.607 379.554 191.607 Z" style="fill: rgb(30, 30, 30);" transform="matrix(0.965926, -0.258819, 0.258819, 0.965926, -38.873387, 105.056209)"/>
  <path id="path41" d="M 250.579 82.861 C 247.557 82.861 245.107 85.328 245.107 88.35 L 245.107 169.788 C 245.107 172.811 247.557 175.277 250.579 175.277 L 348.532 175.276 C 353.174 175.276 357.8 172.925 361.28 169.415 C 364.762 165.907 367.111 161.214 367.111 156.459 L 367.111 88.35 C 367.111 85.327 364.642 82.861 361.624 82.861 L 250.579 82.861 L 250.579 82.861 Z M 250.579 83.899 L 361.623 83.899 C 364.083 83.899 366.072 85.889 366.072 88.349 L 366.072 156.453 C 366.072 160.865 363.853 165.333 360.534 168.681 C 357.215 172.029 352.819 174.235 348.534 174.235 L 250.581 174.235 C 248.12 174.235 246.148 172.246 246.148 169.786 L 246.148 88.347 C 246.148 85.888 248.121 83.898 250.581 83.898 L 250.579 83.899 Z" style="fill: rgb(30, 30, 30);" transform="matrix(0.965926, -0.258819, 0.258819, 0.965926, -22.975101, 83.624734)"/>
  <path id="path43" d="M 268.822 93.263 C 268.084 93.263 267.474 93.873 267.474 94.611 L 267.474 162.992 C 267.474 163.73 268.084 164.339 268.822 164.339 L 344.009 164.339 C 344.747 164.339 345.357 163.729 345.357 162.992 L 345.357 94.611 C 345.357 93.873 344.747 93.262 344.009 93.262 L 268.822 93.263 Z M 268.822 94.302 L 344.009 94.302 C 344.185 94.302 344.318 94.435 344.318 94.61 L 344.318 162.991 C 344.318 163.168 344.184 163.3 344.009 163.3 L 268.822 163.301 C 268.646 163.301 268.514 163.168 268.514 162.991 L 268.514 94.611 C 268.513 94.435 268.646 94.302 268.822 94.302 Z" style="fill: rgb(30, 30, 30);" transform="matrix(0.965926, -0.258819, 0.258819, 0.965926, -22.895167, 83.694908)"/>
  <path id="path47" d="M 241.37 78.203 C 241.198 78.203 241.004 78.289 240.898 78.397 C 240.794 78.506 240.749 78.616 240.72 78.705 C 240.662 78.887 240.656 79.041 240.656 79.176 L 240.656 81.499 C 240.656 81.685 240.723 81.883 240.866 82.035 C 241.01 82.186 241.234 82.262 241.434 82.262 L 242.296 82.262 C 242.74 82.262 243.107 81.938 243.107 81.499 L 243.107 79.176 C 243.107 79.007 243.106 78.822 242.994 78.608 C 242.881 78.393 242.568 78.202 242.311 78.202 L 241.37 78.202 L 241.37 78.203 Z M 241.694 79.243 L 242.068 79.243 L 242.068 81.223 L 241.694 81.223 L 241.694 79.243 Z" style="fill: rgb(30, 30, 30);" transform="matrix(0.965926, -0.258819, 0.258819, 0.965926, -12.523655, 65.337359)"/>
  <path id="path49" d="M 244.427 77.371 C 244.267 77.371 244.074 77.468 243.972 77.582 C 243.871 77.696 243.831 77.789 243.81 77.873 C 243.766 78.046 243.761 78.193 243.761 78.344 L 243.761 80.667 C 243.761 80.808 243.803 80.993 243.956 81.17 C 244.109 81.347 244.354 81.431 244.557 81.431 L 245.402 81.431 C 245.581 81.431 245.772 81.386 245.937 81.252 C 246.101 81.118 246.212 80.888 246.212 80.668 L 246.212 78.345 C 246.212 78.204 246.202 78.027 246.115 77.826 C 246.028 77.624 245.739 77.371 245.434 77.371 L 244.427 77.371 L 244.427 77.371 Z M 244.8 78.411 L 245.173 78.411 L 245.173 80.392 L 244.8 80.392 L 244.8 78.411 Z" style="fill: rgb(30, 30, 30);" transform="matrix(0.965926, -0.258819, 0.258819, 0.965926, -12.202779, 66.112674)"/>
  <path id="path51" d="M 232.756 65.244 C 232.41 65.244 232.1 65.435 231.928 65.65 C 231.757 65.865 231.686 66.092 231.685 66.348 L 231.685 76.416 C 231.685 76.887 232.074 77.276 232.545 77.276 L 349.091 77.276 C 349.432 77.276 349.634 77.012 349.724 76.806 C 349.816 76.599 349.854 76.385 349.854 76.108 L 349.854 66.414 C 349.854 66.075 349.757 65.741 349.529 65.521 C 349.307 65.3 349.016 65.245 348.787 65.245 L 247.425 65.245 C 247.201 65.245 246.879 65.351 246.726 65.586 C 246.574 65.822 246.58 66.032 246.58 66.219 L 246.58 68.542 C 246.58 68.719 246.653 68.936 246.824 69.094 C 246.995 69.252 247.204 69.305 247.392 69.305 L 260.058 69.305 C 261.541 69.305 262.738 70.501 262.738 71.984 C 262.738 73.468 261.541 74.663 260.058 74.663 L 239.126 74.663 C 237.643 74.663 236.447 73.468 236.447 71.984 C 236.447 70.728 237.319 69.678 238.477 69.386 C 238.715 69.321 238.869 69.133 238.93 68.981 C 238.993 68.827 238.995 68.688 238.995 68.542 L 238.995 66.219 C 238.995 66.001 238.944 65.776 238.801 65.586 C 238.657 65.397 238.399 65.245 238.118 65.245 L 232.76 65.245 L 232.756 65.245 Z M 348.815 66.268 C 348.788 66.242 348.815 66.247 348.815 66.414 L 348.815 76.108 C 348.815 76.189 348.805 76.189 348.798 76.237 L 232.719 76.237 L 232.719 66.349 C 232.719 66.363 232.72 66.302 232.736 66.284 C 232.75 66.266 232.736 66.284 232.752 66.284 L 237.948 66.284 L 237.948 68.493 C 236.478 68.988 235.398 70.353 235.398 71.984 C 235.398 74.029 237.072 75.703 239.117 75.703 L 260.049 75.703 C 262.095 75.703 263.769 74.03 263.769 71.984 C 263.769 69.939 262.095 68.265 260.049 68.265 L 247.611 68.265 L 247.611 66.284 L 348.78 66.284 C 348.849 66.284 348.838 66.293 348.812 66.268 L 348.815 66.268 Z" style="fill: rgb(30, 30, 30);" transform="matrix(0.965926, -0.258819, 0.258819, 0.965926, -8.535718, 77.684782)"/>
  <path id="path53" d="M 227.744 82.311 C 224.227 82.311 221.362 85.175 221.362 88.692 L 221.362 93.45 C 221.362 93.669 221.456 93.957 221.67 94.132 C 221.887 94.306 222.138 94.343 222.385 94.343 L 231.933 94.343 C 232.404 94.343 232.794 93.954 232.794 93.483 L 232.794 83.416 C 232.794 83.147 232.713 82.907 232.55 82.701 C 232.389 82.495 232.11 82.311 231.787 82.311 L 227.744 82.311 L 227.744 82.311 Z M 227.744 83.351 L 231.723 83.351 C 231.733 83.369 231.756 83.396 231.756 83.416 L 231.756 93.305 L 222.403 93.305 L 222.403 88.693 C 222.402 85.737 224.789 83.351 227.744 83.351 L 227.744 83.351 Z" style="fill: rgb(30, 30, 30);" transform="matrix(0.965926, -0.258819, 0.258819, 0.965926, -15.123211, 61.781748)"/>
  <path id="path55" d="M 349.924 48.132 C 349.602 48.132 349.339 48.314 349.177 48.522 C 349.014 48.729 348.917 48.968 348.917 49.236 L 348.917 59.304 C 348.917 59.775 349.322 60.164 349.795 60.164 L 359.342 60.164 C 359.589 60.164 359.841 60.128 360.057 59.953 C 360.273 59.778 360.35 59.49 360.35 59.271 L 360.35 54.514 C 360.35 50.997 357.502 48.131 353.989 48.131 L 349.929 48.131 L 349.924 48.132 Z M 349.988 49.172 L 353.984 49.172 C 356.94 49.172 359.31 51.558 359.31 54.514 L 359.31 59.126 L 349.956 59.126 L 349.956 49.237 C 349.956 49.217 349.978 49.19 349.988 49.172 Z" style="fill: rgb(30, 30, 30);" transform="matrix(0.965926, -0.258819, 0.258819, 0.965926, -1.930568, 93.630873)"/>
  <path id="line57" d="M 223.499 94.841 L 223.499 96.87 L 224.538 96.87 L 224.538 94.841 L 223.499 94.841 Z" style="fill: rgb(30, 30, 30);" transform="matrix(0.965926, -0.258819, 0.258819, 0.965926, -17.175981, 61.246432)"/>
  <path id="line59" d="M 230.828 81.639 L 230.828 82.679 L 233.037 82.679 L 233.037 81.639 L 230.828 81.639 Z" style="fill: rgb(30, 30, 30);" transform="matrix(0.965926, -0.258819, 0.258819, 0.965926, -13.361404, 62.828026)"/>
  <path id="line61" d="M 238.953 79.462 L 238.953 80.503 L 241.162 80.503 L 241.162 79.462 L 238.953 79.462 Z" style="fill: rgb(30, 30, 30);" transform="matrix(0.965926, -0.258819, 0.258819, 0.965926, -12.521231, 64.856768)"/>
  <path id="line63" d="M 242.299 78.602 L 242.299 79.643 L 244.231 79.643 L 244.231 78.602 L 242.299 78.602 Z" style="fill: rgb(30, 30, 30);" transform="matrix(0.965926, -0.258819, 0.258819, 0.965926, -12.189352, 65.657616)"/>
  <path id="line65" d="M 245.468 77.754 L 245.468 78.794 L 247.399 78.794 L 247.399 77.754 L 245.468 77.754 Z" style="fill: rgb(30, 30, 30);" transform="matrix(0.965926, -0.258819, 0.258819, 0.965926, -11.861784, 66.448781)"/>
  <path id="line67" d="M 346.244 50.714 L 346.244 51.754 L 348.453 51.754 L 348.453 50.714 L 346.244 50.714 Z" style="fill: rgb(30, 30, 30);" transform="matrix(0.965926, -0.258819, 0.258819, 0.965926, -1.424725, 91.646133)"/>
  <path id="line69" d="M 360.337 58.206 L 360.337 60.138 L 361.376 60.138 L 361.376 58.206 L 360.337 58.206 Z" style="fill: rgb(30, 30, 30);" transform="matrix(0.965926, -0.258819, 0.258819, 0.965926, -3.018956, 95.412745)"/>
  <path id="polygon71" d="M 242.876 83.407 L 242.485 83.618 L 240.034 84.966 L 239.628 85.193 L 240.034 85.42 L 242.485 86.768 L 242.876 86.979 L 242.876 86.542 L 242.876 83.846 L 242.876 83.407 L 242.876 83.407 Z" style="fill: rgb(30, 30, 30);" transform="matrix(0.965926, -0.258819, 0.258819, 0.965926, -13.829102, 65.343439)"/>
  <path id="polygon73" d="M 259.642 78.044 L 259.642 78.482 L 259.642 81.178 L 259.642 81.616 L 260.016 81.404 L 262.467 80.056 L 262.89 79.829 L 262.467 79.602 L 260.016 78.255 L 259.642 78.044 Z" style="fill: rgb(30, 30, 30);" transform="matrix(0.965926, -0.258819, 0.258819, 0.965926, -11.759102, 70.340719)"/>
</svg>