<?xml version="1.0" encoding="utf-8"?>
<svg version="1.0" viewBox="0 0 1280 720" xmlns="http://www.w3.org/2000/svg">
  <path d="M 613.847 717.68 C 607.607 713.04 148.967 253.28 146.887 249.6 C 140.407 238.08 140.647 219.44 147.447 208.96 C 148.567 207.36 195.767 159.68 252.487 102.96 L 355.527 0 L 393.767 0 C 414.727 0 431.927 0.24 431.927 0.56 C 431.927 0.88 382.807 50.32 322.727 110.4 C 209.367 223.84 210.407 222.72 210.327 229.2 C 210.327 236.64 203.607 229.52 339.367 365.52 C 427.927 454.16 467.687 493.44 469.927 494.48 C 474.087 496.4 480.007 496.4 483.767 494.48 C 485.447 493.6 539.767 439.84 610.807 368.64 C 742.407 236.8 738.327 241.2 746.007 225.68 C 752.807 211.92 755.847 200 756.487 183.52 C 756.807 174.88 756.647 170.24 755.607 163.92 C 752.887 147.6 746.007 131.04 736.487 118.08 C 733.447 113.92 711.847 91.6 676.407 56 L 621.127 0.4 L 659.047 0.16 C 695.447 0 697.047 0.08 699.447 1.52 C 703.207 3.92 1095.687 397.04 1101.447 404.16 C 1123.207 431.28 1135.287 461.6 1137.447 494.16 C 1140.007 532.24 1129.287 567.68 1105.447 599.84 C 1101.207 605.52 1084.727 622.56 1043.607 663.84 L 987.527 720 L 802.247 720 L 616.967 720 L 613.847 717.68 Z M 826.727 668 C 827.767 666.8 830.007 658.24 834.087 639.36 C 837.287 624.56 839.927 611.52 839.927 610.4 C 839.927 608.08 837.927 605.44 835.367 604.08 C 833.207 602.96 830.007 604.08 828.727 606.32 C 828.327 607.2 825.207 620.4 821.927 635.68 C 816.407 661.44 816.087 663.52 817.127 665.68 C 819.287 669.76 824.087 670.96 826.727 668 Z M 653.127 651.28 C 658.407 645.92 663.207 641.6 663.767 641.6 C 664.327 641.6 669.527 646 675.207 651.36 C 686.727 662.32 688.247 663.36 691.047 662.32 C 693.207 661.44 714.567 640.72 719.207 634.96 C 720.967 632.72 722.327 630.16 722.327 629.04 C 722.327 627.52 719.687 624.32 711.927 616.48 C 706.007 610.48 701.527 605.2 701.527 604.4 C 701.527 603.52 706.007 598.32 711.927 592.4 C 719.927 584.32 722.327 581.36 722.327 579.76 C 722.327 577.12 717.447 571.28 705.447 559.52 C 694.007 548.4 691.527 546.4 688.967 546.4 C 687.447 546.4 684.247 549.04 676.007 557.2 C 669.927 563.12 664.727 568 664.327 568 C 663.927 568 658.727 563.12 652.647 557.2 C 644.407 549.12 641.207 546.4 639.687 546.4 C 636.887 546.4 631.847 550.64 619.047 563.68 C 606.967 576.08 605.127 578.64 606.647 581.44 C 607.207 582.4 612.007 587.92 617.367 593.52 C 622.727 599.2 627.127 604.4 627.127 604.96 C 627.127 605.52 622.807 610.32 617.447 615.6 C 606.087 626.96 605.207 628.32 606.807 631.68 C 608.247 634.64 633.927 660.32 637.047 661.92 C 640.407 663.6 641.767 662.64 653.127 651.28 Z M 900.247 594.24 C 902.087 592.56 902.967 589.52 908.327 564.4 C 914.807 534.16 914.887 533.6 910.647 530.8 C 908.167 529.2 906.087 529.28 903.927 531.04 C 902.487 532.24 901.287 536.72 896.247 560 C 892.967 575.2 890.327 588.4 890.327 589.44 C 890.327 591.76 894.407 596 896.647 596 C 897.527 596 899.127 595.2 900.247 594.24 Z M 874.967 449.52 C 894.087 443.04 903.767 420.8 895.207 402.96 C 888.647 389.12 873.367 380.72 859.367 383.2 C 840.567 386.48 827.207 404.24 830.247 421.92 C 832.487 435.12 841.927 446 854.727 450.08 C 859.847 451.68 869.287 451.44 874.967 449.52 Z M 909.367 338.08 C 930.407 332.48 941.607 310.24 932.967 291.12 C 925.847 275.52 908.967 267.28 893.047 271.6 C 876.247 276.16 864.727 293.44 867.767 309.6 C 871.447 329.68 890.887 342.96 909.367 338.08 Z" style="fill: rgb(30, 30, 30);"/>
</svg>