<?xml version="1.0" encoding="utf-8"?>
<svg version="1.2" baseProfile="tiny" id="Layer_3" x="0px" y="0px" preserveAspectRatio="none" xmlns="http://www.w3.org/2000/svg">
  <path id="polyline3" d="M 471.625 148.505 L 471.471 148.767 L 468.51 153.347 L 469.343 153.887 L 472.134 149.554 L 517.284 154.442 L 518.95 158.483 L 519.86 158.112 L 518.086 153.795 L 517.979 153.517 L 517.685 153.486 L 471.933 148.536 L 471.625 148.505 Z" style="fill: rgb(30, 30, 30);" transform="matrix(-0.258819, -0.965926, 0.965926, -0.258819, 473.82569, 670.567215)"/>
  <path id="polygon5" d="M 629.721 178.563 L 441.824 188.864 L 441.624 188.879 L 441.485 189.033 L 436.643 194.723 L 436.52 194.862 L 436.52 195.047 L 436.52 219.519 L 436.52 238.933 L 436.519 263.405 L 436.519 263.59 L 436.643 263.729 L 441.485 269.419 L 441.624 269.574 L 441.824 269.589 L 629.721 279.89 L 629.906 279.905 L 630.06 279.782 L 638.772 272.966 L 677.57 270.097 L 683.815 275.757 L 684.015 275.942 L 684.262 275.88 L 687.176 275.155 L 687.331 275.109 L 687.423 274.985 L 691.186 270.637 L 691.248 270.56 L 691.279 270.467 L 693.7 263.204 L 693.731 263.127 L 693.731 263.034 L 693.731 260.983 L 693.731 260.49 L 693.469 260.49 L 693.469 260.197 L 693.731 260.197 L 693.731 259.703 L 693.731 230.545 L 693.731 227.908 L 693.731 198.748 L 693.731 198.254 L 693.469 198.254 L 693.469 197.961 L 693.731 197.961 L 693.731 197.468 L 693.731 195.417 L 693.731 195.34 L 693.7 195.263 L 691.279 187.985 L 691.248 187.892 L 691.186 187.83 L 687.423 183.466 L 687.331 183.343 L 687.176 183.297 L 684.262 182.572 L 684.015 182.51 L 683.815 182.695 L 677.554 188.37 L 638.772 185.486 L 630.06 178.67 L 629.905 178.562 L 629.721 178.562 L 629.721 178.563 Z M 629.597 179.565 L 638.294 186.35 L 638.418 186.443 L 638.556 186.458 L 677.693 189.357 L 677.893 189.372 L 678.063 189.234 L 684.293 183.59 L 686.807 184.238 L 690.369 188.385 L 692.744 195.525 L 692.744 196.975 L 692.482 196.975 L 692.482 197.468 L 692.482 198.748 L 692.482 199.242 L 692.744 199.242 L 692.744 227.908 L 692.744 230.545 L 692.744 259.212 L 692.482 259.212 L 692.482 259.705 L 692.482 260.985 L 692.482 261.479 L 692.744 261.479 L 692.744 262.928 L 690.369 270.053 L 686.791 274.232 L 684.293 274.864 L 678.063 269.22 L 677.893 269.081 L 677.693 269.096 L 638.556 271.995 L 638.418 272.011 L 638.294 272.104 L 629.597 278.888 L 442.102 268.617 L 437.506 263.22 L 437.506 238.933 L 437.506 219.519 L 437.506 195.232 L 442.102 189.835 L 629.597 179.565 Z" style="fill: rgb(30, 30, 30);" transform="matrix(-0.258819, -0.965926, 0.965926, -0.258819, 489.96761, 834.432336)"/>
  <path id="polyline7" d="M 613.443 123.186 L 611.778 127.226 L 566.627 132.114 L 563.836 127.781 L 563.003 128.321 L 565.964 132.916 L 566.118 133.163 L 566.427 133.132 L 612.179 128.182 L 612.472 128.151 L 612.58 127.873 L 614.354 123.556 L 613.443 123.186 Z" style="fill: rgb(30, 30, 30);" transform="matrix(-0.258819, -0.965926, 0.965926, -0.258819, 617.232696, 729.96825)"/>
  <path id="polyline9" d="M 631.401 195.113 L 440.637 197.704 L 440.591 197.704 L 440.529 197.704 L 437.583 198.444 L 437.198 198.537 L 437.198 198.922 L 437.198 219.4 L 437.198 239.215 L 437.198 259.693 L 437.198 260.094 L 437.583 260.187 L 440.529 260.912 L 440.591 260.927 L 440.637 260.927 L 631.401 263.518 L 631.417 263.518 L 693.098 261.56 L 693.067 260.573 L 631.416 262.531 L 631.385 262.531 L 440.698 259.941 L 438.184 259.308 L 438.184 239.216 L 438.184 219.4 L 438.184 199.307 L 440.698 198.691 L 631.385 196.1 L 631.416 196.1 L 693.067 198.043 L 693.098 197.056 L 631.417 195.113 L 631.401 195.113 L 631.401 195.113 Z" style="fill: rgb(30, 30, 30);" transform="matrix(-0.258819, -0.965926, 0.965926, -0.258819, 489.917347, 834.557805)"/>
  <path id="polyline11" d="M 646.61 256.829 L 646.102 256.845 L 518.9 258.417 L 518.838 258.417 L 518.776 258.432 L 515.862 259.281 L 516.14 260.221 L 518.916 259.404 L 518.947 259.404 L 645.624 257.831 L 645.624 276.536 L 645.624 302.241 L 645.624 320.946 L 518.947 319.373 L 518.916 319.373 L 516.14 318.556 L 515.862 319.496 L 518.776 320.345 L 518.838 320.36 L 518.9 320.36 L 646.102 321.933 L 646.61 321.948 L 646.61 321.44 L 646.61 302.241 L 646.61 276.536 L 646.61 257.338 L 646.61 256.829 L 646.61 256.829 Z" style="fill: rgb(30, 30, 30);" transform="matrix(-0.258819, -0.965926, 0.965926, -0.258819, 452.143115, 925.718572)"/>
  <g id="g13" transform="matrix(-0.127714, -0.476635, 0.476635, -0.127714, 522.495239, 377.360565)">
    <path d="M281.418,226.729l-7.46-7.463l0.002-32.573v-4.283l9.912-0.002v-1.219h-9.912v-4.119l9.912-0.002v-1.22&#10;&#9;&#9;h-9.912v-4.763h9.91v-1.222h-9.91v-4.853h9.912v-1.224h-9.912v-4.393h9.912v-1.224h-9.912v-4.208l9.91-0.002v-1.219h-9.91v-4.579&#10;&#9;&#9;h9.91v-1.222h-9.91v-4.578h9.91v-1.222h-9.91v-4.396h9.91v-1.222h-9.912v-32.532l7.46-7.458h110.2l8.32,8.316v31.674h-10.957v1.222&#10;&#9;&#9;h10.955v4.396h-10.955v1.222h10.955v4.578h-10.955v1.222h10.955v4.579h-10.955v1.221h10.955v4.208h-10.955v1.224h10.955v4.393&#10;&#9;&#9;h-10.955v1.224h10.955v4.853h-10.955v1.222h10.955v4.763l-10.955-0.002v1.224h10.955v4.119h-10.955v1.221h10.957v5.021v30.979&#10;&#9;&#9;l-8.32,8.32H281.418L281.418,226.729z M275.959,186.692v31.745l6.287,6.289H390.79l7.146-7.148V187.43v-3.021h-10.955v-4.222&#10;&#9;&#9;v-1.002h10.955v-0.116h-10.955v-5.223h10.957v-0.762h-10.957v-5.222h10.957v-0.853h-10.957v-5.224h10.957v-0.394h-10.957v-5.223&#10;&#9;&#9;h10.955v-0.208h-10.955v-5.221h10.955v-0.579h-10.955v-5.222l10.955-0.002v-0.577h-10.955v-5.221l10.957-0.002v-0.394h-10.957&#10;&#9;&#9;v-5.222h10.955v-28.844l-7.146-7.146H282.247l-6.289,6.287v29.704h9.912v5.222h-9.912v0.396h9.912v5.221h-9.912v0.579h9.912v5.222&#10;&#9;&#9;h-9.912v0.579h9.912v5.221h-9.912v0.208h9.912v5.223h-9.912v0.394h9.912v5.224h-9.912v0.853h9.912v5.222h-9.912v0.762h9.912v5.223&#10;&#9;&#9;h-9.912v0.116h9.912v5.224h-9.912L275.959,186.692L275.959,186.692z" style="fill: rgb(30, 30, 30);"/>
  </g>
  <g id="g17" transform="matrix(-0.127714, -0.476635, 0.476635, -0.127714, 522.495239, 377.360565)">
    <path d="M401.804,95.75l8.444,0.234v128.288l-7.418,0.184l-0.025-0.999l0.025,0.999l-1.026,0.023V95.75&#10;&#9;&#9;L401.804,95.75z M403.806,222.431l4.44-0.109V97.929l-4.44-0.125V222.431L403.806,222.431z M410.827,96.003l7.982,0.222v127.833&#10;&#9;&#9;l-6.956,0.174l-0.025-0.999l0.025,0.999l-1.026,0.025V96.003L410.827,96.003z M412.829,222.207l3.982-0.1V98.17l-3.982-0.112&#10;&#9;&#9;V222.207L412.829,222.207z M419.388,96.242l7.985,0.222v127.38l-6.959,0.175l-0.025-0.998l0.025,0.998l-1.026,0.025V96.242&#10;&#9;&#9;L419.388,96.242z M421.39,221.993l3.983-0.101V98.411l-3.983-0.112V221.993L421.39,221.993z M427.951,96.482l7.982,0.222V223.63&#10;&#9;&#9;l-6.958,0.174l-0.023-0.999l0.023,0.999l-1.024,0.025V96.482L427.951,96.482z M429.951,221.78l3.982-0.099V98.651l-3.982-0.112&#10;&#9;&#9;V221.78L429.951,221.78z M436.513,96.721l7.986,0.224v126.472l-6.961,0.176l-0.025-1.001l0.025,1.001l-1.025,0.025V96.721&#10;&#9;&#9;L436.513,96.721z M438.514,221.566l3.983-0.101V98.89l-3.983-0.112V221.566L438.514,221.566z M445.075,96.962l7.984,0.224v126.018&#10;&#9;&#9;l-6.958,0.173l-0.025-0.999l0.025,0.999l-1.026,0.023V96.962L445.075,96.962z M447.077,221.352l3.98-0.099V99.131l-3.98-0.112&#10;&#9;&#9;V221.352L447.077,221.352z M453.637,97.203l7.984,0.222V222.99l-6.958,0.174l-0.025-0.999l0.025,0.999l-1.026,0.025V97.203&#10;&#9;&#9;L453.637,97.203z M455.639,221.139l3.982-0.1V99.369l-3.982-0.112V221.139L455.639,221.139z M462.199,97.443l7.984,0.222v125.112&#10;&#9;&#9;l-6.96,0.173l-0.023-0.999l0.023,0.999l-1.024,0.025V97.443L462.199,97.443z M464.199,220.927l3.985-0.101V99.61l-3.985-0.109&#10;&#9;&#9;V220.927L464.199,220.927z M470.759,97.682l7.984,0.222v124.66l-6.959,0.174l-0.024-0.999l0.024,0.999l-1.025,0.025V97.682&#10;&#9;&#9;L470.759,97.682z M472.761,220.714l3.982-0.099V99.849l-3.982-0.112V220.714L472.761,220.714z M479.323,97.921l7.984,0.224v124.206&#10;&#9;&#9;l-6.96,0.173l-0.025-0.998l0.025,0.998l-1.024,0.025V97.921L479.323,97.921z M481.321,220.498l3.984-0.099v-120.31l-3.984-0.112&#10;&#9;&#9;V220.498L481.321,220.498z M487.885,98.162l7.984,0.222v123.754l-6.96,0.173l-0.023-0.999l0.023,0.999l-1.024,0.023V98.162&#10;&#9;&#9;L487.885,98.162z M489.885,220.285l3.984-0.099V100.33l-3.984-0.112V220.285L489.885,220.285z M496.447,98.402l7.982,0.222v123.3&#10;&#9;&#9;l-6.958,0.174l-0.023-0.999l0.023,0.999l-1.024,0.025V98.402L496.447,98.402z M498.447,220.072l3.983-0.1V100.571l-3.983-0.112&#10;&#9;&#9;V220.072L498.447,220.072z M505.009,98.641l7.982,0.222v122.847l-6.958,0.175l-0.025-0.999l0.025,0.999l-1.024,0.023V98.641&#10;&#9;&#9;L505.009,98.641z M507.007,219.858l3.984-0.099V100.81l-3.984-0.112V219.858L507.007,219.858z M513.569,99.91v-1.029l8.447,0.234&#10;&#9;&#9;v122.369l-8.447,0.21V99.91L513.569,99.91z M515.569,219.644l4.445-0.107V101.063l-4.443-0.125L515.569,219.644L515.569,219.644z&#10;&#9;&#9; M514.543,100.909l0.027-0.999L514.543,100.909L514.543,100.909z" style="fill: rgb(30, 30, 30);"/>
  </g>
  <path id="line21" d="M 529.208 177.001 L 519.122 186.669 L 519.816 187.379 L 529.901 177.726 L 529.208 177.001 Z" style="fill: rgb(30, 30, 30);" transform="matrix(-0.258819, -0.965926, 0.965926, -0.258819, 484.283125, 735.983468)"/>
  <path id="line23" d="M 530.926 219.213 L 530.263 219.938 L 540.703 229.591 L 541.382 228.866 L 530.926 219.213 Z" style="fill: rgb(30, 30, 30);" transform="matrix(-0.258819, -0.965926, 0.965926, -0.258819, 457.747922, 800.046305)"/>
  <path id="line25" d="M 592.954 205.212 L 582.514 214.865 L 583.178 215.59 L 593.633 205.937 L 592.954 205.212 Z" style="fill: rgb(30, 30, 30);" transform="matrix(-0.258819, -0.965926, 0.965926, -0.258819, 537.04642, 832.892174)"/>
  <path id="line27" d="M 572.067 163 L 571.373 163.709 L 581.458 173.378 L 582.152 172.668 L 572.067 163 Z" style="fill: rgb(30, 30, 30);" transform="matrix(-0.258818, -0.965926, 0.965926, -0.258818, 563.580767, 768.829242)"/>
  <path id="line29" d="M 531.592 170.424 L 523.28 181.85 L 524.082 182.436 L 532.394 171.01 L 531.592 170.424 Z" style="fill: rgb(30, 30, 30);" transform="matrix(-0.258819, -0.965926, 0.965926, -0.258819, 494.033016, 731.94486)"/>
  <path id="line31" d="M 538.278 221.311 L 537.43 221.82 L 545.094 234.264 L 545.942 233.755 L 538.278 221.311 Z" style="fill: rgb(30, 30, 30);" transform="matrix(-0.258819, -0.965926, 0.965926, -0.258819, 461.858956, 809.971805)"/>
  <path id="line33" d="M 588.095 209.789 L 580.431 222.233 L 581.28 222.742 L 588.943 210.298 L 588.095 209.789 Z" style="fill: rgb(30, 30, 30);" transform="matrix(-0.258819, -0.965926, 0.965926, -0.258819, 527.11874, 837.003394)"/>
  <path id="line35" d="M 567.247 158.857 L 566.445 159.444 L 574.757 170.87 L 575.559 170.284 L 567.247 158.857 Z" style="fill: rgb(30, 30, 30);" transform="matrix(-0.258819, -0.965926, 0.965926, -0.258819, 559.542275, 759.078883)"/>
  <path id="circle37" d="M 556.465 172.408 C 543.201 172.408 532.44 183.169 532.44 196.433 C 532.44 209.696 543.201 220.458 556.465 220.458 C 569.728 220.458 580.49 209.696 580.49 196.433 C 580.49 183.169 569.728 172.408 556.465 172.408 Z M 556.465 173.395 C 569.194 173.394 579.503 183.703 579.503 196.433 C 579.503 209.162 569.194 219.471 556.465 219.471 C 543.735 219.471 533.427 209.162 533.427 196.433 C 533.427 183.703 543.735 173.395 556.465 173.395 Z" style="fill: rgb(30, 30, 30);" transform="matrix(-0.258818, -0.965926, 0.965926, -0.258818, 510.74837, 784.777469)"/>
  <g id="g39" transform="matrix(-0.127714, -0.476635, 0.476635, -0.127714, 522.495239, 377.360565)">
    <path d="M352.864,207.148l-0.347-1.938c13.755-5.082,24.455-16.47,28.612-30.646l0,0l1.961,0.283v20.393&#10;&#9;&#9;l-11.911,11.909H352.864L352.864,207.148z M357.732,205.147l12.619-0.002l10.737-10.737v-13.829&#10;&#9;&#9;C376.492,191.3,368.165,200.034,357.732,205.147L357.732,205.147z M302.589,207.148l-13.103-13.109v-19.519l1.962-0.274&#10;&#9;&#9;c4.09,14.324,14.843,25.842,28.701,30.963l0,0l-0.348,1.938H302.589L302.589,207.148z M291.488,193.212l11.934,11.937h11.514&#10;&#9;&#9;c-10.504-5.149-18.873-13.971-23.449-24.794l0,0L291.488,193.212L291.488,193.212z M289.526,174.795l0.961-0.274L289.526,174.795&#10;&#9;&#9;L289.526,174.795z M289.486,148.29v-19.658v-0.415l13.104-13.107h18.825l0.313,1.95c-14.615,4.81-26.038,16.642-30.281,31.504l0,0&#10;&#9;&#9;L289.486,148.29L289.486,148.29z M291.486,142.458c4.747-11.226,13.578-20.294,24.639-25.348l0,0H303.42l-11.934,11.936V142.458&#10;&#9;&#9;L291.486,142.458z M350.938,117.06l0.313-1.95h19.515v0.999l-0.708,0.708l0.708-0.708v-0.999h0.413l11.909,11.909v20.948&#10;&#9;&#9;l-1.959,0.28C376.816,133.533,365.448,121.833,350.938,117.06L350.938,117.06z M381.09,142.236l-0.001-14.387l-10.737-10.74&#10;&#9;&#9;h-13.809C367.529,122.129,376.32,131.114,381.09,142.236L381.09,142.236z" style="fill: rgb(30, 30, 30);"/>
  </g>
  <path d="M 538.209 103.881" style="fill: rgb(30, 30, 30);" transform="matrix(-0.258819, -0.965926, 0.965926, -0.258819, 577.166395, 650.637316)"/>
  <path id="line45" d="M 535.262 98.365 L 535.262 99.352 L 538.469 99.352 L 538.469 98.365 L 535.262 98.365 Z" style="fill: rgb(30, 30, 30);" transform="matrix(-0.258818, -0.965926, 0.965926, -0.258818, 580.32594, 643.017267)"/>
  <path id="line47" d="M 533.542 91.945 L 533.542 92.932 L 536.749 92.932 L 536.749 91.945 L 533.542 91.945 Z" style="fill: rgb(30, 30, 30);" transform="matrix(-0.258819, -0.965926, 0.965926, -0.258819, 584.362643, 633.274197)"/>
  <path id="line49" d="M 531.821 85.526 L 531.821 86.513 L 535.029 86.513 L 535.029 85.526 L 531.821 85.526 Z" style="fill: rgb(30, 30, 30);" transform="matrix(-0.258819, -0.965926, 0.965926, -0.258819, 588.397149, 623.531959)"/>
  <path id="line51" d="M 530.087 79.084 L 530.087 80.071 L 533.31 80.071 L 533.31 79.084 L 530.087 79.084 Z" style="fill: rgb(30, 30, 30);" transform="matrix(-0.258819, -0.965926, 0.965926, -0.258819, 592.446189, 613.754958)"/>
  <path id="line53" d="M 528.371 72.679 L 528.371 73.666 L 531.594 73.666 L 531.594 72.679 L 528.371 72.679 Z" style="fill: rgb(30, 30, 30);" transform="matrix(-0.258819, -0.965926, 0.965926, -0.258819, 596.472867, 604.034685)"/>
  <path id="line55" d="M 519.716 74.969 L 519.716 75.956 L 522.862 75.956 L 522.862 74.969 L 519.716 74.969 Z" style="fill: rgb(30, 30, 30);" transform="matrix(-0.258819, -0.965926, 0.965926, -0.258819, 583.317415, 598.520171)"/>
  <path id="line57" d="M 521.401 81.373 L 521.401 82.36 L 524.609 82.36 L 524.609 81.373 L 521.401 81.373 Z" style="fill: rgb(30, 30, 30);" transform="matrix(-0.258818, -0.965926, 0.965926, -0.258818, 579.291146, 608.239223)"/>
  <path id="line59" d="M 523.104 87.815 L 523.104 88.802 L 526.358 88.802 L 526.358 87.815 L 523.104 87.815 Z" style="fill: rgb(30, 30, 30);" transform="matrix(-0.258819, -0.965926, 0.965926, -0.258819, 575.241912, 618.015603)"/>
  <path id="line61" d="M 524.834 94.243 L 524.834 95.23 L 528.072 95.23 L 528.072 94.243 L 524.834 94.243 Z" style="fill: rgb(30, 30, 30);" transform="matrix(-0.258819, -0.965926, 0.965926, -0.258819, 571.200686, 627.770658)"/>
  <path id="line63" d="M 526.579 100.67 L 526.579 101.657 L 529.772 101.657 L 529.772 100.67 L 526.579 100.67 Z" style="fill: rgb(30, 30, 30);" transform="matrix(-0.258819, -0.965926, 0.965926, -0.258819, 567.160957, 637.524855)"/>
  <path d="M 529.521 106.209" style="fill: rgb(30, 30, 30);" transform="matrix(-0.258819, -0.965926, 0.965926, -0.258819, 563.981116, 645.175884)"/>
  <g id="g67" transform="matrix(-0.127714, -0.476635, 0.476635, -0.127714, 522.495239, 377.360565)">
    <path d="M526.091,147.933l9.241,0.405v33.498l-8.196,0.362l-0.043-1l0.043,1l-1.045,0.045V147.933L526.091,147.933z&#10;&#9;&#9; M528.093,180.152l5.239-0.231v-29.668l-5.239-0.23V180.152L528.093,180.152z M539.841,148.539l8.964,0.396v32.303l-7.921,0.352&#10;&#9;&#9;l-0.043-0.997l0.043,0.997l-1.043,0.047V148.539L539.841,148.539z M541.839,179.546l4.966-0.22v-28.479l-4.966-0.22V179.546&#10;&#9;&#9;L541.839,179.546z M553.312,149.131l8.966,0.396v31.118l-7.923,0.352l-0.043-0.999l0.043,0.999l-1.043,0.045V149.131&#10;&#9;&#9;L553.312,149.131z M555.31,178.951l4.968-0.22v-27.289l-4.968-0.22V178.951L555.31,178.951z M566.782,149.728l8.968,0.395v29.93&#10;&#9;&#9;l-7.923,0.35l-0.043-0.997l0.043,0.997l-1.045,0.047V149.728L566.782,149.728z M568.784,178.356l4.966-0.218v-26.102l-4.966-0.22&#10;&#9;&#9;V178.356L568.784,178.356z M580.253,150.321l8.968,0.396v28.739l-7.923,0.352l-0.043-0.998l0.043,0.998l-1.045,0.047V150.321&#10;&#9;&#9;L580.253,150.321z M582.255,177.764l4.966-0.22V152.63l-4.966-0.22V177.764L582.255,177.764z M593.727,151.96v-1.045l9.489,0.418&#10;&#9;&#9;v27.508l-9.489,0.418V151.96L593.727,151.96z M595.726,177.168l5.488-0.24v-23.68l-5.488-0.242V177.168L595.726,177.168z&#10;&#9;&#9; M594.682,152.96l0.045-1L594.682,152.96L594.682,152.96z" style="fill: rgb(30, 30, 30);"/>
  </g>
</svg>