<?xml version="1.0" encoding="utf-8"?>
<svg version="1.2" baseProfile="tiny" id="Layer_3" x="0px" y="0px" viewBox="0 0 1280 720" preserveAspectRatio="none" xmlns="http://www.w3.org/2000/svg">
  <path id="polyline3" d="M 460.234 232.615 L 459.922 233.146 L 453.922 242.427 L 455.609 243.521 L 461.265 234.74 L 552.765 244.646 L 556.14 252.834 L 557.984 252.084 L 554.39 243.334 L 554.172 242.771 L 553.577 242.708 L 460.858 232.677 L 460.234 232.615 Z" style="fill: rgb(30, 30, 30);" transform="matrix(-0.258819, -0.965926, 0.965926, -0.258819, 402.449249, 794.25925)"/>
  <path id="polygon5" d="M 780.623 293.528 L 399.841 314.403 L 399.435 314.434 L 399.154 314.747 L 389.341 326.278 L 389.091 326.559 L 389.091 326.934 L 389.091 376.528 L 389.091 415.872 L 389.091 465.466 L 389.091 465.841 L 389.341 466.122 L 399.154 477.653 L 399.435 477.966 L 399.841 477.997 L 780.623 498.872 L 780.998 498.903 L 781.311 498.653 L 798.967 484.84 L 877.592 479.027 L 890.248 490.496 L 890.654 490.871 L 891.154 490.746 L 897.06 489.277 L 897.373 489.183 L 897.561 488.933 L 905.186 480.12 L 905.311 479.964 L 905.374 479.776 L 910.28 465.057 L 910.343 464.901 L 910.343 464.713 L 910.343 460.557 L 910.343 459.557 L 909.812 459.557 L 909.812 458.963 L 910.343 458.963 L 910.343 457.963 L 910.343 398.872 L 910.343 393.528 L 910.343 334.434 L 910.343 333.434 L 909.812 333.434 L 909.812 332.84 L 910.343 332.84 L 910.343 331.84 L 910.343 327.684 L 910.343 327.528 L 910.28 327.372 L 905.374 312.622 L 905.311 312.434 L 905.186 312.309 L 897.561 303.465 L 897.373 303.215 L 897.06 303.121 L 891.154 301.652 L 890.654 301.527 L 890.248 301.902 L 877.56 313.402 L 798.966 307.558 L 781.31 293.745 L 780.997 293.526 L 780.623 293.526 L 780.623 293.528 Z M 780.373 295.559 L 797.998 309.309 L 798.248 309.497 L 798.529 309.528 L 877.842 315.403 L 878.248 315.434 L 878.592 315.153 L 891.217 303.715 L 896.311 305.028 L 903.53 313.434 L 908.343 327.903 L 908.343 330.841 L 907.812 330.841 L 907.812 331.841 L 907.812 334.435 L 907.812 335.435 L 908.343 335.435 L 908.343 393.529 L 908.343 398.873 L 908.343 456.967 L 907.812 456.967 L 907.812 457.967 L 907.812 460.561 L 907.812 461.561 L 908.343 461.561 L 908.343 464.499 L 903.53 478.937 L 896.28 487.406 L 891.217 488.687 L 878.592 477.249 L 878.248 476.968 L 877.842 476.999 L 798.529 482.874 L 798.248 482.905 L 797.998 483.093 L 780.373 496.843 L 400.404 476.028 L 391.091 465.09 L 391.091 415.872 L 391.091 376.528 L 391.091 327.309 L 400.404 316.372 L 780.373 295.559 Z" style="fill: rgb(30, 30, 30);" transform="matrix(-0.258819, -0.965926, 0.965926, -0.258819, 435.16216, 1126.34077)"/>
  <path id="polyline7" d="M 747.636 181.303 L 744.261 189.491 L 652.761 199.397 L 647.105 190.616 L 645.417 191.71 L 651.417 201.023 L 651.73 201.523 L 652.355 201.46 L 745.074 191.429 L 745.668 191.366 L 745.887 190.803 L 749.481 182.053 L 747.636 181.303 Z" style="fill: rgb(30, 30, 30);" transform="matrix(-0.258819, -0.965926, 0.965926, -0.258819, 693.071454, 914.638338)"/>
  <path id="polyline9" d="M 784.029 327.068 L 397.435 332.318 L 397.341 332.318 L 397.216 332.318 L 391.247 333.818 L 390.466 334.006 L 390.466 334.787 L 390.466 376.287 L 390.466 416.443 L 390.466 457.943 L 390.466 458.756 L 391.247 458.944 L 397.216 460.413 L 397.341 460.444 L 397.435 460.444 L 784.029 465.694 L 784.06 465.694 L 909.06 461.725 L 908.997 459.725 L 784.059 463.694 L 783.996 463.694 L 397.558 458.444 L 392.464 457.163 L 392.464 416.444 L 392.464 376.287 L 392.464 335.568 L 397.558 334.318 L 783.996 329.068 L 784.059 329.068 L 908.997 333.006 L 909.06 331.006 L 784.06 327.068 L 784.029 327.068 L 784.029 327.068 Z" style="fill: rgb(30, 30, 30);" transform="matrix(-0.258819, -0.965926, 0.965926, -0.258819, 435.059551, 1126.594848)"/>
  <path id="polyline11" d="M 814.851 452.139 L 813.82 452.17 L 556.039 455.357 L 555.914 455.357 L 555.789 455.388 L 549.883 457.107 L 550.446 459.013 L 556.071 457.357 L 556.134 457.357 L 812.853 454.169 L 812.853 492.075 L 812.853 544.169 L 812.853 582.075 L 556.134 578.887 L 556.071 578.887 L 550.446 577.231 L 549.883 579.137 L 555.789 580.856 L 555.914 580.887 L 556.039 580.887 L 813.82 584.075 L 814.851 584.106 L 814.851 583.075 L 814.851 544.169 L 814.851 492.075 L 814.851 453.17 L 814.851 452.139 L 814.851 452.139 Z" style="fill: rgb(30, 30, 30);" transform="matrix(-0.258819, -0.965926, 0.965926, -0.258819, 358.508487, 1311.338274)"/>
  <g id="g13" transform="matrix(-0.258819, -0.965926, 0.965926, -0.258819, 563.325317, 696.401733)">
    <path d="M281.418,226.729l-7.46-7.463l0.002-32.573v-4.283l9.912-0.002v-1.219h-9.912v-4.119l9.912-0.002v-1.22&#10;&#9;&#9;h-9.912v-4.763h9.91v-1.222h-9.91v-4.853h9.912v-1.224h-9.912v-4.393h9.912v-1.224h-9.912v-4.208l9.91-0.002v-1.219h-9.91v-4.579&#10;&#9;&#9;h9.91v-1.222h-9.91v-4.578h9.91v-1.222h-9.91v-4.396h9.91v-1.222h-9.912v-32.532l7.46-7.458h110.2l8.32,8.316v31.674h-10.957v1.222&#10;&#9;&#9;h10.955v4.396h-10.955v1.222h10.955v4.578h-10.955v1.222h10.955v4.579h-10.955v1.221h10.955v4.208h-10.955v1.224h10.955v4.393&#10;&#9;&#9;h-10.955v1.224h10.955v4.853h-10.955v1.222h10.955v4.763l-10.955-0.002v1.224h10.955v4.119h-10.955v1.221h10.957v5.021v30.979&#10;&#9;&#9;l-8.32,8.32H281.418L281.418,226.729z M275.959,186.692v31.745l6.287,6.289H390.79l7.146-7.148V187.43v-3.021h-10.955v-4.222&#10;&#9;&#9;v-1.002h10.955v-0.116h-10.955v-5.223h10.957v-0.762h-10.957v-5.222h10.957v-0.853h-10.957v-5.224h10.957v-0.394h-10.957v-5.223&#10;&#9;&#9;h10.955v-0.208h-10.955v-5.221h10.955v-0.579h-10.955v-5.222l10.955-0.002v-0.577h-10.955v-5.221l10.957-0.002v-0.394h-10.957&#10;&#9;&#9;v-5.222h10.955v-28.844l-7.146-7.146H282.247l-6.289,6.287v29.704h9.912v5.222h-9.912v0.396h9.912v5.221h-9.912v0.579h9.912v5.222&#10;&#9;&#9;h-9.912v0.579h9.912v5.221h-9.912v0.208h9.912v5.223h-9.912v0.394h9.912v5.224h-9.912v0.853h9.912v5.222h-9.912v0.762h9.912v5.223&#10;&#9;&#9;h-9.912v0.116h9.912v5.224h-9.912L275.959,186.692L275.959,186.692z" style="fill: rgb(30, 30, 30);"/>
  </g>
  <g id="g17" transform="matrix(-0.258819, -0.965926, 0.965926, -0.258819, 563.325317, 696.401733)">
    <path d="M401.804,95.75l8.444,0.234v128.288l-7.418,0.184l-0.025-0.999l0.025,0.999l-1.026,0.023V95.75&#10;&#9;&#9;L401.804,95.75z M403.806,222.431l4.44-0.109V97.929l-4.44-0.125V222.431L403.806,222.431z M410.827,96.003l7.982,0.222v127.833&#10;&#9;&#9;l-6.956,0.174l-0.025-0.999l0.025,0.999l-1.026,0.025V96.003L410.827,96.003z M412.829,222.207l3.982-0.1V98.17l-3.982-0.112&#10;&#9;&#9;V222.207L412.829,222.207z M419.388,96.242l7.985,0.222v127.38l-6.959,0.175l-0.025-0.998l0.025,0.998l-1.026,0.025V96.242&#10;&#9;&#9;L419.388,96.242z M421.39,221.993l3.983-0.101V98.411l-3.983-0.112V221.993L421.39,221.993z M427.951,96.482l7.982,0.222V223.63&#10;&#9;&#9;l-6.958,0.174l-0.023-0.999l0.023,0.999l-1.024,0.025V96.482L427.951,96.482z M429.951,221.78l3.982-0.099V98.651l-3.982-0.112&#10;&#9;&#9;V221.78L429.951,221.78z M436.513,96.721l7.986,0.224v126.472l-6.961,0.176l-0.025-1.001l0.025,1.001l-1.025,0.025V96.721&#10;&#9;&#9;L436.513,96.721z M438.514,221.566l3.983-0.101V98.89l-3.983-0.112V221.566L438.514,221.566z M445.075,96.962l7.984,0.224v126.018&#10;&#9;&#9;l-6.958,0.173l-0.025-0.999l0.025,0.999l-1.026,0.023V96.962L445.075,96.962z M447.077,221.352l3.98-0.099V99.131l-3.98-0.112&#10;&#9;&#9;V221.352L447.077,221.352z M453.637,97.203l7.984,0.222V222.99l-6.958,0.174l-0.025-0.999l0.025,0.999l-1.026,0.025V97.203&#10;&#9;&#9;L453.637,97.203z M455.639,221.139l3.982-0.1V99.369l-3.982-0.112V221.139L455.639,221.139z M462.199,97.443l7.984,0.222v125.112&#10;&#9;&#9;l-6.96,0.173l-0.023-0.999l0.023,0.999l-1.024,0.025V97.443L462.199,97.443z M464.199,220.927l3.985-0.101V99.61l-3.985-0.109&#10;&#9;&#9;V220.927L464.199,220.927z M470.759,97.682l7.984,0.222v124.66l-6.959,0.174l-0.024-0.999l0.024,0.999l-1.025,0.025V97.682&#10;&#9;&#9;L470.759,97.682z M472.761,220.714l3.982-0.099V99.849l-3.982-0.112V220.714L472.761,220.714z M479.323,97.921l7.984,0.224v124.206&#10;&#9;&#9;l-6.96,0.173l-0.025-0.998l0.025,0.998l-1.024,0.025V97.921L479.323,97.921z M481.321,220.498l3.984-0.099v-120.31l-3.984-0.112&#10;&#9;&#9;V220.498L481.321,220.498z M487.885,98.162l7.984,0.222v123.754l-6.96,0.173l-0.023-0.999l0.023,0.999l-1.024,0.023V98.162&#10;&#9;&#9;L487.885,98.162z M489.885,220.285l3.984-0.099V100.33l-3.984-0.112V220.285L489.885,220.285z M496.447,98.402l7.982,0.222v123.3&#10;&#9;&#9;l-6.958,0.174l-0.023-0.999l0.023,0.999l-1.024,0.025V98.402L496.447,98.402z M498.447,220.072l3.983-0.1V100.571l-3.983-0.112&#10;&#9;&#9;V220.072L498.447,220.072z M505.009,98.641l7.982,0.222v122.847l-6.958,0.175l-0.025-0.999l0.025,0.999l-1.024,0.023V98.641&#10;&#9;&#9;L505.009,98.641z M507.007,219.858l3.984-0.099V100.81l-3.984-0.112V219.858L507.007,219.858z M513.569,99.91v-1.029l8.447,0.234&#10;&#9;&#9;v122.369l-8.447,0.21V99.91L513.569,99.91z M515.569,219.644l4.445-0.107V101.063l-4.443-0.125L515.569,219.644L515.569,219.644z&#10;&#9;&#9; M514.543,100.909l0.027-0.999L514.543,100.909L514.543,100.909z" style="fill: rgb(30, 30, 30);"/>
  </g>
  <path id="line21" d="M 576.928 290.362 L 556.489 309.956 L 557.896 311.394 L 578.334 291.831 L 576.928 290.362 Z" style="fill: rgb(30, 30, 30);" transform="matrix(-0.258819, -0.965926, 0.965926, -0.258819, 423.642687, 926.828369)"/>
  <path id="line23" d="M 580.41 375.907 L 579.066 377.376 L 600.224 396.939 L 601.599 395.47 L 580.41 375.907 Z" style="fill: rgb(30, 30, 30);" transform="matrix(-0.258819, -0.965926, 0.965926, -0.258819, 369.866003, 1056.654105)"/>
  <path id="line25" d="M 706.114 347.534 L 684.957 367.097 L 686.301 368.566 L 707.489 349.003 L 706.114 347.534 Z" style="fill: rgb(30, 30, 30);" transform="matrix(-0.258819, -0.965926, 0.965926, -0.258819, 530.569296, 1123.219998)"/>
  <path id="line27" d="M 663.785 261.988 L 662.379 263.426 L 682.817 283.02 L 684.223 281.582 L 663.785 261.988 Z" style="fill: rgb(30, 30, 30);" transform="matrix(-0.258819, -0.965926, 0.965926, -0.258819, 584.345313, 993.392062)"/>
  <path id="line29" d="M 581.76 277.033 L 564.916 300.189 L 566.541 301.377 L 583.385 278.221 L 581.76 277.033 Z" style="fill: rgb(30, 30, 30);" transform="matrix(-0.258819, -0.965926, 0.965926, -0.258819, 443.400802, 918.643536)"/>
  <path id="line31" d="M 595.31 380.159 L 593.591 381.19 L 609.123 406.409 L 610.841 405.378 L 595.31 380.159 Z" style="fill: rgb(30, 30, 30);" transform="matrix(-0.258819, -0.965926, 0.965926, -0.258819, 378.197965, 1076.769437)"/>
  <path id="line33" d="M 696.267 356.809 L 680.736 382.028 L 682.455 383.059 L 697.986 357.84 L 696.267 356.809 Z" style="fill: rgb(30, 30, 30);" transform="matrix(-0.258819, -0.965926, 0.965926, -0.258819, 510.451795, 1131.551525)"/>
  <path id="line35" d="M 654.017 253.594 L 652.392 254.782 L 669.236 277.938 L 670.861 276.75 L 654.017 253.594 Z" style="fill: rgb(30, 30, 30);" transform="matrix(-0.258819, -0.965926, 0.965926, -0.258819, 576.157917, 973.633434)"/>
  <path id="circle37" d="M 632.166 281.054 C 605.287 281.054 583.479 302.863 583.479 329.742 C 583.479 356.62 605.287 378.43 632.166 378.43 C 659.044 378.43 680.854 356.62 680.854 329.742 C 680.854 302.863 659.044 281.054 632.166 281.054 Z M 632.166 283.054 C 657.963 283.054 678.854 303.944 678.854 329.742 C 678.854 355.539 657.963 376.43 632.166 376.43 C 606.368 376.43 585.479 355.539 585.479 329.742 C 585.479 303.944 606.368 283.054 632.166 283.054 Z" style="fill: rgb(30, 30, 30);" transform="matrix(-0.258819, -0.965926, 0.965926, -0.258819, 477.277022, 1025.711482)"/>
  <g id="g39" transform="matrix(-0.258819, -0.965926, 0.965926, -0.258819, 563.325317, 696.401733)">
    <path d="M352.864,207.148l-0.347-1.938c13.755-5.082,24.455-16.47,28.612-30.646l0,0l1.961,0.283v20.393&#10;&#9;&#9;l-11.911,11.909H352.864L352.864,207.148z M357.732,205.147l12.619-0.002l10.737-10.737v-13.829&#10;&#9;&#9;C376.492,191.3,368.165,200.034,357.732,205.147L357.732,205.147z M302.589,207.148l-13.103-13.109v-19.519l1.962-0.274&#10;&#9;&#9;c4.09,14.324,14.843,25.842,28.701,30.963l0,0l-0.348,1.938H302.589L302.589,207.148z M291.488,193.212l11.934,11.937h11.514&#10;&#9;&#9;c-10.504-5.149-18.873-13.971-23.449-24.794l0,0L291.488,193.212L291.488,193.212z M289.526,174.795l0.961-0.274L289.526,174.795&#10;&#9;&#9;L289.526,174.795z M289.486,148.29v-19.658v-0.415l13.104-13.107h18.825l0.313,1.95c-14.615,4.81-26.038,16.642-30.281,31.504l0,0&#10;&#9;&#9;L289.486,148.29L289.486,148.29z M291.486,142.458c4.747-11.226,13.578-20.294,24.639-25.348l0,0H303.42l-11.934,11.936V142.458&#10;&#9;&#9;L291.486,142.458z M350.938,117.06l0.313-1.95h19.515v0.999l-0.708,0.708l0.708-0.708v-0.999h0.413l11.909,11.909v20.948&#10;&#9;&#9;l-1.959,0.28C376.816,133.533,365.448,121.833,350.938,117.06L350.938,117.06z M381.09,142.236l-0.001-14.387l-10.737-10.74&#10;&#9;&#9;h-13.809C367.529,122.129,376.32,131.114,381.09,142.236L381.09,142.236z" style="fill: rgb(30, 30, 30);"/>
  </g>
  <path d="M 595.171 142.182" style="fill: rgb(30, 30, 30);" transform="matrix(-0.258819, -0.965926, 0.965926, -0.258819, 611.87515, 753.872474)"/>
  <path id="line45" d="M 589.197 131.003 L 589.197 133.003 L 595.697 133.003 L 595.697 131.003 L 589.197 131.003 Z" style="fill: rgb(30, 30, 30);" transform="matrix(-0.258819, -0.965926, 0.965926, -0.258819, 618.278582, 738.427765)"/>
  <path id="line47" d="M 585.711 117.993 L 585.711 119.993 L 592.211 119.993 L 592.211 117.993 L 585.711 117.993 Z" style="fill: rgb(30, 30, 30);" transform="matrix(-0.258819, -0.965926, 0.965926, -0.258819, 626.457009, 718.683273)"/>
  <path id="line49" d="M 582.225 104.984 L 582.225 106.984 L 588.725 106.984 L 588.725 104.984 L 582.225 104.984 Z" style="fill: rgb(30, 30, 30);" transform="matrix(-0.258819, -0.965926, 0.965926, -0.258819, 634.634198, 698.940079)"/>
  <path id="line51" d="M 578.711 91.929 L 578.711 93.929 L 585.242 93.929 L 585.242 91.929 L 578.711 91.929 Z" style="fill: rgb(30, 30, 30);" transform="matrix(-0.258819, -0.965926, 0.965926, -0.258819, 642.840675, 679.126897)"/>
  <path id="line53" d="M 575.233 78.949 L 575.233 80.949 L 581.764 80.949 L 581.764 78.949 L 575.233 78.949 Z" style="fill: rgb(30, 30, 30);" transform="matrix(-0.258819, -0.965926, 0.965926, -0.258819, 650.999935, 659.427956)"/>
  <path id="line55" d="M 557.693 83.589 L 557.693 85.589 L 564.068 85.589 L 564.068 83.589 L 557.693 83.589 Z" style="fill: rgb(30, 30, 30);" transform="matrix(-0.258819, -0.965926, 0.965926, -0.258819, 624.340483, 648.251202)"/>
  <path id="line57" d="M 561.108 96.568 L 561.108 98.568 L 567.608 98.568 L 567.608 96.568 L 561.108 96.568 Z" style="fill: rgb(30, 30, 30);" transform="matrix(-0.258819, -0.965926, 0.965926, -0.258819, 616.181271, 667.9484)"/>
  <path id="line59" d="M 564.559 109.623 L 564.559 111.623 L 571.153 111.623 L 571.153 109.623 L 564.559 109.623 Z" style="fill: rgb(30, 30, 30);" transform="matrix(-0.258819, -0.965926, 0.965926, -0.258819, 607.974432, 687.76111)"/>
  <path id="line61" d="M 568.064 122.649 L 568.064 124.649 L 574.627 124.649 L 574.627 122.649 L 568.064 122.649 Z" style="fill: rgb(30, 30, 30);" transform="matrix(-0.258819, -0.965926, 0.965926, -0.258819, 599.784926, 707.52908)"/>
  <path id="line63" d="M 571.602 135.674 L 571.602 137.674 L 578.071 137.674 L 578.071 135.674 L 571.602 135.674 Z" style="fill: rgb(30, 30, 30);" transform="matrix(-0.258819, -0.965926, 0.965926, -0.258819, 591.598297, 727.297248)"/>
  <path d="M 577.564 146.899" style="fill: rgb(30, 30, 30);" transform="matrix(-0.258819, -0.965926, 0.965926, -0.258819, 585.155151, 742.803264)"/>
  <g id="g67" transform="matrix(-0.258819, -0.965926, 0.965926, -0.258819, 563.325317, 696.401733)">
    <path d="M526.091,147.933l9.241,0.405v33.498l-8.196,0.362l-0.043-1l0.043,1l-1.045,0.045V147.933L526.091,147.933z&#10;&#9;&#9; M528.093,180.152l5.239-0.231v-29.668l-5.239-0.23V180.152L528.093,180.152z M539.841,148.539l8.964,0.396v32.303l-7.921,0.352&#10;&#9;&#9;l-0.043-0.997l0.043,0.997l-1.043,0.047V148.539L539.841,148.539z M541.839,179.546l4.966-0.22v-28.479l-4.966-0.22V179.546&#10;&#9;&#9;L541.839,179.546z M553.312,149.131l8.966,0.396v31.118l-7.923,0.352l-0.043-0.999l0.043,0.999l-1.043,0.045V149.131&#10;&#9;&#9;L553.312,149.131z M555.31,178.951l4.968-0.22v-27.289l-4.968-0.22V178.951L555.31,178.951z M566.782,149.728l8.968,0.395v29.93&#10;&#9;&#9;l-7.923,0.35l-0.043-0.997l0.043,0.997l-1.045,0.047V149.728L566.782,149.728z M568.784,178.356l4.966-0.218v-26.102l-4.966-0.22&#10;&#9;&#9;V178.356L568.784,178.356z M580.253,150.321l8.968,0.396v28.739l-7.923,0.352l-0.043-0.998l0.043,0.998l-1.045,0.047V150.321&#10;&#9;&#9;L580.253,150.321z M582.255,177.764l4.966-0.22V152.63l-4.966-0.22V177.764L582.255,177.764z M593.727,151.96v-1.045l9.489,0.418&#10;&#9;&#9;v27.508l-9.489,0.418V151.96L593.727,151.96z M595.726,177.168l5.488-0.24v-23.68l-5.488-0.242V177.168L595.726,177.168z&#10;&#9;&#9; M594.682,152.96l0.045-1L594.682,152.96L594.682,152.96z" style="fill: rgb(30, 30, 30);"/>
  </g>
</svg>