<?xml version="1.0" encoding="utf-8"?>
<svg id="Ebene_1" enable-background="new 0 0 566.93 72.714" height="72.714px" viewBox="0 0 566.93 72.714" width="566.93px" version="1.1" y="0px" x="0px" xmlns="http://www.w3.org/2000/svg">
  <g id="g3" fill="#fff">
    <path id="path5" d="m122.88 3.133c2.804-3.588 8.608-4.201 12.048-1.191 1.407 1.187 2.393 2.82 2.897 4.579 6.369 21.915 12.767 43.82 19.127 65.737-3.758 0.004-7.52-0.006-11.277 0.004-1.773-6.042-3.504-12.096-5.254-18.146-7.269-0.016-14.534-0.003-21.802-0.006-1.779 6.045-3.536 12.097-5.284 18.153-3.738-0.013-7.477-0.003-11.216-0.007 6.051-20.905 12.109-41.812 18.189-62.71 0.71-2.184 0.98-4.626 2.56-6.413m6.63 13.429c-2.665 9.08-5.276 18.176-7.926 27.259 5.283 0.024 10.563 0.009 15.844 0.009-2.63-9.09-5.26-18.179-7.91-27.268z"/>
    <path id="path7" d="m202.06 3.604c1.959-2.842 5.746-4.22 9.08-3.343 3.051 0.703 5.387 3.333 6.192 6.294 6.362 21.899 12.748 43.791 19.11 65.69-3.765 0.027-7.526 0-11.29 0.016-1.75-6.048-3.481-12.104-5.245-18.15-7.256 0.003-14.511-0.013-21.767 0.006-1.734 6.053-3.523 12.091-5.257 18.142-3.735 0.004-7.469-0.003-11.203 0.004 6.048-21.021 12.167-42.024 18.263-63.029 0.65-1.899 0.9-3.991 2.13-5.63m-0.91 40.227c5.261 0.007 10.519 0.003 15.779 0.003-2.617-9.108-5.276-18.204-7.885-27.313-2.63 9.105-5.28 18.201-7.89 27.31z"/>
    <path id="path9" d="m148.54 0.152h40.791v11c-5.007 0.004-10.011-0.006-15.016 0.004 0 20.366 0.003 40.736-0.003 61.102h-10.757c0-20.365-0.004-40.735 0.002-61.102-5.006-0.01-10.01 0-15.019-0.004 0.01-3.667 0-7.332 0.01-11z"/>
    <path id="path11" d="m248.4 0.599c1.034-0.356 2.136-0.479 3.227-0.452 4.287 0.016 8.575 0.003 12.861 0.006 7.22 0.132 14.112 4.612 17.236 11.11 2.163 4.22 2.387 9.127 1.841 13.756-0.376 4.847-2.408 9.692-6.134 12.904-1.969 1.755-4.42 2.816-6.525 4.378-1.157 0.881-1.214 2.593-0.617 3.815 5.69 8.784 11.606 17.432 17.416 26.142-4.249 0.007-8.498-0.01-12.747 0.007-5.562-8.354-11.065-16.75-16.604-25.116-1.628-2.381-2.071-5.534-1.097-8.252 0.762-2.083 2.582-3.609 4.611-4.396 3.873-1.478 7.691-3.8 9.836-7.453 1.632-2.747 1.548-6.137 0.813-9.143-0.86-3.902-4.663-6.973-8.681-6.838-2.778 0.02-5.556-0.014-8.33 0.013-1.256-0.028-2.438 1.063-2.422 2.335-0.013 19.615 0.006 39.232-0.006 58.848-3.613-0.007-7.223 0-10.836-0.004-0.007-21.117 0.006-42.236-0.007-63.354 0.02-3.7 2.65-7.182 6.16-8.306z"/>
    <path id="path13" d="m293.38 0.152h11.402c-0.003 24.037 0.007 48.071-0.006 72.109-3.797-0.01-7.596 0-11.396-0.004 0.01-24.037 0.01-48.071 0.01-72.105z"/>
    <path id="path15" d="m32.154 0.005c1.826-0.006 3.652 0 5.479-0.004 0.008 4.294 0 8.589 0.003 12.882 0.019 3.584-0.082 7.167-0.231 10.748-0.244 5.17-0.568 10.352-1.425 15.462-0.588 3.522-1.807 6.922-3.319 10.147-2.467 5.2-6.343 9.601-10.7 13.302-3.898 3.43-8.551 5.928-13.444 7.617-2.768 0.953-5.617 1.688-8.518 2.098 0.003-3.602 0.003-7.203 0-10.805 3.492-0.524 6.849-1.765 9.967-3.402 3.7-1.955 7.03-4.587 9.833-7.688 2.895-3.202 5.202-6.908 6.953-10.847 2.062-4.526 3.166-9.415 3.916-14.311 0.94-6.224 1.332-12.517 1.478-18.808 0.02-2.13 0.002-4.261 0.008-6.391z"/>
    <path id="path17" d="m39.837 0.011c3.361-0.022 6.724-0.003 10.086-0.009 0.001 24.085 0.001 48.169 0 72.253-3.354 0.007-6.709-0.017-10.063 0.014-0.042-7.68-0.006-15.361-0.018-23.041-0.003-16.406 0.007-32.809-0.005-49.217z"/>
    <path id="path19" d="m52.167 0.003c1.816-0.001 3.632-0.005 5.447 0.001-0.059 7.344 0.191 14.699 1.066 21.996 0.717 5.666 1.727 11.376 3.983 16.653 2.14 5.109 5.224 9.856 9.243 13.685 3.838 3.658 8.49 6.473 13.543 8.093 1.41 0.45 2.852 0.805 4.318 1.018-0.002 3.601-0.003 7.2 0 10.8-2.88-0.392-5.704-1.134-8.453-2.067-3.273-1.139-6.438-2.614-9.346-4.505-2.123-1.364-4.053-2.998-5.907-4.703-3.057-2.818-5.792-6.021-7.847-9.648-1.607-2.823-2.78-5.877-3.698-8.988-0.842-3.129-1.201-6.362-1.528-9.578-0.632-6.95-0.868-13.936-0.823-20.911 0.002-3.953 0.001-7.901 0.002-11.846z"/>
    <path id="path21" d="m32.154 0.005c-0.006 2.131 0.012 4.262-0.009 6.393-0.145 6.29-0.537 12.584-1.477 18.808-0.75 4.896-1.854 9.784-3.916 14.311-1.751 3.938-4.059 7.646-6.953 10.847-2.803 3.103-6.134 5.733-9.833 7.688-3.118 1.639-6.475 2.878-9.967 3.401 0.003 3.603 0.003 7.204 0 10.806 2.901-0.409 5.75-1.145 8.518-2.097 4.894-1.69 9.546-4.188 13.444-7.618 4.357-3.701 8.233-8.102 10.7-13.302 1.512-3.227 2.731-6.625 3.319-10.147 0.857-5.111 1.181-10.292 1.425-15.462 0.149-3.581 0.25-7.164 0.231-10.748-0.003-4.293 0.005-8.588-0.003-12.882-1.827 0.002-3.653-0.004-5.479 0.002"/>
    <path id="path23" d="m39.837 0.011c0.012 16.407 0.001 32.812 0.006 49.217 0.012 7.68-0.025 15.361 0.018 23.041 3.354-0.029 6.709-0.007 10.063-0.014 0.001-24.084 0.001-48.168 0-72.253-3.363 0.006-6.726-0.014-10.087 0.009"/>
    <path id="path25" d="m52.167 0.003c-0.001 3.945 0 7.895 0 11.842-0.045 6.977 0.191 13.961 0.823 20.911 0.327 3.216 0.686 6.449 1.528 9.578 0.918 3.111 2.091 6.165 3.698 8.988 2.054 3.627 4.79 6.83 7.847 9.648 1.854 1.705 3.785 3.339 5.907 4.703 2.907 1.891 6.073 3.366 9.346 4.505 2.749 0.935 5.573 1.677 8.453 2.067-0.003-3.6-0.002-7.199 0-10.8-1.466-0.213-2.908-0.566-4.318-1.018-5.053-1.62-9.705-4.435-13.543-8.093-4.019-3.827-7.103-8.574-9.243-13.685-2.257-5.277-3.267-10.987-3.983-16.653-0.875-7.297-1.125-14.652-1.066-21.996-1.817-0.002-3.632 0.002-5.449 0.003"/>
    <path id="path27" d="m437.87 34.488c5.281-3.112 8.575-8.381 8.575-14.23 0-13.813-14.59-20.104-28.146-20.104-13.558 0-28.146 6.291-28.146 20.104 0 5.851 3.293 11.118 8.574 14.23-7.51 3.478-11.713 9.403-11.713 16.784 0 13.913 15.737 21.192 31.283 21.192s31.283-7.279 31.283-21.192c0.03-7.381-4.18-13.307-11.69-16.784zm-19.57-8.756c-3.458 0-6.271-2.23-6.271-4.974s2.813-4.975 6.271-4.975c3.455 0 6.269 2.231 6.269 4.975s-2.81 4.974-6.27 4.974zm0 17.725c3.847 0 6.978 2.567 6.978 5.727 0 3.065-3.131 5.559-6.978 5.559-3.85 0-6.979-2.492-6.979-5.559 0-3.16 3.14-5.727 6.98-5.727z"/>
    <path id="path29" d="m498.23 11.921c-5.774-7.698-14.256-11.769-24.529-11.769-10.272 0-18.755 4.069-24.529 11.769-4.854 6.476-7.529 15.181-7.529 24.513 0 18.058 9.913 36.281 32.06 36.281s32.062-18.224 32.062-36.281c0-9.333-2.67-18.038-7.53-24.513zm-24.53 39.309c-7.721 0-8.566-10.037-8.566-14.881 0-4.798 0.847-14.714 8.566-14.714 7.721 0 8.566 9.916 8.566 14.714 0 4.844-0.85 14.881-8.57 14.881z"/>
    <path id="path31" d="m559.4 11.921c-5.773-7.698-14.256-11.769-24.528-11.769s-18.755 4.069-24.529 11.769c-4.855 6.476-7.53 15.181-7.53 24.513 0 18.058 9.914 36.281 32.061 36.281s32.061-18.224 32.061-36.281c0-9.333-2.68-18.038-7.53-24.513zm-24.53 39.309c-7.722 0-8.567-10.037-8.567-14.881 0-4.798 0.847-14.714 8.567-14.714s8.566 9.916 8.566 14.714c0 4.844-0.85 14.881-8.57 14.881z"/>
    <polygon id="polygon33" points="336.52 1.165 336.52 23.181 366.66 23.181 344.17 72.386 369.64 72.386 399.88 1.165"/>
  </g>
</svg>