<?xml version="1.0" encoding="utf-8"?>
<svg version="1.0" xmlns="http://www.w3.org/2000/svg">
  <path d="M 1814.194 4273.227 C 1809.283 4269.961 1805.445 4266.91 1804.301 4265.384 C 1802.584 4263.071 1801.488 4261.069 1800.892 4259.019 C 1800.51 4257.755 1800.51 4257.684 1800.987 4257.326 C 1802.083 4256.396 1806.994 4255.943 1818.246 4255.681 C 1823.467 4255.562 1827.83 4255.372 1827.925 4255.276 C 1828.02 4255.181 1828.402 4254.275 1828.759 4253.297 C 1829.57 4251.104 1831.835 4246.551 1833.599 4243.523 C 1836.984 4237.73 1840.607 4234.56 1843.277 4235.061 C 1844.446 4235.299 1846.162 4236.849 1846.663 4238.16 C 1847.187 4239.59 1846.996 4241.712 1846.162 4243.738 C 1845.423 4245.502 1845.018 4246.122 1841.37 4251.057 C 1838.796 4254.537 1838.057 4255.658 1838.224 4255.777 C 1838.271 4255.824 1839.058 4256.253 1839.988 4256.73 C 1842.3 4257.946 1843.683 4259.376 1843.826 4260.759 C 1843.993 4262.261 1843.42 4263.357 1841.394 4265.336 C 1839.344 4267.339 1833.623 4270.962 1832.407 4271.034 L 1831.62 4271.058 L 1831.62 4268.078 L 1831.62 4265.098 L 1829.594 4264.335 C 1825.327 4262.714 1821.322 4262.309 1818.58 4263.167 C 1815.505 4264.144 1815.338 4265.67 1817.603 4271.63 C 1818.318 4273.537 1819.391 4276.731 1819.271 4276.636 C 1819.248 4276.612 1816.959 4275.086 1814.194 4273.227 Z" style="fill: rgb(30, 30, 30);"/>
  <path d="M 1904.019 4275.325 C 1904.115 4274.896 1904.758 4273.012 1905.426 4271.153 C 1906.189 4268.983 1906.689 4267.148 1906.761 4266.17 C 1906.88 4264.74 1906.832 4264.549 1906.26 4263.858 C 1904.711 4262.022 1899.585 4261.832 1894.698 4263.453 C 1891.289 4264.549 1891.027 4264.812 1891.265 4266.48 C 1891.361 4267.172 1891.456 4268.364 1891.456 4269.15 C 1891.456 4270.461 1891.408 4270.581 1890.908 4270.652 C 1890.24 4270.748 1887.499 4269.27 1884.233 4267.053 C 1880.729 4264.668 1879.179 4262.738 1879.179 4260.688 C 1879.179 4258.923 1880.681 4257.326 1883.661 4255.943 C 1884.352 4255.61 1884.9 4255.3 1884.9 4255.205 C 1884.9 4255.133 1883.971 4253.822 1882.826 4252.344 C 1876.581 4244.096 1875.079 4240.806 1876.175 4237.969 C 1876.652 4236.801 1877.081 4236.252 1878.273 4235.323 C 1881.325 4233.01 1885.663 4236.467 1890.55 4245.097 C 1891.48 4246.742 1893.697 4251.605 1894.531 4253.798 L 1894.96 4254.895 L 1896.748 4255.062 C 1897.75 4255.133 1900.706 4255.205 1903.352 4255.205 C 1912.792 4255.229 1921.541 4256.039 1922.232 4256.993 C 1923.019 4258.065 1920.301 4263.357 1917.488 4266.194 C 1915.844 4267.863 1911.505 4271.201 1911.171 4271.058 C 1911.004 4271.01 1910.909 4271.034 1910.956 4271.129 C 1911.028 4271.225 1909.431 4272.369 1907.428 4273.68 C 1903.9 4276.016 1903.805 4276.064 1904.019 4275.325 Z" style="fill: rgb(30, 30, 30);"/>
  <path d="M 1859.416 4274.824 C 1859.011 4273.25 1857.652 4270.271 1856.127 4267.672 C 1851.359 4259.376 1850.095 4255.443 1850.095 4248.816 C 1850.095 4246.861 1850.167 4244.906 1850.238 4244.501 L 1850.405 4243.762 L 1852.122 4243.762 L 1853.862 4243.762 L 1854.029 4241.926 C 1854.267 4238.875 1853.624 4235.585 1852.289 4233.272 C 1851.478 4231.842 1849.356 4229.649 1847.592 4228.386 C 1846.806 4227.813 1844.875 4226.646 1843.325 4225.763 C 1840.345 4224.119 1838.653 4222.926 1838.653 4222.498 C 1838.653 4222.188 1841.251 4216.752 1852.122 4194.177 C 1859.989 4177.847 1859.631 4178.562 1859.965 4179.063 C 1860.132 4179.301 1860.871 4180.708 1861.586 4182.138 C 1863.469 4185.952 1880.609 4219.279 1880.824 4219.565 C 1880.943 4219.708 1881.301 4220.423 1881.634 4221.186 L 1882.254 4222.545 L 1880.299 4223.833 C 1879.227 4224.524 1877.2 4225.763 1875.818 4226.574 C 1868.332 4231.008 1866.163 4233.821 1865.901 4239.471 C 1865.829 4240.854 1865.877 4242.403 1865.996 4242.927 L 1866.211 4243.881 L 1868.141 4243.953 L 1870.049 4244.024 L 1870.192 4245.621 C 1870.359 4247.743 1870.001 4253.393 1869.524 4255.896 C 1868.618 4260.64 1866.95 4264.502 1863.827 4269.15 C 1862.682 4270.867 1861.347 4273.084 1860.871 4274.085 C 1860.37 4275.11 1859.941 4275.944 1859.869 4275.944 C 1859.798 4275.944 1859.583 4275.444 1859.416 4274.824 Z" style="fill: rgb(30, 30, 30);"/>
  <path d="M 1812.549 4241.95 C 1807.567 4241.521 1803.252 4241.164 1802.989 4241.164 L 1802.465 4241.14 L 1803.037 4239.375 C 1803.347 4238.398 1804.396 4235.442 1805.373 4232.772 C 1806.351 4230.102 1807.733 4226.24 1808.449 4224.214 C 1809.688 4220.662 1812.501 4212.795 1814.79 4206.573 C 1816.005 4203.235 1816.149 4201.924 1815.41 4201.019 C 1815.147 4200.685 1814.361 4199.707 1813.669 4198.849 C 1812.954 4197.991 1812.311 4197.276 1812.191 4197.276 C 1811.929 4197.276 1805.206 4204.642 1797.149 4213.725 C 1793.335 4218.016 1786.064 4226.574 1781.201 4232.486 C 1780.223 4233.678 1779.341 4234.679 1779.246 4234.679 C 1778.984 4234.703 1773.262 4229.888 1770.401 4227.218 C 1767.684 4224.69 1761.891 4218.635 1761.891 4218.326 C 1761.891 4218.159 1764.489 4216.108 1768.685 4213.009 C 1770.926 4211.341 1776.79 4206.907 1778.817 4205.381 C 1780.509 4204.07 1787.613 4198.825 1792.071 4195.559 C 1795.671 4192.961 1801.869 4188.622 1803.8 4187.382 C 1804.61 4186.858 1805.278 4186.31 1805.278 4186.167 C 1805.278 4186.023 1804.92 4185.094 1804.491 4184.14 C 1804.038 4183.163 1803.323 4181.304 1802.894 4179.992 C 1802.465 4178.681 1802.083 4177.561 1802.036 4177.537 C 1801.964 4177.418 1795.695 4179.611 1789.306 4181.971 C 1786.493 4183.02 1783.751 4183.998 1783.227 4184.164 C 1782.702 4184.331 1780.128 4185.261 1777.505 4186.238 C 1774.883 4187.216 1770.974 4188.646 1768.804 4189.409 C 1766.635 4190.172 1763.274 4191.387 1761.295 4192.15 C 1759.34 4192.889 1756.813 4193.819 1755.693 4194.177 C 1754.572 4194.558 1752.331 4195.345 1750.687 4195.964 C 1749.042 4196.584 1746.896 4197.395 1745.895 4197.752 L 1744.083 4198.42 L 1742.224 4195.059 C 1741.199 4193.199 1739.482 4190.124 1738.409 4188.217 C 1737.337 4186.31 1735.787 4183.521 1734.953 4182.019 C 1734.118 4180.517 1732.545 4177.68 1731.472 4175.701 C 1730.376 4173.747 1729.517 4172.125 1729.541 4172.102 C 1729.613 4172.006 1743.201 4170.147 1748.183 4169.527 C 1754.858 4168.693 1762.94 4167.811 1767.851 4167.358 C 1774.716 4166.762 1788.352 4165.618 1793.716 4165.212 C 1796.481 4164.998 1798.961 4164.783 1799.223 4164.711 C 1799.7 4164.616 1799.747 4164.449 1799.866 4160.635 C 1799.962 4158.418 1800.081 4156.082 1800.176 4155.438 L 1800.319 4154.222 L 1797.268 4153.793 C 1795.575 4153.555 1792.643 4153.173 1790.736 4152.935 C 1788.829 4152.697 1782.607 4151.791 1776.91 4150.933 C 1764.346 4149.049 1757.481 4148.048 1754.62 4147.69 C 1753.452 4147.547 1750.019 4147.071 1746.991 4146.618 C 1743.988 4146.165 1736.812 4145.092 1731.043 4144.258 C 1725.298 4143.399 1720.578 4142.684 1720.53 4142.637 C 1720.411 4142.446 1717.121 4131.599 1716.072 4127.904 C 1715.405 4125.616 1714.022 4120.943 1712.973 4117.534 C 1710.804 4110.501 1710.542 4109.572 1710.685 4109.429 C 1710.804 4109.31 1715.19 4110.74 1719.934 4112.433 C 1721.841 4113.1 1725.322 4114.316 1727.682 4115.15 C 1730.042 4115.961 1734.071 4117.415 1736.621 4118.369 C 1739.172 4119.322 1742.462 4120.514 1743.892 4120.991 C 1745.347 4121.491 1747.969 4122.469 1749.733 4123.136 C 1751.497 4123.828 1754.405 4124.9 1756.17 4125.52 C 1757.934 4126.164 1761.366 4127.451 1763.798 4128.381 C 1766.23 4129.334 1769.233 4130.455 1770.473 4130.884 C 1771.713 4131.313 1774.621 4132.386 1776.91 4133.268 C 1779.198 4134.15 1782.798 4135.509 1784.896 4136.271 C 1786.993 4137.034 1790.259 4138.227 1792.167 4138.965 C 1796.481 4140.61 1802.918 4142.923 1803.323 4142.994 C 1803.49 4143.018 1804.134 4142.064 1804.777 4140.873 C 1808.21 4134.484 1811.977 4129.645 1816.983 4125.282 C 1819.772 4122.826 1819.701 4122.85 1818.747 4124.948 C 1815.529 4131.909 1813.002 4140.348 1811.81 4148.167 C 1811.5 4150.146 1811.381 4152.315 1811.381 4156.034 C 1811.381 4165.665 1812.906 4171.696 1816.625 4176.56 C 1819.224 4179.969 1822.156 4182.09 1828.259 4184.999 C 1832.979 4187.239 1834.719 4188.741 1836.34 4191.912 C 1837.318 4193.891 1837.723 4195.631 1837.723 4198.039 C 1837.747 4203.832 1834.409 4208.718 1829.713 4209.791 C 1828.593 4210.053 1828.521 4210.101 1828.354 4211.007 C 1828.259 4211.508 1827.591 4215.155 1826.876 4219.088 C 1826.161 4223.022 1825.327 4227.646 1825.064 4229.339 C 1824.802 4231.056 1824.135 4234.679 1823.634 4237.397 C 1823.11 4240.114 1822.68 4242.451 1822.68 4242.57 C 1822.68 4242.856 1823.372 4242.904 1812.549 4241.95 Z" style="fill: rgb(30, 30, 30);"/>
  <path d="M 1898.489 4242.427 C 1898.489 4242.332 1898.012 4239.662 1897.416 4236.515 C 1896.844 4233.344 1896.152 4229.435 1895.89 4227.79 C 1895.366 4224.547 1892.839 4210.745 1892.624 4210.125 C 1892.553 4209.887 1892.147 4209.696 1891.575 4209.601 C 1891.075 4209.529 1890.145 4209.219 1889.501 4208.933 C 1888.238 4208.29 1885.616 4205.858 1885.616 4205.262 C 1885.616 4205.071 1885.52 4204.904 1885.401 4204.904 C 1885.163 4204.904 1884.376 4203.116 1883.851 4201.352 C 1883.375 4199.707 1883.351 4196.155 1883.828 4194.343 C 1884.257 4192.675 1885.306 4190.577 1886.378 4189.242 C 1887.666 4187.621 1889.43 4186.453 1893.911 4184.283 C 1898.656 4181.971 1900.563 4180.66 1903.137 4177.942 C 1906.665 4174.152 1908.263 4170.504 1909.383 4163.591 C 1909.955 4160.158 1909.931 4151.91 1909.359 4148.048 C 1908.286 4140.61 1905.926 4132.601 1902.78 4125.52 C 1902.136 4124.09 1901.659 4122.898 1901.707 4122.898 C 1901.755 4122.898 1902.851 4123.828 1904.139 4124.972 C 1907.881 4128.286 1911.529 4132.529 1913.936 4136.391 C 1915.104 4138.274 1917.131 4141.993 1917.345 4142.661 C 1917.441 4142.923 1917.87 4142.827 1919.467 4142.255 C 1932.722 4137.368 1948.241 4131.599 1949.385 4131.123 C 1949.79 4130.956 1950.529 4130.693 1951.054 4130.526 C 1951.578 4130.359 1953.247 4129.74 1954.749 4129.167 C 1956.251 4128.572 1960.494 4126.998 1964.165 4125.639 C 1967.836 4124.304 1971.436 4122.945 1972.151 4122.66 C 1972.866 4122.374 1974.964 4121.61 1976.8 4120.967 C 1978.635 4120.323 1982.617 4118.893 1985.62 4117.772 C 1996.539 4113.768 2010.508 4108.952 2010.651 4109.119 C 2010.675 4109.167 2010.341 4110.382 2009.889 4111.813 C 2009.436 4113.267 2008.649 4115.77 2008.148 4117.415 C 2007.624 4119.06 2006.813 4121.801 2006.336 4123.494 C 2005.884 4125.21 2004.382 4130.192 2003.047 4134.579 L 2000.591 4142.565 L 1999.9 4142.637 C 1999.519 4142.684 1994.489 4143.399 1988.719 4144.258 C 1974.63 4146.332 1966.12 4147.547 1961.662 4148.167 C 1959.636 4148.453 1952.293 4149.526 1945.332 4150.551 C 1938.395 4151.6 1930.171 4152.768 1927.095 4153.173 C 1924.02 4153.579 1921.35 4153.96 1921.16 4154.032 C 1920.897 4154.103 1920.874 4154.437 1921.016 4155.51 C 1921.112 4156.249 1921.255 4158.585 1921.35 4160.683 L 1921.493 4164.497 L 1925.308 4164.783 C 1934.2 4165.475 1957.586 4167.524 1961.662 4167.978 C 1970.363 4168.907 1990.197 4171.482 1991.532 4171.839 C 1991.699 4171.887 1988.934 4176.965 1982.593 4188.336 C 1979.494 4193.867 1977.11 4198.086 1977.062 4198.158 C 1977.038 4198.182 1975.751 4197.705 1974.178 4197.109 C 1972.604 4196.513 1969.124 4195.25 1966.43 4194.296 C 1959.969 4191.983 1946.953 4187.263 1933.651 4182.376 C 1927.405 4180.088 1919.419 4177.251 1919.229 4177.251 C 1919.157 4177.251 1918.728 4178.348 1918.299 4179.707 C 1917.846 4181.042 1917.131 4182.925 1916.702 4183.902 C 1916.249 4184.855 1915.891 4185.785 1915.891 4185.928 C 1915.891 4186.071 1917.369 4187.192 1919.181 4188.408 C 1924.735 4192.15 1927.215 4193.962 1927.143 4194.201 C 1927.119 4194.343 1927.191 4194.391 1927.31 4194.296 C 1927.453 4194.224 1928.454 4194.844 1929.551 4195.655 C 1930.647 4196.489 1933.318 4198.444 1935.463 4200.041 C 1937.609 4201.614 1940.636 4203.879 1942.209 4205.047 C 1943.759 4206.215 1945.761 4207.717 1946.644 4208.361 C 1947.549 4209.028 1949.981 4210.84 1952.055 4212.414 C 1954.129 4213.987 1956.584 4215.87 1957.538 4216.585 C 1958.491 4217.3 1959.254 4218.016 1959.278 4218.183 C 1959.278 4218.35 1956.99 4220.757 1954.224 4223.57 C 1949.004 4228.791 1942.376 4234.56 1941.828 4234.322 C 1941.661 4234.25 1941.208 4233.797 1940.851 4233.32 C 1940.493 4232.844 1939.492 4231.628 1938.657 4230.65 C 1937.823 4229.673 1936.321 4227.909 1935.344 4226.717 C 1929.169 4219.255 1916.797 4205.214 1910.217 4198.253 L 1908.978 4196.918 L 1908.31 4197.729 C 1907.953 4198.158 1907.166 4199.111 1906.546 4199.803 C 1905.068 4201.471 1904.949 4202.187 1905.76 4204.451 C 1906.117 4205.405 1906.975 4207.884 1907.667 4209.91 C 1908.358 4211.937 1909.574 4215.322 1910.36 4217.42 C 1911.171 4219.518 1912.339 4222.807 1912.983 4224.69 C 1913.65 4226.598 1914.723 4229.649 1915.414 4231.485 C 1916.63 4234.774 1918.752 4240.901 1918.68 4240.901 C 1918.37 4240.901 1900.849 4242.355 1899.871 4242.475 C 1899.108 4242.546 1898.489 4242.522 1898.489 4242.427 Z" style="fill: rgb(30, 30, 30);"/>
  <path d="M 1816.244 4166.428 C 1816.244 4166.309 1819.677 4160.277 1821.012 4158.061 C 1821.655 4157.012 1822.8 4155.033 1823.586 4153.65 C 1824.874 4151.338 1828.902 4144.401 1832.407 4138.417 C 1833.217 4137.058 1833.956 4135.866 1834.052 4135.795 C 1834.147 4135.723 1834.266 4135.485 1834.314 4135.294 C 1834.409 4134.865 1837.914 4128.905 1838.176 4128.738 C 1838.271 4128.667 1838.915 4129.621 1839.606 4130.836 C 1841.275 4133.745 1845.566 4141.135 1848.427 4146.022 C 1849.714 4148.191 1850.93 4150.336 1851.168 4150.79 C 1851.406 4151.243 1852.575 4153.292 1853.79 4155.319 C 1854.982 4157.345 1856.961 4160.707 1858.153 4162.781 L 1860.298 4166.523 L 1838.271 4166.523 C 1826.161 4166.523 1816.244 4166.476 1816.244 4166.428 Z" style="fill: rgb(30, 30, 30);"/>
  <path d="M 1861.109 4165.999 C 1861.3 4165.689 1862.73 4163.257 1864.28 4160.563 C 1865.805 4157.87 1867.164 4155.581 1867.26 4155.438 C 1867.426 4155.224 1869.286 4152.005 1875.055 4141.969 C 1876.294 4139.8 1877.415 4137.94 1877.51 4137.797 C 1877.606 4137.678 1877.916 4137.177 1878.178 4136.725 C 1881.968 4129.93 1882.826 4128.595 1883.112 4128.905 C 1883.279 4129.072 1884.209 4130.574 1885.163 4132.243 C 1886.14 4133.912 1888.071 4137.249 1889.454 4139.633 C 1890.836 4142.041 1893.149 4146.045 1894.603 4148.525 C 1896.057 4151.028 1898.608 4155.415 1900.277 4158.299 C 1901.945 4161.184 1903.686 4164.163 1904.115 4164.926 C 1904.568 4165.689 1904.925 4166.356 1904.925 4166.428 C 1904.925 4166.476 1894.984 4166.523 1882.85 4166.523 L 1860.775 4166.523 L 1861.109 4165.999 Z" style="fill: rgb(30, 30, 30);"/>
  <path d="M 1838.748 4127.522 C 1838.819 4127.332 1840.035 4125.21 1841.442 4122.826 C 1842.824 4120.442 1844.851 4116.986 1845.924 4115.15 C 1846.996 4113.314 1848.737 4110.311 1849.786 4108.475 C 1850.834 4106.64 1852.98 4102.945 1854.553 4100.251 C 1856.127 4097.557 1858.081 4094.172 1858.94 4092.694 C 1859.774 4091.216 1860.537 4090.024 1860.608 4090 C 1860.68 4090 1861.157 4090.787 1861.657 4091.74 C 1862.158 4092.67 1863.135 4094.41 1863.85 4095.554 C 1864.542 4096.699 1865.615 4098.534 1866.211 4099.607 C 1866.83 4100.68 1868.189 4103.064 1869.286 4104.899 C 1870.359 4106.735 1872.433 4110.287 1873.863 4112.766 C 1875.317 4115.27 1877.725 4119.394 1879.203 4121.944 C 1880.705 4124.495 1882.04 4126.879 1882.207 4127.237 L 1882.493 4127.904 L 1860.537 4127.904 C 1840.655 4127.904 1838.605 4127.88 1838.748 4127.522 Z" style="fill: rgb(30, 30, 30);"/>
</svg>