<?xml version="1.0" encoding="utf-8"?>
<svg id="svg2" version="1.1" xmlns="http://www.w3.org/2000/svg">
  <title id="title3835">The Legend of Zelda</title>
  <g id="layer1" transform="matrix(0.415919, 0, 0, 0.415919, 20.557705, -143.412872)">
    <path style="fill-opacity: 1; fill: rgb(255, 255, 255);" d="m 127.44765,520.74035 c -5.1127,-1.30182 -26.73232,-2.03447 -54.577755,-1.8496 l -21.246124,0.14109 -0.153574,-1.3375 c -0.137461,-1.19726 0.104233,-1.42388 2.304753,-2.16071 3.454556,-1.15681 6.767678,-3.39649 8.001318,-5.40886 1.857632,-3.03032 2.162959,-7.24746 2.460333,-33.98234 0.293863,-26.41871 0.001,-32.92503 -1.593202,-35.3778 -1.333639,-2.05203 -4.05365,-3.71513 -7.463608,-4.56354 -3.282588,-0.81666 -4.648653,-1.91503 -4.172121,-3.35445 0.151428,-0.45741 7.248935,-0.61357 29.436109,-0.64768 30.866981,-0.0474 40.840381,-0.51765 46.652691,-2.19978 1.87136,-0.54156 3.70728,-0.86677 4.07983,-0.72266 1.01639,0.39322 1.20996,2.33627 1.58221,15.88215 l 0.34106,12.41023 -1.19938,0.32359 c -2.64785,0.71433 -2.81307,0.54328 -6.44555,-6.6742 -4.67255,-9.28395 -6.54455,-11.81735 -10.01869,-13.5583 -2.69192,-1.349 -2.95155,-1.37947 -11.76146,-1.37947 -8.44283,0 -9.121294,0.0705 -10.799672,1.12294 -0.98499,0.61761 -2.07142,1.74363 -2.414292,2.50232 -1.017963,2.25245 -1.646043,9.98743 -1.46741,18.07173 0.144301,6.5311 0.307969,7.81086 1.193796,9.33475 1.716636,2.95322 3.07346,3.15247 17.134008,2.51645 13.55876,-0.61332 13.62557,-0.60121 13.61274,2.46503 -0.0142,3.36636 0.15664,3.3212 -10.08121,2.66671 -16.002683,-1.02304 -18.212095,-0.7543 -20.578691,2.50283 -1.316103,1.81134 -2.02757,11.12399 -1.749448,22.89905 0.300176,12.70813 1.006568,13.91903 8.555499,14.66591 4.65989,0.46109 13.79245,-0.49303 16.56814,-1.73092 4.34719,-1.9387 7.95809,-6.515 15.87971,-20.12527 2.628,-4.5152 3.17959,-5.17105 4.3439,-5.16505 2.78329,0.0141 3.58585,0.51251 3.58585,2.22561 0,1.62142 -4.31469,29.76843 -4.74339,30.9437 -0.284,0.77856 -0.59872,0.75253 -5.26637,-0.43596 z m -89.837528,-0.79068 c -3.933886,-1.22013 -4.389016,-1.24611 -26.025363,-1.48629 -12.11180218,-0.13448 -30.241969,-0.0521 -40.289258,0.18291 -10.386465,0.243 -18.664627,0.2372 -19.187591,-0.0136 -1.535071,-0.73569 -0.646885,-2.47458 4.811643,-9.42024 2.814312,-3.58101 8.157388,-10.425 11.87351,-15.20878 8.06719,-10.38504 13.258298,-16.79373 25.3054818,-31.24085 13.772354,-16.516 19.2379212,-23.61581 19.2379212,-24.99024 0,-2.10662 -1.321603,-2.34736 -10.917974,-1.9888 -16.414601,0.61336 -19.499926,1.29707 -23.53189,5.21449 -2.09331,2.03386 -5.028775,6.41166 -9.185871,13.69928 -2.483359,4.35353 -2.883244,4.80825 -4.356149,4.95413 -2.327182,0.23039 -3.071112,-0.59687 -2.796795,-3.1102 0.601066,-5.50704 1.736962,-17.69732 2.020443,-21.68306 0.242466,-3.40905 0.503531,-4.52175 1.116548,-4.7589 0.440049,-0.17025 2.276614,0.1276 4.081258,0.66191 3.085291,0.91349 5.417488,0.97873 39.0660393,1.09337 19.6816787,0.0671 36.0663927,0.12519 36.4104787,0.12928 0.364979,0.005 0.625614,0.66186 0.625614,1.57848 0,1.28723 -1.334082,3.17155 -7.382199,10.42676 -10.433375,12.51584 -25.803675,31.38057 -28.6529182,35.1672 -0.6881704,0.91455 -4.1983355,5.49231 -7.800365,10.17281 -12.5827058,16.34995 -16.2230438,21.50439 -16.2230438,22.97071 0,1.9163 1.58595,2.09209 15.9877191,1.77219 15.1390629,-0.33626 17.3227399,-0.62311 21.8850349,-2.875 5.011609,-2.47372 9.694009,-8.56528 15.3323,-19.94656 0.970292,-1.95863 2.122902,-3.86125 2.561347,-4.22813 0.827344,-0.69224 4.069793,-0.45776 4.873422,0.35244 0.229598,0.23151 0.09635,3.13477 -0.296105,6.45173 -0.392454,3.31696 -1.089468,9.89091 -1.548926,14.60874 -1.077829,11.06768 -1.348368,12.58925 -2.254731,12.68123 -0.404625,0.0409 -2.537441,-0.48419 -4.739581,-1.16719 z M 215.033,520.54634 c -3.64171,-0.91072 -20.40372,-1.38876 -51.1411,-1.45849 l -24.68279,-0.056 -0.15795,-1.38331 c -0.12733,-1.11513 0.11525,-1.49583 1.25121,-1.96358 4.91473,-2.02357 6.6286,-3.10645 7.94303,-5.01872 2.43428,-3.5414 2.67779,-6.20327 3.0429,-33.26234 0.48005,-35.57702 0.38929,-36.00022 -8.70089,-40.57243 -3.22066,-1.6199 -3.62854,-1.98527 -3.62854,-3.25025 l 0,-1.42519 24.64902,0.0439 24.64901,0.0439 0,1.48347 c 0,1.34208 -0.27882,1.59236 -2.92566,2.62594 -6.8083,2.65874 -8.83978,5.71257 -9.85355,14.81238 -0.82282,7.38582 -1.22428,51.65172 -0.50698,55.90176 1.10499,6.54719 3.04462,7.67548 13.19451,7.67548 12.55683,0 16.7208,-2.13625 23.11265,-11.85765 2.43509,-3.70353 3.79923,-6.08248 7.08877,-12.36225 1.72009,-3.28361 2.76111,-4.02394 4.95651,-3.52475 0.98939,0.22494 1.90413,0.51513 2.03275,0.6448 0.2602,0.26234 -0.36738,4.27925 -3.05146,19.53114 -2.59081,14.72196 -2.37446,13.86285 -3.51779,13.96827 -0.55054,0.0508 -2.23968,-0.21748 -3.75365,-0.59612 z m 11.55322,-1.26221 c -0.75071,-0.51851 -0.98754,-2.02968 -0.40024,-2.55389 0.33466,-0.29871 1.95979,-1.28178 3.6114,-2.18458 2.65845,-1.45309 3.18743,-2.01349 4.61129,-4.88485 2.20593,-4.44854 2.64193,-10.02588 2.64407,-33.8235 0.002,-21.75245 -0.54159,-30.87154 -2.01351,-33.7803 -1.21269,-2.39655 -3.60215,-4.27673 -6.79965,-5.35043 -3.19072,-1.07137 -3.69732,-1.51848 -3.69732,-3.26302 l 0,-1.45198 20.39487,-0.10526 c 53.92464,-0.27827 56.50381,-0.23705 61.62049,0.98519 11.11228,2.65436 18.50037,8.24925 23.15827,17.53728 4.89492,9.76072 5.19412,28.33219 0.67473,41.88024 -3.68867,11.05774 -11.8622,20.40698 -21.17663,24.22273 -7.22337,2.95916 -7.66702,2.98777 -46.55616,3.007 -19.63849,0.01 -35.87072,-0.0959 -36.07161,-0.23463 z m 59.16829,-4.55365 c 3.37858,-1.05871 7.33483,-3.53337 10.09093,-6.31205 4.18622,-4.22043 7.90902,-12.8092 9.50648,-21.93208 1.13139,-6.46112 0.74061,-23.89464 -0.67296,-30.02259 -2.36089,-10.23457 -7.8159,-17.50806 -14.94123,-19.92207 -6.28522,-2.12939 -19.6205,-1.83678 -24.22514,0.53157 -1.91379,0.98429 -3.43196,3.24643 -4.12223,6.14217 -0.59345,2.48955 -0.4789,64.01364 0.12335,66.25343 0.54919,2.04245 2.32359,4.13056 4.44486,5.23064 3.32387,1.72381 14.3387,1.74106 19.79594,0.0308 z m 34.40545,3.10207 c -0.7309,-1.31671 0.30631,-2.44859 3.26733,-3.56547 8.43028,-3.17997 10.95323,-5.859 17.6089,-18.69827 1.94214,-3.74652 5.59692,-10.78542 8.12173,-15.64202 6.14347,-11.81724 10.70121,-21.33592 14.73781,-30.77946 1.8387,-4.30155 3.56122,-8.27513 3.82782,-8.83016 0.26661,-0.55504 1.10588,-2.71213 1.86504,-4.79353 l 1.38029,-3.78436 9.74252,-0.30859 c 6.93638,-0.2197 9.92033,-0.14422 10.35984,0.26197 0.33954,0.3138 1.40293,3.46042 2.36309,6.99243 6.10728,22.46593 21.76585,64.1122 26.49269,70.46124 1.69987,2.28323 4.71619,4.24176 7.86335,5.10577 2.72422,0.74788 3.23167,1.3217 2.77782,3.141 l -0.28294,1.13416 -24.92055,0 -24.92053,0 0,-1.26146 c 0,-1.06804 0.61118,-1.57631 3.98677,-3.3155 4.34158,-2.23686 5.76571,-3.88856 5.77011,-6.69206 0.005,-3.34674 -3.4558,-15.49377 -5.08148,-17.83422 -1.6215,-2.33445 -3.64511,-2.68286 -15.43589,-2.65783 -16.87588,0.0358 -18.18029,0.73225 -21.56854,11.51479 -2.88444,9.17925 -2.38061,11.99279 2.6032,14.53669 1.48472,0.75783 3.44332,1.64705 4.35244,1.97609 1.44725,0.52376 1.63411,0.7933 1.50147,2.16586 l -0.15149,1.56764 -17.91031,0.0489 c -15.7953,0.0434 -17.9623,-0.0444 -18.35049,-0.7438 z m 58.73059,-35.36549 c 2.09864,-0.6983 3.02649,-2.3836 2.5462,-4.62489 -0.39401,-1.8386 -7.4382,-23.06729 -9.22864,-27.81182 -1.70613,-4.52104 -3.21378,-3.92155 -6.08548,2.41982 -3.95177,8.72644 -10.95309,26.39374 -10.95309,27.6393 0,1.69988 1.37499,2.52194 4.80575,2.87324 4.77109,0.48853 16.91356,0.17039 18.91526,-0.49565 z" id="path3044"/>
    <path d="" id="path3042" style="fill: rgb(255, 255, 255);"/>
    <path d="" id="path3040" style="fill: rgb(255, 255, 255);"/>
    <path style="fill-opacity: 1; fill: rgb(255, 255, 255);" d="m 159.58322,426.14605 c -0.70246,-0.54868 -1.63053,-2.02732 -2.06239,-3.28587 -0.67011,-1.95288 -0.68801,-2.56835 -0.12213,-4.19932 1.36271,-3.92757 3.67007,-6.92868 10.46263,-13.60841 l 6.97953,-6.8636 1.29258,-5.74089 c 1.87509,-8.32816 1.2473,-9.02155 -3.90662,-4.31486 -6.70487,6.12307 -7.81053,6.79303 -10.50472,6.36524 -1.41107,-0.22406 -2.05836,-0.0911 -2.57265,0.52856 -0.37796,0.45537 -2.34008,1.57717 -4.36028,2.4929 -5.35232,2.42615 -7.84254,2.22418 -12.35178,-1.00176 -1.22368,-0.87543 -1.36385,-0.87838 -2.93727,-0.0622 -6.15023,3.19046 -8.94259,4.3869 -10.70249,4.5857 -5.52483,0.6241 -8.07592,-3.85843 -6.0504,-10.63124 0.40549,-1.35588 4.54394,-9.99027 9.19655,-19.18754 4.65261,-9.19727 9.11967,-18.18266 9.92681,-19.96754 2.28575,-5.05461 3.30648,-5.89799 3.96846,-3.27897 0.23858,0.94394 -1.98032,5.82639 -9.70208,21.34832 -12.67071,25.47012 -13.35043,27.44845 -9.53933,27.76469 1.37647,0.11422 2.88851,-0.40257 6.17992,-2.11218 6.59428,-3.42517 7.57737,-4.30965 8.22349,-7.39865 0.30173,-1.44252 0.69697,-3.72848 0.8783,-5.0799 0.25954,-1.93427 0.74777,-2.89041 2.29445,-4.49338 1.08061,-1.11995 2.71502,-3.09909 3.63202,-4.39809 3.78661,-5.36401 9.69241,-10.61522 12.46645,-11.08467 2.07806,-0.35166 3.17625,0.39612 4.21814,2.87223 2.01894,4.79813 -0.29333,11.24975 -6.154,17.17064 -3.53842,3.57479 -8.55117,6.63416 -10.87,6.63416 -1.01695,0 -1.53103,0.44565 -2.34765,2.03511 -1.23406,2.40202 -0.82049,3.25508 1.81625,3.74627 2.39733,0.44659 6.44352,-0.61202 10.35235,-2.7085 2.8501,-1.52863 3.44672,-2.08725 3.99677,-3.74223 2.04925,-6.16575 15.52845,-19.85064 20.69418,-21.00996 1.07436,-0.24112 1.67859,-0.0294 2.63965,0.92494 1.53851,1.52773 1.59816,3.41499 0.15026,4.75445 -1.01287,0.93702 -1.16414,0.95287 -1.99211,0.20882 -0.82779,-0.74388 -1.06018,-0.72094 -3.05192,0.30138 -2.65198,1.3612 -9.94915,8.41686 -9.94915,9.61986 0,1.30911 0.64368,1.08693 3.33909,-1.15261 1.34364,-1.1164 3.08577,-2.36842 3.87139,-2.78225 1.28097,-0.67479 1.51882,-0.67118 2.30457,0.0349 1.6031,1.44062 1.92438,3.6954 1.16678,8.18876 -0.9594,5.6903 -0.37395,6.86805 2.16217,4.34969 0.9455,-0.93885 1.23413,-1.75215 1.23413,-3.47741 0,-4.96035 4.0413,-13.44992 9.02164,-18.95177 2.05868,-2.27424 5.83583,-4.8035 7.17347,-4.8035 1.38113,0 3.01439,2.92738 2.64626,4.74303 -0.16703,0.82379 -0.39826,2.1701 -0.51384,2.99179 -0.60441,4.29677 -1.92163,6.83452 -5.78259,11.14069 -2.14039,2.38719 -5.08017,5.42246 -6.53286,6.74503 -2.40869,2.19297 -2.5712,2.47423 -1.84576,3.19458 0.99254,0.98557 2.58086,0.42315 7.39785,-2.61956 6.12652,-3.86987 14.71467,-12.23127 17.03445,-16.58469 1.19768,-2.24762 3.07717,-0.78421 3.07717,2.39594 0,0.87334 -0.90323,3.60849 -2.00717,6.07812 -1.953,4.36908 -2.11003,5.38057 -0.8353,5.38057 0.76898,0 4.01552,-3.34774 9.07928,-9.36228 5.07989,-6.03371 6.32464,-6.70719 7.05511,-3.8172 0.2492,0.98594 -0.27936,2.5569 -2.14336,6.37036 -3.00765,6.15315 -3.46375,7.31493 -4.35465,11.09221 -0.6086,2.58038 -0.60143,3.10284 0.0564,4.10914 0.90335,1.38182 0.73094,3.34051 -0.29404,3.34051 -0.40378,0 -1.27405,-0.78634 -1.93393,-1.74743 -1.06158,-1.54614 -1.17394,-2.16437 -0.97543,-5.3671 0.20477,-3.30361 0.1408,-3.61968 -0.73262,-3.61968 -0.52634,0 -2.78414,1.79735 -5.01733,3.99412 -4.45836,4.38568 -5.75272,4.86712 -7.1977,2.67726 -0.8533,-1.29315 -0.85258,-3.68977 0.001,-5.79346 0.23007,-0.56654 0.0825,-0.97261 -0.42347,-1.16541 -0.49386,-0.18819 -2.21465,0.86642 -4.72682,2.89687 -4.66193,3.76802 -8.99618,6.32924 -11.3535,6.7091 -1.40693,0.22671 -2.00846,-5e-4 -3.54281,-1.33823 l -1.84814,-1.61132 -1.8917,1.30176 c -3.96777,2.73039 -5.47613,4.79892 -6.78466,9.30435 -3.4639,11.92656 -9.14198,20.96916 -13.1671,20.96916 -0.89723,0 -2.20607,-0.44892 -2.90853,-0.9976 z m 5.32907,-5.50305 c 1.84249,-2.03495 6.87391,-10.93363 6.87391,-12.15739 0,-0.17273 -0.51952,-0.31406 -1.15449,-0.31406 -2.30318,0 -10.33251,10.44562 -10.39391,13.52178 -0.0466,2.33661 2.03041,1.8699 4.67449,-1.05033 z m 28.25249,-38.05882 c 3.60538,-3.66197 5.56679,-6.87786 5.86181,-9.61086 0.13536,-1.25398 -0.0332,-1.52517 -1.03543,-1.66591 -1.77441,-0.24917 -6.2604,4.67641 -8.40855,9.23252 -1.7151,3.63761 -1.99236,4.71501 -1.37192,5.33108 0.72883,0.72373 1.52672,0.19436 4.9541,-3.28683 z m -42.09953,0.61823 c 4.92644,-2.3635 10.34733,-8.94792 11.40157,-13.84877 0.34137,-1.58688 0.3104,-1.62262 -1.40552,-1.62262 -2.86061,0 -7.33815,3.90779 -11.54664,10.07735 -2.70672,3.96801 -3.24176,5.35708 -2.29329,5.95385 0.99995,0.62916 1.52505,0.55268 3.84388,-0.55981 z m 124.08187,37.99123 c -1.38934,-1.52445 -0.81661,-3.12034 1.5925,-4.43744 2.93944,-1.60704 9.88014,-8.19218 12.17424,-11.55057 2.10983,-3.08865 4.55912,-7.74191 6.04394,-11.48252 0.925,-2.3303 0.93142,-2.51792 0.11801,-3.45059 -1.7923,-2.05509 -2.80005,-1.81337 -5.36626,1.28716 -3.23894,3.91331 -8.15849,8.00661 -10.4697,8.71125 -1.66743,0.50837 -2.06847,0.45774 -3.23706,-0.40861 -2.74751,-2.03693 -3.40908,-3.47086 -3.38238,-7.33123 0.02,-2.88752 0.33272,-4.28374 1.6145,-7.20757 1.78591,-4.07377 3.89507,-7.34852 6.74134,-10.4668 1.05963,-1.16091 1.9266,-2.30761 1.9266,-2.54824 0,-0.24063 0.55484,-1.03201 1.23297,-1.75859 0.9217,-0.98757 1.72136,-1.32107 3.16758,-1.32107 2.26356,0 3.14131,0.69753 3.14131,2.49633 0,0.71395 0.21458,1.51153 0.47685,1.77239 0.80831,0.80397 2.03709,6.28252 2.03709,9.08239 0,3.06029 0.57411,3.53346 3.42729,2.82479 l 1.80782,-0.44903 2.09222,-6.98972 c 5.7068,-19.06531 11.12232,-27.29228 18.699,-28.40651 2.58851,-0.38067 4.78265,0.75486 4.54341,2.35133 -0.11895,0.79378 -0.93175,1.21477 -3.83664,1.9872 -3.0936,0.82262 -4.06287,1.35569 -6.03348,3.31828 -1.29127,1.28601 -3.42573,4.23409 -4.74323,6.55129 -2.74264,4.82369 -7.13373,17.44295 -6.62423,19.03695 0.34523,1.08012 0.49187,1.08266 6.60609,0.11421 2.00305,-0.31726 2.12955,-0.26314 2.4624,1.05376 0.45248,1.79017 -0.44347,2.45765 -5.0767,3.78214 -6.06704,1.73437 -6.50453,2.02986 -7.80226,5.26983 -1.78793,4.46388 -6.32224,13.42043 -8.12264,16.04453 -2.71641,3.9592 -12.58719,13.08201 -14.1546,13.08201 -0.1009,0 -0.57609,-0.43081 -1.05597,-0.95735 z m 6.75106,-27.50141 c 5.67656,-3.82786 8.55639,-8.51946 8.53911,-13.91134 -0.0158,-4.92745 -2.72146,-6.61649 -5.35294,-3.34161 -0.78502,0.97696 -1.65357,1.77631 -1.9301,1.77633 -0.86084,5e-5 -3.39472,3.53504 -5.64069,7.86923 -1.74916,3.37549 -2.15256,4.65694 -2.15256,6.8379 0,3.95416 1.54479,4.136 6.53718,0.76949 z m -215.920827,6.87925 c -0.430481,-0.61029 -0.782697,-1.515 -0.782697,-2.01047 0,-1.71156 5.873221,-12.79294 15.413981,-29.08255 5.804607,-9.91062 5.917641,-10.90531 1.080572,-9.50899 -2.987501,0.8624 -2.930748,0.80415 -7.804295,8.01119 -2.688463,3.97572 -16.028782,25.88944 -18.383012,30.19719 -0.867668,1.58765 -0.923057,1.60952 -1.885465,0.74466 -2.004862,-1.80165 -2.130433,-1.55027 11.638532,-23.30001 8.146767,-12.8688 8.390648,-13.31119 7.607344,-13.79942 -0.345606,-0.21543 -2.268778,-0.19955 -4.273716,0.0353 -4.674158,0.54745 -8.673152,0.81827 -13.669787,0.92575 -3.879747,0.0835 -4.030016,0.0425 -5.391829,-1.47099 -1.969984,-2.18934 -1.464927,-3.26607 1.278898,-2.72644 3.224657,0.63419 16.694428,0.44256 21.344435,-0.30366 2.91285,-0.46745 4.604533,-1.01856 5.549038,-1.80774 1.046166,-0.87411 1.567335,-1.01936 2.265513,-0.63137 1.063812,0.59116 4.629897,0.14898 7.11555,-0.88231 1.346102,-0.55849 2.087988,-1.41945 3.30536,-3.83586 2.933235,-5.82229 4.375175,-6.31632 2.925412,-1.0023 -0.512559,1.87875 -0.805725,4.1542 -0.660421,5.12593 0.227843,1.52374 0.08021,1.84931 -1.153347,2.5433 -0.778049,0.43772 -1.867021,1.67341 -2.419929,2.74596 -0.552909,1.07255 -2.428484,4.53018 -4.167958,7.68363 -1.739469,3.15343 -3.285165,6.21812 -3.434867,6.81043 -0.517158,2.04607 0.788941,1.7129 3.436773,-0.87665 1.461562,-1.42939 3.645509,-3.47076 4.853212,-4.53636 2.065868,-1.82279 2.250152,-1.88863 3.113939,-1.11239 1.730979,1.55553 1.626861,3.18893 -0.539765,8.46802 l -2.045833,4.98478 1.403265,1.12087 c 0.771795,0.61647 1.539137,1.12198 1.705203,1.12334 0.166065,0.002 0.991398,-1.09886 1.834083,-2.44495 5.016988,-8.01407 12.221208,-16.0474 15.015758,-16.74386 1.69582,-0.42265 3.51086,1.16079 4.21476,3.67698 2.17181,7.76326 -3.15393,15.02944 -15.601417,21.28584 -4.306924,2.16475 -4.565738,2.42803 -4.387737,4.46343 0.12869,1.47154 0.185753,1.50039 3.256144,1.64598 2.73894,0.12989 3.58888,-0.0763 6.87739,-1.66864 2.06373,-0.99927 4.14288,-2.24546 4.62032,-2.76934 1.10121,-1.20829 1.54958,-1.199 2.2206,0.046 0.59081,1.0962 -0.0181,2.71586 -1.46479,3.89603 -1.76603,1.4407 -10.433112,5.17705 -12.60025,5.43192 -3.254404,0.38273 -5.233751,-1.28259 -6.101655,-5.13362 -0.41655,-1.84828 -1.030975,-3.07965 -1.859674,-3.72693 -2.454796,-1.91741 -3.917021,-0.9191 -5.16563,3.52673 -0.833131,2.96646 -1.35239,3.49057 -2.255077,2.27609 -1.456698,-1.95985 -0.817474,-4.36619 4.328182,-16.29324 1.371336,-3.1786 2.493335,-6.15548 2.493335,-6.61528 0,-1.82736 -2.232229,-0.84801 -5.269908,2.31209 -2.885825,3.00213 -4.727556,5.68212 -8.761122,12.74872 -2.589003,4.5358 -2.594314,4.54451 -5.00836,8.21971 -1.207753,1.8387 -2.382764,3.3431 -2.611139,3.3431 -0.228369,0 -0.767437,-0.49934 -1.197919,-1.10962 z m 38.987477,-18.69689 c 3.38707,-2.39676 6.3344,-5.77968 6.94835,-7.97529 0.84332,-3.01582 0.71387,-3.67195 -0.72444,-3.67195 -1.61818,0 -4.94577,3.01941 -8.47311,7.68835 -3.979828,5.26788 -4.230579,5.7326 -3.377539,6.2597 0.884189,0.54635 2.587379,-0.1501 5.626739,-2.30081 z m 122.65666,15.9809 c -2.19105,-2.76596 -2.01678,-5.26098 0.77103,-11.03836 1.52041,-3.15084 2.75252,-4.72838 6.71812,-8.60152 5.33342,-5.20908 8.42846,-7.06257 11.97202,-7.16957 l 2.3112,-0.0698 1.88672,-3.46261 c 1.03769,-1.90443 2.58121,-5.38681 3.43002,-7.73861 2.01444,-5.5814 5.21828,-11.72409 6.21709,-11.91995 0.43456,-0.0852 1.03875,0.30638 1.34263,0.8702 0.69484,1.28922 -1.72456,9.91754 -4.33499,15.45984 -2.00276,4.25215 -7.13391,13.33187 -10.17108,17.99802 -2.13434,3.27909 -3.73215,7.52976 -3.27503,8.71263 0.39501,1.02215 2.53127,1.79853 4.94877,1.79853 2.5642,0 7.87697,-1.55246 10.22296,-2.98728 2.03575,-1.24508 2.6275,-1.26655 2.6275,-0.0953 0,1.96921 -5.13845,5.27142 -9.91394,6.37116 -4.42854,1.01985 -6.34296,0.62159 -8.78486,-1.82754 -1.07495,-1.07814 -2.19123,-1.96027 -2.48061,-1.96027 -0.28939,0 -2.03413,1.31874 -3.8772,2.93052 -3.92172,3.42959 -5.01562,4.05921 -7.05242,4.05921 -1.03089,0 -1.83661,-0.41871 -2.55793,-1.32928 z m 5.65,-4.69559 c 3.98047,-2.61808 9.46424,-8.89239 11.244,-12.86494 1.28997,-2.8793 1.46064,-3.63869 0.9182,-4.08571 -1.63605,-1.34828 -8.54794,4.15871 -12.64989,10.07867 -3.16142,4.56261 -4.23404,7.25056 -3.16196,7.92382 1.04252,0.65469 1.06486,0.64824 3.64965,-1.05184 z" id="path3046"/>
    <rect style="fill-opacity: 1; stroke: none; fill: rgb(255, 255, 255);" id="rect3059" width="203.45819" height="2.0059259" x="-47.851566" y="411.19296"/>
    <rect y="411.19296" x="179.44859" height="2.0059259" width="93.682915" id="rect3829" style="fill-opacity: 1; stroke: none; fill: rgb(255, 255, 255);"/>
    <rect style="fill-opacity: 1; stroke: none; fill: rgb(255, 255, 255);" id="rect3831" width="137.50146" height="2.0059259" x="293.93405" y="411.19296"/>
    <rect y="538.08942" x="-47.851566" height="2.0059259" width="477.6611" id="rect3833" style="fill-opacity: 1; stroke: none; fill: rgb(255, 255, 255);"/>
  </g>
</svg>