<?xml version="1.0" encoding="utf-8"?>
<svg version="1.2" baseProfile="tiny" id="svg2" x="0px" y="0px" xmlns="http://www.w3.org/2000/svg">
  <polygon points="28.395 0 8.642 0 0 9.877 0 30.865 9.876 40.741 18.518 40.741 18.518 27.161 14.815 27.161 14.815 12.346 24.691 12.346 24.691 22.223 38.271 22.223 38.271 9.877" style="fill: rgb(255, 255, 255);"/>
  <polygon points="9.876 69.136 30.864 69.136 39.506 59.26 39.506 37.038 29.63 27.161 20.988 27.161 20.988 40.741 24.691 40.741 24.691 55.556 14.815 55.556 14.815 45.679 0 45.679 0 59.26" style="fill: rgb(255, 255, 255);"/>
  <polygon points="41.975 59.26 52.469 69.136 60.494 69.136 60.494 56.791 56.79 56.791 56.79 0 41.975 0" style="fill: rgb(255, 255, 255);"/>
  <polygon points="81.481 59.26 70.988 69.136 62.963 69.136 62.963 56.791 66.666 56.791 66.666 0 81.481 0" style="fill: rgb(255, 255, 255);"/>
  <polygon points="102.469 0 102.469 12.346 107.407 12.346 107.407 33.334 102.469 33.334 102.469 46.914 112.345 46.914 122.222 37.038 122.222 10.494 111.728 0" style="fill: rgb(255, 255, 255);"/>
  <rect x="85.185" width="14.815" height="69.136" style="fill: rgb(255, 255, 255);"/>
  <polygon points="140.74 13.581 156.79 13.581 156.79 0 127.16 0 127.16 69.136 156.79 69.136 156.79 56.791 140.74 56.791" style="fill: rgb(255, 255, 255);"/>
  <rect x="143.21" y="27.161" width="9.877" height="12.346" style="fill: rgb(255, 255, 255);"/>
  <polygon points="179.012 0 190.124 0 200 9.877 200 28.395 193.21 35.185 200 41.976 200 69.136 186.419 69.136 186.419 41.976 179.012 41.976 179.012 28.395 185.185 28.395 185.185 12.346 179.012 12.346" style="fill: rgb(255, 255, 255);"/>
  <rect x="161.728" width="14.814" height="69.136" style="fill: rgb(255, 255, 255);"/>
  <polygon points="29.63 76.543 26.543 79.63 26.543 93.828 30.555 97.84 53.086 97.84 53.086 85.185 40.741 85.185 40.741 88.89 49.382 88.89 49.382 93.828 32.099 93.828 32.099 80.247 53.086 80.247 53.086 76.543" style="fill: rgb(255, 255, 255);"/>
  <polygon points="85.185 97.531 95.062 76.543 104.938 76.543 116.05 97.531 109.876 97.531 101.235 81.482 98.765 81.482 91.358 97.531" style="fill: rgb(255, 255, 255);"/>
  <path d="M 82.716 85.803 L 82.716 80.247 L 79.013 76.543 L 58.025 76.543 L 58.025 97.531 L 62.963 97.531 L 62.963 88.89 L 71.605 88.89 L 77.777 97.531 L 82.716 97.531 L 76.543 88.89 L 79.013 88.89 L 82.716 85.803 Z M 77.777 85.185 L 62.963 85.185 L 62.963 80.248 L 77.777 80.248 L 77.777 85.185 Z" style="fill: rgb(255, 255, 255);"/>
  <polygon points="117.283 76.543 117.283 97.531 122.222 97.531 122.222 88.89 138.271 88.89 138.271 85.185 122.222 85.185 122.222 80.247 140.74 80.247 140.74 76.543" style="fill: rgb(255, 255, 255);"/>
  <polygon points="143.21 76.543 153.087 86.42 141.975 97.531 149.382 97.531 156.79 90.123 164.197 97.531 171.604 97.531 160.493 86.42 171.604 76.543 164.197 76.543 156.79 83.951 149.382 76.543" style="fill: rgb(255, 255, 255);"/>
</svg>