<?xml version="1.0" encoding="utf-8"?>
<svg version="1.2" baseProfile="tiny" id="svg2" x="0px" y="0px" xmlns="http://www.w3.org/2000/svg">
  <polygon points="167.223,6.458 135.956,6.458 122.277,22.092 122.277,55.313 137.91,70.946 151.589,70.946 &#10;  151.589,49.45 145.727,49.45 145.727,26 161.36,26 161.36,41.634 182.856,41.634 182.856,22.092 " style="fill: rgb(255, 255, 255);"/>
  <polygon points="137.91,115.892 171.131,115.892 184.81,100.259 184.81,65.084 169.177,49.45 155.498,49.45 &#10;  155.498,70.946 161.36,70.946 161.36,94.396 145.727,94.396 145.727,78.762 122.277,78.762 122.277,100.259 " style="fill: rgb(255, 255, 255);"/>
  <polygon points="188.718,100.259 205.329,115.892 218.031,115.892 218.031,96.351 212.168,96.351 212.168,6.458 &#10;  188.718,6.458 " style="fill: rgb(255, 255, 255);"/>
  <polygon points="251.251,100.259 234.642,115.892 221.939,115.892 221.939,96.351 227.801,96.351 227.801,6.458 &#10;  251.251,6.458 " style="fill: rgb(255, 255, 255);"/>
  <polygon points="284.473,6.458 284.473,26 292.289,26 292.289,59.221 284.473,59.221 284.473,80.717 300.105,80.717 &#10;  315.739,65.084 315.739,23.069 299.129,6.458 " style="fill: rgb(255, 255, 255);"/>
  <rect x="257.114" y="6.458" width="23.45" height="109.433" style="fill: rgb(255, 255, 255);"/>
  <polygon points="345.051,27.955 370.456,27.955 370.456,6.458 323.556,6.458 323.556,115.892 370.456,115.892 &#10;  370.456,96.351 345.051,96.351 " style="fill: rgb(255, 255, 255);"/>
  <rect x="348.96" y="49.45" width="15.634" height="19.542" style="fill: rgb(255, 255, 255);"/>
  <polygon points="405.631,6.458 423.219,6.458 438.852,22.092 438.852,51.404 428.104,62.152 438.852,72.9 &#10;  438.852,115.892 417.355,115.892 417.355,72.9 405.631,72.9 405.631,51.404 415.401,51.404 415.401,26 405.631,26 " style="fill: rgb(255, 255, 255);"/>
  <rect x="378.273" y="6.458" width="23.448" height="109.433" style="fill: rgb(255, 255, 255);"/>
  <polygon points="169.177,127.616 164.291,132.502 164.291,154.976 170.642,161.326 206.306,161.326 206.306,141.296 &#10;  186.765,141.296 186.765,147.159 200.443,147.159 200.443,154.976 173.085,154.976 173.085,133.479 206.306,133.479 &#10;  206.306,127.616 " style="fill: rgb(255, 255, 255);"/>
  <polygon points="257.114,160.837 272.748,127.616 288.381,127.616 305.969,160.837 296.197,160.837 282.519,135.434 &#10;  278.61,135.434 266.885,160.837 " style="fill: rgb(255, 255, 255);"/>
  <path d="M 253.206 142.273 L 253.206 133.479 L 247.344 127.616 L 214.123 127.616 L 214.123 160.837 L 221.939 160.837 L 221.939 147.159 L 235.618 147.159 L 245.389 160.837 L 253.206 160.837 L 243.435 147.159 L 247.344 147.159 L 253.206 142.273 Z M 245.389 141.296 L 221.939 141.296 L 221.939 133.48 L 245.389 133.48 L 245.389 141.296 Z" style="fill: rgb(255, 255, 255);"/>
  <polygon points="307.922,127.616 307.922,160.837 315.739,160.837 315.739,147.159 341.143,147.159 341.143,141.296 &#10;  315.739,141.296 315.739,133.479 345.051,133.479 345.051,127.616 " style="fill: rgb(255, 255, 255);"/>
  <polygon points="348.96,127.616 364.594,143.25 347.006,160.837 358.73,160.837 370.456,149.112 382.181,160.837 &#10;  393.905,160.837 376.318,143.25 393.905,127.616 382.181,127.616 370.456,139.342 358.73,127.616 " style="fill: rgb(255, 255, 255);"/>
</svg>