<svg xmlns="http://www.w3.org/2000/svg" width="300" height="190" viewBox="0 0 300 190">
  <path fill="#1E1E1E" d="M52.7334911,111.393524 L52.7333016,111.396681 C54.7540188,110.855229 56.7883856,110.577222 58.7915347,110.534305 L58.8060236,110.530422 C59.2838067,110.540092 59.7351595,110.694536 60.0397203,111.019792 C60.3440222,111.344083 60.4940398,111.768725 60.6376849,112.304814 L64.247965,125.778516 C64.3685752,126.228638 64.5278208,126.452034 64.6937485,126.553548 C64.8596762,126.655061 65.1362693,126.702075 65.6646308,126.560501 L79.0967977,122.96135 C79.6618645,122.80994 80.0954637,122.716533 80.5330297,122.81566 C80.9698886,122.916012 81.3018234,123.23911 81.5495569,123.661381 L81.5531803,123.674904 C82.5197814,125.431587 83.2925324,127.330281 83.8347603,129.353896 C84.3348006,131.220065 84.6213154,133.096861 84.6934911,134.950337 L84.6980451,134.96386 C84.7026036,135.405488 84.6453954,135.883586 84.3742084,136.316527 C84.1027627,136.748502 83.6222828,137.068773 82.9268161,137.255123 L69.4811262,140.857897 C69.0107202,140.983943 68.7961052,141.160506 68.6892121,141.352721 C68.5835438,141.545644 68.5480005,141.826411 68.6590343,142.240793 L72.2693145,155.714495 C72.4313358,156.319164 72.437246,156.843501 72.2846463,157.27469 C72.1330125,157.705619 71.8306978,158.018527 71.4944269,158.216299 L71.4809039,158.219923 C69.7471256,159.163822 67.8685076,159.91877 65.8787,160.45194 C63.8647443,160.991579 61.8366399,161.281367 59.8388381,161.324922 L59.8204669,161.314315 L59.792455,161.321821 C59.4695669,161.291353 59.0695705,161.204935 58.7314984,160.920751 C58.3936851,160.637534 58.1469497,160.188079 57.9745756,159.544772 L54.3679189,146.084593 C54.2302267,145.57072 54.0559745,145.349275 53.8936009,145.257161 C53.7314862,145.166014 53.4776642,145.146027 53.0449294,145.261978 L39.5161698,148.887011 C38.925989,149.04515 38.4328949,149.105841 37.9845092,148.954743 C37.5348987,148.802939 37.2148968,148.439373 36.969146,148.005183 L36.955623,148.008807 C36.0339772,146.300124 35.3013518,144.450724 34.7775001,142.49569 C34.2321664,140.460484 33.9468798,138.425997 33.9078773,136.410411 L33.9136356,136.377809 L33.910271,136.365252 C33.9497965,135.859799 34.130995,135.427159 34.461687,135.142883 C34.7928966,134.860539 35.2017049,134.720975 35.6846679,134.591565 L49.2279163,130.96265 C49.7688349,130.817711 49.9253556,130.648432 49.9957008,130.489821 C50.0664944,130.329019 50.0684011,130.03863 49.9524497,129.605895 L46.3421695,116.132194 C46.1930892,115.57582 46.1617926,115.099697 46.2937796,114.668855 C46.4255772,114.24117 46.715746,113.898388 47.0801117,113.654782 L47.1216465,113.643653 C48.8592192,112.694596 50.7378879,111.928246 52.7334911,111.393524 Z M52.9723819,112.285074 C51.0627462,112.796761 49.2626778,113.520309 47.5988065,114.423736 C47.5918555,114.428704 47.5970827,114.436621 47.588907,114.440882 C47.3555927,114.60175 47.2313772,114.744773 47.171833,114.939831 C47.1102369,115.142685 47.1100726,115.435713 47.2324945,115.892596 L50.8427747,129.366297 C50.9786552,129.873409 51.0562519,130.390961 50.8443196,130.871176 C50.6316803,131.352616 50.1499063,131.668058 49.4669967,131.851043 L35.9237482,135.479958 C35.4774904,135.599533 35.1994796,135.713367 35.0638947,135.829413 C34.9266367,135.946943 34.8639123,136.068313 34.836,136.427786 L34.822477,136.43141 C34.8634386,138.361578 35.1455263,140.306853 35.6678251,142.256092 C36.1727829,144.140613 36.8872215,145.918276 37.7750363,147.562519 C37.962045,147.893392 38.0995126,148.004602 38.2829792,148.067252 C38.4674118,148.129644 38.7701678,148.131342 39.277279,147.995462 L52.8070044,144.37017 C53.3556504,144.22316 53.8953035,144.204864 54.3525127,144.462301 C54.808756,144.719997 55.0876121,145.204327 55.258951,145.84377 L58.8658665,159.304915 C59.0079587,159.835208 59.181661,160.081648 59.3312559,160.207208 C59.4754342,160.328009 59.6296964,160.370531 59.8576278,160.39435 C59.8661317,160.395177 59.8669775,160.402197 59.8745155,160.403283 C61.7859338,160.358028 63.7115621,160.076029 65.6395504,159.559424 C67.550152,159.047478 69.3499616,158.322964 71.0126082,157.41883 C71.2052707,157.30716 71.3392334,157.181196 71.4140243,156.969629 C71.4897811,156.757804 71.5082608,156.428811 71.3804037,155.951643 L67.7698647,142.476975 C67.6210432,141.921568 67.6297928,141.374668 67.8866432,140.911404 C68.1422688,140.447434 68.6211449,140.132769 69.2422353,139.966348 L82.6888912,136.363314 C83.2385031,136.216046 83.4722979,136.026061 83.6015274,135.820614 C83.7269626,135.620324 83.7672153,135.345542 83.7657005,134.987779 C83.6947556,133.201229 83.4272548,131.387667 82.9450731,129.588147 C82.4235508,127.641806 81.6784564,125.815417 80.7512924,124.124778 C80.7492912,124.121173 80.748963,124.116084 80.7479278,124.112221 C80.5684248,123.80936 80.4747571,123.749565 80.3284304,123.717339 C80.1784294,123.682992 79.8632737,123.708427 79.3358781,123.849743 L65.9027452,127.449153 C65.2468814,127.624892 64.6633455,127.6301 64.2077214,127.351532 C63.7520973,127.072964 63.5079452,126.575194 63.3575707,126.013991 L59.7472903,112.540289 C59.6196923,112.064088 59.4846591,111.78037 59.3586947,111.646407 C59.2354386,111.514825 59.1125343,111.461829 58.8006875,111.453249 C58.795599,111.453249 58.7903211,111.457062 58.7861986,111.457131 C56.8613774,111.49873 54.915825,111.764328 52.9723819,112.285074 Z M57.5288643,129.291451 C61.1848943,128.311821 64.9592995,130.490158 65.9389294,134.146188 C66.9185594,137.802218 64.7402215,141.576624 61.0832257,142.556512 C57.4271958,143.536142 53.6537564,141.357546 52.6738677,137.70055 C51.6942378,134.04452 53.8728344,130.27108 57.5288643,129.291451 Z M57.7669778,130.180102 C54.5919791,131.030841 52.7124887,134.286213 53.5634855,137.462177 C54.4142236,140.637176 57.6695958,142.516667 60.8445946,141.665929 C64.0195933,140.81519 65.9000497,137.559559 65.0493116,134.384561 C64.1983147,131.208596 60.9419766,129.329364 57.7669778,130.180102 Z M93.0967524,40.6710077 C92.9156351,40.7425627 92.6672985,40.8444697 92.3526374,40.9705178 C91.6784633,41.2401967 90.7031655,41.6340433 89.4871999,42.126541 C87.0540439,43.1108293 83.6304127,44.5095955 79.5302272,46.1807489 C71.3286316,49.5223484 60.4494871,53.9561678 49.5871101,58.4061998 C38.724733,62.8562319 27.8679114,67.3192692 19.6896738,70.6939505 C15.6002015,72.3819035 12.1900425,73.7884479 9.77475866,74.7969351 C8.56821207,75.3014029 7.61632317,75.7169296 6.95279282,75.9992856 C6.62238181,76.1416536 6.352995,76.2490353 6.17626773,76.3274477 C6.08742114,76.3667833 6.02279204,76.4037709 5.97875698,76.4248876 C5.96407862,76.4319265 5.95988674,76.4278733 5.95171105,76.4321346 C4.32733919,77.7225239 3.52765413,79.9038257 4.10016397,82.040454 L30.217949,179.513013 C30.9884561,182.388574 33.9236546,184.081575 36.7963186,183.311845 L292.2567,114.861202 C295.127432,114.091989 296.836595,111.151424 296.067382,108.280692 L269.949856,10.8090996 C269.403228,8.76906389 267.743878,7.3170596 265.809584,6.92534558 C265.805462,6.92541494 265.79199,6.91927328 265.776983,6.91927328 C265.773568,6.91927328 265.768549,6.92288253 265.764426,6.92295188 C265.716439,6.92545716 265.640302,6.92722317 265.544657,6.93732218 C265.351624,6.95488124 265.064947,6.9861442 264.704462,7.0278665 C263.985424,7.11079347 262.954165,7.24942755 261.648269,7.41402807 C259.038667,7.74367741 255.347819,8.21086123 250.945248,8.79214046 C242.138625,9.95302589 230.465601,11.5206518 218.791561,13.0999382 C207.115589,14.6797423 195.439636,16.2750705 186.62779,17.4860132 C182.220289,18.0913898 178.523442,18.6057331 175.908151,18.9721063 C174.600859,19.1546805 173.559821,19.3031819 172.835075,19.4073084 C172.584709,19.4443602 172.377942,19.472693 172.208136,19.4968152 L180.561611,50.6724193 C186.41325,72.5110402 173.441889,94.9809191 151.601337,100.833076 C129.762716,106.684714 107.307774,93.7072811 101.456135,71.8686601 L93.0967524,40.6710077 L93.0967524,40.6710077 Z M171.969988,18.6080365 C172.160151,18.5767823 172.403058,18.5322783 172.707784,18.4879263 C173.435168,18.3820573 174.472601,18.2355571 175.779893,18.0529829 C178.397116,17.6860922 182.097587,17.1852718 186.504122,16.580154 C195.316934,15.3689525 206.992628,13.7726583 218.669825,12.1935614 C230.346056,10.6147233 242.01399,9.04742553 250.821321,7.88531535 C255.225116,7.30474323 258.906287,6.82462344 261.522909,6.49412829 C262.828805,6.32952776 263.867292,6.20241544 264.59818,6.11734856 C264.961563,6.0748498 265.246756,6.04191381 265.451639,6.02221483 C265.554564,6.01223594 265.633271,6.00460501 265.69942,6 C265.732142,6 265.774661,6.00295408 265.804485,6.00220979 C265.834308,6 265.838103,5.99630768 265.926695,6.0139803 C268.227053,6.45047567 270.19784,8.16067166 270.843078,10.5687252 L296.960346,108.039352 C297.858451,111.391115 295.849216,114.850006 292.497453,115.748111 L37.0380379,184.198496 C33.6862746,185.096601 30.2317838,183.103787 29.332902,179.749126 L3.21563457,82.278499 C2.54373785,79.7709551 3.48762529,77.1928085 5.41249159,75.6831746 C5.48096579,75.6296275 5.49347207,75.6376645 5.51703322,75.6251396 C5.53988727,75.6138395 5.55456563,75.6068006 5.58199049,75.5932404 C5.63877206,75.5656025 5.71506162,75.5296315 5.8075131,75.4882947 C5.99241606,75.4056211 6.24684709,75.2887882 6.58234656,75.146092 C7.24825704,74.8610277 8.21272158,74.4576605 9.42145885,73.953641 C11.8391228,72.9424455 15.2568012,71.521463 19.3462735,69.83351 C27.5261841,66.4573451 38.3837314,62.0086072 49.2470744,57.5583163 C60.1084855,53.1085431 70.9840065,48.6612008 79.1853433,45.3186353 C83.2886854,43.6476714 86.7241665,42.2467653 89.1570637,41.2615111 C90.3739953,40.7687545 91.3319064,40.3795667 92.0080124,40.1093702 C92.3465483,39.9741425 92.6185927,39.8805426 92.805825,39.8065623 C92.8243054,39.7991798 92.842167,39.7920027 92.8593671,39.7850735 L92.0299472,36.6896352 C91.8995024,36.2028085 91.8706,35.6815267 92.0503983,35.2088866 C92.2301966,34.7362465 92.6539544,34.3317883 93.234476,34.1762381 L93.2340277,34.1784288 L168.792623,13.9325713 C169.388599,13.77288 169.953206,13.8824839 170.356568,14.1978314 C170.759223,14.5144037 170.999025,14.9843514 171.135682,15.4943603 L171.969988,18.6080365 L171.969988,18.6080365 Z M93.4731071,35.0668219 L93.4743318,35.067529 C93.1352918,35.1583745 92.9980016,35.30283 92.9108615,35.5301285 C92.8249461,35.7581341 92.8258726,36.1015977 92.9198239,36.4522288 L102.346012,71.6312538 C108.068759,92.9888435 130.00415,105.665497 151.362705,99.9424917 C172.720295,94.2197448 185.394292,72.2705721 179.671286,50.9120163 L170.245098,15.7329914 C170.140794,15.3437232 169.966657,15.0570241 169.788186,14.9164249 C169.608749,14.7760846 169.417107,14.7176957 169.031703,14.8209644 L93.4731071,35.0668219 Z M28.8755916,79.2003818 L28.8715384,79.2045737 L82.4756018,64.8414133 C84.4557501,64.3108344 86.1240061,64.6485661 87.3768758,65.6576848 C88.6280724,66.668287 89.4534419,68.2919923 89.9930796,70.305948 L91.0886604,74.3947128 C98.4665548,101.929399 126.755766,118.250755 154.291418,110.872602 C181.826105,103.494708 198.164607,75.2153963 190.786454,47.6797438 L189.691132,43.591945 C189.182293,41.6929344 189.2473,39.8182304 189.960191,38.2596118 C190.675014,36.7004756 192.057198,35.4760176 194.050869,34.9418152 L245.400462,21.1827384 C248.752225,20.2846364 252.207489,22.2803512 253.105332,25.6311485 L267.084923,77.8037095 C267.332613,78.7281007 267.444134,78.79657 267.742792,79.088209 C267.745759,79.091555 267.742224,79.0976787 267.746416,79.1017319 C270.775831,81.8534239 273.075495,85.478758 274.213005,89.7240028 C277.370338,101.507334 270.372359,113.629601 258.589027,116.786934 L86.8087475,162.815305 C84.2007473,163.514116 81.5133979,161.961758 80.8148455,159.354724 C80.4690633,158.064246 80.6756112,156.74483 81.2862049,155.666037 L81.306711,155.63052 L81.8915108,154.474782 L81.9083934,154.425741 L81.9424225,154.3866 C87.6641142,147.361337 90.0424747,137.784446 87.5176953,128.361838 C83.3411331,112.77469 67.3315253,103.532354 51.7453434,107.708657 C46.7534378,109.046234 42.4228626,111.600089 38.9643493,114.9628 C38.9612621,114.966733 38.9541724,114.963456 38.9508264,114.966423 C38.284641,115.667742 36.9222682,116.599084 35.3642505,116.657313 C34.5831804,116.686462 33.7552405,116.46728 33.0469576,115.848513 C32.3384159,115.22878 31.7538297,114.248686 31.3648247,112.796899 L24.4271814,86.9052526 C23.5293383,83.5544553 25.5238284,80.0984838 28.8755916,79.2003818 Z M29.1142227,80.0909656 L29.1162239,80.0945705 C26.2445259,80.8640394 24.5495904,83.7997532 25.3214367,86.6687436 L32.2585624,112.558458 C32.6157326,113.891436 33.1239613,114.687005 33.6530475,115.150874 C34.1828408,115.613518 34.7401542,115.765451 35.3326235,115.743356 C36.5163375,115.698459 37.8023377,114.841414 38.2911494,114.32428 L38.3046724,114.320656 C41.872173,110.846956 46.3595514,108.198286 51.5098688,106.818263 C67.5770819,102.513067 84.1059816,112.055218 88.4114357,128.123397 C91.0104961,137.823225 88.5575067,147.693426 82.6747792,154.9368 C82.6659657,154.946408 82.6625689,154.960777 82.6540142,154.971351 L82.114109,156.070543 L82.1177325,156.084066 L82.107833,156.101213 C81.5992336,156.984961 81.4233673,158.051831 81.708327,159.115316 C82.2779876,161.241319 84.447977,162.493347 86.5739801,161.923686 L258.353294,115.895574 C269.65656,112.866874 276.355433,101.262674 273.326992,89.9603739 C272.234776,85.8841661 270.033272,82.4126682 267.125351,79.7743956 L267.121728,79.7608727 L267.108205,79.7644961 C266.795229,79.4580587 266.473776,79.065894 266.199169,78.0410465 L252.219837,25.8694514 C251.450627,22.9987194 248.513947,21.3040427 245.644181,22.072994 L194.291691,35.8328473 C192.529842,36.3049331 191.397975,37.3122037 190.792629,38.6308095 C190.189024,39.9520542 190.117842,41.6182519 190.582423,43.3520891 L191.677745,47.4398879 C199.18479,75.4565716 182.54744,104.254916 154.531722,111.761702 C126.516005,119.268488 97.7087266,102.648026 90.2016815,74.6313427 L89.1061007,70.542578 C88.5959684,68.6387378 87.8329693,67.1898465 86.8084756,66.3607541 C85.7830159,65.5319205 84.4936581,65.2520959 82.7182861,65.7278052 L29.1142227,80.0909656 Z M219.823774,90.7356283 C227.211176,88.7561806 234.808477,93.1547329 236.786959,100.542394 C238.766666,107.930762 234.386226,115.537704 226.999789,117.516893 C219.610456,119.496858 212.000338,115.100704 210.02115,107.714268 C208.041184,100.324934 212.435406,92.7153349 219.823774,90.7356283 Z M220.062146,91.6252462 C213.154809,93.4760609 209.060212,100.569525 210.910767,107.475896 C212.761323,114.382267 219.85408,118.478089 226.761417,116.627275 C233.667788,114.776719 237.748863,107.686878 235.898307,100.780507 C234.047751,93.8741364 226.968517,89.7746903 220.062146,91.6252462 Z M220.370845,92.7775299 C226.631011,91.1001239 233.079552,94.8240082 234.756958,101.084175 C236.434105,107.343375 232.711446,113.792623 226.451279,115.470029 C220.191113,117.147435 213.742572,113.423551 212.065425,107.164351 C210.388019,100.904184 214.110678,94.4549358 220.370845,92.7775299 Z M220.609217,93.6671477 C214.830082,95.2156618 211.40627,101.145877 212.954784,106.925012 C214.503298,112.704148 220.433513,116.12796 226.212648,114.579446 C231.990818,113.03119 235.41463,107.100975 233.866116,101.32184 C232.317343,95.5417386 226.387386,92.1188925 220.609217,93.6671477 Z M218.896521,87.2733421 L250.085306,78.9163031 C259.388139,76.4236077 268.961012,81.9513141 271.453449,91.2531815 C273.946403,100.556981 268.419663,110.129595 259.116829,112.622291 L227.928045,120.97933 C218.625212,123.472025 209.052597,117.945285 206.559643,108.641486 C204.067206,99.3396182 209.593688,89.7660375 218.896521,87.2733421 Z M219.134894,88.16296 C210.313092,90.526763 205.086164,99.5800855 207.44926,108.403112 C209.81384,117.227812 218.867611,122.452549 227.689413,120.088746 L258.878197,111.731707 C267.701931,109.367386 272.928152,100.315289 270.563831,91.4915547 C268.199769,82.6687867 259.146447,77.4418591 250.323679,79.805921 L219.134894,88.16296 Z M251.009812,82.3788944 C258.397214,80.3994467 265.995481,84.7977402 267.974929,92.1851422 C269.954635,99.5735102 265.574195,107.180452 258.185827,109.160159 C250.798425,111.139606 243.186376,106.74397 241.207187,99.3575344 C239.227481,91.9691664 243.623376,84.3580833 251.009812,82.3788944 Z M251.248184,83.2685123 C244.341813,85.1190681 240.247215,92.2125323 242.097771,99.1189032 C243.948327,106.025274 251.041084,110.121097 257.947455,108.270541 C264.854792,106.419726 268.934901,99.3301442 267.084345,92.4237733 C265.233789,85.5174024 258.155521,81.4176976 251.248184,83.2685123 Z M251.557858,84.4208291 C257.81899,82.7431579 264.268761,86.467744 265.945915,92.7269445 C267.623328,98.9871109 263.899707,105.436623 257.638575,107.114295 C251.378409,108.791707 244.929862,105.067828 243.25245,98.8076616 C241.575296,92.5484611 245.297691,86.0982415 251.557858,84.4208291 Z M251.79649,85.3114129 C246.018321,86.8596741 242.593547,92.7901531 244.142067,98.5692883 C245.690588,104.348424 251.621515,107.771006 257.399684,106.222745 C263.178819,104.674225 266.603851,98.7447118 265.055331,92.9655765 C263.506552,87.1854753 257.575625,83.7628928 251.79649,85.3114129 Z M134.362554,123.361966 L145.959462,120.254585 C148.251604,119.640408 150.620469,121.02032 151.234906,123.313428 C151.848565,125.603639 150.483659,127.970553 148.191517,128.584731 L136.594609,131.692112 C134.303433,132.306031 131.937484,130.940866 131.323307,128.648723 C130.708871,126.355615 132.071378,123.975885 134.362554,123.361966 Z M134.601186,124.25255 C132.790074,124.737835 131.727639,126.59924 132.212925,128.410351 C132.69821,130.221462 134.544867,131.286814 136.355978,130.801528 L147.952886,127.694147 C149.763997,127.208862 150.830573,125.362912 150.345288,123.551801 C149.859743,121.739724 148.009204,120.659883 146.198093,121.145169 L134.601186,124.25255 Z M133.741611,121.044823 L145.338518,117.937442 C148.916308,116.978776 152.614072,119.114498 153.572479,122.691322 C154.530886,126.268146 152.392765,129.953094 148.814975,130.91176 L137.218068,134.019141 C133.641244,134.977548 129.960626,132.851725 129.002219,129.274901 C128.043813,125.698077 130.164787,122.00323 133.741611,121.044823 Z M133.980242,121.935407 C130.884449,122.764922 129.063288,125.940477 129.892803,129.03627 C130.722318,132.132063 133.882678,133.958331 136.979437,133.128557 L148.576344,130.021176 C151.672137,129.191661 153.51141,126.025746 152.681895,122.929953 C151.85238,119.834161 148.672942,117.998511 145.57715,118.828026 L133.980242,121.935407 Z M166.453672,114.762955 L178.050579,111.655562 C180.342722,111.041382 182.711588,112.421293 183.326027,114.714401 C183.939689,117.004612 182.574785,119.371528 180.282643,119.985708 L168.685735,123.093101 C166.394559,123.707022 164.028608,122.341859 163.414428,120.049717 C162.79999,117.756608 164.161529,115.377135 166.453672,114.762955 Z M166.692304,115.653539 C164.881192,116.138826 163.818759,118.000232 164.304046,119.811343 C164.789334,121.622455 166.635992,122.687805 168.447103,122.202517 L180.044011,119.095124 C181.855122,118.609837 182.921697,116.763886 182.436409,114.952774 C181.951122,113.141663 180.099356,112.061117 178.289211,112.546146 L166.692304,115.653539 Z M165.833211,112.445933 L177.430118,109.33854 C181.007908,108.379871 184.691186,110.519472 185.649597,114.096296 C186.608007,117.67312 184.484379,121.354189 180.906589,122.312858 L169.309681,125.420251 C165.731891,126.37892 162.037748,124.256724 161.079337,120.6799 C160.120927,117.103076 162.255421,113.404602 165.833211,112.445933 Z M166.071843,113.336517 C162.975084,114.166294 161.140403,117.345475 161.969921,120.441268 C162.799439,123.537061 165.97429,125.359444 169.071049,124.529667 L180.667957,121.422274 C183.765681,120.592238 185.588531,117.430721 184.759013,114.334928 C183.929495,111.239135 180.766475,109.399088 177.66875,110.229124 L166.071843,113.336517 Z M49.8004938,100.449125 C69.3868341,95.2020183 89.5280244,106.831359 94.7775115,126.414991 C97.8036233,137.708598 95.2176971,149.207708 88.7282371,157.90361 L87.8162102,159.117006 L87.5437238,159.487142 L87.1726211,159.214915 L84.7323072,157.394484 L84.3609457,157.121291 L84.6331733,156.750188 L85.5449414,155.535827 C91.3378253,147.76783 93.6545843,137.528304 90.9524446,127.439914 C88.6090973,118.69442 82.9485624,111.748807 75.6838233,107.552057 C68.416963,103.358982 59.5745345,101.944368 50.8287817,104.286749 C45.2466953,105.782464 40.398551,108.614764 36.5266971,112.366719 L35.4407005,113.433132 L35.1070784,113.745111 L34.7808702,113.416337 L32.6627904,111.241427 L32.3498464,110.908064 L32.6793274,110.580631 L33.7692062,109.528706 C38.1083676,105.322319 43.5557822,102.12239 49.8004938,100.449125 Z M50.0388661,101.338743 C43.9477367,102.970856 38.6384631,106.091324 34.4073925,110.191102 L33.6518429,110.929824 L35.1341351,112.455153 L35.8887187,111.71669 C39.871113,107.859542 44.8532572,104.932326 50.5898917,103.3952 C59.5751942,100.988631 68.6718606,102.447968 76.1408039,106.757715 C83.608333,111.069913 89.4340104,118.214566 91.8430283,127.201283 C94.6189314,137.564962 92.2418431,148.097072 86.2876645,156.082214 L85.6485722,156.923282 L87.346163,158.197325 L87.9852553,157.356257 C94.3112298,148.877052 96.8382408,137.668076 93.8869277,126.653622 C88.7670396,107.549796 69.1441752,96.220528 50.0388661,101.338743 Z M52.7337011,111.393608 L52.7327352,111.393867 C54.7534524,110.852417 56.7878189,110.574412 58.7909676,110.531497 C68.2080485,110.331358 77.0159662,115.419063 81.5535605,123.671856 C82.5184866,125.430023 83.2929086,127.327234 83.8348756,129.349883 C84.3351728,131.217018 84.6197538,133.094331 84.6928937,134.947548 C85.072802,144.568032 79.9186582,153.622548 71.4808051,158.219047 C69.7467675,159.161978 67.8681492,159.916924 65.8783416,160.450091 C63.86342,160.989988 61.8355747,161.28074 59.8375145,161.323327 C50.3490058,161.531216 41.4660827,156.368364 36.9552841,148.006934 C36.033899,146.299217 35.3012756,144.449816 34.7774259,142.494782 C34.2320943,140.459576 33.9468098,138.425089 33.9075504,136.408538 C33.7237635,126.982935 38.8398585,118.161198 47.121597,113.642765 C48.859429,112.694676 50.7371321,111.928587 52.7337011,111.393608 Z M52.9723322,112.284191 C51.0475005,112.800984 49.2359795,113.535881 47.5603965,114.449691 C39.5812788,118.803179 34.6478069,127.305775 34.8255789,136.388243 C34.86359,138.330589 35.1420895,140.293389 35.6680097,142.256151 C36.1732244,144.141639 36.8876611,145.919302 37.7754741,147.563545 C42.1208106,155.620422 50.6870425,160.602065 59.8300357,160.402899 C61.7536316,160.360595 63.6967851,160.082183 65.6402282,159.56144 C67.5585572,159.047425 69.3707346,158.322705 71.0403326,157.413604 C79.1709941,152.98431 84.1312518,144.257129 83.7647762,134.988146 C83.6939707,133.201596 83.4267305,131.389 82.9442919,129.588514 C82.4217363,127.638309 81.6767639,125.804641 80.7459276,124.11188 C76.3749507,116.160224 67.8722025,111.260957 58.8006371,111.452372 C56.8707279,111.494298 54.9208638,111.763119 52.9723322,112.284191 Z"/>
</svg>
