<?xml version="1.0" encoding="utf-8"?>
<svg xmlns="http://www.w3.org/2000/svg">
  <path id="path3" d="M 383.878 96.869 C 381.712 96.993 379.544 97.535 377.475 98.552 C 362.13 106.097 349.184 115.353 338.629 126.193 C 328.065 137.02 319.948 149.387 314.027 162.754 C 310.288 171.181 314.095 181.057 322.524 184.796 C 324.724 185.773 327.034 186.247 329.297 186.247 C 335.702 186.248 341.804 182.541 344.567 176.314 C 349.051 166.228 354.862 157.418 362.547 149.522 C 370.237 141.637 379.869 134.618 392.225 128.532 C 400.498 124.462 403.905 114.449 399.833 106.174 C 396.78 99.968 390.378 96.499 383.878 96.869 Z M 383.933 97.731 C 390.091 97.377 396.156 100.67 399.052 106.557 C 402.915 114.406 399.677 123.889 391.828 127.752 C 379.395 133.876 369.696 140.945 361.93 148.906 C 354.173 156.877 348.295 165.788 343.772 175.957 C 341.151 181.865 335.364 185.372 329.296 185.371 C 327.152 185.371 324.966 184.929 322.879 184.003 C 314.883 180.455 311.286 171.105 314.834 163.109 C 320.717 149.831 328.77 137.557 339.258 126.807 C 349.738 116.046 362.592 106.851 377.858 99.346 C 379.82 98.38 381.881 97.849 383.933 97.731 Z" style="fill: rgb(30, 30, 30);" transform="matrix(0.965926, -0.258819, 0.258819, 0.965926, -24.467523, 97.239777)"/>
  <path id="circle5" d="M 337.778 164.193 C 331.43 164.193 326.27 169.339 326.27 175.687 C 326.27 182.034 331.43 187.194 337.778 187.194 C 344.126 187.194 349.271 182.034 349.271 175.687 C 349.272 169.338 344.126 164.193 337.778 164.193 Z M 337.778 165.067 C 343.652 165.067 348.396 169.811 348.396 175.686 C 348.396 181.56 343.652 186.317 337.778 186.317 C 331.904 186.317 327.146 181.56 327.146 175.686 C 327.146 169.811 331.904 165.067 337.778 165.067 Z" style="fill: rgb(30, 30, 30);" transform="matrix(0.965926, -0.258819, 0.258819, 0.965926, -33.963566, 93.408022)"/>
  <path id="circle7" d="M 346.009 137.707 C 339.661 137.707 334.501 142.866 334.501 149.213 C 334.501 155.562 339.661 160.707 346.009 160.707 C 352.357 160.707 357.503 155.562 357.503 149.213 C 357.503 142.865 352.356 137.707 346.009 137.707 Z M 346.009 138.581 C 351.883 138.581 356.627 143.339 356.627 149.213 C 356.627 155.087 351.883 159.831 346.009 159.831 C 340.135 159.831 335.377 155.087 335.377 149.213 C 335.377 143.339 340.135 138.581 346.009 138.581 Z" style="fill: rgb(30, 30, 30);" transform="matrix(0.965926, -0.258819, 0.258819, 0.965926, -26.827876, 94.635984)"/>
  <path id="circle9" d="M 359.084 114.017 C 352.736 114.017 347.576 119.177 347.576 125.523 C 347.576 131.871 352.736 137.031 359.084 137.031 C 365.432 137.031 370.577 131.871 370.577 125.523 C 370.577 119.176 365.432 114.017 359.084 114.017 Z M 359.084 114.891 C 364.958 114.891 369.702 119.649 369.702 125.523 C 369.702 131.398 364.958 136.155 359.084 136.155 C 353.21 136.155 348.452 131.398 348.452 125.523 C 348.452 119.649 353.21 114.891 359.084 114.891 Z" style="fill: rgb(30, 30, 30);" transform="matrix(0.965926, -0.258819, 0.258819, 0.965926, -20.252768, 97.212925)"/>
  <path id="circle11" d="M 377.243 95.193 C 370.895 95.193 365.749 100.354 365.749 106.701 C 365.749 113.049 370.895 118.195 377.243 118.195 C 383.591 118.195 388.75 113.049 388.75 106.701 C 388.75 100.353 383.59 95.193 377.243 95.193 Z M 377.243 96.069 C 383.117 96.069 387.874 100.826 387.874 106.701 C 387.874 112.575 383.117 117.319 377.243 117.319 C 371.368 117.319 366.625 112.575 366.625 106.701 C 366.625 100.826 371.368 96.069 377.243 96.069 Z" style="fill: rgb(30, 30, 30);" transform="matrix(0.965926, -0.258819, 0.258819, 0.965926, -14.759972, 101.274838)"/>
  <path id="circle13" d="M 257.013 135.897 C 237.796 135.897 222.204 151.49 222.204 170.707 C 222.204 189.925 237.796 205.503 257.013 205.503 C 276.23 205.503 291.809 189.923 291.809 170.707 C 291.809 151.49 276.23 135.897 257.013 135.897 Z M 257.013 136.774 C 275.757 136.774 290.933 151.964 290.933 170.707 C 290.933 189.452 275.757 204.628 257.013 204.628 C 238.27 204.628 223.079 189.452 223.079 170.707 C 223.079 151.964 238.27 136.774 257.013 136.774 Z" style="fill: rgb(30, 30, 30);" transform="matrix(0.965926, -0.258819, 0.258819, 0.965926, -35.423138, 72.334653)"/>
  <path id="circle15" d="M 257.013 153.699 C 247.63 153.699 240.005 161.325 240.005 170.707 C 240.005 180.09 247.63 187.702 257.013 187.702 C 266.396 187.702 274.007 180.09 274.007 170.707 C 274.007 161.323 266.396 153.699 257.013 153.699 Z M 257.013 154.575 C 265.923 154.575 273.132 161.797 273.132 170.707 C 273.132 179.618 265.923 186.826 257.013 186.826 C 248.103 186.826 240.881 179.618 240.881 170.707 C 240.881 161.797 248.104 154.575 257.013 154.575 Z" style="fill: rgb(30, 30, 30);" transform="matrix(0.965926, -0.258819, 0.258819, 0.965926, -35.423269, 72.334507)"/>
  <path id="path17" d="M 281.958 112.556 C 279.779 112.264 277.763 113.797 277.471 115.977 C 277.178 118.157 278.725 120.172 280.905 120.466 L 290.907 121.82 C 293.087 122.113 295.102 120.565 295.395 118.386 C 295.688 116.206 294.141 114.191 291.961 113.897 L 281.958 112.556 Z M 281.849 113.432 L 291.851 114.772 C 293.562 115.003 294.749 116.564 294.519 118.276 C 294.289 119.986 292.727 121.174 291.016 120.945 L 281.014 119.603 C 279.303 119.374 278.116 117.812 278.346 116.101 C 278.576 114.389 280.138 113.202 281.849 113.432 Z" style="fill: rgb(30, 30, 30);" transform="matrix(0.965926, -0.258819, 0.258819, 0.965926, -20.570508, 78.127368)"/>
  <path id="path19" d="M 324.095 103.662 L 314.092 105.003 C 311.913 105.296 310.378 107.311 310.672 109.491 C 310.964 111.67 312.98 113.218 315.159 112.925 L 325.162 111.57 C 327.341 111.277 328.875 109.262 328.583 107.083 C 328.289 104.902 326.274 103.369 324.095 103.662 Z M 324.217 104.537 C 325.928 104.308 327.491 105.495 327.72 107.206 C 327.95 108.916 326.763 110.479 325.052 110.709 L 315.036 112.049 C 313.326 112.279 311.763 111.092 311.533 109.381 C 311.302 107.67 312.504 106.108 314.215 105.878 L 324.217 104.537 Z" style="fill: rgb(30, 30, 30);" transform="matrix(0.965926, -0.258819, 0.258819, 0.965926, -17.137345, 86.415611)"/>
  <path id="path21" d="M 191.728 92.285 C 189.792 92.285 188.212 93.865 188.212 95.801 L 188.212 264.199 C 188.212 266.137 189.792 267.716 191.728 267.716 L 448.272 267.716 C 450.208 267.716 451.788 266.137 451.788 264.199 L 451.788 95.801 C 451.788 93.865 450.209 92.284 448.272 92.284 L 191.728 92.284 Z M 191.728 93.161 L 448.272 93.161 C 449.735 93.161 450.912 94.338 450.912 95.801 L 450.912 264.199 C 450.912 265.663 449.735 266.84 448.272 266.84 L 191.728 266.84 C 190.265 266.84 189.088 265.663 189.088 264.199 L 189.088 95.801 C 189.088 94.338 190.265 93.161 191.728 93.161 Z" style="fill: rgb(30, 30, 30);" transform="matrix(0.965926, -0.258819, 0.258819, 0.965926, -35.683683, 88.955419)"/>
  <path id="path23" d="M 177.896 95.165 L 177.841 96.041 C 177.841 96.041 200.814 97.417 225.842 98.791 C 250.869 100.165 277.934 101.541 286.252 101.541 L 309.993 101.541 C 318.641 101.541 345.717 100.165 370.663 98.791 C 395.609 97.417 418.404 96.041 418.404 96.041 L 418.349 95.165 C 418.349 95.165 395.551 96.542 370.608 97.915 C 345.665 99.289 318.547 100.666 309.992 100.666 L 286.252 100.666 C 278.03 100.666 250.908 99.289 225.882 97.915 C 200.858 96.541 177.896 95.165 177.896 95.165 Z" style="fill: rgb(30, 30, 30);" transform="matrix(0.965926, -0.258819, 0.258819, 0.965926, -15.297346, 80.510981)"/>
</svg>