<?xml version="1.0" encoding="utf-8"?>
<svg version="1.2" baseProfile="tiny" id="Layer_3" x="0px" y="0px" viewBox="0 0 1280 720" preserveAspectRatio="none" xmlns="http://www.w3.org/2000/svg">
  <path id="path3" d="M 775.717 183.379 C 771.115 183.641 766.508 184.794 762.113 186.955 C 729.51 202.984 702.006 222.65 679.58 245.68 C 657.136 268.683 639.89 294.96 627.309 323.358 C 619.365 341.264 627.454 362.245 645.362 370.19 C 650.038 372.266 654.944 373.273 659.753 373.273 C 673.361 373.274 686.326 365.399 692.195 352.168 C 701.723 330.739 714.069 312.023 730.396 295.246 C 746.736 278.494 767.2 263.581 793.452 250.65 C 811.029 242.002 818.266 220.729 809.615 203.148 C 803.128 189.963 789.527 182.592 775.717 183.379 Z M 775.834 185.21 C 788.918 184.457 801.802 191.454 807.957 203.961 C 816.163 220.638 809.284 240.786 792.607 248.993 C 766.192 262.005 745.585 277.023 729.086 293.937 C 712.606 310.872 700.116 329.806 690.507 351.41 C 684.938 363.962 672.642 371.413 659.751 371.412 C 655.195 371.412 650.551 370.473 646.116 368.506 C 629.128 360.966 621.486 341.102 629.024 324.113 C 641.523 295.902 658.634 269.824 680.916 246.986 C 703.183 224.123 730.493 204.587 762.926 188.64 C 767.095 186.588 771.473 185.46 775.834 185.21 Z" style="fill: rgb(30, 30, 30);" transform="matrix(0.965926, -0.258819, 0.258819, 0.965926, -47.537481, 195.512354)"/>
  <path id="circle5" d="M 677.772 326.414 C 664.285 326.414 653.322 337.347 653.322 350.834 C 653.322 364.32 664.285 375.282 677.772 375.282 C 691.258 375.282 702.191 364.32 702.191 350.834 C 702.192 337.345 691.258 326.414 677.772 326.414 Z M 677.772 328.272 C 690.252 328.272 700.331 338.351 700.331 350.832 C 700.331 363.313 690.252 373.42 677.772 373.42 C 665.291 373.42 655.183 363.313 655.183 350.832 C 655.183 338.351 665.292 328.272 677.772 328.272 Z" style="fill: rgb(30, 30, 30);" transform="matrix(0.965926, -0.258819, 0.258819, 0.965926, -67.712193, 187.371269)"/>
  <path id="circle7" d="M 695.26 270.143 C 681.773 270.143 670.81 281.105 670.81 294.59 C 670.81 308.078 681.773 319.011 695.26 319.011 C 708.746 319.011 719.679 308.078 719.679 294.59 C 719.679 281.103 708.745 270.143 695.26 270.143 Z M 695.26 272.001 C 707.74 272.001 717.819 282.109 717.819 294.59 C 717.819 307.07 707.74 317.148 695.26 317.148 C 682.779 317.148 672.671 307.07 672.671 294.59 C 672.671 282.109 682.779 272.001 695.26 272.001 Z" style="fill: rgb(30, 30, 30);" transform="matrix(0.965926, -0.258819, 0.258819, 0.965926, -52.55228, 189.980175)"/>
  <path id="circle9" d="M 723.039 219.811 C 709.552 219.811 698.589 230.774 698.589 244.258 C 698.589 257.745 709.552 268.709 723.039 268.709 C 736.525 268.709 747.458 257.745 747.458 244.258 C 747.458 230.772 736.525 219.811 723.039 219.811 Z M 723.039 221.669 C 735.519 221.669 745.598 231.778 745.598 244.257 C 745.598 256.739 735.519 266.846 723.039 266.846 C 710.558 266.846 700.45 256.739 700.45 244.257 C 700.45 231.778 710.558 221.669 723.039 221.669 Z" style="fill: rgb(30, 30, 30);" transform="matrix(0.965926, -0.258819, 0.258819, 0.965926, -38.582699, 195.454965)"/>
  <path id="circle11" d="M 761.619 179.818 C 748.132 179.818 737.2 190.782 737.2 204.268 C 737.2 217.754 748.133 228.688 761.619 228.688 C 775.106 228.688 786.068 217.754 786.068 204.268 C 786.067 190.78 775.105 179.818 761.619 179.818 Z M 761.619 181.678 C 774.1 181.678 784.207 191.786 784.207 204.267 C 784.207 216.747 774.1 226.826 761.619 226.826 C 749.138 226.826 739.06 216.747 739.06 204.267 C 739.06 191.786 749.138 181.678 761.619 181.678 Z" style="fill: rgb(30, 30, 30);" transform="matrix(0.965926, -0.258819, 0.258819, 0.965926, -26.912519, 204.085316)"/>
  <path id="circle13" d="M 506.177 266.299 C 465.348 266.299 432.22 299.427 432.22 340.257 C 432.22 381.087 465.348 414.185 506.177 414.185 C 547.006 414.185 580.105 381.084 580.105 340.257 C 580.105 299.428 547.006 266.299 506.177 266.299 Z M 506.177 268.161 C 546.001 268.161 578.244 300.434 578.244 340.257 C 578.244 380.083 546 412.327 506.177 412.327 C 466.354 412.327 434.08 380.083 434.08 340.257 C 434.08 300.434 466.354 268.161 506.177 268.161 Z" style="fill: rgb(30, 30, 30);" transform="matrix(0.965926, -0.258819, 0.258819, 0.965926, -70.813982, 142.597784)"/>
  <path id="circle15" d="M 506.177 304.121 C 486.241 304.121 470.042 320.323 470.042 340.257 C 470.042 360.192 486.242 376.364 506.177 376.364 C 526.112 376.364 542.283 360.192 542.283 340.257 C 542.283 320.32 526.113 304.121 506.177 304.121 Z M 506.177 305.982 C 525.107 305.982 540.423 321.327 540.423 340.257 C 540.423 359.188 525.107 374.504 506.177 374.504 C 487.247 374.504 471.902 359.188 471.902 340.257 C 471.902 321.327 487.248 305.982 506.177 305.982 Z" style="fill: rgb(30, 30, 30);" transform="matrix(0.965926, -0.258819, 0.258819, 0.965926, -70.814166, 142.597954)"/>
  <path id="path17" d="M 559.176 216.708 C 554.545 216.087 550.263 219.345 549.642 223.977 C 549.019 228.608 552.307 232.89 556.939 233.513 L 578.189 236.39 C 582.821 237.013 587.102 233.724 587.724 229.095 C 588.347 224.462 585.059 220.181 580.428 219.558 L 559.176 216.708 Z M 558.944 218.568 L 580.195 221.417 C 583.83 221.906 586.352 225.224 585.863 228.86 C 585.375 232.494 582.056 235.017 578.42 234.531 L 557.17 231.681 C 553.535 231.193 551.013 227.875 551.501 224.239 C 551.99 220.603 555.309 218.08 558.944 218.568 Z" style="fill: rgb(30, 30, 30);" transform="matrix(0.965926, -0.258819, 0.258819, 0.965926, -39.257743, 154.905279)"/>
  <path id="path19" d="M 648.7 197.811 L 627.448 200.66 C 622.818 201.283 619.558 205.564 620.181 210.196 C 620.802 214.826 625.086 218.115 629.716 217.492 L 650.967 214.614 C 655.598 213.991 658.856 209.71 658.235 205.08 C 657.612 200.447 653.33 197.19 648.7 197.811 Z M 648.96 199.671 C 652.594 199.183 655.915 201.706 656.403 205.341 C 656.892 208.975 654.369 212.295 650.734 212.784 L 629.454 215.631 C 625.82 216.12 622.499 213.597 622.011 209.963 C 621.521 206.327 624.074 203.008 627.709 202.52 L 648.96 199.671 Z" style="fill: rgb(30, 30, 30);" transform="matrix(0.965926, -0.258819, 0.258819, 0.965926, -31.963661, 172.514487)"/>
  <path id="path21" d="M 367.471 173.64 C 363.358 173.64 360 176.996 360 181.11 L 360 538.89 C 360 543.007 363.357 546.362 367.471 546.362 L 912.529 546.362 C 916.643 546.362 920 543.006 920 538.89 L 920 181.109 C 920 176.996 916.644 173.638 912.529 173.638 L 367.471 173.638 Z M 367.471 175.5 L 912.529 175.5 C 915.638 175.5 918.139 178.001 918.139 181.109 L 918.139 538.89 C 918.139 542 915.638 544.501 912.529 544.501 L 367.471 544.501 C 364.363 544.501 361.861 542 361.861 538.89 L 361.861 181.109 C 361.861 178.001 364.363 175.5 367.471 175.5 Z" style="fill: rgb(30, 30, 30);" transform="matrix(0.965926, -0.258819, 0.258819, 0.965926, -71.367372, 177.910865)"/>
  <path id="path23" d="M 338.084 179.759 L 337.967 181.619 C 337.967 181.619 386.775 184.543 439.95 187.462 C 493.124 190.381 550.625 193.305 568.299 193.305 L 618.739 193.305 C 637.112 193.305 694.64 190.381 747.641 187.462 C 800.641 184.543 849.071 181.619 849.071 181.619 L 848.954 179.759 C 848.954 179.759 800.518 182.683 747.524 185.601 C 694.529 188.52 636.913 191.445 618.738 191.445 L 568.298 191.445 C 550.829 191.445 493.205 188.52 440.036 185.601 C 386.868 182.682 338.084 179.759 338.084 179.759 Z" style="fill: rgb(30, 30, 30);" transform="matrix(0.965926, -0.258819, 0.258819, 0.965926, -28.054375, 159.970231)"/>
</svg>