<?xml version="1.0" encoding="utf-8"?>
<svg version="1.1" id="svg5331" xmlns="http://www.w3.org/2000/svg">
  <g id="layer1" transform="translate(680.65595,186.81102)">
    <g id="g4975" transform="matrix(0.69885916,0,0,0.69885916,-787.27917,-504.35455)" style="stroke-width:0.29453808"/>
  </g>
  <path id="path951" d="M 107.962 0.34 L 96.783 0.37 L 96.409 0.743 L 96.348 0.961 L 96.316 1.301 L 103.397 17.141 L 103.522 17.327 L 103.864 17.513 L 108.304 17.513 L 108.708 17.388 L 108.862 17.171 L 108.957 16.955 L 108.894 16.488 L 106.659 12.606 L 112.31 12.544 L 116.317 17.359 L 116.689 17.513 L 124.453 17.481 L 124.577 17.388 L 124.888 17.048 L 124.92 16.706 L 124.732 16.334 L 108.241 0.433 Z M 100.486 2.703 L 104.834 2.703 L 110.984 10.083 L 104.659 10.083 Z" style="fill-opacity: 1; fill-rule: evenodd; stroke-width: 0.0378593; stroke-linecap: butt; stroke-linejoin: miter; stroke-miterlimit: 4; stroke-dasharray: none; stroke-opacity: 1; fill: rgb(255, 255, 255);"/>
  <path id="path949" d="M 101.348 16.519 L 101.379 16.985 L 101.161 17.327 L 100.851 17.544 L 85.758 17.482 L 84.64 17.203 L 83.429 16.706 L 82.404 16.116 L 81.627 15.526 L 81.006 14.874 L 80.447 14.066 L 80.106 13.414 L 79.857 4.936 L 80.012 3.88 L 80.571 2.482 L 81.224 1.613 L 82.839 0.433 L 91.565 0.433 L 91.907 0.557 L 92.093 0.836 L 92.59 1.768 L 92.497 2.11 L 92.311 2.327 L 92.062 2.482 L 85.789 2.482 L 88.615 13.476 L 89.019 14.283 L 89.547 14.625 L 90.137 14.874 L 91.006 14.874 L 91.565 14.594 L 91.845 13.849 L 91.938 12.793 L 91.72 11.737 L 91.348 10.588 L 90.851 9.656 L 90.354 9.066 L 89.05 8.849 L 88.739 8.724 L 88.491 8.476 L 88.056 6.861 L 88.118 6.488 L 88.46 6.054 L 95.043 6.054 L 95.261 6.178 Z" style="fill-opacity: 1; fill-rule: evenodd; stroke-width: 0.0378593; stroke-linecap: butt; stroke-linejoin: miter; stroke-miterlimit: 4; stroke-dasharray: none; stroke-opacity: 1; fill: rgb(255, 255, 255);"/>
  <path id="path945" d="M 31.972 17.439 L 27.273 17.483 L 26.812 17.109 L 26.68 16.692 L 26.856 16.363 L 43.062 0.31 L 47.761 0.31 L 48.201 0.596 L 48.332 0.881 L 48.332 7.601 L 58.741 0.332 L 59.62 0.332 L 64.671 0.332 L 65.028 0.541 L 65.199 0.805 L 65.245 1.162 L 65.214 1.349 L 57.776 17.63 L 49.057 17.483 L 48.793 17.428 L 48.568 17.214 L 48.475 17.011 L 48.426 16.522 L 53.832 7.327 L 42.28 16.054 L 42.112 16.132 L 41.371 16.132 L 41.228 16.039 L 40.944 15.681 L 41.317 7.42 L 36.41 12.731 Z" style="fill-opacity: 1; fill-rule: evenodd; stroke-width: 0.0378593; stroke-linecap: butt; stroke-linejoin: miter; stroke-miterlimit: 4; stroke-dasharray: none; stroke-opacity: 1; fill: rgb(255, 255, 255);"/>
  <path id="path947" d="M 77.87 17.544 L 61.876 17.544 L 61.503 17.203 L 61.41 17.016 L 61.286 16.706 L 67.839 0.65 L 68.118 0.339 L 77.932 0.339 L 78.366 0.495 L 78.491 0.836 L 78.522 2.451 L 78.304 2.762 L 77.994 2.917 L 71.969 2.917 L 71.255 5.898 L 77.901 5.929 L 78.273 6.116 L 78.429 6.395 L 78.429 8.476 L 78.335 8.756 L 77.932 9.035 L 70.416 9.035 L 69.081 14.283 L 77.87 14.283 L 78.18 14.532 L 78.366 14.811 L 78.304 17.11 L 78.118 17.327 Z" style="fill-rule: evenodd; stroke-width: 0.0378593; stroke-linecap: butt; stroke-linejoin: miter; stroke-miterlimit: 4; stroke-dasharray: none; stroke-opacity: 1; fill: rgb(255, 255, 255);"/>
  <path id="path941" d="M 147.895 42.078 L 148.33 41.706 L 148.33 41.084 L 126.963 19.283 L 117.771 19.221 L 117.336 19.594 L 117.46 20.153 L 127.274 32.078 L 101.87 19.221 L 91.498 19.159 L 91.001 19.532 L 90.939 20.029 L 97.895 41.644 L 98.641 42.265 L 111.808 42.265 L 112.305 41.768 L 112.554 41.395 L 106.653 28.227 L 135.162 42.14 Z" style="fill-opacity: 1; fill-rule: evenodd; stroke-width: 0.0378593; stroke-linecap: butt; stroke-linejoin: miter; stroke-miterlimit: 4; stroke-dasharray: none; stroke-opacity: 1; fill: rgb(255, 255, 255);"/>
  <path id="path934" d="M 67.833 19.222 L 54.976 41.395 L 55.039 41.814 L 55.225 42.077 L 55.52 42.249 L 66.529 42.451 L 68.828 38.228 L 81.932 38.165 L 83.983 42.077 L 84.294 42.202 L 95.038 42.202 L 95.473 41.767 L 95.473 41.209 L 82.118 19.222 Z M 75.474 23.569 L 80.504 33.756 L 69.386 33.756 Z" style="fill-opacity: 1; fill-rule: evenodd; stroke-width: 0.0378593; stroke-linecap: butt; stroke-linejoin: miter; stroke-miterlimit: 4; stroke-dasharray: none; stroke-opacity: 1; fill: rgb(255, 255, 255);"/>
  <path id="path925" d="M 22.409 19.217 L 32.335 19.305 L 33.125 20.008 L 33.565 28.616 L 48.146 19.13 L 58.599 19.217 C 58.599 19.217 59.022 19.212 59.315 19.518 C 59.609 19.824 59.565 20.096 59.565 20.096 L 52.186 41.616 C 52.145 41.736 52.032 41.897 51.93 42.027 C 51.796 42.198 51.55 42.319 51.55 42.319 L 38.577 42.154 C 38.391 42.152 38.234 41.952 38.166 41.779 C 38.09 41.587 38.129 41.349 38.215 41.161 L 44.281 27.913 L 24.781 40.123 C 24.781 40.123 24.072 40.36 23.463 39.947 C 23.246 39.801 23.112 39.245 23.112 39.245 L 21.091 27.738 L 7.301 42.231 L 0.449 42.231 L 0.01 41.792 L 0.01 41.001 Z" style="fill-rule: evenodd; stroke-width: 0.0378593; stroke-linecap: butt; stroke-linejoin: miter; stroke-miterlimit: 4; stroke-dasharray: none; stroke-opacity: 1; fill: rgb(255, 255, 255);"/>
</svg>