<?xml version="1.0" encoding="utf-8"?>
<svg version="1.1" id="svg5331" xmlns="http://www.w3.org/2000/svg">
  <g id="layer1" transform="matrix(0.293839, 0, 0, 0.293839, 200, 54.801186)">
    <g id="g4975" transform="matrix(0.69885916,0,0,0.69885916,-787.27917,-504.35455)" style="stroke-width:0.29453808"/>
  </g>
  <path id="path951" d="M 31.72 0.009 L 28.436 0.018 L 28.326 0.127 L 28.308 0.191 L 28.298 0.291 L 30.379 4.946 L 30.416 5 L 30.516 5.055 L 31.821 5.055 L 31.94 5.018 L 31.985 4.954 L 32.013 4.891 L 31.994 4.754 L 31.338 3.613 L 32.998 3.595 L 34.175 5.01 L 34.285 5.055 L 36.566 5.046 L 36.603 5.018 L 36.694 4.918 L 36.703 4.818 L 36.648 4.708 L 31.802 0.036 Z M 29.524 0.703 L 30.801 0.703 L 32.608 2.872 L 30.75 2.872 Z" style="fill-opacity: 1; fill-rule: evenodd; stroke-width: 0.0378593; stroke-linecap: butt; stroke-linejoin: miter; stroke-miterlimit: 4; stroke-dasharray: none; stroke-opacity: 1; fill: rgb(255, 255, 255);"/>
  <path id="path949" d="M 29.777 4.763 L 29.786 4.9 L 29.722 5 L 29.631 5.064 L 25.196 5.046 L 24.868 4.964 L 24.512 4.818 L 24.211 4.644 L 23.982 4.471 L 23.8 4.279 L 23.635 4.042 L 23.535 3.85 L 23.462 1.359 L 23.508 1.049 L 23.672 0.638 L 23.864 0.383 L 24.338 0.036 L 26.902 0.036 L 27.003 0.073 L 27.058 0.155 L 27.204 0.428 L 27.176 0.529 L 27.122 0.593 L 27.048 0.638 L 25.205 0.638 L 26.036 3.869 L 26.154 4.106 L 26.309 4.206 L 26.483 4.279 L 26.738 4.279 L 26.902 4.197 L 26.985 3.978 L 27.012 3.668 L 26.948 3.358 L 26.839 3.02 L 26.693 2.746 L 26.547 2.573 L 26.163 2.509 L 26.072 2.472 L 25.999 2.399 L 25.871 1.925 L 25.89 1.815 L 25.99 1.688 L 27.924 1.688 L 27.988 1.724 Z" style="fill-opacity: 1; fill-rule: evenodd; stroke-width: 0.0378593; stroke-linecap: butt; stroke-linejoin: miter; stroke-miterlimit: 4; stroke-dasharray: none; stroke-opacity: 1; fill: rgb(255, 255, 255);"/>
  <path id="path945" d="M 9.392 5.033 L 8.011 5.046 L 7.875 4.936 L 7.837 4.814 L 7.888 4.717 L 12.65 0 L 14.031 0 L 14.16 0.084 L 14.199 0.168 L 14.199 2.142 L 17.257 0.006 L 17.516 0.006 L 19 0.006 L 19.105 0.068 L 19.155 0.145 L 19.169 0.25 L 19.159 0.305 L 16.974 5.089 L 14.412 5.046 L 14.334 5.03 L 14.268 4.967 L 14.241 4.907 L 14.226 4.764 L 15.815 2.062 L 12.421 4.626 L 12.371 4.649 L 12.153 4.649 L 12.111 4.622 L 12.028 4.517 L 12.138 2.089 L 10.696 3.65 Z" style="fill-opacity: 1; fill-rule: evenodd; stroke-width: 0.0378593; stroke-linecap: butt; stroke-linejoin: miter; stroke-miterlimit: 4; stroke-dasharray: none; stroke-opacity: 1; fill: rgb(255, 255, 255);"/>
  <path id="path947" d="M 22.878 5.064 L 18.179 5.064 L 18.069 4.964 L 18.042 4.909 L 18.005 4.818 L 19.931 0.1 L 20.013 0.009 L 22.896 0.009 L 23.024 0.054 L 23.061 0.155 L 23.07 0.629 L 23.006 0.72 L 22.915 0.766 L 21.144 0.766 L 20.935 1.642 L 22.887 1.651 L 22.997 1.706 L 23.043 1.788 L 23.043 2.399 L 23.015 2.482 L 22.896 2.564 L 20.688 2.564 L 20.296 4.106 L 22.878 4.106 L 22.969 4.179 L 23.024 4.261 L 23.006 4.936 L 22.951 5 Z" style="fill-rule: evenodd; stroke-width: 0.0378593; stroke-linecap: butt; stroke-linejoin: miter; stroke-miterlimit: 4; stroke-dasharray: none; stroke-opacity: 1; fill: rgb(255, 255, 255);"/>
  <path id="path941" d="M 43.454 12.273 L 43.582 12.164 L 43.582 11.981 L 37.304 5.575 L 34.603 5.557 L 34.475 5.666 L 34.511 5.831 L 37.395 9.335 L 29.93 5.557 L 26.883 5.539 L 26.737 5.648 L 26.718 5.794 L 28.762 12.146 L 28.982 12.328 L 32.851 12.328 L 32.997 12.182 L 33.07 12.072 L 31.336 8.203 L 39.713 12.291 Z" style="fill-opacity: 1; fill-rule: evenodd; stroke-width: 0.0378593; stroke-linecap: butt; stroke-linejoin: miter; stroke-miterlimit: 4; stroke-dasharray: none; stroke-opacity: 1; fill: rgb(255, 255, 255);"/>
  <path id="path934" d="M 19.929 5.557 L 16.151 12.072 L 16.17 12.195 L 16.224 12.273 L 16.311 12.323 L 19.546 12.383 L 20.221 11.142 L 24.072 11.123 L 24.675 12.273 L 24.766 12.309 L 27.923 12.309 L 28.051 12.182 L 28.051 12.018 L 24.126 5.557 Z M 22.174 6.834 L 23.652 9.828 L 20.385 9.828 Z" style="fill-opacity: 1; fill-rule: evenodd; stroke-width: 0.0378593; stroke-linecap: butt; stroke-linejoin: miter; stroke-miterlimit: 4; stroke-dasharray: none; stroke-opacity: 1; fill: rgb(255, 255, 255);"/>
  <path id="path925" d="M 6.582 5.556 L 9.498 5.581 L 9.73 5.788 L 9.86 8.317 L 14.144 5.53 L 17.216 5.556 C 17.216 5.556 17.34 5.554 17.426 5.644 C 17.512 5.734 17.5 5.814 17.5 5.814 L 15.331 12.137 C 15.319 12.173 15.286 12.22 15.256 12.258 C 15.217 12.308 15.144 12.344 15.144 12.344 L 11.332 12.295 C 11.278 12.295 11.232 12.236 11.212 12.185 C 11.189 12.129 11.201 12.059 11.226 12.004 L 13.009 8.111 L 7.279 11.699 C 7.279 11.699 7.07 11.768 6.891 11.647 C 6.828 11.604 6.788 11.441 6.788 11.441 L 6.194 8.059 L 2.142 12.318 L 0.129 12.318 L 0 12.189 L 0 11.957 Z" style="fill-rule: evenodd; stroke-width: 0.0378593; stroke-linecap: butt; stroke-linejoin: miter; stroke-miterlimit: 4; stroke-dasharray: none; stroke-opacity: 1; fill: rgb(255, 255, 255);"/>
</svg>