<?xml version="1.0" encoding="utf-8"?>
<svg version="1.0" preserveAspectRatio="xMidYMid meet" xmlns="http://www.w3.org/2000/svg">
  <path d="M 25.231 31.816 L 24.118 30.815 L 24.045 16.699 L 24.008 2.583 L 24.897 1.62 C 25.786 0.657 25.861 0.657 31.604 0.657 C 39.05 0.657 40.68 1.101 43.273 3.731 C 47.459 8.029 47.459 13.513 43.236 18.033 C 42.126 19.256 40.533 20.552 39.717 20.922 C 38.939 21.256 38.271 21.626 38.307 21.739 C 38.307 21.849 39.569 22.887 41.087 23.998 C 42.643 25.109 44.57 26.666 45.385 27.407 C 46.719 28.629 46.867 28.925 46.645 30 C 46.534 30.668 46.051 31.519 45.57 31.853 C 43.829 33.224 43.606 33.076 33.456 24.628 L 29.565 21.404 L 29.454 26.11 C 29.379 30.26 29.269 30.926 28.602 31.63 C 27.417 32.927 26.489 32.964 25.231 31.816 Z M 37.345 17.365 C 41.384 15.55 42.458 10.438 39.457 7.622 C 37.791 6.065 37.013 5.843 33.121 5.843 L 29.379 5.843 L 29.379 11.956 L 29.379 18.069 L 32.64 18.069 C 34.974 18.069 36.271 17.848 37.345 17.365 Z" style="fill: rgb(255, 255, 255);"/>
  <path d="M 60.836 32.185 C 59.686 31.816 57.944 30.963 56.946 30.26 C 55.945 29.593 54.981 29.073 54.759 29.111 C 54.573 29.185 54.499 29.111 54.648 28.963 C 54.797 28.815 54.314 28.036 53.537 27.185 C 51.203 24.628 49.386 20.108 49.386 16.699 C 49.386 12.29 51.387 7.622 54.611 4.546 C 61.428 -1.974 71.69 -1.418 78.398 5.807 C 80.62 8.215 81.768 10.698 82.435 14.512 C 83.768 22.035 78.248 30.333 70.542 32.372 C 67.763 33.076 63.391 33.002 60.836 32.185 Z M 71.616 25.702 C 75.211 23.331 76.842 20.441 76.877 16.403 C 76.877 11.919 74.73 8.585 70.616 6.695 C 68.911 5.917 68.172 5.77 65.763 5.917 C 59.725 6.177 55.722 10.068 55.388 15.884 C 55.13 20.218 57.427 24.035 61.464 26.073 C 63.058 26.887 63.688 26.962 66.651 26.851 C 69.652 26.777 70.245 26.628 71.616 25.702 Z" style="fill: rgb(255, 255, 255);"/>
  <path d="M 64.095 19.552 C 61.91 17.811 62.28 14.255 64.8 13.068 C 66.319 12.365 66.986 12.365 68.283 13.142 C 70.432 14.402 70.726 16.995 68.986 18.997 C 68.06 20.033 67.579 20.293 66.429 20.293 C 65.615 20.293 64.651 19.996 64.095 19.552 Z" style="fill: rgb(255, 255, 255);"/>
  <path d="M 97.552 32.039 C 94.513 30.963 92.55 29.703 90.809 27.777 C 87.363 23.961 86.288 20.922 86.511 15.661 C 86.623 12.697 86.806 11.919 87.919 9.697 C 91.105 3.213 98.663 -0.937 105.184 0.248 C 108.037 0.768 112.002 2.768 112.705 4.065 C 113.408 5.326 112.964 6.769 111.557 7.808 L 110.556 8.548 L 108.297 7.362 C 100.923 3.51 92.958 7.511 92.142 15.439 C 91.661 19.923 94.254 24.442 98.367 26.22 C 100.96 27.332 105.332 27.666 107.259 26.851 C 109.222 26.036 110.186 24.295 110.075 21.849 L 109.963 19.884 L 106.221 19.811 C 103.11 19.738 102.294 19.626 101.664 19.033 C 100.701 18.145 100.664 16.81 101.627 15.847 C 102.294 15.18 102.85 15.106 107.89 15.106 C 113.113 15.106 113.483 15.143 114.41 15.959 C 115.335 16.737 115.373 16.921 115.447 21.219 C 115.484 24.702 115.373 25.924 114.891 26.777 C 112.26 31.704 103.85 34.261 97.552 32.039 Z" style="fill: rgb(255, 255, 255);"/>
  <path d="M 129.858 31.963 C 125.45 30.333 121.893 26.777 120.116 22.22 C 119.448 20.552 119.264 19.367 119.264 16.588 C 119.3 13.477 119.411 12.772 120.449 10.327 C 121.115 8.807 122.227 6.844 122.968 5.955 C 125.339 3.065 129.304 0.841 133.415 0.137 C 135.565 -0.233 140.196 0.582 142.641 1.769 C 146.273 3.584 147.384 5.584 145.605 7.25 C 144.458 8.326 143.235 8.29 140.826 7.029 C 139.084 6.139 138.455 6.029 135.342 6.029 C 131.86 6.029 131.786 6.029 129.601 7.511 C 125.227 10.438 123.598 16.217 125.858 20.812 C 128.117 25.443 132.453 27.703 137.937 27.147 C 140.048 26.925 140.492 26.74 141.715 25.479 C 143.012 24.221 143.123 23.924 143.123 22.035 L 143.123 19.996 L 139.233 19.848 C 135.601 19.738 135.307 19.663 134.38 18.737 C 133.453 17.848 133.415 17.663 133.861 16.624 C 134.083 15.996 134.603 15.403 134.935 15.329 C 135.898 15.032 145.828 14.922 146.643 15.216 C 148.162 15.736 148.681 17.329 148.681 21.478 C 148.681 24.812 148.57 25.59 147.829 26.998 C 145.271 31.853 136.233 34.335 129.858 31.963 Z" style="fill: rgb(255, 255, 255);"/>
  <path d="M 178.32 31.779 C 177.913 31.372 177.506 30.668 177.395 30.224 C 177.283 29.741 177.209 23.294 177.283 15.92 L 177.395 2.435 L 178.32 1.694 C 179.174 1.027 179.654 0.952 185.915 1.101 C 192.473 1.213 192.622 1.25 194.363 2.25 C 197.661 4.214 199.624 7.954 199.365 11.846 C 199.105 16.032 196.402 19.773 192.955 20.737 C 192.14 20.96 191.325 21.294 191.177 21.441 C 190.993 21.588 191.734 22.405 192.844 23.22 C 200.254 28.963 200.514 29.296 199.662 30.963 C 198.661 32.927 197.068 33.037 194.846 31.334 C 192.992 29.851 187.323 25.183 186.287 24.258 C 185.878 23.886 184.915 23.072 184.175 22.443 L 182.768 21.331 L 182.768 24.999 C 182.73 30.705 182.063 32.52 179.915 32.52 C 179.432 32.52 178.727 32.185 178.32 31.779 Z M 191.325 17.441 C 193.289 16.291 194.4 14.181 194.437 11.772 C 194.437 9.438 193.845 8.253 191.88 6.807 C 191.029 6.139 190.214 5.993 186.805 5.917 L 182.768 5.77 L 182.768 11.919 L 182.768 18.069 L 186.508 18.069 C 189.399 18.069 190.51 17.922 191.325 17.441 Z" style="fill: rgb(255, 255, 255);"/>
  <path d="M 1.073 31.704 L 0.147 30.851 L 0.036 17.107 C -0.075 1.769 -0.075 1.694 2.295 1.027 C 4.296 0.471 17.857 0.991 18.931 1.694 C 20.116 2.472 20.005 4.102 18.747 5.103 C 17.746 5.88 17.413 5.917 11.597 5.807 L 5.482 5.658 L 5.371 10.03 L 5.26 14.364 L 9.447 14.402 C 14.93 14.476 15.93 14.551 16.597 15.106 C 17.376 15.773 17.302 17.107 16.375 17.922 C 15.709 18.552 14.967 18.625 10.521 18.663 L 5.482 18.699 L 5.297 24.739 L 5.113 30.741 L 4.073 31.63 C 2.778 32.742 2.258 32.742 1.073 31.704 Z" style="fill: rgb(255, 255, 255);"/>
  <path d="M 155.387 32.149 C 152.941 31.593 153.052 32.185 153.089 16.995 C 153.128 9.4 153.312 2.806 153.497 2.324 C 154.127 0.694 154.905 0.582 163.501 0.694 C 170.799 0.841 171.651 0.916 172.354 1.545 C 173.468 2.546 173.356 4.139 172.171 5.065 C 171.244 5.77 170.689 5.843 164.909 5.843 L 158.647 5.843 L 158.758 9.993 L 158.869 14.142 L 164.166 14.142 C 168.984 14.181 169.541 14.255 170.022 14.883 C 170.318 15.291 170.539 15.996 170.539 16.44 C 170.539 17.995 169.651 18.255 163.983 18.367 L 158.684 18.515 L 158.684 23.11 L 158.684 27.703 L 165.316 27.703 L 171.984 27.703 L 172.726 28.777 C 173.615 30.037 173.318 31.445 172.06 32.149 C 171.206 32.593 157.425 32.593 155.387 32.149 Z" style="fill: rgb(255, 255, 255);"/>
</svg>