<?xml version="1.0" encoding="utf-8"?>
<svg version="1.0" preserveAspectRatio="xMidYMid meet" xmlns="http://www.w3.org/2000/svg">
  <path d="M 680.973 858.731 L 650.973 831.731 L 648.973 450.731 L 647.973 69.731 L 671.973 43.731 C 695.973 17.731 697.973 17.731 852.973 17.731 C 1053.973 17.731 1097.973 29.731 1167.973 100.731 C 1280.973 216.731 1280.973 364.731 1166.973 486.731 C 1136.973 519.731 1093.973 554.731 1071.973 564.731 C 1050.973 573.731 1032.973 583.731 1033.973 586.731 C 1033.973 589.731 1067.973 617.731 1108.973 647.731 C 1150.973 677.731 1202.973 719.731 1224.973 739.731 C 1260.973 772.731 1264.973 780.731 1258.973 809.731 C 1255.973 827.731 1242.973 850.731 1229.973 859.731 C 1182.973 896.731 1176.973 892.731 902.973 664.731 L 797.973 577.731 L 794.973 704.731 C 792.973 816.731 789.973 834.731 771.973 853.731 C 739.973 888.731 714.973 889.731 680.973 858.731 Z M 1007.973 468.731 C 1116.973 419.731 1145.973 281.731 1064.973 205.731 C 1019.973 163.731 998.973 157.731 893.973 157.731 L 792.973 157.731 L 792.973 322.731 L 792.973 487.731 L 880.973 487.731 C 943.973 487.731 978.973 481.731 1007.973 468.731 Z" style="fill: rgb(255, 255, 255);"/>
  <path d="M 1641.973 868.731 C 1610.973 858.731 1563.973 835.731 1536.973 816.731 C 1509.973 798.731 1483.973 784.731 1477.973 785.731 C 1472.973 787.731 1470.973 785.731 1474.973 781.731 C 1478.973 777.731 1465.973 756.731 1444.973 733.731 C 1381.973 664.731 1332.973 542.731 1332.973 450.731 C 1332.973 331.731 1386.973 205.731 1473.973 122.731 C 1657.973 -53.269 1934.973 -38.269 2115.973 156.731 C 2175.973 221.731 2206.973 288.731 2224.973 391.731 C 2260.973 594.731 2111.973 818.731 1903.973 873.731 C 1828.973 892.731 1710.973 890.731 1641.973 868.731 Z M 1932.973 693.731 C 2029.973 629.731 2073.973 551.731 2074.973 442.731 C 2074.973 321.731 2016.973 231.731 1905.973 180.731 C 1859.973 159.731 1839.973 155.731 1774.973 159.731 C 1611.973 166.731 1503.973 271.731 1494.973 428.731 C 1487.973 545.731 1549.973 648.731 1658.973 703.731 C 1701.973 725.731 1718.973 727.731 1798.973 724.731 C 1879.973 722.731 1895.973 718.731 1932.973 693.731 Z" style="fill: rgb(255, 255, 255);"/>
  <path d="M 1729.973 527.731 C 1670.973 480.731 1680.973 384.731 1748.973 352.731 C 1789.973 333.731 1807.973 333.731 1842.973 354.731 C 1900.973 388.731 1908.973 458.731 1861.973 512.731 C 1836.973 540.731 1823.973 547.731 1792.973 547.731 C 1770.973 547.731 1744.973 539.731 1729.973 527.731 Z" style="fill: rgb(255, 255, 255);"/>
  <path d="M 2632.973 864.731 C 2550.973 835.731 2497.973 801.731 2450.973 749.731 C 2357.973 646.731 2328.973 564.731 2334.973 422.731 C 2337.973 342.731 2342.973 321.731 2372.973 261.731 C 2458.973 86.731 2662.973 -25.269 2838.973 6.731 C 2915.973 20.731 3022.973 74.731 3041.973 109.731 C 3060.973 143.731 3048.973 182.731 3010.973 210.731 L 2983.973 230.731 L 2922.973 198.731 C 2723.973 94.731 2508.973 202.731 2486.973 416.731 C 2473.973 537.731 2543.973 659.731 2654.973 707.731 C 2724.973 737.731 2842.973 746.731 2894.973 724.731 C 2947.973 702.731 2973.973 655.731 2970.973 589.731 L 2967.973 536.731 L 2866.973 534.731 C 2782.973 532.731 2760.973 529.731 2743.973 513.731 C 2717.973 489.731 2716.973 453.731 2742.973 427.731 C 2760.973 409.731 2775.973 407.731 2911.973 407.731 C 3052.973 407.731 3062.973 408.731 3087.973 430.731 C 3112.973 451.731 3113.973 456.731 3115.973 572.731 C 3116.973 666.731 3113.973 699.731 3100.973 722.731 C 3029.973 855.731 2802.973 924.731 2632.973 864.731 Z" style="fill: rgb(255, 255, 255);"/>
  <path d="M 3504.973 862.731 C 3385.973 818.731 3289.973 722.731 3241.973 599.731 C 3223.973 554.731 3218.973 522.731 3218.973 447.731 C 3219.973 363.731 3222.973 344.731 3250.973 278.731 C 3268.973 237.731 3298.973 184.731 3318.973 160.731 C 3382.973 82.731 3489.973 22.731 3600.973 3.731 C 3658.973 -6.269 3783.973 15.731 3849.973 47.731 C 3947.974 96.731 3977.974 150.731 3929.974 195.731 C 3898.973 224.731 3865.973 223.731 3800.973 189.731 C 3753.973 165.731 3736.973 162.731 3652.973 162.731 C 3558.973 162.731 3556.973 162.731 3497.973 202.731 C 3379.973 281.731 3335.973 437.731 3396.973 561.731 C 3457.973 686.731 3574.973 747.731 3722.973 732.731 C 3779.973 726.731 3791.973 721.731 3824.973 687.731 C 3859.973 653.731 3862.973 645.731 3862.973 594.731 L 3862.973 539.731 L 3757.973 535.731 C 3659.973 532.731 3651.973 530.731 3626.973 505.731 C 3601.973 481.731 3600.973 476.731 3612.973 448.731 C 3618.973 431.731 3632.973 415.731 3641.973 413.731 C 3667.973 405.731 3935.974 402.731 3957.974 410.731 C 3998.974 424.731 4012.974 467.731 4012.974 579.731 C 4012.974 669.731 4009.974 690.731 3989.974 728.731 C 3920.973 859.731 3676.973 926.731 3504.973 862.731 Z" style="fill: rgb(255, 255, 255);"/>
  <path d="M 4812.974 857.731 C 4801.974 846.731 4790.974 827.731 4787.974 815.731 C 4784.974 802.731 4782.974 628.731 4784.974 429.731 L 4787.974 65.731 L 4812.974 45.731 C 4835.974 27.731 4848.974 25.731 5017.974 29.731 C 5194.974 32.731 5198.974 33.731 5245.974 60.731 C 5334.974 113.731 5387.974 214.731 5380.974 319.731 C 5373.974 432.731 5300.974 533.731 5207.974 559.731 C 5185.974 565.731 5163.974 574.731 5159.974 578.731 C 5154.974 582.731 5174.974 604.731 5204.974 626.731 C 5404.974 781.731 5411.974 790.731 5388.974 835.731 C 5361.974 888.731 5318.974 891.731 5258.974 845.731 C 5208.974 805.731 5055.974 679.731 5027.974 654.731 C 5016.974 644.731 4990.974 622.731 4970.974 605.731 L 4932.974 575.731 L 4932.974 674.731 C 4931.974 828.731 4913.974 877.731 4855.974 877.731 C 4842.974 877.731 4823.974 868.731 4812.974 857.731 Z M 5163.974 470.731 C 5216.974 439.731 5246.974 382.731 5247.974 317.731 C 5247.974 254.731 5231.974 222.731 5178.974 183.731 C 5155.974 165.731 5133.974 161.731 5041.974 159.731 L 4932.974 155.731 L 4932.974 321.731 L 4932.974 487.731 L 5033.974 487.731 C 5111.974 487.731 5141.974 483.731 5163.974 470.731 Z" style="fill: rgb(255, 255, 255);"/>
  <path d="M 28.973 855.731 L 3.973 832.731 L 0.973 461.731 C -2.027 47.731 -2.027 45.731 61.973 27.731 C 115.973 12.731 481.973 26.731 510.973 45.731 C 542.973 66.731 539.973 110.731 505.973 137.731 C 478.973 158.731 469.973 159.731 312.973 156.731 L 147.973 152.731 L 144.973 270.731 L 141.973 387.731 L 254.973 388.731 C 402.973 390.731 429.973 392.731 447.973 407.731 C 468.973 425.731 466.973 461.731 441.973 483.731 C 423.973 500.731 403.973 502.731 283.973 503.731 L 147.973 504.731 L 142.973 667.731 L 137.973 829.731 L 109.973 853.731 C 74.973 883.731 60.973 883.731 28.973 855.731 Z" style="fill: rgb(255, 255, 255);"/>
  <path d="M 4193.974 867.731 C 4127.974 852.731 4130.974 868.731 4131.974 458.731 C 4132.974 253.731 4137.974 75.731 4142.974 62.731 C 4159.974 18.731 4180.974 15.731 4412.974 18.731 C 4609.974 22.731 4632.974 24.731 4651.974 41.731 C 4681.974 68.731 4678.974 111.731 4646.974 136.731 C 4621.974 155.731 4606.974 157.731 4450.974 157.731 L 4281.974 157.731 L 4284.974 269.731 L 4287.974 381.731 L 4430.974 381.731 C 4560.974 382.731 4575.974 384.731 4588.974 401.731 C 4596.974 412.731 4602.974 431.731 4602.974 443.731 C 4602.974 485.731 4578.974 492.731 4425.974 495.731 L 4282.974 499.731 L 4282.974 623.731 L 4282.974 747.731 L 4461.974 747.731 L 4641.974 747.731 L 4661.974 776.731 C 4685.974 810.731 4677.974 848.731 4643.974 867.731 C 4620.974 879.731 4248.974 879.731 4193.974 867.731 Z" style="fill: rgb(255, 255, 255);"/>
</svg>