<?xml version="1.0" encoding="utf-8"?>
<svg version="1.0" preserveAspectRatio="xMidYMid meet" xmlns="http://www.w3.org/2000/svg">
  <path d="M 25.341 31.955 L 24.224 30.95 L 24.15 16.772 L 24.113 2.594 L 25.006 1.627 C 25.899 0.66 25.974 0.66 31.742 0.66 C 39.221 0.66 40.858 1.106 43.462 3.747 C 47.667 8.064 47.667 13.572 43.425 18.112 C 42.31 19.34 40.71 20.642 39.891 21.014 C 39.109 21.349 38.439 21.721 38.475 21.834 C 38.475 21.945 39.742 22.987 41.267 24.103 C 42.83 25.219 44.765 26.783 45.584 27.527 C 46.924 28.754 47.072 29.052 46.849 30.131 C 46.738 30.802 46.253 31.657 45.77 31.992 C 44.021 33.369 43.797 33.221 33.602 24.736 L 29.694 21.498 L 29.583 26.224 C 29.508 30.392 29.397 31.061 28.727 31.768 C 27.537 33.071 26.605 33.108 25.341 31.955 Z M 37.509 17.441 C 41.565 15.618 42.644 10.484 39.63 7.655 C 37.956 6.092 37.175 5.869 33.266 5.869 L 29.508 5.869 L 29.508 12.008 L 29.508 18.148 L 32.783 18.148 C 35.127 18.148 36.43 17.926 37.509 17.441 Z" style="fill: rgb(255, 255, 255);"/>
  <path d="M 61.102 32.326 C 59.947 31.955 58.198 31.099 57.195 30.392 C 56.19 29.723 55.222 29.2 54.999 29.238 C 54.812 29.313 54.738 29.238 54.887 29.09 C 55.037 28.941 54.552 28.159 53.771 27.304 C 51.427 24.736 49.602 20.196 49.602 16.772 C 49.602 12.344 51.612 7.655 54.85 4.566 C 61.697 -1.983 72.004 -1.424 78.741 5.832 C 80.973 8.251 82.126 10.745 82.796 14.576 C 84.135 22.131 78.591 30.466 70.851 32.514 C 68.06 33.221 63.669 33.146 61.102 32.326 Z M 71.93 25.815 C 75.54 23.433 77.178 20.531 77.214 16.475 C 77.214 11.971 75.057 8.623 70.925 6.724 C 69.213 5.943 68.47 5.795 66.051 5.943 C 59.986 6.204 55.966 10.112 55.631 15.954 C 55.371 20.307 57.678 24.14 61.733 26.187 C 63.334 27.005 63.967 27.08 66.943 26.969 C 69.957 26.894 70.553 26.745 71.93 25.815 Z" style="fill: rgb(255, 255, 255);"/>
  <path d="M 64.376 19.638 C 62.181 17.889 62.553 14.317 65.084 13.125 C 66.609 12.419 67.279 12.419 68.582 13.2 C 70.74 14.465 71.036 17.069 69.288 19.08 C 68.358 20.121 67.875 20.382 66.72 20.382 C 65.902 20.382 64.934 20.084 64.376 19.638 Z" style="fill: rgb(255, 255, 255);"/>
  <path d="M 97.979 32.179 C 94.927 31.099 92.955 29.833 91.207 27.899 C 87.745 24.066 86.666 21.014 86.89 15.73 C 87.002 12.753 87.186 11.971 88.304 9.739 C 91.504 3.227 99.095 -0.941 105.645 0.249 C 108.51 0.771 112.492 2.78 113.198 4.083 C 113.905 5.349 113.459 6.799 112.045 7.842 L 111.04 8.585 L 108.771 7.394 C 101.365 3.525 93.365 7.544 92.545 15.507 C 92.062 20.01 94.667 24.549 98.798 26.335 C 101.402 27.452 105.793 27.787 107.729 26.969 C 109.7 26.15 110.668 24.401 110.557 21.945 L 110.444 19.971 L 106.686 19.898 C 103.561 19.824 102.742 19.712 102.109 19.116 C 101.142 18.224 101.105 16.884 102.072 15.916 C 102.742 15.246 103.3 15.172 108.362 15.172 C 113.608 15.172 113.98 15.209 114.911 16.029 C 115.84 16.81 115.878 16.995 115.952 21.312 C 115.99 24.81 115.878 26.038 115.394 26.894 C 112.752 31.843 104.305 34.411 97.979 32.179 Z" style="fill: rgb(255, 255, 255);"/>
  <path d="M 130.427 32.103 C 125.999 30.466 122.427 26.894 120.642 22.317 C 119.971 20.642 119.786 19.452 119.786 16.661 C 119.822 13.536 119.934 12.828 120.976 10.372 C 121.645 8.846 122.762 6.874 123.506 5.981 C 125.888 3.078 129.87 0.845 133.999 0.138 C 136.159 -0.234 140.81 0.585 143.266 1.777 C 146.913 3.6 148.029 5.608 146.243 7.282 C 145.09 8.362 143.862 8.326 141.443 7.06 C 139.693 6.166 139.061 6.055 135.935 6.055 C 132.437 6.055 132.363 6.055 130.168 7.544 C 125.775 10.484 124.139 16.288 126.409 20.903 C 128.678 25.554 133.033 27.824 138.541 27.266 C 140.661 27.043 141.107 26.857 142.335 25.591 C 143.638 24.327 143.75 24.029 143.75 22.131 L 143.75 20.084 L 139.843 19.935 C 136.195 19.824 135.899 19.749 134.968 18.819 C 134.037 17.926 133.999 17.74 134.447 16.697 C 134.67 16.066 135.192 15.47 135.526 15.396 C 136.493 15.098 146.466 14.987 147.285 15.283 C 148.811 15.805 149.332 17.405 149.332 21.572 C 149.332 24.921 149.221 25.702 148.476 27.116 C 145.907 31.992 136.829 34.485 130.427 32.103 Z" style="fill: rgb(255, 255, 255);"/>
  <path d="M 179.101 31.918 C 178.692 31.509 178.283 30.802 178.172 30.356 C 178.059 29.871 177.985 23.396 178.059 15.99 L 178.172 2.446 L 179.101 1.701 C 179.958 1.032 180.441 0.956 186.729 1.106 C 193.316 1.218 193.465 1.255 195.214 2.26 C 198.526 4.232 200.498 7.989 200.238 11.898 C 199.977 16.102 197.262 19.86 193.8 20.828 C 192.981 21.052 192.163 21.387 192.014 21.535 C 191.829 21.683 192.573 22.503 193.688 23.322 C 201.131 29.09 201.392 29.424 200.536 31.099 C 199.531 33.071 197.931 33.182 195.699 31.471 C 193.837 29.982 188.143 25.293 187.103 24.364 C 186.692 23.991 185.725 23.173 184.981 22.541 L 183.568 21.424 L 183.568 25.108 C 183.53 30.839 182.86 32.662 180.703 32.662 C 180.218 32.662 179.51 32.326 179.101 31.918 Z M 192.163 17.517 C 194.135 16.362 195.251 14.243 195.288 11.824 C 195.288 9.479 194.694 8.289 192.72 6.837 C 191.865 6.166 191.047 6.019 187.623 5.943 L 183.568 5.795 L 183.568 11.971 L 183.568 18.148 L 187.325 18.148 C 190.228 18.148 191.344 18 192.163 17.517 Z" style="fill: rgb(255, 255, 255);"/>
  <path d="M 1.078 31.843 L 0.148 30.986 L 0.036 17.182 C -0.075 1.777 -0.075 1.701 2.305 1.032 C 4.315 0.473 17.935 0.995 19.014 1.701 C 20.204 2.483 20.093 4.12 18.829 5.125 C 17.824 5.906 17.489 5.943 11.648 5.832 L 5.506 5.683 L 5.395 10.074 L 5.283 14.427 L 9.488 14.465 C 14.995 14.539 16 14.615 16.67 15.172 C 17.452 15.842 17.378 17.182 16.447 18 C 15.778 18.633 15.033 18.707 10.567 18.745 L 5.506 18.781 L 5.32 24.847 L 5.135 30.876 L 4.091 31.768 C 2.79 32.885 2.268 32.885 1.078 31.843 Z" style="fill: rgb(255, 255, 255);"/>
  <path d="M 156.067 32.29 C 153.611 31.731 153.722 32.326 153.759 17.069 C 153.798 9.441 153.983 2.818 154.169 2.334 C 154.802 0.697 155.583 0.585 164.217 0.697 C 171.547 0.845 172.403 0.92 173.109 1.552 C 174.227 2.557 174.115 4.157 172.925 5.087 C 171.994 5.795 171.436 5.869 165.631 5.869 L 159.342 5.869 L 159.453 10.037 L 159.565 14.204 L 164.885 14.204 C 169.724 14.243 170.283 14.317 170.766 14.948 C 171.064 15.358 171.286 16.066 171.286 16.512 C 171.286 18.074 170.394 18.335 164.701 18.447 L 159.379 18.596 L 159.379 23.211 L 159.379 27.824 L 166.04 27.824 L 172.737 27.824 L 173.482 28.903 C 174.375 30.169 174.077 31.583 172.813 32.29 C 171.956 32.736 158.114 32.736 156.067 32.29 Z" style="fill: rgb(255, 255, 255);"/>
</svg>