<?xml version="1.0" encoding="utf-8"?>
<svg version="1.1" id="svg1354" x="0px" y="0px" enable-background="new 0 -26.707 566.93 300" xmlns="http://www.w3.org/2000/svg">
  <g transform="matrix(0.387959, 0, 0, 0.387959, 0, 0)">
    <path d="M355.764,28.076c0,15.479,13.033,28.043,29.076,28.043c16.676,0,29.77-12.304,29.77-28.043&#10;&#9;&#9;C414.609,12.333,401.516,0,384.84,0C368.797,0,355.764,12.582,355.764,28.076" style="fill: rgb(255, 255, 255);"/>
    <rect x="360.59" y="84.227" width="49.639" height="160.606" style="fill: rgb(255, 255, 255);"/>
    <path d="M456.672,28.076c0,15.479,13.059,28.043,29.092,28.043c16.686,0,29.754-12.304,29.754-28.043&#10;&#9;&#9;C515.518,12.333,502.449,0,485.764,0C469.73,0,456.672,12.582,456.672,28.076" style="fill: rgb(255, 255, 255);"/>
    <rect x="461.482" y="84.227" width="49.652" height="160.606" style="fill: rgb(255, 255, 255);"/>
    <path d="M281.654,13.507l-43.528,170.654c0,0-33.281-128.097-38.695-146.266&#10;&#9;&#9;c-5.414-18.199-16.558-26.172-32.36-26.172c-15.809,0-26.971,7.973-32.384,26.172c-5.394,18.169-38.683,146.266-38.683,146.266&#10;&#9;&#9;L52.447,13.507H0c0,0,50.371,182.08,57.219,203.164c5.327,16.459,17.944,29.916,36.648,29.916&#10;&#9;&#9;c21.384,0,31.385-15.592,36.016-29.916c4.582-14.24,37.188-134.498,37.188-134.498s32.604,120.258,37.175,134.498&#10;&#9;&#9;c4.629,14.324,14.63,29.916,36.009,29.916c18.719,0,31.313-13.457,36.673-29.916c6.831-21.084,57.17-203.164,57.17-203.164H281.654&#10;&#9;&#9;z" style="fill: rgb(255, 255, 255);"/>
  </g>
</svg>