<?xml version="1.0" encoding="utf-8"?>
<svg version="1.0" id="Layer_1" xmlns="http://www.w3.org/2000/svg">
  <g transform="matrix(0.232239, 0, 0, 0.232239, 5.754278, -0.000005)" id="g3">
    <g transform="matrix(1.0764758,0,0,1.0764758,-33.966802,186.51281)" id="g7">
      <defs id="defs9">
        <path d="m 784.093,8.888 0,3.646 c -4.066,-1.018 -5.693,5.193 -3.959,18.46 l 4.915,37.646 4.447,-37.197 c 0.5,-4.226 0.722,-7.488 0.881,-9.299 0.507,-5.779 -0.778,-8.987 -3.833,-9.61 l 0,-3.646 19.27,0 0,3.958 c -3.259,0.205 -4.551,1.664 -4.902,4.269 l -11.058,82.076 0,45.184 c -0.21,5.074 1.331,7.837 4.59,8.225 l 0,3.981 -22.005,0 0,-4.288 c 2.838,-0.182 4.271,-2.844 4.271,-7.918 l 0,-50.678 -7.991,-67.345 c -0.921,-7.767 -4.135,-13.017 -6.916,-14.105 l -0.318,-3.358 22.608,0 0,-10e-4 z m -82.83,95.206 16.5,-8.543 c -2.03,31.737 -1.484,48.403 1.672,50.041 3.157,1.626 4.954,0.818 5.347,-2.435 1.848,-12.218 1.848,-24.514 0,-36.936 C 724.179,99.918 722.957,95.449 721.13,92.786 709.71,75.105 703.192,61.879 701.576,53.125 L 701.263,22.92 c 2.241,-10.596 8.344,-15.883 18.325,-15.883 11.217,0.206 17.109,7.34 17.734,21.378 l 0.91,19.531 -15.276,9.764 c 0.204,-12.212 0.204,-23.619 0,-34.189 0,-5.079 -1.178,-7.681 -3.521,-7.789 -2.35,-0.102 -3.492,2.295 -3.492,7.189 l 0.284,30.521 c 10.402,16.665 17.416,29.47 21.096,38.435 3.646,8.964 4.977,21.772 3.959,38.46 -1.012,18.519 -7.639,27.653 -19.867,27.449 -11.808,-0.604 -18.514,-8.748 -20.151,-24.479 l 0,-29.213 -10e-4,0 z m -46.389,53.089 0,-2.138 c 2.45,-2.446 3.259,-11.194 2.45,-26.244 l -7.638,0 c -1.229,15.05 -0.522,23.798 2.138,26.244 l 0,2.138 -19.872,0 0,-2.138 c 1.644,-0.206 3.003,-0.854 4.124,-1.969 1.12,-1.126 4.532,-49.893 10.243,-146.324 l 15.88,0 c 7.537,96.432 11.711,145.198 12.541,146.324 0.809,1.115 2.037,1.763 3.652,1.969 l 0,2.138 -23.518,0 0,0 z m -4.75,-41.508 5.973,0 -3.049,-49.422 -2.924,49.422 0,0 z M 566.328,5.813 l 42.76,0 0,54.033 -5.188,0 C 602.876,38.079 600.038,25.16 595.346,21.073 l 0,125.121 c 0,4.903 2.241,7.951 6.729,9.169 l 0,2.138 -28.422,0 0,-2.138 c 4.874,-1.218 7.115,-4.38 6.723,-9.477 l 0,-124.812 c -5.107,3.879 -8.372,16.796 -9.776,38.773 l -4.271,0 0,-54.034 -10e-4,0 z m -66.546,11.302 c 0.597,-3.671 -1.041,-5.884 -4.903,-6.717 l 0,-3.959 21.692,0 11.922,85.13 0,-75.677 c 0,-3.045 -1.229,-4.766 -3.68,-5.181 l 0,-4.272 18.645,0 0,3.958 c -2.634,0.623 -3.862,4.897 -3.652,12.812 l 0,133.667 -14.367,0 -14.681,-95.804 0,85.748 c -0.603,4.459 0.939,6.585 4.591,6.403 l 0,3.652 -20.782,0 0.313,-3.368 c 3.469,-0.386 5.085,-2.729 4.903,-6.995 l 0,-129.397 -0.001,0 z m -51.602,140.068 0,-2.138 c 2.452,-2.446 3.256,-11.194 2.452,-26.244 l -7.639,0 c -1.226,15.05 -0.523,23.798 2.135,26.244 l 0,2.138 -19.867,0 0,-2.138 c 1.641,-0.206 2.998,-0.854 4.118,-1.969 1.121,-1.126 4.539,-49.893 10.247,-146.324 l 15.88,0 c 7.536,96.432 11.711,145.198 12.541,146.324 0.811,1.115 2.036,1.763 3.651,1.969 l 0,2.138 -23.518,0 0,0 z m -4.743,-41.508 5.969,0 -3.055,-49.422 -2.914,49.422 0,0 z M 361.144,15.58 c 0,-3.253 -1.826,-4.869 -5.5,-4.869 l 0,-3.959 46.747,0 0,50.049 -4.274,0 c -1.433,-15.886 -3.677,-26.718 -6.725,-32.522 -3.055,-5.784 -7.645,-8.776 -13.745,-8.984 l 0,51.87 c 5.503,1.822 8.344,-5.805 8.555,-22.891 l 4.277,0.315 0,62.553 -4.277,0 c 0,-16.482 -2.844,-25.343 -8.555,-26.538 l 0,64.988 c 0,5.892 1.411,8.133 4.278,6.7 l 0.313,4.584 -25.683,0 -0.313,-4.584 c 3.467,1.216 5.11,-0.91 4.903,-6.405 l 0,-130.307 -10e-4,0 z m -95.505,3.671 c -0.21,-5.284 -2.241,-8.02 -6.103,-8.23 l 0,-4.582 27.795,0 0,4.271 c -4.066,0.415 -6.1,3.256 -6.1,8.54 l 0.077,128.32 c 7.693,-0.512 13.662,-17.859 17.942,-52.02 l 3.987,0 0,61.632 -44.015,0 0,-4.266 c 4.07,-0.421 6.206,-2.832 6.416,-7.325 l 0,-126.34 0.001,0 z m -51.809,137.932 0,-2.138 c 2.452,-2.446 3.262,-11.194 2.452,-26.244 l -7.639,0 c -1.229,15.05 -0.523,23.798 2.138,26.244 l 0,2.138 -19.87,0 0,-2.138 c 1.641,-0.206 3,-0.854 4.118,-1.969 1.124,-1.126 4.536,-49.893 10.249,-146.324 l 15.88,0 c 7.534,96.432 11.706,145.198 12.542,146.324 0.808,1.115 2.036,1.763 3.652,1.969 l 0,2.138 -23.522,0 0,0 z m -4.744,-41.508 5.97,0 -3.052,-49.422 -2.918,49.422 0,0 z M 125.36,17.115 c 0.6,-3.671 -1.044,-5.884 -4.903,-6.717 l 0,-3.959 21.696,0 11.916,85.13 0,-75.677 c 0,-3.045 -1.226,-4.766 -3.677,-5.181 l 0,-4.272 18.645,0 0,3.958 c -2.633,0.623 -3.859,4.897 -3.651,12.812 l 0,133.667 -14.367,0 -14.677,-95.804 0,85.748 c -0.603,4.459 0.938,6.585 4.587,6.403 l 0,3.652 -20.78,0 0.31,-3.368 c 3.47,-0.386 5.085,-2.729 4.903,-6.995 l 0,-129.397 -0.002,0 z m -50.919,-6.404 0,-4.272 23.516,0 -0.284,4.271 c -2.867,0.415 -4.278,2.445 -4.278,6.092 l 0,127.572 c 0.08,5.995 1.721,8.85 4.875,8.543 l 0,4.266 -23.829,0 0,-4.266 c 2.841,0.421 4.274,-2.446 4.274,-8.543 l 0,-127.571 c 10e-4,-3.647 -1.433,-5.677 -4.274,-6.092 l 0,0 z M 11.316,15.58 c 0,-3.253 -1.829,-4.869 -5.503,-4.869 l 0,-3.959 46.75,0 0,50.049 -4.278,0 C 46.852,40.915 44.608,30.083 41.559,24.279 38.508,18.495 33.918,15.503 27.818,15.295 l 0,51.87 c 5.502,1.822 8.344,-5.805 8.554,-22.891 l 4.277,0.315 0,62.553 -4.277,0 c 0,-16.482 -2.841,-25.343 -8.554,-26.538 l 0,64.988 c 0,5.892 1.41,8.133 4.277,6.7 l 0.313,4.584 -25.681,0 -0.313,-4.584 c 3.467,1.216 5.108,-0.91 4.903,-6.405 l 0,-130.307 -10e-4,0 z" id="XMLID_1_"/>
      </defs>
    </g>
  </g>
  <path d="M 194.571 0.769 L 194.571 1.681 C 193.554 1.426 193.147 2.978 193.58 6.295 L 194.809 15.707 L 195.921 6.408 C 196.045 5.351 196.101 4.535 196.141 4.083 C 196.268 2.638 195.947 1.836 195.183 1.681 L 195.183 0.769 L 200 0.769 L 200 1.758 C 199.186 1.81 198.863 2.175 198.775 2.826 L 196.01 23.344 L 196.01 34.64 C 195.957 35.909 196.343 36.6 197.157 36.697 L 197.157 37.692 L 191.656 37.692 L 191.656 36.62 C 192.365 36.574 192.724 35.909 192.724 34.64 L 192.724 21.971 L 190.727 5.134 C 190.495 3.193 189.692 1.881 188.997 1.609 L 188.918 0.769 L 194.571 0.769 L 194.571 0.769 Z M 173.863 24.57 L 177.987 22.435 C 177.479 30.369 177.617 34.536 178.406 34.945 C 179.194 35.351 179.643 35.149 179.742 34.336 C 180.204 31.281 180.204 28.207 179.742 25.101 C 179.592 23.526 179.287 22.409 178.83 21.743 C 175.974 17.323 174.345 14.016 173.941 11.828 L 173.863 4.276 C 174.422 1.628 175.949 0.306 178.443 0.306 C 181.248 0.357 182.721 2.141 182.877 5.65 L 183.105 10.533 L 179.286 12.975 C 179.337 9.921 179.337 7.07 179.286 4.426 C 179.286 3.157 178.991 2.506 178.406 2.48 C 177.818 2.454 177.533 3.052 177.533 4.276 L 177.604 11.907 C 180.204 16.073 181.958 19.275 182.877 21.517 C 183.788 23.757 184.122 26.959 183.868 31.131 C 183.614 35.761 181.958 38.044 178.9 37.993 C 175.949 37.842 174.271 35.806 173.863 31.873 L 173.863 24.57 L 173.863 24.57 Z M 162.265 37.842 L 162.265 37.309 C 162.878 36.697 163.08 34.51 162.878 30.747 L 160.969 30.747 C 160.661 34.51 160.838 36.697 161.502 37.309 L 161.502 37.842 L 156.535 37.842 L 156.535 37.309 C 156.945 37.257 157.286 37.094 157.566 36.816 C 157.847 36.534 158.699 24.343 160.126 0.234 L 164.097 0.234 C 165.981 24.344 167.025 36.534 167.231 36.816 C 167.433 37.094 167.74 37.257 168.144 37.309 L 168.144 37.842 L 162.265 37.842 L 162.265 37.842 Z M 161.077 27.466 L 162.571 27.466 L 161.808 15.11 L 161.077 27.466 L 161.077 27.466 Z M 140.129 0 L 150.819 0 L 150.819 13.508 L 149.521 13.508 C 149.266 8.067 148.557 4.837 147.383 3.814 L 147.383 35.095 C 147.383 36.321 147.944 37.084 149.066 37.387 L 149.066 37.922 L 141.959 37.922 L 141.959 37.387 C 143.178 37.084 143.739 36.292 143.64 35.018 L 143.64 3.815 C 142.364 4.785 141.548 8.014 141.197 13.508 L 140.129 13.508 L 140.129 0 L 140.129 0 Z M 123.492 2.826 C 123.641 1.908 123.232 1.354 122.267 1.146 L 122.267 0.156 L 127.69 0.156 L 130.67 21.439 L 130.67 2.52 C 130.67 1.758 130.362 1.329 129.75 1.225 L 129.75 0.156 L 134.411 0.156 L 134.411 1.145 C 133.753 1.302 133.446 2.37 133.498 4.35 L 133.498 37.766 L 129.906 37.766 L 126.236 13.815 L 126.236 35.252 C 126.085 36.367 126.47 36.898 127.384 36.853 L 127.384 37.766 L 122.188 37.766 L 122.267 36.923 C 123.134 36.827 123.538 36.242 123.492 35.175 L 123.492 2.826 L 123.492 2.826 Z M 110.592 37.842 L 110.592 37.309 C 111.205 36.697 111.406 34.51 111.205 30.747 L 109.295 30.747 C 108.988 34.51 109.164 36.697 109.829 37.309 L 109.829 37.842 L 104.863 37.842 L 104.863 37.309 C 105.273 37.257 105.611 37.094 105.891 36.816 C 106.172 36.534 107.027 24.343 108.453 0.234 L 112.423 0.234 C 114.306 24.344 115.351 36.534 115.559 36.816 C 115.762 37.094 116.068 37.257 116.471 37.309 L 116.471 37.842 L 110.592 37.842 L 110.592 37.842 Z M 109.407 27.466 L 110.898 27.466 L 110.135 15.11 L 109.407 27.466 L 109.407 27.466 Z M 88.832 2.443 C 88.832 1.628 88.376 1.225 87.459 1.225 L 87.459 0.234 L 99.145 0.234 L 99.145 12.746 L 98.076 12.746 C 97.718 8.776 97.157 6.068 96.394 4.617 C 95.631 3.17 94.483 2.423 92.959 2.37 L 92.959 15.337 C 94.334 15.793 95.044 13.887 95.097 9.615 L 96.167 9.694 L 96.167 25.332 L 95.097 25.332 C 95.097 21.213 94.385 18.996 92.959 18.697 L 92.959 34.945 C 92.959 36.418 93.312 36.978 94.028 36.619 L 94.107 37.766 L 87.685 37.766 L 87.607 36.619 C 88.474 36.924 88.884 36.393 88.832 35.018 L 88.832 2.443 L 88.832 2.443 Z M 64.956 3.36 C 64.904 2.039 64.397 1.354 63.431 1.302 L 63.431 0.156 L 70.379 0.156 L 70.379 1.225 C 69.363 1.328 68.855 2.039 68.855 3.358 L 68.874 35.44 C 70.797 35.311 72.29 30.974 73.359 22.434 L 74.356 22.434 L 74.356 37.842 L 63.352 37.842 L 63.352 36.775 C 64.369 36.67 64.904 36.067 64.956 34.944 L 64.956 3.36 L 64.956 3.36 Z M 52.004 37.842 L 52.004 37.309 C 52.617 36.697 52.82 34.51 52.617 30.747 L 50.707 30.747 C 50.4 34.51 50.577 36.697 51.242 37.309 L 51.242 37.842 L 46.275 37.842 L 46.275 37.309 C 46.686 37.257 47.024 37.094 47.303 36.816 C 47.585 36.534 48.437 24.343 49.867 0.234 L 53.836 0.234 C 55.72 24.344 56.763 36.534 56.972 36.816 C 57.174 37.094 57.481 37.257 57.885 37.309 L 57.885 37.842 L 52.004 37.842 L 52.004 37.842 Z M 50.819 27.466 L 52.311 27.466 L 51.548 15.11 L 50.819 27.466 L 50.819 27.466 Z M 29.887 2.826 C 30.037 1.908 29.626 1.354 28.661 1.146 L 28.661 0.156 L 34.085 0.156 L 37.064 21.439 L 37.064 2.52 C 37.064 1.758 36.757 1.329 36.145 1.225 L 36.145 0.156 L 40.806 0.156 L 40.806 1.145 C 40.147 1.302 39.841 2.37 39.892 4.35 L 39.892 37.766 L 36.302 37.766 L 32.632 13.815 L 32.632 35.252 C 32.481 36.367 32.867 36.898 33.779 36.853 L 33.779 37.766 L 28.583 37.766 L 28.662 36.923 C 29.53 36.827 29.933 36.242 29.888 35.175 L 29.888 2.826 L 29.887 2.826 Z M 17.157 1.225 L 17.157 0.156 L 23.036 0.156 L 22.965 1.225 C 22.248 1.328 21.896 1.836 21.896 2.747 L 21.896 34.64 C 21.915 36.139 22.326 36.853 23.114 36.775 L 23.114 37.842 L 17.157 37.842 L 17.157 36.775 C 17.867 36.881 18.226 36.164 18.226 34.64 L 18.226 2.749 C 18.226 1.836 17.867 1.329 17.157 1.225 L 17.157 1.225 Z M 1.376 2.443 C 1.376 1.628 0.919 1.225 0 1.225 L 0 0.234 L 11.687 0.234 L 11.687 12.746 L 10.618 12.746 C 10.26 8.776 9.699 6.068 8.936 4.617 C 8.174 3.17 7.026 2.423 5.502 2.37 L 5.502 15.337 C 6.877 15.793 7.588 13.887 7.64 9.615 L 8.708 9.694 L 8.708 25.332 L 7.64 25.332 C 7.64 21.213 6.93 18.996 5.502 18.697 L 5.502 34.945 C 5.502 36.418 5.853 36.978 6.57 36.619 L 6.649 37.766 L 0.228 37.766 L 0.15 36.619 C 1.017 36.924 1.427 36.393 1.376 35.018 L 1.376 2.443 L 1.376 2.443 Z" id="use2190" style="fill: rgb(255, 255, 255);"/>
</svg>