<?xml version="1.0" encoding="utf-8"?>
<svg version="1.0" id="Layer_1" xmlns="http://www.w3.org/2000/svg">
  <g transform="matrix(0.236842, 0, 0, 0.236842, 5.868328, -0.000005)" id="g3">
    <g transform="matrix(1.0764758,0,0,1.0764758,-33.966802,186.51281)" id="g7">
      <defs id="defs9">
        <path d="m 784.093,8.888 0,3.646 c -4.066,-1.018 -5.693,5.193 -3.959,18.46 l 4.915,37.646 4.447,-37.197 c 0.5,-4.226 0.722,-7.488 0.881,-9.299 0.507,-5.779 -0.778,-8.987 -3.833,-9.61 l 0,-3.646 19.27,0 0,3.958 c -3.259,0.205 -4.551,1.664 -4.902,4.269 l -11.058,82.076 0,45.184 c -0.21,5.074 1.331,7.837 4.59,8.225 l 0,3.981 -22.005,0 0,-4.288 c 2.838,-0.182 4.271,-2.844 4.271,-7.918 l 0,-50.678 -7.991,-67.345 c -0.921,-7.767 -4.135,-13.017 -6.916,-14.105 l -0.318,-3.358 22.608,0 0,-10e-4 z m -82.83,95.206 16.5,-8.543 c -2.03,31.737 -1.484,48.403 1.672,50.041 3.157,1.626 4.954,0.818 5.347,-2.435 1.848,-12.218 1.848,-24.514 0,-36.936 C 724.179,99.918 722.957,95.449 721.13,92.786 709.71,75.105 703.192,61.879 701.576,53.125 L 701.263,22.92 c 2.241,-10.596 8.344,-15.883 18.325,-15.883 11.217,0.206 17.109,7.34 17.734,21.378 l 0.91,19.531 -15.276,9.764 c 0.204,-12.212 0.204,-23.619 0,-34.189 0,-5.079 -1.178,-7.681 -3.521,-7.789 -2.35,-0.102 -3.492,2.295 -3.492,7.189 l 0.284,30.521 c 10.402,16.665 17.416,29.47 21.096,38.435 3.646,8.964 4.977,21.772 3.959,38.46 -1.012,18.519 -7.639,27.653 -19.867,27.449 -11.808,-0.604 -18.514,-8.748 -20.151,-24.479 l 0,-29.213 -10e-4,0 z m -46.389,53.089 0,-2.138 c 2.45,-2.446 3.259,-11.194 2.45,-26.244 l -7.638,0 c -1.229,15.05 -0.522,23.798 2.138,26.244 l 0,2.138 -19.872,0 0,-2.138 c 1.644,-0.206 3.003,-0.854 4.124,-1.969 1.12,-1.126 4.532,-49.893 10.243,-146.324 l 15.88,0 c 7.537,96.432 11.711,145.198 12.541,146.324 0.809,1.115 2.037,1.763 3.652,1.969 l 0,2.138 -23.518,0 0,0 z m -4.75,-41.508 5.973,0 -3.049,-49.422 -2.924,49.422 0,0 z M 566.328,5.813 l 42.76,0 0,54.033 -5.188,0 C 602.876,38.079 600.038,25.16 595.346,21.073 l 0,125.121 c 0,4.903 2.241,7.951 6.729,9.169 l 0,2.138 -28.422,0 0,-2.138 c 4.874,-1.218 7.115,-4.38 6.723,-9.477 l 0,-124.812 c -5.107,3.879 -8.372,16.796 -9.776,38.773 l -4.271,0 0,-54.034 -10e-4,0 z m -66.546,11.302 c 0.597,-3.671 -1.041,-5.884 -4.903,-6.717 l 0,-3.959 21.692,0 11.922,85.13 0,-75.677 c 0,-3.045 -1.229,-4.766 -3.68,-5.181 l 0,-4.272 18.645,0 0,3.958 c -2.634,0.623 -3.862,4.897 -3.652,12.812 l 0,133.667 -14.367,0 -14.681,-95.804 0,85.748 c -0.603,4.459 0.939,6.585 4.591,6.403 l 0,3.652 -20.782,0 0.313,-3.368 c 3.469,-0.386 5.085,-2.729 4.903,-6.995 l 0,-129.397 -0.001,0 z m -51.602,140.068 0,-2.138 c 2.452,-2.446 3.256,-11.194 2.452,-26.244 l -7.639,0 c -1.226,15.05 -0.523,23.798 2.135,26.244 l 0,2.138 -19.867,0 0,-2.138 c 1.641,-0.206 2.998,-0.854 4.118,-1.969 1.121,-1.126 4.539,-49.893 10.247,-146.324 l 15.88,0 c 7.536,96.432 11.711,145.198 12.541,146.324 0.811,1.115 2.036,1.763 3.651,1.969 l 0,2.138 -23.518,0 0,0 z m -4.743,-41.508 5.969,0 -3.055,-49.422 -2.914,49.422 0,0 z M 361.144,15.58 c 0,-3.253 -1.826,-4.869 -5.5,-4.869 l 0,-3.959 46.747,0 0,50.049 -4.274,0 c -1.433,-15.886 -3.677,-26.718 -6.725,-32.522 -3.055,-5.784 -7.645,-8.776 -13.745,-8.984 l 0,51.87 c 5.503,1.822 8.344,-5.805 8.555,-22.891 l 4.277,0.315 0,62.553 -4.277,0 c 0,-16.482 -2.844,-25.343 -8.555,-26.538 l 0,64.988 c 0,5.892 1.411,8.133 4.278,6.7 l 0.313,4.584 -25.683,0 -0.313,-4.584 c 3.467,1.216 5.11,-0.91 4.903,-6.405 l 0,-130.307 -10e-4,0 z m -95.505,3.671 c -0.21,-5.284 -2.241,-8.02 -6.103,-8.23 l 0,-4.582 27.795,0 0,4.271 c -4.066,0.415 -6.1,3.256 -6.1,8.54 l 0.077,128.32 c 7.693,-0.512 13.662,-17.859 17.942,-52.02 l 3.987,0 0,61.632 -44.015,0 0,-4.266 c 4.07,-0.421 6.206,-2.832 6.416,-7.325 l 0,-126.34 0.001,0 z m -51.809,137.932 0,-2.138 c 2.452,-2.446 3.262,-11.194 2.452,-26.244 l -7.639,0 c -1.229,15.05 -0.523,23.798 2.138,26.244 l 0,2.138 -19.87,0 0,-2.138 c 1.641,-0.206 3,-0.854 4.118,-1.969 1.124,-1.126 4.536,-49.893 10.249,-146.324 l 15.88,0 c 7.534,96.432 11.706,145.198 12.542,146.324 0.808,1.115 2.036,1.763 3.652,1.969 l 0,2.138 -23.522,0 0,0 z m -4.744,-41.508 5.97,0 -3.052,-49.422 -2.918,49.422 0,0 z M 125.36,17.115 c 0.6,-3.671 -1.044,-5.884 -4.903,-6.717 l 0,-3.959 21.696,0 11.916,85.13 0,-75.677 c 0,-3.045 -1.226,-4.766 -3.677,-5.181 l 0,-4.272 18.645,0 0,3.958 c -2.633,0.623 -3.859,4.897 -3.651,12.812 l 0,133.667 -14.367,0 -14.677,-95.804 0,85.748 c -0.603,4.459 0.938,6.585 4.587,6.403 l 0,3.652 -20.78,0 0.31,-3.368 c 3.47,-0.386 5.085,-2.729 4.903,-6.995 l 0,-129.397 -0.002,0 z m -50.919,-6.404 0,-4.272 23.516,0 -0.284,4.271 c -2.867,0.415 -4.278,2.445 -4.278,6.092 l 0,127.572 c 0.08,5.995 1.721,8.85 4.875,8.543 l 0,4.266 -23.829,0 0,-4.266 c 2.841,0.421 4.274,-2.446 4.274,-8.543 l 0,-127.571 c 10e-4,-3.647 -1.433,-5.677 -4.274,-6.092 l 0,0 z M 11.316,15.58 c 0,-3.253 -1.829,-4.869 -5.503,-4.869 l 0,-3.959 46.75,0 0,50.049 -4.278,0 C 46.852,40.915 44.608,30.083 41.559,24.279 38.508,18.495 33.918,15.503 27.818,15.295 l 0,51.87 c 5.502,1.822 8.344,-5.805 8.554,-22.891 l 4.277,0.315 0,62.553 -4.277,0 c 0,-16.482 -2.841,-25.343 -8.554,-26.538 l 0,64.988 c 0,5.892 1.41,8.133 4.277,6.7 l 0.313,4.584 -25.681,0 -0.313,-4.584 c 3.467,1.216 5.108,-0.91 4.903,-6.405 l 0,-130.307 -10e-4,0 z" id="XMLID_1_"/>
      </defs>
    </g>
  </g>
  <path d="M 198.427 0.784 L 198.427 1.714 C 197.39 1.454 196.975 3.037 197.417 6.42 L 198.67 16.018 L 199.804 6.535 C 199.931 5.457 199.988 4.625 200.028 4.164 C 200.158 2.69 199.831 1.872 199.052 1.714 L 199.052 0.784 L 203.964 0.784 L 203.964 1.793 C 203.134 1.846 202.804 2.218 202.715 2.882 L 199.895 23.807 L 199.895 35.327 C 199.841 36.621 200.234 37.325 201.065 37.424 L 201.065 38.439 L 195.455 38.439 L 195.455 37.346 C 196.178 37.299 196.544 36.621 196.544 35.327 L 196.544 22.406 L 194.507 5.236 C 194.271 3.256 193.452 1.918 192.743 1.641 L 192.662 0.784 L 198.427 0.784 L 198.427 0.784 Z M 177.309 25.057 L 181.515 22.88 C 180.997 30.971 181.137 35.22 181.942 35.638 C 182.746 36.052 183.204 35.846 183.304 35.017 C 183.776 31.901 183.776 28.766 183.304 25.599 C 183.151 23.992 182.84 22.853 182.374 22.174 C 179.462 17.666 177.801 14.294 177.388 12.062 L 177.309 4.361 C 177.879 1.66 179.436 0.312 181.98 0.312 C 184.84 0.364 186.343 2.183 186.502 5.762 L 186.734 10.742 L 182.839 13.232 C 182.891 10.118 182.891 7.21 182.839 4.514 C 182.839 3.22 182.539 2.556 181.942 2.529 C 181.342 2.503 181.052 3.113 181.052 4.361 L 181.124 12.143 C 183.776 16.392 185.564 19.657 186.502 21.943 C 187.431 24.228 187.771 27.493 187.512 31.748 C 187.253 36.47 185.564 38.798 182.446 38.746 C 179.436 38.592 177.725 36.516 177.309 32.505 L 177.309 25.057 L 177.309 25.057 Z M 165.481 38.592 L 165.481 38.048 C 166.106 37.424 166.312 35.194 166.106 31.356 L 164.159 31.356 C 163.845 35.194 164.026 37.424 164.703 38.048 L 164.703 38.592 L 159.637 38.592 L 159.637 38.048 C 160.056 37.995 160.403 37.829 160.689 37.546 C 160.975 37.258 161.844 24.825 163.3 0.239 L 167.349 0.239 C 169.271 24.826 170.335 37.258 170.546 37.546 C 170.752 37.829 171.065 37.995 171.477 38.048 L 171.477 38.592 L 165.481 38.592 L 165.481 38.592 Z M 164.27 28.01 L 165.793 28.01 L 165.015 15.409 L 164.27 28.01 L 164.27 28.01 Z M 142.906 0 L 153.808 0 L 153.808 13.776 L 152.485 13.776 C 152.224 8.227 151.501 4.933 150.304 3.89 L 150.304 35.791 C 150.304 37.041 150.876 37.819 152.02 38.128 L 152.02 38.674 L 144.773 38.674 L 144.773 38.128 C 146.016 37.819 146.588 37.011 146.487 35.712 L 146.487 3.891 C 145.186 4.88 144.353 8.173 143.996 13.776 L 142.906 13.776 L 142.906 0 L 142.906 0 Z M 125.94 2.882 C 126.092 1.946 125.674 1.381 124.69 1.169 L 124.69 0.159 L 130.221 0.159 L 133.26 21.864 L 133.26 2.57 C 133.26 1.793 132.946 1.355 132.322 1.249 L 132.322 0.159 L 137.075 0.159 L 137.075 1.168 C 136.404 1.328 136.091 2.417 136.144 4.436 L 136.144 38.515 L 132.481 38.515 L 128.738 14.089 L 128.738 35.951 C 128.584 37.088 128.977 37.629 129.909 37.583 L 129.909 38.515 L 124.61 38.515 L 124.69 37.655 C 125.575 37.557 125.987 36.96 125.94 35.872 L 125.94 2.882 L 125.94 2.882 Z M 112.784 38.592 L 112.784 38.048 C 113.409 37.424 113.614 35.194 113.409 31.356 L 111.461 31.356 C 111.148 35.194 111.328 37.424 112.006 38.048 L 112.006 38.592 L 106.941 38.592 L 106.941 38.048 C 107.359 37.995 107.704 37.829 107.99 37.546 C 108.276 37.258 109.148 24.825 110.603 0.239 L 114.651 0.239 C 116.572 24.826 117.637 37.258 117.849 37.546 C 118.056 37.829 118.368 37.995 118.779 38.048 L 118.779 38.592 L 112.784 38.592 L 112.784 38.592 Z M 111.575 28.01 L 113.096 28.01 L 112.318 15.409 L 111.575 28.01 L 111.575 28.01 Z M 90.593 2.491 C 90.593 1.66 90.128 1.249 89.192 1.249 L 89.192 0.239 L 101.11 0.239 L 101.11 12.999 L 100.02 12.999 C 99.655 8.95 99.083 6.188 98.305 4.708 C 97.526 3.233 96.356 2.471 94.801 2.417 L 94.801 15.641 C 96.204 16.106 96.928 14.162 96.982 9.806 L 98.073 9.886 L 98.073 25.834 L 96.982 25.834 C 96.982 21.633 96.256 19.373 94.801 19.068 L 94.801 35.638 C 94.801 37.14 95.161 37.711 95.892 37.345 L 95.972 38.515 L 89.423 38.515 L 89.343 37.345 C 90.228 37.656 90.646 37.114 90.593 35.712 L 90.593 2.491 L 90.593 2.491 Z M 66.243 3.427 C 66.19 2.079 65.673 1.381 64.688 1.328 L 64.688 0.159 L 71.774 0.159 L 71.774 1.249 C 70.738 1.354 70.22 2.079 70.22 3.425 L 70.239 36.142 C 72.2 36.011 73.723 31.588 74.813 22.879 L 75.83 22.879 L 75.83 38.592 L 64.608 38.592 L 64.608 37.504 C 65.645 37.397 66.19 36.782 66.243 35.637 L 66.243 3.427 L 66.243 3.427 Z M 53.035 38.592 L 53.035 38.048 C 53.66 37.424 53.867 35.194 53.66 31.356 L 51.712 31.356 C 51.399 35.194 51.579 37.424 52.258 38.048 L 52.258 38.592 L 47.192 38.592 L 47.192 38.048 C 47.611 37.995 47.956 37.829 48.241 37.546 C 48.528 37.258 49.397 24.825 50.855 0.239 L 54.903 0.239 C 56.824 24.826 57.888 37.258 58.101 37.546 C 58.307 37.829 58.62 37.995 59.032 38.048 L 59.032 38.592 L 53.035 38.592 L 53.035 38.592 Z M 51.826 28.01 L 53.348 28.01 L 52.57 15.409 L 51.826 28.01 L 51.826 28.01 Z M 30.479 2.882 C 30.632 1.946 30.213 1.381 29.229 1.169 L 29.229 0.159 L 34.761 0.159 L 37.799 21.864 L 37.799 2.57 C 37.799 1.793 37.486 1.355 36.861 1.249 L 36.861 0.159 L 41.615 0.159 L 41.615 1.168 C 40.943 1.328 40.631 2.417 40.683 4.436 L 40.683 38.515 L 37.021 38.515 L 33.279 14.089 L 33.279 35.951 C 33.125 37.088 33.518 37.629 34.449 37.583 L 34.449 38.515 L 29.15 38.515 L 29.23 37.655 C 30.115 37.557 30.526 36.96 30.48 35.872 L 30.48 2.882 L 30.479 2.882 Z M 17.497 1.249 L 17.497 0.159 L 23.493 0.159 L 23.42 1.249 C 22.689 1.354 22.33 1.872 22.33 2.801 L 22.33 35.327 C 22.349 36.855 22.768 37.583 23.572 37.504 L 23.572 38.592 L 17.497 38.592 L 17.497 37.504 C 18.221 37.612 18.587 36.881 18.587 35.327 L 18.587 2.803 C 18.587 1.872 18.221 1.355 17.497 1.249 L 17.497 1.249 Z M 1.403 2.491 C 1.403 1.66 0.937 1.249 0 1.249 L 0 0.239 L 11.919 0.239 L 11.919 12.999 L 10.828 12.999 C 10.463 8.95 9.891 6.188 9.113 4.708 C 8.336 3.233 7.165 2.471 5.611 2.417 L 5.611 15.641 C 7.013 16.106 7.738 14.162 7.791 9.806 L 8.881 9.886 L 8.881 25.834 L 7.791 25.834 C 7.791 21.633 7.067 19.373 5.611 19.068 L 5.611 35.638 C 5.611 37.14 5.969 37.711 6.7 37.345 L 6.781 38.515 L 0.233 38.515 L 0.153 37.345 C 1.037 37.656 1.455 37.114 1.403 35.712 L 1.403 2.491 L 1.403 2.491 Z" id="use2190" style="fill: rgb(255, 255, 255);"/>
</svg>