<?xml version="1.0" encoding="utf-8"?>
<svg version="1.0" id="Layer_1" xmlns="http://www.w3.org/2000/svg">
  <g transform="matrix(1, 0, 0, 1, 24.777378, -0.000005)" id="g3">
    <g transform="matrix(1.0764758,0,0,1.0764758,-33.966802,186.51281)" id="g7">
      <defs id="defs9">
        <path d="m 784.093,8.888 0,3.646 c -4.066,-1.018 -5.693,5.193 -3.959,18.46 l 4.915,37.646 4.447,-37.197 c 0.5,-4.226 0.722,-7.488 0.881,-9.299 0.507,-5.779 -0.778,-8.987 -3.833,-9.61 l 0,-3.646 19.27,0 0,3.958 c -3.259,0.205 -4.551,1.664 -4.902,4.269 l -11.058,82.076 0,45.184 c -0.21,5.074 1.331,7.837 4.59,8.225 l 0,3.981 -22.005,0 0,-4.288 c 2.838,-0.182 4.271,-2.844 4.271,-7.918 l 0,-50.678 -7.991,-67.345 c -0.921,-7.767 -4.135,-13.017 -6.916,-14.105 l -0.318,-3.358 22.608,0 0,-10e-4 z m -82.83,95.206 16.5,-8.543 c -2.03,31.737 -1.484,48.403 1.672,50.041 3.157,1.626 4.954,0.818 5.347,-2.435 1.848,-12.218 1.848,-24.514 0,-36.936 C 724.179,99.918 722.957,95.449 721.13,92.786 709.71,75.105 703.192,61.879 701.576,53.125 L 701.263,22.92 c 2.241,-10.596 8.344,-15.883 18.325,-15.883 11.217,0.206 17.109,7.34 17.734,21.378 l 0.91,19.531 -15.276,9.764 c 0.204,-12.212 0.204,-23.619 0,-34.189 0,-5.079 -1.178,-7.681 -3.521,-7.789 -2.35,-0.102 -3.492,2.295 -3.492,7.189 l 0.284,30.521 c 10.402,16.665 17.416,29.47 21.096,38.435 3.646,8.964 4.977,21.772 3.959,38.46 -1.012,18.519 -7.639,27.653 -19.867,27.449 -11.808,-0.604 -18.514,-8.748 -20.151,-24.479 l 0,-29.213 -10e-4,0 z m -46.389,53.089 0,-2.138 c 2.45,-2.446 3.259,-11.194 2.45,-26.244 l -7.638,0 c -1.229,15.05 -0.522,23.798 2.138,26.244 l 0,2.138 -19.872,0 0,-2.138 c 1.644,-0.206 3.003,-0.854 4.124,-1.969 1.12,-1.126 4.532,-49.893 10.243,-146.324 l 15.88,0 c 7.537,96.432 11.711,145.198 12.541,146.324 0.809,1.115 2.037,1.763 3.652,1.969 l 0,2.138 -23.518,0 0,0 z m -4.75,-41.508 5.973,0 -3.049,-49.422 -2.924,49.422 0,0 z M 566.328,5.813 l 42.76,0 0,54.033 -5.188,0 C 602.876,38.079 600.038,25.16 595.346,21.073 l 0,125.121 c 0,4.903 2.241,7.951 6.729,9.169 l 0,2.138 -28.422,0 0,-2.138 c 4.874,-1.218 7.115,-4.38 6.723,-9.477 l 0,-124.812 c -5.107,3.879 -8.372,16.796 -9.776,38.773 l -4.271,0 0,-54.034 -10e-4,0 z m -66.546,11.302 c 0.597,-3.671 -1.041,-5.884 -4.903,-6.717 l 0,-3.959 21.692,0 11.922,85.13 0,-75.677 c 0,-3.045 -1.229,-4.766 -3.68,-5.181 l 0,-4.272 18.645,0 0,3.958 c -2.634,0.623 -3.862,4.897 -3.652,12.812 l 0,133.667 -14.367,0 -14.681,-95.804 0,85.748 c -0.603,4.459 0.939,6.585 4.591,6.403 l 0,3.652 -20.782,0 0.313,-3.368 c 3.469,-0.386 5.085,-2.729 4.903,-6.995 l 0,-129.397 -0.001,0 z m -51.602,140.068 0,-2.138 c 2.452,-2.446 3.256,-11.194 2.452,-26.244 l -7.639,0 c -1.226,15.05 -0.523,23.798 2.135,26.244 l 0,2.138 -19.867,0 0,-2.138 c 1.641,-0.206 2.998,-0.854 4.118,-1.969 1.121,-1.126 4.539,-49.893 10.247,-146.324 l 15.88,0 c 7.536,96.432 11.711,145.198 12.541,146.324 0.811,1.115 2.036,1.763 3.651,1.969 l 0,2.138 -23.518,0 0,0 z m -4.743,-41.508 5.969,0 -3.055,-49.422 -2.914,49.422 0,0 z M 361.144,15.58 c 0,-3.253 -1.826,-4.869 -5.5,-4.869 l 0,-3.959 46.747,0 0,50.049 -4.274,0 c -1.433,-15.886 -3.677,-26.718 -6.725,-32.522 -3.055,-5.784 -7.645,-8.776 -13.745,-8.984 l 0,51.87 c 5.503,1.822 8.344,-5.805 8.555,-22.891 l 4.277,0.315 0,62.553 -4.277,0 c 0,-16.482 -2.844,-25.343 -8.555,-26.538 l 0,64.988 c 0,5.892 1.411,8.133 4.278,6.7 l 0.313,4.584 -25.683,0 -0.313,-4.584 c 3.467,1.216 5.11,-0.91 4.903,-6.405 l 0,-130.307 -10e-4,0 z m -95.505,3.671 c -0.21,-5.284 -2.241,-8.02 -6.103,-8.23 l 0,-4.582 27.795,0 0,4.271 c -4.066,0.415 -6.1,3.256 -6.1,8.54 l 0.077,128.32 c 7.693,-0.512 13.662,-17.859 17.942,-52.02 l 3.987,0 0,61.632 -44.015,0 0,-4.266 c 4.07,-0.421 6.206,-2.832 6.416,-7.325 l 0,-126.34 0.001,0 z m -51.809,137.932 0,-2.138 c 2.452,-2.446 3.262,-11.194 2.452,-26.244 l -7.639,0 c -1.229,15.05 -0.523,23.798 2.138,26.244 l 0,2.138 -19.87,0 0,-2.138 c 1.641,-0.206 3,-0.854 4.118,-1.969 1.124,-1.126 4.536,-49.893 10.249,-146.324 l 15.88,0 c 7.534,96.432 11.706,145.198 12.542,146.324 0.808,1.115 2.036,1.763 3.652,1.969 l 0,2.138 -23.522,0 0,0 z m -4.744,-41.508 5.97,0 -3.052,-49.422 -2.918,49.422 0,0 z M 125.36,17.115 c 0.6,-3.671 -1.044,-5.884 -4.903,-6.717 l 0,-3.959 21.696,0 11.916,85.13 0,-75.677 c 0,-3.045 -1.226,-4.766 -3.677,-5.181 l 0,-4.272 18.645,0 0,3.958 c -2.633,0.623 -3.859,4.897 -3.651,12.812 l 0,133.667 -14.367,0 -14.677,-95.804 0,85.748 c -0.603,4.459 0.938,6.585 4.587,6.403 l 0,3.652 -20.78,0 0.31,-3.368 c 3.47,-0.386 5.085,-2.729 4.903,-6.995 l 0,-129.397 -0.002,0 z m -50.919,-6.404 0,-4.272 23.516,0 -0.284,4.271 c -2.867,0.415 -4.278,2.445 -4.278,6.092 l 0,127.572 c 0.08,5.995 1.721,8.85 4.875,8.543 l 0,4.266 -23.829,0 0,-4.266 c 2.841,0.421 4.274,-2.446 4.274,-8.543 l 0,-127.571 c 10e-4,-3.647 -1.433,-5.677 -4.274,-6.092 l 0,0 z M 11.316,15.58 c 0,-3.253 -1.829,-4.869 -5.503,-4.869 l 0,-3.959 46.75,0 0,50.049 -4.278,0 C 46.852,40.915 44.608,30.083 41.559,24.279 38.508,18.495 33.918,15.503 27.818,15.295 l 0,51.87 c 5.502,1.822 8.344,-5.805 8.554,-22.891 l 4.277,0.315 0,62.553 -4.277,0 c 0,-16.482 -2.841,-25.343 -8.554,-26.538 l 0,64.988 c 0,5.892 1.41,8.133 4.277,6.7 l 0.313,4.584 -25.681,0 -0.313,-4.584 c 3.467,1.216 5.108,-0.91 4.903,-6.405 l 0,-130.307 -10e-4,0 z" id="XMLID_1_"/>
      </defs>
    </g>
  </g>
  <path d="M 837.8 3.31 L 837.8 7.235 C 833.423 6.139 831.671 12.825 833.538 27.107 L 838.829 67.632 L 843.616 27.59 C 844.154 23.041 844.393 19.53 844.564 17.58 C 845.11 11.359 843.727 7.906 840.438 7.235 L 840.438 3.31 L 861.182 3.31 L 861.182 7.571 C 857.674 7.792 856.283 9.362 855.905 12.167 L 844.001 100.519 L 844.001 149.159 C 843.775 154.621 845.434 157.595 848.942 158.013 L 848.942 162.298 L 825.254 162.298 L 825.254 157.682 C 828.309 157.486 829.852 154.621 829.852 149.159 L 829.852 94.605 L 821.25 22.11 C 820.258 13.749 816.799 8.097 813.805 6.926 L 813.463 3.311 L 837.8 3.311 L 837.8 3.31 Z M 748.635 105.797 L 766.397 96.601 C 764.212 130.765 764.799 148.706 768.197 150.469 C 771.595 152.219 773.53 151.349 773.953 147.848 C 775.942 134.695 775.942 121.459 773.953 108.087 C 773.304 101.302 771.988 96.491 770.021 93.625 C 757.728 74.591 750.712 60.354 748.972 50.93 L 748.635 18.415 C 751.048 7.009 757.617 1.318 768.362 1.318 C 780.436 1.54 786.779 9.219 787.452 24.331 L 788.431 45.355 L 771.987 55.866 C 772.207 42.72 772.207 30.441 771.987 19.062 C 771.987 13.595 770.719 10.794 768.197 10.678 C 765.667 10.568 764.438 13.148 764.438 18.417 L 764.744 51.272 C 775.941 69.211 783.491 82.995 787.453 92.646 C 791.378 102.296 792.81 116.083 791.715 134.047 C 790.625 153.983 783.491 163.815 770.328 163.595 C 757.617 162.945 750.398 154.178 748.636 137.244 L 748.636 105.797 L 748.635 105.797 Z M 698.699 162.946 L 698.699 160.645 C 701.336 158.012 702.207 148.595 701.336 132.394 L 693.114 132.394 C 691.791 148.595 692.552 158.012 695.415 160.645 L 695.415 162.946 L 674.024 162.946 L 674.024 160.645 C 675.793 160.423 677.256 159.726 678.463 158.525 C 679.669 157.313 683.341 104.817 689.489 1.011 L 706.584 1.011 C 714.697 104.818 719.19 157.313 720.084 158.525 C 720.955 159.726 722.277 160.423 724.015 160.645 L 724.015 162.946 L 698.699 162.946 L 698.699 162.946 Z M 693.585 118.264 L 700.015 118.264 L 696.733 65.062 L 693.585 118.264 L 693.585 118.264 Z M 603.381 0 L 649.411 0 L 649.411 58.165 L 643.826 58.165 C 642.724 34.734 639.669 20.827 634.618 16.427 L 634.618 151.117 C 634.618 156.395 637.03 159.676 641.862 160.987 L 641.862 163.289 L 611.266 163.289 L 611.266 160.987 C 616.513 159.676 618.925 156.272 618.503 150.785 L 618.503 16.428 C 613.006 20.604 609.491 34.509 607.98 58.167 L 603.382 58.167 L 603.382 0 L 603.381 0 Z M 531.746 12.167 C 532.388 8.215 530.625 5.833 526.468 4.936 L 526.468 0.674 L 549.819 0.674 L 562.652 92.314 L 562.652 10.85 C 562.652 7.572 561.329 5.72 558.691 5.273 L 558.691 0.674 L 578.762 0.674 L 578.762 4.935 C 575.926 5.605 574.605 10.206 574.831 18.727 L 574.831 162.616 L 559.365 162.616 L 543.561 59.485 L 543.561 151.791 C 542.912 156.591 544.572 158.879 548.503 158.684 L 548.503 162.615 L 526.132 162.615 L 526.469 158.989 C 530.203 158.574 531.943 156.052 531.747 151.459 L 531.747 12.167 L 531.746 12.167 Z M 476.197 162.946 L 476.197 160.645 C 478.837 158.012 479.702 148.595 478.837 132.394 L 470.614 132.394 C 469.294 148.595 470.051 158.012 472.912 160.645 L 472.912 162.946 L 451.526 162.946 L 451.526 160.645 C 453.292 160.423 454.753 159.726 455.959 158.525 C 457.165 157.313 460.845 104.817 466.989 1.011 L 484.084 1.011 C 492.196 104.818 496.69 157.313 497.584 158.525 C 498.457 159.726 499.775 160.423 501.514 160.645 L 501.514 162.946 L 476.197 162.946 L 476.197 162.946 Z M 471.092 118.264 L 477.517 118.264 L 474.229 65.062 L 471.092 118.264 L 471.092 118.264 Z M 382.505 10.514 C 382.505 7.012 380.54 5.273 376.585 5.273 L 376.585 1.011 L 426.907 1.011 L 426.907 54.888 L 422.306 54.888 C 420.763 37.787 418.348 26.126 415.066 19.878 C 411.778 13.652 406.837 10.431 400.27 10.207 L 400.27 66.044 C 406.194 68.006 409.252 59.795 409.48 41.403 L 414.084 41.742 L 414.084 109.078 L 409.48 109.078 C 409.48 91.336 406.418 81.797 400.27 80.511 L 400.27 150.469 C 400.27 156.812 401.789 159.224 404.875 157.681 L 405.212 162.616 L 377.565 162.616 L 377.228 157.681 C 380.961 158.99 382.729 156.702 382.506 150.786 L 382.506 10.514 L 382.505 10.514 Z M 279.696 14.466 C 279.47 8.778 277.284 5.833 273.127 5.606 L 273.127 0.674 L 303.047 0.674 L 303.047 5.272 C 298.67 5.718 296.481 8.777 296.481 14.465 L 296.564 152.598 C 304.845 152.047 311.271 133.373 315.878 96.6 L 320.17 96.6 L 320.17 162.945 L 272.789 162.945 L 272.789 158.353 C 277.17 157.9 279.469 155.304 279.695 150.468 L 279.695 14.466 L 279.696 14.466 Z M 223.925 162.946 L 223.925 160.645 C 226.565 158.012 227.437 148.595 226.565 132.394 L 218.342 132.394 C 217.019 148.595 217.779 158.012 220.643 160.645 L 220.643 162.946 L 199.254 162.946 L 199.254 160.645 C 201.02 160.423 202.483 159.726 203.686 158.525 C 204.896 157.313 208.569 104.817 214.719 1.011 L 231.814 1.011 C 239.924 104.818 244.415 157.313 245.315 158.525 C 246.185 159.726 247.507 160.423 249.246 160.645 L 249.246 162.946 L 223.925 162.946 L 223.925 162.946 Z M 218.818 118.264 L 225.245 118.264 L 221.96 65.062 L 218.818 118.264 L 218.818 118.264 Z M 128.689 12.167 C 129.335 8.215 127.566 5.833 123.411 4.936 L 123.411 0.674 L 146.767 0.674 L 159.594 92.314 L 159.594 10.85 C 159.594 7.572 158.274 5.72 155.636 5.273 L 155.636 0.674 L 175.707 0.674 L 175.707 4.935 C 172.872 5.605 171.553 10.206 171.776 18.727 L 171.776 162.616 L 156.311 162.616 L 140.511 59.485 L 140.511 151.791 C 139.862 156.591 141.521 158.879 145.449 158.684 L 145.449 162.615 L 123.08 162.615 L 123.414 158.989 C 127.149 158.574 128.888 156.052 128.692 151.459 L 128.692 12.167 L 128.689 12.167 Z M 73.876 5.273 L 73.876 0.674 L 99.191 0.674 L 98.885 5.272 C 95.799 5.718 94.28 7.904 94.28 11.83 L 94.28 149.158 C 94.366 155.611 96.133 158.685 99.528 158.354 L 99.528 162.946 L 73.876 162.946 L 73.876 158.354 C 76.935 158.807 78.477 155.721 78.477 149.158 L 78.477 11.831 C 78.478 7.905 76.935 5.72 73.876 5.273 L 73.876 5.273 Z M 5.924 10.514 C 5.924 7.012 3.955 5.273 0 5.273 L 0 1.011 L 50.325 1.011 L 50.325 54.888 L 45.72 54.888 C 44.177 37.787 41.762 26.126 38.48 19.878 C 35.195 13.652 30.254 10.431 23.688 10.207 L 23.688 66.044 C 29.611 68.006 32.67 59.795 32.896 41.403 L 37.5 41.742 L 37.5 109.078 L 32.896 109.078 C 32.896 91.336 29.838 81.797 23.688 80.511 L 23.688 150.469 C 23.688 156.812 25.206 159.224 28.292 157.681 L 28.629 162.616 L 0.984 162.616 L 0.647 157.681 C 4.379 158.99 6.146 156.702 5.925 150.786 L 5.925 10.514 L 5.924 10.514 Z" id="use2190" style="fill: rgb(255, 255, 255);"/>
</svg>