<?xml version="1.0" encoding="utf-8"?>
<svg version="1.2" baseProfile="tiny" id="Layer_3" x="0px" y="0px" viewBox="0 0 1280 720" preserveAspectRatio="none" xmlns="http://www.w3.org/2000/svg">
  <path d="M 779.735 381.583 L 779.735 344.808 L 834.168 344.808 L 834.168 144.486 C 834.155 138.073 828.969 132.885 822.556 132.874 L 822.556 132.874 L 401.592 132.873 C 395.176 132.884 389.988 138.072 389.979 144.485 L 389.979 144.485 L 389.976 344.807 L 444.413 344.807 L 444.413 380.734 L 441.51 380.734 L 441.51 347.71 L 387.074 347.71 L 387.074 144.483 C 387.074 136.467 393.575 129.968 401.592 129.968 L 401.592 129.968 L 822.556 129.969 C 830.573 129.969 837.073 136.468 837.073 144.484 L 837.073 144.484 L 837.073 347.711 L 782.638 347.708 L 782.638 381.583 L 779.735 381.583 L 779.735 381.583 Z" style="fill: rgb(30, 30, 30);" transform="matrix(0.965926, -0.258819, 0.258819, 0.965926, -45.343688, 167.131735)"/>
  <path d="M 460.139 589.677 C 452.119 589.677 445.623 583.175 445.623 575.161 L 445.623 575.161 L 445.622 358.871 L 448.524 358.871 L 448.525 575.161 C 448.536 581.576 453.726 586.761 460.139 586.776 L 460.139 586.776 L 881.103 586.776 C 887.517 586.76 892.702 581.576 892.717 575.161 L 892.717 575.161 L 892.716 358.871 L 895.618 358.871 L 895.619 575.161 C 895.619 583.174 889.118 589.677 881.103 589.677 L 881.103 589.677 L 460.139 589.677 L 460.139 589.677 Z" style="fill: rgb(30, 30, 30);" transform="matrix(0.965926, -0.258819, 0.258819, 0.965926, -99.900198, 189.72959)"/>
  <path d="M 432.561 379.275 L 432.561 379.272 L 432.561 377.819 L 432.561 376.369 L 848.693 376.372 C 856.44 376.353 862.706 370.09 862.719 362.338 L 862.719 362.338 C 862.706 354.592 856.44 348.322 848.693 348.307 L 848.693 348.307 L 432.561 348.307 C 424.814 348.319 418.546 354.588 418.53 362.338 L 418.53 362.338 C 418.546 370.09 424.813 376.358 432.561 376.372 L 432.561 376.372 L 432.561 377.819 L 432.561 379.272 C 423.212 379.272 415.63 371.691 415.627 362.338 L 415.627 362.338 C 415.63 352.984 423.212 345.405 432.561 345.405 L 432.561 345.405 L 848.693 345.405 C 858.042 345.405 865.623 352.984 865.623 362.338 L 865.623 362.338 C 865.623 371.691 858.042 379.272 848.693 379.272 L 848.693 379.272 L 432.561 379.272 L 432.561 379.275 Z" style="fill: rgb(30, 30, 30);" transform="matrix(0.965926, -0.258819, 0.258819, 0.965926, -71.951758, 178.15251)"/>
  <path d="M 499.115 335.992 C 495.102 335.992 491.857 332.744 491.853 328.734 L 491.853 328.734 L 491.853 161.315 C 491.857 157.307 495.102 154.057 499.115 154.057 L 499.115 154.057 L 719.274 154.057 C 723.285 154.057 726.528 157.306 726.528 161.315 L 726.528 161.315 L 726.528 328.733 C 726.528 332.739 723.285 335.991 719.274 335.991 L 719.274 335.991 L 499.115 335.991 L 499.115 335.992 Z M 494.756 161.315 L 494.756 328.733 C 494.764 331.137 496.709 333.082 499.115 333.088 L 499.115 333.088 L 719.274 333.088 C 721.677 333.082 723.623 331.137 723.629 328.733 L 723.629 328.733 L 723.629 161.315 C 723.623 158.91 721.677 156.966 719.274 156.96 L 719.274 156.96 L 499.115 156.96 C 496.707 156.966 494.764 158.911 494.756 161.315 L 494.756 161.315 Z" style="fill: rgb(30, 30, 30);" transform="matrix(0.965926, -0.258819, 0.258819, 0.965926, -42.659347, 166.01913)"/>
  <path d="M 506.856 325.832 C 504.45 325.828 502.502 323.884 502.499 321.476 L 502.499 321.476 L 502.502 168.575 C 502.502 166.169 504.45 164.22 506.856 164.22 L 506.856 164.22 L 711.531 164.22 C 713.936 164.22 715.884 166.169 715.884 168.575 L 715.884 168.575 L 715.884 321.476 C 715.884 323.879 713.936 325.832 711.531 325.832 L 711.531 325.832 L 506.856 325.832 L 506.856 325.832 Z M 505.405 168.573 L 505.402 321.475 C 505.405 322.272 506.055 322.923 506.856 322.926 L 506.856 322.926 L 711.531 322.926 C 712.335 322.923 712.98 322.278 712.983 321.475 L 712.983 321.475 L 712.983 168.573 C 712.98 167.772 712.335 167.124 711.531 167.121 L 711.531 167.121 L 506.856 167.121 C 506.055 167.124 505.405 167.773 505.405 168.573 L 505.405 168.573 Z" style="fill: rgb(30, 30, 30);" transform="matrix(0.965926, -0.258819, 0.258819, 0.965926, -42.659714, 166.019521)"/>
  <path d="M 552.585 560.84 L 552.585 387.008 C 552.585 383.801 555.183 381.205 558.391 381.205 L 558.391 381.205 L 782.662 381.201 C 785.871 381.205 788.469 383.801 788.469 387.008 L 788.469 387.008 L 788.469 560.84 C 788.469 564.043 785.871 566.645 782.662 566.645 L 782.662 566.645 L 558.391 566.648 C 555.183 566.645 552.585 564.043 552.585 560.84 L 552.585 560.84 Z M 555.486 387.008 L 555.486 560.84 C 555.491 562.444 556.788 563.736 558.391 563.741 L 558.391 563.741 L 782.662 563.741 C 784.265 563.736 785.561 562.441 785.564 560.84 L 785.564 560.84 L 785.567 560.84 L 785.564 387.008 C 785.561 385.405 784.265 384.107 782.662 384.106 L 782.662 384.106 L 558.391 384.106 C 556.788 384.107 555.491 385.405 555.486 387.008 L 555.486 387.008 Z" style="fill: rgb(30, 30, 30);" transform="matrix(0.965926, -0.258819, 0.258819, 0.965926, -99.813082, 189.693877)"/>
  <path d="M 566.555 554.306 C 564.952 554.306 563.653 553.004 563.653 551.405 L 563.653 551.405 L 563.653 396.447 C 563.653 394.839 564.952 393.541 566.555 393.541 L 566.555 393.541 L 774.497 393.541 C 776.1 393.541 777.399 394.839 777.399 396.447 L 777.399 396.447 L 777.399 551.405 C 777.399 553.007 776.1 554.306 774.497 554.306 L 774.497 554.306 L 566.555 554.306 L 566.555 554.306 Z M 566.555 396.447 L 566.555 551.405 L 774.497 551.405 L 774.497 396.447 L 774.497 396.443 L 566.555 396.443 L 566.555 396.447 L 566.555 396.447 Z" style="fill: rgb(30, 30, 30);" transform="matrix(0.965926, -0.258819, 0.258819, 0.965926, -99.812826, 189.693487)"/>
  <path d="M 488.973 533.297 C 487.369 533.297 486.069 531.997 486.069 530.393 L 486.069 530.393 L 486.069 512.885 L 468.558 512.885 C 466.954 512.885 465.656 511.584 465.656 509.982 L 465.656 509.982 L 465.656 490.748 C 465.656 489.143 466.954 487.844 468.558 487.844 L 468.558 487.844 L 486.069 487.844 L 486.069 470.334 C 486.069 468.73 487.369 467.433 488.973 467.433 L 488.973 467.433 L 508.206 467.433 C 509.81 467.433 511.109 468.73 511.109 470.334 L 511.109 470.334 L 511.109 487.844 L 528.619 487.844 C 530.224 487.844 531.521 489.143 531.521 490.748 L 531.521 490.748 L 531.521 509.982 C 531.521 511.586 530.225 512.885 528.619 512.885 L 528.619 512.885 L 511.109 512.885 L 511.109 530.393 C 511.109 531.997 509.808 533.295 508.206 533.295 L 508.206 533.295 L 488.973 533.295 L 488.973 533.297 Z M 488.973 530.393 L 508.206 530.393 L 508.206 512.701 C 508.214 512.255 508.242 511.625 508.72 510.959 L 508.72 510.959 C 509.204 510.279 510.107 509.953 510.9 509.982 L 510.9 509.982 L 528.621 509.982 L 528.621 490.748 L 510.99 490.748 C 510.416 490.748 509.696 490.625 509.078 490.086 L 509.078 490.086 C 508.454 489.542 508.195 488.701 508.207 487.938 L 508.207 487.938 L 508.207 470.334 L 488.975 470.334 L 488.975 487.997 C 488.972 488.541 488.866 489.219 488.369 489.834 L 488.369 489.834 C 487.872 490.456 487.021 490.769 486.253 490.75 L 486.253 490.75 L 468.561 490.75 L 468.561 509.982 L 486.103 509.982 C 486.671 510.003 487.298 509.971 488.049 510.484 L 488.049 510.484 C 488.818 511.054 488.989 511.966 488.975 512.615 L 488.975 512.615 L 488.975 530.393 L 488.973 530.393 Z" style="fill: rgb(30, 30, 30);" transform="matrix(0.965926, -0.258819, 0.258819, 0.965926, -112.515063, 146.093826)"/>
  <path d="M 807.604 377.016 C 807.604 369.4 813.777 363.226 821.392 363.226 L 821.392 363.226 C 829.009 363.226 835.183 369.4 835.183 377.016 L 835.183 377.016 C 835.183 384.63 829.009 390.807 821.392 390.807 L 821.392 390.807 C 813.777 390.807 807.604 384.635 807.604 377.016 L 807.604 377.016 Z M 810.504 377.016 C 810.515 383.03 815.38 387.893 821.392 387.906 L 821.392 387.906 C 827.408 387.893 832.269 383.03 832.279 377.016 L 832.279 377.016 C 832.269 371.002 827.408 366.141 821.392 366.129 L 821.392 366.129 C 815.38 366.141 810.515 371.002 810.504 377.016 L 810.504 377.016 Z" style="fill: rgb(30, 30, 30);" transform="matrix(0.965926, -0.258819, 0.258819, 0.965926, -69.590733, 225.438735)"/>
  <path d="M 820.942 426.795 C 820.942 419.175 827.115 413.003 834.73 413.003 L 834.73 413.003 C 842.347 413.003 848.521 419.175 848.521 426.795 L 848.521 426.795 C 848.521 434.407 842.347 440.584 834.73 440.584 L 834.73 440.584 C 827.115 440.584 820.942 434.41 820.942 426.795 L 820.942 426.795 Z M 823.842 426.795 C 823.853 432.806 828.718 437.668 834.73 437.681 L 834.73 437.681 C 840.746 437.668 845.607 432.806 845.617 426.795 L 845.617 426.795 C 845.607 420.777 840.746 415.918 834.73 415.905 L 834.73 415.905 C 828.718 415.918 823.853 420.779 823.842 426.795 L 823.842 426.795 Z" style="fill: rgb(30, 30, 30);" transform="matrix(0.965926, -0.258819, 0.258819, 0.965926, -82.019438, 230.586733)"/>
  <path d="M 789.531 408.66 C 789.531 401.045 795.709 394.869 803.322 394.869 L 803.322 394.869 C 810.937 394.869 817.113 401.045 817.113 408.66 L 817.113 408.66 C 817.113 416.273 810.937 422.45 803.322 422.45 L 803.322 422.45 C 795.709 422.45 789.531 416.277 789.531 408.66 L 789.531 408.66 Z M 792.435 408.66 C 792.448 414.673 797.31 419.535 803.322 419.549 L 803.322 419.549 C 809.336 419.535 814.198 414.673 814.209 408.66 L 814.209 408.66 C 814.198 402.645 809.336 397.78 803.322 397.772 L 803.322 397.772 C 797.31 397.78 792.445 402.648 792.435 408.66 L 792.435 408.66 Z" style="fill: rgb(30, 30, 30);" transform="matrix(0.965926, -0.258819, 0.258819, 0.965926, -78.396331, 221.839804)"/>
  <path d="M 839.778 395.197 C 839.778 387.582 845.951 381.406 853.568 381.406 L 853.568 381.406 C 861.182 381.406 867.357 387.582 867.357 395.197 L 867.357 395.197 C 867.357 402.814 861.182 408.987 853.568 408.987 L 853.568 408.987 C 845.951 408.987 839.778 402.814 839.778 395.197 L 839.778 395.197 Z M 842.68 395.197 C 842.693 401.21 847.553 406.072 853.568 406.086 L 853.568 406.086 C 859.581 406.072 864.445 401.21 864.454 395.197 L 864.454 395.197 C 864.445 389.182 859.581 384.321 853.568 384.309 L 853.568 384.309 C 847.553 384.321 842.69 389.185 842.68 395.197 L 842.68 395.197 Z" style="fill: rgb(30, 30, 30);" transform="matrix(0.965926, -0.258819, 0.258819, 0.965926, -73.199805, 234.385692)"/>
  <path d="M 811.807 490.724 C 811.807 486.448 815.272 482.981 819.55 482.981 L 819.55 482.981 C 823.822 482.981 827.289 486.448 827.289 490.724 L 827.289 490.724 C 827.289 495 823.822 498.463 819.55 498.463 L 819.55 498.463 C 815.268 498.463 811.807 495.002 811.807 490.724 L 811.807 490.724 Z M 814.708 490.724 C 814.714 493.393 816.875 495.557 819.55 495.56 L 819.55 495.56 C 822.221 495.557 824.38 493.393 824.386 490.724 L 824.386 490.724 C 824.38 488.051 822.221 485.888 819.55 485.885 L 819.55 485.885 C 816.875 485.888 814.714 488.052 814.708 490.724 L 814.708 490.724 Z" style="fill: rgb(30, 30, 30);" transform="matrix(0.965926, -0.258819, 0.258819, 0.965926, -99.08279, 228.835603)"/>
  <path d="M 818.445 515.495 C 818.445 511.219 821.912 507.753 826.187 507.753 L 826.187 507.753 C 830.462 507.753 833.927 511.219 833.927 515.495 L 833.927 515.495 C 833.927 519.771 830.462 523.237 826.187 523.237 L 826.187 523.237 C 821.909 523.237 818.445 519.771 818.445 515.495 L 818.445 515.495 Z M 821.346 515.495 C 821.353 518.167 823.513 520.326 826.187 520.334 L 826.187 520.334 C 828.859 520.326 831.021 518.167 831.024 515.495 L 831.024 515.495 C 831.021 512.824 828.859 510.664 826.187 510.656 L 826.187 510.656 C 823.513 510.664 821.353 512.824 821.346 515.495 L 821.346 515.495 Z" style="fill: rgb(30, 30, 30);" transform="matrix(0.965926, -0.258819, 0.258819, 0.965926, -105.268178, 231.397307)"/>
  <g transform="matrix(1.402142, -0.375703, 0.375703, 1.402142, 153.7547, 225.600433)">
    <path d="M185.135,162.63c-1.657,0-2.999-1.344-2.999-3l0,0v-5.25c0-1.658,1.342-3,2.999-3l0,0h5.251&#10;&#9;&#9;c1.656,0,2.998,1.342,3,3l0,0v5.25c-0.002,1.656-1.344,3-3,3l0,0H185.135L185.135,162.63z M184.136,154.378v5.252&#10;&#9;&#9;c0,0.549,0.447,0.996,0.999,0.998l0,0h5.251c0.55-0.002,0.997-0.449,1-0.998l0,0v-5.252c-0.002-0.551-0.45-0.998-1-0.998l0,0&#10;&#9;&#9;h-5.251C184.583,153.38,184.136,153.827,184.136,154.378L184.136,154.378z" style="fill: rgb(30, 30, 30);"/>
    <path d="M408.803,162.628c-1.657,0-2.999-1.342-2.999-2.998l0,0v-5.252c0-1.655,1.342-2.998,2.999-2.998l0,0h5.251&#10;&#9;&#9;c1.656,0,2.997,1.34,2.999,2.998l0,0v5.252c-0.002,1.658-1.343,2.998-2.999,2.998l0,0H408.803L408.803,162.628z M407.802,154.378&#10;&#9;&#9;v5.252c0.002,0.552,0.448,0.998,1.001,0.998l0,0h5.251c0.549,0,0.997-0.447,0.999-0.998l0,0v-5.252&#10;&#9;&#9;c-0.002-0.549-0.45-0.998-0.999-1l0,0h-5.251C408.25,153.38,407.804,153.827,407.802,154.378L407.802,154.378z" style="fill: rgb(30, 30, 30);"/>
  </g>
  <g transform="matrix(1.402142, -0.375703, 0.375703, 1.402142, 153.7547, 225.600433)">
    <path d="M185.136,38.629c-1.658,0-3-1.344-3-3l0,0v-5.251c0-1.656,1.342-3,3-3l0,0h5.25c1.658,0,3,1.343,3,3l0,0&#10;&#9;&#9;v5.251c0,1.656-1.341,3-3,3l0,0H185.136L185.136,38.629z M184.135,30.378v5.251c0.002,0.55,0.449,0.999,1,0.999l0,0h5.25&#10;&#9;&#9;c0.552,0,0.999-0.449,1-0.999l0,0v-5.251c-0.002-0.55-0.448-0.999-1-1l0,0h-5.25C184.584,29.38,184.137,29.829,184.135,30.378&#10;&#9;&#9;L184.135,30.378z" style="fill: rgb(30, 30, 30);"/>
    <path d="M408.803,38.628c-1.657,0-2.999-1.343-2.999-2.999l0,0v-5.251c0-1.656,1.342-2.999,2.999-2.999l0,0h5.251&#10;&#9;&#9;c1.656,0,2.997,1.341,2.999,2.999l0,0v5.251c-0.002,1.658-1.343,2.999-2.999,2.999l0,0H408.803L408.803,38.628z M407.802,30.379&#10;&#9;&#9;v5.251c0.002,0.553,0.448,0.999,1.001,0.999l0,0h5.251c0.549,0,0.997-0.448,0.999-0.999l0,0v-5.251&#10;&#9;&#9;c-0.002-0.551-0.45-0.999-0.999-1.001l0,0h-5.251C408.25,29.38,407.804,29.827,407.802,30.379L407.802,30.379z" style="fill: rgb(30, 30, 30);"/>
  </g>
  <path d="M 829.508 320.891 C 829.508 321.695 828.857 322.343 828.056 322.343 L 827.574 322.343 C 826.773 322.343 826.122 321.695 826.122 320.891 L 826.122 303.472 C 826.122 302.671 826.773 302.02 827.574 302.02 L 828.056 302.02 C 828.857 302.02 829.508 302.671 829.508 303.472 L 829.508 320.891 Z" style="fill: rgb(30, 30, 30);" transform="matrix(0.965926, -0.258819, 0.258819, 0.965926, -52.591406, 224.891644)"/>
  <path d="M 836.988 318.887 C 836.988 319.691 836.337 320.339 835.536 320.339 L 835.054 320.339 C 834.253 320.339 833.602 319.691 833.602 318.887 L 833.602 301.468 C 833.602 300.667 834.253 300.016 835.054 300.016 L 835.536 300.016 C 836.337 300.016 836.988 300.667 836.988 301.468 L 836.988 318.887 Z" style="fill: rgb(30, 30, 30);" transform="matrix(0.965926, -0.258819, 0.258819, 0.965926, -51.817862, 226.75932)"/>
  <path d="M 642.765 364.594 C 642.765 365.795 641.789 366.772 640.587 366.772 L 640.587 366.772 C 639.385 366.772 638.41 365.795 638.41 364.594 L 638.41 356.974 C 638.41 355.769 639.385 354.797 640.587 354.797 L 640.587 354.797 C 641.789 354.797 642.765 355.769 642.765 356.974 L 642.765 364.594 Z" style="fill: rgb(30, 30, 30);" transform="matrix(0.965926, -0.258819, 0.258819, 0.965926, -71.550367, 178.089529)"/>
  <g transform="matrix(1.402142, -0.375703, 0.375703, 1.402142, 153.7547, 225.600433)">
    <g>
      <circle cx="405.563" cy="90.942" r="1.563" style="fill: rgb(30, 30, 30);"/>
      <circle cx="417.188" cy="90.942" r="1.563" style="fill: rgb(30, 30, 30);"/>
      <circle cx="428.813" cy="90.942" r="1.563" style="fill: rgb(30, 30, 30);"/>
      <circle cx="405.563" cy="102.317" r="1.563" style="fill: rgb(30, 30, 30);"/>
      <circle cx="417.188" cy="102.317" r="1.563" style="fill: rgb(30, 30, 30);"/>
      <circle cx="428.813" cy="102.317" r="1.563" style="fill: rgb(30, 30, 30);"/>
    </g>
    <g>
      <circle cx="170.376" cy="90.942" r="1.563" style="fill: rgb(30, 30, 30);"/>
      <circle cx="182.001" cy="90.942" r="1.563" style="fill: rgb(30, 30, 30);"/>
      <circle cx="193.626" cy="90.942" r="1.563" style="fill: rgb(30, 30, 30);"/>
      <circle cx="170.376" cy="102.317" r="1.563" style="fill: rgb(30, 30, 30);"/>
      <circle cx="182.001" cy="102.317" r="1.563" style="fill: rgb(30, 30, 30);"/>
      <circle cx="193.626" cy="102.317" r="1.563" style="fill: rgb(30, 30, 30);"/>
    </g>
  </g>
</svg>