<?xml version="1.0" encoding="utf-8"?>
<svg version="1.0" preserveAspectRatio="xMidYMid meet" xmlns="http://www.w3.org/2000/svg">
  <path d="M 2.391 13.402 C 1.093 7.013 -0.05 1.506 0.002 1.195 C 0.002 0.156 7.223 0.26 7.586 1.247 C 7.742 1.662 8.158 3.844 8.521 6.078 L 9.197 10.13 L 9.768 8.104 C 10.08 6.961 10.651 4.831 10.963 3.273 L 11.586 0.519 L 14.547 0.519 L 17.508 0.519 L 18.755 5.247 C 19.43 7.844 20.054 9.714 20.158 9.454 C 20.261 9.143 20.625 7.065 20.937 4.831 L 21.56 0.779 L 25.612 0.623 C 30.183 0.468 29.976 0.208 28.833 5.143 C 28.365 6.961 28.158 8.571 28.313 8.727 C 28.469 8.883 28.573 8.727 28.573 8.364 C 28.573 6.961 31.846 3.065 34.131 1.714 C 37.3 -0.104 42.235 -0.26 45.508 1.455 C 47.69 2.545 50.911 5.818 50.911 6.857 C 50.911 8.156 51.742 6.545 52.521 3.74 L 53.352 0.779 L 57.196 0.623 L 61.04 0.468 L 63.534 4.519 L 65.975 8.571 L 65.975 4.519 L 65.975 0.519 L 69.612 0.519 L 73.248 0.519 L 73.248 12.467 L 73.248 24.467 L 69.819 24.311 L 66.391 24.156 L 63.586 19.221 L 60.781 14.338 L 60.781 18.545 C 60.781 24.467 60.833 24.415 56.573 24.415 L 52.988 24.415 L 52.988 16.415 C 52.988 9.87 52.833 8.364 52.209 8.156 C 51.638 7.896 51.586 8.104 51.95 9.143 C 53.144 12.26 52.157 17.143 49.612 20.519 C 46.547 24.467 39.742 26.078 35.067 23.948 C 30.547 21.922 27.015 15.636 27.846 11.221 C 28.002 10.182 28.054 9.351 27.95 9.351 C 27.794 9.351 26.911 12.831 25.976 17.143 L 24.209 24.935 L 20.469 24.935 L 16.677 24.935 L 15.794 20.935 C 15.015 17.091 14.028 14.857 14.028 16.727 C 14.028 17.143 13.664 19.221 13.197 21.247 L 12.365 24.935 L 8.625 24.935 L 4.885 24.935 L 2.391 13.402 Z M 42.807 15.844 C 44.573 14.234 44.677 11.273 43.015 9.506 C 41.404 7.792 38.339 7.844 36.937 9.662 C 33.508 14.026 38.755 19.584 42.807 15.844 Z" style="fill: rgb(255, 255, 255);"/>
  <path d="M 167.637 24.208 C 164.208 22.961 161.663 20.883 160.312 18.286 L 159.014 15.844 L 158.962 17.558 C 158.962 20.104 157.611 22.182 155.325 23.376 C 153.611 24.26 152.26 24.415 147.014 24.415 L 140.78 24.415 L 140.78 16.156 C 140.78 8.208 140.728 7.896 139.793 8.156 C 138.858 8.416 138.806 8.26 139.221 6.701 C 139.481 5.714 139.949 3.948 140.26 2.753 L 140.832 0.519 L 147.793 0.519 C 154.806 0.519 154.806 0.519 156.468 2.026 C 157.975 3.377 158.182 3.896 158.182 6.13 C 158.182 8 157.871 9.195 157.04 10.286 L 155.897 11.844 L 156.988 12.779 C 157.559 13.351 158.234 14.234 158.494 14.805 C 158.858 15.532 158.91 15.013 158.702 13.195 C 158.39 10.026 159.065 7.792 161.403 4.571 C 163.689 1.403 166.598 0 170.806 0 C 174.754 0 176.935 0.831 179.377 3.273 C 185.247 9.195 183.741 19.428 176.468 23.013 C 172.987 24.727 170.13 25.091 167.637 24.208 Z M 150.806 16.519 C 151.169 15.325 150.598 14.545 149.299 14.545 C 148.312 14.545 148.053 14.805 148.053 15.844 C 148.053 16.883 148.312 17.143 149.299 17.143 C 149.975 17.143 150.65 16.831 150.806 16.519 Z M 174.026 15.48 C 176.624 12.675 174.702 7.792 170.961 7.792 C 170.13 7.792 168.884 8.26 168.104 8.883 C 167.013 9.714 166.754 10.39 166.754 12.208 C 166.754 14.026 167.013 14.701 168.104 15.532 C 169.923 16.987 172.624 16.935 174.026 15.48 Z M 150.65 8.312 C 150.65 7.532 150.286 7.273 149.351 7.273 C 148.416 7.273 148.053 7.532 148.053 8.312 C 148.053 9.091 148.416 9.351 149.351 9.351 C 150.286 9.351 150.65 9.091 150.65 8.312 Z" style="fill: rgb(255, 255, 255);"/>
  <path d="M 75.845 16.104 C 75.845 8.623 75.742 7.844 74.962 8.156 C 74.235 8.416 74.183 8.208 74.443 6.442 C 74.651 5.351 75.066 3.532 75.378 2.39 L 75.949 0.416 L 81.456 0.571 C 86.547 0.779 87.222 0.935 89.456 2.338 C 90.754 3.169 92.313 4.675 92.884 5.662 L 93.923 7.48 L 94.754 4.675 C 95.222 3.169 95.586 1.558 95.586 1.195 C 95.586 0.727 96.469 0.519 98.598 0.519 C 100.209 0.519 103.845 0.364 106.65 0.156 C 110.598 -0.104 111.689 0 111.689 0.519 C 111.689 0.883 111.222 2.805 110.65 4.727 L 109.559 8.312 L 106.494 8.312 C 104.78 8.312 103.378 8.519 103.378 8.831 C 103.378 9.143 105.04 9.351 107.274 9.351 C 111.637 9.351 111.585 9.299 110.598 13.299 L 109.975 15.688 L 106.702 15.48 C 104.313 15.376 103.378 15.48 103.378 16 C 103.378 16.415 104.572 16.623 107.482 16.623 L 111.585 16.623 L 111.17 18.338 C 110.91 19.221 110.443 20.987 110.131 22.234 L 109.559 24.415 L 102.598 24.415 L 95.586 24.415 L 95.586 16.363 C 95.586 10.286 95.43 8.312 94.962 8.312 C 94.495 8.312 94.339 9.143 94.495 11.273 C 94.702 15.117 93.975 17.454 91.586 20.208 C 88.78 23.48 86.443 24.415 80.677 24.415 L 75.845 24.415 L 75.845 16.104 Z M 84.936 16.312 C 86.235 15.792 87.43 13.091 87.014 11.48 C 86.547 9.714 85.3 8.312 84.053 8.312 C 83.222 8.312 83.118 8.779 83.118 12.467 C 83.118 16.571 83.274 16.935 84.936 16.312 Z" style="fill: rgb(255, 255, 255);"/>
  <path d="M 112.728 16.363 C 112.728 9.403 112.624 8.312 111.897 8.312 C 111.378 8.312 111.17 8 111.378 7.429 C 111.533 6.909 112.001 5.143 112.468 3.532 L 113.3 0.519 L 119.222 0.519 C 127.118 0.519 129.248 1.403 131.481 5.818 C 133.092 8.935 132.468 12.779 129.871 15.74 L 128.416 17.402 L 130.442 20.779 L 132.468 24.156 L 128.157 24.311 C 125.092 24.415 123.793 24.26 123.481 23.792 C 123.274 23.428 122.494 22.182 121.819 21.039 C 120.936 19.636 120.572 19.325 120.624 20 C 120.676 20.571 120.624 21.818 120.624 22.753 L 120.52 24.415 L 116.624 24.415 L 112.728 24.415 L 112.728 16.363 Z M 123.897 9.87 C 123.897 8.831 123.585 8.519 122.494 8.416 C 121.196 8.26 121.04 8.416 121.04 9.87 C 121.04 11.325 121.196 11.48 122.494 11.325 C 123.585 11.221 123.897 10.909 123.897 9.87 Z" style="fill: rgb(255, 255, 255);"/>
  <path d="M 185.974 18.961 L 185.974 13.506 L 182.857 7.273 C 181.143 3.844 179.741 0.831 179.741 0.519 C 179.741 0.208 181.403 0 183.793 0 L 187.844 0 L 188.831 2.649 L 189.87 5.299 L 191.013 2.649 L 192.208 0 L 196.104 0 C 198.39 0 200 0.208 200 0.519 C 200 0.831 198.598 3.844 196.883 7.273 L 193.766 13.506 L 193.766 18.961 L 193.766 24.415 L 189.87 24.415 L 185.974 24.415 L 185.974 18.961 Z" style="fill: rgb(255, 255, 255);"/>
</svg>