<?xml version="1.0" encoding="utf-8"?>
<svg version="1.0" preserveAspectRatio="xMidYMid meet" xmlns="http://www.w3.org/2000/svg">
  <path d="M 46.033 258 C 21.033 135 -0.967 29 0.033 23 C 0.033 3 139.033 5 146.033 24 C 149.033 32 157.033 74 164.033 117 L 177.033 195 L 188.033 156 C 194.033 134 205.033 93 211.033 63 L 223.033 10 L 280.033 10 L 337.033 10 L 361.033 101 C 374.033 151 386.033 187 388.033 182 C 390.033 176 397.033 136 403.033 93 L 415.033 15 L 493.033 12 C 581.033 9 577.033 4 555.033 99 C 546.033 134 542.033 165 545.033 168 C 548.033 171 550.033 168 550.033 161 C 550.033 134 613.033 59 657.033 33 C 718.033 -2 813.033 -5 876.033 28 C 918.033 49 980.033 112 980.033 132 C 980.033 157 996.033 126 1011.033 72 L 1027.033 15 L 1101.033 12 L 1175.033 9 L 1223.033 87 L 1270.033 165 L 1270.033 87 L 1270.033 10 L 1340.033 10 L 1410.033 10 L 1410.033 240 L 1410.033 471 L 1344.033 468 L 1278.033 465 L 1224.033 370 L 1170.033 276 L 1170.033 357 C 1170.033 471 1171.033 470 1089.033 470 L 1020.033 470 L 1020.033 316 C 1020.033 190 1017.033 161 1005.033 157 C 994.033 152 993.033 156 1000.033 176 C 1023.033 236 1004.033 330 955.033 395 C 896.033 471 765.033 502 675.033 461 C 588.033 422 520.033 301 536.033 216 C 539.033 196 540.033 180 538.033 180 C 535.033 180 518.033 247 500.033 330 L 466.033 480 L 394.033 480 L 321.033 480 L 304.033 403 C 289.033 329 270.033 286 270.033 322 C 270.033 330 263.033 370 254.033 409 L 238.033 480 L 166.033 480 L 94.033 480 L 46.033 258 Z M 824.033 305 C 858.033 274 860.033 217 828.033 183 C 797.033 150 738.033 151 711.033 186 C 645.033 270 746.033 377 824.033 305 Z" style="fill: rgb(255, 255, 255);"/>
  <path d="M 3227.033 466 C 3161.033 442 3112.033 402 3086.033 352 L 3061.033 305 L 3060.033 338 C 3060.033 387 3034.033 427 2990.033 450 C 2957.033 467 2931.033 470 2830.033 470 L 2710.033 470 L 2710.033 311 C 2710.033 158 2709.033 152 2691.033 157 C 2673.033 162 2672.033 159 2680.033 129 C 2685.033 110 2694.033 76 2700.033 53 L 2711.033 10 L 2845.033 10 C 2980.033 10 2980.033 10 3012.033 39 C 3041.033 65 3045.033 75 3045.033 118 C 3045.033 154 3039.033 177 3023.033 198 L 3001.033 228 L 3022.033 246 C 3033.033 257 3046.033 274 3051.033 285 C 3058.033 299 3059.033 289 3055.033 254 C 3049.033 193 3062.033 150 3107.033 88 C 3151.033 27 3207.033 0 3288.033 0 C 3364.033 0 3406.033 16 3453.033 63 C 3566.033 177 3537.033 374 3397.033 443 C 3330.033 476 3275.033 483 3227.033 466 Z M 2903.033 318 C 2910.033 295 2899.033 280 2874.033 280 C 2855.033 280 2850.033 285 2850.033 305 C 2850.033 325 2855.033 330 2874.033 330 C 2887.033 330 2900.033 324 2903.033 318 Z M 3350.033 298 C 3400.033 244 3363.033 150 3291.033 150 C 3275.033 150 3251.033 159 3236.033 171 C 3215.033 187 3210.033 200 3210.033 235 C 3210.033 270 3215.033 283 3236.033 299 C 3271.033 327 3323.033 326 3350.033 298 Z M 2900.033 160 C 2900.033 145 2893.033 140 2875.033 140 C 2857.033 140 2850.033 145 2850.033 160 C 2850.033 175 2857.033 180 2875.033 180 C 2893.033 180 2900.033 175 2900.033 160 Z" style="fill: rgb(255, 255, 255);"/>
  <path d="M 1460.033 310 C 1460.033 166 1458.033 151 1443.033 157 C 1429.033 162 1428.033 158 1433.033 124 C 1437.033 103 1445.033 68 1451.033 46 L 1462.033 8 L 1568.033 11 C 1666.033 15 1679.033 18 1722.033 45 C 1747.033 61 1777.033 90 1788.033 109 L 1808.033 144 L 1824.033 90 C 1833.033 61 1840.033 30 1840.033 23 C 1840.033 14 1857.033 10 1898.033 10 C 1929.033 10 1999.033 7 2053.033 3 C 2129.033 -2 2150.033 0 2150.033 10 C 2150.033 17 2141.033 54 2130.033 91 L 2109.033 160 L 2050.033 160 C 2017.033 160 1990.033 164 1990.033 170 C 1990.033 176 2022.033 180 2065.033 180 C 2149.033 180 2148.033 179 2129.033 256 L 2117.033 302 L 2054.033 298 C 2008.033 296 1990.033 298 1990.033 308 C 1990.033 316 2013.033 320 2069.033 320 L 2148.033 320 L 2140.033 353 C 2135.033 370 2126.033 404 2120.033 428 L 2109.033 470 L 1975.033 470 L 1840.033 470 L 1840.033 315 C 1840.033 198 1837.033 160 1828.033 160 C 1819.033 160 1816.033 176 1819.033 217 C 1823.033 291 1809.033 336 1763.033 389 C 1709.033 452 1664.033 470 1553.033 470 L 1460.033 470 L 1460.033 310 Z M 1635.033 314 C 1660.033 304 1683.033 252 1675.033 221 C 1666.033 187 1642.033 160 1618.033 160 C 1602.033 160 1600.033 169 1600.033 240 C 1600.033 319 1603.033 326 1635.033 314 Z" style="fill: rgb(255, 255, 255);"/>
  <path d="M 2170.033 315 C 2170.033 181 2168.033 160 2154.033 160 C 2144.033 160 2140.033 154 2144.033 143 C 2147.033 133 2156.033 99 2165.033 68 L 2181.033 10 L 2295.033 10 C 2447.033 10 2488.033 27 2531.033 112 C 2562.033 172 2550.033 246 2500.033 303 L 2472.033 335 L 2511.033 400 L 2550.033 465 L 2467.033 468 C 2408.033 470 2383.033 467 2377.033 458 C 2373.033 451 2358.033 427 2345.033 405 C 2328.033 378 2321.033 372 2322.033 385 C 2323.033 396 2322.033 420 2322.033 438 L 2320.033 470 L 2245.033 470 L 2170.033 470 L 2170.033 315 Z M 2385.033 190 C 2385.033 170 2379.033 164 2358.033 162 C 2333.033 159 2330.033 162 2330.033 190 C 2330.033 218 2333.033 221 2358.033 218 C 2379.033 216 2385.033 210 2385.033 190 Z" style="fill: rgb(255, 255, 255);"/>
  <path d="M 3580.033 365 L 3580.033 260 L 3520.033 140 C 3487.033 74 3460.033 16 3460.033 10 C 3460.033 4 3492.033 0 3538.033 0 L 3616.033 0 L 3635.033 51 L 3655.033 102 L 3677.033 51 L 3700.033 0 L 3775.033 0 C 3819.033 0 3850.033 4 3850.033 10 C 3850.033 16 3823.033 74 3790.033 140 L 3730.033 260 L 3730.033 365 L 3730.033 470 L 3655.033 470 L 3580.033 470 L 3580.033 365 Z" style="fill: rgb(255, 255, 255);"/>
</svg>