<?xml version="1.0" encoding="utf-8"?>
<svg version="1.2" baseProfile="tiny" id="Layer_3" x="0px" y="0px" preserveAspectRatio="none" xmlns="http://www.w3.org/2000/svg">
  <path id="path3" d="M 365.473 231.816 C 361.788 231.816 358.796 234.808 358.796 238.493 L 358.796 308.107 C 358.796 311.793 361.788 314.798 365.473 314.798 L 619.407 314.798 C 623.093 314.798 626.085 311.792 626.085 308.107 L 626.085 238.493 C 626.085 234.808 623.093 231.816 619.407 231.816 L 515.328 231.816 L 515.328 232.763 L 619.407 232.763 C 622.581 232.763 625.137 235.319 625.137 238.492 L 625.137 308.107 C 625.137 311.28 622.58 313.851 619.407 313.851 L 365.473 313.851 C 362.3 313.851 359.743 311.28 359.743 308.107 L 359.743 238.493 C 359.743 235.32 362.3 232.764 365.473 232.764 L 489.437 232.764 L 489.437 231.816 L 365.473 231.816 L 365.473 231.816 Z" style="fill: rgb(30, 30, 30);" transform="matrix(0.965926, -0.258819, 0.258819, 0.965926, -53.957534, 136.765606)"/>
  <path id="path5" d="M 358.17 222.616 C 354.484 222.616 351.492 225.608 351.492 229.293 L 351.492 320.155 C 351.492 323.841 354.484 326.832 358.17 326.832 L 627.459 326.832 C 631.143 326.832 634.151 323.841 634.151 320.155 L 634.151 229.297 C 634.151 225.61 631.147 222.618 627.461 222.618 L 515.682 222.618 L 515.311 222.618 L 515.223 222.958 L 515.164 223.181 L 515.149 223.24 L 515.149 223.314 L 515.149 238.592 C 515.149 245.526 509.528 251.133 502.594 251.133 C 495.661 251.133 490.055 245.526 490.055 238.592 L 490.055 223.314 L 490.055 223.21 L 490.025 223.136 L 489.94 222.913 L 489.807 222.618 L 489.494 222.618 L 358.173 222.618 L 358.17 222.616 Z M 358.17 223.563 L 489.107 223.563 L 489.107 238.59 C 489.107 246.035 495.148 252.078 502.593 252.078 C 510.04 252.078 516.096 246.036 516.096 238.59 L 516.096 223.563 L 627.457 223.563 C 630.63 223.563 633.202 226.12 633.202 229.293 L 633.202 320.15 C 633.202 323.323 630.63 325.879 627.457 325.879 L 358.169 325.879 C 354.998 325.884 352.441 323.326 352.441 320.156 L 352.441 229.295 C 352.441 226.122 354.998 223.566 358.171 223.566 L 358.17 223.563 Z" style="fill: rgb(30, 30, 30);" transform="matrix(0.965926, -0.258819, 0.258819, 0.965926, -54.311298, 136.912509)"/>
  <path id="path7" d="M 479.16 230.839 L 479.16 237.145 C 479.16 245.343 485.813 251.995 494.01 251.995 C 502.208 251.995 508.874 245.343 508.874 237.145 L 508.874 230.883 L 507.926 230.883 L 507.926 237.145 C 507.926 244.831 501.695 251.048 494.01 251.048 C 486.324 251.048 480.108 244.831 480.108 237.145 L 480.108 230.839 L 479.16 230.839 Z" style="fill: rgb(30, 30, 30);" transform="matrix(0.965926, -0.258819, 0.258819, 0.965926, -45.650062, 136.086932)"/>
  <path id="line9" d="M 475.961 222.252 L 475.961 223.2 L 502.003 223.2 L 502.003 222.252 L 475.961 222.252 Z" style="fill: rgb(30, 30, 30);" transform="matrix(0.965926, -0.258819, 0.258819, 0.965926, -40.984046, 134.146903)"/>
  <path id="circle11" d="M 422.394 275.563 C 412.752 275.563 404.924 283.392 404.924 293.033 C 404.924 302.674 412.752 310.503 422.394 310.503 C 432.035 310.503 439.863 302.674 439.863 293.033 C 439.863 283.392 432.035 275.563 422.394 275.563 Z M 422.394 276.511 C 431.523 276.511 438.916 283.904 438.916 293.034 C 438.916 302.162 431.523 309.556 422.394 309.556 C 413.264 309.556 405.871 302.162 405.871 293.034 C 405.871 283.904 413.264 276.511 422.394 276.511 Z" style="fill: rgb(30, 30, 30);" transform="matrix(0.965926, -0.258819, 0.258819, 0.965926, -61.449884, 119.308548)"/>
  <path id="circle13" d="M 422.394 285.041 C 417.987 285.041 414.399 288.628 414.399 293.036 C 414.399 297.443 417.986 301.031 422.394 301.031 C 426.802 301.031 430.374 297.443 430.374 293.036 C 430.374 288.628 426.802 285.041 422.394 285.041 Z M 422.394 285.989 C 426.289 285.989 429.427 289.14 429.427 293.036 C 429.427 296.93 426.29 300.083 422.394 300.083 C 418.499 300.083 415.347 296.93 415.347 293.036 C 415.347 289.14 418.498 285.989 422.394 285.989 Z" style="fill: rgb(30, 30, 30);" transform="matrix(0.965926, -0.258819, 0.258819, 0.965926, -61.450807, 119.30656)"/>
  <path id="circle15" d="M 422.394 286.785 C 418.949 286.785 416.145 289.588 416.145 293.033 C 416.145 296.478 418.949 299.281 422.394 299.281 C 425.839 299.281 428.642 296.478 428.642 293.033 C 428.641 289.589 425.839 286.785 422.394 286.785 Z M 422.394 287.733 C 425.326 287.733 427.694 290.101 427.694 293.034 C 427.694 295.965 425.326 298.334 422.394 298.334 C 419.461 298.334 417.093 295.966 417.093 293.034 C 417.093 290.101 419.461 287.733 422.394 287.733 Z" style="fill: rgb(30, 30, 30);" transform="matrix(0.965926, -0.258819, 0.258819, 0.965926, -61.449793, 119.308272)"/>
  <path id="circle17" d="M 422.55 280.102 C 415.314 280.102 409.448 285.984 409.448 293.219 C 409.448 300.454 415.315 306.322 422.55 306.322 C 429.785 306.322 435.667 300.454 435.667 293.219 C 435.667 285.984 429.785 280.102 422.55 280.102 Z M 422.55 281.05 C 429.273 281.05 434.72 286.497 434.72 293.22 C 434.72 299.943 429.273 305.374 422.55 305.374 C 415.827 305.374 410.395 299.942 410.395 293.22 C 410.395 286.496 415.827 281.05 422.55 281.05 Z" style="fill: rgb(30, 30, 30);" transform="matrix(0.965926, -0.258819, 0.258819, 0.965926, -61.490594, 119.357021)"/>
  <path id="circle19" d="M 483.708 264.917 C 477.112 264.917 471.761 270.269 471.761 276.865 C 471.761 283.461 477.113 288.828 483.708 288.828 C 490.304 288.828 495.656 283.461 495.656 276.865 C 495.656 270.269 490.304 264.917 483.708 264.917 Z M 483.708 265.865 C 489.791 265.865 494.708 270.782 494.708 276.865 C 494.708 282.949 489.791 287.88 483.708 287.88 C 477.624 287.88 472.708 282.948 472.708 276.865 C 472.708 270.782 477.624 265.865 483.708 265.865 Z" style="fill: rgb(30, 30, 30);" transform="matrix(0.965926, -0.258819, 0.258819, 0.965926, -55.177888, 134.627099)"/>
  <path id="circle21" d="M 519.274 255.388 C 512.678 255.388 507.326 260.74 507.326 267.336 C 507.326 273.931 512.678 279.298 519.274 279.298 C 525.869 279.298 531.221 273.931 531.221 267.336 C 531.221 260.74 525.869 255.388 519.274 255.388 Z M 519.274 256.335 C 525.356 256.335 530.274 261.252 530.274 267.336 C 530.274 273.419 525.356 278.35 519.274 278.35 C 513.189 278.35 508.273 273.419 508.273 267.336 C 508.273 261.252 513.189 256.335 519.274 256.335 Z" style="fill: rgb(30, 30, 30);" transform="matrix(0.965926, -0.258819, 0.258819, 0.965926, -51.499632, 143.507277)"/>
  <path id="circle23" d="M 554.839 245.858 C 548.243 245.858 542.891 251.21 542.891 257.806 C 542.891 264.402 548.243 269.769 554.839 269.769 C 561.435 269.769 566.786 264.402 566.786 257.806 C 566.786 251.21 561.435 245.858 554.839 245.858 Z M 554.839 246.806 C 560.923 246.806 565.839 251.722 565.839 257.806 C 565.839 263.89 560.923 268.821 554.839 268.821 C 548.756 268.821 543.839 263.889 543.839 257.806 C 543.839 251.723 548.756 246.806 554.839 246.806 Z" style="fill: rgb(30, 30, 30);" transform="matrix(0.965926, -0.258819, 0.258819, 0.965926, -47.821366, 152.387469)"/>
  <path id="circle25" d="M 590.406 236.328 C 583.811 236.328 578.457 241.68 578.457 248.278 C 578.457 254.874 583.809 260.24 590.405 260.24 C 597 260.24 602.352 254.874 602.352 248.278 C 602.352 241.682 597 236.33 590.405 236.33 L 590.406 236.328 Z M 590.406 237.275 C 596.489 237.275 601.406 242.192 601.406 248.276 C 601.406 254.359 596.489 259.29 590.406 259.29 C 584.322 259.29 579.406 254.359 579.406 248.276 C 579.406 242.193 584.322 237.275 590.406 237.275 Z" style="fill: rgb(30, 30, 30);" transform="matrix(0.965926, -0.258819, 0.258819, 0.965926, -44.143067, 161.26791)"/>
  <path id="path27" d="M 422.292 267.309 C 415.226 267.309 408.834 270.169 404.199 274.8 C 399.569 279.434 396.71 285.826 396.709 292.892 C 396.71 299.958 399.569 306.349 404.199 310.984 C 408.834 315.616 415.225 318.474 422.292 318.475 C 429.359 318.474 435.749 315.615 440.384 310.984 C 445.015 306.35 447.874 299.959 447.875 292.892 C 447.874 285.826 445.015 279.434 440.384 274.8 C 435.75 270.169 429.36 267.309 422.291 267.309 L 422.292 267.309 Z M 422.292 268.257 C 429.103 268.257 435.254 271.005 439.717 275.467 C 444.179 279.931 446.927 286.082 446.927 292.892 C 446.927 299.703 444.178 305.839 439.717 310.303 C 435.254 314.764 429.103 317.527 422.292 317.527 C 415.481 317.527 409.331 314.764 404.867 310.303 C 400.407 305.84 397.659 299.705 397.658 292.892 C 397.659 286.082 400.407 279.932 404.867 275.467 C 409.329 271.005 415.484 268.257 422.292 268.257 L 422.292 268.257 Z" style="fill: rgb(30, 30, 30);" transform="matrix(0.965926, -0.258819, 0.258819, 0.965926, -61.416749, 119.277199)"/>
  <path id="path29" d="M 483.708 262.8 C 479.818 262.801 476.31 264.367 473.759 266.916 C 471.209 269.468 469.629 272.976 469.628 276.865 C 469.629 280.754 471.21 284.278 473.759 286.829 C 476.31 289.378 479.818 290.944 483.708 290.945 C 487.597 290.944 491.105 289.378 493.657 286.829 C 496.205 284.278 497.787 280.755 497.787 276.865 C 497.787 272.976 496.205 269.468 493.657 266.916 C 491.105 264.367 487.597 262.801 483.708 262.8 L 483.708 262.8 Z M 483.708 263.748 C 487.342 263.748 490.609 265.202 492.991 267.582 C 495.37 269.964 496.839 273.231 496.84 276.865 C 496.839 280.499 495.37 283.765 492.991 286.148 C 490.609 288.527 487.342 289.997 483.708 289.997 C 480.073 289.997 476.807 288.528 474.425 286.148 C 472.046 283.766 470.577 280.499 470.576 276.865 C 470.576 273.231 472.045 269.964 474.425 267.582 C 476.807 265.202 480.073 263.748 483.708 263.748 Z" style="fill: rgb(30, 30, 30);" transform="matrix(0.965926, -0.258819, 0.258819, 0.965926, -55.177922, 134.626836)"/>
  <path id="path31" d="M 519.274 253.271 C 515.383 253.271 511.876 254.838 509.325 257.387 C 506.775 259.938 505.195 263.446 505.194 267.336 C 505.195 271.225 506.775 274.748 509.325 277.3 C 511.875 279.849 515.383 281.415 519.274 281.415 C 523.162 281.414 526.67 279.848 529.223 277.3 C 531.771 274.748 533.352 271.225 533.353 267.336 C 533.352 263.446 531.771 259.938 529.223 257.387 C 526.67 254.838 523.163 253.271 519.274 253.271 L 519.274 253.271 Z M 519.274 254.218 C 522.907 254.219 526.174 255.673 528.556 258.053 C 530.935 260.434 532.405 263.7 532.405 267.336 C 532.405 270.97 530.935 274.236 528.556 276.618 C 526.174 278.998 522.907 280.467 519.274 280.468 C 515.639 280.467 512.372 278.998 509.991 276.618 C 507.612 274.237 506.142 270.97 506.142 267.336 C 506.143 263.7 507.612 260.435 509.991 258.053 C 512.372 255.673 515.639 254.219 519.274 254.218 Z" style="fill: rgb(30, 30, 30);" transform="matrix(0.965926, -0.258819, 0.258819, 0.965926, -51.499632, 143.507277)"/>
  <path id="path33" d="M 554.839 243.741 C 550.95 243.742 547.443 245.308 544.89 247.857 C 542.342 250.409 540.76 253.916 540.759 257.806 C 540.76 261.695 542.342 265.219 544.89 267.77 C 547.443 270.319 550.95 271.885 554.839 271.885 C 558.727 271.885 562.236 270.319 564.788 267.77 C 567.336 265.219 568.918 261.695 568.919 257.806 C 568.918 253.916 567.336 250.409 564.788 247.857 C 562.236 245.308 558.728 243.742 554.839 243.741 L 554.839 243.741 Z M 554.839 244.689 C 558.473 244.689 561.739 246.143 564.121 248.523 C 566.501 250.905 567.97 254.171 567.971 257.806 C 567.97 261.44 566.501 264.706 564.121 267.089 C 561.739 269.468 558.473 270.938 554.839 270.938 C 551.205 270.938 547.94 269.469 545.557 267.089 C 543.177 264.706 541.708 261.44 541.707 257.806 C 541.708 254.171 543.177 250.906 545.557 248.523 C 547.935 246.137 551.199 244.682 554.833 244.682 L 554.839 244.689 Z" style="fill: rgb(30, 30, 30);" transform="matrix(0.965926, -0.258819, 0.258819, 0.965926, -47.821218, 152.387576)"/>
  <path id="path35" d="M 590.406 234.211 C 586.517 234.212 583.008 235.778 580.457 238.327 C 577.908 240.879 576.326 244.387 576.326 248.276 C 576.326 252.165 577.908 255.689 580.457 258.24 C 583.008 260.789 586.517 262.355 590.406 262.355 C 594.294 262.354 597.802 260.789 600.355 258.24 C 602.903 255.689 604.483 252.165 604.485 248.276 C 604.484 244.387 602.903 240.879 600.355 238.327 C 597.803 235.778 594.295 234.213 590.406 234.211 L 590.406 234.211 Z M 590.406 235.159 C 594.04 235.16 597.305 236.613 599.688 238.993 C 602.068 241.375 603.537 244.641 603.538 248.276 C 603.537 251.91 602.068 255.176 599.688 257.559 C 597.305 259.938 594.04 261.407 590.406 261.408 C 586.771 261.407 583.505 259.939 581.123 257.559 C 578.743 255.176 577.274 251.91 577.274 248.276 C 577.274 244.641 578.743 241.375 581.123 238.993 C 583.505 236.613 586.771 235.159 590.406 235.159 Z" style="fill: rgb(30, 30, 30);" transform="matrix(0.965926, -0.258819, 0.258819, 0.965926, -44.142827, 161.268504)"/>
  <path id="path37" stroke="#F4F4F4" stroke-width="1.9333" d="M 448.546 287.545" style="fill: rgb(30, 30, 30);" transform="matrix(0.965926, -0.258819, 0.258819, 0.965926, -59.138269, 125.890025)"/>
  <path id="path39" d="M 419.524 243.019 C 403.595 243.021 390.671 255.946 390.669 271.874 C 390.67 287.802 403.594 300.728 419.524 300.729 C 434.742 300.727 447.191 288.92 448.275 273.976 L 465.76 273.976 C 466.609 282.762 473.988 289.638 482.993 289.639 C 491.995 289.638 499.373 282.757 500.227 273.976 L 502.58 273.976 C 503.434 282.757 510.812 289.637 519.814 289.639 C 528.815 289.637 536.178 282.756 537.032 273.976 L 539.4 273.976 C 540.252 282.759 547.631 289.638 556.634 289.639 C 565.637 289.638 573.016 282.76 573.867 273.976 L 576.221 273.976 C 577.076 282.756 584.453 289.638 593.453 289.639 C 603.027 289.638 610.788 281.862 610.789 272.288 C 610.788 262.714 603.027 254.951 593.453 254.951 C 584.743 254.951 577.539 261.382 576.309 269.755 L 573.763 269.755 C 572.531 261.378 565.344 254.948 556.633 254.946 C 547.921 254.948 540.733 261.378 539.503 269.751 L 536.942 269.751 C 535.711 261.377 528.523 254.946 519.812 254.946 C 511.102 254.947 503.913 261.376 502.683 269.751 L 500.122 269.751 C 498.887 261.383 491.699 254.948 482.992 254.946 C 474.283 254.948 467.095 261.379 465.863 269.751 L 448.275 269.751 C 447.192 254.806 434.743 243.015 419.524 243.013 L 419.524 243.019 Z M 419.524 243.967 C 434.381 243.969 446.508 255.565 447.371 270.202 L 447.371 270.217 L 447.386 270.247 L 447.386 270.705 L 447.86 270.705 L 466.204 270.705 L 466.382 270.705 L 466.515 270.602 L 466.559 270.573 L 466.692 270.454 L 466.722 270.261 C 467.722 262.163 474.619 255.902 482.992 255.901 C 491.354 255.902 498.246 262.152 499.264 270.232 L 499.278 270.321 L 499.323 270.41 L 499.367 270.484 L 499.515 270.706 L 499.782 270.706 L 503.068 270.706 L 503.468 270.706 L 503.527 270.306 L 503.542 270.203 C 504.573 262.137 511.462 255.902 519.813 255.901 C 528.176 255.902 535.07 262.147 536.084 270.233 L 536.098 270.366 L 536.187 270.47 L 536.232 270.543 L 536.38 270.706 L 536.602 270.706 L 539.874 270.706 L 540.214 270.706 L 540.318 270.381 L 540.347 270.307 L 540.362 270.262 L 540.362 270.218 C 541.4 262.135 548.288 255.898 556.649 255.897 C 565.012 255.897 571.9 262.135 572.918 270.213 L 572.918 270.228 L 572.933 270.302 L 572.992 270.702 L 573.392 270.702 L 576.708 270.702 L 577.019 270.702 L 577.137 270.421 L 577.152 270.376 L 577.182 270.317 L 577.196 270.243 C 578.203 262.151 585.099 255.897 593.467 255.897 C 602.529 255.897 609.855 263.223 609.856 272.285 C 609.855 281.347 602.529 288.688 593.467 288.69 C 584.815 288.688 577.732 282.005 577.108 273.515 L 577.108 273.396 L 577.049 273.308 L 577.019 273.263 L 576.885 273.026 L 576.619 273.026 L 573.48 273.026 L 573.066 273.026 L 573.007 273.441 L 573.007 273.486 L 572.992 273.5 L 572.992 273.514 C 572.362 282 565.293 288.689 556.643 288.689 C 547.984 288.688 540.899 281.982 540.284 273.484 L 540.284 273.336 L 540.18 273.217 L 540.166 273.203 L 540.018 273.025 L 539.796 273.025 L 536.686 273.025 L 536.479 273.025 L 536.346 273.173 L 536.302 273.217 L 536.184 273.336 L 536.169 273.513 C 535.545 282.003 528.477 288.686 519.823 288.688 C 511.175 288.686 504.094 282.01 503.464 273.528 L 503.464 273.483 L 503.464 273.454 L 503.449 273.394 L 503.361 273.024 L 502.99 273.024 L 499.866 273.024 L 499.6 273.024 L 499.467 273.261 L 499.422 273.335 L 499.363 273.424 L 499.348 273.542 C 498.711 282.018 491.646 288.686 483.004 288.687 C 474.387 288.686 467.332 282.057 466.658 273.616 C 466.658 273.619 466.657 273.581 466.658 273.572 L 466.658 273.542 C 466.658 273.501 466.661 273.453 466.629 273.364 C 466.596 273.276 466.513 273.147 466.392 273.083 L 466.274 273.024 L 466.155 273.024 L 447.872 273.024 L 447.398 273.024 L 447.398 273.498 L 447.398 273.512 L 447.398 273.527 C 446.54 288.171 434.397 299.775 419.535 299.776 C 404.1 299.762 391.612 287.274 391.611 271.858 C 391.612 256.441 404.101 243.952 419.518 243.951 L 419.524 243.967 Z" style="fill: rgb(30, 30, 30);" transform="matrix(0.965926, -0.258819, 0.258819, 0.965926, -53.303446, 138.861912)"/>
  <path id="path41" stroke="#F4F4F4" stroke-width="1.9333" d="M 467.755 282.388" style="fill: rgb(30, 30, 30);" transform="matrix(0.965926, -0.258819, 0.258819, 0.965926, -57.149008, 130.685969)"/>
</svg>