<?xml version="1.0" encoding="utf-8"?>
<svg version="1.2" baseProfile="tiny" id="Layer_3" x="0px" y="0px" viewBox="0 0 1280 720" preserveAspectRatio="none" xmlns="http://www.w3.org/2000/svg">
  <path id="path3" d="M 387.699 274.991 C 380.398 274.991 374.47 280.919 374.47 288.22 L 374.47 426.139 C 374.47 433.441 380.398 439.396 387.699 439.396 L 890.791 439.396 C 898.092 439.396 904.021 433.44 904.021 426.139 L 904.021 288.22 C 904.021 280.919 898.092 274.991 890.791 274.991 L 684.59 274.991 L 684.59 276.868 L 890.791 276.868 C 897.078 276.868 902.143 281.932 902.143 288.219 L 902.143 426.138 C 902.143 432.425 897.077 437.518 890.791 437.518 L 387.699 437.518 C 381.412 437.518 376.347 432.425 376.347 426.138 L 376.347 288.22 C 376.347 281.934 381.412 276.869 387.699 276.869 L 633.294 276.869 L 633.294 274.992 L 387.699 274.992 L 387.699 274.991 Z" style="fill: rgb(30, 30, 30);" transform="matrix(0.965926, -0.258819, 0.258819, 0.965926, -70.66671, 177.619977)"/>
  <path id="path5" d="M 373.229 256.764 C 365.928 256.764 360 262.692 360 269.994 L 360 450.008 C 360 457.31 365.928 463.237 373.229 463.236 L 906.742 463.236 C 914.042 463.236 920 457.31 920 450.008 L 920 270.002 C 920 262.696 914.049 256.769 906.746 256.769 L 685.291 256.769 L 684.557 256.769 L 684.382 257.443 L 684.264 257.884 L 684.236 258.001 L 684.236 258.148 L 684.236 288.417 C 684.236 302.154 673.099 313.262 659.362 313.262 C 645.626 313.262 634.519 302.154 634.519 288.417 L 634.519 258.147 L 634.519 257.942 L 634.46 257.795 L 634.291 257.354 L 634.028 256.768 L 633.408 256.768 L 373.236 256.768 L 373.229 256.764 Z M 373.229 258.641 L 632.641 258.641 L 632.641 288.412 C 632.641 303.163 644.61 315.135 659.36 315.135 C 674.113 315.135 686.112 303.165 686.112 288.412 L 686.112 258.641 L 906.739 258.641 C 913.025 258.641 918.12 263.707 918.12 269.994 L 918.12 449.999 C 918.12 456.285 913.025 461.349 906.739 461.349 L 373.228 461.349 C 366.945 461.359 361.88 456.291 361.88 450.011 L 361.88 269.998 C 361.88 263.71 366.945 258.647 373.232 258.647 L 373.229 258.641 Z" style="fill: rgb(30, 30, 30);" transform="matrix(0.965926, -0.258819, 0.258819, 0.965926, -71.367383, 177.910885)"/>
  <path id="path7" d="M 612.935 273.056 L 612.935 285.549 C 612.935 301.792 626.115 314.97 642.355 314.97 C 658.596 314.97 671.804 301.792 671.804 285.549 L 671.804 273.143 L 669.926 273.143 L 669.926 285.549 C 669.926 300.776 657.581 313.093 642.354 313.093 C 627.127 313.093 614.812 300.777 614.812 285.549 L 614.812 273.056 L 612.935 273.056 Z" style="fill: rgb(30, 30, 30);" transform="matrix(0.965926, -0.258819, 0.258819, 0.965926, -54.207967, 176.275808)"/>
  <path id="line9" d="M 606.597 256.043 L 606.597 257.921 L 658.191 257.921 L 658.191 256.043 L 606.597 256.043 Z" style="fill: rgb(30, 30, 30);" transform="matrix(0.965926, -0.258819, 0.258819, 0.965926, -44.963531, 172.432046)"/>
  <path id="circle11" d="M 500.469 361.663 C 481.367 361.663 465.858 377.174 465.858 396.275 C 465.858 415.376 481.367 430.886 500.469 430.886 C 519.571 430.886 535.08 415.376 535.08 396.275 C 535.08 377.174 519.571 361.663 500.469 361.663 Z M 500.469 363.541 C 518.556 363.541 533.203 378.188 533.203 396.276 C 533.203 414.361 518.556 429.01 500.469 429.01 C 482.382 429.01 467.735 414.361 467.735 396.276 C 467.735 378.188 482.382 363.541 500.469 363.541 Z" style="fill: rgb(30, 30, 30);" transform="matrix(0.965926, -0.258819, 0.258819, 0.965926, -85.510313, 143.033621)"/>
  <path id="circle13" d="M 500.47 380.44 C 491.738 380.44 484.631 387.548 484.631 396.28 C 484.631 405.011 491.737 412.119 500.47 412.119 C 509.202 412.119 516.28 405.012 516.28 396.28 C 516.279 387.548 509.202 380.44 500.47 380.44 Z M 500.47 382.318 C 508.187 382.318 514.403 388.562 514.403 396.28 C 514.403 403.996 508.188 410.242 500.47 410.242 C 492.753 410.242 486.509 403.996 486.509 396.28 C 486.509 388.562 492.752 382.318 500.47 382.318 Z" style="fill: rgb(30, 30, 30);" transform="matrix(0.965926, -0.258819, 0.258819, 0.965926, -85.512082, 143.030342)"/>
  <path id="circle15" d="M 500.469 383.897 C 493.644 383.897 488.09 389.45 488.09 396.275 C 488.09 403.099 493.644 408.653 500.469 408.653 C 507.294 408.653 512.848 403.1 512.848 396.275 C 512.847 389.451 507.294 383.897 500.469 383.897 Z M 500.469 385.775 C 506.279 385.775 510.971 390.465 510.971 396.276 C 510.971 402.084 506.279 406.776 500.469 406.776 C 494.659 406.776 489.968 402.085 489.968 396.276 C 489.968 390.466 494.658 385.775 500.469 385.775 Z" style="fill: rgb(30, 30, 30);" transform="matrix(0.965926, -0.258819, 0.258819, 0.965926, -85.510406, 143.033526)"/>
  <path id="circle17" d="M 500.778 370.655 C 486.444 370.655 474.821 382.309 474.821 396.643 C 474.821 410.977 486.446 422.602 500.778 422.602 C 515.113 422.602 526.767 410.976 526.767 396.643 C 526.767 382.309 515.113 370.655 500.778 370.655 Z M 500.778 372.533 C 514.098 372.533 524.89 383.325 524.89 396.644 C 524.89 409.964 514.098 420.725 500.778 420.725 C 487.459 420.725 476.698 409.963 476.698 396.644 C 476.698 383.324 487.459 372.533 500.778 372.533 Z" style="fill: rgb(30, 30, 30);" transform="matrix(0.965926, -0.258819, 0.258819, 0.965926, -85.59086, 143.129814)"/>
  <path id="circle19" d="M 621.944 340.572 C 608.877 340.572 598.275 351.175 598.275 364.243 C 598.275 377.31 608.878 387.943 621.944 387.943 C 635.012 387.943 645.615 377.31 645.615 364.243 C 645.615 351.175 635.012 340.572 621.944 340.572 Z M 621.944 342.449 C 633.997 342.449 643.738 352.19 643.738 364.243 C 643.738 376.296 633.997 386.065 621.944 386.065 C 609.891 386.065 600.151 376.295 600.151 364.243 C 600.151 352.191 609.891 342.449 621.944 342.449 Z" style="fill: rgb(30, 30, 30);" transform="matrix(0.965926, -0.258819, 0.258819, 0.965926, -73.084517, 173.382981)"/>
  <path id="circle21" d="M 692.407 321.692 C 679.34 321.692 668.736 332.295 668.736 345.363 C 668.736 358.43 679.34 369.063 692.407 369.063 C 705.474 369.063 716.077 358.43 716.077 345.363 C 716.077 332.295 705.474 321.692 692.407 321.692 Z M 692.407 323.569 C 704.458 323.569 714.2 333.31 714.2 345.363 C 714.2 357.416 704.458 367.185 692.407 367.185 C 680.353 367.185 670.613 357.415 670.613 345.363 C 670.613 333.311 680.353 323.569 692.407 323.569 Z" style="fill: rgb(30, 30, 30);" transform="matrix(0.965926, -0.258819, 0.258819, 0.965926, -65.797094, 190.976427)"/>
  <path id="circle23" d="M 762.869 302.812 C 749.801 302.812 739.198 313.415 739.198 326.483 C 739.198 339.55 749.801 350.183 762.869 350.183 C 775.936 350.183 786.539 339.55 786.539 326.483 C 786.539 313.415 775.936 302.812 762.869 302.812 Z M 762.869 304.689 C 774.922 304.689 784.662 314.43 784.662 326.483 C 784.662 338.536 774.922 348.305 762.869 348.305 C 750.817 348.305 741.075 338.535 741.075 326.483 C 741.075 314.431 750.817 304.689 762.869 304.689 Z" style="fill: rgb(30, 30, 30);" transform="matrix(0.965926, -0.258819, 0.258819, 0.965926, -58.509657, 208.57003)"/>
  <path id="circle25" d="M 833.334 283.931 C 820.268 283.931 809.66 294.534 809.66 307.607 C 809.66 320.674 820.264 331.306 833.332 331.306 C 846.398 331.306 857.001 320.674 857.001 307.607 C 857.001 294.539 846.398 283.936 833.332 283.936 L 833.334 283.931 Z M 833.334 285.808 C 845.385 285.808 855.126 295.549 855.126 307.602 C 855.126 319.655 845.385 329.424 833.334 329.424 C 821.28 329.424 811.54 319.654 811.54 307.602 C 811.54 295.55 821.28 285.808 833.334 285.808 Z" style="fill: rgb(30, 30, 30);" transform="matrix(0.965926, -0.258819, 0.258819, 0.965926, -51.222459, 226.16339)"/>
  <path id="path27" d="M 500.267 345.31 C 486.268 345.31 473.605 350.976 464.423 360.152 C 455.249 369.333 449.584 381.997 449.582 395.995 C 449.585 409.995 455.249 422.657 464.423 431.839 C 473.605 441.016 486.267 446.679 500.267 446.68 C 514.268 446.678 526.929 441.014 536.111 431.839 C 545.287 422.659 550.951 409.997 550.952 395.995 C 550.951 381.997 545.287 369.333 536.111 360.152 C 526.931 350.977 514.27 345.311 500.265 345.31 L 500.267 345.31 Z M 500.267 347.188 C 513.761 347.189 525.947 352.633 534.79 361.472 C 543.63 370.317 549.074 382.504 549.074 395.995 C 549.074 409.49 543.629 421.645 534.79 430.489 C 525.947 439.327 513.761 444.801 500.267 444.802 C 486.774 444.802 474.589 439.327 465.745 430.489 C 456.909 421.648 451.466 409.493 451.464 395.995 C 451.466 382.503 456.91 370.318 465.745 361.472 C 474.586 352.632 486.779 347.188 500.267 347.188 L 500.267 347.188 Z" style="fill: rgb(30, 30, 30);" transform="matrix(0.965926, -0.258819, 0.258819, 0.965926, -85.444806, 142.971723)"/>
  <path id="path29" d="M 621.944 336.378 C 614.238 336.379 607.288 339.481 602.233 344.532 C 597.182 349.587 594.052 356.537 594.05 364.243 C 594.051 371.948 597.183 378.929 602.233 383.984 C 607.288 389.034 614.238 392.136 621.944 392.137 C 629.65 392.136 636.6 389.033 641.655 383.984 C 646.704 378.929 649.837 371.949 649.838 364.243 C 649.837 356.538 646.704 349.588 641.655 344.532 C 636.6 339.482 629.65 336.379 621.944 336.378 L 621.944 336.378 Z M 621.944 338.255 C 629.145 338.256 635.616 341.136 640.336 345.852 C 645.05 350.571 647.96 357.042 647.962 364.243 C 647.96 371.443 645.05 377.913 640.336 382.634 C 635.616 387.348 629.144 390.259 621.944 390.26 C 614.743 390.259 608.273 387.349 603.554 382.634 C 598.839 377.914 595.929 371.443 595.928 364.243 C 595.928 357.042 598.838 350.571 603.554 345.852 C 608.272 341.136 614.743 338.256 621.944 338.255 Z" style="fill: rgb(30, 30, 30);" transform="matrix(0.965926, -0.258819, 0.258819, 0.965926, -73.084553, 173.382712)"/>
  <path id="path31" d="M 692.407 317.498 C 684.699 317.499 677.75 320.603 672.696 325.652 C 667.645 330.707 664.514 337.657 664.512 345.363 C 664.514 353.068 667.645 360.049 672.696 365.104 C 677.748 370.154 684.699 373.256 692.407 373.257 C 700.11 373.255 707.061 370.153 712.118 365.104 C 717.166 360.049 720.299 353.069 720.301 345.363 C 720.299 337.657 717.166 330.707 712.118 325.652 C 707.061 320.603 700.112 317.499 692.407 317.498 L 692.407 317.498 Z M 692.407 319.375 C 699.606 319.376 706.077 322.257 710.797 326.972 C 715.511 331.69 718.423 338.161 718.423 345.363 C 718.422 352.563 715.511 359.034 710.797 363.754 C 706.077 368.468 699.606 371.378 692.407 371.38 C 685.206 371.378 678.733 368.468 674.017 363.754 C 669.302 359.035 666.391 352.563 666.391 345.363 C 666.392 338.161 669.302 331.691 674.017 326.972 C 678.733 322.258 685.206 319.376 692.407 319.375 Z" style="fill: rgb(30, 30, 30);" transform="matrix(0.965926, -0.258819, 0.258819, 0.965926, -65.797094, 190.976427)"/>
  <path id="path33" d="M 762.869 298.618 C 755.163 298.619 748.216 301.723 743.158 306.772 C 738.109 311.828 734.976 318.777 734.974 326.483 C 734.976 334.187 738.109 341.169 743.158 346.224 C 748.216 351.273 755.163 354.376 762.869 354.377 C 770.572 354.376 777.523 351.273 782.58 346.224 C 787.628 341.169 790.761 334.188 790.763 326.483 C 790.761 318.777 787.628 311.829 782.58 306.772 C 777.523 301.723 770.574 298.619 762.869 298.618 L 762.869 298.618 Z M 762.869 300.495 C 770.068 300.496 776.539 303.377 781.259 308.092 C 785.973 312.811 788.884 319.281 788.885 326.483 C 788.883 333.682 785.973 340.153 781.259 344.874 C 776.539 349.588 770.068 352.499 762.869 352.5 C 755.67 352.499 749.2 349.589 744.479 344.874 C 739.765 340.154 736.853 333.682 736.852 326.483 C 736.854 319.282 739.765 312.812 744.479 308.092 C 749.19 303.364 755.657 300.481 762.856 300.481 L 762.869 300.495 Z" style="fill: rgb(30, 30, 30);" transform="matrix(0.965926, -0.258819, 0.258819, 0.965926, -58.509657, 208.57003)"/>
  <path id="path35" d="M 833.334 279.737 C 825.628 279.738 818.676 282.841 813.623 287.891 C 808.572 292.947 805.438 299.897 805.438 307.602 C 805.438 315.307 808.572 322.288 813.623 327.343 C 818.676 332.392 825.628 335.495 833.334 335.496 C 841.037 335.494 847.986 332.392 853.045 327.343 C 858.092 322.288 861.223 315.308 861.227 307.602 C 861.225 299.897 858.092 292.948 853.045 287.891 C 847.988 282.841 841.039 279.74 833.334 279.737 L 833.334 279.737 Z M 833.334 281.614 C 840.533 281.616 847.001 284.495 851.724 289.211 C 856.438 293.93 859.349 300.401 859.35 307.602 C 859.348 314.802 856.438 321.272 851.724 325.993 C 847.003 330.707 840.533 333.617 833.334 333.619 C 826.133 333.617 819.661 330.708 814.942 325.993 C 810.228 321.273 807.316 314.802 807.316 307.602 C 807.316 300.401 810.227 293.931 814.942 289.211 C 819.661 284.495 826.133 281.615 833.334 281.614 Z" style="fill: rgb(30, 30, 30);" transform="matrix(0.965926, -0.258819, 0.258819, 0.965926, -51.221899, 226.164096)"/>
  <path id="path37" stroke="#F4F4F4" stroke-width="1.9333" d="M 552.282 385.401" style="fill: rgb(30, 30, 30);" transform="matrix(0.965926, -0.258819, 0.258819, 0.965926, -80.930508, 156.073138)"/>
  <path id="path39" d="M 494.783 297.188 C 463.225 297.191 437.62 322.797 437.617 354.354 C 437.619 385.911 463.224 411.519 494.783 411.521 C 524.933 411.518 549.597 388.125 551.746 358.518 L 586.386 358.518 C 588.068 375.925 602.688 389.549 620.528 389.55 C 638.363 389.549 652.979 375.916 654.671 358.518 L 659.334 358.518 C 661.025 375.915 675.642 389.547 693.477 389.55 C 711.31 389.547 725.898 375.913 727.59 358.518 L 732.282 358.518 C 733.969 375.919 748.588 389.549 766.425 389.55 C 784.262 389.549 798.88 375.921 800.567 358.518 L 805.23 358.518 C 806.925 375.914 821.539 389.549 839.371 389.55 C 858.339 389.549 873.715 374.142 873.717 355.174 C 873.715 336.207 858.339 320.827 839.371 320.827 C 822.115 320.827 807.842 333.568 805.405 350.157 L 800.361 350.157 C 797.92 333.559 783.681 320.82 766.422 320.817 C 749.162 320.82 734.923 333.559 732.485 350.148 L 727.411 350.148 C 724.972 333.558 710.731 320.817 693.474 320.817 C 676.217 320.818 661.975 333.556 659.537 350.148 L 654.463 350.148 C 652.017 333.569 637.777 320.82 620.527 320.817 C 603.272 320.821 589.031 333.561 586.59 350.148 L 551.746 350.148 C 549.6 320.54 524.935 297.179 494.783 297.175 L 494.783 297.188 Z M 494.783 299.066 C 524.219 299.069 548.244 322.043 549.955 351.041 L 549.955 351.071 L 549.984 351.13 L 549.984 352.039 L 550.923 352.039 L 587.265 352.039 L 587.618 352.039 L 587.882 351.834 L 587.969 351.776 L 588.233 351.541 L 588.292 351.159 C 590.274 335.115 603.937 322.71 620.527 322.708 C 637.092 322.711 650.747 335.094 652.764 351.101 L 652.792 351.277 L 652.88 351.453 L 652.969 351.6 L 653.262 352.04 L 653.79 352.04 L 660.301 352.04 L 661.093 352.04 L 661.21 351.248 L 661.24 351.043 C 663.282 335.063 676.93 322.71 693.475 322.709 C 710.045 322.71 723.703 335.083 725.711 351.103 L 725.739 351.367 L 725.916 351.572 L 726.004 351.718 L 726.297 352.041 L 726.737 352.041 L 733.22 352.041 L 733.894 352.041 L 734.099 351.396 L 734.158 351.249 L 734.187 351.161 L 734.187 351.074 C 736.243 335.059 749.889 322.702 766.455 322.7 C 783.023 322.701 796.669 335.059 798.687 351.064 L 798.687 351.093 L 798.716 351.24 L 798.833 352.032 L 799.625 352.032 L 806.195 352.032 L 806.812 352.032 L 807.046 351.475 L 807.075 351.386 L 807.134 351.269 L 807.163 351.122 C 809.158 335.092 822.819 322.7 839.398 322.7 C 857.351 322.7 871.866 337.215 871.868 355.169 C 871.866 373.123 857.351 387.667 839.398 387.669 C 822.256 387.667 808.225 374.425 806.987 357.605 L 806.987 357.37 L 806.87 357.195 L 806.811 357.106 L 806.547 356.637 L 806.019 356.637 L 799.801 356.637 L 798.979 356.637 L 798.862 357.459 L 798.862 357.547 L 798.833 357.575 L 798.833 357.604 C 797.585 374.415 783.58 387.668 766.442 387.668 C 749.287 387.666 735.25 374.381 734.032 357.544 L 734.032 357.251 L 733.827 357.016 L 733.798 356.987 L 733.505 356.634 L 733.065 356.634 L 726.905 356.634 L 726.494 356.634 L 726.23 356.928 L 726.143 357.016 L 725.909 357.251 L 725.879 357.602 C 724.644 374.422 710.64 387.662 693.496 387.666 C 676.362 387.662 662.333 374.436 661.085 357.631 L 661.085 357.543 L 661.085 357.484 L 661.056 357.366 L 660.88 356.633 L 660.146 356.633 L 653.957 356.633 L 653.429 356.633 L 653.166 357.102 L 653.077 357.249 L 652.961 357.425 L 652.931 357.659 C 651.669 374.452 637.672 387.663 620.55 387.665 C 603.477 387.663 589.501 374.528 588.166 357.805 C 588.166 357.811 588.164 357.737 588.166 357.718 L 588.166 357.659 C 588.166 357.577 588.172 357.482 588.108 357.307 C 588.043 357.131 587.878 356.876 587.639 356.75 L 587.404 356.632 L 587.169 356.632 L 550.946 356.632 L 550.007 356.632 L 550.007 357.571 L 550.007 357.599 L 550.007 357.629 C 548.308 386.641 524.25 409.631 494.805 409.634 C 464.226 409.606 439.484 384.864 439.482 354.322 C 439.484 323.778 464.227 299.036 494.771 299.033 L 494.783 299.066 Z" style="fill: rgb(30, 30, 30);" transform="matrix(0.965926, -0.258819, 0.258819, 0.965926, -69.370723, 181.773317)"/>
  <path id="path41" stroke="#F4F4F4" stroke-width="1.9333" d="M 590.338 375.185" style="fill: rgb(30, 30, 30);" transform="matrix(0.965926, -0.258819, 0.258819, 0.965926, -76.989744, 165.574829)"/>
</svg>