<?xml version="1.0" encoding="utf-8"?>
<svg version="1.1" id="Ebene_1" x="0px" y="0px" enable-background="new 0 -13.883 566.929 170.079" xmlns="http://www.w3.org/2000/svg">
  <path d="M 84.87 27.256 C 79.621 32.507 79.621 41.017 84.87 46.269 C 90.121 51.517 98.631 51.517 103.882 46.269 C 108.422 41.728 109.034 34.749 105.723 29.55 L 98.491 36.782 C 98.485 37.83 98.085 38.875 97.287 39.673 C 95.679 41.278 93.073 41.278 91.465 39.673 C 89.86 38.065 89.86 35.46 91.465 33.852 C 93.073 32.246 95.679 32.246 97.287 33.852 L 97.41 33.983 L 104.009 27.385 L 103.883 27.256 C 98.631 22.008 90.121 22.008 84.87 27.256 Z" id="path3" style="fill-opacity: 1; fill: rgb(255, 255, 255);"/>
  <path d="M 32.491 50.151 L 64.982 13.166 L 51.424 13.166 L 30.656 34.31 C 30.022 34.955 28.993 34.955 28.359 34.31 C 27.726 33.666 27.726 32.617 28.359 31.97 L 46.831 13.166 L 0 13.166 L 32.491 50.151 Z" id="path5" style="fill-opacity: 1; fill: rgb(255, 255, 255);"/>
  <path d="M 177.495 36.702 L 166.243 49.931 L 175.437 49.931 L 184.197 41.013 C 184.705 40.496 185.528 40.496 186.036 41.013 C 186.543 41.528 186.543 42.365 186.036 42.884 L 179.114 49.933 L 200 49.933 L 188.749 36.703 L 200 23.474 L 190.806 23.474 L 182.046 32.393 C 181.538 32.912 180.716 32.912 180.208 32.393 C 179.7 31.877 179.7 31.041 180.208 30.522 L 187.13 23.474 L 166.243 23.474 L 177.495 36.702 Z" id="path7" style="fill-opacity: 1; fill: rgb(255, 255, 255);"/>
  <path d="M 125.709 23.473 L 125.709 49.932 L 134.153 49.932 L 134.153 32.735 L 140.556 32.735 L 148.432 23.473 L 139.239 23.473 L 130.476 32.392 C 129.971 32.911 129.148 32.911 128.641 32.392 C 128.133 31.877 128.133 31.04 128.641 30.521 L 135.562 23.473 L 125.709 23.473 L 125.709 23.473 Z" id="path9" style="fill-opacity: 1; fill: rgb(255, 255, 255);"/>
  <path d="M 119.413 23.586 L 124.516 23.586 L 132.945 14.875 L 119.414 14.875 L 119.414 0 L 98.83 23.586 L 107.832 23.586 L 113.996 17.86 C 114.504 17.344 115.327 17.344 115.831 17.86 C 116.339 18.379 116.339 19.215 115.831 19.732 L 110.97 24.684 L 110.97 49.932 L 119.415 49.932 L 119.415 23.586 L 119.413 23.586 Z" id="path11" style="fill-opacity: 1; fill: rgb(255, 255, 255);"/>
  <path d="M 56.063 27.256 C 50.815 32.507 50.815 41.017 56.063 46.269 C 61.314 51.517 69.824 51.517 75.075 46.269 C 79.616 41.728 80.228 34.749 76.916 29.55 L 69.684 36.782 C 69.679 37.83 69.278 38.875 68.48 39.673 C 67.16 40.99 65.171 41.225 63.613 40.384 L 75.871 28.126 C 75.66 27.874 74.31 26.535 73.904 26.214 C 68.628 22.033 60.938 22.381 56.063 27.256 Z M 61.769 38.348 C 61.147 36.856 61.443 35.067 62.658 33.852 C 63.874 32.637 65.663 32.34 67.155 32.963 L 61.769 38.348 Z" id="path13" style="fill-opacity: 1; fill: rgb(255, 255, 255);"/>
  <path d="M 147.695 27.256 C 142.447 32.507 142.447 41.017 147.695 46.269 C 152.947 51.517 161.457 51.517 166.708 46.269 C 171.249 41.728 171.861 34.749 168.55 29.55 L 161.318 36.782 C 161.312 37.83 160.913 38.875 160.114 39.673 C 158.795 40.99 156.805 41.225 155.247 40.384 L 167.505 28.126 C 167.293 27.874 165.943 26.535 165.538 26.214 C 160.261 22.033 152.571 22.381 147.695 27.256 Z M 153.402 38.348 C 152.779 36.856 153.075 35.067 154.291 33.852 C 155.506 32.637 157.296 32.34 158.787 32.963 L 153.402 38.348 Z" id="path15" style="fill-opacity: 1; fill: rgb(255, 255, 255);"/>
</svg>