<?xml version="1.0" encoding="utf-8"?>
<svg id="svgRoot" version="1.0" xmlns="http://www.w3.org/2000/svg">
  <path d="M 0 1.344 L 0 27.37 L 5.574 27.37 L 5.574 72.013 L 0 72.013 L 0 97.882 L 26.435 97.882 L 26.435 72.232 L 23.382 72.232 L 23.382 53.839 L 33.062 53.839 L 33.062 72.271 L 30.044 72.271 L 30.044 97.882 L 57.893 97.882 L 57.893 71.979 L 51.665 71.979 L 51.665 27.37 L 57.244 27.37 L 57.244 1.344 L 30.058 1.344 L 30.058 27.37 L 33.082 27.37 L 33.082 43.423 L 23.416 43.423 L 23.416 27.37 L 26.43 27.37 L 26.43 1.305 L 0 1.344 Z" class="ps00 ps10" id="path61" style="fill-rule: nonzero; stroke: none; stroke-width: 1; stroke-linecap: butt; stroke-linejoin: miter; stroke-miterlimit: 10; stroke-dasharray: none; fill: rgb(255, 255, 255);"/>
  <path d="M 62.618 1.456 L 89.38 1.456 L 89.38 27.37 L 85.293 27.37 L 85.293 67.814 C 85.293 75.841 96.816 75.251 96.816 67.814 L 96.816 27.37 L 92.998 27.37 L 92.998 1.456 L 116.151 1.456 L 116.151 27.37 L 110.197 27.37 L 110.197 85.955 C 110.192 103.266 67.821 103.456 67.821 85.955 L 67.821 27.37 L 62.618 27.37 L 62.618 1.456" class="ps00 ps10" id="path63" style="fill-rule: nonzero; stroke: none; stroke-width: 1; stroke-linecap: butt; stroke-linejoin: miter; stroke-miterlimit: 10; stroke-dasharray: none; fill: rgb(255, 255, 255);"/>
  <path d="M 282.568 27.37 L 282.568 1.456 L 308.218 1.456 L 327.138 65.284 L 327.138 27.326 L 320.848 27.326 L 320.848 1.456 L 345.815 1.456 L 345.815 27.37 L 339.427 27.37 L 339.427 97.882 L 321.579 97.882 L 300.757 26.921 L 300.757 71.979 L 307.828 71.979 L 307.828 97.882 L 281.739 97.882 L 281.739 72.013 L 287.737 72.013 L 287.737 27.37 L 282.568 27.37 Z" class="ps00 ps10" id="path65" style="fill-rule: nonzero; stroke: none; stroke-width: 1; stroke-linecap: butt; stroke-linejoin: miter; stroke-miterlimit: 10; stroke-dasharray: none; fill: rgb(255, 255, 255);"/>
  <path d="M 182.231 41.643 C 180.593 39.263 179.296 35.903 179.296 30.788 L 179.296 14.579 C 179.296 0.081 194.451 -4.932 206.447 5.655 L 206.447 1.456 L 222.393 1.456 L 222.393 35.396 L 207.569 35.396 L 207.569 31.529 C 207.569 24.38 196.792 24.395 196.402 31.232 C 196.012 38.068 202.351 40.75 206.789 43.13 C 211.275 45.51 225.368 50.42 225.368 67.068 L 225.368 84.765 C 225.368 99.794 207.569 104.617 196.402 91.753 L 196.402 97.882 L 180.042 97.882 L 180.042 61.568 L 195.28 61.568 L 195.28 67.215 C 195.28 74.524 207.179 74.334 207.179 67.517 L 207.13 64.542 C 206.74 60.973 205.667 58.593 200.84 55.619 C 196.207 52.751 187.478 46.997 184.869 44.617 C 183.987 43.813 183.07 42.857 182.231 41.643" class="ps00" id="path73" style="fill-rule: nonzero; stroke: none; fill: rgb(255, 255, 255);"/>
  <path d="M 121.535 1.412 L 154.567 1.412 C 164.613 1.412 173.897 9.527 173.897 17.407 L 173.897 81.034 C 173.897 92.465 162.711 97.848 154.899 97.848 L 121.115 97.848 L 121.115 72.271 L 126.689 72.271 L 126.689 27.37 L 121.486 27.37 L 121.535 1.412 M 144.585 27.37 L 144.537 71.677 L 150.491 71.677 C 153.392 71.677 155.318 67.97 155.318 66.078 L 155.318 33.016 C 155.318 30.939 152.812 27.37 150.622 27.37 L 144.585 27.37" class="ps00 ps10" id="path75" style="fill-rule: nonzero; stroke: none; stroke-width: 1; stroke-linecap: butt; stroke-linejoin: miter; stroke-miterlimit: 10; stroke-dasharray: none; fill: rgb(255, 255, 255);"/>
  <path d="M 230.781 18.846 C 230.781 -6.283 276.424 -5.897 276.424 18.729 L 276.424 79.508 C 276.424 105.387 230.732 105.582 230.732 80.108 L 230.781 18.846 M 247.75 66.405 C 247.75 74.602 259.503 74.602 259.503 66.405 L 259.503 36.883 L 259.503 33.211 C 259.503 24.912 247.75 24.912 247.75 33.211 L 247.75 66.405" class="ps00" id="path93" style="fill-rule: nonzero; stroke: none; fill: rgb(255, 255, 255);"/>
</svg>