<?xml version="1.0" encoding="utf-8"?>
<svg id="svgRoot" version="1.0" xmlns="http://www.w3.org/2000/svg">
  <path d="M 0 0.777 L 0 15.829 L 3.224 15.829 L 3.224 41.648 L 0 41.648 L 0 56.609 L 15.289 56.609 L 15.289 41.775 L 13.523 41.775 L 13.523 31.137 L 19.121 31.137 L 19.121 41.797 L 17.376 41.797 L 17.376 56.609 L 33.482 56.609 L 33.482 41.628 L 29.88 41.628 L 29.88 15.829 L 33.106 15.829 L 33.106 0.777 L 17.384 0.777 L 17.384 15.829 L 19.133 15.829 L 19.133 25.113 L 13.542 25.113 L 13.542 15.829 L 15.286 15.829 L 15.286 0.754 L 0 0.777 Z" class="ps00 ps10" id="path61" style="fill-rule: nonzero; stroke: none; stroke-width: 1; stroke-linecap: butt; stroke-linejoin: miter; stroke-miterlimit: 10; stroke-dasharray: none; fill: rgb(255, 255, 255);"/>
  <path d="M 36.215 0.842 L 51.692 0.842 L 51.692 15.829 L 49.329 15.829 L 49.329 39.22 C 49.329 43.863 55.993 43.52 55.993 39.22 L 55.993 15.829 L 53.784 15.829 L 53.784 0.842 L 67.175 0.842 L 67.175 15.829 L 63.731 15.829 L 63.731 49.712 C 63.728 59.723 39.224 59.834 39.224 49.712 L 39.224 15.829 L 36.215 15.829 L 36.215 0.842" class="ps00 ps10" id="path63" style="fill-rule: nonzero; stroke: none; stroke-width: 1; stroke-linecap: butt; stroke-linejoin: miter; stroke-miterlimit: 10; stroke-dasharray: none; fill: rgb(255, 255, 255);"/>
  <path d="M 163.421 15.829 L 163.421 0.842 L 178.255 0.842 L 189.198 37.756 L 189.198 15.803 L 185.559 15.803 L 185.559 0.842 L 200 0.842 L 200 15.829 L 196.305 15.829 L 196.305 56.609 L 185.982 56.609 L 173.94 15.57 L 173.94 41.628 L 178.029 41.628 L 178.029 56.609 L 162.942 56.609 L 162.942 41.648 L 166.41 41.648 L 166.41 15.829 L 163.421 15.829 Z" class="ps00 ps10" id="path65" style="fill-rule: nonzero; stroke: none; stroke-width: 1; stroke-linecap: butt; stroke-linejoin: miter; stroke-miterlimit: 10; stroke-dasharray: none; fill: rgb(255, 255, 255);"/>
  <path d="M 105.392 24.084 C 104.444 22.708 103.694 20.765 103.694 17.807 L 103.694 8.431 C 103.694 0.047 112.459 -2.852 119.397 3.27 L 119.397 0.842 L 128.619 0.842 L 128.619 20.471 L 120.046 20.471 L 120.046 18.235 C 120.046 14.099 113.813 14.109 113.588 18.063 C 113.362 22.017 117.028 23.567 119.595 24.944 C 122.189 26.32 130.34 29.16 130.34 38.789 L 130.34 49.023 C 130.34 57.715 120.046 60.505 113.588 53.065 L 113.588 56.609 L 104.126 56.609 L 104.126 35.607 L 112.939 35.607 L 112.939 38.873 C 112.939 43.1 119.821 42.99 119.821 39.047 L 119.792 37.327 C 119.566 35.263 118.946 33.887 116.155 32.166 C 113.475 30.507 108.426 27.18 106.918 25.804 C 106.407 25.339 105.877 24.786 105.392 24.084" class="ps00" id="path73" style="fill-rule: nonzero; stroke: none; fill: rgb(255, 255, 255);"/>
  <path d="M 70.289 0.816 L 89.392 0.816 C 95.203 0.816 100.572 5.51 100.572 10.067 L 100.572 46.865 C 100.572 53.477 94.103 56.589 89.585 56.589 L 70.046 56.589 L 70.046 41.797 L 73.27 41.797 L 73.27 15.829 L 70.261 15.829 L 70.289 0.816 M 83.62 15.829 L 83.591 41.454 L 87.035 41.454 C 88.713 41.454 89.826 39.309 89.826 38.215 L 89.826 19.095 C 89.826 17.892 88.378 15.829 87.112 15.829 L 83.62 15.829" class="ps00 ps10" id="path75" style="fill-rule: nonzero; stroke: none; stroke-width: 1; stroke-linecap: butt; stroke-linejoin: miter; stroke-miterlimit: 10; stroke-dasharray: none; fill: rgb(255, 255, 255);"/>
  <path d="M 133.47 10.9 C 133.47 -3.633 159.868 -3.411 159.868 10.832 L 159.868 45.984 C 159.868 60.95 133.441 61.062 133.441 46.33 L 133.47 10.9 M 143.284 38.405 C 143.284 43.145 150.082 43.145 150.082 38.405 L 150.082 21.331 L 150.082 19.207 C 150.082 14.408 143.284 14.408 143.284 19.207 L 143.284 38.405" class="ps00" id="path93" style="fill-rule: nonzero; stroke: none; fill: rgb(255, 255, 255);"/>
</svg>