<?xml version="1.0" encoding="utf-8"?>
<svg version="1.0" xmlns="http://www.w3.org/2000/svg">
  <path d="M 728.131 1.378 C 749.804 -0.524 770.439 0.349 789.783 3.024 C 789.783 3.024 795.285 5.152 792.986 4.627 C 787.185 24.294 780.528 43.936 775.371 64.676 C 746.1 25.966 675.139 96.578 716.119 118.322 C 728.456 124.848 746.194 123.751 756.155 115.921 C 761.758 111.487 767.039 105.582 771.369 99.906 C 779.15 122.973 786.003 145.841 792.986 169.564 C 769.041 172.793 740.013 181.004 712.923 175.172 C 614.36 153.928 625.77 10.307 728.131 1.378 L 728.131 1.378 Z" style="fill: rgb(255, 255, 255);"/>
  <path d="M 68.414 1.422 C 86.329 0.098 104.719 2.526 118.856 4.627 C 127.038 5.827 143.826 9.878 142.075 9.428 C 138.17 22.664 134.443 35.923 130.866 49.461 C 119.258 47.736 71.591 42.509 66.013 51.063 C 64.085 53.967 64.663 57.494 65.211 61.471 C 67.793 70.168 112.551 67.253 127.665 78.287 C 136.07 84.418 142.298 93.523 144.479 106.311 C 151.536 147.727 123.31 174.898 87.631 177.581 C 67.616 179.054 47.873 177.352 29.181 175.976 C 21.601 175.396 12.593 173.768 5.163 172.767 C 5.163 172.718 5.264 170.392 5.163 170.364 C 8.64 157.554 12.469 142.764 16.37 129.528 C 29.608 131.484 71.943 135.236 78.824 126.328 C 80.375 124.276 82.805 119.099 79.624 115.921 C 73.91 110.201 65.019 111.263 56.673 110.201 C 26.09 106.311 3.535 102.784 0.358 67.076 C -1.217 49.487 2.485 35.773 9.966 25.441 C 21.775 9.052 41.969 3.351 68.414 1.422 L 68.414 1.422 Z" style="fill: rgb(255, 255, 255);"/>
  <path d="M 357.089 1.116 C 380.586 1.116 430.864 1.116 430.864 1.116 C 430.864 1.116 478.099 88.684 478.099 88.684 C 478.099 88.684 478.099 1.116 478.099 1.116 C 478.099 1.116 533.345 1.116 533.345 1.116 C 533.345 1.116 533.345 177.822 533.345 177.822 C 533.345 177.822 456.683 177.769 456.683 177.769 C 456.683 177.769 413.251 88.684 413.251 88.684 C 413.251 88.684 413.251 177.822 413.251 177.822 C 413.251 177.822 357.089 177.769 357.089 177.769 C 357.089 177.769 357.178 18.174 357.089 1.116 L 357.089 1.116 Z" style="fill: rgb(255, 255, 255);"/>
  <path d="M 562.215 1.116 C 562.215 1.116 627.148 1.116 627.148 1.116 C 627.148 1.116 627.073 177.206 627.073 177.206 C 627.073 177.206 562.215 177.206 562.215 177.206 C 562.215 177.206 562.215 1.116 562.215 1.116 L 562.215 1.116 Z" style="fill: rgb(255, 255, 255);"/>
  <path d="M 287.158 87.056 C 284.404 102.817 264.103 122.673 248.123 125.311 C 234.85 127.481 225.771 123.992 219.233 117.502 C 195.959 94.424 233.265 56.776 255.148 53.481 C 274.985 50.478 290.623 67.043 287.158 87.056 L 287.158 87.056 Z M 337.126 55.822 C 324.466 20.907 292.504 -3.392 241.096 0.387 C 209.523 2.682 182.589 20.837 170.046 42.547 C 159.798 60.237 153.333 87.934 159.898 113.599 C 182.024 200.228 318.413 199.081 339.47 110.474 C 343.495 93.471 342.716 71.241 337.126 55.822 L 337.126 55.822 Z" style="fill: rgb(255, 255, 255);"/>
  <path d="M 800.09 233.881 C 805.701 193.262 807.639 189.524 768.194 183.227 C 724.931 176.318 721.238 187.201 706.676 249.533 C 696.784 291.872 698.275 316.364 730.231 322.696 C 761.144 328.821 768.358 328.562 773.484 328.883 C 779.634 329.271 781.459 329.929 783.173 320.057 C 783.615 317.502 796.283 255.757 796.283 255.757 C 796.283 255.757 753.569 248.936 753.569 248.936 C 753.569 248.936 749.114 270.313 749.114 270.313 C 749.114 270.313 763.474 272.606 763.474 272.606 C 763.474 272.606 762.559 276.996 762.559 276.996 C 755.399 308.216 758.198 306.709 742.598 303.396 C 730.533 300.832 730.851 289.081 738.861 251.911 C 749.391 203.038 750.654 202.516 763.196 204.518 C 774.468 206.318 776.825 206.812 773.441 229.042 C 773.441 229.042 800.09 233.881 800.09 233.881 L 800.09 233.881 Z M 642.525 244.638 C 649.916 207.771 653.984 195.971 665.165 196.313 C 676.685 196.664 675.998 208.567 668.609 245.437 C 661.215 282.306 657.15 294.102 645.628 293.746 C 634.45 293.407 635.133 281.503 642.525 244.638 L 642.525 244.638 Z M 698.083 246.337 C 705.546 209.093 709.868 176.484 669.56 175.253 C 632.128 174.107 621.615 201.037 613.056 243.738 C 604.491 286.434 604.145 313.676 641.575 314.819 C 681.891 316.054 690.613 283.578 698.083 246.337 L 698.083 246.337 Z M 521.109 308.449 C 521.109 308.449 546.946 305.439 546.946 305.439 C 546.946 305.439 555.631 255.303 555.631 255.303 C 555.631 255.303 576.065 253.653 576.065 253.653 C 576.065 253.653 567.451 303.957 567.451 303.957 C 567.451 303.957 594.144 303.044 594.144 303.044 C 594.144 303.044 613.983 182.179 613.983 182.179 C 613.983 182.179 587.684 184.177 587.684 184.177 C 587.684 184.177 580.118 229.397 580.118 229.397 C 580.118 229.397 559.693 231.022 559.693 231.022 C 559.693 231.022 567.516 185.153 567.516 185.153 C 567.516 185.153 541.403 188.271 541.403 188.271 C 541.403 188.271 521.109 308.449 521.109 308.449 L 521.109 308.449 Z M 456.825 315.478 C 456.825 315.478 515.655 308.334 515.655 308.334 C 515.655 308.334 518.896 285.632 518.896 285.632 C 518.896 285.632 483.356 290.593 483.356 290.593 C 483.356 290.593 487.183 264.567 487.183 264.567 C 487.183 264.567 519.15 259.039 519.15 259.039 C 519.15 259.039 522.358 237.393 522.358 237.393 C 522.358 237.393 490.355 242.727 490.355 242.727 C 490.355 242.727 493.681 219.692 493.681 219.692 C 493.681 219.692 528.415 212.839 528.415 212.839 C 528.415 212.839 531.626 189.984 531.626 189.984 C 531.626 189.984 473.388 200.481 473.388 200.481 C 473.388 200.481 456.825 315.478 456.825 315.478 L 456.825 315.478 Z M 460.916 236.113 C 462.846 223.388 465.174 200.022 435.07 204.826 C 402.051 210.094 396.209 234.328 390.633 271.088 C 385.319 306.121 386.309 326.349 411.143 322.384 C 420.16 320.949 429.329 316.726 434.459 306.098 C 434.459 306.098 434.738 306.052 434.738 306.052 C 434.738 306.052 433.671 316.647 433.671 316.647 C 433.671 316.647 449.625 314.101 449.625 314.101 C 449.625 314.101 458.754 253.933 458.754 253.933 C 458.754 253.933 426.155 259.138 426.155 259.138 C 426.155 259.138 423.483 276.731 423.483 276.731 C 423.483 276.731 434.441 274.979 434.441 274.979 C 434.441 274.979 433.895 278.593 433.895 278.593 C 431.559 293.988 427.545 302.602 419.639 303.864 C 410.343 305.346 410.458 295.671 415.108 265.038 C 419.634 235.189 422.411 224.016 431.986 222.487 C 440.585 221.116 439.539 232.471 438.443 239.699 C 438.443 239.699 460.916 236.113 460.916 236.113 L 460.916 236.113 Z M 345.771 245.056 C 345.771 245.056 352.291 243.248 352.291 243.248 C 364.641 239.824 365.463 246.264 361.314 272.089 C 356.214 303.856 351.729 309.494 340.909 312.494 C 340.909 312.494 334.664 314.224 334.664 314.224 C 334.664 314.224 345.771 245.056 345.771 245.056 L 345.771 245.056 Z M 308.403 339.091 C 308.403 339.091 340.588 330.171 340.588 330.171 C 371.249 321.671 378.711 302.441 384.883 263.998 C 390.795 227.187 382.993 217.152 359.964 223.534 C 359.964 223.534 325.42 233.109 325.42 233.109 C 325.42 233.109 308.403 339.091 308.403 339.091 L 308.403 339.091 Z M 245.638 352.991 C 245.638 352.991 298.581 340.339 298.581 340.339 C 298.581 340.339 302.29 320.437 302.29 320.437 C 302.29 320.437 276.005 326.717 276.005 326.717 C 276.005 326.717 280.448 302.863 280.448 302.863 C 280.448 302.863 302.606 297.569 302.606 297.569 C 302.606 297.569 306.318 277.666 306.318 277.666 C 306.318 277.666 284.155 282.962 284.155 282.962 C 284.155 282.962 288.054 262.033 288.054 262.033 C 288.054 262.033 312.596 256.169 312.596 256.169 C 312.596 256.169 316.303 236.267 316.303 236.267 C 316.303 236.267 265.104 248.501 265.104 248.501 C 265.104 248.501 245.638 352.991 245.638 352.991 L 245.638 352.991 Z M 169.408 370.249 C 169.408 370.249 192.121 364.798 192.121 364.798 C 192.121 364.798 200.6 321.208 200.6 321.208 C 200.6 321.208 218.713 316.861 218.713 316.861 C 218.713 316.861 210.236 360.449 210.236 360.449 C 210.236 360.449 232.949 354.997 232.949 354.997 C 232.949 354.997 252.795 252.957 252.795 252.957 C 252.795 252.957 230.083 258.409 230.083 258.409 C 230.083 258.409 222.663 296.567 222.663 296.567 C 222.663 296.567 204.545 300.914 204.545 300.914 C 204.545 300.914 211.97 262.757 211.97 262.757 C 211.97 262.757 189.258 268.211 189.258 268.211 C 189.258 268.211 169.408 370.249 169.408 370.249 L 169.408 370.249 Z M 172.386 195.402 C 172.386 195.402 120.076 204.836 120.076 204.836 C 120.076 204.836 115.689 222.544 115.689 222.544 C 115.689 222.544 135.214 218.854 135.214 218.854 C 135.214 218.854 123.553 266.946 123.553 266.946 C 123.553 266.946 140.661 262.763 140.661 262.763 C 140.661 262.763 151.935 215.512 151.935 215.512 C 151.935 215.512 167.999 212.573 167.999 212.573 C 167.999 212.573 172.386 195.402 172.386 195.402 L 172.386 195.402 Z M 204.456 189.682 C 204.456 189.682 199.201 212.833 199.201 212.833 C 199.201 212.833 187.945 215.247 187.945 215.247 C 187.945 215.247 193.168 191.581 193.168 191.581 C 193.168 191.581 177.215 194.267 177.215 194.267 C 177.215 194.267 163.091 257.973 163.091 257.973 C 163.091 257.973 179.393 254.206 179.393 254.206 C 179.393 254.206 184.14 232.553 184.14 232.553 C 184.14 232.553 195.328 229.973 195.328 229.973 C 195.328 229.973 190.633 251.634 190.633 251.634 C 190.633 251.634 206.448 248.056 206.448 248.056 C 206.448 248.056 220.36 187.076 220.36 187.076 C 220.36 187.076 204.456 189.682 204.456 189.682 L 204.456 189.682 Z M 256.54 202.226 C 256.54 202.226 254.356 212.737 254.356 212.737 C 254.356 212.737 238.42 215.527 238.42 215.527 C 238.42 215.527 236.099 226.523 236.099 226.523 C 236.099 226.523 251.454 223.572 251.454 223.572 C 251.454 223.572 248.841 238.711 248.841 238.711 C 248.841 238.711 215.563 246.016 215.563 246.016 C 215.563 246.016 226.956 186.012 226.956 186.012 C 226.956 186.012 260.235 180.778 260.235 180.778 C 260.235 180.778 257.813 192.098 257.813 192.098 C 257.813 192.098 243.296 194.772 243.296 194.772 C 243.296 194.772 240.975 204.367 240.975 204.367 C 240.975 204.367 256.54 202.226 256.54 202.226 L 256.54 202.226 Z" style="fill: rgb(255, 255, 255);"/>
</svg>