<?xml version="1.0" encoding="utf-8"?>
<svg version="1.0" xmlns="http://www.w3.org/2000/svg">
  <path d="M 181.324 0.343 C 186.721 -0.13 191.859 0.087 196.677 0.753 C 196.677 0.753 198.047 1.283 197.474 1.152 C 196.03 6.05 194.372 10.941 193.088 16.106 C 185.798 6.466 168.127 24.05 178.332 29.465 C 181.405 31.09 185.822 30.817 188.302 28.867 C 189.698 27.763 191.013 26.293 192.091 24.879 C 194.029 30.623 195.735 36.318 197.474 42.226 C 191.511 43.03 184.283 45.075 177.536 43.622 C 152.992 38.332 155.833 2.567 181.324 0.343 L 181.324 0.343 Z" style="fill: rgb(255, 255, 255);"/>
  <path d="M 17.037 0.354 C 21.498 0.024 26.078 0.629 29.598 1.152 C 31.636 1.451 35.817 2.46 35.381 2.348 C 34.408 5.644 33.48 8.946 32.589 12.317 C 29.699 11.888 17.828 10.586 16.439 12.716 C 15.959 13.439 16.103 14.318 16.239 15.308 C 16.882 17.474 28.028 16.748 31.792 19.496 C 33.885 21.022 35.436 23.29 35.979 26.474 C 37.737 36.788 30.708 43.554 21.823 44.222 C 16.838 44.589 11.922 44.165 7.267 43.823 C 5.379 43.678 3.136 43.273 1.286 43.023 C 1.286 43.011 1.311 42.432 1.286 42.425 C 2.152 39.235 3.105 35.552 4.077 32.256 C 7.373 32.743 17.916 33.677 19.629 31.459 C 20.016 30.948 20.621 29.659 19.829 28.867 C 18.406 27.443 16.192 27.707 14.113 27.443 C 6.497 26.474 0.881 25.596 0.089 16.704 C -0.303 12.324 0.619 8.908 2.482 6.335 C 5.423 2.254 10.452 0.835 17.037 0.354 L 17.037 0.354 Z" style="fill: rgb(255, 255, 255);"/>
  <path d="M 88.925 0.278 C 94.776 0.278 107.296 0.278 107.296 0.278 C 107.296 0.278 119.059 22.085 119.059 22.085 C 119.059 22.085 119.059 0.278 119.059 0.278 C 119.059 0.278 132.817 0.278 132.817 0.278 C 132.817 0.278 132.817 44.282 132.817 44.282 C 132.817 44.282 113.726 44.269 113.726 44.269 C 113.726 44.269 102.91 22.085 102.91 22.085 C 102.91 22.085 102.91 44.282 102.91 44.282 C 102.91 44.282 88.925 44.269 88.925 44.269 C 88.925 44.269 88.947 4.526 88.925 0.278 L 88.925 0.278 Z" style="fill: rgb(255, 255, 255);"/>
  <path d="M 140.006 0.278 C 140.006 0.278 156.176 0.278 156.176 0.278 C 156.176 0.278 156.158 44.129 156.158 44.129 C 156.158 44.129 140.006 44.129 140.006 44.129 C 140.006 44.129 140.006 0.278 140.006 0.278 L 140.006 0.278 Z" style="fill: rgb(255, 255, 255);"/>
  <path d="M 71.51 21.679 C 70.824 25.604 65.769 30.549 61.789 31.206 C 58.484 31.746 56.223 30.877 54.595 29.261 C 48.799 23.514 58.089 14.139 63.539 13.318 C 68.479 12.57 72.373 16.695 71.51 21.679 L 71.51 21.679 Z M 83.953 13.901 C 80.801 5.206 72.841 -0.845 60.039 0.096 C 52.177 0.668 45.47 5.189 42.346 10.595 C 39.794 15.001 38.184 21.898 39.819 28.289 C 45.329 49.862 79.293 49.576 84.537 27.511 C 85.539 23.277 85.345 17.741 83.953 13.901 L 83.953 13.901 Z" style="fill: rgb(255, 255, 255);"/>
  <path d="M 199.243 58.242 C 200.641 48.127 201.123 47.196 191.3 45.628 C 180.527 43.908 179.607 46.618 175.981 62.14 C 173.517 72.684 173.889 78.783 181.847 80.36 C 189.545 81.885 191.341 81.82 192.618 81.9 C 194.149 81.997 194.604 82.161 195.031 79.702 C 195.141 79.066 198.295 63.69 198.295 63.69 C 198.295 63.69 187.658 61.992 187.658 61.992 C 187.658 61.992 186.549 67.315 186.549 67.315 C 186.549 67.315 190.125 67.886 190.125 67.886 C 190.125 67.886 189.897 68.979 189.897 68.979 C 188.114 76.754 188.811 76.378 184.926 75.553 C 181.922 74.915 182.001 71.989 183.996 62.732 C 186.618 50.562 186.932 50.432 190.056 50.93 C 192.863 51.379 193.45 51.502 192.607 57.037 C 192.607 57.037 199.243 58.242 199.243 58.242 L 199.243 58.242 Z M 160.006 60.921 C 161.846 51.74 162.859 48.802 165.643 48.887 C 168.512 48.974 168.341 51.939 166.501 61.12 C 164.66 70.302 163.648 73.239 160.778 73.15 C 157.995 73.066 158.165 70.102 160.006 60.921 L 160.006 60.921 Z M 173.841 61.344 C 175.699 52.07 176.776 43.949 166.738 43.643 C 157.416 43.357 154.798 50.063 152.667 60.697 C 150.534 71.329 150.448 78.113 159.769 78.398 C 169.809 78.706 171.981 70.618 173.841 61.344 L 173.841 61.344 Z M 129.77 76.812 C 129.77 76.812 136.204 76.062 136.204 76.062 C 136.204 76.062 138.367 63.577 138.367 63.577 C 138.367 63.577 143.455 63.166 143.455 63.166 C 143.455 63.166 141.31 75.693 141.31 75.693 C 141.31 75.693 147.957 75.466 147.957 75.466 C 147.957 75.466 152.898 45.367 152.898 45.367 C 152.898 45.367 146.349 45.865 146.349 45.865 C 146.349 45.865 144.465 57.126 144.465 57.126 C 144.465 57.126 139.378 57.53 139.378 57.53 C 139.378 57.53 141.326 46.108 141.326 46.108 C 141.326 46.108 134.824 46.884 134.824 46.884 C 134.824 46.884 129.77 76.812 129.77 76.812 L 129.77 76.812 Z M 113.761 78.562 C 113.761 78.562 128.412 76.783 128.412 76.783 C 128.412 76.783 129.219 71.13 129.219 71.13 C 129.219 71.13 120.368 72.365 120.368 72.365 C 120.368 72.365 121.321 65.884 121.321 65.884 C 121.321 65.884 129.282 64.507 129.282 64.507 C 129.282 64.507 130.081 59.117 130.081 59.117 C 130.081 59.117 122.111 60.445 122.111 60.445 C 122.111 60.445 122.94 54.709 122.94 54.709 C 122.94 54.709 131.589 53.002 131.589 53.002 C 131.589 53.002 132.389 47.311 132.389 47.311 C 132.389 47.311 117.886 49.925 117.886 49.925 C 117.886 49.925 113.761 78.562 113.761 78.562 L 113.761 78.562 Z M 114.78 58.798 C 115.261 55.629 115.841 49.811 108.344 51.007 C 100.121 52.319 98.666 58.354 97.278 67.508 C 95.955 76.232 96.201 81.269 102.385 80.282 C 104.631 79.925 106.914 78.873 108.192 76.226 C 108.192 76.226 108.261 76.215 108.261 76.215 C 108.261 76.215 107.995 78.853 107.995 78.853 C 107.995 78.853 111.968 78.219 111.968 78.219 C 111.968 78.219 114.242 63.236 114.242 63.236 C 114.242 63.236 106.124 64.532 106.124 64.532 C 106.124 64.532 105.458 68.913 105.458 68.913 C 105.458 68.913 108.187 68.477 108.187 68.477 C 108.187 68.477 108.051 69.377 108.051 69.377 C 107.47 73.211 106.47 75.356 104.501 75.67 C 102.186 76.039 102.215 73.63 103.373 66.001 C 104.5 58.568 105.191 55.786 107.576 55.405 C 109.717 55.064 109.457 57.891 109.184 59.691 C 109.184 59.691 114.78 58.798 114.78 58.798 L 114.78 58.798 Z M 86.106 61.025 C 86.106 61.025 87.73 60.575 87.73 60.575 C 90.805 59.722 91.01 61.326 89.977 67.757 C 88.707 75.668 87.59 77.072 84.895 77.819 C 84.895 77.819 83.34 78.25 83.34 78.25 C 83.34 78.25 86.106 61.025 86.106 61.025 L 86.106 61.025 Z M 76.801 84.442 C 76.801 84.442 84.815 82.221 84.815 82.221 C 92.451 80.104 94.309 75.316 95.846 65.742 C 97.318 56.575 95.375 54.076 89.641 55.666 C 89.641 55.666 81.038 58.05 81.038 58.05 C 81.038 58.05 76.801 84.442 76.801 84.442 L 76.801 84.442 Z M 61.17 87.904 C 61.17 87.904 74.355 84.753 74.355 84.753 C 74.355 84.753 75.278 79.797 75.278 79.797 C 75.278 79.797 68.733 81.361 68.733 81.361 C 68.733 81.361 69.839 75.421 69.839 75.421 C 69.839 75.421 75.357 74.102 75.357 74.102 C 75.357 74.102 76.281 69.146 76.281 69.146 C 76.281 69.146 70.762 70.465 70.762 70.465 C 70.762 70.465 71.733 65.253 71.733 65.253 C 71.733 65.253 77.845 63.793 77.845 63.793 C 77.845 63.793 78.768 58.837 78.768 58.837 C 78.768 58.837 66.018 61.883 66.018 61.883 C 66.018 61.883 61.17 87.904 61.17 87.904 L 61.17 87.904 Z M 42.187 92.202 C 42.187 92.202 47.843 90.844 47.843 90.844 C 47.843 90.844 49.955 79.989 49.955 79.989 C 49.955 79.989 54.465 78.907 54.465 78.907 C 54.465 78.907 52.354 89.761 52.354 89.761 C 52.354 89.761 58.011 88.403 58.011 88.403 C 58.011 88.403 62.953 62.993 62.953 62.993 C 62.953 62.993 57.297 64.351 57.297 64.351 C 57.297 64.351 55.449 73.853 55.449 73.853 C 55.449 73.853 50.937 74.935 50.937 74.935 C 50.937 74.935 52.786 65.433 52.786 65.433 C 52.786 65.433 47.13 66.791 47.13 66.791 C 47.13 66.791 42.187 92.202 42.187 92.202 L 42.187 92.202 Z M 42.929 48.66 C 42.929 48.66 29.902 51.009 29.902 51.009 C 29.902 51.009 28.81 55.419 28.81 55.419 C 28.81 55.419 33.672 54.5 33.672 54.5 C 33.672 54.5 30.768 66.476 30.768 66.476 C 30.768 66.476 35.028 65.435 35.028 65.435 C 35.028 65.435 37.836 53.668 37.836 53.668 C 37.836 53.668 41.836 52.936 41.836 52.936 C 41.836 52.936 42.929 48.66 42.929 48.66 L 42.929 48.66 Z M 50.915 47.236 C 50.915 47.236 49.606 53.001 49.606 53.001 C 49.606 53.001 46.803 53.602 46.803 53.602 C 46.803 53.602 48.104 47.709 48.104 47.709 C 48.104 47.709 44.131 48.378 44.131 48.378 C 44.131 48.378 40.614 64.242 40.614 64.242 C 40.614 64.242 44.674 63.304 44.674 63.304 C 44.674 63.304 45.856 57.912 45.856 57.912 C 45.856 57.912 48.642 57.269 48.642 57.269 C 48.642 57.269 47.473 62.663 47.473 62.663 C 47.473 62.663 51.411 61.772 51.411 61.772 C 51.411 61.772 54.876 46.587 54.876 46.587 C 54.876 46.587 50.915 47.236 50.915 47.236 L 50.915 47.236 Z M 63.885 50.36 C 63.885 50.36 63.341 52.977 63.341 52.977 C 63.341 52.977 59.373 53.672 59.373 53.672 C 59.373 53.672 58.795 56.41 58.795 56.41 C 58.795 56.41 62.619 55.675 62.619 55.675 C 62.619 55.675 61.968 59.445 61.968 59.445 C 61.968 59.445 53.681 61.264 53.681 61.264 C 53.681 61.264 56.518 46.322 56.518 46.322 C 56.518 46.322 64.805 45.018 64.805 45.018 C 64.805 45.018 64.202 47.837 64.202 47.837 C 64.202 47.837 60.587 48.503 60.587 48.503 C 60.587 48.503 60.009 50.893 60.009 50.893 C 60.009 50.893 63.885 50.36 63.885 50.36 L 63.885 50.36 Z" style="fill: rgb(255, 255, 255);"/>
</svg>