<?xml version="1.0" encoding="utf-8"?>
<svg version="1.1" id="Super Mario" x="0px" y="0px" style="enable-background:new 0 0 1794 840.1;" xmlns="http://www.w3.org/2000/svg">
  <style type="text/css">
	.st0{fill:#FBCF08;}
	.st1{fill:#45AF49;}
	.st2{fill:#E42926;}
	.st3{fill:#0B9BD7;}
	.st4{fill:#010101;}
</style>
  <path d="M 199.548 61.576 L 187.77 44.929 C 187.491 44.535 187.062 44.291 186.599 44.233 L 174.925 42.819 L 178.147 41.451 C 178.507 41.3 178.739 40.952 178.739 40.558 L 178.739 34.588 C 178.739 34.182 178.553 33.8 178.252 33.533 L 174.183 30.055 C 174.31 29.974 174.391 29.846 174.426 29.696 L 176.826 15.135 C 176.895 14.718 176.93 14.289 176.93 13.86 L 176.93 10.382 C 176.93 9.988 176.722 9.617 176.385 9.42 L 163.297 1.722 C 162.938 1.514 162.52 1.432 162.115 1.49 L 142.72 4.458 C 142.36 4.516 142.094 4.829 142.094 5.2 L 142.094 6.429 L 122.27 2.974 C 121.91 2.905 121.563 3.125 121.47 3.473 L 120.241 7.774 L 110.816 2.684 C 110.457 2.487 110.028 2.429 109.622 2.499 L 90.378 6.046 C 90.019 6.116 89.752 6.44 89.752 6.8 L 89.752 10.278 C 89.752 10.347 89.764 10.394 89.764 10.463 L 77.974 8.921 L 77.974 6.185 C 77.974 5.826 77.695 5.525 77.336 5.478 L 59.9 3.844 C 59.553 3.809 59.24 4.076 59.228 4.423 L 59.135 5.861 L 51.901 0.331 C 51.577 0.076 51.159 -0.028 50.754 0.006 L 35.88 1.421 C 35.474 1.456 35.115 1.676 34.895 2.012 L 26.884 13.953 C 26.652 14.289 26.524 14.706 26.524 15.124 L 26.524 20.746 C 26.524 21.14 26.733 21.511 27.069 21.72 L 29.608 23.262 L 25.585 28.618 C 25.342 28.942 25.203 29.36 25.203 29.765 L 25.214 35.307 C 25.214 35.712 25.412 36.072 25.701 36.362 L 29.492 39.584 L 18.954 38.17 C 18.514 38.112 18.096 38.356 17.923 38.761 L 0.29 79.986 C 0.093 80.438 0 80.925 0 81.411 L 0 86.28 C 0 86.733 0.267 87.138 0.684 87.312 L 21.006 95.995 C 21.366 96.146 21.795 95.961 21.911 95.578 L 27.452 77.493 L 32.321 86.246 C 32.495 86.559 32.924 86.605 33.156 86.315 L 39.508 78.525 L 40.598 96.656 C 40.621 97.05 40.992 97.328 41.363 97.247 L 58.741 93.665 L 70.716 95.926 C 71.122 95.995 71.505 95.729 71.563 95.323 L 73.07 86.408 L 79.33 85.469 L 81.335 95.126 C 81.428 95.532 81.811 95.798 82.217 95.717 L 95.919 93.132 L 96.116 94.871 C 96.163 95.277 96.534 95.578 96.939 95.543 L 113.39 94.059 C 113.807 94.025 114.132 93.665 114.132 93.248 L 114.12 88.483 L 118.862 95.717 C 119.093 96.076 119.557 96.216 119.951 96.03 L 132.019 90.628 L 131.95 94.94 C 131.938 95.346 132.286 95.659 132.68 95.624 L 148.632 94.535 C 149.073 94.511 149.432 94.175 149.502 93.746 L 151.553 82.211 L 154.289 90.095 C 154.44 90.535 154.799 90.883 155.24 91.022 L 174.391 97.271 C 174.843 97.421 175.342 97.386 175.771 97.189 L 193.96 88.9 C 194.389 88.703 194.702 88.321 194.818 87.869 L 199.815 68.103 C 199.93 67.616 200 67.129 200 66.642 L 200 62.944 C 199.977 62.434 199.838 61.97 199.548 61.576 Z" style="fill: rgb(20, 20, 20);"/>
  <path class="st0" d="M 174.925 34.449 L 166.126 26.948 L 171.342 23.702 C 171.621 23.528 171.818 23.25 171.864 22.926 L 173.719 11.727 C 173.765 11.414 173.626 11.124 173.36 10.962 L 162.613 4.632 C 162.335 4.458 161.999 4.4 161.674 4.447 L 145.722 6.893 C 145.618 6.904 145.537 6.962 145.467 7.009 L 147.45 7.356 C 147.797 7.426 148.029 7.75 147.971 8.098 L 146.325 17.894 L 148.47 38.773 C 148.505 39.051 148.748 39.271 149.026 39.248 L 156.793 38.564 C 157.072 38.541 157.292 38.298 157.292 38.008 L 156.979 27.945 L 157.35 27.876 L 164.456 38.819 C 164.619 39.074 164.932 39.167 165.21 39.051 L 174.832 34.982 C 175.064 34.889 175.11 34.611 174.925 34.449 Z M 162.903 22.056 L 156.817 23.041 L 156.504 12.422 L 163.958 15.054 L 162.903 22.056 Z" style="fill: rgb(255, 255, 255);"/>
  <path class="st1" d="M 142.662 29.788 L 131.115 31.493 L 130.292 25.824 L 139.613 27.238 C 139.81 27.273 140.007 27.122 140.03 26.925 L 140.842 20.723 C 140.865 20.526 140.726 20.352 140.517 20.352 L 130.93 20.201 L 132.379 14.868 L 143.021 18.091 C 143.207 18.149 143.415 18.022 143.438 17.836 L 144.725 10.173 C 144.76 9.976 144.621 9.779 144.412 9.733 L 124.02 6.185 C 123.812 6.151 123.615 6.278 123.545 6.475 L 122.78 9.165 L 124.044 9.849 C 124.38 10.034 124.565 10.405 124.519 10.788 L 122.548 24.212 C 122.479 24.618 122.293 25.001 121.992 25.29 L 118.873 28.281 L 120.369 37.475 C 120.403 37.683 120.577 37.846 120.809 37.846 L 144.041 38.669 C 144.238 38.68 144.377 38.495 144.354 38.309 L 143.102 30.102 C 143.056 29.904 142.859 29.765 142.662 29.788 Z" style="fill: rgb(255, 255, 255);"/>
  <path class="st2" d="M 121.041 11.472 L 110.213 5.629 C 109.923 5.478 109.587 5.42 109.263 5.478 L 93.404 8.4 C 93.125 8.458 92.928 8.713 92.963 9.003 L 93.195 10.939 L 95.224 11.205 C 95.572 11.24 95.803 11.576 95.757 11.912 L 94.343 20.306 L 96.557 38.553 C 96.592 38.831 96.847 39.04 97.137 39.005 L 105.101 38.205 C 105.379 38.182 105.599 37.927 105.576 37.648 L 105.112 30.171 L 112.729 29.754 C 113.054 29.731 113.367 29.603 113.61 29.371 L 119.418 23.818 C 119.661 23.586 119.812 23.285 119.859 22.949 L 121.435 12.225 C 121.458 11.924 121.308 11.611 121.041 11.472 Z M 110.712 22.276 L 104.66 23.331 L 104.034 13.176 L 111.744 15.831 L 110.712 22.276 Z" style="fill: rgb(255, 255, 255);"/>
  <path class="st0" d="M 92.036 13.674 L 80.315 12.121 C 80.06 12.086 79.817 12.295 79.828 12.562 L 80.536 28.2 L 71.284 28.803 L 74.554 8.62 C 74.588 8.342 74.403 8.098 74.125 8.075 L 62.428 6.985 C 62.149 6.962 61.906 7.171 61.883 7.449 L 61.848 7.982 L 63.146 8.979 C 63.471 9.234 63.68 9.605 63.726 9.999 L 63.796 10.579 C 63.842 10.985 63.726 11.402 63.482 11.715 L 61.442 14.3 L 60.909 22.926 L 61.674 23.424 C 62.01 23.656 62.265 24.004 62.358 24.398 L 62.474 24.873 C 62.578 25.279 62.543 25.696 62.37 26.079 L 60.422 30.472 L 60.399 30.878 C 60.376 31.203 60.503 31.516 60.747 31.725 L 67.47 37.776 C 67.714 37.996 68.027 38.124 68.363 38.135 L 83.098 38.506 C 83.422 38.518 83.735 38.379 83.944 38.135 L 89.137 32.211 C 89.358 31.956 89.508 31.655 89.555 31.319 L 92.43 14.266 C 92.511 13.964 92.314 13.698 92.036 13.674 Z" style="fill: rgb(255, 255, 255);"/>
  <path class="st3" d="M 46.151 10.556 L 55.217 16.77 C 55.449 16.932 55.773 16.886 55.959 16.654 L 60.376 11.054 C 60.549 10.834 60.515 10.51 60.283 10.347 L 50.951 3.194 C 50.696 2.997 50.359 2.905 50.035 2.939 L 37.364 4.145 C 37.039 4.18 36.761 4.354 36.575 4.62 L 29.828 14.695 C 29.678 14.926 29.736 15.239 29.979 15.379 L 46.453 25.418 L 43.079 29.997 L 34.292 22.601 C 34.083 22.427 33.758 22.462 33.596 22.682 L 28.46 29.522 C 28.287 29.754 28.321 30.078 28.542 30.264 L 37.572 37.95 C 37.827 38.159 38.152 38.274 38.477 38.274 L 53.466 38.019 C 53.779 38.008 54.057 37.822 54.185 37.544 L 59.332 25.893 C 59.448 25.615 59.355 25.302 59.112 25.14 L 43.52 14.868 L 46.151 10.556 Z" style="fill: rgb(255, 255, 255);"/>
  <path class="st1" d="M 195.977 62.376 L 185.787 47.978 C 185.567 47.665 185.231 47.456 184.86 47.421 L 165.001 44.998 C 164.642 44.964 164.259 45.103 164.051 45.392 L 155.286 56.464 L 152.829 70.387 L 156.979 82.339 C 157.095 82.698 157.385 82.965 157.744 83.081 L 174.322 88.495 C 174.681 88.611 175.087 88.587 175.435 88.425 L 191.213 81.226 C 191.549 81.075 191.804 80.762 191.897 80.403 L 196.186 63.431 C 196.279 63.072 196.198 62.677 195.977 62.376 Z M 172.676 74.305 L 166.01 67.257 L 170.798 59.026 L 179.678 61.402 L 180.779 70.271 L 172.676 74.305 Z" style="fill: rgb(255, 255, 255);"/>
  <path class="st3" d="M 152.956 46.83 L 137.804 43.213 C 137.503 43.143 137.213 43.364 137.201 43.665 L 135.891 77.551 L 137.758 79.093 C 138.117 79.383 138.291 79.846 138.233 80.31 L 137.99 82.049 C 137.92 82.501 137.63 82.895 137.201 83.081 L 135.648 83.776 L 135.555 86.234 C 135.544 86.547 135.81 86.814 136.123 86.791 L 145.989 86.107 C 146.337 86.083 146.626 85.828 146.684 85.481 L 153.42 47.537 C 153.489 47.224 153.281 46.911 152.956 46.83 Z" style="fill: rgb(255, 255, 255);"/>
  <path class="st0" d="M 133.909 80.287 L 122.212 70.584 L 129.631 66.248 C 129.956 66.063 130.188 65.726 130.257 65.367 L 132.843 51.908 C 132.912 51.548 132.75 51.201 132.437 51.015 L 117.366 42.216 C 117.03 42.019 116.647 41.949 116.265 42.007 L 94.98 45.439 C 94.644 45.497 94.424 45.798 94.459 46.123 L 97.426 71.616 L 102.574 86.408 L 110.051 85.736 C 110.387 85.712 110.631 85.423 110.619 85.086 L 110.144 71.894 L 110.642 71.789 L 120.183 86.35 C 120.369 86.628 120.74 86.744 121.053 86.605 L 133.816 80.89 C 134.071 80.797 134.118 80.461 133.909 80.287 Z M 117.714 63.616 L 109.923 65.425 L 109.483 52.881 L 118.711 55.374 L 117.714 63.616 Z" style="fill: rgb(255, 255, 255);"/>
  <path class="st1" d="M 97.971 83.487 L 85.045 46.378 C 84.929 46.042 84.616 45.798 84.257 45.752 L 66.578 43.943 C 66.242 43.909 65.917 44.129 65.813 44.453 L 59.981 64.59 L 64.317 86.06 L 68.085 86.767 C 68.409 86.825 68.711 86.617 68.769 86.292 L 70.125 78.223 L 81.973 76.438 L 83.979 86.118 C 84.048 86.443 84.361 86.651 84.686 86.594 L 97.577 84.159 C 97.89 84.101 98.076 83.788 97.971 83.487 Z M 71.934 67.558 L 73.858 56.127 L 77.823 56.44 L 80.199 67.848 L 71.934 67.558 Z" style="fill: rgb(255, 255, 255);"/>
  <path class="st2" d="M 52.771 45.949 C 52.701 45.601 52.411 45.335 52.064 45.288 L 42.36 43.99 C 42.001 43.943 41.653 44.117 41.491 44.43 L 35.057 56.869 L 30.628 43.677 C 30.512 43.341 30.211 43.086 29.852 43.039 L 20.867 41.845 C 20.519 41.81 20.183 41.996 20.044 42.32 L 4.243 79.302 C 4.115 79.603 4.255 79.951 4.556 80.09 L 19.012 86.257 C 19.302 86.385 19.638 86.234 19.731 85.921 L 26.536 63.709 L 32.912 75.163 C 33.051 75.418 33.399 75.441 33.573 75.221 L 42.337 64.451 L 43.717 87.486 C 43.728 87.799 44.03 88.019 44.331 87.961 L 59.981 84.727 C 60.306 84.657 60.515 84.344 60.457 84.02 L 52.771 45.949 Z" style="fill: rgb(255, 255, 255);"/>
</svg>