<?xml version="1.0" encoding="utf-8"?>
<svg version="1.1" id="Super Mario" x="0px" y="0px" viewBox="0 0 1725.199951171875 840.0999755859375" style="enable-background:new 0 0 1794 840.1;" xmlns="http://www.w3.org/2000/svg">
  <style type="text/css">
	.st0{fill:#FBCF08;}
	.st1{fill:#45AF49;}
	.st2{fill:#E42926;}
	.st3{fill:#0B9BD7;}
	.st4{fill:#010101;}
</style>
  <path d="M1721.3,531.2l-101.6-143.6c-2.4-3.4-6.1-5.5-10.1-6l-100.7-12.2l27.8-11.8c3.1-1.3,5.1-4.3,5.1-7.7v-51.5&#10;&#9;c0-3.5-1.6-6.8-4.2-9.1l-35.1-30c1.1-0.7,1.8-1.8,2.1-3.1l20.7-125.6c0.6-3.6,0.9-7.3,0.9-11v-30c0-3.4-1.8-6.6-4.7-8.3l-112.9-66.4&#10;&#9;c-3.1-1.8-6.7-2.5-10.2-2l-167.3,25.6c-3.1,0.5-5.4,3.2-5.4,6.4v10.6l-171-29.8c-3.1-0.6-6.1,1.3-6.9,4.3l-10.6,37.1l-81.3-43.9&#10;&#9;c-3.1-1.7-6.8-2.2-10.3-1.6L779.6,52.2c-3.1,0.6-5.4,3.4-5.4,6.5v30c0,0.6,0.1,1,0.1,1.6L672.6,77V53.4c0-3.1-2.4-5.7-5.5-6.1&#10;&#9;L516.7,33.2c-3-0.3-5.7,2-5.8,5l-0.8,12.4L447.7,2.9c-2.8-2.2-6.4-3.1-9.9-2.8L309.5,12.3c-3.5,0.3-6.6,2.2-8.5,5.1l-69.1,103&#10;&#9;c-2,2.9-3.1,6.5-3.1,10.1V179c0,3.4,1.8,6.6,4.7,8.4l21.9,13.3l-34.7,46.2c-2.1,2.8-3.3,6.4-3.3,9.9l0.1,47.8c0,3.5,1.7,6.6,4.2,9.1&#10;&#9;l32.7,27.8l-90.9-12.2c-3.8-0.5-7.4,1.6-8.9,5.1L2.5,690c-1.7,3.9-2.5,8.1-2.5,12.3v42c0,3.9,2.3,7.4,5.9,8.9l175.3,74.9&#10;&#9;c3.1,1.3,6.8-0.3,7.8-3.6l47.8-156l42,75.5c1.5,2.7,5.2,3.1,7.2,0.6l54.8-67.2l9.4,156.4c0.2,3.4,3.4,5.8,6.6,5.1l149.9-30.9&#10;&#9;L610,827.5c3.5,0.6,6.8-1.7,7.3-5.2l13-76.9l54-8.1l17.3,83.3c0.8,3.5,4.1,5.8,7.6,5.1l118.2-22.3l1.7,15c0.4,3.5,3.6,6.1,7.1,5.8&#10;&#9;l141.9-12.8c3.6-0.3,6.4-3.4,6.4-7l-0.1-41.1l40.9,62.4c2,3.1,6,4.3,9.4,2.7l104.1-46.6l-0.6,37.2c-0.1,3.5,2.9,6.2,6.3,5.9&#10;&#9;l137.6-9.4c3.8-0.2,6.9-3.1,7.5-6.8l17.7-99.5l23.6,68c1.3,3.8,4.4,6.8,8.2,8l165.2,53.9c3.9,1.3,8.2,1,11.9-0.7l156.9-71.5&#10;&#9;c3.7-1.7,6.4-5,7.4-8.9l43.1-170.5c1-4.2,1.6-8.4,1.6-12.6V543C1725,538.6,1723.8,534.6,1721.3,531.2z" style="fill: rgb(20, 20, 20);"/>
  <path class="st0" d="M1508.9,297.2l-75.9-64.7l45-28c2.4-1.5,4.1-3.9,4.5-6.7l16-96.6c0.4-2.7-0.8-5.2-3.1-6.6L1402.7,40&#10;&#9;c-2.4-1.5-5.3-2-8.1-1.6L1257,59.5c-0.9,0.1-1.6,0.6-2.2,1l17.1,3c3,0.6,5,3.4,4.5,6.4l-14.2,84.5l18.5,180.1&#10;&#9;c0.3,2.4,2.4,4.3,4.8,4.1l67-5.9c2.4-0.2,4.3-2.3,4.3-4.8l-2.7-86.8l3.2-0.6l61.3,94.4c1.4,2.2,4.1,3,6.5,2l83-35.1&#10;&#9;C1510.1,301,1510.5,298.6,1508.9,297.2z M1405.2,190.3l-52.5,8.5l-2.7-91.6l64.3,22.7L1405.2,190.3z" style="fill: rgb(255, 255, 255);"/>
  <path class="st1" d="M1230.6,257l-99.6,14.7l-7.1-48.9l80.4,12.2c1.7,0.3,3.4-1,3.6-2.7l7-53.5c0.2-1.7-1-3.2-2.8-3.2l-82.7-1.3&#10;&#9;l12.5-46l91.8,27.8c1.6,0.5,3.4-0.6,3.6-2.2l11.1-66.1c0.3-1.7-0.9-3.4-2.7-3.8l-175.9-30.6c-1.8-0.3-3.5,0.8-4.1,2.5l-6.6,23.2&#10;&#9;L1070,85c2.9,1.6,4.5,4.8,4.1,8.1l-17,115.8c-0.6,3.5-2.2,6.8-4.8,9.3l-26.9,25.8l12.9,79.3c0.3,1.8,1.8,3.2,3.8,3.2l200.4,7.1&#10;&#9;c1.7,0.1,2.9-1.5,2.7-3.1l-10.8-70.8C1234,258,1232.3,256.8,1230.6,257z" style="fill: rgb(255, 255, 255);"/>
  <path class="st2" d="M1044.1,99l-93.4-50.4c-2.5-1.3-5.4-1.8-8.2-1.3L805.7,72.5c-2.4,0.5-4.1,2.7-3.8,5.2l2,16.7l17.5,2.3&#10;&#9;c3,0.3,5,3.2,4.6,6.1l-12.2,72.4l19.1,157.4c0.3,2.4,2.5,4.2,5,3.9l68.7-6.9c2.4-0.2,4.3-2.4,4.1-4.8l-4-64.5l65.7-3.6&#10;&#9;c2.8-0.2,5.5-1.3,7.6-3.3l50.1-47.9c2.1-2,3.4-4.6,3.8-7.5l13.6-92.5C1047.7,102.9,1046.4,100.2,1044.1,99z M955,192.2l-52.2,9.1&#10;&#9;l-5.4-87.6l66.5,22.9L955,192.2z" style="fill: rgb(255, 255, 255);"/>
  <path class="st0" d="M793.9,118l-101.1-13.4c-2.2-0.3-4.3,1.5-4.2,3.8l6.1,134.9l-79.8,5.2l28.2-174.1c0.3-2.4-1.3-4.5-3.7-4.7&#10;&#9;l-100.9-9.4c-2.4-0.2-4.5,1.6-4.7,4l-0.3,4.6l11.2,8.6c2.8,2.2,4.6,5.4,5,8.8l0.6,5c0.4,3.5-0.6,7.1-2.7,9.8l-17.6,22.3l-4.6,74.4&#10;&#9;l6.6,4.3c2.9,2,5.1,5,5.9,8.4l1,4.1c0.9,3.5,0.6,7.1-0.9,10.4l-16.8,37.9l-0.2,3.5c-0.2,2.8,0.9,5.5,3,7.3l58,52.2&#10;&#9;c2.1,1.9,4.8,3,7.7,3.1l127.1,3.2c2.8,0.1,5.5-1.1,7.3-3.2l44.8-51.1c1.9-2.2,3.2-4.8,3.6-7.7l24.8-147.1&#10;&#9;C798,120.5,796.3,118.2,793.9,118z" style="fill: rgb(255, 255, 255);"/>
  <path class="st3" d="M398.1,91.1l78.2,53.6c2,1.4,4.8,1,6.4-1l38.1-48.3c1.5-1.9,1.2-4.7-0.8-6.1l-80.5-61.7&#10;&#9;c-2.2-1.7-5.1-2.5-7.9-2.2L322.3,35.8c-2.8,0.3-5.2,1.8-6.8,4.1l-58.2,86.9c-1.3,2-0.8,4.7,1.3,5.9l142.1,86.6l-29.1,39.5&#10;&#9;l-75.8-63.8c-1.8-1.5-4.6-1.2-6,0.7l-44.3,59c-1.5,2-1.2,4.8,0.7,6.4l77.9,66.3c2.2,1.8,5,2.8,7.8,2.8l129.3-2.2&#10;&#9;c2.7-0.1,5.1-1.7,6.2-4.1l44.4-100.5c1-2.4,0.2-5.1-1.9-6.5l-134.5-88.6L398.1,91.1z" style="fill: rgb(255, 255, 255);"/>
  <path class="st1" d="M1690.5,538.1l-87.9-124.2c-1.9-2.7-4.8-4.5-8-4.8l-171.3-20.9c-3.1-0.3-6.4,0.9-8.2,3.4l-75.6,95.5&#10;&#9;l-21.2,120.1l35.8,103.1c1,3.1,3.5,5.4,6.6,6.4l143,46.7c3.1,1,6.6,0.8,9.6-0.6l136.1-62.1c2.9-1.3,5.1-4,5.9-7.1l37-146.4&#10;&#9;C1693.1,544.1,1692.4,540.7,1690.5,538.1z M1489.5,641l-57.5-60.8l41.3-71l76.6,20.5l9.5,76.5L1489.5,641z" style="fill: rgb(255, 255, 255);"/>
  <path class="st3" d="M1319.4,404l-130.7-31.2c-2.6-0.6-5.1,1.3-5.2,3.9L1172.2,669l16.1,13.3c3.1,2.5,4.6,6.5,4.1,10.5l-2.1,15&#10;&#9;c-0.6,3.9-3.1,7.3-6.8,8.9l-13.4,6l-0.8,21.2c-0.1,2.7,2.2,5,4.9,4.8l85.1-5.9c3-0.2,5.5-2.4,6-5.4l58.1-327.3&#10;&#9;C1324,407.4,1322.2,404.7,1319.4,404z" style="fill: rgb(255, 255, 255);"/>
  <path class="st0" d="M1155.1,692.6l-100.9-83.7l64-37.4c2.8-1.6,4.8-4.5,5.4-7.6l22.3-116.1c0.6-3.1-0.8-6.1-3.5-7.7l-130-75.9&#10;&#9;c-2.9-1.7-6.2-2.3-9.5-1.8L819.3,392c-2.9,0.5-4.8,3.1-4.5,5.9l25.6,219.9l44.4,127.6l64.5-5.8c2.9-0.2,5-2.7,4.9-5.6l-4.1-113.8&#10;&#9;l4.3-0.9l82.3,125.6c1.6,2.4,4.8,3.4,7.5,2.2l110.1-49.3C1156.5,697,1156.9,694.1,1155.1,692.6z M1015.4,548.8l-67.2,15.6&#10;&#9;l-3.8-108.2l79.6,21.5L1015.4,548.8z" style="fill: rgb(255, 255, 255);"/>
  <path class="st1" d="M845.1,720.2L733.6,400.1c-1-2.9-3.7-5-6.8-5.4l-152.5-15.6c-2.9-0.3-5.7,1.6-6.6,4.4l-50.3,173.7l37.4,185.2&#10;&#9;l32.5,6.1c2.8,0.5,5.4-1.3,5.9-4.1l11.7-69.6l102.2-15.4l17.3,83.5c0.6,2.8,3.3,4.6,6.1,4.1l111.2-21&#10;&#9;C844.4,725.5,846,722.8,845.1,720.2z M620.5,582.8l16.6-98.6l34.2,2.7l20.5,98.4L620.5,582.8z" style="fill: rgb(255, 255, 255);"/>
  <path class="st2" d="M455.2,396.4c-0.6-3-3.1-5.3-6.1-5.7l-83.7-11.2c-3.1-0.4-6.1,1.1-7.5,3.8l-55.5,107.3l-38.2-113.8&#10;&#9;c-1-2.9-3.6-5.1-6.7-5.5l-77.5-10.3c-3-0.3-5.9,1.3-7.1,4.1l-136.3,319c-1.1,2.6,0.1,5.6,2.7,6.8L164,744.1c2.5,1.1,5.4-0.2,6.2-2.9&#10;&#9;l58.7-191.6l55,98.8c1.2,2.2,4.2,2.4,5.7,0.5l75.6-92.9l11.9,198.7c0.1,2.7,2.7,4.6,5.3,4.1l135-27.9c2.8-0.6,4.6-3.3,4.1-6.1&#10;&#9;L455.2,396.4z" style="fill: rgb(255, 255, 255);"/>
</svg>