<?xml version="1.0" encoding="UTF-8" standalone="no"?>
<!-- Generator: Adobe Illustrator 22.1.0, SVG Export Plug-In . SVG Version: 6.00 Build 0)  -->

<svg
   xmlns:osb="http://www.openswatchbook.org/uri/2009/osb"
   xmlns:dc="http://purl.org/dc/elements/1.1/"
   xmlns:cc="http://creativecommons.org/ns#"
   xmlns:rdf="http://www.w3.org/1999/02/22-rdf-syntax-ns#"
   xmlns:svg="http://www.w3.org/2000/svg"
   xmlns="http://www.w3.org/2000/svg"
   xmlns:sodipodi="http://sodipodi.sourceforge.net/DTD/sodipodi-0.dtd"
   xmlns:inkscape="http://www.inkscape.org/namespaces/inkscape"
   version="1.1"
   id="Layer_1"
   x="0px"
   y="0px"
   width="450"
   height="120"
   viewBox="0 0 450 120"
   enable-background="new 0 0 450 120"
   xml:space="preserve"
   sodipodi:docname="solarus.svg"
   inkscape:version="0.92.1 r15371"><metadata
   id="metadata4547"><rdf:RDF><cc:Work
       rdf:about=""><dc:format>image/svg+xml</dc:format><dc:type
         rdf:resource="http://purl.org/dc/dcmitype/StillImage" /><dc:title></dc:title></cc:Work></rdf:RDF></metadata><defs
   id="defs4545"><linearGradient
     id="linearGradient6594"
     osb:paint="solid"><stop
       style="stop-color:#ffffff;stop-opacity:1;"
       offset="0"
       id="stop6592" /></linearGradient></defs><sodipodi:namedview
   pagecolor="#ffffff"
   bordercolor="#666666"
   borderopacity="1"
   objecttolerance="10"
   gridtolerance="10"
   guidetolerance="10"
   inkscape:pageopacity="0"
   inkscape:pageshadow="2"
   inkscape:window-width="1280"
   inkscape:window-height="738"
   id="namedview4543"
   showgrid="false"
   inkscape:pagecheckerboard="true"
   inkscape:zoom="3.9849395"
   inkscape:cx="35.553607"
   inkscape:cy="64.217592"
   inkscape:window-x="-8"
   inkscape:window-y="-8"
   inkscape:window-maximized="1"
   inkscape:current-layer="Layer_1" />
<path
   style="fill:#ffffff;fill-opacity:1"
   d="M 110.44922 1.4003906 C 85.049213 1.4003906 63.700156 19.000625 57.910156 42.640625 C 54.340156 38.900625 48.989609 35.900703 41.599609 33.470703 C 39.179609 32.650703 37.380313 31.969453 36.070312 31.439453 C 35.510312 31.209453 35.75 30.960938 35.75 30.960938 C 35.75 30.960938 36.039297 30.650391 37.029297 30.650391 C 39.349297 30.650391 41.490391 30.980156 43.400391 31.410156 C 45.370391 31.850156 47.220312 32.370936 49.070312 33.210938 L 58.419922 37.480469 L 61.050781 8.8808594 L 55.699219 7 C 53.289219 6.14 50.460781 5.4400781 47.050781 4.8300781 C 43.690781 4.2400781 40.160781 3.9394531 36.550781 3.9394531 C 26.510781 3.9394531 18.319219 6.2302368 12.199219 10.740234 C 5.4992175 15.700234 1.9609375 23.009141 1.9609375 31.869141 C 1.9609375 39.559141 4.3392969 45.669297 9.0292969 50.029297 C 13.019297 53.729297 18.620391 56.710391 26.150391 59.150391 C 29.870391 60.390391 32.099219 61.38 31.949219 61.75 C 31.799219 62.13 30.380156 62.339844 28.910156 62.339844 C 26.160156 62.339844 22.279844 61.770391 18.589844 60.400391 C 14.899844 59.030391 5.2890625 51.779297 5.2890625 51.779297 L 2.3203125 84.029297 L 8.0703125 85.730469 C 9.8603125 86.260469 11.950391 86.780781 14.400391 87.300781 L 2.1308594 118.9707 L 20.009766 118.9707 L 22.089844 113.40039 L 24.539062 113.40039 L 26.570312 118.9707 L 67.570312 118.9707 L 67.570312 86.160156 L 80.289062 86.160156 L 80.279297 86.179688 L 67.589844 118.9707 L 85.470703 118.9707 L 87.539062 113.40039 L 90 113.40039 L 92.039062 118.9707 L 139.7207 118.9707 L 139.7207 109.51953 C 141.5607 109.28953 143.23047 108.80984 144.73047 108.08984 C 145.88047 111.10984 147.61945 113.20984 149.18945 114.58984 C 152.78945 117.77984 157.62055 119.40039 163.56055 119.40039 C 165.55055 119.40039 167.57055 119.20961 169.56055 118.84961 C 171.47055 118.49961 172.87977 118.17031 174.00977 117.82031 L 177.86914 116.63086 L 177.86914 87.960938 L 186.36914 87.949219 C 183.94914 90.399219 181.48047 94.469603 181.48047 100.84961 C 181.48047 108.03961 184.58922 112.29961 187.19922 114.59961 C 190.79922 117.78961 195.63031 119.41016 201.57031 119.41016 C 203.31031 119.41016 205.07078 119.26047 206.80078 118.98047 L 223 118.98047 L 225.07031 113.41016 L 227.51953 113.41016 L 229.56055 118.98047 L 300.26953 118.98047 L 300.26953 82.689453 L 299.59961 82.689453 L 299.59961 63.269531 L 306.63086 82.679688 L 304.44922 82.679688 L 304.44922 118.9707 L 359.06055 118.9707 L 359.06055 115.44922 C 362.54055 118.05922 366.98961 119.40039 372.34961 119.40039 C 374.35961 119.40039 376.37961 119.20961 378.34961 118.84961 C 379.25961 118.67961 380.05953 118.51936 380.76953 118.35938 L 380.76953 118.98047 L 447.14062 118.98047 L 447.14062 82.679688 L 436.96094 82.679688 C 437.22094 82.499685 437.48047 82.320625 437.73047 82.140625 C 444.48047 77.130625 448.05078 69.789687 448.05078 60.929688 C 448.05078 53.739688 446.13008 47.859219 442.33008 43.449219 C 438.78008 39.329219 433.1993 36.070703 425.2793 33.470703 C 422.8893 32.660703 421.11078 31.990937 419.80078 31.460938 C 419.21078 31.220938 419.72094 30.660156 420.71094 30.660156 C 423.02094 30.660156 425.16008 30.980156 427.08008 31.410156 C 429.02008 31.850156 430.92047 32.390703 432.73047 33.220703 L 442.08008 37.5 L 443.0293 27.259766 L 444.21094 14.539062 L 444.73047 8.890625 L 439.38086 7 C 436.98086 6.15 434.15047 5.4400781 430.73047 4.8300781 C 427.37047 4.2400781 423.8407 3.9394531 420.2207 3.9394531 C 410.4807 3.9394531 402.47969 6.0996118 396.42969 10.349609 L 396.42969 5.109375 L 365.80078 5.109375 L 365.80078 51.730469 C 365.80078 57.320469 364.63945 59.820547 363.93945 60.810547 C 363.61945 61.280547 362.94047 62.240234 359.98047 62.240234 C 357.02047 62.240234 356.30094 61.270781 355.96094 60.800781 C 354.81094 59.230781 354.16992 56.210313 354.16992 52.320312 L 354.16992 5.109375 L 323.53906 5.109375 L 323.53906 9.9707031 C 318.15906 6.7107031 311.22086 5.109375 302.38086 5.109375 L 268.96094 5.109375 L 268.96094 42.25 L 254.30078 5.109375 L 225.4707 5.109375 L 203.7207 61.259766 L 188.90039 61.259766 L 188.90039 5.109375 L 158.26953 5.109375 L 158.26953 30.230469 C 149.17953 13.100469 131.15922 1.4003906 110.44922 1.4003906 z M 110.44922 6.8691406 C 137.31922 6.8691406 159.09078 28.640234 159.05078 55.490234 C 159.05078 64.720234 156.4407 73.220078 151.9707 80.580078 L 99.990234 80.580078 C 109.18023 71.390078 119.05047 61.609687 122.73047 57.929688 C 119.35047 54.559687 123.90086 49.930078 125.38086 48.580078 L 127.69922 50.900391 C 130.89922 54.100391 126.00977 56.859375 126.00977 56.859375 L 133.03906 63.900391 C 133.03906 63.900391 138.06008 52.930937 132.08008 46.960938 C 129.96008 44.840937 128.57063 43.449766 127.64062 42.509766 L 135.83008 34.330078 C 137.95008 35.100078 140.43062 34.639688 142.14062 32.929688 C 144.52062 30.559688 144.52062 26.719375 142.14062 24.359375 C 139.78063 21.989375 135.94031 21.989375 133.57031 24.359375 C 131.85031 26.089375 131.39969 28.580469 132.17969 30.730469 L 124.00977 38.900391 L 119.53906 34.429688 C 113.57906 28.469687 102.60938 33.470703 102.60938 33.470703 L 109.64062 40.509766 C 109.64062 40.509766 112.39938 35.610547 115.60938 38.810547 C 116.41937 39.620547 117.19969 40.410859 117.92969 41.130859 C 116.58969 42.610859 111.96008 47.159297 108.58008 43.779297 C 102.72008 49.649297 81.139688 71.139609 71.679688 80.599609 L 68.890625 80.599609 C 64.420625 73.239609 61.810547 64.739766 61.810547 55.509766 C 61.810547 28.639766 83.589219 6.8691406 110.44922 6.8691406 z M 36.550781 11.230469 C 39.740781 11.230469 42.829062 11.489766 45.789062 12.009766 C 48.759063 12.539766 51.249531 13.149141 53.269531 13.869141 L 52.099609 26.589844 C 49.819609 25.539844 47.459766 24.739453 45.009766 24.189453 C 42.559766 23.639453 39.899297 23.359375 37.029297 23.359375 C 33.569297 23.359375 30.830547 23.999531 28.810547 25.269531 C 26.780547 26.539531 25.779297 28.450234 25.779297 30.990234 C 25.779297 32.750234 26.540312 34.250234 28.070312 35.490234 C 29.600313 36.730234 33.339297 38.360859 39.279297 40.380859 C 45.859297 42.540859 50.479141 45.140937 53.119141 48.210938 C 55.769141 51.280938 57.090078 55.509922 57.080078 60.919922 C 57.080078 67.509922 54.609453 72.629297 49.689453 76.279297 C 44.769453 79.939297 38.129064 81.759766 29.789062 81.759766 C 25.939062 81.759766 22.250469 81.410469 18.730469 80.730469 C 15.200469 80.040469 12.329141 79.370703 10.119141 78.720703 L 11.390625 65.019531 C 12.500625 65.809531 14.819844 66.770156 18.339844 67.910156 C 21.859844 69.050156 25.380156 69.619141 28.910156 69.619141 C 32.360156 69.619141 35.179141 68.940314 37.369141 67.570312 C 39.549141 66.200313 40.650391 64.34 40.650391 62 C 40.650391 60.17 39.829219 58.490938 38.199219 56.960938 C 36.569219 55.430937 33.309922 53.850703 28.419922 52.220703 C 21.959922 50.140703 17.150234 47.619453 13.990234 44.689453 C 10.830234 41.749453 9.25 37.479141 9.25 31.869141 C 9.25 25.279141 11.669297 20.199375 16.529297 16.609375 C 21.389297 13.019375 28.060781 11.230469 36.550781 11.230469 z M 420.24023 11.230469 C 423.43023 11.230469 426.52047 11.489766 429.48047 12.009766 C 432.44047 12.539766 434.94094 13.149141 436.96094 13.869141 L 435.7793 26.589844 C 433.4993 25.539844 431.13945 24.739453 428.68945 24.189453 C 426.23945 23.639453 423.58094 23.359375 420.71094 23.359375 C 417.25094 23.359375 414.51023 23.999531 412.49023 25.269531 C 410.46023 26.539531 409.46094 28.450234 409.46094 30.990234 C 409.46094 32.750234 410.22 34.250234 411.75 35.490234 C 413.28 36.730234 417.02094 38.360859 422.96094 40.380859 C 429.54094 42.540859 434.16078 45.140937 436.80078 48.210938 C 439.45078 51.280938 440.74953 55.509922 440.76953 60.919922 C 440.76953 67.509922 438.32039 72.629297 433.40039 76.279297 C 428.48039 79.939297 421.84 81.759766 413.5 81.759766 C 409.64 81.759766 405.94969 81.410469 402.42969 80.730469 C 398.90969 80.040469 396.04008 79.370703 393.83008 78.720703 L 395.08984 65.019531 C 396.20984 65.809531 398.53078 66.770156 402.05078 67.910156 C 405.57078 69.050156 409.08938 69.619141 412.60938 69.619141 C 416.05937 69.619141 418.88008 68.940314 421.08008 67.570312 C 423.26008 66.200313 424.35938 64.34 424.35938 62 C 424.35938 60.17 423.53016 58.490938 421.91016 56.960938 C 420.28016 55.430937 417.02086 53.850703 412.13086 52.220703 C 405.67086 50.140703 400.85945 47.619453 397.68945 44.689453 C 394.52945 41.749453 392.93945 37.479141 392.93945 31.869141 C 392.93945 25.279141 395.37047 20.199375 400.23047 16.609375 C 405.08047 13.019375 411.75023 11.230469 420.24023 11.230469 z M 165.57031 12.410156 L 181.61914 12.410156 L 181.61914 68.560547 L 208.7207 68.560547 L 230.4707 12.410156 L 249.33984 12.410156 L 276.25 80.574219 L 276.25 12.410156 L 302.38086 12.410156 C 310.39086 12.410156 316.51953 13.889375 320.76953 16.859375 C 324.99953 19.829375 327.11914 24.409375 327.11914 30.609375 C 327.11914 34.329375 325.99906 37.719062 323.78906 40.789062 C 321.57906 43.849063 318.09008 45.869609 313.33008 46.849609 C 316.20008 47.629609 318.30063 49.460078 319.64062 52.330078 C 320.98064 55.200078 322.13936 57.970625 323.10938 60.640625 L 323.50977 61.519531 L 330.83008 80.599609 L 313.61914 80.599609 L 306.76953 61.720703 C 305.92953 59.180703 304.77961 57.070156 303.34961 55.410156 C 301.91961 53.740156 299.86945 52.910156 297.18945 52.910156 L 292.30078 52.910156 L 292.30078 80.599609 L 276.25977 80.599609 L 276.25 80.574219 L 276.25 80.599609 L 258.65039 80.599609 L 253.16992 65.630859 L 226.06055 65.630859 L 220.49023 80.599609 L 165.57031 80.599609 L 165.57031 12.410156 z M 330.83008 12.410156 L 346.88086 12.410156 L 346.88086 52.339844 C 346.88086 57.939844 347.94961 62.220391 350.09961 65.150391 C 352.26961 68.080391 355.55023 69.550781 359.99023 69.550781 C 364.50023 69.550781 367.80969 68.03 369.92969 65 C 372.04969 61.96 373.09961 57.550234 373.09961 51.740234 L 373.09961 12.410156 L 389.14062 12.410156 L 389.14062 53.890625 C 389.14062 63.220625 386.70961 70.200078 381.84961 74.830078 C 376.98961 79.450078 369.73008 81.769531 360.08008 81.769531 C 350.62008 81.769531 343.38936 79.540312 338.35938 75.070312 C 333.34938 70.610314 330.83008 64.039375 330.83008 55.359375 L 330.83008 12.410156 z M 292.30078 24.140625 L 292.30078 41.169922 L 299.05078 41.169922 C 302.70078 41.169922 305.56039 40.470547 307.65039 39.060547 C 309.74039 37.660547 310.78906 35.530391 310.78906 32.650391 C 310.78906 29.650391 309.74922 27.480625 307.69922 26.140625 C 305.64922 24.810625 302.60055 24.140625 298.56055 24.140625 L 292.30078 24.140625 z M 239.84961 26.099609 L 230.26953 53.789062 L 249.05078 53.789062 L 239.84961 26.099609 z M 163.92969 87.710938 C 165.59969 87.710938 167.08086 87.799766 168.38086 88.009766 C 169.68086 88.219766 170.8007 88.499141 171.7207 88.869141 L 171.7207 89.119141 L 171.32031 93.769531 C 170.36031 93.259531 169.32969 92.879141 168.17969 92.619141 C 167.04969 92.369141 165.87945 92.240234 164.68945 92.240234 C 161.72945 92.240234 159.39992 93.020781 157.66992 94.550781 C 155.95992 96.100781 155.08008 98.199355 155.08008 100.85938 C 155.08008 103.43935 155.88094 105.49078 157.46094 107.05078 C 159.03094 108.60078 161.10969 109.38086 163.67969 109.38086 C 164.37969 109.38086 164.95945 109.34023 165.43945 109.24023 C 165.90945 109.15023 166.31016 109.04016 166.66016 108.91016 L 166.66016 103.31055 L 162.08984 103.31055 L 162.08984 98.919922 L 172.41992 98.919922 L 172.41992 112.58008 C 171.48992 112.87008 170.21008 113.16094 168.58008 113.46094 C 166.94008 113.76094 165.27031 113.91992 163.57031 113.91992 C 158.99031 113.91992 155.41031 112.77047 152.82031 110.48047 C 150.24031 108.20047 148.94922 104.97008 148.94922 100.83008 C 148.94922 96.66007 150.27969 93.430391 152.92969 91.150391 C 155.57969 88.860391 159.24969 87.710938 163.92969 87.710938 z M 201.91992 87.710938 C 203.58992 87.710938 205.06914 87.799766 206.36914 88.009766 C 207.66914 88.219766 208.77922 88.499141 209.69922 88.869141 L 209.69922 89.119141 L 209.30078 93.769531 C 208.35078 93.259531 207.30992 92.879141 206.16992 92.619141 C 205.02992 92.369141 203.86969 92.240234 202.67969 92.240234 C 199.71969 92.240234 197.39016 93.020781 195.66016 94.550781 C 193.94016 96.100781 193.08008 98.19936 193.08008 100.85938 C 193.08008 103.43935 193.85945 105.49078 195.43945 107.05078 C 197.00945 108.60078 199.08992 109.38086 201.66992 109.38086 C 202.35992 109.38086 202.94969 109.34023 203.42969 109.24023 C 203.89969 109.15023 204.30062 109.04016 204.64062 108.91016 L 204.64062 103.31055 L 200.07031 103.31055 L 200.07031 98.919922 L 210.39062 98.919922 L 210.39062 112.58008 C 209.46062 112.87008 208.19078 113.16094 206.55078 113.46094 C 204.92078 113.76094 203.25078 113.91992 201.55078 113.91992 C 196.97078 113.91992 193.39078 112.77047 190.80078 110.48047 C 188.22078 108.20047 186.92969 104.97008 186.92969 100.83008 C 186.92969 96.660072 188.26992 93.430391 190.91992 91.150391 C 193.57992 88.860391 197.23992 87.710938 201.91992 87.710938 z M 372.7207 87.710938 C 374.3907 87.710938 375.86969 87.799766 377.17969 88.009766 C 378.46969 88.219766 379.58023 88.499141 380.49023 88.869141 L 380.49023 89.119141 L 380.10938 93.769531 C 379.14938 93.259531 378.1207 92.879141 376.9707 92.619141 C 375.8407 92.369141 374.67047 92.240234 373.48047 92.240234 C 370.52047 92.240234 368.18094 93.020781 366.46094 94.550781 C 364.74094 96.100781 363.88086 98.19937 363.88086 100.85938 C 363.88086 103.43936 364.67 105.49078 366.25 107.05078 C 367.81 108.60078 369.90094 109.38086 372.46094 109.38086 C 373.16094 109.38086 373.75047 109.34023 374.23047 109.24023 C 374.71047 109.15023 375.09945 109.04016 375.43945 108.91016 L 375.43945 103.31055 L 370.86914 103.31055 L 370.86914 98.919922 L 381.19922 98.919922 L 381.19922 112.58008 C 380.26922 112.87008 378.99937 113.16094 377.35938 113.46094 C 375.73937 113.76094 374.04937 113.91992 372.35938 113.91992 C 367.78938 113.91992 364.20938 112.77047 361.60938 110.48047 C 359.02938 108.20047 357.74023 104.97008 357.74023 100.83008 C 357.74023 96.660076 359.0607 93.430391 361.7207 91.150391 C 364.3807 88.860391 368.0407 87.710938 372.7207 87.710938 z M 19.929688 88.150391 L 26.939453 88.150391 L 36.939453 113.5 L 30.400391 113.5 L 28.369141 107.92969 L 18.289062 107.92969 L 16.210938 113.5 L 10.109375 113.5 L 19.929688 88.150391 z M 39.820312 88.150391 L 47.230469 88.150391 L 56.509766 106.2207 L 56.509766 88.150391 L 62.099609 88.150391 L 62.099609 113.5 L 54.869141 113.5 L 54.660156 113.09961 L 45.419922 95.570312 L 45.419922 113.5 L 39.820312 113.5 L 39.820312 88.150391 z M 85.380859 88.150391 L 92.400391 88.150391 L 102.40039 113.5 L 95.859375 113.5 L 93.820312 107.92969 L 83.740234 107.92969 L 81.669922 113.5 L 75.570312 113.5 L 85.380859 88.150391 z M 104.9707 88.150391 L 114.67969 88.150391 C 117.65969 88.150391 119.93953 88.710547 121.51953 89.810547 C 123.09953 90.910547 123.88086 92.609922 123.88086 94.919922 C 123.88086 96.299922 123.46039 97.559453 122.65039 98.689453 C 121.82039 99.839453 120.53 100.57922 118.75 100.94922 C 119.82 101.23922 120.60961 101.92023 121.09961 102.99023 C 121.59961 104.06023 122.03065 105.09008 122.39062 106.08008 L 122.53906 106.41016 L 125.25 113.5 L 118.85938 113.5 L 116.31055 106.48047 C 115.99055 105.54047 115.5593 104.74063 115.0293 104.14062 C 114.5093 103.52062 113.73023 103.19922 112.74023 103.19922 L 110.92969 103.19922 L 110.92969 113.5 L 104.9707 113.5 L 104.9707 88.150391 z M 128.2793 88.150391 L 136.07031 88.150391 C 139.49031 88.150391 142.09086 88.799844 143.88086 90.089844 C 145.68086 91.399844 146.58031 93.380781 146.57031 96.050781 C 146.57031 98.660781 145.71953 100.67961 144.01953 102.09961 C 142.32953 103.51961 139.95969 104.2207 136.92969 104.2207 L 134.24023 104.2207 L 134.24023 113.5 L 128.2793 113.5 L 128.2793 88.150391 z M 222.89062 88.150391 L 229.91992 88.150391 L 239.91992 113.5 L 233.38086 113.5 L 231.33984 107.92969 L 221.25977 107.92969 L 219.18945 113.5 L 213.08008 113.5 L 222.89062 88.150391 z M 242.75 88.150391 L 251.99023 88.150391 L 257.88086 105.83008 L 263.91016 88.150391 L 272.89062 88.150391 L 272.89062 113.5 L 267.16016 113.5 L 267.23047 93.390625 L 260.42969 113.09961 L 255.11914 113.09961 L 248.44922 93.359375 L 248.5293 113.5 L 242.75 113.5 L 242.75 88.150391 z M 277.99023 88.150391 L 294.58008 88.150391 L 294.58008 92.519531 L 283.96094 92.519531 L 283.96094 98.300781 L 293.80078 98.300781 L 293.80078 102.66016 L 283.96094 102.66016 L 283.96094 109.08984 L 294.78906 109.08984 L 294.78906 113.5 L 277.99023 113.5 L 277.99023 88.150391 z M 309.91992 88.150391 L 326.49023 88.150391 L 326.49023 92.519531 L 315.89062 92.519531 L 315.89062 98.300781 L 325.74023 98.300781 L 325.74023 102.66016 L 315.89062 102.66016 L 315.89062 109.08984 L 326.7207 109.08984 L 326.7207 113.5 L 309.91992 113.5 L 309.91992 88.150391 z M 331.30078 88.150391 L 338.7207 88.150391 L 347.99023 106.2207 L 347.99023 88.150391 L 353.58984 88.150391 L 353.58984 113.5 L 346.35938 113.5 L 346.13086 113.09961 L 336.89062 95.570312 L 336.89062 113.5 L 331.30078 113.5 L 331.30078 88.150391 z M 386.24023 88.150391 L 392.21094 88.150391 L 392.21094 113.5 L 386.24023 113.5 L 386.24023 88.150391 z M 397.41016 88.150391 L 404.82031 88.150391 L 414.08984 106.2207 L 414.08984 88.150391 L 419.68945 88.150391 L 419.68945 113.5 L 412.46094 113.5 L 412.24023 113.09961 L 403 95.570312 L 403 113.5 L 397.41016 113.5 L 397.41016 88.150391 z M 424.86914 88.150391 L 441.46094 88.150391 L 441.46094 92.519531 L 430.83984 92.519531 L 430.83984 98.300781 L 440.67969 98.300781 L 440.67969 102.66016 L 430.83984 102.66016 L 430.83984 109.08984 L 441.66016 109.08984 L 441.66016 113.5 L 424.86914 113.5 L 424.86914 88.150391 z M 134.25 92.509766 L 134.25 99.789062 L 136.28906 99.849609 C 137.61906 99.849609 138.66969 99.530859 139.42969 98.880859 C 140.19969 98.230859 140.58008 97.309375 140.58008 96.109375 C 140.58008 94.979375 140.19992 94.089219 139.41992 93.449219 C 138.63992 92.829219 137.59906 92.509766 136.28906 92.509766 L 134.25 92.509766 z M 110.93945 92.519531 L 110.93945 98.839844 L 113.43945 98.839844 C 114.79945 98.839844 115.87064 98.590547 116.64062 98.060547 C 117.42065 97.550547 117.82031 96.749453 117.82031 95.689453 C 117.82031 94.579453 117.43969 93.759531 116.67969 93.269531 C 115.89969 92.769531 114.76977 92.519531 113.25977 92.519531 L 110.93945 92.519531 z M 23.419922 93.240234 L 19.859375 103.5293 L 26.839844 103.5293 L 23.419922 93.240234 z M 88.869141 93.240234 L 85.300781 103.5293 L 92.289062 103.5293 L 88.869141 93.240234 z M 226.40039 93.240234 L 222.83008 103.5293 L 229.81055 103.5293 L 226.40039 93.240234 z "
   id="stroke" />
<g
   id="solarus">
	
	
	
	
	
</g>
<g
   id="tagline">
	
	
	
	
	
	
	
	
	
	
	
	
	
	
	
	
</g>

</svg>