<?xml version="1.0" encoding="utf-8"?>
<svg version="1.2" baseProfile="tiny" id="Layer_3" x="0px" y="0px" viewBox="0 0 1280 720" preserveAspectRatio="none" xmlns="http://www.w3.org/2000/svg">
  <path id="path3" d="M 559.293 238.752 C 559.127 238.752 559.123 238.77 559.002 238.781 C 558.881 238.794 558.71 238.817 558.507 238.84 C 558.102 238.886 557.522 238.928 556.791 239.015 C 555.33 239.189 553.256 239.446 550.623 239.772 C 545.355 240.422 537.915 241.36 529.033 242.477 C 511.273 244.712 487.714 247.706 464.18 250.711 C 440.645 253.717 417.119 256.721 399.384 259.033 C 390.517 260.189 383.102 261.177 377.853 261.885 C 375.229 262.238 373.135 262.521 371.685 262.728 C 370.957 262.832 370.398 262.927 369.994 262.991 C 369.793 263.023 369.625 263.055 369.5 263.078 C 369.438 263.09 369.407 263.096 369.355 263.107 C 369.303 263.119 369.282 263.097 369.122 263.165 C 364.574 265.105 361.382 269.645 361.382 274.891 L 361.382 478.847 C 361.382 485.866 367.083 491.564 374.097 491.564 L 908.636 491.564 C 915.65 491.564 921.382 485.862 921.382 478.849 L 921.382 274.893 C 921.382 269.856 918.428 265.485 914.166 263.429 C 914.003 263.35 913.992 263.357 913.934 263.343 C 913.876 263.328 913.795 263.298 913.73 263.284 C 913.599 263.258 913.441 263.231 913.235 263.197 C 912.824 263.128 912.25 263.043 911.518 262.936 C 910.048 262.72 907.953 262.426 905.318 262.063 C 900.037 261.34 892.599 260.352 883.697 259.182 C 865.895 256.843 842.295 253.799 818.674 250.773 C 795.051 247.748 771.421 244.756 753.582 242.51 C 744.662 241.388 737.177 240.428 731.876 239.776 C 729.227 239.449 727.125 239.193 725.65 239.019 C 724.912 238.931 724.345 238.89 723.934 238.844 C 723.728 238.821 723.564 238.798 723.438 238.785 C 723.314 238.773 723.273 238.756 723.118 238.756 L 723.118 240.618 C 723.02 240.618 723.124 240.608 723.235 240.618 C 723.345 240.629 723.528 240.654 723.73 240.677 C 724.134 240.722 724.682 240.795 725.418 240.88 C 726.886 241.055 728.996 241.311 731.644 241.637 C 736.941 242.29 744.43 243.221 753.35 244.344 C 771.187 246.589 794.816 249.582 818.437 252.607 C 842.055 255.631 865.664 258.677 883.464 261.016 C 892.364 262.185 899.814 263.204 905.081 263.926 C 907.716 264.287 909.802 264.555 911.25 264.77 C 911.975 264.877 912.551 264.967 912.938 265.032 C 913.13 265.064 913.279 265.099 913.373 265.119 C 913.382 265.122 913.394 265.116 913.401 265.119 C 913.43 265.124 913.453 265.146 913.461 265.148 C 917.032 266.925 919.512 270.627 919.512 274.896 L 919.512 478.853 C 919.512 484.859 914.637 489.707 908.631 489.707 L 374.09 489.707 C 368.078 489.707 363.234 484.866 363.234 478.849 L 363.234 274.89 C 363.234 270.42 365.935 266.578 369.781 264.91 C 369.8 264.906 369.807 264.916 369.839 264.91 C 369.936 264.892 370.082 264.852 370.276 264.823 C 370.662 264.762 371.243 264.693 371.963 264.589 C 373.405 264.384 375.481 264.07 378.102 263.717 C 383.345 263.011 390.737 262.05 399.604 260.894 C 417.337 258.584 440.866 255.55 464.401 252.544 C 487.935 249.538 511.495 246.574 529.254 244.339 C 538.134 243.222 545.55 242.283 550.814 241.633 C 553.446 241.308 555.556 241.05 557.011 240.876 C 557.739 240.789 558.301 240.717 558.698 240.672 C 558.897 240.65 559.057 240.625 559.164 240.613 C 559.272 240.603 559.395 240.613 559.28 240.613 L 559.28 238.751 L 559.293 238.752 Z" style="fill: rgb(30, 30, 30);" transform="matrix(0.965926, -0.25882, 0.25882, 0.965926, -72.655302, 178.44485)"/>
  <path id="path5" d="M 547.601 230.006 C 546.385 230.006 545.348 230.574 544.749 231.402 C 544.151 232.231 543.935 233.264 543.935 234.283 L 543.935 307.894 C 543.935 353.591 580.985 390.672 626.682 390.672 C 672.381 390.672 709.46 353.591 709.46 307.894 L 709.46 234.284 C 709.46 233.218 709.238 232.174 708.617 231.345 C 707.994 230.519 706.95 230.009 705.703 230.009 L 547.599 230.009 L 547.601 230.006 Z M 547.601 231.869 L 705.705 231.869 C 706.512 231.869 706.854 232.083 707.131 232.451 C 707.406 232.819 707.597 233.471 707.597 234.284 L 707.597 307.895 C 707.597 352.587 671.371 388.81 626.682 388.81 C 581.989 388.81 545.796 352.586 545.796 307.895 L 545.796 234.284 C 545.796 233.552 545.973 232.879 546.261 232.48 C 546.55 232.082 546.894 231.871 547.603 231.871 L 547.601 231.869 Z" style="fill: rgb(30, 30, 30);" transform="matrix(0.965926, -0.258819, 0.258819, 0.965926, -58.967406, 172.775627)"/>
  <path id="path7" d="M 460.928 407.535 C 456.752 407.535 452.684 408.048 448.796 408.991 C 430.264 413.48 415.66 428.026 411.089 446.524 C 410.111 450.482 409.604 454.603 409.604 458.861 C 409.604 462.951 410.066 466.946 410.971 470.762 C 415.403 489.445 430.045 504.172 448.679 508.73 C 452.602 509.691 456.713 510.185 460.928 510.185 C 465.092 510.185 469.155 509.694 473.033 508.759 C 491.911 504.199 506.71 489.219 511.002 470.238 C 511.829 466.581 512.254 462.767 512.254 458.862 C 512.254 454.629 511.736 450.52 510.77 446.583 C 506.23 428.096 491.696 413.557 473.206 409.02 C 469.273 408.056 465.155 407.535 460.927 407.535 L 460.928 407.535 Z M 460.928 409.399 C 465.006 409.4 468.952 409.896 472.742 410.824 C 490.554 415.195 504.591 429.209 508.965 447.02 C 509.896 450.811 510.391 454.781 510.391 458.862 C 510.391 462.628 509.965 466.308 509.168 469.831 C 505.034 488.119 490.785 502.563 472.596 506.957 C 468.859 507.858 464.943 508.325 460.928 508.325 C 456.862 508.325 452.924 507.853 449.145 506.928 C 431.191 502.535 417.073 488.327 412.805 470.326 C 411.932 466.65 411.466 462.807 411.466 458.862 C 411.466 454.754 411.95 450.777 412.892 446.964 C 417.296 429.139 431.376 415.121 449.231 410.796 C 452.98 409.888 456.901 409.4 460.928 409.399 L 460.928 409.399 Z" style="fill: rgb(30, 30, 30);" transform="matrix(0.965926, -0.258819, 0.258819, 0.965926, -103.05586, 134.932347)"/>
  <path id="path9" d="M 460.928 407.536 C 456.752 407.536 452.684 408.049 448.796 408.992 L 448.767 408.992 L 448.708 408.992 C 447.869 409.278 447.124 409.795 446.643 410.562 C 446.16 411.333 445.972 412.28 445.972 413.444 L 445.972 441.637 C 445.972 442.543 445.816 443.108 445.594 443.384 C 445.373 443.658 444.98 443.907 443.847 443.907 L 415.509 443.907 C 414.498 443.907 413.627 443.965 412.833 444.343 C 412.038 444.725 411.458 445.474 411.117 446.44 L 411.117 446.467 L 411.088 446.527 C 410.11 450.484 409.604 454.604 409.604 458.864 C 409.604 462.954 410.066 466.948 410.971 470.765 L 411 470.765 C 411.252 471.741 411.687 472.619 412.485 473.15 C 413.282 473.68 414.277 473.819 415.51 473.819 L 443.82 473.819 C 444.724 473.819 445.21 473.992 445.479 474.255 C 445.748 474.519 445.973 475.042 445.973 476.118 L 445.973 504.282 C 445.973 505.629 446.218 506.635 446.73 507.366 C 447.242 508.096 447.978 508.475 448.592 508.704 L 448.651 508.704 L 448.68 508.733 C 452.603 509.693 456.714 510.188 460.929 510.188 C 465.093 510.188 469.155 509.698 473.033 508.762 L 473.062 508.762 C 473.822 508.551 474.575 508.099 475.098 507.336 C 475.621 506.575 475.884 505.548 475.884 504.282 L 475.884 476.09 C 475.884 475.223 476.099 474.693 476.407 474.372 C 476.716 474.053 477.228 473.82 478.211 473.82 L 506.347 473.82 C 507.802 473.82 508.908 473.446 509.664 472.745 C 510.42 472.042 510.78 471.137 511.002 470.272 L 511.002 470.244 C 511.829 466.587 512.253 462.773 512.253 458.868 C 512.253 454.635 511.736 450.523 510.769 446.588 L 510.769 446.56 C 510.507 445.607 510.028 444.801 509.226 444.377 C 508.425 443.955 507.528 443.911 506.346 443.911 L 478.239 443.911 C 477.135 443.911 476.619 443.673 476.349 443.388 C 476.078 443.104 475.883 442.584 475.883 441.642 L 475.883 413.45 C 475.883 412.328 475.813 411.42 475.388 410.627 C 474.963 409.833 474.163 409.295 473.235 409.027 L 473.206 409.027 C 469.273 408.062 465.155 407.542 460.927 407.542 L 460.928 407.536 Z M 460.928 409.4 C 464.996 409.4 468.932 409.9 472.713 410.825 C 472.721 410.827 472.733 410.823 472.742 410.825 C 473.347 411.006 473.559 411.174 473.731 411.494 C 473.906 411.822 474.022 412.446 474.022 413.444 L 474.022 441.637 C 474.022 442.811 474.239 443.91 474.982 444.693 C 475.726 445.474 476.868 445.769 478.241 445.769 L 506.348 445.769 C 507.451 445.769 508.08 445.885 508.355 446.03 C 508.624 446.171 508.776 446.335 508.967 447.02 C 508.968 447.028 508.965 447.039 508.967 447.047 C 509.893 450.832 510.393 454.788 510.393 458.861 C 510.393 462.627 509.966 466.307 509.17 469.831 C 508.987 470.531 508.764 471.046 508.414 471.372 C 508.055 471.706 507.499 471.955 506.348 471.955 L 478.212 471.955 C 476.912 471.955 475.813 472.318 475.07 473.09 C 474.327 473.86 474.023 474.924 474.023 476.086 L 474.023 504.28 C 474.023 505.28 473.815 505.911 473.558 506.285 C 473.3 506.66 472.973 506.835 472.539 506.953 C 468.819 507.848 464.926 508.322 460.929 508.322 C 456.895 508.322 452.987 507.864 449.233 506.953 C 449.218 506.947 449.221 506.932 449.204 506.926 C 448.772 506.76 448.492 506.597 448.274 506.286 C 448.048 505.963 447.837 505.39 447.837 504.28 L 447.837 476.114 C 447.837 474.775 447.546 473.684 446.79 472.942 C 446.033 472.2 444.969 471.955 443.822 471.955 L 415.51 471.955 C 414.449 471.955 413.86 471.793 413.532 471.575 C 413.206 471.355 412.996 471.066 412.805 470.324 C 411.932 466.648 411.466 462.805 411.466 458.86 C 411.466 454.783 411.934 450.836 412.863 447.047 L 412.892 447.047 C 413.134 446.361 413.321 446.156 413.649 445.999 C 413.975 445.843 414.578 445.765 415.51 445.765 L 443.85 445.765 C 445.279 445.765 446.385 445.401 447.051 444.574 C 447.716 443.747 447.836 442.696 447.836 441.635 L 447.836 413.442 C 447.836 412.486 447.989 411.913 448.215 411.549 C 448.434 411.2 448.752 410.985 449.291 410.794 C 449.309 410.789 449.303 410.771 449.32 410.765 C 453.04 409.872 456.933 409.4 460.928 409.4 L 460.928 409.4 Z" style="fill: rgb(30, 30, 30);" transform="matrix(0.965926, -0.25882, 0.25882, 0.965926, -103.056699, 134.932838)"/>
  <path id="circle11" d="M 460.929 444.985 C 453.279 444.985 447.051 451.213 447.051 458.864 C 447.051 466.515 453.279 472.742 460.929 472.742 C 468.58 472.742 474.808 466.514 474.808 458.863 C 474.808 451.212 468.579 444.985 460.929 444.985 Z M 460.929 446.846 C 467.573 446.846 472.946 452.217 472.946 458.863 C 472.946 465.507 467.573 470.878 460.929 470.878 C 454.286 470.878 448.913 465.507 448.913 458.864 C 448.913 452.218 454.286 446.846 460.929 446.846 Z" style="fill: rgb(30, 30, 30);" transform="matrix(0.965926, -0.258819, 0.258819, 0.965926, -103.056742, 134.932598)"/>
  <path id="path13" d="M 416.621 281.294 C 409.608 281.294 403.905 286.996 403.905 294.009 L 403.905 348.186 C 403.905 351.224 404.534 353.443 405.593 355.023 C 406.652 356.602 408.155 357.464 409.695 357.815 C 412.767 358.517 415.913 357.411 417.581 356.39 C 417.588 356.385 417.602 356.395 417.61 356.39 C 426.12 351.633 435.91 348.913 446.356 348.913 C 478.97 348.913 505.391 375.333 505.391 407.947 C 505.391 427.664 495.738 445.118 480.893 455.839 L 480.805 455.898 L 480.747 455.986 L 479.001 457.935 L 478.942 457.994 C 477.186 459.781 476.091 462.249 476.091 464.948 C 476.091 470.405 480.527 474.841 485.983 474.841 L 493.665 474.841 L 817.495 474.84 L 818.427 474.84 L 845.428 474.84 C 870.085 474.84 890.089 454.835 890.089 430.179 C 890.089 421.295 887.495 413.015 883.02 406.058 C 883.014 406.047 883.025 406.038 883.02 406.03 C 882.589 405.303 882.408 405.111 882.408 403.178 L 882.408 294.009 C 882.408 286.996 876.706 281.294 869.692 281.294 L 762.244 281.294 C 758.074 281.294 754.734 282.96 752.524 285.63 C 750.317 288.301 749.208 291.926 749.208 295.9 L 749.208 304.454 C 749.208 362.072 702.518 408.733 644.901 408.733 C 587.284 408.733 540.594 362.072 540.594 304.455 L 540.594 295.901 C 540.594 291.686 539.831 288.085 537.918 285.456 C 536 282.832 532.918 281.3 528.775 281.3 L 416.61 281.3 L 416.621 281.294 Z M 416.621 283.156 L 528.786 283.156 C 532.5 283.156 534.871 284.377 536.439 286.531 C 538.006 288.686 538.737 291.914 538.737 295.899 L 538.737 304.453 C 538.737 363.077 586.284 410.595 644.905 410.595 C 703.529 410.595 751.074 363.076 751.074 304.452 L 751.074 295.898 C 751.074 292.269 752.084 289.054 753.954 286.791 C 755.825 284.533 758.562 283.159 762.25 283.159 L 869.702 283.159 C 875.708 283.159 880.555 288.004 880.555 294.011 L 880.555 403.178 C 880.555 405.322 880.977 406.256 881.427 407.018 L 881.456 407.018 L 881.456 407.046 C 885.752 413.719 888.235 421.647 888.235 430.176 C 888.235 453.827 869.087 472.977 845.434 472.977 L 819.364 472.977 L 818.433 472.977 L 493.673 472.978 L 485.992 472.978 C 481.542 472.978 477.961 469.397 477.961 464.949 C 477.961 462.723 478.862 460.732 480.317 459.274 L 480.346 459.246 L 480.346 459.216 L 481.976 457.354 C 481.997 457.338 482.011 457.311 482.034 457.296 C 497.307 446.232 507.26 428.246 507.26 407.949 C 507.26 374.328 479.983 347.052 446.363 347.052 C 435.585 347.052 425.44 349.875 416.657 354.792 L 416.628 354.792 C 415.403 355.545 412.444 356.546 410.11 356.013 C 408.943 355.748 407.934 355.158 407.142 353.978 C 406.351 352.797 405.775 350.978 405.775 348.188 L 405.775 294.014 C 405.769 288.01 410.614 283.165 416.622 283.165 L 416.621 283.156 Z" style="fill: rgb(30, 30, 30);" transform="matrix(0.965926, -0.258819, 0.258819, 0.965926, -75.805127, 180.337329)"/>
  <path id="circle15" d="M 792.615 366.58 C 777.156 366.58 764.595 379.139 764.595 394.6 C 764.595 410.056 777.154 422.62 792.615 422.62 C 808.071 422.62 820.602 410.059 820.602 394.6 C 820.604 379.142 808.074 366.58 792.615 366.58 Z M 792.615 368.442 C 807.066 368.442 818.742 380.148 818.742 394.6 C 818.742 409.051 807.066 420.757 792.615 420.757 C 778.162 420.757 766.458 409.051 766.458 394.6 C 766.458 380.148 778.162 368.442 792.615 368.442 Z" style="fill: rgb(30, 30, 30);" transform="matrix(0.965926, -0.258819, 0.258819, 0.965926, -75.122799, 218.585077)"/>
  <path id="circle17" d="M 792.613 370.849 C 779.513 370.849 768.872 381.492 768.872 394.591 C 768.872 407.69 779.513 418.333 792.613 418.333 C 805.712 418.333 816.354 407.69 816.354 394.591 C 816.354 381.492 805.712 370.849 792.613 370.849 Z M 792.613 372.711 C 804.704 372.711 814.49 382.496 814.49 394.59 C 814.49 406.682 804.704 416.469 792.613 416.469 C 780.52 416.469 770.734 406.682 770.734 394.59 C 770.734 382.497 780.52 372.711 792.613 372.711 Z" style="fill: rgb(30, 30, 30);" transform="matrix(0.965926, -0.258819, 0.258819, 0.965926, -75.119979, 218.588523)"/>
  <path id="path19" d="M 791.502 350.887 C 772.036 350.887 756.238 366.685 756.238 386.15 C 756.238 405.617 772.036 421.414 791.502 421.414 L 856.763 421.414 C 876.229 421.414 892.027 405.617 892.027 386.15 C 892.027 366.685 876.229 350.887 856.763 350.887 L 791.502 350.887 Z M 791.502 352.748 L 856.763 352.748 C 875.224 352.748 890.165 367.688 890.165 386.15 C 890.165 404.613 875.226 419.552 856.763 419.552 L 791.502 419.552 C 773.042 419.552 758.099 404.614 758.099 386.15 C 758.101 367.689 773.042 352.748 791.502 352.748 Z" style="fill: rgb(30, 30, 30);" transform="matrix(0.965926, -0.25882, 0.25882, 0.965926, -71.861597, 226.459626)"/>
  <path id="circle21" d="M 855.648 349.689 C 840.191 349.689 827.629 362.248 827.629 377.709 C 827.629 393.165 840.189 405.729 855.648 405.729 C 871.107 405.729 883.638 393.168 883.638 377.709 C 883.638 362.25 871.106 349.689 855.648 349.689 Z M 855.648 351.551 C 870.101 351.551 881.776 363.257 881.776 377.709 C 881.776 392.16 870.101 403.866 855.648 403.866 C 841.196 403.866 829.491 392.16 829.491 377.709 C 829.491 363.257 841.197 351.551 855.648 351.551 Z" style="fill: rgb(30, 30, 30);" transform="matrix(0.965926, -0.258819, 0.258819, 0.965926, -68.603274, 234.32441)"/>
  <path id="circle23" d="M 855.646 353.959 C 842.547 353.959 831.904 364.603 831.904 377.701 C 831.904 390.8 842.547 401.443 855.646 401.443 C 868.746 401.443 879.389 390.8 879.389 377.701 C 879.389 364.603 868.746 353.959 855.646 353.959 Z M 855.646 355.821 C 867.738 355.821 877.526 365.607 877.526 377.7 C 877.526 389.793 867.738 399.579 855.646 399.579 C 843.554 399.579 833.766 389.793 833.766 377.7 C 833.766 365.608 843.554 355.821 855.646 355.821 Z" style="fill: rgb(30, 30, 30);" transform="matrix(0.965926, -0.25882, 0.25882, 0.965926, -68.600877, 234.328136)"/>
  <path id="path29" d="M 614.474 430.038 C 609.678 430.038 605.775 433.97 605.775 438.768 C 605.775 443.565 609.679 447.467 614.474 447.467 L 638.74 447.467 C 643.536 447.467 647.439 443.561 647.439 438.768 C 647.439 433.97 643.536 430.038 638.74 430.038 L 614.474 430.038 Z M 614.474 431.901 L 638.74 431.901 C 642.529 431.901 645.577 434.976 645.577 438.768 C 645.577 442.558 642.529 445.605 638.74 445.605 L 614.474 445.605 C 610.684 445.605 607.636 442.559 607.636 438.768 C 607.636 434.978 610.683 431.901 614.474 431.901 Z" style="fill: rgb(30, 30, 30);" transform="matrix(0.965926, -0.258819, 0.258819, 0.965926, -92.206326, 177.127789)"/>
  <path id="path31" d="M 614.476 425.185 C 606.991 425.185 600.918 431.288 600.918 438.773 C 600.918 446.257 606.991 452.333 614.476 452.333 L 638.742 452.333 C 646.227 452.333 652.329 446.257 652.329 438.773 C 652.329 431.288 646.227 425.185 638.742 425.185 L 614.476 425.185 Z M 614.476 427.047 L 638.742 427.047 C 645.22 427.047 650.467 432.294 650.467 438.773 C 650.467 445.251 645.22 450.469 638.742 450.469 L 614.476 450.469 C 607.996 450.469 602.78 445.251 602.78 438.773 C 602.78 432.294 607.997 427.047 614.476 427.047 Z" style="fill: rgb(30, 30, 30);" transform="matrix(0.965926, -0.258819, 0.258819, 0.965926, -92.207454, 177.132293)"/>
  <path id="path33" d="M 679.334 412.658 C 674.538 412.658 670.636 416.59 670.636 421.388 C 670.636 426.185 674.54 430.087 679.334 430.087 L 703.6 430.087 C 708.397 430.087 712.3 426.181 712.3 421.388 C 712.3 416.59 708.396 412.658 703.6 412.658 L 679.334 412.658 Z M 679.334 414.521 L 703.6 414.521 C 707.388 414.521 710.439 417.598 710.439 421.388 C 710.439 425.178 707.391 428.225 703.6 428.225 L 679.334 428.225 C 675.545 428.225 672.496 425.179 672.496 421.388 C 672.496 417.598 675.545 414.521 679.334 414.521 Z" style="fill: rgb(30, 30, 30);" transform="matrix(0.965926, -0.25882, 0.25882, 0.965926, -85.498206, 193.323589)"/>
  <path id="path35" d="M 679.337 407.813 C 671.851 407.813 665.749 413.916 665.749 421.401 C 665.749 428.885 671.851 434.961 679.337 434.961 L 703.603 434.961 C 711.09 434.961 717.161 428.885 717.161 421.401 C 717.161 413.916 711.09 407.813 703.603 407.813 L 679.337 407.813 Z M 679.337 409.675 L 703.603 409.675 C 710.084 409.675 715.298 414.922 715.298 421.401 C 715.298 427.879 710.084 433.097 703.603 433.097 L 679.337 433.097 C 672.857 433.097 667.612 427.879 667.612 421.401 C 667.612 414.922 672.857 409.675 679.337 409.675 Z" style="fill: rgb(30, 30, 30);" transform="matrix(0.965926, -0.25882, 0.25882, 0.965926, -85.502401, 193.320727)"/>
  <path id="path37" d="M 458.597 380.375 C 445.529 380.375 433.221 383.773 422.548 389.715 L 419.871 391.199 L 419.056 391.665 L 419.493 392.479 L 422.49 397.833 L 422.955 398.647 L 423.77 398.211 L 426.447 396.698 C 435.969 391.399 446.916 388.406 458.597 388.406 C 476.897 388.407 493.419 395.795 505.412 407.783 C 517.401 419.775 524.818 436.297 524.818 454.597 C 524.817 475.706 514.937 494.484 499.564 506.62 L 497.149 508.513 L 496.422 509.096 L 497.004 509.823 L 500.816 514.653 L 501.398 515.38 L 502.125 514.798 L 504.54 512.907 C 521.758 499.324 532.822 478.228 532.821 454.597 C 532.818 413.617 499.579 380.376 458.597 380.375 L 458.597 380.375 Z M 458.597 382.237 C 498.574 382.238 530.957 414.621 530.958 454.596 C 530.959 477.644 520.162 498.206 503.376 511.45 L 501.688 512.758 L 499.041 509.383 L 500.728 508.074 C 516.53 495.599 526.679 476.282 526.681 454.596 C 526.68 435.792 519.044 418.796 506.72 406.47 C 494.393 394.149 477.397 386.542 458.596 386.54 C 446.593 386.54 435.334 389.648 425.543 395.095 L 423.682 396.142 L 421.586 392.389 L 423.449 391.342 C 433.854 385.551 445.85 382.236 458.597 382.237 L 458.597 382.237 Z" style="fill: rgb(30, 30, 30);" transform="matrix(0.965926, -0.258819, 0.258819, 0.965926, -99.701936, 138.442872)"/>
</svg>