<?xml version="1.0" encoding="utf-8"?>
<svg version="1.1" id="Layer_1" x="0px" y="0px" enable-background="new -7.371 -3.275 580 130" xmlns="http://www.w3.org/2000/svg">
  <g transform="matrix(1, 0, 0, 1, -7, -4)">
    <g id="Layer_2">
      <g opacity="0.5">
        <polygon fill="none" points="7,6.352 33.421,6.352 33.421,14.128 25.688,14.128 25.688,119.657 16.342,119.657 16.342,14.128 7,14.128 &#9;&#9;&#9;"/>
        <path fill="none" d="M57.354,111.934h10.313V37.997h9.02v73.937c0,4.784-4.349,8.175-8.806,8.175H57.354c-4.71,0-8.914-3.833-8.914-8.271&#10;&#9;&#9;&#9;&#9;v-73.84h8.914V111.934z"/>
        <path fill="none" d="M251.322,56.057h13.776v64.123h-19.412c-4.151,0-9.264-3.177-9.264-7.997V15.25c0-4.072,4.267-8.409,9.06-8.409h10.594&#10;&#9;&#9;&#9;&#9;c4.698,0,8.961,4.296,8.961,8.313v22.963h-9.285V15.474h-10.55v96.781h10.794V63.902h-4.675V56.057z"/>
        <path fill="none" d="M384.532,80.826v38.868h-8.697V45.253c0-3.362,3.343-7.026,7.571-7.026h14.339v7.175h-13.213v27.502h10.877v7.957&#10;&#9;&#9;&#9;&#9;L384.532,80.826z"/>
        <path fill="none" d="M415.385,38.247h9.129v29.65l5.154,5.183l5.047-5.039V38.247h9.019v28.208c0,3.445-8.91,12.52-8.91,12.52&#10;&#9;&#9;&#9;&#9;s9.021,9.071,9.021,12.746v28.137h-8.484V90.564l-5.478-5.538l-5.478,5.465v29.369h-9.02V91.79&#10;&#9;&#9;&#9;&#9;c0-3.452,9.554-12.885,9.554-12.885s-9.554-8.975-9.554-12.591V38.247z"/>
        <path fill="none" d="M115.781,81.011c3.061,0,7.13-3.659,7.13-8.556V45.699c0-3.85-4.392-7.434-9.386-7.434H94.999v81.757h8.54v-38.41h3.222&#10;&#9;&#9;&#9;&#9;l9.504,38.265h8.377L115.781,81.011z M114.091,73.018H103.86V46.186h10.231V73.018z"/>
        <path fill="none" d="M304.748,80.797c3.061,0,7.133-3.666,7.133-8.56V45.483c0-3.848-4.394-7.437-9.387-7.437h-18.525v81.762h8.532V81.392&#10;&#9;&#9;&#9;&#9;h3.227l9.506,38.265h8.376L304.748,80.797z M302.934,72.709H292.71V45.884h10.224V72.709z"/>
        <path fill="none" d="M168.56,82.937c-0.039-3.663-3.864-5.98-3.864-5.98s3.864-2.501,3.864-5.979V46.02c0-4.712-4.147-7.777-8.375-7.777&#10;&#9;&#9;&#9;&#9;h-19.494v81.615h19.494c3.947,0,8.375-2.466,8.375-7.773C168.56,112.086,168.604,86.598,168.56,82.937z M159.781,111.862h-10.228&#10;&#9;&#9;&#9;&#9;v-30.42h10.228V111.862z M159.781,72.996h-10.228V46.167h10.228V72.996z"/>
        <path fill="none" d="M205.894,37.642h-5.155h-4.994c-5.115,0-8.84,4.372-8.84,7.7v66.281c0,4.285,4.772,8.169,8.801,8.169h11.035&#10;&#9;&#9;&#9;&#9;c4.309,0,8.618-4.45,8.618-7.998V45.116C215.359,42.126,211.29,37.642,205.894,37.642z M206.216,111.367h-9.881V45.715h9.881&#10;&#9;&#9;&#9;&#9;V111.367z"/>
        <path fill="none" d="M349.189,38.226h-11.271c-5.076,0-8.056,4.184-8.056,7.473v73.996h8.537V80.826h10.792v38.868h8.538V46.146&#10;&#9;&#9;&#9;&#9;C357.729,41.264,354.351,38.226,349.189,38.226z M348.946,72.756h-10.226V46.449h10.226V72.756z"/>
      </g>
    </g>
    <g id="Ebene_1">
      <g/>
    </g>
    <g opacity="0.5">
      <g>
        <path fill="none" d="M528.855,92.37h20.746V53.472h-20.746V92.37z M518.482,19.764c-28.642,0-51.862,23.218-51.862,51.861&#10;&#9;&#9;&#9;&#9;c0,28.643,23.221,51.863,51.862,51.863c28.644,0,51.863-23.221,51.863-51.863C570.346,42.982,547.126,19.764,518.482,19.764z&#10;&#9;&#9;&#9;&#9; M515.891,58.66h-5.188v-2.593l-2.593-2.595h-20.745V92.37h20.745l2.593-2.594v-2.592h5.188v5.186l-5.188,5.186h-25.932&#10;&#9;&#9;&#9;&#9;l-2.592-2.592V50.88l2.592-2.594h25.932l5.188,5.186V58.66z M554.787,92.37l-5.186,5.186h-28.525V92.37h2.592V53.472h-2.592&#10;&#9;&#9;&#9;&#9;v-5.186h28.525l5.186,5.186V92.37z"/>
      </g>
    </g>
    <g>
      <g/>
    </g>
  </g>
  <path d="M 53.177 105.581 L 63.49 105.581 L 63.49 31.646 L 72.511 31.646 L 72.511 105.582 C 72.511 110.367 68.162 113.757 63.704 113.757 L 53.177 113.757 C 48.466 113.757 44.263 109.924 44.263 105.487 L 44.263 31.646 L 53.177 31.646 L 53.177 105.581 Z" style="fill: rgb(255, 255, 255);"/>
  <path d="M 247.144 49.704 L 260.921 49.704 L 260.921 113.828 L 241.509 113.828 C 237.358 113.828 232.245 110.65 232.245 105.83 L 232.245 8.897 C 232.245 4.826 236.512 0.488 241.305 0.488 L 251.898 0.488 C 256.596 0.488 260.86 4.786 260.86 8.802 L 260.86 31.767 L 251.575 31.767 L 251.575 9.122 L 241.025 9.122 L 241.025 105.902 L 251.819 105.902 L 251.819 57.551 L 247.144 57.551 L 247.144 49.704 Z" style="fill: rgb(255, 255, 255);"/>
  <path d="M 380.354 74.475 L 380.354 113.343 L 371.657 113.343 L 371.657 38.9 C 371.657 35.538 375 31.874 379.228 31.874 L 393.567 31.874 L 393.567 39.049 L 380.354 39.049 L 380.354 66.552 L 391.231 66.552 L 391.231 74.509 L 380.354 74.475 Z" style="fill: rgb(255, 255, 255);"/>
  <path d="M 411.206 31.894 L 420.336 31.894 L 420.336 61.544 L 425.491 66.727 L 430.537 61.689 L 430.537 31.894 L 439.557 31.894 L 439.557 60.104 C 439.557 63.549 430.647 72.625 430.647 72.625 C 430.647 72.625 439.666 81.695 439.666 85.371 L 439.666 113.508 L 431.183 113.508 L 431.183 84.213 L 425.705 78.674 L 420.227 84.141 L 420.227 113.509 L 411.206 113.509 L 411.206 85.438 C 411.206 81.986 420.762 72.553 420.762 72.553 C 420.762 72.553 411.206 63.578 411.206 59.963 L 411.206 31.894 Z" style="fill: rgb(255, 255, 255);"/>
  <path d="M 111.604 74.658 C 114.665 74.658 118.733 70.999 118.733 66.103 L 118.733 39.347 C 118.733 35.498 114.343 31.912 109.348 31.912 L 90.821 31.912 L 90.821 113.67 L 99.361 113.67 L 99.361 75.26 L 102.584 75.26 L 112.088 113.526 L 120.465 113.526 L 111.604 74.658 Z M 109.913 66.665 L 99.682 66.665 L 99.682 39.834 L 109.913 39.834 L 109.913 66.665 Z" style="fill: rgb(255, 255, 255);"/>
  <path d="M 300.57 74.445 C 303.632 74.445 307.703 70.779 307.703 65.884 L 307.703 39.131 C 307.703 35.281 303.31 31.694 298.318 31.694 L 279.792 31.694 L 279.792 113.455 L 288.325 113.455 L 288.325 75.039 L 291.551 75.039 L 301.057 113.305 L 309.433 113.305 L 300.57 74.445 Z M 298.757 66.357 L 288.532 66.357 L 288.532 39.529 L 298.757 39.529 L 298.757 66.357 Z" style="fill: rgb(255, 255, 255);"/>
  <path d="M 164.383 76.584 C 164.343 72.921 160.519 70.604 160.519 70.604 C 160.519 70.604 164.383 68.103 164.383 64.625 L 164.383 39.667 C 164.383 34.955 160.237 31.892 156.008 31.892 L 136.514 31.892 L 136.514 113.508 L 156.008 113.508 C 159.955 113.508 164.383 111.041 164.383 105.733 C 164.383 105.733 164.426 80.245 164.383 76.584 Z M 155.604 105.511 L 145.375 105.511 L 145.375 75.09 L 155.604 75.09 L 155.604 105.511 Z M 155.604 66.645 L 145.375 66.645 L 145.375 39.816 L 155.604 39.816 L 155.604 66.645 Z" style="fill: rgb(255, 255, 255);"/>
  <path d="M 201.717 31.288 L 196.562 31.288 L 191.567 31.288 C 186.451 31.288 182.727 35.662 182.727 38.988 L 182.727 105.27 C 182.727 109.555 187.499 113.441 191.528 113.441 L 202.563 113.441 C 206.872 113.441 211.182 108.991 211.182 105.444 L 211.182 38.764 C 211.182 35.776 207.112 31.288 201.717 31.288 Z M 202.039 105.016 L 192.158 105.016 L 192.158 39.363 L 202.039 39.363 L 202.039 105.016 Z" style="fill: rgb(255, 255, 255);"/>
  <path d="M 345.013 31.874 L 333.742 31.874 C 328.664 31.874 325.684 36.058 325.684 39.348 L 325.684 113.344 L 334.221 113.344 L 334.221 74.475 L 345.014 74.475 L 345.014 113.343 L 353.552 113.343 L 353.552 39.794 C 353.552 34.913 350.174 31.874 345.013 31.874 Z M 344.768 66.404 L 334.545 66.404 L 334.545 40.097 L 344.768 40.097 L 344.768 66.404 Z" style="fill: rgb(255, 255, 255);"/>
  <polygon points="2.82 0 29.241 0 29.241 7.774 21.508 7.774 21.508 113.306 12.163 113.306 12.163 7.774 2.82 7.774" style="fill: rgb(255, 255, 255);"/>
  <path d="M 514.073 13.17 C 485.429 13.17 462.21 36.39 462.21 65.033 C 462.21 93.677 485.43 116.896 514.073 116.896 C 542.716 116.896 565.935 93.676 565.935 65.033 C 565.935 36.391 542.716 13.17 514.073 13.17 Z M 511.479 52.068 L 506.292 52.068 L 506.292 49.473 L 503.699 46.881 L 482.953 46.881 L 482.953 85.777 L 503.699 85.777 L 506.292 83.185 L 506.292 80.591 L 511.479 80.591 L 511.479 85.777 L 506.292 90.965 L 480.361 90.965 L 477.767 88.371 L 477.767 44.288 L 480.361 41.694 L 506.292 41.694 L 511.479 46.882 L 511.479 52.068 Z M 550.376 85.777 L 545.191 90.965 L 516.665 90.965 L 516.665 85.777 L 519.26 85.777 L 519.26 46.881 L 516.665 46.881 L 516.665 41.693 L 545.191 41.693 L 550.376 46.881 L 550.376 85.777 Z M 524.445 85.777 L 545.191 85.777 L 545.191 46.881 L 524.445 46.881 L 524.445 85.777 Z" style="fill: rgb(255, 255, 255);"/>
</svg>