<?xml version="1.0" encoding="utf-8"?>
<svg version="1.1" id="Layer_1" x="0px" y="0px" enable-background="new -7.371 -3.275 580 130" xmlns="http://www.w3.org/2000/svg">
  <g transform="matrix(0.353397, 0, 0, 0.353397, -2.473782, -1.41359)">
    <g id="Layer_2">
      <g opacity="0.5">
        <polygon fill="none" points="7,6.352 33.421,6.352 33.421,14.128 25.688,14.128 25.688,119.657 16.342,119.657 16.342,14.128 7,14.128 &#9;&#9;&#9;"/>
        <path fill="none" d="M57.354,111.934h10.313V37.997h9.02v73.937c0,4.784-4.349,8.175-8.806,8.175H57.354c-4.71,0-8.914-3.833-8.914-8.271&#10;&#9;&#9;&#9;&#9;v-73.84h8.914V111.934z"/>
        <path fill="none" d="M251.322,56.057h13.776v64.123h-19.412c-4.151,0-9.264-3.177-9.264-7.997V15.25c0-4.072,4.267-8.409,9.06-8.409h10.594&#10;&#9;&#9;&#9;&#9;c4.698,0,8.961,4.296,8.961,8.313v22.963h-9.285V15.474h-10.55v96.781h10.794V63.902h-4.675V56.057z"/>
        <path fill="none" d="M384.532,80.826v38.868h-8.697V45.253c0-3.362,3.343-7.026,7.571-7.026h14.339v7.175h-13.213v27.502h10.877v7.957&#10;&#9;&#9;&#9;&#9;L384.532,80.826z"/>
        <path fill="none" d="M415.385,38.247h9.129v29.65l5.154,5.183l5.047-5.039V38.247h9.019v28.208c0,3.445-8.91,12.52-8.91,12.52&#10;&#9;&#9;&#9;&#9;s9.021,9.071,9.021,12.746v28.137h-8.484V90.564l-5.478-5.538l-5.478,5.465v29.369h-9.02V91.79&#10;&#9;&#9;&#9;&#9;c0-3.452,9.554-12.885,9.554-12.885s-9.554-8.975-9.554-12.591V38.247z"/>
        <path fill="none" d="M115.781,81.011c3.061,0,7.13-3.659,7.13-8.556V45.699c0-3.85-4.392-7.434-9.386-7.434H94.999v81.757h8.54v-38.41h3.222&#10;&#9;&#9;&#9;&#9;l9.504,38.265h8.377L115.781,81.011z M114.091,73.018H103.86V46.186h10.231V73.018z"/>
        <path fill="none" d="M304.748,80.797c3.061,0,7.133-3.666,7.133-8.56V45.483c0-3.848-4.394-7.437-9.387-7.437h-18.525v81.762h8.532V81.392&#10;&#9;&#9;&#9;&#9;h3.227l9.506,38.265h8.376L304.748,80.797z M302.934,72.709H292.71V45.884h10.224V72.709z"/>
        <path fill="none" d="M168.56,82.937c-0.039-3.663-3.864-5.98-3.864-5.98s3.864-2.501,3.864-5.979V46.02c0-4.712-4.147-7.777-8.375-7.777&#10;&#9;&#9;&#9;&#9;h-19.494v81.615h19.494c3.947,0,8.375-2.466,8.375-7.773C168.56,112.086,168.604,86.598,168.56,82.937z M159.781,111.862h-10.228&#10;&#9;&#9;&#9;&#9;v-30.42h10.228V111.862z M159.781,72.996h-10.228V46.167h10.228V72.996z"/>
        <path fill="none" d="M205.894,37.642h-5.155h-4.994c-5.115,0-8.84,4.372-8.84,7.7v66.281c0,4.285,4.772,8.169,8.801,8.169h11.035&#10;&#9;&#9;&#9;&#9;c4.309,0,8.618-4.45,8.618-7.998V45.116C215.359,42.126,211.29,37.642,205.894,37.642z M206.216,111.367h-9.881V45.715h9.881&#10;&#9;&#9;&#9;&#9;V111.367z"/>
        <path fill="none" d="M349.189,38.226h-11.271c-5.076,0-8.056,4.184-8.056,7.473v73.996h8.537V80.826h10.792v38.868h8.538V46.146&#10;&#9;&#9;&#9;&#9;C357.729,41.264,354.351,38.226,349.189,38.226z M348.946,72.756h-10.226V46.449h10.226V72.756z"/>
      </g>
    </g>
    <g id="Ebene_1">
      <g/>
    </g>
    <g opacity="0.5">
      <g>
        <path fill="none" d="M528.855,92.37h20.746V53.472h-20.746V92.37z M518.482,19.764c-28.642,0-51.862,23.218-51.862,51.861&#10;&#9;&#9;&#9;&#9;c0,28.643,23.221,51.863,51.862,51.863c28.644,0,51.863-23.221,51.863-51.863C570.346,42.982,547.126,19.764,518.482,19.764z&#10;&#9;&#9;&#9;&#9; M515.891,58.66h-5.188v-2.593l-2.593-2.595h-20.745V92.37h20.745l2.593-2.594v-2.592h5.188v5.186l-5.188,5.186h-25.932&#10;&#9;&#9;&#9;&#9;l-2.592-2.592V50.88l2.592-2.594h25.932l5.188,5.186V58.66z M554.787,92.37l-5.186,5.186h-28.525V92.37h2.592V53.472h-2.592&#10;&#9;&#9;&#9;&#9;v-5.186h28.525l5.186,5.186V92.37z"/>
      </g>
    </g>
    <g>
      <g/>
    </g>
  </g>
  <path d="M 18.793 37.312 L 22.437 37.312 L 22.437 11.184 L 25.625 11.184 L 25.625 37.312 C 25.625 39.003 24.088 40.201 22.513 40.201 L 18.793 40.201 C 17.128 40.201 15.642 38.847 15.642 37.279 L 15.642 11.184 L 18.793 11.184 L 18.793 37.312 Z" style="fill: rgb(255, 255, 255);"/>
  <path d="M 87.34 17.565 L 92.209 17.565 L 92.209 40.227 L 85.349 40.227 C 83.882 40.227 82.075 39.103 82.075 37.4 L 82.075 3.144 C 82.075 1.705 83.583 0.172 85.277 0.172 L 89.02 0.172 C 90.68 0.172 92.187 1.691 92.187 3.111 L 92.187 11.226 L 88.906 11.226 L 88.906 3.224 L 85.178 3.224 L 85.178 37.425 L 88.992 37.425 L 88.992 20.338 L 87.34 20.338 L 87.34 17.565 Z" style="fill: rgb(255, 255, 255);"/>
  <path d="M 134.416 26.319 L 134.416 40.055 L 131.343 40.055 L 131.343 13.747 C 131.343 12.559 132.524 11.264 134.018 11.264 L 139.086 11.264 L 139.086 13.8 L 134.416 13.8 L 134.416 23.519 L 138.26 23.519 L 138.26 26.331 L 134.416 26.319 Z" style="fill: rgb(255, 255, 255);"/>
  <path d="M 145.319 11.271 L 148.546 11.271 L 148.546 21.749 L 150.367 23.581 L 152.151 21.801 L 152.151 11.271 L 155.338 11.271 L 155.338 21.241 C 155.338 22.458 152.19 25.665 152.19 25.665 C 152.19 25.665 155.377 28.871 155.377 30.17 L 155.377 40.113 L 152.379 40.113 L 152.379 29.761 L 150.443 27.803 L 148.507 29.735 L 148.507 40.114 L 145.319 40.114 L 145.319 30.194 C 145.319 28.974 148.696 25.64 148.696 25.64 C 148.696 25.64 145.319 22.468 145.319 21.191 L 145.319 11.271 Z" style="fill: rgb(255, 255, 255);"/>
  <path d="M 39.441 26.384 C 40.522 26.384 41.96 25.091 41.96 23.361 L 41.96 13.905 C 41.96 12.545 40.409 11.278 38.643 11.278 L 32.096 11.278 L 32.096 40.171 L 35.114 40.171 L 35.114 26.597 L 36.253 26.597 L 39.612 40.12 L 42.572 40.12 L 39.441 26.384 Z M 38.843 23.559 L 35.227 23.559 L 35.227 14.077 L 38.843 14.077 L 38.843 23.559 Z" style="fill: rgb(255, 255, 255);"/>
  <path d="M 106.221 26.309 C 107.303 26.309 108.741 25.013 108.741 23.283 L 108.741 13.829 C 108.741 12.468 107.189 11.201 105.425 11.201 L 98.878 11.201 L 98.878 40.095 L 101.893 40.095 L 101.893 26.519 L 103.033 26.519 L 106.393 40.042 L 109.353 40.042 L 106.221 26.309 Z M 105.58 23.45 L 101.966 23.45 L 101.966 13.969 L 105.58 13.969 L 105.58 23.45 Z" style="fill: rgb(255, 255, 255);"/>
  <path d="M 58.093 27.065 C 58.078 25.77 56.727 24.951 56.727 24.951 C 56.727 24.951 58.093 24.067 58.093 22.838 L 58.093 14.018 C 58.093 12.353 56.627 11.271 55.133 11.271 L 48.244 11.271 L 48.244 40.113 L 55.133 40.113 C 56.528 40.113 58.093 39.242 58.093 37.366 C 58.093 37.366 58.108 28.358 58.093 27.065 Z M 54.99 37.287 L 51.375 37.287 L 51.375 26.537 L 54.99 26.537 L 54.99 37.287 Z M 54.99 23.552 L 51.375 23.552 L 51.375 14.071 L 54.99 14.071 L 54.99 23.552 Z" style="fill: rgb(255, 255, 255);"/>
  <path d="M 71.286 11.057 L 69.465 11.057 L 67.699 11.057 C 65.891 11.057 64.575 12.603 64.575 13.778 L 64.575 37.202 C 64.575 38.716 66.262 40.09 67.686 40.09 L 71.585 40.09 C 73.108 40.09 74.631 38.517 74.631 37.264 L 74.631 13.699 C 74.631 12.643 73.193 11.057 71.286 11.057 Z M 71.4 37.112 L 67.908 37.112 L 67.908 13.911 L 71.4 13.911 L 71.4 37.112 Z" style="fill: rgb(255, 255, 255);"/>
  <path d="M 121.927 11.264 L 117.944 11.264 C 116.149 11.264 115.096 12.743 115.096 13.905 L 115.096 40.055 L 118.113 40.055 L 118.113 26.319 L 121.927 26.319 L 121.927 40.055 L 124.944 40.055 L 124.944 14.063 C 124.944 12.338 123.751 11.264 121.927 11.264 Z M 121.84 23.467 L 118.227 23.467 L 118.227 14.17 L 121.84 14.17 L 121.84 23.467 Z" style="fill: rgb(255, 255, 255);"/>
  <polygon points="0.997 0 10.334 0 10.334 2.747 7.601 2.747 7.601 40.042 4.298 40.042 4.298 2.747 0.997 2.747" style="fill: rgb(255, 255, 255);"/>
  <path d="M 181.672 4.654 C 171.549 4.654 163.344 12.86 163.344 22.982 C 163.344 33.105 171.55 41.311 181.672 41.311 C 191.794 41.311 200 33.105 200 22.982 C 200 12.86 191.794 4.654 181.672 4.654 Z M 180.755 18.401 L 178.922 18.401 L 178.922 17.484 L 178.006 16.568 L 170.674 16.568 L 170.674 30.313 L 178.006 30.313 L 178.922 29.397 L 178.922 28.481 L 180.755 28.481 L 180.755 30.313 L 178.922 32.147 L 169.758 32.147 L 168.842 31.23 L 168.842 15.651 L 169.758 14.735 L 178.922 14.735 L 180.755 16.568 L 180.755 18.401 Z M 194.501 30.313 L 192.669 32.147 L 182.588 32.147 L 182.588 30.313 L 183.505 30.313 L 183.505 16.568 L 182.588 16.568 L 182.588 14.734 L 192.669 14.734 L 194.501 16.568 L 194.501 30.313 Z M 185.338 30.313 L 192.669 30.313 L 192.669 16.568 L 185.338 16.568 L 185.338 30.313 Z" style="fill: rgb(255, 255, 255);"/>
</svg>