<?xml version="1.0" encoding="utf-8"?>
<svg version="1.0" id="svg2" xmlns="http://www.w3.org/2000/svg">
  <g id="layer1" transform="matrix(0.265646, 0, 0, 0.265646, 0, 0)">
    <path d="M 640.891 0 C 626.237 0 614.009 12.228 614.009 26.882 L 614.009 73.843 C 614.009 88.497 626.237 100.725 640.891 100.725 L 726 100.725 C 740.654 100.725 752.882 88.497 752.882 73.843 L 752.882 26.882 C 752.882 12.228 740.654 0 726 0 L 640.891 0 Z M 646.981 28.555 L 719.279 28.555 L 719.279 72.169 L 646.981 72.169 L 646.981 28.555 Z" id="rect4393" style="opacity: 1; fill-opacity: 1; fill-rule: nonzero; stroke: none; stroke-width: 8; stroke-linecap: round; stroke-linejoin: round; stroke-miterlimit: 4; stroke-dasharray: none; stroke-opacity: 1; fill: rgb(255, 255, 255);"/>
    <path d="M 0 2.008 L 0 100.836 L 32.972 100.836 L 32.972 30.563 L 95.221 30.563 L 95.221 100.836 L 127.562 100.836 L 127.562 28.89 C 127.562 14.236 115.334 2.008 100.68 2.008 L 0 2.008 Z" id="rect4348" style="opacity: 1; fill-opacity: 1; fill-rule: nonzero; stroke: none; stroke-width: 8; stroke-linecap: round; stroke-linejoin: round; stroke-miterlimit: 4; stroke-dasharray: none; stroke-opacity: 1; fill: rgb(255, 255, 255);"/>
    <path d="M 149.871 2.008 L 149.871 27.998 L 239.442 27.998 L 239.442 35.025 L 169.503 35.025 C 154.849 35.025 142.621 47.365 142.621 62.019 L 142.621 73.954 C 142.621 88.608 154.849 100.836 169.503 100.836 L 239.442 100.836 L 254.054 100.836 L 271.79 100.836 L 271.79 28.89 C 271.79 14.236 259.562 2.008 244.907 2.008 L 149.871 2.008 Z M 176.307 61.35 L 239.442 61.35 L 239.442 75.404 L 176.307 75.404 L 176.307 61.35 Z" id="path4359" style="opacity: 1; fill-opacity: 1; fill-rule: nonzero; stroke: none; stroke-width: 8; stroke-linecap: round; stroke-linejoin: round; stroke-miterlimit: 4; stroke-dasharray: none; stroke-opacity: 1; fill: rgb(255, 255, 255);"/>
    <path d="M 292.091 2.008 L 292.091 100.836 L 325.108 100.836 L 325.108 30.563 L 359.018 30.563 L 359.018 100.836 L 392.035 100.836 L 392.035 30.563 L 426.614 30.563 L 426.614 100.836 L 458.962 100.836 L 458.962 28.89 C 458.962 14.236 446.734 2.008 432.079 2.008 L 292.091 2.008 Z" id="path4384" style="opacity: 1; fill-opacity: 1; fill-rule: nonzero; stroke: none; stroke-width: 8; stroke-linecap: round; stroke-linejoin: round; stroke-miterlimit: 4; stroke-dasharray: none; stroke-opacity: 1; fill: rgb(255, 255, 255);"/>
    <path d="M 505.03 0 C 490.375 0 478.147 12.228 478.147 26.882 L 478.147 73.843 C 478.147 88.497 490.375 100.725 505.03 100.725 L 595.381 100.725 L 595.381 72.169 L 511.751 72.169 L 511.751 28.555 L 595.381 28.555 L 595.381 0 L 505.03 0 Z" id="rect4389" style="opacity: 1; fill-opacity: 1; fill-rule: nonzero; stroke: none; stroke-width: 8; stroke-linecap: round; stroke-linejoin: round; stroke-miterlimit: 4; stroke-dasharray: none; stroke-opacity: 1; fill: rgb(255, 255, 255);"/>
  </g>
</svg>