<?xml version="1.0" encoding="utf-8"?>
<svg version="1.1" id="svg5479" xmlns="http://www.w3.org/2000/svg">
  <path d="M 85.388 69.072 L 79.292 69.072 C 79.077 69.072 78.922 68.83 78.922 68.598 C 78.922 68.516 82.167 58.057 82.167 58.057 C 82.282 57.666 82.293 57.655 82.337 57.655 L 82.343 57.655 C 82.392 57.655 82.398 57.666 82.513 58.057 C 82.513 58.057 85.757 68.516 85.757 68.598 C 85.757 68.83 85.592 69.072 85.388 69.072 M 93.611 45.142 C 93.55 44.933 93.363 44.778 93.143 44.762 L 70.755 44.762 C 70.529 44.784 70.347 44.933 70.286 45.136 C 70.286 45.136 57.911 85.991 57.911 86.068 C 57.911 86.272 58.071 86.437 58.28 86.437 L 73.079 86.437 C 73.194 86.393 73.283 86.283 73.31 86.156 L 75.034 80.649 C 75.089 80.511 75.216 80.417 75.37 80.412 L 89.023 80.401 C 89.172 80.412 89.304 80.517 89.359 80.649 L 91.122 86.156 C 91.149 86.283 91.237 86.399 91.353 86.443 C 91.353 86.443 105.904 86.437 105.915 86.437 C 106.119 86.437 106.289 86.283 106.289 86.079 C 106.289 86.008 93.611 45.142 93.611 45.142" style="fill-opacity: 1; fill-rule: nonzero; stroke: none; fill: rgb(255, 255, 255);" id="path4165"/>
  <path d="M 135.799 61.822 L 126.706 61.828 C 126.706 61.828 126.464 61.756 126.464 61.481 L 126.458 56.893 C 126.458 56.618 126.7 56.546 126.7 56.546 L 135.039 56.546 C 136.008 56.546 137.969 57.031 137.969 59.272 C 137.969 61.514 135.799 61.822 135.799 61.822 M 179.396 58.27 L 200 58.27 L 200 44.76 L 173.509 44.76 C 171.03 44.76 167.544 46.038 165.545 47.519 C 163.546 49.001 160.654 52.377 160.654 57.031 C 160.654 61.685 163.48 65.303 163.48 65.303 C 164.928 67.099 168.574 70.838 168.574 70.838 C 168.657 70.926 168.706 71.042 168.706 71.174 C 168.706 71.455 168.48 71.681 168.2 71.681 L 147.794 71.681 C 145.31 71.67 145.139 70.684 145.139 70.541 C 145.139 70.287 145.448 70.128 145.448 70.128 C 146.379 69.682 148.279 68.2 148.279 68.2 C 152.31 65.061 152.795 60.754 152.795 58.446 C 152.795 56.133 152.448 52.041 148.312 48.456 C 144.176 44.87 138.938 44.771 138.938 44.771 L 109.819 44.771 C 109.819 44.771 109.819 86.188 109.819 86.199 C 109.819 86.331 109.941 86.436 110.073 86.436 L 126.282 86.436 L 126.282 74.815 C 126.282 74.611 126.596 74.815 126.596 74.815 L 135.039 83.296 C 138.04 86.331 143.003 86.436 143.003 86.436 L 174.924 86.43 C 180.371 86.43 183.4 83.467 184.232 82.641 C 185.058 81.809 187.817 78.708 187.817 73.57 C 187.817 68.437 185.471 65.81 184.469 64.604 C 183.577 63.524 180.019 59.757 179.275 58.975 C 179.187 58.903 179.132 58.793 179.132 58.672 C 179.132 58.49 179.236 58.319 179.396 58.27" style="fill-opacity: 1; fill-rule: nonzero; stroke: none; fill: rgb(255, 255, 255);" id="path4169"/>
  <path d="M 50.514 86.434 C 50.624 86.434 50.701 86.357 50.734 86.236 C 50.734 86.236 63.275 45.045 63.275 45.007 C 63.275 44.897 63.208 44.775 63.104 44.764 C 63.104 44.764 47.655 44.764 47.644 44.764 C 47.567 44.764 47.517 44.825 47.501 44.908 C 47.501 44.913 44.301 55.62 44.301 55.625 C 44.279 55.714 44.235 55.769 44.158 55.769 C 44.081 55.769 44.014 55.692 44.003 55.625 L 40.655 44.902 C 40.644 44.831 40.589 44.764 40.512 44.764 C 40.506 44.764 23.439 44.759 23.439 44.759 C 23.389 44.77 23.345 44.814 23.328 44.858 C 23.328 44.858 20.327 55.62 20.327 55.62 C 20.31 55.714 20.261 55.769 20.178 55.769 C 20.106 55.769 20.046 55.714 20.035 55.642 L 16.851 44.891 C 16.846 44.825 16.791 44.77 16.725 44.759 L 0.246 44.759 C 0.114 44.759 0.004 44.869 0.004 45.007 C 0.004 45.029 0.009 45.073 0.009 45.073 C 0.009 45.073 12.732 86.219 12.737 86.236 C 12.77 86.357 12.847 86.434 12.958 86.434 C 12.974 86.434 26.644 86.44 26.644 86.44 C 26.726 86.429 26.809 86.335 26.831 86.236 C 26.836 86.236 31.595 70.92 31.595 70.92 C 31.622 70.826 31.661 70.771 31.738 70.771 C 31.821 70.771 31.865 70.837 31.887 70.914 L 36.53 86.302 C 36.557 86.379 36.629 86.434 36.717 86.434 C 36.728 86.434 50.514 86.434 50.514 86.434" style="fill-opacity: 1; fill-rule: nonzero; stroke: none; fill: rgb(255, 255, 255);" id="path4173"/>
  <path d="M 38.608 0.002 C 36.124 0.002 32.643 1.28 30.644 2.761 C 28.644 4.243 25.753 7.619 25.753 12.272 C 25.753 16.926 28.578 20.545 28.578 20.545 C 30.027 22.34 33.673 26.108 33.673 26.108 C 33.756 26.196 33.805 26.311 33.805 26.438 C 33.805 26.719 33.579 26.95 33.299 26.95 C 33.255 26.95 0 26.95 0 26.95 L 0 41.677 L 40.023 41.677 C 45.465 41.677 48.499 38.714 49.331 37.883 C 50.157 37.056 52.911 33.956 52.911 28.817 C 52.911 23.684 50.57 21.03 49.568 19.823 C 48.675 18.744 45.118 14.999 44.374 14.222 C 44.286 14.145 44.231 14.035 44.231 13.914 C 44.231 13.732 44.336 13.567 44.495 13.512 L 63.772 13.512 L 63.772 41.677 L 78.592 41.677 L 78.592 13.583 L 96.586 13.583 L 96.586 0.002 L 38.608 0.002 Z" style="fill-opacity: 1; fill-rule: nonzero; stroke: none; fill: rgb(255, 255, 255);" id="path4177"/>
  <path d="M 167.873 17.064 L 158.78 17.07 C 158.78 17.07 158.538 16.998 158.538 16.723 L 158.533 12.135 C 158.533 11.86 158.775 11.788 158.775 11.788 L 167.114 11.788 C 168.083 11.788 170.044 12.273 170.044 14.514 C 170.044 16.756 167.873 17.064 167.873 17.064 M 179.869 26.923 C 177.391 26.912 177.214 25.926 177.214 25.783 C 177.214 25.529 177.522 25.369 177.522 25.369 C 178.453 24.924 180.353 23.442 180.353 23.442 C 184.385 20.303 184.87 15.996 184.87 13.688 C 184.87 11.375 184.523 7.283 180.386 3.697 C 176.25 0.112 171.013 0.002 171.013 0.002 L 141.894 0.002 C 141.894 0.002 141.894 41.43 141.894 41.441 C 141.894 41.573 142.016 41.678 142.148 41.678 C 142.175 41.678 158.356 41.678 158.356 41.678 L 158.356 30.062 C 158.356 29.853 158.67 30.062 158.67 30.062 L 167.114 38.538 C 170.115 41.573 175.077 41.678 175.077 41.678 L 199.999 41.678 L 199.999 26.923 L 179.869 26.923 Z" style="fill-opacity: 1; fill-rule: nonzero; stroke: none; fill: rgb(255, 255, 255);" id="path4181"/>
  <path d="M 118.253 24.31 L 112.156 24.31 C 111.93 24.31 111.787 24.068 111.787 23.836 C 111.787 23.748 115.031 13.295 115.031 13.295 C 115.147 12.904 115.18 12.893 115.202 12.893 L 115.207 12.893 C 115.229 12.893 115.262 12.904 115.378 13.295 C 115.378 13.295 118.622 23.748 118.622 23.836 C 118.622 24.068 118.473 24.31 118.253 24.31 M 126.459 0.369 C 126.398 0.16 126.217 0.011 125.991 0 L 103.603 0 C 103.383 0.011 103.195 0.16 103.135 0.363 C 103.135 0.363 90.77 41.229 90.77 41.306 C 90.77 41.51 90.936 41.675 91.139 41.675 L 105.938 41.675 C 106.059 41.637 106.147 41.521 106.175 41.394 L 107.899 35.881 C 107.954 35.749 108.08 35.656 108.235 35.65 L 121.882 35.65 C 122.036 35.661 122.163 35.755 122.224 35.887 L 123.986 41.394 C 124.014 41.521 124.102 41.637 124.217 41.681 C 124.217 41.681 138.768 41.675 138.779 41.675 C 138.983 41.675 139.148 41.521 139.148 41.312 C 139.148 41.246 126.459 0.369 126.459 0.369" style="fill-opacity: 1; fill-rule: nonzero; stroke: none; fill: rgb(255, 255, 255);" id="path4185"/>
</svg>