<?xml version="1.0" encoding="utf-8"?>
<svg version="1.1" id="svg5479" xmlns="http://www.w3.org/2000/svg">
  <path d="M 201.516 163.01 L 187.128 163.01 C 186.621 163.01 186.257 162.438 186.257 161.892 C 186.257 161.697 193.913 137.014 193.913 137.014 C 194.186 136.091 194.212 136.065 194.316 136.065 L 194.329 136.065 C 194.446 136.065 194.459 136.091 194.731 137.014 C 194.731 137.014 202.387 161.697 202.387 161.892 C 202.387 162.438 201.997 163.01 201.516 163.01 M 220.922 106.535 C 220.779 106.041 220.337 105.677 219.817 105.638 L 166.981 105.638 C 166.448 105.69 166.019 106.041 165.876 106.522 C 165.876 106.522 136.67 202.939 136.67 203.121 C 136.67 203.602 137.047 203.992 137.541 203.992 L 172.466 203.992 C 172.739 203.888 172.947 203.628 173.012 203.329 L 177.08 190.331 C 177.21 190.006 177.509 189.785 177.873 189.772 L 210.095 189.746 C 210.446 189.772 210.758 190.019 210.888 190.331 L 215.047 203.329 C 215.112 203.628 215.32 203.901 215.593 204.005 C 215.593 204.005 249.933 203.992 249.959 203.992 C 250.44 203.992 250.843 203.628 250.843 203.147 C 250.843 202.978 220.922 106.535 220.922 106.535" style="fill-opacity: 1; fill-rule: nonzero; stroke: none; fill: rgb(255, 255, 255);" id="path4165"/>
  <path d="M 320.485 145.901 L 299.026 145.914 C 299.026 145.914 298.454 145.745 298.454 145.095 L 298.441 134.268 C 298.441 133.618 299.013 133.449 299.013 133.449 L 318.691 133.449 C 320.979 133.449 325.606 134.593 325.606 139.883 C 325.606 145.173 320.485 145.901 320.485 145.901 M 423.375 137.517 L 472 137.517 L 472 105.634 L 409.481 105.634 C 403.632 105.634 395.404 108.649 390.686 112.146 C 385.968 115.642 379.144 123.61 379.144 134.593 C 379.144 145.576 385.812 154.115 385.812 154.115 C 389.23 158.353 397.835 167.178 397.835 167.178 C 398.03 167.386 398.147 167.659 398.147 167.971 C 398.147 168.634 397.614 169.167 396.951 169.167 L 348.794 169.167 C 342.932 169.141 342.529 166.814 342.529 166.476 C 342.529 165.878 343.257 165.502 343.257 165.502 C 345.454 164.449 349.938 160.952 349.938 160.952 C 359.452 153.544 360.596 143.379 360.596 137.933 C 360.596 132.474 359.777 122.817 350.016 114.355 C 340.255 105.894 327.894 105.66 327.894 105.66 L 259.174 105.66 C 259.174 105.66 259.174 203.403 259.174 203.429 C 259.174 203.741 259.46 203.988 259.772 203.988 L 298.025 203.988 L 298.025 176.563 C 298.025 176.082 298.766 176.563 298.766 176.563 L 318.691 196.579 C 325.775 203.741 337.486 203.988 337.486 203.988 L 412.821 203.975 C 425.676 203.975 432.825 196.982 434.787 195.032 C 436.737 193.07 443.249 185.752 443.249 173.625 C 443.249 161.511 437.712 155.311 435.346 152.465 C 433.241 149.917 424.844 141.027 423.089 139.181 C 422.881 139.012 422.751 138.752 422.751 138.466 C 422.751 138.037 422.998 137.634 423.375 137.517" style="fill-opacity: 1; fill-rule: nonzero; stroke: none; fill: rgb(255, 255, 255);" id="path4169"/>
  <path d="M 119.212 203.985 C 119.472 203.985 119.654 203.803 119.732 203.517 C 119.732 203.517 149.328 106.307 149.328 106.216 C 149.328 105.956 149.172 105.67 148.925 105.644 C 148.925 105.644 112.466 105.644 112.44 105.644 C 112.258 105.644 112.141 105.787 112.102 105.982 C 112.102 105.995 104.55 131.263 104.55 131.276 C 104.498 131.484 104.394 131.614 104.212 131.614 C 104.03 131.614 103.874 131.432 103.848 131.276 L 95.946 105.969 C 95.92 105.8 95.79 105.644 95.608 105.644 C 95.595 105.644 55.315 105.631 55.315 105.631 C 55.198 105.657 55.094 105.761 55.055 105.865 C 55.055 105.865 47.971 131.263 47.971 131.263 C 47.932 131.484 47.815 131.614 47.62 131.614 C 47.451 131.614 47.308 131.484 47.282 131.315 L 39.769 105.943 C 39.756 105.787 39.626 105.657 39.47 105.631 L 0.581 105.631 C 0.269 105.631 0.009 105.891 0.009 106.216 C 0.009 106.268 0.022 106.372 0.022 106.372 C 0.022 106.372 30.047 203.478 30.06 203.517 C 30.138 203.803 30.32 203.985 30.58 203.985 C 30.619 203.985 62.879 203.998 62.879 203.998 C 63.074 203.972 63.269 203.751 63.321 203.517 C 63.334 203.517 74.564 167.371 74.564 167.371 C 74.629 167.15 74.72 167.02 74.902 167.02 C 75.097 167.02 75.201 167.176 75.253 167.358 L 86.21 203.673 C 86.275 203.855 86.444 203.985 86.652 203.985 C 86.678 203.985 119.212 203.985 119.212 203.985" style="fill-opacity: 1; fill-rule: nonzero; stroke: none; fill: rgb(255, 255, 255);" id="path4173"/>
  <path d="M 91.114 0.004 C 85.252 0.004 77.038 3.02 72.32 6.516 C 67.601 10.013 60.778 17.98 60.778 28.963 C 60.778 39.946 67.445 48.486 67.445 48.486 C 70.864 52.723 79.468 61.614 79.468 61.614 C 79.663 61.822 79.78 62.095 79.78 62.394 C 79.78 63.056 79.247 63.602 78.585 63.602 C 78.481 63.602 0 63.602 0 63.602 L 0 98.358 L 94.455 98.358 C 107.297 98.358 114.458 91.366 116.421 89.403 C 118.371 87.453 124.87 80.136 124.87 68.009 C 124.87 55.895 119.346 49.63 116.98 46.783 C 114.874 44.236 106.478 35.397 104.723 33.564 C 104.515 33.383 104.385 33.123 104.385 32.837 C 104.385 32.408 104.632 32.018 105.009 31.888 L 150.501 31.888 L 150.501 98.358 L 185.478 98.358 L 185.478 32.057 L 227.942 32.057 L 227.942 0.004 L 91.114 0.004 Z" style="fill-opacity: 1; fill-rule: nonzero; stroke: none; fill: rgb(255, 255, 255);" id="path4177"/>
  <path d="M 396.181 40.272 L 374.722 40.285 C 374.722 40.285 374.15 40.116 374.15 39.466 L 374.137 28.639 C 374.137 27.989 374.709 27.82 374.709 27.82 L 394.388 27.82 C 396.675 27.82 401.303 28.964 401.303 34.254 C 401.303 39.544 396.181 40.272 396.181 40.272 M 424.491 63.538 C 418.642 63.512 418.226 61.185 418.226 60.847 C 418.226 60.249 418.953 59.872 418.953 59.872 C 421.15 58.82 425.634 55.323 425.634 55.323 C 435.149 47.915 436.293 37.75 436.293 32.304 C 436.293 26.845 435.474 17.188 425.712 8.726 C 415.951 0.265 403.59 0.005 403.59 0.005 L 334.871 0.005 C 334.871 0.005 334.871 97.774 334.871 97.8 C 334.871 98.112 335.157 98.359 335.469 98.359 C 335.534 98.359 373.721 98.359 373.721 98.359 L 373.721 70.947 C 373.721 70.453 374.462 70.947 374.462 70.947 L 394.388 90.95 C 401.471 98.112 413.182 98.359 413.182 98.359 L 471.997 98.359 L 471.997 63.538 L 424.491 63.538 Z" style="fill-opacity: 1; fill-rule: nonzero; stroke: none; fill: rgb(255, 255, 255);" id="path4181"/>
  <path d="M 279.077 57.372 L 264.688 57.372 C 264.155 57.372 263.817 56.8 263.817 56.254 C 263.817 56.046 271.473 31.376 271.473 31.376 C 271.746 30.453 271.824 30.427 271.876 30.427 L 271.889 30.427 C 271.941 30.427 272.019 30.453 272.292 31.376 C 272.292 31.376 279.947 56.046 279.947 56.254 C 279.947 56.8 279.597 57.372 279.077 57.372 M 298.443 0.87 C 298.3 0.377 297.871 0.026 297.339 0 L 244.503 0 C 243.983 0.026 243.541 0.377 243.398 0.857 C 243.398 0.857 214.218 97.301 214.218 97.483 C 214.218 97.964 214.608 98.354 215.089 98.354 L 250.014 98.354 C 250.3 98.263 250.508 97.99 250.573 97.691 L 254.641 84.68 C 254.771 84.368 255.07 84.147 255.434 84.134 L 287.642 84.134 C 288.006 84.16 288.305 84.381 288.448 84.693 L 292.607 97.691 C 292.672 97.99 292.88 98.263 293.153 98.367 C 293.153 98.367 327.493 98.354 327.519 98.354 C 328 98.354 328.39 97.99 328.39 97.496 C 328.39 97.34 298.443 0.87 298.443 0.87" style="fill-opacity: 1; fill-rule: nonzero; stroke: none; fill: rgb(255, 255, 255);" id="path4185"/>
</svg>