<?xml version="1.0" encoding="utf-8"?>
<svg version="1.0" preserveAspectRatio="xMidYMid meet" xmlns="http://www.w3.org/2000/svg">
  <g id="layer2" fill="#878787" stroke="none">
    <path d="M11990 6989 c-205 -54 -395 -161 -512 -288 -68 -74 -146 -203 -178 -296 -19 -56 -20 -83 -20 -875 0 -701 2 -824 15 -860 60 -169 224 -379 361 -463 76 -46 196 -93 298 -117 77 -19 125 -20 959 -20 l877 0 0 500 0 500 -450 0 -450 0 0 -95 0 -95 -235 0 c-279 0 -315 8 -387 89 -78 87 -78 88 -78 576 l0 430 29 50 c44 77 101 130 165 154 52 19 77 21 301 21 l245 0 0 -100 0 -100 -215 0 -215 0 0 -350 0 -350 675 0 675 0 0 850 0 850 -912 -1 c-527 0 -928 -5 -948 -10z" style="fill: rgb(255, 255, 255);"/>
    <path d="M2740 6481 l0 -511 451 0 451 0 -4 110 -3 110 287 0 c157 0 293 -3 302 -6 24 -9 19 -37 -11 -66 -16 -14 -176 -122 -358 -240 -844 -549 -833 -541 -934 -678 -102 -138 -131 -222 -131 -390 0 -175 41 -303 136 -423 88 -110 267 -220 454 -277 l115 -35 828 -3 827 -3 0 496 0 495 -460 0 -460 0 0 -100 0 -100 -167 2 c-144 3 -168 5 -171 19 -2 11 47 47 163 120 229 143 754 491 848 562 194 147 322 351 346 552 14 114 14 235 0 311 -5 32 -32 104 -59 160 -41 84 -60 111 -117 165 -122 113 -243 169 -464 211 -111 21 -141 21 -991 25 l-878 4 0 -510z" style="fill: rgb(255, 255, 255);"/>
    <path d="M5410 6580 l0 -410 130 0 130 0 -2 -637 -3 -638 -127 -3 -128 -3 0 -409 0 -410 720 0 720 0 0 410 0 409 -122 3 -123 3 -3 633 -2 632 277 -2 278 -3 0 -135 0 -135 475 0 475 0 3 100 c2 55 0 304 -3 553 l-7 452 -1344 0 -1344 0 0 -410z" style="fill: rgb(255, 255, 255);"/>
    <path d="M9068 6979 c-123 -18 -286 -87 -405 -171 -138 -96 -211 -190 -256 -325 l-26 -79 -7 -767 -7 -767 -114 0 -113 0 0 -400 0 -400 660 0 660 0 0 400 0 399 -87 3 -88 3 0 624 0 624 28 21 c27 20 40 21 287 21 247 0 260 -1 287 -21 l28 -21 3 -627 2 -626 -90 0 -90 0 0 -400 0 -400 663 2 662 3 3 398 2 397 -120 0 -119 0 -3 798 -3 797 -37 75 c-99 201 -302 357 -549 422 -81 21 -103 22 -599 24 -283 1 -541 -2 -572 -7z" style="fill: rgb(255, 255, 255);"/>
    <path d="M393 3788 c3 -7 92 -168 199 -358 l195 -345 195 -3 195 -2 248 -443 c137 -243 386 -687 555 -987 168 -300 325 -580 349 -622 l42 -78 -190 -2 -190 -3 201 -358 202 -357 630 2 631 3 5 353 5 353 60 -105 c33 -57 125 -217 205 -355 l145 -250 543 -1 542 0 0 158 c0 86 -3 248 -7 359 l-6 203 -114 0 -113 0 0 1065 0 1065 120 0 120 0 0 158 c0 86 -3 248 -7 360 l-6 202 -739 0 -738 0 0 -360 0 -360 105 0 105 0 0 -222 c0 -123 -4 -218 -9 -212 -4 5 -46 74 -93 154 -47 80 -134 228 -194 330 -60 101 -172 292 -250 425 l-140 240 -302 3 -302 2 -2 -579 -3 -579 -133 231 c-73 128 -222 387 -331 577 l-199 345 -767 3 c-613 2 -766 0 -762 -10z" style="fill: rgb(255, 255, 255);"/>
    <path d="M5407 3603 c-4 -108 -7 -270 -7 -360 l0 -163 105 0 105 0 0 -555 0 -555 -105 0 -105 0 0 -365 0 -365 1145 0 1145 0 0 425 0 425 -417 -2 -418 -3 -3 -57 -3 -58 -194 0 -195 0 0 90 0 90 275 0 275 0 0 335 0 335 -275 0 -275 0 0 130 0 130 195 0 194 0 3 -87 3 -88 418 -3 417 -2 0 450 0 450 -1138 0 -1139 0 -6 -197z" style="fill: rgb(255, 255, 255);"/>
    <path d="M8480 3435 l0 -365 140 0 140 0 0 -545 0 -545 -29 0 c-29 0 -30 2 -33 53 l-3 52 -375 0 -375 0 -3 -423 -2 -422 1245 0 1245 0 -2 422 -3 423 -377 3 -378 2 0 -65 0 -65 -40 0 -40 0 0 555 0 555 150 0 150 0 0 365 0 365 -705 0 -705 0 0 -365z" style="fill: rgb(255, 255, 255);"/>
    <path d="M10140 3440 l0 -359 151 -3 151 -3 68 -120 c37 -66 176 -313 309 -549 132 -235 241 -432 241 -437 0 -5 -54 -10 -120 -11 l-119 -3 202 -355 203 -355 850 0 849 0 3 358 2 357 -110 0 -110 0 0 560 0 560 110 0 110 0 0 360 0 360 -944 0 -945 0 63 -112 c34 -62 86 -156 114 -208 28 -52 88 -162 134 -245 l84 -150 222 -3 222 -2 0 -437 c0 -240 -2 -434 -4 -432 -3 2 -78 132 -168 289 -91 157 -297 513 -458 793 l-295 507 -407 0 -408 0 0 -360z" style="fill: rgb(255, 255, 255);"/>
    <path d="M13200 3440 l0 -360 115 0 115 0 0 -560 0 -560 -115 0 -115 0 0 -360 0 -360 643 2 642 3 3 358 2 357 -110 0 -110 0 0 555 0 555 248 0 247 0 -3 -120 -3 -120 428 2 428 3 3 50 c2 28 1 245 -3 483 l-7 432 -1204 0 -1204 0 0 -360z" style="fill: rgb(255, 255, 255);"/>
  </g>
</svg>