<?xml version="1.0" encoding="utf-8"?>
<svg version="1.0" preserveAspectRatio="xMidYMid meet" xmlns="http://www.w3.org/2000/svg">
  <path d="M 303.45 176.856 C 298.085 175.444 293.114 172.644 290.052 169.32 C 288.273 167.384 286.232 164.008 285.395 161.575 C 284.898 160.11 284.872 159.404 284.872 138.68 C 284.872 120.338 284.924 117.119 285.264 116.177 C 286.834 111.755 291.125 106.26 294.71 104.062 C 296.699 102.858 299.838 101.629 302.507 101.001 C 304.522 100.504 305.778 100.478 327.601 100.478 L 350.548 100.478 L 350.548 113.56 L 350.548 126.644 L 338.774 126.644 L 326.999 126.644 L 326.999 124.158 L 326.999 121.672 L 320.85 121.672 C 313.549 121.672 312.607 121.882 310.723 124.001 C 308.683 126.277 308.683 126.304 308.683 139.073 L 308.683 150.324 L 309.442 151.632 C 310.593 153.647 312.084 155.034 313.759 155.662 C 315.12 156.159 315.774 156.211 321.635 156.211 L 328.045 156.211 L 328.045 153.595 L 328.045 150.978 L 322.42 150.978 L 316.794 150.978 L 316.794 141.82 L 316.794 132.662 L 334.456 132.662 L 352.118 132.662 L 352.118 154.903 L 352.118 177.144 L 328.255 177.118 C 314.465 177.118 303.973 176.987 303.45 176.856 Z" style="fill: rgb(255, 255, 255);"/>
  <path d="M 61.413 163.564 L 61.413 150.193 L 73.214 150.193 L 85.015 150.193 L 84.911 153.072 L 84.832 155.949 L 92.342 155.949 C 96.45 155.949 100.009 155.871 100.244 155.792 C 100.872 155.557 100.741 154.824 99.956 154.065 C 99.537 153.699 95.351 150.873 90.589 147.786 C 68.505 133.421 68.793 133.63 66.15 130.045 C 63.48 126.434 62.722 124.237 62.722 119.84 C 62.722 115.262 63.795 111.912 66.28 108.772 C 68.583 105.894 73.267 103.016 78.16 101.524 L 81.169 100.608 L 102.834 100.53 L 124.474 100.451 L 124.474 113.43 L 124.474 126.382 L 112.437 126.382 L 100.401 126.382 L 100.401 123.765 L 100.401 121.149 L 96.031 121.201 C 92.263 121.28 91.635 121.332 91.557 121.698 C 91.504 121.986 92.787 122.928 95.822 124.838 C 101.814 128.58 115.551 137.686 118.011 139.544 C 123.087 143.39 126.436 148.728 127.064 153.987 C 127.43 156.97 127.43 160.136 127.064 162.125 C 126.933 162.962 126.227 164.846 125.521 166.311 C 124.448 168.509 123.95 169.216 122.459 170.629 C 119.266 173.586 116.101 175.051 110.318 176.15 C 107.414 176.699 106.628 176.699 84.388 176.804 L 61.413 176.908 L 61.413 163.564 Z" style="fill: rgb(255, 255, 255);"/>
  <path d="M 131.277 166.154 L 131.277 155.426 L 134.678 155.426 L 138.08 155.426 L 138.027 138.758 L 137.95 122.065 L 134.626 121.986 L 131.277 121.907 L 131.277 111.205 L 131.277 100.478 L 150.116 100.478 L 168.956 100.478 L 168.956 111.205 L 168.956 121.907 L 165.764 121.986 L 162.545 122.065 L 162.467 138.628 L 162.414 155.164 L 169.662 155.112 L 176.937 155.034 L 176.937 151.502 L 176.937 147.969 L 189.366 147.969 L 201.795 147.969 L 201.873 150.586 C 201.925 152.025 201.873 158.54 201.795 165.055 L 201.611 176.882 L 166.444 176.882 L 131.277 176.882 L 131.277 166.154 Z" style="fill: rgb(255, 255, 255);"/>
  <path d="M 226.992 176.595 C 223.774 176.124 219.509 174.318 216.395 172.12 C 212.784 169.608 210.874 167.149 209.697 163.616 L 209.016 161.549 L 208.833 141.48 L 208.65 121.41 L 205.667 121.41 L 202.71 121.41 L 202.71 110.944 L 202.71 100.478 L 219.98 100.478 L 237.249 100.478 L 237.249 110.944 L 237.249 121.384 L 234.973 121.463 L 232.67 121.542 L 232.67 137.869 L 232.67 154.196 L 233.403 154.746 C 234.109 155.269 234.449 155.296 240.913 155.296 C 247.376 155.296 247.716 155.269 248.422 154.746 L 249.155 154.196 L 249.233 137.79 L 249.286 121.41 L 246.931 121.41 L 244.576 121.41 L 244.576 110.944 L 244.576 100.478 L 261.924 100.53 L 279.246 100.608 L 279.324 111.022 L 279.377 121.41 L 276.237 121.41 L 273.123 121.41 L 273.044 142.291 L 272.966 163.145 L 271.998 165.108 C 269.407 170.367 264.096 174.449 257.633 176.15 C 255.513 176.699 254.938 176.725 241.959 176.778 C 234.554 176.804 227.804 176.725 226.992 176.595 Z" style="fill: rgb(255, 255, 255);"/>
  <path d="M 0.002 93.099 C 0.08 92.915 2.409 88.703 5.209 83.731 L 10.312 74.704 L 15.414 74.625 L 20.516 74.573 L 27.005 62.982 C 30.59 56.623 37.106 45.005 41.528 37.156 C 45.923 29.306 50.031 21.979 50.659 20.881 L 51.758 18.84 L 46.787 18.787 L 41.815 18.709 L 47.075 9.341 L 52.36 0 L 68.845 0.052 L 85.356 0.131 L 85.486 9.368 L 85.617 18.604 L 87.187 15.857 C 88.05 14.365 90.458 10.179 92.551 6.568 L 96.345 0.026 L 110.553 0 L 124.735 0 L 124.735 4.135 C 124.735 6.385 124.657 10.623 124.553 13.528 L 124.395 18.84 L 121.412 18.84 L 118.455 18.84 L 118.455 46.706 L 118.455 74.573 L 121.595 74.573 L 124.735 74.573 L 124.735 78.707 C 124.735 80.958 124.657 85.197 124.553 88.127 L 124.395 93.413 L 105.058 93.413 L 85.748 93.413 L 85.748 83.993 L 85.748 74.573 L 88.496 74.573 L 91.243 74.573 L 91.243 68.764 C 91.243 65.546 91.138 63.06 91.008 63.217 C 90.903 63.348 89.804 65.154 88.574 67.247 C 87.344 69.34 85.068 73.213 83.498 75.881 C 81.928 78.525 78.997 83.522 76.956 87.002 L 73.293 93.282 L 65.391 93.36 L 57.489 93.413 L 57.436 78.263 L 57.358 63.113 L 53.878 69.157 C 51.967 72.506 48.069 79.283 45.217 84.255 L 40.01 93.282 L 19.94 93.36 C 3.901 93.413 -0.103 93.36 0.002 93.099 Z" style="fill: rgb(255, 255, 255);"/>
  <path d="M 131.198 88.258 C 131.094 85.432 131.015 81.193 131.015 78.838 L 131.015 74.573 L 133.763 74.573 L 136.51 74.573 L 136.51 60.051 L 136.51 45.529 L 133.763 45.529 L 131.015 45.529 L 131.015 35.978 L 131.015 26.428 L 160.975 26.428 L 190.936 26.428 L 190.936 37.548 L 190.936 48.669 L 180.024 48.617 L 169.087 48.538 L 169.008 47.047 L 168.93 45.529 L 163.854 45.529 L 158.751 45.529 L 158.751 47.884 L 158.751 50.239 L 165.947 50.239 L 173.143 50.239 L 173.143 59.005 L 173.143 67.77 L 165.947 67.77 L 158.751 67.77 L 158.751 71.172 L 158.751 74.573 L 163.854 74.573 L 168.93 74.573 L 169.008 72.297 L 169.087 69.994 L 180.024 69.916 L 190.936 69.863 L 190.936 81.638 L 190.936 93.413 L 161.159 93.413 L 131.355 93.413 L 131.198 88.258 Z" style="fill: rgb(255, 255, 255);"/>
  <path d="M 211.606 83.862 L 211.606 74.312 L 215.27 74.312 L 218.933 74.312 L 218.933 60.051 L 218.933 45.791 L 218.174 45.791 C 217.415 45.791 217.389 45.843 217.311 47.177 L 217.232 48.538 L 207.42 48.538 L 197.608 48.538 L 197.529 37.47 L 197.477 26.428 L 230.054 26.428 L 262.631 26.428 L 262.578 37.47 L 262.5 48.538 L 252.635 48.617 L 242.744 48.669 L 242.744 46.968 L 242.744 45.268 L 241.697 45.268 L 240.651 45.268 L 240.651 59.789 L 240.651 74.312 L 244.576 74.312 L 248.501 74.312 L 248.501 83.862 L 248.501 93.413 L 230.054 93.413 L 211.606 93.413 L 211.606 83.862 Z" style="fill: rgb(255, 255, 255);"/>
  <path d="M 255.042 83.993 L 255.042 74.6 L 258.993 74.521 L 262.945 74.442 L 264.724 71.302 C 265.692 69.575 269.329 63.113 272.809 56.938 C 276.263 50.789 279.115 45.633 279.115 45.503 C 279.115 45.372 277.702 45.241 275.975 45.215 L 272.861 45.137 L 278.147 35.847 L 283.458 26.559 L 305.7 26.559 L 327.915 26.559 L 327.993 35.926 L 328.045 45.268 L 325.167 45.268 L 322.289 45.268 L 322.289 59.92 L 322.289 74.573 L 325.167 74.573 L 328.045 74.573 L 328.045 83.993 L 328.045 93.413 L 303.345 93.413 L 278.618 93.413 L 280.266 90.482 C 281.156 88.86 282.517 86.4 283.249 85.039 C 283.982 83.679 285.552 80.801 286.756 78.629 L 288.954 74.704 L 294.762 74.625 L 300.571 74.573 L 300.571 63.139 C 300.571 56.859 300.519 51.782 300.467 51.835 C 300.388 51.887 298.426 55.289 296.071 59.397 C 293.689 63.505 288.299 72.82 284.087 80.147 L 276.367 93.413 L 265.718 93.413 L 255.042 93.413 L 255.042 83.993 Z" style="fill: rgb(255, 255, 255);"/>
  <path d="M 335.11 83.993 L 335.11 74.573 L 338.119 74.573 L 341.129 74.573 L 341.129 59.92 L 341.129 45.268 L 338.119 45.268 L 335.11 45.268 L 335.11 35.847 L 335.11 26.428 L 351.935 26.48 L 368.734 26.559 L 368.813 35.926 L 368.865 45.268 L 365.987 45.268 L 363.108 45.268 L 363.108 59.789 L 363.108 74.312 L 369.597 74.312 L 376.061 74.312 L 375.982 71.172 L 375.903 68.032 L 387.102 68.084 L 398.302 68.163 L 398.38 69.471 C 398.432 70.203 398.406 75.881 398.302 82.109 L 398.118 93.413 L 366.614 93.413 L 335.11 93.413 L 335.11 83.993 Z" style="fill: rgb(255, 255, 255);"/>
</svg>