<?xml version="1.0" encoding="utf-8"?>
<svg version="1.0" preserveAspectRatio="xMidYMid meet" xmlns="http://www.w3.org/2000/svg">
  <path d="M 152.332 88.782 C 149.639 88.073 147.143 86.667 145.606 84.999 C 144.713 84.027 143.689 82.332 143.268 81.111 C 143.019 80.375 143.006 80.021 143.006 69.617 C 143.006 60.41 143.032 58.794 143.203 58.321 C 143.991 56.101 146.145 53.343 147.945 52.239 C 148.943 51.635 150.519 51.018 151.859 50.703 C 152.87 50.453 153.501 50.44 164.456 50.44 L 175.975 50.44 L 175.975 57.007 L 175.975 63.575 L 170.065 63.575 L 164.154 63.575 L 164.154 62.327 L 164.154 61.079 L 161.067 61.079 C 157.402 61.079 156.929 61.185 155.983 62.249 C 154.959 63.391 154.959 63.405 154.959 69.815 L 154.959 75.463 L 155.34 76.119 C 155.918 77.131 156.666 77.827 157.507 78.142 C 158.19 78.392 158.519 78.418 161.461 78.418 L 164.679 78.418 L 164.679 77.105 L 164.679 75.791 L 161.855 75.791 L 159.031 75.791 L 159.031 71.194 L 159.031 66.596 L 167.897 66.596 L 176.763 66.596 L 176.763 77.761 L 176.763 88.926 L 164.784 88.913 C 157.862 88.913 152.595 88.848 152.332 88.782 Z" style="fill: rgb(255, 255, 255);"/>
  <path d="M 30.829 82.109 L 30.829 75.397 L 36.753 75.397 L 42.678 75.397 L 42.625 76.842 L 42.586 78.286 L 46.356 78.286 C 48.418 78.286 50.205 78.247 50.323 78.208 C 50.638 78.09 50.572 77.722 50.178 77.341 C 49.968 77.157 47.866 75.738 45.476 74.189 C 34.39 66.977 34.534 67.082 33.207 65.283 C 31.867 63.47 31.486 62.367 31.486 60.16 C 31.486 57.862 32.025 56.18 33.273 54.604 C 34.429 53.159 36.78 51.714 39.236 50.965 L 40.747 50.505 L 51.623 50.466 L 62.486 50.426 L 62.486 56.942 L 62.486 63.444 L 56.443 63.444 L 50.401 63.444 L 50.401 62.13 L 50.401 60.817 L 48.208 60.843 C 46.316 60.883 46.001 60.909 45.962 61.092 C 45.935 61.237 46.579 61.71 48.103 62.669 C 51.111 64.547 58.007 69.118 59.242 70.051 C 61.79 71.982 63.471 74.662 63.786 77.302 C 63.97 78.799 63.97 80.388 63.786 81.387 C 63.72 81.807 63.366 82.753 63.012 83.488 C 62.473 84.592 62.223 84.947 61.474 85.656 C 59.872 87.14 58.283 87.876 55.38 88.427 C 53.922 88.703 53.527 88.703 42.363 88.756 L 30.829 88.808 L 30.829 82.109 Z" style="fill: rgb(255, 255, 255);"/>
  <path d="M 65.901 83.409 L 65.901 78.024 L 67.608 78.024 L 69.316 78.024 L 69.29 69.657 L 69.251 61.277 L 67.582 61.237 L 65.901 61.197 L 65.901 55.825 L 65.901 50.44 L 75.358 50.44 L 84.816 50.44 L 84.816 55.825 L 84.816 61.197 L 83.214 61.237 L 81.598 61.277 L 81.559 69.591 L 81.532 77.892 L 85.17 77.866 L 88.822 77.827 L 88.822 76.054 L 88.822 74.281 L 95.062 74.281 L 101.301 74.281 L 101.34 75.594 C 101.366 76.317 101.34 79.587 101.301 82.858 L 101.209 88.795 L 83.555 88.795 L 65.901 88.795 L 65.901 83.409 Z" style="fill: rgb(255, 255, 255);"/>
  <path d="M 113.95 88.651 C 112.335 88.414 110.194 87.508 108.63 86.404 C 106.818 85.143 105.859 83.909 105.268 82.135 L 104.926 81.098 L 104.834 71.023 L 104.742 60.948 L 103.245 60.948 L 101.761 60.948 L 101.761 55.694 L 101.761 50.44 L 110.43 50.44 L 119.099 50.44 L 119.099 55.694 L 119.099 60.935 L 117.957 60.974 L 116.8 61.014 L 116.8 69.21 L 116.8 77.406 L 117.168 77.683 C 117.523 77.945 117.694 77.959 120.938 77.959 C 124.183 77.959 124.354 77.945 124.708 77.683 L 125.076 77.406 L 125.115 69.171 L 125.142 60.948 L 123.959 60.948 L 122.777 60.948 L 122.777 55.694 L 122.777 50.44 L 131.486 50.466 L 140.182 50.505 L 140.221 55.733 L 140.247 60.948 L 138.671 60.948 L 137.108 60.948 L 137.068 71.43 L 137.029 81.899 L 136.543 82.884 C 135.242 85.524 132.576 87.573 129.332 88.427 C 128.268 88.703 127.979 88.716 121.464 88.743 C 117.746 88.756 114.358 88.716 113.95 88.651 Z" style="fill: rgb(255, 255, 255);"/>
  <path d="M 0.001 46.736 C 0.04 46.643 1.209 44.529 2.615 42.033 L 5.177 37.501 L 7.738 37.462 L 10.299 37.436 L 13.557 31.617 C 15.356 28.425 18.627 22.593 20.847 18.652 C 23.053 14.712 25.116 11.033 25.431 10.482 L 25.983 9.458 L 23.487 9.431 L 20.991 9.392 L 23.632 4.689 L 26.285 0 L 34.56 0.026 L 42.849 0.066 L 42.914 4.703 L 42.98 9.339 L 43.768 7.96 C 44.201 7.211 45.41 5.11 46.461 3.297 L 48.365 0.013 L 55.498 0 L 62.617 0 L 62.617 2.076 C 62.617 3.205 62.578 5.333 62.526 6.791 L 62.446 9.458 L 60.949 9.458 L 59.464 9.458 L 59.464 23.446 L 59.464 37.436 L 61.041 37.436 L 62.617 37.436 L 62.617 39.511 C 62.617 40.641 62.578 42.769 62.526 44.24 L 62.446 46.893 L 52.739 46.893 L 43.046 46.893 L 43.046 42.165 L 43.046 37.436 L 44.425 37.436 L 45.804 37.436 L 45.804 34.52 C 45.804 32.904 45.751 31.656 45.686 31.735 C 45.633 31.801 45.082 32.707 44.464 33.758 C 43.847 34.809 42.704 36.753 41.916 38.092 C 41.128 39.42 39.657 41.928 38.632 43.675 L 36.793 46.828 L 32.826 46.867 L 28.86 46.893 L 28.833 39.288 L 28.794 31.683 L 27.047 34.717 C 26.087 36.398 24.131 39.8 22.699 42.296 L 20.085 46.828 L 10.01 46.867 C 1.958 46.893 -0.052 46.867 0.001 46.736 Z" style="fill: rgb(255, 255, 255);"/>
  <path d="M 65.861 44.306 C 65.809 42.887 65.77 40.759 65.77 39.577 L 65.77 37.436 L 67.149 37.436 L 68.528 37.436 L 68.528 30.146 L 68.528 22.856 L 67.149 22.856 L 65.77 22.856 L 65.77 18.061 L 65.77 13.267 L 80.81 13.267 L 95.85 13.267 L 95.85 18.849 L 95.85 24.432 L 90.372 24.406 L 84.882 24.366 L 84.842 23.618 L 84.803 22.856 L 82.255 22.856 L 79.693 22.856 L 79.693 24.038 L 79.693 25.22 L 83.305 25.22 L 86.918 25.22 L 86.918 29.621 L 86.918 34.021 L 83.305 34.021 L 79.693 34.021 L 79.693 35.728 L 79.693 37.436 L 82.255 37.436 L 84.803 37.436 L 84.842 36.293 L 84.882 35.137 L 90.372 35.098 L 95.85 35.071 L 95.85 40.982 L 95.85 46.893 L 80.902 46.893 L 65.94 46.893 L 65.861 44.306 Z" style="fill: rgb(255, 255, 255);"/>
  <path d="M 106.226 42.099 L 106.226 37.305 L 108.066 37.305 L 109.904 37.305 L 109.904 30.146 L 109.904 22.987 L 109.523 22.987 C 109.142 22.987 109.129 23.013 109.09 23.683 L 109.051 24.366 L 104.125 24.366 L 99.199 24.366 L 99.16 18.81 L 99.134 13.267 L 115.487 13.267 L 131.841 13.267 L 131.814 18.81 L 131.775 24.366 L 126.823 24.406 L 121.858 24.432 L 121.858 23.578 L 121.858 22.725 L 121.332 22.725 L 120.807 22.725 L 120.807 30.014 L 120.807 37.305 L 122.777 37.305 L 124.748 37.305 L 124.748 42.099 L 124.748 46.893 L 115.487 46.893 L 106.226 46.893 L 106.226 42.099 Z" style="fill: rgb(255, 255, 255);"/>
  <path d="M 128.031 42.165 L 128.031 37.449 L 130.015 37.41 L 131.999 37.37 L 132.892 35.794 C 133.378 34.927 135.203 31.683 136.95 28.583 C 138.684 25.496 140.116 22.908 140.116 22.843 C 140.116 22.777 139.407 22.711 138.54 22.698 L 136.976 22.659 L 139.63 17.995 L 142.296 13.333 L 153.462 13.333 L 164.613 13.333 L 164.653 18.035 L 164.679 22.725 L 163.234 22.725 L 161.789 22.725 L 161.789 30.08 L 161.789 37.436 L 163.234 37.436 L 164.679 37.436 L 164.679 42.165 L 164.679 46.893 L 152.279 46.893 L 139.866 46.893 L 140.694 45.422 C 141.14 44.608 141.824 43.373 142.191 42.69 C 142.559 42.007 143.347 40.562 143.952 39.472 L 145.055 37.501 L 147.971 37.462 L 150.887 37.436 L 150.887 31.696 C 150.887 28.543 150.861 25.995 150.835 26.021 C 150.795 26.047 149.81 27.755 148.628 29.817 C 147.432 31.88 144.726 36.556 142.612 40.234 L 138.736 46.893 L 133.391 46.893 L 128.031 46.893 L 128.031 42.165 Z" style="fill: rgb(255, 255, 255);"/>
  <path d="M 168.225 42.165 L 168.225 37.436 L 169.736 37.436 L 171.247 37.436 L 171.247 30.08 L 171.247 22.725 L 169.736 22.725 L 168.225 22.725 L 168.225 17.995 L 168.225 13.267 L 176.672 13.293 L 185.105 13.333 L 185.144 18.035 L 185.17 22.725 L 183.726 22.725 L 182.28 22.725 L 182.28 30.014 L 182.28 37.305 L 185.538 37.305 L 188.783 37.305 L 188.743 35.728 L 188.703 34.152 L 194.325 34.178 L 199.948 34.218 L 199.987 34.874 C 200.013 35.242 200 38.092 199.948 41.219 L 199.855 46.893 L 184.04 46.893 L 168.225 46.893 L 168.225 42.165 Z" style="fill: rgb(255, 255, 255);"/>
</svg>