<?xml version="1.0" encoding="utf-8"?>
<svg version="1.0" preserveAspectRatio="xMidYMid meet" xmlns="http://www.w3.org/2000/svg">
  <path d="M 634.49 369.793 C 623.274 366.839 612.879 360.985 606.477 354.036 C 602.757 349.987 598.49 342.929 596.739 337.841 C 595.7 334.777 595.645 333.301 595.645 289.969 C 595.645 251.617 595.754 244.887 596.465 242.918 C 599.748 233.672 608.721 222.182 616.216 217.586 C 620.374 215.069 626.939 212.498 632.52 211.185 C 636.733 210.146 639.359 210.091 684.988 210.091 L 732.97 210.091 L 732.97 237.446 L 732.97 264.802 L 708.35 264.802 L 683.73 264.802 L 683.73 259.604 L 683.73 254.407 L 670.873 254.407 C 655.608 254.407 653.638 254.845 649.699 259.276 C 645.432 264.036 645.432 264.091 645.432 290.79 L 645.432 314.316 L 647.019 317.051 C 649.426 321.264 652.544 324.164 656.046 325.477 C 658.891 326.517 660.259 326.626 672.514 326.626 L 685.918 326.626 L 685.918 321.155 L 685.918 315.683 L 674.156 315.683 L 662.393 315.683 L 662.393 296.535 L 662.393 277.386 L 699.322 277.386 L 736.252 277.386 L 736.252 323.89 L 736.252 370.394 L 686.356 370.34 C 657.523 370.34 635.584 370.066 634.49 369.793 Z" style="fill: rgb(255, 255, 255);"/>
  <path d="M 128.411 342 L 128.411 314.042 L 153.086 314.042 L 177.761 314.042 L 177.542 320.061 L 177.378 326.078 L 193.08 326.078 C 201.669 326.078 209.111 325.915 209.603 325.75 C 210.916 325.258 210.642 323.726 209.001 322.139 C 208.125 321.373 199.372 315.464 189.414 309.009 C 143.238 278.972 143.84 279.41 138.314 271.915 C 132.733 264.364 131.147 259.769 131.147 250.577 C 131.147 241.003 133.39 234 138.587 227.434 C 143.402 221.416 153.195 215.398 163.427 212.279 L 169.718 210.364 L 215.019 210.201 L 260.265 210.036 L 260.265 237.173 L 260.265 264.255 L 235.098 264.255 L 209.931 264.255 L 209.931 258.784 L 209.931 253.313 L 200.794 253.422 C 192.916 253.587 191.602 253.696 191.439 254.462 C 191.329 255.064 194.01 257.033 200.356 261.027 C 212.885 268.851 241.609 287.89 246.752 291.775 C 257.366 299.817 264.369 310.978 265.682 321.975 C 266.447 328.213 266.447 334.832 265.682 338.99 C 265.408 340.741 263.931 344.681 262.454 347.744 C 260.211 352.34 259.171 353.817 256.052 356.772 C 249.377 362.954 242.758 366.018 230.667 368.316 C 224.594 369.465 222.952 369.465 176.448 369.684 L 128.411 369.902 L 128.411 342 Z" style="fill: rgb(255, 255, 255);"/>
  <path d="M 274.49 347.416 L 274.49 324.984 L 281.602 324.984 L 288.715 324.984 L 288.605 290.133 L 288.442 255.228 L 281.493 255.064 L 274.49 254.899 L 274.49 232.522 L 274.49 210.091 L 313.882 210.091 L 353.274 210.091 L 353.274 232.522 L 353.274 254.899 L 346.599 255.064 L 339.87 255.228 L 339.706 289.86 L 339.596 324.437 L 354.751 324.328 L 369.961 324.164 L 369.961 316.778 L 369.961 309.392 L 395.949 309.392 L 421.937 309.392 L 422.101 314.863 C 422.21 317.872 422.101 331.495 421.937 345.118 L 421.554 369.847 L 348.022 369.847 L 274.49 369.847 L 274.49 347.416 Z" style="fill: rgb(255, 255, 255);"/>
  <path d="M 474.624 369.246 C 467.894 368.261 458.976 364.486 452.466 359.89 C 444.916 354.638 440.922 349.495 438.46 342.109 L 437.037 337.787 L 436.654 295.823 L 436.271 253.86 L 430.034 253.86 L 423.852 253.86 L 423.852 231.975 L 423.852 210.091 L 459.961 210.091 L 496.07 210.091 L 496.07 231.975 L 496.07 253.805 L 491.31 253.969 L 486.496 254.134 L 486.496 288.273 L 486.496 322.413 L 488.028 323.562 C 489.505 324.656 490.216 324.711 503.73 324.711 C 517.244 324.711 517.955 324.656 519.432 323.562 L 520.964 322.413 L 521.128 288.109 L 521.237 253.86 L 516.314 253.86 L 511.39 253.86 L 511.39 231.975 L 511.39 210.091 L 547.663 210.201 L 583.882 210.364 L 584.046 232.139 L 584.156 253.86 L 577.59 253.86 L 571.08 253.86 L 570.915 297.519 L 570.751 341.124 L 568.727 345.228 C 563.31 356.225 552.204 364.759 538.69 368.316 C 534.259 369.465 533.055 369.519 505.918 369.629 C 490.435 369.684 476.32 369.519 474.624 369.246 Z" style="fill: rgb(255, 255, 255);"/>
  <path d="M 0.004 194.662 C 0.168 194.279 5.038 185.471 10.892 175.076 L 21.561 156.2 L 32.229 156.036 L 42.898 155.927 L 56.466 131.69 C 63.962 118.395 77.585 94.103 86.831 77.69 C 96.022 61.277 104.612 45.957 105.925 43.66 L 108.223 39.392 L 97.828 39.282 L 87.433 39.119 L 98.43 19.532 L 109.481 0 L 143.949 0.109 L 178.472 0.274 L 178.745 19.587 L 179.019 38.9 L 182.302 33.155 C 184.107 30.036 189.141 21.283 193.518 13.733 L 201.451 0.055 L 231.159 0 L 260.812 0 L 260.812 8.645 C 260.812 13.35 260.648 22.212 260.43 28.286 L 260.101 39.392 L 253.864 39.392 L 247.681 39.392 L 247.681 97.659 L 247.681 155.927 L 254.247 155.927 L 260.812 155.927 L 260.812 164.571 C 260.812 169.277 260.648 178.14 260.43 184.267 L 260.101 195.319 L 219.669 195.319 L 179.292 195.319 L 179.292 175.623 L 179.292 155.927 L 185.038 155.927 L 190.782 155.927 L 190.782 143.781 C 190.782 137.052 190.563 131.854 190.29 132.182 C 190.071 132.456 187.773 136.231 185.201 140.608 C 182.63 144.984 177.87 153.082 174.588 158.662 C 171.305 164.189 165.177 174.638 160.91 181.915 L 153.25 195.046 L 136.727 195.209 L 120.205 195.319 L 120.095 163.641 L 119.931 131.964 L 112.655 144.602 C 108.66 151.605 100.508 165.775 94.545 176.17 L 83.657 195.046 L 41.694 195.209 C 8.156 195.319 -0.215 195.209 0.004 194.662 Z" style="fill: rgb(255, 255, 255);"/>
  <path d="M 274.326 184.541 C 274.107 178.632 273.943 169.769 273.943 164.845 L 273.943 155.927 L 279.688 155.927 L 285.432 155.927 L 285.432 125.562 L 285.432 95.198 L 279.688 95.198 L 273.943 95.198 L 273.943 75.228 L 273.943 55.258 L 336.587 55.258 L 399.232 55.258 L 399.232 78.51 L 399.232 101.763 L 376.417 101.654 L 353.548 101.489 L 353.383 98.371 L 353.22 95.198 L 342.606 95.198 L 331.937 95.198 L 331.937 100.121 L 331.937 105.046 L 346.982 105.046 L 362.028 105.046 L 362.028 123.374 L 362.028 141.702 L 346.982 141.702 L 331.937 141.702 L 331.937 148.815 L 331.937 155.927 L 342.606 155.927 L 353.22 155.927 L 353.383 151.167 L 353.548 146.352 L 376.417 146.188 L 399.232 146.079 L 399.232 170.699 L 399.232 195.319 L 336.971 195.319 L 274.654 195.319 L 274.326 184.541 Z" style="fill: rgb(255, 255, 255);"/>
  <path d="M 442.453 175.349 L 442.453 155.38 L 450.113 155.38 L 457.773 155.38 L 457.773 125.562 L 457.773 95.745 L 456.186 95.745 C 454.599 95.745 454.544 95.854 454.381 98.644 L 454.216 101.489 L 433.7 101.489 L 413.183 101.489 L 413.019 78.346 L 412.91 55.258 L 481.025 55.258 L 549.141 55.258 L 549.031 78.346 L 548.867 101.489 L 528.24 101.654 L 507.56 101.763 L 507.56 98.206 L 507.56 94.651 L 505.371 94.651 L 503.183 94.651 L 503.183 125.015 L 503.183 155.38 L 511.39 155.38 L 519.596 155.38 L 519.596 175.349 L 519.596 195.319 L 481.025 195.319 L 442.453 195.319 L 442.453 175.349 Z" style="fill: rgb(255, 255, 255);"/>
  <path d="M 533.274 175.623 L 533.274 155.982 L 541.535 155.818 L 549.797 155.653 L 553.517 149.088 C 555.542 145.477 563.146 131.964 570.423 119.052 C 577.645 106.195 583.609 95.416 583.609 95.143 C 583.609 94.869 580.654 94.596 577.043 94.541 L 570.532 94.377 L 581.584 74.954 L 592.69 55.532 L 639.195 55.532 L 685.645 55.532 L 685.809 75.118 L 685.918 94.651 L 679.9 94.651 L 673.882 94.651 L 673.882 125.289 L 673.882 155.927 L 679.9 155.927 L 685.918 155.927 L 685.918 175.623 L 685.918 195.319 L 634.271 195.319 L 582.569 195.319 L 586.015 189.191 C 587.876 185.799 590.721 180.656 592.253 177.811 C 593.785 174.966 597.068 168.948 599.584 164.407 L 604.18 156.2 L 616.325 156.036 L 628.472 155.927 L 628.472 132.018 C 628.472 118.887 628.362 108.273 628.253 108.383 C 628.088 108.492 623.985 115.605 619.061 124.194 C 614.082 132.784 602.812 152.261 594.004 167.581 L 577.863 195.319 L 555.596 195.319 L 533.274 195.319 L 533.274 175.623 Z" style="fill: rgb(255, 255, 255);"/>
  <path d="M 700.69 175.623 L 700.69 155.927 L 706.982 155.927 L 713.274 155.927 L 713.274 125.289 L 713.274 94.651 L 706.982 94.651 L 700.69 94.651 L 700.69 74.954 L 700.69 55.258 L 735.87 55.368 L 770.994 55.532 L 771.159 75.118 L 771.268 94.651 L 765.25 94.651 L 759.231 94.651 L 759.231 125.015 L 759.231 155.38 L 772.8 155.38 L 786.314 155.38 L 786.149 148.815 L 785.985 142.249 L 809.401 142.359 L 832.818 142.523 L 832.982 145.258 C 833.091 146.79 833.036 158.662 832.818 171.684 L 832.434 195.319 L 766.562 195.319 L 700.69 195.319 L 700.69 175.623 Z" style="fill: rgb(255, 255, 255);"/>
</svg>