<?xml version="1.0" encoding="utf-8"?>
<svg version="1.2" baseProfile="tiny" id="Layer_3" x="0px" y="0px" viewBox="0 0 1280 720" preserveAspectRatio="none" xmlns="http://www.w3.org/2000/svg">
  <path d="M 612.621 390.987 L 612.621 334.706 L 668.904 334.703 L 668.904 389.568 L 668.904 390.987 L 612.621 390.987 L 612.621 390.987 Z M 667.483 389.568 L 667.483 388.145 L 667.483 389.568 L 667.483 389.568 Z M 615.461 337.55 L 615.461 388.146 L 666.064 388.146 L 666.064 337.548 L 615.461 337.55 L 615.461 337.55 Z" style="fill: rgb(30, 30, 30);" transform="matrix(0.965926, -0.258819, 0.258819, 0.965926, -72.077778, 178.205307)"/>
  <path d="M 621.822 381.792 L 621.822 343.905 L 659.704 343.905 L 659.704 380.369 L 659.704 381.792 L 621.822 381.792 L 621.822 381.792 Z M 658.285 380.369 L 658.285 378.949 L 658.285 380.369 L 658.285 380.369 Z M 624.662 378.949 L 656.864 378.949 L 656.864 346.745 L 624.662 346.745 L 624.662 378.949 L 624.662 378.949 Z" style="fill: rgb(30, 30, 30);" transform="matrix(0.965926, -0.258819, 0.258819, 0.965926, -72.078672, 178.205564)"/>
  <path d="M 719.471 595.561 C 719.398 595.561 719.319 595.561 719.229 595.556 L 719.229 595.556 L 719.229 595.556 L 611.721 595.553 C 611.721 595.553 611.715 595.553 611.64 595.556 L 611.64 595.556 C 609.47 595.591 608.013 593.63 607.963 591.604 L 607.963 591.604 L 595.8 321.057 C 595.583 318.969 594.531 318.104 591.855 317.98 L 591.855 317.98 L 591.855 316.565 L 592.859 317.566 L 590.852 315.557 C 590.896 315.601 590.876 315.261 591.855 315.139 L 591.855 315.139 C 595.404 315.014 598.497 317.261 598.637 320.906 L 598.637 320.906 L 610.798 591.44 C 610.968 592.594 611.226 592.68 611.641 592.716 L 611.641 592.716 C 611.647 592.716 611.709 592.714 611.766 592.714 L 611.766 592.714 L 719.26 592.714 L 719.326 592.719 C 719.361 592.719 719.412 592.724 719.473 592.724 L 719.473 592.724 C 719.949 592.686 719.858 592.657 719.983 592.535 L 719.983 592.535 C 720.091 592.393 720.227 591.953 720.263 591.465 L 720.263 591.465 L 732.422 320.879 C 732.557 317.258 735.657 315.015 739.202 315.14 L 739.202 315.14 L 739.202 317.977 C 736.527 318.102 735.472 318.969 735.258 321.031 L 735.258 321.031 L 723.094 591.652 C 723.019 592.409 722.888 593.277 722.343 594.115 L 722.343 594.115 C 721.828 594.946 720.74 595.563 719.578 595.563 L 719.578 595.563 C 719.542 595.565 719.506 595.565 719.471 595.561 L 719.471 595.561 Z" style="fill: rgb(30, 30, 30);" transform="matrix(0.965926, -0.258819, 0.258819, 0.965926, -95.192724, 187.637086)"/>
  <path d="M 504.078 325.937 L 504.078 125.936 L 704.075 125.936 L 704.078 324.515 L 704.078 325.937 L 504.078 325.937 L 504.078 325.937 Z M 702.657 324.516 L 702.657 323.096 L 702.657 324.516 L 702.657 324.516 Z M 506.916 323.096 L 701.237 323.096 L 701.234 128.777 L 506.919 128.777 L 506.916 323.096 L 506.916 323.096 Z" style="fill: rgb(30, 30, 30);" transform="matrix(0.965926, -0.258819, 0.258819, 0.965926, -37.893204, 164.04546)"/>
  <path d="M 538.708 297.399 C 535.341 297.396 532.618 294.67 532.615 291.309 L 532.615 291.309 L 532.615 160.564 C 532.618 157.2 535.341 154.474 538.708 154.474 L 538.708 154.474 L 669.451 154.474 C 672.813 154.477 675.54 157.2 675.543 160.564 L 675.543 160.564 L 675.543 291.311 C 675.54 294.674 672.813 297.398 669.451 297.401 L 669.451 297.401 L 538.708 297.401 L 538.708 297.399 Z M 535.456 160.564 L 535.456 291.311 C 535.459 293.103 536.91 294.557 538.709 294.561 L 538.709 294.561 L 669.452 294.561 C 671.244 294.558 672.698 293.104 672.701 291.311 L 672.701 291.311 L 672.701 160.564 C 672.701 158.772 671.244 157.318 669.452 157.315 L 669.452 157.315 L 538.708 157.315 C 536.91 157.318 535.459 158.771 535.456 160.564 L 535.456 160.564 Z" style="fill: rgb(30, 30, 30);" transform="matrix(0.965926, -0.258819, 0.258819, 0.965926, -37.893431, 164.045757)"/>
  <path d="M 634.928 263.564 C 634.945 263.564 634.957 263.564 634.974 263.564 L 634.974 263.564 C 634.963 263.564 634.955 263.564 634.945 263.564 L 634.945 263.564 C 634.94 263.564 634.933 263.564 634.928 263.564 L 634.928 263.564 Z M 634.922 263.564 L 573.11 263.564 C 569.503 263.561 566.584 260.643 566.584 257.041 L 566.584 257.041 L 566.584 195.219 L 566.584 195.219 C 566.584 195.218 566.584 195.218 566.584 195.216 L 566.584 195.216 C 566.584 191.611 569.508 188.696 573.11 188.693 L 573.11 188.693 L 634.926 188.696 C 638.527 188.696 641.449 191.616 641.449 195.216 L 641.449 195.216 L 641.452 257.039 L 641.449 257.039 C 641.449 260.625 638.558 263.534 634.974 263.563 L 634.974 263.563 C 635.054 263.56 635.179 263.541 635.4 263.477 L 635.4 263.477 C 635.612 263.455 636.336 262.965 636.339 262.174 L 636.339 262.174 C 636.304 261.433 636.019 261.281 635.949 261.161 L 635.949 261.161 C 635.838 261.046 635.782 261.014 635.738 260.98 L 635.738 260.98 L 635.432 261.417 L 634.922 263.564 C 634.925 263.564 634.926 263.564 634.928 263.564 L 634.928 263.564 C 634.926 263.564 634.925 263.564 634.922 263.564 L 634.922 263.564 L 634.922 263.564 L 634.922 263.564 Z M 634.922 260.723 C 636.962 260.72 638.608 259.073 638.611 257.041 L 638.611 257.041 L 638.611 195.219 C 638.605 193.183 636.962 191.537 634.926 191.534 L 634.926 191.534 L 573.11 191.534 C 571.119 191.537 569.499 193.11 569.425 195.081 L 569.425 195.081 L 569.422 257.039 C 569.428 259.073 571.075 260.718 573.11 260.721 L 573.11 260.721 L 634.919 260.721 L 634.922 260.721 L 634.922 260.723 Z" style="fill: rgb(30, 30, 30);" transform="matrix(0.965926, -0.258819, 0.258819, 0.965926, -37.944956, 164.036631)"/>
  <polygon points="535.882 179.393 573.059 179.393 561.285 190.442 571.771 200.926 569.763 202.933 557.205 190.374 565.881 182.235 538.723 182.232 538.723 209.388 546.737 200.842 559.825 213.931 559.828 213.931 557.817 215.939 546.804 204.921 535.882 216.569" style="fill: rgb(30, 30, 30);" transform="matrix(0.965926, -0.258819, 0.258819, 0.965926, -32.34813, 150.25354)"/>
  <polygon points="640.728 183.866 629.715 194.881 627.704 192.874 640.793 179.781 648.805 188.329 648.805 161.175 621.647 161.175 630.328 169.32 617.767 181.877 615.761 179.866 626.246 169.386 614.477 158.337 651.647 158.331 651.647 195.517" style="fill: rgb(30, 30, 30);" transform="matrix(0.965926, -0.258819, 0.258819, 0.965926, -24.220237, 169.877021)"/>
  <polygon points="635.095 272.484 646.87 261.43 636.385 250.952 638.389 248.941 650.95 261.495 642.271 269.642 669.429 269.642 669.426 242.486 661.418 251.034 648.328 237.944 650.336 235.933 661.352 246.945 672.266 235.298 672.272 272.484" style="fill: rgb(30, 30, 30);" transform="matrix(0.965926, -0.258819, 0.258819, 0.965926, -43.438102, 177.836824)"/>
  <polygon points="556.51 293.538 556.51 256.362 567.427 268.004 578.443 256.991 578.446 256.991 580.45 258.999 567.363 272.085 559.351 263.541 559.351 290.699 586.507 290.699 577.828 282.553 590.389 269.998 592.394 272.007 581.907 282.485 593.684 293.538" style="fill: rgb(30, 30, 30);" transform="matrix(0.965926, -0.258819, 0.258819, 0.965926, -51.56634, 158.214736)"/>
  <path d="M 583.066 253.041 C 579.7 253.039 576.975 250.314 576.975 246.954 L 576.975 246.954 L 576.975 204.924 C 576.975 201.561 579.7 198.836 583.066 198.836 L 583.066 198.836 L 625.09 198.833 C 628.453 198.836 631.181 201.558 631.183 204.924 L 631.183 204.924 L 631.181 246.95 C 631.181 250.312 628.453 253.037 625.088 253.04 L 625.088 253.04 L 583.066 253.04 L 583.066 253.041 Z M 579.814 204.924 L 579.814 246.953 C 579.817 248.743 581.271 250.196 583.066 250.199 L 583.066 250.199 L 625.09 250.199 C 626.885 250.196 628.336 248.745 628.339 246.95 L 628.339 246.95 L 628.342 204.924 C 628.339 203.13 626.885 201.678 625.09 201.675 L 625.09 201.675 L 583.066 201.675 C 581.269 201.678 579.817 203.132 579.814 204.924 L 579.814 204.924 Z" style="fill: rgb(30, 30, 30);" transform="matrix(0.965926, -0.258819, 0.258819, 0.965926, -37.893315, 164.04589)"/>
  <path d="M 587.289 226.038 C 587.284 225.991 587.283 225.93 587.289 225.854 L 587.289 225.854 C 587.337 216.62 594.833 209.151 604.077 209.146 L 604.077 209.146 C 613.352 209.149 620.866 216.664 620.866 225.936 L 620.866 225.936 L 620.869 225.936 C 620.866 235.211 613.352 242.726 604.077 242.728 L 604.077 242.728 C 594.837 242.726 587.342 235.266 587.289 226.038 L 587.289 226.038 Z M 604.077 239.886 C 611.781 239.874 618.015 233.641 618.028 225.935 L 618.028 225.935 C 618.012 218.233 611.781 211.999 604.077 211.988 L 604.077 211.988 C 596.372 211.999 590.141 218.233 590.127 225.935 L 590.127 225.935 C 590.141 233.644 596.372 239.876 604.077 239.886 L 604.077 239.886 Z M 590.126 225.865 C 590.121 225.754 590.111 225.723 590.107 225.714 L 590.107 225.714 C 590.111 225.743 590.121 225.793 590.126 225.865 L 590.126 225.865 Z" style="fill: rgb(30, 30, 30);" transform="matrix(0.965926, -0.258819, 0.258819, 0.965926, -37.893371, 164.045203)"/>
  <polygon points="623.145 520.124 623.145 517.284 741.181 517.284 741.181 520.124" style="fill: rgb(30, 30, 30);" transform="matrix(0.965926, -0.258819, 0.258819, 0.965926, -111.006238, 194.230969)"/>
  <path d="M 644.144 587.338 C 642.475 587.268 641.416 587.241 640.38 586.439 L 640.38 586.439 C 639.349 585.496 639.414 584.393 639.364 583.568 L 639.364 583.568 L 636.276 520.989 L 747.775 520.989 L 744.689 583.545 C 744.638 584.396 744.703 585.503 743.67 586.443 L 743.67 586.443 C 742.633 587.243 741.571 587.273 739.908 587.336 L 739.908 587.336 L 739.878 585.921 L 739.878 587.341 L 644.144 587.338 L 644.144 587.338 Z M 642.568 584.37 C 642.894 584.434 643.44 584.481 644.169 584.497 L 644.169 584.497 L 739.85 584.497 C 740.945 584.489 741.592 584.362 741.782 584.292 L 741.782 584.292 C 741.812 584.167 741.836 583.866 741.849 583.427 L 741.849 583.427 L 744.791 523.828 L 639.255 523.828 L 642.197 583.443 C 642.206 583.863 642.24 584.16 642.264 584.289 L 642.264 584.289 C 642.323 584.312 642.423 584.345 642.568 584.37 L 642.568 584.37 Z" style="fill: rgb(30, 30, 30);" transform="matrix(0.965926, -0.258819, 0.258819, 0.965926, -119.84834, 197.992248)"/>
  <path d="M 562.657 235.922 C 562.657 228.543 564.523 221.588 567.805 215.522 L 567.805 215.522 L 570.302 216.872 C 567.237 222.54 565.499 229.022 565.499 235.922 L 565.499 235.922 C 565.499 243.456 567.572 250.498 571.181 256.518 L 571.181 256.518 L 568.745 257.98 C 564.881 251.531 562.657 243.982 562.657 235.922 L 562.657 235.922 Z" style="fill: rgb(30, 30, 30);" transform="matrix(0.965926, -0.258819, 0.258819, 0.965926, -41.958367, 154.79651)"/>
  <path d="M 592.909 261.888 L 594.311 259.419 C 600.147 262.731 606.885 264.62 614.079 264.62 L 614.079 264.62 C 621.609 264.62 628.645 262.547 634.662 258.942 L 634.662 258.942 L 634.664 258.942 L 636.121 261.375 C 629.679 265.236 622.131 267.46 614.079 267.46 L 614.079 267.46 C 606.386 267.463 599.154 265.434 592.909 261.888 L 592.909 261.888 Z" style="fill: rgb(30, 30, 30);" transform="matrix(0.965926, -0.258819, 0.258819, 0.965926, -47.182357, 168.016673)"/>
  <path d="M 637.064 236.881 C 640.804 230.782 642.957 223.617 642.957 215.939 L 642.957 215.939 C 642.957 208.502 640.936 201.547 637.412 195.577 L 637.412 195.577 L 637.414 195.577 L 639.858 194.132 C 643.631 200.523 645.801 207.982 645.801 215.938 L 645.801 215.938 C 645.801 224.152 643.489 231.836 639.486 238.362 L 639.486 238.362 L 637.064 236.881 L 637.064 236.881 Z" style="fill: rgb(30, 30, 30);" transform="matrix(0.965926, -0.258819, 0.258819, 0.965926, -34.112558, 173.383358)"/>
  <path d="M 573.535 192.84 C 573.535 192.84 573.536 192.84 573.535 192.84 L 573.535 192.84 L 573.535 192.84 L 573.535 192.84 L 573.535 192.84 Z M 572.081 190.402 C 578.51 186.564 586.039 184.356 594.066 184.356 L 594.066 184.356 C 601.927 184.356 609.304 186.47 615.645 190.162 L 615.645 190.162 L 614.209 192.616 C 608.29 189.17 601.411 187.196 594.063 187.196 L 594.063 187.196 C 586.556 187.196 579.541 189.255 573.533 192.84 L 573.533 192.84 L 572.081 190.402 L 572.081 190.402 Z" style="fill: rgb(30, 30, 30);" transform="matrix(0.965926, -0.258819, 0.258819, 0.965926, -28.577367, 160.129501)"/>
</svg>