<?xml version="1.0" encoding="utf-8"?>
<svg version="1.2" baseProfile="tiny" id="Layer_3" x="0px" y="0px" xmlns="http://www.w3.org/2000/svg">
  <path d="M 25.101 160.672 C 22.916 152.096 16.258 133.499 16.261 101.623 L 16.261 101.623 L 16.262 96.115 C 16.256 61.24 25.489 39.154 28.436 30.378 L 28.436 30.378 C 31.389 21.376 39.681 14.798 49.581 14.381 L 49.581 14.381 C 59.447 14.224 102.273 13.294 147.955 13.294 L 147.955 13.294 L 190.254 13.294 C 196.395 13.294 202.395 13.292 208.215 13.293 L 208.215 13.293 C 247.879 13.294 279.068 13.37 288.958 14.668 L 288.958 14.668 C 297.644 16.096 304.707 22.323 307.338 30.538 L 307.338 30.538 C 307.712 31.711 307.997 32.926 308.184 34.168 L 308.184 34.168 C 308.581 36.667 309.299 43.947 310.157 53.755 L 310.157 53.755 C 312.64 82.205 316.259 131.721 316.261 145.521 L 316.261 145.521 C 316.26 153.672 311.609 160.739 304.849 164.19 L 304.849 164.19 C 298.376 168.068 270.012 179.991 236.106 180.001 L 236.106 180.001 C 213.342 179.999 189.872 179.114 174.35 176.616 L 174.35 176.616 C 174.348 176.616 174.346 176.616 174.343 176.615 L 174.343 176.615 C 174.001 176.61 173.647 176.607 173.286 176.607 L 173.286 176.607 C 155.584 176.605 115.133 182.323 102.308 183.02 L 102.308 183.02 C 89.145 183.732 71.545 184.265 56.782 184.266 L 56.782 184.266 C 41.823 184.266 29.183 174.33 25.101 160.672 L 25.101 160.672 Z M 49.613 15.447 C 40.18 15.843 32.266 22.124 29.448 30.714 L 29.448 30.714 C 26.48 39.553 17.332 61.41 17.327 96.115 L 17.327 96.115 L 17.327 101.624 C 17.332 133.374 23.926 151.746 26.128 160.388 L 26.128 160.388 C 30.073 173.582 42.305 183.201 56.783 183.201 L 56.783 183.201 C 71.521 183.201 89.112 182.668 102.251 181.959 L 102.251 181.959 C 113.924 181.327 148.927 176.458 168.418 175.655 L 168.418 175.655 C 155.84 173.617 137.17 170.719 124.493 170.721 L 124.493 170.721 C 119.97 170.717 116.209 171.096 113.84 171.973 L 113.84 171.973 L 113.471 170.971 C 116.077 170.018 119.908 169.658 124.493 169.655 L 124.493 169.655 C 139.496 169.657 162.557 173.641 174.435 175.553 L 174.435 175.553 C 174.559 175.555 174.683 175.557 174.804 175.56 L 174.804 175.56 L 174.805 175.56 L 174.804 175.612 C 190.21 178.056 213.514 178.937 236.108 178.936 L 236.108 178.936 C 269.738 178.947 298.066 167.031 304.333 163.261 L 304.333 163.261 C 310.783 159.965 315.196 153.261 315.195 145.524 L 315.195 145.524 C 315.198 131.832 311.578 82.267 309.096 53.849 L 309.096 53.849 C 308.241 44.057 307.517 36.75 307.13 34.331 L 307.13 34.331 C 306.953 33.142 306.681 31.985 306.323 30.866 L 306.323 30.866 C 303.815 23.03 297.07 17.083 288.805 15.726 L 288.805 15.726 C 279.116 14.447 247.853 14.36 208.217 14.361 L 208.217 14.361 C 202.398 14.361 196.397 14.363 190.256 14.363 L 190.256 14.363 L 147.957 14.363 C 102.286 14.36 59.471 15.289 49.613 15.447 L 49.613 15.447 Z" style="fill: rgb(30, 30, 30);" transform="matrix(0.965926, -0.258819, 0.258819, 0.965926, -19.900777, 46.39736)"/>
  <path d="M 92.614 155.603 C 91.723 152.969 82.445 121.58 82.441 86.604 L 82.441 86.604 C 82.434 50.275 92.034 26.235 92.939 22.997 L 92.939 22.997 C 93.676 19.64 96.47 17.059 99.966 16.636 L 99.966 16.636 C 103.47 16.425 117.445 16.047 147.978 16.047 L 147.978 16.047 C 212.286 16.052 251.851 23.759 253.424 24.19 L 253.424 24.19 L 253.445 24.196 L 253.464 24.203 C 255.029 24.774 256.264 26.018 256.823 27.588 L 256.823 27.588 C 257.154 28.326 257.979 31.152 259.12 35.497 L 259.12 35.497 C 260.272 39.903 261.709 45.789 263.115 52.262 L 263.115 52.262 C 265.924 65.209 268.607 80.477 268.609 90.958 L 268.609 90.958 C 268.604 105.018 266.291 137.245 265.205 142.541 L 265.205 142.541 C 265.133 142.858 265.097 143.061 264.996 143.269 L 264.996 143.269 C 264.522 145.462 263.016 147.493 260.774 148.069 L 260.774 148.069 L 260.774 148.069 L 260.774 148.069 L 260.774 148.069 C 260.045 148.287 256.721 148.909 251.676 149.776 L 251.676 149.776 C 246.558 150.652 239.744 151.753 232.434 152.834 L 232.434 152.834 C 217.81 154.994 201.219 157.068 192.165 157.07 L 192.165 157.07 C 190.644 157.07 189.407 155.859 189.367 154.349 L 189.367 154.349 L 189.224 153.82 C 188.433 151.229 186.021 149.34 183.167 149.341 L 183.167 149.341 L 171.305 149.341 C 169.049 149.341 167.072 150.519 165.948 152.295 L 165.948 152.295 C 165.72 152.765 165.594 153.395 165.134 153.977 L 165.134 153.977 L 165.119 153.995 L 165.104 154.012 C 164.549 154.582 163.768 154.937 162.908 154.937 L 162.908 154.937 C 162.133 154.937 161.42 154.648 160.881 154.171 L 160.881 154.171 L 160.842 154.138 L 159.435 152.349 L 159.422 152.327 C 158.303 150.533 156.314 149.339 154.045 149.339 L 154.045 149.339 L 115.323 149.339 C 111.826 149.346 108.998 152.173 108.991 155.671 L 108.991 155.671 L 108.991 156.96 C 108.991 158.837 107.47 160.358 105.592 160.358 L 105.592 160.358 L 99.327 160.359 C 96.226 160.359 93.588 158.376 92.614 155.603 L 92.614 155.603 Z M 100.062 17.698 C 97.053 18.06 94.619 20.31 93.973 23.255 L 93.973 23.255 C 93.02 26.653 83.514 50.42 83.508 86.604 L 83.508 86.604 C 83.503 121.382 92.769 152.747 93.623 155.255 L 93.623 155.255 C 94.45 157.607 96.69 159.295 99.326 159.294 L 99.326 159.294 L 105.59 159.294 C 106.878 159.291 107.921 158.25 107.923 156.961 L 107.923 156.961 L 107.923 155.672 C 107.923 151.586 111.234 148.274 115.321 148.274 L 115.321 148.274 L 154.042 148.274 C 156.683 148.274 159.005 149.661 160.312 151.742 L 160.312 151.742 L 161.62 153.404 C 161.969 153.696 162.415 153.872 162.906 153.872 L 162.906 153.872 C 163.462 153.872 163.959 153.648 164.323 153.284 L 164.323 153.284 C 164.58 152.968 164.715 152.42 165.004 151.798 L 165.004 151.798 L 165.017 151.768 L 165.033 151.745 C 166.339 149.661 168.662 148.273 171.305 148.273 L 171.305 148.273 L 183.167 148.273 C 186.501 148.273 189.32 150.477 190.248 153.525 L 190.248 153.525 L 190.431 154.199 L 190.431 154.272 C 190.433 155.23 191.206 156.003 192.165 156.005 L 192.165 156.005 C 205.55 156.008 236.174 151.349 251.496 148.725 L 251.496 148.725 C 256.584 147.856 260.07 147.188 260.476 147.046 L 260.476 147.046 L 260.5 147.037 L 260.514 147.034 C 262.264 146.603 263.577 144.897 263.965 142.986 L 263.965 142.986 L 263.985 142.886 L 264.04 142.803 L 264.038 142.803 C 264.045 142.785 264.056 142.75 264.071 142.706 L 264.071 142.706 C 264.097 142.618 264.128 142.488 264.162 142.324 L 264.162 142.324 C 264.229 141.998 264.306 141.539 264.386 140.974 L 264.386 140.974 C 264.546 139.84 264.728 138.271 264.916 136.381 L 264.916 136.381 C 265.297 132.6 265.715 127.532 266.104 122.042 L 266.104 122.042 C 266.883 111.063 267.543 98.394 267.543 90.957 L 267.543 90.957 C 267.548 75.478 261.535 48.932 258.089 35.765 L 258.089 35.765 C 256.95 31.397 256.055 28.415 255.848 28.015 L 255.848 28.015 L 255.835 27.989 L 255.825 27.958 C 255.378 26.688 254.378 25.675 253.118 25.21 L 253.118 25.21 C 251.401 24.761 211.854 17.107 147.979 17.111 L 147.979 17.111 C 117.461 17.112 103.473 17.491 100.062 17.698 L 100.062 17.698 Z" style="fill: rgb(30, 30, 30);" transform="matrix(0.965926, -0.258819, 0.258819, 0.965926, -16.847747, 48.43466)"/>
  <path d="M 103.216 134.734 C 101.869 134.733 100.687 134.02 100.033 132.951 L 100.033 132.951 L 100.018 132.925 L 100.006 132.9 C 99.811 132.474 99.374 131.044 98.758 128.627 L 98.758 128.627 C 98.15 126.228 97.396 122.916 96.661 118.93 L 96.661 118.93 C 95.192 110.959 93.796 100.297 93.796 88.879 L 93.796 88.879 L 93.796 81.948 C 93.797 64.82 96.934 49.393 98.758 42.199 L 98.758 42.199 C 99.374 39.783 99.811 38.353 100.006 37.927 L 100.006 37.927 L 100.018 37.9 L 100.033 37.876 C 100.687 36.808 101.869 36.094 103.216 36.094 L 103.216 36.094 L 247.351 36.094 C 248.696 36.094 249.878 36.808 250.534 37.876 L 250.534 37.876 L 250.548 37.901 L 250.56 37.927 C 250.754 38.353 251.193 39.783 251.808 42.198 L 251.808 42.198 C 252.417 44.598 253.17 47.91 253.906 51.896 L 253.906 51.896 C 255.375 59.866 256.769 70.53 256.769 81.947 L 256.769 81.947 L 256.769 88.879 L 256.77 88.879 C 256.769 106.005 253.632 121.432 251.808 128.626 L 251.808 128.626 C 251.193 131.042 250.754 132.473 250.56 132.899 L 250.56 132.899 L 250.548 132.924 L 250.534 132.95 C 249.879 134.019 248.697 134.732 247.351 134.733 L 247.351 134.733 L 103.216 134.733 L 103.216 134.734 Z M 103.216 133.667 L 247.351 133.667 C 248.303 133.667 249.135 133.17 249.608 132.419 L 249.608 132.419 C 249.733 132.134 250.2 130.644 250.775 128.366 L 250.775 128.366 C 251.378 125.99 252.127 122.699 252.857 118.738 L 252.857 118.738 C 254.317 110.815 255.704 100.21 255.703 88.88 L 255.703 88.88 L 255.704 88.88 L 255.703 81.948 C 255.704 64.951 252.583 49.59 250.775 42.461 L 250.775 42.461 C 250.201 40.184 249.733 38.693 249.608 38.408 L 249.608 38.408 C 249.134 37.657 248.303 37.161 247.351 37.161 L 247.351 37.161 L 103.216 37.161 C 102.264 37.161 101.431 37.657 100.957 38.408 L 100.957 38.408 C 100.833 38.693 100.365 40.184 99.791 42.461 L 99.791 42.461 C 99.188 44.836 98.44 48.128 97.71 52.089 L 97.71 52.089 C 96.248 60.012 94.863 70.616 94.863 81.948 L 94.863 81.948 L 94.863 88.879 C 94.862 105.875 97.983 121.237 99.791 128.365 L 99.791 128.365 C 100.365 130.642 100.834 132.132 100.958 132.419 L 100.958 132.419 C 101.431 133.17 102.264 133.667 103.216 133.667 L 103.216 133.667 Z" style="fill: rgb(30, 30, 30);" transform="matrix(0.965926, -0.258819, 0.258819, 0.965926, -16.134149, 48.276989)"/>
  <path d="M 103.914 129.664 C 103.326 129.664 102.849 129.187 102.848 128.599 L 102.848 128.599 L 102.849 42.047 C 102.849 41.458 103.325 40.981 103.914 40.98 L 103.914 40.98 L 247.339 40.98 C 247.928 40.98 248.405 41.458 248.406 42.047 L 248.406 42.047 L 248.406 128.599 L 248.405 128.599 C 248.405 129.188 247.928 129.664 247.339 129.664 L 247.339 129.664 L 103.914 129.664 L 103.914 129.664 Z M 103.914 128.599 L 247.339 128.599 L 247.339 42.046 L 103.914 42.046 L 103.914 128.599 L 103.914 128.599 Z" style="fill: rgb(30, 30, 30);" transform="matrix(0.965926, -0.258819, 0.258819, 0.965926, -16.098613, 48.362885)"/>
  <path d="M 45.881 164.122 C 37.459 163.439 30.465 157.709 27.932 149.963 L 27.932 149.963 C 25.253 142.137 21.315 122.566 21.311 92.657 L 21.311 92.657 C 21.319 66.242 28.914 40.277 31.636 33.885 L 31.636 33.885 C 34.345 27.257 40.393 22.352 47.69 21.262 L 47.69 21.262 C 54.97 20.148 88.193 15.168 140.21 15.168 L 140.21 15.168 C 205.829 15.168 255.569 23.163 264.972 24.5 L 264.972 24.5 L 264.897 25.027 L 264.982 24.502 C 274.806 26.1 282.299 34.621 282.299 44.894 L 282.299 44.894 C 282.297 55.113 283.291 66.807 283.915 69.845 L 283.915 69.845 C 284.526 72.766 286.098 75.336 288.301 77.221 L 288.301 77.221 C 292.93 81.495 298.418 86.65 301.358 89.79 L 301.358 89.79 C 304.372 92.939 306.351 97.041 306.944 101.582 L 306.944 101.582 C 307.693 107.326 308.357 121.433 308.426 126.47 L 308.426 126.47 C 308.425 135.503 302.628 143.183 294.54 145.993 L 294.54 145.993 C 286.551 148.636 242.953 159.648 197.035 163.39 L 197.035 163.39 C 192.067 163.796 190.047 164.449 188.78 165.015 L 188.78 165.015 C 187.534 165.574 186.797 166.19 184.766 166.322 L 184.766 166.322 C 183.091 166.436 158.485 166.855 105.82 166.857 L 105.82 166.857 C 82.731 166.855 54.097 164.588 45.881 164.122 L 45.881 164.122 Z M 47.85 22.315 C 40.931 23.348 35.191 28.003 32.621 34.296 L 32.621 34.296 C 29.967 40.495 22.371 66.464 22.379 92.656 L 22.379 92.656 C 22.376 122.462 26.319 141.976 28.944 149.625 L 28.944 149.625 C 31.347 156.975 37.983 162.414 45.955 163.058 L 45.955 163.058 C 54.184 163.526 82.791 165.79 105.821 165.79 L 105.821 165.79 C 158.458 165.791 183.133 165.367 184.694 165.259 L 184.694 165.259 C 186.527 165.124 186.926 164.682 188.346 164.043 L 188.346 164.043 C 189.745 163.413 191.924 162.735 196.951 162.326 L 196.951 162.326 C 242.74 158.602 286.357 147.583 294.2 144.983 L 294.2 144.983 C 301.861 142.321 307.363 135.038 307.363 126.476 L 307.363 126.476 C 307.298 121.507 306.628 107.356 305.889 101.719 L 305.889 101.719 C 305.325 97.4 303.447 93.51 300.587 90.522 L 300.587 90.522 C 297.69 87.428 292.201 82.269 287.597 78.018 L 287.597 78.018 C 285.235 75.996 283.536 73.22 282.874 70.059 L 282.874 70.059 C 282.219 66.836 281.24 55.2 281.238 44.893 L 281.238 44.893 C 281.239 35.15 274.126 27.067 264.814 25.553 L 264.814 25.553 L 264.814 25.553 C 255.378 24.211 205.73 16.233 140.212 16.233 L 140.212 16.233 C 88.258 16.233 55.102 21.207 47.85 22.315 L 47.85 22.315 Z" style="fill: rgb(30, 30, 30);" transform="matrix(0.965926, -0.258819, 0.258819, 0.965926, -17.938016, 45.772304)"/>
  <polygon points="285.423 4.491 285.423 3.424 287.755 3.424 287.755 4.491" style="fill: rgb(30, 30, 30);" transform="matrix(0.965926, -0.258819, 0.258819, 0.965926, 8.741001, 74.309521)"/>
  <polygon points="281.891 2.13 281.891 1.064 286.756 1.064 286.756 2.13" style="fill: rgb(30, 30, 30);" transform="matrix(0.965926, -0.258819, 0.258819, 0.965926, 9.27475, 73.642736)"/>
  <polygon points="288.059 8.311 288.059 7.245 289.214 7.245 289.214 8.311" style="fill: rgb(30, 30, 30);" transform="matrix(0.965926, -0.258819, 0.258819, 0.965926, 7.82195, 74.969626)"/>
  <polygon points="286.47 5.69 286.47 4.623 288.226 4.623 288.226 5.69" style="fill: rgb(30, 30, 30);" transform="matrix(0.965926, -0.258819, 0.258819, 0.965926, 8.456543, 74.546826)"/>
  <polygon points="288.664 12.4 288.664 11.334 290.708 11.334 290.708 12.4" style="fill: rgb(30, 30, 30);" transform="matrix(0.965926, -0.258819, 0.258819, 0.965926, 6.799404, 75.3806)"/>
  <polygon points="288.45 9.589 288.45 8.522 289.761 8.522 289.761 9.589" style="fill: rgb(30, 30, 30);" transform="matrix(0.965926, -0.258819, 0.258819, 0.965926, 7.507297, 75.13457)"/>
  <polygon points="287.041 16.785 287.041 15.718 292.219 15.718 292.219 16.785" style="fill: rgb(30, 30, 30);" transform="matrix(0.965926, -0.258819, 0.258819, 0.965926, 5.662706, 75.515521)"/>
  <polygon points="288.466 13.757 288.466 12.691 291.243 12.691 291.243 13.757" style="fill: rgb(30, 30, 30);" transform="matrix(0.965926, -0.258819, 0.258819, 0.965926, 6.453925, 75.470441)"/>
  <path d="M 268.355 11.569 C 268.355 5.859 273.029 1.248 278.785 1.238 L 278.785 1.238 C 284.541 1.249 289.214 5.859 289.215 11.569 L 289.215 11.569 C 289.214 17.278 284.541 21.888 278.785 21.898 L 278.785 21.898 C 273.028 21.888 268.355 17.277 268.355 11.569 L 268.355 11.569 Z M 269.42 11.569 C 269.431 16.68 273.608 20.832 278.785 20.832 L 278.785 20.832 C 283.96 20.832 288.139 16.68 288.149 11.569 L 288.149 11.569 C 288.139 6.455 283.961 2.304 278.785 2.304 L 278.785 2.304 C 273.608 2.304 269.429 6.456 269.42 11.569 L 269.42 11.569 Z" style="fill: rgb(30, 30, 30);" transform="matrix(0.965926, -0.258819, 0.258819, 0.965926, 6.505352, 72.549042)"/>
  <path d="M 291.946 19.128 C 291.513 18.919 290.817 18.815 289.994 18.817 L 289.994 18.817 C 287.535 18.811 284.066 19.676 281.978 19.767 L 281.978 19.767 L 281.933 18.702 C 283.822 18.633 287.336 17.755 289.994 17.75 L 289.994 17.75 C 290.898 17.753 291.72 17.846 292.402 18.163 L 292.402 18.163 C 293.083 18.466 293.617 19.104 293.683 19.939 L 293.683 19.939 L 292.621 20.04 C 292.561 19.566 292.379 19.352 291.946 19.128 L 291.946 19.128 Z M 281.976 19.767 C 281.977 19.767 281.977 19.767 281.978 19.767 L 281.978 19.767 L 281.978 19.767 L 281.976 19.767 L 281.976 19.767 Z" style="fill: rgb(30, 30, 30);" transform="matrix(0.965926, -0.258819, 0.258819, 0.965926, 4.916434, 75.134034)"/>
  <path d="M 286.037 2.441 C 285.553 2.416 285.209 2.187 284.667 1.857 L 284.667 1.857 C 284.256 1.58 283.005 1.241 280.896 1.249 L 280.896 1.249 C 279.022 1.249 276.46 1.491 273.107 2.153 L 273.107 2.153 L 272.9 1.108 C 276.306 0.434 278.932 0.184 280.896 0.184 L 280.896 0.184 C 283.119 0.192 284.471 0.481 285.241 0.96 L 285.241 0.96 C 285.43 1.082 285.597 1.179 285.73 1.247 L 285.73 1.247 C 285.727 1.234 285.724 1.221 285.722 1.207 L 285.722 1.207 L 286.764 0.989 C 286.805 1.19 286.832 1.366 286.832 1.545 L 286.832 1.545 C 286.831 1.727 286.811 1.927 286.665 2.134 L 286.665 2.134 C 286.526 2.338 286.258 2.442 286.063 2.442 L 286.063 2.442 C 286.054 2.441 286.046 2.441 286.037 2.441 L 286.037 2.441 Z M 273.105 2.154 C 273.105 2.154 273.106 2.154 273.106 2.154 L 273.106 2.154 L 273.106 2.154 L 273.105 2.154 L 273.105 2.154 Z" style="fill: rgb(30, 30, 30);" transform="matrix(0.965926, -0.258819, 0.258819, 0.965926, 9.196383, 72.479428)"/>
  <path d="M 298.607 98.062 L 298.58 98.041 L 291.135 90.347 C 290.543 89.852 290.165 89.103 290.165 88.27 L 290.165 88.27 C 290.165 87.523 290.469 86.842 290.953 86.359 L 290.953 86.359 L 298.48 78.584 L 298.505 78.562 C 299.466 77.745 300.714 77.251 302.073 77.251 L 302.073 77.251 C 304.341 77.252 306.29 78.621 307.128 80.567 L 307.128 80.567 C 308.015 82.513 308.085 85.379 308.093 88.859 L 308.093 88.859 C 308.1 93.23 307.729 94.829 306.828 96.563 L 306.828 96.563 C 305.873 98.193 304.099 99.288 302.073 99.288 L 302.073 99.288 C 300.762 99.289 299.551 98.829 298.607 98.062 L 298.607 98.062 Z M 302.073 98.222 C 303.709 98.222 305.135 97.34 305.894 96.048 L 305.894 96.048 C 306.687 94.498 307.02 93.218 307.027 88.86 L 307.027 88.86 C 307.036 85.408 306.906 82.598 306.155 81.004 L 306.155 81.004 C 305.473 79.423 303.901 78.317 302.073 78.318 L 302.073 78.318 C 300.982 78.318 299.988 78.71 299.214 79.361 L 299.214 79.361 L 291.714 87.107 C 291.416 87.407 291.233 87.815 291.233 88.272 L 291.233 88.272 C 291.233 88.787 291.467 89.242 291.839 89.547 L 291.839 89.547 L 291.502 89.96 L 291.119 90.33 L 291.502 89.96 L 291.839 89.547 L 291.864 89.566 L 299.307 97.256 C 300.065 97.861 301.023 98.222 302.073 98.222 L 302.073 98.222 Z" style="fill: rgb(30, 30, 30);" transform="matrix(0.965926, -0.258819, 0.258819, 0.965926, -12.653252, 80.427978)"/>
  <g transform="matrix(0.515008, -0.137996, 0.137996, 0.515008, -10.962375, 50.42643)">
    <g>
      <path d="M91.567,222.712c-1.401-0.012-2.673-0.596-3.567-1.512l0,0l-14.456-14.271l-0.029-0.035&#10;&#9;&#9;&#9;c-1.494-1.792-2.396-4.104-2.394-6.615l0,0c0-0.021-0.002-0.066,0-0.102l0,0c0.043-4.252,2.648-7.883,6.313-9.42l0,0&#10;&#9;&#9;&#9;c3.226-1.438,7.77-1.658,13.264-1.672l0,0c0.75,0,1.519,0.006,2.305,0.018l0,0c8.199,0.066,11.19,0.793,14.425,2.514l0,0&#10;&#9;&#9;&#9;c3.013,1.805,5.024,5.105,5.024,8.867l0,0c0,0.041,0,0.059,0,0.104l0,0c-0.025,2.459-0.909,4.719-2.368,6.478l0,0l-0.033,0.041&#10;&#9;&#9;&#9;L95.49,220.921c-0.921,1.088-2.3,1.781-3.829,1.791l0,0l-0.017,0.002h-0.077V222.712z M89.416,219.792&#10;&#9;&#9;&#9;c0.544,0.551,1.281,0.896,2.112,0.922l0,0c0.048-0.004,0.073-0.004,0.083-0.004l0,0c0.006,0.002,0.011,0.002,0.011,0.002l0,0&#10;&#9;&#9;&#9;c0.954,0,1.798-0.43,2.367-1.109l0,0l0.037-0.046l14.551-13.808c1.157-1.414,1.856-3.209,1.877-5.144l0,0&#10;&#9;&#9;&#9;c-0.002-0.06-0.002-0.104-0.002-0.122l0,0c0-3.035-1.621-5.691-4.004-7.124l0,0c-2.895-1.515-5.289-2.165-13.468-2.258l0,0&#10;&#9;&#9;&#9;c-0.778-0.011-1.54-0.015-2.281-0.015l0,0c-5.421-0.012-9.822,0.291-12.465,1.504l0,0c-2.976,1.252-5.078,4.176-5.113,7.647l0,0&#10;&#9;&#9;&#9;c0,0,0,0,0,0.039l0,0c0.002,2.021,0.716,3.863,1.911,5.308l0,0L89.416,219.792L89.416,219.792z" style="fill: rgb(30, 30, 30);"/>
      <path d="M77.459,276.929c-3.689-1.545-6.295-5.176-6.337-9.398l0,0c-0.002-0.068-0.002-0.117-0.002-0.136l0,0&#10;&#9;&#9;&#9;c0-2.509,0.9-4.823,2.396-6.612l0,0l0.023-0.027l14.45-14.268c0.894-0.914,2.142-1.494,3.519-1.521l0,0&#10;&#9;&#9;&#9;c0.058-0.006,0.084-0.004,0.096-0.004l0,0c0.008,0,0.01,0,0.013,0l0,0c1.542,0,2.936,0.692,3.867,1.787l0,0l14.57,13.824&#10;&#9;&#9;&#9;l0.034,0.04c1.458,1.759,2.343,4.019,2.366,6.522l0,0c0,0,0,0.015,0,0.057l0,0c0,3.758-2.012,7.063-5.073,8.896l0,0&#10;&#9;&#9;&#9;c-3.187,1.695-6.179,2.42-14.38,2.486l0,0c-0.779,0.004-1.542,0.012-2.29,0.014l0,0C85.209,278.575,80.664,278.356,77.459,276.929&#10;&#9;&#9;&#9;L77.459,276.929z M73.12,267.395c0,0.039,0,0.052,0.002,0.083l0,0c0.031,3.434,2.135,6.357,5.135,7.619l0,0&#10;&#9;&#9;&#9;c2.621,1.199,7.024,1.502,12.452,1.49l0,0c0.737,0,1.496-0.006,2.272-0.01l0,0c8.177-0.095,10.571-0.744,13.417-2.232l0,0&#10;&#9;&#9;&#9;c2.433-1.461,4.054-4.119,4.054-7.152l0,0c0-0.021,0-0.061,0-0.081l0,0c-0.021-1.968-0.716-3.761-1.868-5.175l0,0l-14.515-13.773&#10;&#9;&#9;&#9;l0.687-0.725l0.769-0.641l-0.769,0.641l-0.687,0.725l-0.048-0.045l-0.033-0.041c-0.571-0.685-1.418-1.115-2.373-1.115l0,0h-0.021&#10;&#9;&#9;&#9;h-0.008c-0.854,0.012-1.615,0.361-2.183,0.938l0,0l-14.374,14.192C73.836,263.534,73.12,265.38,73.12,267.395L73.12,267.395z" style="fill: rgb(30, 30, 30);"/>
    </g>
    <g>
      <path d="M125.04,254.503c-2.459-0.021-4.719-0.908-6.479-2.364l0,0l-0.046-0.04l-13.811-14.557&#10;&#9;&#9;&#9;c-1.098-0.932-1.795-2.326-1.793-3.873l0,0c0.001-0.002-0.004-0.015,0-0.09l0,0c0.024-1.386,0.604-2.642,1.512-3.531l0,0&#10;&#9;&#9;&#9;l14.26-14.443l0.048-0.038c1.788-1.495,4.098-2.396,6.607-2.396l0,0c0.009,0,0.052-0.002,0.124,0.002l0,0&#10;&#9;&#9;&#9;c4.247,0.051,7.869,2.654,9.404,6.313l0,0c1.438,3.231,1.658,7.783,1.668,13.288l0,0c0,0.741-0.004,1.5-0.01,2.277l0,0&#10;&#9;&#9;&#9;c-0.069,8.199-0.794,11.193-2.516,14.428l0,0c-1.807,3.01-5.108,5.021-8.87,5.021l0,0c-0.025-0.002-0.025,0-0.025,0l0,0&#10;&#9;&#9;&#9;l-0.038,0.002H125.04L125.04,254.503z M125.029,252.503c0.036-0.002,0.063-0.002,0.082-0.002l0,0c0.017,0,0.025,0,0.029,0l0,0&#10;&#9;&#9;&#9;c3.037,0.002,5.693-1.619,7.127-4.002l0,0c1.514-2.896,2.167-5.289,2.258-13.465l0,0c0.006-0.775,0.012-1.527,0.012-2.261l0,0&#10;&#9;&#9;&#9;c0.011-5.435-0.291-9.842-1.504-12.487l0,0c-1.25-2.978-4.175-5.082-7.606-5.113l0,0l-0.052-0.002l-0.035-0.004v0.002v0.002&#10;&#9;&#9;&#9;c-2.01,0-3.848,0.711-5.288,1.898l0,0l-14.215,14.396c-0.565,0.557-0.916,1.315-0.924,2.172l0,0l-0.002,0.058&#10;&#9;&#9;&#9;c0.008,0.94,0.438,1.78,1.115,2.345l0,0l-0.64,0.77l-0.725,0.688l0.725-0.688l0.64-0.77l0.042,0.035l13.808,14.553&#10;&#9;&#9;&#9;C121.284,251.779,123.068,252.476,125.029,252.503L125.029,252.503z" style="fill: rgb(30, 30, 30);"/>
      <path d="M58.492,254.503l-0.027-0.002c-0.002,0.002,0,0-0.033,0.002l0,0c-3.76-0.002-7.061-2.015-8.895-5.071l0,0&#10;&#9;&#9;&#9;c-1.695-3.187-2.42-6.181-2.488-14.378l0,0c-0.008-0.781-0.013-1.545-0.013-2.285l0,0c0.011-5.503,0.231-10.053,1.66-13.258l0,0&#10;&#9;&#9;&#9;c1.541-3.678,5.155-6.278,9.393-6.338l0,0c0.087-0.006,0.132-0.002,0.144-0.002l0,0c2.509-0.002,4.821,0.899,6.612,2.396l0,0&#10;&#9;&#9;&#9;l0.033,0.028l14.26,14.443c0.926,0.907,1.51,2.18,1.522,3.582l0,0l0.002,0.067l-0.002,0.019c-0.01,1.525-0.699,2.905-1.783,3.828&#10;&#9;&#9;&#9;l0,0L65.06,252.095l-0.05,0.044c-1.757,1.456-4.018,2.343-6.477,2.364l0,0H58.492L58.492,254.503z M58.197,215.171l-0.052,0.002&#10;&#9;&#9;&#9;c-3.432,0.031-6.356,2.137-7.615,5.138l0,0c-1.203,2.62-1.506,7.03-1.494,12.458l0,0c0,0.734,0.002,1.488,0.013,2.264l0,0&#10;&#9;&#9;&#9;c0.091,8.178,0.741,10.571,2.231,13.418l0,0c1.46,2.432,4.117,4.055,7.152,4.055l0,0c0.007,0,0.044-0.004,0.107,0l0,0&#10;&#9;&#9;&#9;c1.961-0.026,3.749-0.725,5.158-1.877l0,0l13.766-14.506l0.042-0.047l0.044-0.035c0.683-0.568,1.111-1.414,1.111-2.367l0,0&#10;&#9;&#9;&#9;c0.001,0-0.001-0.014,0.001-0.067l0,0c-0.017-0.843-0.366-1.59-0.934-2.149l0,0l-14.213-14.395&#10;&#9;&#9;&#9;c-1.44-1.184-3.276-1.891-5.281-1.893l0,0c-0.005,0-0.01,0-0.014,0l0,0L58.197,215.171L58.197,215.171z" style="fill: rgb(30, 30, 30);"/>
    </g>
  </g>
  <path d="M 281.949 113.665 C 280.28 112.783 279.108 111.057 279.02 109.037 L 279.02 109.037 C 279.016 108.956 279.014 108.873 279.014 108.79 L 279.014 108.79 C 279.013 107.571 279.413 106.433 280.094 105.516 L 280.094 105.516 L 280.117 105.485 L 287.475 97.72 C 287.943 97.105 288.677 96.694 289.508 96.658 L 289.508 96.658 C 289.54 96.656 289.58 96.654 289.63 96.654 L 289.63 96.654 C 290.33 96.654 290.976 96.924 291.453 97.361 L 291.453 97.361 L 299.551 104.548 L 299.57 104.568 C 300.428 105.491 300.977 106.717 301.036 108.077 L 301.036 108.077 C 301.039 108.158 301.04 108.24 301.041 108.317 L 301.041 108.317 C 301.04 110.483 299.78 112.38 297.942 113.269 L 297.942 113.269 C 296.037 114.241 293.176 114.436 289.7 114.594 L 289.7 114.594 C 288.83 114.632 288.072 114.65 287.404 114.65 L 287.404 114.65 C 287.381 114.65 287.359 114.65 287.336 114.65 L 287.336 114.65 C 284.68 114.651 283.351 114.32 281.949 113.665 L 281.949 113.665 Z M 280.079 108.79 C 280.079 108.852 280.081 108.917 280.084 108.987 L 280.084 108.987 C 280.156 110.62 281.099 112.008 282.421 112.709 L 282.421 112.709 C 283.701 113.294 284.761 113.578 287.405 113.584 L 287.405 113.584 C 288.055 113.584 288.797 113.568 289.655 113.528 L 289.655 113.528 C 293.104 113.387 295.906 113.137 297.464 112.316 L 297.464 112.316 C 298.957 111.594 299.976 110.062 299.975 108.318 L 299.975 108.318 C 299.975 108.25 299.973 108.185 299.971 108.122 L 299.971 108.122 C 299.924 107.033 299.488 106.055 298.804 105.31 L 298.804 105.31 L 290.739 98.153 C 290.442 97.883 290.056 97.722 289.63 97.72 L 289.63 97.72 C 289.615 97.72 289.593 97.722 289.557 97.724 L 289.557 97.724 C 289.041 97.747 288.597 98.001 288.309 98.384 L 288.309 98.384 L 288.29 98.41 L 280.931 106.178 C 280.394 106.913 280.08 107.816 280.079 108.79 L 280.079 108.79 Z" style="fill: rgb(30, 30, 30);" transform="matrix(0.965926, -0.258819, 0.258819, 0.965926, -17.462299, 78.664609)"/>
  <path d="M 48.406 98.34" style="fill: rgb(30, 30, 30);" transform="matrix(0.965926, -0.258819, 0.258819, 0.965926, -23.802879, 15.879258)"/>
  <path d="M 52.797 173.315 L 63.549 159.308 L 63.572 159.284 C 63.716 159.158 63.883 158.709 63.875 158.225 L 63.875 158.225 C 63.877 157.779 63.752 157.315 63.573 157.065 L 63.573 157.065 L 52.708 143.16 L 53.453 142.41 L 67.417 153.129 C 67.818 153.392 68.223 153.513 68.613 153.513 L 68.613 153.513 C 68.99 153.513 69.362 153.404 69.723 153.171 L 69.723 153.171 L 83.608 142.319 L 84.359 143.063 L 73.608 157.069 C 73.401 157.303 73.23 157.753 73.233 158.218 L 73.233 158.218 C 73.233 158.607 73.342 158.997 73.582 159.315 L 73.582 159.315 L 84.447 173.219 L 83.703 173.971 L 69.734 163.248 C 69.531 163.089 69.002 162.956 68.502 162.964 L 68.502 162.964 C 68.009 162.95 67.521 163.109 67.452 163.195 L 67.452 163.195 L 53.547 174.061 L 52.797 173.315 L 52.797 173.315 Z M 56.197 170.637 L 66.778 162.37 C 67.245 161.996 67.85 161.911 68.503 161.896 L 68.503 161.896 C 69.152 161.903 69.828 162.012 70.371 162.393 L 70.371 162.393 L 81.025 170.571 L 72.736 159.964 C 72.334 159.429 72.168 158.804 72.168 158.218 L 72.168 158.218 C 72.171 157.516 72.391 156.855 72.782 156.397 L 72.782 156.397 L 80.959 145.744 L 70.346 154.038 L 70.324 154.053 C 69.802 154.397 69.212 154.58 68.614 154.578 L 68.614 154.578 C 67.994 154.58 67.373 154.383 66.813 154.007 L 66.813 154.007 L 67.109 153.564 L 66.786 153.987 L 56.131 145.809 L 64.43 156.429 C 64.795 156.957 64.939 157.604 64.94 158.224 L 64.94 158.224 C 64.933 158.88 64.79 159.524 64.367 159.994 L 64.367 159.994 L 56.197 170.637 L 56.197 170.637 Z" style="fill: rgb(30, 30, 30);" transform="matrix(0.965926, -0.258819, 0.258819, 0.965926, -38.60588, 23.13937)"/>
  <path d="M 39.853 158.19 C 39.854 142.324 52.714 129.465 68.578 129.464 L 68.578 129.464 C 84.443 129.465 97.303 142.324 97.303 158.19 L 97.303 158.19 C 97.303 174.054 84.443 186.913 68.578 186.914 L 68.578 186.914 C 52.714 186.913 39.854 174.054 39.853 158.19 L 39.853 158.19 Z M 49.02 138.633 C 44.015 143.639 40.92 150.55 40.919 158.19 L 40.919 158.19 C 40.919 165.829 44.015 172.741 49.02 177.748 L 49.02 177.748 C 54.027 182.755 60.939 185.848 68.578 185.848 L 68.578 185.848 C 76.218 185.848 83.129 182.753 88.136 177.748 L 88.136 177.748 C 93.142 172.741 96.236 165.829 96.236 158.19 L 96.236 158.19 C 96.236 150.55 93.142 143.639 88.136 138.633 L 88.136 138.633 C 83.128 133.626 76.218 130.532 68.578 130.532 L 68.578 130.532 C 60.938 130.531 54.027 133.627 49.02 138.633 L 49.02 138.633 Z" style="fill: rgb(30, 30, 30);" transform="matrix(0.965926, -0.258819, 0.258819, 0.965926, -38.605562, 23.139436)"/>
  <g transform="matrix(0.515008, -0.137996, 0.137996, 0.515008, -10.962375, 50.42643)">
    <g>
      <path d="M94.825,74.864c-1.364-0.01-2.603-0.579-3.473-1.469l0,0L77.373,59.592l-0.028-0.035&#10;&#9;&#9;&#9;c-1.449-1.737-2.325-3.981-2.323-6.415l0,0c0-0.021-0.002-0.067,0-0.102l0,0c0.042-4.125,2.571-7.646,6.125-9.136l0,0&#10;&#9;&#9;&#9;c3.129-1.394,7.521-1.607,12.833-1.618l0,0c0.728,0,1.471,0.004,2.233,0.012l0,0c7.928,0.065,10.83,0.768,13.965,2.437l0,0&#10;&#9;&#9;&#9;c2.922,1.75,4.873,4.955,4.873,8.602l0,0c0,0.041,0,0.057,0,0.1l0,0c-0.021,2.386-0.882,4.579-2.294,6.283l0,0l-0.041,0.049&#10;&#9;&#9;&#9;L98.644,73.121c-0.905,1.068-2.263,1.744-3.768,1.744l0,0C94.876,74.864,94.87,74.864,94.825,74.864L94.825,74.864z&#10;&#9;&#9;&#9; M94.876,72.864c0.913,0,1.719-0.411,2.264-1.063l0,0l0.039-0.046l14.076-13.356c1.109-1.361,1.777-3.086,1.799-4.939l0,0&#10;&#9;&#9;&#9;c-0.002-0.063-0.002-0.104-0.002-0.122l0,0c0-2.922-1.561-5.48-3.854-6.858l0,0c-2.794-1.463-5.099-2.091-13.005-2.181l0,0&#10;&#9;&#9;&#9;c-0.754-0.008-1.492-0.012-2.211-0.012l0,0c-5.239-0.01-9.488,0.285-12.035,1.451l0,0c-2.865,1.205-4.891,4.02-4.924,7.362l0,0&#10;&#9;&#9;&#9;c0,0,0,0.002,0,0.043l0,0c0,1.933,0.682,3.698,1.82,5.087l0,0l13.925,13.753c0.532,0.541,1.26,0.874,2.03,0.882l0,0&#10;&#9;&#9;&#9;c0.021,0,0.037-0.001,0.048-0.001l0,0C94.869,72.863,94.876,72.864,94.876,72.864L94.876,72.864z" style="fill: rgb(30, 30, 30);"/>
      <path d="M81.171,127.284c-3.58-1.5-6.106-5.021-6.147-9.113l0,0c-0.004-0.071-0.002-0.119-0.002-0.137l0,0&#10;&#9;&#9;&#9;c0-2.436,0.874-4.68,2.324-6.414l0,0l0.029-0.035l13.966-13.791c0.87-0.89,2.085-1.455,3.426-1.482l0,0&#10;&#9;&#9;&#9;c0.053-0.004,0.081-0.004,0.093-0.002l0,0c0.006,0,0.01,0,0.01,0l0,0c1.507,0,2.868,0.678,3.774,1.747l0,0l14.072,13.354&#10;&#9;&#9;&#9;l0.041,0.047c1.414,1.705,2.271,3.898,2.295,6.328l0,0c0,0,0,0.014,0,0.055l0,0c0,3.646-1.954,6.849-4.922,8.627l0,0&#10;&#9;&#9;&#9;c-3.087,1.644-5.99,2.346-13.919,2.41l0,0c-0.757,0.006-1.497,0.013-2.221,0.013l0,0C88.675,128.88,84.279,128.667,81.171,127.284&#10;&#9;&#9;&#9;L81.171,127.284z M77.02,118.034c0,0.041,0,0.045,0.002,0.082l0,0c0.031,3.305,2.058,6.121,4.947,7.336l0,0&#10;&#9;&#9;&#9;c2.524,1.156,6.777,1.451,12.021,1.438l0,0c0.714,0,1.45-0.005,2.203-0.011l0,0c7.904-0.09,10.21-0.717,12.955-2.151l0,0&#10;&#9;&#9;&#9;c2.342-1.407,3.903-3.968,3.903-6.888l0,0c0-0.021,0-0.061,0-0.078l0,0c-0.02-1.9-0.691-3.629-1.805-4.992l0,0L97.221,99.463&#10;&#9;&#9;&#9;l0.688-0.724l0.769-0.641l-0.769,0.641l-0.688,0.724l-0.047-0.045l-0.035-0.041c-0.546-0.655-1.356-1.066-2.271-1.066l0,0h-0.024&#10;&#9;&#9;&#9;c-0.818,0.01-1.544,0.344-2.089,0.896l0,0l-13.906,13.732C77.706,114.327,77.022,116.099,77.02,118.034L77.02,118.034z" style="fill: rgb(30, 30, 30);"/>
    </g>
    <g>
      <path d="M120.905,103.308l-0.049-0.041l-13.351-14.071c-1.067-0.906-1.746-2.265-1.746-3.77l0,0&#10;&#9;&#9;&#9;c0.001,0-0.004-0.023,0.003-0.108l0,0c0.027-1.34,0.591-2.556,1.47-3.417l0,0l13.806-13.979l0.031-0.026&#10;&#9;&#9;&#9;c1.736-1.448,3.978-2.321,6.409-2.321l0,0c0.021,0,0.069-0.002,0.106,0.002l0,0c4.126,0.039,7.647,2.568,9.139,6.124l0,0&#10;&#9;&#9;&#9;c1.395,3.133,1.605,7.535,1.615,12.857l0,0c0,0.72-0.004,1.454-0.01,2.205l0,0c-0.065,7.929-0.769,10.833-2.438,13.967l0,0&#10;&#9;&#9;&#9;c-1.752,2.921-4.955,4.873-8.602,4.873l0,0c-0.041,0-0.055,0-0.1,0.002l0,0C124.803,105.583,122.61,104.721,120.905,103.308&#10;&#9;&#9;&#9;L120.905,103.308z M127.163,103.605c0.065-0.002,0.104-0.002,0.125-0.002l0,0c2.921,0,5.481-1.561,6.86-3.855l0,0&#10;&#9;&#9;&#9;c1.462-2.795,2.091-5.1,2.18-13.002l0,0c0.006-0.749,0.01-1.479,0.01-2.188l0,0c0.012-5.25-0.281-9.51-1.45-12.06l0,0&#10;&#9;&#9;&#9;c-1.204-2.864-4.021-4.892-7.36-4.924l0,0c0,0.002-0.008,0-0.051,0.002l0,0c-1.94,0-3.712,0.687-5.1,1.834l0,0l-13.734,13.907&#10;&#9;&#9;&#9;c-0.541,0.534-0.875,1.261-0.883,2.081l0,0v0.057l-0.001,0.011c0.014,0.894,0.421,1.69,1.064,2.227l0,0l-0.638,0.769l-0.724,0.688&#10;&#9;&#9;&#9;l0.724-0.688l0.638-0.769l0.045,0.035l13.358,14.078C123.589,102.915,125.313,103.584,127.163,103.605L127.163,103.605z" style="fill: rgb(30, 30, 30);"/>
      <path d="M54.157,100.683c-1.642-3.086-2.344-5.991-2.409-13.918l0,0c-0.01-0.755-0.015-1.493-0.015-2.213l0,0&#10;&#9;&#9;&#9;c0.013-5.32,0.223-9.72,1.61-12.827l0,0c1.499-3.58,5.021-6.109,9.108-6.148l0,0c0.075-0.004,0.12-0.002,0.143-0.002l0,0&#10;&#9;&#9;&#9;c2.434,0,4.675,0.873,6.414,2.321l0,0l0.039,0.033l13.784,13.963c0.902,0.883,1.469,2.121,1.481,3.533l0,0&#10;&#9;&#9;&#9;c0,0,0,0.004,0.002,0.004l0,0c0,1.504-0.68,2.861-1.746,3.767l0,0l-13.349,14.071l-0.051,0.041&#10;&#9;&#9;&#9;c-1.706,1.414-3.898,2.274-6.324,2.294l0,0c0,0-0.019,0-0.059,0.002l0,0C59.138,105.603,55.936,103.649,54.157,100.683&#10;&#9;&#9;&#9;L54.157,100.683z M62.51,67.576c-3.305,0.031-6.122,2.058-7.335,4.947l0,0c-1.159,2.523-1.452,6.782-1.44,12.029l0,0&#10;&#9;&#9;&#9;c0,0.714,0.004,1.442,0.012,2.193l0,0c0.09,7.905,0.716,10.209,2.152,12.957l0,0c1.406,2.342,3.965,3.902,6.887,3.902l0,0&#10;&#9;&#9;&#9;c0.018,0,0.061,0,0.082,0l0,0c1.892-0.018,3.618-0.688,4.98-1.798l0,0l13.315-14.033l0.035-0.037l0.051-0.043&#10;&#9;&#9;&#9;c0.655-0.545,1.065-1.354,1.065-2.264l0,0c0,0-0.002-0.015,0-0.033l0,0c-0.008-0.818-0.343-1.544-0.896-2.089l0,0L67.689,69.4&#10;&#9;&#9;&#9;c-1.39-1.142-3.158-1.826-5.095-1.828l0,0C62.553,67.574,62.549,67.574,62.51,67.576L62.51,67.576z" style="fill: rgb(30, 30, 30);"/>
    </g>
  </g>
  <path d="M 34.521 96.005 L 44.919 82.458 L 44.942 82.435 C 45.075 82.32 45.236 81.89 45.228 81.424 L 45.228 81.424 C 45.231 80.995 45.111 80.549 44.942 80.313 L 44.942 80.313 L 34.435 66.869 L 35.18 66.118 L 48.69 76.487 C 49.073 76.738 49.457 76.85 49.829 76.85 L 49.829 76.85 C 50.189 76.85 50.546 76.745 50.893 76.521 L 50.893 76.521 L 64.315 66.032 L 65.066 66.775 L 54.67 80.319 C 54.474 80.544 54.309 80.974 54.313 81.419 L 54.313 81.419 C 54.313 81.792 54.417 82.165 54.646 82.468 L 54.646 82.468 L 65.153 95.913 L 64.408 96.664 L 50.903 86.297 C 50.713 86.147 50.202 86.018 49.721 86.025 L 49.721 86.025 C 49.247 86.01 48.777 86.165 48.718 86.243 L 48.718 86.243 L 35.272 96.75 L 34.521 96.005 L 34.521 96.005 Z M 37.922 93.326 L 48.041 85.419 C 48.502 85.053 49.088 84.973 49.721 84.959 L 49.721 84.959 C 50.352 84.965 51.006 85.071 51.539 85.442 L 51.539 85.442 L 61.73 93.264 L 53.8 83.117 C 53.408 82.596 53.246 81.988 53.246 81.418 L 53.246 81.418 C 53.25 80.735 53.465 80.094 53.845 79.647 L 53.845 79.647 L 61.668 69.453 L 51.512 77.39 L 51.492 77.404 C 50.984 77.739 50.41 77.917 49.829 77.917 L 49.829 77.917 C 49.226 77.917 48.622 77.726 48.077 77.361 L 48.077 77.361 L 48.375 76.917 L 48.049 77.34 L 37.858 69.518 L 45.798 79.678 C 46.154 80.192 46.292 80.82 46.295 81.423 L 46.295 81.423 C 46.287 82.067 46.146 82.697 45.724 83.159 L 45.724 83.159 L 37.922 93.326 L 37.922 93.326 Z" style="fill: rgb(30, 30, 30);" transform="matrix(0.965926, -0.258819, 0.258819, 0.965926, -19.368851, 15.660963)"/>
  <path d="M 22.002 81.392 C 22.003 66.042 34.445 53.6 49.793 53.6 L 49.793 53.6 C 65.143 53.6 77.585 66.042 77.585 81.392 L 77.585 81.392 C 77.584 96.741 65.142 109.182 49.793 109.183 L 49.793 109.183 C 34.444 109.183 22.003 96.741 22.002 81.392 L 22.002 81.392 Z M 30.896 62.494 C 26.059 67.332 23.069 74.01 23.069 81.392 L 23.069 81.392 C 23.069 88.774 26.059 95.452 30.896 100.29 L 30.896 100.29 C 35.735 105.127 42.412 108.117 49.793 108.117 L 49.793 108.117 C 57.175 108.117 63.853 105.128 68.691 100.29 L 68.691 100.29 C 73.528 95.452 76.519 88.774 76.519 81.392 L 76.519 81.392 C 76.519 74.01 73.528 67.332 68.691 62.494 L 68.691 62.494 C 63.853 57.657 57.174 54.667 49.793 54.666 L 49.793 54.666 C 42.411 54.666 35.734 57.656 30.896 62.494 L 30.896 62.494 Z" style="fill: rgb(30, 30, 30);" transform="matrix(0.965926, -0.258819, 0.258819, 0.965926, -19.368996, 15.660854)"/>
  <path d="M 189.865 159.284 L 189.865 158.786 L 189.865 158.289 L 199.392 158.289 C 202.159 158.283 204.399 156.045 204.404 153.277 L 204.404 153.277 C 204.398 150.509 202.159 148.269 199.392 148.264 L 199.392 148.264 L 189.865 148.264 C 187.097 148.27 184.857 150.509 184.853 153.277 L 184.853 153.277 C 184.858 156.045 187.097 158.284 189.865 158.289 L 189.865 158.289 L 189.865 158.786 L 189.865 159.284 C 186.547 159.284 183.858 156.594 183.858 153.277 L 183.858 153.277 C 183.858 149.958 186.547 147.27 189.865 147.27 L 189.865 147.27 L 199.392 147.27 C 202.71 147.27 205.398 149.958 205.398 153.277 L 205.398 153.277 C 205.398 156.594 202.71 159.284 199.392 159.284 L 199.392 159.284 L 189.865 159.284 L 189.865 159.284 Z" style="fill: rgb(30, 30, 30);" transform="matrix(0.965926, -0.258819, 0.258819, 0.965926, -33.039209, 55.596189)"/>
  <path d="M 161.772 165.809 L 161.772 165.275 L 161.772 164.742 L 171.192 164.742 C 173.131 164.739 174.699 163.172 174.703 161.233 L 174.703 161.233 C 174.699 159.294 173.131 157.725 171.192 157.722 L 171.192 157.722 L 161.772 157.722 C 159.835 157.725 158.266 159.294 158.263 161.233 L 158.263 161.233 C 158.266 163.172 159.835 164.739 161.772 164.742 L 161.772 164.742 L 161.772 165.275 L 161.772 165.809 C 159.245 165.808 157.197 163.76 157.197 161.233 L 157.197 161.233 C 157.197 158.705 159.245 156.656 161.772 156.656 L 161.772 156.656 L 171.192 156.656 C 173.72 156.656 175.768 158.705 175.768 161.233 L 175.768 161.233 C 175.768 163.76 173.719 165.808 171.192 165.809 L 171.192 165.809 L 161.772 165.809 L 161.772 165.809 Z" style="fill: rgb(30, 30, 30);" transform="matrix(0.965926, -0.258819, 0.258819, 0.965926, -36.057276, 48.582677)"/>
  <path d="M 135.937 172.732 L 135.937 172.198 L 135.937 171.665 L 145.356 171.665 C 147.294 171.662 148.862 170.095 148.866 168.156 L 148.866 168.156 C 148.862 166.217 147.294 164.648 145.356 164.645 L 145.356 164.645 L 135.937 164.645 C 133.998 164.648 132.429 166.217 132.426 168.156 L 132.426 168.156 C 132.429 170.095 133.998 171.662 135.937 171.665 L 135.937 171.665 L 135.937 172.198 L 135.937 172.732 C 133.409 172.731 131.36 170.683 131.36 168.156 L 131.36 168.156 C 131.36 165.628 133.408 163.579 135.937 163.579 L 135.937 163.579 L 145.356 163.579 C 147.884 163.579 149.932 165.628 149.932 168.156 L 149.932 168.156 C 149.932 170.683 147.884 172.731 145.356 172.732 L 145.356 172.732 L 135.937 172.732 L 135.937 172.732 Z" style="fill: rgb(30, 30, 30);" transform="matrix(0.965926, -0.258819, 0.258819, 0.965926, -38.729422, 42.131585)"/>
</svg>