<?xml version="1.0" encoding="utf-8"?>
<svg version="1.1" id="Ebene_1" x="0px" y="0px" enable-background="new 0 0 566.936 85.117" xmlns="http://www.w3.org/2000/svg">
  <g transform="matrix(0.352535, 0, 0, 0.352535, 0, -2.039413)">
    <polygon points="168.372 59.943 159.059 67.648 110.912 67.648 118.646 35.221 126.435 29.04 134.167 29.04 126.435 61.467 134.167 56.839 140.375 33.697 145.031 29.04 155.926 29.04 148.165 61.467 155.926 55.314 160.555 35.221 166.792 29.04 176.133 29.04" id="polygon9" style="fill-opacity: 1; fill: rgb(255, 255, 255);"/>
    <polygon points="480.338 59.943 469.755 67.648 425.39 67.648 429.341 49.134 436.367 42.389 445.398 42.389 440.094 62.738 447.883 58.109 449.857 47.582 455.052 42.389 465.889 42.389 460.582 62.738 467.921 57.827 470.009 49.134 476.781 42.389 484.854 42.389" id="polygon11" style="fill-opacity: 1; fill: rgb(255, 255, 255);"/>
    <path d="M 364.797 67.648 L 372.586 59.943 L 406.002 59.943 C 406.002 59.943 408.879 60.791 410.518 57.15 C 412.013 53.762 409.107 53.762 409.107 53.762 L 393.585 53.762 C 393.585 53.762 389.126 52.745 389.099 47.271 C 389.014 33.81 400.078 30.337 400.078 30.337 L 432.7 30.337 L 426.211 36.773 L 409.107 36.773 C 409.107 36.773 403.66 38.326 403.546 42.87 C 403.462 44.93 406.001 44.507 406.001 44.507 L 419.942 44.507 C 419.942 44.507 428.013 45.861 426.151 54.554 C 423.723 65.985 415.313 67.649 415.313 67.649 L 364.797 67.649 L 364.797 67.648 Z" id="path13" style="fill-opacity: 1; fill: rgb(255, 255, 255);"/>
    <path d="M 338.269 67.648 L 352.209 67.648 L 356.442 51.619 C 356.951 49.756 361.861 47.64 360.563 47.865 C 359.292 48.091 365.022 47.017 365.022 47.017 C 365.022 47.017 366.828 47.525 367.731 48.767 C 368.664 49.98 366.828 51.788 366.574 53.199 C 366.32 54.609 368.127 54.751 368.127 54.751 L 375.916 54.751 C 375.916 54.751 380.094 53.199 381.223 51.647 C 382.325 50.067 383.705 48.43 383.705 47.047 C 383.705 45.664 380.629 43.943 380.629 43.943 L 377.496 42.419 L 354.213 42.419 C 354.213 42.419 343.067 48.798 341.769 50.124 C 341.315 50.517 338.269 67.648 338.269 67.648 Z" id="path15" style="fill-opacity: 1; fill: rgb(255, 255, 255);"/>
    <path d="M 175.313 49.953 C 174.241 51.193 170.742 62.088 171.503 63.865 C 172.293 65.588 176.611 67.646 176.611 67.646 L 199.301 67.646 C 199.301 67.646 209.884 61.014 210.702 60.083 C 211.492 59.124 214.484 48.54 214.484 47.438 C 214.484 46.337 211.944 42.386 211.944 42.386 L 185.415 42.386 C 185.417 42.389 176.416 48.711 175.313 49.953 Z M 193.009 47.441 L 199.98 47.441 C 199.98 47.441 199.19 55.824 197.441 58.193 C 195.663 60.564 191.74 62.625 191.74 62.625 C 191.74 62.625 187.338 63.077 186.717 62.625 C 186.068 62.117 186.547 57.572 186.547 57.572 C 186.547 57.572 187.14 52.663 187.958 51.222 C 188.749 49.812 193.009 47.441 193.009 47.441 Z" id="path17" style="fill-opacity: 1; fill: rgb(255, 255, 255);"/>
    <path d="M 259.924 49.953 C 258.851 51.193 255.352 62.088 256.142 63.865 C 256.932 65.588 261.222 67.646 261.222 67.646 L 292.802 67.646 C 292.802 67.646 293.847 62.624 295.145 57.542 C 296.386 52.772 297.854 45.437 297.854 44.897 C 297.854 43.768 305.7 33.864 305.7 33.864 L 291.984 33.864 L 285.043 42.385 L 270.028 42.385 C 270.057 42.389 261.054 48.711 259.924 49.953 Z M 277.619 47.441 L 284.561 47.441 C 284.561 47.441 283.798 55.824 282.021 58.193 C 280.298 60.564 276.348 62.625 276.348 62.625 C 276.348 62.625 271.946 63.077 271.296 62.625 C 270.703 62.117 271.127 57.572 271.127 57.572 C 271.127 57.572 271.72 52.663 272.566 51.222 C 273.357 49.812 277.619 47.441 277.619 47.441 Z" id="path19" style="fill-opacity: 1; fill: rgb(255, 255, 255);"/>
    <path d="M 211.101 67.648 L 218.269 42.388 L 248.58 42.388 C 248.58 42.388 252.588 42.812 253.942 45.07 C 255.353 47.329 254.902 51.222 254.902 51.222 L 250.781 67.648 L 238.137 67.648 C 238.137 67.648 239.605 59.605 241.016 53.762 C 242.427 47.92 238.476 47.441 238.476 47.441 L 230.913 47.441 L 226.567 62.595 C 226.567 62.595 222.785 66.998 221.205 67.648 L 211.101 67.648 Z" id="path21" style="fill-opacity: 1; fill: rgb(255, 255, 255);"/>
    <path d="M 522.162 67.648 L 530.206 42.388 L 560.517 42.388 C 560.517 42.388 564.496 42.812 565.908 45.07 C 567.32 47.329 566.868 51.222 566.868 51.222 L 562.606 67.648 L 548.749 67.648 C 548.749 67.648 551.063 60.876 552.531 55.003 C 553.942 49.19 550.47 47.44 550.47 47.44 L 542.878 47.44 L 538.645 62.594 C 538.645 62.594 535.146 66.997 533.594 67.647 L 522.162 67.647 Z" id="path23" style="fill-opacity: 1; fill: rgb(255, 255, 255);"/>
    <path d="M 301.607 49.953 C 300.505 51.193 297.063 62.088 297.826 63.865 C 298.588 65.588 302.877 67.646 302.877 67.646 L 325.597 67.646 C 325.597 67.646 330.113 64.824 333.471 62.594 C 333.471 62.594 314.166 62.736 312.982 62.594 C 312.446 62.538 312.644 60.197 312.7 58.814 L 328.222 58.814 C 328.222 58.814 331.213 58.165 335.672 54.466 C 340.188 50.771 340.752 50.374 340.752 47.439 C 340.752 44.534 338.211 42.387 338.211 42.387 L 311.684 42.387 C 311.739 42.389 302.709 48.711 301.607 49.953 Z M 319.332 47.441 L 329.52 47.441 C 329.52 47.441 328.391 51.308 322.832 53.762 L 314.338 53.762 C 313.519 51.562 315.523 49.812 316.651 48.851 C 317.836 47.779 319.332 47.441 319.332 47.441 Z" id="path25" style="fill-opacity: 1; fill: rgb(255, 255, 255);"/>
    <path d="M 505.737 67.648 C 505.737 67.648 510.027 54.074 511.383 49.726 C 512.06 47.357 510.48 47.441 507.487 47.441 C 504.494 47.441 502.322 48.089 498.174 55.004 C 493.32 63.076 505.342 65.277 505.342 65.277 L 504.494 67.646 L 490.61 67.646 C 490.61 67.646 483.018 67.958 483.018 58.814 C 483.018 47.582 497.383 42.387 497.383 42.387 L 527.721 42.387 L 519.65 67.646 L 505.737 67.646 L 505.737 67.648 Z" id="path27" style="fill-opacity: 1; fill: rgb(255, 255, 255);"/>
    <path d="M 72.559 29.154 C 73.264 29.126 73.998 29.096 74.732 29.096 C 90.537 29.096 104.084 44.42 105.099 52.209 C 105.211 53.028 105.268 53.762 105.325 54.383 C 105.127 33.105 71.966 5.785 45.325 5.785 C 24.778 5.785 15.184 14.082 12.022 23.452 C 7.281 35.277 13.518 52.098 28.081 64.062 C 29.633 65.304 31.157 66.461 32.737 67.535 C 32.059 67.592 31.326 67.592 30.592 67.592 C 14.787 67.592 1.24 52.268 0.225 44.479 C 0.141 43.66 0.057 42.926 0 42.305 C 0.197 63.584 33.358 90.903 60 90.903 C 80.545 90.903 90.141 82.579 93.302 73.237 C 98.043 61.44 91.806 44.621 77.243 32.626 C 75.69 31.383 74.167 30.226 72.559 29.154 Z M 42.896 64.488 C 31.156 54.863 27.261 40.723 33.836 32.68 C 40.468 24.637 55.426 25.568 67.448 34.939 C 79.358 44.195 83.929 58.306 77.834 66.716 C 80.317 61.664 77.552 54.071 71.004 48.907 C 63.978 43.376 55.144 42.811 51.249 47.581 C 47.326 52.351 49.669 60.761 56.555 66.489 C 61.889 70.921 68.352 72.471 72.98 70.864 C 65.164 75.014 52.831 72.644 42.896 64.488 Z" id="path29" style="fill-opacity: 1; fill: rgb(255, 255, 255);"/>
  </g>
  <g transform="matrix(0.352535, 0, 0, 0.352535, -1.232292, -9.090108)">
    <path style="fill-opacity: 1; fill: rgb(255, 255, 255);" id="path9" d="M 315.368 103.389 C 310.876 102.065 305.812 108.412 301.489 118.098 C 297.638 134.244 289.075 158.048 288.524 174.474 C 288.274 181.764 295.003 183.9 299.575 185.514 C 314.045 190.618 322.508 185.624 326.818 180.41 C 329.918 176.67 326.639 173.551 322.798 174.695 C 317.242 176.338 310.454 177.453 309.051 172.087 C 307.507 166.172 315.739 141.863 321.424 123.763 C 324.534 113.874 327.164 105.674 315.374 103.374 Z"/>
    <path style="fill-opacity: 1; fill: rgb(255, 255, 255);" id="path11" d="M 240.389 132.028 C 230.593 133.041 211.128 138.224 211.128 163.404 C 211.128 164.589 207.578 191.834 242.715 188.675 C 277.863 185.516 283.778 163.404 283.778 163.404 C 283.778 163.404 292.471 134.184 271.143 134.976 C 258.127 135.457 252.191 141.293 252.191 141.293 C 252.191 141.293 260.875 142.998 262.75 149.234 C 266.31 161.057 264.997 181.004 245.874 179.197 C 226.682 177.384 236.057 152.031 242.104 139.176 C 244.194 134.756 243.684 131.686 240.394 132.026 Z"/>
    <path style="fill-opacity: 1; fill: rgb(255, 255, 255);" id="path13-9" d="M 357.258 132.028 C 347.461 133.041 327.996 138.224 327.996 163.404 C 327.996 164.589 324.447 191.834 359.583 188.675 C 394.73 185.516 400.648 163.404 400.648 163.404 C 400.648 163.404 409.34 134.184 388.012 134.976 C 374.996 135.457 369.061 141.293 369.061 141.293 C 369.061 141.293 377.743 142.998 379.618 149.234 C 383.179 161.057 381.865 181.004 362.742 179.197 C 343.549 177.384 352.924 152.031 358.971 139.176 C 361.061 134.756 360.551 131.686 357.261 132.026 Z"/>
    <path style="fill-opacity: 1; fill: rgb(255, 255, 255);" id="path15-7" d="M 125.839 150.768 C 124.265 119.571 167.354 105.574 182.697 104.39 C 198.05 103.196 214.285 106.545 214.285 106.545 C 214.285 106.545 211.918 137.34 204.808 138.132 C 197.709 138.924 199.283 114.837 185.855 116.022 C 161.267 118.187 151.4 144.991 151.108 153.925 C 150.979 158.246 152.302 177.61 170.061 176.036 C 187.83 174.45 191.781 164.975 195.331 163.4 C 198.89 161.815 205.699 158.697 204.807 166.559 C 202.842 183.926 170.061 188.67 170.061 188.67 C 170.061 188.67 127.891 191 125.841 150.77 Z"/>
    <path style="fill-opacity: 1; fill: rgb(255, 255, 255);" id="path17-8" d="M 416.448 185.518 C 401.444 186.31 409.737 168.14 413.289 157.089 C 416.848 146.027 416.196 133.905 429.082 134.979 C 443.331 136.153 432.24 153.931 432.24 153.931 C 432.24 153.931 453.881 130.196 473.303 131.821 C 478.046 132.211 463.826 163.407 463.826 163.407 C 463.826 163.407 460.275 151.956 451.192 153.932 C 425.082 159.612 431.452 184.732 416.452 185.522 Z"/>
  </g>
</svg>