<?xml version="1.0" encoding="utf-8"?>
<svg version="1.0" preserveAspectRatio="xMidYMid meet" xmlns="http://www.w3.org/2000/svg">
  <g id="layer1" fill="#020202" stroke="none"/>
  <g id="layer2" fill="#b2b2b2" stroke="none" transform="matrix(1, 0, 0, 1, -280, -20)">
    <path d="M1785 1696 c-64 -42 -161 -147 -200 -214 -22 -39 -35 -52 -50 -50 -18 3 -20 12 -25 102 l-5 98 -45 18 -45 18 -5 -87 c-5 -81 -6 -86 -27 -85 -21 1 -23 -4 -23 -57 0 -49 3 -59 20 -64 19 -6 20 -15 20 -130 0 -117 -1 -125 -25 -153 -14 -17 -25 -34 -25 -39 0 -4 14 -26 32 -47 88 -108 287 -117 371 -17 31 37 42 85 34 151 -8 62 -35 115 -85 163 -38 37 -39 41 -30 75 16 60 59 150 74 156 16 6 34 -30 34 -70 0 -17 -5 -24 -20 -24 -24 0 -24 -4 -4 -63 13 -39 20 -47 40 -47 19 0 28 -9 41 -42 9 -24 36 -81 60 -127 l44 -84 -27 -22 -27 -22 37 -61 c21 -34 41 -62 46 -62 14 0 98 99 133 158 49 82 147 347 147 398 0 27 48 120 74 143 14 14 26 28 26 33 0 4 -59 8 -130 8 l-130 0 20 -41 21 -40 -21 -65 -22 -64 -89 0 -88 0 -18 33 c-14 25 -18 56 -18 145 0 106 -1 112 -20 112 -11 0 -43 -15 -70 -34z m261 -379 c7 -20 -33 -107 -49 -107 -17 0 -51 84 -43 105 7 19 84 21 92 2z m-461 -48 c46 -41 64 -98 41 -134 -16 -25 -39 -31 -71 -19 -27 11 -45 60 -45 124 0 53 2 60 20 60 10 0 35 -14 55 -31z" style="fill: rgb(255, 255, 255);"/>
    <path d="M3354 1709 c-38 -19 -44 -52 -44 -229 0 -106 -4 -171 -10 -175 -21 -13 -37 16 -43 72 -8 72 -57 173 -104 212 -129 107 -292 30 -353 -167 -39 -126 -18 -318 45 -414 60 -90 176 -123 265 -76 80 43 150 166 150 262 0 49 24 82 41 55 5 -8 9 -95 9 -194 l0 -180 32 55 c29 50 202 230 221 230 5 0 7 -45 5 -99 -2 -78 -7 -103 -21 -119 -18 -20 -17 -21 50 -58 37 -20 79 -43 91 -51 23 -14 24 -14 16 9 -20 63 -24 110 -24 323 0 127 -3 274 -7 328 l-6 98 -38 19 -38 20 -6 -48 c-14 -102 -45 -169 -103 -226 -65 -62 -72 -51 -72 109 0 136 8 175 35 175 38 0 -2 66 -45 74 -14 3 -35 0 -46 -5z m-294 -244 c17 -9 40 -34 52 -58 20 -37 23 -57 23 -162 0 -114 -1 -123 -28 -168 -17 -29 -42 -54 -62 -64 -31 -15 -36 -15 -60 1 -39 26 -62 72 -75 148 -27 156 26 298 118 317 2 1 16 -6 32 -14z" style="fill: rgb(255, 255, 255);"/>
    <path d="M880 1678 c0 -2 11 -34 25 -73 23 -67 25 -81 25 -303 0 -256 -1 -258 -59 -228 -52 27 -61 22 -61 -34 0 -57 2 -58 113 -96 90 -30 182 -32 236 -4 83 42 143 147 162 282 12 80 -8 213 -40 277 -25 48 -79 104 -123 127 -32 17 -278 62 -278 52z m249 -233 c44 -38 66 -105 66 -200 -1 -101 -31 -168 -88 -198 -67 -34 -67 -34 -67 208 l0 215 29 0 c17 0 42 -11 60 -25z" style="fill: rgb(255, 255, 255);"/>
    <path d="M2444 1625 c-81 -34 -143 -119 -168 -228 -20 -85 -20 -146 -1 -237 18 -84 34 -118 82 -171 92 -102 197 -105 316 -10 21 16 48 33 59 37 18 5 14 12 -38 65 -32 32 -62 59 -66 59 -4 0 -15 -17 -23 -37 -22 -52 -54 -83 -85 -83 -103 0 -162 219 -98 361 14 31 36 64 49 73 31 22 107 22 116 0 6 -16 -8 -124 -23 -171 -6 -22 -4 -23 63 -23 102 0 101 -2 106 180 2 85 7 164 11 175 7 19 2 20 -132 21 -92 1 -148 -2 -168 -11z" style="fill: rgb(255, 255, 255);"/>
    <path d="M375 824 c24 -55 29 -151 20 -377 -8 -219 -7 -217 -73 -177 -18 11 -35 20 -37 20 -3 0 -5 -27 -5 -61 l0 -60 58 -27 c122 -56 258 -38 341 47 70 71 94 140 99 286 3 106 1 127 -18 179 -48 126 -150 193 -311 203 l-91 6 17 -39z m214 -179 c45 -38 64 -107 59 -218 -2 -69 -8 -102 -24 -132 -21 -40 -79 -88 -98 -82 -11 4 -22 418 -12 444 8 21 42 15 75 -12z" style="fill: rgb(255, 255, 255);"/>
    <path d="M1005 821 c-88 -41 -147 -141 -166 -280 -19 -141 20 -291 96 -367 52 -52 127 -72 195 -54 195 52 263 428 115 631 -59 82 -155 110 -240 70z m114 -156 c46 -23 73 -92 78 -199 4 -76 2 -100 -16 -147 -40 -107 -109 -141 -163 -80 -88 98 -72 362 26 422 37 23 39 23 75 4z" style="fill: rgb(255, 255, 255);"/>
    <path d="M1469 817 c-19 -12 -45 -44 -58 -70 -21 -44 -24 -65 -31 -250 -7 -199 -14 -243 -47 -279 -13 -15 -7 -22 76 -77 50 -34 91 -58 91 -54 0 5 -7 30 -15 57 -11 37 -15 101 -15 250 0 182 2 204 20 233 11 18 31 35 46 39 35 9 92 -19 99 -49 3 -12 5 -125 3 -249 -3 -217 -4 -228 -25 -257 -13 -17 -23 -35 -23 -41 0 -21 41 -50 70 -50 46 0 70 31 70 89 0 28 4 53 10 56 5 3 29 -5 52 -19 53 -30 140 -56 187 -56 77 1 160 62 179 134 9 31 4 76 -14 134 -5 18 0 31 24 55 49 52 66 95 68 176 2 40 5 75 8 78 8 8 63 -26 70 -42 3 -9 6 -88 6 -176 0 -172 -9 -213 -51 -242 -12 -9 -21 -18 -18 -20 8 -7 210 -127 213 -127 2 0 -4 19 -13 42 -13 36 -16 87 -16 293 l0 250 48 -2 c26 -1 55 -7 63 -14 20 -16 27 -6 48 70 15 57 15 66 1 87 -21 32 -51 38 -171 31 -57 -3 -132 -1 -165 4 -34 5 -64 8 -66 5 -3 -2 1 -14 7 -26 18 -34 -2 -48 -36 -24 -80 57 -69 54 -232 52 -83 -2 -151 -5 -149 -8 2 -3 15 -31 30 -63 27 -57 27 -60 27 -277 0 -146 -4 -221 -11 -226 -8 -5 -58 14 -89 34 -3 2 -7 101 -10 220 -6 242 -11 263 -80 309 -46 32 -134 32 -181 0z m602 -196 c65 -65 11 -161 -90 -161 l-31 0 0 95 0 95 46 0 c37 0 51 -5 75 -29z m-48 -288 c38 -43 25 -111 -23 -123 -46 -12 -60 4 -60 69 0 32 3 61 7 64 13 13 60 7 76 -10z" style="fill: rgb(255, 255, 255);"/>
    <path d="M2715 801 c-49 -23 -59 -39 -85 -137 -35 -137 -24 -376 24 -480 38 -83 58 -91 219 -95 l138 -4 -6 24 c-3 13 -9 36 -12 52 l-5 29 -100 0 c-91 0 -101 2 -123 24 -24 24 -43 104 -30 125 4 7 47 11 110 11 l103 0 -12 48 -12 47 -93 3 c-89 3 -92 4 -102 29 -19 51 15 134 63 154 19 8 60 10 119 6 50 -3 89 -2 89 3 0 5 -5 43 -11 84 l-11 74 -62 11 c-90 16 -155 13 -201 -8z" style="fill: rgb(255, 255, 255);"/>
  </g>
</svg>