<?xml version="1.0" encoding="utf-8"?>
<svg version="1.2" baseProfile="tiny" id="Layer_3" x="0px" y="0px" preserveAspectRatio="none" xmlns="http://www.w3.org/2000/svg">
  <path id="rect3" d="M 345.496 243.903 L 345.496 244.371 L 345.496 261.127 L 345.496 261.595 L 345.965 261.595 L 573.66 261.595 L 574.128 261.595 L 574.128 261.127 L 574.128 244.371 L 574.128 243.903 L 573.66 243.903 L 345.965 243.903 L 345.496 243.903 Z M 346.433 244.841 L 573.191 244.841 L 573.191 260.657 L 346.433 260.657 L 346.433 244.841 Z" style="fill: rgb(30, 30, 30);" transform="matrix(0.965926, -0.258819, 0.258819, 0.965926, -49.748515, 127.620213)"/>
  <path id="circle5" d="M 559.226 220.282 C 557.958 220.282 556.911 221.315 556.911 222.581 C 556.911 223.847 557.958 224.895 559.226 224.895 C 560.492 224.895 561.524 223.847 561.524 222.581 C 561.524 221.315 560.492 220.282 559.226 220.282 Z M 559.226 221.219 C 559.985 221.219 560.588 221.821 560.588 222.581 C 560.588 223.341 559.985 223.957 559.226 223.957 C 558.466 223.957 557.848 223.341 557.848 222.581 C 557.848 221.821 558.466 221.219 559.226 221.219 Z" style="fill: rgb(30, 30, 30);" transform="matrix(0.965926, -0.258819, 0.258819, 0.965926, -38.555253, 152.320537)"/>
  <path id="path7" d="M 586.342 214.841 C 585.758 214.841 585.248 214.939 584.892 215.295 C 584.537 215.65 584.438 216.16 584.438 216.745 L 584.438 226.528 C 584.438 227.113 584.537 227.622 584.892 227.978 C 585.249 228.334 585.757 228.432 586.342 228.432 L 596.067 228.432 C 596.652 228.432 597.162 228.334 597.517 227.978 C 597.873 227.622 597.971 227.113 597.971 226.528 L 597.971 216.745 C 597.971 216.16 597.873 215.65 597.517 215.295 C 597.162 214.939 596.651 214.841 596.067 214.841 L 586.342 214.841 L 586.342 214.841 Z M 586.342 215.778 L 596.067 215.778 C 596.54 215.778 596.76 215.871 596.858 215.968 C 596.956 216.067 597.033 216.272 597.033 216.745 L 597.033 226.528 C 597.033 227.001 596.956 227.221 596.858 227.319 C 596.76 227.417 596.54 227.494 596.067 227.494 L 586.342 227.494 C 585.87 227.494 585.649 227.416 585.551 227.319 C 585.454 227.221 585.376 227.001 585.376 226.528 L 585.376 216.745 C 585.376 216.272 585.454 216.067 585.551 215.968 C 585.65 215.87 585.87 215.778 586.342 215.778 Z" style="fill: rgb(30, 30, 30);" transform="matrix(0.965926, -0.258819, 0.258819, 0.965926, -37.21893, 160.566931)"/>
  <path id="path9" d="M 600.322 211.095 C 599.737 211.095 599.227 211.194 598.872 211.549 C 598.516 211.904 598.418 212.414 598.418 213 L 598.418 222.782 C 598.418 223.367 598.516 223.876 598.872 224.232 C 599.228 224.588 599.737 224.686 600.322 224.686 L 610.047 224.686 C 610.631 224.686 611.141 224.588 611.497 224.232 C 611.852 223.876 611.951 223.367 611.951 222.782 L 611.951 213 C 611.951 212.414 611.852 211.904 611.497 211.549 C 611.14 211.194 610.632 211.095 610.047 211.095 L 600.322 211.095 L 600.322 211.095 Z M 600.322 212.032 L 610.047 212.032 C 610.519 212.032 610.74 212.124 610.838 212.223 C 610.936 212.321 611.013 212.526 611.013 213 L 611.013 222.782 C 611.013 223.255 610.936 223.475 610.838 223.573 C 610.739 223.671 610.519 223.749 610.047 223.749 L 600.322 223.749 C 599.849 223.749 599.629 223.67 599.531 223.573 C 599.433 223.475 599.356 223.255 599.356 222.782 L 599.356 213 C 599.356 212.526 599.433 212.321 599.531 212.223 C 599.629 212.124 599.849 212.032 600.322 212.032 Z" style="fill: rgb(30, 30, 30);" transform="matrix(0.965926, -0.258819, 0.258819, 0.965926, -35.773042, 164.057578)"/>
  <path id="path11" d="M 596.702 197.585 C 596.117 197.585 595.607 197.684 595.252 198.039 C 594.896 198.395 594.798 198.904 594.798 199.488 L 594.798 209.272 C 594.798 209.857 594.896 210.367 595.252 210.722 C 595.604 211.078 596.114 211.176 596.7 211.176 L 606.426 211.176 C 607.01 211.176 607.52 211.078 607.876 210.722 C 608.231 210.366 608.329 209.857 608.329 209.272 L 608.329 199.488 C 608.329 198.904 608.231 198.394 607.876 198.039 C 607.519 197.684 607.007 197.585 606.427 197.585 L 596.702 197.585 L 596.702 197.585 Z M 596.702 198.523 L 606.427 198.523 C 606.899 198.523 607.119 198.615 607.218 198.712 C 607.315 198.81 607.393 199.016 607.393 199.488 L 607.393 209.272 C 607.393 209.745 607.315 209.965 607.218 210.063 C 607.118 210.161 606.899 210.238 606.427 210.238 L 596.702 210.239 C 596.229 210.239 596.009 210.161 595.911 210.063 C 595.813 209.965 595.735 209.745 595.735 209.272 L 595.735 199.488 C 595.735 199.016 595.813 198.811 595.911 198.712 C 596.009 198.615 596.23 198.523 596.703 198.523 L 596.702 198.523 Z" style="fill: rgb(30, 30, 30);" transform="matrix(0.965926, -0.258819, 0.258819, 0.965926, -32.399763, 162.659857)"/>
  <path id="path13" d="M 603.943 224.604 C 603.358 224.604 602.849 224.718 602.494 225.073 C 602.138 225.429 602.04 225.924 602.04 226.509 L 602.04 236.307 C 602.04 236.892 602.138 237.387 602.494 237.742 C 602.849 238.098 603.359 238.21 603.943 238.21 L 613.669 238.21 C 614.253 238.21 614.762 238.098 615.119 237.742 C 615.474 237.387 615.572 236.891 615.572 236.307 L 615.572 226.509 C 615.572 225.924 615.474 225.429 615.119 225.073 C 614.762 224.718 614.253 224.604 613.669 224.604 L 603.943 224.604 Z M 603.943 225.542 L 613.669 225.542 C 614.141 225.542 614.361 225.635 614.459 225.732 C 614.557 225.831 614.635 226.036 614.635 226.509 L 614.635 236.307 C 614.635 236.78 614.557 236.985 614.459 237.083 C 614.36 237.182 614.141 237.273 613.669 237.273 L 603.943 237.273 C 603.47 237.273 603.251 237.181 603.153 237.083 C 603.055 236.985 602.977 236.78 602.977 236.307 L 602.977 226.509 C 602.977 226.036 603.055 225.831 603.153 225.732 C 603.251 225.635 603.47 225.542 603.943 225.542 Z" style="fill: rgb(30, 30, 30);" transform="matrix(0.965926, -0.258819, 0.258819, 0.965926, -39.148002, 165.455834)"/>
  <path id="path15" d="M 594.751 245.821 C 594.166 245.821 593.656 245.92 593.301 246.275 C 592.946 246.631 592.847 247.141 592.847 247.725 L 592.847 257.509 C 592.847 258.094 592.946 258.603 593.301 258.959 C 593.656 259.314 594.166 259.412 594.751 259.412 L 604.49 259.412 C 605.075 259.412 605.569 259.314 605.926 258.959 C 606.281 258.603 606.394 258.094 606.394 257.509 L 606.394 247.725 C 606.394 247.141 606.281 246.631 605.926 246.275 C 605.569 245.92 605.075 245.821 604.49 245.821 L 594.751 245.821 Z M 594.751 246.759 L 604.49 246.759 C 604.963 246.759 605.169 246.837 605.266 246.935 C 605.364 247.032 605.457 247.253 605.457 247.725 L 605.457 257.509 C 605.457 257.981 605.364 258.202 605.266 258.299 C 605.169 258.398 604.963 258.475 604.49 258.475 L 594.751 258.475 C 594.278 258.475 594.072 258.398 593.975 258.299 C 593.877 258.202 593.784 257.981 593.784 257.509 L 593.784 247.725 C 593.784 247.253 593.877 247.032 593.975 246.935 C 594.072 246.837 594.278 246.759 594.751 246.759 Z" style="fill: rgb(30, 30, 30);" transform="matrix(0.965926, -0.258819, 0.258819, 0.965926, -44.950415, 163.80113)"/>
  <path id="path17" d="M 542.439 245.404 C 541.854 245.404 541.359 245.517 541.004 245.873 C 540.648 246.228 540.535 246.723 540.535 247.308 L 540.535 257.106 C 540.535 257.691 540.649 258.185 541.004 258.541 C 541.359 258.898 541.855 259.01 542.439 259.01 L 552.177 259.01 C 552.763 259.01 553.273 258.898 553.628 258.541 C 553.985 258.186 554.082 257.691 554.082 257.106 L 554.082 247.309 C 554.082 246.723 553.984 246.229 553.629 245.873 C 553.273 245.518 552.763 245.404 552.179 245.404 L 542.439 245.404 L 542.439 245.404 Z M 542.439 246.341 L 552.177 246.341 C 552.651 246.341 552.856 246.434 552.954 246.532 C 553.048 246.63 553.142 246.834 553.142 247.308 L 553.142 257.106 C 553.142 257.578 553.049 257.784 552.951 257.883 C 552.854 257.981 552.648 258.073 552.175 258.073 L 542.437 258.073 C 541.963 258.073 541.758 257.98 541.661 257.883 C 541.561 257.784 541.47 257.578 541.47 257.106 L 541.47 247.308 C 541.47 246.835 541.561 246.63 541.661 246.532 C 541.758 246.434 541.963 246.341 542.437 246.341 L 542.439 246.341 Z" style="fill: rgb(30, 30, 30);" transform="matrix(0.965926, -0.258819, 0.258819, 0.965926, -46.626899, 150.247637)"/>
  <path id="path19" d="M 555.487 240.861 C 554.902 240.861 554.393 240.975 554.038 241.331 C 553.683 241.686 553.584 242.181 553.584 242.766 L 553.584 252.563 C 553.584 253.148 553.683 253.643 554.038 253.999 C 554.393 254.355 554.903 254.468 555.487 254.468 L 573.034 254.468 C 573.619 254.468 574.128 254.355 574.484 253.999 C 574.839 253.643 574.938 253.148 574.938 252.563 L 574.938 242.766 C 574.938 242.181 574.839 241.686 574.484 241.331 C 574.128 240.975 573.619 240.861 573.034 240.861 L 555.487 240.861 Z M 555.487 241.798 L 573.034 241.798 C 573.507 241.798 573.727 241.891 573.824 241.989 C 573.922 242.088 574 242.293 574 242.766 L 574 252.563 C 574 253.036 573.922 253.242 573.824 253.34 C 573.727 253.438 573.506 253.53 573.034 253.53 L 555.487 253.53 C 555.014 253.53 554.795 253.438 554.697 253.34 C 554.599 253.242 554.522 253.035 554.522 252.563 L 554.522 242.766 C 554.522 242.293 554.599 242.088 554.697 241.989 C 554.795 241.891 555.015 241.798 555.487 241.798 Z" style="fill: rgb(30, 30, 30);" transform="matrix(0.965926, -0.258819, 0.258819, 0.965926, -44.873595, 154.480678)"/>
  <path id="path21" d="M 528.306 249.193 C 527.721 249.193 527.211 249.306 526.856 249.662 C 526.5 250.018 526.402 250.512 526.402 251.097 L 526.402 260.895 C 526.402 261.48 526.5 261.974 526.856 262.33 C 527.212 262.687 527.72 262.799 528.306 262.799 L 538.03 262.799 C 538.616 262.799 539.125 262.687 539.48 262.33 C 539.836 261.974 539.935 261.48 539.935 260.895 L 539.935 251.097 C 539.935 250.512 539.836 250.018 539.48 249.662 C 539.125 249.306 538.616 249.193 538.03 249.193 L 528.306 249.193 Z M 528.306 250.13 L 538.03 250.13 C 538.504 250.13 538.724 250.223 538.822 250.321 C 538.919 250.419 538.997 250.623 538.997 251.097 L 538.997 260.895 C 538.997 261.368 538.919 261.573 538.822 261.672 C 538.724 261.77 538.504 261.862 538.03 261.862 L 528.306 261.862 C 527.833 261.862 527.613 261.769 527.514 261.672 C 527.417 261.573 527.338 261.367 527.338 260.895 L 527.338 251.097 C 527.338 250.624 527.417 250.419 527.514 250.321 C 527.613 250.223 527.833 250.13 528.306 250.13 Z" style="fill: rgb(30, 30, 30);" transform="matrix(0.965926, -0.258819, 0.258819, 0.965926, -48.089347, 146.716882)"/>
  <path id="path23" d="M 514.158 252.981 C 513.574 252.981 513.064 253.095 512.708 253.451 C 512.353 253.806 512.255 254.301 512.255 254.886 L 512.255 264.684 C 512.255 265.269 512.353 265.763 512.708 266.119 C 513.065 266.475 513.575 266.588 514.158 266.588 L 523.898 266.588 C 524.483 266.588 524.993 266.475 525.348 266.119 C 525.703 265.763 525.802 265.269 525.802 264.684 L 525.802 254.886 C 525.802 254.301 525.703 253.806 525.348 253.451 C 524.992 253.095 524.482 252.981 523.898 252.981 L 514.158 252.981 Z M 514.158 253.919 L 523.898 253.919 C 524.371 253.919 524.576 254.011 524.674 254.11 C 524.772 254.208 524.865 254.413 524.865 254.886 L 524.865 264.684 C 524.865 265.157 524.772 265.362 524.674 265.461 C 524.576 265.558 524.371 265.65 523.898 265.65 L 514.158 265.65 C 513.686 265.65 513.481 265.558 513.383 265.461 C 513.284 265.362 513.192 265.156 513.192 264.684 L 513.192 254.886 C 513.192 254.413 513.284 254.208 513.383 254.11 C 513.481 254.011 513.686 253.919 514.158 253.919 Z" style="fill: rgb(30, 30, 30);" transform="matrix(0.965926, -0.258819, 0.258819, 0.965926, -49.551753, 143.186605)"/>
  <path id="path25" d="M 500.026 256.77 C 499.441 256.77 498.931 256.884 498.576 257.24 C 498.221 257.595 498.122 258.09 498.122 258.675 L 498.122 268.473 C 498.122 269.058 498.221 269.552 498.576 269.908 C 498.931 270.264 499.441 270.377 500.026 270.377 L 509.751 270.377 C 510.336 270.377 510.845 270.264 511.201 269.908 C 511.556 269.553 511.655 269.058 511.655 268.473 L 511.655 258.675 C 511.655 258.09 511.556 257.595 511.201 257.24 C 510.845 256.884 510.335 256.77 509.751 256.77 L 500.026 256.77 Z M 500.026 257.708 L 509.751 257.708 C 510.224 257.708 510.444 257.8 510.542 257.899 C 510.639 257.997 510.717 258.202 510.717 258.675 L 510.717 268.473 C 510.717 268.946 510.639 269.151 510.542 269.25 C 510.444 269.347 510.223 269.439 509.751 269.439 L 500.026 269.439 C 499.553 269.439 499.333 269.347 499.235 269.25 C 499.137 269.151 499.06 268.945 499.06 268.473 L 499.06 258.675 C 499.06 258.202 499.137 257.997 499.235 257.899 C 499.333 257.8 499.554 257.708 500.026 257.708 Z" style="fill: rgb(30, 30, 30);" transform="matrix(0.965926, -0.258819, 0.258819, 0.965926, -51.014153, 139.655682)"/>
  <path id="path27" d="M 485.879 260.559 C 485.294 260.559 484.784 260.673 484.429 261.028 C 484.074 261.384 483.975 261.879 483.975 262.464 L 483.975 272.261 C 483.975 272.846 484.074 273.341 484.429 273.696 C 484.784 274.053 485.293 274.165 485.879 274.165 L 495.618 274.165 C 496.203 274.165 496.698 274.053 497.054 273.696 C 497.409 273.341 497.522 272.846 497.522 272.261 L 497.522 262.464 C 497.522 261.879 497.409 261.384 497.054 261.028 C 496.698 260.673 496.203 260.559 495.618 260.559 L 485.879 260.559 Z M 485.879 261.496 L 495.618 261.496 C 496.091 261.496 496.297 261.589 496.394 261.687 C 496.492 261.785 496.585 261.991 496.585 262.464 L 496.585 272.261 C 496.585 272.734 496.492 272.939 496.394 273.038 C 496.296 273.136 496.09 273.228 495.617 273.228 L 485.877 273.228 C 485.404 273.228 485.2 273.136 485.101 273.038 C 485.003 272.939 484.911 272.735 484.911 272.262 L 484.911 262.464 C 484.911 261.991 485.003 261.785 485.101 261.688 C 485.199 261.59 485.404 261.498 485.877 261.498 L 485.879 261.496 Z" style="fill: rgb(30, 30, 30);" transform="matrix(0.965926, -0.258819, 0.258819, 0.965926, -52.476502, 136.125083)"/>
  <path id="path29" d="M 471.746 264.348 C 471.161 264.348 470.651 264.461 470.296 264.817 C 469.94 265.172 469.842 265.667 469.842 266.252 L 469.842 276.05 C 469.842 276.635 469.94 277.129 470.296 277.485 C 470.651 277.841 471.161 277.954 471.746 277.954 L 481.471 277.954 C 482.055 277.954 482.565 277.841 482.92 277.485 C 483.276 277.129 483.374 276.635 483.374 276.05 L 483.374 266.252 C 483.374 265.667 483.276 265.172 482.92 264.817 C 482.565 264.461 482.056 264.348 481.471 264.348 L 471.746 264.348 Z M 471.746 265.285 L 481.471 265.285 C 481.943 265.285 482.163 265.378 482.262 265.476 C 482.36 265.574 482.438 265.779 482.438 266.252 L 482.438 276.05 C 482.438 276.523 482.36 276.728 482.262 276.827 C 482.163 276.924 481.943 277.017 481.471 277.017 L 471.746 277.017 C 471.273 277.017 471.053 276.924 470.955 276.827 C 470.857 276.728 470.779 276.522 470.779 276.05 L 470.779 266.252 C 470.779 265.779 470.857 265.574 470.955 265.476 C 471.053 265.378 471.273 265.285 471.746 265.285 Z" style="fill: rgb(30, 30, 30);" transform="matrix(0.965926, -0.258819, 0.258819, 0.965926, -53.938971, 132.59428)"/>
  <path id="path31" d="M 457.599 268.137 C 457.014 268.137 456.505 268.25 456.149 268.606 C 455.794 268.961 455.695 269.456 455.695 270.041 L 455.695 279.839 C 455.695 280.424 455.794 280.918 456.149 281.274 C 456.505 281.63 457.014 281.743 457.599 281.743 L 467.338 281.743 C 467.923 281.743 468.418 281.63 468.774 281.274 C 469.13 280.918 469.243 280.424 469.243 279.839 L 469.243 270.041 C 469.243 269.456 469.13 268.961 468.774 268.606 C 468.418 268.25 467.923 268.137 467.338 268.137 L 457.599 268.137 Z M 457.599 269.074 L 467.338 269.074 C 467.811 269.074 468.017 269.167 468.114 269.265 C 468.213 269.363 468.305 269.568 468.305 270.041 L 468.305 279.839 C 468.305 280.312 468.212 280.517 468.114 280.616 C 468.017 280.714 467.811 280.806 467.338 280.806 L 457.599 280.806 C 457.126 280.806 456.921 280.713 456.823 280.616 C 456.725 280.517 456.633 280.311 456.633 279.839 L 456.633 270.041 C 456.633 269.568 456.726 269.363 456.823 269.265 C 456.921 269.167 457.126 269.074 457.599 269.074 Z" style="fill: rgb(30, 30, 30);" transform="matrix(0.965926, -0.258819, 0.258819, 0.965926, -55.401432, 129.064026)"/>
  <path id="path33" d="M 443.452 271.927 C 442.867 271.927 442.372 272.041 442.017 272.397 C 441.661 272.752 441.548 273.247 441.548 273.832 L 441.548 283.629 C 441.548 284.214 441.661 284.709 442.017 285.065 C 442.372 285.421 442.867 285.534 443.452 285.534 L 453.191 285.534 C 453.776 285.534 454.286 285.421 454.641 285.065 C 454.997 284.709 455.095 284.214 455.095 283.629 L 455.095 273.832 C 455.095 273.247 454.997 272.752 454.641 272.397 C 454.286 272.041 453.777 271.927 453.191 271.927 L 443.452 271.927 Z M 443.452 272.865 L 453.191 272.865 C 453.664 272.865 453.884 272.957 453.982 273.055 C 454.08 273.154 454.158 273.359 454.158 273.832 L 454.158 283.629 C 454.158 284.102 454.08 284.308 453.982 284.406 C 453.885 284.504 453.664 284.596 453.191 284.596 L 443.452 284.596 C 442.98 284.596 442.774 284.504 442.676 284.406 C 442.578 284.308 442.486 284.101 442.486 283.629 L 442.486 273.832 C 442.486 273.359 442.579 273.154 442.676 273.055 C 442.774 272.957 442.98 272.865 443.452 272.865 Z" style="fill: rgb(30, 30, 30);" transform="matrix(0.965926, -0.258819, 0.258819, 0.965926, -56.864634, 125.531843)"/>
  <path id="path35" d="M 429.319 275.714 C 428.734 275.714 428.225 275.828 427.869 276.184 C 427.513 276.539 427.415 277.034 427.415 277.619 L 427.415 287.416 C 427.415 288.001 427.513 288.496 427.869 288.852 C 428.225 289.208 428.734 289.321 429.319 289.321 L 439.058 289.321 C 439.643 289.321 440.138 289.208 440.493 288.852 C 440.85 288.496 440.962 288.001 440.962 287.416 L 440.962 277.619 C 440.962 277.034 440.85 276.539 440.493 276.184 C 440.138 275.828 439.643 275.714 439.058 275.714 L 429.319 275.714 Z M 429.319 276.652 L 439.058 276.652 C 439.531 276.652 439.736 276.744 439.834 276.842 C 439.933 276.941 440.025 277.146 440.025 277.619 L 440.025 287.416 C 440.025 287.889 439.933 288.095 439.834 288.193 C 439.736 288.291 439.531 288.383 439.058 288.383 L 429.319 288.383 C 428.847 288.383 428.627 288.291 428.528 288.193 C 428.43 288.095 428.353 287.888 428.353 287.416 L 428.353 277.619 C 428.353 277.146 428.43 276.941 428.528 276.842 C 428.626 276.744 428.846 276.652 429.319 276.652 Z" style="fill: rgb(30, 30, 30);" transform="matrix(0.965926, -0.258819, 0.258819, 0.965926, -58.32633, 122.002908)"/>
  <path id="path37" d="M 415.172 279.505 C 414.587 279.505 414.092 279.618 413.737 279.974 C 413.381 280.33 413.268 280.824 413.268 281.41 L 413.268 291.207 C 413.268 291.792 413.381 292.287 413.737 292.642 C 414.092 292.998 414.587 293.111 415.172 293.111 L 424.911 293.111 C 425.496 293.111 426.006 292.999 426.361 292.642 C 426.717 292.287 426.815 291.792 426.815 291.207 L 426.815 281.41 C 426.815 280.825 426.717 280.33 426.361 279.974 C 426.006 279.618 425.496 279.505 424.911 279.505 L 415.172 279.505 Z M 415.172 280.442 L 424.911 280.442 C 425.384 280.442 425.589 280.535 425.687 280.633 C 425.785 280.731 425.878 280.937 425.878 281.41 L 425.878 291.207 C 425.878 291.68 425.785 291.885 425.687 291.984 C 425.589 292.082 425.384 292.174 424.911 292.174 L 415.172 292.174 C 414.7 292.174 414.494 292.081 414.395 291.984 C 414.298 291.885 414.205 291.679 414.205 291.207 L 414.205 281.41 C 414.205 280.937 414.298 280.731 414.395 280.633 C 414.494 280.535 414.7 280.442 415.172 280.442 Z" style="fill: rgb(30, 30, 30);" transform="matrix(0.965926, -0.258819, 0.258819, 0.965926, -59.789425, 118.470548)"/>
  <path id="path39" d="M 401.04 283.293 C 400.455 283.293 399.945 283.407 399.59 283.763 C 399.234 284.118 399.136 284.613 399.136 285.198 L 399.136 294.996 C 399.136 295.581 399.234 296.075 399.59 296.431 C 399.945 296.787 400.455 296.9 401.04 296.9 L 410.765 296.9 C 411.35 296.9 411.859 296.787 412.215 296.431 C 412.571 296.075 412.669 295.581 412.669 294.996 L 412.669 285.198 C 412.669 284.613 412.571 284.118 412.215 283.763 C 411.859 283.407 411.35 283.293 410.765 283.293 L 401.04 283.293 Z M 401.04 284.231 L 410.765 284.231 C 411.238 284.231 411.458 284.323 411.556 284.422 C 411.654 284.52 411.731 284.725 411.731 285.198 L 411.731 294.996 C 411.731 295.469 411.653 295.674 411.556 295.773 C 411.458 295.87 411.238 295.962 410.765 295.962 L 401.04 295.962 C 400.567 295.962 400.346 295.87 400.249 295.773 C 400.158 295.674 400.08 295.469 400.08 294.996 L 400.08 285.198 C 400.08 284.725 400.158 284.52 400.255 284.422 C 400.354 284.323 400.574 284.231 401.046 284.231 L 401.04 284.231 Z" style="fill: rgb(30, 30, 30);" transform="matrix(0.965926, -0.258819, 0.258819, 0.965926, -61.251644, 114.939926)"/>
  <path id="path41" d="M 386.894 287.082 C 386.309 287.082 385.814 287.195 385.459 287.551 C 385.103 287.907 384.99 288.402 384.99 288.987 L 384.99 298.784 C 384.99 299.369 385.103 299.864 385.459 300.219 C 385.814 300.576 386.309 300.688 386.894 300.688 L 396.633 300.688 C 397.218 300.688 397.727 300.576 398.083 300.219 C 398.439 299.864 398.537 299.369 398.537 298.784 L 398.537 288.987 C 398.537 288.402 398.439 287.907 398.083 287.551 C 397.727 287.195 397.218 287.082 396.633 287.082 L 386.894 287.082 Z M 386.894 288.019 L 396.633 288.019 C 397.106 288.019 397.311 288.112 397.41 288.21 C 397.507 288.308 397.6 288.514 397.6 288.987 L 397.6 298.784 C 397.6 299.257 397.507 299.462 397.41 299.561 C 397.311 299.659 397.106 299.751 396.633 299.751 L 386.894 299.751 C 386.421 299.751 386.216 299.658 386.118 299.561 C 386.02 299.463 385.927 299.258 385.927 298.784 L 385.927 288.987 C 385.927 288.514 386.02 288.308 386.118 288.21 C 386.216 288.112 386.421 288.02 386.894 288.019 L 386.894 288.019 Z" style="fill: rgb(30, 30, 30);" transform="matrix(0.965926, -0.258819, 0.258819, 0.965926, -62.714082, 111.409904)"/>
  <path id="path43" d="M 372.761 290.87 C 372.177 290.87 371.667 290.984 371.312 291.34 C 370.956 291.695 370.858 292.19 370.858 292.775 L 370.858 302.573 C 370.858 303.158 370.956 303.653 371.312 304.008 C 371.667 304.364 372.177 304.477 372.761 304.477 L 382.486 304.477 C 383.071 304.477 383.581 304.364 383.936 304.008 C 384.188 303.756 384.295 303.42 384.346 303.042 L 384.39 303.042 L 384.39 302.573 L 384.39 292.775 C 384.39 292.19 384.292 291.695 383.936 291.34 C 383.581 290.984 383.071 290.87 382.486 290.87 L 372.761 290.87 Z M 372.761 291.808 L 382.486 291.808 C 382.959 291.808 383.179 291.9 383.277 291.999 C 383.375 292.097 383.452 292.302 383.452 292.775 L 383.452 302.104 L 383.452 302.573 C 383.452 303.046 383.375 303.251 383.277 303.35 C 383.179 303.447 382.959 303.54 382.486 303.54 L 372.761 303.54 C 372.289 303.54 372.069 303.447 371.971 303.35 C 371.873 303.252 371.796 303.045 371.796 302.573 L 371.796 292.775 C 371.796 292.302 371.873 292.097 371.971 291.999 C 372.069 291.9 372.289 291.808 372.761 291.808 Z" style="fill: rgb(30, 30, 30);" transform="matrix(0.965926, -0.258819, 0.258819, 0.965926, -64.176301, 107.879177)"/>
  <path id="path45" d="M 384.441 302.826 C 383.856 302.826 383.347 302.94 382.991 303.295 C 382.635 303.651 382.537 304.146 382.537 304.73 L 382.537 314.528 C 382.537 315.113 382.635 315.608 382.991 315.964 C 383.347 316.32 383.856 316.432 384.441 316.432 L 394.18 316.432 C 394.765 316.432 395.26 316.319 395.615 315.964 C 395.971 315.608 396.084 315.113 396.084 314.528 L 396.084 304.73 C 396.084 304.146 395.971 303.651 395.615 303.295 C 395.26 302.94 394.765 302.826 394.18 302.826 L 384.441 302.826 Z M 384.441 303.764 L 394.18 303.764 C 394.653 303.764 394.858 303.856 394.957 303.953 C 395.054 304.051 395.147 304.257 395.147 304.729 L 395.147 314.527 C 395.147 315 395.054 315.206 394.957 315.304 C 394.858 315.402 394.653 315.494 394.18 315.494 L 384.441 315.494 C 383.968 315.494 383.763 315.402 383.665 315.304 C 383.567 315.195 383.474 314.99 383.474 314.521 L 383.474 304.723 C 383.474 304.251 383.567 304.045 383.665 303.946 C 383.763 303.848 383.968 303.756 384.441 303.756 L 384.441 303.764 Z" style="fill: rgb(30, 30, 30);" transform="matrix(0.965926, -0.258819, 0.258819, 0.965926, -66.87241, 111.311227)"/>
  <path id="path47" d="M 361.823 307.689 C 361.239 307.689 360.73 307.803 360.373 308.159 C 360.017 308.515 359.92 309.007 359.92 309.592 L 359.92 319.39 C 359.92 319.975 360.018 320.47 360.373 320.826 C 360.729 321.182 361.239 321.295 361.823 321.295 L 380.497 321.295 C 381.082 321.295 381.592 321.182 381.947 320.826 C 382.302 320.47 382.401 319.975 382.401 319.39 L 382.401 318.922 L 382.401 309.592 C 382.401 309.008 382.302 308.513 381.947 308.158 C 381.591 307.802 381.082 307.688 380.497 307.688 L 361.823 307.688 L 361.823 307.689 Z M 361.823 308.627 L 380.497 308.627 C 380.97 308.627 381.175 308.72 381.273 308.816 C 381.372 308.915 381.464 309.121 381.464 309.593 L 381.464 319.391 C 381.464 319.864 381.372 320.07 381.273 320.167 C 381.176 320.265 380.97 320.358 380.497 320.358 L 361.823 320.358 C 361.351 320.358 361.146 320.265 361.047 320.167 C 360.949 320.059 360.857 319.853 360.857 319.384 L 360.857 309.587 C 360.857 309.114 360.949 308.908 361.047 308.81 C 361.145 308.712 361.351 308.62 361.823 308.62 L 361.823 308.627 Z" style="fill: rgb(30, 30, 30);" transform="matrix(0.965926, -0.258819, 0.258819, 0.965926, -68.74933, 106.779287)"/>
  <path id="path49" d="M 398.446 299.073 C 397.862 299.073 397.367 299.187 397.011 299.543 C 396.656 299.898 396.542 300.394 396.542 300.978 L 396.542 310.776 C 396.542 311.361 396.656 311.855 397.011 312.211 C 397.367 312.567 397.862 312.68 398.446 312.68 L 408.186 312.68 C 408.771 312.68 409.28 312.567 409.636 312.211 C 409.991 311.856 410.09 311.361 410.09 310.776 L 410.09 310.307 L 410.089 300.978 C 410.089 300.394 409.991 299.898 409.636 299.543 C 409.28 299.187 408.77 299.073 408.186 299.073 L 398.446 299.073 Z M 398.446 300.011 L 408.186 300.011 C 408.659 300.011 408.879 300.104 408.977 300.201 C 409.075 300.299 409.152 300.505 409.152 300.977 L 409.152 310.775 C 409.152 311.248 409.074 311.454 408.977 311.551 C 408.878 311.649 408.659 311.742 408.186 311.742 L 398.446 311.742 C 397.974 311.742 397.769 311.649 397.67 311.551 C 397.572 311.454 397.48 311.248 397.48 310.775 L 397.48 300.977 C 397.48 300.505 397.573 300.299 397.67 300.201 C 397.769 300.104 397.974 300.011 398.446 300.011 Z" style="fill: rgb(30, 30, 30);" transform="matrix(0.965926, -0.258819, 0.258819, 0.965926, -65.423934, 114.808177)"/>
  <path id="path51" d="M 412.466 295.317 C 411.881 295.317 411.372 295.431 411.016 295.786 C 410.661 296.142 410.562 296.638 410.562 297.221 L 410.562 307.02 C 410.562 307.604 410.661 308.099 411.016 308.455 C 411.372 308.811 411.881 308.923 412.466 308.923 L 422.205 308.923 C 422.79 308.923 423.285 308.81 423.64 308.455 C 423.996 308.099 424.109 307.604 424.109 307.02 L 424.109 297.221 C 424.109 296.637 423.996 296.142 423.64 295.786 C 423.285 295.431 422.79 295.317 422.205 295.317 L 412.466 295.317 Z M 412.466 296.255 L 422.205 296.255 C 422.678 296.255 422.883 296.347 422.982 296.444 C 423.079 296.542 423.172 296.749 423.172 297.221 L 423.172 307.019 C 423.172 307.492 423.079 307.697 422.982 307.795 C 422.883 307.893 422.678 307.985 422.205 307.985 L 412.466 307.985 C 411.993 307.985 411.773 307.893 411.675 307.795 C 411.577 307.697 411.5 307.492 411.5 307.019 L 411.5 297.221 C 411.5 296.749 411.578 296.542 411.675 296.444 C 411.773 296.347 411.993 296.255 412.466 296.255 Z" style="fill: rgb(30, 30, 30);" transform="matrix(0.965926, -0.258819, 0.258819, 0.965926, -63.974084, 118.308964)"/>
  <path id="path53" d="M 426.473 291.563 C 425.888 291.563 425.393 291.677 425.038 292.033 C 424.682 292.388 424.569 292.884 424.569 293.468 L 424.569 303.266 C 424.569 303.851 424.682 304.346 425.038 304.701 C 425.393 305.057 425.888 305.17 426.473 305.17 L 436.212 305.17 C 436.797 305.17 437.307 305.057 437.662 304.701 C 438.018 304.346 438.116 303.851 438.116 303.266 L 438.116 293.468 C 438.116 292.884 438.018 292.388 437.662 292.033 C 437.306 291.677 436.797 291.563 436.212 291.563 L 426.473 291.563 Z M 426.473 292.501 L 436.212 292.501 C 436.685 292.501 436.89 292.594 436.989 292.691 C 437.087 292.789 437.179 292.995 437.179 293.467 L 437.179 303.265 C 437.179 303.738 437.086 303.944 436.989 304.042 C 436.89 304.139 436.685 304.232 436.212 304.232 L 426.473 304.232 C 426.001 304.232 425.795 304.139 425.696 304.042 C 425.599 303.944 425.506 303.738 425.506 303.265 L 425.506 293.467 C 425.506 292.995 425.599 292.789 425.696 292.691 C 425.795 292.594 426 292.501 426.473 292.501 Z" style="fill: rgb(30, 30, 30);" transform="matrix(0.965926, -0.258819, 0.258819, 0.965926, -62.525234, 121.806066)"/>
  <path id="path55" d="M 440.488 287.81 C 439.904 287.81 439.393 287.924 439.038 288.279 C 438.683 288.635 438.584 289.131 438.584 289.714 L 438.584 299.513 C 438.584 300.097 438.683 300.592 439.038 300.948 C 439.394 301.304 439.904 301.416 440.488 301.416 L 450.213 301.416 C 450.798 301.416 451.307 301.303 451.663 300.948 C 452.018 300.592 452.117 300.097 452.117 299.513 L 452.117 289.714 C 452.117 289.13 452.018 288.635 451.663 288.279 C 451.307 287.924 450.798 287.81 450.213 287.81 L 440.488 287.81 Z M 440.488 288.748 L 450.213 288.748 C 450.686 288.748 450.906 288.841 451.004 288.937 C 451.102 289.035 451.179 289.242 451.179 289.714 L 451.179 299.512 C 451.179 299.985 451.101 300.19 451.004 300.288 C 450.906 300.386 450.686 300.479 450.213 300.479 L 440.488 300.479 C 440.015 300.479 439.796 300.386 439.697 300.288 C 439.6 300.19 439.522 299.985 439.522 299.512 L 439.522 289.714 C 439.522 289.242 439.6 289.036 439.697 288.937 C 439.795 288.841 440.015 288.748 440.488 288.748 Z" style="fill: rgb(30, 30, 30);" transform="matrix(0.965926, -0.258819, 0.258819, 0.965926, -61.076438, 125.30371)"/>
  <path id="path57" d="M 454.494 284.055 C 453.91 284.055 453.415 284.169 453.059 284.524 C 452.703 284.88 452.59 285.376 452.59 285.959 L 452.59 295.758 C 452.59 296.342 452.703 296.837 453.059 297.193 C 453.415 297.549 453.91 297.661 454.494 297.661 L 464.234 297.661 C 464.819 297.661 465.328 297.548 465.683 297.193 C 466.039 296.838 466.137 296.342 466.137 295.758 L 466.137 285.959 C 466.137 285.375 466.039 284.88 465.683 284.524 C 465.328 284.169 464.818 284.055 464.234 284.055 L 454.494 284.055 Z M 454.494 284.993 L 464.234 284.993 C 464.706 284.993 464.912 285.086 465.01 285.182 C 465.107 285.281 465.2 285.487 465.2 285.959 L 465.2 295.757 C 465.2 296.23 465.107 296.435 465.01 296.533 C 464.912 296.631 464.706 296.724 464.234 296.724 L 454.494 296.724 C 454.021 296.724 453.817 296.631 453.718 296.533 C 453.62 296.435 453.528 296.23 453.528 295.757 L 453.528 285.959 C 453.528 285.487 453.62 285.281 453.718 285.182 C 453.816 285.086 454.021 284.993 454.494 284.993 Z" style="fill: rgb(30, 30, 30);" transform="matrix(0.965926, -0.258819, 0.258819, 0.965926, -59.627126, 128.802664)"/>
  <path id="path59" d="M 468.515 280.301 C 467.93 280.301 467.42 280.415 467.065 280.77 C 466.709 281.125 466.611 281.621 466.611 282.205 L 466.611 292.003 C 466.611 292.588 466.709 293.083 467.065 293.439 C 467.421 293.795 467.93 293.907 468.515 293.907 L 478.24 293.907 C 478.824 293.907 479.334 293.794 479.689 293.439 C 480.045 293.083 480.143 292.588 480.143 292.003 L 480.143 282.205 C 480.143 281.621 480.045 281.125 479.689 280.77 C 479.333 280.415 478.824 280.301 478.24 280.301 L 468.515 280.301 Z M 468.515 281.238 L 478.24 281.238 C 478.712 281.238 478.932 281.331 479.03 281.428 C 479.129 281.526 479.206 281.732 479.206 282.204 L 479.206 292.002 C 479.206 292.475 479.128 292.681 479.03 292.779 C 478.932 292.877 478.712 292.969 478.24 292.969 L 468.515 292.969 C 468.042 292.969 467.822 292.877 467.724 292.779 C 467.626 292.681 467.548 292.475 467.548 292.002 L 467.548 282.204 C 467.548 281.732 467.626 281.526 467.724 281.428 C 467.822 281.331 468.042 281.238 468.515 281.238 Z" style="fill: rgb(30, 30, 30);" transform="matrix(0.965926, -0.258819, 0.258819, 0.965926, -58.177995, 132.301624)"/>
  <path id="path61" d="M 482.52 276.546 C 481.936 276.546 481.426 276.66 481.071 277.015 C 480.715 277.37 480.617 277.866 480.617 278.45 L 480.617 288.248 C 480.617 288.833 480.715 289.328 481.071 289.684 C 481.426 290.04 481.936 290.152 482.52 290.152 L 492.26 290.152 C 492.845 290.152 493.354 290.039 493.71 289.684 C 494.066 289.328 494.164 288.833 494.164 288.248 L 494.164 278.45 C 494.164 277.866 494.066 277.37 493.71 277.015 C 493.354 276.66 492.845 276.546 492.26 276.546 L 482.52 276.546 Z M 482.52 277.484 L 492.26 277.484 C 492.732 277.484 492.938 277.576 493.036 277.673 C 493.134 277.771 493.227 277.977 493.227 278.449 L 493.227 288.247 C 493.227 288.72 493.134 288.926 493.036 289.024 C 492.938 289.122 492.732 289.214 492.26 289.214 L 482.52 289.214 C 482.048 289.214 481.842 289.122 481.744 289.024 C 481.646 288.926 481.554 288.72 481.554 288.247 L 481.554 278.449 C 481.554 277.977 481.646 277.771 481.744 277.673 C 481.842 277.576 482.048 277.484 482.52 277.484 Z" style="fill: rgb(30, 30, 30);" transform="matrix(0.965926, -0.258819, 0.258819, 0.965926, -56.72874, 135.801022)"/>
  <path id="path63" d="M 496.541 272.791 C 495.957 272.791 495.447 272.905 495.091 273.26 C 494.736 273.616 494.637 274.111 494.637 274.695 L 494.637 284.493 C 494.637 285.078 494.736 285.573 495.091 285.929 C 495.447 286.285 495.957 286.397 496.541 286.397 L 506.266 286.397 C 506.85 286.397 507.36 286.284 507.716 285.929 C 508.072 285.573 508.17 285.078 508.17 284.493 L 508.17 274.695 C 508.17 274.111 508.072 273.616 507.716 273.26 C 507.36 272.905 506.851 272.791 506.266 272.791 L 496.541 272.791 Z M 496.541 273.729 L 506.266 273.729 C 506.739 273.729 506.959 273.821 507.057 273.918 C 507.155 274.016 507.233 274.222 507.233 274.694 L 507.233 284.492 C 507.233 284.965 507.155 285.171 507.057 285.269 C 506.958 285.367 506.739 285.459 506.266 285.459 L 496.541 285.459 C 496.069 285.459 495.849 285.367 495.75 285.269 C 495.653 285.171 495.575 284.965 495.575 284.492 L 495.575 274.694 C 495.575 274.222 495.653 274.016 495.75 273.918 C 495.849 273.821 496.069 273.729 496.541 273.729 Z" style="fill: rgb(30, 30, 30);" transform="matrix(0.965926, -0.258819, 0.258819, 0.965926, -55.279389, 139.299913)"/>
  <path id="path65" d="M 510.547 269.036 C 509.962 269.036 509.452 269.15 509.098 269.505 C 508.741 269.861 508.643 270.356 508.643 270.94 L 508.643 280.738 C 508.643 281.323 508.742 281.818 509.098 282.174 C 509.453 282.53 509.963 282.642 510.547 282.642 L 520.287 282.642 C 520.871 282.642 521.366 282.529 521.722 282.174 C 522.078 281.818 522.19 281.323 522.19 280.738 L 522.19 270.94 C 522.19 270.356 522.078 269.861 521.722 269.505 C 521.366 269.15 520.871 269.036 520.287 269.036 L 510.547 269.036 Z M 510.547 269.974 L 520.287 269.974 C 520.76 269.974 520.965 270.066 521.063 270.163 C 521.161 270.261 521.253 270.467 521.253 270.939 L 521.253 280.737 C 521.253 281.21 521.161 281.416 521.063 281.514 C 520.964 281.612 520.76 281.704 520.287 281.704 L 510.547 281.704 C 510.074 281.704 509.869 281.612 509.771 281.514 C 509.673 281.416 509.581 281.21 509.581 280.737 L 509.581 270.939 C 509.581 270.467 509.673 270.261 509.771 270.163 C 509.869 270.066 510.074 269.974 510.547 269.974 Z" style="fill: rgb(30, 30, 30);" transform="matrix(0.965926, -0.258819, 0.258819, 0.965926, -53.829963, 142.79848)"/>
  <path id="path67" d="M 524.562 265.282 C 523.978 265.282 523.468 265.396 523.113 265.752 C 522.758 266.107 522.659 266.603 522.659 267.187 L 522.659 276.985 C 522.659 277.57 522.757 278.064 523.113 278.42 C 523.468 278.776 523.978 278.889 524.562 278.889 L 534.288 278.889 C 534.873 278.889 535.383 278.776 535.737 278.42 C 536.093 278.064 536.192 277.57 536.192 276.985 L 536.192 267.187 C 536.192 266.603 536.093 266.107 535.737 265.752 C 535.382 265.396 534.873 265.282 534.288 265.282 L 524.562 265.282 Z M 524.562 266.22 L 534.288 266.22 C 534.761 266.22 534.981 266.313 535.079 266.41 C 535.176 266.508 535.254 266.714 535.254 267.186 L 535.254 276.984 C 535.254 277.457 535.176 277.663 535.079 277.76 C 534.981 277.858 534.761 277.951 534.288 277.951 L 524.562 277.951 C 524.09 277.951 523.869 277.858 523.772 277.76 C 523.673 277.663 523.596 277.457 523.596 276.984 L 523.596 267.186 C 523.596 266.714 523.673 266.508 523.772 266.41 C 523.869 266.313 524.09 266.22 524.562 266.22 Z" style="fill: rgb(30, 30, 30);" transform="matrix(0.965926, -0.258819, 0.258819, 0.965926, -52.38122, 146.296707)"/>
  <path id="path69" d="M 538.568 261.527 C 537.984 261.527 537.474 261.641 537.118 261.997 C 536.764 262.352 536.665 262.848 536.665 263.432 L 536.665 273.23 C 536.665 273.815 536.764 274.309 537.118 274.665 C 537.475 275.021 537.984 275.134 538.569 275.134 L 548.308 275.134 C 548.893 275.134 549.388 275.021 549.743 274.665 C 550.099 274.31 550.212 273.815 550.212 273.23 L 550.212 263.432 C 550.212 262.848 550.099 262.352 549.743 261.997 C 549.388 261.641 548.893 261.527 548.308 261.527 L 538.568 261.527 Z M 538.568 262.465 L 548.308 262.465 C 548.781 262.465 548.987 262.558 549.084 262.655 C 549.182 262.753 549.275 262.959 549.275 263.431 L 549.275 273.229 C 549.275 273.702 549.182 273.908 549.084 274.005 C 548.987 274.103 548.78 274.196 548.308 274.196 L 538.569 274.196 C 538.096 274.196 537.89 274.103 537.793 274.005 C 537.694 273.908 537.602 273.702 537.602 273.229 L 537.602 263.431 C 537.602 262.959 537.694 262.753 537.793 262.655 C 537.89 262.558 538.096 262.465 538.568 262.465 Z" style="fill: rgb(30, 30, 30);" transform="matrix(0.965926, -0.258819, 0.258819, 0.965926, -50.931804, 149.795245)"/>
  <path id="path71" stroke="#F4F4F4" stroke-width="1.9014" d="M 578.056 265.608" style="fill: rgb(30, 30, 30);" transform="matrix(0.965926, -0.258819, 0.258819, 0.965926, -49.047605, 158.662145)"/>
  <path id="path73" stroke="#F4F4F4" stroke-width="1.9014" d="M 579.877 268.041" style="fill: rgb(30, 30, 30);" transform="matrix(0.965926, -0.258819, 0.258819, 0.965926, -49.61532, 159.216719)"/>
  <path id="path75" d="M 553.625 255.732 C 553.039 255.732 552.53 255.846 552.174 256.201 C 551.819 256.557 551.721 257.052 551.721 257.636 L 551.721 267.434 C 551.721 268.019 551.819 268.514 552.174 268.87 C 552.53 269.226 553.04 269.338 553.625 269.338 C 554.37 269.338 554.756 269.411 554.84 269.47 C 554.882 269.5 554.91 269.515 554.943 269.631 C 554.975 269.746 554.986 269.95 554.986 270.246 L 554.986 281.465 C 554.986 282.051 555.099 282.56 555.455 282.915 C 555.81 283.27 556.306 283.369 556.891 283.369 L 578.273 283.369 C 578.858 283.369 579.367 283.27 579.722 282.915 C 580.075 282.563 580.174 282.058 580.176 281.48 C 580.176 281.474 580.176 281.47 580.176 281.465 L 580.265 257.652 L 580.265 257.637 C 580.265 257.052 580.152 256.557 579.796 256.201 C 579.44 255.846 578.945 255.733 578.361 255.733 L 553.625 255.733 L 553.625 255.732 Z M 553.625 256.67 L 578.361 256.67 C 578.834 256.67 579.039 256.762 579.137 256.859 C 579.235 256.957 579.328 257.163 579.328 257.635 L 579.239 281.465 C 579.239 281.937 579.162 282.157 579.064 282.255 C 578.966 282.353 578.746 282.43 578.273 282.43 L 556.891 282.43 C 556.418 282.43 556.212 282.353 556.115 282.255 C 556.021 282.157 555.927 281.937 555.927 281.463 L 555.927 270.245 C 555.927 269.908 555.914 269.627 555.839 269.366 C 555.764 269.105 555.612 268.85 555.385 268.693 C 554.93 268.374 554.397 268.399 553.628 268.399 C 553.155 268.399 552.95 268.307 552.852 268.209 C 552.754 268.111 552.661 267.905 552.661 267.433 L 552.661 257.634 C 552.661 257.162 552.754 256.956 552.852 256.858 C 552.95 256.761 553.155 256.668 553.628 256.668 L 553.625 256.67 Z" style="fill: rgb(30, 30, 30);" transform="matrix(0.965926, -0.258819, 0.258819, 0.965926, -50.479088, 155.674714)"/>
  <path id="path77" d="M 390.876 315.751 C 390.292 315.751 389.782 315.864 389.427 316.22 C 389.071 316.576 388.973 317.071 388.973 317.655 L 388.973 327.453 C 388.973 328.038 389.071 328.533 389.427 328.888 C 389.782 329.243 390.292 329.357 390.876 329.357 L 400.616 329.357 C 401.2 329.357 401.695 329.243 402.051 328.888 C 402.407 328.533 402.52 328.038 402.52 327.453 L 402.52 317.655 C 402.52 317.071 402.407 316.576 402.051 316.22 C 401.696 315.864 401.2 315.751 400.616 315.751 L 390.876 315.751 Z M 390.876 316.688 L 400.616 316.688 C 401.088 316.688 401.293 316.781 401.392 316.879 C 401.491 316.977 401.583 317.183 401.583 317.655 L 401.583 327.453 C 401.583 327.926 401.49 328.131 401.392 328.229 C 401.294 328.327 401.089 328.42 400.616 328.42 L 390.876 328.42 C 390.404 328.42 390.198 328.327 390.1 328.229 C 390.002 328.131 389.909 327.926 389.909 327.453 L 389.909 317.655 C 389.909 317.183 390.003 316.977 390.1 316.879 C 390.198 316.781 390.404 316.688 390.876 316.688 Z" style="fill: rgb(30, 30, 30);" transform="matrix(0.965926, -0.258819, 0.258819, 0.965926, -69.998346, 113.417392)"/>
  <path id="path79" d="M 365.222 320.914 C 364.638 320.914 364.143 321.027 363.788 321.383 C 363.432 321.738 363.319 322.234 363.319 322.818 L 363.319 332.616 C 363.319 333.201 363.432 333.695 363.788 334.051 C 364.143 334.406 364.638 334.52 365.222 334.52 L 387.733 334.52 C 388.318 334.52 388.813 334.406 389.169 334.051 C 389.525 333.695 389.638 333.2 389.638 332.616 L 389.638 322.818 C 389.638 322.234 389.525 321.738 389.169 321.383 C 388.813 321.027 388.318 320.914 387.733 320.914 L 365.222 320.914 Z M 365.222 321.851 L 387.733 321.851 C 388.206 321.851 388.412 321.944 388.509 322.042 C 388.608 322.14 388.7 322.345 388.7 322.818 L 388.7 332.616 C 388.7 333.089 388.608 333.294 388.509 333.392 C 388.412 333.49 388.206 333.583 387.733 333.583 L 365.222 333.583 C 364.75 333.583 364.545 333.49 364.447 333.392 C 364.349 333.294 364.257 333.088 364.257 332.616 L 364.257 322.818 C 364.257 322.345 364.349 322.14 364.447 322.042 C 364.545 321.939 364.75 321.849 365.222 321.849 L 365.222 321.851 Z" style="fill: rgb(30, 30, 30);" transform="matrix(0.965926, -0.258819, 0.258819, 0.965926, -71.991248, 108.606589)"/>
  <path id="path81" d="M 404.895 311.997 C 404.311 311.997 403.801 312.11 403.446 312.465 C 403.09 312.821 402.991 313.317 402.991 313.901 L 402.991 323.699 C 402.991 324.284 403.09 324.778 403.446 325.134 C 403.801 325.489 404.311 325.602 404.895 325.602 L 414.62 325.602 C 415.205 325.602 415.715 325.489 416.07 325.134 C 416.322 324.882 416.429 324.545 416.48 324.167 L 416.524 324.167 L 416.524 323.699 L 416.524 313.901 C 416.524 313.317 416.426 312.821 416.07 312.465 C 415.715 312.11 415.205 311.997 414.62 311.997 L 404.895 311.997 L 404.895 311.997 Z M 404.895 312.934 L 414.62 312.934 C 415.093 312.934 415.313 313.027 415.411 313.125 C 415.509 313.223 415.587 313.428 415.587 313.901 L 415.587 323.23 L 415.587 323.699 C 415.587 324.172 415.509 324.376 415.411 324.475 C 415.313 324.573 415.093 324.666 414.62 324.666 L 404.895 324.666 C 404.423 324.666 404.203 324.573 404.104 324.475 C 404.007 324.376 403.929 324.171 403.929 323.699 L 403.929 313.901 C 403.929 313.428 404.007 313.223 404.104 313.125 C 404.203 313.027 404.423 312.934 404.895 312.934 Z" style="fill: rgb(30, 30, 30);" transform="matrix(0.965926, -0.258819, 0.258819, 0.965926, -68.549161, 116.9157)"/>
  <path id="path83" d="M 418.899 308.243 C 418.314 308.243 417.804 308.356 417.449 308.711 C 417.093 309.067 416.995 309.563 416.995 310.147 L 416.995 319.945 C 416.995 320.53 417.093 321.024 417.449 321.38 C 417.804 321.735 418.314 321.848 418.899 321.848 L 428.638 321.848 C 429.223 321.848 429.718 321.735 430.073 321.38 C 430.429 321.024 430.542 320.529 430.542 319.945 L 430.542 310.147 C 430.542 309.563 430.429 309.067 430.073 308.711 C 429.718 308.356 429.223 308.243 428.638 308.243 L 418.899 308.243 Z M 418.899 309.18 L 428.638 309.18 C 429.111 309.18 429.316 309.273 429.414 309.371 C 429.512 309.469 429.604 309.674 429.604 310.147 L 429.604 319.945 C 429.604 320.418 429.512 320.622 429.414 320.721 C 429.316 320.819 429.111 320.912 428.638 320.912 L 418.899 320.912 C 418.426 320.912 418.221 320.819 418.123 320.721 C 418.025 320.622 417.932 320.417 417.932 319.945 L 417.932 310.147 C 417.932 309.674 418.025 309.469 418.123 309.371 C 418.22 309.273 418.426 309.18 418.899 309.18 Z" style="fill: rgb(30, 30, 30);" transform="matrix(0.965926, -0.258819, 0.258819, 0.965926, -67.10028, 120.414449)"/>
  <path id="path85" d="M 432.906 304.49 C 432.321 304.49 431.826 304.603 431.47 304.958 C 431.115 305.314 431.001 305.809 431.001 306.393 L 431.001 316.191 C 431.001 316.776 431.114 317.271 431.47 317.626 C 431.825 317.982 432.321 318.095 432.906 318.095 L 442.645 318.095 C 443.23 318.095 443.74 317.982 444.095 317.626 C 444.45 317.271 444.549 316.776 444.549 316.191 L 444.549 306.393 C 444.549 305.809 444.45 305.314 444.095 304.958 C 443.739 304.603 443.23 304.49 442.645 304.49 L 432.906 304.49 Z M 432.906 305.426 L 442.645 305.426 C 443.118 305.426 443.338 305.519 443.436 305.617 C 443.533 305.716 443.611 305.921 443.611 306.393 L 443.611 316.191 C 443.611 316.664 443.533 316.869 443.436 316.967 C 443.338 317.066 443.118 317.158 442.645 317.158 L 432.906 317.158 C 432.433 317.158 432.227 317.066 432.129 316.967 C 432.031 316.869 431.939 316.664 431.939 316.191 L 431.939 306.393 C 431.939 305.921 432.031 305.716 432.129 305.617 C 432.227 305.519 432.433 305.426 432.906 305.426 Z" style="fill: rgb(30, 30, 30);" transform="matrix(0.965926, -0.258819, 0.258819, 0.965926, -65.651642, 123.911649)"/>
  <path id="path87" d="M 446.926 300.733 C 446.341 300.733 445.831 300.846 445.476 301.202 C 445.12 301.557 445.022 302.053 445.022 302.637 L 445.022 312.435 C 445.022 313.02 445.12 313.514 445.476 313.87 C 445.831 314.225 446.341 314.339 446.926 314.339 L 456.665 314.339 C 457.249 314.339 457.744 314.225 458.1 313.87 C 458.455 313.514 458.569 313.019 458.569 312.435 L 458.569 302.637 C 458.569 302.053 458.456 301.557 458.1 301.202 C 457.745 300.846 457.25 300.733 456.665 300.733 L 446.926 300.733 Z M 446.926 301.67 L 456.665 301.67 C 457.137 301.67 457.343 301.763 457.441 301.861 C 457.539 301.959 457.631 302.164 457.631 302.637 L 457.631 312.435 C 457.631 312.908 457.538 313.113 457.441 313.211 C 457.343 313.309 457.138 313.402 456.665 313.402 L 446.926 313.402 C 446.453 313.402 446.233 313.309 446.135 313.211 C 446.037 313.113 445.959 312.907 445.959 312.435 L 445.959 302.637 C 445.959 302.164 446.037 301.959 446.135 301.861 C 446.233 301.763 446.453 301.67 446.926 301.67 Z" style="fill: rgb(30, 30, 30);" transform="matrix(0.965926, -0.258819, 0.258819, 0.965926, -64.201657, 127.412426)"/>
  <path id="path89" d="M 460.932 296.98 C 460.347 296.98 459.852 297.093 459.497 297.449 C 459.141 297.805 459.028 298.3 459.028 298.884 L 459.028 308.682 C 459.028 309.267 459.141 309.761 459.497 310.117 C 459.852 310.472 460.347 310.586 460.932 310.586 L 470.671 310.586 C 471.256 310.586 471.765 310.472 472.121 310.117 C 472.476 309.761 472.575 309.266 472.575 308.682 L 472.575 298.884 C 472.575 298.3 472.476 297.805 472.121 297.449 C 471.765 297.093 471.256 296.98 470.671 296.98 L 460.932 296.98 Z M 460.932 297.917 L 470.671 297.917 C 471.143 297.917 471.349 298.01 471.447 298.108 C 471.545 298.206 471.637 298.411 471.637 298.884 L 471.637 308.682 C 471.637 309.155 471.545 309.36 471.447 309.458 C 471.349 309.556 471.144 309.649 470.671 309.649 L 460.932 309.649 C 460.459 309.649 460.254 309.556 460.156 309.458 C 460.058 309.36 459.965 309.154 459.965 308.682 L 459.965 298.884 C 459.965 298.411 460.058 298.206 460.156 298.108 C 460.254 298.01 460.459 297.917 460.932 297.917 Z" style="fill: rgb(30, 30, 30);" transform="matrix(0.965926, -0.258819, 0.258819, 0.965926, -62.752968, 130.909269)"/>
  <path id="path91" d="M 474.952 293.225 C 474.367 293.225 473.858 293.338 473.502 293.694 C 473.146 294.05 473.048 294.545 473.048 295.129 L 473.048 304.927 C 473.048 305.512 473.146 306.006 473.502 306.362 C 473.858 306.717 474.368 306.831 474.952 306.831 L 484.677 306.831 C 485.261 306.831 485.771 306.717 486.126 306.362 C 486.482 306.006 486.581 305.512 486.581 304.927 L 486.581 295.129 C 486.581 294.545 486.482 294.05 486.126 293.694 C 485.771 293.338 485.261 293.225 484.677 293.225 L 474.952 293.225 Z M 474.952 294.162 L 484.677 294.162 C 485.149 294.162 485.369 294.255 485.468 294.353 C 485.565 294.451 485.643 294.656 485.643 295.129 L 485.643 304.927 C 485.643 305.4 485.565 305.605 485.468 305.703 C 485.369 305.801 485.149 305.894 484.677 305.894 L 474.952 305.894 C 474.48 305.894 474.259 305.801 474.161 305.703 C 474.063 305.605 473.985 305.399 473.985 304.927 L 473.985 295.129 C 473.985 294.656 474.063 294.451 474.161 294.353 C 474.259 294.255 474.479 294.162 474.952 294.162 Z" style="fill: rgb(30, 30, 30);" transform="matrix(0.965926, -0.258819, 0.258819, 0.965926, -61.303742, 134.40854)"/>
  <path id="path93" d="M 488.954 289.472 C 488.369 289.472 487.874 289.585 487.518 289.94 C 487.163 290.296 487.05 290.792 487.05 291.376 L 487.05 301.174 C 487.05 301.759 487.163 302.253 487.518 302.608 C 487.874 302.964 488.369 303.077 488.954 303.077 L 498.693 303.077 C 499.278 303.077 499.788 302.964 500.143 302.608 C 500.499 302.253 500.597 301.758 500.597 301.174 L 500.597 291.376 C 500.597 290.792 500.499 290.296 500.143 289.94 C 499.787 289.585 499.278 289.472 498.693 289.472 L 488.954 289.472 Z M 488.954 290.409 L 498.693 290.409 C 499.166 290.409 499.371 290.501 499.469 290.6 C 499.567 290.698 499.66 290.903 499.66 291.376 L 499.66 301.174 C 499.66 301.647 499.567 301.851 499.469 301.949 C 499.371 302.048 499.166 302.14 498.693 302.14 L 488.954 302.14 C 488.481 302.14 488.276 302.048 488.177 301.949 C 488.08 301.851 487.987 301.646 487.987 301.174 L 487.987 291.376 C 487.987 290.903 488.08 290.698 488.177 290.6 C 488.275 290.501 488.481 290.409 488.954 290.409 Z" style="fill: rgb(30, 30, 30);" transform="matrix(0.965926, -0.258819, 0.258819, 0.965926, -59.85482, 137.906112)"/>
  <path id="path95" d="M 502.974 285.717 C 502.389 285.717 501.879 285.83 501.524 286.185 C 501.169 286.541 501.069 287.037 501.069 287.621 L 501.069 297.419 C 501.069 298.004 501.169 298.498 501.524 298.853 C 501.88 299.209 502.389 299.322 502.974 299.322 L 512.698 299.322 C 513.284 299.322 513.793 299.209 514.148 298.853 C 514.504 298.498 514.602 298.003 514.602 297.419 L 514.602 287.621 C 514.602 287.037 514.504 286.541 514.148 286.185 C 513.793 285.83 513.283 285.717 512.698 285.717 L 502.974 285.717 Z M 502.974 286.654 L 512.698 286.654 C 513.172 286.654 513.392 286.746 513.489 286.845 C 513.587 286.943 513.665 287.148 513.665 287.621 L 513.665 297.419 C 513.665 297.892 513.587 298.096 513.489 298.195 C 513.392 298.293 513.171 298.385 512.698 298.385 L 502.974 298.385 C 502.501 298.385 502.281 298.293 502.183 298.195 C 502.085 298.096 502.007 297.891 502.007 297.419 L 502.007 287.621 C 502.007 287.148 502.085 286.943 502.183 286.845 C 502.281 286.746 502.501 286.654 502.974 286.654 Z" style="fill: rgb(30, 30, 30);" transform="matrix(0.965926, -0.258819, 0.258819, 0.965926, -58.405553, 141.404898)"/>
  <path id="path97" d="M 516.98 281.962 C 516.395 281.962 515.9 282.076 515.544 282.431 C 515.189 282.787 515.075 283.282 515.075 283.866 L 515.075 293.664 C 515.075 294.249 515.174 294.744 515.53 295.099 C 515.886 295.454 516.395 295.568 516.98 295.568 L 526.719 295.568 C 527.304 295.568 527.814 295.454 528.169 295.099 C 528.524 294.744 528.623 294.249 528.623 293.664 L 528.623 283.866 C 528.623 283.282 528.524 282.787 528.169 282.431 C 527.814 282.076 527.304 281.962 526.719 281.962 L 516.98 281.962 L 516.98 281.962 Z M 516.98 282.899 L 526.719 282.899 C 527.192 282.899 527.397 282.992 527.495 283.09 C 527.593 283.188 527.685 283.394 527.685 283.866 L 527.685 293.664 C 527.685 294.137 527.593 294.342 527.495 294.44 C 527.397 294.538 527.192 294.631 526.719 294.631 L 516.98 294.631 C 516.507 294.631 516.301 294.538 516.203 294.44 C 516.105 294.342 516.013 294.137 516.013 293.664 L 516.013 283.866 C 516.013 283.394 516.105 283.188 516.203 283.09 C 516.302 282.992 516.507 282.899 516.98 282.899 Z" style="fill: rgb(30, 30, 30);" transform="matrix(0.965926, -0.258819, 0.258819, 0.965926, -56.956282, 144.903773)"/>
  <path id="path99" d="M 531.001 278.207 C 530.416 278.207 529.905 278.321 529.55 278.676 C 529.195 279.032 529.096 279.527 529.096 280.111 L 529.096 289.909 C 529.096 290.494 529.195 290.989 529.551 291.344 C 529.906 291.699 530.416 291.813 531.001 291.813 L 540.725 291.813 C 541.31 291.813 541.819 291.699 542.175 291.344 C 542.531 290.989 542.63 290.494 542.63 289.909 L 542.629 280.111 C 542.629 279.527 542.531 279.032 542.175 278.676 C 541.819 278.321 541.31 278.207 540.725 278.207 L 531.001 278.207 Z M 531.001 279.144 L 540.725 279.144 C 541.198 279.144 541.418 279.237 541.516 279.335 C 541.614 279.434 541.692 279.639 541.692 280.111 L 541.692 289.909 C 541.692 290.382 541.614 290.587 541.516 290.685 C 541.418 290.783 541.198 290.876 540.725 290.876 L 531.001 290.876 C 530.527 290.876 530.308 290.783 530.21 290.685 C 530.112 290.587 530.034 290.382 530.034 289.909 L 530.034 280.111 C 530.034 279.639 530.112 279.434 530.21 279.335 C 530.308 279.237 530.527 279.144 531.001 279.144 Z" style="fill: rgb(30, 30, 30);" transform="matrix(0.965926, -0.258819, 0.258819, 0.965926, -55.50686, 148.40274)"/>
  <path id="path101" d="M 545.007 274.453 C 544.422 274.453 543.911 274.566 543.557 274.921 C 543.2 275.277 543.102 275.772 543.102 276.356 L 543.102 286.154 C 543.102 286.739 543.2 287.234 543.557 287.589 C 543.912 287.944 544.422 288.058 545.007 288.058 L 554.746 288.058 C 555.33 288.058 555.825 287.944 556.18 287.589 C 556.536 287.234 556.649 286.739 556.649 286.154 L 556.649 276.356 C 556.649 275.772 556.536 275.277 556.18 274.921 C 555.825 274.566 555.33 274.453 554.746 274.453 L 545.007 274.453 Z M 545.007 275.389 L 554.746 275.389 C 555.218 275.389 555.424 275.482 555.522 275.58 C 555.619 275.679 555.711 275.884 555.711 276.356 L 555.711 286.154 C 555.711 286.627 555.619 286.832 555.522 286.93 C 555.423 287.029 555.218 287.121 554.746 287.121 L 545.007 287.121 C 544.533 287.121 544.328 287.028 544.23 286.93 C 544.132 286.832 544.04 286.627 544.04 286.154 L 544.04 276.356 C 544.04 275.884 544.132 275.679 544.23 275.58 C 544.328 275.482 544.533 275.389 545.007 275.389 Z" style="fill: rgb(30, 30, 30);" transform="matrix(0.965926, -0.258819, 0.258819, 0.965926, -54.057773, 151.902008)"/>
  <path id="path103" d="M 401.115 327.651 C 400.53 327.651 400.021 327.764 399.665 328.119 C 399.309 328.476 399.211 328.97 399.211 329.555 L 399.211 339.352 C 399.211 339.938 399.309 340.432 399.665 340.787 C 400.021 341.144 400.53 341.257 401.115 341.257 L 410.854 341.257 C 411.439 341.257 411.934 341.144 412.289 340.787 C 412.542 340.535 412.648 340.2 412.699 339.821 L 412.758 339.821 L 412.758 339.352 L 412.758 329.555 C 412.758 328.97 412.645 328.476 412.289 328.119 C 411.934 327.764 411.439 327.651 410.854 327.651 L 401.115 327.651 Z M 401.115 328.588 L 410.854 328.588 C 411.327 328.588 411.532 328.68 411.63 328.779 C 411.728 328.877 411.821 329.082 411.821 329.555 L 411.821 338.884 L 411.821 339.352 C 411.821 339.826 411.728 340.031 411.63 340.129 C 411.532 340.227 411.327 340.32 410.854 340.32 L 401.115 340.32 C 400.642 340.32 400.437 340.227 400.339 340.129 C 400.241 340.031 400.149 339.825 400.149 339.352 L 400.149 329.555 C 400.149 329.082 400.242 328.877 400.339 328.779 C 400.437 328.68 400.642 328.588 401.115 328.588 Z" style="fill: rgb(30, 30, 30);" transform="matrix(0.965926, -0.258819, 0.258819, 0.965926, -72.729428, 116.47266)"/>
  <path id="path105" d="M 368.772 333.731 C 368.187 333.731 367.692 333.844 367.337 334.199 C 366.981 334.555 366.868 335.05 366.868 335.635 L 366.868 345.432 C 366.868 346.018 366.981 346.512 367.337 346.867 C 367.692 347.223 368.188 347.336 368.772 347.336 L 397.815 347.336 C 398.4 347.336 398.909 347.223 399.265 346.867 C 399.62 346.512 399.719 346.017 399.719 345.432 L 399.719 335.635 C 399.719 335.05 399.62 334.555 399.265 334.199 C 398.909 333.844 398.4 333.731 397.815 333.731 L 368.772 333.731 Z M 368.772 334.667 L 397.815 334.667 C 398.288 334.667 398.508 334.76 398.606 334.858 C 398.703 334.957 398.781 335.162 398.781 335.635 L 398.781 345.432 C 398.781 345.906 398.703 346.111 398.606 346.209 C 398.507 346.307 398.287 346.4 397.815 346.4 L 368.772 346.399 C 368.3 346.399 368.094 346.307 367.996 346.209 C 367.898 346.111 367.806 345.905 367.806 345.432 L 367.806 335.635 C 367.806 335.162 367.898 334.957 367.996 334.858 C 368.094 334.76 368.3 334.666 368.772 334.666 L 368.772 334.667 Z" style="fill: rgb(30, 30, 30);" transform="matrix(0.965926, -0.258819, 0.258819, 0.965926, -75.076193, 110.807154)"/>
  <path id="path107" d="M 415.122 323.898 C 414.537 323.898 414.042 324.011 413.687 324.366 C 413.331 324.722 413.218 325.217 413.218 325.802 L 413.218 335.599 C 413.218 336.185 413.331 336.678 413.687 337.034 C 414.042 337.39 414.537 337.503 415.122 337.503 L 424.861 337.503 C 425.446 337.503 425.956 337.39 426.311 337.034 C 426.667 336.679 426.766 336.184 426.766 335.599 L 426.766 335.131 L 426.766 325.802 C 426.766 325.217 426.667 324.722 426.311 324.366 C 425.956 324.011 425.447 323.898 424.861 323.898 L 415.122 323.898 L 415.122 323.898 Z M 415.122 324.834 L 424.861 324.834 C 425.334 324.834 425.54 324.927 425.638 325.025 C 425.736 325.124 425.828 325.329 425.828 325.802 L 425.828 335.599 C 425.828 336.073 425.75 336.278 425.652 336.375 C 425.554 336.474 425.334 336.566 424.861 336.566 L 415.122 336.566 C 414.649 336.566 414.444 336.474 414.346 336.375 C 414.248 336.278 414.155 336.072 414.155 335.599 L 414.155 325.802 C 414.155 325.329 414.248 325.124 414.346 325.025 C 414.444 324.927 414.649 324.834 415.122 324.834 Z" style="fill: rgb(30, 30, 30);" transform="matrix(0.965926, -0.258819, 0.258819, 0.965926, -71.280632, 119.970094)"/>
  <path id="path109" d="M 429.142 320.141 C 428.557 320.141 428.048 320.254 427.692 320.609 C 427.337 320.966 427.238 321.461 427.238 322.045 L 427.238 331.843 C 427.238 332.428 427.337 332.922 427.692 333.277 C 428.048 333.634 428.557 333.747 429.142 333.747 L 438.881 333.747 C 439.466 333.747 439.961 333.634 440.317 333.277 C 440.672 332.923 440.786 332.428 440.786 331.843 L 440.786 322.045 C 440.786 321.461 440.672 320.966 440.317 320.609 C 439.962 320.254 439.466 320.141 438.881 320.141 L 429.142 320.141 Z M 429.142 321.078 L 438.881 321.078 C 439.354 321.078 439.559 321.17 439.658 321.269 C 439.756 321.367 439.848 321.572 439.848 322.045 L 439.848 331.843 C 439.848 332.316 439.755 332.521 439.658 332.619 C 439.56 332.717 439.354 332.81 438.881 332.81 L 429.142 332.81 C 428.669 332.81 428.449 332.717 428.352 332.619 C 428.253 332.521 428.176 332.315 428.176 331.843 L 428.176 322.045 C 428.176 321.572 428.254 321.367 428.352 321.269 C 428.449 321.17 428.669 321.078 429.142 321.078 Z" style="fill: rgb(30, 30, 30);" transform="matrix(0.965926, -0.258819, 0.258819, 0.965926, -69.830776, 123.471025)"/>
  <path id="path111" d="M 443.144 316.389 C 442.559 316.389 442.064 316.502 441.709 316.857 C 441.353 317.214 441.24 317.709 441.24 318.293 L 441.24 328.091 C 441.24 328.676 441.353 329.17 441.709 329.525 C 442.064 329.882 442.559 329.995 443.144 329.995 L 452.883 329.995 C 453.468 329.995 453.977 329.882 454.333 329.525 C 454.689 329.171 454.786 328.676 454.786 328.091 L 454.786 318.293 C 454.786 317.709 454.689 317.214 454.333 316.857 C 453.977 316.502 453.468 316.389 452.883 316.389 L 443.144 316.389 Z M 443.144 317.326 L 452.883 317.326 C 453.356 317.326 453.561 317.418 453.659 317.517 C 453.757 317.615 453.85 317.82 453.85 318.293 L 453.85 328.091 C 453.85 328.564 453.757 328.769 453.659 328.867 C 453.561 328.965 453.356 329.058 452.883 329.058 L 443.144 329.058 C 442.671 329.058 442.466 328.965 442.367 328.867 C 442.269 328.769 442.177 328.563 442.177 328.091 L 442.177 318.293 C 442.177 317.82 442.269 317.615 442.367 317.517 C 442.466 317.418 442.671 317.326 443.144 317.326 Z" style="fill: rgb(30, 30, 30);" transform="matrix(0.965926, -0.258819, 0.258819, 0.965926, -68.38262, 126.9669)"/>
  <path id="path113" d="M 457.164 312.635 C 456.579 312.635 456.069 312.748 455.714 313.103 C 455.359 313.459 455.26 313.954 455.26 314.539 L 455.26 324.336 C 455.26 324.922 455.359 325.416 455.714 325.771 C 456.069 326.127 456.579 326.24 457.164 326.24 L 466.889 326.24 C 467.473 326.24 467.983 326.127 468.339 325.771 C 468.694 325.416 468.793 324.921 468.793 324.336 L 468.793 314.539 C 468.793 313.954 468.694 313.459 468.339 313.103 C 467.983 312.748 467.473 312.635 466.889 312.635 L 457.164 312.635 Z M 457.164 313.571 L 466.889 313.571 C 467.361 313.571 467.581 313.664 467.68 313.762 C 467.778 313.861 467.855 314.066 467.855 314.539 L 467.855 324.336 C 467.855 324.81 467.777 325.015 467.68 325.113 C 467.581 325.211 467.361 325.304 466.889 325.304 L 457.164 325.304 C 456.691 325.304 456.471 325.211 456.373 325.113 C 456.275 325.015 456.198 324.809 456.198 324.336 L 456.198 314.539 C 456.198 314.066 456.276 313.861 456.373 313.762 C 456.471 313.664 456.692 313.571 457.164 313.571 Z" style="fill: rgb(30, 30, 30);" transform="matrix(0.965926, -0.258819, 0.258819, 0.965926, -66.933407, 130.46601)"/>
  <path id="path115" d="M 471.17 308.88 C 470.585 308.88 470.09 308.993 469.734 309.348 C 469.379 309.704 469.266 310.199 469.266 310.784 L 469.266 320.581 C 469.266 321.167 469.379 321.661 469.734 322.016 C 470.09 322.372 470.585 322.485 471.17 322.485 L 480.909 322.485 C 481.494 322.485 482.003 322.372 482.359 322.016 C 482.715 321.661 482.813 321.166 482.813 320.581 L 482.813 310.784 C 482.813 310.199 482.715 309.704 482.359 309.348 C 482.003 308.993 481.494 308.88 480.909 308.88 L 471.17 308.88 Z M 471.17 309.816 L 480.909 309.816 C 481.382 309.816 481.587 309.909 481.685 310.007 C 481.783 310.106 481.876 310.311 481.876 310.784 L 481.876 320.581 C 481.876 321.055 481.783 321.26 481.685 321.358 C 481.587 321.456 481.382 321.549 480.909 321.549 L 471.17 321.549 C 470.697 321.549 470.492 321.456 470.393 321.358 C 470.296 321.26 470.203 321.054 470.203 320.581 L 470.203 310.784 C 470.203 310.311 470.296 310.106 470.393 310.007 C 470.492 309.909 470.697 309.816 471.17 309.816 Z" style="fill: rgb(30, 30, 30);" transform="matrix(0.965926, -0.258819, 0.258819, 0.965926, -65.484028, 133.964818)"/>
  <path id="path117" d="M 485.191 305.125 C 484.606 305.125 484.095 305.238 483.74 305.593 C 483.385 305.949 483.286 306.444 483.286 307.029 L 483.286 316.826 C 483.286 317.412 483.385 317.906 483.74 318.261 C 484.095 318.617 484.606 318.731 485.191 318.731 L 494.915 318.731 C 495.5 318.731 496.01 318.617 496.365 318.261 C 496.721 317.907 496.82 317.411 496.82 316.826 L 496.82 307.029 C 496.82 306.444 496.721 305.949 496.365 305.593 C 496.01 305.238 495.5 305.125 494.915 305.125 L 485.191 305.125 Z M 485.191 306.061 L 494.915 306.061 C 495.388 306.061 495.608 306.154 495.706 306.252 C 495.804 306.351 495.881 306.556 495.881 307.029 L 495.881 316.826 C 495.881 317.3 495.803 317.505 495.706 317.603 C 495.608 317.701 495.388 317.794 494.915 317.794 L 485.191 317.794 C 484.717 317.794 484.497 317.701 484.399 317.603 C 484.302 317.505 484.224 317.299 484.224 316.826 L 484.224 307.029 C 484.224 306.556 484.302 306.351 484.399 306.252 C 484.497 306.154 484.717 306.061 485.191 306.061 Z" style="fill: rgb(30, 30, 30);" transform="matrix(0.965926, -0.258819, 0.258819, 0.965926, -64.034714, 137.463617)"/>
  <path id="path119" d="M 499.192 301.371 C 498.608 301.371 498.097 301.484 497.743 301.839 C 497.387 302.195 497.288 302.69 497.288 303.275 L 497.288 313.072 C 497.288 313.658 497.387 314.152 497.743 314.507 C 498.098 314.864 498.608 314.977 499.192 314.977 L 508.932 314.977 C 509.516 314.977 510.011 314.864 510.367 314.507 C 510.722 314.153 510.836 313.657 510.836 313.072 L 510.836 303.275 C 510.836 302.69 510.737 302.195 510.382 301.839 C 510.025 301.484 509.517 301.371 508.932 301.371 L 499.192 301.371 L 499.192 301.371 Z M 499.192 302.307 L 508.932 302.307 C 509.404 302.307 509.61 302.4 509.708 302.498 C 509.806 302.597 509.898 302.802 509.898 303.275 L 509.898 313.072 C 509.898 313.546 509.806 313.751 509.708 313.849 C 509.61 313.947 509.404 314.04 508.932 314.04 L 499.192 314.04 C 498.72 314.04 498.514 313.947 498.416 313.849 C 498.318 313.751 498.225 313.545 498.225 313.072 L 498.225 303.275 C 498.225 302.802 498.318 302.597 498.416 302.498 C 498.514 302.4 498.719 302.307 499.192 302.307 Z" style="fill: rgb(30, 30, 30);" transform="matrix(0.965926, -0.258819, 0.258819, 0.965926, -62.585775, 140.961497)"/>
  <path id="path121" d="M 513.212 297.617 C 512.628 297.617 512.117 297.73 511.762 298.085 C 511.407 298.441 511.308 298.936 511.308 299.52 L 511.308 309.318 C 511.308 309.903 511.407 310.397 511.762 310.753 C 512.118 311.109 512.628 311.222 513.212 311.222 L 522.937 311.222 C 523.522 311.222 524.032 311.109 524.387 310.753 C 524.743 310.398 524.841 309.903 524.841 309.318 L 524.841 299.52 C 524.841 298.936 524.743 298.441 524.387 298.085 C 524.031 297.73 523.522 297.617 522.937 297.617 L 513.212 297.617 Z M 513.212 298.553 L 522.937 298.553 C 523.41 298.553 523.63 298.646 523.728 298.744 C 523.826 298.843 523.904 299.047 523.904 299.52 L 523.904 309.318 C 523.904 309.791 523.826 309.997 523.728 310.094 C 523.63 310.193 523.41 310.285 522.937 310.285 L 513.212 310.285 C 512.739 310.285 512.52 310.193 512.421 310.094 C 512.323 309.997 512.246 309.79 512.246 309.318 L 512.246 299.52 C 512.246 299.047 512.323 298.843 512.421 298.744 C 512.52 298.646 512.739 298.553 513.212 298.553 Z" style="fill: rgb(30, 30, 30);" transform="matrix(0.965926, -0.258819, 0.258819, 0.965926, -61.13666, 144.460602)"/>
  <path id="path123" d="M 527.219 293.862 C 526.634 293.862 526.124 293.975 525.769 294.33 C 525.413 294.686 525.315 295.181 525.315 295.765 L 525.315 305.563 C 525.315 306.148 525.413 306.642 525.769 306.998 C 526.124 307.354 526.634 307.467 527.219 307.467 L 536.958 307.467 C 537.543 307.467 538.037 307.354 538.392 306.998 C 538.749 306.643 538.861 306.148 538.861 305.563 L 538.861 295.765 C 538.861 295.181 538.748 294.686 538.392 294.33 C 538.037 293.975 537.542 293.862 536.958 293.862 L 527.219 293.862 Z M 527.219 294.798 L 536.958 294.798 C 537.431 294.798 537.636 294.891 537.734 294.989 C 537.832 295.088 537.924 295.292 537.924 295.765 L 537.924 305.563 C 537.924 306.036 537.832 306.242 537.734 306.339 C 537.636 306.438 537.431 306.53 536.958 306.53 L 527.219 306.53 C 526.746 306.53 526.54 306.438 526.443 306.339 C 526.343 306.242 526.252 306.035 526.252 305.563 L 526.252 295.765 C 526.252 295.292 526.343 295.088 526.443 294.989 C 526.54 294.891 526.746 294.798 527.219 294.798 Z" style="fill: rgb(30, 30, 30);" transform="matrix(0.965926, -0.258819, 0.258819, 0.965926, -59.687206, 147.95928)"/>
  <path id="path125" d="M 541.225 290.109 C 540.64 290.109 540.145 290.222 539.79 290.577 C 539.434 290.933 539.322 291.428 539.322 292.013 L 539.322 301.81 C 539.322 302.396 539.434 302.889 539.79 303.245 C 540.145 303.601 540.641 303.714 541.225 303.714 L 550.964 303.714 C 551.549 303.714 552.059 303.601 552.414 303.245 C 552.77 302.89 552.867 302.395 552.867 301.81 L 552.867 292.013 C 552.867 291.428 552.77 290.933 552.414 290.577 C 552.058 290.222 551.548 290.109 550.964 290.109 L 541.225 290.109 Z M 541.225 291.045 L 550.964 291.045 C 551.437 291.045 551.657 291.138 551.755 291.236 C 551.853 291.335 551.931 291.54 551.931 292.013 L 551.931 301.81 C 551.931 302.284 551.853 302.489 551.755 302.586 C 551.657 302.685 551.437 302.777 550.964 302.777 L 541.225 302.777 C 540.752 302.777 540.547 302.685 540.449 302.586 C 540.351 302.489 540.258 302.283 540.258 301.81 L 540.258 292.013 C 540.258 291.54 540.351 291.335 540.449 291.236 C 540.547 291.138 540.752 291.045 541.225 291.045 Z" style="fill: rgb(30, 30, 30);" transform="matrix(0.965926, -0.258819, 0.258819, 0.965926, -58.238684, 151.456886)"/>
  <path id="path127" d="M 554.852 283.832 C 554.267 283.832 553.757 283.945 553.402 284.3 C 553.047 284.656 552.933 285.151 552.933 285.736 L 552.933 295.533 C 552.933 296.119 553.047 296.613 553.402 296.968 C 553.758 297.324 554.268 297.437 554.852 297.437 L 584.202 297.437 C 584.787 297.437 585.296 297.324 585.652 296.968 C 586.008 296.614 586.105 296.118 586.105 295.533 L 586.105 285.736 C 586.105 285.151 586.007 284.656 585.652 284.3 C 585.296 283.945 584.786 283.832 584.202 283.832 L 554.852 283.832 Z M 554.852 284.768 L 584.202 284.768 C 584.675 284.768 584.895 284.861 584.992 284.959 C 585.091 285.058 585.168 285.263 585.168 285.736 L 585.168 295.533 C 585.168 296.007 585.091 296.212 584.992 296.31 C 584.895 296.408 584.674 296.501 584.202 296.501 L 554.852 296.501 C 554.379 296.501 554.16 296.408 554.061 296.31 C 553.963 296.212 553.87 296.006 553.87 295.533 L 553.87 285.736 C 553.87 285.263 553.963 285.058 554.061 284.959 C 554.16 284.861 554.379 284.768 554.852 284.768 Z" style="fill: rgb(30, 30, 30);" transform="matrix(0.965926, -0.258819, 0.258819, 0.965926, -55.815905, 157.305717)"/>
  <path id="path129" d="M 544.832 303.576 C 544.247 303.576 543.752 303.675 543.396 304.03 C 543.041 304.386 542.928 304.895 542.928 305.48 L 542.928 315.264 C 542.928 315.848 543.041 316.357 543.396 316.713 C 543.752 317.069 544.247 317.167 544.832 317.167 L 554.571 317.167 C 555.155 317.167 555.665 317.069 556.02 316.713 C 556.377 316.357 556.474 315.848 556.474 315.264 L 556.474 305.48 C 556.474 304.895 556.377 304.386 556.02 304.03 C 555.665 303.675 555.154 303.576 554.571 303.576 L 544.832 303.576 Z M 544.832 304.514 L 554.571 304.514 C 555.043 304.514 555.263 304.607 555.361 304.704 C 555.459 304.802 555.537 305.008 555.537 305.48 L 555.537 315.264 C 555.537 315.737 555.459 315.957 555.361 316.055 C 555.263 316.153 555.043 316.23 554.571 316.23 L 544.832 316.23 C 544.359 316.23 544.153 316.153 544.055 316.055 C 543.957 315.957 543.865 315.736 543.865 315.264 L 543.865 305.48 C 543.865 305.007 543.957 304.802 544.055 304.704 C 544.153 304.606 544.359 304.514 544.832 304.514 Z" style="fill: rgb(30, 30, 30);" transform="matrix(0.965926, -0.258819, 0.258819, 0.965926, -61.599503, 152.84896)"/>
  <path id="path131" d="M 415.675 322.429 C 415.09 322.429 414.581 322.528 414.225 322.884 C 413.87 323.239 413.771 323.748 413.771 324.333 L 413.771 334.117 C 413.771 334.701 413.87 335.21 414.225 335.566 C 414.581 335.921 415.09 336.021 415.675 336.021 L 543.006 336.021 C 543.591 336.021 544.101 335.922 544.456 335.566 C 544.812 335.21 544.91 334.701 544.91 334.117 L 544.91 324.333 C 544.91 323.748 544.812 323.239 544.456 322.884 C 544.1 322.528 543.591 322.429 543.006 322.429 L 415.675 322.429 Z M 415.675 323.367 L 543.006 323.367 C 543.479 323.367 543.699 323.46 543.797 323.557 C 543.894 323.655 543.972 323.861 543.972 324.333 L 543.972 334.117 C 543.972 334.59 543.894 334.81 543.797 334.908 C 543.699 335.006 543.479 335.083 543.006 335.083 L 415.675 335.083 C 415.202 335.083 414.997 335.006 414.899 334.908 C 414.801 334.81 414.708 334.589 414.708 334.117 L 414.708 324.333 C 414.708 323.86 414.801 323.655 414.899 323.557 C 414.997 323.459 415.202 323.367 415.675 323.367 Z" style="fill: rgb(30, 30, 30);" transform="matrix(0.965926, -0.258819, 0.258819, 0.965926, -68.876519, 135.280407)"/>
  <path id="path133" d="M 358.615 294.659 C 358.03 294.659 357.52 294.773 357.165 295.128 C 356.809 295.484 356.711 295.979 356.711 296.564 L 356.711 306.361 C 356.711 306.946 356.809 307.441 357.165 307.797 C 357.52 308.152 358.03 308.265 358.615 308.265 L 368.354 308.265 C 368.939 308.265 369.448 308.153 369.804 307.797 C 370.16 307.441 370.258 306.946 370.258 306.361 L 370.258 296.564 C 370.258 295.979 370.159 295.484 369.804 295.128 C 369.448 294.773 368.939 294.659 368.354 294.659 L 358.615 294.659 Z M 358.615 295.596 L 368.354 295.596 C 368.827 295.596 369.032 295.689 369.13 295.787 C 369.228 295.886 369.321 296.091 369.321 296.564 L 369.321 306.361 C 369.321 306.834 369.228 307.039 369.13 307.138 C 369.032 307.236 368.827 307.328 368.354 307.328 L 358.615 307.328 C 358.142 307.328 357.937 307.236 357.839 307.138 C 357.741 307.039 357.648 306.835 357.648 306.361 L 357.648 296.564 C 357.648 296.091 357.741 295.886 357.839 295.787 C 357.937 295.689 358.142 295.597 358.615 295.596 L 358.615 295.596 Z" style="fill: rgb(30, 30, 30);" transform="matrix(0.965926, -0.258819, 0.258819, 0.965926, -65.638717, 104.348865)"/>
  <path id="path135" d="M 598.489 259.772 C 597.904 259.772 597.394 259.871 597.039 260.226 C 596.684 260.581 596.585 261.091 596.585 261.677 L 596.585 271.459 C 596.585 272.044 596.684 272.553 597.039 272.91 C 597.394 273.265 597.904 273.364 598.489 273.364 L 608.228 273.364 C 608.813 273.364 609.307 273.265 609.664 272.91 C 610.019 272.553 610.132 272.044 610.132 271.459 L 610.132 261.677 C 610.132 261.091 610.019 260.581 609.664 260.226 C 609.307 259.871 608.813 259.772 608.228 259.772 L 598.489 259.772 Z M 598.489 260.709 L 608.228 260.709 C 608.701 260.709 608.907 260.787 609.004 260.885 C 609.103 260.983 609.195 261.204 609.195 261.676 L 609.195 271.459 C 609.195 271.931 609.103 272.151 609.004 272.25 C 608.907 272.348 608.701 272.425 608.228 272.425 L 598.489 272.425 C 598.016 272.425 597.81 272.348 597.713 272.25 C 597.615 272.151 597.522 271.931 597.522 271.459 L 597.522 261.676 C 597.522 261.202 597.615 260.983 597.713 260.885 C 597.81 260.787 598.016 260.709 598.489 260.709 Z" style="fill: rgb(30, 30, 30);" transform="matrix(0.965926, -0.258819, 0.258819, 0.965926, -48.433937, 165.243791)"/>
  <path id="path137" d="M 602.226 273.719 C 601.642 273.719 601.131 273.818 600.776 274.173 C 600.421 274.529 600.322 275.038 600.322 275.623 L 600.322 285.406 C 600.322 285.992 600.421 286.501 600.776 286.856 C 601.131 287.212 601.641 287.31 602.226 287.31 L 611.966 287.31 C 612.55 287.31 613.044 287.212 613.401 286.856 C 613.756 286.501 613.869 285.991 613.869 285.406 L 613.869 275.623 C 613.869 275.039 613.756 274.529 613.401 274.173 C 613.044 273.818 612.551 273.719 611.966 273.719 L 602.226 273.719 Z M 602.226 274.657 L 611.966 274.657 C 612.438 274.657 612.644 274.734 612.741 274.832 C 612.84 274.93 612.932 275.15 612.932 275.623 L 612.932 285.406 C 612.932 285.879 612.84 286.099 612.741 286.198 C 612.644 286.294 612.438 286.373 611.966 286.373 L 602.226 286.373 C 601.754 286.373 601.547 286.294 601.45 286.198 C 601.352 286.099 601.259 285.879 601.259 285.406 L 601.259 275.623 C 601.259 275.15 601.352 274.93 601.45 274.832 C 601.547 274.734 601.754 274.657 602.226 274.657 Z" style="fill: rgb(30, 30, 30);" transform="matrix(0.965926, -0.258819, 0.258819, 0.965926, -51.91626, 166.686414)"/>
  <path id="path139" d="M 605.964 287.667 C 605.379 287.667 604.869 287.765 604.514 288.122 C 604.158 288.476 604.06 288.986 604.06 289.571 L 604.06 299.354 C 604.06 299.939 604.158 300.449 604.514 300.804 C 604.869 301.159 605.379 301.259 605.964 301.259 L 615.703 301.259 C 616.288 301.259 616.782 301.159 617.138 300.804 C 617.494 300.448 617.607 299.939 617.607 299.354 L 617.607 289.571 C 617.607 288.986 617.494 288.475 617.138 288.122 C 616.782 287.765 616.288 287.667 615.703 287.667 L 605.964 287.667 Z M 605.964 288.605 L 615.703 288.605 C 616.176 288.605 616.382 288.682 616.479 288.78 C 616.577 288.878 616.67 289.098 616.67 289.572 L 616.67 299.354 C 616.67 299.827 616.577 300.048 616.479 300.146 C 616.382 300.244 616.176 300.321 615.703 300.321 L 605.964 300.321 C 605.491 300.321 605.285 300.244 605.188 300.146 C 605.089 300.048 604.997 299.827 604.997 299.354 L 604.997 289.572 C 604.997 289.098 605.089 288.879 605.188 288.78 C 605.285 288.682 605.491 288.605 605.964 288.605 Z" style="fill: rgb(30, 30, 30);" transform="matrix(0.965926, -0.258819, 0.258819, 0.965926, -55.399036, 168.129171)"/>
  <path id="path141" d="M 608.744 242.074 C 608.159 242.074 607.649 242.173 607.294 242.528 C 606.938 242.884 606.84 243.394 606.84 243.978 L 606.84 253.762 C 606.84 254.346 606.938 254.856 607.294 255.211 C 607.65 255.566 608.159 255.665 608.744 255.665 L 618.469 255.665 C 619.054 255.665 619.563 255.566 619.919 255.211 C 620.274 254.856 620.373 254.346 620.373 253.762 L 620.373 243.978 C 620.373 243.394 620.274 242.884 619.919 242.528 C 619.563 242.173 619.054 242.074 618.469 242.074 L 608.744 242.074 Z M 608.744 243.012 L 618.469 243.012 C 618.942 243.012 619.162 243.09 619.26 243.187 C 619.358 243.285 619.435 243.506 619.435 243.978 L 619.435 253.762 C 619.435 254.234 619.358 254.454 619.26 254.552 C 619.161 254.65 618.941 254.727 618.469 254.727 L 608.744 254.727 C 608.271 254.727 608.051 254.65 607.953 254.552 C 607.856 254.454 607.778 254.234 607.778 253.762 L 607.778 243.978 C 607.778 243.506 607.856 243.285 607.953 243.187 C 608.051 243.09 608.272 243.012 608.744 243.012 Z" style="fill: rgb(30, 30, 30);" transform="matrix(0.965926, -0.258819, 0.258819, 0.965926, -43.504017, 167.292927)"/>
  <path id="path143" d="M 612.523 256.014 C 611.938 256.014 611.428 256.112 611.073 256.467 C 610.717 256.823 610.619 257.332 610.619 257.918 L 610.619 267.701 C 610.619 268.285 610.717 268.795 611.073 269.151 C 611.428 269.506 611.939 269.605 612.523 269.605 L 622.248 269.605 C 622.832 269.605 623.342 269.506 623.698 269.151 C 624.053 268.794 624.152 268.285 624.152 267.701 L 624.152 257.918 C 624.152 257.332 624.053 256.823 623.698 256.467 C 623.341 256.112 622.833 256.014 622.248 256.014 L 612.523 256.014 Z M 612.523 256.951 L 622.248 256.951 C 622.72 256.951 622.941 257.029 623.039 257.127 C 623.136 257.225 623.214 257.445 623.214 257.917 L 623.214 267.701 C 623.214 268.173 623.136 268.393 623.039 268.491 C 622.941 268.589 622.72 268.667 622.248 268.667 L 612.523 268.667 C 612.05 268.667 611.83 268.589 611.732 268.491 C 611.634 268.393 611.557 268.173 611.557 267.701 L 611.557 257.917 C 611.557 257.443 611.634 257.225 611.732 257.127 C 611.83 257.029 612.05 256.951 612.523 256.951 Z" style="fill: rgb(30, 30, 30);" transform="matrix(0.965926, -0.258819, 0.258819, 0.965926, -46.98316, 168.745794)"/>
  <path id="path145" d="M 616.26 269.96 C 615.675 269.96 615.166 270.059 614.81 270.414 C 614.454 270.771 614.357 271.28 614.357 271.865 L 614.357 281.648 C 614.357 282.233 614.454 282.742 614.81 283.098 C 615.166 283.453 615.676 283.551 616.26 283.551 L 625.985 283.551 C 626.569 283.551 627.079 283.453 627.435 283.098 C 627.79 282.742 627.889 282.233 627.889 281.648 L 627.889 271.865 C 627.889 271.28 627.79 270.77 627.435 270.414 C 627.078 270.059 626.57 269.96 625.985 269.96 L 616.26 269.96 Z M 616.26 270.898 L 625.985 270.898 C 626.457 270.898 626.678 270.976 626.776 271.073 C 626.873 271.172 626.951 271.392 626.951 271.865 L 626.951 281.648 C 626.951 282.121 626.873 282.341 626.776 282.439 C 626.678 282.536 626.457 282.614 625.985 282.614 L 616.26 282.614 C 615.787 282.614 615.567 282.536 615.469 282.439 C 615.371 282.341 615.294 282.12 615.294 281.648 L 615.294 271.865 C 615.294 271.392 615.371 271.172 615.469 271.073 C 615.567 270.976 615.787 270.898 616.26 270.898 Z" style="fill: rgb(30, 30, 30);" transform="matrix(0.965926, -0.258819, 0.258819, 0.965926, -50.465285, 170.188319)"/>
  <path id="path147" d="M 619.998 283.909 C 619.413 283.909 618.903 284.006 618.548 284.363 C 618.191 284.718 618.094 285.228 618.094 285.812 L 618.094 295.596 C 618.094 296.18 618.191 296.69 618.548 297.045 C 618.903 297.401 619.413 297.5 619.998 297.5 L 629.723 297.5 C 630.307 297.5 630.817 297.401 631.173 297.045 C 631.527 296.69 631.627 296.18 631.627 295.596 L 631.627 285.812 C 631.627 285.227 631.527 284.717 631.173 284.363 C 630.816 284.006 630.308 283.909 629.723 283.909 L 619.998 283.909 Z M 619.998 284.847 L 629.723 284.847 C 630.195 284.847 630.415 284.924 630.514 285.022 C 630.611 285.12 630.689 285.34 630.689 285.813 L 630.689 295.596 C 630.689 296.069 630.611 296.289 630.514 296.387 C 630.415 296.486 630.195 296.563 629.723 296.563 L 619.998 296.563 C 619.524 296.563 619.305 296.486 619.207 296.387 C 619.109 296.289 619.031 296.069 619.031 295.596 L 619.031 285.813 C 619.031 285.34 619.109 285.12 619.207 285.022 C 619.304 284.924 619.524 284.847 619.998 284.847 Z" style="fill: rgb(30, 30, 30);" transform="matrix(0.965926, -0.258819, 0.258819, 0.965926, -53.948227, 171.631168)"/>
  <path id="path149" d="M 622.732 238.328 C 622.148 238.328 621.638 238.426 621.282 238.781 C 620.927 239.138 620.814 239.647 620.814 240.232 L 620.814 250.016 C 620.814 250.6 620.927 251.11 621.282 251.465 C 621.638 251.82 622.147 251.919 622.732 251.919 L 632.457 251.919 C 633.042 251.919 633.552 251.82 633.907 251.465 C 634.263 251.11 634.361 250.6 634.361 250.016 L 634.361 240.232 C 634.361 239.647 634.263 239.138 633.907 238.781 C 633.551 238.426 633.042 238.328 632.457 238.328 L 622.732 238.328 Z M 622.732 239.265 L 632.457 239.265 C 632.93 239.265 633.15 239.343 633.248 239.441 C 633.345 239.538 633.423 239.759 633.423 240.232 L 633.423 250.016 C 633.423 250.488 633.345 250.708 633.248 250.806 C 633.15 250.904 632.93 250.981 632.457 250.981 L 622.732 250.981 C 622.258 250.981 622.04 250.904 621.941 250.806 C 621.844 250.708 621.751 250.488 621.751 250.016 L 621.751 240.232 C 621.751 239.759 621.844 239.538 621.941 239.441 C 622.039 239.343 622.259 239.265 622.732 239.265 Z" style="fill: rgb(30, 30, 30);" transform="matrix(0.965926, -0.258819, 0.258819, 0.965926, -42.058129, 170.784217)"/>
  <path id="path151" d="M 626.47 252.278 C 625.885 252.278 625.376 252.376 625.02 252.732 C 624.665 253.087 624.552 253.597 624.552 254.182 L 624.552 263.965 C 624.552 264.55 624.665 265.059 625.02 265.416 C 625.377 265.771 625.886 265.87 626.47 265.87 L 636.195 265.87 C 636.78 265.87 637.29 265.771 637.645 265.416 C 638.001 265.059 638.099 264.55 638.099 263.965 L 638.099 254.182 C 638.099 253.597 638.001 253.087 637.645 252.732 C 637.289 252.376 636.78 252.278 636.195 252.278 L 626.47 252.278 Z M 626.47 253.215 L 636.195 253.215 C 636.668 253.215 636.888 253.293 636.987 253.391 C 637.083 253.489 637.161 253.709 637.161 254.182 L 637.161 263.965 C 637.161 264.437 637.083 264.657 636.987 264.755 C 636.888 264.854 636.668 264.931 636.195 264.931 L 626.47 264.931 C 625.997 264.931 625.778 264.854 625.679 264.755 C 625.582 264.657 625.489 264.437 625.489 263.965 L 625.489 254.182 C 625.489 253.708 625.582 253.489 625.679 253.391 C 625.778 253.293 625.998 253.215 626.47 253.215 Z" style="fill: rgb(30, 30, 30);" transform="matrix(0.965926, -0.258819, 0.258819, 0.965926, -45.541376, 172.226658)"/>
  <path id="path153" d="M 630.207 266.225 C 629.623 266.225 629.113 266.324 628.757 266.679 C 628.402 267.036 628.289 267.544 628.289 268.129 L 628.289 277.913 C 628.289 278.498 628.402 279.007 628.757 279.363 C 629.114 279.718 629.623 279.816 630.207 279.816 L 639.932 279.816 C 640.517 279.816 641.027 279.718 641.382 279.363 C 641.738 279.007 641.836 278.498 641.836 277.913 L 641.836 268.129 C 641.836 267.545 641.738 267.035 641.382 266.679 C 641.027 266.324 640.517 266.225 639.932 266.225 L 630.207 266.225 Z M 630.207 267.163 L 639.932 267.163 C 640.405 267.163 640.625 267.24 640.723 267.338 C 640.82 267.436 640.898 267.656 640.898 268.129 L 640.898 277.913 C 640.898 278.386 640.82 278.606 640.723 278.704 C 640.625 278.801 640.405 278.879 639.932 278.879 L 630.207 278.879 C 629.734 278.879 629.515 278.801 629.417 278.704 C 629.319 278.606 629.226 278.385 629.226 277.913 L 629.226 268.129 C 629.226 267.656 629.319 267.436 629.417 267.338 C 629.514 267.24 629.735 267.163 630.207 267.163 Z" style="fill: rgb(30, 30, 30);" transform="matrix(0.965926, -0.258819, 0.258819, 0.965926, -49.023709, 173.669467)"/>
  <path id="path155" d="M 633.945 280.174 C 633.361 280.174 632.851 280.271 632.495 280.628 C 632.139 280.983 632.027 281.493 632.027 282.077 L 632.027 291.861 C 632.027 292.445 632.139 292.955 632.495 293.31 C 632.851 293.666 633.36 293.765 633.945 293.765 L 643.67 293.765 C 644.255 293.765 644.765 293.666 645.12 293.31 C 645.476 292.954 645.574 292.445 645.574 291.861 L 645.574 282.077 C 645.574 281.492 645.476 280.982 645.12 280.628 C 644.764 280.271 644.255 280.174 643.67 280.174 L 633.945 280.174 Z M 633.945 281.112 L 643.67 281.112 C 644.143 281.112 644.363 281.189 644.461 281.287 C 644.558 281.385 644.636 281.605 644.636 282.078 L 644.636 291.861 C 644.636 292.334 644.558 292.554 644.461 292.652 C 644.363 292.751 644.143 292.828 643.67 292.828 L 633.945 292.828 C 633.471 292.828 633.252 292.751 633.154 292.652 C 633.056 292.554 632.964 292.334 632.964 291.861 L 632.964 282.078 C 632.964 281.605 633.056 281.385 633.154 281.287 C 633.252 281.189 633.472 281.112 633.945 281.112 Z" style="fill: rgb(30, 30, 30);" transform="matrix(0.965926, -0.258819, 0.258819, 0.965926, -52.50662, 175.112226)"/>
  <path id="path157" d="M 614.143 207.392 C 613.557 207.392 613.047 207.49 612.693 207.845 C 612.337 208.201 612.238 208.711 612.238 209.296 L 612.238 219.078 C 612.238 219.663 612.337 220.173 612.693 220.529 C 613.048 220.884 613.558 220.982 614.143 220.982 L 623.867 220.982 C 624.452 220.982 624.962 220.884 625.317 220.529 C 625.673 220.173 625.772 219.664 625.772 219.078 L 625.772 209.296 C 625.772 208.711 625.673 208.201 625.317 207.845 C 624.962 207.49 624.452 207.392 623.867 207.392 L 614.143 207.392 L 614.143 207.392 Z M 614.143 208.329 L 623.867 208.329 C 624.34 208.329 624.561 208.421 624.658 208.519 C 624.756 208.617 624.834 208.823 624.834 209.296 L 624.834 219.078 C 624.834 219.552 624.756 219.772 624.658 219.869 C 624.561 219.968 624.34 220.045 623.867 220.045 L 614.143 220.045 C 613.669 220.045 613.45 219.967 613.352 219.869 C 613.254 219.772 613.176 219.552 613.176 219.078 L 613.176 209.296 C 613.176 208.823 613.254 208.617 613.352 208.519 C 613.449 208.421 613.669 208.329 614.143 208.329 Z" style="fill: rgb(30, 30, 30);" transform="matrix(0.965926, -0.258819, 0.258819, 0.965926, -34.343595, 167.508566)"/>
  <path id="path159" d="M 360.732 264.705 C 360.147 264.705 359.638 264.818 359.282 265.174 C 358.926 265.529 358.828 266.025 358.828 266.609 L 358.828 322.042 C 358.828 322.628 358.927 323.123 359.282 323.478 C 359.638 323.834 360.147 323.947 360.732 323.947 L 405.079 323.947 C 405.311 323.947 405.401 323.988 405.387 323.976 C 405.372 323.964 405.416 323.98 405.416 324.269 L 405.416 336.498 C 405.416 337.084 405.515 337.593 405.87 337.949 C 406.226 338.304 406.735 338.402 407.32 338.402 L 551.724 338.402 C 552.309 338.402 552.819 338.304 553.174 337.949 C 553.53 337.592 553.628 337.083 553.628 336.498 L 553.628 324.402 C 553.628 324.162 553.677 324.083 553.731 324.036 C 553.783 323.988 553.897 323.947 554.126 323.947 L 585.395 323.947 C 585.981 323.947 586.476 323.835 586.831 323.479 C 587.186 323.123 587.299 322.628 587.299 322.044 L 587.299 266.61 C 587.299 266.025 587.186 265.53 586.831 265.175 C 586.476 264.819 585.98 264.706 585.395 264.706 L 360.728 264.706 L 360.732 264.705 Z M 360.732 265.643 L 585.4 265.643 C 585.873 265.643 586.078 265.735 586.176 265.834 C 586.274 265.931 586.367 266.137 586.367 266.609 L 586.367 322.043 C 586.367 322.516 586.274 322.722 586.176 322.819 C 586.078 322.917 585.874 323.009 585.4 323.009 L 554.131 323.009 C 553.763 323.009 553.405 323.081 553.12 323.332 C 552.836 323.583 552.695 323.982 552.695 324.401 L 552.695 336.497 C 552.695 336.971 552.603 337.191 552.505 337.288 C 552.407 337.387 552.202 337.464 551.729 337.464 L 407.324 337.463 C 406.852 337.463 406.632 337.386 406.534 337.288 C 406.436 337.191 406.358 336.97 406.358 336.497 L 406.358 324.268 C 406.358 323.853 406.264 323.478 405.978 323.243 C 405.692 323.008 405.372 323.009 405.085 323.009 L 360.736 323.009 C 360.264 323.009 360.043 322.916 359.946 322.818 C 359.848 322.721 359.77 322.515 359.77 322.042 L 359.77 266.609 C 359.77 266.136 359.848 265.931 359.946 265.833 C 360.044 265.735 360.264 265.643 360.736 265.643 L 360.732 265.643 Z" style="fill: rgb(30, 30, 30);" transform="matrix(0.965926, -0.258819, 0.258819, 0.965926, -61.928601, 132.713219)"/>
</svg>