<?xml version="1.0" encoding="utf-8"?>
<svg version="1.2" baseProfile="tiny" id="Layer_3" x="0px" y="0px" preserveAspectRatio="none" xmlns="http://www.w3.org/2000/svg">
  <path id="path3" d="M 361.814 217.284 C 359.301 217.284 357.26 219.325 357.26 221.838 L 357.26 237.625 L 357.26 310.702 C 357.26 313.216 359.301 315.271 361.814 315.271 L 615.217 315.271 C 617.731 315.271 619.772 313.215 619.772 310.702 L 619.772 262.707 C 619.772 260.194 617.731 258.152 615.217 258.152 L 464.015 258.152 C 462.398 258.152 461.435 257.747 460.846 257.106 C 460.259 256.464 459.998 255.511 459.998 254.276 L 459.998 221.84 C 459.998 219.327 457.956 217.286 455.443 217.286 L 434.904 217.286 C 432.391 217.286 430.334 219.327 430.334 221.84 L 430.334 230.384 C 430.334 231.126 430.218 231.771 429.939 232.18 C 429.659 232.59 429.225 232.846 428.297 232.846 L 388.846 232.846 C 388.183 232.846 387.748 232.72 387.445 232.393 C 387.143 232.066 386.922 231.459 386.922 230.384 L 386.922 221.841 C 386.918 219.321 384.863 217.28 382.349 217.28 L 361.81 217.28 L 361.814 217.284 Z M 361.814 218.189 L 382.354 218.189 C 384.378 218.189 386.017 219.814 386.017 221.839 L 386.017 230.383 C 386.017 231.579 386.259 232.435 386.781 232.999 C 387.303 233.565 388.049 233.749 388.846 233.749 L 428.298 233.749 C 429.425 233.749 430.239 233.346 430.688 232.689 C 431.138 232.03 431.241 231.208 431.241 230.383 L 431.241 221.838 C 431.241 219.814 432.88 218.188 434.904 218.188 L 455.444 218.188 C 457.467 218.188 459.093 219.814 459.093 221.838 L 459.093 254.273 C 459.093 255.634 459.383 256.839 460.182 257.711 C 460.981 258.583 462.245 259.055 464.015 259.055 L 615.216 259.055 C 617.241 259.055 618.866 260.681 618.866 262.705 L 618.866 310.7 C 618.866 312.725 617.241 314.363 615.216 314.363 L 361.815 314.363 C 359.79 314.363 358.165 312.724 358.165 310.7 L 358.165 237.623 L 358.165 221.837 C 358.165 219.813 359.79 218.187 361.815 218.187 L 361.814 218.189 Z" style="fill: rgb(30, 30, 30);" transform="matrix(0.965926, -0.258819, 0.258819, 0.965926, -52.271374, 135.510289)"/>
  <path id="path5" stroke="#F4F4F4" stroke-width="1.55" d="M 432.058 278.604" style="fill: rgb(30, 30, 30);" transform="matrix(0.965926, -0.258819, 0.258819, 0.965926, -57.385957, 121.317902)"/>
  <path id="path7" d="M 457.469 220.785 C 454.955 220.785 452.914 222.827 452.914 225.34 L 452.914 253.886 C 452.914 256.399 454.956 258.44 457.469 258.44 L 504.717 258.44 C 507.231 258.44 509.272 256.399 509.272 253.886 L 509.272 225.34 C 509.272 222.825 507.231 220.784 504.718 220.784 L 457.47 220.784 L 457.469 220.785 Z M 457.469 221.691 L 504.717 221.691 C 506.742 221.691 508.367 223.316 508.367 225.34 L 508.367 253.886 C 508.367 255.91 506.742 257.535 504.717 257.535 L 457.469 257.535 C 455.444 257.535 453.819 255.91 453.819 253.886 L 453.819 225.34 C 453.82 223.316 455.444 221.691 457.469 221.691 Z" style="fill: rgb(30, 30, 30);" transform="matrix(0.965926, -0.258819, 0.258819, 0.965926, -45.623269, 132.680455)"/>
  <path id="circle9" d="M 455.695 229.925 C 454.137 229.925 452.866 231.21 452.866 232.768 C 452.866 234.326 454.137 235.597 455.695 235.597 C 457.253 235.597 458.538 234.326 458.538 232.768 C 458.538 231.21 457.253 229.925 455.695 229.925 Z M 455.695 230.83 C 456.764 230.83 457.633 231.699 457.633 232.768 C 457.633 233.837 456.764 234.691 455.695 234.691 C 454.627 234.691 453.771 233.837 453.771 232.768 C 453.771 231.699 454.627 230.83 455.695 230.83 Z" style="fill: rgb(30, 30, 30);" transform="matrix(0.965926, -0.258819, 0.258819, 0.965926, -44.715292, 125.875427)"/>
  <path id="circle11" d="M 466.351 227.072 C 464.793 227.072 463.521 228.357 463.521 229.915 C 463.521 231.474 464.793 232.745 466.351 232.745 C 467.908 232.745 469.18 231.474 469.18 229.915 C 469.18 228.357 467.909 227.072 466.351 227.072 Z M 466.351 227.977 C 467.42 227.977 468.274 228.846 468.274 229.915 C 468.274 230.984 467.419 231.839 466.351 231.839 C 465.282 231.839 464.428 230.984 464.428 229.915 C 464.428 228.846 465.282 227.977 466.351 227.977 Z" style="fill: rgb(30, 30, 30);" transform="matrix(0.965926, -0.258819, 0.258819, 0.965926, -43.614218, 128.534477)"/>
  <path id="circle13" d="M 476.997 224.217 C 475.439 224.217 474.168 225.502 474.168 227.061 C 474.168 228.619 475.439 229.89 476.997 229.89 C 478.555 229.89 479.84 228.619 479.84 227.061 C 479.84 225.502 478.555 224.217 476.997 224.217 Z M 476.997 225.123 C 478.066 225.123 478.935 225.991 478.935 227.061 C 478.935 228.129 478.066 228.984 476.997 228.984 C 475.928 228.984 475.074 228.129 475.074 227.061 C 475.074 225.991 475.928 225.123 476.997 225.123 Z" style="fill: rgb(30, 30, 30);" transform="matrix(0.965926, -0.258819, 0.258819, 0.965926, -42.512221, 131.19423)"/>
  <path id="circle15" d="M 487.652 221.364 C 486.094 221.364 484.823 222.649 484.823 224.207 C 484.823 225.766 486.094 227.037 487.652 227.037 C 489.211 227.037 490.481 225.766 490.481 224.207 C 490.481 222.649 489.211 221.364 487.652 221.364 Z M 487.652 222.269 C 488.72 222.269 489.576 223.138 489.576 224.207 C 489.576 225.276 488.72 226.13 487.652 226.13 C 486.584 226.13 485.728 225.276 485.728 224.207 C 485.728 223.138 486.584 222.269 487.652 222.269 Z" style="fill: rgb(30, 30, 30);" transform="matrix(0.965926, -0.258819, 0.258819, 0.965926, -41.410992, 133.852905)"/>
  <path id="circle17" d="M 462.553 234.593 C 460.995 234.593 459.71 235.864 459.71 237.422 C 459.71 238.98 460.995 240.251 462.553 240.251 C 464.111 240.251 465.382 238.98 465.382 237.422 C 465.381 235.864 464.111 234.593 462.553 234.593 Z M 462.553 235.498 C 463.622 235.498 464.477 236.353 464.477 237.422 C 464.477 238.491 463.622 239.346 462.553 239.346 C 461.484 239.346 460.615 238.491 460.615 237.422 C 460.615 236.353 461.484 235.498 462.553 235.498 Z" style="fill: rgb(30, 30, 30);" transform="matrix(0.965926, -0.258819, 0.258819, 0.965926, -45.688433, 127.805516)"/>
  <path id="circle19" d="M 473.194 231.739 C 471.637 231.739 470.366 233.01 470.366 234.568 C 470.366 236.126 471.637 237.397 473.194 237.397 C 474.752 237.397 476.024 236.126 476.024 234.568 C 476.024 233.01 474.753 231.739 473.194 231.739 Z M 473.194 232.644 C 474.264 232.644 475.118 233.499 475.118 234.568 C 475.118 235.637 474.264 236.492 473.194 236.492 C 472.126 236.492 471.271 235.637 471.271 234.568 C 471.271 233.499 472.126 232.644 473.194 232.644 Z" style="fill: rgb(30, 30, 30);" transform="matrix(0.965926, -0.258819, 0.258819, 0.965926, -44.586919, 130.464516)"/>
  <path id="circle21" d="M 483.855 228.885 C 482.296 228.885 481.011 230.156 481.011 231.714 C 481.011 233.272 482.296 234.543 483.855 234.543 C 485.413 234.543 486.685 233.272 486.685 231.714 C 486.685 230.156 485.413 228.885 483.855 228.885 Z M 483.855 229.79 C 484.923 229.79 485.779 230.645 485.779 231.714 C 485.779 232.783 484.923 233.638 483.855 233.638 C 482.786 233.638 481.917 232.783 481.917 231.714 C 481.917 230.645 482.786 229.79 483.855 229.79 Z" style="fill: rgb(30, 30, 30);" transform="matrix(0.965926, -0.258819, 0.258819, 0.965926, -43.485262, 133.124461)"/>
  <path id="circle23" d="M 494.497 226.031 C 492.938 226.031 491.667 227.302 491.667 228.861 C 491.667 230.418 492.938 231.689 494.497 231.689 C 496.055 231.689 497.326 230.418 497.326 228.861 C 497.325 227.302 496.055 226.031 494.497 226.031 Z M 494.497 226.936 C 495.565 226.936 496.42 227.791 496.42 228.861 C 496.42 229.929 495.565 230.784 494.497 230.784 C 493.427 230.784 492.573 229.929 492.573 228.861 C 492.573 227.792 493.427 226.936 494.497 226.936 Z" style="fill: rgb(30, 30, 30);" transform="matrix(0.965926, -0.258819, 0.258819, 0.965926, -42.383729, 135.783077)"/>
  <path id="circle25" d="M 465.796 246.699 C 464.239 246.699 462.953 247.97 462.953 249.528 C 462.953 251.086 464.238 252.357 465.796 252.357 C 467.355 252.357 468.626 251.086 468.626 249.528 C 468.625 247.97 467.354 246.699 465.796 246.699 Z M 465.796 247.604 C 466.866 247.604 467.721 248.459 467.721 249.527 C 467.721 250.596 466.866 251.45 465.796 251.45 C 464.728 251.45 463.859 250.596 463.859 249.527 C 463.859 248.459 464.728 247.604 465.796 247.604 Z" style="fill: rgb(30, 30, 30);" transform="matrix(0.965926, -0.258819, 0.258819, 0.965926, -48.711171, 129.057497)"/>
  <path id="circle27" d="M 476.438 243.845 C 474.881 243.845 473.61 245.116 473.61 246.675 C 473.61 248.233 474.881 249.504 476.438 249.504 C 477.996 249.504 479.268 248.233 479.268 246.675 C 479.268 245.116 477.997 243.845 476.438 243.845 Z M 476.438 244.751 C 477.508 244.751 478.362 245.605 478.362 246.674 C 478.362 247.743 477.508 248.597 476.438 248.597 C 475.37 248.597 474.515 247.743 474.515 246.674 C 474.515 245.605 475.37 244.751 476.438 244.751 Z" style="fill: rgb(30, 30, 30);" transform="matrix(0.965926, -0.258819, 0.258819, 0.965926, -47.609841, 131.716944)"/>
  <path id="circle29" d="M 487.099 240.991 C 485.541 240.991 484.255 242.262 484.255 243.82 C 484.255 245.378 485.541 246.649 487.099 246.649 C 488.657 246.649 489.929 245.378 489.929 243.82 C 489.929 242.262 488.657 240.991 487.099 240.991 Z M 487.099 241.896 C 488.167 241.896 489.023 242.751 489.023 243.819 C 489.023 244.888 488.167 245.742 487.099 245.742 C 486.03 245.742 485.161 244.888 485.161 243.819 C 485.161 242.751 486.03 241.896 487.099 241.896 Z" style="fill: rgb(30, 30, 30);" transform="matrix(0.965926, -0.258819, 0.258819, 0.965926, -46.508039, 134.376795)"/>
  <path id="circle31" d="M 497.741 238.137 C 496.182 238.137 494.911 239.408 494.911 240.967 C 494.911 242.525 496.182 243.796 497.741 243.796 C 499.299 243.796 500.57 242.525 500.57 240.967 C 500.57 239.408 499.299 238.137 497.741 238.137 Z M 497.741 239.042 C 498.809 239.042 499.664 239.897 499.664 240.966 C 499.664 242.035 498.809 242.889 497.741 242.889 C 496.671 242.889 495.817 242.035 495.817 240.966 C 495.817 239.897 496.671 239.042 497.741 239.042 Z" style="fill: rgb(30, 30, 30);" transform="matrix(0.965926, -0.258819, 0.258819, 0.965926, -45.406603, 137.035381)"/>
  <path id="circle33" d="M 498.299 218.509 C 496.74 218.509 495.47 219.794 495.47 221.353 C 495.47 222.911 496.74 224.182 498.299 224.182 C 499.857 224.182 501.142 222.911 501.142 221.353 C 501.143 219.794 499.857 218.509 498.299 218.509 Z M 498.299 219.415 C 499.368 219.415 500.237 220.283 500.237 221.353 C 500.237 222.421 499.368 223.276 498.299 223.276 C 497.23 223.276 496.375 222.421 496.375 221.353 C 496.375 220.283 497.23 219.415 498.299 219.415 Z" style="fill: rgb(30, 30, 30);" transform="matrix(0.965926, -0.258819, 0.258819, 0.965926, -40.309105, 136.513491)"/>
  <path id="circle35" d="M 458.899 241.88 C 457.341 241.88 456.07 243.165 456.07 244.724 C 456.07 246.281 457.341 247.553 458.899 247.553 C 460.457 247.553 461.742 246.282 461.742 244.724 C 461.742 243.165 460.457 241.88 458.899 241.88 Z M 458.899 242.785 C 459.968 242.785 460.837 243.654 460.837 244.723 C 460.837 245.792 459.967 246.647 458.899 246.647 C 457.83 246.647 456.975 245.792 456.975 244.723 C 456.974 243.655 457.83 242.785 458.899 242.785 Z" style="fill: rgb(30, 30, 30);" transform="matrix(0.965926, -0.258819, 0.258819, 0.965926, -47.700425, 127.112062)"/>
  <path id="circle37" d="M 469.554 239.028 C 467.996 239.028 466.725 240.313 466.725 241.871 C 466.725 243.429 467.996 244.7 469.554 244.7 C 471.112 244.7 472.383 243.429 472.383 241.871 C 472.383 240.313 471.112 239.028 469.554 239.028 Z M 469.554 239.932 C 470.623 239.932 471.478 240.801 471.478 241.87 C 471.478 242.939 470.622 243.794 469.554 243.794 C 468.485 243.794 467.631 242.939 467.631 241.87 C 467.631 240.802 468.485 239.932 469.554 239.932 Z" style="fill: rgb(30, 30, 30);" transform="matrix(0.965926, -0.258819, 0.258819, 0.965926, -46.599325, 129.770772)"/>
  <path id="circle39" d="M 480.2 236.173 C 478.643 236.173 477.372 237.458 477.372 239.016 C 477.372 240.574 478.643 241.845 480.2 241.845 C 481.758 241.845 483.044 240.574 483.044 239.016 C 483.044 237.458 481.758 236.173 480.2 236.173 Z M 480.2 237.077 C 481.269 237.077 482.138 237.946 482.138 239.016 C 482.138 240.084 481.269 240.939 480.2 240.939 C 479.132 240.939 478.277 240.084 478.277 239.016 C 478.276 237.947 479.132 237.077 480.2 237.077 Z" style="fill: rgb(30, 30, 30);" transform="matrix(0.965926, -0.258819, 0.258819, 0.965926, -45.497377, 132.430947)"/>
  <path id="circle41" d="M 490.856 233.319 C 489.298 233.319 488.027 234.605 488.027 236.163 C 488.027 237.72 489.298 238.992 490.856 238.992 C 492.414 238.992 493.685 237.721 493.685 236.163 C 493.685 234.605 492.414 233.319 490.856 233.319 Z M 490.856 234.224 C 491.924 234.224 492.779 235.093 492.779 236.162 C 492.779 237.231 491.924 238.086 490.856 238.086 C 489.788 238.086 488.932 237.231 488.932 236.162 C 488.932 235.094 489.788 234.224 490.856 234.224 Z" style="fill: rgb(30, 30, 30);" transform="matrix(0.965926, -0.258819, 0.258819, 0.965926, -44.395997, 135.089538)"/>
  <path id="circle43" d="M 501.503 230.465 C 499.944 230.465 498.673 231.75 498.673 233.308 C 498.673 234.866 499.944 236.137 501.503 236.137 C 503.06 236.137 504.346 234.866 504.346 233.308 C 504.347 231.75 503.06 230.465 501.503 230.465 Z M 501.503 231.369 C 502.572 231.369 503.441 232.238 503.441 233.307 C 503.441 234.376 502.572 235.231 501.503 235.231 C 500.433 235.231 499.579 234.376 499.579 233.307 C 499.579 232.239 500.433 231.369 501.503 231.369 Z" style="fill: rgb(30, 30, 30);" transform="matrix(0.965926, -0.258819, 0.258819, 0.965926, -43.294178, 137.749504)"/>
  <path id="circle45" d="M 462.104 253.85 C 460.546 253.85 459.275 255.121 459.275 256.679 C 459.275 258.237 460.546 259.508 462.104 259.508 C 463.662 259.508 464.947 258.237 464.947 256.679 C 464.947 255.121 463.662 253.85 462.104 253.85 Z M 462.104 254.755 C 463.173 254.755 464.042 255.61 464.042 256.679 C 464.042 257.748 463.172 258.603 462.104 258.603 C 461.035 258.603 460.18 257.747 460.18 256.679 C 460.18 255.61 461.035 254.755 462.104 254.755 Z" style="fill: rgb(30, 30, 30);" transform="matrix(0.965926, -0.258819, 0.258819, 0.965926, -50.687402, 128.349403)"/>
  <path id="circle47" d="M 472.759 250.996 C 471.201 250.996 469.93 252.268 469.93 253.826 C 469.93 255.383 471.201 256.655 472.759 256.655 C 474.317 256.655 475.588 255.383 475.588 253.826 C 475.588 252.268 474.317 250.996 472.759 250.996 Z M 472.759 251.902 C 473.828 251.902 474.683 252.757 474.683 253.826 C 474.683 254.894 473.827 255.749 472.759 255.749 C 471.69 255.749 470.836 254.894 470.836 253.826 C 470.836 252.757 471.69 251.902 472.759 251.902 Z" style="fill: rgb(30, 30, 30);" transform="matrix(0.965926, -0.258819, 0.258819, 0.965926, -49.586055, 131.008163)"/>
  <path id="circle49" d="M 483.406 248.142 C 481.848 248.142 480.577 249.413 480.577 250.971 C 480.577 252.529 481.848 253.8 483.406 253.8 C 484.963 253.8 486.249 252.529 486.249 250.971 C 486.249 249.413 484.963 248.142 483.406 248.142 Z M 483.406 249.047 C 484.474 249.047 485.344 249.902 485.344 250.971 C 485.344 252.04 484.474 252.895 483.406 252.895 C 482.337 252.895 481.482 252.039 481.482 250.971 C 481.481 249.902 482.337 249.047 483.406 249.047 Z" style="fill: rgb(30, 30, 30);" transform="matrix(0.965926, -0.258819, 0.258819, 0.965926, -48.484228, 133.66836)"/>
  <path id="circle51" d="M 494.061 245.289 C 492.503 245.289 491.232 246.56 491.232 248.118 C 491.232 249.676 492.503 250.947 494.061 250.947 C 495.62 250.947 496.89 249.676 496.89 248.118 C 496.89 246.56 495.62 245.289 494.061 245.289 Z M 494.061 246.194 C 495.129 246.194 495.984 247.049 495.984 248.118 C 495.984 249.187 495.129 250.042 494.061 250.042 C 492.993 250.042 492.137 249.186 492.137 248.118 C 492.137 247.049 492.993 246.194 494.061 246.194 Z" style="fill: rgb(30, 30, 30);" transform="matrix(0.965926, -0.258819, 0.258819, 0.965926, -47.382893, 136.326575)"/>
  <path id="circle53" d="M 504.708 242.434 C 503.149 242.434 501.879 243.705 501.879 245.263 C 501.879 246.821 503.149 248.092 504.708 248.092 C 506.266 248.092 507.551 246.821 507.551 245.263 C 507.552 243.705 506.266 242.434 504.708 242.434 Z M 504.708 243.339 C 505.777 243.339 506.646 244.195 506.646 245.263 C 506.646 246.332 505.777 247.187 504.708 247.187 C 503.639 247.187 502.784 246.332 502.784 245.263 C 502.784 244.195 503.639 243.339 504.708 243.339 Z" style="fill: rgb(30, 30, 30);" transform="matrix(0.965926, -0.258819, 0.258819, 0.965926, -46.281034, 138.987237)"/>
  <path id="path55" d="M 383.049 245.859 C 382.088 245.859 381.294 246.652 381.294 247.613 L 381.294 251.39 C 381.294 252.351 382.088 253.144 383.049 253.144 L 419.699 253.144 C 420.661 253.144 421.439 252.351 421.439 251.39 L 421.439 247.613 C 421.439 246.652 420.661 245.859 419.699 245.859 L 383.049 245.859 Z M 383.049 246.764 L 419.699 246.764 C 420.172 246.764 420.534 247.141 420.534 247.613 L 420.534 251.39 C 420.534 251.862 420.172 252.239 419.699 252.239 L 383.049 252.239 C 382.577 252.239 382.2 251.861 382.2 251.39 L 382.2 247.613 C 382.2 247.141 382.577 246.764 383.049 246.764 Z" style="fill: rgb(30, 30, 30);" transform="matrix(0.965926, -0.258819, 0.258819, 0.965926, -50.899485, 112.382793)"/>
  <path id="path57" d="M 388.625 247.372 C 387.663 247.372 386.87 248.166 386.87 249.127 L 386.87 252.691 C 386.87 253.653 387.663 254.445 388.625 254.445 L 402.784 254.445 C 403.746 254.445 404.538 253.653 404.538 252.691 L 404.538 249.127 C 404.538 248.165 403.745 247.372 402.784 247.372 L 388.625 247.372 Z M 388.625 248.278 L 402.784 248.278 C 403.256 248.278 403.634 248.655 403.634 249.127 L 403.634 252.691 C 403.634 253.163 403.256 253.54 402.784 253.54 L 388.625 253.54 C 388.152 253.54 387.776 253.163 387.776 252.691 L 387.776 249.127 C 387.776 248.655 388.152 248.278 388.625 248.278 Z" style="fill: rgb(30, 30, 30);" transform="matrix(0.965926, -0.258819, 0.258819, 0.965926, -51.456575, 110.965095)"/>
  <path id="circle59" d="M 551.606 258.84 C 542.674 258.84 535.423 266.091 535.423 275.022 C 535.423 283.954 542.674 291.205 551.606 291.205 C 560.538 291.205 567.788 283.954 567.788 275.022 C 567.788 266.091 560.538 258.84 551.606 258.84 Z M 551.606 259.745 C 560.049 259.745 566.883 266.58 566.883 275.022 C 566.883 283.465 560.049 290.3 551.606 290.3 C 543.164 290.3 536.329 283.465 536.329 275.022 C 536.329 266.58 543.163 259.745 551.606 259.745 Z" style="fill: rgb(30, 30, 30);" transform="matrix(0.965926, -0.258819, 0.258819, 0.965926, -52.385537, 152.137084)"/>
  <path id="circle61" d="M 551.607 261.823 C 544.318 261.823 538.394 267.73 538.394 275.021 C 538.394 282.31 544.318 288.233 551.607 288.233 C 558.897 288.233 564.819 282.31 564.819 275.021 C 564.819 267.73 558.897 261.823 551.607 261.823 Z M 551.607 262.728 C 558.409 262.728 563.914 268.22 563.914 275.021 C 563.914 281.822 558.408 287.328 551.607 287.328 C 544.806 287.328 539.3 281.821 539.3 275.021 C 539.3 268.22 544.806 262.728 551.607 262.728 Z" style="fill: rgb(30, 30, 30);" transform="matrix(0.965926, -0.258819, 0.258819, 0.965926, -52.38701, 152.137872)"/>
  <path id="circle63" d="M 587.638 249.185 C 578.707 249.185 571.456 256.436 571.456 265.367 C 571.456 274.299 578.707 281.55 587.638 281.55 C 596.57 281.55 603.821 274.299 603.821 265.367 C 603.821 256.436 596.57 249.185 587.638 249.185 Z M 587.638 250.09 C 596.081 250.09 602.915 256.925 602.915 265.367 C 602.915 273.81 596.081 280.645 587.638 280.645 C 579.196 280.645 572.361 273.81 572.361 265.367 C 572.361 256.925 579.196 250.09 587.638 250.09 Z" style="fill: rgb(30, 30, 30);" transform="matrix(0.965926, -0.258819, 0.258819, 0.965926, -48.658848, 161.13412)"/>
  <path id="circle65" d="M 587.64 252.17 C 580.35 252.17 574.428 258.077 574.428 265.368 C 574.428 272.657 580.35 278.58 587.64 278.58 C 594.929 278.58 600.837 272.657 600.837 265.368 C 600.837 258.077 594.929 252.17 587.64 252.17 Z M 587.64 253.075 C 594.441 253.075 599.932 258.567 599.932 265.368 C 599.932 272.169 594.44 277.675 587.64 277.675 C 580.839 277.675 575.333 272.168 575.333 265.368 C 575.333 258.567 580.839 253.075 587.64 253.075 Z" style="fill: rgb(30, 30, 30);" transform="matrix(0.965926, -0.258819, 0.258819, 0.965926, -48.661, 161.13281)"/>
  <path id="path67" d="M 391.69 272.278 C 389.534 272.278 387.771 274.027 387.771 276.183 L 387.771 287.4 C 387.771 288.131 387.697 288.466 387.658 288.518 C 387.638 288.543 387.634 288.561 387.516 288.588 C 387.399 288.616 387.184 288.631 386.894 288.631 L 375.323 288.631 C 373.168 288.631 371.419 290.394 371.419 292.55 L 371.419 310.571 C 371.419 312.725 373.168 314.475 375.323 314.475 L 386.781 314.475 C 387.15 314.475 387.422 314.484 387.587 314.504 C 387.752 314.523 387.793 314.565 387.77 314.545 C 387.749 314.527 387.759 314.488 387.77 314.587 C 387.783 314.688 387.77 314.881 387.77 315.14 L 387.77 326.922 C 387.77 329.077 389.534 330.841 391.689 330.841 L 409.71 330.841 C 411.865 330.841 413.614 329.077 413.614 326.922 L 413.614 315.181 C 413.614 314.977 413.626 314.809 413.642 314.714 C 413.659 314.62 413.672 314.614 413.685 314.602 C 413.71 314.575 413.929 314.464 414.561 314.474 L 414.576 314.474 L 426.062 314.474 C 428.217 314.474 429.98 312.725 429.98 310.57 L 429.98 292.549 C 429.98 290.394 428.217 288.631 426.062 288.631 L 414.534 288.631 C 414.257 288.631 414.06 288.619 413.94 288.588 C 413.82 288.557 413.785 288.525 413.757 288.489 C 413.698 288.417 413.615 288.099 413.615 287.428 L 413.615 276.181 C 413.615 274.027 411.866 272.277 409.711 272.277 L 391.69 272.278 L 391.69 272.278 Z M 391.69 273.183 L 409.711 273.183 C 411.376 273.183 412.709 274.516 412.709 276.182 L 412.709 287.428 C 412.709 288.14 412.717 288.644 413.049 289.054 C 413.214 289.26 413.466 289.401 413.714 289.465 C 413.962 289.529 414.222 289.536 414.534 289.536 L 426.063 289.536 C 427.729 289.536 429.076 290.883 429.076 292.549 L 429.076 310.57 C 429.076 312.236 427.729 313.569 426.063 313.569 L 414.577 313.569 C 413.867 313.556 413.376 313.618 413.034 313.966 C 412.864 314.138 412.788 314.355 412.751 314.559 C 412.714 314.763 412.709 314.966 412.709 315.181 L 412.709 326.923 C 412.709 328.589 411.376 329.936 409.711 329.936 L 391.69 329.936 C 390.023 329.936 388.676 328.588 388.676 326.923 L 388.676 315.14 C 388.676 314.888 388.687 314.694 388.662 314.489 C 388.638 314.284 388.56 314.037 388.365 313.867 C 388.17 313.696 387.946 313.643 387.7 313.612 C 387.456 313.582 387.16 313.569 386.781 313.569 L 375.324 313.569 C 373.657 313.569 372.325 312.237 372.325 310.571 L 372.325 292.55 C 372.325 290.883 373.657 289.536 375.324 289.536 L 386.894 289.536 C 387.21 289.536 387.468 289.538 387.715 289.48 C 387.961 289.422 388.217 289.282 388.379 289.07 C 388.704 288.646 388.677 288.156 388.677 287.4 L 388.677 276.183 C 388.677 274.517 390.024 273.184 391.69 273.184 L 391.69 273.183 Z" style="fill: rgb(30, 30, 30);" transform="matrix(0.965926, -0.258819, 0.258819, 0.965926, -64.395793, 113.984246)"/>
  <path id="path69" d="M 391.618 274.978 C 391.028 274.978 390.542 275.463 390.542 276.053 L 390.542 291.203 C 390.542 291.303 390.523 291.33 390.486 291.33 L 375.264 291.33 C 374.675 291.33 374.19 291.829 374.19 292.419 L 374.19 310.583 C 374.19 311.172 374.675 311.658 375.264 311.658 L 390.457 311.658 L 390.471 311.658 C 390.526 311.662 390.563 311.677 390.556 311.672 C 390.548 311.665 390.542 311.641 390.542 311.686 L 390.542 327.161 C 390.542 327.75 391.027 328.235 391.617 328.235 L 409.794 328.235 C 410.384 328.235 410.869 327.75 410.869 327.161 L 410.869 311.686 C 410.869 311.668 410.824 311.657 410.954 311.657 L 426.161 311.657 C 426.751 311.657 427.236 311.172 427.236 310.582 L 427.236 292.419 C 427.236 291.829 426.751 291.329 426.161 291.329 L 410.94 291.329 C 410.909 291.329 410.87 291.304 410.87 291.216 L 410.87 276.053 C 410.87 275.463 410.384 274.977 409.795 274.977 L 391.618 274.977 L 391.618 274.978 Z M 391.618 275.883 L 409.795 275.883 C 409.895 275.883 409.965 275.953 409.965 276.053 L 409.965 291.217 C 409.965 291.741 410.373 292.236 410.941 292.236 L 426.161 292.236 C 426.262 292.236 426.331 292.319 426.331 292.419 L 426.331 310.583 C 426.331 310.683 426.262 310.752 426.161 310.752 L 410.955 310.752 C 410.407 310.752 409.965 311.208 409.965 311.686 L 409.965 327.161 C 409.965 327.262 409.895 327.331 409.795 327.331 L 391.618 327.331 C 391.518 327.331 391.448 327.262 391.448 327.161 L 391.448 311.686 C 391.448 311.43 391.344 311.162 391.15 310.992 C 390.957 310.822 390.716 310.751 390.472 310.751 L 375.265 310.751 C 375.164 310.751 375.096 310.682 375.096 310.582 L 375.095 292.419 C 375.095 292.317 375.164 292.235 375.265 292.235 L 390.486 292.235 C 391.062 292.235 391.448 291.714 391.448 291.202 L 391.448 276.053 C 391.448 275.953 391.518 275.883 391.618 275.883 L 391.618 275.883 Z" style="fill: rgb(30, 30, 30);" transform="matrix(0.965926, -0.258819, 0.258819, 0.965926, -64.407352, 113.988993)"/>
  <path id="path73" stroke="#F4F4F4" stroke-width="1.55" d="M 390.058 303.134" style="fill: rgb(30, 30, 30);" transform="matrix(0.965926, -0.258819, 0.258819, 0.965926, -65.165921, 111.28342)"/>
  <path id="path83" d="M 359.1 207.983 C 353.804 207.983 349.509 212.402 349.509 217.828 L 349.509 315.462 C 349.509 320.889 353.804 325.307 359.1 325.307 L 619.078 325.307 C 624.375 325.307 628.655 320.889 628.655 315.462 L 628.655 217.828 C 628.655 212.402 624.373 207.983 619.077 207.983 L 359.098 207.983 L 359.1 207.983 Z M 359.1 208.888 L 619.078 208.888 C 623.872 208.888 627.75 212.878 627.75 217.828 L 627.75 315.462 C 627.75 320.413 623.872 324.402 619.078 324.402 L 359.1 324.402 C 354.306 324.402 350.413 320.414 350.413 315.462 L 350.413 217.828 C 350.413 212.878 354.306 208.888 359.1 208.888 L 359.1 208.888 Z" style="fill: rgb(30, 30, 30);" transform="matrix(0.965926, -0.258819, 0.258819, 0.965926, -52.347702, 135.669299)"/>
  <path id="path85" d="M 489.444 264.474 C 486.348 264.474 483.828 266.994 483.828 270.09 L 483.828 270.542 L 484.281 270.542 L 494.607 270.542 L 495.06 270.542 L 495.06 270.09 C 495.06 266.994 492.54 264.474 489.444 264.474 Z M 489.444 265.379 C 491.89 265.379 493.834 267.255 494.07 269.637 L 484.819 269.637 C 485.055 267.255 486.997 265.379 489.444 265.379 Z" style="fill: rgb(30, 30, 30);" transform="matrix(0.965926, -0.258819, 0.258819, 0.965926, -52.558743, 135.792462)"/>
  <path id="path87" d="M 489.178 262.909 C 485.203 262.909 481.978 266.147 481.978 270.123 L 482.884 270.123 C 482.884 266.637 485.693 263.814 489.178 263.814 C 492.666 263.814 495.488 266.637 495.488 270.123 L 496.393 270.123 C 496.392 266.147 493.155 262.909 489.178 262.909 Z" style="fill: rgb(30, 30, 30);" transform="matrix(0.965926, -0.258819, 0.258819, 0.965926, -52.310806, 135.691751)"/>
</svg>