<?xml version="1.0" encoding="utf-8"?>
<svg version="1.1" xmlns="http://www.w3.org/2000/svg">
  <path d="M 174.071 38.198 L 200 38.198 L 200 44.568 L 191.307 44.568 L 191.307 63.959 L 182.764 63.959 L 182.764 44.568 L 174.071 44.568 L 174.071 38.198 Z" style="fill: rgb(255, 255, 255);"/>
  <path d="M 146.602 55.437 L 154.745 54.966 C 154.92 56.19 155.282 57.124 155.825 57.764 C 156.708 58.804 157.969 59.322 159.612 59.322 C 160.836 59.322 161.778 59.056 162.441 58.522 C 163.105 57.991 163.437 57.373 163.437 56.671 C 163.437 56.003 163.12 55.406 162.486 54.878 C 161.85 54.352 160.388 53.853 158.098 53.385 C 154.348 52.605 151.672 51.561 150.075 50.264 C 148.464 48.966 147.658 47.311 147.658 45.3 C 147.658 43.98 148.069 42.733 148.895 41.556 C 149.719 40.381 150.96 39.456 152.616 38.782 C 154.27 38.113 156.537 37.777 159.42 37.777 C 162.956 37.777 165.655 38.389 167.512 39.609 C 169.366 40.833 170.473 42.774 170.825 45.44 L 162.785 45.88 C 162.567 44.72 162.115 43.874 161.424 43.344 C 160.735 42.816 159.784 42.553 158.568 42.553 C 157.567 42.553 156.814 42.749 156.309 43.144 C 155.802 43.535 155.548 44.012 155.548 44.574 C 155.548 44.984 155.758 45.352 156.182 45.682 C 156.59 46.02 157.551 46.336 159.06 46.63 C 162.799 47.378 165.476 48.134 167.092 48.9 C 168.71 49.667 169.888 50.619 170.622 51.755 C 171.361 52.891 171.728 54.161 171.728 55.566 C 171.728 57.218 171.237 58.737 170.256 60.13 C 169.272 61.524 167.901 62.58 166.136 63.301 C 164.373 64.02 162.15 64.38 159.468 64.38 C 154.755 64.38 151.496 63.538 149.681 61.858 C 147.868 60.171 146.841 58.034 146.602 55.437 Z" style="fill: rgb(255, 255, 255);"/>
  <path d="M 135.104 59.697 L 125.439 59.697 L 124.045 63.959 L 115.329 63.959 L 125.683 38.198 L 135.052 38.198 L 145.427 63.959 L 136.49 63.959 L 135.104 59.697 M 133.296 54.124 L 130.279 44.87 L 127.256 54.124 L 133.296 54.124 Z" style="fill: rgb(255, 255, 255);"/>
  <path d="M 90.224 38.198 L 113.135 38.198 L 113.135 43.679 L 98.765 43.679 L 98.765 47.8 L 112.081 47.8 L 112.081 53.046 L 98.765 53.046 L 98.765 58.105 L 113.538 58.105 L 113.538 63.959 L 90.224 63.959 L 90.224 38.198 Z" style="fill: rgb(255, 255, 255);"/>
  <path d="M 188.208 23.685 L 178.54 23.685 L 177.144 27.948 L 168.431 27.948 L 178.786 2.187 L 188.153 2.187 L 198.53 27.948 L 189.592 27.948 L 188.208 23.685 M 186.396 18.111 L 183.38 8.857 L 180.358 18.111 L 186.396 18.111 Z" style="fill: rgb(255, 255, 255);"/>
  <path d="M 144.034 2.187 L 169.963 2.187 L 169.963 8.556 L 161.271 8.556 L 161.271 27.948 L 152.728 27.948 L 152.728 8.556 L 144.034 8.556 L 144.034 2.187 Z" style="fill: rgb(255, 255, 255);"/>
  <path d="M 135.595 23.685 L 125.928 23.685 L 124.534 27.948 L 115.819 27.948 L 126.174 2.187 L 135.543 2.187 L 145.918 27.948 L 136.98 27.948 L 135.595 23.685 M 133.786 18.111 L 130.768 8.857 L 127.746 18.111 L 133.786 18.111 Z" style="fill: rgb(255, 255, 255);"/>
  <path d="M 90.373 2.187 L 103.033 2.187 C 105.528 2.187 107.546 2.501 109.081 3.135 C 110.618 3.768 111.889 4.678 112.889 5.859 C 113.893 7.044 114.621 8.419 115.071 9.99 C 115.523 11.559 115.75 13.224 115.75 14.979 C 115.75 17.73 115.414 19.868 114.743 21.384 C 114.071 22.901 113.14 24.176 111.949 25.199 C 110.758 26.222 109.477 26.905 108.111 27.246 C 106.242 27.713 104.55 27.948 103.033 27.948 L 90.373 27.948 L 90.373 2.187 M 98.916 8.041 L 98.916 22.093 L 100.991 22.093 C 102.759 22.093 104.017 21.907 104.765 21.54 C 105.513 21.173 106.098 20.53 106.521 19.61 C 106.945 18.693 107.156 17.204 107.156 15.145 C 107.156 12.421 106.684 10.556 105.737 9.552 C 104.79 8.545 103.219 8.041 101.027 8.041 L 98.916 8.041 Z" style="fill: rgb(255, 255, 255);"/>
  <path d="M 5.362 0 C 5.266 0 5.171 0.012 5.076 0.012 L 0 0.012 L 0 9.135 L 3.936 9.127 C 17.184 9.127 27.922 19.866 27.922 33.115 C 27.922 46.326 17.238 57.042 4.037 57.097 L 0 57.102 L 0 66.229 L 5.502 66.229 L 5.502 66.222 C 23.724 66.147 38.474 51.355 38.474 33.115 C 38.474 14.827 23.649 0 5.362 0 Z" style="fill: rgb(255, 255, 255);"/>
  <path d="M 23.962 33.115 C 23.962 21.731 14.733 12.501 3.351 12.501 C 3.289 12.501 0.013 12.51 0.013 12.51 L 0.013 53.726 L 3.438 53.722 C 14.78 53.674 23.962 44.467 23.962 33.115 Z" style="fill: rgb(255, 255, 255);"/>
  <path d="M 52.429 34.537 C 53.162 45.225 62.019 53.677 72.881 53.722 L 76.306 53.726 L 76.306 34.537 L 52.429 34.537 Z" style="fill: rgb(255, 255, 255);"/>
  <path d="M 76.306 31.671 L 76.306 12.51 C 76.306 12.51 73.03 12.503 72.968 12.503 C 62.073 12.503 53.173 20.965 52.43 31.671 L 76.306 31.671 Z" style="fill: rgb(255, 255, 255);"/>
  <path d="M 70.957 0 C 71.054 0 71.148 0.012 71.245 0.012 L 76.319 0.012 L 76.319 9.135 L 72.383 9.127 C 59.136 9.127 48.395 19.866 48.395 33.115 C 48.395 46.326 59.081 57.042 72.282 57.097 L 76.319 57.102 L 76.319 66.229 L 70.818 66.229 L 70.818 66.222 C 52.595 66.147 37.844 51.355 37.844 33.115 C 37.844 14.827 52.67 0 70.957 0 Z" style="fill: rgb(255, 255, 255);"/>
</svg>