<?xml version="1.0" encoding="utf-8"?>
<svg version="1.1" xmlns="http://www.w3.org/2000/svg">
  <g transform="matrix(2,0,0,-2,-422.8022,899.2476)" fill="#f91b20"/>
  <path d="M 303.585 66.618 L 348.806 66.618 L 348.806 77.727 L 333.646 77.727 L 333.646 111.547 L 318.747 111.547 L 318.747 77.727 L 303.585 77.727 L 303.585 66.618 Z" style="fill: rgb(255, 255, 255);"/>
  <path d="M 255.679 96.684 L 269.878 95.862 C 270.185 97.996 270.815 99.625 271.763 100.743 C 273.302 102.555 275.503 103.459 278.368 103.459 C 280.503 103.459 282.147 102.995 283.302 102.065 C 284.458 101.137 285.038 100.059 285.038 98.834 C 285.038 97.67 284.485 96.629 283.378 95.709 C 282.272 94.789 279.72 93.922 275.728 93.106 C 269.187 91.743 264.521 89.924 261.735 87.663 C 258.925 85.397 257.519 82.512 257.519 79.004 C 257.519 76.702 258.237 74.528 259.677 72.475 C 261.114 70.426 263.278 68.813 266.165 67.639 C 269.05 66.471 273.005 65.883 278.034 65.883 C 284.202 65.883 288.907 66.95 292.144 69.079 C 295.38 71.213 297.308 74.598 297.923 79.25 L 283.901 80.016 C 283.522 77.993 282.733 76.518 281.53 75.594 C 280.327 74.674 278.667 74.215 276.546 74.215 C 274.802 74.215 273.487 74.557 272.606 75.243 C 271.722 75.926 271.28 76.758 271.28 77.739 C 271.28 78.454 271.647 79.096 272.386 79.668 C 273.099 80.26 274.772 80.811 277.405 81.323 C 283.925 82.629 288.595 83.946 291.415 85.284 C 294.235 86.621 296.288 88.282 297.571 90.262 C 298.858 92.243 299.499 94.459 299.499 96.909 C 299.499 99.789 298.642 102.438 296.931 104.868 C 295.216 107.299 292.823 109.141 289.747 110.397 C 286.671 111.653 282.794 112.282 278.114 112.282 C 269.899 112.282 264.214 110.811 261.048 107.881 C 257.888 104.94 256.097 101.213 255.679 96.684 Z" style="fill: rgb(255, 255, 255);"/>
  <path d="M 235.626 104.114 L 218.767 104.114 L 216.337 111.547 L 201.136 111.547 L 219.194 66.618 L 235.534 66.618 L 253.63 111.547 L 238.042 111.547 L 235.626 104.114 M 232.472 94.393 L 227.21 78.254 L 221.938 94.393 L 232.472 94.393 Z" style="fill: rgb(255, 255, 255);"/>
  <path d="M 157.351 66.618 L 197.313 66.618 L 197.313 76.176 L 172.249 76.176 L 172.249 83.364 L 195.474 83.364 L 195.474 92.514 L 172.249 92.514 L 172.249 101.336 L 198.015 101.336 L 198.015 111.547 L 157.351 111.547 L 157.351 66.618 Z" style="fill: rgb(255, 255, 255);"/>
  <path d="M 328.239 41.307 L 311.378 41.307 L 308.946 48.741 L 293.749 48.741 L 311.808 3.813 L 328.146 3.813 L 346.243 48.741 L 330.655 48.741 L 328.239 41.307 M 325.081 31.586 L 319.819 15.448 L 314.55 31.586 L 325.081 31.586 Z" style="fill: rgb(255, 255, 255);"/>
  <path d="M 251.2 3.813 L 296.421 3.813 L 296.421 14.922 L 281.261 14.922 L 281.261 48.741 L 266.362 48.741 L 266.362 14.922 L 251.2 14.922 L 251.2 3.813 Z" style="fill: rgb(255, 255, 255);"/>
  <path d="M 236.481 41.307 L 219.62 41.307 L 217.19 48.741 L 201.991 48.741 L 220.05 3.813 L 236.39 3.813 L 254.485 48.741 L 238.897 48.741 L 236.481 41.307 M 233.325 31.586 L 228.062 15.448 L 222.794 31.586 L 233.325 31.586 Z" style="fill: rgb(255, 255, 255);"/>
  <path d="M 157.613 3.813 L 179.692 3.813 C 184.044 3.813 187.562 4.364 190.241 5.467 C 192.921 6.571 195.136 8.157 196.882 10.219 C 198.634 12.284 199.901 14.682 200.688 17.424 C 201.476 20.161 201.87 23.061 201.87 26.123 C 201.87 30.922 201.284 34.649 200.114 37.293 C 198.944 39.94 197.319 42.161 195.243 43.946 C 193.165 45.733 190.931 46.922 188.55 47.516 C 185.29 48.332 182.339 48.741 179.692 48.741 L 157.613 48.741 L 157.613 3.813 M 172.512 14.024 L 172.512 38.53 L 176.13 38.53 C 179.216 38.53 181.409 38.207 182.714 37.565 C 184.017 36.926 185.04 35.803 185.776 34.2 C 186.515 32.602 186.884 30.004 186.884 26.414 C 186.884 21.661 186.058 18.409 184.409 16.659 C 182.755 14.903 180.015 14.024 176.192 14.024 L 172.512 14.024 Z" style="fill: rgb(255, 255, 255);"/>
  <path d="M 9.351 0 C 9.182 0 9.019 0.02 8.85 0.021 L 0 0.021 L 0 15.932 L 6.864 15.918 C 29.968 15.918 48.698 34.648 48.698 57.752 C 48.698 80.796 30.063 99.483 7.041 99.579 L 0 99.587 L 0 115.505 L 9.594 115.505 L 9.594 115.495 C 41.375 115.363 67.101 89.564 67.101 57.751 C 67.101 25.858 41.244 0.001 9.351 0.001 Z" style="fill: rgb(255, 255, 255);"/>
  <path d="M 41.79 57.751 C 41.79 37.899 25.695 21.804 5.843 21.804 C 5.736 21.804 0.021 21.816 0.021 21.816 L 0.021 93.699 L 5.994 93.693 C 25.777 93.609 41.79 77.552 41.79 57.751 Z" style="fill: rgb(255, 255, 255);"/>
  <path d="M 91.437 60.235 C 92.714 78.873 108.162 93.614 127.107 93.694 L 133.08 93.7 L 133.08 60.235 L 91.437 60.235 Z" style="fill: rgb(255, 255, 255);"/>
  <path d="M 133.08 55.235 L 133.08 21.817 C 133.08 21.817 127.365 21.805 127.259 21.805 C 108.256 21.805 92.735 36.562 91.438 55.235 L 133.08 55.235 Z" style="fill: rgb(255, 255, 255);"/>
  <path d="M 123.751 0 C 123.92 0 124.083 0.02 124.252 0.021 L 133.102 0.021 L 133.102 15.932 L 126.237 15.918 C 103.134 15.918 84.403 34.648 84.403 57.752 C 84.403 80.796 103.039 99.483 126.061 99.579 L 133.102 99.587 L 133.102 115.505 L 123.508 115.505 L 123.508 115.495 C 91.727 115.363 66.001 89.564 66.001 57.751 C 66.001 25.858 91.857 0.001 123.751 0.001 Z" style="fill: rgb(255, 255, 255);"/>
</svg>