<?xml version="1.0" encoding="utf-8"?>
<svg version="1.1" xmlns="http://www.w3.org/2000/svg">
  <path d="M 210.852 46.269 L 242.26 46.269 L 242.26 53.985 L 231.73 53.985 L 231.73 77.473 L 221.382 77.473 L 221.382 53.985 L 210.852 53.985 L 210.852 46.269 Z" style="fill: rgb(255, 255, 255);"/>
  <path d="M 177.579 67.151 L 187.442 66.58 C 187.655 68.063 188.093 69.194 188.751 69.97 C 189.82 71.229 191.348 71.857 193.338 71.857 C 194.821 71.857 195.962 71.535 196.765 70.888 C 197.569 70.244 197.971 69.496 197.971 68.645 C 197.971 67.836 197.587 67.113 196.819 66.474 C 196.049 65.836 194.278 65.232 191.504 64.665 C 186.962 63.72 183.72 62.456 181.786 60.885 C 179.834 59.312 178.858 57.308 178.858 54.872 C 178.858 53.273 179.356 51.763 180.357 50.337 C 181.354 48.914 182.858 47.793 184.864 46.977 C 186.867 46.166 189.613 45.759 193.105 45.759 C 197.389 45.759 200.658 46.5 202.907 47.978 C 205.153 49.461 206.494 51.812 206.92 55.042 L 197.182 55.575 C 196.917 54.169 196.37 53.144 195.533 52.503 C 194.698 51.863 193.546 51.545 192.073 51.545 C 190.861 51.545 189.949 51.782 189.337 52.26 C 188.723 52.734 188.415 53.312 188.415 53.993 C 188.415 54.489 188.67 54.935 189.183 55.334 C 189.678 55.744 190.841 56.127 192.669 56.483 C 197.198 57.389 200.441 58.305 202.399 59.233 C 204.358 60.162 205.785 61.315 206.675 62.691 C 207.569 64.067 208.014 65.605 208.014 67.307 C 208.014 69.308 207.419 71.148 206.231 72.836 C 205.039 74.524 203.378 75.803 201.241 76.676 C 199.105 77.548 196.412 77.984 193.163 77.984 C 187.455 77.984 183.507 76.964 181.308 74.929 C 179.113 72.885 177.869 70.297 177.579 67.151 Z" style="fill: rgb(255, 255, 255);"/>
  <path d="M 163.652 72.311 L 151.944 72.311 L 150.256 77.473 L 139.698 77.473 L 152.24 46.269 L 163.589 46.269 L 176.156 77.473 L 165.33 77.473 L 163.652 72.311 M 161.461 65.56 L 157.807 54.351 L 154.145 65.56 L 161.461 65.56 Z" style="fill: rgb(255, 255, 255);"/>
  <path d="M 109.288 46.269 L 137.041 46.269 L 137.041 52.908 L 119.634 52.908 L 119.634 57.9 L 135.764 57.9 L 135.764 64.255 L 119.634 64.255 L 119.634 70.382 L 137.529 70.382 L 137.529 77.473 L 109.288 77.473 L 109.288 46.269 Z" style="fill: rgb(255, 255, 255);"/>
  <path d="M 227.976 28.69 L 216.265 28.69 L 214.575 33.854 L 204.02 33.854 L 216.563 2.649 L 227.91 2.649 L 240.479 33.854 L 229.653 33.854 L 227.976 28.69 M 225.782 21.938 L 222.128 10.729 L 218.468 21.938 L 225.782 21.938 Z" style="fill: rgb(255, 255, 255);"/>
  <path d="M 174.468 2.649 L 205.876 2.649 L 205.876 10.364 L 195.348 10.364 L 195.348 33.854 L 185 33.854 L 185 10.364 L 174.468 10.364 L 174.468 2.649 Z" style="fill: rgb(255, 255, 255);"/>
  <path d="M 164.246 28.69 L 152.536 28.69 L 150.848 33.854 L 140.291 33.854 L 152.834 2.649 L 164.183 2.649 L 176.75 33.854 L 165.924 33.854 L 164.246 28.69 M 162.055 21.938 L 158.399 10.729 L 154.739 21.938 L 162.055 21.938 Z" style="fill: rgb(255, 255, 255);"/>
  <path d="M 109.469 2.649 L 124.804 2.649 C 127.826 2.649 130.27 3.03 132.13 3.798 C 133.991 4.564 135.531 5.666 136.743 7.097 C 137.959 8.532 138.84 10.198 139.386 12.101 C 139.933 14.002 140.208 16.018 140.208 18.144 C 140.208 21.476 139.801 24.066 138.988 25.902 C 138.174 27.74 137.047 29.284 135.604 30.523 C 134.161 31.763 132.609 32.59 130.955 33.003 C 128.691 33.569 126.642 33.854 124.804 33.854 L 109.469 33.854 L 109.469 2.649 M 119.817 9.74 L 119.817 26.761 L 122.33 26.761 C 124.472 26.761 125.996 26.536 126.902 26.092 C 127.808 25.647 128.517 24.868 129.029 23.754 C 129.542 22.643 129.798 20.839 129.798 18.345 C 129.798 15.045 129.226 12.786 128.079 11.57 C 126.932 10.35 125.029 9.74 122.374 9.74 L 119.817 9.74 Z" style="fill: rgb(255, 255, 255);"/>
  <path d="M 6.495 0 C 6.379 0 6.264 0.014 6.148 0.014 L 0 0.014 L 0 11.065 L 4.768 11.055 C 20.815 11.055 33.822 24.064 33.822 40.112 C 33.822 56.115 20.88 69.095 4.89 69.162 L 0 69.168 L 0 80.223 L 6.665 80.223 L 6.665 80.215 C 28.737 80.124 46.604 62.206 46.604 40.112 C 46.604 17.96 28.646 0 6.495 0 Z" style="fill: rgb(255, 255, 255);"/>
  <path d="M 29.025 40.112 C 29.025 26.323 17.846 15.143 4.059 15.143 C 3.984 15.143 0.016 15.153 0.016 15.153 L 0.016 65.078 L 4.164 65.074 C 17.903 65.015 29.025 53.863 29.025 40.112 Z" style="fill: rgb(255, 255, 255);"/>
  <path d="M 63.507 41.835 C 64.395 54.781 75.124 65.019 88.281 65.074 L 92.429 65.078 L 92.429 41.835 L 63.507 41.835 Z" style="fill: rgb(255, 255, 255);"/>
  <path d="M 92.429 38.363 L 92.429 15.153 C 92.429 15.153 88.461 15.145 88.386 15.145 C 75.189 15.145 64.409 25.395 63.509 38.363 L 92.429 38.363 Z" style="fill: rgb(255, 255, 255);"/>
  <path d="M 85.95 0 C 86.068 0 86.181 0.014 86.299 0.014 L 92.445 0.014 L 92.445 11.065 L 87.677 11.055 C 71.632 11.055 58.621 24.064 58.621 40.112 C 58.621 56.115 71.565 69.095 87.555 69.162 L 92.445 69.168 L 92.445 80.223 L 85.782 80.223 L 85.782 80.215 C 63.708 80.124 45.841 62.206 45.841 40.112 C 45.841 17.96 63.799 0 85.95 0 Z" style="fill: rgb(255, 255, 255);"/>
</svg>