<?xml version="1.0" encoding="utf-8"?>
<svg version="1.1" x="0px" y="0px" enable-background="new 0 0 537.916 122.75" xmlns="http://www.w3.org/2000/svg">
  <path d="M 47.72 42.62 L 47.72 51.382 L 11.459 51.382 L 11.459 73.76 L 37.88 73.76 L 37.88 67.559 L 22.646 67.559 L 22.646 58.19 L 48.394 58.19 C 48.394 58.19 48.394 68.407 48.394 75.279 C 48.283 78.143 42.558 83.869 39.362 83.869 C 33.43 83.869 17.395 83.869 9.858 83.869 C 5.702 83.869 0 78.168 0 75.292 C 0 66.546 0 58.025 0 50.573 C 0 45.759 3.139 42.62 7.229 42.62 C 14.003 42.62 47.72 42.62 47.72 42.62 Z" style="fill: rgb(255, 255, 255);"/>
  <polygon points="75.814 73.526 75.814 83.23 45.939 83.23 70.203 42.131 79.807 42.131 98.41 73.523 98.41 42.131 108.976 42.131 125.606 70.289 142.187 42.131 152.652 42.131 152.652 83.23 142.187 83.23 142.137 62.352 130.004 83.23 121.108 83.23 109.026 62.301 108.976 83.23 91.132 83.23 74.651 55.073 63.732 73.523" style="fill: rgb(255, 255, 255);"/>
  <polygon points="156.544 42.131 156.544 83.23 198.703 83.23 198.703 73.523 167.968 73.523 167.968 66.446 185.762 66.446 185.762 57.449 167.968 57.449 167.968 50.978 198.703 50.978 198.703 42.131" style="fill: rgb(255, 255, 255);"/>
  <path d="M 240.829 58.292 L 251.343 58.292 L 251.343 49.394 C 251.343 49.394 252.489 42.082 244.872 42.082 C 244.872 42.082 220.407 42.082 211.714 42.082 C 208.447 42.082 206.896 43.634 206.896 46.126 C 206.896 50.338 206.896 66.314 206.896 75.242 C 206.896 79.322 210.805 83.231 213.3 83.231 C 220.578 83.231 245.754 83.231 245.754 83.231 C 245.754 83.231 251.405 84.003 251.405 77.668 C 251.405 71.333 251.405 65.57 251.405 65.57 L 240.866 65.57 L 240.866 73.591 L 217.409 73.591 L 217.409 51.786 L 240.024 51.786 L 240.024 58.29 L 240.829 58.292 Z" style="fill: rgb(255, 255, 255);"/>
  <path d="M 255.421 42.08 L 266.744 42.08 L 266.744 73.625 L 290.175 73.625 L 290.175 42.08 L 301.511 42.08 L 301.511 76.076 C 301.511 76.076 302.231 83.356 291.818 83.356 C 281.405 83.356 264.319 83.356 264.319 83.356 C 264.319 83.356 255.422 84.165 255.422 76.076 C 255.421 70.441 255.421 42.08 255.421 42.08 Z" style="fill: rgb(255, 255, 255);"/>
  <path d="M 350.036 66.314 L 350.036 76.885 C 350.036 80.629 347.286 83.379 338.704 83.379 C 331.094 83.379 305.551 83.379 305.551 83.379 L 305.551 42.082 C 305.551 42.082 339.109 42.082 344.391 42.082 C 347.965 42.082 350.037 44.153 350.037 47.744 C 350.037 50.664 350.037 57.878 350.037 59.051 C 350.037 59.949 348.815 61.494 346.009 61.494 C 346.026 61.687 346.009 61.494 346.009 62.278 C 347.893 62.278 350.036 64.421 350.036 66.314 Z M 339.521 72.825 C 339.521 71.871 339.521 69.339 339.521 67.997 C 339.521 66.662 339.206 66.347 338.711 66.347 C 337.7 66.347 316.89 66.347 316.89 66.347 L 316.89 73.626 C 316.89 73.626 332.573 73.626 337.919 73.626 C 339.084 73.626 339.521 73.189 339.521 72.825 Z M 339.521 56.649 C 339.521 55.694 339.521 53.163 339.521 51.82 C 339.521 50.486 339.206 50.171 338.711 50.171 C 337.7 50.171 316.89 50.171 316.89 50.171 L 316.89 57.45 C 316.89 57.45 332.573 57.45 337.919 57.45 C 339.084 57.45 339.521 57.012 339.521 56.649 Z" style="fill: rgb(255, 255, 255);"/>
  <polygon points="354.046 83.378 396.154 83.378 396.154 73.574 364.56 73.574 364.56 66.396 382.354 66.396 382.354 57.449 364.56 57.449 364.56 50.978 395.345 50.978 395.345 42.03 354.046 42.03" style="fill: rgb(255, 255, 255);"/>
  <polygon points="154.743 0.43 154.743 5.283 164.448 5.283 164.448 31.114 170.986 31.114 170.986 5.283 180.625 5.283 180.625 0.43" style="fill: rgb(255, 255, 255);"/>
  <polygon points="8.733 0.023 8.733 30.707 14.395 30.707 14.395 8.162 26.527 30.707 32.947 30.707 32.947 0.023 26.477 0.023 26.477 18.524 16.771 0.023" style="fill: rgb(255, 255, 255);"/>
  <polygon points="105.782 0.023 105.782 30.707 111.443 30.707 111.443 8.162 123.575 30.707 129.995 30.707 129.995 0.023 123.525 0.023 123.525 18.524 113.82 0.023" style="fill: rgb(255, 255, 255);"/>
  <rect x="66.146" y="0.023" width="6.458" height="30.684" style="fill: rgb(255, 255, 255);"/>
  <path d="M 212.554 11.33 L 212.554 12.155 L 230.347 12.155 L 230.347 17.008 L 212.554 17.008 C 212.554 17.008 212.554 21.748 212.554 23.479 C 212.554 24.175 214.261 25.88 214.955 25.88 C 217.002 25.88 230.347 25.88 230.347 25.88 L 230.347 30.776 C 230.347 30.776 217.271 30.776 212.554 30.776 C 209.226 30.776 206.875 27.916 206.875 25.097 C 206.875 24.424 206.875 10.539 206.875 5.669 C 206.875 2.14 208.99 0.023 212.52 0.023 L 230.347 0.023 L 230.347 4.876 C 230.347 4.876 219.597 4.876 215.789 4.876 C 214.238 4.876 212.554 6.562 212.554 7.354" style="fill: rgb(255, 255, 255);"/>
  <path d="M 336.351 5.685 L 336.351 25.145 C 336.351 26.617 332.194 30.774 329.784 30.774 C 324.93 30.774 312.039 30.774 312.039 30.774 L 312.039 0.023 C 312.039 0.023 324.624 0.023 328.166 0.023 C 333.18 0.023 336.351 3.194 336.351 5.685 Z M 330.624 23.495 C 330.624 21.392 330.624 11.824 330.624 7.351 C 330.624 6.785 328.716 4.876 327.381 4.876 C 324.93 4.876 317.699 4.876 317.699 4.876 L 317.699 26.714 C 317.699 26.714 324.614 26.714 327.405 26.714 C 328.4 26.714 330.624 24.49 330.624 23.495 Z" style="fill: rgb(255, 255, 255);"/>
  <path d="M 388.891 7.303 C 388.891 9.552 388.891 18.982 388.891 23.431 C 388.891 28.081 385.397 31.568 380.043 31.568 C 380.019 31.568 380.002 31.568 379.978 31.568 C 375.376 31.568 376.695 31.568 371.907 31.568 L 371.842 31.568 C 366.666 31.568 363.237 28.324 363.002 23.917 C 362.994 23.755 362.994 23.593 362.994 23.432 C 362.994 20.358 362.994 10.346 362.994 7.304 C 362.994 6.746 362.994 6.423 362.994 6.423 C 362.994 3.333 366.326 0.001 370.249 0.001 C 373.152 0.001 381.572 0.001 381.572 0.001 C 386.319 0 388.891 2.564 388.891 7.303 Z M 382.38 22.695 C 382.38 21.934 382.38 9.479 382.38 8.112 C 382.38 6.923 380.31 4.852 379.145 4.852 C 377.981 4.852 372.723 4.852 372.723 4.852 C 371.057 4.852 369.44 6.47 369.44 7.982 C 369.44 8.969 369.44 21.149 369.44 22.694 C 369.44 24.999 370.321 25.881 371.89 25.881 C 373.329 25.881 377.277 25.881 379.194 25.881 C 380.763 25.881 382.38 24.264 382.38 22.695 Z" style="fill: rgb(255, 255, 255);"/>
  <polygon points="257.436 0.43 257.436 31.114 263.098 31.114 263.098 8.569 275.23 31.114 281.65 31.114 281.65 0.43 275.18 0.43 275.18 18.931 265.474 0.43" style="fill: rgb(255, 255, 255);"/>
</svg>