<?xml version="1.0" encoding="utf-8"?>
<svg version="1.1" x="0px" y="0px" enable-background="new 0 0 537.916 122.75" xmlns="http://www.w3.org/2000/svg">
  <path d="M 24.092 21.517 L 24.092 25.941 L 5.785 25.941 L 5.785 37.239 L 19.124 37.239 L 19.124 34.108 L 11.433 34.108 L 11.433 29.378 L 24.432 29.378 C 24.432 29.378 24.432 34.536 24.432 38.005 C 24.376 39.451 21.486 42.342 19.872 42.342 C 16.877 42.342 8.782 42.342 4.977 42.342 C 2.879 42.342 0 39.464 0 38.012 C 0 33.597 0 29.295 0 25.532 C 0 23.102 1.585 21.517 3.65 21.517 C 7.069 21.517 24.092 21.517 24.092 21.517 Z" style="fill: rgb(255, 255, 255);"/>
  <polygon points="38.275 37.12 38.275 42.02 23.192 42.02 35.442 21.271 40.291 21.271 49.683 37.119 49.683 21.271 55.017 21.271 63.413 35.486 71.784 21.271 77.067 21.271 77.067 42.02 71.784 42.02 71.758 31.479 65.633 42.02 61.142 42.02 55.042 31.453 55.017 42.02 46.008 42.02 37.688 27.804 32.175 37.119" style="fill: rgb(255, 255, 255);"/>
  <polygon points="79.032 21.271 79.032 42.02 100.316 42.02 100.316 37.119 84.799 37.119 84.799 33.546 93.783 33.546 93.783 29.004 84.799 29.004 84.799 25.737 100.316 25.737 100.316 21.271" style="fill: rgb(255, 255, 255);"/>
  <path d="M 121.584 29.429 L 126.892 29.429 L 126.892 24.937 C 126.892 24.937 127.47 21.246 123.625 21.246 C 123.625 21.246 111.273 21.246 106.885 21.246 C 105.235 21.246 104.452 22.029 104.452 23.287 C 104.452 25.414 104.452 33.479 104.452 37.987 C 104.452 40.047 106.426 42.02 107.685 42.02 C 111.36 42.02 124.07 42.02 124.07 42.02 C 124.07 42.02 126.923 42.41 126.923 39.212 C 126.923 36.013 126.923 33.104 126.923 33.104 L 121.602 33.104 L 121.602 37.153 L 109.76 37.153 L 109.76 26.145 L 121.177 26.145 L 121.177 29.428 L 121.584 29.429 Z" style="fill: rgb(255, 255, 255);"/>
  <path d="M 128.95 21.245 L 134.667 21.245 L 134.667 37.17 L 146.496 37.17 L 146.496 21.245 L 152.219 21.245 L 152.219 38.408 C 152.219 38.408 152.583 42.083 147.326 42.083 C 142.068 42.083 133.443 42.083 133.443 42.083 C 133.443 42.083 128.951 42.492 128.951 38.408 C 128.95 35.563 128.95 21.245 128.95 21.245 Z" style="fill: rgb(255, 255, 255);"/>
  <path d="M 176.717 33.479 L 176.717 38.816 C 176.717 40.706 175.329 42.095 170.996 42.095 C 167.154 42.095 154.259 42.095 154.259 42.095 L 154.259 21.246 C 154.259 21.246 171.201 21.246 173.867 21.246 C 175.672 21.246 176.718 22.291 176.718 24.104 C 176.718 25.578 176.718 29.22 176.718 29.813 C 176.718 30.266 176.101 31.046 174.684 31.046 C 174.693 31.143 174.684 31.046 174.684 31.442 C 175.635 31.442 176.717 32.524 176.717 33.479 Z M 171.409 36.767 C 171.409 36.285 171.409 35.007 171.409 34.329 C 171.409 33.655 171.25 33.496 171 33.496 C 170.489 33.496 159.983 33.496 159.983 33.496 L 159.983 37.171 C 159.983 37.171 167.901 37.171 170.6 37.171 C 171.188 37.171 171.409 36.95 171.409 36.767 Z M 171.409 28.6 C 171.409 28.118 171.409 26.84 171.409 26.162 C 171.409 25.489 171.25 25.33 171 25.33 C 170.489 25.33 159.983 25.33 159.983 25.33 L 159.983 29.004 C 159.983 29.004 167.901 29.004 170.6 29.004 C 171.188 29.004 171.409 28.783 171.409 28.6 Z" style="fill: rgb(255, 255, 255);"/>
  <polygon points="178.742 42.094 200 42.094 200 37.145 184.05 37.145 184.05 33.521 193.033 33.521 193.033 29.004 184.05 29.004 184.05 25.737 199.592 25.737 199.592 21.22 178.742 21.22" style="fill: rgb(255, 255, 255);"/>
  <polygon points="78.123 0.218 78.123 2.668 83.022 2.668 83.022 15.709 86.323 15.709 86.323 2.668 91.189 2.668 91.189 0.218" style="fill: rgb(255, 255, 255);"/>
  <polygon points="4.409 0.012 4.409 15.503 7.267 15.503 7.267 4.121 13.392 15.503 16.633 15.503 16.633 0.012 13.367 0.012 13.367 9.352 8.467 0.012" style="fill: rgb(255, 255, 255);"/>
  <polygon points="53.404 0.012 53.404 15.503 56.262 15.503 56.262 4.121 62.387 15.503 65.629 15.503 65.629 0.012 62.362 0.012 62.362 9.352 57.463 0.012" style="fill: rgb(255, 255, 255);"/>
  <rect x="33.394" y="0.012" width="3.26" height="15.491" style="fill: rgb(255, 255, 255);"/>
  <path d="M 107.309 5.72 L 107.309 6.137 L 116.292 6.137 L 116.292 8.587 L 107.309 8.587 C 107.309 8.587 107.309 10.98 107.309 11.854 C 107.309 12.205 108.171 13.066 108.521 13.066 C 109.554 13.066 116.292 13.066 116.292 13.066 L 116.292 15.538 C 116.292 15.538 109.69 15.538 107.309 15.538 C 105.629 15.538 104.442 14.094 104.442 12.671 C 104.442 12.331 104.442 5.321 104.442 2.863 C 104.442 1.081 105.509 0.012 107.292 0.012 L 116.292 0.012 L 116.292 2.462 C 116.292 2.462 110.864 2.462 108.942 2.462 C 108.159 2.462 107.309 3.313 107.309 3.713" style="fill: rgb(255, 255, 255);"/>
  <path d="M 169.808 2.871 L 169.808 12.695 C 169.808 13.438 167.71 15.537 166.493 15.537 C 164.042 15.537 157.534 15.537 157.534 15.537 L 157.534 0.012 C 157.534 0.012 163.888 0.012 165.676 0.012 C 168.207 0.012 169.808 1.613 169.808 2.871 Z M 166.917 11.862 C 166.917 10.8 166.917 5.97 166.917 3.712 C 166.917 3.426 165.954 2.462 165.28 2.462 C 164.042 2.462 160.392 2.462 160.392 2.462 L 160.392 13.487 C 160.392 13.487 163.883 13.487 165.292 13.487 C 165.794 13.487 166.917 12.364 166.917 11.862 Z" style="fill: rgb(255, 255, 255);"/>
  <path d="M 196.333 3.687 C 196.333 4.823 196.333 9.584 196.333 11.83 C 196.333 14.177 194.569 15.938 191.866 15.938 C 191.854 15.938 191.846 15.938 191.833 15.938 C 189.51 15.938 190.176 15.938 187.759 15.938 L 187.726 15.938 C 185.113 15.938 183.382 14.3 183.263 12.075 C 183.259 11.993 183.259 11.912 183.259 11.83 C 183.259 10.278 183.259 5.224 183.259 3.688 C 183.259 3.406 183.259 3.243 183.259 3.243 C 183.259 1.683 184.941 0.001 186.922 0.001 C 188.387 0.001 192.638 0.001 192.638 0.001 C 195.035 0 196.333 1.295 196.333 3.687 Z M 193.046 11.458 C 193.046 11.074 193.046 4.786 193.046 4.096 C 193.046 3.496 192.001 2.45 191.413 2.45 C 190.825 2.45 188.171 2.45 188.171 2.45 C 187.33 2.45 186.513 3.267 186.513 4.03 C 186.513 4.529 186.513 10.678 186.513 11.458 C 186.513 12.621 186.958 13.067 187.75 13.067 C 188.477 13.067 190.47 13.067 191.438 13.067 C 192.23 13.067 193.046 12.25 193.046 11.458 Z" style="fill: rgb(255, 255, 255);"/>
  <polygon points="129.968 0.218 129.968 15.709 132.826 15.709 132.826 4.327 138.951 15.709 142.192 15.709 142.192 0.218 138.926 0.218 138.926 9.558 134.026 0.218" style="fill: rgb(255, 255, 255);"/>
</svg>