<?xml version="1.0" encoding="utf-8"?>
<svg version="1.1" id="Layer_4" x="0px" y="0px" enable-background="new 0 0 598.191 350.257" preserveAspectRatio="none" xmlns="http://www.w3.org/2000/svg">
  <g transform="matrix(0.884085, 0, 0, 0.884085, 360.770111, 185.947952)">
    <path d="M172.114,72.569c-6.331-4.029-12.152-10.911-16.46-17.732l0,0c-4.291-6.859-7.088-13.497-7.128-17.628l0,0&#10;&#9;&#9;&#9;c0-6.686,5.418-12.105,12.105-12.105l0,0c5.39,0,9.957,3.522,11.524,8.391l0,0c1.567-4.868,6.134-8.391,11.525-8.391l0,0&#10;&#9;&#9;&#9;c6.709,0.002,11.833,5.457,12.105,12.058l0,0c0.007,0.18,0.009,0.364,0.011,0.551l0,0c-0.11,9.864-10.258,27.473-22.465,34.873&#10;&#9;&#9;&#9;l0,0l-0.614,0.367L172.114,72.569L172.114,72.569z M150.85,37.209c-0.04,3.132,2.589,9.81,6.769,16.389l0,0&#10;&#9;&#9;&#9;c4.024,6.389,9.481,12.836,15.141,16.617l0,0c11.114-6.939,20.821-24.19,20.714-32.502l0,0c0-0.156-0.005-0.307-0.012-0.454l0,0&#10;&#9;&#9;&#9;c-0.249-5.475-4.402-9.83-9.781-9.83l0,0c-5.403,0.01-9.772,4.378-9.782,9.781l0,0c0.008,0.423-0.151,0.925-0.507,1.26l0,0&#10;&#9;&#9;&#9;c-0.353,0.338-0.795,0.454-1.152,0.452l0,0c-0.799-0.029-1.719-0.458-1.827-1.712l0,0c-0.009-5.402-4.378-9.771-9.781-9.781l0,0&#10;&#9;&#9;&#9;C155.229,27.438,150.859,31.807,150.85,37.209L150.85,37.209z" style="fill: rgb(30, 30, 30);"/>
    <path d="M202.738,213.393c-1.394-3.642-2.83-6.063-4.171-7.507l0,0c-1.356-1.445-2.519-1.91-3.612-1.92l0,0&#10;&#9;&#9;&#9;c-2.001-0.055-4.452,1.92-6.557,4.883l0,0c-2.113,2.923-3.892,6.635-4.991,9.485l0,0c-3.287,8.651-7.532,9.689-8.482,9.749l0,0&#10;&#9;&#9;&#9;c-0.189,0.046-0.48,0.098-0.848,0.1l0,0c-0.786,0.021-2.019-0.313-2.883-1.474l0,0c-0.865-1.148-1.375-2.898-1.378-5.666l0,0&#10;&#9;&#9;&#9;c0-0.271,0.005-0.556,0.017-0.845l0,0c0.048-1.417,0.073-3.306,0.073-5.49l0,0c0.002-10.142-0.522-26.74-1.23-33.57l0,0&#10;&#9;&#9;&#9;c-0.14-1.36-0.215-2.738-0.215-4.059l0,0c0.043-3.403,0.374-6.369,1.846-8.159l0,0c0.503-0.595,1.293-1.047,2.166-1.037l0,0&#10;&#9;&#9;&#9;c1.987,0.102,3.534,1.651,5.588,4.646l0,0c3.144,4.724,4.592,8.23,6.045,10.298l0,0c1.489,2.019,2.558,2.779,6.171,2.853l0,0&#10;&#9;&#9;&#9;c0.227,0,0.474-0.009,0.723-0.013l0,0c3.698-0.17,6.042-2.021,8.834-7.751l0,0c2.712-5.692,5.45-14.979,9.423-28.883l0,0&#10;&#9;&#9;&#9;l-0.001-0.001c11.94-46.27,53.953-80.444,103.948-80.447l0,0c59.289,0,107.35,48.061,107.353,107.348l0,0&#10;&#9;&#9;&#9;c-0.003,59.287-48.063,107.349-107.353,107.349l0,0C245.902,283.25,211.012,234.96,202.738,213.393L202.738,213.393z&#10;&#9;&#9;&#9; M200.271,204.307c1.644,1.78,3.174,4.443,4.638,8.255l0,0c7.994,20.85,42.25,68.434,108.294,68.397l0,0&#10;&#9;&#9;&#9;c29.009,0,55.255-11.754,74.266-30.761l0,0c19.008-19.011,30.762-45.258,30.762-74.265l0,0c0-29.004-11.754-55.253-30.762-74.263&#10;&#9;&#9;&#9;l0,0c-19.011-19.008-45.257-30.76-74.266-30.76l0,0c-48.912-0.004-90.016,33.44-101.696,78.702l0,0l-1.126-0.29l1.117,0.319&#10;&#9;&#9;&#9;c-3.988,13.939-6.71,23.253-9.566,29.274l0,0c-2.782,5.981-6.123,8.953-10.868,9.075l0,0c-0.263,0.006-0.524,0.013-0.788,0.013&#10;&#9;&#9;&#9;l0,0c-4,0.071-6.427-1.356-8.078-3.849l0,0c-1.687-2.444-3.023-5.771-6.071-10.335l0,0c-1.859-2.876-3.355-3.711-3.655-3.611l0,0&#10;&#9;&#9;&#9;c-0.133,0.009-0.2,0.015-0.417,0.245l0,0c-0.206,0.227-0.455,0.686-0.653,1.322l0,0c-0.406,1.271-0.621,3.197-0.619,5.305l0,0&#10;&#9;&#9;&#9;c0,1.232,0.07,2.533,0.206,3.819l0,0c0.723,7.031,1.24,23.577,1.243,33.81l0,0c0,2.202-0.024,4.107-0.076,5.578l0,0&#10;&#9;&#9;&#9;c-0.012,0.265-0.016,0.517-0.016,0.757l0,0c-0.005,2.49,0.49,3.729,0.901,4.257l0,0c0.414,0.515,0.73,0.539,1.037,0.559l0,0&#10;&#9;&#9;&#9;c0.147,0,0.268-0.024,0.312-0.036l0,0l0.18-0.063h0.203l0.009-0.006c0.059-0.007,0.167-0.03,0.322-0.08l0,0&#10;&#9;&#9;&#9;c0.312-0.1,0.802-0.314,1.426-0.798l0,0c1.243-0.96,3.021-3.017,4.711-7.382l0,0c1.16-2.994,2.987-6.835,5.274-10.006l0,0&#10;&#9;&#9;&#9;c2.289-3.132,5.024-5.787,8.442-5.845l0,0c0.008,0,0.016,0,0.023,0l0,0C196.815,201.644,198.648,202.539,200.271,204.307&#10;&#9;&#9;&#9;L200.271,204.307z" style="fill: rgb(30, 30, 30);"/>
    <path d="M263.09,201.21c0-7.301,5.918-13.218,13.218-13.221l0,0c7.302,0.003,13.218,5.92,13.221,13.221l0,0&#10;&#9;&#9;&#9;c-0.003,7.3-5.918,13.218-13.221,13.221l0,0C269.008,214.428,263.09,208.51,263.09,201.21L263.09,201.21z M265.414,201.21&#10;&#9;&#9;&#9;c0.012,6.017,4.878,10.885,10.895,10.895l0,0c6.016-0.01,10.886-4.878,10.895-10.895l0,0c-0.009-6.018-4.879-10.883-10.895-10.896&#10;&#9;&#9;&#9;l0,0C270.292,190.328,265.425,195.193,265.414,201.21L265.414,201.21z" style="fill: rgb(30, 30, 30);"/>
    <path d="M380.462,201.21c0-7.301,5.917-13.218,13.219-13.22l0,0c7.301,0.002,13.218,5.919,13.22,13.22l0,0&#10;&#9;&#9;&#9;c-0.002,7.3-5.919,13.217-13.22,13.221l0,0C386.379,214.427,380.462,208.51,380.462,201.21L380.462,201.21z M382.785,201.21&#10;&#9;&#9;&#9;c0.013,6.017,4.877,10.883,10.896,10.894l0,0c6.018-0.011,10.884-4.877,10.894-10.894l0,0c-0.01-6.016-4.876-10.885-10.894-10.894&#10;&#9;&#9;&#9;l0,0C387.662,190.326,382.798,195.195,382.785,201.21L382.785,201.21z" style="fill: rgb(30, 30, 30);"/>
    <circle cx="402.107" cy="177.389" r="4.793" style="fill: rgb(30, 30, 30);"/>
    <circle cx="271.661" cy="177.389" r="4.794" style="fill: rgb(30, 30, 30);"/>
    <path d="M328.467,197.014c-1.144-2.093-1.441-4.646-1.463-8.15l0,0h0.003h4.646&#10;&#9;&#9;&#9;c-0.02,3.176,0.41,5.128,0.863,5.865l0,0c0.471,0.665,0.478,0.72,1.754,0.817l0,0c0.775,0.002,1.347-0.063,1.664-0.162l0,0&#10;&#9;&#9;&#9;c0.325-0.11,0.398-0.161,0.577-0.37l0,0c0.364-0.371,0.984-2.116,0.955-5.861l0,0h4.646c-0.009,3.093-0.27,5.294-1.004,7.099l0,0&#10;&#9;&#9;&#9;c-0.69,1.81-2.248,3.166-3.84,3.586l0,0c-1.045,0.307-2.036,0.354-2.999,0.355l0,0c-0.09,0.003-0.181,0.005-0.272,0.005l0,0&#10;&#9;&#9;&#9;C331.858,200.198,329.548,199.093,328.467,197.014L328.467,197.014z" style="fill: rgb(30, 30, 30);"/>
    <path d="M123.928,174.627c0-41.931,15.215-80.318,40.423-109.925l0,0l1.769,1.506&#10;&#9;&#9;&#9;c-24.864,29.208-39.867,67.054-39.867,108.419l0,0c0,46.216,18.727,88.042,49.012,118.33l0,0&#10;&#9;&#9;&#9;c30.288,30.285,72.117,49.013,118.33,49.013l0,0c46.215,0,88.041-18.728,118.329-49.013l0,0&#10;&#9;&#9;&#9;c30.285-30.288,49.013-72.113,49.013-118.33l0,0c0-46.214-18.728-88.041-49.013-118.329l0,0&#10;&#9;&#9;&#9;C381.636,26.013,339.808,7.286,293.595,7.286l0,0c-36.802,0-70.821,11.875-98.448,32.007l0,0l-1.369-1.88&#10;&#9;&#9;&#9;c28.009-20.408,62.512-32.453,99.817-32.453l0,0c93.703,0,169.667,75.962,169.667,169.666l0,0&#10;&#9;&#9;&#9;c0,93.704-75.964,169.667-169.667,169.667l0,0C199.891,344.294,123.928,268.331,123.928,174.627L123.928,174.627z" style="fill: rgb(30, 30, 30);"/>
  </g>
</svg>