<?xml version="1.0" encoding="utf-8"?>
<svg version="1.0" id="Love_Logo" x="0px" y="0px" enable-background="new 3 136.909 270 82.35" xmlns="http://www.w3.org/2000/svg">
  <path d="M 9.387 64.466 C 3.078 57.241 -0.001 47.515 0 37.029 L 0 37.029 C 0.002 30.028 1.363 22.64 4.107 15.227 L 4.107 15.227 C 5.183 12.317 8.416 10.831 11.325 11.908 L 11.325 11.908 C 14.235 12.984 15.722 16.217 14.644 19.127 L 14.644 19.127 C 12.324 25.393 11.235 31.493 11.237 37.029 L 11.237 37.029 C 11.239 45.364 13.676 52.316 17.842 57.068 L 17.842 57.068 C 22.037 61.797 27.929 64.722 36.481 64.771 L 36.481 64.771 C 39.268 64.771 42.327 64.439 45.661 63.701 L 45.661 63.701 C 48.69 63.033 51.689 64.947 52.358 67.976 L 52.358 67.976 C 53.026 71.007 51.114 74.005 48.084 74.673 L 48.084 74.673 C 44.034 75.568 40.164 76.007 36.482 76.007 L 36.482 76.007 C 36.419 76.007 36.358 76.009 36.296 76.009 L 36.296 76.009 C 25.102 76.007 15.632 71.673 9.387 64.466 L 9.387 64.466 Z" id="path3350" style="fill-opacity: 1; fill: rgb(255, 255, 255);"/>
  <path d="M 48.27 44.632 C 48.274 27.032 62.535 12.77 80.137 12.767 L 80.137 12.767 C 97.736 12.77 111.998 27.032 112.003 44.632 L 112.003 44.632 L 112.002 44.632 C 111.998 62.236 97.736 76.495 80.137 76.499 L 80.137 76.499 C 62.535 76.495 48.274 62.235 48.27 44.632 L 48.27 44.632 Z M 59.507 44.632 C 59.527 56.025 68.744 65.241 80.137 65.263 L 80.137 65.263 C 91.526 65.242 100.745 56.025 100.766 44.632 L 100.766 44.632 L 100.764 44.632 C 100.745 33.243 91.526 24.026 80.137 24.004 L 80.137 24.004 C 68.746 24.026 59.527 33.243 59.507 44.632 L 59.507 44.632 Z" id="path3352" style="fill-opacity: 1; fill: rgb(255, 255, 255);"/>
  <path d="M 136.879 73.747 C 134.961 72.663 133.325 71.247 131.806 69.618 L 131.806 69.618 C 128.789 66.35 126.17 62.173 123.499 57.202 L 123.499 57.202 C 118.198 47.278 112.823 34.116 106.551 19.651 L 106.551 19.651 L 106.551 19.653 C 105.317 16.806 106.624 13.497 109.471 12.262 L 109.471 12.262 C 112.319 11.028 115.627 12.336 116.862 15.183 L 116.862 15.183 C 121.006 24.748 124.736 33.657 128.196 41.227 L 128.196 41.227 C 131.644 48.791 134.868 55.038 137.735 59.081 L 137.735 59.081 C 139.624 61.79 141.38 63.421 142.385 63.95 L 142.385 63.95 C 142.888 64.227 143.145 64.278 143.321 64.29 L 143.321 64.29 C 143.334 64.286 143.349 64.28 143.37 64.272 L 143.37 64.272 C 143.511 64.219 143.808 64.075 144.203 63.792 L 144.203 63.792 C 145.001 63.237 146.153 62.14 147.392 60.618 L 147.392 60.618 C 149.899 57.571 152.77 52.905 155.562 47.647 L 155.562 47.647 C 161.179 37.096 166.585 24.209 170.446 15.6 L 170.446 15.6 C 171.717 12.77 175.042 11.506 177.873 12.776 L 177.873 12.776 C 180.704 14.047 181.969 17.371 180.698 20.203 L 180.698 20.203 C 178.225 25.705 175 33.271 171.406 40.963 L 171.406 40.963 C 167.802 48.664 163.854 56.486 159.719 62.754 L 159.719 62.754 C 156.926 66.938 154.164 70.461 150.702 72.959 L 150.702 72.959 C 148.723 74.355 146.316 75.514 143.396 75.531 L 143.396 75.531 C 143.387 75.531 143.377 75.531 143.37 75.531 L 143.37 75.531 C 141.014 75.532 138.772 74.821 136.879 73.747 L 136.879 73.747 Z" id="path3354" style="fill-opacity: 1; fill: rgb(255, 255, 255);"/>
  <path d="M 183.658 65.735 C 178.283 59.571 176.244 51.727 176.242 44.27 L 176.242 44.27 C 176.256 35.372 180.279 27.711 185.563 22.251 L 185.563 22.251 C 190.909 16.803 197.488 13.192 204.301 12.775 L 204.301 12.775 C 204.786 12.748 205.266 12.738 205.739 12.737 L 205.739 12.737 C 210.185 12.748 214.936 13.693 219.423 15.545 L 219.423 15.545 C 223.886 17.416 228.161 20.193 231.149 24.42 L 231.149 24.42 C 233.128 27.219 234.423 30.762 234.409 34.594 L 234.409 34.594 C 234.416 37.903 233.869 41.018 232.536 43.803 L 232.536 43.803 C 231.216 46.594 229.14 48.869 226.781 50.6 L 226.781 50.6 C 222.016 54.055 216.248 55.948 208.848 58.534 L 208.848 58.534 L 208.85 58.534 C 205.914 59.544 202.717 57.985 201.706 55.052 L 201.706 55.052 C 200.696 52.118 202.256 48.917 205.191 47.909 L 205.191 47.909 C 210.702 46.018 214.975 44.479 217.777 42.993 L 217.777 42.993 C 220.63 41.466 221.739 40.302 222.395 38.962 L 222.395 38.962 C 222.837 38.028 223.168 36.727 223.171 34.594 L 223.171 34.594 C 223.158 33.192 222.778 32.088 221.941 30.864 L 221.941 30.864 C 221.104 29.658 219.737 28.421 217.976 27.362 L 217.976 27.362 C 214.482 25.213 209.455 23.944 205.739 23.975 L 205.739 23.975 C 205.438 23.975 205.154 23.983 204.881 23.998 L 204.881 23.998 C 202.036 24.061 197.244 26.256 193.639 30.064 L 193.639 30.064 C 189.974 33.854 187.465 38.893 187.48 44.27 L 187.48 44.27 C 187.477 49.733 189.005 54.811 192.113 58.334 L 192.113 58.334 C 195.237 61.832 200.016 64.434 208.652 64.49 L 208.652 64.49 C 210.451 64.49 212.41 64.365 214.537 64.097 L 214.537 64.097 C 217.616 63.706 220.428 65.884 220.819 68.962 L 220.819 68.962 C 221.209 72.04 219.031 74.853 215.954 75.243 L 215.954 75.243 C 213.397 75.567 210.967 75.727 208.652 75.727 L 208.652 75.727 C 208.57 75.727 208.489 75.727 208.407 75.727 L 208.407 75.727 C 197.504 75.73 188.976 71.884 183.658 65.735 L 183.658 65.735 Z" id="path3356" style="fill-opacity: 1; fill: rgb(255, 255, 255);"/>
  <circle cx="93.587" cy="146.41" r="6.411" id="circle3358" style="fill-opacity: 1; fill: rgb(255, 255, 255);" transform="matrix(1.000001, 0, 0, 1, -20.708576, -139.999008)"/>
  <circle cx="109.312" cy="146.41" r="6.411" id="circle3360" style="fill-opacity: 1; fill: rgb(255, 255, 255);" transform="matrix(0.999999, 0, 0, 1, -20.708328, -139.999008)"/>
</svg>