<?xml version="1.0" encoding="utf-8"?>
<svg version="1.0" id="Love_Logo" x="0px" y="0px" enable-background="new 3 136.909 270 82.35" xmlns="http://www.w3.org/2000/svg">
  <path d="M 8.009 55.003 C 2.626 48.839 -0.001 40.54 0 31.593 L 0 31.593 C 0.002 25.62 1.163 19.317 3.504 12.992 L 3.504 12.992 C 4.422 10.509 7.181 9.241 9.663 10.16 L 9.663 10.16 C 12.145 11.078 13.414 13.836 12.494 16.319 L 12.494 16.319 C 10.515 21.666 9.586 26.87 9.588 31.593 L 9.588 31.593 C 9.589 38.705 11.668 44.636 15.223 48.691 L 15.223 48.691 C 18.802 52.726 23.829 55.221 31.126 55.263 L 31.126 55.263 C 33.504 55.263 36.114 54.98 38.958 54.35 L 38.958 54.35 C 41.543 53.78 44.102 55.413 44.672 57.998 L 44.672 57.998 C 45.242 60.584 43.611 63.142 41.026 63.712 L 41.026 63.712 C 37.57 64.475 34.268 64.85 31.127 64.85 L 31.127 64.85 C 31.073 64.85 31.021 64.852 30.968 64.852 L 30.968 64.852 C 21.417 64.85 13.337 61.152 8.009 55.003 L 8.009 55.003 Z" id="path3350" style="fill-opacity: 1; fill: rgb(255, 255, 255);"/>
  <path d="M 41.184 38.08 C 41.188 23.064 53.355 10.895 68.374 10.893 L 68.374 10.893 C 83.389 10.895 95.558 23.064 95.562 38.08 L 95.562 38.08 L 95.561 38.08 C 95.558 53.1 83.389 65.266 68.374 65.27 L 68.374 65.27 C 53.355 65.266 41.188 53.099 41.184 38.08 L 41.184 38.08 Z M 50.772 38.08 C 50.789 47.801 58.653 55.664 68.374 55.683 L 68.374 55.683 C 78.091 55.665 85.957 47.801 85.974 38.08 L 85.974 38.08 L 85.973 38.08 C 85.957 28.363 78.091 20.499 68.374 20.48 L 68.374 20.48 C 58.655 20.499 50.789 28.363 50.772 38.08 L 50.772 38.08 Z" id="path3352" style="fill-opacity: 1; fill: rgb(255, 255, 255);"/>
  <path d="M 116.786 62.922 C 115.15 61.997 113.754 60.789 112.458 59.399 L 112.458 59.399 C 109.884 56.61 107.649 53.047 105.37 48.805 L 105.37 48.805 C 100.848 40.338 96.262 29.108 90.91 16.766 L 90.91 16.766 L 90.91 16.768 C 89.857 14.339 90.973 11.516 93.402 10.462 L 93.402 10.462 C 95.832 9.409 98.654 10.525 99.708 12.954 L 99.708 12.954 C 103.243 21.115 106.426 28.716 109.378 35.175 L 109.378 35.175 C 112.32 41.629 115.071 46.959 117.517 50.408 L 117.517 50.408 C 119.128 52.72 120.627 54.111 121.484 54.563 L 121.484 54.563 C 121.913 54.799 122.133 54.843 122.283 54.853 L 122.283 54.853 C 122.294 54.849 122.307 54.844 122.325 54.837 L 122.325 54.837 C 122.445 54.792 122.698 54.669 123.035 54.428 L 123.035 54.428 C 123.716 53.954 124.699 53.018 125.756 51.72 L 125.756 51.72 C 127.895 49.12 130.345 45.139 132.727 40.653 L 132.727 40.653 C 137.519 31.651 142.132 20.655 145.426 13.31 L 145.426 13.31 C 146.511 10.895 149.347 9.817 151.763 10.901 L 151.763 10.901 C 154.178 11.985 155.258 14.821 154.173 17.237 L 154.173 17.237 C 152.063 21.932 149.312 28.387 146.245 34.95 L 146.245 34.95 C 143.17 41.521 139.802 48.194 136.274 53.542 L 136.274 53.542 C 133.891 57.112 131.534 60.118 128.58 62.249 L 128.58 62.249 C 126.892 63.44 124.838 64.429 122.347 64.444 L 122.347 64.444 C 122.339 64.444 122.331 64.444 122.325 64.444 L 122.325 64.444 C 120.314 64.445 118.402 63.838 116.786 62.922 L 116.786 62.922 Z" id="path3354" style="fill-opacity: 1; fill: rgb(255, 255, 255);"/>
  <path d="M 156.699 56.086 C 152.113 50.827 150.373 44.134 150.371 37.772 L 150.371 37.772 C 150.383 30.18 153.816 23.643 158.324 18.985 L 158.324 18.985 C 162.885 14.336 168.499 11.256 174.311 10.9 L 174.311 10.9 C 174.725 10.877 175.135 10.868 175.538 10.867 L 175.538 10.867 C 179.332 10.877 183.385 11.683 187.214 13.263 L 187.214 13.263 C 191.022 14.859 194.669 17.229 197.218 20.835 L 197.218 20.835 C 198.907 23.224 200.012 26.246 200 29.516 L 200 29.516 C 200.006 32.339 199.539 34.997 198.402 37.373 L 198.402 37.373 C 197.276 39.754 195.504 41.695 193.492 43.172 L 193.492 43.172 C 189.426 46.12 184.505 47.735 178.191 49.942 L 178.191 49.942 L 178.193 49.942 C 175.688 50.803 172.96 49.473 172.097 46.971 L 172.097 46.971 C 171.236 44.468 172.567 41.736 175.071 40.876 L 175.071 40.876 C 179.773 39.263 183.419 37.95 185.809 36.682 L 185.809 36.682 C 188.244 35.379 189.19 34.386 189.749 33.243 L 189.749 33.243 C 190.127 32.446 190.409 31.336 190.412 29.516 L 190.412 29.516 C 190.4 28.32 190.076 27.378 189.362 26.333 L 189.362 26.333 C 188.648 25.304 187.482 24.249 185.979 23.346 L 185.979 23.346 C 182.998 21.512 178.709 20.429 175.538 20.456 L 175.538 20.456 C 175.282 20.456 175.039 20.463 174.806 20.475 L 174.806 20.475 C 172.379 20.529 168.29 22.402 165.215 25.651 L 165.215 25.651 C 162.088 28.885 159.947 33.184 159.96 37.772 L 159.96 37.772 C 159.957 42.433 161.261 46.765 163.913 49.771 L 163.913 49.771 C 166.578 52.756 170.656 54.976 178.024 55.023 L 178.024 55.023 C 179.559 55.023 181.23 54.917 183.045 54.688 L 183.045 54.688 C 185.672 54.355 188.071 56.213 188.405 58.839 L 188.405 58.839 C 188.738 61.465 186.879 63.865 184.254 64.198 L 184.254 64.198 C 182.072 64.474 179.999 64.611 178.024 64.611 L 178.024 64.611 C 177.954 64.611 177.885 64.611 177.815 64.611 L 177.815 64.611 C 168.512 64.614 161.236 61.332 156.699 56.086 L 156.699 56.086 Z" id="path3356" style="fill-opacity: 1; fill: rgb(255, 255, 255);"/>
  <circle cx="93.587" cy="146.41" r="6.411" id="circle3358" style="fill-opacity: 1; fill: rgb(255, 255, 255);" transform="matrix(0.85321, 0, 0, 0.853209, -17.668747, -119.448441)"/>
  <circle cx="109.312" cy="146.41" r="6.411" id="circle3360" style="fill-opacity: 1; fill: rgb(255, 255, 255);" transform="matrix(0.853208, 0, 0, 0.853209, -17.668535, -119.448441)"/>
</svg>