<?xml version="1.0" encoding="utf-8"?>
<svg version="1.2" baseProfile="tiny" id="Layer_3" x="0px" y="0px" preserveAspectRatio="none" xmlns="http://www.w3.org/2000/svg">
  <path id="path3" d="M 405.494 239.729 C 395.632 239.729 386.394 242.462 378.515 247.201 L 378.989 247.976 C 386.729 243.319 395.801 240.647 405.494 240.647 C 433.928 240.647 456.971 263.689 456.971 292.124 C 456.971 313.117 444.408 331.17 426.393 339.181 L 426.766 340.014 C 445.104 331.857 457.889 313.483 457.889 292.126 C 457.889 263.196 434.424 239.731 405.494 239.731 L 405.494 239.729 Z" style="fill: rgb(30, 30, 30);" transform="matrix(0.965926, -0.25882, 0.25882, 0.965926, -60.774529, 118.116189)"/>
  <path id="path5" d="M 464.008 265.073 C 461.567 265.073 459.576 267.064 459.576 269.505 C 459.576 271.947 461.567 273.936 464.008 273.936 L 473.646 273.936 C 476.088 273.936 478.078 271.947 478.078 269.505 C 478.078 267.064 476.088 265.073 473.646 265.073 L 464.008 265.073 Z M 464.008 265.99 L 473.646 265.99 C 475.592 265.99 477.161 267.56 477.161 269.505 C 477.161 271.451 475.592 273.019 473.646 273.019 L 464.008 273.019 C 462.063 273.019 460.493 271.451 460.493 269.505 C 460.493 267.56 462.062 265.99 464.008 265.99 Z" style="fill: rgb(30, 30, 30);" transform="matrix(0.965926, -0.258819, 0.258819, 0.965926, -53.778044, 130.52464)"/>
  <path id="path7" d="M 486.624 208.423 C 460.978 208.423 437.185 210.552 417.551 214.189 C 397.929 217.823 382.464 222.939 373.419 229.018 C 373.414 229.022 373.41 229.029 373.405 229.033 L 373.233 229.133 L 373.233 229.148 C 358.984 238.511 349.57 254.64 349.57 272.962 C 349.57 301.891 373.034 325.357 401.965 325.357 C 410.028 325.357 417.672 323.535 424.497 320.28 L 424.539 320.251 L 424.568 320.223 L 424.597 320.209 C 442.032 311.749 463.091 306.397 488.535 306.397 L 489.855 306.397 C 515.3 306.397 536.361 311.749 553.792 320.209 C 553.807 320.216 553.82 320.23 553.835 320.238 L 553.864 320.252 C 553.868 320.254 553.875 320.25 553.878 320.252 L 553.893 320.28 C 560.717 323.536 568.361 325.357 576.425 325.357 C 605.354 325.357 628.82 301.893 628.82 272.962 C 628.82 254.639 619.406 238.509 605.155 229.146 L 605.155 229.132 L 604.983 229.031 C 604.977 229.028 604.974 229.021 604.969 229.017 C 595.931 222.939 580.469 217.823 560.844 214.189 C 541.21 210.553 517.418 208.423 491.771 208.423 L 486.635 208.423 L 486.624 208.423 Z M 486.624 209.341 L 491.759 209.341 C 517.355 209.341 541.093 211.469 560.659 215.092 C 580.225 218.716 595.623 223.846 604.461 229.793 L 604.476 229.807 L 604.648 229.908 C 604.653 229.912 604.656 229.918 604.661 229.922 C 618.653 239.123 627.896 254.962 627.896 272.964 C 627.896 301.398 604.854 324.441 576.419 324.441 C 568.517 324.441 561.036 322.659 554.346 319.478 L 554.331 319.465 C 554.322 319.46 554.312 319.455 554.302 319.45 L 554.288 319.45 L 554.256 319.437 C 536.682 310.891 515.46 305.48 489.846 305.48 L 488.527 305.48 C 462.91 305.48 441.676 310.891 424.098 319.435 L 424.083 319.449 L 424.069 319.449 L 424.026 319.478 L 423.997 319.493 C 417.315 322.664 409.844 324.44 401.953 324.44 C 373.518 324.44 350.475 301.4 350.475 272.963 C 350.475 254.963 359.718 239.125 373.71 229.923 C 373.716 229.92 373.719 229.913 373.724 229.909 L 373.896 229.809 L 373.91 229.794 C 382.749 223.847 398.148 218.717 417.713 215.093 C 437.278 211.469 461.021 209.342 486.612 209.342 L 486.624 209.341 Z" style="fill: rgb(30, 30, 30);" transform="matrix(0.965926, -0.258819, 0.258819, 0.965926, -52.40734, 135.70718)"/>
  <path id="path9" d="M 574.875 201.154 C 545.945 201.154 522.48 224.618 522.48 253.549 C 522.48 274.907 535.265 293.282 553.603 301.436 L 553.975 300.604 C 535.965 292.59 523.4 274.535 523.4 253.543 C 523.4 225.109 546.441 202.065 574.877 202.065 C 584.569 202.065 593.642 204.738 601.381 209.395 L 601.855 208.624 C 593.979 203.885 584.739 201.151 574.876 201.151 L 574.875 201.154 Z" style="fill: rgb(30, 30, 30);" transform="matrix(0.965926, -0.258819, 0.258819, 0.965926, -45.88418, 154.062423)"/>
  <path id="path11" d="M 503.322 254.538 C 500.881 254.538 498.89 256.53 498.89 258.971 C 498.89 261.413 500.881 263.402 503.322 263.402 L 512.96 263.402 C 515.401 263.402 517.391 261.412 517.391 258.971 C 517.391 256.531 515.401 254.538 512.96 254.538 L 503.322 254.538 Z M 503.322 255.456 L 512.96 255.456 C 514.906 255.456 516.474 257.026 516.474 258.971 C 516.474 260.916 514.906 262.485 512.96 262.485 L 503.322 262.485 C 501.377 262.485 499.807 260.916 499.807 258.971 C 499.807 257.026 501.377 255.456 503.322 255.456 Z" style="fill: rgb(30, 30, 30);" transform="matrix(0.965926, -0.25882, 0.25882, 0.965926, -49.712003, 140.341094)"/>
  <path d="M 390.468 282.332 C 390.468 269.732 400.682 259.518 413.283 259.518 L 413.283 259.518 L 413.283 259.977 L 413.283 260.436 C 407.235 260.436 401.764 262.886 397.8 266.849 L 397.8 266.849 C 393.837 270.813 391.387 276.284 391.387 282.332 L 391.387 282.332 C 391.387 288.38 393.837 293.85 397.8 297.814 L 397.8 297.814 C 401.764 301.778 407.235 304.228 413.283 304.228 L 413.283 304.228 C 419.331 304.228 424.802 301.778 428.765 297.814 L 428.765 297.814 C 432.729 293.85 435.179 288.38 435.179 282.332 L 435.179 282.332 C 435.179 276.284 432.729 270.813 428.765 266.849 L 428.765 266.849 C 424.802 262.886 419.331 260.436 413.283 260.436 L 413.283 260.436 L 413.283 259.977 L 413.283 259.518 C 425.883 259.518 436.096 269.732 436.097 282.332 L 436.097 282.332 C 436.096 294.931 425.883 305.145 413.283 305.146 L 413.283 305.146 C 400.683 305.145 390.468 294.931 390.468 282.332 L 390.468 282.332 Z" style="fill: rgb(30, 30, 30);" transform="matrix(0.965926, -0.258819, 0.258819, 0.965926, -58.990585, 116.585454)"/>
  <path d="M 411.035 306.972 L 411.035 292.685 C 411.035 292.234 410.931 291.953 410.79 291.798 L 410.79 291.798 C 410.65 291.645 410.433 291.536 409.997 291.532 L 409.997 291.532 L 395.661 291.532 L 395.661 290.614 L 409.997 290.614 C 410.592 290.611 411.124 290.792 411.475 291.187 L 411.475 291.187 C 411.824 291.579 411.953 292.106 411.953 292.685 L 411.953 292.685 L 411.953 306.972 L 411.035 306.972 L 411.035 306.972 Z" style="fill: rgb(30, 30, 30);" transform="matrix(0.965926, -0.258819, 0.258819, 0.965926, -63.573863, 114.693917)"/>
  <path d="M 388.676 280.997 L 388.676 280.079 L 402.911 280.079 C 403.437 280.08 403.716 279.969 403.85 279.843 L 403.85 279.843 C 403.982 279.72 404.077 279.51 404.08 279.073 L 404.08 279.073 L 404.08 264.688 L 404.997 264.688 L 404.997 279.073 C 405 279.635 404.862 280.157 404.471 280.517 L 404.471 280.517 C 404.079 280.874 403.545 280.996 402.911 280.997 L 402.911 280.997 L 388.676 280.997 L 388.676 280.997 Z" style="fill: rgb(30, 30, 30);" transform="matrix(0.965926, -0.25882, 0.25882, 0.965926, -57.095093, 112.006124)"/>
  <path d="M 415.128 273.494 C 414.755 273.12 414.614 272.606 414.615 272.082 L 414.615 272.082 L 414.615 257.699 L 414.616 257.699 L 415.534 257.699 L 415.534 272.083 C 415.535 272.459 415.628 272.695 415.777 272.844 L 415.777 272.844 C 415.928 272.994 416.194 273.12 416.703 273.122 L 416.703 273.122 L 430.99 273.122 L 430.99 274.04 L 416.703 274.04 C 416.699 274.04 416.696 274.04 416.692 274.04 L 416.692 274.04 C 416.042 274.04 415.499 273.866 415.128 273.494 L 415.128 273.494 Z" style="fill: rgb(30, 30, 30);" transform="matrix(0.965926, -0.258819, 0.258819, 0.965926, -54.405401, 118.488468)"/>
  <path d="M 421.575 300.023 L 421.575 285.753 C 421.573 285.127 421.732 284.579 422.115 284.196 L 422.115 284.196 C 422.498 283.814 423.038 283.664 423.63 283.664 L 423.63 283.664 L 437.901 283.666 L 437.901 284.583 L 423.63 284.583 C 423.176 284.584 422.917 284.692 422.764 284.846 L 422.764 284.846 C 422.611 284.999 422.495 285.264 422.493 285.753 L 422.493 285.753 L 422.493 300.023 L 421.575 300.023 L 421.575 300.023 Z" style="fill: rgb(30, 30, 30);" transform="matrix(0.965926, -0.258819, 0.258819, 0.965926, -60.891636, 121.168541)"/>
  <path id="circle25" d="M 413.283 277.389 C 410.558 277.389 408.334 279.613 408.334 282.337 C 408.334 285.061 410.558 287.27 413.283 287.27 C 416.007 287.27 418.23 285.061 418.23 282.337 C 418.23 279.612 416.007 277.389 413.283 277.389 Z M 413.283 278.307 C 415.511 278.307 417.313 280.109 417.313 282.337 C 417.313 284.565 415.511 286.353 413.283 286.353 C 411.054 286.353 409.253 284.565 409.253 282.337 C 409.253 280.108 411.055 278.307 413.283 278.307 Z" style="fill: rgb(30, 30, 30);" transform="matrix(0.965926, -0.258819, 0.258819, 0.965926, -58.990053, 116.585527)"/>
  <path id="circle27" d="M 413.283 249.996 C 395.429 249.996 380.94 264.484 380.94 282.338 C 380.94 300.192 395.429 314.667 413.283 314.667 C 431.138 314.667 445.625 300.193 445.625 282.338 C 445.626 264.484 431.137 249.996 413.283 249.996 Z M 413.283 250.913 C 430.642 250.913 444.708 264.979 444.708 282.338 C 444.708 299.696 430.642 313.748 413.283 313.748 C 395.925 313.748 381.858 299.697 381.858 282.338 C 381.859 264.979 395.925 250.913 413.283 250.913 Z" style="fill: rgb(30, 30, 30);" transform="matrix(0.965926, -0.258819, 0.258819, 0.965926, -58.990523, 116.585645)"/>
  <path id="circle29" d="M 551.139 252.636 C 544.6 252.636 539.277 257.945 539.277 264.483 C 539.277 271.022 544.6 276.345 551.139 276.345 C 557.677 276.345 562.985 271.022 562.985 264.483 C 562.985 257.945 557.677 252.636 551.139 252.636 Z M 551.139 253.555 C 557.181 253.555 562.067 258.441 562.067 264.483 C 562.067 270.526 557.181 275.427 551.139 275.427 C 545.096 275.427 540.195 270.526 540.195 264.483 C 540.195 258.441 545.096 253.555 551.139 253.555 Z" style="fill: rgb(30, 30, 30);" transform="matrix(0.965926, -0.258819, 0.258819, 0.965926, -49.675881, 151.655649)"/>
  <path id="circle31" d="M 566.707 229.352 C 560.169 229.352 554.86 234.66 554.86 241.199 C 554.86 247.737 560.169 253.045 566.707 253.045 C 573.245 253.045 578.554 247.737 578.554 241.199 C 578.554 234.66 573.245 229.352 566.707 229.352 Z M 566.707 230.27 C 572.75 230.27 577.636 235.156 577.636 241.199 C 577.636 247.241 572.749 252.128 566.707 252.128 C 560.664 252.128 555.778 247.241 555.778 241.199 C 555.778 235.156 560.665 230.27 566.707 230.27 Z" style="fill: rgb(30, 30, 30);" transform="matrix(0.965926, -0.258819, 0.258819, 0.965926, -43.116661, 154.89302)"/>
  <path id="circle33" d="M 587.448 210.104 C 580.909 210.104 575.601 215.412 575.601 221.951 C 575.601 228.489 580.909 233.812 587.448 233.812 C 593.986 233.812 599.293 228.49 599.293 221.951 C 599.293 215.412 593.986 210.104 587.448 210.104 Z M 587.448 211.022 C 593.489 211.022 598.376 215.909 598.376 221.951 C 598.376 227.994 593.489 232.894 587.448 232.894 C 581.404 232.894 576.518 227.994 576.518 221.951 C 576.519 215.908 581.405 211.022 587.448 211.022 Z" style="fill: rgb(30, 30, 30);" transform="matrix(0.965926, -0.258819, 0.258819, 0.965926, -37.430188, 159.60548)"/>
</svg>