<?xml version="1.0" encoding="utf-8"?>
<svg version="1.2" baseProfile="tiny" id="Layer_3" x="0px" y="0px" viewBox="0 0 1280 720" preserveAspectRatio="none" xmlns="http://www.w3.org/2000/svg">
  <path id="path3" d="M 472.148 305.532 C 452.371 305.532 433.846 311.012 418.046 320.516 L 418.996 322.069 C 434.518 312.731 452.71 307.372 472.148 307.372 C 529.169 307.372 575.379 353.58 575.379 410.602 C 575.379 452.701 550.185 488.905 514.059 504.97 L 514.806 506.639 C 551.581 490.283 577.219 453.435 577.219 410.606 C 577.219 352.592 530.165 305.535 472.148 305.535 L 472.148 305.532 Z" style="fill: rgb(30, 30, 30);" transform="matrix(0.965926, -0.25882, 0.25882, 0.965926, -88.146438, 142.634235)"/>
  <path id="path5" d="M 589.491 356.355 C 584.595 356.355 580.603 360.349 580.603 365.243 C 580.603 370.14 584.595 374.13 589.491 374.13 L 608.819 374.13 C 613.715 374.13 617.707 370.14 617.707 365.243 C 617.707 360.348 613.715 356.355 608.819 356.355 L 589.491 356.355 Z M 589.491 358.195 L 608.819 358.195 C 612.721 358.195 615.867 361.343 615.867 365.243 C 615.867 369.145 612.721 372.29 608.819 372.29 L 589.491 372.29 C 585.59 372.29 582.443 369.145 582.443 365.243 C 582.443 361.343 585.589 358.195 589.491 358.195 Z" style="fill: rgb(30, 30, 30);" transform="matrix(0.965926, -0.258819, 0.258819, 0.965926, -74.115953, 167.517903)"/>
  <path id="path7" d="M 634.845 242.752 C 583.415 242.752 535.701 247.022 496.328 254.314 C 456.978 261.602 425.966 271.861 407.827 284.053 C 407.817 284.06 407.808 284.074 407.798 284.082 L 407.453 284.283 L 407.453 284.312 C 378.88 303.09 360 335.434 360 372.177 C 360 430.189 407.054 477.248 465.071 477.248 C 481.241 477.248 496.571 473.594 510.256 467.067 L 510.342 467.009 L 510.4 466.951 L 510.458 466.923 C 545.421 449.958 587.653 439.225 638.676 439.225 L 641.323 439.225 C 692.351 439.225 734.585 449.958 769.541 466.923 C 769.572 466.938 769.598 466.965 769.628 466.981 L 769.686 467.009 C 769.694 467.013 769.707 467.005 769.714 467.009 L 769.743 467.067 C 783.429 473.595 798.757 477.248 814.929 477.248 C 872.941 477.248 920 430.194 920 372.177 C 920 335.432 901.121 303.086 872.543 284.309 L 872.543 284.28 L 872.198 284.079 C 872.186 284.072 872.179 284.058 872.169 284.05 C 854.046 271.861 823.039 261.602 783.683 254.314 C 744.309 247.023 696.597 242.752 645.165 242.752 L 634.867 242.752 L 634.845 242.752 Z M 634.845 244.592 L 645.142 244.592 C 696.471 244.592 744.074 248.859 783.311 256.125 C 822.548 263.392 853.427 273.681 871.151 285.606 L 871.18 285.635 L 871.525 285.836 C 871.536 285.844 871.542 285.856 871.553 285.865 C 899.612 304.316 918.147 336.08 918.147 372.18 C 918.147 429.2 871.94 475.41 814.916 475.41 C 799.07 475.41 784.068 471.837 770.651 465.458 L 770.622 465.431 C 770.603 465.421 770.584 465.411 770.564 465.402 L 770.536 465.402 L 770.472 465.375 C 735.23 448.237 692.672 437.386 641.306 437.386 L 638.66 437.386 C 587.29 437.386 544.707 448.238 509.456 465.372 L 509.427 465.4 L 509.398 465.4 L 509.312 465.458 L 509.254 465.487 C 495.854 471.847 480.872 475.409 465.047 475.409 C 408.025 475.409 361.816 429.205 361.816 372.178 C 361.816 336.081 380.351 304.32 408.41 285.868 C 408.422 285.861 408.429 285.847 408.438 285.839 L 408.783 285.638 L 408.812 285.609 C 426.536 273.683 457.417 263.394 496.652 256.128 C 535.888 248.861 583.5 244.594 634.82 244.594 L 634.845 244.592 Z" style="fill: rgb(30, 30, 30);" transform="matrix(0.965926, -0.258819, 0.258819, 0.965926, -71.367342, 177.910735)"/>
  <path id="path9" d="M 811.82 228.174 C 753.805 228.174 706.749 275.228 706.749 333.245 C 706.749 376.077 732.387 412.925 769.161 429.277 L 769.908 427.608 C 733.792 411.538 708.593 375.331 708.593 333.233 C 708.593 276.213 754.799 230.001 811.824 230.001 C 831.261 230.001 849.454 235.362 864.975 244.7 L 865.924 243.154 C 850.13 233.651 831.602 228.169 811.823 228.169 L 811.82 228.174 Z" style="fill: rgb(30, 30, 30);" transform="matrix(0.965926, -0.258819, 0.258819, 0.965926, -58.286005, 214.719867)"/>
  <path id="path11" d="M 668.329 335.23 C 663.435 335.23 659.442 339.224 659.442 344.118 C 659.442 349.016 663.435 353.005 668.329 353.005 L 687.657 353.005 C 692.552 353.005 696.544 349.014 696.544 344.118 C 696.544 339.225 692.552 335.23 687.657 335.23 L 668.329 335.23 Z M 668.329 337.07 L 687.657 337.07 C 691.559 337.07 694.704 340.218 694.704 344.118 C 694.704 348.02 691.559 351.165 687.657 351.165 L 668.329 351.165 C 664.429 351.165 661.282 348.02 661.282 344.118 C 661.282 340.218 664.429 337.07 668.329 337.07 Z" style="fill: rgb(30, 30, 30);" transform="matrix(0.965926, -0.25882, 0.25882, 0.965926, -65.962216, 187.203596)"/>
  <path d="M 442.017 390.966 C 442.017 365.698 462.5 345.216 487.769 345.216 L 487.769 345.216 L 487.769 346.136 L 487.769 347.057 C 475.641 347.057 464.668 351.97 456.719 359.918 L 456.719 359.918 C 448.773 367.866 443.859 378.838 443.859 390.966 L 443.859 390.966 C 443.859 403.094 448.773 414.065 456.719 422.014 L 456.719 422.014 C 464.669 429.962 475.641 434.875 487.769 434.875 L 487.769 434.875 C 499.897 434.875 510.869 429.962 518.816 422.014 L 518.816 422.014 C 526.765 414.065 531.678 403.094 531.678 390.966 L 531.678 390.966 C 531.678 378.838 526.765 367.866 518.816 359.918 L 518.816 359.918 C 510.869 351.97 499.897 347.057 487.769 347.057 L 487.769 347.057 L 487.769 346.136 L 487.769 345.216 C 513.036 345.216 533.517 365.698 533.519 390.966 L 533.519 390.966 C 533.517 416.233 513.036 436.715 487.769 436.716 L 487.769 436.716 C 462.501 436.715 442.017 416.232 442.017 390.966 L 442.017 390.966 Z" style="fill: rgb(30, 30, 30);" transform="matrix(0.965926, -0.258819, 0.258819, 0.965926, -84.569093, 139.56537)"/>
  <path d="M 483.261 440.379 L 483.261 411.727 C 483.261 410.823 483.053 410.261 482.77 409.95 L 482.77 409.95 C 482.488 409.643 482.053 409.423 481.18 409.416 L 481.18 409.416 L 452.43 409.416 L 452.43 407.574 L 481.18 407.574 C 482.373 407.568 483.439 407.931 484.142 408.723 L 484.142 408.723 C 484.842 409.511 485.102 410.566 485.102 411.727 L 485.102 411.727 L 485.102 440.379 L 483.261 440.379 L 483.261 440.379 Z" style="fill: rgb(30, 30, 30);" transform="matrix(0.965926, -0.258819, 0.258819, 0.965926, -93.760315, 135.772078)"/>
  <path d="M 438.423 388.289 L 438.423 386.448 L 466.969 386.448 C 468.024 386.45 468.584 386.227 468.851 385.975 L 468.851 385.975 C 469.117 385.729 469.307 385.307 469.313 384.431 L 469.313 384.431 L 469.313 355.584 L 471.153 355.584 L 471.153 384.431 C 471.159 385.558 470.882 386.605 470.098 387.327 L 470.098 387.327 C 469.312 388.043 468.241 388.287 466.969 388.289 L 466.969 388.289 L 438.423 388.289 L 438.423 388.289 Z" style="fill: rgb(30, 30, 30);" transform="matrix(0.965926, -0.25882, 0.25882, 0.965926, -80.767916, 130.381645)"/>
  <path d="M 491.469 373.242 C 490.72 372.492 490.438 371.463 490.44 370.412 L 490.44 370.412 L 490.44 341.568 L 490.442 341.568 L 492.282 341.568 L 492.282 370.413 C 492.284 371.168 492.471 371.641 492.77 371.94 L 492.77 371.94 C 493.072 372.241 493.607 372.493 494.627 372.497 L 494.627 372.497 L 523.278 372.497 L 523.278 374.338 L 494.627 374.338 C 494.619 374.338 494.612 374.338 494.605 374.338 L 494.605 374.338 C 493.302 374.337 492.213 373.988 491.469 373.242 L 491.469 373.242 Z" style="fill: rgb(30, 30, 30);" transform="matrix(0.965926, -0.258819, 0.258819, 0.965926, -75.374209, 143.38157)"/>
  <path d="M 504.397 426.444 L 504.397 397.826 C 504.393 396.572 504.712 395.472 505.48 394.705 L 505.48 394.705 C 506.248 393.939 507.331 393.637 508.519 393.638 L 508.519 393.638 L 537.136 393.641 L 537.136 395.481 L 508.519 395.481 C 507.607 395.483 507.088 395.7 506.782 396.007 L 506.782 396.007 C 506.475 396.314 506.243 396.847 506.239 397.826 L 506.239 397.826 L 506.239 426.444 L 504.397 426.444 L 504.397 426.444 Z" style="fill: rgb(30, 30, 30);" transform="matrix(0.965926, -0.258819, 0.258819, 0.965926, -88.381664, 148.755958)"/>
  <path id="circle25" d="M 487.768 381.054 C 482.304 381.054 477.845 385.513 477.845 390.976 C 477.845 396.439 482.304 400.869 487.768 400.869 C 493.231 400.869 497.69 396.439 497.69 390.976 C 497.69 385.512 493.232 381.054 487.768 381.054 Z M 487.768 382.894 C 492.237 382.894 495.85 386.508 495.85 390.976 C 495.85 395.445 492.237 399.029 487.768 399.029 C 483.299 399.029 479.686 395.445 479.686 390.976 C 479.686 386.507 483.3 382.894 487.768 382.894 Z" style="fill: rgb(30, 30, 30);" transform="matrix(0.965926, -0.258819, 0.258819, 0.965926, -84.567947, 139.565085)"/>
  <path id="circle27" d="M 487.769 326.12 C 451.964 326.12 422.91 355.174 422.91 390.979 C 422.91 426.783 451.964 455.809 487.769 455.809 C 523.574 455.809 552.627 426.784 552.627 390.979 C 552.628 355.174 523.573 326.12 487.769 326.12 Z M 487.769 327.96 C 522.579 327.96 550.787 356.167 550.787 390.978 C 550.787 425.788 522.58 453.968 487.769 453.968 C 452.959 453.968 424.75 425.789 424.75 390.978 C 424.751 356.168 452.959 327.96 487.769 327.96 Z" style="fill: rgb(30, 30, 30);" transform="matrix(0.965926, -0.258819, 0.258819, 0.965926, -84.568682, 139.565423)"/>
  <path id="circle29" d="M 764.22 331.416 C 751.108 331.416 740.434 342.062 740.434 355.173 C 740.434 368.285 751.107 378.96 764.22 378.96 C 777.331 378.96 787.976 368.286 787.976 355.173 C 787.976 342.061 777.332 331.416 764.22 331.416 Z M 764.22 333.257 C 776.338 333.257 786.136 343.057 786.136 355.173 C 786.136 367.291 776.337 377.119 764.22 377.119 C 752.102 377.119 742.274 367.291 742.274 355.173 C 742.274 343.056 752.102 333.257 764.22 333.257 Z" style="fill: rgb(30, 30, 30);" transform="matrix(0.965926, -0.258819, 0.258819, 0.965926, -65.889733, 209.893363)"/>
  <path id="circle31" d="M 795.44 284.723 C 782.329 284.723 771.683 295.367 771.683 308.48 C 771.683 321.591 782.329 332.236 795.44 332.236 C 808.552 332.236 819.197 321.591 819.197 308.48 C 819.197 295.367 808.552 284.723 795.44 284.723 Z M 795.44 286.563 C 807.558 286.563 817.357 296.362 817.357 308.48 C 817.357 320.597 807.557 330.396 795.44 330.396 C 783.322 330.396 773.524 320.596 773.524 308.48 C 773.524 296.361 783.324 286.563 795.44 286.563 Z" style="fill: rgb(30, 30, 30);" transform="matrix(0.965926, -0.258819, 0.258819, 0.965926, -52.736355, 216.385778)"/>
  <path id="circle33" d="M 837.033 246.123 C 823.921 246.123 813.275 256.768 813.275 269.881 C 813.275 282.992 823.921 293.666 837.033 293.666 C 850.144 293.666 860.788 282.993 860.788 269.881 C 860.788 256.768 850.145 246.123 837.033 246.123 Z M 837.033 247.963 C 849.149 247.963 858.949 257.763 858.949 269.881 C 858.949 281.998 849.148 291.825 837.033 291.825 C 824.914 291.825 815.115 281.998 815.115 269.881 C 815.116 257.762 824.916 247.963 837.033 247.963 Z" style="fill: rgb(30, 30, 30);" transform="matrix(0.965926, -0.258819, 0.258819, 0.965926, -41.332674, 225.835905)"/>
</svg>