<?xml version="1.0" encoding="utf-8"?>
<svg id="Ebene_2" enable-background="new 0 0 566.929 97.854" height="97.854px" viewBox="0 0 566.929 97.854" width="566.93px" version="1.1" y="0px" x="0px" xmlns="http://www.w3.org/2000/svg">
  <g id="g3" fill="#fff">
    <path id="path5" d="m90.931 60.036l-33.194-19.936 14.755-0.008c9.917 0 17.957-8.04 17.957-17.957v-3.965c0-9.917-8.04-17.957-17.957-17.957h-72.465v59.907h11.551v-49.56h43.087l16.165-0.012c4.777 0 8.649 3.873 8.649 8.649v1.91c0 4.776-3.873 8.649-8.649 8.649h-50.389l50.415 30.28h20.075z"/>
    <path id="path7" d="m11.578 10.56h43.087l16.165-0.012"/>
    <path id="path9" d="m72.492 0.213h-72.465"/>
    <polygon id="polygon11" points="198.01 10.56 236.77 10.548 236.77 0.213 143.37 0.213 143.37 60.12 198.01 60.12 236.77 60.108 236.77 49.772 154.92 49.772 154.92 10.56"/>
    <polygon id="polygon13" points="446.5 0.213 446.5 60.12 501.13 60.12 539.89 60.108 539.89 49.772 458.05 49.772 458.05 0.213"/>
    <polygon id="polygon15" points="162.73 24.993 221.42 24.993 221.42 35.328 162.73 35.34"/>
    <path id="path17" d="m326.28 0.986" stroke="#000" stroke-miterlimit="10" stroke-width=".1"/>
    <polygon id="polygon19" points="340.74 0 277.6 59.834 292.63 59.834 340.96 14.025 364.02 34.509 331.32 34.509 320.4 44.845 320.4 44.845 375.66 44.845 392.53 59.834 408.09 59.834"/>
    <rect id="rect21" height="19.004" width="19.004" y="19.406" x="109.41"/>
    <rect id="rect23" height="19.004" width="19.004" y="19.406" x="255.74"/>
    <rect id="rect25" height="19.004" width="19.005" y="19.406" x="405.88"/>
    <rect id="rect27" height="3.801" width="539.86" y="70.814"/>
    <g id="g29">
      <path id="path31" d="m321.31 82.527h7.139l5.255 9.757 5.255-9.757h7.139v15.158h-4.522v-10.886h-0.042l-6.092 10.887h-3.476l-6.092-10.887h-0.042v10.887h-4.522v-15.159z"/>
      <path id="path33" d="m350.08 82.527h4.648v8.752c0 1.926 0.69 2.68 2.596 2.68h4.606c1.905 0 2.596-0.754 2.596-2.68v-8.752h4.648v9.757c0 3.769-1.947 5.569-6.219 5.569h-6.657c-4.271 0-6.219-1.801-6.219-5.569v-9.757z"/>
      <path id="path35" d="m373.15 82.527h4.648v11.264h10.448v3.895h-15.097v-15.159z"/>
      <path id="path37" d="m387.61 82.527h17.713v3.769h-6.532v11.39h-4.648v-11.39h-6.532v-3.769z"/>
      <path id="path39" d="m408.44 82.527h4.648v15.158h-4.648v-15.158z"/>
      <path id="path41" d="m417.32 82.527h12.667c4.418 0 5.485 2.22 5.485 5.192v1.298c0 2.262-0.984 4.857-4.271 4.857h-9.233v3.811h-4.648v-15.158zm4.65 7.579h7.223c1.089 0 1.508-0.712 1.508-1.612v-0.586c0-1.025-0.503-1.612-1.905-1.612h-6.825v3.81z"/>
      <path id="path43" d="m438.82 82.527h4.648v11.264h10.447v3.895h-15.096v-15.159z"/>
      <path id="path45" d="m463.44 82.527h6.051l8.333 15.158h-5.172l-1.444-2.68h-9.422l-1.36 2.68h-5.193l8.2-15.158zm0.09 9.212h5.946l-3.015-5.694-2.93 5.694z"/>
      <path id="path47" d="m484.59 92.409l-8.396-9.882h5.611l5.108 6.197 5.108-6.197h5.611l-8.396 9.882v5.276h-4.648v-5.276z"/>
      <path id="path49" d="m500.18 82.527h16.582v3.518h-11.934v2.429h11.306v3.14h-11.306v2.43h12.205v3.643h-16.854v-15.16z"/>
      <path id="path51" d="m520.68 82.527h14.028c3.58 0 4.543 1.779 4.543 4.502v0.963c0 2.03-0.461 3.224-2.597 3.727v0.042c1.382 0.251 2.533 0.858 2.533 3.35v2.575h-4.647v-1.821c0-1.592-0.461-2.115-1.905-2.115h-7.307v3.937h-4.648v-15.16zm4.65 7.453h7.684c1.256 0 1.717-0.502 1.717-1.591v-0.503c0-1.34-0.67-1.591-2.136-1.591h-7.265v3.685z"/>
    </g>
    <g id="g53">
      <path id="path55" d="m90.971 82.527h4.648v15.158h-4.648v-15.158z"/>
      <path id="path57" d="m99.848 82.527h7.202l8.73 11.013h0.042v-11.013h4.647v15.158h-7.202l-8.73-11.013h-0.042v11.013h-4.648v-15.158z"/>
      <path id="path59" d="m123.34 82.527h17.712v3.769h-6.532v11.39h-4.648v-11.39h-6.532v-3.769z"/>
      <path id="path61" d="m143.92 82.527h16.58v3.518h-11.934v2.429h11.306v3.14h-11.306v2.43h12.206v3.643h-16.854v-15.16z"/>
      <path id="path63" d="m164.41 82.527h14.028c3.58 0 4.543 1.779 4.543 4.502v0.963c0 2.03-0.461 3.224-2.596 3.727v0.042c1.382 0.251 2.533 0.858 2.533 3.35v2.575h-4.648v-1.821c0-1.592-0.461-2.115-1.905-2.115h-7.307v3.937h-4.648v-15.16zm4.65 7.453h7.683c1.257 0 1.717-0.502 1.717-1.591v-0.503c0-1.34-0.67-1.591-2.135-1.591h-7.265v3.685z"/>
      <path id="path65" d="m193.68 82.527h6.051l8.333 15.158h-5.171l-1.445-2.68h-9.422l-1.36 2.68h-5.193l8.21-15.158zm0.08 9.212h5.946l-3.015-5.694-2.94 5.694z"/>
      <path id="path67" d="m210.22 87.845c0-4.438 2.491-5.485 6.679-5.485h5.465c6.616 0 7.474 1.424 7.433 5.717h-4.648v-0.419c0-1.089-0.795-1.403-2.177-1.403h-5.067c-2.449 0-2.91 1.152-2.91 3.036v1.633c0 2.198 0.461 3.036 2.659 3.036h4.962c2.094 0 2.722-0.21 2.722-2.094h4.647v1.424c0 2.555-0.921 4.564-5.59 4.564h-7.496c-4.188 0-6.679-1.047-6.679-5.485v-4.524z"/>
      <path id="path69" d="m232.52 82.527h17.712v3.769h-6.532v11.39h-4.648v-11.39h-6.532v-3.769z"/>
      <path id="path71" d="m253.35 82.527h4.648v15.158h-4.648v-15.158z"/>
      <path id="path73" d="m260.76 82.527h5.088l5.925 11.264 5.925-11.264h5.088l-8.145 15.158h-5.737l-8.14-15.158z"/>
      <path id="path75" d="m285.3 82.527h16.583v3.518h-11.934v2.429h11.306v3.14h-11.306v2.43h12.207v3.643h-16.855v-15.16z"/>
    </g>
    <g id="g77">
      <path id="path79" d="m0.027 92.305h4.396v0.67c0 1.277 0.398 1.612 2.01 1.612h5.548c1.445 0 1.613-0.397 1.613-1.424 0-1.005-0.252-1.465-1.675-1.465h-4.773v-3.142h4.334c1.507 0 1.779-0.376 1.779-1.465 0-1.173-0.732-1.466-2.114-1.466h-4.606c-1.507 0-1.968 0.314-1.968 1.444v0.649h-4.397v-0.837c0-4.083 1.989-4.523 7.684-4.523h3.119c5.402 0 6.679 0.838 6.679 4.188 0 2.555-0.439 2.869-2.512 3.497v0.063c2.45 0.419 2.848 1.193 2.848 3.602 0 2.993-1.047 4.146-5.255 4.146h-7.727c-2.701 0-4.983-0.774-4.983-3.937v-1.612z"/>
      <path id="path81" d="m21.926 82.527h14.028c4.648 0 6.281 1.528 6.281 5.276v4.605c0 3.748-1.633 5.276-6.281 5.276h-14.028v-15.157zm4.648 11.264h8.25c1.989 0 2.763-0.565 2.763-2.722v-2.052c0-2.156-0.774-2.722-2.763-2.722h-8.25v7.496z"/>
      <path id="path83" d="m45.542 87.845c0-4.438 2.491-5.485 6.679-5.485h7.454c4.188 0 6.679 1.048 6.679 5.485v4.523c0 4.438-2.491 5.485-6.679 5.485h-7.455c-4.188 0-6.679-1.047-6.679-5.485v-4.523zm4.773 3.078c0 2.198 0.461 3.036 2.659 3.036h5.946c2.198 0 2.659-0.838 2.659-3.036v-1.633c0-1.884-0.46-3.036-2.91-3.036h-5.444c-2.449 0-2.91 1.152-2.91 3.036v1.633z"/>
    </g>
    <g id="g85">
      <path id="path87" d="m72.804 90.508h-2.173v-6.258h-2.086v-1.891h6.454v1.891h-2.195v6.258z"/>
      <path id="path89" d="m78.267 90.508h-2.173v-8.148h3.444l1.554 5.117h0.076l1.478-5.117h3.531v8.148h-2.173l0.217-6.246h-0.076l-2.064 6.246h-1.879l-2.086-6.246h-0.065l0.216 6.246z"/>
    </g>
    <g id="g91">
      <path id="path93" d="m548.8 90.676h-2.173v-6.258h-2.086v-1.891h6.453v1.891h-2.194v6.258z"/>
      <path id="path95" d="m554.26 90.676h-2.173v-8.148h3.444l1.554 5.117h0.076l1.478-5.117h3.531v8.148h-2.173l0.217-6.247h-0.076l-2.064 6.247h-1.879l-2.087-6.247h-0.064l0.21 6.247z"/>
    </g>
    <g id="g97">
      <path id="path99" d="m549.95 60.12h-2.758v-7.947h-2.648v-2.4h8.195v2.4h-2.789v7.947z"/>
      <path id="path101" d="m556.88 60.12h-2.758v-10.348h4.373l1.973 6.498h0.097l1.876-6.498h4.484v10.348h-2.758l0.275-7.933h-0.098l-2.62 7.933h-2.388l-2.648-7.933h-0.083l0.28 7.933z"/>
    </g>
  </g>
</svg>