<?xml version="1.0" encoding="utf-8"?>
<svg xmlns="http://www.w3.org/2000/svg">
  <path id="path3" d="M 33.941 285.33 C 33.941 287.402 35.635 289.095 37.706 289.095 L 151.081 289.095 C 153.154 289.095 154.831 287.402 154.831 285.33 L 154.831 14.657 C 154.831 12.584 153.154 10.905 151.081 10.905 L 37.706 10.905 C 35.634 10.905 33.941 12.585 33.941 14.658 L 33.941 285.33 L 33.941 285.33 Z M 34.853 285.33 L 34.853 14.657 C 34.853 13.078 36.128 11.818 37.706 11.818 L 151.081 11.818 C 152.66 11.818 153.919 13.078 153.919 14.657 L 153.919 285.33 C 153.919 286.909 152.659 288.182 151.081 288.182 L 37.705 288.182 C 36.127 288.182 34.853 286.909 34.853 285.33 L 34.853 285.33 Z" style="fill: rgb(30, 30, 30);" transform="matrix(0.965926, -0.258819, 0.258819, 0.965926, -35.606723, 29.540009)"/>
  <path d="M 26.162 137.379 L 31.99 137.379 L 32.446 137.379 L 32.446 136.43 L 32.446 105.428 L 32.446 104.478 L 31.99 104.478 L 26.162 104.478 L 26.162 106.377 L 30.943 106.314 L 30.943 135.418 L 26.162 135.481 Z" id="path3358" style="fill: rgb(30, 30, 30);" transform="matrix(0.965926, -0.258819, 0.258819, 0.965926, -30.30008, 11.704966)"/>
  <path style="color: rgb(0, 0, 0); font-style: normal; font-variant-ligatures: normal; font-variant-caps: normal; font-weight: normal; font-stretch: normal; font-size: medium; line-height: normal; font-family: sans-serif; text-indent: 0px; text-align: start; text-decoration: none solid rgb(0, 0, 0); letter-spacing: normal; word-spacing: normal; text-transform: none; direction: ltr; writing-mode: lr-tb; baseline-shift: baseline; text-anchor: start; white-space: normal; clip-rule: nonzero; display: inline; overflow: visible; visibility: visible; opacity: 1; isolation: auto; mix-blend-mode: normal; color-interpolation: sRGB; color-interpolation-filters: linearRGB; fill-opacity: 1; fill-rule: nonzero; stroke: none; stroke-width: 3.07403; stroke-linecap: butt; stroke-linejoin: miter; stroke-miterlimit: 4; stroke-dasharray: none; stroke-dashoffset: 0; stroke-opacity: 1; color-rendering: auto; image-rendering: auto; shape-rendering: auto; text-rendering: auto; fill: rgb(30, 30, 30);" d="M 73.949 279.664 C 73.949 283.69 77.214 286.955 81.24 286.955 L 98.535 286.955 C 102.561 286.955 105.825 283.69 105.825 279.664 L 105.825 263.399 C 105.825 259.373 102.561 256.109 98.535 256.109 L 81.24 256.109 C 77.214 256.109 73.949 259.373 73.949 263.399 L 73.949 279.664 Z M 75.438 279.664 L 75.438 263.399 C 75.438 260.172 78.012 257.597 81.24 257.597 L 98.535 257.597 C 101.762 257.597 104.338 260.172 104.338 263.399 L 104.338 279.664 C 104.338 282.891 101.762 285.467 98.535 285.467 L 81.24 285.467 C 78.012 285.467 75.438 282.891 75.438 279.664 Z" id="rect4179-31" transform="matrix(0.965926, -0.258819, 0.258819, 0.965926, -67.214807, 32.516683)"/>
  <path d="M 139.458 108.639 L 133.629 108.639 L 133.173 108.639 L 133.173 107.69 L 133.173 76.688 L 133.173 75.737 L 133.629 75.737 L 139.458 75.737 L 139.458 77.637 L 134.676 77.574 L 134.676 106.678 L 139.458 106.741 Z" id="path3358-3" style="fill: rgb(30, 30, 30);" transform="matrix(0.965926, -0.258819, 0.258819, 0.965926, -19.215167, 38.422262)"/>
  <path style="color: rgb(0, 0, 0); font-style: normal; font-variant-ligatures: normal; font-variant-caps: normal; font-weight: normal; font-stretch: normal; font-size: medium; line-height: normal; font-family: sans-serif; text-indent: 0px; text-align: start; text-decoration: none solid rgb(0, 0, 0); letter-spacing: normal; word-spacing: normal; text-transform: none; direction: ltr; writing-mode: lr-tb; baseline-shift: baseline; text-anchor: start; white-space: normal; clip-rule: nonzero; display: inline; overflow: visible; visibility: visible; opacity: 1; isolation: auto; mix-blend-mode: normal; color-interpolation: sRGB; color-interpolation-filters: linearRGB; fill-opacity: 1; fill-rule: nonzero; stroke: none; stroke-width: 3.07403; stroke-linecap: butt; stroke-linejoin: miter; stroke-miterlimit: 4; stroke-dasharray: none; stroke-dashoffset: 0; stroke-opacity: 1; color-rendering: auto; image-rendering: auto; shape-rendering: auto; text-rendering: auto; fill: rgb(30, 30, 30);" d="M 143.991 261.825 C 143.991 265.851 147.255 269.115 151.28 269.115 L 168.576 269.115 C 172.602 269.115 175.866 265.851 175.866 261.825 L 175.866 245.559 C 175.866 241.533 172.602 238.269 168.576 238.269 L 151.28 238.269 C 147.255 238.269 143.991 241.533 143.991 245.559 L 143.991 261.825 Z M 145.478 261.825 L 145.478 245.559 C 145.478 242.331 148.052 239.757 151.28 239.757 L 168.576 239.757 C 171.803 239.757 174.378 242.331 174.378 245.559 L 174.378 261.825 C 174.378 265.051 171.803 267.626 168.576 267.626 L 151.28 267.626 C 148.052 267.626 145.478 265.051 145.478 261.825 Z" id="rect4179-31-1" transform="matrix(0.965926, -0.258819, 0.258819, 0.965926, -60.210869, 50.036868)"/>
  <path style="color: rgb(0, 0, 0); font-style: normal; font-variant-ligatures: normal; font-variant-caps: normal; font-weight: normal; font-stretch: normal; font-size: medium; line-height: normal; font-family: sans-serif; text-indent: 0px; text-align: start; text-decoration: none solid rgb(0, 0, 0); letter-spacing: normal; word-spacing: normal; text-transform: none; direction: ltr; writing-mode: lr-tb; baseline-shift: baseline; text-anchor: start; white-space: normal; clip-rule: nonzero; display: inline; overflow: visible; visibility: visible; opacity: 1; isolation: auto; mix-blend-mode: normal; color-interpolation: sRGB; color-interpolation-filters: linearRGB; fill-opacity: 1; fill-rule: nonzero; stroke: none; stroke-width: 3.07403; stroke-linecap: butt; stroke-linejoin: miter; stroke-miterlimit: 4; stroke-dasharray: none; stroke-dashoffset: 0; stroke-opacity: 1; color-rendering: auto; image-rendering: auto; shape-rendering: auto; text-rendering: auto; fill: rgb(30, 30, 30);" d="M 135.041 227.655 C 135.041 231.681 138.305 234.945 142.331 234.945 L 159.627 234.945 C 163.653 234.945 166.917 231.681 166.917 227.655 L 166.917 211.389 C 166.917 207.363 163.653 204.099 159.627 204.099 L 142.331 204.099 C 138.305 204.099 135.041 207.363 135.041 211.389 L 135.041 227.655 Z M 136.529 227.655 L 136.529 211.389 C 136.529 208.162 139.104 205.588 142.331 205.588 L 159.627 205.588 C 162.854 205.588 165.429 208.162 165.429 211.389 L 165.429 227.655 C 165.429 230.882 162.854 233.456 159.627 233.456 L 142.331 233.456 C 139.104 233.456 136.529 230.882 136.529 227.655 Z" id="rect4179-31-1-5" transform="matrix(0.965926, -0.258819, 0.258819, 0.965926, -51.671972, 46.556253)"/>
  <path style="color: rgb(0, 0, 0); font-style: normal; font-variant-ligatures: normal; font-variant-caps: normal; font-weight: normal; font-stretch: normal; font-size: medium; line-height: normal; font-family: sans-serif; text-indent: 0px; text-align: start; text-decoration: none solid rgb(0, 0, 0); letter-spacing: normal; word-spacing: normal; text-transform: none; direction: ltr; writing-mode: lr-tb; baseline-shift: baseline; text-anchor: start; white-space: normal; clip-rule: nonzero; display: inline; overflow: visible; visibility: visible; opacity: 1; isolation: auto; mix-blend-mode: normal; color-interpolation: sRGB; color-interpolation-filters: linearRGB; fill-opacity: 1; fill-rule: nonzero; stroke: none; stroke-width: 3.07403; stroke-linecap: butt; stroke-linejoin: miter; stroke-miterlimit: 4; stroke-dasharray: none; stroke-dashoffset: 0; stroke-opacity: 1; color-rendering: auto; image-rendering: auto; shape-rendering: auto; text-rendering: auto; fill: rgb(30, 30, 30);" d="M 126.008 193.169 C 126.008 197.196 129.272 200.46 133.298 200.46 L 150.594 200.46 C 154.619 200.46 157.884 197.196 157.884 193.169 L 157.884 176.905 C 157.884 172.879 154.619 169.614 150.594 169.614 L 133.298 169.614 C 129.272 169.614 126.008 172.879 126.008 176.905 L 126.008 193.169 Z M 127.496 193.169 L 127.496 176.905 C 127.496 173.677 130.071 171.102 133.298 171.102 L 150.594 171.102 C 153.821 171.102 156.396 173.677 156.396 176.905 L 156.396 193.169 C 156.396 196.397 153.821 198.971 150.594 198.971 L 133.298 198.971 C 130.071 198.971 127.496 196.397 127.496 193.169 Z" id="rect4179-31-1-57" transform="matrix(0.965926, -0.258819, 0.258819, 0.965926, -43.054416, 43.043323)"/>
  <path style="color: rgb(0, 0, 0); font-style: normal; font-variant-ligatures: normal; font-variant-caps: normal; font-weight: normal; font-stretch: normal; font-size: medium; line-height: normal; font-family: sans-serif; text-indent: 0px; text-align: start; text-decoration: none solid rgb(0, 0, 0); letter-spacing: normal; word-spacing: normal; text-transform: none; direction: ltr; writing-mode: lr-tb; baseline-shift: baseline; text-anchor: start; white-space: normal; clip-rule: nonzero; display: inline; overflow: visible; visibility: visible; opacity: 1; isolation: auto; mix-blend-mode: normal; color-interpolation: sRGB; color-interpolation-filters: linearRGB; fill-opacity: 1; fill-rule: nonzero; stroke: none; stroke-width: 3.07403; stroke-linecap: butt; stroke-linejoin: miter; stroke-miterlimit: 4; stroke-dasharray: none; stroke-dashoffset: 0; stroke-opacity: 1; color-rendering: auto; image-rendering: auto; shape-rendering: auto; text-rendering: auto; fill: rgb(30, 30, 30);" d="M 117.109 159.957 C 117.109 163.982 120.373 167.246 124.399 167.246 L 141.694 167.246 C 145.72 167.246 148.985 163.982 148.985 159.957 L 148.985 143.691 C 148.985 139.665 145.72 136.401 141.694 136.401 L 124.399 136.401 C 120.373 136.401 117.109 139.665 117.109 143.691 L 117.109 159.957 Z M 118.597 159.957 L 118.597 143.691 C 118.597 140.464 121.171 137.889 124.399 137.889 L 141.694 137.889 C 144.922 137.889 147.497 140.464 147.497 143.691 L 147.497 159.957 C 147.497 163.184 144.922 165.759 141.694 165.759 L 124.399 165.759 C 121.171 165.759 118.597 163.184 118.597 159.957 Z" id="rect4179-31-1-6" transform="matrix(0.965926, -0.258819, 0.258819, 0.965926, -34.761337, 39.608344)"/>
  <path style="color: rgb(0, 0, 0); font-style: normal; font-variant-ligatures: normal; font-variant-caps: normal; font-weight: normal; font-stretch: normal; font-size: medium; line-height: normal; font-family: sans-serif; text-indent: 0px; text-align: start; text-decoration: none solid rgb(0, 0, 0); letter-spacing: normal; word-spacing: normal; text-transform: none; direction: ltr; writing-mode: lr-tb; baseline-shift: baseline; text-anchor: start; white-space: normal; clip-rule: nonzero; display: inline; overflow: visible; visibility: visible; opacity: 1; isolation: auto; mix-blend-mode: normal; color-interpolation: sRGB; color-interpolation-filters: linearRGB; fill-opacity: 1; fill-rule: nonzero; stroke: none; stroke-width: 3.07403; stroke-linecap: butt; stroke-linejoin: miter; stroke-miterlimit: 4; stroke-dasharray: none; stroke-dashoffset: 0; stroke-opacity: 1; color-rendering: auto; image-rendering: auto; shape-rendering: auto; text-rendering: auto; fill: rgb(30, 30, 30);" d="M 82.35 169.27 C 82.35 173.296 85.615 176.56 89.641 176.56 L 106.936 176.56 C 110.963 176.56 114.227 173.296 114.227 169.27 L 114.227 153.005 C 114.227 148.979 110.963 145.715 106.936 145.715 L 89.641 145.715 C 85.615 145.715 82.35 148.979 82.35 153.005 L 82.35 169.27 Z M 83.838 169.27 L 83.838 153.005 C 83.838 149.777 86.413 147.202 89.641 147.202 L 106.936 147.202 C 110.164 147.202 112.739 149.777 112.739 153.005 L 112.739 169.27 C 112.739 172.498 110.164 175.072 106.936 175.072 L 89.641 175.072 C 86.413 175.072 83.838 172.498 83.838 169.27 Z" id="rect4179-31-1-3" transform="matrix(0.965926, -0.258819, 0.258819, 0.965926, -38.356343, 30.929553)"/>
  <path style="color: rgb(0, 0, 0); font-style: normal; font-variant-ligatures: normal; font-variant-caps: normal; font-weight: normal; font-stretch: normal; font-size: medium; line-height: normal; font-family: sans-serif; text-indent: 0px; text-align: start; text-decoration: none solid rgb(0, 0, 0); letter-spacing: normal; word-spacing: normal; text-transform: none; direction: ltr; writing-mode: lr-tb; baseline-shift: baseline; text-anchor: start; white-space: normal; clip-rule: nonzero; display: inline; overflow: visible; visibility: visible; opacity: 1; isolation: auto; mix-blend-mode: normal; color-interpolation: sRGB; color-interpolation-filters: linearRGB; fill-opacity: 1; fill-rule: nonzero; stroke: none; stroke-width: 3.07403; stroke-linecap: butt; stroke-linejoin: miter; stroke-miterlimit: 4; stroke-dasharray: none; stroke-dashoffset: 0; stroke-opacity: 1; color-rendering: auto; image-rendering: auto; shape-rendering: auto; text-rendering: auto; fill: rgb(30, 30, 30);" d="M 91.391 202.238 C 91.391 206.264 94.656 209.529 98.681 209.529 L 115.977 209.529 C 120.003 209.529 123.267 206.264 123.267 202.238 L 123.267 185.973 C 123.267 181.948 120.003 178.683 115.977 178.683 L 98.681 178.683 C 94.656 178.683 91.391 181.948 91.391 185.973 L 91.391 202.238 Z M 92.879 202.238 L 92.879 185.973 C 92.879 182.746 95.454 180.171 98.681 180.171 L 115.977 180.171 C 119.204 180.171 121.779 182.746 121.779 185.973 L 121.779 202.238 C 121.779 205.466 119.204 208.041 115.977 208.041 L 98.681 208.041 C 95.454 208.041 92.879 205.466 92.879 202.238 Z" id="rect4179-31-1-4" transform="matrix(0.965926, -0.258819, 0.258819, 0.965926, -46.581196, 34.392804)"/>
  <path style="color: rgb(0, 0, 0); font-style: normal; font-variant-ligatures: normal; font-variant-caps: normal; font-weight: normal; font-stretch: normal; font-size: medium; line-height: normal; font-family: sans-serif; text-indent: 0px; text-align: start; text-decoration: none solid rgb(0, 0, 0); letter-spacing: normal; word-spacing: normal; text-transform: none; direction: ltr; writing-mode: lr-tb; baseline-shift: baseline; text-anchor: start; white-space: normal; clip-rule: nonzero; display: inline; overflow: visible; visibility: visible; opacity: 1; isolation: auto; mix-blend-mode: normal; color-interpolation: sRGB; color-interpolation-filters: linearRGB; fill-opacity: 1; fill-rule: nonzero; stroke: none; stroke-width: 3.07403; stroke-linecap: butt; stroke-linejoin: miter; stroke-miterlimit: 4; stroke-dasharray: none; stroke-dashoffset: 0; stroke-opacity: 1; color-rendering: auto; image-rendering: auto; shape-rendering: auto; text-rendering: auto; fill: rgb(30, 30, 30);" d="M 100.617 236.671 C 100.617 240.698 103.882 243.962 107.908 243.962 L 125.203 243.962 C 129.23 243.962 132.493 240.698 132.493 236.671 L 132.493 220.406 C 132.493 216.381 129.23 213.117 125.203 213.117 L 107.908 213.117 C 103.882 213.117 100.617 216.381 100.617 220.406 L 100.617 236.671 Z M 102.106 236.671 L 102.106 220.406 C 102.106 217.179 104.68 214.604 107.908 214.604 L 125.203 214.604 C 128.431 214.604 131.006 217.179 131.006 220.406 L 131.006 236.671 C 131.006 239.899 128.431 242.474 125.203 242.474 L 107.908 242.474 C 104.68 242.474 102.106 239.899 102.106 236.671 Z" id="rect4179-31-1-8" transform="matrix(0.965926, -0.258819, 0.258819, 0.965926, -55.178847, 37.953931)"/>
  <path style="color: rgb(0, 0, 0); font-style: normal; font-variant-ligatures: normal; font-variant-caps: normal; font-weight: normal; font-stretch: normal; font-size: medium; line-height: normal; font-family: sans-serif; text-indent: 0px; text-align: start; text-decoration: none solid rgb(0, 0, 0); letter-spacing: normal; word-spacing: normal; text-transform: none; direction: ltr; writing-mode: lr-tb; baseline-shift: baseline; text-anchor: start; white-space: normal; clip-rule: nonzero; display: inline; overflow: visible; visibility: visible; opacity: 1; isolation: auto; mix-blend-mode: normal; color-interpolation: sRGB; color-interpolation-filters: linearRGB; fill-opacity: 1; fill-rule: nonzero; stroke: none; stroke-width: 3.07403; stroke-linecap: butt; stroke-linejoin: miter; stroke-miterlimit: 4; stroke-dasharray: none; stroke-dashoffset: 0; stroke-opacity: 1; color-rendering: auto; image-rendering: auto; shape-rendering: auto; text-rendering: auto; fill: rgb(30, 30, 30);" d="M 109.566 270.841 C 109.566 274.867 112.83 278.131 116.857 278.131 L 134.151 278.131 C 138.178 278.131 141.442 274.867 141.442 270.841 L 141.442 254.575 C 141.442 250.55 138.178 247.285 134.151 247.285 L 116.857 247.285 C 112.83 247.285 109.566 250.55 109.566 254.575 L 109.566 270.841 Z M 111.054 270.841 L 111.054 254.575 C 111.054 251.348 113.629 248.773 116.857 248.773 L 134.151 248.773 C 137.379 248.773 139.954 251.348 139.954 254.575 L 139.954 270.841 C 139.954 274.069 137.379 276.643 134.151 276.643 L 116.857 276.643 C 113.629 276.643 111.054 274.069 111.054 270.841 Z" id="rect4179-31-1-2" transform="matrix(0.965926, -0.258819, 0.258819, 0.965926, -63.717369, 41.434367)"/>
  <path style="color: rgb(0, 0, 0); font-style: normal; font-variant-ligatures: normal; font-variant-caps: normal; font-weight: normal; font-stretch: normal; font-size: medium; line-height: normal; font-family: sans-serif; text-indent: 0px; text-align: start; text-decoration: none solid rgb(0, 0, 0); letter-spacing: normal; word-spacing: normal; text-transform: none; direction: ltr; writing-mode: lr-tb; baseline-shift: baseline; text-anchor: start; white-space: normal; clip-rule: nonzero; display: inline; overflow: visible; visibility: visible; opacity: 1; isolation: auto; mix-blend-mode: normal; color-interpolation: sRGB; color-interpolation-filters: linearRGB; fill-opacity: 1; fill-rule: nonzero; stroke: none; stroke-width: 3.07403; stroke-linecap: butt; stroke-linejoin: miter; stroke-miterlimit: 4; stroke-dasharray: none; stroke-dashoffset: 0; stroke-opacity: 1; color-rendering: auto; image-rendering: auto; shape-rendering: auto; text-rendering: auto; fill: rgb(30, 30, 30);" d="M 65.615 245.844 C 65.615 249.869 68.879 253.134 72.904 253.134 L 90.201 253.134 C 94.226 253.134 97.49 249.869 97.49 245.844 L 97.49 229.579 C 97.49 225.553 94.226 222.288 90.201 222.288 L 72.904 222.288 C 68.879 222.288 65.615 225.553 65.615 229.579 L 65.615 245.844 Z M 67.103 245.844 L 67.103 229.579 C 67.103 226.351 69.677 223.776 72.904 223.776 L 90.201 223.776 C 93.427 223.776 96.003 226.351 96.003 229.579 L 96.003 245.844 C 96.003 249.071 93.427 251.646 90.201 251.646 L 72.904 251.646 C 69.677 251.646 67.103 249.071 67.103 245.844 Z" id="rect4179-31-1-64" transform="matrix(0.965926, -0.258819, 0.258819, 0.965926, -58.745276, 29.207131)"/>
  <path style="color: rgb(0, 0, 0); font-style: normal; font-variant-ligatures: normal; font-variant-caps: normal; font-weight: normal; font-stretch: normal; font-size: medium; line-height: normal; font-family: sans-serif; text-indent: 0px; text-align: start; text-decoration: none solid rgb(0, 0, 0); letter-spacing: normal; word-spacing: normal; text-transform: none; direction: ltr; writing-mode: lr-tb; baseline-shift: baseline; text-anchor: start; white-space: normal; clip-rule: nonzero; display: inline; overflow: visible; visibility: visible; opacity: 1; isolation: auto; mix-blend-mode: normal; color-interpolation: sRGB; color-interpolation-filters: linearRGB; fill-opacity: 1; fill-rule: nonzero; stroke: none; stroke-width: 3.07403; stroke-linecap: butt; stroke-linejoin: miter; stroke-miterlimit: 4; stroke-dasharray: none; stroke-dashoffset: 0; stroke-opacity: 1; color-rendering: auto; image-rendering: auto; shape-rendering: auto; text-rendering: auto; fill: rgb(30, 30, 30);" d="M 56.44 211.604 C 56.44 215.629 59.704 218.894 63.73 218.894 L 81.026 218.894 C 85.052 218.894 88.316 215.629 88.316 211.604 L 88.316 195.338 C 88.316 191.313 85.052 188.048 81.026 188.048 L 63.73 188.048 C 59.704 188.048 56.44 191.313 56.44 195.338 L 56.44 211.604 Z M 57.929 211.604 L 57.929 195.338 C 57.929 192.111 60.502 189.536 63.73 189.536 L 81.026 189.536 C 84.253 189.536 86.828 192.111 86.828 195.338 L 86.828 211.604 C 86.828 214.831 84.253 217.406 81.026 217.406 L 63.73 217.406 C 60.502 217.406 57.929 214.831 57.929 211.604 Z" id="rect4179-31-1-84" transform="matrix(0.965926, -0.258819, 0.258819, 0.965926, -50.195933, 25.665898)"/>
  <path style="color: rgb(0, 0, 0); font-style: normal; font-variant-ligatures: normal; font-variant-caps: normal; font-weight: normal; font-stretch: normal; font-size: medium; line-height: normal; font-family: sans-serif; text-indent: 0px; text-align: start; text-decoration: none solid rgb(0, 0, 0); letter-spacing: normal; word-spacing: normal; text-transform: none; direction: ltr; writing-mode: lr-tb; baseline-shift: baseline; text-anchor: start; white-space: normal; clip-rule: nonzero; display: inline; overflow: visible; visibility: visible; opacity: 1; isolation: auto; mix-blend-mode: normal; color-interpolation: sRGB; color-interpolation-filters: linearRGB; fill-opacity: 1; fill-rule: nonzero; stroke: none; stroke-width: 3.07403; stroke-linecap: butt; stroke-linejoin: miter; stroke-miterlimit: 4; stroke-dasharray: none; stroke-dashoffset: 0; stroke-opacity: 1; color-rendering: auto; image-rendering: auto; shape-rendering: auto; text-rendering: auto; fill: rgb(30, 30, 30);" d="M 47.206 178.687 C 47.206 182.713 50.471 185.977 54.496 185.977 L 71.792 185.977 C 75.817 185.977 79.083 182.713 79.083 178.687 L 79.083 162.422 C 79.083 158.395 75.817 155.131 71.792 155.131 L 54.496 155.131 C 50.471 155.131 47.206 158.395 47.206 162.422 L 47.206 178.687 Z M 48.694 178.687 L 48.694 162.422 C 48.694 159.194 51.269 156.619 54.496 156.619 L 71.792 156.619 C 75.019 156.619 77.594 159.194 77.594 162.422 L 77.594 178.687 C 77.594 181.914 75.019 184.489 71.792 184.489 L 54.496 184.489 C 51.269 184.489 48.694 181.914 48.694 178.687 Z" id="rect4179-31-1-50" transform="matrix(0.965926, -0.258819, 0.258819, 0.965926, -41.99099, 22.154462)"/>
  <path style="color: rgb(0, 0, 0); font-style: normal; font-variant-ligatures: normal; font-variant-caps: normal; font-weight: normal; font-stretch: normal; font-size: medium; line-height: normal; font-family: sans-serif; text-indent: 0px; text-align: start; text-decoration: none solid rgb(0, 0, 0); letter-spacing: normal; word-spacing: normal; text-transform: none; direction: ltr; writing-mode: lr-tb; baseline-shift: baseline; text-anchor: start; white-space: normal; clip-rule: nonzero; display: inline; overflow: visible; visibility: visible; opacity: 1; isolation: auto; mix-blend-mode: normal; color-interpolation: sRGB; color-interpolation-filters: linearRGB; fill-opacity: 0.866667; fill-rule: nonzero; stroke: none; stroke-width: 1.83086; stroke-linecap: butt; stroke-linejoin: miter; stroke-miterlimit: 4; stroke-dasharray: none; stroke-dashoffset: 0; stroke-opacity: 1; color-rendering: auto; image-rendering: auto; shape-rendering: auto; text-rendering: auto; fill: rgb(30, 30, 30);" d="M 68.691 18.892 C 50.727 18.892 36.148 33.469 36.148 51.433 C 36.148 69.397 50.727 83.976 68.691 83.976 C 86.655 83.976 101.232 69.397 101.232 51.433 C 101.232 33.469 86.655 18.892 68.691 18.892 Z M 68.691 20.373 C 85.855 20.373 99.752 34.27 99.752 51.433 C 99.752 68.597 85.855 82.495 68.691 82.495 C 51.528 82.495 37.63 68.597 37.63 51.433 C 37.63 34.27 51.528 20.373 68.691 20.373 Z" id="path4165" transform="matrix(0.965926, -0.258819, 0.258819, 0.965926, -10.971541, 19.530845)"/>
  <path style="color: rgb(0, 0, 0); font-style: normal; font-variant-ligatures: normal; font-variant-caps: normal; font-weight: normal; font-stretch: normal; font-size: medium; line-height: normal; font-family: sans-serif; text-indent: 0px; text-align: start; text-decoration: none solid rgb(0, 0, 0); letter-spacing: normal; word-spacing: normal; text-transform: none; direction: ltr; writing-mode: lr-tb; baseline-shift: baseline; text-anchor: start; white-space: normal; clip-rule: nonzero; display: inline; overflow: visible; visibility: visible; opacity: 1; isolation: auto; mix-blend-mode: normal; color-interpolation: sRGB; color-interpolation-filters: linearRGB; fill-opacity: 0.866667; fill-rule: nonzero; stroke: none; stroke-width: 1.5556; stroke-linecap: butt; stroke-linejoin: miter; stroke-miterlimit: 4; stroke-dasharray: none; stroke-dashoffset: 0; stroke-opacity: 1; color-rendering: auto; image-rendering: auto; shape-rendering: auto; text-rendering: auto; fill: rgb(30, 30, 30);" d="M 68.907 23.41 C 53.643 23.41 41.257 35.797 41.257 51.06 C 41.257 66.323 53.643 78.71 68.907 78.71 C 84.169 78.71 96.555 66.323 96.555 51.06 C 96.555 35.797 84.169 23.41 68.907 23.41 Z M 68.907 24.668 C 83.489 24.668 95.299 36.478 95.299 51.06 C 95.299 65.643 83.489 77.451 68.907 77.451 C 54.323 77.451 42.516 65.643 42.516 51.06 C 42.516 36.478 54.323 24.668 68.907 24.668 Z" id="path4165-7" transform="matrix(0.965926, -0.258819, 0.258819, 0.965926, -10.867384, 19.57401)"/>
  <path style="color: rgb(0, 0, 0); font-style: normal; font-variant-ligatures: normal; font-variant-caps: normal; font-weight: normal; font-stretch: normal; font-size: medium; line-height: normal; font-family: sans-serif; text-indent: 0px; text-align: start; text-decoration: none solid rgb(0, 0, 0); letter-spacing: normal; word-spacing: normal; text-transform: none; direction: ltr; writing-mode: lr-tb; baseline-shift: baseline; text-anchor: start; white-space: normal; clip-rule: nonzero; display: inline; overflow: visible; visibility: visible; opacity: 1; isolation: auto; mix-blend-mode: normal; color-interpolation: sRGB; color-interpolation-filters: linearRGB; fill-opacity: 0.866667; fill-rule: evenodd; stroke: none; stroke-width: 1.5; stroke-linecap: butt; stroke-linejoin: miter; stroke-miterlimit: 4; stroke-dasharray: none; stroke-dashoffset: 0; stroke-opacity: 1; color-rendering: auto; image-rendering: auto; shape-rendering: auto; text-rendering: auto; fill: rgb(30, 30, 30);" d="M 53.866 86.131 L 53.866 87.344 L 151.799 87.344 L 151.8 123.701 L 159.151 123.701 L 159.483 214.335 L 159.15 241.39 L 159.15 283.15 L 160.362 283.15 L 160.362 241.399 L 160.696 214.341 L 160.359 122.487 L 153.013 122.487 L 153.013 86.131 L 53.866 86.131 Z" id="path4184" transform="matrix(0.965926, -0.258819, 0.258819, 0.965926, -44.132955, 34.057829)"/>
</svg>