<?xml version="1.0" encoding="utf-8"?>
<svg version="1.2" id="Layer_3" x="0px" y="0px" viewBox="0 0 1280 720" preserveAspectRatio="none" xmlns="http://www.w3.org/2000/svg">
  <path id="path3" d="M 540 583.887 C 540 587.315 542.803 590.117 546.23 590.117 L 733.795 590.117 C 737.224 590.117 740 587.315 740 583.887 L 740 136.09 C 740 132.66 737.224 129.883 733.795 129.883 L 546.23 129.883 C 542.801 129.883 540 132.662 540 136.091 L 540 583.887 L 540 583.887 Z M 541.51 583.887 L 541.51 136.09 C 541.51 133.477 543.618 131.393 546.23 131.393 L 733.795 131.393 C 736.408 131.393 738.491 133.477 738.491 136.09 L 738.491 583.887 C 738.491 586.5 736.405 588.606 733.795 588.606 L 546.228 588.606 C 543.617 588.605 541.51 586.499 541.51 583.887 L 541.51 583.887 Z" style="fill: rgb(30, 30, 30);" transform="matrix(0.965926, -0.258819, 0.258819, 0.965926, -71.367419, 177.911024)"/>
  <path d="M 527.131 339.12 L 536.773 339.12 L 537.527 339.12 L 537.527 337.549 L 537.527 286.26 L 537.527 284.688 L 536.773 284.688 L 527.131 284.688 L 527.131 287.831 L 535.04 287.727 L 535.04 335.875 L 527.131 335.979 Z" id="path3358" style="fill: rgb(30, 30, 30);" transform="matrix(0.965926, -0.258819, 0.258819, 0.965926, -62.587996, 148.404646)"/>
  <path style="color: rgb(0, 0, 0); font-style: normal; font-variant-ligatures: normal; font-variant-caps: normal; font-weight: normal; font-stretch: normal; font-size: medium; line-height: normal; font-family: sans-serif; text-indent: 0px; text-align: start; text-decoration: none solid rgb(0, 0, 0); letter-spacing: normal; word-spacing: normal; text-transform: none; direction: ltr; writing-mode: lr-tb; baseline-shift: baseline; text-anchor: start; white-space: normal; clip-rule: nonzero; display: inline; overflow: visible; visibility: visible; opacity: 1; isolation: auto; mix-blend-mode: normal; color-interpolation: sRGB; color-interpolation-filters: linearRGB; fill-opacity: 1; fill-rule: nonzero; stroke: none; stroke-width: 3.07403; stroke-linecap: butt; stroke-linejoin: miter; stroke-miterlimit: 4; stroke-dasharray: none; stroke-dashoffset: 0; stroke-opacity: 1; color-rendering: auto; image-rendering: auto; shape-rendering: auto; text-rendering: auto; fill: rgb(30, 30, 30);" d="M 606.189 574.514 C 606.189 581.174 611.591 586.575 618.251 586.575 L 646.864 586.575 C 653.525 586.575 658.925 581.174 658.925 574.514 L 658.925 547.605 C 658.925 540.945 653.525 535.544 646.864 535.544 L 618.251 535.544 C 611.591 535.544 606.189 540.945 606.189 547.605 L 606.189 574.514 Z M 608.652 574.514 L 608.652 547.605 C 608.652 542.266 612.911 538.006 618.251 538.006 L 646.864 538.006 C 652.203 538.006 656.464 542.266 656.464 547.605 L 656.464 574.514 C 656.464 579.853 652.203 584.114 646.864 584.114 L 618.251 584.114 C 612.911 584.114 608.652 579.853 608.652 574.514 Z" id="rect4179-31" transform="matrix(0.965926, -0.258819, 0.258819, 0.965926, -123.6591, 182.835586)"/>
  <path d="M 714.566 291.572 L 704.923 291.572 L 704.168 291.572 L 704.168 290.002 L 704.168 238.713 L 704.168 237.14 L 704.923 237.14 L 714.566 237.14 L 714.566 240.283 L 706.655 240.179 L 706.655 288.328 L 714.566 288.433 Z" id="path3358-3" style="fill: rgb(30, 30, 30);" transform="matrix(0.965926, -0.258819, 0.258819, 0.965926, -44.249268, 192.605375)"/>
  <path style="color: rgb(0, 0, 0); font-style: normal; font-variant-ligatures: normal; font-variant-caps: normal; font-weight: normal; font-stretch: normal; font-size: medium; line-height: normal; font-family: sans-serif; text-indent: 0px; text-align: start; text-decoration: none solid rgb(0, 0, 0); letter-spacing: normal; word-spacing: normal; text-transform: none; direction: ltr; writing-mode: lr-tb; baseline-shift: baseline; text-anchor: start; white-space: normal; clip-rule: nonzero; display: inline; overflow: visible; visibility: visible; opacity: 1; isolation: auto; mix-blend-mode: normal; color-interpolation: sRGB; color-interpolation-filters: linearRGB; fill-opacity: 1; fill-rule: nonzero; stroke: none; stroke-width: 3.07403; stroke-linecap: butt; stroke-linejoin: miter; stroke-miterlimit: 4; stroke-dasharray: none; stroke-dashoffset: 0; stroke-opacity: 1; color-rendering: auto; image-rendering: auto; shape-rendering: auto; text-rendering: auto; fill: rgb(30, 30, 30);" d="M 722.065 545.001 C 722.065 551.661 727.465 557.061 734.125 557.061 L 762.739 557.061 C 769.399 557.061 774.799 551.661 774.799 545.001 L 774.799 518.091 C 774.799 511.431 769.399 506.031 762.739 506.031 L 734.125 506.031 C 727.465 506.031 722.065 511.431 722.065 518.091 L 722.065 545.001 Z M 724.526 545.001 L 724.526 518.091 C 724.526 512.751 728.785 508.492 734.125 508.492 L 762.739 508.492 C 768.077 508.492 772.338 512.751 772.338 518.091 L 772.338 545.001 C 772.338 550.338 768.077 554.599 762.739 554.599 L 734.125 554.599 C 728.785 554.599 724.526 550.338 724.526 545.001 Z" id="rect4179-31-1" transform="matrix(0.965926, -0.258819, 0.258819, 0.965926, -112.072093, 211.82062)"/>
  <path style="color: rgb(0, 0, 0); font-style: normal; font-variant-ligatures: normal; font-variant-caps: normal; font-weight: normal; font-stretch: normal; font-size: medium; line-height: normal; font-family: sans-serif; text-indent: 0px; text-align: start; text-decoration: none solid rgb(0, 0, 0); letter-spacing: normal; word-spacing: normal; text-transform: none; direction: ltr; writing-mode: lr-tb; baseline-shift: baseline; text-anchor: start; white-space: normal; clip-rule: nonzero; display: inline; overflow: visible; visibility: visible; opacity: 1; isolation: auto; mix-blend-mode: normal; color-interpolation: sRGB; color-interpolation-filters: linearRGB; fill-opacity: 1; fill-rule: nonzero; stroke: none; stroke-width: 3.07403; stroke-linecap: butt; stroke-linejoin: miter; stroke-miterlimit: 4; stroke-dasharray: none; stroke-dashoffset: 0; stroke-opacity: 1; color-rendering: auto; image-rendering: auto; shape-rendering: auto; text-rendering: auto; fill: rgb(30, 30, 30);" d="M 707.259 488.471 C 707.259 495.131 712.659 500.531 719.319 500.531 L 747.933 500.531 C 754.594 500.531 759.994 495.131 759.994 488.471 L 759.994 461.561 C 759.994 454.901 754.594 449.501 747.933 449.501 L 719.319 449.501 C 712.659 449.501 707.259 454.901 707.259 461.561 L 707.259 488.471 Z M 709.721 488.471 L 709.721 461.561 C 709.721 456.222 713.981 451.963 719.319 451.963 L 747.933 451.963 C 753.273 451.963 757.533 456.222 757.533 461.561 L 757.533 488.471 C 757.533 493.81 753.273 498.069 747.933 498.069 L 719.319 498.069 C 713.981 498.069 709.721 493.81 709.721 488.471 Z" id="rect4179-31-1-5" transform="matrix(0.965926, -0.258819, 0.258819, 0.965926, -97.945391, 206.062052)"/>
  <path style="color: rgb(0, 0, 0); font-style: normal; font-variant-ligatures: normal; font-variant-caps: normal; font-weight: normal; font-stretch: normal; font-size: medium; line-height: normal; font-family: sans-serif; text-indent: 0px; text-align: start; text-decoration: none solid rgb(0, 0, 0); letter-spacing: normal; word-spacing: normal; text-transform: none; direction: ltr; writing-mode: lr-tb; baseline-shift: baseline; text-anchor: start; white-space: normal; clip-rule: nonzero; display: inline; overflow: visible; visibility: visible; opacity: 1; isolation: auto; mix-blend-mode: normal; color-interpolation: sRGB; color-interpolation-filters: linearRGB; fill-opacity: 1; fill-rule: nonzero; stroke: none; stroke-width: 3.07403; stroke-linecap: butt; stroke-linejoin: miter; stroke-miterlimit: 4; stroke-dasharray: none; stroke-dashoffset: 0; stroke-opacity: 1; color-rendering: auto; image-rendering: auto; shape-rendering: auto; text-rendering: auto; fill: rgb(30, 30, 30);" d="M 692.315 431.418 C 692.315 438.08 697.715 443.48 704.376 443.48 L 732.989 443.48 C 739.649 443.48 745.05 438.08 745.05 431.418 L 745.05 404.51 C 745.05 397.85 739.649 392.448 732.989 392.448 L 704.376 392.448 C 697.715 392.448 692.315 397.85 692.315 404.51 L 692.315 431.418 Z M 694.777 431.418 L 694.777 404.51 C 694.777 399.17 699.036 394.91 704.376 394.91 L 732.989 394.91 C 738.329 394.91 742.589 399.17 742.589 404.51 L 742.589 431.418 C 742.589 436.758 738.329 441.017 732.989 441.017 L 704.376 441.017 C 699.036 441.017 694.777 436.758 694.777 431.418 Z" id="rect4179-31-1-57" transform="matrix(0.965926, -0.258819, 0.258819, 0.965926, -83.688576, 200.250646)"/>
  <path style="color: rgb(0, 0, 0); font-style: normal; font-variant-ligatures: normal; font-variant-caps: normal; font-weight: normal; font-stretch: normal; font-size: medium; line-height: normal; font-family: sans-serif; text-indent: 0px; text-align: start; text-decoration: none solid rgb(0, 0, 0); letter-spacing: normal; word-spacing: normal; text-transform: none; direction: ltr; writing-mode: lr-tb; baseline-shift: baseline; text-anchor: start; white-space: normal; clip-rule: nonzero; display: inline; overflow: visible; visibility: visible; opacity: 1; isolation: auto; mix-blend-mode: normal; color-interpolation: sRGB; color-interpolation-filters: linearRGB; fill-opacity: 1; fill-rule: nonzero; stroke: none; stroke-width: 3.07403; stroke-linecap: butt; stroke-linejoin: miter; stroke-miterlimit: 4; stroke-dasharray: none; stroke-dashoffset: 0; stroke-opacity: 1; color-rendering: auto; image-rendering: auto; shape-rendering: auto; text-rendering: auto; fill: rgb(30, 30, 30);" d="M 677.592 376.472 C 677.592 383.132 682.992 388.532 689.653 388.532 L 718.266 388.532 C 724.926 388.532 730.327 383.132 730.327 376.472 L 730.327 349.563 C 730.327 342.902 724.926 337.502 718.266 337.502 L 689.653 337.502 C 682.992 337.502 677.592 342.902 677.592 349.563 L 677.592 376.472 Z M 680.054 376.472 L 680.054 349.563 C 680.054 344.223 684.313 339.963 689.653 339.963 L 718.266 339.963 C 723.606 339.963 727.866 344.223 727.866 349.563 L 727.866 376.472 C 727.866 381.811 723.606 386.071 718.266 386.071 L 689.653 386.071 C 684.313 386.071 680.054 381.811 680.054 376.472 Z" id="rect4179-31-1-6" transform="matrix(0.965926, -0.258819, 0.258819, 0.965926, -69.968836, 194.567417)"/>
  <path style="color: rgb(0, 0, 0); font-style: normal; font-variant-ligatures: normal; font-variant-caps: normal; font-weight: normal; font-stretch: normal; font-size: medium; line-height: normal; font-family: sans-serif; text-indent: 0px; text-align: start; text-decoration: none solid rgb(0, 0, 0); letter-spacing: normal; word-spacing: normal; text-transform: none; direction: ltr; writing-mode: lr-tb; baseline-shift: baseline; text-anchor: start; white-space: normal; clip-rule: nonzero; display: inline; overflow: visible; visibility: visible; opacity: 1; isolation: auto; mix-blend-mode: normal; color-interpolation: sRGB; color-interpolation-filters: linearRGB; fill-opacity: 1; fill-rule: nonzero; stroke: none; stroke-width: 3.07403; stroke-linecap: butt; stroke-linejoin: miter; stroke-miterlimit: 4; stroke-dasharray: none; stroke-dashoffset: 0; stroke-opacity: 1; color-rendering: auto; image-rendering: auto; shape-rendering: auto; text-rendering: auto; fill: rgb(30, 30, 30);" d="M 620.088 391.88 C 620.088 398.54 625.489 403.94 632.15 403.94 L 660.762 403.94 C 667.424 403.94 672.824 398.54 672.824 391.88 L 672.824 364.971 C 672.824 358.31 667.424 352.91 660.762 352.91 L 632.15 352.91 C 625.489 352.91 620.088 358.31 620.088 364.971 L 620.088 391.88 Z M 622.55 391.88 L 622.55 364.971 C 622.55 359.631 626.81 355.371 632.15 355.371 L 660.762 355.371 C 666.102 355.371 670.362 359.631 670.362 364.971 L 670.362 391.88 C 670.362 397.219 666.102 401.479 660.762 401.479 L 632.15 401.479 C 626.81 401.479 622.55 397.219 622.55 391.88 Z" id="rect4179-31-1-3" transform="matrix(0.965926, -0.258819, 0.258819, 0.965926, -75.916179, 180.209774)"/>
  <path style="color: rgb(0, 0, 0); font-style: normal; font-variant-ligatures: normal; font-variant-caps: normal; font-weight: normal; font-stretch: normal; font-size: medium; line-height: normal; font-family: sans-serif; text-indent: 0px; text-align: start; text-decoration: none solid rgb(0, 0, 0); letter-spacing: normal; word-spacing: normal; text-transform: none; direction: ltr; writing-mode: lr-tb; baseline-shift: baseline; text-anchor: start; white-space: normal; clip-rule: nonzero; display: inline; overflow: visible; visibility: visible; opacity: 1; isolation: auto; mix-blend-mode: normal; color-interpolation: sRGB; color-interpolation-filters: linearRGB; fill-opacity: 1; fill-rule: nonzero; stroke: none; stroke-width: 3.07403; stroke-linecap: butt; stroke-linejoin: miter; stroke-miterlimit: 4; stroke-dasharray: none; stroke-dashoffset: 0; stroke-opacity: 1; color-rendering: auto; image-rendering: auto; shape-rendering: auto; text-rendering: auto; fill: rgb(30, 30, 30);" d="M 635.045 446.422 C 635.045 453.082 640.446 458.483 647.106 458.483 L 675.719 458.483 C 682.381 458.483 687.78 453.082 687.78 446.422 L 687.78 419.513 C 687.78 412.853 682.381 407.452 675.719 407.452 L 647.106 407.452 C 640.446 407.452 635.045 412.853 635.045 419.513 L 635.045 446.422 Z M 637.507 446.422 L 637.507 419.513 C 637.507 414.174 641.766 409.914 647.106 409.914 L 675.719 409.914 C 681.059 409.914 685.319 414.174 685.319 419.513 L 685.319 446.422 C 685.319 451.762 681.059 456.022 675.719 456.022 L 647.106 456.022 C 641.766 456.022 637.507 451.762 637.507 446.422 Z" id="rect4179-31-1-4" transform="matrix(0.965926, -0.258819, 0.258819, 0.965926, -89.523195, 185.939296)"/>
  <path style="color: rgb(0, 0, 0); font-style: normal; font-variant-ligatures: normal; font-variant-caps: normal; font-weight: normal; font-stretch: normal; font-size: medium; line-height: normal; font-family: sans-serif; text-indent: 0px; text-align: start; text-decoration: none solid rgb(0, 0, 0); letter-spacing: normal; word-spacing: normal; text-transform: none; direction: ltr; writing-mode: lr-tb; baseline-shift: baseline; text-anchor: start; white-space: normal; clip-rule: nonzero; display: inline; overflow: visible; visibility: visible; opacity: 1; isolation: auto; mix-blend-mode: normal; color-interpolation: sRGB; color-interpolation-filters: linearRGB; fill-opacity: 1; fill-rule: nonzero; stroke: none; stroke-width: 3.07403; stroke-linecap: butt; stroke-linejoin: miter; stroke-miterlimit: 4; stroke-dasharray: none; stroke-dashoffset: 0; stroke-opacity: 1; color-rendering: auto; image-rendering: auto; shape-rendering: auto; text-rendering: auto; fill: rgb(30, 30, 30);" d="M 650.309 503.387 C 650.309 510.049 655.71 515.449 662.37 515.449 L 690.983 515.449 C 697.645 515.449 703.044 510.049 703.044 503.387 L 703.044 476.479 C 703.044 469.819 697.645 464.419 690.983 464.419 L 662.37 464.419 C 655.71 464.419 650.309 469.819 650.309 476.479 L 650.309 503.387 Z M 652.771 503.387 L 652.771 476.479 C 652.771 471.139 657.03 466.879 662.37 466.879 L 690.983 466.879 C 696.323 466.879 700.583 471.139 700.583 476.479 L 700.583 503.387 C 700.583 508.727 696.323 512.987 690.983 512.987 L 662.37 512.987 C 657.03 512.987 652.771 508.727 652.771 503.387 Z" id="rect4179-31-1-8" transform="matrix(0.965926, -0.258819, 0.258819, 0.965926, -103.746971, 191.830656)"/>
  <path style="color: rgb(0, 0, 0); font-style: normal; font-variant-ligatures: normal; font-variant-caps: normal; font-weight: normal; font-stretch: normal; font-size: medium; line-height: normal; font-family: sans-serif; text-indent: 0px; text-align: start; text-decoration: none solid rgb(0, 0, 0); letter-spacing: normal; word-spacing: normal; text-transform: none; direction: ltr; writing-mode: lr-tb; baseline-shift: baseline; text-anchor: start; white-space: normal; clip-rule: nonzero; display: inline; overflow: visible; visibility: visible; opacity: 1; isolation: auto; mix-blend-mode: normal; color-interpolation: sRGB; color-interpolation-filters: linearRGB; fill-opacity: 1; fill-rule: nonzero; stroke: none; stroke-width: 3.07403; stroke-linecap: butt; stroke-linejoin: miter; stroke-miterlimit: 4; stroke-dasharray: none; stroke-dashoffset: 0; stroke-opacity: 1; color-rendering: auto; image-rendering: auto; shape-rendering: auto; text-rendering: auto; fill: rgb(30, 30, 30);" d="M 665.113 559.917 C 665.113 566.578 670.514 571.978 677.175 571.978 L 705.787 571.978 C 712.449 571.978 717.849 566.578 717.849 559.917 L 717.849 533.008 C 717.849 526.348 712.449 520.947 705.787 520.947 L 677.175 520.947 C 670.514 520.947 665.113 526.348 665.113 533.008 L 665.113 559.917 Z M 667.575 559.917 L 667.575 533.008 C 667.575 527.669 671.835 523.408 677.175 523.408 L 705.787 523.408 C 711.127 523.408 715.387 527.669 715.387 533.008 L 715.387 559.917 C 715.387 565.257 711.127 569.516 705.787 569.516 L 677.175 569.516 C 671.835 569.516 667.575 565.257 667.575 559.917 Z" id="rect4179-31-1-2" transform="matrix(0.965926, -0.258819, 0.258819, 0.965926, -117.873175, 197.588472)"/>
  <path style="color: rgb(0, 0, 0); font-style: normal; font-variant-ligatures: normal; font-variant-caps: normal; font-weight: normal; font-stretch: normal; font-size: medium; line-height: normal; font-family: sans-serif; text-indent: 0px; text-align: start; text-decoration: none solid rgb(0, 0, 0); letter-spacing: normal; word-spacing: normal; text-transform: none; direction: ltr; writing-mode: lr-tb; baseline-shift: baseline; text-anchor: start; white-space: normal; clip-rule: nonzero; display: inline; overflow: visible; visibility: visible; opacity: 1; isolation: auto; mix-blend-mode: normal; color-interpolation: sRGB; color-interpolation-filters: linearRGB; fill-opacity: 1; fill-rule: nonzero; stroke: none; stroke-width: 3.07403; stroke-linecap: butt; stroke-linejoin: miter; stroke-miterlimit: 4; stroke-dasharray: none; stroke-dashoffset: 0; stroke-opacity: 1; color-rendering: auto; image-rendering: auto; shape-rendering: auto; text-rendering: auto; fill: rgb(30, 30, 30);" d="M 592.401 518.562 C 592.401 525.222 597.801 530.623 604.461 530.623 L 633.076 530.623 C 639.735 530.623 645.135 525.222 645.135 518.562 L 645.135 491.654 C 645.135 484.993 639.735 479.592 633.076 479.592 L 604.461 479.592 C 597.801 479.592 592.401 484.993 592.401 491.654 L 592.401 518.562 Z M 594.863 518.562 L 594.863 491.654 C 594.863 486.314 599.121 482.054 604.461 482.054 L 633.076 482.054 C 638.414 482.054 642.674 486.314 642.674 491.654 L 642.674 518.562 C 642.674 523.902 638.414 528.161 633.076 528.161 L 604.461 528.161 C 599.121 528.161 594.863 523.902 594.863 518.562 Z" id="rect4179-31-1-64" transform="matrix(0.965926, -0.258819, 0.258819, 0.965926, -109.647335, 177.359862)"/>
  <path style="color: rgb(0, 0, 0); font-style: normal; font-variant-ligatures: normal; font-variant-caps: normal; font-weight: normal; font-stretch: normal; font-size: medium; line-height: normal; font-family: sans-serif; text-indent: 0px; text-align: start; text-decoration: none solid rgb(0, 0, 0); letter-spacing: normal; word-spacing: normal; text-transform: none; direction: ltr; writing-mode: lr-tb; baseline-shift: baseline; text-anchor: start; white-space: normal; clip-rule: nonzero; display: inline; overflow: visible; visibility: visible; opacity: 1; isolation: auto; mix-blend-mode: normal; color-interpolation: sRGB; color-interpolation-filters: linearRGB; fill-opacity: 1; fill-rule: nonzero; stroke: none; stroke-width: 3.07403; stroke-linecap: butt; stroke-linejoin: miter; stroke-miterlimit: 4; stroke-dasharray: none; stroke-dashoffset: 0; stroke-opacity: 1; color-rendering: auto; image-rendering: auto; shape-rendering: auto; text-rendering: auto; fill: rgb(30, 30, 30);" d="M 577.223 461.916 C 577.223 468.576 582.623 473.977 589.283 473.977 L 617.898 473.977 C 624.557 473.977 629.957 468.576 629.957 461.916 L 629.957 435.007 C 629.957 428.347 624.557 422.946 617.898 422.946 L 589.283 422.946 C 582.623 422.946 577.223 428.347 577.223 435.007 L 577.223 461.916 Z M 579.685 461.916 L 579.685 435.007 C 579.685 429.668 583.943 425.408 589.283 425.408 L 617.898 425.408 C 623.236 425.408 627.496 429.668 627.496 435.007 L 627.496 461.916 C 627.496 467.256 623.236 471.516 617.898 471.516 L 589.283 471.516 C 583.943 471.516 579.685 467.256 579.685 461.916 Z" id="rect4179-31-1-84" transform="matrix(0.965926, -0.258819, 0.258819, 0.965926, -95.503469, 171.501343)"/>
  <path style="color: rgb(0, 0, 0); font-style: normal; font-variant-ligatures: normal; font-variant-caps: normal; font-weight: normal; font-stretch: normal; font-size: medium; line-height: normal; font-family: sans-serif; text-indent: 0px; text-align: start; text-decoration: none solid rgb(0, 0, 0); letter-spacing: normal; word-spacing: normal; text-transform: none; direction: ltr; writing-mode: lr-tb; baseline-shift: baseline; text-anchor: start; white-space: normal; clip-rule: nonzero; display: inline; overflow: visible; visibility: visible; opacity: 1; isolation: auto; mix-blend-mode: normal; color-interpolation: sRGB; color-interpolation-filters: linearRGB; fill-opacity: 1; fill-rule: nonzero; stroke: none; stroke-width: 3.07403; stroke-linecap: butt; stroke-linejoin: miter; stroke-miterlimit: 4; stroke-dasharray: none; stroke-dashoffset: 0; stroke-opacity: 1; color-rendering: auto; image-rendering: auto; shape-rendering: auto; text-rendering: auto; fill: rgb(30, 30, 30);" d="M 561.946 407.459 C 561.946 414.119 567.347 419.519 574.007 419.519 L 602.62 419.519 C 609.28 419.519 614.682 414.119 614.682 407.459 L 614.682 380.55 C 614.682 373.889 609.28 368.489 602.62 368.489 L 574.007 368.489 C 567.347 368.489 561.946 373.889 561.946 380.55 L 561.946 407.459 Z M 564.408 407.459 L 564.408 380.55 C 564.408 375.21 568.668 370.95 574.007 370.95 L 602.62 370.95 C 607.96 370.95 612.22 375.21 612.22 380.55 L 612.22 407.459 C 612.22 412.798 607.96 417.058 602.62 417.058 L 574.007 417.058 C 568.668 417.058 564.408 412.798 564.408 407.459 Z" id="rect4179-31-1-50" transform="matrix(0.965926, -0.258819, 0.258819, 0.965926, -81.929369, 165.692039)"/>
  <path style="color: rgb(0, 0, 0); font-style: normal; font-variant-ligatures: normal; font-variant-caps: normal; font-weight: normal; font-stretch: normal; font-size: medium; line-height: normal; font-family: sans-serif; text-indent: 0px; text-align: start; text-decoration: none solid rgb(0, 0, 0); letter-spacing: normal; word-spacing: normal; text-transform: none; direction: ltr; writing-mode: lr-tb; baseline-shift: baseline; text-anchor: start; white-space: normal; clip-rule: nonzero; display: inline; overflow: visible; visibility: visible; opacity: 1; isolation: auto; mix-blend-mode: normal; color-interpolation: sRGB; color-interpolation-filters: linearRGB; fill-opacity: 0.866667; fill-rule: nonzero; stroke: none; stroke-width: 1.83086; stroke-linecap: butt; stroke-linejoin: miter; stroke-miterlimit: 4; stroke-dasharray: none; stroke-dashoffset: 0; stroke-opacity: 1; color-rendering: auto; image-rendering: auto; shape-rendering: auto; text-rendering: auto; fill: rgb(30, 30, 30);" d="M 597.49 143.097 C 567.771 143.097 543.652 167.213 543.652 196.932 C 543.652 226.651 567.771 250.771 597.49 250.771 C 627.21 250.771 651.326 226.651 651.326 196.932 C 651.326 167.213 627.21 143.097 597.49 143.097 Z M 597.49 145.546 C 625.886 145.546 648.878 168.538 648.878 196.932 C 648.878 225.328 625.886 248.32 597.49 248.32 C 569.096 248.32 546.104 225.328 546.104 196.932 C 546.104 168.538 569.096 145.546 597.49 145.546 Z" id="path4165" transform="matrix(0.965926, -0.258819, 0.258819, 0.965926, -30.611332, 161.352023)"/>
  <path style="color: rgb(0, 0, 0); font-style: normal; font-variant-ligatures: normal; font-variant-caps: normal; font-weight: normal; font-stretch: normal; font-size: medium; line-height: normal; font-family: sans-serif; text-indent: 0px; text-align: start; text-decoration: none solid rgb(0, 0, 0); letter-spacing: normal; word-spacing: normal; text-transform: none; direction: ltr; writing-mode: lr-tb; baseline-shift: baseline; text-anchor: start; white-space: normal; clip-rule: nonzero; display: inline; overflow: visible; visibility: visible; opacity: 1; isolation: auto; mix-blend-mode: normal; color-interpolation: sRGB; color-interpolation-filters: linearRGB; fill-opacity: 0.866667; fill-rule: nonzero; stroke: none; stroke-width: 1.5556; stroke-linecap: butt; stroke-linejoin: miter; stroke-miterlimit: 4; stroke-dasharray: none; stroke-dashoffset: 0; stroke-opacity: 1; color-rendering: auto; image-rendering: auto; shape-rendering: auto; text-rendering: auto; fill: rgb(30, 30, 30);" d="M 597.847 150.571 C 572.596 150.571 552.104 171.064 552.104 196.315 C 552.104 221.566 572.596 242.058 597.847 242.058 C 623.097 242.058 643.589 221.566 643.589 196.315 C 643.589 171.064 623.097 150.571 597.847 150.571 Z M 597.847 152.652 C 621.972 152.652 641.51 172.19 641.51 196.315 C 641.51 220.441 621.972 239.976 597.847 239.976 C 573.721 239.976 554.186 220.441 554.186 196.315 C 554.186 172.19 573.721 152.652 597.847 152.652 Z" id="path4165-7" transform="matrix(0.965926, -0.258819, 0.258819, 0.965926, -30.438806, 161.423284)"/>
  <path style="color: rgb(0, 0, 0); font-style: normal; font-variant-ligatures: normal; font-variant-caps: normal; font-weight: normal; font-stretch: normal; font-size: medium; line-height: normal; font-family: sans-serif; text-indent: 0px; text-align: start; text-decoration: none solid rgb(0, 0, 0); letter-spacing: normal; word-spacing: normal; text-transform: none; direction: ltr; writing-mode: lr-tb; baseline-shift: baseline; text-anchor: start; white-space: normal; clip-rule: nonzero; display: inline; overflow: visible; visibility: visible; opacity: 1; isolation: auto; mix-blend-mode: normal; color-interpolation: sRGB; color-interpolation-filters: linearRGB; fill-opacity: 0.866667; fill-rule: evenodd; stroke: none; stroke-width: 1.5; stroke-linecap: butt; stroke-linejoin: miter; stroke-miterlimit: 4; stroke-dasharray: none; stroke-dashoffset: 0; stroke-opacity: 1; color-rendering: auto; image-rendering: auto; shape-rendering: auto; text-rendering: auto; fill: rgb(30, 30, 30);" d="M 572.964 254.335 L 572.964 256.342 L 734.984 256.342 L 734.984 316.49 L 747.146 316.49 L 747.695 466.434 L 747.144 511.194 L 747.144 580.281 L 749.15 580.281 L 749.15 511.208 L 749.702 466.444 L 749.145 314.483 L 736.991 314.483 L 736.991 254.335 L 572.964 254.335 Z" id="path4184" transform="matrix(0.965926, -0.258819, 0.258819, 0.965926, -85.472918, 185.38514)"/>
</svg>