<?xml version="1.0" encoding="utf-8"?>
<svg viewBox="0 0 200 40" xmlns="http://www.w3.org/2000/svg">
  <path d="M 60.959 29.995 C 60.959 29.991 61.012 29.67 61.076 29.281 C 61.141 28.895 61.233 28.333 61.281 28.036 L 61.368 27.496 L 64.966 23.835 L 68.561 20.174 L 66.889 18.472 L 65.217 16.771 L 64.85 17.143 L 64.484 17.513 L 64.107 17.642 C 63.902 17.713 63.356 17.899 62.897 18.06 C 61.998 18.369 61.882 18.409 61.867 18.409 C 61.863 18.409 62.522 17.733 63.334 16.906 L 64.812 15.404 L 64.313 14.897 C 64.038 14.616 63.807 14.39 63.8 14.396 C 63.793 14.4 63.789 14.396 63.79 14.383 C 63.794 14.371 63.786 14.364 63.775 14.367 C 63.765 14.369 63.758 14.36 63.76 14.351 C 63.762 14.34 63.754 14.333 63.744 14.335 C 63.735 14.337 63.727 14.329 63.728 14.319 C 63.731 14.308 63.724 14.3 63.713 14.304 C 63.703 14.305 63.695 14.298 63.697 14.288 C 63.7 14.277 63.692 14.268 63.681 14.271 C 63.671 14.274 63.665 14.266 63.666 14.256 C 63.669 14.245 63.661 14.237 63.65 14.24 C 63.641 14.242 63.633 14.233 63.635 14.223 C 63.637 14.212 63.63 14.206 63.619 14.208 C 63.61 14.209 63.601 14.202 63.603 14.192 C 63.607 14.181 63.599 14.173 63.587 14.177 C 63.578 14.178 63.571 14.17 63.572 14.16 C 63.575 14.15 63.567 14.141 63.556 14.144 C 63.547 14.147 63.539 14.138 63.541 14.129 C 63.544 14.118 63.536 14.11 63.526 14.113 C 63.516 14.114 63.508 14.107 63.509 14.097 C 63.513 14.086 63.505 14.078 63.494 14.081 C 63.484 14.082 63.477 14.074 63.479 14.064 C 63.482 14.054 63.473 14.045 63.462 14.049 C 63.454 14.051 63.446 14.042 63.447 14.033 C 63.45 14.022 63.443 14.014 63.432 14.018 C 63.422 14.019 63.414 14.011 63.415 14.002 C 63.419 13.99 63.411 13.983 63.4 13.985 C 63.39 13.986 63.383 13.98 63.385 13.97 C 63.387 13.959 63.38 13.951 63.368 13.953 C 63.36 13.955 63.352 13.948 63.353 13.938 C 63.356 13.926 63.349 13.919 63.338 13.922 C 63.328 13.923 63.32 13.915 63.322 13.906 C 63.326 13.895 63.317 13.887 63.306 13.891 C 63.297 13.892 63.29 13.884 63.291 13.874 C 63.294 13.863 63.286 13.855 63.275 13.859 C 63.265 13.86 63.258 13.852 63.259 13.842 C 63.262 13.832 63.255 13.823 63.244 13.826 C 63.235 13.828 63.226 13.82 63.228 13.811 C 63.232 13.8 63.223 13.792 63.213 13.795 C 63.203 13.796 63.196 13.788 63.197 13.78 C 63.2 13.767 63.192 13.76 63.181 13.763 C 63.171 13.764 63.164 13.757 63.165 13.747 C 63.168 13.736 63.162 13.727 63.15 13.731 C 63.141 13.733 63.133 13.725 63.134 13.715 C 63.138 13.704 63.13 13.696 63.119 13.699 C 63.11 13.702 63.101 13.693 63.104 13.684 C 63.107 13.672 63.098 13.665 63.087 13.668 C 63.079 13.669 63.071 13.662 63.072 13.652 C 63.075 13.64 63.068 13.633 63.057 13.636 C 63.047 13.637 63.039 13.629 63.04 13.619 C 63.044 13.609 63.036 13.6 63.025 13.604 C 63.016 13.606 63.007 13.597 63.01 13.588 C 63.013 13.577 63.004 13.569 62.993 13.573 C 62.984 13.574 62.977 13.566 62.978 13.557 C 62.981 13.545 62.974 13.537 62.963 13.54 C 62.953 13.541 62.945 13.534 62.946 13.524 C 62.949 13.514 62.942 13.505 62.931 13.508 C 62.922 13.51 62.913 13.503 62.916 13.492 C 62.919 13.481 62.91 13.474 62.9 13.477 C 62.89 13.478 62.883 13.47 62.884 13.461 C 62.887 13.449 62.879 13.441 62.869 13.445 C 62.859 13.447 62.851 13.439 62.853 13.429 C 62.857 13.418 62.849 13.41 62.838 13.412 C 62.828 13.415 62.82 13.407 62.822 13.397 C 62.825 13.386 62.817 13.378 62.806 13.381 C 62.797 13.382 62.789 13.376 62.791 13.366 C 62.794 13.355 62.785 13.347 62.775 13.35 C 62.766 13.351 62.758 13.343 62.759 13.333 C 62.762 13.322 62.755 13.314 62.744 13.318 C 62.734 13.32 62.726 13.311 62.729 13.301 C 62.731 13.291 62.723 13.283 62.712 13.286 C 62.703 13.288 62.696 13.28 62.697 13.27 C 62.7 13.259 62.691 13.251 62.678 13.254 C 62.665 13.258 62.661 13.254 62.667 13.248 C 62.674 13.24 62.49 13.043 62.261 12.809 L 61.842 12.383 L 61.732 12.383 C 61.557 12.383 61.292 12.295 61.144 12.191 C 61.092 12.152 61.073 12.152 61.101 12.189 C 61.121 12.213 61.12 12.214 61.097 12.194 C 61.081 12.182 61.072 12.166 61.076 12.16 C 61.087 12.143 61.042 12.107 61.025 12.12 C 61.017 12.124 60.998 12.114 60.982 12.096 C 60.967 12.079 60.96 12.065 60.967 12.065 C 60.972 12.065 60.967 12.051 60.952 12.033 C 60.935 12.015 60.918 12.005 60.912 12.009 C 60.906 12.012 60.884 11.998 60.863 11.974 C 60.843 11.953 60.836 11.937 60.848 11.946 C 60.862 11.954 60.866 11.95 60.862 11.936 C 60.858 11.923 60.847 11.916 60.838 11.917 C 60.829 11.918 60.811 11.909 60.799 11.894 C 60.762 11.854 60.647 11.631 60.647 11.604 C 60.647 11.591 60.665 11.62 60.687 11.667 C 60.737 11.776 60.82 11.91 60.831 11.898 C 60.836 11.895 60.828 11.877 60.814 11.863 C 60.77 11.811 60.679 11.608 60.644 11.483 C 60.617 11.38 60.614 11.328 60.618 11.153 C 60.624 10.978 60.631 10.923 60.668 10.817 C 60.724 10.646 60.815 10.497 60.941 10.358 C 60.998 10.295 61.03 10.256 61.014 10.268 C 60.99 10.286 60.992 10.279 61.021 10.247 C 61.059 10.204 61.087 10.187 61.053 10.228 C 61.04 10.243 61.039 10.253 61.05 10.253 C 61.066 10.253 61.092 10.221 61.092 10.198 C 61.092 10.19 61.109 10.175 61.131 10.16 L 61.17 10.138 L 61.131 10.171 C 61.073 10.219 61.101 10.213 61.205 10.15 C 61.373 10.049 61.518 10.009 61.749 10.001 C 61.918 9.997 61.972 10.001 62.074 10.028 C 62.194 10.061 62.348 10.131 62.431 10.19 C 62.483 10.228 62.501 10.228 62.474 10.191 C 62.453 10.168 62.455 10.166 62.478 10.187 C 62.493 10.198 62.503 10.214 62.498 10.22 C 62.487 10.238 62.533 10.273 62.549 10.262 C 62.558 10.257 62.578 10.268 62.594 10.289 L 62.624 10.324 L 62.584 10.293 L 62.545 10.26 L 62.583 10.303 C 62.603 10.327 62.626 10.343 62.635 10.338 C 62.642 10.333 62.645 10.338 62.643 10.351 C 62.64 10.362 62.647 10.369 62.656 10.368 C 62.665 10.367 62.691 10.384 62.711 10.408 C 62.746 10.447 62.746 10.45 62.714 10.421 C 62.694 10.404 62.678 10.397 62.678 10.406 C 62.678 10.427 62.733 10.478 62.744 10.467 C 62.748 10.462 62.761 10.472 62.773 10.486 C 62.794 10.512 62.792 10.513 62.767 10.493 C 62.733 10.464 62.733 10.483 62.77 10.535 C 62.874 10.684 62.959 10.962 62.959 11.146 L 62.959 11.246 L 64.444 12.756 L 65.928 14.267 L 67.405 12.765 C 68.218 11.937 68.882 11.267 68.882 11.272 C 68.882 11.277 68.826 11.453 68.756 11.661 C 68.687 11.87 68.616 12.081 68.601 12.128 C 68.369 12.832 68.005 13.914 67.993 13.936 C 67.985 13.952 67.949 13.993 67.914 14.027 C 67.88 14.062 67.855 14.096 67.859 14.103 C 67.865 14.111 67.859 14.114 67.847 14.113 C 67.836 14.11 67.829 14.118 67.832 14.129 C 67.833 14.138 67.825 14.147 67.817 14.144 C 67.805 14.141 67.797 14.15 67.8 14.16 C 67.802 14.17 67.795 14.178 67.785 14.177 C 67.774 14.173 67.766 14.181 67.77 14.192 C 67.771 14.202 67.763 14.209 67.753 14.208 C 67.743 14.206 67.735 14.212 67.738 14.223 C 67.74 14.233 67.732 14.242 67.723 14.24 C 67.712 14.237 67.704 14.245 67.707 14.256 C 67.708 14.266 67.701 14.274 67.692 14.271 C 67.68 14.268 67.672 14.277 67.676 14.288 C 67.678 14.298 67.669 14.305 67.66 14.304 C 67.649 14.3 67.642 14.308 67.644 14.319 C 67.646 14.329 67.638 14.337 67.629 14.335 C 67.618 14.333 67.61 14.34 67.613 14.351 C 67.614 14.36 67.607 14.369 67.597 14.367 C 67.587 14.364 67.578 14.371 67.582 14.383 C 67.584 14.393 67.575 14.4 67.566 14.399 C 67.555 14.396 67.548 14.404 67.551 14.415 C 67.552 14.425 67.544 14.433 67.535 14.43 C 67.524 14.427 67.516 14.436 67.519 14.446 C 67.52 14.456 67.514 14.464 67.504 14.463 C 67.493 14.459 67.485 14.467 67.487 14.478 C 67.49 14.488 67.482 14.496 67.472 14.494 C 67.461 14.492 67.454 14.499 67.457 14.511 C 67.459 14.519 67.45 14.527 67.442 14.526 C 67.43 14.523 67.423 14.531 67.425 14.542 C 67.427 14.552 67.42 14.559 67.41 14.557 C 67.399 14.555 67.391 14.563 67.395 14.574 C 67.396 14.583 67.388 14.592 67.379 14.59 C 67.368 14.586 67.36 14.594 67.363 14.606 C 67.365 14.615 67.357 14.623 67.348 14.622 C 67.337 14.618 67.329 14.626 67.332 14.637 C 67.333 14.65 67.329 14.655 67.321 14.65 C 67.314 14.645 67.299 14.65 67.292 14.662 C 67.278 14.677 67.665 15.079 68.945 16.382 L 70.616 18.083 L 72.289 16.382 C 73.209 15.446 73.961 14.675 73.961 14.67 C 73.961 14.662 73.952 14.656 73.944 14.656 C 73.936 14.656 73.93 14.663 73.936 14.67 C 73.94 14.677 73.197 15.442 72.284 16.371 L 70.625 18.06 L 68.96 16.363 L 67.296 14.665 L 68.96 16.354 L 70.625 18.043 L 72.278 16.361 L 73.929 14.681 L 73.567 14.308 C 73.367 14.104 73.212 13.943 73.223 13.948 C 73.233 13.953 73.243 13.955 73.243 13.952 C 73.243 13.949 73.194 13.807 73.139 13.637 C 73.083 13.467 72.902 12.932 72.742 12.447 C 72.581 11.962 72.427 11.496 72.398 11.415 C 72.361 11.302 72.354 11.262 72.367 11.247 C 72.381 11.235 72.384 11.236 72.38 11.254 C 72.377 11.267 72.382 11.276 72.392 11.274 C 72.399 11.273 73.061 11.939 73.86 12.754 L 75.313 14.236 L 73.852 12.756 L 72.391 11.277 L 73.852 12.769 L 75.313 14.259 L 76.792 12.754 L 78.274 11.246 L 78.274 11.143 C 78.274 10.968 78.365 10.677 78.46 10.54 C 78.496 10.49 78.502 10.467 78.474 10.484 C 78.463 10.493 78.462 10.49 78.467 10.476 C 78.476 10.465 78.485 10.461 78.489 10.465 C 78.5 10.478 78.555 10.427 78.555 10.406 C 78.555 10.397 78.539 10.404 78.521 10.421 C 78.5 10.437 78.51 10.424 78.537 10.391 C 78.597 10.327 78.626 10.309 78.577 10.368 C 78.561 10.387 78.573 10.378 78.607 10.349 C 78.667 10.293 78.685 10.265 78.638 10.302 C 78.623 10.313 78.63 10.299 78.655 10.272 C 78.682 10.243 78.705 10.22 78.708 10.22 C 78.713 10.22 78.704 10.235 78.688 10.253 C 78.672 10.269 78.665 10.284 78.675 10.284 C 78.696 10.284 78.746 10.228 78.734 10.217 C 78.73 10.213 78.74 10.2 78.753 10.187 C 78.779 10.166 78.78 10.168 78.759 10.194 C 78.732 10.228 78.751 10.228 78.802 10.19 C 78.885 10.131 79.039 10.061 79.159 10.028 C 79.261 10.001 79.315 9.997 79.484 10.001 C 79.714 10.009 79.859 10.049 80.029 10.15 C 80.132 10.213 80.146 10.216 80.116 10.178 C 80.096 10.152 80.098 10.15 80.123 10.171 C 80.136 10.184 80.146 10.197 80.141 10.201 C 80.131 10.213 80.164 10.253 80.184 10.253 C 80.193 10.253 80.19 10.239 80.179 10.224 C 80.168 10.209 80.178 10.214 80.201 10.235 C 80.248 10.277 80.258 10.299 80.216 10.267 C 80.201 10.254 80.235 10.295 80.293 10.358 C 80.418 10.497 80.509 10.646 80.565 10.817 C 80.602 10.923 80.609 10.978 80.615 11.153 C 80.619 11.328 80.616 11.38 80.588 11.483 C 80.554 11.608 80.463 11.811 80.42 11.863 C 80.405 11.877 80.397 11.895 80.402 11.898 C 80.414 11.91 80.496 11.776 80.546 11.667 C 80.568 11.62 80.587 11.591 80.587 11.604 C 80.587 11.631 80.471 11.854 80.436 11.894 C 80.422 11.909 80.404 11.918 80.396 11.917 C 80.386 11.916 80.375 11.923 80.371 11.936 C 80.366 11.95 80.371 11.954 80.385 11.946 C 80.397 11.937 80.39 11.953 80.369 11.974 C 80.349 11.998 80.327 12.012 80.321 12.009 C 80.314 12.005 80.298 12.015 80.281 12.033 C 80.266 12.051 80.26 12.065 80.266 12.065 C 80.273 12.065 80.266 12.079 80.251 12.096 C 80.235 12.114 80.216 12.124 80.208 12.12 C 80.191 12.107 80.146 12.143 80.157 12.16 C 80.164 12.172 80.121 12.21 80.059 12.246 C 80.014 12.273 80.044 12.24 80.096 12.207 C 80.126 12.189 80.148 12.168 80.143 12.165 C 80.138 12.16 80.116 12.172 80.091 12.189 C 79.941 12.295 79.675 12.383 79.494 12.383 L 79.391 12.383 L 77.91 13.891 L 76.43 15.396 L 77.886 16.875 L 79.344 18.353 L 77.899 16.875 L 76.453 15.396 L 77.912 16.875 C 78.711 17.687 79.368 18.355 79.368 18.358 C 79.368 18.361 79.362 18.358 79.352 18.353 C 79.344 18.349 79.337 18.352 79.337 18.359 C 79.337 18.376 79.359 18.383 79.388 18.379 C 79.395 18.377 79.392 18.391 79.384 18.409 C 79.363 18.447 79.345 18.447 79.282 18.415 C 79.257 18.402 79.247 18.396 79.263 18.401 C 79.337 18.421 79.375 18.428 79.366 18.418 C 79.362 18.414 79.17 18.346 78.944 18.268 C 78.304 18.046 76.883 17.557 76.805 17.528 C 76.722 17.5 76.701 17.507 76.776 17.541 C 76.812 17.558 76.815 17.562 76.789 17.557 C 76.766 17.55 76.601 17.394 76.386 17.18 L 76.023 16.811 L 74.37 18.494 L 72.719 20.174 L 76.309 23.827 C 78.283 25.836 79.899 27.483 79.899 27.488 C 79.899 27.492 78.28 25.848 76.302 23.835 L 72.702 20.174 L 74.359 18.488 C 75.364 17.467 76.023 16.806 76.035 16.811 C 76.048 16.816 76.054 16.811 76.052 16.8 C 76.048 16.79 76.039 16.779 76.03 16.776 C 76.022 16.772 75.262 17.536 74.344 18.472 L 72.672 20.174 L 76.269 23.835 L 79.866 27.496 L 79.921 27.822 C 79.95 28.001 80.043 28.559 80.126 29.062 C 80.208 29.564 80.28 29.979 80.285 29.985 C 80.29 29.989 80.29 29.949 80.285 29.897 L 80.275 29.801 L 80.293 29.877 C 80.316 29.991 80.305 30.007 80.207 29.995 C 80.163 29.989 79.605 29.896 78.97 29.788 L 77.816 29.59 L 75.538 27.272 C 74.285 25.996 73.256 24.957 73.251 24.961 C 73.247 24.966 74.272 26.015 75.528 27.294 C 76.784 28.572 77.81 29.618 77.805 29.618 C 77.8 29.618 76.181 27.974 74.208 25.966 L 70.616 22.312 L 67.024 25.968 C 64.733 28.299 63.425 29.62 63.411 29.614 C 63.393 29.607 63.393 29.604 63.413 29.604 C 63.425 29.603 65.052 27.958 67.025 25.95 L 70.616 22.296 L 70.773 22.456 C 70.859 22.542 70.929 22.61 70.929 22.605 C 70.929 22.6 70.858 22.523 70.77 22.434 L 70.611 22.271 L 67.014 25.928 L 63.421 29.585 L 62.858 29.68 C 62.548 29.733 62.022 29.823 61.685 29.881 C 60.96 30.007 60.959 30.007 60.959 29.995 Z M 72.094 23.776 C 71.462 23.132 70.94 22.607 70.934 22.607 C 70.925 22.607 71.442 23.135 72.078 23.783 C 72.712 24.428 73.236 24.956 73.239 24.952 C 73.243 24.949 72.728 24.42 72.094 23.776 Z M 76.726 17.494 C 76.726 17.482 76.071 16.819 76.059 16.819 C 76.053 16.819 76.198 16.973 76.383 17.161 C 76.568 17.349 76.721 17.502 76.722 17.502 C 76.725 17.502 76.726 17.5 76.726 17.494 Z M 73.595 14.3 C 73.409 14.111 73.252 13.956 73.247 13.956 C 73.24 13.956 73.389 14.114 73.578 14.307 C 73.765 14.497 73.924 14.653 73.927 14.648 C 73.929 14.645 73.782 14.488 73.595 14.3 Z M 61.022 12.106 C 61.022 12.103 61.009 12.091 60.995 12.079 C 60.97 12.058 60.968 12.061 60.989 12.085 C 61.009 12.111 61.022 12.12 61.022 12.106 Z M 80.244 12.085 C 80.265 12.061 80.263 12.058 80.24 12.079 C 80.223 12.091 80.211 12.103 80.211 12.106 C 80.211 12.12 80.223 12.111 80.244 12.085 Z M 60.912 11.995 C 60.912 11.992 60.899 11.979 60.886 11.968 C 60.861 11.947 60.86 11.949 60.879 11.974 C 60.899 11.999 60.912 12.008 60.912 11.995 Z M 80.354 11.974 C 80.374 11.949 80.372 11.947 80.349 11.968 C 80.333 11.979 80.321 11.992 80.321 11.995 C 80.321 12.008 80.333 11.999 80.354 11.974 Z" style="fill: rgb(204, 204, 204);"/>
  <path d="M 100.747 22.96 L 102.727 29.2 L 96.457 29.2 L 95.077 23.62 L 93.847 23.62 L 92.887 29.2 L 87.187 29.2 L 90.487 10.45 L 99.487 10.45 L 99.487 10.45 C 102.907 10.45 104.617 11.98 104.617 15.04 L 104.617 15.04 L 104.617 15.04 C 104.617 16.3 104.427 17.5 104.047 18.64 L 104.047 18.64 L 104.047 18.64 C 103.347 20.8 102.247 22.24 100.747 22.96 L 100.747 22.96 Z M 96.457 15.25 L 95.317 15.25 L 94.657 19 L 95.977 19 L 95.977 19 C 96.657 19 97.17 18.927 97.517 18.78 L 97.517 18.78 L 97.517 18.78 C 97.87 18.627 98.11 18.197 98.237 17.49 L 98.237 17.49 L 98.237 17.49 C 98.37 16.777 98.437 16.34 98.437 16.18 L 98.437 16.18 L 98.437 16.18 C 98.437 15.78 98.284 15.523 97.977 15.41 L 97.977 15.41 L 97.977 15.41 C 97.664 15.303 97.157 15.25 96.457 15.25 L 96.457 15.25 Z M 115.355 24.67 L 115.355 24.67 L 111.635 24.67 L 110.855 29.2 L 105.155 29.2 L 108.455 10.45 L 117.455 10.45 L 117.455 10.45 C 120.855 10.45 122.555 12.03 122.555 15.19 L 122.555 15.19 L 122.555 15.19 C 122.555 16.69 122.345 18.043 121.925 19.25 L 121.925 19.25 L 121.925 19.25 C 121.505 20.463 121.042 21.427 120.535 22.14 L 120.535 22.14 L 120.535 22.14 C 120.022 22.847 119.318 23.447 118.425 23.94 L 118.425 23.94 L 118.425 23.94 C 117.538 24.427 116.515 24.67 115.355 24.67 Z M 114.605 15.25 L 113.285 15.25 L 112.475 19.87 L 113.795 19.87 L 113.795 19.87 C 114.475 19.87 114.988 19.797 115.335 19.65 L 115.335 19.65 L 115.335 19.65 C 115.688 19.497 115.915 19.15 116.015 18.61 L 116.015 18.61 L 116.015 18.61 C 116.275 17.13 116.405 16.32 116.405 16.18 L 116.405 16.18 L 116.405 16.18 C 116.405 15.8 116.255 15.55 115.955 15.43 L 115.955 15.43 L 115.955 15.43 C 115.655 15.31 115.205 15.25 114.605 15.25 L 114.605 15.25 Z M 132.543 23.68 L 132.543 23.68 L 132.693 22.87 L 131.253 22.87 L 132.063 18.28 L 138.933 18.28 L 137.163 28.3 L 137.163 28.3 C 134.723 29.2 132.273 29.65 129.813 29.65 L 129.813 29.65 L 129.813 29.65 C 127.353 29.65 125.577 29.16 124.483 28.18 L 124.483 28.18 L 124.483 28.18 C 123.397 27.2 122.853 25.69 122.853 23.65 L 122.853 23.65 L 122.853 23.65 C 122.853 22.79 122.993 21.52 123.273 19.84 L 123.273 19.84 L 123.273 19.84 C 123.873 16.36 124.933 13.85 126.453 12.31 L 126.453 12.31 L 126.453 12.31 C 127.973 10.77 130.493 10 134.013 10 L 134.013 10 L 134.013 10 C 134.753 10 135.697 10.08 136.843 10.24 L 136.843 10.24 L 136.843 10.24 C 137.997 10.4 138.843 10.58 139.383 10.78 L 139.383 10.78 L 137.733 15.37 L 137.733 15.37 C 136.233 15.09 134.857 14.95 133.603 14.95 L 133.603 14.95 L 133.603 14.95 C 132.357 14.95 131.463 15.05 130.923 15.25 L 130.923 15.25 L 130.923 15.25 C 130.383 15.45 130.063 15.85 129.963 16.45 L 129.963 16.45 L 128.493 24.94 L 130.383 24.94 L 130.383 24.94 C 131.063 24.94 131.567 24.867 131.893 24.72 L 131.893 24.72 L 131.893 24.72 C 132.227 24.567 132.443 24.22 132.543 23.68 Z" style="white-space: pre; fill: rgb(255, 255, 255);"/>
</svg>