<?xml version="1.0" encoding="utf-8"?>
<svg version="1.1" width="300" height="100" xmlns="http://www.w3.org/2000/svg">
  <path d="m 6.866,92.690999 37.477,-0.038 c 15.333,0 27.759,-12.388 27.759,-27.652 0,-15.294 -12.426,-27.683 -27.759,-27.683 l -9.733,0.053 c -0.767,0 -1.389,-0.629 -1.389,-1.403 0,-0.774 0.622,-1.404 1.389,-1.404 l 37.409,0.008 0.015,-11.736 H 34.602 c -7.237,0 -13.125,5.879 -13.125,13.102 0,7.23 5.887,13.086 13.125,13.086 l 9.779,0.129 c 8.785,0 15.894,7.085 15.894,15.826 0,8.747 -7.108,15.848 -15.894,15.848 h -37.5 l -0.015,11.864" style="fill: rgb(255, 255, 255);"/>
  <path d="m 6.881,78.071999 h 37.5 c 7.26,0 13.132,-5.856 13.132,-13.094 0,-7.23 -5.872,-13.079 -13.132,-13.079 l -9.779,-0.106 c -8.77,0 -15.886,-7.093 -15.886,-15.856 0,-8.739 7.116,-15.833 15.886,-15.833 l 37.432,-0.008 L 72.019,8.3149988 H 34.61 c -15.317,0 -27.759,12.3740002 -27.759,27.6530002 0,15.279 12.442,27.66 27.759,27.66 l 9.68,0.015 c 0.736,0 1.358,0.6 1.358,1.358 0,0.744 -0.622,1.343 -1.358,1.343 l -37.424,0.03 0.015,11.698" style="fill: rgb(255, 255, 255);"/>
  <path d="m 101.158,80.901999 c -6.502,0 -11.828,-5.182 -11.828,-11.798 v -37.438 c 0,-6.365 5.326,-11.6 11.828,-11.6 l 40.003,0.007 V 8.3149988 h -40.003 c -13.018,0 -23.563,10.5070002 -23.563,23.4800002 v 37.31 c 0,12.974 10.545,23.496 23.563,23.496 l 39.836,0.016 -0.008,-11.729 -39.828,0.014" style="fill: rgb(255, 255, 255);"/>
  <path d="m 92.198,31.794999 c 0,-4.961 3.991,-8.982 8.96,-8.982 h 40.003 v 11.774 h -34.465 c -2.761,0 -2.799,2.739 -2.799,2.739 h 28.753 v 11.721 H 92.184 l 0.014,-17.252" style="fill: rgb(255, 255, 255);"/>
  <path d="m 101.158,78.049999 c -4.954,0 -8.975,-3.998 -8.975,-8.945 v -17.267 h 40.466 v 11.745 h -28.753 c 0.038,2.761 2.799,2.775 2.799,2.775 h 34.298 l -0.008,11.676 -39.827,0.016" style="fill: rgb(255, 255, 255);"/>
  <path d="m 169.194,80.871999 c -6.479,0 -11.774,-5.28 -11.774,-11.768 v -37.31 c 0,-6.494 5.257,-11.729 11.743,-11.729 h 38.745 V 8.3149988 h -38.835 c -13.012,0 -23.557,10.5070002 -23.557,23.4800002 v 37.31 c 0,12.974 10.636,23.496 23.647,23.496 l 38.745,0.016 v -55.291 h -33.297 v 11.721 h 21.53 v 31.825 h -26.947" style="fill: rgb(255, 255, 255);"/>
  <path d="m 160.181,69.103999 c 0,4.971 4.021,9.014 8.982,9.014 h 24.201 v -26.295 H 174.64 v 11.76 h 6.949 l 0.022,2.761 h -6.918 c -1.51,0 -2.746,-1.251 -2.746,-2.761 l -0.062,-26.265 c 0,0 -0.008,-2.731 2.777,-2.799 h 33.259 l -0.015,-11.714 -38.745,0.008 c -4.961,0 -8.982,4.021 -8.982,8.982 v 37.309" style="fill: rgb(255, 255, 255);"/>
  <path d="m 244.315,22.637999 c 0.522,-1.494 1.941,-2.571 3.618,-2.571 1.678,0 3.111,1.077 3.619,2.571 l 18.808,55.563 h -27.54 l 0.03,-13.071 h 9.203 l -4.143,-12.313 -13.496,39.79 h -13.883 l 23.784,-69.969" style="fill: rgb(255, 255, 255);"/>
  <path d="m 274.152,80.871999 h -31.286 v 11.735 h 47.612 l -24.762,-73.262 c -2.17,-7.146 -9.323,-12.4030002 -17.791,-12.4030002 -8.481,0 -15.612,5.2340002 -17.798,12.3740002 l -24.989,73.292 h 12.465 l 24.262,-71.244 c 0.985,-2.359 3.308,-4.021 6.039,-4.021 2.716,0 5.052,1.662 6.046,4.006 l 20.202,59.523" style="fill: rgb(255, 255, 255);"/>
</svg>