<?xml version="1.0" encoding="utf-8"?>
<svg version="1.1" width="300" height="100" xmlns="http://www.w3.org/2000/svg">
  <path d="M 0.011 60.466 L 26.438 60.439 C 37.25 60.439 46.012 51.704 46.012 40.94 C 46.012 30.156 37.25 21.42 26.438 21.42 L 19.574 21.457 C 19.033 21.457 18.595 21.014 18.595 20.468 C 18.595 19.922 19.033 19.478 19.574 19.478 L 45.953 19.483 L 45.964 11.208 L 19.569 11.208 C 14.465 11.208 10.314 15.353 10.314 20.447 C 10.314 25.545 14.465 29.674 19.569 29.674 L 26.464 29.765 C 32.659 29.765 37.672 34.761 37.672 40.925 C 37.672 47.093 32.66 52.1 26.464 52.1 L 0.021 52.1 L 0.011 60.466" style="fill: rgb(255, 255, 255);"/>
  <path d="M 0.021 50.157 L 26.464 50.157 C 31.584 50.157 35.724 46.028 35.724 40.924 C 35.724 35.826 31.584 31.701 26.464 31.701 L 19.569 31.627 C 13.384 31.627 8.367 26.625 8.367 20.446 C 8.367 14.284 13.384 9.281 19.569 9.281 L 45.964 9.276 L 45.953 0.968 L 19.574 0.968 C 8.773 0.968 0 9.694 0 20.468 C 0 31.242 8.773 39.972 19.574 39.972 L 26.4 39.983 C 26.919 39.983 27.358 40.406 27.358 40.94 C 27.358 41.465 26.919 41.887 26.4 41.887 L 0.011 41.909 L 0.021 50.157" style="fill: rgb(255, 255, 255);"/>
  <path d="M 66.501 52.153 C 61.916 52.153 58.16 48.499 58.16 43.834 L 58.16 17.434 C 58.16 12.946 61.916 9.254 66.501 9.254 L 94.709 9.259 L 94.709 0.968 L 66.501 0.968 C 57.321 0.968 49.885 8.377 49.885 17.525 L 49.885 43.834 C 49.885 52.983 57.321 60.403 66.501 60.403 L 94.591 60.414 L 94.586 52.143 L 66.501 52.153" style="fill: rgb(255, 255, 255);"/>
  <path d="M 60.183 17.525 C 60.183 14.027 62.997 11.191 66.501 11.191 L 94.709 11.191 L 94.709 19.494 L 70.406 19.494 C 68.459 19.494 68.432 21.425 68.432 21.425 L 88.707 21.425 L 88.707 29.69 L 60.173 29.69 L 60.183 17.525" style="fill: rgb(255, 255, 255);"/>
  <path d="M 66.501 50.142 C 63.007 50.142 60.172 47.323 60.172 43.834 L 60.172 31.658 L 88.707 31.658 L 88.707 39.94 L 68.431 39.94 C 68.458 41.887 70.405 41.897 70.405 41.897 L 94.59 41.897 L 94.585 50.131 L 66.501 50.142" style="fill: rgb(255, 255, 255);"/>
  <path d="M 114.476 52.132 C 109.908 52.132 106.174 48.409 106.174 43.834 L 106.174 17.524 C 106.174 12.945 109.881 9.254 114.455 9.254 L 141.776 9.254 L 141.776 0.968 L 114.391 0.968 C 105.216 0.968 97.78 8.377 97.78 17.525 L 97.78 43.834 C 97.78 52.983 105.28 60.403 114.455 60.403 L 141.776 60.414 L 141.776 21.425 L 118.296 21.425 L 118.296 29.69 L 133.478 29.69 L 133.478 52.132 L 114.476 52.132" style="fill: rgb(255, 255, 255);"/>
  <path d="M 108.121 43.834 C 108.121 47.339 110.956 50.19 114.455 50.19 L 131.52 50.19 L 131.52 31.648 L 118.317 31.648 L 118.317 39.94 L 123.217 39.94 L 123.232 41.887 L 118.354 41.887 C 117.289 41.887 116.418 41.005 116.418 39.94 L 116.374 21.42 C 116.374 21.42 116.368 19.494 118.332 19.446 L 141.785 19.446 L 141.774 11.186 L 114.453 11.191 C 110.955 11.191 108.119 14.027 108.119 17.525 L 108.119 43.834" style="fill: rgb(255, 255, 255);"/>
  <path d="M 167.448 11.068 C 167.816 10.015 168.817 9.255 169.999 9.255 C 171.183 9.255 172.193 10.015 172.551 11.068 L 185.814 50.248 L 166.394 50.248 L 166.415 41.031 L 172.905 41.031 L 169.983 32.349 L 160.466 60.407 L 150.677 60.407 L 167.448 11.068" style="fill: rgb(255, 255, 255);"/>
  <path d="M 188.488 52.132 L 166.426 52.132 L 166.426 60.407 L 200 60.407 L 182.539 8.746 C 181.009 3.707 175.965 0 169.994 0 C 164.013 0 158.985 3.691 157.443 8.726 L 139.822 60.408 L 148.612 60.408 L 165.72 10.17 C 166.415 8.506 168.053 7.334 169.979 7.334 C 171.894 7.334 173.541 8.506 174.242 10.159 L 188.488 52.132" style="fill: rgb(255, 255, 255);"/>
</svg>