<?xml version="1.0" encoding="utf-8"?>
<svg xmlns="http://www.w3.org/2000/svg" xmlns:bx="https://boxy-svg.com">
  <path d="M 162.866 14.855 L 162.817 14.781 L 162.767 14.707 L 162.694 14.658 L 162.62 14.609 L 162.571 14.535 L 162.522 14.461 L 162.448 14.412 L 162.374 14.363 L 162.325 14.289 L 162.276 14.216 L 162.202 14.167 L 162.128 14.117 L 162.079 14.044 L 162.03 13.97 L 161.956 13.921 L 161.883 13.872 L 161.834 13.798 L 161.784 13.724 L 161.711 13.675 L 161.637 13.626 L 161.588 13.552 L 161.539 13.478 L 161.465 13.429 L 161.391 13.38 L 161.342 13.306 L 162.325 13.306 L 162.817 13.429 L 163.308 13.552 L 171.664 15.887 C 177.234 17.443 182.477 19.205 187.393 21.171 C 192.308 23.137 196.551 25.078 200.123 26.995 C 203.679 28.928 206.906 30.895 209.806 32.894 C 212.722 34.909 215.344 36.957 217.67 39.038 C 220.013 41.135 222.127 43.412 224.011 45.87 C 225.895 48.327 227.37 50.621 228.435 52.751 C 229.5 54.881 230.278 57.011 230.769 59.141 C 231.261 61.271 231.466 63.401 231.384 65.531 C 231.302 67.66 230.933 69.872 230.278 72.166 C 229.622 74.46 228.721 76.753 227.575 79.047 C 226.428 81.341 224.994 83.635 223.274 85.929 C 221.553 88.223 219.735 90.336 217.818 92.269 C 215.884 94.186 213.32 96.292 210.126 98.585 C 206.931 100.879 203.572 102.968 200.049 104.852 C 196.527 106.736 192.594 108.498 188.253 110.136 C 183.911 111.775 181.372 112.717 180.634 112.962 C 179.897 113.208 179.364 113.372 179.037 113.454 L 178.545 113.577 L 178.177 113.7 L 177.808 113.822 L 177.439 113.945 L 177.071 114.068 L 176.825 114.142 L 176.579 114.191 L 176.579 113.7 L 176.825 113.65 L 177.071 113.577 L 177.12 113.503 L 177.194 113.454 L 177.267 113.405 L 177.316 113.331 L 177.365 113.257 L 177.439 113.208 L 177.513 113.159 L 177.562 113.085 L 177.611 113.011 L 177.685 112.962 L 177.759 112.913 L 177.808 112.839 L 177.857 112.766 L 177.931 112.717 L 178.005 112.667 C 178.037 112.618 178.152 112.487 178.348 112.274 C 178.562 112.078 179.708 110.734 181.789 108.244 C 183.886 105.737 185.607 103.198 186.95 100.625 C 188.31 98.037 189.236 95.595 189.727 93.301 C 190.219 91.008 190.383 89.041 190.219 87.403 C 190.055 85.765 189.686 84.331 189.113 83.102 C 188.539 81.874 187.818 80.866 186.95 80.08 C 186.098 79.309 185.058 78.679 183.829 78.187 C 182.6 77.696 181.003 77.45 179.037 77.45 C 177.071 77.45 174.859 77.859 172.401 78.679 C 169.944 79.498 167.445 80.686 164.906 82.242 C 162.366 83.799 160.031 85.478 157.901 87.28 L 154.707 89.984 L 154.657 90.057 L 154.584 90.107 L 154.51 90.156 L 154.461 90.229 L 154.092 90.303 L 153.724 90.352 L 153.674 90.107 C 153.625 89.943 153.027 89.041 151.88 87.403 C 150.733 85.765 149.611 84.552 148.513 83.766 C 147.399 82.996 146.31 82.57 145.245 82.488 C 144.18 82.406 142.992 82.693 141.681 83.348 C 140.37 84.003 139.224 84.823 138.241 85.806 C 137.258 86.789 135.865 88.55 134.063 91.09 C 132.26 93.629 129.705 97.955 126.395 104.066 L 121.406 113.208 L 121.283 113.454 L 121.16 113.7 L 121.037 113.945 L 120.914 114.191 L 120.792 114.437 L 120.669 114.683 L 120.546 114.437 L 120.423 114.191 L 120.3 113.945 L 120.177 113.7 L 120.103 113.65 L 120.054 113.577 L 120.005 113.503 L 119.931 113.454 L 119.809 113.208 C 119.726 113.044 118.498 110.709 116.122 106.204 C 113.746 101.698 111.576 97.848 109.609 94.653 C 107.643 91.458 105.866 88.976 104.276 87.207 C 102.671 85.453 101.294 84.249 100.148 83.594 C 99.001 82.939 97.936 82.57 96.953 82.488 C 95.97 82.406 95.232 82.447 94.741 82.611 C 94.249 82.775 93.471 83.266 92.406 84.085 C 91.341 84.905 90.276 86.158 89.211 87.846 L 87.614 90.352 L 87.245 90.303 L 86.877 90.229 L 86.827 90.156 L 86.754 90.107 L 86.68 90.057 L 86.631 89.984 L 83.436 87.28 C 81.306 85.478 78.971 83.799 76.432 82.242 C 73.892 80.686 71.598 79.539 69.55 78.802 C 67.502 78.064 65.618 77.614 63.898 77.45 C 62.178 77.286 60.58 77.368 59.106 77.696 C 57.631 78.024 56.443 78.458 55.542 78.998 C 54.641 79.523 54.19 79.867 54.19 80.03 C 54.19 80.194 54.108 80.276 53.945 80.276 C 53.781 80.276 53.355 80.891 52.667 82.119 C 51.962 83.348 51.487 84.536 51.241 85.683 C 50.996 86.83 50.955 88.386 51.118 90.352 C 51.282 92.318 51.774 94.448 52.593 96.742 C 53.412 99.036 54.6 101.371 56.157 103.746 C 57.713 106.122 59.286 108.195 60.875 109.964 C 62.481 111.717 63.3 112.618 63.333 112.667 L 63.407 112.717 L 63.48 112.766 L 63.529 112.839 L 63.579 112.913 L 63.652 112.962 L 63.726 113.011 L 63.775 113.085 L 63.824 113.159 L 63.898 113.208 L 63.972 113.257 L 64.021 113.331 L 64.07 113.405 L 64.144 113.454 L 64.217 113.503 L 64.267 113.577 L 64.512 113.65 L 64.758 113.7 L 64.758 114.191 L 64.512 114.142 L 64.267 114.068 L 63.898 113.945 L 63.529 113.822 L 63.161 113.7 L 62.792 113.577 L 62.423 113.454 C 62.178 113.372 61.235 113.085 59.597 112.594 C 57.959 112.102 55.051 110.996 50.873 109.276 C 46.695 107.556 42.967 105.794 39.691 103.992 C 36.414 102.19 33.424 100.306 30.72 98.34 C 28.017 96.373 25.698 94.432 23.765 92.515 C 21.843 90.576 20.038 88.524 18.359 86.371 C 16.695 84.204 15.215 81.903 13.935 79.49 C 12.673 77.065 11.715 74.664 11.059 72.289 C 10.404 69.913 10.035 67.619 9.954 65.408 C 9.871 63.196 10.076 61.066 10.568 59.018 C 11.059 56.97 11.879 54.799 13.026 52.505 C 14.172 50.212 15.704 47.852 17.621 45.427 C 19.554 43.019 21.791 40.709 24.331 38.497 C 26.87 36.285 29.45 34.278 32.072 32.476 C 34.693 30.674 37.847 28.789 41.534 26.823 C 45.22 24.857 49.562 22.891 54.559 20.925 C 59.556 18.959 64.717 17.239 70.042 15.764 L 78.029 13.552 L 78.521 13.429 L 79.012 13.306 L 79.995 13.306 L 79.946 13.38 L 79.872 13.429 L 79.798 13.478 L 79.75 13.552 L 79.7 13.626 L 79.627 13.675 L 79.553 13.724 L 79.504 13.798 L 79.455 13.872 L 79.381 13.921 L 79.307 13.97 L 79.258 14.044 L 79.209 14.117 L 79.135 14.167 L 79.061 14.216 L 79.012 14.289 L 78.963 14.363 L 78.889 14.412 L 78.815 14.461 L 78.766 14.535 L 78.717 14.609 L 78.644 14.658 L 78.57 14.707 L 78.521 14.781 L 76.014 17.804 C 74.326 19.803 73.032 21.703 72.131 23.505 C 71.23 25.308 70.615 26.864 70.288 28.175 C 69.96 29.486 69.837 30.837 69.919 32.23 C 70.001 33.623 70.345 34.991 70.951 36.334 C 71.574 37.694 72.254 38.824 72.991 39.726 C 73.728 40.627 74.916 41.61 76.555 42.675 C 78.193 43.74 80.118 44.641 82.33 45.378 C 84.542 46.115 87.122 46.484 90.071 46.484 C 93.021 46.484 95.069 46.197 96.216 45.624 C 97.362 45.051 98.411 44.379 99.361 43.609 C 100.295 42.822 101.335 41.569 102.482 39.849 C 103.629 38.128 104.612 36.203 105.432 34.073 C 106.251 31.943 106.865 27.765 107.275 21.539 C 107.684 15.314 108.028 11.479 108.307 10.038 C 108.602 8.612 109.388 9.104 110.666 11.512 C 111.928 13.937 112.698 15.6 112.976 16.501 C 113.271 17.402 114.197 17.706 115.753 17.411 C 117.31 17.132 119.235 17.034 121.529 17.116 C 123.823 17.198 125.461 17.345 126.444 17.558 C 127.427 17.755 128.312 16.87 129.098 14.904 C 129.868 12.938 130.663 11.258 131.482 9.866 C 132.301 8.473 132.957 10.07 133.448 14.658 C 133.94 19.246 134.267 23.096 134.431 26.209 C 134.595 29.322 135.086 31.943 135.906 34.073 C 136.725 36.203 137.651 38.022 138.683 39.529 C 139.699 41.053 140.657 42.265 141.558 43.166 C 142.459 44.068 143.565 44.846 144.876 45.501 C 146.187 46.156 148.317 46.484 151.266 46.484 C 154.215 46.484 156.795 46.115 159.007 45.378 C 161.219 44.641 163.021 43.822 164.414 42.921 C 165.807 42.019 167.011 41.02 168.027 39.922 C 169.059 38.808 169.862 37.555 170.435 36.162 C 171.009 34.769 171.295 33.213 171.295 31.493 C 171.295 29.772 171.009 28.093 170.435 26.455 C 169.862 24.816 169.001 23.096 167.855 21.294 C 166.708 19.491 165.602 17.976 164.537 16.747 C 163.472 15.518 162.915 14.888 162.866 14.855 Z" stroke-width=".5" style="fill: rgb(255, 255, 255);" bx:origin="-0.045 -0.088"/>
  <path d="M 229.614 36.408 L 229.664 36.531 L 229.664 36.973 C 229.664 37.252 229.68 37.416 229.712 37.465 L 229.786 37.514 L 229.786 38.251 L 229.712 38.202 C 229.68 38.153 229.581 38.104 229.418 38.054 C 229.254 38.022 229.156 38.087 229.123 38.251 C 229.074 38.415 228.828 38.538 228.386 38.62 L 227.697 38.743 L 227.82 39.038 C 227.902 39.25 228.009 39.3 228.14 39.185 C 228.255 39.054 228.336 39.111 228.386 39.357 L 228.435 39.726 L 227.943 39.726 L 227.894 39.971 L 227.82 40.217 L 227.746 40.168 L 227.697 40.094 L 227.648 40.021 L 227.575 39.971 L 227.452 39.726 C 227.37 39.562 227.272 39.546 227.157 39.677 L 226.96 39.849 L 226.911 39.922 L 226.837 39.971 L 226.763 40.021 L 226.714 40.094 L 226.714 40.217 L 226.592 40.168 C 226.509 40.119 225.567 39.193 223.765 37.391 C 221.963 35.589 219.849 33.729 217.424 31.812 C 215.016 29.879 212.116 27.864 208.725 25.766 C 205.317 23.686 201.483 21.662 197.223 19.696 C 192.963 17.73 188.294 15.887 183.215 14.167 C 178.136 12.446 172.688 10.931 166.872 9.62 C 161.055 8.309 155.034 7.244 148.808 6.425 C 142.582 5.606 135.783 5.073 128.41 4.828 C 121.037 4.582 114.443 4.623 108.626 4.951 C 102.81 5.278 96.953 5.852 91.055 6.671 C 85.156 7.49 79.258 8.596 73.36 9.989 C 67.462 11.381 62.055 12.938 57.14 14.658 C 52.224 16.378 47.719 18.222 43.623 20.188 C 39.527 22.154 35.799 24.161 32.441 26.209 C 29.082 28.257 26.01 30.428 23.225 32.721 C 20.439 35.015 18.104 37.227 16.22 39.357 C 14.336 41.487 12.698 43.592 11.305 45.673 L 9.216 48.819 L 9.167 48.819 C 9.118 48.819 9.069 48.86 9.02 48.942 L 8.971 49.065 L 8.479 49.114 L 7.987 49.187 L 7.742 49.261 L 7.496 49.31 L 7.496 48.819 L 7.865 48.77 C 8.11 48.72 7.946 48.639 7.373 48.524 C 6.799 48.393 6.496 48.082 6.464 47.59 C 6.415 47.098 6.251 46.607 5.972 46.115 L 5.53 45.378 L 5.653 45.329 C 5.735 45.28 5.776 45.231 5.776 45.182 L 5.776 45.132 L 7.693 42.306 C 8.954 40.422 10.789 38.185 13.198 35.597 C 15.622 33.025 18.309 30.591 21.259 28.298 C 24.208 26.004 27.607 23.71 31.458 21.416 C 35.308 19.123 39.322 17.034 43.5 15.15 C 47.678 13.265 52.019 11.545 56.525 9.989 C 61.031 8.432 66.192 6.958 72.008 5.565 C 77.824 4.172 83.886 3.025 90.194 2.124 C 96.502 1.223 102.646 0.609 108.626 0.281 C 114.607 -0.047 121.242 -0.088 128.533 0.158 C 135.824 0.404 142.623 0.937 148.931 1.756 C 155.239 2.575 161.301 3.64 167.117 4.951 C 172.934 6.261 178.668 7.859 184.321 9.743 C 189.973 11.627 195.093 13.634 199.681 15.764 C 204.268 17.894 208.323 20.065 211.846 22.277 C 215.368 24.489 218.047 26.307 219.882 27.733 C 221.733 29.174 223.601 30.755 225.486 32.476 C 227.37 34.196 228.517 35.261 228.926 35.671 C 229.336 36.08 229.565 36.326 229.614 36.408 Z" stroke-width=".5" style="fill: rgb(255, 255, 255);" bx:origin="-0.025 0"/>
  <path d="M 18.014 94.899 L 18.309 94.53 L 22.242 97.774 C 24.863 99.953 27.812 102.108 31.089 104.238 C 34.366 106.368 38.093 108.457 42.271 110.505 C 46.449 112.553 51.2 114.519 56.525 116.403 C 61.85 118.287 67.462 119.925 73.36 121.318 C 79.258 122.711 85.156 123.817 91.055 124.636 C 96.953 125.455 102.81 126.029 108.626 126.356 C 114.443 126.684 121.037 126.725 128.41 126.479 C 135.783 126.233 142.582 125.701 148.808 124.882 C 155.034 124.063 161.055 122.997 166.872 121.687 C 172.688 120.376 178.136 118.861 183.215 117.14 C 188.294 115.42 193.061 113.519 197.518 111.439 C 201.991 109.342 205.972 107.212 209.462 105.049 C 212.935 102.87 215.245 101.33 216.392 100.429 C 217.539 99.527 218.195 99.036 218.359 98.954 L 218.604 98.831 L 218.727 98.757 L 218.85 98.708 L 219.096 98.757 L 219.342 98.831 L 219.39 98.905 L 219.464 98.954 L 219.538 99.003 L 219.587 99.077 L 219.956 99.151 L 220.325 99.2 L 220.325 99.937 L 220.816 99.937 L 220.939 100.969 C 221.021 101.674 221.078 102.05 221.111 102.1 C 221.16 102.133 221.209 102.231 221.258 102.395 L 221.308 102.64 L 221.308 102.69 C 221.308 102.739 221.226 102.788 221.062 102.837 L 220.816 102.886 L 220.767 102.763 C 220.718 102.681 220.587 102.599 220.373 102.517 C 220.177 102.436 220.095 102.476 220.128 102.64 L 220.202 102.886 L 220.128 103.083 C 220.095 103.198 220.079 103.279 220.079 103.329 L 220.079 103.378 L 219.956 103.427 C 219.874 103.476 219.833 103.525 219.833 103.574 L 219.833 103.623 L 219.784 103.746 C 219.735 103.828 218.317 104.811 215.532 106.695 C 212.747 108.58 209.577 110.488 206.021 112.422 C 202.45 114.339 198.247 116.28 193.414 118.246 C 188.58 120.212 183.338 122.014 177.685 123.653 C 172.033 125.291 166.093 126.684 159.868 127.831 C 153.684 128.972 147.451 129.833 141.19 130.411 C 134.964 130.985 128.205 131.271 120.914 131.271 C 113.623 131.271 107.479 131.067 102.482 130.657 C 97.485 130.247 91.997 129.551 86.016 128.568 C 80.036 127.585 74.22 126.356 68.567 124.882 C 62.915 123.407 57.754 121.81 53.085 120.089 C 48.415 118.369 43.869 116.403 39.445 114.191 C 35.021 111.979 31.212 109.849 28.017 107.801 C 24.822 105.753 22.037 103.722 19.661 101.706 L 16.098 98.708 L 15.975 98.659 L 15.852 98.585 L 15.852 98.413 C 15.852 98.364 15.917 98.282 16.048 98.168 L 16.22 97.971 L 16.147 97.922 L 16.098 97.848 L 16.147 97.774 L 16.22 97.725 L 16.343 97.234 C 16.425 96.906 16.491 96.619 16.54 96.373 L 16.589 96.005 L 17.081 95.956 C 17.408 95.907 17.588 95.776 17.621 95.562 C 17.67 95.366 17.801 95.145 18.014 94.899 Z M 229.664 36.973 L 229.664 36.531 L 232.416 39.971 C 234.267 42.265 235.848 44.641 237.159 47.098 C 238.47 49.556 239.535 52.178 240.354 54.963 C 241.173 57.748 241.665 59.796 241.829 61.107 C 241.992 62.417 242.033 64.343 241.952 66.882 C 241.869 69.422 241.501 72.002 240.846 74.624 C 240.19 77.245 239.248 79.825 238.019 82.365 C 236.791 84.905 236.135 86.256 236.053 86.42 L 235.93 86.666 L 235.856 86.715 L 235.808 86.789 L 235.758 86.863 L 235.685 86.912 L 235.562 87.28 L 235.439 87.649 L 235.365 87.698 L 235.316 87.772 L 235.267 87.846 L 235.193 87.895 L 235.119 87.944 L 235.07 88.018 L 235.021 88.091 L 234.947 88.14 L 234.824 88.14 L 234.873 87.649 L 234.947 87.157 L 234.947 86.912 L 234.873 86.863 L 234.824 86.789 L 234.775 86.715 L 234.702 86.666 L 234.628 86.617 L 234.579 86.543 L 234.628 86.469 L 234.702 86.42 L 234.702 86.297 C 234.702 86.215 234.644 85.806 234.53 85.068 C 234.399 84.331 234.169 83.963 233.841 83.963 C 233.514 83.963 233.366 83.88 233.399 83.717 C 233.448 83.553 233.497 83.266 233.547 82.857 C 233.579 82.447 233.432 82.283 233.104 82.365 L 232.613 82.488 L 232.662 82.242 C 232.711 82.079 233.063 81.341 233.719 80.03 C 234.374 78.72 235.029 76.836 235.685 74.378 C 236.34 71.92 236.668 69.012 236.668 65.653 C 236.668 62.295 236.381 59.509 235.808 57.298 C 235.234 55.086 234.374 52.792 233.227 50.416 C 232.08 48.04 230.745 45.853 229.221 43.854 L 226.96 40.832 L 226.911 40.758 L 226.837 40.709 L 226.763 40.463 L 226.714 40.217 L 226.714 40.094 L 226.763 40.021 L 226.837 39.971 L 226.911 39.922 L 226.96 39.849 L 227.157 39.677 C 227.272 39.546 227.37 39.562 227.452 39.726 L 227.575 39.971 L 227.648 40.021 L 227.697 40.094 L 227.746 40.168 L 227.82 40.217 L 227.82 39.849 C 227.82 39.603 227.795 39.357 227.746 39.111 L 227.697 38.743 L 228.238 38.62 C 228.615 38.538 228.779 38.415 228.729 38.251 C 228.697 38.087 228.844 38.022 229.172 38.054 C 229.5 38.104 229.68 38.153 229.712 38.202 L 229.786 38.251 L 229.786 37.514 L 229.712 37.465 C 229.68 37.416 229.664 37.252 229.664 36.973 Z M 228.238 39.185 C 228.205 39.141 228.205 39.081 228.238 39.038 C 228.287 39.005 228.312 39.029 228.312 39.111 C 228.312 39.193 228.287 39.218 228.238 39.185 Z" stroke-width=".5" style="fill: rgb(255, 255, 255);" bx:origin="-0.07 -0.386"/>
  <path d="M 5.726 45.132 L 5.776 45.132 L 6.021 45.821 C 6.185 46.263 6.308 46.787 6.39 47.393 C 6.472 48.016 6.799 48.393 7.373 48.524 C 7.946 48.639 8.11 48.72 7.865 48.77 L 7.496 48.819 L 7.496 49.31 L 7.742 49.261 L 7.987 49.187 L 8.356 49.065 C 8.602 48.983 8.807 48.917 8.971 48.868 L 9.216 48.819 L 7.693 52.505 C 6.66 54.963 5.939 57.298 5.53 59.509 C 5.12 61.721 4.956 64.138 5.038 66.759 C 5.12 69.381 5.489 71.92 6.144 74.378 C 6.799 76.836 7.758 79.277 9.02 81.702 C 10.298 84.11 11.797 86.42 13.517 88.632 C 15.237 90.844 16.441 92.335 17.13 93.105 C 17.834 93.891 18.211 94.326 18.26 94.407 L 18.309 94.53 L 18.014 94.899 C 17.801 95.145 17.67 95.366 17.621 95.562 C 17.588 95.775 17.408 95.906 17.081 95.956 L 16.589 96.005 L 16.54 96.373 C 16.491 96.619 16.425 96.906 16.343 97.234 L 16.22 97.725 L 16.147 97.774 L 16.098 97.848 L 16.147 97.922 L 16.22 97.971 L 16.22 98.708 L 16.098 98.708 L 15.975 98.659 L 15.852 98.585 L 15.852 98.462 L 15.729 98.413 L 15.606 98.34 L 15.557 98.266 L 15.483 98.217 L 15.409 98.168 L 15.36 98.094 L 15.311 98.02 L 15.237 97.971 L 15.164 97.922 L 15.115 97.848 L 15.065 97.774 L 14.992 97.725 L 14.918 97.676 L 14.869 97.602 L 14.82 97.529 C 14.77 97.496 14.5 97.234 14.009 96.742 C 13.517 96.251 12.165 94.653 9.954 91.95 C 7.742 89.246 5.857 86.338 4.301 83.225 C 2.744 80.112 1.639 77.245 0.983 74.624 C 0.328 72.002 0 68.971 0 65.531 C 0 62.09 0.328 59.1 0.983 56.56 C 1.639 54.021 2.564 51.522 3.76 49.065 L 5.53 45.378 L 5.579 45.255 C 5.628 45.173 5.677 45.132 5.726 45.132 Z" stroke-width=".5" style="fill: rgb(255, 255, 255);" bx:origin="-0.002 -0.842"/>
  <path d="M 232.809 82.365 L 232.858 82.242 L 233.227 82.242 C 233.473 82.242 233.579 82.447 233.547 82.857 C 233.497 83.266 233.448 83.553 233.399 83.717 C 233.366 83.88 233.514 83.963 233.841 83.963 C 234.169 83.963 234.399 84.331 234.53 85.068 C 234.644 85.806 234.702 86.215 234.702 86.297 L 234.702 86.42 L 234.628 86.469 L 234.579 86.543 L 234.628 86.617 L 234.702 86.666 L 234.775 86.715 L 234.824 86.789 L 235.07 86.863 C 235.234 86.895 235.316 86.994 235.316 87.157 L 235.316 87.403 L 235.193 87.452 C 235.111 87.502 235.07 87.55 235.07 87.6 L 235.07 87.649 L 235.021 87.649 C 234.972 87.649 234.923 87.731 234.873 87.895 L 234.824 88.14 L 234.775 88.386 C 234.726 88.55 233.719 89.82 231.752 92.196 C 229.786 94.571 227.55 96.906 225.043 99.2 L 221.308 102.64 L 221.258 102.395 C 221.209 102.231 221.16 102.231 221.111 102.395 L 221.062 102.64 L 221.013 102.763 L 220.939 102.886 L 220.816 102.886 L 220.767 103.009 L 220.693 103.132 L 220.619 103.181 L 220.57 103.255 L 220.521 103.329 L 220.447 103.378 L 220.373 103.427 L 220.325 103.501 L 220.079 103.574 L 219.833 103.623 L 219.833 103.132 L 220.079 103.083 L 220.325 103.009 L 220.275 102.935 L 220.202 102.886 L 220.128 102.64 C 220.095 102.476 220.161 102.395 220.325 102.395 C 220.488 102.395 220.587 102.313 220.619 102.149 C 220.668 101.985 220.718 101.575 220.767 100.92 L 220.816 99.937 L 220.57 99.888 C 220.406 99.839 220.161 99.79 219.833 99.74 C 219.505 99.707 219.358 99.568 219.39 99.323 L 219.464 98.954 L 219.39 98.905 L 219.342 98.831 L 219.096 98.757 L 218.85 98.708 L 218.85 98.585 L 218.899 98.512 L 218.973 98.462 L 219.047 98.413 L 219.096 98.34 L 219.145 98.266 L 219.219 98.217 L 222.168 95.513 C 224.134 93.711 226.018 91.663 227.82 89.369 C 229.622 87.075 230.851 85.396 231.507 84.331 C 232.162 83.266 232.514 82.693 232.563 82.611 L 232.613 82.488 L 232.662 82.488 C 232.711 82.488 232.76 82.447 232.809 82.365 Z" stroke-width=".5" style="fill: rgb(255, 255, 255);" bx:origin="-13.293 -3.846"/>
</svg>