<?xml version="1.0" encoding="utf-8"?>
<svg xmlns="http://www.w3.org/2000/svg" xmlns:bx="https://boxy-svg.com">
  <path d="M 134.604 12.277 L 134.564 12.216 L 134.522 12.155 L 134.462 12.114 L 134.401 12.074 L 134.36 12.013 L 134.32 11.952 L 134.259 11.911 L 134.198 11.871 L 134.157 11.809 L 134.117 11.749 L 134.055 11.709 L 133.994 11.667 L 133.954 11.607 L 133.913 11.546 L 133.852 11.505 L 133.792 11.465 L 133.751 11.404 L 133.71 11.342 L 133.65 11.302 L 133.589 11.261 L 133.548 11.2 L 133.508 11.139 L 133.446 11.099 L 133.385 11.058 L 133.345 10.997 L 134.157 10.997 L 134.564 11.099 L 134.97 11.2 L 141.876 13.13 C 146.479 14.416 150.812 15.872 154.875 17.497 C 158.937 19.122 162.444 20.726 165.396 22.311 C 168.335 23.908 171.002 25.534 173.399 27.186 C 175.809 28.851 177.976 30.544 179.898 32.264 C 181.835 33.997 183.582 35.879 185.139 37.91 C 186.696 39.941 187.915 41.837 188.795 43.597 C 189.675 45.358 190.318 47.118 190.724 48.878 C 191.131 50.639 191.3 52.399 191.233 54.16 C 191.165 55.919 190.86 57.747 190.318 59.643 C 189.776 61.539 189.032 63.434 188.084 65.33 C 187.137 67.226 185.951 69.122 184.53 71.018 C 183.107 72.914 181.605 74.66 180.021 76.258 C 178.422 77.842 176.303 79.583 173.663 81.478 C 171.023 83.374 168.247 85.1 165.335 86.657 C 162.424 88.214 159.174 89.671 155.586 91.024 C 151.997 92.379 149.899 93.157 149.289 93.36 C 148.68 93.563 148.239 93.699 147.969 93.767 L 147.563 93.868 L 147.258 93.97 L 146.953 94.071 L 146.648 94.172 L 146.344 94.274 L 146.141 94.335 L 145.938 94.376 L 145.938 93.97 L 146.141 93.929 L 146.344 93.868 L 146.385 93.807 L 146.446 93.767 L 146.506 93.726 L 146.547 93.665 L 146.587 93.604 L 146.648 93.563 L 146.71 93.523 L 146.75 93.462 L 146.791 93.4 L 146.852 93.36 L 146.913 93.319 L 146.953 93.258 L 146.994 93.198 L 147.055 93.157 L 147.116 93.116 C 147.143 93.076 147.238 92.967 147.4 92.791 C 147.577 92.629 148.524 91.519 150.244 89.461 C 151.977 87.389 153.399 85.29 154.509 83.164 C 155.633 81.025 156.398 79.007 156.804 77.111 C 157.211 75.216 157.346 73.59 157.211 72.236 C 157.075 70.882 156.77 69.697 156.297 68.681 C 155.822 67.667 155.226 66.833 154.509 66.184 C 153.805 65.547 152.945 65.026 151.93 64.619 C 150.914 64.214 149.594 64.01 147.969 64.01 C 146.344 64.01 144.516 64.348 142.485 65.026 C 140.454 65.703 138.389 66.685 136.29 67.971 C 134.191 69.258 132.261 70.645 130.501 72.134 L 127.861 74.369 L 127.82 74.43 L 127.759 74.471 L 127.698 74.511 L 127.658 74.572 L 127.353 74.633 L 127.049 74.673 L 127.007 74.471 C 126.967 74.335 126.473 73.59 125.525 72.236 C 124.577 70.882 123.649 69.88 122.742 69.23 C 121.821 68.594 120.921 68.242 120.041 68.174 C 119.161 68.106 118.179 68.343 117.095 68.885 C 116.012 69.426 115.065 70.104 114.252 70.916 C 113.44 71.729 112.289 73.184 110.799 75.283 C 109.309 77.382 107.198 80.957 104.462 86.008 L 100.339 93.563 L 100.237 93.767 L 100.135 93.97 L 100.034 94.172 L 99.932 94.376 L 99.831 94.579 L 99.73 94.782 L 99.628 94.579 L 99.526 94.376 L 99.425 94.172 L 99.323 93.97 L 99.262 93.929 L 99.221 93.868 L 99.181 93.807 L 99.12 93.767 L 99.019 93.563 C 98.95 93.428 97.935 91.498 95.972 87.775 C 94.008 84.051 92.214 80.869 90.589 78.228 C 88.964 75.587 87.495 73.536 86.181 72.074 C 84.855 70.625 83.717 69.629 82.77 69.088 C 81.822 68.547 80.941 68.242 80.129 68.174 C 79.317 68.106 78.707 68.14 78.301 68.276 C 77.894 68.411 77.251 68.817 76.371 69.494 C 75.491 70.172 74.611 71.207 73.73 72.602 L 72.411 74.673 L 72.106 74.633 L 71.801 74.572 L 71.76 74.511 L 71.7 74.471 L 71.639 74.43 L 71.598 74.369 L 68.958 72.134 C 67.197 70.645 65.267 69.258 63.169 67.971 C 61.07 66.685 59.174 65.737 57.481 65.128 C 55.789 64.518 54.231 64.146 52.81 64.01 C 51.388 63.875 50.068 63.942 48.849 64.214 C 47.63 64.485 46.649 64.843 45.904 65.29 C 45.159 65.724 44.787 66.008 44.787 66.143 C 44.787 66.278 44.719 66.346 44.584 66.346 C 44.449 66.346 44.096 66.854 43.528 67.869 C 42.945 68.885 42.553 69.867 42.349 70.815 C 42.147 71.763 42.113 73.049 42.248 74.673 C 42.383 76.298 42.79 78.059 43.467 79.955 C 44.144 81.851 45.125 83.78 46.412 85.743 C 47.698 87.707 48.998 89.42 50.312 90.882 C 51.639 92.331 52.316 93.076 52.343 93.116 L 52.404 93.157 L 52.464 93.198 L 52.505 93.258 L 52.546 93.319 L 52.607 93.36 L 52.668 93.4 L 52.708 93.462 L 52.749 93.523 L 52.81 93.563 L 52.871 93.604 L 52.912 93.665 L 52.952 93.726 L 53.013 93.767 L 53.074 93.807 L 53.115 93.868 L 53.317 93.929 L 53.521 93.97 L 53.521 94.376 L 53.317 94.335 L 53.115 94.274 L 52.81 94.172 L 52.505 94.071 L 52.201 93.97 L 51.896 93.868 L 51.591 93.767 C 51.388 93.699 50.609 93.462 49.255 93.056 C 47.902 92.649 45.498 91.735 42.045 90.314 C 38.592 88.892 35.511 87.436 32.804 85.946 C 30.095 84.457 27.624 82.9 25.389 81.275 C 23.155 79.65 21.239 78.045 19.641 76.461 C 18.053 74.859 16.561 73.163 15.173 71.383 C 13.798 69.592 12.575 67.691 11.517 65.696 C 10.474 63.692 9.682 61.708 9.14 59.745 C 8.599 57.781 8.294 55.885 8.227 54.058 C 8.158 52.23 8.328 50.469 8.734 48.777 C 9.14 47.084 9.818 45.29 10.766 43.394 C 11.713 41.499 12.979 39.548 14.563 37.544 C 16.161 35.554 18.01 33.645 20.109 31.817 C 22.207 29.989 24.34 28.33 26.507 26.84 C 28.673 25.351 31.28 23.793 34.327 22.168 C 37.373 20.544 40.962 18.919 45.092 17.294 C 49.221 15.669 53.487 14.248 57.888 13.028 L 64.489 11.2 L 64.895 11.099 L 65.301 10.997 L 66.114 10.997 L 66.073 11.058 L 66.012 11.099 L 65.951 11.139 L 65.911 11.2 L 65.87 11.261 L 65.81 11.302 L 65.748 11.342 L 65.708 11.404 L 65.667 11.465 L 65.606 11.505 L 65.545 11.546 L 65.505 11.607 L 65.464 11.667 L 65.403 11.709 L 65.342 11.749 L 65.301 11.809 L 65.261 11.871 L 65.2 11.911 L 65.138 11.952 L 65.098 12.013 L 65.057 12.074 L 64.997 12.114 L 64.936 12.155 L 64.895 12.216 L 62.823 14.714 C 61.428 16.367 60.359 17.937 59.614 19.426 C 58.87 20.916 58.361 22.202 58.091 23.286 C 57.82 24.369 57.718 25.486 57.786 26.637 C 57.854 27.788 58.138 28.919 58.639 30.029 C 59.154 31.153 59.716 32.087 60.325 32.832 C 60.934 33.577 61.916 34.389 63.271 35.27 C 64.624 36.15 66.215 36.895 68.043 37.504 C 69.872 38.113 72.004 38.418 74.441 38.418 C 76.879 38.418 78.572 38.181 79.52 37.707 C 80.467 37.233 81.334 36.678 82.119 36.042 C 82.891 35.391 83.751 34.356 84.699 32.934 C 85.647 31.512 86.459 29.921 87.137 28.16 C 87.814 26.4 88.321 22.947 88.66 17.801 C 88.998 12.657 89.282 9.487 89.513 8.296 C 89.757 7.118 90.406 7.524 91.462 9.514 C 92.505 11.519 93.142 12.893 93.372 13.638 C 93.615 14.382 94.381 14.633 95.667 14.39 C 96.953 14.159 98.544 14.078 100.44 14.146 C 102.336 14.214 103.69 14.335 104.502 14.511 C 105.315 14.674 106.046 13.943 106.696 12.318 C 107.332 10.693 107.989 9.304 108.666 8.154 C 109.343 7.003 109.885 8.323 110.291 12.114 C 110.698 15.906 110.968 19.088 111.104 21.661 C 111.239 24.234 111.645 26.4 112.323 28.16 C 112.999 29.921 113.765 31.424 114.618 32.67 C 115.457 33.929 116.249 34.931 116.994 35.675 C 117.738 36.421 118.653 37.064 119.736 37.605 C 120.82 38.147 122.58 38.418 125.017 38.418 C 127.454 38.418 129.587 38.113 131.415 37.504 C 133.243 36.895 134.732 36.218 135.884 35.473 C 137.035 34.728 138.03 33.902 138.87 32.994 C 139.723 32.074 140.386 31.038 140.86 29.887 C 141.334 28.736 141.571 27.45 141.571 26.028 C 141.571 24.606 141.334 23.218 140.86 21.864 C 140.386 20.51 139.675 19.088 138.728 17.599 C 137.78 16.109 136.865 14.857 135.985 13.841 C 135.105 12.825 134.645 12.304 134.604 12.277 Z" stroke-width=".5" style="fill: rgb(255, 255, 255);" bx:origin="-0.045 -0.088"/>
  <path d="M 189.77 30.09 L 189.811 30.192 L 189.811 30.557 C 189.811 30.788 189.824 30.923 189.851 30.964 L 189.912 31.004 L 189.912 31.613 L 189.851 31.573 C 189.824 31.532 189.742 31.492 189.608 31.451 C 189.472 31.424 189.391 31.478 189.364 31.613 C 189.323 31.749 189.12 31.851 188.755 31.918 L 188.185 32.02 L 188.287 32.264 C 188.355 32.439 188.443 32.48 188.551 32.385 C 188.646 32.277 188.713 32.324 188.755 32.527 L 188.795 32.832 L 188.389 32.832 L 188.348 33.035 L 188.287 33.238 L 188.226 33.198 L 188.185 33.137 L 188.145 33.076 L 188.084 33.035 L 187.983 32.832 C 187.915 32.697 187.834 32.684 187.739 32.792 L 187.576 32.934 L 187.536 32.994 L 187.475 33.035 L 187.413 33.076 L 187.373 33.137 L 187.373 33.238 L 187.272 33.198 C 187.203 33.157 186.425 32.392 184.936 30.903 C 183.446 29.413 181.699 27.876 179.695 26.292 C 177.705 24.694 175.308 23.029 172.505 21.295 C 169.689 19.576 166.52 17.903 162.999 16.278 C 159.479 14.653 155.62 13.13 151.422 11.709 C 147.225 10.286 142.722 9.034 137.915 7.951 C 133.108 6.867 128.131 5.987 122.986 5.31 C 117.84 4.633 112.221 4.193 106.127 3.99 C 100.034 3.787 94.584 3.821 89.776 4.092 C 84.97 4.362 80.129 4.836 75.254 5.513 C 70.379 6.19 65.505 7.104 60.63 8.256 C 55.755 9.406 51.287 10.693 47.225 12.114 C 43.162 13.536 39.438 15.06 36.053 16.685 C 32.668 18.31 29.587 19.968 26.812 21.661 C 24.035 23.354 21.497 25.148 19.195 27.043 C 16.892 28.939 14.962 30.767 13.405 32.527 C 11.848 34.288 10.495 36.028 9.343 37.747 L 7.617 40.348 L 7.576 40.348 C 7.536 40.348 7.495 40.381 7.455 40.449 L 7.414 40.551 L 7.008 40.591 L 6.601 40.652 L 6.399 40.713 L 6.195 40.753 L 6.195 40.348 L 6.5 40.307 C 6.703 40.266 6.567 40.199 6.094 40.104 C 5.619 39.995 5.369 39.738 5.342 39.332 C 5.302 38.925 5.166 38.519 4.936 38.113 L 4.57 37.504 L 4.672 37.463 C 4.74 37.423 4.774 37.382 4.774 37.342 L 4.774 37.3 L 6.358 34.965 C 7.4 33.408 8.917 31.559 10.908 29.42 C 12.911 27.294 15.132 25.283 17.57 23.387 C 20.007 21.492 22.816 19.596 25.999 17.7 C 29.181 15.805 32.499 14.078 35.952 12.521 C 39.405 10.963 42.992 9.542 46.716 8.256 C 50.44 6.969 54.706 5.751 59.513 4.599 C 64.319 3.448 69.329 2.5 74.543 1.755 C 79.756 1.011 84.834 0.503 89.776 0.232 C 94.72 -0.039 100.203 -0.073 106.229 0.131 C 112.255 0.334 117.874 0.774 123.087 1.451 C 128.301 2.128 133.311 3.008 138.118 4.092 C 142.925 5.175 147.664 6.495 152.336 8.052 C 157.007 9.609 161.239 11.268 165.031 13.028 C 168.822 14.789 172.173 16.583 175.085 18.411 C 177.996 20.239 180.21 21.742 181.726 22.921 C 183.256 24.111 184.8 25.418 186.358 26.84 C 187.915 28.262 188.863 29.142 189.201 29.481 C 189.54 29.819 189.729 30.022 189.77 30.09 Z" stroke-width=".5" style="fill: rgb(255, 255, 255);" bx:origin="-0.025 0"/>
  <path d="M 14.888 78.431 L 15.132 78.126 L 18.382 80.807 C 20.549 82.608 22.986 84.389 25.694 86.15 C 28.403 87.91 31.483 89.637 34.936 91.329 C 38.389 93.022 42.315 94.647 46.716 96.204 C 51.117 97.761 55.755 99.115 60.63 100.266 C 65.505 101.417 70.379 102.331 75.254 103.008 C 80.129 103.685 84.97 104.159 89.776 104.43 C 94.584 104.701 100.034 104.735 106.127 104.531 C 112.221 104.328 117.84 103.888 122.986 103.212 C 128.131 102.535 133.108 101.654 137.915 100.571 C 142.722 99.487 147.225 98.235 151.422 96.813 C 155.62 95.391 159.56 93.82 163.243 92.101 C 166.94 90.368 170.23 88.608 173.115 86.82 C 175.985 85.019 177.894 83.746 178.842 83.002 C 179.79 82.256 180.332 81.851 180.468 81.783 L 180.67 81.681 L 180.772 81.62 L 180.874 81.579 L 181.077 81.62 L 181.28 81.681 L 181.32 81.742 L 181.381 81.783 L 181.442 81.823 L 181.483 81.884 L 181.788 81.946 L 182.093 81.986 L 182.093 82.595 L 182.498 82.595 L 182.6 83.448 C 182.668 84.031 182.715 84.341 182.742 84.383 C 182.783 84.41 182.823 84.491 182.864 84.627 L 182.905 84.829 L 182.905 84.87 C 182.905 84.911 182.837 84.951 182.702 84.992 L 182.498 85.032 L 182.458 84.931 C 182.417 84.863 182.309 84.795 182.132 84.727 C 181.97 84.661 181.902 84.694 181.93 84.829 L 181.991 85.032 L 181.93 85.195 C 181.902 85.29 181.889 85.357 181.889 85.399 L 181.889 85.439 L 181.788 85.48 C 181.72 85.52 181.686 85.561 181.686 85.601 L 181.686 85.642 L 181.645 85.743 C 181.605 85.811 180.433 86.623 178.131 88.18 C 175.83 89.738 173.21 91.315 170.271 92.914 C 167.319 94.498 163.846 96.102 159.851 97.727 C 155.856 99.352 151.524 100.841 146.852 102.196 C 142.181 103.55 137.271 104.701 132.126 105.649 C 127.016 106.592 121.864 107.303 116.69 107.781 C 111.544 108.255 105.958 108.492 99.932 108.492 C 93.906 108.492 88.828 108.323 84.699 107.984 C 80.569 107.646 76.033 107.07 71.09 106.258 C 66.148 105.445 61.341 104.43 56.669 103.212 C 51.998 101.992 47.732 100.673 43.873 99.25 C 40.014 97.829 36.257 96.204 32.6 94.376 C 28.944 92.548 25.796 90.787 23.155 89.095 C 20.515 87.402 18.213 85.723 16.249 84.057 L 13.305 81.579 L 13.203 81.539 L 13.101 81.478 L 13.101 81.336 C 13.101 81.295 13.155 81.227 13.263 81.133 L 13.405 80.97 L 13.345 80.93 L 13.305 80.869 L 13.345 80.807 L 13.405 80.767 L 13.507 80.361 C 13.575 80.09 13.629 79.853 13.67 79.65 L 13.71 79.345 L 14.117 79.305 C 14.387 79.264 14.536 79.156 14.563 78.979 C 14.604 78.817 14.712 78.635 14.888 78.431 Z M 189.811 30.557 L 189.811 30.192 L 192.085 33.035 C 193.615 34.931 194.922 36.895 196.005 38.925 C 197.089 40.957 197.969 43.124 198.646 45.425 C 199.323 47.727 199.729 49.42 199.865 50.503 C 200 51.586 200.034 53.178 199.967 55.276 C 199.898 57.375 199.594 59.508 199.053 61.675 C 198.51 63.841 197.732 65.973 196.716 68.072 C 195.701 70.172 195.159 71.288 195.091 71.424 L 194.99 71.627 L 194.928 71.668 L 194.889 71.729 L 194.847 71.79 L 194.787 71.83 L 194.686 72.134 L 194.584 72.439 L 194.523 72.48 L 194.482 72.541 L 194.442 72.602 L 194.381 72.643 L 194.319 72.683 L 194.279 72.744 L 194.238 72.805 L 194.177 72.845 L 194.076 72.845 L 194.116 72.439 L 194.177 72.033 L 194.177 71.83 L 194.116 71.79 L 194.076 71.729 L 194.035 71.668 L 193.975 71.627 L 193.914 71.587 L 193.873 71.525 L 193.914 71.464 L 193.975 71.424 L 193.975 71.322 C 193.975 71.254 193.927 70.916 193.833 70.306 C 193.724 69.697 193.534 69.393 193.263 69.393 C 192.993 69.393 192.871 69.324 192.898 69.19 C 192.938 69.054 192.979 68.817 193.02 68.479 C 193.047 68.14 192.925 68.005 192.654 68.072 L 192.248 68.174 L 192.289 67.971 C 192.329 67.836 192.62 67.226 193.162 66.143 C 193.704 65.06 194.245 63.503 194.787 61.471 C 195.328 59.44 195.6 57.036 195.6 54.26 C 195.6 51.485 195.362 49.183 194.889 47.355 C 194.414 45.527 193.704 43.631 192.756 41.667 C 191.808 39.704 190.704 37.896 189.445 36.244 L 187.576 33.746 L 187.536 33.685 L 187.475 33.645 L 187.413 33.442 L 187.373 33.238 L 187.373 33.137 L 187.413 33.076 L 187.475 33.035 L 187.536 32.994 L 187.576 32.934 L 187.739 32.792 C 187.834 32.684 187.915 32.697 187.983 32.832 L 188.084 33.035 L 188.145 33.076 L 188.185 33.137 L 188.226 33.198 L 188.287 33.238 L 188.287 32.934 C 188.287 32.731 188.266 32.527 188.226 32.324 L 188.185 32.02 L 188.632 31.918 C 188.944 31.851 189.08 31.749 189.038 31.613 C 189.012 31.478 189.133 31.424 189.404 31.451 C 189.675 31.492 189.824 31.532 189.851 31.573 L 189.912 31.613 L 189.912 31.004 L 189.851 30.964 C 189.824 30.923 189.811 30.788 189.811 30.557 Z M 188.632 32.385 C 188.605 32.349 188.605 32.299 188.632 32.264 C 188.673 32.237 188.694 32.256 188.694 32.324 C 188.694 32.392 188.673 32.413 188.632 32.385 Z" stroke-width=".5" style="fill: rgb(255, 255, 255);" bx:origin="-0.07 -0.386"/>
  <path d="M 4.732 37.3 L 4.774 37.3 L 4.976 37.87 C 5.112 38.235 5.213 38.668 5.281 39.169 C 5.349 39.684 5.619 39.995 6.094 40.104 C 6.567 40.199 6.703 40.266 6.5 40.307 L 6.195 40.348 L 6.195 40.753 L 6.399 40.713 L 6.601 40.652 L 6.906 40.551 C 7.109 40.483 7.279 40.429 7.414 40.388 L 7.617 40.348 L 6.358 43.394 C 5.504 45.425 4.908 47.355 4.57 49.183 C 4.232 51.011 4.096 53.008 4.164 55.174 C 4.232 57.341 4.537 59.44 5.078 61.471 C 5.619 63.503 6.412 65.52 7.455 67.524 C 8.511 69.515 9.75 71.424 11.171 73.252 C 12.593 75.08 13.588 76.312 14.157 76.949 C 14.739 77.598 15.051 77.958 15.091 78.025 L 15.132 78.126 L 14.888 78.431 C 14.712 78.635 14.604 78.817 14.563 78.979 C 14.536 79.155 14.387 79.264 14.117 79.305 L 13.71 79.345 L 13.67 79.65 C 13.629 79.853 13.575 80.09 13.507 80.361 L 13.405 80.767 L 13.345 80.807 L 13.305 80.869 L 13.345 80.93 L 13.405 80.97 L 13.405 81.579 L 13.305 81.579 L 13.203 81.539 L 13.101 81.478 L 13.101 81.376 L 13 81.336 L 12.898 81.275 L 12.857 81.214 L 12.796 81.174 L 12.735 81.133 L 12.695 81.072 L 12.654 81.011 L 12.593 80.97 L 12.533 80.93 L 12.492 80.869 L 12.451 80.807 L 12.39 80.767 L 12.329 80.727 L 12.289 80.665 L 12.248 80.605 C 12.207 80.578 11.984 80.361 11.578 79.955 C 11.171 79.549 10.054 78.228 8.227 75.994 C 6.399 73.759 4.841 71.356 3.555 68.783 C 2.268 66.21 1.355 63.841 0.812 61.675 C 0.271 59.508 0 57.003 0 54.16 C 0 51.316 0.271 48.844 0.812 46.745 C 1.355 44.647 2.119 42.581 3.108 40.551 L 4.57 37.504 L 4.611 37.402 C 4.651 37.334 4.692 37.3 4.732 37.3 Z" stroke-width=".5" style="fill: rgb(255, 255, 255);" bx:origin="-0.002 -0.842"/>
  <path d="M 192.41 68.072 L 192.451 67.971 L 192.756 67.971 C 192.959 67.971 193.047 68.14 193.02 68.479 C 192.979 68.817 192.938 69.054 192.898 69.19 C 192.871 69.324 192.993 69.393 193.263 69.393 C 193.534 69.393 193.724 69.697 193.833 70.306 C 193.927 70.916 193.975 71.254 193.975 71.322 L 193.975 71.424 L 193.914 71.464 L 193.873 71.525 L 193.914 71.587 L 193.975 71.627 L 194.035 71.668 L 194.076 71.729 L 194.279 71.79 C 194.414 71.816 194.482 71.898 194.482 72.033 L 194.482 72.236 L 194.381 72.277 C 194.313 72.318 194.279 72.358 194.279 72.399 L 194.279 72.439 L 194.238 72.439 C 194.198 72.439 194.157 72.507 194.116 72.643 L 194.076 72.845 L 194.035 73.049 C 193.995 73.184 193.162 74.234 191.537 76.197 C 189.912 78.16 188.064 80.09 185.992 81.986 L 182.905 84.829 L 182.864 84.627 C 182.823 84.491 182.783 84.491 182.742 84.627 L 182.702 84.829 L 182.661 84.931 L 182.6 85.032 L 182.498 85.032 L 182.458 85.134 L 182.397 85.236 L 182.336 85.276 L 182.295 85.337 L 182.255 85.399 L 182.193 85.439 L 182.132 85.48 L 182.093 85.541 L 181.889 85.601 L 181.686 85.642 L 181.686 85.236 L 181.889 85.195 L 182.093 85.134 L 182.051 85.073 L 181.991 85.032 L 181.93 84.829 C 181.902 84.694 181.957 84.627 182.093 84.627 C 182.227 84.627 182.309 84.559 182.336 84.423 C 182.376 84.288 182.417 83.949 182.458 83.408 L 182.498 82.595 L 182.295 82.555 C 182.16 82.514 181.957 82.474 181.686 82.432 C 181.415 82.405 181.293 82.29 181.32 82.088 L 181.381 81.783 L 181.32 81.742 L 181.28 81.681 L 181.077 81.62 L 180.874 81.579 L 180.874 81.478 L 180.914 81.417 L 180.975 81.376 L 181.036 81.336 L 181.077 81.275 L 181.117 81.214 L 181.178 81.174 L 183.616 78.939 C 185.241 77.45 186.798 75.757 188.287 73.861 C 189.776 71.965 190.792 70.577 191.334 69.697 C 191.876 68.817 192.166 68.343 192.207 68.276 L 192.248 68.174 L 192.289 68.174 C 192.329 68.174 192.37 68.14 192.41 68.072 Z" stroke-width=".5" style="fill: rgb(255, 255, 255);" bx:origin="-13.293 -3.846"/>
</svg>