<?xml version="1.0" encoding="utf-8"?>
<svg xmlns="http://www.w3.org/2000/svg" xmlns:bx="https://boxy-svg.com">
  <g transform="matrix(1, 0, 0, 1, 0, 0.219)" bx:origin="0 0">
    <path d="M 403.811 36.831 L 403.691 36.648 L 403.565 36.465 L 403.385 36.342 L 403.202 36.222 L 403.079 36.039 L 402.959 35.856 L 402.776 35.733 L 402.593 35.613 L 402.47 35.427 L 402.35 35.247 L 402.164 35.127 L 401.981 35.001 L 401.861 34.821 L 401.738 34.638 L 401.555 34.515 L 401.375 34.395 L 401.252 34.212 L 401.129 34.026 L 400.949 33.906 L 400.766 33.783 L 400.643 33.6 L 400.523 33.417 L 400.337 33.297 L 400.154 33.174 L 400.034 32.991 L 402.47 32.991 L 403.691 33.297 L 404.909 33.6 L 425.627 39.39 C 439.436 43.248 452.435 47.616 464.624 52.491 C 476.81 57.366 487.331 62.178 496.187 66.933 C 505.004 71.724 513.005 76.602 520.196 81.558 C 527.426 86.553 533.927 91.632 539.693 96.792 C 545.504 101.991 550.745 107.637 555.416 113.73 C 560.087 119.823 563.744 125.511 566.384 130.791 C 569.024 136.074 570.953 141.354 572.171 146.634 C 573.392 151.917 573.899 157.197 573.698 162.48 C 573.494 167.757 572.579 173.241 570.953 178.929 C 569.327 184.617 567.095 190.302 564.251 195.99 C 561.41 201.678 557.852 207.366 553.589 213.054 C 549.32 218.742 544.814 223.98 540.062 228.774 C 535.265 233.526 528.908 238.749 520.988 244.434 C 513.068 250.122 504.74 255.3 496.004 259.971 C 487.271 264.642 477.521 269.013 466.757 273.072 C 455.99 277.137 449.696 279.471 447.866 280.08 C 446.039 280.689 444.716 281.097 443.906 281.301 L 442.688 281.604 L 441.773 281.91 L 440.858 282.213 L 439.943 282.516 L 439.031 282.822 L 438.422 283.005 L 437.813 283.128 L 437.813 281.91 L 438.422 281.787 L 439.031 281.604 L 439.154 281.421 L 439.337 281.301 L 439.517 281.178 L 439.64 280.995 L 439.76 280.812 L 439.943 280.689 L 440.129 280.569 L 440.249 280.386 L 440.372 280.2 L 440.555 280.08 L 440.738 279.957 L 440.858 279.774 L 440.981 279.594 L 441.164 279.471 L 441.347 279.348 C 441.428 279.228 441.713 278.901 442.199 278.373 C 442.73 277.887 445.571 274.557 450.731 268.383 C 455.93 262.167 460.196 255.87 463.526 249.492 C 466.898 243.075 469.193 237.021 470.411 231.333 C 471.632 225.648 472.037 220.77 471.632 216.708 C 471.224 212.646 470.309 209.091 468.89 206.043 C 467.465 203.001 465.677 200.499 463.526 198.552 C 461.414 196.641 458.834 195.078 455.789 193.857 C 452.741 192.642 448.781 192.03 443.906 192.03 C 439.031 192.03 433.547 193.044 427.454 195.078 C 421.361 197.109 415.166 200.055 408.869 203.913 C 402.572 207.774 396.782 211.935 391.502 216.402 L 383.582 223.107 L 383.459 223.29 L 383.276 223.413 L 383.093 223.533 L 382.973 223.716 L 382.058 223.899 L 381.146 224.019 L 381.02 223.413 C 380.9 223.005 379.418 220.77 376.574 216.708 C 373.73 212.646 370.946 209.64 368.225 207.69 C 365.462 205.782 362.762 204.726 360.122 204.522 C 357.482 204.318 354.536 205.029 351.284 206.655 C 348.035 208.278 345.194 210.312 342.755 212.748 C 340.319 215.187 336.866 219.552 332.396 225.849 C 327.926 232.146 321.593 242.871 313.385 258.024 L 301.016 280.689 L 300.711 281.301 L 300.405 281.91 L 300.102 282.516 L 299.796 283.128 L 299.492 283.737 L 299.19 284.346 L 298.883 283.737 L 298.578 283.128 L 298.275 282.516 L 297.969 281.91 L 297.785 281.787 L 297.663 281.604 L 297.543 281.421 L 297.359 281.301 L 297.056 280.689 C 296.849 280.284 293.805 274.494 287.916 263.325 C 282.024 252.153 276.642 242.607 271.767 234.684 C 266.892 226.761 262.485 220.608 258.543 216.222 C 254.565 211.875 251.151 208.887 248.31 207.264 C 245.466 205.641 242.823 204.726 240.387 204.522 C 237.951 204.318 236.121 204.42 234.903 204.828 C 233.682 205.233 231.753 206.451 229.113 208.482 C 226.473 210.516 223.833 213.621 221.19 217.806 L 217.233 224.019 L 216.318 223.899 L 215.403 223.716 L 215.28 223.533 L 215.1 223.413 L 214.917 223.29 L 214.794 223.107 L 206.874 216.402 C 201.591 211.935 195.801 207.774 189.507 203.913 C 183.21 200.055 177.522 197.211 172.443 195.384 C 167.367 193.554 162.693 192.438 158.43 192.03 C 154.164 191.625 150.204 191.826 146.547 192.642 C 142.89 193.455 139.947 194.529 137.712 195.87 C 135.477 197.172 134.361 198.024 134.361 198.429 C 134.361 198.834 134.157 199.038 133.752 199.038 C 133.347 199.038 132.288 200.562 130.584 203.607 C 128.835 206.655 127.659 209.601 127.047 212.445 C 126.441 215.289 126.339 219.147 126.744 224.019 C 127.149 228.894 128.37 234.177 130.401 239.865 C 132.432 245.553 135.375 251.34 139.236 257.229 C 143.094 263.121 146.994 268.26 150.936 272.646 C 154.917 276.993 156.948 279.228 157.029 279.348 L 157.212 279.471 L 157.392 279.594 L 157.515 279.774 L 157.638 279.957 L 157.821 280.08 L 158.004 280.2 L 158.124 280.386 L 158.247 280.569 L 158.43 280.689 L 158.613 280.812 L 158.736 280.995 L 158.856 281.178 L 159.039 281.301 L 159.222 281.421 L 159.345 281.604 L 159.951 281.787 L 160.563 281.91 L 160.563 283.128 L 159.951 283.005 L 159.345 282.822 L 158.43 282.516 L 157.515 282.213 L 156.603 281.91 L 155.688 281.604 L 154.773 281.301 C 154.164 281.097 151.827 280.386 147.765 279.168 C 143.706 277.947 136.494 275.205 126.135 270.942 C 115.776 266.676 106.533 262.308 98.412 257.838 C 90.285 253.371 82.872 248.7 76.167 243.825 C 69.465 238.95 63.717 234.135 58.923 229.383 C 54.159 224.577 49.683 219.489 45.519 214.149 C 41.394 208.776 37.725 203.073 34.551 197.088 C 31.422 191.076 29.046 185.124 27.42 179.235 C 25.797 173.343 24.882 167.655 24.681 162.174 C 24.474 156.69 24.984 151.407 26.202 146.331 C 27.42 141.252 29.454 135.87 32.298 130.182 C 35.139 124.497 38.937 118.644 43.689 112.632 C 48.483 106.662 54.03 100.935 60.327 95.451 C 66.621 89.967 73.02 84.99 79.521 80.52 C 86.019 76.053 93.84 71.379 102.981 66.504 C 112.119 61.632 122.886 56.757 135.276 51.882 C 147.663 47.007 160.461 42.744 173.664 39.084 L 193.467 33.6 L 194.685 33.297 L 195.903 32.991 L 198.342 32.991 L 198.219 33.174 L 198.036 33.297 L 197.853 33.417 L 197.733 33.6 L 197.61 33.783 L 197.43 33.906 L 197.244 34.026 L 197.124 34.212 L 197.001 34.395 L 196.818 34.515 L 196.635 34.638 L 196.515 34.821 L 196.392 35.001 L 196.209 35.127 L 196.026 35.247 L 195.903 35.427 L 195.783 35.613 L 195.6 35.733 L 195.414 35.856 L 195.294 36.039 L 195.171 36.222 L 194.991 36.342 L 194.808 36.465 L 194.685 36.648 L 188.469 44.142 C 184.284 49.101 181.077 53.811 178.842 58.278 C 176.61 62.748 175.083 66.606 174.273 69.858 C 173.46 73.107 173.154 76.458 173.358 79.911 C 173.562 83.364 174.414 86.757 175.917 90.087 C 177.462 93.459 179.148 96.261 180.975 98.496 C 182.802 100.731 185.748 103.167 189.813 105.81 C 193.872 108.45 198.645 110.685 204.129 112.512 C 209.616 114.339 216.012 115.254 223.323 115.254 C 230.637 115.254 235.716 114.543 238.56 113.121 C 241.401 111.699 244.002 110.034 246.357 108.126 C 248.673 106.173 251.253 103.068 254.097 98.802 C 256.941 94.536 259.377 89.763 261.411 84.48 C 263.442 79.2 264.963 68.841 265.98 53.403 C 266.994 37.971 267.846 28.461 268.539 24.888 C 269.271 21.354 271.218 22.572 274.386 28.542 C 277.515 34.557 279.426 38.679 280.116 40.914 C 280.845 43.146 283.143 43.899 287.001 43.17 C 290.859 42.477 295.632 42.234 301.32 42.438 C 307.007 42.642 311.069 43.005 313.505 43.533 C 315.944 44.022 318.137 41.829 320.087 36.954 C 321.995 32.079 323.966 27.912 325.997 24.462 C 328.028 21.009 329.654 24.969 330.872 36.342 C 332.093 47.718 332.903 57.264 333.311 64.983 C 333.716 72.702 334.934 79.2 336.968 84.48 C 338.996 89.763 341.294 94.272 343.853 98.01 C 346.37 101.787 348.746 104.793 350.981 107.025 C 353.213 109.263 355.958 111.192 359.207 112.815 C 362.459 114.441 367.739 115.254 375.05 115.254 C 382.361 115.254 388.76 114.339 394.244 112.512 C 399.728 110.685 404.195 108.654 407.651 106.419 C 411.104 104.184 414.089 101.706 416.609 98.982 C 419.168 96.222 421.157 93.114 422.579 89.661 C 424.001 86.208 424.712 82.35 424.712 78.084 C 424.712 73.818 424.001 69.654 422.579 65.592 C 421.157 61.53 419.024 57.264 416.183 52.797 C 413.339 48.327 410.594 44.571 407.954 41.523 C 405.314 38.475 403.934 36.912 403.811 36.831 Z" stroke-width=".5" style="fill: rgb(255, 255, 255);" bx:origin="-0.045 -0.088"/>
    <path d="M 569.309 90.27 L 569.432 90.576 L 569.432 91.671 C 569.432 92.364 569.471 92.769 569.552 92.892 L 569.735 93.012 L 569.735 94.839 L 569.552 94.719 C 569.471 94.596 569.225 94.476 568.823 94.353 C 568.415 94.272 568.172 94.434 568.091 94.839 C 567.968 95.247 567.359 95.553 566.264 95.754 L 564.554 96.06 L 564.86 96.792 C 565.064 97.317 565.328 97.44 565.652 97.155 C 565.937 96.831 566.138 96.972 566.264 97.581 L 566.384 98.496 L 565.166 98.496 L 565.043 99.105 L 564.86 99.714 L 564.677 99.594 L 564.554 99.411 L 564.434 99.228 L 564.251 99.105 L 563.948 98.496 C 563.744 98.091 563.501 98.052 563.216 98.376 L 562.727 98.802 L 562.607 98.982 L 562.424 99.105 L 562.238 99.228 L 562.118 99.411 L 562.118 99.714 L 561.815 99.594 C 561.608 99.471 559.274 97.176 554.807 92.709 C 550.337 88.239 545.096 83.628 539.084 78.876 C 533.114 74.082 525.923 69.087 517.514 63.885 C 509.066 58.728 499.559 53.709 488.996 48.834 C 478.436 43.959 466.859 39.39 454.265 35.127 C 441.674 30.858 428.165 27.102 413.744 23.853 C 399.323 20.601 384.392 17.961 368.957 15.93 C 353.519 13.899 336.662 12.579 318.38 11.97 C 300.102 11.361 283.752 11.463 269.328 12.276 C 254.91 13.086 240.387 14.508 225.762 16.539 C 211.137 18.57 196.515 21.312 181.89 24.768 C 167.265 28.218 153.861 32.079 141.675 36.342 C 129.486 40.608 118.314 45.18 108.159 50.055 C 98.004 54.93 88.761 59.904 80.436 64.983 C 72.105 70.062 64.491 75.444 57.585 81.129 C 50.676 86.817 44.886 92.301 40.215 97.581 C 35.544 102.864 31.485 108.084 28.029 113.241 L 22.851 121.044 L 22.728 121.044 C 22.608 121.044 22.485 121.143 22.365 121.347 L 22.242 121.653 L 21.024 121.773 L 19.803 121.956 L 19.197 122.139 L 18.585 122.259 L 18.585 121.044 L 19.5 120.921 C 20.109 120.798 19.701 120.597 18.282 120.312 C 16.857 119.985 16.107 119.214 16.026 117.996 C 15.906 116.775 15.498 115.557 14.808 114.339 L 13.71 112.512 L 14.016 112.389 C 14.22 112.269 14.322 112.146 14.322 112.026 L 14.322 111.9 L 19.074 104.895 C 22.2 100.224 26.751 94.677 32.724 88.26 C 38.733 81.882 45.396 75.849 52.71 70.161 C 60.021 64.476 68.448 58.788 77.997 53.1 C 87.543 47.415 97.497 42.234 107.856 37.563 C 118.215 32.889 128.976 28.626 140.148 24.768 C 151.32 20.907 164.118 17.253 178.539 13.797 C 192.957 10.344 207.987 7.5 223.629 5.265 C 239.268 3.033 254.502 1.509 269.328 0.696 C 284.16 -0.117 300.609 -0.219 318.686 0.393 C 336.764 1.002 353.621 2.322 369.26 4.353 C 384.902 6.384 399.932 9.024 414.353 12.276 C 428.774 15.525 442.991 19.485 457.007 24.156 C 471.02 28.827 483.716 33.804 495.092 39.084 C 506.465 44.367 516.518 49.749 525.254 55.233 C 533.987 60.717 540.629 65.226 545.177 68.763 C 549.767 72.333 554.399 76.254 559.073 80.52 C 563.744 84.786 566.588 87.426 567.602 88.443 C 568.619 89.457 569.186 90.066 569.309 90.27 Z" stroke-width=".5" style="fill: rgb(255, 255, 255);" bx:origin="-0.025 0"/>
    <path d="M 44.664 235.293 L 45.396 234.378 L 55.146 242.421 C 61.647 247.824 68.958 253.167 77.082 258.45 C 85.209 263.73 94.449 268.911 104.808 273.987 C 115.167 279.066 126.945 283.941 140.148 288.612 C 153.351 293.283 167.265 297.345 181.89 300.798 C 196.515 304.251 211.137 306.993 225.762 309.024 C 240.387 311.055 254.91 312.477 269.328 313.29 C 283.752 314.103 300.102 314.205 318.38 313.593 C 336.662 312.984 353.519 311.664 368.957 309.636 C 384.392 307.605 399.323 304.962 413.744 301.713 C 428.165 298.461 441.674 294.705 454.265 290.439 C 466.859 286.173 478.679 281.46 489.728 276.303 C 500.819 271.104 510.689 265.824 519.344 260.46 C 527.954 255.057 533.681 251.238 536.525 249.006 C 539.369 246.768 540.995 245.553 541.403 245.349 L 542.009 245.043 L 542.315 244.86 L 542.621 244.737 L 543.23 244.86 L 543.839 245.043 L 543.959 245.226 L 544.142 245.349 L 544.325 245.469 L 544.448 245.652 L 545.363 245.838 L 546.278 245.958 L 546.278 247.785 L 547.493 247.785 L 547.799 250.344 C 548.003 252.093 548.144 253.023 548.225 253.149 C 548.348 253.23 548.468 253.473 548.591 253.881 L 548.714 254.487 L 548.714 254.61 C 548.714 254.733 548.51 254.853 548.105 254.976 L 547.493 255.096 L 547.373 254.793 C 547.25 254.589 546.926 254.385 546.395 254.181 C 545.909 253.983 545.705 254.082 545.789 254.487 L 545.972 255.096 L 545.789 255.585 C 545.705 255.87 545.666 256.071 545.666 256.197 L 545.666 256.317 L 545.363 256.44 C 545.159 256.56 545.057 256.683 545.057 256.803 L 545.057 256.926 L 544.934 257.229 C 544.814 257.433 541.298 259.869 534.392 264.54 C 527.489 269.214 519.629 273.945 510.812 278.742 C 501.956 283.494 491.537 288.306 479.552 293.181 C 467.567 298.056 454.571 302.523 440.555 306.588 C 426.542 310.65 411.812 314.103 396.377 316.947 C 381.047 319.776 365.591 321.909 350.069 323.343 C 334.631 324.765 317.873 325.476 299.796 325.476 C 281.718 325.476 266.484 324.969 254.097 323.952 C 241.707 322.938 228.099 321.21 213.27 318.774 C 198.444 316.335 184.023 313.29 170.007 309.636 C 155.994 305.976 143.196 302.019 131.619 297.75 C 120.042 293.487 108.771 288.612 97.8 283.128 C 86.832 277.644 77.388 272.361 69.465 267.285 C 61.545 262.206 54.639 257.169 48.747 252.171 L 39.915 244.737 L 39.609 244.617 L 39.303 244.434 L 39.303 244.008 C 39.303 243.885 39.465 243.681 39.789 243.399 L 40.215 242.91 L 40.035 242.79 L 39.915 242.607 L 40.035 242.421 L 40.215 242.301 L 40.521 241.083 C 40.725 240.27 40.887 239.559 41.01 238.95 L 41.13 238.035 L 42.351 237.915 C 43.161 237.792 43.608 237.468 43.689 236.937 C 43.812 236.451 44.136 235.905 44.664 235.293 Z M 569.432 91.671 L 569.432 90.576 L 576.254 99.105 C 580.844 104.793 584.765 110.685 588.014 116.775 C 591.266 122.871 593.906 129.372 595.937 136.275 C 597.968 143.181 599.186 148.26 599.594 151.509 C 599.999 154.758 600.101 159.534 599.9 165.828 C 599.693 172.125 598.781 178.524 597.158 185.025 C 595.529 191.523 593.195 197.919 590.147 204.216 C 587.102 210.516 585.476 213.864 585.272 214.272 L 584.969 214.881 L 584.783 215.004 L 584.666 215.187 L 584.54 215.37 L 584.36 215.49 L 584.057 216.402 L 583.751 217.317 L 583.568 217.44 L 583.445 217.623 L 583.325 217.806 L 583.142 217.929 L 582.956 218.049 L 582.836 218.232 L 582.713 218.415 L 582.53 218.535 L 582.227 218.535 L 582.347 217.317 L 582.53 216.099 L 582.53 215.49 L 582.347 215.37 L 582.227 215.187 L 582.104 215.004 L 581.924 214.881 L 581.741 214.761 L 581.618 214.575 L 581.741 214.392 L 581.924 214.272 L 581.924 213.966 C 581.924 213.762 581.78 212.748 581.498 210.918 C 581.171 209.091 580.601 208.179 579.788 208.179 C 578.978 208.179 578.612 207.972 578.693 207.57 C 578.813 207.162 578.936 206.451 579.059 205.437 C 579.14 204.42 578.774 204.015 577.961 204.216 L 576.743 204.522 L 576.866 203.913 C 576.986 203.508 577.859 201.678 579.485 198.429 C 581.111 195.18 582.734 190.509 584.36 184.413 C 585.983 178.32 586.799 171.108 586.799 162.78 C 586.799 154.455 586.085 147.549 584.666 142.065 C 583.241 136.581 581.111 130.893 578.267 125.001 C 575.423 119.112 572.111 113.688 568.334 108.732 L 562.727 101.238 L 562.607 101.055 L 562.424 100.935 L 562.238 100.326 L 562.118 99.714 L 562.118 99.411 L 562.238 99.228 L 562.424 99.105 L 562.607 98.982 L 562.727 98.802 L 563.216 98.376 C 563.501 98.052 563.744 98.091 563.948 98.496 L 564.251 99.105 L 564.434 99.228 L 564.554 99.411 L 564.677 99.594 L 564.86 99.714 L 564.86 98.802 C 564.86 98.193 564.797 97.581 564.677 96.972 L 564.554 96.06 L 565.895 95.754 C 566.831 95.553 567.239 95.247 567.113 94.839 C 567.035 94.434 567.398 94.272 568.211 94.353 C 569.024 94.476 569.471 94.596 569.552 94.719 L 569.735 94.839 L 569.735 93.012 L 569.552 92.892 C 569.471 92.769 569.432 92.364 569.432 91.671 Z M 565.895 97.155 C 565.814 97.047 565.814 96.897 565.895 96.792 C 566.018 96.711 566.081 96.768 566.081 96.972 C 566.081 97.176 566.018 97.239 565.895 97.155 Z" stroke-width=".5" style="fill: rgb(255, 255, 255);" bx:origin="-0.07 -0.386"/>
    <path d="M 14.196 111.9 L 14.322 111.9 L 14.928 113.61 C 15.336 114.705 15.639 116.004 15.843 117.507 C 16.047 119.052 16.857 119.985 18.282 120.312 C 19.701 120.597 20.109 120.798 19.5 120.921 L 18.585 121.044 L 18.585 122.259 L 19.197 122.139 L 19.803 121.956 L 20.718 121.653 C 21.327 121.449 21.837 121.287 22.242 121.164 L 22.851 121.044 L 19.074 130.182 C 16.512 136.275 14.724 142.065 13.71 147.549 C 12.696 153.033 12.288 159.024 12.492 165.522 C 12.696 172.023 13.611 178.32 15.234 184.413 C 16.857 190.509 19.236 196.56 22.365 202.572 C 25.533 208.545 29.25 214.272 33.513 219.756 C 37.779 225.24 40.764 228.936 42.471 230.847 C 44.217 232.794 45.153 233.874 45.273 234.075 L 45.396 234.378 L 44.664 235.293 C 44.136 235.905 43.812 236.451 43.689 236.937 C 43.608 237.465 43.161 237.792 42.351 237.915 L 41.13 238.035 L 41.01 238.95 C 40.887 239.559 40.725 240.27 40.521 241.083 L 40.215 242.301 L 40.035 242.421 L 39.915 242.607 L 40.035 242.79 L 40.215 242.91 L 40.215 244.737 L 39.915 244.737 L 39.609 244.617 L 39.303 244.434 L 39.303 244.128 L 39 244.008 L 38.694 243.825 L 38.571 243.642 L 38.388 243.522 L 38.205 243.399 L 38.085 243.216 L 37.962 243.033 L 37.779 242.91 L 37.599 242.79 L 37.476 242.607 L 37.353 242.421 L 37.17 242.301 L 36.987 242.181 L 36.867 241.995 L 36.744 241.815 C 36.621 241.734 35.952 241.083 34.734 239.865 C 33.513 238.647 30.162 234.684 24.681 227.982 C 19.197 221.277 14.523 214.068 10.665 206.349 C 6.804 198.63 4.065 191.523 2.436 185.025 C 0.813 178.524 0 171.009 0 162.48 C 0 153.948 0.813 146.532 2.436 140.235 C 4.065 133.941 6.357 127.743 9.324 121.653 L 13.71 112.512 L 13.833 112.206 C 13.953 112.002 14.076 111.9 14.196 111.9 Z" stroke-width=".5" style="fill: rgb(255, 255, 255);" bx:origin="-0.002 -0.842"/>
    <path d="M 577.229 204.216 L 577.352 203.913 L 578.267 203.913 C 578.876 203.913 579.14 204.42 579.059 205.437 C 578.936 206.451 578.813 207.162 578.693 207.57 C 578.612 207.972 578.978 208.179 579.788 208.179 C 580.601 208.179 581.171 209.091 581.498 210.918 C 581.78 212.748 581.924 213.762 581.924 213.966 L 581.924 214.272 L 581.741 214.392 L 581.618 214.575 L 581.741 214.761 L 581.924 214.881 L 582.104 215.004 L 582.227 215.187 L 582.836 215.37 C 583.241 215.448 583.445 215.694 583.445 216.099 L 583.445 216.708 L 583.142 216.831 C 582.938 216.954 582.836 217.074 582.836 217.197 L 582.836 217.317 L 582.713 217.317 C 582.593 217.317 582.47 217.521 582.347 217.929 L 582.227 218.535 L 582.104 219.147 C 581.984 219.552 579.485 222.702 574.61 228.591 C 569.735 234.48 564.191 240.27 557.975 245.958 L 548.714 254.487 L 548.591 253.881 C 548.468 253.473 548.348 253.473 548.225 253.881 L 548.105 254.487 L 547.982 254.793 L 547.799 255.096 L 547.493 255.096 L 547.373 255.402 L 547.19 255.708 L 547.007 255.828 L 546.884 256.011 L 546.764 256.197 L 546.578 256.317 L 546.395 256.44 L 546.278 256.623 L 545.666 256.803 L 545.057 256.926 L 545.057 255.708 L 545.666 255.585 L 546.278 255.402 L 546.152 255.219 L 545.972 255.096 L 545.789 254.487 C 545.705 254.082 545.87 253.881 546.278 253.881 C 546.68 253.881 546.926 253.677 547.007 253.269 C 547.127 252.864 547.25 251.847 547.373 250.224 L 547.493 247.785 L 546.884 247.665 C 546.479 247.542 545.87 247.422 545.057 247.296 C 544.244 247.215 543.878 246.87 543.959 246.264 L 544.142 245.349 L 543.959 245.226 L 543.839 245.043 L 543.23 244.86 L 542.621 244.737 L 542.621 244.434 L 542.741 244.251 L 542.924 244.128 L 543.107 244.008 L 543.23 243.825 L 543.35 243.642 L 543.533 243.522 L 550.847 236.817 C 555.722 232.35 560.393 227.271 564.86 221.583 C 569.327 215.895 572.375 211.731 574.001 209.091 C 575.627 206.451 576.497 205.029 576.62 204.828 L 576.743 204.522 L 576.866 204.522 C 576.986 204.522 577.109 204.42 577.229 204.216 Z" stroke-width=".5" style="fill: rgb(255, 255, 255);" bx:origin="-13.294 -3.846"/>
  </g>
</svg>